<?xml version="1.0" encoding="UTF-8"?>
<svg id="Image" xmlns="http://www.w3.org/2000/svg" xmlns:xlink="http://www.w3.org/1999/xlink" viewBox="0 0 988 940">
  <defs>
    <style>
      .cls-1 {
        fill: #c2bfaa;
      }

      .cls-2 {
        fill: #12993f;
      }

      .cls-3 {
        fill: #94ef8b;
      }

      .cls-4 {
        fill: #1cb829;
      }

      .cls-5 {
        fill: #d87625;
      }

      .cls-6 {
        fill: #d3d4bf;
      }

      .cls-7 {
        fill: #93d2ad;
      }

      .cls-8 {
        fill: #e6e9d5;
      }

      .cls-9, .cls-10 {
        fill: none;
      }

      .cls-11 {
        fill: #93dba1;
      }

      .cls-12 {
        fill: #aa5217;
      }

      .cls-13 {
        clip-path: url(#clippath-1);
      }

      .cls-10 {
        clip-path: url(#clippath);
      }

      .cls-14 {
        fill: #6d3108;
      }

      .cls-15 {
        fill: #333;
      }

      .cls-16 {
        fill: #34d434;
      }

      .cls-17 {
        fill: #6d3108;
      }

      .cls-18 {
        fill: #dddeca;
      }

      .cls-19 {
        fill: #086d3b;
      }

      .cls-20 {
        fill: #af975a;
      }
    </style>
    <clipPath id="clippath">
      <polygon class="cls-9" points="2 940 2 4.46 986 177.94 986 940 2 940"/>
    </clipPath>
    <clipPath id="clippath-1">
      <polygon class="cls-10" points="2 937.54 2 2 986 175.48 986 937.54 2 937.54"/>
    </clipPath>
  </defs>
  <g class="cls-13">
    <rect class="cls-8" x="-40.19" y="-31.19" width="1086.63" height="703.35"/>
    <rect class="cls-8" x="602.34" y="342.54" width="8.99" height="2.57"/>
    <rect class="cls-8" x="613.04" y="342.54" width="8.99" height="2.57"/>
    <rect class="cls-8" x="630.83" y="342.54" width="8.99" height="2.57"/>
    <rect class="cls-8" x="602.34" y="346.54" width="8.99" height="2.57"/>
    <rect class="cls-18" x="688.15" y="247.34" width="45.9" height="164.75"/>
    <rect class="cls-18" x="229.57" y="349.65" width="62.33" height="300.02"/>
    <rect class="cls-18" x="511.78" y="442.45" width="124.22" height="208.98"/>
    <rect class="cls-8" x="516.64" y="596.4" width="5.52" height="13.67"/>
    <rect class="cls-8" x="525.33" y="596.4" width="5.52" height="13.67"/>
    <rect class="cls-8" x="516.64" y="613.39" width="5.52" height="13.67"/>
    <rect class="cls-6" x="698.76" y="341.69" width="75.09" height="315.86"/>
    <rect class="cls-1" x="756.1" y="538.66" width="56.12" height="120.27"/>
    <rect class="cls-18" x="928.27" y="397.01" width="70.68" height="272.47"/>
    <path class="cls-18" d="M472.31,654.92h-74.55v-390.08h22.78l51.77,51.77v338.3Z"/>
    <rect class="cls-6" x="465.1" y="547.48" width="58.4" height="116.15"/>
    <rect class="cls-18" x="146.4" y="124.09" width="14.48" height="37.98"/>
    <rect class="cls-18" x="41.31" y="301.74" width="56.57" height="348.68"/>
    <rect class="cls-6" x="-16.63" y="414.83" width="67.47" height="240.41"/>
    <rect class="cls-6" x="88.1" y="513.72" width="54.39" height="139.97"/>
    <path class="cls-7" d="M885.89,814.42c-39.11-3.94-78.31-7.01-117.55-9.33-67.35-3.99-134.82-5.79-202.28-5.99-92.03-.27-184.12,3.23-276.17,5.69-50.02,1.34-100.1,2.68-149.95,7.23-14.77,1.35-123.11,5.82-109.43,37.56,2.14,4.97,10.76,8.54,15.43,10.93,13.46,6.9,29.06,10.12,43.75,13.17,34.49,7.16,69.66,11.04,104.68,14.5,28.51,2.82,56.86,5.86,85.23,3.08,14.52-1.43,30.35,3.08,44.78,4.86,16.6,2.04,33.25,3.76,49.92,5.19,66.74,5.73,133.84,6.7,200.76,4.24,63.02-2.32,125.91-7.68,188.54-15.05,37.2-4.38,74.45-9.49,110.82-18.65,18.39-4.63,35.89-12.69,54.12-17.31,8.02-2.03,34.76-4.71,32.68-17.9-1.92-12.13-41.52-18.81-75.32-22.22Z"/>
    <rect class="cls-6" x="562.15" y="375.77" width="43.27" height="301.62"/>
    <rect class="cls-1" x="625.21" y="407.44" width="87.31" height="248.25"/>
    <rect class="cls-6" x="835.03" y="338.23" width="74.68" height="311.87"/>
    <rect class="cls-1" x="881.18" y="469.77" width="74.55" height="182.92"/>
    <rect class="cls-6" x="321.74" y="350.98" width="57.2" height="305.69"/>
    <rect class="cls-1" x="369.5" y="481.63" width="56.76" height="173.55"/>
    <rect class="cls-1" x="369.5" y="481.63" width="56.76" height="173.55"/>
    <rect class="cls-1" x="168.4" y="286.99" width="74.68" height="386.75"/>
    <rect class="cls-1" x="265.42" y="399.27" width="74.68" height="256.33"/>
    <rect class="cls-8" x="307.05" y="405.5" width="4.85" height="19.06"/>
    <rect class="cls-8" x="314.69" y="405.5" width="4.85" height="19.06"/>
    <rect class="cls-8" x="322.33" y="405.5" width="4.85" height="19.06"/>
    <rect class="cls-8" x="329.63" y="405.5" width="4.85" height="19.06"/>
    <rect class="cls-8" x="322.33" y="427.39" width="4.85" height="19.06"/>
    <rect class="cls-8" x="329.63" y="427.39" width="4.85" height="19.06"/>
    <rect class="cls-8" x="322.33" y="449.27" width="4.85" height="19.06"/>
    <rect class="cls-8" x="315.02" y="427.39" width="4.85" height="19.06"/>
    <rect class="cls-8" x="329.63" y="449.27" width="4.85" height="19.06"/>
    <rect class="cls-8" x="273.83" y="599.56" width="4.85" height="19.06"/>
    <rect class="cls-8" x="273.83" y="577.77" width="4.85" height="19.06"/>
    <rect class="cls-8" x="281.13" y="599.56" width="4.85" height="19.06"/>
    <rect class="cls-8" x="273.83" y="621.45" width="4.85" height="19.06"/>
    <rect class="cls-8" x="281.13" y="621.45" width="4.85" height="19.06"/>
    <rect class="cls-8" x="177.84" y="299.35" width="55.8" height="4.34"/>
    <rect class="cls-8" x="177.84" y="308.92" width="55.8" height="4.34"/>
    <rect class="cls-8" x="177.84" y="318.48" width="55.8" height="4.34"/>
    <rect class="cls-8" x="177.84" y="328.05" width="55.8" height="4.34"/>
    <rect class="cls-8" x="177.84" y="605.83" width="55.8" height="4.34"/>
    <rect class="cls-8" x="177.84" y="615.4" width="55.8" height="4.34"/>
    <rect class="cls-8" x="177.84" y="506.34" width="55.8" height="4.34"/>
    <rect class="cls-8" x="177.84" y="515.91" width="55.8" height="4.34"/>
    <rect class="cls-8" x="177.84" y="441.25" width="55.8" height="4.34"/>
    <rect class="cls-8" x="177.84" y="450.82" width="55.8" height="4.34"/>
    <rect class="cls-8" x="177.84" y="346.41" width="55.8" height="4.34"/>
    <rect class="cls-8" x="177.84" y="355.97" width="55.8" height="4.34"/>
    <rect class="cls-1" x="203.17" y="286.99" width="5.13" height="386.75"/>
    <rect class="cls-3" x="-68.55" y="649.67" width="1247.87" height="354.53"/>
    <rect class="cls-8" x="845.03" y="348.16" width="7.67" height="8.6"/>
    <rect class="cls-8" x="854.44" y="348.16" width="7.67" height="8.6"/>
    <rect class="cls-8" x="863.7" y="348.16" width="7.67" height="8.6"/>
    <rect class="cls-8" x="872.97" y="348.16" width="7.67" height="8.6"/>
    <rect class="cls-8" x="882.23" y="348.16" width="7.67" height="8.6"/>
    <rect class="cls-8" x="845.03" y="358.59" width="7.67" height="8.6"/>
    <rect class="cls-8" x="854.44" y="358.59" width="7.67" height="8.6"/>
    <rect class="cls-8" x="863.7" y="358.59" width="7.67" height="8.6"/>
    <rect class="cls-8" x="872.97" y="358.59" width="7.67" height="8.6"/>
    <rect class="cls-8" x="845.03" y="369.02" width="7.67" height="8.6"/>
    <rect class="cls-8" x="854.44" y="369.02" width="7.67" height="8.6"/>
    <rect class="cls-8" x="887.14" y="418.98" width="7.67" height="8.6"/>
    <rect class="cls-8" x="896.54" y="418.98" width="7.67" height="8.6"/>
    <rect class="cls-8" x="887.14" y="429.41" width="7.67" height="8.6"/>
    <rect class="cls-8" x="896.54" y="429.41" width="7.67" height="8.6"/>
    <rect class="cls-8" x="887.14" y="439.85" width="7.67" height="8.6"/>
    <rect class="cls-8" x="896.54" y="439.85" width="7.67" height="8.6"/>
    <rect class="cls-8" x="841.39" y="519.59" width="7.67" height="8.6"/>
    <rect class="cls-8" x="850.79" y="519.59" width="7.67" height="8.6"/>
    <rect class="cls-8" x="841.39" y="530.02" width="7.67" height="8.6"/>
    <rect class="cls-8" x="850.79" y="530.02" width="7.67" height="8.6"/>
    <rect class="cls-8" x="841.39" y="540.45" width="7.67" height="8.6"/>
    <rect class="cls-8" x="850.79" y="540.45" width="7.67" height="8.6"/>
    <rect class="cls-8" x="841.39" y="550.48" width="7.67" height="8.6"/>
    <rect class="cls-8" x="850.79" y="550.48" width="7.67" height="8.6"/>
    <rect class="cls-8" x="860.1" y="530.02" width="7.67" height="8.6"/>
    <rect class="cls-8" x="860.1" y="540.45" width="7.67" height="8.6"/>
    <rect class="cls-8" x="860.1" y="550.48" width="7.67" height="8.6"/>
    <rect class="cls-8" x="841.39" y="560.92" width="7.67" height="8.6"/>
    <rect class="cls-8" x="850.79" y="560.92" width="7.67" height="8.6"/>
    <rect class="cls-8" x="841.39" y="571.35" width="7.67" height="8.6"/>
    <rect class="cls-8" x="863.7" y="369.02" width="7.67" height="8.6"/>
    <rect class="cls-8" x="366.99" y="357.84" width="4.58" height="6.66"/>
    <rect class="cls-8" x="360.9" y="357.84" width="4.58" height="6.66"/>
    <rect class="cls-8" x="354.91" y="357.84" width="4.58" height="6.66"/>
    <rect class="cls-8" x="348.91" y="357.84" width="4.58" height="6.66"/>
    <rect class="cls-8" x="342.91" y="357.84" width="4.58" height="6.66"/>
    <rect class="cls-8" x="366.99" y="365.9" width="4.58" height="6.66"/>
    <rect class="cls-8" x="282.28" y="354.35" width="4.58" height="6.66"/>
    <rect class="cls-8" x="276.19" y="354.35" width="4.58" height="6.66"/>
    <rect class="cls-8" x="282.28" y="362.41" width="4.58" height="6.66"/>
    <rect class="cls-8" x="46.37" y="306.26" width="4.58" height="6.66" transform="translate(97.33 619.19) rotate(180)"/>
    <rect class="cls-8" x="52.44" y="306.26" width="4.58" height="6.66" transform="translate(109.46 619.19) rotate(180)"/>
    <rect class="cls-8" x="58.51" y="306.26" width="4.58" height="6.66" transform="translate(121.6 619.19) rotate(180)"/>
    <rect class="cls-8" x="64.58" y="306.26" width="4.58" height="6.66" transform="translate(133.73 619.19) rotate(180)"/>
    <rect class="cls-8" x="46.37" y="314.12" width="4.58" height="6.66" transform="translate(97.33 634.9) rotate(180)"/>
    <rect class="cls-8" x="52.44" y="314.12" width="4.58" height="6.66" transform="translate(109.46 634.9) rotate(180)"/>
    <rect class="cls-8" x="58.51" y="314.12" width="4.58" height="6.66" transform="translate(121.6 634.9) rotate(180)"/>
    <rect class="cls-8" x="46.37" y="321.98" width="4.58" height="6.66" transform="translate(97.33 650.61) rotate(180)"/>
    <rect class="cls-8" x="71.82" y="356.46" width="4.58" height="6.66" transform="translate(148.21 719.58) rotate(180)"/>
    <rect class="cls-8" x="77.88" y="356.46" width="4.58" height="6.66" transform="translate(160.35 719.58) rotate(180)"/>
    <rect class="cls-8" x="83.95" y="356.46" width="4.58" height="6.66" transform="translate(172.48 719.58) rotate(180)"/>
    <rect class="cls-8" x="71.82" y="364.31" width="4.58" height="6.66" transform="translate(148.21 735.29) rotate(180)"/>
    <rect class="cls-8" x="77.88" y="364.31" width="4.58" height="6.66" transform="translate(160.35 735.29) rotate(180)"/>
    <rect class="cls-8" x="83.95" y="364.31" width="4.58" height="6.66" transform="translate(172.48 735.29) rotate(180)"/>
    <rect class="cls-8" x="71.82" y="372.17" width="4.58" height="6.66" transform="translate(148.21 751) rotate(180)"/>
    <rect class="cls-8" x="77.88" y="372.17" width="4.58" height="6.66" transform="translate(160.35 751) rotate(180)"/>
    <rect class="cls-8" x="83.95" y="372.17" width="4.58" height="6.66" transform="translate(172.48 751) rotate(180)"/>
    <rect class="cls-8" x="90.02" y="372.17" width="4.58" height="6.66" transform="translate(184.62 751) rotate(180)"/>
    <rect class="cls-8" x="71.82" y="380.54" width="4.58" height="6.66" transform="translate(148.21 767.74) rotate(180)"/>
    <rect class="cls-8" x="77.88" y="380.54" width="4.58" height="6.66" transform="translate(160.35 767.74) rotate(180)"/>
    <rect class="cls-8" x="83.95" y="380.54" width="4.58" height="6.66" transform="translate(172.48 767.74) rotate(180)"/>
    <rect class="cls-8" x="90.02" y="380.54" width="4.58" height="6.66" transform="translate(184.62 767.74) rotate(180)"/>
    <rect class="cls-8" x="77.88" y="388.39" width="4.58" height="6.66" transform="translate(160.35 783.45) rotate(180)"/>
    <rect class="cls-8" x="83.95" y="388.39" width="4.58" height="6.66" transform="translate(172.48 783.45) rotate(180)"/>
    <rect class="cls-8" x="90.02" y="388.39" width="4.58" height="6.66" transform="translate(184.62 783.45) rotate(180)"/>
    <rect class="cls-8" x="77.88" y="396.25" width="4.58" height="6.66" transform="translate(160.35 799.16) rotate(180)"/>
    <rect class="cls-8" x="83.95" y="396.25" width="4.58" height="6.66" transform="translate(172.48 799.16) rotate(180)"/>
    <rect class="cls-8" x="90.02" y="396.25" width="4.58" height="6.66" transform="translate(184.62 799.16) rotate(180)"/>
    <rect class="cls-8" x="54.75" y="465.79" width="4.58" height="6.66" transform="translate(114.08 938.25) rotate(180)"/>
    <rect class="cls-8" x="60.82" y="465.79" width="4.58" height="6.66" transform="translate(126.21 938.25) rotate(180)"/>
    <rect class="cls-8" x="66.88" y="465.79" width="4.58" height="6.66" transform="translate(138.35 938.25) rotate(180)"/>
    <rect class="cls-8" x="72.95" y="465.79" width="4.58" height="6.66" transform="translate(150.48 938.25) rotate(180)"/>
    <rect class="cls-8" x="54.75" y="473.65" width="4.58" height="6.66" transform="translate(114.08 953.96) rotate(180)"/>
    <rect class="cls-8" x="60.82" y="473.65" width="4.58" height="6.66" transform="translate(126.21 953.96) rotate(180)"/>
    <rect class="cls-8" x="66.88" y="473.65" width="4.58" height="6.66" transform="translate(138.35 953.96) rotate(180)"/>
    <rect class="cls-8" x="54.75" y="481.51" width="4.58" height="6.66" transform="translate(114.08 969.67) rotate(180)"/>
    <rect class="cls-8" x="60.82" y="481.51" width="4.58" height="6.66" transform="translate(126.21 969.67) rotate(180)"/>
    <rect class="cls-8" x="72.46" y="568.99" width="4.58" height="6.66" transform="translate(149.49 1144.63) rotate(180)"/>
    <rect class="cls-8" x="78.52" y="568.99" width="4.58" height="6.66" transform="translate(161.63 1144.63) rotate(180)"/>
    <rect class="cls-8" x="72.46" y="576.84" width="4.58" height="6.66" transform="translate(149.49 1160.34) rotate(180)"/>
    <rect class="cls-8" x="78.52" y="576.84" width="4.58" height="6.66" transform="translate(161.63 1160.34) rotate(180)"/>
    <rect class="cls-8" x="72.46" y="584.7" width="4.58" height="6.66" transform="translate(149.49 1176.06) rotate(180)"/>
    <rect class="cls-8" x="78.52" y="584.7" width="4.58" height="6.66" transform="translate(161.63 1176.06) rotate(180)"/>
    <rect class="cls-8" x="360.9" y="365.9" width="4.58" height="6.66"/>
    <rect class="cls-8" x="354.91" y="365.9" width="4.58" height="6.66"/>
    <rect class="cls-8" x="348.91" y="365.9" width="4.58" height="6.66"/>
    <rect class="cls-8" x="342.91" y="365.9" width="4.58" height="6.66"/>
    <rect class="cls-8" x="366.99" y="373.96" width="4.58" height="6.66"/>
    <rect class="cls-8" x="360.9" y="373.96" width="4.58" height="6.66"/>
    <rect class="cls-8" x="354.91" y="373.96" width="4.58" height="6.66"/>
    <rect class="cls-8" x="643.08" y="417.15" width="6.4" height="9.31"/>
    <rect class="cls-8" x="651.66" y="417.15" width="6.4" height="9.31"/>
    <rect class="cls-8" x="660.23" y="417.15" width="6.4" height="9.31"/>
    <rect class="cls-8" x="668.81" y="417.15" width="6.4" height="9.31"/>
    <rect class="cls-8" x="677.39" y="417.15" width="6.4" height="9.31"/>
    <rect class="cls-8" x="634.63" y="428.3" width="6.4" height="9.31"/>
    <rect class="cls-8" x="643.08" y="428.3" width="6.4" height="9.31"/>
    <rect class="cls-8" x="651.66" y="428.3" width="6.4" height="9.31"/>
    <rect class="cls-8" x="682.51" y="492.49" width="6.4" height="9.31"/>
    <rect class="cls-8" x="690.97" y="492.49" width="6.4" height="9.31"/>
    <rect class="cls-8" x="699.55" y="492.49" width="6.4" height="9.31"/>
    <rect class="cls-8" x="682.51" y="503.64" width="6.4" height="9.31"/>
    <rect class="cls-8" x="690.97" y="503.64" width="6.4" height="9.31"/>
    <rect class="cls-8" x="699.55" y="503.64" width="6.4" height="9.31"/>
    <rect class="cls-8" x="636.48" y="583.41" width="6.4" height="9.31"/>
    <rect class="cls-8" x="644.94" y="583.41" width="6.4" height="9.31"/>
    <rect class="cls-8" x="653.51" y="583.41" width="6.4" height="9.31"/>
    <rect class="cls-8" x="636.48" y="594.57" width="6.4" height="9.31"/>
    <rect class="cls-8" x="644.94" y="594.57" width="6.4" height="9.31"/>
    <rect class="cls-8" x="653.51" y="594.57" width="6.4" height="9.31"/>
    <rect class="cls-8" x="636.48" y="606.05" width="6.4" height="9.31"/>
    <rect class="cls-8" x="644.94" y="606.05" width="6.4" height="9.31"/>
    <rect class="cls-8" x="636.48" y="617.21" width="6.4" height="9.31"/>
    <rect class="cls-8" x="784.23" y="546.38" width="6.4" height="9.31"/>
    <rect class="cls-8" x="792.69" y="546.38" width="6.4" height="9.31"/>
    <rect class="cls-8" x="801.26" y="546.38" width="6.4" height="9.31"/>
    <rect class="cls-8" x="784.23" y="557.54" width="6.4" height="9.31"/>
    <rect class="cls-8" x="792.69" y="557.54" width="6.4" height="9.31"/>
    <rect class="cls-8" x="801.26" y="557.54" width="6.4" height="9.31"/>
    <rect class="cls-8" x="761.59" y="611.62" width="6.4" height="9.31"/>
    <rect class="cls-8" x="770.04" y="611.62" width="6.4" height="9.31"/>
    <rect class="cls-8" x="761.59" y="622.78" width="6.4" height="9.31"/>
    <rect class="cls-8" x="660.23" y="428.3" width="6.4" height="9.31"/>
    <rect class="cls-8" x="668.81" y="428.3" width="6.4" height="9.31"/>
    <rect class="cls-8" x="634.63" y="439.46" width="6.4" height="9.31"/>
    <rect class="cls-8" x="643.08" y="439.46" width="6.4" height="9.31"/>
    <rect class="cls-8" x="651.66" y="439.46" width="6.4" height="9.31"/>
    <rect class="cls-8" x="937.54" y="395.3" width="32.27" height="6.93"/>
    <rect class="cls-8" x="937.54" y="407.01" width="32.27" height="6.93"/>
    <rect class="cls-8" x="937.54" y="418.27" width="32.27" height="6.93"/>
    <rect class="cls-8" x="937.54" y="430.67" width="32.27" height="6.93"/>
    <rect class="cls-8" x="937.54" y="441.93" width="32.27" height="6.93"/>
    <rect class="cls-8" x="404.15" y="383.31" width="5.26" height="8.87"/>
    <rect class="cls-8" x="404.15" y="372.46" width="5.26" height="8.87"/>
    <rect class="cls-8" x="404.15" y="394.77" width="5.26" height="8.87"/>
    <rect class="cls-8" x="412.1" y="383.31" width="5.26" height="8.87"/>
    <rect class="cls-8" x="412.1" y="394.77" width="5.26" height="8.87"/>
    <rect class="cls-8" x="404.15" y="454.3" width="5.26" height="8.87"/>
    <rect class="cls-8" x="404.15" y="465.76" width="5.26" height="8.87"/>
    <rect class="cls-8" x="412.1" y="454.3" width="5.26" height="8.87"/>
    <rect class="cls-8" x="412.1" y="465.76" width="5.26" height="8.87"/>
    <rect class="cls-8" x="449.81" y="326.49" width="5.26" height="8.87"/>
    <rect class="cls-8" x="449.81" y="337.95" width="5.26" height="8.87"/>
    <rect class="cls-8" x="457.76" y="326.49" width="5.26" height="8.87"/>
    <rect class="cls-8" x="457.76" y="337.95" width="5.26" height="8.87"/>
    <rect class="cls-8" x="454.37" y="500.65" width="5.26" height="8.87"/>
    <rect class="cls-8" x="446.2" y="500.65" width="5.26" height="8.87"/>
    <rect class="cls-8" x="454.37" y="512.11" width="5.26" height="8.87"/>
    <rect class="cls-8" x="462.32" y="500.65" width="5.26" height="8.87"/>
    <rect class="cls-8" x="462.32" y="512.11" width="5.26" height="8.87"/>
    <rect class="cls-8" x="454.37" y="523.73" width="5.26" height="8.87"/>
    <rect class="cls-8" x="454.37" y="535.19" width="5.26" height="8.87"/>
    <rect class="cls-8" x="462.32" y="523.73" width="5.26" height="8.87"/>
    <rect class="cls-8" x="438.45" y="512.11" width="5.26" height="8.87"/>
    <rect class="cls-8" x="446.4" y="512.11" width="5.26" height="8.87"/>
    <rect class="cls-8" x="438.45" y="523.73" width="5.26" height="8.87"/>
    <rect class="cls-8" x="446.4" y="523.73" width="5.26" height="8.87"/>
    <rect class="cls-8" x="437.45" y="605.7" width="5.26" height="8.87"/>
    <rect class="cls-8" x="437.45" y="617.16" width="5.26" height="8.87"/>
    <rect class="cls-8" x="445.4" y="605.7" width="5.26" height="8.87"/>
    <rect class="cls-8" x="445.4" y="617.16" width="5.26" height="8.87"/>
    <rect class="cls-1" x="633.21" y="397.75" width="71.3" height="9.6"/>
    <rect class="cls-6" x="844.27" y="323.63" width="56.21" height="15.85"/>
    <rect class="cls-8" x="709.12" y="351.97" width="5.52" height="13.67"/>
    <rect class="cls-8" x="717.82" y="351.97" width="5.52" height="13.67"/>
    <rect class="cls-8" x="726.51" y="351.97" width="5.52" height="13.67"/>
    <rect class="cls-8" x="568.01" y="383.07" width="3.48" height="13.67"/>
    <rect class="cls-8" x="573.5" y="383.07" width="3.48" height="13.67"/>
    <rect class="cls-8" x="578.98" y="383.07" width="3.48" height="13.67"/>
    <rect class="cls-8" x="584.21" y="383.07" width="3.48" height="13.67"/>
    <rect class="cls-8" x="568.01" y="398.51" width="3.48" height="13.67"/>
    <rect class="cls-8" x="573.5" y="398.51" width="3.48" height="13.67"/>
    <rect class="cls-8" x="578.98" y="398.51" width="3.48" height="13.67"/>
    <rect class="cls-8" x="568.01" y="414.09" width="3.48" height="13.67"/>
    <rect class="cls-8" x="573.5" y="414.09" width="3.48" height="13.67"/>
    <rect class="cls-8" x="578.98" y="414.09" width="3.48" height="13.67"/>
    <rect class="cls-8" x="499.57" y="552.95" width="3.48" height="13.67"/>
    <rect class="cls-8" x="505.05" y="552.95" width="3.48" height="13.67"/>
    <rect class="cls-8" x="510.53" y="552.95" width="3.48" height="13.67"/>
    <rect class="cls-8" x="499.57" y="568.53" width="3.48" height="13.67"/>
    <rect class="cls-8" x="505.05" y="568.53" width="3.48" height="13.67"/>
    <rect class="cls-8" x="510.53" y="568.53" width="3.48" height="13.67"/>
    <rect class="cls-8" x="377.08" y="490.28" width="3.48" height="13.67"/>
    <rect class="cls-8" x="382.56" y="490.28" width="3.48" height="13.67"/>
    <rect class="cls-8" x="388.04" y="490.28" width="3.48" height="13.67"/>
    <rect class="cls-8" x="377.08" y="505.86" width="3.48" height="13.67"/>
    <rect class="cls-8" x="382.56" y="505.86" width="3.48" height="13.67"/>
    <rect class="cls-8" x="388.04" y="505.86" width="3.48" height="13.67"/>
    <rect class="cls-8" x="406.32" y="562.52" width="3.48" height="13.67"/>
    <rect class="cls-8" x="411.8" y="562.52" width="3.48" height="13.67"/>
    <rect class="cls-8" x="411.8" y="578.1" width="3.48" height="13.67"/>
    <rect class="cls-8" x="417.28" y="578.1" width="3.48" height="13.67"/>
    <rect class="cls-8" x="375.36" y="599.37" width="3.48" height="13.67"/>
    <rect class="cls-8" x="380.84" y="599.37" width="3.48" height="13.67"/>
    <rect class="cls-8" x="375.36" y="614.96" width="3.48" height="13.67"/>
    <rect class="cls-8" x="568.01" y="576.43" width="3.48" height="13.67"/>
    <rect class="cls-8" x="573.5" y="576.43" width="3.48" height="13.67"/>
    <rect class="cls-8" x="578.98" y="576.43" width="3.48" height="13.67"/>
    <rect class="cls-8" x="584.21" y="576.43" width="3.48" height="13.67"/>
    <rect class="cls-8" x="568.01" y="591.87" width="3.48" height="13.67"/>
    <rect class="cls-8" x="573.5" y="591.87" width="3.48" height="13.67"/>
    <rect class="cls-8" x="578.98" y="591.87" width="3.48" height="13.67"/>
    <rect class="cls-8" x="568.01" y="607.46" width="3.48" height="13.67"/>
    <rect class="cls-8" x="573.5" y="607.46" width="3.48" height="13.67"/>
    <rect class="cls-8" x="568.01" y="429.68" width="3.48" height="13.67"/>
    <rect class="cls-8" x="573.5" y="429.68" width="3.48" height="13.67"/>
    <rect class="cls-8" x="578.98" y="429.68" width="3.48" height="13.67"/>
    <rect class="cls-8" x="584.21" y="429.68" width="3.48" height="13.67"/>
    <rect class="cls-8" x="573.5" y="445.26" width="3.48" height="13.67"/>
    <rect class="cls-8" x="578.98" y="445.26" width="3.48" height="13.67"/>
    <rect class="cls-8" x="584.21" y="445.26" width="3.48" height="13.67"/>
    <rect class="cls-8" x="573.5" y="461.13" width="3.48" height="13.67"/>
    <rect class="cls-8" x="578.98" y="461.13" width="3.48" height="13.67"/>
    <rect class="cls-8" x="709.12" y="368.95" width="5.52" height="13.67"/>
    <rect class="cls-8" x="717.82" y="368.95" width="5.52" height="13.67"/>
    <rect class="cls-8" x="726.51" y="368.95" width="5.52" height="13.67"/>
    <rect class="cls-8" x="518.42" y="451.96" width="5.52" height="13.67"/>
    <rect class="cls-8" x="527.11" y="451.96" width="5.52" height="13.67"/>
    <rect class="cls-8" x="535.8" y="451.96" width="5.52" height="13.67"/>
    <rect class="cls-8" x="518.42" y="468.95" width="5.52" height="13.67"/>
    <rect class="cls-8" x="527.11" y="468.95" width="5.52" height="13.67"/>
    <rect class="cls-8" x="535.8" y="468.95" width="5.52" height="13.67"/>
    <rect class="cls-8" x="541.33" y="549.29" width="5.52" height="13.67"/>
    <rect class="cls-8" x="550.03" y="549.29" width="5.52" height="13.67"/>
    <rect class="cls-8" x="532.64" y="566.28" width="5.52" height="13.67"/>
    <rect class="cls-8" x="541.33" y="566.28" width="5.52" height="13.67"/>
    <rect class="cls-8" x="743.28" y="404.67" width="5.52" height="13.67"/>
    <rect class="cls-8" x="751.97" y="404.67" width="5.52" height="13.67"/>
    <rect class="cls-8" x="743.28" y="421.65" width="5.52" height="13.67"/>
    <rect class="cls-8" x="751.97" y="421.65" width="5.52" height="13.67"/>
    <rect class="cls-8" x="760.66" y="421.65" width="5.52" height="13.67"/>
    <rect class="cls-8" x="743.28" y="439.11" width="5.52" height="13.67"/>
    <rect class="cls-8" x="751.97" y="439.11" width="5.52" height="13.67"/>
    <rect class="cls-8" x="760.66" y="439.11" width="5.52" height="13.67"/>
    <rect class="cls-8" x="751.97" y="456.1" width="5.52" height="13.67"/>
    <rect class="cls-8" x="760.66" y="456.1" width="5.52" height="13.67"/>
    <rect class="cls-8" x="721.16" y="587.92" width="5.52" height="13.67"/>
    <rect class="cls-8" x="729.85" y="587.92" width="5.52" height="13.67"/>
    <rect class="cls-8" x="721.16" y="605.38" width="5.52" height="13.67"/>
    <rect class="cls-8" x="729.85" y="605.38" width="5.52" height="13.67"/>
    <rect class="cls-8" x="721.16" y="622.37" width="5.52" height="13.67"/>
    <rect class="cls-8" x="729.85" y="622.37" width="5.52" height="13.67"/>
    <rect class="cls-8" x="888.88" y="610.1" width="5.83" height="15.58"/>
    <rect class="cls-8" x="896.89" y="610.1" width="5.83" height="15.58"/>
    <rect class="cls-8" x="904.9" y="610.1" width="5.83" height="15.58"/>
    <rect class="cls-8" x="888.88" y="591.71" width="5.83" height="15.58"/>
    <rect class="cls-8" x="896.89" y="591.71" width="5.83" height="15.58"/>
    <rect class="cls-8" x="904.9" y="591.71" width="5.83" height="15.58"/>
    <rect class="cls-8" x="927.45" y="480.45" width="5.83" height="15.58"/>
    <rect class="cls-8" x="935.46" y="480.45" width="5.83" height="15.58"/>
    <rect class="cls-8" x="943.47" y="480.45" width="5.83" height="15.58"/>
    <rect class="cls-8" x="935.46" y="498.42" width="5.83" height="15.58"/>
    <rect class="cls-8" x="943.47" y="498.42" width="5.83" height="15.58"/>
    <rect class="cls-8" x="935.46" y="536.7" width="5.83" height="15.58"/>
    <rect class="cls-8" x="943.47" y="536.7" width="5.83" height="15.58"/>
    <rect class="cls-1" x="889.94" y="459.65" width="57.03" height="12.46"/>
    <rect class="cls-1" x="373.9" y="473.38" width="45.66" height="12.25"/>
    <rect class="cls-6" x="469.82" y="537.45" width="48.87" height="13.46"/>
    <rect class="cls-6" x="567.2" y="369.42" width="32.43" height="8.21"/>
    <rect class="cls-1" x="762.79" y="514.94" width="42.75" height="28.06"/>
    <rect class="cls-1" x="769.86" y="491.01" width="28.61" height="23.94"/>
    <rect class="cls-8" x="96.47" y="521.7" width="37.65" height="4.61"/>
    <rect class="cls-8" x="96.47" y="529.49" width="37.65" height="4.61"/>
    <rect class="cls-8" x="96.47" y="536.99" width="37.65" height="4.61"/>
    <rect class="cls-8" x="96.47" y="545.24" width="37.65" height="4.61"/>
    <rect class="cls-8" x="96.47" y="552.73" width="37.65" height="4.61"/>
    <rect class="cls-8" x="96.47" y="560.89" width="37.65" height="4.61"/>
    <rect class="cls-8" x="96.47" y="568.68" width="37.65" height="4.61"/>
    <rect class="cls-8" x="96.47" y="576.17" width="37.65" height="4.61"/>
    <rect class="cls-8" x="96.47" y="584.43" width="37.65" height="4.61"/>
    <rect class="cls-8" x="96.47" y="591.92" width="37.65" height="4.61"/>
    <rect class="cls-8" x="-.24" y="424.15" width="6.25" height="22.39"/>
    <rect class="cls-8" x="8.7" y="424.15" width="6.25" height="22.39"/>
    <rect class="cls-8" x="17.63" y="424.15" width="6.25" height="22.39"/>
    <rect class="cls-8" x="26.56" y="424.15" width="6.25" height="22.39"/>
    <rect class="cls-8" x="35.5" y="424.15" width="6.25" height="22.39"/>
    <rect class="cls-8" x="-.24" y="474.15" width="6.25" height="22.39"/>
    <rect class="cls-8" x="8.7" y="474.15" width="6.25" height="22.39"/>
    <rect class="cls-8" x="17.63" y="474.15" width="6.25" height="22.39"/>
    <rect class="cls-8" x="26.56" y="474.15" width="6.25" height="22.39"/>
    <rect class="cls-8" x="35.5" y="474.15" width="6.25" height="22.39"/>
    <rect class="cls-8" x="-.24" y="524.14" width="6.25" height="22.39"/>
    <rect class="cls-8" x="8.7" y="524.14" width="6.25" height="22.39"/>
    <rect class="cls-8" x="17.63" y="524.14" width="6.25" height="22.39"/>
    <rect class="cls-8" x="26.56" y="524.14" width="6.25" height="22.39"/>
    <rect class="cls-8" x="35.5" y="524.14" width="6.25" height="22.39"/>
    <rect class="cls-8" x="-.24" y="582.22" width="6.25" height="22.39"/>
    <rect class="cls-8" x="8.7" y="582.22" width="6.25" height="22.39"/>
    <rect class="cls-8" x="17.63" y="582.22" width="6.25" height="22.39"/>
    <rect class="cls-8" x="26.56" y="582.22" width="6.25" height="22.39"/>
    <rect class="cls-8" x="35.5" y="582.22" width="6.25" height="22.39"/>
    <rect class="cls-8" x="713.97" y="253.83" width="3.48" height="13.67"/>
    <rect class="cls-8" x="719.45" y="253.83" width="3.48" height="13.67"/>
    <rect class="cls-8" x="724.93" y="253.83" width="3.48" height="13.67"/>
    <rect class="cls-8" x="719.45" y="270.71" width="3.48" height="13.67"/>
    <rect class="cls-8" x="724.93" y="270.71" width="3.48" height="13.67"/>
    <rect class="cls-8" x="693.14" y="307.16" width="3.48" height="13.67"/>
    <rect class="cls-8" x="698.62" y="307.16" width="3.48" height="13.67"/>
    <rect class="cls-8" x="704.1" y="307.16" width="3.48" height="13.67"/>
    <path class="cls-7" d="M861.08,806.87c-36.63-3.69-73.34-6.56-110.09-8.74-63.07-3.73-126.25-5.42-189.43-5.61-86.18-.25-172.42,3.02-258.63,5.33-46.85,1.25-93.74,2.51-140.43,6.77-13.83,1.26-115.29,5.45-102.48,35.17,2.01,4.65,10.08,7.99,14.45,10.24,12.6,6.46,27.22,9.48,40.97,12.34,32.3,6.71,65.23,10.34,98.03,13.58,26.69,2.64,53.24,5.49,79.81,2.88,13.6-1.33,28.42,2.89,41.93,4.55,15.55,1.91,31.14,3.53,46.74,4.86,62.5,5.36,125.34,6.28,188.01,3.97,59.02-2.17,117.91-7.19,176.56-14.09,34.84-4.1,69.72-8.89,103.78-17.47,17.22-4.34,33.61-11.88,50.68-16.21,7.51-1.9,32.55-4.41,30.6-16.76-1.8-11.36-38.88-17.62-70.53-20.81Z"/>
    <path class="cls-11" d="M578.79,945.13c6.46-16.48,25.43-27.02,42.84-23.79,0-19.96,21.65-36.82,41.01-31.92,2.22-22.42,17.01-43.19,37.48-52.61s45.87-7.16,64.35,5.73c.21-9.26,6.25-18.13,14.78-21.72,8.53-3.6,19.1-1.72,25.87,4.59-1.03-25.86,20.34-48.9,45.21-56.11,24.87-7.2,51.87-1.31,75.48,9.31,6.5-14.49,21.44-23.78,36.89-27.47,15.45-3.69,31.59-2.6,47.43-1.49-2.89,68.02-.11,136.29,8.31,203.85"/>
    <path class="cls-11" d="M418.33,949.82c3.22-9.46.61-20.64-6.46-27.7-7.07-7.06-18.25-9.66-27.71-6.44-1.15-15.85-10.96-30.81-25.05-38.19-14.21-7.44-31.64-6.75-45.53,1.04,1.47-5.9,3.62-8.06.33-14.08-2.79-5.09-7.36-9.31-12.66-11.67-8.01-3.57-17.75-2.93-25.23,1.64.33-28.24-21.26-54.2-48.2-62.69s-57.4-1.04-80.08,15.78c-.93-10.82-9.52-20.54-20.14-22.8-10.63-2.26-22.43,3.12-27.68,12.63-2.19-16.65-12.96-31.93-27.91-39.59-16.89-8.66-40.65-7.05-56.4,3.6-2.92-8.95-6.14-18.36-13.26-24.54s-19.44-7.37-25.24.04c-2.53,3.24-3.39,7.43-4.15,11.47-13.39,71.19-18.55,143.91-15.35,216.28"/>
    <path class="cls-7" d="M535.4,942.95c4.59-12.91,9.86-24.29,24.01-28.49,6.53-1.94,13.47-2.07,20.25-1.48,1.72.15,3.62.3,5.03-.72,1.28-.92,1.78-2.55,2.29-4.04,3.16-9.27,9.61-17.38,17.94-22.54,21.77-13.5,54.36-5.41,70.34,13.51,9.89-17.82,30.26-29.28,50.63-28.49,20.37.79,39.79,13.79,48.28,32.32,7.31-9.71,21.3-13.74,32.65-9.41,11.35,4.33,19.1,16.66,18.08,28.76,11.66-3.64,24.98-1.49,34.9,5.64s16.2,19.07,16.46,31.28"/>
    <path class="cls-7" d="M1004.07,811.24c-13.59-10.21-32.49-12.92-48.4-6.94s-28.35,20.46-31.85,37.09c-12.75-12.07-32.71-15.83-48.97-9.24-16.27,6.59-27.97,23.19-28.71,40.73-7.72-.5-15.55-1-23.11.64s-14.93,5.72-18.78,12.43c-3.85,6.71-3.2,16.21,2.73,21.18-7.96-.27-15.45,4.61-20.07,11.09-4.62,6.49-6.78,14.39-8.19,22.23-.72,4-.92,8.92,2.4,11.28,1.77,1.25,4.08,1.37,6.25,1.45,72.23,2.51,144.45,5.02,216.68,7.52"/>
    <path class="cls-7" d="M326.81,943.93c1.49-10.74-3.85-22.12-13.06-27.84-9.21-5.72-21.79-5.46-30.75.64,2.24-8.12-2.91-17.09-10.45-20.85-7.55-3.75-16.74-2.96-24.5.33-7.76,3.29-14.33,8.83-20.51,14.56,1.33-17.37-10.12-34.94-26.55-40.74s-36.38.69-46.25,15.05c-1.83-12.01-16.24-18.63-28.21-16.51s-21.81,10.31-31.05,18.21c-1.61-13.24-4.57-26.55-11.17-38.15-6.6-11.59-17.23-21.37-30.16-24.63-12.94-3.26-28.07,1.05-35.61,12.05-.28-17.38-12.5-33.93-29.02-39.33-7.78,49.3-9.97,99.49-6.52,149.28"/>
    <g>
      <g>
        <path class="cls-3" d="M936.28,613.17c-5.56-2.28-9.67-7.78-10.28-13.76-12.4,5.62-28.48,1.43-36.55-9.53-8.08-10.96-7.31-27.55,1.74-37.73-15.93-8.78-23.39-30.3-16.3-47.05,7.08-16.75,27.72-26.4,45.12-21.09-2.57-11.65,2.4-24.62,12.1-31.57s23.57-7.5,33.79-1.33c10.22,6.17,16.18,18.71,14.54,30.52,15.03.83,29.99,7.01,40.08,18.18s14.72,27.47,10.53,41.92-17.74,26.11-32.78,26.66c10.34,4.48,15.39,18.27,10.4,28.37-5,10.1-19.03,14.45-28.87,8.96,3.32,1.86-15.64,10.67-18.72,10.44-3.53-.26-6.54-2.37-9.95-2.71-5.25-.52-9.54,1.89-14.85-.29Z"/>
        <polygon class="cls-20" points="949.72 669.34 952.36 503.02 953.36 503.02 956 669.34 949.72 669.34 949.72 669.34"/>
        <path class="cls-20" d="M951.42,606.96c-4.46-23.8-13.01-46.89-25.21-67.94l.86-.51c12.81,20.82,22.07,43.87,27.22,67.87l-2.87.58h0Z"/>
        <path class="cls-20" d="M951.49,573.36c1.6-12.25,7.71-23.71,16.79-31.76l.68.73c-8.5,8.31-13.8,19.69-14.73,31.32l-2.74-.29h0Z"/>
      </g>
      <g>
        <path class="cls-3" d="M682.34,610.68c15.79,4.03,33.65-1.64,44.22-14.04,3.97-4.66,7-10.33,7.48-16.43s-1.94-12.61-6.98-16.07c12.57-2.09,21.74-16.11,18.62-28.46s-17.85-20.33-29.9-16.21c6.24-17.43-2.95-38.91-19.86-46.45-16.92-7.54-39.03-.01-47.83,16.28-6.86-11.67-20.06-19.34-33.6-19.52s-26.94,7.13-34.11,18.61c-7.17,11.48-7.86,26.73-1.75,38.81-11.68,4.79-22.24,13.09-27.91,24.36-5.68,11.27-5.83,25.62,1.22,36.08,7.05,10.47,21.71,15.7,33.2,10.5-7.81,2.4-12.36,11.76-10.27,19.65,2.1,7.89,9.92,13.6,18.07,14.15s16.23-3.61,21.38-9.95c-2.58,3.18-3.7,6.11-2.47,10.27.98,3.31,3.83,7.46,7.23,8.56,8.41,2.71,18.97-2.01,23.86-8.94,4.51,3,10.08,4.37,15.47,3.81,12.18-1.26,22.97-12.92,23.95-25.01Z"/>
        <polygon class="cls-20" points="635 676.44 639.36 537.65 640.36 537.65 644.73 676.44 635 676.44 635 676.44"/>
        <path class="cls-20" d="M637.81,632.75c-7.68-19.68-18.12-38.42-30.99-55.48l.77-.63c14.27,16.03,26.42,34.11,35.93,53.61l-5.71,2.5h0Z"/>
        <path class="cls-20" d="M638.78,601.89c5.87-13.5,14.77-25.58,25.79-35.11l.67.74c-10.45,9.93-18.58,22.19-23.64,35.52l-2.82-1.15h0Z"/>
      </g>
      <path class="cls-3" d="M211.16,590.49c1.28-.33,2.55-.72,3.8-1.16,16.31-5.8,28.34-21.15,30.21-38.54-.16,1.45,13.43-1.72,14.5-2.22,4.93-2.28,9.36-6.13,11.86-10.97,3.84-7.41,3.31-16.78-.52-24.52-1.89-3.83-5.11-5.86-2.04-9.41,2.16-2.5,8.34-2.91,11.39-4.09,15.66-6.08,28.35-19.04,33.55-35.09,6.53-20.16.95-44.38-14-60.81-14.95-16.43-38.66-24.4-59.54-20.02,2.7-.57,1.16-12.24.71-14.08-1.28-5.29-4.18-10.38-8.29-14.12-6.67-6.07-21.78-6.82-23.68,3.81.08-26.21-19.53-51.76-44.4-60.76-13.5-4.89-22.97-6.43-35.19.93-5.72,3.44-10.76,7.98-14.76,13.3-.87,1.15-8.9,15.44-7.94,15.71-17.87-5.01-37.51-1.17-51.31,10.03s-21.4,29.48-19.86,47.75c-14.01-1.41-28.18,2.72-38.75,11.28-11.07,8.97-21.17,24.56-15.84,39.25s14.56,28.37,29.79,34.36c-11.02,2.91-17.94,15.52-14.7,26.78,3.24,11.26,16.1,19.27,27.3,17.01-10.77,15.98-15.68,38.5-4.49,55.48,8.81,13.37,25.63,19.87,41.23,19.86,15.59-.01,30.29-5.53,44.36-11.48-4.1,1.73,2.71,20.17,5.93,22.75,7.71,6.19,22.78,4.81,30.91,1.97,11.1-3.88,19.99-12.98,23.6-24.17,12.71,10.91,30.66,15.14,46.17,11.16Z"/>
      <polygon class="cls-20" points="124.43 699.07 134.94 394.88 135.94 394.88 146.44 699.07 124.43 699.07 124.43 699.07"/>
      <path class="cls-20" d="M129.57,591.72c12.12-43.57,39.68-81.92,75.98-106.96l.6.8c-34.26,27.4-58.03,66.7-66.51,108.58l-10.07-2.42h0Z"/>
      <path class="cls-20" d="M132.77,548.85c-13.48-33.96-37.39-58.46-63.71-82.85,0,0,.67-.74.67-.74,20.22,17.35,40.58,35.2,55.25,57.73,4.95,7.48,9.34,15.36,13.13,23.53,0,0-5.34,2.33-5.34,2.33h0Z"/>
      <path class="cls-20" d="M132.46,488.06c6.63-14.7,16.56-27.71,28.72-37.85l.67.74c-11.2,10.97-19.77,24.41-24.95,38.9l-4.44-1.79h0Z"/>
    </g>
    <g>
      <path class="cls-14" d="M955.96,172.95c-1.95,1.47-4,2.8-6.11,3.96-7.92,4.36-17.4,6.92-28.17,7.58-8.94.58-16.94-.39-23.77-2.88-2.91-1.06-5.24-2.52-7.5-3.94-.92-.58-1.79-1.13-2.71-1.65-1-.57-2.02-1.1-3.05-1.64-1.33-.7-2.69-1.41-4.05-2.21-4.23,3.2-9.68,4.92-15.42,4.79-5.19-.12-10.08-1.75-13.97-4.57-8.67,10.44-22.22,16.82-35.78,16.82-1.42,0-2.83-.07-4.24-.21-14.8-1.46-28.62-10.84-35.77-23.86-10.28,6.54-21.91,8.78-31.88,5.97-11.84-3.34-20.32-14.48-20.45-25.54-4.18-.13-8.41-1.61-12.19-4.3-6.2,5.73-14.2,9.36-22.35,10.13-1.28,3.06-3.1,5.9-5.42,8.34-5.36,5.63-13,8.71-20.68,8.71-1.15,0-2.3-.07-3.45-.21.26,23.46-12.37,46.53-32.58,58.66-20.56,12.35-47.43,12.45-68.18.59-8.08,12.81-21.15,22.08-35.76,25.72.21,8.67.44,16.34.69,23.39.09,2.69.19,5.42.3,8.18.01.22.01.43.03.65.07,1.78.14,3.57.21,5.38.02.48.04.97.06,1.45.04.73.07,1.47.1,2.21.03.68.06,1.35.09,2.02.06,1.36.13,2.73.19,4.1.35,7.83.74,15.72,1.17,23.7.91,16.64,2.02,33.74,3.33,51.59.27,3.61.54,7.26.83,10.94.33,4.36.68,8.78,1.04,13.24.41,5.05.84,10.13,1.28,15.26.21,2.49.43,4.99.65,7.51.9,10.17,1.86,20.52,2.88,31.12.32,3.36.66,6.74.99,10.15.01.03.01.05.01.08.34,3.41.68,6.85,1.03,10.31.89,8.76,1.83,17.69,2.81,26.83.39,3.63.79,7.29,1.19,10.98.21,1.88.42,3.77.63,5.67.41,3.74.83,7.51,1.26,11.32.65,5.76,1.32,11.61,2.01,17.56.91,7.9,1.86,15.96,2.84,24.2.23,1.95.46,3.91.69,5.88v.03c.2,1.63.38,3.26.57,4.89.07.59.14,1.18.2,1.77.2,1.7.39,3.39.58,5.07.22,1.95.44,3.9.66,5.82,1.78,15.73,3.59,31.64,5.79,47.56.6,4.32,1.22,8.63,1.88,12.93,1.11,7.23,2.32,14.45,3.68,21.64.81,4.29,1.66,8.57,2.57,12.84.31,1.44.63,2.88.95,4.32.64,2.84,1.3,5.67,1.98,8.49,1.04,4.26,2.15,8.5,3.33,12.72,1.44,5.15,2.98,10.28,4.66,15.36.14.45.29.9.44,1.35,1,2.99,2.03,5.93,3.1,8.81,2.15,5.76,4.44,11.3,6.87,16.63.41.89.82,1.78,1.23,2.65,3.57,7.55,7.44,14.65,11.59,21.27,1.64,2.61,3.32,5.14,5.04,7.61,1.02,1.45,2.05,2.88,3.1,4.28,4.2,5.62,8.64,10.83,13.33,15.63.08.07.16.15.23.23.76.79,1.63,1.68,2.44,2.7.16.2.32.4.48.61.16.21.32.43.46.66.84,1.21,1.55,2.56,1.94,4.06v.02c.04.14.08.28.1.42.23,1.02.31,2.11.18,3.26-.17,1.54-.59,2.94-1.25,4.17-.49.93-1.11,1.76-1.86,2.49-.25.25-.51.48-.79.7-.17.14-.35.27-.54.39-.18.12-.36.24-.55.36-.38.23-.76.43-1.16.62-.2.09-.4.18-.61.26-.41.16-.82.31-1.25.44-.21.06-.43.12-.65.17-.44.11-.88.2-1.33.28-4.11.7-8.74.11-12.73-.4-1.75-.22-3.4-.43-4.41-.43h-.01c-.74-.01-1.47.01-2.2.04-3.71.15-7.39.74-11.01,1.6-1.19.29-2.38.6-3.56.94-.61.18-1.22.36-1.83.54-1.18.37-2.35.75-3.51,1.15-.01.01-.02.01-.03.01-2.33.81-4.63,1.68-6.89,2.57-1.78.7-3.56,1.43-5.36,2.14h-.01c-7.22,2.93-14.59,5.91-22.21,7.83-.64.16-1.29.31-1.93.46-.16.03-.32.07-.48.1-4.31.96-8.71,1.53-13.22,1.53-.34,0-.68,0-1.03-.01-.2,0-.39-.02-.58-.03-.9-.03-1.79-.07-2.67-.15-.22-.01-.44-.03-.66-.05-.64-.05-1.28-.12-1.91-.2-.62-.07-1.25-.16-1.88-.26-.07-.01-.15-.03-.22-.04-.03-.01-.06-.02-.09-.02-6.1-.93-12.08-2.69-17.87-4.39-3.95-1.16-8.04-2.36-12.05-3.26-.04-.01-.09-.01-.14-.03-.01,0-.02,0-.03-.01h-.01s-.01,0-.03-.01c-.65-.15-1.32-.28-1.97-.4l-.12-.03c-10.93-2.16-22.37-2.49-33.43-2.8-5.36-.16-10.9-.32-16.35-.68-6.61-.46-11.96-1.09-16.85-2.01-.91-.16-1.84-.35-2.75-.56-2.41-.51-4.61-1.08-6.72-1.72-.2-.06-.57-.16-1.02-.28-8.12-2.16-12.17-3.77-13.21-7.14-1.52-4.7,2.96-8.88,5.63-11.37.31-.29.59-.55.82-.77,19.96-19.6,29.88-42.72,33.2-77.31,5.58-58.43,7.59-117.87,5.99-176.68-.95-35.03-.31-69.66.31-103.16.32-17.28.64-35.14.76-53.02.23-33.54.54-67.53.93-101.07v-.07l.07-5.69c.23-19.12.44-36.6.69-53.44-12.59,6.07-27.02,8.39-40.76,6.07-21.2-3.56-40.35-18.08-49.71-37.41-11.42,2.67-23.88.14-33.29-6.92-1.89-1.42-3.64-3.01-5.24-4.74-4.18,1.01-8.35,1.51-12.41,1.51-7.4,0-14.46-1.66-20.61-4.93-5.09-2.7-9.53-6.62-12.86-11.35-1.7-2.41-3.06-4.98-4.06-7.63-.34-.88-.55-1.81-.75-2.71-.13-.58-.33-1.49-.53-1.98-1.29.17-4.12,1.87-5.39,2.64-1.25.75-2.44,1.46-3.53,1.92-6.09,2.59-12.15,4.13-18.02,4.6-12.38.97-24.4-3.09-32.2-10.87-5.87-5.86-9.11-13.74-9.28-21.47-.39-.39-.77-.79-1.14-1.19-10.63,11.29-25.72,18.02-41.27,18.22h-.66c-.61,0-1.23-.01-1.84-.04-4.8-.15-9.61-.95-14.29-2.34-1.29-.37-2.57-.79-3.84-1.28-.69-.24-1.39-.51-2.07-.81-.59-.24-1.18-.49-1.76-.76-1.97-.88-3.88-1.87-5.74-2.98-.46-.27-.91-.54-1.35-.83-.15-.09-.3-.18-.44-.27-.06-.04-.12-.07-.17-.1-4.87-3.13-9.19-6.95-12.85-11.34-.3-.37-.6-.74-.91-1.12-1.73-2.12-3.37-4.13-5.28-4.81-2.01-.71-4.7-.06-7.54.63-.8.19-1.59.39-2.38.55-13.49,2.84-28.02-2.08-37.04-12.53-6.71-7.79-9.91-18.03-8.77-28.08,1.05-9.21,5.67-17.25,13.01-22.63,5.21-3.83,11.6-6.12,18.07-6.54-.05-1.07-.04-2.15.03-3.22-10.33-1.68-19.58-7.19-25.3-15.21-7.56,2.39-15.99,1.91-23.18-1.43-10.4-4.84-17.05-14.79-18.47-27.24-2.24.91-4.45,1.7-6.59,2.37-1.21.38-2.53.16-3.56-.6-1.02-.75-1.63-1.95-1.63-3.22V2C-2,.82-1.48-.3-.57-1.06c.91-.77,2.1-1.09,3.27-.88l4.91.87h.01l124.6,21.96s.05.01.07.01l39.39,6.95,54.96,9.69h.01l12.45,2.2,13.66,2.41,8.34,1.47,5.57.98,7.99,1.41,100.85,17.79s.05.01.07.01l16.03,2.83,59.61,10.51,14.35,2.53,2.42.43,20.14,3.55,6.35,1.12,28.29,4.99,2.41.42,5.28.93,11.5,2.03,23.77,4.19,37.87,6.67c.05,0,.1.02.15.03l14.09,2.49,57.18,10.08,30.02,5.29s.03.01.05.01l8.93,1.58c.25-.17.52-.32.81-.43,1.01-.41,2.14-.38,3.13.07,2.36,1.07,4.86,1.86,7.42,2.36l1.58.28,227.29,40.07c1.56.28,2.82,1.46,3.19,3.01.37,1.54-.21,3.16-1.48,4.12Z"/>
      <path class="cls-2" d="M680.23,156.96c-6.37,6.69-16.77,9.21-25.5,6.19,2.3,23.62-10.01,48.08-30.37,60.3-20.36,12.23-47.74,11.6-67.52-1.54-9.06,17.12-27.83,28.63-47.19,28.96-19.36.32-38.51-10.56-48.14-27.34-14.23,15.97-36.91,23.94-58.01,20.39-21.1-3.55-39.92-18.51-48.14-38.25-11.03,3.7-23.82,1.64-33.12-5.34-9.3-6.98-14.86-18.68-14.39-30.29l4.35-17.35c7.87-12.46,17.62-26.16,32.25-27.99,10.8-1.35,21.07,4.31,31.56,7.22,20.13,5.59,42.18.79,60.24-9.71,17.01-9.9,31.29-24.71,49.83-31.29,2.54-.9,5.11-1.64,7.71-2.21l71.25,12.56,37.87,6.67c27.42,7.76,54.84,15.52,82.26,23.27,3.45,8.57,1.43,19.07-4.94,25.75Z"/>
      <path class="cls-19" d="M357.2,143.43c-6.17,16.82-1.56,37.08,11.29,49.57,12.85,12.49,33.23,16.54,49.88,9.91,13.22,18.97,35.53,31.28,58.63,32.35s46.46-9.12,61.37-26.79c19.25,7.88,42.62,4.67,59.03-8.11,16.41-12.79,25.23-34.65,22.29-55.24-15.24,12.64-37.75,12.3-56.54,6.06-18.79-6.24-35.5-17.48-53.74-25.2-40.87-17.32-89.31-15.77-128.98,4.14"/>
      <path class="cls-17" d="M446.2,230.66h-.03c-.55-.02-.99-.47-.97-1.03l1.3-48.11c.02-.55.48-.99,1.03-.97.55.02.99.47.97,1.03l-1.3,48.11c-.01.54-.46.97-1,.97Z"/>
      <path class="cls-2" d="M704.39,125.83l11.44,2.02c-1.33,2.91-3.1,5.6-5.22,8-6.29,7.11-15.57,11.63-25.09,11.7-7.51.06-14.91-2.66-20.84-7.27-4.43-3.43-8.03-7.92-10.24-13.08-10.13,3.04-21.75.52-29.71-6.45-3.55-3.1-5.91-6.55-7.48-10.29l57.08,10.07,30.06,5.3Z"/>
      <path class="cls-2" d="M391.81,165.18c-8.17,7.86-20.1,11.87-31.33,9.96-2.94-.5-5.92-1.37-8.87-.88-3.67.61-6.63,3.21-9.51,5.56-8.2,6.7-17.49,12.3-27.75,14.92-10.25,2.62-21.55,2.07-30.9-2.89-4.53-2.41-8.5-5.92-11.46-10.12-1.47-2.09-2.69-4.35-3.59-6.74-.71-1.86-.81-4.84-2.25-6.3-3.25-3.28-9.93,2.49-13.25,3.9-5.33,2.26-10.99,3.83-16.78,4.29-10.5.83-21.59-2.26-29.05-9.71-7.45-7.44-10.51-19.49-6.05-29.03-10.52,2.72-21.8.81-31.32-4.27-1.4-.75-2.77-1.57-4.09-2.45-5.9-3.96-23.97-20.15-13.95-27.07-9.54-13.28-5.52-32.79,5.93-43.6,11.68-11.04,29.35-14.09,45.11-10.9,15.77,3.2,29.91,11.89,42.56,21.81-.07-8.98,2.48-17.8,6.95-25.55l8.2,1.45,5.51.97,8.04,1.42,100.93,17.8,16.02,2.83c3.43,14.1,1.04,30.11-3.79,43.5,9.97-2.04,19.47,7.59,20.46,17.72,1.23,12.57-7.1,25.04-15.77,33.39Z"/>
      <path class="cls-19" d="M265.92,48.53c-4.22,7.18-10.17,13.4-17.21,17.86-14.47,9.13-32.96,11.04-49.43,6.39-6.63-1.86-13.13-4.85-17.94-9.79-2.02-2.09-3.71-4.57-4.86-7.24-1.6-3.67-2.23-7.71-1.43-11.61-17.79,15.56-41.88,25.46-65.16,21.37-4.51-.79-8.93-2.2-13.12-4.14-17.43-8.05-30.88-25.14-30.49-44.2-11.87,5.61-25.39,9.43-38.09,6.13C18.21,20.73,9.28,12.55,6.92,2.87l164.07,28.92,94.93,16.74Z"/>
      <path class="cls-2" d="M170.99,31.79c-.44.47-.9.93-1.37,1.37-1.61,1.5-3.55,2.22-5.26,3.54-2.12,1.64-3.89,3.59-6.15,5.08-8.49,5.59-19.54,7.42-29.27,4.28-2.3-.74-4.73-1.74-7.03-1.04-1.74.53-3.05,1.92-4.33,3.21-5.83,5.86-13.01,10.55-20.81,13.15-3.96,1.32-8.08,2.1-12.28,2.21-12.45.34-25.3-5.79-31.44-16.63-7.26,3.24-15.91,3.18-23.11-.17-11.61-5.39-16.69-17.34-16.44-29.61-3.7,1.75-7.56,3.32-11.5,4.55V2l4.92.87,164.07,28.92Z"/>
      <path class="cls-4" d="M953.55,169.76c-1.79,1.35-3.67,2.57-5.62,3.64-8.08,4.45-17.3,6.53-26.5,7.1-7.43.48-15.11-.08-22.15-2.65-3.6-1.31-6.34-3.44-9.59-5.3-3.16-1.8-6.45-3.22-9.46-5.39-7.69,8.02-22.31,7.68-29.61-.68-8.35,12.62-23.97,20.04-39.03,18.54-15.06-1.49-28.91-11.86-34.6-25.87-9.12,7.08-21.26,11.23-32.37,8.11-11.12-3.14-19.89-15.07-16.99-26.22-6.12,1.7-12.42-.77-17.02-5.18-2.9-2.76-5.13-6.29-6.22-10.02l11.44,2.02c.17-.36.33-.73.48-1.1,2.65,1.2,5.44,2.09,8.3,2.65l1.48.26.1.02,227.36,40.08Z"/>
      <path class="cls-5" d="M622.19,820.06c-1.14,10.35-17.2,5.48-23.16,5.48-10.51-.06-20.81,3.32-30.5,7.12-13.83,5.46-27.83,12.07-42.69,11.78-2.43-.06-4.79-.27-7.16-.65-10.14-1.51-19.92-5.41-29.98-7.65-.05-.01-.1-.03-.15-.04-.74-.17-1.5-.32-2.25-.46-16.54-3.28-33.54-2.44-50.29-3.55-5.49-.38-10.97-.94-16.38-1.95-.86-.16-1.73-.33-2.58-.52-2.17-.47-4.32-1.01-6.45-1.66-2-.58-10.92-2.64-11.58-4.77-.88-2.72,3.69-6.39,5.44-8.12,23.11-22.69,31.36-48.35,34.37-79.77,5.62-58.86,7.62-118.07,6.01-177.17-1.43-52.86.73-103.22,1.07-156.05.23-33.71.54-67.41.93-101.11.02-1.9.05-3.79.07-5.69.21-18.07.44-36.12.7-54.19.06-4.34.12-8.68.21-13.02v-.02c.01-1.57.03-3.13.07-4.71h0c.1-7.53.22-15.04.34-22.55.03-1.67.07-3.34.09-5.01.02-1.79.05-3.58.1-5.37.34-21.11.73-42.24,1.15-63.34.29-15.33.62-30.65.96-45.99l43.26,7.63,47.48,8.37c-4.22,15.91-8.14,31.88-11.76,47.93-4.31,19.07-8.2,38.22-11.68,57.43-.13.79-.27,1.57-.37,2.37-2.03,14.45.63,31.6.96,45.98.21,8.65.45,17.3.75,25.94.28,8.01.61,16.03.98,24.02,1.49,33.24,3.69,66.42,6.38,99.62,4.66,57.16,10.81,114.18,17.59,171.12,6.48,54.24,10.79,109.29,28.17,161.45,9.63,28.87,23.93,56.66,45.19,78.39,2.4,2.46,5.09,5.32,4.71,8.74Z"/>
      <path class="cls-12" d="M529.51,145.01c-4.31,19.07-8.2,38.22-11.68,57.43-.13.78-.27,1.57-.37,2.36-4.71-3.38-8.96-7.39-12.56-11.96-8.31,8.81-24.1,4.78-31.35-3.35-.42-.48-.86-.98-1.46-1.17-1.14-.34-2.23.59-3.08,1.39-5.75,5.48-13.04,9.28-20.78,11.09.02-1.68.06-3.34.09-5.02.02-1.79.05-3.57.1-5.36.34-21.12.73-42.24,1.15-63.35,26.44,6.87,53.11,12.84,79.94,17.94Z"/>
      <path class="cls-12" d="M622.19,820.05c-1.14,10.35-17.19,5.48-23.16,5.48-10.51-.05-20.81,3.33-30.5,7.13-13.84,5.46-27.84,12.05-42.69,11.76-2.42-.05-4.79-.27-7.16-.64.56-.32,1.09-.64,1.6-.93,10.51-6.17,16.42-18.25,18.15-30.31,1.76-12.08-.11-24.32-1.89-36.38-24.11-165.17-29.97-333-17.38-499.44.29,8.01.61,16.02.99,24.03,1.49,33.24,3.7,66.42,6.39,99.6,4.66,57.16,10.81,114.18,17.59,171.13,6.47,54.23,10.78,109.29,28.16,161.44,9.64,28.87,23.93,56.65,45.2,78.39,2.4,2.45,5.08,5.32,4.71,8.73Z"/>
      <path class="cls-12" d="M397.88,105.63c-89.24-16.09-180.18-23.01-270.93-20.96,0,0-.04-1-.04-1,90.95-6,182.55-2.98,272.97,9.32,0,0-2,12.64-2,12.64h0Z"/>
      <path class="cls-12" d="M504.79,656.26c-.65,0-1.19-.51-1.22-1.16-.4-8.32-.68-16.85-.94-25.1-.53-16.57-1.08-33.7-2.71-49.99-14.3-144.4-12.01-261,7.21-366.94.12-.67.77-1.11,1.42-.99.66.12,1.11.76.99,1.42-19.18,105.71-21.46,222.09-7.19,366.26,1.64,16.38,2.19,33.55,2.73,50.16.27,8.24.54,16.77.94,25.06.03.68-.49,1.25-1.16,1.28-.02,0-.04,0-.06,0Z"/>
      <path class="cls-12" d="M488.7,836.13s-.1-.02-.15-.04c-.75-.17-1.51-.32-2.25-.47,13.6-50.96,19.52-106.17,17.64-164.5-.01-.67.51-1.25,1.19-1.26h.04c.66,0,1.21.51,1.22,1.17,1.9,58.53-4.04,113.94-17.69,165.09Z"/>
      <path class="cls-12" d="M465.66,693.11c-2.71,48.5-19.05,96.43-46.04,137.03-.86-.16-1.73-.33-2.58-.53,27.08-40.41,43.46-88.25,46.17-136.64,1.85-33.05-2.44-66.57-6.57-99-3.7-28.99-7.53-58.97-7-88.65.38-21.08,2.96-42.38,5.46-62.96,2.45-20.12,4.97-40.93,5.41-61.5.51-23.52-2-53.21-13.67-79.9l.07-5.69c13.71,28.27,16.6,60.45,16.05,85.65-.44,20.68-2.97,41.56-5.43,61.75-2.48,20.51-5.06,41.73-5.43,62.7-.53,29.49,3.29,59.39,6.98,88.29,4.16,32.53,8.45,66.17,6.6,99.44Z"/>
      <path class="cls-12" d="M460.73,814.74c-.16,0-.32-.03-.48-.1-.62-.27-.91-.98-.65-1.61,26.34-61.64,36.08-129.4,28.18-195.96-2.13-17.97-5.59-36.07-8.94-53.58-2.65-13.85-5.38-28.17-7.45-42.36-5.74-39.36-4.79-70.22,2.97-97.1.19-.65.87-1.02,1.52-.84.65.19,1.02.87.84,1.52-7.67,26.54-8.59,57.06-2.9,96.07,2.06,14.14,4.79,28.44,7.44,42.26,3.35,17.55,6.82,35.69,8.96,53.75,7.95,66.98-1.86,135.18-28.36,197.21-.2.46-.65.74-1.13.74Z"/>
      <path class="cls-12" d="M473.68,409.62c-.07.62-.6,1.08-1.21,1.08-.05,0-.1,0-.15-.01-.67-.07-1.15-.69-1.06-1.36,4.33-36.53,7.89-84.3-3.18-129.95-4.52-18.56-11.41-35.88-20.26-51.31h0c.01-1.59.04-3.14.07-4.72,9.95,16.48,17.65,35.24,22.56,55.46,11.18,46.01,7.6,94.08,3.23,130.81Z"/>
      <path class="cls-12" d="M522.08,93.7l2.41.42c-6.97,34.49-12.11,69.35-15.39,104.45-.06.64-.59,1.11-1.22,1.11h-.11c-.67-.07-1.17-.66-1.11-1.34,3.28-35.15,8.43-70.08,15.42-104.64Z"/>
      <path class="cls-12" d="M490.01,235.52c-.91,2.53-2.04,5.13-4.09,6.98-1.37,1.23-3.35,2.1-5.32,2.1-1.08,0-2.15-.26-3.12-.86-2.24-1.38-3.12-3.97-3.75-6.57-6.4-26.55-6.41-56.35-.02-93.76,2.67-15.63,6.13-31.06,9.48-45.99.75-3.36,1.35-6.79,1.84-10.26l2.42.42c-.5,3.5-1.11,6.97-1.88,10.38-3.34,14.9-6.79,30.29-9.45,45.86-6.32,37.07-6.33,66.55-.01,92.77.47,1.95,1.1,4.11,2.65,5.07,1.71,1.06,4.12.29,5.52-.97,1.56-1.41,2.5-3.42,3.42-6,7.98-22.26,5.22-46.65,2.55-70.22-2.38-21-4.84-42.71.07-63.33.15-.66.82-1.06,1.47-.91.66.16,1.06.82.91,1.47-4.81,20.21-2.37,41.71-.02,62.49,2.71,23.86,5.5,48.53-2.67,71.33Z"/>
      <path class="cls-12" d="M467.29,84.04c-2.19,22.54-5.5,45.01-9.91,67.29-.12.58-.63.98-1.2.98-.08,0-.16,0-.24-.02-.66-.13-1.09-.77-.96-1.44,4.41-22.26,7.71-44.71,9.89-67.24l2.42.43Z"/>
      <path class="cls-16" d="M309.05,100.97c-4.09,7.05-13.05,10.9-20.98,8.98,4.8,1.16-8.69,27.94-10.41,30.2-6,7.94-15.94,16.24-25.47,19.28-20.55,6.52-45.27-1.08-58.33-18.25-9.84,12.46-25.47,20.17-41.36,20.37-10.56.13-21.08-3.04-29.94-8.78h-.01c-4.48-2.88-8.52-6.43-11.93-10.53-2.31-2.77-4.53-5.93-7.93-7.14-3.87-1.36-8.08.19-12.09,1.04-11.99,2.52-25.18-1.96-33.18-11.23-11.4-13.23-11.03-34.16,3.58-44.89,5.77-4.24,13.1-6.32,20.23-5.74-1.38-6.47-.2-13.46,3.22-19.13,3.67-6.06,10.64-11.58,17.9-12.21,7.12-.62,14.61,4.4,16.27,11.44,1.11-10.94,5.88-21.2,12.98-29.55l39.39,6.95,54.96,9.69c1.19,3.16,2.07,6.45,2.6,9.82,2.69-3.22,6.09-5.79,9.86-7.62l22,3.88,5.51.97,8.04,1.42c5.28,5.68,8.52,13.3,8.46,21.07,9.29-3.41,19.21.9,24.77,8.2,4.62,6.09,6.21,14.26,1.86,21.74Z"/>
      <path class="cls-16" d="M674.33,120.53c-.05,1.66-.31,3.32-.73,4.92-1.37,5.26-4.05,9.83-7.76,13.71-.37.39-.76.77-1.16,1.12-9.58,8.73-25.84,9.17-35.7.65-2.93,26.54-23.52,50.24-49.4,56.85-25.86,6.61-55.3-4.31-70.6-26.18-4.22,6.3-12.07,9.97-19.61,9.18-7.54-.79-14.44-6.01-17.27-13.05-11.72,9.5-24.83,17.64-39.39,21.6-8.89,2.44-18.39,3.22-27.49,1.85-5.78-.85-11.38-2.58-16.58-5.27-13.39-6.95-23.46-20.94-23.64-36.03-11.22,7.16-28.48.79-32.37-11.93-3.9-12.72,6.85-27.65,20.16-28-3.75-5.79-3.86-13.45-1.36-19.86,2.49-6.43,7.32-11.73,12.79-15.93,3.31-2.55,6.9-4.69,10.67-6.42l190.15,33.52,52.21,9.2,57.08,10.07Z"/>
      <path class="cls-4" d="M674.33,120.53c-.05,1.66-.31,3.32-.73,4.92-1.37,5.26-4.05,9.83-7.76,13.71-.37.39-.76.77-1.16,1.12-9.58,8.73-25.84,9.17-35.7.65-2.93,26.54-23.52,50.24-49.4,56.85-25.86,6.61-55.3-4.31-70.6-26.18-4.22,6.3-12.07,9.97-19.61,9.18-7.54-.79-14.44-6.01-17.27-13.05-11.72,9.5-24.83,17.64-39.39,21.6-8.89,2.44-18.39,3.22-27.49,1.85,23.71-4.46,45.16-22.02,52.32-45.25,15.55,4.99,32.25,9.63,47.99,5.26,15.74-4.37,29.08-21.33,23.56-36.71,8.45,6.45,21.51,5.85,29.33-1.33,3.4-3.13,5.65-7.36,6.62-11.88l52.21,9.2,57.08,10.07Z"/>
      <path class="cls-4" d="M309.05,100.97c-4.09,7.05-13.05,10.9-20.98,8.98,4.8,1.16-8.69,27.94-10.41,30.2-6,7.94-15.94,16.24-25.47,19.28-20.55,6.52-45.27-1.08-58.33-18.25-9.84,12.46-25.47,20.17-41.36,20.37-10.56.13-21.08-3.04-29.94-8.78,22.47-1.6,44.19-15.12,54.37-35.37,8.97,2.77,18.13,5.56,27.52,5.55,9.4-.01,19.25-3.28,25.06-10.66,5.81-7.39,6.12-19.31-.86-25.58,14.44,1.69,29.31-8.69,32.7-22.82,1.3-5.41.87-11.09-.94-16.33l5.51.97,8.04,1.42c5.28,5.68,8.52,13.3,8.46,21.07,9.29-3.41,19.21.9,24.77,8.2,4.62,6.09,6.21,14.26,1.86,21.74Z"/>
      <path class="cls-17" d="M517.6,245.22c-.52,0-.96-.4-1-.93-1.36-19.65-.21-39.43,3.4-58.79.1-.54.62-.89,1.17-.8.54.1.9.62.8,1.17-3.58,19.2-4.72,38.81-3.37,58.29.04.55-.38,1.03-.93,1.07-.02,0-.05,0-.07,0Z"/>
    </g>
  </g>
  <path class="cls-15" d="M986,939.54H2c-1.1,0-2-.9-2-2V2C0,1.41.26.85.71.47,1.17.09,1.77-.07,2.35.03l984,173.48c.96.17,1.65,1,1.65,1.97v762.06c0,1.1-.9,2-2,2ZM4,935.54h980V177.16L4,4.38v931.15Z"/>
</svg>