<?xml version="1.0" encoding="UTF-8"?>
<svg xmlns="http://www.w3.org/2000/svg" xmlns:xlink="http://www.w3.org/1999/xlink" viewBox="0 0 472 562">
  <defs>
    <style>
      .cls-1 {
        fill: #7d8e54;
      }

      .cls-2 {
        fill: #6a8952;
      }

      .cls-3 {
        fill: #dfedf2;
      }

      .cls-4 {
        fill: #ea9939;
      }

      .cls-5 {
        fill: #d87625;
      }

      .cls-6 {
        fill: #e6e9d5;
      }

      .cls-7 {
        fill: none;
      }

      .cls-8 {
        fill: #c9d1ae;
      }

      .cls-9 {
        fill: #264d2a;
      }

      .cls-10 {
        fill: #f6f7ed;
      }

      .cls-11 {
        fill: #333;
      }

      .cls-12 {
        fill: #a7af76;
      }

      .cls-13 {
        fill: #6d3108;
      }

      .cls-14 {
        fill: #a8b6c1;
      }

      .cls-15 {
        clip-path: url(#clippath);
      }
    </style>
    <clipPath id="clippath">
      <polygon class="cls-7" points="465.04 2 465.04 560 6.96 477.43 6.96 2 465.04 2"/>
    </clipPath>
  </defs>
  <g id="Image">
    <g>
      <g class="cls-15">
        <rect class="cls-4" x="3.18" y="339.95" width="564.67" height="225.24"/>
        <rect class="cls-5" x="3.41" y="355.76" width="477.71" height="33.72"/>
        <rect class="cls-6" x="-3.03" y="-25.93" width="536.34" height="319.46"/>
        <path class="cls-10" d="M112.49,151.23h184c-12.04-17.96-35.09-27.48-56.04-23.58,1.9-4.31,3.13-9.58,3.28-14.32.09-2.69-.48-5.48-2.08-7.61-1.38-1.84-3.42-3.05-5.51-3.97-6.14-2.7-13.83-3.31-20.34-1.86,4.24-10.81-4.43-23.25-15.18-27.1-10.74-3.86-22.56-1.58-33.72.74-1.77-17.2-13.37-32.97-29.05-39.48-15.68-6.51-34.75-3.46-47.75,7.61s-19.35,29.71-15.91,46.65c-8.97-.04-18.51,2.29-24.6,9.03-6.09,6.74-7.04,18.67-.23,24.63-15.09.62-28.52,14.43-29.05,29.86"/>
        <g>
          <rect class="cls-3" x="-208.2" y="285.77" width="687.93" height="68"/>
          <rect class="cls-14" x="-208.2" y="326.3" width="687.93" height="27.48"/>
          <rect class="cls-14" x="58.47" y=".44" width="69.04" height="285.52"/>
          <rect class="cls-3" x="58.47" y=".44" width="38.04" height="285.52"/>
          <path class="cls-11" d="M58.47,287.77H-210.6c-1.08,0-1.96-.9-1.96-2s.88-2,1.96-2H56.51V-11.77c0-1.11.88-2,1.96-2s1.96.9,1.96,2v297.54c0,1.11-.88,2-1.96,2Z"/>
          <path class="cls-11" d="M467.1,287.77H127.51c-1.08,0-1.96-.9-1.96-2V-11.77c0-1.11.88-2,1.96-2s1.96.9,1.96,2v295.54h337.63c1.08,0,1.96.9,1.96,2s-.88,2-1.96,2Z"/>
          <rect class="cls-13" x="3.41" y="353.76" width="476.32" height="4"/>
        </g>
        <path class="cls-10" d="M479.75,248.34h-185.23c10.99-16.14,34.65-21.88,52.1-13.58-4-7.09-.95-17.05,5.84-21.38s16.16-3.2,22.47,1.83c-7-20.1,3.12-44.82,22.05-53.82,18.92-9,43.94-1.01,54.48,17.41,6.59-15.15,25.78-23.06,40.81-16.82"/>
      </g>
      <g>
        <g>
          <path class="cls-9" d="M440.87,310.53c0-71.56-56.94-129.77-126.94-129.77s-126.95,58.21-126.95,129.77c0,43.88,21.8,84.63,57.45,108.54-11.49,3.53-19.38,8.46-19.38,15.23v40.09c0,.78.11,1.56.31,2.31.62,2.26,2.17,4.37,4.64,6.27,9.86,7.64,36.73,13.15,70.1,14.37,3.45.13,6.9.21,10.24.24,1.19.01,2.39.02,3.59.02,2.04,0,4.05-.02,6.04-.06,6.22-.09,12.3-.34,18.17-.73,1.67-.11,3.34-.24,4.98-.37,2.31-.19,4.58-.4,6.81-.63.31-.04.63-.07.93-.1,14.16-1.53,26.44-3.93,35.36-6.99.86-.3,1.69-.6,2.5-.9,9.48-3.67,14.09-8.06,14.09-13.43v-40.09c0-6.77-7.88-11.69-19.38-15.23,35.66-23.91,57.45-64.66,57.45-108.54ZM369.99,283.48c38.44,6.37,59.13,18.48,59.13,27.05s-20.69,20.68-59.13,27.04c.79-8.85,1.22-17.92,1.22-27.04s-.43-18.2-1.22-27.05ZM427.38,290.18c-12.4-8.4-32.96-15.13-58.77-19.08-2.57-18.79-7.01-36.17-12.94-50.43-4.12-9.93-8.8-18.08-13.97-24.4,43.81,11.18,77.82,48.26,85.67,93.92ZM359.46,310.53c0,9.73-.5,19.38-1.45,28.76-13.84,1.7-28.65,2.58-44.08,2.58s-30.24-.88-44.11-2.58c-.95-9.26-1.43-18.92-1.43-28.76s.51-19.39,1.45-28.77c13.86-1.7,28.67-2.58,44.09-2.58s30.23.88,44.08,2.58c.95,9.36,1.45,19.01,1.45,28.77ZM313.92,192.78c11.22,0,22.21,11.57,30.94,32.59,5.18,12.47,9.18,27.63,11.65,44.12-13.56-1.53-27.85-2.32-42.59-2.32s-29.04.79-42.59,2.32c2.46-16.48,6.45-31.65,11.64-44.12,8.73-21.02,19.73-32.59,30.95-32.59ZM286.13,196.27c-5.17,6.31-9.84,14.46-13.97,24.39-5.93,14.26-10.37,31.64-12.94,50.43-25.81,3.95-46.37,10.68-58.77,19.08,7.86-45.65,41.86-82.72,85.67-93.91ZM257.85,283.48c-.79,8.85-1.22,17.92-1.22,27.05s.43,18.23,1.23,27.04c-38.44-6.37-59.14-18.48-59.14-27.04s20.69-20.68,59.13-27.05ZM261.23,415.21c-31.96-16.88-54.54-48.5-60.75-84.31,12.4,8.38,32.96,15.11,58.76,19.06.2,1.41.4,2.81.61,4.21.02.1.03.2.05.29.17,1.06.33,2.12.51,3.17.04.21.07.42.11.63.17.97.33,1.93.51,2.88.05.28.1.56.15.84.17.9.34,1.8.52,2.7.07.31.13.63.2.95.17.86.34,1.71.53,2.56.07.34.15.69.23,1.03.18.82.36,1.64.55,2.45.08.36.17.72.24,1.07.19.8.38,1.58.57,2.37.1.37.19.74.28,1.11.2.76.38,1.52.59,2.27.1.38.21.76.31,1.15.2.72.39,1.45.6,2.17.12.4.24.8.35,1.2.2.69.39,1.37.6,2.05.14.43.26.86.4,1.29.2.63.39,1.27.6,1.9.16.47.31.94.47,1.41.19.57.37,1.15.57,1.71.19.54.38,1.07.57,1.6.18.48.34.98.52,1.46.24.65.49,1.3.73,1.94.14.35.26.7.4,1.04.38.99.77,1.97,1.18,2.93.03.08.07.16.1.24.31.75.64,1.49.95,2.22.09.2.18.39.26.59.27.6.55,1.21.82,1.8.11.25.23.49.34.73.25.53.5,1.06.75,1.58.14.29.28.58.43.87.23.45.45.9.68,1.34.19.35.37.69.55,1.04.19.35.38.71.57,1.06.2.35.38.7.58,1.04-5.75.59-11.5,1.35-16.96,2.29ZM336.52,411.83c-8.23-.52-16.03-.74-22.6-.74s-14.38.22-22.62.74c-2.52-3.85-4.92-8.34-7.15-13.39-.05-.1-.09-.19-.13-.29-.35-.8-.71-1.62-1.06-2.45-.03-.08-.06-.16-.1-.24-.32-.79-.65-1.6-.97-2.41-.24-.64-.49-1.29-.73-1.94-.1-.26-.2-.51-.29-.77-.26-.74-.53-1.49-.79-2.24-.06-.18-.13-.36-.2-.54-.27-.8-.54-1.61-.81-2.43-.04-.14-.09-.27-.13-.41-.28-.85-.55-1.71-.81-2.58-.04-.1-.07-.21-.11-.32-.26-.88-.53-1.78-.79-2.68-.02-.1-.05-.19-.08-.28-.26-.92-.52-1.84-.76-2.77-.03-.09-.05-.17-.07-.26-.25-.93-.5-1.87-.73-2.82-.03-.09-.05-.19-.07-.28-.24-.94-.47-1.89-.7-2.85-.03-.11-.05-.21-.08-.32-.22-.95-.43-1.9-.65-2.86-.02-.12-.05-.24-.08-.36-.21-.95-.4-1.91-.6-2.87-.03-.14-.06-.29-.09-.43-.19-.95-.37-1.9-.56-2.85-.03-.17-.06-.34-.09-.51-.18-.94-.34-1.88-.51-2.83-.03-.18-.06-.36-.09-.54-.17-.95-.32-1.91-.47-2.87-.03-.15-.05-.3-.07-.44-.08-.46-.14-.92-.21-1.37,13.52,1.53,27.81,2.31,42.58,2.31s29-.78,42.59-2.32c-2.47,16.48-6.46,31.65-11.65,44.13-2.57,6.18-5.37,11.59-8.34,16.13ZM366.62,415.21c-5.48-.94-11.21-1.7-16.96-2.29,2.14-3.82,4.15-8.01,6.02-12.53,5.93-14.26,10.37-31.64,12.94-50.43,25.8-3.94,46.35-10.68,58.75-19.07-6.2,35.82-28.79,67.45-60.74,84.32Z"/>
          <path class="cls-12" d="M398.88,434.3v40.09c0,3.53-4.21,6.84-11.57,9.68-13.79,5.33-38.62,9.02-67.4,9.47-1.98.03-3.97.05-5.98.05-1.19,0-2.38-.01-3.57-.02-3.44-.03-6.82-.11-10.13-.23-32.5-1.19-58.81-6.54-67.87-13.56-2.21-1.71-3.4-3.52-3.4-5.4v-40.09h169.92Z"/>
          <path class="cls-8" d="M232.36,434.3v45.49c-2.21-1.71-3.4-3.52-3.4-5.4v-40.09h3.4Z"/>
          <path class="cls-2" d="M310.36,449.27v44.3c-3.44-.03-6.82-.11-10.13-.23v-44.07h10.13Z"/>
          <path class="cls-2" d="M387.31,436.3v47.77c-13.79,5.33-38.62,9.02-67.4,9.47v-57.24h67.4Z"/>
          <path class="cls-8" d="M398.88,434.3c0,1.15-.44,2.27-1.29,3.36-7.03,9-41.82,15.84-83.66,15.84s-76.66-6.85-83.67-15.85c-.85-1.09-1.29-2.21-1.29-3.35,0-10.61,38.04-19.21,84.97-19.21s84.96,8.6,84.96,19.21Z"/>
          <path class="cls-12" d="M398.88,434.3c0,1.15-.44,2.27-1.29,3.36-12.96,6.73-45.53,11.5-83.66,11.5s-70.72-4.78-83.67-11.51c-.85-1.09-1.29-2.21-1.29-3.35,0-10.61,38.04-19.21,84.97-19.21s84.96,8.6,84.96,19.21Z"/>
          <path class="cls-12" d="M313.92,184.76c-67.85,0-123.04,56.42-123.04,125.76,0,47.3,25.67,88.59,63.53,110.05,11.53,6.55,24.19,11.24,37.6,13.72,7.11,1.32,14.44,2,21.91,2s14.8-.68,21.92-2c13.4-2.47,26.05-7.17,37.58-13.72,37.86-21.47,63.53-62.76,63.53-110.05,0-69.35-55.19-125.76-123.03-125.76ZM367.32,419.35c-11.79,6.08-24.7,10.21-38.32,11.97-3.69.48-7.43.78-11.22.9-1.28.05-2.57.07-3.86.07-5.11,0-10.15-.33-15.09-.97-13.61-1.77-26.52-5.9-38.32-11.97-36-18.53-61.6-55.2-65.25-98.18-.3-3.5-.46-7.06-.46-10.64s.16-7.14.46-10.64c4.85-57.07,48.37-102.98,103.57-110.15,4.95-.64,9.98-.97,15.09-.97s10.14.33,15.08.97c55.19,7.16,98.72,53.08,103.57,110.15.3,3.5.46,7.06.46,10.64s-.16,7.14-.46,10.64c-3.65,42.99-29.25,79.66-65.25,98.18Z"/>
          <path class="cls-2" d="M432.57,299.88c-9.64-11.37-34.48-20.56-67.44-25.26-1.32-.19-2.66-.37-4.03-.54-14.46-1.87-30.37-2.9-47.18-2.9s-32.72,1.03-47.19,2.9c-1.35.17-2.69.35-4.03.54-32.96,4.71-57.81,13.89-67.44,25.26-2.86,3.37-4.38,6.94-4.38,10.64s1.52,7.27,4.38,10.64c9.64,11.38,34.5,20.56,67.46,25.26,1.32.19,2.66.37,4.02.55,14.47,1.87,30.38,2.89,47.18,2.89s32.72-1.03,47.18-2.89c1.36-.18,2.7-.36,4.03-.55,32.97-4.71,57.81-13.89,67.44-25.26,2.86-3.37,4.38-6.94,4.38-10.64s-1.52-7.27-4.38-10.64ZM365.6,342.32c-1.31.2-2.65.39-4.01.56-14.25,1.9-30.26,2.99-47.67,2.99s-33.41-1.09-47.67-2.99c-1.35-.17-2.68-.36-4.01-.56-41.75-6.13-67.44-19.28-67.44-31.79s25.68-25.65,67.43-31.79c1.32-.2,2.65-.39,4.01-.56,14.26-1.9,30.27-2.99,47.68-2.99s33.42,1.09,47.67,2.99c1.35.17,2.69.36,4.01.56,41.75,6.14,67.43,19.28,67.43,31.79s-25.68,25.65-67.43,31.79Z"/>
          <path class="cls-1" d="M365.6,278.74c-.15-1.38-.3-2.75-.47-4.12-2.44-19.57-6.88-37.52-13.06-52.39-6.45-15.54-14.36-26.59-23.07-32.49-4.83-3.28-9.89-4.98-15.08-4.98s-10.26,1.69-15.09,4.98c-8.7,5.9-16.61,16.95-23.07,32.49-6.18,14.88-10.62,32.82-13.06,52.39-.17,1.36-.32,2.73-.47,4.12-1.12,10.25-1.69,20.92-1.69,31.79s.58,21.54,1.7,31.79c.04.41.08.82.13,1.23.11.96.23,1.92.35,2.88,2.43,19.57,6.86,37.53,13.04,52.39,2.76,6.65,5.79,12.47,9.03,17.42,4.33,6.64,9.05,11.7,14.04,15.08,1.77,1.21,3.58,2.21,5.43,2.97,3.15,1.33,6.39,2,9.67,2,1.29,0,2.59-.11,3.86-.32,1.96-.32,3.9-.88,5.81-1.68,1.83-.77,3.64-1.76,5.42-2.97,4.99-3.37,9.71-8.44,14.04-15.08,3.25-4.96,6.28-10.78,9.03-17.42,6.18-14.88,10.62-32.82,13.06-52.39.17-1.36.32-2.73.47-4.12,1.12-10.25,1.69-20.92,1.69-31.79s-.58-21.54-1.69-31.79ZM361.1,346.98c-2.41,18.79-6.7,35.99-12.63,50.28-3.04,7.3-6.37,13.54-9.94,18.64-6.34,9.1-13.4,14.59-20.74,16.01-1.27.25-2.57.38-3.86.38-8.73,0-17.17-5.7-24.62-16.39-3.57-5.11-6.9-11.34-9.93-18.64-5.93-14.29-10.22-31.49-12.63-50.28-.15-1.14-.29-2.28-.42-3.43-.03-.22-.05-.44-.07-.67-1.19-10.4-1.79-21.27-1.79-32.35s.61-21.94,1.78-32.35c.15-1.37.31-2.74.49-4.1,2.41-18.79,6.7-36,12.63-50.28,9.38-22.6,21.66-35.03,34.55-35.03s25.16,12.44,34.54,35.03c5.94,14.28,10.23,31.49,12.63,50.28.18,1.35.34,2.72.49,4.1,1.18,10.41,1.78,21.27,1.78,32.35s-.61,21.94-1.78,32.35c-.15,1.38-.31,2.74-.49,4.11Z"/>
          <path class="cls-2" d="M317.78,431.92v4.06c-1.27.21-2.57.32-3.86.32-14.57,0-28.12-13.31-38.16-37.48-6.48-15.6-11.04-34.58-13.39-55.28h3.95c2.31,20.13,6.76,38.57,13.05,53.72,9.38,22.59,21.66,35.03,34.55,35.03,1.29,0,2.59-.13,3.86-.38Z"/>
        </g>
        <g>
          <path class="cls-9" d="M414.58,316.95s0,.02-.02.03c-.31.47-.66.91-1.04,1.33,0,.01,0,.02,0,.03,0,0,0,0-.02,0,0,.01,0,.02-.02.02-8.3,9.39-43.82,23.11-79.55,28.25-1.85.26-3.69.5-5.54.71-28.68,35.58-65.49,66.68-75.02,66.68h-.11c-.36-.01-.7-.05-1.03-.1-.11-.02-.22-.06-.32-.09-.2-.04-.39-.08-.58-.15-.02,0-.03-.01-.05-.01,0,0,0,0,0-.01h-.02c-1.48-.51-3.45-1.76-4.71-4.88-3.57-8.77-.2-32.24,15.16-63.84-24.49-6-39.54-18.14-43.33-27.42-1.45-3.54-1.34-6.9.31-9.45.37-.57.83-1.14,1.36-1.72,8.41-8.89,44.54-23.92,84.83-28.67,28.7-35.56,65.51-66.68,75.02-66.68h.1c.39.02.75.06,1.11.13h0c.06.01.12.02.17.03.03.01.05.01.07.02.2.04.38.09.54.13.02.01.04.02.07.03.16.05.29.1.4.14.36.15.74.35,1.15.6h0c.29.2.6.44.89.71.08.06.16.13.23.2.25.25.5.51.74.82.09.12.17.25.25.38.15.2.28.41.41.63.05.09.11.16.16.24.06.11.11.24.17.36.06.11.11.22.16.33.11.24.22.48.3.73.04.08.07.15.1.23.03.08.05.16.08.24.06.18.12.35.17.53.04.13.08.26.11.4,1.54,5.66.8,14.55-1.86,25.25-2.53,10.32-6.99,22.85-13.85,36.95,24.5,6.01,39.55,18.14,43.34,27.42,1.45,3.54,1.34,6.9-.31,9.44Z"/>
          <path class="cls-12" d="M267.48,342.13c-33.81-6.76-49.83-25.24-45.53-31.85.25-.38.57-.78.94-1.18,7.9-8.36,44.77-23.29,84.01-27.63l-3.5,20.32-35.93,40.34Z"/>
          <path class="cls-2" d="M267.48,342.13c-33.81-6.76-49.83-25.24-45.53-31.85.25-.38.57-.78.94-1.18l80.52-7.31-35.93,40.34Z"/>
          <path class="cls-12" d="M326.36,343.56c-30.84,38.62-66.6,66.62-73,66.46-.29,0-.56-.05-.81-.14-6.82-2.17-4.19-30.29,14.96-67.76l35.9-40.32h0s22.95,41.77,22.95,41.77Z"/>
          <path class="cls-2" d="M326.36,343.56c-30.84,38.62-66.6,66.62-73,66.46-.29,0-.56-.05-.81-.14l50.87-108.08,22.95,41.76Z"/>
          <path class="cls-12" d="M365.76,282.91l-62.09,18.77-.42.25-.08-.28,3.74-20.18h0c30.84-38.62,66.59-66.62,73-66.47.21,0,.41.03.6.08.16.03.3.07.44.13.72.3,1.33.9,1.82,1.79,3.91,7.19-.15,32.93-17,65.9Z"/>
          <path class="cls-2" d="M365.76,282.91l-62.09,18.77-.42.25-.08-.28,77.34-86.57c.16.03.3.07.44.13,6.54,2.71,3.76,30.64-15.18,67.7Z"/>
          <path class="cls-12" d="M411.31,314.74c-.2.3-.42.6-.71.91-7.35,8.31-44.59,23.52-84.25,27.9l-23.2-41.76h.02s62.61-18.89,62.61-18.89c33.81,6.76,49.83,25.24,45.54,31.84Z"/>
          <path class="cls-2" d="M410.6,315.65c-7.35,8.31-44.59,23.52-84.25,27.9l-23.19-41.77,107.44,13.88Z"/>
          <polygon class="cls-8" points="304.07 296.51 303.17 301.78 379.46 216.25 304.07 296.51"/>
          <polygon class="cls-8" points="296.71 309.16 303.18 302.07 257.61 399.12 296.71 309.16"/>
          <polygon class="cls-8" points="228.1 308.63 304.07 296.51 303.17 301.78 228.1 308.63"/>
          <polygon class="cls-8" points="303.17 301.78 315.09 298.18 404.34 314.44 303.17 301.78"/>
          <path class="cls-9" d="M317.6,302.05c-5.25,8.09-15.52,14.31-23.56,14.31-.13,0-.24,0-.37-.01-3.84-.09-6.73-1.66-8.13-4.43-1.71-3.36-.94-8,2.14-12.74,5.34-8.22,15.84-14.49,23.93-14.31,3.84.1,6.73,1.67,8.14,4.43,1.71,3.36.93,8.01-2.14,12.75Z"/>
          <g>
            <path class="cls-2" d="M315.97,300.94c-4.93,7.58-14.89,13.59-22.25,13.41-7.36-.18-9.34-6.47-4.41-14.05,4.93-7.58,14.89-13.59,22.25-13.41,7.36.18,9.34,6.47,4.41,14.05Z"/>
            <path class="cls-12" d="M312.03,299.53c-3.62,5.57-10.93,9.97-16.33,9.84-5.4-.13-6.85-4.75-3.24-10.31,3.62-5.57,10.93-9.97,16.33-9.84,5.4.13,6.85,4.75,3.24,10.31Z"/>
            <path class="cls-8" d="M304.83,295.36c-1.4,2.15-4.23,3.86-6.31,3.81-2.09-.05-2.65-1.84-1.25-3.99,1.4-2.15,4.23-3.86,6.31-3.81,2.09.05,2.65,1.84,1.25,3.99Z"/>
            <path class="cls-8" d="M317.78,291.93c-1.11-1.48-3.03-2.37-5.68-2.44-7.04-.17-16.56,5.57-21.26,12.81-2.28,3.51-3.01,6.73-2.36,9.14-1.84-2.44-1.47-6.48,1.46-11,4.71-7.25,14.23-12.99,21.26-12.81,3.63.09,5.89,1.73,6.58,4.29Z"/>
          </g>
        </g>
        <g>
          <path class="cls-9" d="M433.86,353.09c4.65-13.65,7.01-27.97,7.01-42.57,0-34.19-12.95-66.49-36.46-90.93-23.48-24.41-54.78-38.2-88.15-38.82h-.02c-.77-.01-1.55-.02-2.32-.02-70,0-126.95,58.21-126.95,129.77,0,3.88.17,7.75.51,11.6.36,4.11.93,8.19,1.67,12.24,1.81,9.88,4.72,19.54,8.7,28.7.04.09.08.17.12.25.99,2.26,2.03,4.49,3.15,6.69h0s0,0,0,0c0,0,0,0,0,0,8.21,16.21,19.47,30.25,33.44,41.73,22.42,18.42,50.61,28.56,79.37,28.56.3,0,.59,0,.89-.01,34.38-.24,66.39-14.78,89.58-38.84,1.65-1.71,3.27-3.45,4.83-5.26.04-.05.08-.09.12-.14,10.61-12.34,19.03-26.83,24.52-42.96,0,0,0,0,0,0,0,0,0,0,0,0,0,0,0,0,0,0ZM419.24,358.2c-.16.38-.34.75-.51,1.13-.34.77-.69,1.53-1.05,2.29-.21.44-.43.88-.64,1.32-.33.68-.67,1.37-1.01,2.04-.23.46-.47.91-.71,1.36-.34.65-.69,1.3-1.04,1.94-.25.45-.5.91-.76,1.36-.36.64-.73,1.27-1.1,1.9-.26.44-.52.87-.78,1.31-.39.64-.79,1.27-1.19,1.9-.26.41-.52.82-.78,1.22-.44.68-.9,1.34-1.35,2.01-.24.35-.47.7-.71,1.04-.61.87-1.23,1.72-1.85,2.57-.1.13-.19.27-.29.4-.73.98-1.48,1.95-2.25,2.9-.21.27-.44.53-.65.8-.55.68-1.11,1.36-1.67,2.02-.29.34-.58.67-.88,1.01-.51.58-1.02,1.16-1.53,1.74-.32.36-.65.71-.97,1.06-.5.54-1.01,1.08-1.52,1.61-.34.35-.68.7-1.03,1.05-.52.52-1.03,1.04-1.56,1.55-.35.34-.7.68-1.05,1.01-.54.52-1.09,1.02-1.64,1.53-.34.31-.68.63-1.03.94-.59.53-1.2,1.05-1.8,1.57-.31.27-.62.54-.94.81-.74.62-1.49,1.23-2.25,1.83-.19.15-.37.3-.55.45-.95.75-1.92,1.49-2.9,2.21-.2.15-.41.29-.61.44-.77.56-1.55,1.12-2.33,1.66-.34.23-.68.46-1.03.69-.66.44-1.32.88-1.98,1.31-.39.25-.78.49-1.17.74-.63.4-1.27.79-1.91,1.17-.41.25-.83.49-1.24.73-.63.37-1.27.73-1.91,1.09-.42.24-.85.47-1.27.7-.65.35-1.3.69-1.96,1.03-.42.22-.84.44-1.26.65-.69.35-1.39.68-2.08,1.01-.39.19-.78.38-1.18.56-.8.37-1.61.73-2.42,1.08-.3.13-.59.26-.89.39-1.12.47-2.24.93-3.37,1.37-.17.06-.34.12-.5.19-.96.37-1.93.72-2.9,1.06-.39.14-.78.26-1.17.39-.76.26-1.51.51-2.28.75-.45.14-.91.28-1.37.41-.71.21-1.42.42-2.13.62-.48.13-.97.26-1.45.39-.37.1-.74.19-1.12.29.13-.16.27-.34.4-.5.17-.22.35-.43.52-.66.16-.2.32-.41.48-.62.1-.13.2-.26.3-.4.12-.16.25-.33.37-.49.21-.29.42-.58.64-.88.17-.23.33-.46.5-.7.07-.1.14-.2.21-.3.1-.14.19-.29.29-.43.05-.07.09-.14.14-.21.16-.23.32-.46.47-.7.22-.33.44-.67.65-1.01.13-.2.25-.39.38-.58.03-.05.07-.11.1-.16.22-.34.43-.7.64-1.05.13-.22.27-.43.4-.66.19-.32.38-.65.57-.98.08-.14.17-.29.25-.43.08-.14.16-.27.24-.41.34-.6.68-1.21,1.02-1.83,0-.01.01-.03.02-.04.09-.16.17-.33.26-.49.16-.3.32-.61.48-.92.37-.7.73-1.41,1.09-2.14.2-.39.39-.79.58-1.19.35-.74.7-1.48,1.05-2.23.16-.34.31-.68.47-1.02.5-1.12,1-2.25,1.47-3.41.64-1.54,1.26-3.11,1.86-4.71,1.68-4.46,3.2-9.16,4.59-14.06.6-2.14,1.19-4.3,1.74-6.52,1.35-5.48,2.53-11.19,3.52-17.12,0,0,0,0,0,0,.44-2.64.84-5.32,1.2-8.02.77-.12,1.54-.23,2.3-.36,3.18-.51,6.28-1.07,9.28-1.66,20.52-4.04,36.69-9.87,47.21-17.04-1.4,8.15-3.63,16.11-6.7,23.83,0,0,0,0,0,0-.46,1.17-.95,2.33-1.45,3.48ZM429.12,310.53c0,2.77-2.4,6.07-6.76,9.31-1.83,1.36-3.97,2.7-6.39,3.99-10.5,5.59-26.28,10.4-44.78,13.55-.39.07-.8.13-1.19.2.8-8.82,1.21-17.85,1.21-27.04,0-33.84-5.52-65.76-15.53-89.86-4.14-9.96-8.82-18.12-14-24.44,50.68,12.83,87.44,59.77,87.44,114.31ZM198.87,304.52c3.02-60.69,51.5-109.67,111.3-111.68.95-.03,1.9-.05,2.86-.06h0s.06,0,.09,0c.23,0,.46,0,.69,0,.06,0,.12,0,.18,0,11.2.05,22.16,11.62,30.87,32.59,9.41,22.63,14.59,52.87,14.59,85.16,0,9.82-.48,19.44-1.42,28.76-5.51.68-11.18,1.23-16.98,1.63-8.72.62-17.85.94-27.13.94-6.32,0-12.56-.15-18.67-.44-1.63-.08-3.25-.17-4.87-.27-16.5-1-31.98-3.06-45.6-6.1-31.65-7.05-46.06-17.66-46.06-24.53,0-2.01.05-4.02.15-6.01ZM291,425.94c-15.48-3.2-30.17-9.64-43.29-19.11-25.17-18.14-41.99-45.35-47.23-75.85,9.25,6.29,23.08,11.62,41.06,15.66,21,4.73,46.03,7.23,72.39,7.23,9.16,0,18.26-.31,27.04-.91,0,0,0,0,0,0,5.28-.36,10.47-.83,15.54-1.4-.28,1.88-.58,3.74-.9,5.58-.62,3.6-1.32,7.12-2.08,10.54-2.29,10.25-5.19,19.64-8.67,28.01-.29.69-.58,1.37-.87,2.04-.13.3-.27.6-.4.9-.17.38-.34.75-.51,1.13-.13.28-.25.54-.38.82-.19.41-.38.82-.58,1.22-.1.2-.19.39-.29.59-.24.5-.49.99-.74,1.48-.05.09-.09.18-.14.27-2.64,5.12-5.46,9.54-8.4,13.12-.01.01-.02.02-.03.04-.35.42-.69.83-1.04,1.23-.09.1-.18.2-.28.31-.28.31-.56.62-.84.92-.2.21-.4.42-.61.62-.18.19-.37.38-.55.56-.4.39-.8.77-1.2,1.13-4.61,4.14-9.35,6.23-14.09,6.23-5.96,0-11.87-.46-17.67-1.38-1.76-.28-3.51-.61-5.25-.97Z"/>
          <g>
            <path class="cls-12" d="M316.2,184.78c-.75-.01-1.52-.02-2.27-.02-67.85,0-123.04,56.42-123.04,125.76,0,20.77,4.95,40.38,13.7,57.65,7.95,15.7,19.04,29.47,32.42,40.45,21.08,17.31,47.84,27.67,76.91,27.67.27,0,.54,0,.81-.01,53.36-.35,98.77-35.61,115.42-84.51,4.41-12.93,6.8-26.81,6.8-41.25,0-68.57-53.97-124.5-120.75-125.74ZM424.32,356.23c-15.89,40-52.01,69.47-95.3,75.09-4.95.64-9.98.97-15.09.97-25.47,0-49.09-8.21-68.47-22.19-28.14-20.27-47.34-52.68-50.25-89.72-.26-3.25-.39-6.54-.39-9.86,0-66.83,52.94-121.25,118.2-121.75.3-.01.62-.01.92-.01,5.11,0,10.14.33,15.08.97,58.58,7.6,104.03,58.87,104.03,120.79,0,16.16-3.09,31.59-8.72,45.71Z"/>
            <path class="cls-12" d="M433.03,310.53c0,4.22-2.91,8.49-8.36,12.55-9.93,7.41-28.28,14.08-52.83,18.25-9.31,1.59-19.53,2.82-30.51,3.59-8.67.62-17.83.95-27.4.95-27.18,0-50.96-2.65-69.97-6.9-30.83-6.87-49.15-17.88-49.15-28.44h-3.92c0,13.47,20.13,25.15,51.49,32.21,20.04,4.52,44.66,7.14,71.55,7.14,9.23,0,18.19-.31,26.78-.9,10.45-.71,20.37-1.84,29.59-3.33,24.62-3.96,44.23-10.49,55.64-18.55,7.09-5.02,11.02-10.61,11.02-16.56h-3.92Z"/>
            <path class="cls-12" d="M352.07,222.23c-6.45-15.54-14.36-26.59-23.07-32.49-4.83-3.28-9.89-4.98-15.08-4.98v4c12.89,0,25.16,12.44,34.54,35.03,9.62,23.13,14.91,53.94,14.91,86.73,0,16.52-1.34,32.54-3.91,47.32-2.52,14.57-6.23,27.94-11,39.42-2.32,5.58-4.81,10.52-7.43,14.83-3.28,5.37-6.79,9.71-10.44,12.98-5.3,4.76-10.92,7.23-16.67,7.23v4c.27,0,.54,0,.81-.01,4.91-.17,9.71-1.85,14.28-4.97,3.2-2.17,6.3-5.05,9.26-8.58,3.02-3.61,5.89-7.92,8.58-12.89,1.82-3.37,3.57-7.06,5.22-11.03,5.01-12.07,8.88-26.17,11.46-41.53,2.47-14.67,3.76-30.49,3.76-46.77,0-33.32-5.41-64.68-15.22-88.3Z"/>
            <path class="cls-8" d="M316.2,184.78c-1.01,1.37-2.08,2.7-3.19,3.99-65.26.5-118.2,54.92-118.2,121.75,0,3.32.13,6.61.39,9.86.04,12.76,3.02,25.68,6.53,38.03.93,3.25,1.9,6.5,2.86,9.76-8.76-17.27-13.7-36.89-13.7-57.65,0-69.35,55.19-125.76,123.04-125.76.75,0,1.52.01,2.27.02Z"/>
            <path class="cls-8" d="M341.33,344.92c-.07,1.38-.27,2.74-.63,4.05-8.59.59-17.55.9-26.78.9-26.89,0-51.51-2.62-71.55-7.14.5-1.26,1.01-2.53,1.58-3.76,19.01,4.25,42.79,6.9,69.97,6.9,9.58,0,18.74-.33,27.4-.95Z"/>
            <path class="cls-2" d="M425.93,327.09c-11.41,8.06-31.02,14.59-55.64,18.55.15-1.01.49-2.02.9-2.96.2-.46.41-.91.65-1.35,24.55-4.18,42.9-10.84,52.83-18.25.7,1.21,1.12,2.59,1.26,4.01Z"/>
            <path class="cls-2" d="M363.53,357.29c-2.58,15.36-6.44,29.46-11.46,41.53-4.07,9.82-8.73,17.84-13.8,23.92-2.42,1.27-5,2.19-7.68,2.32,6.59-5.89,12.67-15.29,17.87-27.8,4.77-11.47,8.48-24.85,11-39.42,1.34-.34,2.7-.53,4.06-.55Z"/>
            <path class="cls-2" d="M430.15,351.78c-16.65,48.9-62.06,84.16-115.42,84.51-.27.01-.54.01-.81.01-29.08,0-55.84-10.36-76.91-27.67,2.85-.12,5.7.58,8.44,1.48,19.38,13.98,43.01,22.19,68.47,22.19,5.75,0,11.37-2.47,16.67-7.23,3.65-3.26,7.16-7.61,10.44-12.98,1.94-.75,3.88-1.5,5.82-2.23-2.69,4.97-5.56,9.27-8.58,12.89-2.96,3.53-6.05,6.41-9.26,8.58,43.29-5.63,79.41-35.09,95.3-75.09,1.85-1.64,3.79-3.14,5.84-4.46Z"/>
          </g>
        </g>
      </g>
      <path class="cls-11" d="M465.04,562c-.11,0-.23,0-.34-.03L6.62,479.4c-.94-.17-1.62-1-1.62-1.97V2c0-1.11.88-2,1.96-2h458.08c1.08,0,1.96.9,1.96,2v558c0,.59-.26,1.15-.7,1.53-.36.31-.8.47-1.26.47ZM8.92,475.74l454.16,81.87V4H8.92v471.74Z"/>
    </g>
  </g>
  <g id="Text">
    <g>
      <path class="cls-11" d="M222.75,75.66c-2.22-2.16-3.34-5.42-3.34-9.77,0-2.91.45-5.43,1.34-7.56.9-2.13,2.14-3.75,3.72-4.87,1.58-1.12,3.35-1.68,5.3-1.68,1.18,0,2.22.22,3.12.65.9.43,1.62,1,2.16,1.7,1.15-1.57,3.15-2.35,6-2.35,2.59,0,4.64.76,6.14,2.28,1.5,1.52,2.26,3.5,2.26,5.93v18.19h-8.45v-17.23c0-.86-.14-1.51-.43-1.94-.29-.43-.77-.65-1.44-.65-1.22,0-1.98.79-2.3,2.35h-3.41c-.22-1.57-.9-2.35-2.02-2.35-.99,0-1.79.64-2.4,1.92s-.91,3.15-.91,5.62c0,2.21.48,3.83,1.44,4.87s2.5,1.56,4.61,1.56c1.09,0,2.16-.19,3.22-.57v6.48c-1.44.45-3.06.67-4.85.67-4.29,0-7.54-1.08-9.77-3.24Z"/>
      <path class="cls-11" d="M260.14,78.26c-2.19-.43-3.99-1-5.4-1.71v-13.54h12.77v5.66h-4.61v2.97c.42.19.98.35,1.68.48.7.13,1.42.19,2.16.19,2.24,0,3.93-.6,5.06-1.8,1.14-1.2,1.7-2.97,1.7-5.3s-.66-4.18-1.99-5.26c-1.33-1.07-3.61-1.61-6.84-1.61-1.66,0-3.38.16-5.16.48s-3.24.77-4.39,1.34v-6.53c1.31-.57,2.99-1.03,5.04-1.37,2.05-.34,4.13-.5,6.24-.5,5.09,0,8.99,1.17,11.71,3.5,2.72,2.34,4.08,5.65,4.08,9.94,0,2.82-.6,5.25-1.8,7.3-1.2,2.05-2.96,3.62-5.28,4.73-2.32,1.1-5.11,1.65-8.38,1.65-2.21,0-4.41-.21-6.6-.65Z"/>
      <path class="cls-11" d="M292.04,77.58c-1.5-.88-2.64-2.08-3.41-3.6-.77-1.52-1.15-3.24-1.15-5.16v-16.32h8.45v15.79c0,1.34.37,2.35,1.1,3.02.74.67,1.79,1.01,3.17,1.01,1.18,0,2.19-.25,3.02-.74.83-.5,1.55-1.26,2.16-2.28v-16.8h8.45v25.68h-8.02v-2.64c-1.06,1.06-2.32,1.88-3.79,2.47-1.47.59-2.99.89-4.56.89-2.11,0-3.92-.44-5.42-1.32Z"/>
      <path class="cls-11" d="M324.63,77.58c-1.5-.88-2.64-2.08-3.41-3.6-.77-1.52-1.15-3.24-1.15-5.16v-16.32h8.45v15.79c0,1.34.37,2.35,1.1,3.02.74.67,1.79,1.01,3.17,1.01,1.18,0,2.19-.25,3.02-.74.83-.5,1.55-1.26,2.16-2.28v-16.8h8.45v25.68h-8.02v-2.64c-1.06,1.06-2.32,1.88-3.79,2.47-1.47.59-2.99.89-4.56.89-2.11,0-3.92-.44-5.42-1.32Z"/>
      <path class="cls-11" d="M323.43,44.34h15.31v-5.04h7.63v10.32h-22.94v-5.28Z"/>
      <path class="cls-11" d="M336.05,34.12c0-.32-.06-.54-.17-.67-.11-.13-.34-.19-.7-.19h-2.11v-5.28h4.7c1.22,0,2.06.24,2.54.72s.72,1.14.72,1.97v1.15h8.06v4.85h-13.06v-2.54Z"/>
      <path class="cls-11" d="M352.66,62.87c0-3.65,1.23-6.41,3.7-8.28,2.46-1.87,5.78-2.81,9.94-2.81s7.51.94,9.96,2.81c2.45,1.87,3.67,4.63,3.67,8.28v15.31h-8.45v-15.17c0-3.1-1.73-4.66-5.18-4.66s-5.18,1.55-5.18,4.66v3.07c.42-.45.96-.81,1.63-1.08.67-.27,1.39-.41,2.16-.41h3.55v6.1h-3.89c-1.02,0-1.86.3-2.5.89-.64.59-.96,1.42-.96,2.47v4.13h-8.45v-15.31Z"/>
      <path class="cls-11" d="M372.39,87.11c0-.61-.11-1.03-.34-1.27-.22-.24-.64-.36-1.25-.36h-1.49v-5.28h5.57c1.82,0,3.12.42,3.89,1.25s1.15,2.16,1.15,3.98v6.14h-7.54v-4.46Z"/>
      <path class="cls-11" d="M406.25,76.1c-1.65-1.87-2.47-4.3-2.47-7.27v-5.81c0-1.6-.36-2.78-1.08-3.53-.72-.75-1.82-1.13-3.29-1.13-1.06,0-2.02.15-2.88.46-.86.3-1.7.81-2.5,1.51l1.78,3.03v6.77c0,.71.17,1.21.5,1.51.34.3.87.46,1.61.46h2.26v6.1h-6.96c-1.86,0-3.3-.54-4.32-1.61-1.02-1.07-1.54-2.55-1.54-4.44v-8.93l-2.4-4.18c3.9-4.83,8.72-7.25,14.45-7.25,4.1,0,7.23.94,9.41,2.83,2.18,1.89,3.26,4.46,3.26,7.73v5.95c0,1.31.36,2.31,1.08,3,.72.69,1.7,1.03,2.95,1.03,1.98,0,3.58-1.01,4.8-3.02v-16.8h8.45v25.68h-7.87v-2.64c-1.06,1.09-2.28,1.92-3.67,2.5s-2.87.86-4.44.86c-3.1,0-5.48-.94-7.13-2.81Z"/>
      <path class="cls-11" d="M159.77,135.86c-2.19-.43-3.99-1-5.4-1.71v-13.54h12.77v5.66h-4.61v2.97c.42.19.98.35,1.68.48.7.13,1.42.19,2.16.19,2.24,0,3.93-.6,5.06-1.8,1.14-1.2,1.7-2.97,1.7-5.3s-.66-4.18-1.99-5.26c-1.33-1.07-3.61-1.61-6.84-1.61-1.66,0-3.38.16-5.16.48s-3.24.77-4.39,1.34v-6.53c1.31-.57,2.99-1.03,5.04-1.37,2.05-.34,4.13-.5,6.24-.5,5.09,0,8.99,1.17,11.71,3.5,2.72,2.34,4.08,5.65,4.08,9.94,0,2.82-.6,5.25-1.8,7.3-1.2,2.05-2.96,3.62-5.28,4.73-2.32,1.1-5.11,1.65-8.38,1.65-2.21,0-4.41-.21-6.6-.65Z"/>
      <path class="cls-11" d="M194.31,120.23c0-1.44-.33-2.51-.98-3.21-.66-.71-1.78-1.06-3.38-1.06s-3.15.4-4.75,1.2v-6.34c.74-.38,1.77-.72,3.1-1.01,1.33-.29,2.6-.43,3.82-.43,3.46,0,6.1.9,7.92,2.71,1.82,1.81,2.74,4.43,2.74,7.85v15.84h-8.45v-15.55Z"/>
      <path class="cls-11" d="M211.76,134.37c-2.48-1.42-3.72-3.53-3.72-6.31,0-1.21.3-2.29.91-3.24.61-.94,1.44-1.67,2.5-2.18-.96-.54-1.74-1.32-2.33-2.33-.59-1.01-.89-2.1-.89-3.29,0-2.3.84-4.15,2.52-5.54,1.68-1.39,4.12-2.09,7.32-2.09.93,0,1.89.07,2.88.22.99.14,1.74.29,2.26.46v6.14c-.45-.22-.98-.4-1.61-.53-.62-.13-1.19-.19-1.7-.19-1.98,0-2.98.74-2.98,2.21s1.01,2.3,3.02,2.3h3.26v5.28h-3.26c-2.14,0-3.22.81-3.22,2.45,0,1.86,1.68,2.78,5.04,2.78,1.98,0,3.44-.41,4.37-1.22.93-.82,1.39-2.04,1.39-3.67v-15.55h8.45v15.5c0,1.82-.48,3.57-1.44,5.23s-2.5,3.03-4.61,4.1c-2.11,1.07-4.83,1.61-8.16,1.61-4.19,0-7.53-.71-10.01-2.13Z"/>
      <path class="cls-11" d="M228.44,144.71c0-.61-.11-1.03-.34-1.27-.22-.24-.64-.36-1.25-.36h-1.49v-5.28h5.57c1.82,0,3.12.42,3.89,1.25s1.15,2.16,1.15,3.98v6.14h-7.54v-4.46Z"/>
      <path class="cls-11" d="M264.15,135.88c-1.89-.42-3.44-.99-4.66-1.73v-7.44c1.44.93,3.06,1.66,4.87,2.18,1.81.53,3.51.79,5.11.79,2.24,0,3.9-.43,4.99-1.3s1.63-2.05,1.63-3.55-.55-2.56-1.66-3.36c-1.1-.8-2.65-1.2-4.63-1.2-1.12,0-2.3.1-3.53.31-1.23.21-2.3.5-3.19.89l-3.26-1.87,1.34-17.38h21.5v6.96h-13.3l-.43,5.28c1.47-.38,3.04-.58,4.7-.58,3.49,0,6.22.92,8.18,2.76,1.97,1.84,2.95,4.49,2.95,7.95,0,3.74-1.26,6.66-3.79,8.76-2.53,2.1-6.24,3.14-11.14,3.14-1.92,0-3.82-.21-5.71-.62Z"/>
      <path class="cls-11" d="M296.4,134.41c-2.34-1.39-4.14-3.4-5.4-6.02-1.26-2.62-1.9-5.74-1.9-9.36s.62-6.74,1.87-9.36c1.25-2.62,3.03-4.64,5.35-6.05,2.32-1.41,5.06-2.11,8.23-2.11s5.91.71,8.23,2.11c2.32,1.41,4.1,3.42,5.35,6.05,1.25,2.62,1.87,5.74,1.87,9.36s-.63,6.74-1.9,9.36c-1.26,2.62-3.06,4.63-5.4,6.02-2.34,1.39-5.06,2.09-8.16,2.09s-5.82-.7-8.16-2.09ZM309.56,126.04c1.18-1.66,1.78-3.97,1.78-6.91s-.58-5.32-1.75-7.03c-1.17-1.71-2.84-2.57-5.02-2.57s-3.85.86-5.02,2.57c-1.17,1.71-1.75,4.06-1.75,7.03s.59,5.25,1.78,6.91c1.18,1.66,2.85,2.5,4.99,2.5s3.81-.83,4.99-2.5Z"/>
      <path class="cls-11" d="M345.05,134.17c-1.01-1.07-1.51-2.55-1.51-4.44v-19.63h8.45v17.62c0,.74.14,1.25.43,1.54.29.29.78.43,1.49.43h1.68v6.1h-6.24c-1.86,0-3.29-.54-4.3-1.61ZM359.07,134.17c-1.01-1.07-1.51-2.55-1.51-4.44v-19.63h8.45v17.62c0,.74.14,1.25.43,1.54.29.29.78.43,1.49.43h1.68v6.1h-6.24c-1.86,0-3.29-.54-4.3-1.61Z"/>
      <path class="cls-11" d="M376.2,134.37c-1.68-1.42-2.52-3.5-2.52-6.22s.95-4.95,2.86-6.5c1.9-1.55,4.5-2.33,7.8-2.33,1.41,0,2.81.13,4.2.38s2.6.61,3.62,1.05v-.81c0-1.47-.53-2.57-1.58-3.29-1.06-.72-2.8-1.08-5.23-1.08-1.57,0-3.14.17-4.7.5-1.57.34-2.94.78-4.13,1.32v-6.14c1.09-.54,2.58-.99,4.46-1.34,1.89-.35,3.86-.53,5.9-.53,4.7,0,8.17.94,10.39,2.83,2.22,1.89,3.34,4.48,3.34,7.78v15.79h-8.45v-9.22c-1.66-.86-3.55-1.29-5.66-1.29-1.44,0-2.49.23-3.14.7-.66.46-.98,1.19-.98,2.18,0,1.82,1.23,2.74,3.7,2.74.96,0,1.81-.16,2.54-.48v5.42c-1.34.45-3.2.67-5.57.67-2.88,0-5.16-.71-6.84-2.13Z"/>
      <path class="cls-11" d="M388.08,104.1c0-.32-.06-.55-.19-.7-.13-.14-.37-.21-.72-.21h-2.3v-5.66h4.99c2.34,0,3.5,1.01,3.5,3.02v1.34h9.5v5.33h-14.78v-3.12Z"/>
      <path class="cls-11" d="M410.16,135.97c-1.7-.35-3.12-.88-4.27-1.58v-6.53c2.02,1.38,4.69,2.06,8.02,2.06,2.43,0,4.33-.57,5.69-1.7,1.36-1.13,2.04-2.89,2.04-5.26s-.68-4.13-2.04-5.28c-1.36-1.15-3.26-1.73-5.69-1.73-3.26,0-5.87.69-7.82,2.06v-6.53c1.12-.67,2.54-1.19,4.25-1.56,1.71-.37,3.53-.55,5.45-.55,4.58,0,8.14,1.18,10.7,3.55,2.56,2.37,3.84,5.71,3.84,10.03s-1.28,7.62-3.84,9.98c-2.56,2.37-6.13,3.55-10.7,3.55-2.05,0-3.92-.18-5.62-.53Z"/>
    </g>
  </g>
</svg>