<?xml version="1.0" encoding="UTF-8"?>
<svg id="Image" xmlns="http://www.w3.org/2000/svg" xmlns:xlink="http://www.w3.org/1999/xlink" viewBox="0 0 988 940">
  <defs>
    <style>
      .cls-1 {
        fill: #12993f;
      }

      .cls-2 {
        fill: #94ef8b;
      }

      .cls-3 {
        fill: #dd2a39;
      }

      .cls-4 {
        fill: #1cb829;
      }

      .cls-5 {
        fill: #cabd9d;
      }

      .cls-6 {
        fill: #d87625;
      }

      .cls-7 {
        fill: #93d2ad;
      }

      .cls-8, .cls-9 {
        fill: none;
      }

      .cls-10 {
        fill: #93dba1;
      }

      .cls-11 {
        fill: #e6ddbf;
      }

      .cls-12 {
        fill: #aa5217;
      }

      .cls-13 {
        clip-path: url(#clippath-1);
      }

      .cls-14 {
        fill: #f43f3f;
      }

      .cls-9 {
        clip-path: url(#clippath);
      }

      .cls-15 {
        fill: #6d3108;
      }

      .cls-16 {
        fill: #333;
      }

      .cls-17 {
        fill: #ff7d63;
      }

      .cls-18 {
        fill: #efe8cb;
      }

      .cls-19 {
        fill: #34d434;
      }

      .cls-20 {
        fill: #968c75;
      }

      .cls-21 {
        fill: #6d3108;
      }

      .cls-22 {
        fill: #086d3b;
      }

      .cls-23 {
        fill: #7a1839;
      }

      .cls-24 {
        fill: #dcd3b4;
      }
    </style>
    <clipPath id="clippath">
      <polygon class="cls-8" points="2 938.46 2 2.46 986 176.03 986 938.46 2 938.46"/>
    </clipPath>
    <clipPath id="clippath-1">
      <polygon class="cls-9" points="2 938 2 2 986 175.56 986 938 2 938"/>
    </clipPath>
  </defs>
  <g class="cls-13">
    <rect class="cls-18" x="-40.19" y="-41.2" width="1086.63" height="703.7"/>
    <path class="cls-11" d="M593.58,529.22h65.81V193.69h-26.6c-15.31,15.31-23.9,23.9-39.21,39.21v296.32Z"/>
    <g>
      <rect class="cls-18" x="602.34" y="243.4" width="8.99" height="2.57"/>
      <rect class="cls-18" x="613.04" y="243.4" width="8.99" height="2.57"/>
      <rect class="cls-18" x="630.83" y="243.4" width="8.99" height="2.57"/>
      <rect class="cls-18" x="641.54" y="243.4" width="8.99" height="2.57"/>
      <rect class="cls-18" x="602.34" y="247.39" width="8.99" height="2.57"/>
      <rect class="cls-18" x="613.04" y="247.39" width="8.99" height="2.57"/>
      <rect class="cls-18" x="630.83" y="247.39" width="8.99" height="2.57"/>
      <rect class="cls-18" x="641.54" y="247.39" width="8.99" height="2.57"/>
    </g>
    <g>
      <rect class="cls-18" x="602.34" y="259.95" width="8.99" height="2.57"/>
      <rect class="cls-18" x="613.04" y="259.95" width="8.99" height="2.57"/>
      <rect class="cls-18" x="630.83" y="259.95" width="8.99" height="2.57"/>
      <rect class="cls-18" x="641.54" y="259.95" width="8.99" height="2.57"/>
      <rect class="cls-18" x="602.34" y="263.95" width="8.99" height="2.57"/>
      <rect class="cls-18" x="613.04" y="263.95" width="8.99" height="2.57"/>
      <rect class="cls-18" x="630.83" y="263.95" width="8.99" height="2.57"/>
      <rect class="cls-18" x="641.54" y="263.95" width="8.99" height="2.57"/>
    </g>
    <g>
      <rect class="cls-18" x="602.34" y="276.5" width="8.99" height="2.57"/>
      <rect class="cls-18" x="613.04" y="276.5" width="8.99" height="2.57"/>
      <rect class="cls-18" x="630.83" y="276.5" width="8.99" height="2.57"/>
      <rect class="cls-18" x="641.54" y="276.5" width="8.99" height="2.57"/>
      <rect class="cls-18" x="602.34" y="280.5" width="8.99" height="2.57"/>
      <rect class="cls-18" x="613.04" y="280.5" width="8.99" height="2.57"/>
      <rect class="cls-18" x="630.83" y="280.5" width="8.99" height="2.57"/>
      <rect class="cls-18" x="641.54" y="280.5" width="8.99" height="2.57"/>
    </g>
    <g>
      <rect class="cls-18" x="602.34" y="293.05" width="8.99" height="2.57"/>
      <rect class="cls-18" x="613.04" y="293.05" width="8.99" height="2.57"/>
      <rect class="cls-18" x="630.83" y="293.05" width="8.99" height="2.57"/>
      <rect class="cls-18" x="641.54" y="293.05" width="8.99" height="2.57"/>
      <rect class="cls-18" x="602.34" y="297.05" width="8.99" height="2.57"/>
      <rect class="cls-18" x="613.04" y="297.05" width="8.99" height="2.57"/>
      <rect class="cls-18" x="630.83" y="297.05" width="8.99" height="2.57"/>
      <rect class="cls-18" x="641.54" y="297.05" width="8.99" height="2.57"/>
    </g>
    <g>
      <rect class="cls-18" x="602.34" y="309.61" width="8.99" height="2.57"/>
      <rect class="cls-18" x="613.04" y="309.61" width="8.99" height="2.57"/>
      <rect class="cls-18" x="630.83" y="309.61" width="8.99" height="2.57"/>
      <rect class="cls-18" x="641.54" y="309.61" width="8.99" height="2.57"/>
      <rect class="cls-18" x="602.34" y="313.6" width="8.99" height="2.57"/>
      <rect class="cls-18" x="613.04" y="313.6" width="8.99" height="2.57"/>
      <rect class="cls-18" x="630.83" y="313.6" width="8.99" height="2.57"/>
      <rect class="cls-18" x="641.54" y="313.6" width="8.99" height="2.57"/>
    </g>
    <g>
      <rect class="cls-18" x="602.34" y="326.16" width="8.99" height="2.57"/>
      <rect class="cls-18" x="613.04" y="326.16" width="8.99" height="2.57"/>
      <rect class="cls-18" x="630.83" y="326.16" width="8.99" height="2.57"/>
      <rect class="cls-18" x="641.54" y="326.16" width="8.99" height="2.57"/>
      <rect class="cls-18" x="602.34" y="330.15" width="8.99" height="2.57"/>
      <rect class="cls-18" x="613.04" y="330.15" width="8.99" height="2.57"/>
      <rect class="cls-18" x="630.83" y="330.15" width="8.99" height="2.57"/>
      <rect class="cls-18" x="641.54" y="330.15" width="8.99" height="2.57"/>
    </g>
    <rect class="cls-18" x="602.34" y="342.71" width="8.99" height="2.57"/>
    <rect class="cls-18" x="613.04" y="342.71" width="8.99" height="2.57"/>
    <rect class="cls-18" x="630.83" y="342.71" width="8.99" height="2.57"/>
    <rect class="cls-18" x="602.34" y="346.71" width="8.99" height="2.57"/>
    <rect class="cls-11" x="306.94" y="220.31" width="50.5" height="267.67"/>
    <rect class="cls-11" x="790.73" y="254.94" width="77.23" height="405.02"/>
    <rect class="cls-11" x="783.7" y="254.94" width="91.3" height="10.27"/>
    <rect class="cls-11" x="688.15" y="247.47" width="45.9" height="164.83"/>
    <rect class="cls-11" x="229.57" y="349.83" width="62.33" height="300.17"/>
    <rect class="cls-11" x="511.78" y="442.67" width="124.22" height="209.08"/>
    <rect class="cls-18" x="516.64" y="596.69" width="5.52" height="13.68"/>
    <rect class="cls-18" x="525.33" y="596.69" width="5.52" height="13.68"/>
    <rect class="cls-18" x="516.64" y="613.69" width="5.52" height="13.68"/>
    <rect class="cls-24" x="698.76" y="341.86" width="75.09" height="316.02"/>
    <rect class="cls-5" x="756.1" y="538.93" width="56.12" height="120.33"/>
    <rect class="cls-11" x="928.27" y="387.21" width="70.68" height="272.6"/>
    <path class="cls-11" d="M472.31,655.24h-74.55v-390.27h22.78c20.22,20.22,31.55,31.55,51.77,51.77v338.49Z"/>
    <rect class="cls-24" x="465.1" y="547.75" width="58.4" height="116.21"/>
    <rect class="cls-11" x="146.4" y="114.15" width="14.48" height="38"/>
    <rect class="cls-11" x="139.49" y="152.15" width="28.3" height="44.94"/>
    <rect class="cls-11" x="130.88" y="189.76" width="45.53" height="65.34"/>
    <rect class="cls-11" x="122.52" y="255.09" width="62.25" height="394.31"/>
    <rect class="cls-11" x="41.31" y="301.89" width="56.57" height="348.86"/>
    <rect class="cls-24" x="-16.63" y="415.04" width="67.47" height="240.53"/>
    <rect class="cls-24" x="88.1" y="513.98" width="54.39" height="140.04"/>
    <path class="cls-7" d="M885.89,814.82c-39.11-3.95-78.31-7.01-117.55-9.34-67.35-3.99-134.82-5.79-202.28-5.99-92.03-.27-184.12,3.23-276.17,5.7-50.02,1.34-100.1,2.68-149.95,7.23-14.77,1.35-123.11,5.82-109.43,37.58,2.14,4.97,10.76,8.54,15.43,10.94,13.46,6.9,29.06,10.13,43.75,13.18,34.49,7.16,69.66,11.05,104.68,14.51,28.51,2.82,56.86,5.87,85.23,3.08,14.52-1.43,30.35,3.08,44.78,4.86,16.6,2.04,33.25,3.77,49.92,5.2,66.74,5.73,133.84,6.71,200.76,4.25,63.02-2.32,125.91-7.68,188.54-15.06,37.2-4.38,74.45-9.5,110.82-18.66,18.39-4.63,35.89-12.7,54.12-17.32,8.02-2.03,34.76-4.71,32.68-17.91-1.92-12.14-41.52-18.82-75.32-22.23Z"/>
    <rect class="cls-24" x="562.15" y="375.95" width="43.27" height="301.77"/>
    <rect class="cls-5" x="625.21" y="407.64" width="87.31" height="248.37"/>
    <rect class="cls-24" x="835.03" y="338.4" width="74.68" height="312.03"/>
    <rect class="cls-5" x="881.18" y="470" width="74.55" height="183.01"/>
    <rect class="cls-24" x="321.74" y="351.16" width="57.2" height="305.84"/>
    <rect class="cls-5" x="369.5" y="481.87" width="56.76" height="173.64"/>
    <rect class="cls-5" x="369.5" y="481.87" width="56.76" height="173.64"/>
    <rect class="cls-5" x="168.4" y="287.13" width="74.68" height="386.94"/>
    <rect class="cls-5" x="265.42" y="399.47" width="74.68" height="256.46"/>
    <rect class="cls-18" x="307.05" y="405.7" width="4.85" height="19.07"/>
    <rect class="cls-18" x="314.69" y="405.7" width="4.85" height="19.07"/>
    <rect class="cls-18" x="322.33" y="405.7" width="4.85" height="19.07"/>
    <rect class="cls-18" x="329.63" y="405.7" width="4.85" height="19.07"/>
    <rect class="cls-18" x="322.33" y="427.6" width="4.85" height="19.07"/>
    <rect class="cls-18" x="329.63" y="427.6" width="4.85" height="19.07"/>
    <rect class="cls-18" x="322.33" y="449.49" width="4.85" height="19.07"/>
    <rect class="cls-18" x="315.02" y="427.6" width="4.85" height="19.07"/>
    <rect class="cls-18" x="329.63" y="449.49" width="4.85" height="19.07"/>
    <rect class="cls-18" x="273.83" y="599.86" width="4.85" height="19.07"/>
    <rect class="cls-18" x="273.83" y="578.06" width="4.85" height="19.07"/>
    <rect class="cls-18" x="281.13" y="599.86" width="4.85" height="19.07"/>
    <rect class="cls-18" x="273.83" y="621.75" width="4.85" height="19.07"/>
    <rect class="cls-18" x="281.13" y="621.75" width="4.85" height="19.07"/>
    <rect class="cls-18" x="177.84" y="299.5" width="55.8" height="4.34"/>
    <rect class="cls-18" x="177.84" y="309.07" width="55.8" height="4.34"/>
    <rect class="cls-18" x="177.84" y="318.64" width="55.8" height="4.34"/>
    <rect class="cls-18" x="177.84" y="328.21" width="55.8" height="4.34"/>
    <rect class="cls-18" x="177.84" y="606.13" width="55.8" height="4.34"/>
    <rect class="cls-18" x="177.84" y="615.7" width="55.8" height="4.34"/>
    <rect class="cls-18" x="177.84" y="506.59" width="55.8" height="4.34"/>
    <rect class="cls-18" x="177.84" y="516.16" width="55.8" height="4.34"/>
    <rect class="cls-18" x="177.84" y="441.47" width="55.8" height="4.34"/>
    <rect class="cls-18" x="177.84" y="451.04" width="55.8" height="4.34"/>
    <rect class="cls-18" x="177.84" y="346.58" width="55.8" height="4.34"/>
    <rect class="cls-18" x="177.84" y="356.15" width="55.8" height="4.34"/>
    <rect class="cls-5" x="203.17" y="287.13" width="5.13" height="386.94"/>
    <rect class="cls-2" x="-68.55" y="649.99" width="1247.87" height="354.7"/>
    <rect class="cls-18" x="-68.55" y="649.99" width="1247.87" height="48.46"/>
    <rect class="cls-5" x="-68.55" y="659.25" width="1247.87" height="39.2"/>
    <path class="cls-7" d="M1008.49,803.39c-39.38-5.07-76.81-5.88-116.25-12.56-45.41-7.69-91.04-14.1-136.81-19.22-90.27-10.1-181.1-15.2-271.93-15.3-126.16-.14-252.34,9.37-377.04,28.52-47.96,7.37-96.75,14.45-144.16,24.68-22.87,4.94-78.34,17.52-66.62,52.22,2.79,8.25,14,14.17,20.08,18.14,17.51,11.45,37.81,16.8,56.92,21.86,44.86,11.89,90.62,18.32,136.18,24.07,37.08,4.67,73.97,9.73,110.88,5.11,18.89-2.37,39.48,5.12,58.25,8.06,21.6,3.39,43.25,6.25,64.94,8.62,86.83,9.5,174.11,11.13,261.18,7.04,81.99-3.84,163.8-12.74,245.27-24.98,48.4-7.27,96.85-15.76,144.17-30.96,23.92-7.69,46.69-21.06,70.41-28.73,10.43-3.37,45.22-7.82,42.51-29.71-2.5-20.13-54.01-31.22-97.98-36.88Z"/>
    <path class="cls-10" d="M578.79,955.6c6.46-16.49,25.43-27.03,42.84-23.8,0-19.97,21.65-36.84,41.01-31.93,2.22-22.44,17.01-43.21,37.48-52.64,20.47-9.43,45.87-7.17,64.35,5.73.21-9.26,6.25-18.14,14.78-21.73,8.53-3.6,19.1-1.72,25.87,4.6-1.03-25.88,20.34-48.93,45.21-56.14,24.87-7.21,51.87-1.31,75.48,9.32,6.5-14.49,21.44-23.79,36.89-27.49,15.45-3.69,31.59-2.6,47.43-1.49-2.89,68.06-.11,136.36,8.31,203.95"/>
    <path class="cls-10" d="M418.33,960.29c3.22-9.46.61-20.65-6.46-27.71-7.07-7.06-18.25-9.67-27.71-6.44-1.15-15.86-10.96-30.83-25.05-38.21-14.21-7.45-31.64-6.75-45.53,1.04,1.47-5.91,3.62-8.07.33-14.09-2.79-5.1-7.36-9.31-12.66-11.68-8.01-3.57-17.75-2.94-25.23,1.64.33-28.25-21.26-54.22-48.2-62.72-26.94-8.5-57.4-1.05-80.08,15.79-.93-10.83-9.52-20.55-20.14-22.81-10.63-2.26-22.43,3.13-27.68,12.64-2.19-16.66-12.96-31.95-27.91-39.61-16.89-8.66-40.65-7.06-56.4,3.6-2.92-8.96-6.14-18.37-13.26-24.55-7.11-6.18-19.44-7.38-25.24.04-2.53,3.24-3.39,7.44-4.15,11.48-13.39,71.22-18.55,143.98-15.35,216.38"/>
    <path class="cls-7" d="M535.4,953.41c4.59-12.91,9.86-24.31,24.01-28.5,6.53-1.94,13.47-2.07,20.25-1.48,1.72.15,3.62.3,5.03-.72,1.28-.92,1.78-2.55,2.29-4.04,3.16-9.27,9.61-17.39,17.94-22.55,21.77-13.5,54.36-5.41,70.34,13.52,9.89-17.83,30.26-29.29,50.63-28.5,20.37.79,39.79,13.79,48.28,32.33,7.31-9.71,21.3-13.74,32.65-9.41,11.35,4.33,19.1,16.66,18.08,28.78,11.66-3.64,24.98-1.49,34.9,5.64,9.92,7.13,16.2,19.08,16.46,31.29"/>
    <path class="cls-7" d="M1004.07,821.64c-13.59-10.22-32.49-12.93-48.4-6.95-15.92,5.98-28.35,20.47-31.85,37.11-12.75-12.07-32.71-15.84-48.97-9.24-16.27,6.6-27.97,23.2-28.71,40.75-7.72-.5-15.55-1-23.11.64-7.56,1.64-14.93,5.73-18.78,12.44s-3.2,16.22,2.73,21.19c-7.96-.27-15.45,4.61-20.07,11.1-4.62,6.49-6.78,14.4-8.19,22.24-.72,4.01-.92,8.93,2.4,11.28,1.77,1.26,4.08,1.38,6.25,1.45,72.23,2.51,144.45,5.02,216.68,7.53"/>
    <path class="cls-7" d="M326.81,954.4c1.49-10.74-3.85-22.13-13.06-27.86-9.21-5.72-21.79-5.46-30.75.64,2.24-8.13-2.91-17.1-10.45-20.86-7.55-3.75-16.74-2.96-24.5.33s-14.33,8.83-20.51,14.57c1.33-17.38-10.12-34.96-26.55-40.76s-36.38.69-46.25,15.06c-1.83-12.02-16.24-18.64-28.21-16.52-11.96,2.12-21.81,10.32-31.05,18.22-1.61-13.25-4.57-26.57-11.17-38.17-6.6-11.6-17.23-21.38-30.16-24.64-12.94-3.26-28.07,1.05-35.61,12.06-.28-17.39-12.5-33.94-29.02-39.35-7.78,49.33-9.97,99.53-6.52,149.35"/>
    <rect class="cls-18" x="845.03" y="348.33" width="7.67" height="8.6"/>
    <rect class="cls-18" x="854.44" y="348.33" width="7.67" height="8.6"/>
    <rect class="cls-18" x="863.7" y="348.33" width="7.67" height="8.6"/>
    <rect class="cls-18" x="872.97" y="348.33" width="7.67" height="8.6"/>
    <rect class="cls-18" x="882.23" y="348.33" width="7.67" height="8.6"/>
    <rect class="cls-18" x="845.03" y="358.76" width="7.67" height="8.6"/>
    <rect class="cls-18" x="854.44" y="358.76" width="7.67" height="8.6"/>
    <rect class="cls-18" x="863.7" y="358.76" width="7.67" height="8.6"/>
    <rect class="cls-18" x="872.97" y="358.76" width="7.67" height="8.6"/>
    <rect class="cls-18" x="845.03" y="369.2" width="7.67" height="8.6"/>
    <rect class="cls-18" x="854.44" y="369.2" width="7.67" height="8.6"/>
    <rect class="cls-18" x="887.14" y="419.19" width="7.67" height="8.6"/>
    <rect class="cls-18" x="896.54" y="419.19" width="7.67" height="8.6"/>
    <rect class="cls-18" x="887.14" y="429.63" width="7.67" height="8.6"/>
    <rect class="cls-18" x="896.54" y="429.63" width="7.67" height="8.6"/>
    <rect class="cls-18" x="887.14" y="440.06" width="7.67" height="8.6"/>
    <rect class="cls-18" x="896.54" y="440.06" width="7.67" height="8.6"/>
    <rect class="cls-18" x="841.39" y="519.84" width="7.67" height="8.6"/>
    <rect class="cls-18" x="850.79" y="519.84" width="7.67" height="8.6"/>
    <rect class="cls-18" x="841.39" y="530.28" width="7.67" height="8.6"/>
    <rect class="cls-18" x="850.79" y="530.28" width="7.67" height="8.6"/>
    <rect class="cls-18" x="841.39" y="540.72" width="7.67" height="8.6"/>
    <rect class="cls-18" x="850.79" y="540.72" width="7.67" height="8.6"/>
    <rect class="cls-18" x="841.39" y="550.76" width="7.67" height="8.6"/>
    <rect class="cls-18" x="850.79" y="550.76" width="7.67" height="8.6"/>
    <rect class="cls-18" x="860.1" y="530.28" width="7.67" height="8.6"/>
    <rect class="cls-18" x="860.1" y="540.72" width="7.67" height="8.6"/>
    <rect class="cls-18" x="860.1" y="550.76" width="7.67" height="8.6"/>
    <rect class="cls-18" x="841.39" y="561.19" width="7.67" height="8.6"/>
    <rect class="cls-18" x="850.79" y="561.19" width="7.67" height="8.6"/>
    <rect class="cls-18" x="841.39" y="571.63" width="7.67" height="8.6"/>
    <rect class="cls-18" x="863.7" y="369.2" width="7.67" height="8.6"/>
    <rect class="cls-18" x="366.99" y="358.02" width="4.58" height="6.66"/>
    <rect class="cls-18" x="360.9" y="358.02" width="4.58" height="6.66"/>
    <rect class="cls-18" x="354.91" y="358.02" width="4.58" height="6.66"/>
    <rect class="cls-18" x="348.91" y="358.02" width="4.58" height="6.66"/>
    <rect class="cls-18" x="342.91" y="358.02" width="4.58" height="6.66"/>
    <rect class="cls-18" x="366.99" y="366.08" width="4.58" height="6.66"/>
    <rect class="cls-18" x="282.28" y="354.53" width="4.58" height="6.66"/>
    <rect class="cls-18" x="276.19" y="354.53" width="4.58" height="6.66"/>
    <rect class="cls-18" x="282.28" y="362.59" width="4.58" height="6.66"/>
    <rect class="cls-18" x="46.37" y="306.41" width="4.58" height="6.66" transform="translate(97.33 619.49) rotate(180)"/>
    <rect class="cls-18" x="52.44" y="306.41" width="4.58" height="6.66" transform="translate(109.46 619.49) rotate(180)"/>
    <rect class="cls-18" x="58.51" y="306.41" width="4.58" height="6.66" transform="translate(121.6 619.49) rotate(180)"/>
    <rect class="cls-18" x="64.58" y="306.41" width="4.58" height="6.66" transform="translate(133.73 619.49) rotate(180)"/>
    <rect class="cls-18" x="46.37" y="314.27" width="4.58" height="6.66" transform="translate(97.33 635.21) rotate(180)"/>
    <rect class="cls-18" x="52.44" y="314.27" width="4.58" height="6.66" transform="translate(109.46 635.21) rotate(180)"/>
    <rect class="cls-18" x="58.51" y="314.27" width="4.58" height="6.66" transform="translate(121.6 635.21) rotate(180)"/>
    <rect class="cls-18" x="46.37" y="322.13" width="4.58" height="6.66" transform="translate(97.33 650.93) rotate(180)"/>
    <rect class="cls-18" x="71.82" y="356.63" width="4.58" height="6.66" transform="translate(148.21 719.93) rotate(180)"/>
    <rect class="cls-18" x="77.88" y="356.63" width="4.58" height="6.66" transform="translate(160.35 719.93) rotate(180)"/>
    <rect class="cls-18" x="83.95" y="356.63" width="4.58" height="6.66" transform="translate(172.48 719.93) rotate(180)"/>
    <rect class="cls-18" x="71.82" y="364.49" width="4.58" height="6.66" transform="translate(148.21 735.65) rotate(180)"/>
    <rect class="cls-18" x="77.88" y="364.49" width="4.58" height="6.66" transform="translate(160.35 735.65) rotate(180)"/>
    <rect class="cls-18" x="83.95" y="364.49" width="4.58" height="6.66" transform="translate(172.48 735.65) rotate(180)"/>
    <rect class="cls-18" x="71.82" y="372.35" width="4.58" height="6.66" transform="translate(148.21 751.37) rotate(180)"/>
    <rect class="cls-18" x="77.88" y="372.35" width="4.58" height="6.66" transform="translate(160.35 751.37) rotate(180)"/>
    <rect class="cls-18" x="83.95" y="372.35" width="4.58" height="6.66" transform="translate(172.48 751.37) rotate(180)"/>
    <rect class="cls-18" x="90.02" y="372.35" width="4.58" height="6.66" transform="translate(184.62 751.37) rotate(180)"/>
    <rect class="cls-18" x="71.82" y="380.73" width="4.58" height="6.66" transform="translate(148.21 768.12) rotate(180)"/>
    <rect class="cls-18" x="77.88" y="380.73" width="4.58" height="6.66" transform="translate(160.35 768.12) rotate(180)"/>
    <rect class="cls-18" x="83.95" y="380.73" width="4.58" height="6.66" transform="translate(172.48 768.12) rotate(180)"/>
    <rect class="cls-18" x="90.02" y="380.73" width="4.58" height="6.66" transform="translate(184.62 768.12) rotate(180)"/>
    <rect class="cls-18" x="77.88" y="388.59" width="4.58" height="6.66" transform="translate(160.35 783.84) rotate(180)"/>
    <rect class="cls-18" x="83.95" y="388.59" width="4.58" height="6.66" transform="translate(172.48 783.84) rotate(180)"/>
    <rect class="cls-18" x="90.02" y="388.59" width="4.58" height="6.66" transform="translate(184.62 783.84) rotate(180)"/>
    <rect class="cls-18" x="77.88" y="396.45" width="4.58" height="6.66" transform="translate(160.35 799.56) rotate(180)"/>
    <rect class="cls-18" x="83.95" y="396.45" width="4.58" height="6.66" transform="translate(172.48 799.56) rotate(180)"/>
    <rect class="cls-18" x="90.02" y="396.45" width="4.58" height="6.66" transform="translate(184.62 799.56) rotate(180)"/>
    <rect class="cls-18" x="54.75" y="466.02" width="4.58" height="6.66" transform="translate(114.08 938.71) rotate(180)"/>
    <rect class="cls-18" x="60.82" y="466.02" width="4.58" height="6.66" transform="translate(126.21 938.71) rotate(180)"/>
    <rect class="cls-18" x="66.88" y="466.02" width="4.58" height="6.66" transform="translate(138.35 938.71) rotate(180)"/>
    <rect class="cls-18" x="72.95" y="466.02" width="4.58" height="6.66" transform="translate(150.48 938.71) rotate(180)"/>
    <rect class="cls-18" x="54.75" y="473.88" width="4.58" height="6.66" transform="translate(114.08 954.43) rotate(180)"/>
    <rect class="cls-18" x="60.82" y="473.88" width="4.58" height="6.66" transform="translate(126.21 954.43) rotate(180)"/>
    <rect class="cls-18" x="66.88" y="473.88" width="4.58" height="6.66" transform="translate(138.35 954.43) rotate(180)"/>
    <rect class="cls-18" x="54.75" y="481.74" width="4.58" height="6.66" transform="translate(114.08 970.15) rotate(180)"/>
    <rect class="cls-18" x="60.82" y="481.74" width="4.58" height="6.66" transform="translate(126.21 970.15) rotate(180)"/>
    <rect class="cls-18" x="72.46" y="569.27" width="4.58" height="6.66" transform="translate(149.49 1145.2) rotate(180)"/>
    <rect class="cls-18" x="78.52" y="569.27" width="4.58" height="6.66" transform="translate(161.63 1145.2) rotate(180)"/>
    <rect class="cls-18" x="72.46" y="577.13" width="4.58" height="6.66" transform="translate(149.49 1160.92) rotate(180)"/>
    <rect class="cls-18" x="78.52" y="577.13" width="4.58" height="6.66" transform="translate(161.63 1160.92) rotate(180)"/>
    <rect class="cls-18" x="72.46" y="584.99" width="4.58" height="6.66" transform="translate(149.49 1176.64) rotate(180)"/>
    <rect class="cls-18" x="78.52" y="584.99" width="4.58" height="6.66" transform="translate(161.63 1176.64) rotate(180)"/>
    <rect class="cls-18" x="360.9" y="366.08" width="4.58" height="6.66"/>
    <rect class="cls-18" x="354.91" y="366.08" width="4.58" height="6.66"/>
    <rect class="cls-18" x="348.91" y="366.08" width="4.58" height="6.66"/>
    <rect class="cls-18" x="342.91" y="366.08" width="4.58" height="6.66"/>
    <rect class="cls-18" x="366.99" y="374.14" width="4.58" height="6.66"/>
    <rect class="cls-18" x="360.9" y="374.14" width="4.58" height="6.66"/>
    <rect class="cls-18" x="354.91" y="374.14" width="4.58" height="6.66"/>
    <rect class="cls-18" x="643.08" y="417.35" width="6.4" height="9.31"/>
    <rect class="cls-18" x="651.66" y="417.35" width="6.4" height="9.31"/>
    <rect class="cls-18" x="660.23" y="417.35" width="6.4" height="9.31"/>
    <rect class="cls-18" x="668.81" y="417.35" width="6.4" height="9.31"/>
    <rect class="cls-18" x="677.39" y="417.35" width="6.4" height="9.31"/>
    <rect class="cls-18" x="634.63" y="428.51" width="6.4" height="9.31"/>
    <rect class="cls-18" x="643.08" y="428.51" width="6.4" height="9.31"/>
    <rect class="cls-18" x="651.66" y="428.51" width="6.4" height="9.31"/>
    <rect class="cls-18" x="682.51" y="492.73" width="6.4" height="9.31"/>
    <rect class="cls-18" x="690.97" y="492.73" width="6.4" height="9.31"/>
    <rect class="cls-18" x="699.55" y="492.73" width="6.4" height="9.31"/>
    <rect class="cls-18" x="682.51" y="503.89" width="6.4" height="9.31"/>
    <rect class="cls-18" x="690.97" y="503.89" width="6.4" height="9.31"/>
    <rect class="cls-18" x="699.55" y="503.89" width="6.4" height="9.31"/>
    <rect class="cls-18" x="636.48" y="583.7" width="6.4" height="9.31"/>
    <rect class="cls-18" x="644.94" y="583.7" width="6.4" height="9.31"/>
    <rect class="cls-18" x="653.51" y="583.7" width="6.4" height="9.31"/>
    <rect class="cls-18" x="636.48" y="594.86" width="6.4" height="9.31"/>
    <rect class="cls-18" x="644.94" y="594.86" width="6.4" height="9.31"/>
    <rect class="cls-18" x="653.51" y="594.86" width="6.4" height="9.31"/>
    <rect class="cls-18" x="636.48" y="606.35" width="6.4" height="9.31"/>
    <rect class="cls-18" x="644.94" y="606.35" width="6.4" height="9.31"/>
    <rect class="cls-18" x="636.48" y="617.52" width="6.4" height="9.31"/>
    <rect class="cls-18" x="784.23" y="546.65" width="6.4" height="9.31"/>
    <rect class="cls-18" x="792.69" y="546.65" width="6.4" height="9.31"/>
    <rect class="cls-18" x="801.26" y="546.65" width="6.4" height="9.31"/>
    <rect class="cls-18" x="784.23" y="557.82" width="6.4" height="9.31"/>
    <rect class="cls-18" x="792.69" y="557.82" width="6.4" height="9.31"/>
    <rect class="cls-18" x="801.26" y="557.82" width="6.4" height="9.31"/>
    <rect class="cls-18" x="761.59" y="611.92" width="6.4" height="9.31"/>
    <rect class="cls-18" x="770.04" y="611.92" width="6.4" height="9.31"/>
    <rect class="cls-18" x="761.59" y="623.08" width="6.4" height="9.31"/>
    <rect class="cls-18" x="660.23" y="428.51" width="6.4" height="9.31"/>
    <rect class="cls-18" x="668.81" y="428.51" width="6.4" height="9.31"/>
    <rect class="cls-18" x="634.63" y="439.68" width="6.4" height="9.31"/>
    <rect class="cls-18" x="643.08" y="439.68" width="6.4" height="9.31"/>
    <rect class="cls-18" x="651.66" y="439.68" width="6.4" height="9.31"/>
    <rect class="cls-18" x="937.54" y="395.49" width="32.27" height="6.93"/>
    <rect class="cls-18" x="937.54" y="407.21" width="32.27" height="6.93"/>
    <rect class="cls-18" x="937.54" y="418.47" width="32.27" height="6.93"/>
    <rect class="cls-18" x="937.54" y="430.88" width="32.27" height="6.93"/>
    <rect class="cls-18" x="937.54" y="442.15" width="32.27" height="6.93"/>
    <rect class="cls-18" x="404.15" y="383.5" width="5.26" height="8.87"/>
    <rect class="cls-18" x="404.15" y="372.65" width="5.26" height="8.87"/>
    <rect class="cls-18" x="404.15" y="394.96" width="5.26" height="8.87"/>
    <rect class="cls-18" x="412.1" y="383.5" width="5.26" height="8.87"/>
    <rect class="cls-18" x="412.1" y="394.96" width="5.26" height="8.87"/>
    <rect class="cls-18" x="404.15" y="454.52" width="5.26" height="8.87"/>
    <rect class="cls-18" x="404.15" y="465.99" width="5.26" height="8.87"/>
    <rect class="cls-18" x="412.1" y="454.52" width="5.26" height="8.87"/>
    <rect class="cls-18" x="412.1" y="465.99" width="5.26" height="8.87"/>
    <rect class="cls-18" x="449.81" y="326.65" width="5.26" height="8.87"/>
    <rect class="cls-18" x="449.81" y="338.12" width="5.26" height="8.87"/>
    <rect class="cls-18" x="457.76" y="326.65" width="5.26" height="8.87"/>
    <rect class="cls-18" x="457.76" y="338.12" width="5.26" height="8.87"/>
    <rect class="cls-18" x="454.37" y="500.89" width="5.26" height="8.87"/>
    <rect class="cls-18" x="446.2" y="500.89" width="5.26" height="8.87"/>
    <rect class="cls-18" x="454.37" y="512.36" width="5.26" height="8.87"/>
    <rect class="cls-18" x="462.32" y="500.89" width="5.26" height="8.87"/>
    <rect class="cls-18" x="462.32" y="512.36" width="5.26" height="8.87"/>
    <rect class="cls-18" x="454.37" y="523.99" width="5.26" height="8.87"/>
    <rect class="cls-18" x="454.37" y="535.46" width="5.26" height="8.87"/>
    <rect class="cls-18" x="462.32" y="523.99" width="5.26" height="8.87"/>
    <rect class="cls-18" x="438.45" y="512.36" width="5.26" height="8.87"/>
    <rect class="cls-18" x="446.4" y="512.36" width="5.26" height="8.87"/>
    <rect class="cls-18" x="438.45" y="523.99" width="5.26" height="8.87"/>
    <rect class="cls-18" x="446.4" y="523.99" width="5.26" height="8.87"/>
    <rect class="cls-18" x="437.45" y="606" width="5.26" height="8.87"/>
    <rect class="cls-18" x="437.45" y="617.47" width="5.26" height="8.87"/>
    <rect class="cls-18" x="445.4" y="606" width="5.26" height="8.87"/>
    <rect class="cls-18" x="445.4" y="617.47" width="5.26" height="8.87"/>
    <rect class="cls-5" x="633.21" y="397.95" width="71.3" height="9.6"/>
    <rect class="cls-24" x="844.27" y="323.79" width="56.21" height="15.86"/>
    <rect class="cls-18" x="709.12" y="352.14" width="5.52" height="13.68"/>
    <rect class="cls-18" x="717.82" y="352.14" width="5.52" height="13.68"/>
    <rect class="cls-18" x="726.51" y="352.14" width="5.52" height="13.68"/>
    <rect class="cls-18" x="568.01" y="383.26" width="3.48" height="13.68"/>
    <rect class="cls-18" x="573.5" y="383.26" width="3.48" height="13.68"/>
    <rect class="cls-18" x="578.98" y="383.26" width="3.48" height="13.68"/>
    <rect class="cls-18" x="584.21" y="383.26" width="3.48" height="13.68"/>
    <rect class="cls-18" x="568.01" y="398.71" width="3.48" height="13.68"/>
    <rect class="cls-18" x="573.5" y="398.71" width="3.48" height="13.68"/>
    <rect class="cls-18" x="578.98" y="398.71" width="3.48" height="13.68"/>
    <rect class="cls-18" x="568.01" y="414.3" width="3.48" height="13.68"/>
    <rect class="cls-18" x="573.5" y="414.3" width="3.48" height="13.68"/>
    <rect class="cls-18" x="578.98" y="414.3" width="3.48" height="13.68"/>
    <rect class="cls-18" x="499.57" y="553.22" width="3.48" height="13.68"/>
    <rect class="cls-18" x="505.05" y="553.22" width="3.48" height="13.68"/>
    <rect class="cls-18" x="510.53" y="553.22" width="3.48" height="13.68"/>
    <rect class="cls-18" x="499.57" y="568.81" width="3.48" height="13.68"/>
    <rect class="cls-18" x="505.05" y="568.81" width="3.48" height="13.68"/>
    <rect class="cls-18" x="510.53" y="568.81" width="3.48" height="13.68"/>
    <rect class="cls-18" x="377.08" y="490.52" width="3.48" height="13.68"/>
    <rect class="cls-18" x="382.56" y="490.52" width="3.48" height="13.68"/>
    <rect class="cls-18" x="388.04" y="490.52" width="3.48" height="13.68"/>
    <rect class="cls-18" x="377.08" y="506.11" width="3.48" height="13.68"/>
    <rect class="cls-18" x="382.56" y="506.11" width="3.48" height="13.68"/>
    <rect class="cls-18" x="388.04" y="506.11" width="3.48" height="13.68"/>
    <rect class="cls-18" x="406.32" y="562.79" width="3.48" height="13.68"/>
    <rect class="cls-18" x="411.8" y="562.79" width="3.48" height="13.68"/>
    <rect class="cls-18" x="411.8" y="578.39" width="3.48" height="13.68"/>
    <rect class="cls-18" x="417.28" y="578.39" width="3.48" height="13.68"/>
    <rect class="cls-18" x="375.36" y="599.67" width="3.48" height="13.68"/>
    <rect class="cls-18" x="380.84" y="599.67" width="3.48" height="13.68"/>
    <rect class="cls-18" x="375.36" y="615.26" width="3.48" height="13.68"/>
    <rect class="cls-18" x="568.01" y="576.71" width="3.48" height="13.68"/>
    <rect class="cls-18" x="573.5" y="576.71" width="3.48" height="13.68"/>
    <rect class="cls-18" x="578.98" y="576.71" width="3.48" height="13.68"/>
    <rect class="cls-18" x="584.21" y="576.71" width="3.48" height="13.68"/>
    <rect class="cls-18" x="568.01" y="592.16" width="3.48" height="13.68"/>
    <rect class="cls-18" x="573.5" y="592.16" width="3.48" height="13.68"/>
    <rect class="cls-18" x="578.98" y="592.16" width="3.48" height="13.68"/>
    <rect class="cls-18" x="568.01" y="607.76" width="3.48" height="13.68"/>
    <rect class="cls-18" x="573.5" y="607.76" width="3.48" height="13.68"/>
    <rect class="cls-18" x="568.01" y="429.89" width="3.48" height="13.68"/>
    <rect class="cls-18" x="573.5" y="429.89" width="3.48" height="13.68"/>
    <rect class="cls-18" x="578.98" y="429.89" width="3.48" height="13.68"/>
    <rect class="cls-18" x="584.21" y="429.89" width="3.48" height="13.68"/>
    <rect class="cls-18" x="573.5" y="445.48" width="3.48" height="13.68"/>
    <rect class="cls-18" x="578.98" y="445.48" width="3.48" height="13.68"/>
    <rect class="cls-18" x="584.21" y="445.48" width="3.48" height="13.68"/>
    <rect class="cls-18" x="573.5" y="461.36" width="3.48" height="13.68"/>
    <rect class="cls-18" x="578.98" y="461.36" width="3.48" height="13.68"/>
    <rect class="cls-18" x="709.12" y="369.13" width="5.52" height="13.68"/>
    <rect class="cls-18" x="717.82" y="369.13" width="5.52" height="13.68"/>
    <rect class="cls-18" x="726.51" y="369.13" width="5.52" height="13.68"/>
    <rect class="cls-18" x="518.42" y="452.18" width="5.52" height="13.68"/>
    <rect class="cls-18" x="527.11" y="452.18" width="5.52" height="13.68"/>
    <rect class="cls-18" x="535.8" y="452.18" width="5.52" height="13.68"/>
    <rect class="cls-18" x="518.42" y="469.18" width="5.52" height="13.68"/>
    <rect class="cls-18" x="527.11" y="469.18" width="5.52" height="13.68"/>
    <rect class="cls-18" x="535.8" y="469.18" width="5.52" height="13.68"/>
    <rect class="cls-18" x="541.33" y="549.56" width="5.52" height="13.68"/>
    <rect class="cls-18" x="550.03" y="549.56" width="5.52" height="13.68"/>
    <rect class="cls-18" x="532.64" y="566.56" width="5.52" height="13.68"/>
    <rect class="cls-18" x="541.33" y="566.56" width="5.52" height="13.68"/>
    <rect class="cls-18" x="743.28" y="404.87" width="5.52" height="13.68"/>
    <rect class="cls-18" x="751.97" y="404.87" width="5.52" height="13.68"/>
    <rect class="cls-18" x="743.28" y="421.86" width="5.52" height="13.68"/>
    <rect class="cls-18" x="751.97" y="421.86" width="5.52" height="13.68"/>
    <rect class="cls-18" x="760.66" y="421.86" width="5.52" height="13.68"/>
    <rect class="cls-18" x="743.28" y="439.33" width="5.52" height="13.68"/>
    <rect class="cls-18" x="751.97" y="439.33" width="5.52" height="13.68"/>
    <rect class="cls-18" x="760.66" y="439.33" width="5.52" height="13.68"/>
    <rect class="cls-18" x="751.97" y="456.32" width="5.52" height="13.68"/>
    <rect class="cls-18" x="760.66" y="456.32" width="5.52" height="13.68"/>
    <rect class="cls-18" x="721.16" y="588.21" width="5.52" height="13.68"/>
    <rect class="cls-18" x="729.85" y="588.21" width="5.52" height="13.68"/>
    <rect class="cls-18" x="721.16" y="605.68" width="5.52" height="13.68"/>
    <rect class="cls-18" x="729.85" y="605.68" width="5.52" height="13.68"/>
    <rect class="cls-18" x="721.16" y="622.67" width="5.52" height="13.68"/>
    <rect class="cls-18" x="729.85" y="622.67" width="5.52" height="13.68"/>
    <rect class="cls-18" x="888.88" y="610.4" width="5.83" height="15.59"/>
    <rect class="cls-18" x="896.89" y="610.4" width="5.83" height="15.59"/>
    <rect class="cls-18" x="904.9" y="610.4" width="5.83" height="15.59"/>
    <rect class="cls-18" x="888.88" y="592.01" width="5.83" height="15.59"/>
    <rect class="cls-18" x="896.89" y="592.01" width="5.83" height="15.59"/>
    <rect class="cls-18" x="904.9" y="592.01" width="5.83" height="15.59"/>
    <rect class="cls-18" x="927.45" y="480.69" width="5.83" height="15.59"/>
    <rect class="cls-18" x="935.46" y="480.69" width="5.83" height="15.59"/>
    <rect class="cls-18" x="943.47" y="480.69" width="5.83" height="15.59"/>
    <rect class="cls-18" x="935.46" y="498.66" width="5.83" height="15.59"/>
    <rect class="cls-18" x="943.47" y="498.66" width="5.83" height="15.59"/>
    <rect class="cls-18" x="935.46" y="536.97" width="5.83" height="15.59"/>
    <rect class="cls-18" x="943.47" y="536.97" width="5.83" height="15.59"/>
    <rect class="cls-5" x="889.94" y="459.88" width="57.03" height="12.47"/>
    <rect class="cls-5" x="373.9" y="473.62" width="45.66" height="12.25"/>
    <rect class="cls-24" x="469.82" y="537.72" width="48.87" height="13.47"/>
    <rect class="cls-24" x="567.2" y="369.61" width="32.43" height="8.21"/>
    <rect class="cls-5" x="762.79" y="515.2" width="42.75" height="28.07"/>
    <rect class="cls-5" x="769.86" y="491.25" width="28.61" height="23.95"/>
    <rect class="cls-18" x="96.47" y="521.96" width="37.65" height="4.61"/>
    <rect class="cls-18" x="96.47" y="529.75" width="37.65" height="4.61"/>
    <rect class="cls-18" x="96.47" y="537.25" width="37.65" height="4.61"/>
    <rect class="cls-18" x="96.47" y="545.51" width="37.65" height="4.61"/>
    <rect class="cls-18" x="96.47" y="553" width="37.65" height="4.61"/>
    <rect class="cls-18" x="96.47" y="561.17" width="37.65" height="4.61"/>
    <rect class="cls-18" x="96.47" y="568.96" width="37.65" height="4.61"/>
    <rect class="cls-18" x="96.47" y="576.46" width="37.65" height="4.61"/>
    <rect class="cls-18" x="96.47" y="584.72" width="37.65" height="4.61"/>
    <rect class="cls-18" x="96.47" y="592.21" width="37.65" height="4.61"/>
    <rect class="cls-18" x="-.24" y="424.36" width="6.25" height="22.4"/>
    <rect class="cls-18" x="8.7" y="424.36" width="6.25" height="22.4"/>
    <rect class="cls-18" x="17.63" y="424.36" width="6.25" height="22.4"/>
    <rect class="cls-18" x="26.56" y="424.36" width="6.25" height="22.4"/>
    <rect class="cls-18" x="35.5" y="424.36" width="6.25" height="22.4"/>
    <rect class="cls-18" x="-.24" y="474.38" width="6.25" height="22.4"/>
    <rect class="cls-18" x="8.7" y="474.38" width="6.25" height="22.4"/>
    <rect class="cls-18" x="17.63" y="474.38" width="6.25" height="22.4"/>
    <rect class="cls-18" x="26.56" y="474.38" width="6.25" height="22.4"/>
    <rect class="cls-18" x="35.5" y="474.38" width="6.25" height="22.4"/>
    <rect class="cls-18" x="-.24" y="524.4" width="6.25" height="22.4"/>
    <rect class="cls-18" x="8.7" y="524.4" width="6.25" height="22.4"/>
    <rect class="cls-18" x="17.63" y="524.4" width="6.25" height="22.4"/>
    <rect class="cls-18" x="26.56" y="524.4" width="6.25" height="22.4"/>
    <rect class="cls-18" x="35.5" y="524.4" width="6.25" height="22.4"/>
    <rect class="cls-18" x="-.24" y="582.51" width="6.25" height="22.4"/>
    <rect class="cls-18" x="8.7" y="582.51" width="6.25" height="22.4"/>
    <rect class="cls-18" x="17.63" y="582.51" width="6.25" height="22.4"/>
    <rect class="cls-18" x="26.56" y="582.51" width="6.25" height="22.4"/>
    <rect class="cls-18" x="35.5" y="582.51" width="6.25" height="22.4"/>
    <rect class="cls-18" x="713.97" y="253.95" width="3.48" height="13.68"/>
    <rect class="cls-18" x="719.45" y="253.95" width="3.48" height="13.68"/>
    <rect class="cls-18" x="724.93" y="253.95" width="3.48" height="13.68"/>
    <rect class="cls-18" x="719.45" y="270.84" width="3.48" height="13.68"/>
    <rect class="cls-18" x="724.93" y="270.84" width="3.48" height="13.68"/>
    <rect class="cls-18" x="693.14" y="307.31" width="3.48" height="13.68"/>
    <rect class="cls-18" x="698.62" y="307.31" width="3.48" height="13.68"/>
    <rect class="cls-18" x="704.1" y="307.31" width="3.48" height="13.68"/>
    <rect class="cls-18" x="317.23" y="228.72" width="3.48" height="13.68"/>
    <rect class="cls-18" x="322.71" y="228.72" width="3.48" height="13.68"/>
    <rect class="cls-18" x="328.19" y="228.72" width="3.48" height="13.68"/>
    <rect class="cls-18" x="333.54" y="228.72" width="3.48" height="13.68"/>
    <rect class="cls-18" x="339.02" y="228.72" width="3.48" height="13.68"/>
    <rect class="cls-18" x="344.5" y="228.72" width="3.48" height="13.68"/>
    <rect class="cls-18" x="317.23" y="251.12" width="3.48" height="13.68"/>
    <rect class="cls-18" x="322.71" y="251.12" width="3.48" height="13.68"/>
    <rect class="cls-18" x="328.19" y="251.12" width="3.48" height="13.68"/>
    <rect class="cls-18" x="333.54" y="251.12" width="3.48" height="13.68"/>
    <rect class="cls-18" x="339.02" y="251.12" width="3.48" height="13.68"/>
    <rect class="cls-18" x="344.5" y="251.12" width="3.48" height="13.68"/>
    <rect class="cls-18" x="317.23" y="273.51" width="3.48" height="13.68"/>
    <rect class="cls-18" x="322.71" y="273.51" width="3.48" height="13.68"/>
    <rect class="cls-18" x="328.19" y="273.51" width="3.48" height="13.68"/>
    <rect class="cls-18" x="333.54" y="273.51" width="3.48" height="13.68"/>
    <rect class="cls-18" x="339.02" y="273.51" width="3.48" height="13.68"/>
    <rect class="cls-18" x="344.5" y="273.51" width="3.48" height="13.68"/>
    <rect class="cls-18" x="317.23" y="295.91" width="3.48" height="13.68"/>
    <rect class="cls-18" x="322.71" y="295.91" width="3.48" height="13.68"/>
    <rect class="cls-18" x="328.19" y="295.91" width="3.48" height="13.68"/>
    <rect class="cls-18" x="333.54" y="295.91" width="3.48" height="13.68"/>
    <rect class="cls-18" x="339.02" y="295.91" width="3.48" height="13.68"/>
    <rect class="cls-18" x="344.5" y="295.91" width="3.48" height="13.68"/>
    <rect class="cls-18" x="317.23" y="318.3" width="3.48" height="13.68"/>
    <rect class="cls-18" x="322.71" y="318.3" width="3.48" height="13.68"/>
    <rect class="cls-18" x="328.19" y="318.3" width="3.48" height="13.68"/>
    <rect class="cls-18" x="333.54" y="318.3" width="3.48" height="13.68"/>
    <rect class="cls-18" x="339.02" y="318.3" width="3.48" height="13.68"/>
    <rect class="cls-18" x="344.5" y="318.3" width="3.48" height="13.68"/>
    <g>
      <rect class="cls-18" x="804.34" y="271.03" width="22.1" height="2.6"/>
      <rect class="cls-18" x="830.66" y="271.03" width="22.1" height="2.6"/>
      <rect class="cls-18" x="804.34" y="276.76" width="22.1" height="2.6"/>
      <rect class="cls-18" x="830.66" y="276.76" width="22.1" height="2.6"/>
    </g>
    <g>
      <rect class="cls-18" x="804.34" y="283.41" width="22.1" height="2.6"/>
      <rect class="cls-18" x="830.66" y="283.41" width="22.1" height="2.6"/>
      <rect class="cls-18" x="804.34" y="289.15" width="22.1" height="2.6"/>
      <rect class="cls-18" x="830.66" y="289.15" width="22.1" height="2.6"/>
    </g>
    <g>
      <rect class="cls-18" x="804.34" y="295.8" width="22.1" height="2.6"/>
      <rect class="cls-18" x="830.66" y="295.8" width="22.1" height="2.6"/>
      <rect class="cls-18" x="804.34" y="301.53" width="22.1" height="2.6"/>
      <rect class="cls-18" x="830.66" y="301.53" width="22.1" height="2.6"/>
    </g>
    <g>
      <rect class="cls-18" x="807.09" y="308.19" width="21.24" height="2.6"/>
      <rect class="cls-18" x="832.39" y="308.19" width="21.24" height="2.6"/>
      <rect class="cls-18" x="807.09" y="313.92" width="21.24" height="2.6"/>
      <rect class="cls-18" x="832.39" y="313.92" width="21.24" height="2.6"/>
    </g>
    <rect class="cls-11" x="948.62" y="299.7" width="48.5" height="87.89"/>
    <g>
      <rect class="cls-20" x="59.21" y="556.57" width="7.6" height="141.89"/>
      <rect class="cls-20" x="126.31" y="556.57" width="7.6" height="141.89"/>
      <rect class="cls-20" x="193.41" y="556.57" width="7.6" height="141.89"/>
      <rect class="cls-20" x="260.52" y="556.57" width="7.6" height="141.89"/>
      <rect class="cls-20" x="327.62" y="556.57" width="7.6" height="141.89"/>
      <rect class="cls-20" x="394.72" y="556.57" width="7.6" height="141.89"/>
      <rect class="cls-20" x="461.83" y="556.57" width="7.6" height="141.89"/>
      <rect class="cls-20" x="528.93" y="556.57" width="7.6" height="141.89"/>
      <rect class="cls-20" x="596.03" y="556.57" width="7.6" height="141.89"/>
      <rect class="cls-20" x="663.14" y="556.57" width="7.6" height="141.89"/>
      <rect class="cls-20" x="730.24" y="556.57" width="7.6" height="141.89"/>
      <rect class="cls-20" x="797.35" y="556.57" width="7.6" height="141.89"/>
      <rect class="cls-20" x="864.45" y="556.57" width="7.6" height="141.89"/>
      <rect class="cls-20" x="931.55" y="556.57" width="7.6" height="141.89"/>
      <rect class="cls-20" x="485.65" y="51.52" width="7.6" height="1016.96" transform="translate(1049.44 70.55) rotate(90)"/>
      <rect class="cls-20" x="485.65" y="186.17" width="7.6" height="1016.96" transform="translate(1184.1 205.21) rotate(90)"/>
      <rect class="cls-7" x="485.65" y="193.77" width="7.6" height="1016.96" transform="translate(1191.7 212.8) rotate(90)"/>
    </g>
    <g>
      <path class="cls-15" d="M1019.14,173.67c-2.7,2.04-5.56,3.89-8.49,5.49-11.07,6.1-24.34,9.67-39.42,10.6-12.51.81-23.67-.54-33.17-4.01-3.98-1.44-7.22-3.48-10.36-5.45-1.27-.8-2.59-1.62-3.92-2.38-1.43-.82-2.87-1.57-4.4-2.37-2.21-1.15-4.46-2.33-6.69-3.71-5.83,4.79-13.56,7.35-21.8,7.19-7.63-.17-14.77-2.74-20.23-7.17-11.96,15.25-31.31,24.62-50.67,24.62-1.96,0-3.92-.1-5.88-.29-21.14-2.1-40.85-15.82-50.49-34.75-9.45,6.35-20.58,10.59-32.04,10.92-5.3.15-10.12-.25-15.07-2.32-2.5-1.04-4.88-2.36-7.08-3.92-.53-.38-5.49-4.84-5.51-4.83-8.35,4.51-18.6,5.36-27.58,2.3-1.8,7.37-5.89,14.98-11.74,19.93-6.19,5.24-12.04,10.66-19.25,14.62-23.46,12.9-54.2,12.88-77.75.26-9.58,14.2-25.54,24.29-43.23,27.68.22,8.91.45,16.84.71,24.15.07,2.01.14,4.04.22,6.09.01.28.02.56.03.83.03.75.06,1.51.09,2.27.04,1.08.08,2.15.12,3.19.09,2.08.18,4.17.27,6.27.03.73.06,1.45.09,2.16.04.97.08,1.92.13,2.87.03.46.05.93.07,1.4.37,8.19.78,16.44,1.23,24.8.83,15.11,1.81,30.61,2.95,46.66.6,8.39,1.24,16.93,1.93,25.64v.03c.19,2.3.37,4.62.56,6.94,1.35,16.55,2.85,33.46,4.51,51.01,1.57,16.46,3.3,33.47,5.19,51.24.26,2.44.53,4.9.8,7.38.48,4.5.98,9.04,1.49,13.64.21,1.97.43,3.94.66,5.93.95,8.56,1.95,17.31,2.99,26.26.35,3.02.7,6.06,1.06,9.12.31,2.6.61,5.21.92,7.84.26,2.14.51,4.28.77,6.44.12,1.02.24,2.04.36,3.07.12,1.04.24,2.07.36,3.11.2,1.69.4,3.39.59,5.08.08.65.15,1.3.22,1.94.32,2.78.64,5.56.95,8.3.12,1.02.24,2.02.35,3.03,1.55,13.7,3.12,27.53,4.93,41.39.34,2.65.7,5.3,1.06,7.95.25,1.85.51,3.69.78,5.54.41,2.8.82,5.61,1.25,8.41,0,.02,0,.04.01.06,1.16,7.53,2.43,15.05,3.83,22.54,0,.02,0,.03.01.05,1.7,8.99,3.6,17.95,5.76,26.83,2.54,10.39,5.44,20.67,8.82,30.8,7.44,22.29,16.88,41.79,28.2,58.26.83,1.23,1.68,2.44,2.54,3.63,1.33,1.82,2.67,3.61,4.04,5.36.87,1.12,1.76,2.22,2.65,3.3.58.69,1.16,1.39,1.74,2.07,1.16,1.36,2.34,2.7,3.54,4.01,1.19,1.31,2.4,2.59,3.63,3.84.15.15.31.31.47.49l.25.25c.09.09.17.18.25.27.18.17.34.35.51.54.26.28.52.57.77.87,2.19,2.54,4.25,5.84,3.8,9.95-.11.99-.32,1.93-.64,2.8-.18.52-.39,1.02-.65,1.5-.17.32-.35.62-.55.92-.4.59-.85,1.14-1.37,1.64-.25.25-.52.48-.81.71-5.11,4.02-13.11,3-19.55,2.18-.46-.06-.92-.12-1.36-.17-1.3-.16-2.48-.28-3.28-.28h-.27c-2.28,0-4.56.16-6.82.46-1.29.17-2.57.38-3.85.63-.64.12-1.28.26-1.92.4-1.93.43-3.85.95-5.75,1.52-.91.27-1.82.55-2.73.84-3.09,1.02-6.13,2.16-9.1,3.33-1.86.73-3.72,1.49-5.61,2.25-1.57.63-3.15,1.26-4.73,1.89-.79.33-1.59.64-2.4.95-2.18.85-4.37,1.67-6.59,2.44-4.26,1.49-8.58,2.78-12.99,3.69-2.09.43-4.21.78-6.34,1.01-2.14.24-4.29.37-6.47.37-.36,0-.71,0-1.07,0-1.38-.03-2.72-.11-4.04-.23-.66-.06-1.33-.14-1.99-.22-.67-.08-1.33-.18-2.02-.28-6.47-.97-12.83-2.84-18.98-4.64-4.14-1.22-8.42-2.48-12.62-3.41-.03,0-.05,0-.08-.02l-.08-.02s-.05-.01-.07-.02c-.33-.07-.66-.14-.99-.21-.22-.04-.43-.08-.64-.13-.14-.02-.28-.05-.42-.08l-.13-.03c-11.45-2.26-23.42-2.6-35.01-2.93-5.6-.16-11.39-.33-17.09-.71-6.9-.48-12.49-1.14-17.6-2.1-.95-.17-1.91-.36-2.86-.58-2.53-.54-4.84-1.14-7.02-1.8-.21-.06-.6-.17-1.08-.29-8.43-2.24-12.63-3.91-13.69-7.34-1.56-4.82,3.07-9.13,5.84-11.71.33-.31.62-.58.86-.82,20.91-20.53,31.31-44.75,34.78-80.98,5.84-61.12,7.95-123.31,6.27-184.84-.99-36.64-.32-72.86.32-107.9.34-18.07.68-36.77.8-55.48.24-35.1.57-70.69.97-105.8l.08-5.95c.24-20.46.47-39,.73-56.69.01-.72.02-1.44.03-2.16-15.5,8.35-34.2,11.85-51.87,9.13-24.16-3.72-45.98-18.97-56.57-39.26-12.97,2.95-27.23.38-37.97-7-1.6-1.1-3.12-2.3-4.53-3.59-6.7-.36-13.06-2.06-18.69-5.05-5.29-2.82-9.92-6.9-13.38-11.81-1.77-2.51-3.2-5.19-4.23-7.95-.35-.91-.57-1.87-.78-2.8-.15-.67-.39-1.74-.62-2.24-1.31.07-4.46,1.97-5.85,2.8-1.3.79-2.53,1.53-3.66,2.01-6.36,2.69-12.68,4.3-18.8,4.79-12.89,1.01-25.42-3.21-33.53-11.31-6.13-6.12-9.52-14.35-9.67-22.42-.47-.46-.92-.94-1.37-1.43-11.09,11.86-26.89,18.93-43.17,19.14-2,.03-4.01-.06-6.01-.25-1.42-.13-2.84-.31-4.25-.55-1.06-.17-2.11-.38-3.17-.62-.35-.07-.7-.15-1.05-.24-2.1-.5-4.19-1.12-6.23-1.85-.34-.12-.68-.25-1.02-.37-1.69-.63-3.36-1.34-4.99-2.13-.66-.32-1.31-.64-1.95-.98-.06-.02-.11-.05-.16-.08-.59-.31-1.17-.63-1.75-.96-.32-.18-.63-.36-.95-.55-.63-.37-1.24-.75-1.85-1.14-.06-.03-.11-.06-.17-.1-5.07-3.26-9.58-7.24-13.39-11.82-.32-.38-.63-.77-.95-1.16-1.84-2.25-3.56-4.37-5.61-5.1-2.16-.76-4.99-.07-7.99.66-.83.2-1.67.4-2.49.58-14.04,2.95-29.18-2.17-38.56-13.05-7-8.11-10.32-18.77-9.13-29.24.78-6.9,3.49-13.17,7.83-18.23-7.13-2.82-13.3-7.49-17.57-13.51-7.89,2.53-16.72,2.05-24.24-1.45-10.89-5.05-17.83-15.51-19.25-28.59-2.42.99-4.79,1.84-7.1,2.56-1.21.38-2.53.16-3.56-.59-1.02-.76-1.63-1.95-1.63-3.22v-20.64c0-1.18.53-2.3,1.43-3.06.91-.76,2.1-1.09,3.27-.88l5.15.91L102.08,1.49c2.47-6.1,6.01-11.91,10.52-17.2.92-1.08,2.33-1.6,3.74-1.35L215.04.34c1.39.25,2.55,1.21,3.04,2.53.5,1.3.94,2.62,1.33,3.95,1.92-1.47,4.01-2.76,6.22-3.83.76-.37,1.61-.49,2.44-.35l14.44,2.55,8.57,1.51,14.18,2.5s.04,0,.06,0l105.46,18.6s.04,0,.06,0l79.13,13.95,49.18,8.67.22.03,120.17,19.38c.13.02.25.05.37.08,0,0,21.72,5.62,21.73,5.63l42.44,7.48,31.45,5.54,11.97,2.11c1.22.22,2.27.99,2.84,2.08.58,1.1.62,2.4.1,3.53-1.54,3.36-3.59,6.51-6.1,9.35-1.73,1.95-3.64,3.72-5.7,5.3-.12.95-.29,1.9-.51,2.83l299.3,52.75c1.57.28,2.82,1.46,3.19,3.01.38,1.55-.2,3.17-1.48,4.13Z"/>
      <g>
        <path class="cls-1" d="M717.54,125.39c-.09,3.05-.46,6.09-1.15,9.07-2.7,11.72-10.58,22.17-22.66,25.09-7,1.69-14.44.92-21.3-1.28-.04.74-.11,1.48-.21,2.22-1.02,7.78-4.84,13.78-10.04,19.41-5.48,5.94-11.64,10.84-18.75,14.74-23.27,12.79-54.57,12.13-77.17-1.61-10.36,17.9-31.81,29.95-53.94,30.3-22.13.33-44.02-11.04-55.02-28.6-16.26,16.7-42.19,25.05-66.3,21.34-24.12-3.71-45.63-19.36-55.02-40.01-12.61,3.87-27.23,1.72-37.86-5.58-10.63-7.3-16.98-19.54-16.45-31.69l4.97-18.15c9-13.03,20.14-27.37,36.86-29.28,12.34-1.41,24.08,4.51,36.07,7.55,23.01,5.85,48.21.83,68.85-10.16,19.44-10.35,35.76-25.85,56.95-32.73,2.9-.94,5.84-1.72,8.81-2.31l81.44,13.14,43.28,6.98c31.34,8.12,62.68,16.23,94.02,24.35,1.65.43,1.66,7.58,1.92,8.88.52,2.61,1.52,5.12,1.96,7.8.57,3.48.84,7.03.73,10.56Z"/>
        <path class="cls-22" d="M351.65,110.93c-6.46,17.6-1.63,38.79,11.81,51.86,13.44,13.07,34.76,17.3,52.18,10.36,13.83,19.84,37.17,32.72,61.33,33.84s48.6-9.55,64.2-28.02c20.14,8.25,44.58,4.89,61.75-8.49,17.17-13.37,26.4-36.25,23.32-57.79-15.94,13.22-39.49,12.87-59.15,6.34-19.66-6.53-37.14-18.28-56.21-26.37-42.75-18.12-93.42-16.5-134.93,4.33"/>
        <path class="cls-21" d="M444.74,202.18h-.03c-.58-.02-1.03-.5-1.02-1.07l1.36-50.33c.02-.58.5-1.03,1.07-1.02.58.02,1.03.5,1.02,1.07l-1.36,50.33c-.02.57-.48,1.02-1.05,1.02Z"/>
        <path class="cls-1" d="M714.84,92.52l11.97,2.11c-1.39,3.04-3.24,5.86-5.46,8.37-6.58,7.44-16.29,12.16-26.25,12.24-7.86.06-15.6-2.78-21.8-7.6-4.63-3.59-8.4-8.28-10.71-13.68-10.6,3.18-22.75.54-31.08-6.75-3.71-3.24-6.18-6.85-7.82-10.76l59.71,10.53,31.45,5.54Z"/>
        <path class="cls-1" d="M387.85,133.68c-8.55,8.22-21.03,12.41-32.77,10.42-3.08-.52-6.19-1.43-9.28-.92-3.84.64-6.94,3.36-9.95,5.81-8.58,7.01-18.3,12.86-29.03,15.6-10.72,2.74-22.54,2.16-32.32-3.02-4.74-2.52-8.89-6.19-11.99-10.58-1.54-2.19-2.81-4.55-3.76-7.05-.74-1.95-.85-5.06-2.35-6.59-3.4-3.43-10.39,2.6-13.86,4.08-5.58,2.36-11.5,4.01-17.55,4.49-10.98.87-22.59-2.36-30.39-10.16-7.79-7.78-10.99-20.38-6.33-30.37-11,2.84-22.8.85-32.76-4.47-1.46-.78-2.9-1.64-4.28-2.56-6.17-4.14-25.07-21.07-14.59-28.32-9.98-13.89-5.77-34.3,6.2-45.61,12.22-11.55,30.7-14.74,47.19-11.4,16.5,3.35,31.29,12.44,44.52,22.82-.07-9.39,2.59-18.62,7.27-26.73l8.58,1.52,5.76,1.01,8.41,1.49,105.58,18.62,16.76,2.96c3.59,14.75,1.09,31.5-3.96,45.5,10.43-2.13,20.37,7.94,21.4,18.53,1.29,13.15-7.43,26.2-16.5,34.93Z"/>
        <path class="cls-1" d="M141.15,12.44c-.46.49-.94.97-1.43,1.43-1.68,1.57-3.71,2.32-5.5,3.7-2.22,1.72-4.07,3.75-6.43,5.31-8.88,5.85-20.44,7.76-30.62,4.48-2.41-.77-4.95-1.82-7.35-1.09-1.82.55-3.19,2.01-4.53,3.36-6.1,6.13-13.61,11.03-21.77,13.75-4.14,1.38-8.45,2.2-12.85,2.31-13.02.36-26.47-6.06-32.89-17.39-7.59,3.39-16.64,3.33-24.18-.18C-18.55,22.49-23.86,9.99-23.6-2.85c-3.87,1.83-7.91,3.47-12.03,4.76v-20.63l5.15.91L141.15,12.44Z"/>
        <path class="cls-4" d="M1016.74,170.47c-2.55,1.92-5.23,3.66-8.01,5.18-11.51,6.34-24.64,9.3-37.75,10.11-10.58.68-21.52-.11-31.55-3.77-5.13-1.87-9.03-4.9-13.66-7.55-4.5-2.56-9.19-4.59-13.48-7.68-10.95,11.42-31.78,10.94-42.18-.97-11.89,17.97-34.15,28.55-55.6,26.4-21.45-2.12-41.18-16.89-49.29-36.86-12.99,10.08-30.28,15.99-46.11,11.55-15.84-4.47-28.33-21.46-24.2-37.36-8.72,2.42-17.69-1.1-24.25-7.38-4.13-3.93-7.31-8.96-8.86-14.27l16.3,2.88c.24-.51.47-1.04.68-1.57,3.77,1.71,7.75,2.98,11.82,3.77l2.11.37.14.03,323.87,57.09Z"/>
        <path class="cls-6" d="M628.85,818.75c-1.19,10.82-17.99,5.73-24.23,5.73-10.99-.06-21.77,3.47-31.91,7.45-14.47,5.71-29.11,12.62-44.66,12.32-2.54-.06-5.01-.28-7.49-.68-10.61-1.58-20.84-5.66-31.36-8-.05-.01-.1-.03-.16-.04-.77-.18-1.57-.33-2.35-.48-17.3-3.43-35.09-2.55-52.61-3.71-5.74-.4-11.48-.98-17.14-2.04-.9-.17-1.81-.35-2.7-.54-2.27-.49-4.52-1.06-6.75-1.74-2.09-.61-11.42-2.76-12.11-4.99-.92-2.84,3.86-6.68,5.69-8.49,24.18-23.74,32.81-50.58,35.95-83.45,5.88-61.57,7.97-123.51,6.29-185.33-1.5-55.29.76-107.98,1.12-163.24.24-35.27.56-70.52.97-105.78.02-1.99.05-3.96.07-5.95.22-18.9.46-37.79.73-56.68.06-4.54.13-9.08.22-13.62v-.02c.01-1.64.03-3.27.07-4.93h0c.1-7.88.23-15.73.36-23.59.03-1.75.07-3.49.09-5.24.02-1.87.05-3.74.1-5.62.36-22.09.76-44.19,1.2-66.26.3-16.03.65-32.07,1-48.11l45.25,7.98,49.67,8.75c-4.41,16.64-8.52,33.35-12.3,50.14-4.51,19.94-8.58,39.98-12.22,60.07-.14.83-.28,1.64-.39,2.48-2.12,15.11.66,33.06,1,48.1.22,9.05.47,18.09.78,27.14.29,8.38.64,16.76,1.03,25.13,1.56,34.77,3.86,69.49,6.67,104.21,4.87,59.79,11.31,119.44,18.4,179.01,6.78,56.74,11.29,114.33,29.47,168.89,10.07,30.2,25.03,59.27,47.27,82,2.51,2.57,5.32,5.56,4.93,9.14Z"/>
        <path class="cls-12" d="M531.89,112.58c-4.51,19.94-8.58,39.98-12.22,60.08-.14.82-.28,1.64-.38,2.47-4.93-3.53-9.37-7.73-13.14-12.51-8.69,9.22-25.21,5.01-32.79-3.51-.44-.5-.9-1.02-1.52-1.23-1.19-.36-2.33.61-3.23,1.46-6.02,5.73-13.64,9.7-21.74,11.6.03-1.75.06-3.49.09-5.25.03-1.87.05-3.74.1-5.61.36-22.09.77-44.19,1.2-66.27,27.66,7.18,55.56,13.43,83.63,18.77Z"/>
        <path class="cls-12" d="M628.85,818.74c-1.2,10.83-17.99,5.73-24.22,5.73-11-.06-21.77,3.48-31.91,7.46-14.48,5.71-29.12,12.61-44.66,12.3-2.53-.06-5.01-.28-7.49-.67.58-.33,1.14-.67,1.67-.97,11-6.46,17.18-19.1,18.99-31.71,1.84-12.64-.11-25.44-1.98-38.05-25.23-172.78-31.35-348.35-18.18-522.47.31,8.38.64,16.76,1.03,25.14,1.56,34.77,3.87,69.48,6.68,104.19,4.87,59.79,11.3,119.45,18.4,179.02,6.77,56.73,11.28,114.33,29.46,168.89,10.08,30.2,25.03,59.26,47.28,82.01,2.51,2.56,5.32,5.57,4.93,9.13Z"/>
        <path class="cls-12" d="M394.2,71.39c-93.35-16.84-188.49-24.07-283.41-21.92,0,0-.05-1.04-.05-1.04,95.14-6.27,190.96-3.12,285.56,9.75l-2.1,13.22h0Z"/>
        <path class="cls-12" d="M506.03,647.4c-.68,0-1.24-.53-1.28-1.22-.42-8.7-.71-17.63-.99-26.26-.56-17.33-1.13-35.25-2.84-52.3-14.96-151.06-12.56-273.03,7.54-383.85.13-.7.8-1.16,1.49-1.03.7.13,1.16.79,1.03,1.49-20.06,110.58-22.45,232.33-7.52,383.14,1.71,17.13,2.29,35.1,2.85,52.47.28,8.62.56,17.54.99,26.22.03.71-.51,1.31-1.22,1.34-.02,0-.04,0-.06,0Z"/>
        <path class="cls-12" d="M489.2,835.56c-.05-.01-.1-.03-.15-.04-.78-.18-1.57-.33-2.36-.49,14.23-53.3,20.42-111.06,18.45-172.09-.01-.7.54-1.31,1.24-1.32h.04c.69,0,1.27.54,1.28,1.23,1.98,61.23-4.23,119.19-18.5,172.7Z"/>
        <path class="cls-12" d="M465.11,685.94c-2.83,50.73-19.92,100.87-48.16,143.35-.9-.17-1.81-.35-2.7-.55,28.32-42.27,45.47-92.32,48.3-142.94,1.93-34.58-2.55-69.64-6.88-103.56-3.87-30.33-7.87-61.69-7.32-92.73.4-22.06,3.1-44.33,5.71-65.86,2.56-21.05,5.2-42.82,5.66-64.34.54-24.6-2.09-55.66-14.3-83.58.03-1.98.05-3.97.08-5.95,14.34,29.57,17.36,63.24,16.79,89.6-.46,21.63-3.11,43.47-5.69,64.59-2.6,21.45-5.29,43.65-5.69,65.59-.55,30.85,3.44,62.12,7.3,92.36,4.35,34.03,8.83,69.22,6.9,104.02Z"/>
        <path class="cls-12" d="M459.95,813.19c-.17,0-.34-.03-.5-.1-.65-.28-.95-1.03-.68-1.68,27.55-64.48,37.75-135.36,29.48-204.99-2.23-18.8-5.85-37.73-9.35-56.05-2.77-14.49-5.63-29.47-7.8-44.32-6-41.18-5.02-73.46,3.11-101.58.2-.68.91-1.07,1.59-.88.68.2,1.07.91.88,1.59-8.02,27.76-8.99,59.69-3.04,100.5,2.16,14.79,5.02,29.75,7.78,44.21,3.51,18.35,7.14,37.34,9.38,56.23,8.32,70.07-1.94,141.41-29.67,206.3-.21.49-.68.78-1.18.78Z"/>
        <path class="cls-12" d="M473.49,389.39c-.08.65-.63,1.13-1.27,1.13-.05,0-.1,0-.15-.01-.7-.08-1.2-.72-1.11-1.42,4.53-38.21,8.26-88.19-3.33-135.94-4.72-19.42-11.93-37.53-21.19-53.68h0c.01-1.66.04-3.29.08-4.94,10.41,17.24,18.46,36.87,23.6,58.01,11.69,48.13,7.95,98.42,3.38,136.84Z"/>
        <path class="cls-12" d="M524.12,58.91l2.52.44c-7.29,36.08-12.67,72.55-16.1,109.27-.06.67-.62,1.16-1.28,1.16h-.12c-.7-.07-1.22-.69-1.16-1.4,3.43-36.77,8.82-73.31,16.13-109.47Z"/>
        <path class="cls-12" d="M490.57,207.27c-.95,2.65-2.13,5.37-4.28,7.3-1.43,1.29-3.5,2.2-5.57,2.2-1.13,0-2.25-.27-3.26-.9-2.34-1.44-3.26-4.15-3.92-6.87-6.7-27.78-6.71-58.94-.02-98.08,2.79-16.35,6.41-32.49,9.92-48.11.78-3.51,1.41-7.1,1.92-10.73l2.53.44c-.52,3.66-1.16,7.29-1.97,10.86-3.49,15.58-7.1,31.69-9.89,47.97-6.61,38.78-6.62,69.62-.01,97.04.49,2.04,1.15,4.3,2.77,5.3,1.79,1.11,4.31.3,5.77-1.01,1.63-1.47,2.62-3.58,3.58-6.28,8.35-23.29,5.46-48.8,2.67-73.46-2.49-21.97-5.06-44.68.07-66.25.16-.69.86-1.11,1.54-.95.69.17,1.11.86.95,1.54-5.03,21.15-2.48,43.63-.02,65.38,2.83,24.96,5.75,50.76-2.79,74.62Z"/>
        <path class="cls-12" d="M466.81,48.8c-2.29,23.58-5.75,47.08-10.37,70.4-.13.61-.66,1.02-1.26,1.02-.08,0-.17,0-.25-.02-.69-.14-1.14-.81-1-1.51,4.61-23.29,8.07-46.77,10.35-70.34l2.53.45Z"/>
        <path class="cls-19" d="M301.27,66.51c-4.28,7.37-13.65,11.4-21.95,9.39,5.02,1.21-9.09,29.23-10.89,31.59-6.28,8.3-16.67,16.98-26.64,20.16-21.5,6.82-47.36-1.13-61.02-19.09-10.29,13.03-26.64,21.1-43.27,21.31-11.05.14-22.05-3.18-31.32-9.18h-.01c-4.69-3.01-8.91-6.72-12.48-11.01-2.42-2.9-4.74-6.2-8.3-7.47-4.05-1.42-8.45.2-12.65,1.09-12.54,2.64-26.34-2.05-34.71-11.74-11.93-13.84-11.54-35.74,3.74-46.96,6.04-4.43,13.7-6.61,21.16-6-1.44-6.77-.21-14.08,3.37-20.01,3.84-6.34,11.13-12.11,18.73-12.77,7.45-.65,15.28,4.6,17.02,11.96,1.16-11.44,6.15-22.18,13.58-30.91l41.21,7.27,57.49,10.13c1.24,3.3,2.17,6.75,2.72,10.27,2.81-3.37,6.37-6.06,10.31-7.97l23.01,4.06,5.76,1.01,8.41,1.49c5.52,5.94,8.91,13.91,8.85,22.05,9.72-3.57,20.1.94,25.91,8.58,4.83,6.37,6.5,14.91,1.95,22.75Z"/>
        <path class="cls-19" d="M683.39,86.98c-.05,1.74-.32,3.47-.76,5.15-1.43,5.5-4.24,10.28-8.12,14.34-.39.41-.8.81-1.21,1.17-10.02,9.13-27.03,9.59-37.35.68-3.07,27.77-24.6,52.55-51.68,59.47-27.05,6.91-57.85-4.51-73.85-27.39-4.41,6.59-12.63,10.43-20.51,9.6-7.89-.83-15.11-6.29-18.07-13.65-12.26,9.94-25.97,18.45-41.21,22.6-9.3,2.55-19.24,3.37-28.76,1.93-6.05-.89-11.9-2.7-17.34-5.51-14.01-7.27-24.54-21.91-24.73-37.69-11.74,7.49-29.79.83-33.86-12.48-4.08-13.3,7.17-28.93,21.09-29.29-3.92-6.06-4.04-14.07-1.42-20.77,2.6-6.72,7.66-12.27,13.38-16.66,3.46-2.67,7.22-4.9,11.16-6.71l198.92,35.07,54.62,9.62,59.71,10.53Z"/>
        <path class="cls-4" d="M683.39,86.98c-.05,1.74-.32,3.47-.76,5.15-1.43,5.5-4.24,10.28-8.12,14.34-.39.41-.8.81-1.21,1.17-10.02,9.13-27.03,9.59-37.35.68-3.07,27.77-24.6,52.55-51.68,59.47-27.05,6.91-57.85-4.51-73.85-27.39-4.41,6.59-12.63,10.43-20.51,9.6-7.89-.83-15.11-6.29-18.07-13.65-12.26,9.94-25.97,18.45-41.21,22.6-9.3,2.55-19.24,3.37-28.76,1.93,24.8-4.66,47.24-23.04,54.73-47.33,16.27,5.22,33.74,10.07,50.2,5.5,16.47-4.57,30.42-22.32,24.65-38.4,8.84,6.75,22.5,6.12,30.68-1.39,3.56-3.27,5.91-7.7,6.93-12.42l54.62,9.62,59.71,10.53Z"/>
        <path class="cls-4" d="M301.27,66.51c-4.28,7.37-13.65,11.4-21.95,9.39,5.02,1.21-9.09,29.23-10.89,31.59-6.28,8.3-16.67,16.98-26.64,20.16-21.5,6.82-47.36-1.13-61.02-19.09-10.29,13.03-26.64,21.1-43.27,21.31-11.05.14-22.05-3.18-31.32-9.18,23.51-1.67,46.23-15.81,56.88-37,9.38,2.9,18.97,5.81,28.79,5.8,9.83-.01,20.14-3.43,26.22-11.15,6.08-7.73,6.4-20.2-.9-26.76,15.11,1.77,30.66-9.09,34.21-23.88,1.36-5.66.91-11.6-.98-17.08l5.76,1.01,8.41,1.49c5.52,5.94,8.91,13.91,8.85,22.05,9.72-3.57,20.1.94,25.91,8.58,4.83,6.37,6.5,14.91,1.95,22.75Z"/>
        <path class="cls-21" d="M519.44,217.42c-.55,0-1-.42-1.04-.97-1.42-20.56-.22-41.25,3.56-61.5.11-.57.65-.93,1.22-.84.57.11.94.65.84,1.22-3.75,20.08-4.93,40.6-3.52,60.97.04.58-.4,1.08-.97,1.12-.02,0-.05,0-.07,0Z"/>
      </g>
    </g>
  </g>
  <path class="cls-16" d="M986,940H2c-1.1,0-2-.9-2-2V2C0,1.41.26.85.71.47,1.17.09,1.77-.07,2.35.03l984,173.56c.96.17,1.65,1,1.65,1.97v762.44c0,1.1-.9,2-2,2ZM4,936h980V177.24L4,4.39v931.61Z"/>
  <g>
    <path class="cls-23" d="M368.25,790.78c3.88,3.67,6.18,9.34,6.02,14.91-.16,5.04-1.97,8.98-3.74,12.79-.33.7-.66,1.42-.98,2.15h0c-2.07,4.63-5.13,8.88-8.88,12.29-3.44,3.14-10.6,9.7-18.04,5.86-.4-.2-.8-.43-1.19-.67-.26-.16-.63-.38-.85-.48-.13.04-.42.14-.63.22-.45.16-1,.36-1.63.5-1.46.33-2.95.38-4.41.17-5.28-.78-10.47-5.02-14.98-12.35-.53-.85-1.04-1.73-1.55-2.7-5.81-10.85-6.51-21.87-1.91-30.24,3.58-6.53,10.4-10.63,16.98-10.21,1.74.12,3.62.53,5.78,1.28.2.07.42.16.64.26-.16-.23-.33-.44-.51-.64l-.15-.16c-.77-.85-1.96-2.14-2.29-4.13-.03-.13-.03-.28-.04-.42-.02-.11-.03-.23-.03-.34,0-.05-.01-.11-.01-.17,0-.06,0-.12,0-.18h0c0-.09.01-.16.01-.23.02-.18.02-.37.05-.55,0-.04.02-.09.03-.13.29-1.73,1.28-3.35,2.8-4.48,1.45-1.07,3.01-1.5,4.15-1.81,1.03-.28,2.3-.63,3.77-.58,2.18.06,4.15,1.05,5.37,2.7.13.17.26.38.38.59.04.06.08.13.11.2.03.06.05.12.08.17.04.08.07.15.1.23.05.1.09.2.13.3,1.41-.95,2.9-1.78,4.45-2.41,3.84-1.59,7.81-2.11,11.88-2.55.8-.09,1.68-.16,2.57-.23,2.24-.17,4.56-.35,6.1-1,.04-.01.09-.03.13-.05,1.43-.67,3.09-.41,4.28.63,1.2,1.05,1.62,2.71,1.16,4.22-1.35,4.32-4.09,8.87-7.31,12.16-2.31,2.36-5.01,4.07-7.83,5.08Z"/>
    <g>
      <path class="cls-4" d="M379.57,772.34c-1.18,3.79-3.59,7.74-6.36,10.56-2.91,2.97-6.92,5.07-11.07,4.91-1.23-.05-2.44-.28-3.64-.55-1.34-.3-2.68-.66-4.05-.84-1.33-.18-2.72-.17-4.03.19-1.27.33-2.05,1.18-3.13,1.73-.09-.19-.14-.4-.14-.63-.02-1.99,3.16-5.16,4.2-6.28,2.07-2.25,4.61-4.06,7.43-5.22,3.43-1.41,7.14-1.88,10.8-2.28,3.07-.35,6.94-.3,9.8-1.52.06-.03.13-.05.18-.08Z"/>
      <path class="cls-1" d="M379.57,772.34c-1.18,3.79-3.59,7.74-6.36,10.56-2.91,2.97-6.92,5.07-11.07,4.91-1.23-.05-2.44-.28-3.64-.55-1.34-.3-2.68-.66-4.05-.84-1.33-.18-2.72-.17-4.03.19-1.27.33-2.05,1.18-3.13,1.73-.09-.19-.14-.4-.14-.63.81-1.36,2-2.53,3.36-3.37,2.31-1.41,5.02-2,7.71-2.35,2.68-.34,5.4-.46,8.04-1.07,5.19-1.18,9.92-4.26,13.11-8.51.06-.03.13-.05.18-.08Z"/>
      <path class="cls-14" d="M365.89,819c-1.84,4.13-4.55,7.88-7.91,10.95-3.48,3.18-8.75,7.72-13.52,5.27-1.22-.62-2.35-1.6-3.74-1.62-1.12-.02-2.18.59-3.28.84-6.33,1.42-11.86-5.13-15.1-10.38-.55-.88-1.02-1.72-1.43-2.48-4.22-7.87-6.53-18.06-1.93-26.44,2.62-4.77,7.83-8.48,13.22-8.14,1.58.1,3.23.55,4.72,1.06.37.12.72.29,1.07.48.96.52,1.86,1.2,2.86,1.66,3.14,1.44,6.73,2.01,10.23,1.53,1.86-.25,3.68-.78,5.54-1.02,8.39-1.09,13.87,7.37,13.65,14.86-.15,5.07-2.39,8.95-4.38,13.43Z"/>
      <path class="cls-3" d="M365.89,819c-1.84,4.13-4.55,7.88-7.91,10.95-3.48,3.18-8.75,7.72-13.52,5.27-1.22-.62-2.35-1.6-3.74-1.62-1.12-.02-2.18.59-3.28.84-6.33,1.42-11.86-5.13-15.1-10.38,6.61,4.67,16.05,5.38,23.25,1.73,6.26-3.16,10.83-9.47,11.88-16.41.76-5.03-1.71-12.03-7.42-13.08-2.1-.39-4.29.17-6.39-.22-3.39-.65-5.85-4.16-5.68-7.54.96.52,1.86,1.2,2.86,1.66,3.14,1.44,6.73,2.01,10.23,1.53,1.86-.25,3.68-.78,5.54-1.02,8.39-1.09,13.87,7.37,13.65,14.86-.15,5.07-2.39,8.95-4.38,13.43Z"/>
      <path class="cls-12" d="M349.06,779.22c-.6,3.02-.92,6.08-1.46,9.11-.27,1.52-.58,3.03-1.01,4.5-.35,1.18-.67,3.22-2.34,2.16-.49-.3-.8-.87-.8-1.45,0-.52.24-1.01.43-1.49.75-1.85,1.01-3.89.38-5.78-.62-1.85-1.61-3.58-2.91-5.03-.62-.68-1.33-1.38-1.48-2.28-.02-.11-.03-.22-.03-.33h0c0-.91.55-1.77,1.28-2.31.83-.61,1.84-.89,2.83-1.16.84-.23,1.7-.47,2.56-.44.87.02,1.78.37,2.29,1.07.07.09.12.18.18.28.48.92.3,2.1.09,3.15Z"/>
      <path class="cls-6" d="M348.97,776.06c-.05.07-.09.14-.13.21-1.01,1.43-2.55,2.48-4.26,2.88-1.58.37-3.29.18-4.75-.52h0c0-.91.55-1.77,1.28-2.31.83-.61,1.84-.89,2.83-1.16.84-.23,1.7-.47,2.56-.44.87.02,1.78.37,2.29,1.07.07.09.12.18.18.28Z"/>
      <path class="cls-17" d="M326.76,792.56c-1.45.68-2.76,1.77-3.44,3.22s-.62,3.29.36,4.56c1.24,1.6,3.62,1.92,5.57,1.37,2.59-.73,4.75-2.82,5.58-5.37.67-2.05.14-4.55-2.26-5.11-1.66-.39-4.34.65-5.82,1.33Z"/>
      <path class="cls-17" d="M322.27,804.04c-1.09.23-2.35.58-2.79,1.61-.39.91.15,2.08,1.07,2.43s2.06-.11,2.54-.98.29-2.03-.38-2.75"/>
    </g>
  </g>
</svg>