<?xml version="1.0" encoding="UTF-8"?>
<svg id="Image" xmlns="http://www.w3.org/2000/svg" xmlns:xlink="http://www.w3.org/1999/xlink" viewBox="0 0 988 940">
  <defs>
    <style>
      .cls-1 {
        fill: #cae0df;
      }

      .cls-2 {
        fill: #77ad9b;
      }

      .cls-3 {
        fill: #12993f;
      }

      .cls-4 {
        fill: #94ef8b;
      }

      .cls-5 {
        fill: #d3eae8;
      }

      .cls-6 {
        fill: #1cb829;
      }

      .cls-7 {
        fill: #d87625;
      }

      .cls-8 {
        fill: #93d2ad;
      }

      .cls-9 {
        fill: none;
      }

      .cls-10 {
        fill: #c2d7d6;
      }

      .cls-11 {
        fill: #85baa8;
      }

      .cls-12 {
        fill: #93dba1;
      }

      .cls-13 {
        fill: #aa5217;
      }

      .cls-14 {
        fill: #87734c;
      }

      .cls-15 {
        fill: #93e596;
      }

      .cls-16 {
        fill: #b1c2c3;
      }

      .cls-17 {
        fill: #6d3108;
      }

      .cls-18 {
        fill: #333;
      }

      .cls-19 {
        fill: #34d434;
      }

      .cls-20 {
        fill: #54f445;
      }

      .cls-21 {
        clip-path: url(#clippath);
      }

      .cls-22 {
        fill: #af975a;
      }
    </style>
    <clipPath id="clippath">
      <polygon class="cls-9" points="2 938 2 2 986 175.56 986 938 2 938"/>
    </clipPath>
  </defs>
  <g class="cls-21">
    <rect class="cls-5" x="-65.29" y="-46.95" width="1086.63" height="703.7"/>
    <rect class="cls-1" x="928.27" y="387.21" width="70.68" height="218.2"/>
    <path class="cls-1" d="M472.31,492.15h-74.55v-227.17h22.78l51.77,51.77v175.4Z"/>
    <rect class="cls-1" x="41.31" y="301.89" width="56.57" height="246.9"/>
    <rect class="cls-4" x="-68.55" y="565.23" width="1247.87" height="439.47"/>
    <rect class="cls-10" x="562.15" y="375.95" width="43.27" height="112.64"/>
    <rect class="cls-16" x="625.21" y="407.64" width="87.31" height="135.75"/>
    <rect class="cls-10" x="835.03" y="338.39" width="74.68" height="256.65"/>
    <rect class="cls-10" x="321.74" y="351.16" width="57.2" height="213.49"/>
    <rect class="cls-16" x="168.4" y="287.13" width="74.68" height="167.19"/>
    <g>
      <rect class="cls-2" x="-17.3" y="584.6" width="1028.37" height="71.31"/>
      <path class="cls-8" d="M665.92,520.49c5.57-6.2,5.58-16.62.02-22.83s-15.91-7.36-22.69-2.52c2.77-11.19-4.59-23.9-15.67-27.07s-24.05,3.75-27.6,14.71c-2.45-8.78-12.3-14.77-21.22-12.9s-15.54,11.31-14.25,20.34c-9.49.49-18.61,5.78-23.75,13.78-2.89,4.5-4.54,10.19-2.76,15.23,1.37,3.88,4.61,6.87,8.24,8.8s7.67,2.93,11.66,3.91c-8.46,5.53-12.34,17.03-9.25,26.66,3.09,9.62,12.73,16.65,22.82,16.96s20.02-5.94,24.38-15.05c2.88,6.01,10.24,9.11,16.82,8.05s12.22-5.69,15.67-11.39c3.45-5.7,4.94-12.39,5.59-19.03,6.49,2.27,13.47,4.28,20.16,2.69s12.68-8.09,11.29-14.83"/>
      <path class="cls-12" d="M64.47,601.07c-.6,3.68.69,7.62,3.33,10.25,2.51,2.49,6.03,3.73,9.54,4.11,3.51.38,7.05-.03,10.56-.45-1.92,3.72-.92,8.56,1.94,11.61,2.87,3.05,7.3,4.36,11.46,3.92s8.04-2.47,11.2-5.21c-.05,4.43,3.04,8.59,7.12,10.29s8.93,1.09,12.77-1.12c3.83-2.22,6.69-5.9,8.4-9.98,5.2,4.59,11.97,7.73,18.89,7.39,6.93-.34,13.82-4.64,16.08-11.19s-1.23-14.88-7.86-16.89c4.77-9.23,1.63-21.78-6.92-27.68-8.55-5.9-21.4-4.37-28.32,3.38-4.01-5.95-11.45-9.4-18.58-8.61s-13.63,5.8-16.23,12.49c-2.84-4.24-6.94-7.78-11.85-9.18s-10.62-.39-14.24,3.2c-3.81,3.78-3.19,7.82-2.6,12.57.56,4.48-3.98,6.63-4.7,11.11Z"/>
      <path class="cls-12" d="M396.1,623.12c1.26,3.25,4.42,5.52,7.81,6.32s6.97.29,10.29-.76c-1.9,2.25-1.81,5.77-.19,8.23s4.48,3.91,7.39,4.34c2.91.43,5.89-.06,8.73-.81,1.53-.4,3.08-.88,4.65-.74,1.36.13,2.63.72,3.89,1.25,4.12,1.75,8.54,2.98,13.02,2.88s9.03-1.61,12.23-4.75c3.2-3.14,4.81-8,3.52-12.29,4.16.15,8.63-1.01,11.33-4.18s2.83-8.63-.48-11.16c6.15-.84,10.66-7.4,9.93-13.56s-6.03-11.28-12.11-12.55-12.59.98-17.19,5.14c-5.44-6.8-11.51-14.01-19.98-16.02-4.68-1.11-9.6-.47-14.3.57-4.47.99-8.91,2.38-12.79,4.81s-7.17,6.02-8.56,10.39-.63,9.52,2.5,12.86c-4.37.97-6.92,4.67-7.82,8.81-.81,3.74-3.39,7.3-1.87,11.22Z"/>
      <path class="cls-11" d="M122.27,656.57h119.96c-.52-5.47-3.91-10.54-8.94-12.73-5.03-2.19-11.23-1.42-15.58,1.93-2.67-4.12-7.3-6.9-12.19-7.3-4.89-.41-9.92,1.57-13.23,5.2-1.72-6.25-7.72-11.05-14.19-11.36s-12.9,3.92-15.2,9.97c-3.62-4.88-10.33-7.23-16.2-5.67s-10.54,6.93-11.26,12.96c-3.68-1.88-8.14-2.16-12.02-.74-3.88,1.41-7.12,4.5-8.73,8.3"/>
      <path class="cls-11" d="M857.56,652.95c-.83-6.13-5.43-11.59-11.33-13.45-5.9-1.85-12.8,0-16.98,4.55-1.95-6.1-7.87-10.72-14.27-11.12s-12.84,3.45-15.53,9.27c-4.63-5.67-12.43-8.55-19.63-7.25-7.2,1.3-13.51,6.72-15.87,13.65-4.47-2.16-9.8-2.48-14.5-.88s-9.11,4.91-11.34,9.36h122.42"/>
      <path class="cls-11" d="M601.47,656.75h153.55c-3.03-5.28-11.19-7.05-16.6-4.25-1.88-3.22-5.37-5.45-9.09-5.78-3.71-.33-7.55,1.24-9.97,4.08-1.51-9.38-9.57-17.32-18.97-18.71-9.4-1.38-19.4,3.91-23.55,12.45-1.86-2.66-5.25-4.17-8.47-3.76-3.22.41-6.13,2.72-7.26,5.76-3.06-5.53-9.36-9.1-15.67-8.9s-12.37,4.17-15.07,9.89c-1.97-2.32-5.2-3.49-8.2-2.97s-5.65,2.7-6.73,5.54c-10.91-4.33-24.2-1.84-32.8,6.15"/>
      <path class="cls-11" d="M419.34,656.59h148.76c-6.84-9.42-20.46-13.24-31.28-8.96-.85-4.52-4.23-8.47-8.56-10.01s-9.45-.61-12.95,2.36c-3.07-8.19-9.68-15.31-18.12-17.58-8.44-2.26-18.48,1.2-22.61,8.9-2.56-7.14-10.47-11.94-17.99-10.92-7.52,1.02-13.86,7.76-14.42,15.33-3.62-3.49-9.87-3.77-13.79-.62s-4.99,9.32-2.37,13.6c-6.29-1.02-13.06,2.43-15.93,8.12"/>
      <polygon class="cls-14" points="547.6 655.9 548.81 591.32 549.81 591.32 551.01 655.9 547.6 655.9 547.6 655.9"/>
      <path class="cls-8" d="M562.4,647.34c2.23-5.62,8.04-9.63,14.09-9.72,6.05-.09,11.97,3.75,14.36,9.31,1.49-2.48,4.85-3.44,7.62-2.63s4.94,3.11,6.18,5.72,1.65,5.54,1.86,8.42h-71.06c.69-2.79,2.48-5.26,5.19-6.2,1.12-.39,2.33-.53,3.51-.44,1.06.08,2.37.83,3.41.61,1.58-.34,1.93-2.68,2.7-3.86,2.67-4.11,8.69-4.74,12.14-1.22Z"/>
      <path class="cls-8" d="M242.73,658.45h196.29c-6.19-5.1-15.2-6.53-22.71-3.71,3.09-3.86-3.32-8.54-6.47-9.37-3.21-.84-6.79-.07-9.37,2.01-1.05-4.87-4.62-7-8.66-9.15-4.69-2.49-9.87-3.63-15.2-2.99-7.42.9-14.36,5.18-18.49,11.41-6.02-3.76-14.69-2.48-19.36,2.86-.45-8.36-6.53-16.14-14.54-18.58-8.01-2.45-17.39.61-22.43,7.29-4.41-5.02-11.94-7.03-18.26-4.88-6.32,2.15-11.06,8.34-11.49,15.01-3.31-3.57-9.81-3.37-12.89.4-12.79-6.71-34.26-3.09-41.34,9.51,7.96,0,14.93,0,24.92.16Z"/>
      <polygon class="cls-14" points="875.06 656.93 876.98 607.76 878.14 607.76 880.06 656.93 875.06 656.93 875.06 656.93"/>
      <path class="cls-8" d="M985.33,659.49c-.32.11-.63.32-.97.32h-153.69c.2,0,1.42-1.79,1.65-2.03.71-.74,1.5-1.4,2.34-1.99,1.58-1.12,3.31-1.86,5.19-2.33,3.93-.97,8.2-.64,11.9,1.02.4.18.83.38,1.27.3.65-.12,1.01-.79,1.32-1.37.84-1.6,1.9-3.11,3.31-4.22,3.58-2.83,8.94-2.88,12.9-.93,2.95,1.46,5.41,3.73,7.83,5.97,3.79-6.96,11.21-11.8,19.1-12.45,7.89-.65,16.01,2.9,20.89,9.14,3.2-7.5,10.26-13.24,18.26-14.83,8-1.59,16.71,1,22.55,6.7.57-7.55,4.33-14.8,10.17-19.61,5.84-4.81,13.68-7.11,21.19-6.23"/>
      <path class="cls-8" d="M-2.94,661.94h151.04c-6.1-8.6-17.85-12.6-27.74-8.97.22-5.84-5.48-10.66-11.3-11.18-5.82-.52-11.46,2.27-16.15,5.77-2.59-8.19-9.74-14.77-18.11-16.68-8.37-1.9-17.66.94-23.54,7.21-1.86-7.36-8.08-13.44-15.48-15.11-7.4-1.68-15.64,1.13-20.48,6.97-5.78-5.91-15.97-6.81-22.7-2.01"/>
      <path class="cls-8" d="M167.06,625.08c5.62,3.11,13.21,2.12,17.86-2.32.46,3.97,3.53,7.5,7.4,8.5s8.27-.6,10.59-3.85c3.73,4.59,10.43,6.5,16.01,4.56,5.58-1.93,9.67-7.58,9.76-13.49,4.17,3.24,10.25,3.15,15.01.88s8.4-6.38,11.39-10.74c1.38-2.01,2.7-4.25,2.66-6.69s-1.99-4.99-4.42-4.79c5.8-3.39,8.56-10.81,7.39-17.43s-5.76-12.3-11.45-15.87c-4.5-2.82-9.85-4.47-15.13-3.91s-10.4,3.55-12.88,8.25c-.2-6.42-4.2-12.37-9.61-15.84s-12.04-4.67-18.46-4.34c-6.99.35-14.16,2.61-19.05,7.63s-6.9,13.14-3.58,19.3c-4.68,1.69-9.34,3.74-13.01,7.09s-6.24,8.23-5.79,13.18c0,5.17,4.76,9.12,9.42,9.85-1.29,3.97-2.6,6.47-1.32,10.83,1.12,3.82,3.69,7.25,7.19,9.19Z"/>
      <polygon class="cls-14" points="199.99 661.28 202.17 587.95 202.81 587.95 204.99 661.28 199.99 661.28 199.99 661.28"/>
      <path class="cls-8" d="M831.57,617.48c5.69,5.14,15.39,4.93,20.85-.45-1.02,5.55,2.25,11.58,7.45,13.76s11.79.28,15.04-4.33c3.55,6.36,11.37,10.01,18.52,8.65s13.09-7.63,14.05-14.85c5.22.27,10.58-.06,15.4-2.08,4.82-2.02,9.04-5.96,10.39-11.01s-.77-11.1-5.46-13.4c6.24-5.62,10.13-13.92,9.86-22.31s-4.91-16.64-12.23-20.74-17.12-3.6-23.66,1.66c-5.22-6.43-12.11-11.77-20.11-13.9s-17.18-.68-23.35,4.86-8.51,15.35-4.45,22.57c-8.82.89-17.44,3.81-24.98,8.48-2.31,1.43-4.69,3.26-5.25,5.92-.49,2.31.58,4.74,2.2,6.46,1.63,1.73,3.77,2.72,5.68,4.02-4.13,8.14-8.01,19.41.05,26.69Z"/>
      <polygon class="cls-14" points="730.89 657.55 732.98 602.16 733.79 602.16 735.89 657.55 730.89 657.55 730.89 657.55"/>
      <path class="cls-8" d="M710.61,620.32c-1.5,5.61,1.96,12.08,7.45,13.94,5.5,1.86,12.18-1.18,14.39-6.54,7.76,6.87,20.23,7.69,28.81,1.88,2.48-1.68,4.73-4,5.37-6.92s-.85-6.44-3.73-7.24c5.69-1.83,11.5-3.81,16.11-7.62s7.81-9.91,6.54-15.75-8.16-10.31-13.55-7.71c4.18-4.64,4.84-11.92,2.11-17.54s-8.51-9.47-14.67-10.49-12.61.63-17.91,3.93c2.62-5.34,1.06-12-2.46-16.8-3.52-4.8-8.69-8.09-13.84-11.06-8.36-4.82-17.84-9.23-27.32-7.46-8.82,1.65-16.27,9.08-17.96,17.9s2.51,18.47,10.11,23.25c-2.39-1.51-9.57,11.13-10.03,12.88-1.7,6.53,2.19,10.43,4.42,16.07,3.48,8.81-.39,20.06,9.38,25.76,5.07,2.96,11.91,2.9,16.77-.48Z"/>
      <path class="cls-12" d="M500.26,605.35c3.04,5.51,9.86,8.65,16.02,7.38-2.82,3.52-2.3,9.24,1.11,12.19s9.14,2.65,12.22-.64c.98,4.18,4.72,7.58,8.98,8.15,4.26.57,8.76-1.72,10.8-5.5,4.7,4.77,12.55,6.05,18.52,3.03s9.59-10.11,8.53-16.72c10.85-.73,20.25-10.76,20.27-21.63,0-3.27-.8-6.67-2.92-9.16s-5.72-3.88-8.8-2.78c2.27-4.37,2.12-9.85-.22-14.16-2.76-5.07-7.18-5.93-12.73-5.12,1.84-3.44,1.37-7.81-.57-11.19s-5.18-5.86-8.69-7.57c-6.32-3.08-13.78-3.85-20.53-1.87-6.39,1.87-9.9,5.79-14.31,10.36-3.73,3.87-9.09,8.39-5.53,14.45-4.63-.03-9.34-.06-13.79,1.22s-8.7,4.05-10.65,8.25c-2.59,5.57,1.15,9.4,1.89,14.63.84,5.99-2.94,10.61.41,16.68Z"/>
      <path class="cls-12" d="M15.78,606.81c5.48-1.23,10.3-5.1,12.68-10.18,6.97,3.71,14.93,5.97,22.77,5.05s15.49-5.37,19.04-12.42,2.17-16.61-4.02-21.51c5.83-6.43,11.73-12.96,15.64-20.71s5.63-17.01,2.71-25.18-11.28-14.65-19.89-13.59c3.01-7.87,4.99-16.4,3.69-24.73-1.3-8.33-6.38-16.42-14.2-19.57-7.82-3.15-18.15,0-21.48,7.74-10.29-11.87-29.67-14.48-42.74-5.76s-18.1,27.62-11.09,41.68c1.08,2.16,2.44,4.49,1.86,6.84-.65,2.64-3.42,4.05-5.72,5.51-7.7,4.9-12.46,14.1-12.02,23.22.44,9.12,6.06,17.82,14.2,21.96-7.74,5.18-13.19,14.35-12.19,23.6s9.61,17.58,18.87,16.66c5.69-.56,10.88-4.77,16.35-2.58s8.8,5.47,15.55,3.96Z"/>
      <path class="cls-12" d="M317.64,618.85c4.95-3.17,8.33-8.68,8.92-14.53,10.06,1.22,20.66-.44,29.23-5.84,8.57-5.4,14.84-14.8,15.28-24.93s-5.57-20.55-15.03-24.18c5.76-5.52,6.77-15.31,2.26-21.89s-14.01-9.16-21.23-5.77c-4.85-18.26-23.85-30.67-42.74-31.01-18.89-.34-36.92,9.72-49.51,23.81-4.47,5-8.43,10.65-10.32,17.09-1.88,6.44-1.45,13.79,2.31,19.35-8.32,4.81-15.3,12.35-18.16,21.52s-1.11,19.96,5.5,26.94c5.89,6.22,14.83,8.81,23.4,8.79s16.94-2.36,25.19-4.68c-5.06,6.24-2.88,16.91,4.22,20.67,7.44,3.96,16.43-.67,19.51-7.9,4.88,7.17,13.84,7.26,21.16,2.57Z"/>
      <g>
        <path class="cls-12" d="M733.19,576.29c-5.26-.07-10.29,2.26-15.54,2.63-10.39.74-20.65-7.45-22.24-17.75-1.59-10.3,5.72-21.2,15.86-23.64-16.86-10.71-27.84-30.15-28.31-50.12-.19-8.28,1.38-16.76,5.64-23.85,4.27-7.1,11.44-12.66,19.62-13.89,5.35-.8,10.79.22,16.11,1.25-2.17-5.21-4.37-10.51-4.9-16.12-.53-5.62.84-11.69,4.92-15.59,5.88-5.63,16.77-4.48,21.34,2.25,2.94-13.77,6.62-26.02,16.81-36.31,9.38-9.47,22.07-15.8,35.42-16.77,21.75-1.57,43.74,11.12,53.58,30.53.48.95.89,1.97,1.41,2.88,2.86-1.73,7.45-1.94,10.74-1.74,4.28.25,8.49,1.7,11.99,4.17,5.75,4.06,9.51,10.71,10.33,17.7s-1.24,14.22-5.36,19.92c4.88.12,9.68,2.16,13.16,5.58,8.24,8.12,7.36,23.85-3.41,29.41,4.95.09,11.62,4.35,15.96,6.72,5.69,3.1,11.06,6.85,15.56,11.53,8.21,8.53,13.36,20.68,11.16,32.32-2.2,11.64-13.07,21.75-24.87,20.83,1.17,8.15-2.34,16.16-8.61,21.3-3.03,2.48-6.36,4.22-10.26,4.87-1.31.22-10.42.78-10.75-1.14,1.96,11.44-3.33,23.8-12.96,30.28-9.63,6.48-23.07,6.72-32.93.6-3.81,6.34-9.2,11.86-15.88,15.03-6.68,3.17-14.7,3.8-21.5.89s-12.06-9.56-12.52-16.94c-15.83,6.65-40.02,5.2-48.52-12.12-.63-1.28-4.27-14.74-1.06-14.69Z"/>
        <polygon class="cls-22" points="799.58 676.7 805.5 442.61 806.5 442.61 812.42 676.7 799.58 676.7 799.58 676.7"/>
        <path class="cls-22" d="M805.16,596.11c7.82-33.39,27.6-63.56,54.7-83.89l.61.79c-26.21,21.09-44.52,51.45-50.99,84.04l-4.33-.94h0Z"/>
        <path class="cls-22" d="M803.68,560.28c-4.86-25.91-23.81-48.86-48.44-58.76,0,0,.35-.94.35-.94,26.12,8.8,46.98,31.54,53.7,58.46,0,0-5.6,1.23-5.6,1.23h0Z"/>
      </g>
      <polygon class="cls-22" points="291.08 667.05 295.66 545.36 296.66 545.36 301.24 667.05 291.08 667.05 291.08 667.05"/>
      <path class="cls-22" d="M293.87,620.02c1.35-18.23,10.2-35.45,23.78-46.97l.67.74c-12.61,12.18-19.89,29.36-20.03,46.42l-4.41-.19h0Z"/>
      <g>
        <path class="cls-4" d="M937.74,618.58c-5.06-2.08-8.79-7.07-9.35-12.51-11.28,5.11-25.89,1.3-33.23-8.67-7.34-9.97-6.65-25.06,1.58-34.31-14.48-7.99-21.26-27.56-14.82-42.79,6.44-15.23,25.2-24.01,41.02-19.18-2.34-10.6,2.18-22.39,11-28.71,8.82-6.33,21.43-6.82,30.72-1.21,9.29,5.61,14.71,17.01,13.22,27.76,13.66.75,27.27,6.37,36.43,16.53,9.17,10.16,13.38,24.98,9.57,38.13s-16.13,23.74-29.8,24.25c9.4,4.07,14,16.62,9.45,25.8-4.54,9.18-17.3,13.14-26.24,8.15,3.02,1.69-14.22,9.7-17.01,9.49-3.21-.24-5.94-2.16-9.04-2.46-4.77-.47-8.67,1.72-13.5-.26Z"/>
        <polygon class="cls-22" points="949.68 669.67 952.32 518.4 953.32 518.4 955.95 669.67 949.68 669.67 949.68 669.67"/>
        <path class="cls-22" d="M951.38,612.96c-4.02-21.64-11.76-42.64-22.82-61.79l.86-.51c11.67,18.92,20.12,39.89,24.84,61.73l-2.87.58h0Z"/>
      </g>
      <polygon class="cls-22" points="28.23 542.2 32.55 672.19 22.9 672.19 27.23 542.2 28.23 542.2 28.23 542.2"/>
      <path class="cls-22" d="M26.74,626.88c-2.22-19.2-10.62-37.85-23.86-52.43l.41-.4c14.14,13.87,23.93,32.37,27.4,52.25l-3.96.58h0Z"/>
      <path class="cls-15" d="M353.44,508.34c-1.49,2.06-2.65,4.37-3.38,6.8-7.35-.7-14.92,3.4-18.37,9.92-2.21,4.19-2.63,9.23-1.4,13.78.89,3.29,2.58,7.66,4.67,10.37-5.41,2.89-9.36,8.23-10.29,14.33-.92,6.06,1.24,12.5,5.61,16.78,1.19,1.17,2.58,2.24,3.21,3.79,1.15,2.87-.75,5.95-1.55,8.93-1.55,5.78,1.36,12.15,6.12,15.77s11.03,4.78,17,4.41,11.75-2.14,17.47-3.9c-.98.3,1.13,5.72,1.56,6.39,1.08,1.69,2.25,2.24,4.29,2.54,4.54.68,9.59-1.43,11.95-5.45,3.93,4.99,10.81,7.46,17.01,6.11,7.8-1.69,15.99-10.93,12.95-19.26,8.45-2.84,16.54-7.38,22.24-14.23,5.71-6.85,8.76-16.23,6.74-24.92-2.02-8.69-9.7-16.14-18.61-16.59,5.63-5.14,7.33-13.94,4.55-21.04s-9.61-12.3-17.1-13.7c-7.5-1.4-15.46.81-21.59,5.35,2.76-2.05-10.82-11.14-12.17-12-2.05-1.32-4.62-3.32-7.11-3.68-5.71-.81-12.5.39-17.41,3.46-2.5,1.56-4.68,3.62-6.41,6.01Z"/>
      <polygon class="cls-22" points="384.25 663.77 387.4 581.59 388.4 581.59 391.55 663.77 384.25 663.77 384.25 663.77"/>
      <g>
        <path class="cls-4" d="M682.34,610.98c15.79,4.03,33.65-1.64,44.22-14.05,3.97-4.66,7-10.33,7.48-16.44s-1.94-12.61-6.98-16.08c12.57-2.09,21.74-16.12,18.62-28.47-3.12-12.35-17.85-20.34-29.9-16.21,6.24-17.44-2.95-38.93-19.86-46.47-16.92-7.54-39.03-.01-47.83,16.29-6.86-11.68-20.06-19.35-33.6-19.53-13.54-.18-26.94,7.13-34.11,18.62-7.17,11.49-7.86,26.74-1.75,38.83-11.68,4.79-22.24,13.1-27.91,24.37-5.68,11.27-5.83,25.63,1.22,36.1s21.71,15.71,33.2,10.51c-7.81,2.4-12.36,11.76-10.27,19.66,2.1,7.9,9.92,13.61,18.07,14.15,8.15.55,16.23-3.61,21.38-9.95-2.58,3.18-3.7,6.11-2.47,10.27.98,3.31,3.83,7.46,7.23,8.56,8.41,2.72,18.97-2.01,23.86-8.94,4.51,3,10.08,4.37,15.47,3.82,12.18-1.26,22.97-12.92,23.95-25.03Z"/>
        <polygon class="cls-22" points="635 676.77 639.36 537.91 640.36 537.91 644.73 676.77 635 676.77 635 676.77"/>
        <path class="cls-22" d="M637.81,633.06c-7.68-19.69-18.12-38.44-30.99-55.51l.77-.63c14.27,16.04,26.42,34.13,35.93,53.64l-5.71,2.51h0Z"/>
        <path class="cls-22" d="M638.78,602.19c5.87-13.51,14.77-25.59,25.79-35.13l.67.74c-10.45,9.94-18.58,22.2-23.64,35.54l-2.82-1.15h0Z"/>
      </g>
      <g>
        <path class="cls-4" d="M494.08,598.5c9.86-3.04,17.63-11.3,20.07-21.35,7.06,3.61,15.84,3.03,21.82-1.43,5.98-4.46,8.88-12.6,7.2-20.22,17.77-1.41,33.83-12.49,41.1-28.36,2.29-5,3.76-10.64,2.77-16.26s-4.87-11.17-10.36-12.96c8.51-10.61,13.05-24.67,11.29-38.72-1.76-14.04-10.16-27.8-22.63-35.18-12.47-7.38-28.79-7.66-39.88.24,1.08-.77-7.05-13.04-7.92-14.23-3.22-4.41-6.97-8.4-11.09-11.97-8.21-7.12-19.03-11.69-29.9-13.32-13.53-2.02-26.41,3.17-33.15,15.39-5.52-4.4-12.77-6.57-19.8-5.93-12.27,1.12-23.15,10.81-23.19,23.61-13.59-3.97-25.25,1.96-36.5,8.89-13.07,8.05-18.73,22.51-15.46,38.2,2.18,10.48,7.89,20.22,15.05,28.49,1.29,1.49,2.72,3.26,2.36,5.1-.31,1.59-1.85,2.51-3.19,3.37-7.95,5.1-13.07,14.07-13.8,23.69-.68,9.08,5.5,19.43,12.43,25.47,9.4,8.19,21.72,12.02,33.76,13.83-.1,5.51,3.34,11.17,8.38,13.81,3.06,1.6,6.62,2.03,9.84,1.36,1.23-.26,6.77-2,6.82-3.63-.48,16.76,17.92,31.1,33.73,26.05,5.34-1.71,9.82-5.58,12.25-10.58,5.47,9.44,19.33,9.3,28,6.63Z"/>
        <polygon class="cls-22" points="453.4 658.26 457.21 469.48 458.21 469.48 462.02 658.26 453.4 658.26 453.4 658.26"/>
        <path class="cls-22" d="M456.93,589.12c-1.53-1.17-1.53-1.66-1.06-3,.4-1.59,1.88-5.91,2.44-7.51,6.01-16.42,15.78-31.55,28.39-43.65,5.05-4.81,10.49-9.19,16.35-12.89,0,0,.58.81.58.81-5.32,4.35-10.33,9.01-14.9,14.07-10.29,11.27-18.53,24.38-24.27,38.5-1.34,3.39-3.16,8.46-4.08,11.97-.1.28-.2.94-.42,1.2-.29.36-.88.63-2.06.76,0,0-.97-.26-.97-.26h0Z"/>
        <path class="cls-22" d="M455.39,559.97c-8.89-21.49-24.91-40.24-45.19-52.48l.49-.87c21.15,11.17,38.76,29.33,49.35,51.27l-4.65,2.09h0Z"/>
      </g>
      <path class="cls-4" d="M211.16,590.78c1.28-.33,2.55-.72,3.8-1.16,16.31-5.81,28.34-21.16,30.21-38.56-.16,1.45,13.43-1.72,14.5-2.22,4.93-2.28,9.36-6.13,11.86-10.97,3.84-7.41,3.31-16.79-.52-24.54-1.89-3.83-5.11-5.86-2.04-9.42,2.16-2.5,8.34-2.91,11.39-4.09,15.66-6.08,28.35-19.05,33.55-35.11,6.53-20.17.95-44.4-14-60.84-14.95-16.44-38.66-24.41-59.54-20.03,2.7-.57,1.16-12.25.71-14.09-1.28-5.3-4.18-10.39-8.29-14.13-6.67-6.08-21.78-6.83-23.68,3.81.08-26.23-19.53-51.79-44.4-60.79-13.5-4.89-22.97-6.43-35.19.93-5.72,3.45-10.76,7.98-14.76,13.31-.87,1.15-8.9,15.45-7.94,15.71-17.87-5.01-37.51-1.17-51.31,10.03-13.79,11.2-21.4,29.49-19.86,47.77-14.01-1.41-28.18,2.72-38.75,11.29-11.07,8.97-21.17,24.57-15.84,39.27,5.35,14.73,14.56,28.38,29.79,34.38-11.02,2.91-17.94,15.53-14.7,26.79,3.24,11.27,16.1,19.28,27.3,17.02-10.77,15.98-15.68,38.52-4.49,55.5,8.81,13.37,25.63,19.88,41.23,19.87,15.59-.01,30.29-5.53,44.36-11.48-4.1,1.73,2.71,20.18,5.93,22.77,7.71,6.2,22.78,4.81,30.91,1.97,11.1-3.88,19.99-12.99,23.6-24.18,12.71,10.92,30.66,15.15,46.17,11.16Z"/>
      <polygon class="cls-22" points="124.43 699.42 134.94 395.07 135.94 395.07 146.44 699.42 124.43 699.42 124.43 699.42"/>
      <path class="cls-22" d="M129.57,592.02c12.12-43.59,39.68-81.96,75.98-107.01l.6.8c-34.26,27.41-58.03,66.73-66.51,108.64l-10.07-2.43h0Z"/>
      <path class="cls-22" d="M132.77,549.12c-13.48-33.97-37.39-58.49-63.71-82.89,0,0,.67-.74.67-.74,20.22,17.36,40.58,35.22,55.25,57.76,4.95,7.49,9.34,15.37,13.13,23.54l-5.34,2.33h0Z"/>
      <path class="cls-22" d="M132.46,488.3c6.63-14.7,16.56-27.72,28.72-37.86l.67.74c-11.2,10.97-19.77,24.42-24.95,38.92l-4.44-1.79h0Z"/>
    </g>
    <path class="cls-12" d="M578.79,945.59c6.46-16.49,25.43-27.03,42.84-23.8,0-19.97,21.65-36.84,41.01-31.93,2.22-22.44,17.01-43.21,37.48-52.64,20.47-9.43,45.87-7.17,64.35,5.73.21-9.26,6.25-18.14,14.78-21.73s19.1-1.72,25.87,4.6c-1.03-25.88,20.34-48.93,45.21-56.14,24.87-7.21,51.87-1.31,75.48,9.32,6.5-14.49,21.44-23.79,36.89-27.49s31.59-2.6,47.43-1.49c-2.89,68.06-.11,136.36,8.31,203.95"/>
    <path class="cls-12" d="M418.33,950.28c3.22-9.46.61-20.65-6.46-27.71-7.07-7.06-18.25-9.67-27.71-6.44-1.15-15.86-10.96-30.83-25.05-38.21-14.21-7.45-31.64-6.75-45.53,1.04,1.47-5.91,3.62-8.07.33-14.09-2.79-5.1-7.36-9.31-12.66-11.68-8.01-3.57-17.75-2.94-25.23,1.64.33-28.25-21.26-54.22-48.2-62.72-26.94-8.5-57.4-1.05-80.08,15.79-.93-10.83-9.52-20.55-20.14-22.81s-22.43,3.13-27.68,12.64c-2.19-16.66-12.96-31.95-27.91-39.61-16.89-8.66-40.65-7.06-56.4,3.6-2.92-8.96-6.14-18.37-13.26-24.55-7.11-6.18-19.44-7.38-25.24.04-2.53,3.24-3.39,7.44-4.15,11.48-13.39,71.22-18.55,143.98-15.35,216.38"/>
    <path class="cls-8" d="M535.4,943.41c4.59-12.91,9.86-24.31,24.01-28.5,6.53-1.94,13.47-2.07,20.25-1.48,1.72.15,3.62.3,5.03-.72,1.28-.92,1.78-2.55,2.29-4.04,3.16-9.27,9.61-17.39,17.94-22.55,21.77-13.5,54.36-5.41,70.34,13.52,9.89-17.83,30.26-29.29,50.63-28.5s39.79,13.79,48.28,32.33c7.31-9.71,21.3-13.74,32.65-9.41,11.35,4.33,19.1,16.66,18.08,28.78,11.66-3.64,24.98-1.49,34.9,5.64,9.92,7.13,16.2,19.08,16.46,31.29"/>
    <path class="cls-8" d="M1004.07,811.64c-13.59-10.22-32.49-12.93-48.4-6.95-15.92,5.98-28.35,20.47-31.85,37.11-12.75-12.07-32.71-15.84-48.97-9.24-16.27,6.6-27.97,23.21-28.71,40.75-7.72-.5-15.55-1-23.11.64s-14.93,5.73-18.78,12.44c-3.85,6.71-3.2,16.22,2.73,21.19-7.96-.27-15.45,4.61-20.07,11.1-4.62,6.49-6.78,14.4-8.19,22.24-.72,4.01-.92,8.93,2.4,11.28,1.77,1.26,4.08,1.38,6.25,1.45,72.23,2.51,144.45,5.02,216.68,7.53"/>
    <path class="cls-8" d="M326.81,944.4c1.49-10.74-3.85-22.13-13.06-27.86s-21.79-5.46-30.75.64c2.24-8.13-2.91-17.1-10.45-20.86s-16.74-2.96-24.5.33c-7.76,3.29-14.33,8.83-20.51,14.57,1.33-17.38-10.12-34.96-26.55-40.76-16.44-5.8-36.38.69-46.25,15.06-1.83-12.02-16.24-18.64-28.21-16.52-11.96,2.12-21.81,10.32-31.05,18.22-1.61-13.25-4.57-26.57-11.17-38.17-6.6-11.6-17.23-21.38-30.16-24.64-12.94-3.26-28.07,1.05-35.61,12.06-.28-17.39-12.5-33.94-29.02-39.35-7.78,49.33-9.97,99.53-6.52,149.35"/>
    <rect class="cls-5" x="845.03" y="348.33" width="11.99" height="13.44"/>
    <rect class="cls-5" x="845.03" y="367.14" width="11.99" height="13.44"/>
    <rect class="cls-5" x="862.81" y="348.33" width="11.99" height="13.44"/>
    <rect class="cls-5" x="360.3" y="363.05" width="9.81" height="14.28"/>
    <rect class="cls-5" x="360.3" y="383.35" width="9.81" height="14.28"/>
    <rect class="cls-5" x="634.63" y="417.35" width="9.81" height="14.28"/>
    <rect class="cls-5" x="649.81" y="417.35" width="9.81" height="14.28"/>
    <rect class="cls-5" x="634.63" y="437.65" width="9.81" height="14.28"/>
    <rect class="cls-5" x="937.54" y="395.49" width="32.27" height="6.93"/>
    <rect class="cls-5" x="937.54" y="407.21" width="32.27" height="6.93"/>
    <rect class="cls-5" x="450.75" y="326.2" width="8.87" height="8.87"/>
    <rect class="cls-5" x="436.27" y="326.2" width="8.87" height="8.87"/>
    <rect class="cls-5" x="450.75" y="339.42" width="8.87" height="8.87"/>
    <rect class="cls-5" x="407.66" y="383.03" width="8.87" height="8.87"/>
    <rect class="cls-5" x="407.66" y="396.25" width="8.87" height="8.87"/>
    <path class="cls-8" d="M634.29,829.65c-13.92-1.4-27.87-2.5-41.83-3.32-23.96-1.42-47.97-2.06-71.98-2.13-32.75-.1-65.51,1.15-98.27,2.03-17.8.48-35.62.96-53.36,2.57-5.25.48-43.81,2.07-38.94,13.37.76,1.77,3.83,3.04,5.49,3.89,4.79,2.46,10.34,3.6,15.57,4.69,12.27,2.55,24.79,3.93,37.25,5.16,10.14,1,20.23,2.09,30.33,1.1,5.17-.51,10.8,1.1,15.93,1.73,5.91.73,11.83,1.34,17.76,1.85,23.75,2.04,47.62,2.39,71.44,1.51,22.43-.82,44.8-2.73,67.08-5.36,13.24-1.56,26.49-3.38,39.43-6.64,6.54-1.65,12.77-4.52,19.26-6.16,2.85-.72,12.37-1.68,11.63-6.37-.68-4.32-14.77-6.7-26.8-7.91Z"/>
    <g>
      <path class="cls-17" d="M726.11,452.66c-1.34-3.36-3.96-5.96-7-7.29,2.87-9.96-1.33-22.02-10.61-28.1-8.06-5.28-19.08-5.85-28.57-1.88-1.2-8.22-4.9-16.15-10.6-22.47-.06-.07-.12-.13-.19-.2-.18-.2-.36-.4-.56-.6,1.4-1.76,2.6-3.66,3.58-5.68,3.25,1.08,6.15,1.82,8.93,2.3,2.55.44,5.03.65,7.41.63,8.06-.09,15.42-3.04,20.17-8.08,4.44-4.71,6.38-11.14,5.45-17,2.49-.76,4.85-2.17,6.9-4.17,3.9-3.79,6.06-9.13,5.77-14.27-.47-8.81-7.29-17.15-16.6-20.29-7.07-2.39-14.27-1.76-20.12-.3-1.14-5.3-4.81-10.06-9.87-12.21-4.29-1.83-9.24-1.63-13.47.21-2.23-12.63-10.57-24.52-22.31-31.06-5.44-3.03-11.5-4.96-17.82-5.73-.42-1.16-.93-2.29-1.53-3.38-1.98-3.59-4.79-6.35-8.07-8.01.34-1.29.48-2.68.41-4.15-.3-6.16-4.17-12.33-7.84-15.24-2.82-2.24-6.22-3.64-9.76-4.08.36-11.61-5.17-23.76-15.11-32.62-6.23-5.55-13.42-9.88-21.38-12.86-21.8-8.15-46.64-4.89-64.84,8.5-2.52,1.85-4.94,3.91-7.16,6.12-.15.14-.39.37-.7.65-.45.42-.89.83-1.29,1.21-3.04-4.08-7.95-6.82-13.08-6.82h-.1c-5.13.04-9.99,2.79-12.99,6.89-13.49-14.99-35.73-21.49-54.48-15.17-19.59,6.59-33.07,26.62-32.41,46.6-2.26.01-4.52.38-6.12.72-5.29,1.12-9.79,5.26-11.47,10.55-1.16,3.67-.89,7.67.63,11.15-4.63,2.63-8.43,6.81-10.75,11.7-.25-.02-.5-.04-.74-.05-16.44-1.02-29.18,1.52-38.94,7.76-9.7,6.2-17.78,18.66-16.26,31.39-12.77-.35-21.82,3.88-25.8,12.19-2.26,4.73-2.53,10.21-.88,15.12-6.35,3.53-12.16,10.09-12.71,17.17-.7,9.11,3.65,16.55,11.94,20.42,5.02,2.34,11.1,3.2,17.06,2.74.66,1.29,1.39,2.53,2.13,3.74.19.3.62,1,.79,1.44-.15.18-.35.4-.51.57-.16.18-.33.36-.48.54-4.94,5.67-5.23,13.98-.73,21.18,2.79,4.47,7.13,7.86,12.04,9.73-3.62,2.8-6.71,6.41-8.92,10.62-3.58,6.82-4.58,15.01-2.74,22.51-.14.06-.27.11-.39.16l-.52.21c-4.25,1.75-7.61,5.4-9.22,10.01-.77,2.18-1.08,4.42-.94,6.65.41,6.63,4.72,12.81,10.96,15.73,5.71,2.68,11.86,2.52,18.34-.44,1.45,5,5.22,9.31,10.26,11.1,5.27,1.86,11.22.7,15.55-2.62.07.09.13.19.21.28-.12,1.29-.16,2.57-.1,3.85.26,5.83,2.36,10.88,5.92,14.2,2.52,2.35,5.73,3.68,8.93,3.89-.04.57-.07,1.14-.07,1.71,0,4.41,1.3,8.97,3.84,13,1.88,2.99,4.35,5.5,7.14,7.27,7.25,4.6,17.27,4.78,25.26,1,.39,1.71.95,3.39,1.66,5.02,1.71,3.88,4.28,6.89,6.99,9.87,4.28,4.73,11.38,7.5,18.48,7.5,1.82,0,3.65-.18,5.43-.56,6.54-1.4,12.41-5.38,16.25-10.82,1.6.94,3.42,1.56,5.4,1.81,1.05.13,2.12.16,3.19.08,13.42,15.59,25.12,32.61,34.73,50.68-.07,4.4-.14,8.76-.2,13.09-.28,19.49-.5,39.86-.64,60.54-.04,6.69-.17,13.37-.29,19.83-.23,12.64-.47,25.72-.11,38.96.6,22.02-.16,44.26-2.24,66.11-1.2,12.53-4.6,20.51-11.74,27.52l-.25.24c-1.16,1.07-3.86,3.59-2.81,6.85.87,2.79,3.96,3.61,6.68,4.34l.33.09c3.77,1.14,7.56,1.51,10.44,1.71,2.11.14,4.23.2,6.28.26,4.51.13,8.76.25,12.87,1.17,1.44.31,2.88.74,4.42,1.19,2.29.67,4.65,1.37,7.14,1.74,1.08.17,2.13.27,3.23.29h.45c5.49,0,10.39-1.98,15.14-3.9.67-.27,1.33-.54,1.99-.8,3.18-1.25,6.58-2.4,9.93-2.4h.07c.22,0,.87.08,1.34.14,2.64.34,6.25.8,8.93-1.31,1.37-1.08,2.2-2.62,2.41-4.45h0c.35-3.21-1.84-5.44-2.89-6.52-6.78-6.93-12.17-16.32-16.04-27.93-5.46-16.39-7.46-34.02-9.39-51.07-.33-2.94-.67-5.89-1.02-8.82-2.95-24.76-5.04-45.15-6.59-64.18-1.09-13.39-1.87-25.6-2.39-37.31-.14-2.99-.26-5.99-.37-8.99h0c-.11-3.24-.2-6.47-.28-9.69-.04-1.84-.18-3.78-.31-5.67-.29-4.08-.59-8.3.02-11.7,1.28-7.06,2.7-14.04,4.25-20.95,15.09-12.37,33.03-22.78,53.4-30.99,3.39-1.36,6.81-2.65,10.26-3.85,3.58.92,7.26,1.09,10.27.59,5.45-.92,10.56-3.72,14.32-7.76,8.37,6.62,18.92,10.6,29.56,11.04.77.03,1.52.04,2.29.04h.03c.1,0,.21,0,.31-.01,6.53-.07,13.18-1.47,19.23-4.02,6.66-2.8,11.84-7.15,16.81-11.44,3.34,1.87,7.14,2.78,10.94,2.78,5.79,0,11.59-2.13,15.78-6.32,7.97-7.98,7.23-20.65,4.18-29.07-2.13-5.89-6.24-10.49-11.27-12.62-2.65-1.12-5.54-1.48-8.28-1.14,1.51-1.76,2.83-3.68,3.94-5.72,5.78,2.8,12.44,3.87,18.92,2.95.1-.01.2-.02.31-.04,1.66-.26,3.28-.65,4.85-1.14,4.66-1.5,8.94-4.15,12.48-7.57,3.54-3.43,6.32-7.63,7.97-12.23,1.86-5.16,1.97-10.04.34-14.1ZM518.05,550.47c2.6-8.75,5.45-17.35,8.53-25.81.01-.01.01-.02.01-.02.06-.13.11-.25.16-.38,1.25-3.44,2.55-6.85,3.89-10.24,1.21.79,2.52,1.48,3.94,2.02,1.68.63,3.43,1.04,5.24,1.21.47,3.55,1.71,7.01,3.74,10.09,3.46,5.24,9.65,8.12,15.52,7.81.02.14.03.27.06.41-14.37,3.8-28.16,8.78-41.09,14.9ZM502.27,513.65c-.03-.99-.06-1.97-.09-2.94-.03-.97-.06-1.93-.09-2.89,3.29-.94,6.4-2.32,9.34-3.9-3.09,6.69-6.04,13.47-8.83,20.35l-.04-1.39c-.09-2.95-.19-5.83-.28-8.64v-.15c0-.14-.01-.29-.01-.43ZM472.22,548.27c-.07,3.07-.14,6.14-.21,9.21-.04,1.8-.08,3.6-.11,5.4-3.91-4.69-7.96-9.25-12.14-13.69,4.19.47,8.43.15,12.46-.92Z"/>
      <g>
        <path class="cls-3" d="M455.42,300.98c-6.94,4.29-11.67,11.56-14.21,19.32s-3.08,16.02-3.13,24.18c-.09,15.01,1.46,30.16,6.26,44.38,4.8,14.22,13.02,27.51,24.72,36.9,16.5,13.23,38.24,17.69,59.23,20.26,18.21,2.23,36.59,3.36,54.93,2.8,10.93-.34,22.67-1.59,30.95-8.75,6.33-5.46,9.66-13.57,12.19-21.53,3.71-11.63,6.21-23.76,5.88-35.96-.78-28.5-17.48-55.12-40.37-72.11-22.89-16.99-51.35-25.19-79.73-27.89-8.42-.8-17.03-1.13-25.23.94-8.2,2.08-16.04,6.85-20.17,14.23"/>
        <path class="cls-6" d="M474.95,495.35c3.91,7.88,14.05,10.97,22.71,9.42s16.17-6.7,23.37-11.75c3.18,7.76,7.13,16.3,14.97,19.29,7.33,2.79,15.69-.41,21.92-5.19,10.47-8.03,17.37-21.37,15.51-34.43,6.26,4.86,16.1,3.51,21.58-2.22s6.62-14.82,3.74-22.21-9.3-13.04-16.61-16.11-15.43-3.74-23.34-3.18c2.85-10.05-3.28-21.79-13.15-25.18s-21.93,2.09-25.86,11.76c-4.24-7.79-12.86-12.99-21.72-13.11s-17.62,4.86-22.05,12.53c-6.21-11.48-18.67-20.95-31.52-18.65-9.32,1.66-16.9,9.43-19.67,18.48s-1.15,19.07,3.06,27.55,10.84,15.55,18.12,21.59c-7.6,2.97-12.93,10.96-12.78,19.12s5.8,15.93,13.5,18.61c7.71,2.68,16.95.08,22.13-6.23"/>
        <path class="cls-13" d="M529.57,489.64c31.34-23.27,69.18-37.03,107.52-39.47l.09,1c-37.95,4.51-74.19,20.18-103.1,44.22l-4.51-5.75h0Z"/>
        <path class="cls-6" d="M722.01,465.41c-2.91,8.1-9.73,14.7-17.92,17.34-1.39.44-2.81.77-4.25,1-7.06,1.06-14.54-.58-20.42-4.63-3.76,10.33-13.75,18.11-24.69,19.21-10.94,1.1-22.28-4.53-28.02-13.91-6.52,4.52-13.53,8.58-21.25,10.4-7.72,1.82-16.29,1.17-22.92-3.19-6.63-4.36-10.75-12.85-8.69-20.52-4.28,3.03-9.75,4.57-14.89,3.52-5.58-1.13-9.4-5.05-11.34-9.89-2-5.01-2-11,.14-15.94,2.88-6.67,9.52-11.57,16.74-12.36-.97,0-.8-7.67-.7-8.4.44-3.04,1.59-6,3.38-8.5,3.65-5.09,8.58-8.69,14.97-9.42,6.7-.77,13.52,1.57,19,5.5,1.85-12.53,10.44-23.86,22-29.02,11.57-5.15,25.73-3.97,36.28,3.02,2.55,1.69,4.88,3.71,6.93,5.98,6.42,7.11,10.17,16.66,9.98,26.27,8.75-5.99,21.1-7.06,29.97-1.25,8.87,5.81,12.69,18.83,7.09,27.85,3.78-.67,7.57,2.11,9,5.68,1.43,3.56.91,7.64-.39,11.26Z"/>
        <path class="cls-6" d="M349.96,530.92c1.53,2.43,3.54,4.53,5.9,6.02,7.87,4.99,19.59,3.63,26.42-2.57-.62.56.26,4.38.41,5.16.34,1.78.89,3.53,1.62,5.19,1.49,3.41,3.82,6.08,6.28,8.8,4.79,5.28,13.31,7.16,20.11,5.71,7.08-1.51,13.29-6.64,16.1-13.31,3.65,5.86,12.37,5.36,16.9,1.04,1.24-1.18,2.23-4.73,3.32-5.43,1.42-.92,4.05,1.26,5.82,1.93,9.04,3.43,19.84,2.23,27.71-3.46,7.73-5.58,12.3-15.25,12.03-24.75-.28-9.93.88-22.5-3.22-31.75-2.71-6.11-7.82-10.83-13.24-14.73-8.95-6.44-19.59-11.25-30.61-10.86s-22.26,6.97-25.73,17.44c-7.75-5.61-16.58-10.01-26.05-11.32-9.17-1.28-20.53.04-29.57,2.07-8.27,1.86-16.31,5.43-22.44,11.29-6.12,5.86-10.15,14.18-9.78,22.65.19,4.22,1.56,8.57,4.65,11.45,3.02,2.81,7.96,3.9,11.59,1.64-2.61,5.65-1.56,12.49,1.76,17.77Z"/>
        <path class="cls-13" d="M481.24,616.3c-28.78-62.1-81.85-114.11-146.9-141.86,0,0,.35-.94.35-.94,68.23,22.51,127.5,71.19,163.42,134.05,0,0-16.87,8.74-16.87,8.74h0Z"/>
        <path class="cls-13" d="M431.9,539.58c-10.11-25.25-15.16-52.22-14.98-78.93l1-.04c2.3,26.48,9.78,52.25,21.7,75.45l-7.72,3.51h0Z"/>
        <path class="cls-20" d="M455.17,486.31c-8.72,4.74-20.44,3.4-27.62-3.45-3.8,7.67-11.83,13.07-20.36,13.71-8.54.64-17.27-3.51-22.18-10.52-5.82,8.25-14.17,15.16-23.84,17.74-1.4.37-2.83.66-4.29.84-11.48,1.44-24.18-4.63-28.2-15.48-2.78,5.15-9.53,7.76-15.05,5.81-5.52-1.96-9.13-8.23-8.05-13.98-6.04,4.19-13.01,6.83-20.18,3.47-4.78-2.24-8.34-7.09-8.67-12.36-.11-1.72.15-3.45.72-5.07,1.18-3.37,3.67-6.28,6.97-7.64,1.37-.57,3.06-1.08,3.49-2.51.24-.77.01-1.6-.19-2.39-1.65-6.6-.79-13.79,2.37-19.81,4.45-8.46,13.46-14.71,23.05-14.84,4.09-.05,8.15.67,12.01,2.01,5.47,1.9,10.54,5.04,14.73,8.97.36.34.72.68,1.06,1.03,2.68-5.86,8.35-10.16,14.62-11.48,2.23-.48,20.6,1.67,19.95,3.29,4-9.91,14.32-16.92,25-16.99,10.68-.08,21.1,6.78,25.24,16.62,5.22-2.77,11.9-2.55,16.91.57,3.62,2.26,6.28,5.97,7.39,10.08.45,1.67.17,3.82,1.21,5.01,1,1.16,3.85,1.94,5.2,2.9,6.36,4.52,10.88,11.74,11.66,19.55.98,9.87-4.24,20.18-12.95,24.93Z"/>
        <path class="cls-19" d="M455.17,486.31c-8.72,4.74-20.44,3.4-27.62-3.45-3.8,7.67-11.83,13.07-20.36,13.71-8.54.64-17.27-3.51-22.18-10.52-5.82,8.25-14.17,15.16-23.84,17.74,4.82-3.09,9.08-7.06,12.44-11.7,2.33-3.23,4.3-6.96,4.26-10.94-.03-3.97-2.61-8.14-6.52-8.85,6.29-1.97,11.54-7.01,13.79-13.21,2.24-6.2,1.41-13.44-2.16-18.98-2.53,6.37-9.21,10.85-16.06,10.78-6.85-.08-13.43-4.7-15.83-11.12-9.67,3.96-21.5-2.95-24.85-12.86-.56-1.66-.92-3.36-1.09-5.07,5.47,1.9,10.54,5.04,14.73,8.97.36.34.72.68,1.06,1.03,2.68-5.86,8.35-10.16,14.62-11.48,2.23-.48,20.6,1.67,19.95,3.29,4-9.91,14.32-16.92,25-16.99,10.68-.08,21.1,6.78,25.24,16.62,5.22-2.77,11.9-2.55,16.91.57,3.62,2.26,6.28,5.97,7.39,10.08.45,1.67.17,3.82,1.21,5.01,1,1.16,3.85,1.94,5.2,2.9,6.36,4.52,10.88,11.74,11.66,19.55.98,9.87-4.24,20.18-12.95,24.93Z"/>
        <path class="cls-6" d="M286.82,410.32c4.2,6.73,12.62,10.55,20.45,9.27,2.38-.39,4.86-1.19,7.15-.43,2.38.8,3.89,3.07,5.48,5.02,5.06,6.2,12.7,10.22,20.68,10.87s16.17-2.08,22.17-7.38c5.71,6.1,14.65,9,22.86,7.42,8.21-1.58,15.42-7.6,18.45-15.39,5.3,6.46,14.79,9.12,22.67,6.35s13.63-10.77,13.74-19.13c9.25-.66,17.76-7.42,20.5-16.28,1.28-4.14,1.22-9.08-1.63-12.34-4.42-5.05-12.49-3.56-18.92-1.64-1.04-8.83-6.33-16.85-13.41-22.23-7.08-5.38-15.82-8.28-24.64-9.39-9.25-1.16-18.92-.37-27.36,3.6s-15.48,11.38-17.76,20.42c-3.57-6.24-8.56-11.89-15.07-14.93s-14.68-3.07-20.55,1.08c-5.87,4.15-8.49,12.83-4.84,19.02-3.8-5.46-9.11-10.19-15.56-11.82-8.54-2.17-18.68,2.59-18.01,12.48.29,4.23,2.35,8.12,4.56,11.74.85,1.38,1.76,2.97,1.32,4.53-.3,1.08-1.19,1.88-1.93,2.73-4.17,4.79-3.55,11.31-.35,16.42Z"/>
        <path class="cls-13" d="M493,569.2c39.61-26.55,88.08-38.45,135.17-38.39,0,0,.05,1,.05,1-23.08,2.63-45.65,8.28-66.85,16.79-20.91,8.42-40.84,19.79-57.81,34.43,0,0-10.57-13.83-10.57-13.83h0Z"/>
        <path class="cls-7" d="M655.16,336.97c-41.96,34.28-77.62,76.2-103.78,123.54-24.75,44.51-41.07,93.2-50.09,143.01-1.01,5.61.09,12.47.22,18.17.08,3.25.17,6.5.28,9.75.11,3.01.23,6.02.37,9.03.56,12.49,1.39,24.97,2.4,37.44,1.75,21.49,4.06,42.92,6.61,64.33,2.43,20.38,4.05,41.08,10.58,60.68,3.62,10.85,8.99,21.3,16.98,29.47.9.92,1.91,2,1.77,3.28-.43,3.89-6.46,2.06-8.7,2.06-3.95-.02-7.82,1.25-11.46,2.68-5.2,2.05-10.46,4.53-16.04,4.42-.91-.02-1.8-.1-2.69-.24-3.83-.57-7.52-2.05-11.32-2.89-6.48-1.44-13.16-1.07-19.74-1.51-3.22-.22-6.45-.61-9.55-1.55-.75-.22-4.1-.99-4.35-1.79-.33-1.02,1.39-2.4,2.05-3.05,8.68-8.53,11.78-18.17,12.91-29.99,2.11-22.13,2.86-44.38,2.26-66.6-.54-19.86.27-38.8.4-58.65.14-20.17.35-40.34.64-60.51.29-20.16.66-40.33,1.1-60.48.22-10.08.46-20.16.72-30.24.14-5.24.28-10.48.42-15.72.1-3.39,1.66-10.23.38-13.3-25.15-60.65-69.59-112.96-118.6-156.54l1.58-1.94c28,21.13,54.2,44.85,77.75,71.27,14.79,16.66,28.48,34.37,40.34,53.27,0-40.88,4.98-87.58,15.37-187.05l2.5.11c-2.03,124.82-1.11,142.22,2.75,266.85,29.79-83,82.59-157.45,154.41-209.28l1.53,1.97Z"/>
        <path class="cls-13" d="M477.15,511.61c-.08,2.97-.16,5.94-.24,8.91,2.22-.52,4.48-1.3,6.8-2.39,5.04-2.37,9.78-3.79,14.57-3.93-3.06-98.34-3.67-122.75-1.82-236.77l-2.49-.11c-10.39,99.47-15.37,146.17-15.37,187.05-11.86-18.9-25.56-36.61-40.35-53.27-23.54-26.42-49.75-50.15-77.75-71.27,0,0-1.57,1.94-1.57,1.94,49.01,43.58,93.45,95.89,118.6,156.54,1.27,3.07-.29,9.92-.38,13.3Z"/>
        <path class="cls-13" d="M485.64,404.41c-7.91-20.04-23.45-37.4-43.16-47.6l.42-.91c20.67,8.73,38.28,25.25,48.42,45.99l-5.69,2.52h0Z"/>
        <path class="cls-13" d="M653.63,335c-63.72,45.99-112.46,109.79-143.45,181.56.41.17.82.34,1.24.54,3.97,1.86,7.59,4.15,11.57,5.8,7.83-21.45,17.25-42.35,28.39-62.38,26.16-47.35,61.82-89.26,103.78-123.54,0,0-1.53-1.98-1.52-1.98Z"/>
        <path class="cls-13" d="M552.91,444.54c6.06-35.76,4.6-72.94-4.39-108.41l.96-.27c10.5,35.19,13.61,72.74,8.95,109.49l-5.52-.82h0Z"/>
        <path class="cls-13" d="M439.53,427.71c-31.86-14.35-66.48-23.08-101.74-25.52l.04-1c35.46.19,71.08,6.73,104.65,19.35l-2.95,7.16h0Z"/>
        <path class="cls-20" d="M461.52,379.22c-6.86,3.61-16.93,4.98-24.61,4.52-7.01-.43-14.23-3.34-18.16-9.17-2.24,4.14-7.09,6.73-11.78,6.27-2.36-.23-4.61-1.22-6.44-2.72-1.74-1.42-2.49-3.49-3.9-4.99-2.17,1.56-3.91,3.98-6.01,5.72-2.13,1.76-4.4,3.33-6.79,4.71-4.66,2.67-9.76,4.59-15.04,5.59-9.21,1.75-18.85,1.01-27.29-3.23-1-.5-12.56-8.1-10.77-9.34-3.54,2.46-7.12,4.94-11.14,6.5s-8.59,2.13-12.65.69c-1.12-.4-2.2-.98-3.16-1.71-2.53-1.86-4.34-4.69-4.46-7.81-7.35,6.91-22.47,9-32.46,4.35-6.09-2.84-10.28-8.19-9.64-16.48.54-6.97,7.85-13.41,14.04-15.49-2.81-4.56-3.14-10.55-.83-15.38,4.74-9.91,17.76-10.68,27.32-9.52-4.31-11.86,2.65-25.63,13.28-32.42,10.64-6.8,23.94-7.92,36.54-7.14,7.12.44,14.42,1.5,20.56,5.15,6.13,3.64,10.86,10.39,10.27,17.5,8.88-11.17,24.41-16.59,38.31-13.36.22.05.43.1.65.17,13.61,3.42,24.85,14.99,27.84,28.72,3.68-2.74,9.33-1.68,12.47,1.67,3.13,3.34,3.98,8.38,3.08,12.88-.89,4.5-3.32,8.55-6.05,12.24,6.06-1.18,12.7,1.77,15.88,7.04,5.25,8.7-.75,20.67-9.06,25.05Z"/>
        <path class="cls-20" d="M708.85,360.91c2.96,5.64,1.28,13-3.09,17.63-4.37,4.64-10.93,6.76-17.3,6.83-2.25.02-4.48-.19-6.69-.57-4.05-.7-8.03-1.96-11.88-3.4-3.07,9.51-11.76,16.97-21.62,18.56-9.87,1.6-20.46-2.75-26.36-10.82-2.19,6.52-8.35,11.52-15.18,12.31-6.83.79-13.98-2.67-17.59-8.52-6.03,5.69-16.13,6.44-22.93,1.7-6.81-4.74-9.6-14.47-6.35-22.11-6.87,2.37-14.22,3.74-21.42,2.74-7.2-1-14.23-4.58-18.35-10.57-5.75-8.38-5.68-21.24.08-29.63.23-.34.47-.66.71-.98,4.63-5.98,12.18-9.56,19.73-9.36-.88-.03-.38-6.59-.26-7.25.42-2.35,1.27-4.89,2.86-6.7,3.15-3.58,8.51-4.93,13.09-4.55,5.07.43,9.81,2.73,13.99,5.62-.9-.62,4.93-8.15,5.58-8.83,2.25-2.4,4.27-4.94,6.67-7.23,5.35-5.09,11.6-9.27,18.47-12.02,2.81-1.12,5.73-2,8.71-2.6,11.07-2.29,22.91-.95,32.76,4.53,12.5,6.96,21.21,20.82,20.84,35.12,3.43-4.54,10.08-6.32,15.31-4.09,5.24,2.23,8.57,8.25,7.67,13.87,7.23-2.64,15.32-3.72,22.61-1.25,7.29,2.46,13.48,9.03,13.89,16.71.42,7.69-6.28,15.48-13.95,14.85Z"/>
        <path class="cls-20" d="M689.84,530.52c-6.25,6.25-17.29,6.88-24.21,1.36-5.73,4.92-10.99,9.8-18.04,12.76-5.69,2.4-11.84,3.68-18.02,3.72-.71,0-1.41-.01-2.12-.04-11.19-.46-22.17-5.11-30.3-12.83-3.16,5.04-8.55,8.62-14.41,9.6-8.56,1.44-23.22-4.05-19.02-15.31-5.55,3.18-13.29.72-16.82-4.63-4.84-7.32-4.28-17.74,1.57-24.34,4.23-4.75,10.9-7.21,17.2-6.31-2.09-6.43.94-14.14,6.86-17.41,2.21-1.22,4.74-1.78,7.26-1.71,4.21.1,8.41,1.92,11.12,5.16,2.74-9.34,10.87-16.89,20.39-18.91,6.17-1.32,12.75-.28,18.33,2.63,4.51,2.35,6.68,7.46,7.12,12.44,5.91-5.84,15.63-2.85,18.36,4.6,1.13,3.09.97,6.63-.43,9.61,2.53-3.04,7.12-4.15,10.77-2.6,3.64,1.54,6.03,5.62,5.61,9.55,3.07-3.56,8.63-4.35,12.96-2.52,4.34,1.84,7.47,5.88,9.07,10.3,2.86,7.89,3.04,18.57-3.25,24.88Z"/>
        <path class="cls-19" d="M461.52,379.22c-6.86,3.61-16.93,4.98-24.61,4.52-7.01-.43-14.23-3.34-18.16-9.17-2.24,4.14-7.09,6.73-11.78,6.27-2.36-.23-4.61-1.22-6.44-2.72-1.74-1.42-2.49-3.49-3.9-4.99-2.17,1.56-3.91,3.98-6.01,5.72-2.13,1.76-4.4,3.33-6.79,4.71-4.66,2.67-9.76,4.59-15.04,5.59-9.21,1.75-18.85,1.01-27.29-3.23-1-.5-12.56-8.1-10.77-9.34-3.54,2.46-7.12,4.94-11.14,6.5s-8.59,2.13-12.65.69c-1.12-.4-2.2-.98-3.16-1.71,13.74-.72,27.12-9.33,32.65-22.06,10.36,11.95,29.05,12.58,44.09,7.67,7.25-2.37,14.45-6.03,18.86-12.26,4.4-6.23,5.15-15.51.06-21.2,5.81,2.69,12.81,3.32,18.59.57,5.78-2.75,9.87-9.28,8.74-15.58-1.13-6.3-8.24-11.17-14.28-9.03,5.62-4,7.06-11.95,4.87-18.55,13.61,3.42,24.85,14.99,27.84,28.72,3.68-2.74,9.33-1.68,12.47,1.67,3.13,3.34,3.98,8.38,3.08,12.88-.89,4.5-3.32,8.55-6.05,12.24,6.06-1.18,12.7,1.77,15.88,7.04,5.25,8.7-.75,20.67-9.06,25.05Z"/>
        <path class="cls-19" d="M629.57,548.36c-.71,0-1.41-.01-2.12-.04-11.19-.46-22.17-5.11-30.3-12.83-3.16,5.04-8.55,8.62-14.41,9.6-8.56,1.44-23.22-4.05-19.02-15.31-5.55,3.18-13.29.72-16.82-4.63-4.84-7.32-4.28-17.74,1.57-24.34,4.23-4.75,10.9-7.21,17.2-6.31-2.09-6.43.94-14.14,6.86-17.41,2.21-1.22,4.74-1.78,7.26-1.71-3.01,7-2.18,15.61,2.37,21.77,5.22,7.05,14.98,10.39,23.43,8-4.45,5.45-4.19,14.16.58,19.34,4.76,5.17,13.43,6.14,19.23,2.16-4.07,5.16-3.28,13.08.74,18.28,1,1.29,2.16,2.43,3.43,3.43Z"/>
        <path class="cls-19" d="M681.77,384.8c-4.05-.7-8.03-1.96-11.88-3.4-3.07,9.51-11.76,16.97-21.62,18.56-9.87,1.6-20.46-2.75-26.36-10.82-2.19,6.52-8.35,11.52-15.18,12.31-6.83.79-13.98-2.67-17.59-8.52-6.03,5.69-16.13,6.44-22.93,1.7-6.81-4.74-9.6-14.47-6.35-22.11-6.87,2.37-14.22,3.74-21.42,2.74-7.2-1-14.23-4.58-18.35-10.57-5.75-8.38-5.68-21.24.08-29.63.23-.34.47-.66.71-.98,4.63-5.98,12.18-9.56,19.73-9.36-.88-.03-.38-6.59-.26-7.25.42-2.35,1.27-4.89,2.86-6.7,3.15-3.58,8.51-4.93,13.09-4.55,5.07.43,9.81,2.73,13.99,5.62-.9-.62,4.93-8.15,5.58-8.83,2.25-2.4,4.27-4.94,6.67-7.23,5.35-5.09,11.6-9.27,18.47-12.02,2.81-1.12,5.73-2,8.71-2.6-5.67,4.28-11.19,8.79-15.75,14.22-5.65,6.73-9.78,15.11-9.78,23.9-.01,8.79,4.76,17.85,12.82,21.35-7.57,3.47-11.32,13.07-9.03,21.08,2.3,8.01,9.82,13.95,18.02,15.39,8.2,1.44,16.81-1.24,23.48-6.22-1.6,8.33,7.54,15.66,16.01,15.22,8.48-.44,15.71-6.15,21.64-12.22,4.05,4.67,9.08,8.33,14.64,10.93Z"/>
        <path class="cls-19" d="M722.01,465.41c-2.91,8.1-9.73,14.7-17.92,17.34-1.39.44-2.81.77-4.25,1-1.1-.42-2.18-.89-3.24-1.42-8.68-4.35-15.48-12.27-18.56-21.49-3.03,8.08-13.95,11.99-21.43,7.68-7.47-4.31-9.55-15.72-4.08-22.4-6.15,5.39-15.88,6.19-22.83,1.89-6.95-4.3-10.57-13.36-8.49-21.28,5.25.95,10.95-1.24,14.21-5.47,3.26-4.22,3.94-10.29,1.69-15.13,6.04.37,12.23.71,17.99-1.12,4.81-1.52,9.3-4.9,11.26-9.42,6.42,7.11,10.17,16.66,9.98,26.27,8.75-5.99,21.1-7.06,29.97-1.25,8.87,5.81,12.69,18.83,7.09,27.85,3.78-.67,7.57,2.11,9,5.68,1.43,3.56.91,7.64-.39,11.26Z"/>
        <path class="cls-20" d="M622.46,291.9c-4.35,9.51-15.14,14.62-25.54,15.59-11.06,1.02-22.44-1.86-31.67-8.03-2.1,12.97-12.85,24.1-25.74,26.63-12.89,2.53-27.04-3.7-33.88-14.92-8.98,13.47-25.54,21.49-41.67,20.17-16.13-1.32-31.18-11.91-37.85-26.66-3.01,5.93-9.36,10.01-16,10.3-6.64.29-13.32-3.24-16.82-8.88-8,4.94-18.25,6.45-27.04,3.11-4.58-1.73-9.34-5.37-12.5-9.86-2.27-3.22-3.71-6.88-3.67-10.6,0-.23,0-.47.02-.7.41-8.77,6.66-17.2,15.11-19.75-2.91-3.04-3.99-7.71-2.72-11.73,1.22-3.83,4.55-7,8.49-7.84,1.81-.38,9.4-1.66,9.95,1.15-3.93-20.21,9.51-42.02,29.03-48.59,19.52-6.57,42.76,2.03,54.2,19.16.74-5.8,6.17-10.63,12.02-10.67,5.82-.04,11.29,4.65,12.16,10.4,0-1.48,4.82-5.64,5.79-6.6,2.1-2.08,4.35-4,6.72-5.74,17.68-13.01,41.04-15.46,61.07-7.97,7.29,2.73,14.14,6.77,20.12,12.1,9.4,8.38,15.51,21.21,13.36,33.61,4.11-.54,8.43.65,11.68,3.23,4.57,3.62,9.24,13.63,4.11,18.57,10.36,1.4,15.63,15.02,11.27,24.53Z"/>
        <path class="cls-19" d="M622.46,291.9c-4.35,9.51-15.14,14.62-25.54,15.59-11.06,1.02-22.44-1.86-31.67-8.03-2.1,12.97-12.85,24.1-25.74,26.63-12.89,2.53-27.04-3.7-33.88-14.92-8.98,13.47-25.54,21.49-41.67,20.17-16.13-1.32-31.18-11.91-37.85-26.66-3.01,5.93-9.36,10.01-16,10.3-6.64.29-13.32-3.24-16.82-8.88-8,4.94-18.25,6.45-27.04,3.11-4.58-1.73-9.34-5.37-12.5-9.86,8.09,3.89,17.41,5.23,26.24,3.59,11.95-2.21,22.78-9.84,28.9-20.35,3.63,9.48,13.72,16.07,23.86,15.58,10.13-.48,19.55-8.01,22.25-17.8,9.87,18.32,32.85,28.48,53.03,23.42,20.19-5.05,35.68-24.84,35.76-45.64,8.36,4.94,20.75.3,23.81-8.92,3.07-9.21-4.08-20.35-13.74-21.4,8.4-2.25,13.03-12.36,11.09-20.86-.58-2.55-1.63-4.93-3.03-7.11,7.29,2.73,14.14,6.77,20.12,12.1,9.4,8.38,15.51,21.21,13.36,33.61,4.11-.54,8.43.65,11.68,3.23,4.57,3.62,9.24,13.63,4.11,18.57,10.36,1.4,15.63,15.02,11.27,24.53Z"/>
        <path class="cls-20" d="M589.18,452.5c-6.17,4.64-15.34,4.8-21.68.38-5.36,13.35-19.94,22.38-34.28,21.25-6.47-.52-13.83-4.24-14.27-10.71-5.47,6.63-11.47,13.01-18.87,17.39-7.4,4.37-16.41,6.59-24.73,4.42-4.65-1.21-8.95-3.98-11.98-7.68-2.38-2.93-3.97-6.44-4.29-10.22-6.97,5.29-17.75,4.66-24.06-1.4-6.3-6.05-7.36-16.8-2.36-23.98-3.83,2.92-10.03.99-12.24-3.28-2.21-4.27-.76-9.84,2.69-13.2,3.45-3.35,8.48-4.7,13.29-4.53-.68-5.93,4.16-11.52,9.91-13.13,5.75-1.62,11.98.05,17.2,2.94.77-6.52,5.83-12.32,12.19-13.97,6.36-1.65,13.6.96,17.44,6.29,5.38-5.81,13.96-8.46,21.67-6.68,6.87,1.59,13.25,5.71,17.39,11.42-.41-.56,7.48-4.61,8.23-4.9,1.84-.73,3.74-1.28,5.68-1.63,1.3-.25,2.6-.4,3.92-.47,6.85-.36,14.24,1.25,20.24,4.58,5.4,3,9.93,7.96,11.29,13.98,1.36,6.02-1.01,13-6.35,16.07,3.01-1.21,6.17-2.25,9.42-2.21s6.63,1.3,8.54,3.93c3.45,4.74.7,11.82-3.99,15.34Z"/>
        <path class="cls-19" d="M589.18,452.5c-6.17,4.64-15.34,4.8-21.68.38-5.36,13.35-19.94,22.38-34.28,21.25-6.47-.52-13.83-4.24-14.27-10.71-5.47,6.63-11.47,13.01-18.87,17.39-7.4,4.37-16.41,6.59-24.73,4.42-4.65-1.21-8.95-3.98-11.98-7.68,18.37.77,36.82-12.29,41.49-30.24,5.28,2.19,10.83,4.06,16.55,4.06s11.69-2.16,15.12-6.74c3.42-4.59,3.48-11.77-.72-15.65,8.49.32,16.41-7.41,16.3-15.9-.06-4.59-2.47-8.91-6-11.8,1.3-.25,2.6-.4,3.92-.47,6.85-.36,14.24,1.25,20.24,4.58,5.4,3,9.93,7.96,11.29,13.98,1.36,6.02-1.01,13-6.35,16.07,3.01-1.21,6.17-2.25,9.42-2.21s6.63,1.3,8.54,3.93c3.45,4.74.7,11.82-3.99,15.34Z"/>
        <path class="cls-13" d="M540.5,835.68c-.43,3.89-6.46,2.06-8.7,2.06-3.95-.02-7.82,1.25-11.46,2.68-5.2,2.05-10.46,4.53-16.04,4.42-.91-.02-1.8-.1-2.69-.24.21-.12.41-.24.6-.35,3.95-2.32,6.17-6.86,6.82-11.39.66-4.54-.04-9.14-.71-13.67-9.06-62.09-11.26-125.17-6.53-187.74.11,3.01.23,6.02.37,9.03.56,12.49,1.39,24.97,2.4,37.44,1.75,21.49,4.06,42.92,6.61,64.33,2.43,20.38,4.05,41.08,10.58,60.68,3.62,10.85,8.99,21.3,16.98,29.47.9.92,1.91,2,1.77,3.28Z"/>
      </g>
    </g>
  </g>
  <path class="cls-18" d="M986,940H2c-1.1,0-2-.9-2-2V2C0,1.41.26.85.71.47,1.17.09,1.76-.07,2.35.03l984,173.56c.96.17,1.65,1,1.65,1.97v762.44c0,1.1-.9,2-2,2ZM4,936h980V177.24L4,4.38v931.61Z"/>
</svg>