<?xml version="1.0" encoding="UTF-8"?>
<svg id="Image" xmlns="http://www.w3.org/2000/svg" xmlns:xlink="http://www.w3.org/1999/xlink" viewBox="0 0 988 940">
  <defs>
    <style>
      .cls-1 {
        fill: #77ad9b;
      }

      .cls-2 {
        fill: #94ef8b;
      }

      .cls-3 {
        fill: #1cb829;
      }

      .cls-4 {
        fill: #d87625;
      }

      .cls-5 {
        fill: #93d2ad;
      }

      .cls-6 {
        fill: none;
      }

      .cls-7 {
        fill: #85baa8;
      }

      .cls-8 {
        fill: #93dba1;
      }

      .cls-9 {
        fill: #aa5217;
      }

      .cls-10 {
        fill: #87734c;
      }

      .cls-11 {
        fill: #93e596;
      }

      .cls-12 {
        fill: #92c8b8;
      }

      .cls-13 {
        fill: #6d3108;
      }

      .cls-14 {
        fill: #333;
      }

      .cls-15 {
        fill: #c0ebfc;
      }

      .cls-16 {
        fill: #34d434;
      }

      .cls-17 {
        fill: #a1c6dd;
      }

      .cls-18 {
        fill: #54f445;
      }

      .cls-19 {
        fill: #b0d9ed;
      }

      .cls-20 {
        clip-path: url(#clippath);
      }

      .cls-21 {
        fill: #af975a;
      }
    </style>
    <clipPath id="clippath">
      <polygon class="cls-6" points="2 938 2 2 986 175.56 986 938 2 938"/>
    </clipPath>
  </defs>
  <g class="cls-20">
    <rect class="cls-2" x="-68.55" y="565.23" width="1247.87" height="439.47"/>
    <rect class="cls-15" x="-65.29" y="-46.95" width="1086.63" height="703.7"/>
    <rect class="cls-17" x="625.21" y="407.64" width="87.31" height="98.43"/>
    <rect class="cls-19" x="835.03" y="338.39" width="74.68" height="167.19"/>
    <rect class="cls-19" x="321.74" y="351.16" width="57.2" height="167.19"/>
    <rect class="cls-17" x="168.4" y="287.13" width="74.68" height="167.19"/>
    <g>
      <rect class="cls-1" x="-17.3" y="584.6" width="1028.37" height="71.31"/>
      <path class="cls-12" d="M71.05,412.92c6.7-4.69,6.24-15.82.28-21.43-5.96-5.6-15.38-6.17-23.05-3.34,9.12-6.16,12.43-19.56,7.22-29.26-5.21-9.7-18.19-14.35-28.37-10.15,3.32-11.88.43-25.31-7.48-34.78-7.91-9.46-20.62-14.69-32.89-13.53-6.36,57.22-9.41,114.81-9.12,172.38.02,3.51.22,7.43,2.78,9.83,2.17,2.03,5.38,2.33,8.34,2.52,16.43,1.08,32.86,2.17,49.29,3.25,4.35-11.91-9.34-26.7-1.6-36.74,2.95-3.83,8.06-5.18,12.82-6.03,4.76-.85,9.84-1.55,13.56-4.65,3.72-3.1,5.06-9.59,1.28-12.61"/>
      <path class="cls-12" d="M912.47,443.55c-12.6-9.58-15.39-29.74-5.87-42.39,9.52-12.65,29.65-15.54,42.35-6.09-4.85-11.99,2.61-26.12,13.48-33.12,10.87-7,24.24-8.61,37.09-10.03-1.48,69.12-1.87,138.26-1.16,207.39-14.09-3.9-28.3-7.81-42.88-8.75s-29.76,1.3-42.21,8.96c-8.76-30.12-39.91-52.07-71.21-50.19,8-.48,10.35-14.98,11.41-20.86.91-5.03.22-9.67,2.57-14.45,2.59-5.27,7.13-9.56,12.32-12.22,7.98-4.1,17.28-4.83,26.24-4.34-.9-3.99.38-8.41,3.28-11.29,3.84-3.81,9.67-4.21,14.59-2.61Z"/>
      <path class="cls-12" d="M655.61,499.68c-2.28-7.07-.26-15.34,5.01-20.57,5.27-5.23,13.56-7.17,20.6-4.84-1.56-10.13,4.01-20.72,12.77-26.01,8.77-5.3,20.15-5.49,29.54-1.39,9.39,4.1,16.77,12.15,21.04,21.46,2.26,4.93,3.72,10.46,2.64,15.77-1.07,5.31-5.19,10.26-10.56,11-2.83.39-5.7-.38-8.55-.32-2.86.06-6.08,1.36-6.85,4.11-.58,2.09.43,4.24,1.18,6.28,3.84,10.48.2,23.09-8.23,30.4-8.43,7.31-21,9.21-31.46,5.32s-18.59-13.18-21.71-23.9"/>
      <path class="cls-12" d="M374.89,454.15c-7.97-5.16-20.01-2.22-24.71,6.03-4.22-13.62-17.49-23.92-31.72-24.63-14.24-.71-28.47,8.21-34.03,21.33-2.01,4.74-2.68,10.89,1.01,14.48-7.66,4.62-13.38,12.6-14.64,21.46-1.27,8.86,2.2,18.4,9.27,23.89,7.07,5.49,17.58,6.37,25.16,1.62.1,8.49,1.94,17.76,8.51,23.15,6.81,5.58,17.16,5.24,24.82.91,7.66-4.33,12.97-11.92,16.7-19.9,8.44,7.3,22.65,6.49,30.21-1.72s7.18-22.45-.79-30.25c-1.68-1.64-3.65-3.04-4.89-5.03-3-4.8,2.89-11.1,2.84-16.48-.05-5.78-2.79-11.67-7.72-14.86Z"/>
      <path class="cls-5" d="M665.92,520.49c5.57-6.2,5.58-16.62.02-22.83-5.55-6.21-15.91-7.36-22.69-2.52,2.77-11.19-4.59-23.9-15.67-27.07-11.08-3.16-24.05,3.75-27.6,14.71-2.45-8.78-12.3-14.77-21.22-12.9-8.92,1.87-15.54,11.31-14.25,20.34-9.49.49-18.61,5.78-23.75,13.78-2.89,4.5-4.54,10.19-2.76,15.23,1.37,3.88,4.61,6.87,8.24,8.8s7.67,2.93,11.66,3.91c-8.46,5.53-12.34,17.03-9.25,26.66,3.09,9.62,12.73,16.65,22.82,16.96,10.1.31,20.02-5.94,24.38-15.05,2.88,6.01,10.24,9.11,16.82,8.05s12.22-5.69,15.67-11.39c3.45-5.7,4.94-12.39,5.59-19.03,6.49,2.27,13.47,4.28,20.16,2.69,6.69-1.59,12.68-8.09,11.29-14.83"/>
      <path class="cls-8" d="M70.51,604.9c-.53,3.29.61,6.8,2.97,9.14,2.24,2.22,5.38,3.33,8.51,3.67,3.13.34,6.29-.03,9.42-.4-1.71,3.32-.82,7.64,1.73,10.36,2.56,2.72,6.51,3.89,10.22,3.5,3.71-.39,7.17-2.2,9.99-4.65-.04,3.95,2.71,7.66,6.35,9.18s7.97.98,11.39-1c3.42-1.98,5.96-5.26,7.49-8.9,4.63,4.1,10.67,6.89,16.85,6.59,6.18-.3,12.33-4.14,14.35-9.98s-1.09-13.27-7.01-15.07c4.26-8.23,1.46-19.43-6.17-24.69-7.63-5.26-19.08-3.89-25.26,3.01-3.57-5.31-10.21-8.38-16.57-7.68-6.36.71-12.16,5.17-14.48,11.14-2.53-3.78-6.19-6.94-10.57-8.19s-9.47-.35-12.7,2.86c-3.4,3.37-2.85,6.97-2.32,11.21.5,3.99-3.55,5.91-4.19,9.91Z"/>
      <path class="cls-8" d="M396.1,623.12c1.26,3.25,4.42,5.52,7.81,6.32s6.97.29,10.29-.76c-1.9,2.25-1.81,5.77-.19,8.23,1.62,2.46,4.48,3.91,7.39,4.34,2.91.43,5.89-.06,8.73-.81,1.53-.4,3.08-.88,4.65-.74,1.36.13,2.63.72,3.89,1.25,4.12,1.75,8.54,2.98,13.02,2.88,4.48-.09,9.03-1.61,12.23-4.75s4.81-8,3.52-12.29c4.16.15,8.63-1.01,11.33-4.18,2.7-3.17,2.83-8.63-.48-11.16,6.15-.84,10.66-7.4,9.93-13.56s-6.03-11.28-12.11-12.55-12.59.98-17.19,5.14c-5.44-6.8-11.51-14.01-19.98-16.02-4.68-1.11-9.6-.47-14.3.57-4.47.99-8.91,2.38-12.79,4.81s-7.17,6.02-8.56,10.39c-1.39,4.36-.63,9.52,2.5,12.86-4.37.97-6.92,4.67-7.82,8.81-.81,3.74-3.39,7.3-1.87,11.22Z"/>
      <path class="cls-7" d="M122.27,656.57h119.96c-.52-5.47-3.91-10.54-8.94-12.73s-11.23-1.42-15.58,1.93c-2.67-4.12-7.3-6.9-12.19-7.3s-9.92,1.57-13.23,5.2c-1.72-6.25-7.72-11.05-14.19-11.36-6.47-.3-12.9,3.92-15.2,9.97-3.62-4.88-10.33-7.23-16.2-5.67s-10.54,6.93-11.26,12.96c-3.68-1.88-8.14-2.16-12.02-.74-3.88,1.41-7.12,4.5-8.73,8.3"/>
      <path class="cls-7" d="M857.56,652.95c-.83-6.13-5.43-11.59-11.33-13.45s-12.8,0-16.98,4.55c-1.95-6.1-7.87-10.72-14.27-11.12-6.39-.4-12.84,3.45-15.53,9.27-4.63-5.67-12.43-8.55-19.63-7.25-7.2,1.3-13.51,6.72-15.87,13.65-4.47-2.16-9.8-2.48-14.5-.88-4.7,1.6-9.11,4.91-11.34,9.36h122.42"/>
      <path class="cls-7" d="M601.47,656.75h153.55c-3.03-5.28-11.19-7.05-16.6-4.25-1.88-3.22-5.37-5.45-9.09-5.78-3.71-.33-7.55,1.24-9.97,4.08-1.51-9.38-9.57-17.32-18.97-18.71-9.4-1.38-19.4,3.91-23.55,12.45-1.86-2.66-5.25-4.17-8.47-3.76-3.22.41-6.13,2.72-7.26,5.76-3.06-5.53-9.36-9.1-15.67-8.9s-12.37,4.17-15.07,9.89c-1.97-2.32-5.2-3.49-8.2-2.97s-5.65,2.7-6.73,5.54c-10.91-4.33-24.2-1.84-32.8,6.15"/>
      <path class="cls-7" d="M419.34,656.59h148.76c-6.84-9.42-20.46-13.24-31.28-8.96-.85-4.52-4.23-8.47-8.56-10.01s-9.45-.61-12.95,2.36c-3.07-8.19-9.68-15.31-18.12-17.58s-18.48,1.2-22.61,8.9c-2.56-7.14-10.47-11.94-17.99-10.92-7.52,1.02-13.86,7.76-14.42,15.33-3.62-3.49-9.87-3.77-13.79-.62s-4.99,9.32-2.37,13.6c-6.29-1.02-13.06,2.43-15.93,8.12"/>
      <polygon class="cls-10" points="547.6 655.9 548.81 591.32 549.81 591.32 551.02 655.9 547.6 655.9 547.6 655.9"/>
      <path class="cls-5" d="M562.4,647.34c2.23-5.62,8.04-9.63,14.09-9.72s11.97,3.75,14.36,9.31c1.49-2.48,4.85-3.44,7.62-2.63,2.78.81,4.94,3.11,6.18,5.72s1.65,5.54,1.86,8.42h-71.06c.69-2.79,2.48-5.26,5.19-6.2,1.12-.39,2.33-.53,3.51-.44,1.06.08,2.37.83,3.41.61,1.58-.34,1.93-2.68,2.7-3.86,2.67-4.11,8.69-4.74,12.14-1.22Z"/>
      <path class="cls-5" d="M242.73,658.45h196.29c-6.19-5.1-15.2-6.53-22.71-3.71,3.09-3.86-3.32-8.54-6.47-9.37-3.21-.84-6.79-.07-9.37,2.01-1.05-4.87-4.62-7-8.66-9.15-4.69-2.49-9.87-3.63-15.2-2.99-7.42.9-14.36,5.18-18.49,11.41-6.02-3.76-14.69-2.48-19.36,2.86-.45-8.36-6.53-16.14-14.54-18.58s-17.39.61-22.43,7.29c-4.41-5.02-11.94-7.03-18.26-4.88s-11.06,8.34-11.49,15.01c-3.31-3.57-9.81-3.37-12.89.4-12.79-6.71-34.26-3.09-41.34,9.51,7.96,0,14.93,0,24.92.16Z"/>
      <polygon class="cls-10" points="875.06 656.93 876.98 607.76 878.14 607.76 880.06 656.93 875.06 656.93 875.06 656.93"/>
      <path class="cls-5" d="M985.33,659.49c-.32.11-.63.32-.97.32h-153.69c.2,0,1.42-1.79,1.65-2.03.71-.74,1.5-1.4,2.34-1.99,1.58-1.12,3.31-1.86,5.19-2.33,3.93-.97,8.2-.64,11.9,1.02.4.18.83.38,1.27.3.65-.12,1.01-.79,1.32-1.37.84-1.6,1.9-3.11,3.31-4.22,3.58-2.83,8.94-2.88,12.9-.93,2.95,1.46,5.41,3.73,7.83,5.97,3.79-6.96,11.21-11.8,19.1-12.45s16.01,2.9,20.89,9.14c3.2-7.5,10.26-13.24,18.26-14.83,8-1.59,16.71,1,22.55,6.7.57-7.55,4.33-14.8,10.17-19.61s13.68-7.11,21.19-6.23"/>
      <path class="cls-5" d="M-2.94,661.94h151.04c-6.1-8.6-17.85-12.6-27.74-8.97.22-5.84-5.48-10.66-11.3-11.18-5.82-.52-11.46,2.27-16.15,5.77-2.59-8.19-9.74-14.77-18.11-16.68-8.37-1.9-17.66.94-23.54,7.21-1.86-7.36-8.08-13.44-15.48-15.11s-15.64,1.13-20.48,6.97c-5.78-5.91-15.97-6.81-22.7-2.01"/>
      <path class="cls-5" d="M167.06,625.08c5.62,3.11,13.21,2.12,17.86-2.32.46,3.97,3.53,7.5,7.4,8.5,3.87,1,8.27-.6,10.59-3.85,3.73,4.59,10.43,6.5,16.01,4.56,5.58-1.93,9.67-7.58,9.76-13.49,4.17,3.24,10.25,3.15,15.01.88,4.76-2.27,8.4-6.38,11.39-10.74,1.38-2.01,2.7-4.25,2.66-6.69s-1.99-4.99-4.42-4.79c5.8-3.39,8.56-10.81,7.39-17.43-1.17-6.62-5.76-12.3-11.45-15.87-4.5-2.82-9.85-4.47-15.13-3.91-5.28.57-10.4,3.55-12.88,8.25-.2-6.42-4.2-12.37-9.61-15.84-5.4-3.47-12.04-4.67-18.46-4.34-6.99.35-14.16,2.61-19.05,7.63s-6.9,13.14-3.58,19.3c-4.68,1.69-9.34,3.74-13.01,7.09-3.67,3.36-6.24,8.23-5.79,13.18,0,5.17,4.76,9.12,9.42,9.85-1.29,3.97-2.6,6.47-1.32,10.83,1.12,3.82,3.69,7.25,7.19,9.19Z"/>
      <polygon class="cls-10" points="199.99 661.28 202.17 587.95 202.81 587.95 204.99 661.28 199.99 661.28 199.99 661.28"/>
      <path class="cls-5" d="M831.57,617.48c5.69,5.14,15.39,4.93,20.85-.45-1.02,5.55,2.25,11.58,7.45,13.76,5.2,2.18,11.79.28,15.04-4.33,3.55,6.36,11.37,10.01,18.52,8.65s13.09-7.63,14.05-14.85c5.22.27,10.58-.06,15.4-2.08,4.82-2.02,9.04-5.96,10.39-11.01s-.77-11.1-5.46-13.4c6.24-5.62,10.13-13.92,9.86-22.31s-4.91-16.64-12.23-20.74c-7.32-4.1-17.12-3.6-23.66,1.66-5.22-6.43-12.11-11.77-20.11-13.9-8.01-2.13-17.18-.68-23.35,4.86-6.17,5.53-8.51,15.35-4.45,22.57-8.82.89-17.44,3.81-24.98,8.48-2.31,1.43-4.69,3.26-5.25,5.92-.49,2.31.58,4.74,2.2,6.46,1.63,1.73,3.77,2.72,5.68,4.02-4.13,8.14-8.01,19.41.05,26.69Z"/>
      <polygon class="cls-10" points="730.89 657.55 732.99 602.16 733.79 602.16 735.89 657.55 730.89 657.55 730.89 657.55"/>
      <path class="cls-5" d="M710.61,620.32c-1.5,5.61,1.96,12.08,7.45,13.94s12.18-1.18,14.39-6.54c7.76,6.87,20.23,7.69,28.81,1.88,2.48-1.68,4.73-4,5.37-6.92s-.85-6.44-3.73-7.24c5.69-1.83,11.5-3.81,16.11-7.62,4.61-3.81,7.81-9.91,6.54-15.75-1.27-5.84-8.16-10.31-13.55-7.71,4.18-4.64,4.84-11.92,2.11-17.54-2.74-5.62-8.51-9.47-14.67-10.49s-12.61.63-17.91,3.93c2.62-5.34,1.06-12-2.46-16.8-3.52-4.8-8.69-8.09-13.84-11.06-8.36-4.82-17.84-9.23-27.32-7.46-8.82,1.65-16.27,9.08-17.96,17.9-1.68,8.82,2.51,18.47,10.11,23.25-2.39-1.51-9.57,11.13-10.03,12.88-1.7,6.53,2.19,10.43,4.42,16.07,3.48,8.81-.39,20.06,9.38,25.76,5.07,2.96,11.91,2.9,16.77-.48Z"/>
      <path class="cls-8" d="M500.26,605.35c3.04,5.51,9.86,8.65,16.02,7.38-2.82,3.52-2.3,9.24,1.11,12.19,3.41,2.95,9.14,2.65,12.22-.64.98,4.18,4.72,7.58,8.98,8.15s8.76-1.72,10.8-5.5c4.7,4.77,12.55,6.05,18.52,3.03,5.97-3.02,9.59-10.11,8.53-16.72,10.85-.73,20.25-10.76,20.27-21.63,0-3.27-.8-6.67-2.92-9.16-2.12-2.5-5.72-3.88-8.8-2.78,2.27-4.37,2.12-9.85-.22-14.16-2.76-5.07-7.18-5.93-12.73-5.12,1.84-3.44,1.37-7.81-.57-11.19s-5.18-5.86-8.69-7.57c-6.32-3.08-13.78-3.85-20.53-1.87-6.39,1.87-9.9,5.79-14.31,10.36-3.73,3.87-9.09,8.39-5.53,14.45-4.63-.03-9.34-.06-13.79,1.22s-8.7,4.05-10.65,8.25c-2.59,5.57,1.15,9.4,1.89,14.63.84,5.99-2.94,10.61.41,16.68Z"/>
      <path class="cls-8" d="M16.19,609.87c5.22-1.17,9.81-4.86,12.08-9.7,6.64,3.54,14.23,5.69,21.7,4.82,7.47-.88,14.76-5.12,18.14-11.84s2.07-15.83-3.83-20.5c5.56-6.13,11.18-12.35,14.9-19.74,3.72-7.39,5.37-16.21,2.59-24-2.78-7.79-10.75-13.96-18.96-12.95,2.87-7.51,4.75-15.63,3.52-23.57s-6.08-15.65-13.53-18.65c-7.45-3-17.29,0-20.48,7.38-9.81-11.31-28.28-13.8-40.73-5.49-12.45,8.31-17.25,26.33-10.57,39.73,1.03,2.06,2.33,4.28,1.77,6.52-.62,2.52-3.26,3.86-5.45,5.25-7.34,4.67-11.88,13.44-11.46,22.13.42,8.69,5.78,16.98,13.53,20.93-7.37,4.94-12.57,13.68-11.62,22.5s9.16,16.75,17.99,15.88c5.43-.54,10.37-4.55,15.59-2.46s8.38,5.21,14.82,3.77Z"/>
      <path class="cls-8" d="M315.58,623.09c4.51-2.89,7.6-7.92,8.14-13.25,9.17,1.11,18.84-.4,26.66-5.33,7.82-4.93,13.53-13.5,13.93-22.73.4-9.24-5.08-18.74-13.71-22.05,5.25-5.03,6.17-13.96,2.06-19.96-4.12-6-12.78-8.35-19.36-5.26-4.42-16.66-21.75-27.97-38.98-28.28-17.23-.31-33.67,8.87-45.16,21.71-4.08,4.56-7.69,9.71-9.41,15.59-1.72,5.87-1.33,12.58,2.1,17.65-7.59,4.38-13.96,11.26-16.56,19.63s-1.01,18.21,5.01,24.57c5.37,5.67,13.53,8.03,21.34,8.01s15.45-2.15,22.98-4.27c-4.61,5.7-2.63,15.43,3.85,18.85,6.79,3.61,14.99-.61,17.8-7.21,4.45,6.54,12.63,6.62,19.3,2.34Z"/>
      <path class="cls-2" d="M204.35,602.51c1.15-.29,2.28-.64,3.39-1.04,14.54-5.18,25.28-18.88,26.95-34.39-.14,1.3,11.98-1.54,12.94-1.98,4.39-2.03,8.34-5.47,10.58-9.79,3.42-6.61,2.95-14.97-.47-21.88-1.69-3.42-4.56-5.23-1.82-8.4,1.93-2.23,7.44-2.6,10.16-3.65,13.97-5.43,25.29-16.99,29.92-31.31,5.82-17.99.85-39.6-12.48-54.27s-34.48-21.78-53.11-17.86c2.41-.51,1.03-10.92.64-12.57-1.14-4.72-3.73-9.27-7.4-12.6-5.95-5.42-19.42-6.09-21.13,3.4.07-23.39-17.42-46.19-39.6-54.23-12.04-4.36-20.49-5.73-31.39.83-5.1,3.07-9.6,7.12-13.17,11.87-.77,1.03-7.94,13.78-7.08,14.02-15.94-4.47-33.46-1.04-45.77,8.95-12.3,9.99-19.09,26.31-17.72,42.61-12.5-1.26-25.14,2.43-34.57,10.07-9.88,8-18.89,21.92-14.12,35.03,4.77,13.14,12.99,25.31,26.57,30.67-9.83,2.59-16,13.85-13.11,23.9,2.89,10.05,14.36,17.2,24.35,15.18-9.6,14.26-13.98,34.36-4.01,49.51,7.85,11.93,22.86,17.74,36.77,17.72,13.91-.01,27.02-4.93,39.57-10.24-3.66,1.55,2.42,18,5.29,20.31,6.88,5.53,20.32,4.29,27.57,1.76,9.9-3.46,17.83-11.58,21.05-21.57,11.34,9.74,27.35,13.52,41.18,9.96Z"/>
      <path class="cls-8" d="M742.23,588.39c-4.63-.07-9.05,1.99-13.67,2.32-9.14.65-18.16-6.55-19.56-15.61s5.03-18.65,13.94-20.79c-14.83-9.42-24.49-26.51-24.9-44.08-.17-7.28,1.21-14.74,4.96-20.98,3.75-6.24,10.06-11.14,17.26-12.22,4.71-.71,9.49.2,14.16,1.1-1.91-4.58-3.84-9.24-4.31-14.18-.47-4.94.74-10.28,4.33-13.71,5.17-4.95,14.74-3.94,18.77,1.98,2.58-12.11,5.82-22.88,14.78-31.94,8.25-8.33,19.41-13.9,31.15-14.75,19.13-1.38,38.47,9.78,47.12,26.85.42.84.78,1.73,1.24,2.53,2.52-1.52,6.56-1.7,9.45-1.53,3.76.22,7.47,1.5,10.55,3.67,5.06,3.57,8.37,9.42,9.09,15.57.72,6.15-1.09,12.51-4.71,17.52,4.29.1,8.52,1.9,11.57,4.91,7.25,7.14,6.48,20.98-3,25.86,4.35.08,10.22,3.83,14.04,5.91,5,2.72,9.72,6.02,13.69,10.14,7.22,7.5,11.75,18.19,9.82,28.42-1.94,10.23-11.49,19.13-21.88,18.32,1.03,7.17-2.06,14.21-7.58,18.73-2.66,2.18-5.59,3.71-9.02,4.28-1.15.19-9.17.68-9.46-1,1.72,10.06-2.93,20.94-11.4,26.63-8.47,5.7-20.29,5.91-28.96.53-3.35,5.57-8.09,10.43-13.96,13.22-5.87,2.79-12.93,3.34-18.91.78-5.98-2.55-10.61-8.41-11.01-14.9-13.92,5.85-35.2,4.57-42.67-10.66-.55-1.12-3.75-12.96-.93-12.92Z"/>
      <polygon class="cls-21" points="799.85 676.7 805.77 470.82 806.77 470.82 812.69 676.7 799.85 676.7 799.85 676.7"/>
      <path class="cls-21" d="M805.27,605.77c6.96-29.42,24.45-55.94,48.33-73.77l.61.79c-23,18.59-39.01,45.3-44.62,73.92l-4.33-.94h0Z"/>
      <path class="cls-21" d="M803.89,574.38c-4.16-22.72-20.72-42.93-42.29-51.69,0,0,.35-.94.35-.94,23.06,7.67,41.53,27.66,47.55,51.4,0,0-5.6,1.23-5.6,1.23h0Z"/>
      <polygon class="cls-21" points="125.8 699.42 136.3 427.95 137.3 427.95 147.81 699.42 125.8 699.42 125.8 699.42"/>
      <path class="cls-21" d="M131.03,603.49c11-38.97,35.79-73.15,68.28-95.37l.6.8c-30.44,24.58-51.45,59.7-58.81,96.99l-10.07-2.43h0Z"/>
      <path class="cls-21" d="M132.99,545.45c-4.24-25.92-18.05-48.12-33.01-69.29,0,0,.81-.59.81-.59,4.02,5.14,8.05,10.28,11.92,15.56,11.88,15.85,21.42,33.7,25.99,53.11,0,0-5.7,1.21-5.7,1.21h0Z"/>
      <polygon class="cls-21" points="290.91 667.05 295.49 556.07 296.49 556.07 301.07 667.05 290.91 667.05 290.91 667.05"/>
      <path class="cls-21" d="M293.71,624.15c1.28-16.68,9.43-32.39,21.85-42.86l.67.74c-11.46,11.13-18.03,26.81-18.1,42.31l-4.41-.19h0Z"/>
      <path class="cls-2" d="M939.94,626.24c-4.3-1.77-7.47-6.01-7.95-10.64-9.59,4.35-22.01,1.11-28.25-7.37s-5.65-21.3,1.35-29.17c-12.31-6.79-18.08-23.43-12.6-36.38,5.48-12.95,21.43-20.41,34.87-16.31-1.99-9.01,1.85-19.04,9.35-24.41,7.5-5.38,18.22-5.8,26.12-1.03s12.51,14.46,11.24,23.6c11.61.64,23.18,5.42,30.98,14.06,7.8,8.64,11.38,21.24,8.14,32.41-3.24,11.18-13.71,20.19-25.34,20.62,7.99,3.46,11.9,14.13,8.04,21.94-3.86,7.81-14.71,11.18-22.31,6.93,2.57,1.44-12.09,8.25-14.47,8.07-2.73-.2-5.05-1.84-7.69-2.1-4.06-.4-7.37,1.46-11.48-.22Z"/>
      <polygon class="cls-21" points="949.61 669.67 952.25 541.06 953.25 541.06 955.89 669.67 949.61 669.67 949.61 669.67"/>
      <path class="cls-21" d="M951.32,621.5c-3.36-18.38-9.9-36.24-19.25-52.54l.86-.51c9.97,16.07,17.2,33.89,21.27,52.48l-2.87.58h0Z"/>
      <polygon class="cls-21" points="28.08 548.3 32.4 672.19 22.75 672.19 27.08 548.3 28.08 548.3 28.08 548.3"/>
      <path class="cls-21" d="M26.55,629.02c-2.08-18.28-10.06-36.06-22.65-49.97l.41-.4c13.5,13.21,22.86,30.83,26.2,49.79l-3.96.58h0Z"/>
      <path class="cls-2" d="M673.86,626.51c12.06,3.08,25.7-1.26,33.77-10.73,3.03-3.56,5.35-7.89,5.71-12.55.36-4.66-1.48-9.63-5.33-12.28,9.6-1.6,16.6-12.31,14.22-21.75s-13.63-15.54-22.84-12.39c4.76-13.32-2.25-29.74-15.17-35.5-12.92-5.76-29.81,0-36.54,12.44-5.24-8.92-15.32-14.78-25.66-14.92-10.34-.14-20.58,5.45-26.05,14.22-5.48,8.77-6,20.43-1.34,29.66-8.92,3.66-16.99,10.01-21.32,18.62-4.34,8.61-4.45,19.58.93,27.57,5.38,8,16.58,12,25.36,8.03-5.96,1.83-9.44,8.99-7.84,15.02,1.6,6.03,7.58,10.39,13.8,10.81s12.4-2.76,16.33-7.6c-1.97,2.43-2.83,4.67-1.88,7.85.75,2.53,2.93,5.7,5.52,6.54,6.43,2.07,14.49-1.54,18.22-6.83,3.45,2.29,7.7,3.34,11.81,2.91,9.3-.96,17.55-9.87,18.29-19.12Z"/>
      <polygon class="cls-21" points="636.54 676.77 640.91 570.7 641.91 570.7 646.27 676.77 636.54 676.77 636.54 676.77"/>
      <path class="cls-11" d="M353.44,508.34c-1.49,2.06-2.65,4.37-3.38,6.8-7.35-.7-14.92,3.4-18.37,9.92-2.21,4.19-2.63,9.23-1.4,13.78.89,3.29,2.58,7.66,4.67,10.37-5.41,2.89-9.36,8.23-10.29,14.33-.92,6.06,1.24,12.5,5.61,16.78,1.19,1.17,2.58,2.24,3.21,3.79,1.15,2.87-.75,5.95-1.55,8.93-1.55,5.78,1.36,12.15,6.12,15.77s11.03,4.78,17,4.41,11.75-2.14,17.47-3.9c-.98.3,1.13,5.72,1.56,6.39,1.08,1.69,2.25,2.24,4.29,2.54,4.54.68,9.59-1.43,11.95-5.45,3.93,4.99,10.81,7.46,17.01,6.11,7.8-1.69,15.99-10.93,12.95-19.26,8.45-2.84,16.54-7.38,22.24-14.23,5.71-6.85,8.76-16.23,6.74-24.92-2.02-8.69-9.7-16.14-18.61-16.59,5.63-5.14,7.33-13.94,4.55-21.04-2.78-7.11-9.61-12.3-17.1-13.7-7.5-1.4-15.46.81-21.59,5.35,2.76-2.05-10.82-11.14-12.17-12-2.05-1.32-4.62-3.32-7.11-3.68-5.71-.81-12.5.39-17.41,3.46-2.5,1.56-4.68,3.62-6.41,6.01Z"/>
      <polygon class="cls-21" points="384.25 663.77 387.4 581.59 388.4 581.59 391.56 663.77 384.25 663.77 384.25 663.77"/>
      <path class="cls-21" d="M639.17,643.68c-5.65-15.06-13.43-29.46-23.09-42.62l.77-.63c11.07,12.13,20.55,25.87,28.03,40.75l-5.71,2.51h0Z"/>
      <path class="cls-2" d="M492.51,605.91c8.64-2.66,15.45-9.9,17.58-18.7,6.18,3.16,13.88,2.65,19.11-1.26s7.78-11.04,6.31-17.72c15.57-1.23,29.64-10.94,36-24.84,2.01-4.38,3.29-9.32,2.43-14.24-.87-4.92-4.27-9.78-9.07-11.35,7.46-9.29,11.43-21.62,9.89-33.92s-8.9-24.36-19.82-30.82c-10.93-6.47-25.22-6.71-34.94.21-8.73-21.84-31.89-37.86-54.91-37.97s-44.16,15.7-50.12,37.48c-12.04-5.3-26.03-3.82-36.51,2.63-11.45,7.05-16.41,19.72-13.55,33.47,1.91,9.18,6.92,17.71,13.19,24.96,1.13,1.3,2.39,2.86,2.07,4.47-.27,1.39-1.62,2.2-2.8,2.96-6.97,4.46-11.45,12.33-12.09,20.76-.6,7.95,4.82,17.03,10.89,22.32,8.23,7.18,19.03,10.53,29.58,12.11-.09,4.83,2.93,9.79,7.34,12.09,2.68,1.4,5.8,1.78,8.63,1.19,1.08-.22,5.93-1.75,5.97-3.18-.42,14.68,15.7,27.25,29.55,22.82,4.68-1.5,8.61-4.89,10.73-9.27,4.8,8.27,16.93,8.15,24.53,5.81Z"/>
      <polygon class="cls-21" points="454.88 658.26 458.69 492.88 459.69 492.88 463.5 658.26 454.88 658.26 454.88 658.26"/>
      <path class="cls-21" d="M458.44,597.67c-1.5-1.07-1.6-1.43-1.15-2.7.36-1.4,1.65-5.19,2.15-6.6,5.28-14.42,13.9-27.69,25.01-38.26,4.45-4.2,9.25-8.02,14.42-11.22,0,0,.58.81.58.81-4.62,3.85-8.99,7.95-12.96,12.4-8.95,9.89-16.12,21.36-21.12,33.71-1.17,2.96-2.76,7.39-3.56,10.46-.09.25-.17.83-.38,1.04-.27.31-.85.53-2.02.61l-.97-.26h0Z"/>
    </g>
    <path class="cls-5" d="M481.03,833.95c-6.69.69-13.38,1.37-20.07,2.06-2.6.27-5.59.77-6.86,2.96-.85,1.47-.64,3.38.19,4.89s2.2,2.69,3.64,3.68c7.74,5.32,17.74,5.98,27.15,6.27,6.78.21,13.61.33,20.26-.81,6.65-1.14,13.19-3.61,18.12-8.03,1.26-1.13,2.49-2.57,2.39-4.24-.15-2.59-3.17-4.02-5.75-4.75-9.49-2.68-19.47-3.61-29.25-2.74"/>
    <g>
      <path class="cls-13" d="M555.06,716.53c-1.08,4.46-2.36,8.87-3.81,13.1-.49,1.45-1,2.86-1.77,4.26-2.21,4.01-6.18,7.13-11.18,8.79-2.39.79-6.03,1.78-9.31,1.78-.31,0-.6-.02-.9-.04-4.12,4.67-7.84,9.62-11.15,14.83.12-.05.25-.09.36-.13,9.43-3.2,19.54-1.85,27.65-.77.07.01.13.03.19.04.1.02.2.03.29.06.06,0,.12.04.19.05.11.04.22.07.32.12.03.01.06.02.08.03.39.17.75.41,1.07.69.05.05.1.08.14.13.06.06.12.13.17.19.07.07.13.14.19.22.05.06.09.12.13.18.06.09.12.18.18.28.01.02.02.04.03.06.03.04.05.09.07.14.03.06.06.12.09.18.02.04.03.07.04.11.03.07.06.15.08.22.03.1.06.19.09.29.02.08.03.16.05.23.02.1.03.2.04.3,0,.08.02.16.02.23.01.1.01.2.01.3-.01.08-.01.16-.01.24-.01.1-.03.2-.04.3-.01.07-.02.15-.04.22-.02.11-.05.21-.08.31-.02.07-.04.14-.07.2-.04.11-.09.22-.14.33-.02.05-.04.11-.07.17-.09.16-.18.31-.29.46-2.98,4.21-6.5,8.05-10.43,11.43-2.35,2.02-5.24,4.21-8.88,5.25-1.81.51-3.62.69-5.4.69-1.46,0-2.9-.12-4.3-.27-1.38-.15-2.89-.36-4.42-.84-1.31-.42-2.44-.99-3.45-1.49l-.1-.05c-.45-.23-.91-.45-1.36-.66-.03-.02-.05-.03-.08-.04-1.09.66-2.14,1.37-3.17,2.14-3.06,7.88-5.42,16.23-7.04,25.01.25,6.4.52,12.79.81,19.01.15,3.18.31,6.36.47,9.54l.03.52c.14,2.23.48,7.44-3.95,9.5-.87.4-1.83.62-2.96.68-.22.01-.44.01-.66.01-1.41,0-2.71-.22-3.87-.41-.2-.04-.42-.08-.64-.12-4.12-.88-5.87-3.66-5.25-8.28l.05-.39c.2-1.58.14-3.37.08-5.26-.03-1.04-.06-2.07-.06-3.08.04-5.88.11-11.87.19-17.8.01-.39.01-.79.02-1.19-2.26-5.06-5.47-9.72-9.4-13.64-.44.02-.89.04-1.32.04-2.53,0-4.93-.32-7.17-.98-3.54-1.04-6.57-2.9-8.76-5.38-2.17-2.46-3.39-5.32-4.39-8.05-.69-1.87-1.43-4.07-1.47-6.56,0-.27.03-.54.08-.8,0-.04.01-.09.02-.13.05-.25.14-.49.24-.72.02-.05.04-.09.06-.14.11-.23.24-.45.39-.66.02-.02.04-.05.06-.07.16-.2.34-.39.53-.56.01-.01.02-.03.04-.04,0,0,.01,0,.01-.01.14-.12.29-.23.45-.33.07-.04.14-.07.21-.11.04-.02.08-.04.12-.06.24-.12.48-.21.73-.28.03-.01.07-.02.1-.03.27-.06.53-.11.8-.12h0c.27-.01.54.02.8.06h.08c6.55,1.22,11.54,2.96,15.69,5.47,1.05.64,2.6,1.65,3.94,3.08,2.5,2.66,3.68,6.07,4.4,8.94,1.42,1.1,2.77,2.27,4.08,3.5.06-2.64.12-5.28.19-7.92l.12-4.62c0-.49.08-.99.14-1.51.04-.32.1-.83.11-1.14-1.65-3.94-3.65-7.85-5.98-11.75-.2-.12-.41-.23-.61-.35-1.63-.95-3.17-1.84-4.75-2.61-.14-.07-.28-.13-.42-.2-.97.9-1.98,1.66-3.23,2.39-.15.09-.33.22-.51.34-.36.24-.72.48-1.09.7-1.79,1.03-3.91,1.56-6.19,1.56-.41,0-.83-.02-1.26-.06-1.02-.08-2.05-.27-3.18-.56-1.06-.27-2.04-.61-2.95-.93-2.84-1.04-5.58-2.28-8.16-3.69-.36-.21-.92-.57-2.57-1.67-1.03-.69-2.72-1.81-3.29-2.16-.23-.1-.44-.23-.65-.38-.04-.03-.09-.06-.14-.1-.19-.15-.37-.31-.54-.5-.02-.02-.03-.05-.05-.07-.15-.18-.28-.36-.4-.56-.02-.04-.05-.09-.08-.14-.12-.22-.22-.45-.29-.69-.01-.02-.02-.03-.02-.05-.02-.05-.02-.1-.03-.15-.03-.13-.06-.25-.08-.39-.02-.08-.03-.17-.03-.26-.01-.06-.02-.12-.02-.18-.01-.04,0-.08,0-.12,0-.17.01-.34.03-.51.01-.07.01-.15.03-.22.03-.21.09-.42.16-.62.01-.03.01-.06.02-.08.08-.21.18-.42.29-.61.04-.07.09-.13.13-.19.09-.13.18-.26.28-.38.06-.07.12-.13.18-.2.1-.1.2-.2.31-.29.08-.07.16-.13.24-.18.04-.04.08-.08.13-.11,3.24-2.12,6.79-4.27,10.77-5.54,1.68-.54,3.42-.92,5.18-1.12,2.47-.3,5.05-.03,7.59.74-.78-.85-1.58-1.71-2.4-2.56-3.17-.76-6.34-1.51-9.51-2.26-7.72-1.84-12.38-9.17-13.58-15.63-.83-4.49-.45-9-.12-12.98.02-.27.08-.52.15-.77.01-.05.03-.11.04-.16.08-.24.18-.47.3-.69.02-.03.04-.06.06-.09.12-.2.25-.38.4-.56.03-.03.06-.07.1-.11.17-.18.35-.35.56-.5,0-.01.03-.03.04-.04.03-.02.06-.03.09-.05.19-.13.39-.25.61-.35.03-.01.05-.03.08-.04.01,0,.02-.01.03-.01.23-.1.47-.16.7-.21.05-.01.1-.02.15-.03.52-.09,1.05-.07,1.56.04.02.01.05.01.08.01.06.02.12.04.17.05.02.01.03.01.04.01,6.82,1.73,13.46,4.95,19.71,9.6,3.39,2.52,5.52,5.42,6.33,8.62.03.11.07.26.1.41.24,1.12.32,2.23.32,3.25s-.07,1.92-.13,2.7c-.1,1.24-.23,2.48-.34,3.73.65.6,1.29,1.2,1.92,1.81.15-.38.31-.75.49-1.11,1.04-2.14,2.51-3.92,3.93-5.55,1.36-1.57,2.98-3.39,4.93-4.99,0,0,0,0,.02-.02s.02-.02.03-.02c.01-.01.02-.02.02-.02.2-.17.46-.37.73-.58,1.69-1.26,4.05-.97,5.41.61.01-.08.01-.17.01-.25-1.22-3.28-2.81-6.41-4.71-9.34-1.53-.21-3.07-.54-4.58-1-1.43-.43-2.82-.97-4.14-1.6-3.23-1.54-7.14-4.65-8.44-8.79-.49-1.52-.93-3.08-1.36-4.58-.34-1.22-.68-2.43-1.05-3.63-.53-1.73.17-3.6,1.71-4.56.16-.1.33-.19.5-.27.08-.03.16-.06.25-.09.09-.03.18-.07.27-.09.1-.03.19-.05.28-.07.09-.01.17-.04.26-.05.1-.01.19-.01.29-.02.09,0,.17,0,.26,0s.19,0,.28,0c.09.01.18.01.26.02.09.02.18.04.28.05.08.02.17.04.26.06.09.03.17.06.26.09.09.03.17.06.26.1.08.04.16.08.24.12.05.03.12.05.17.08.06.04.15.08.23.12.48.15,1.2.33,1.66.44.48.12.86.22,1.02.27.65.21,1.34.41,2.03.61.43.12.86.25,1.29.38,2.53.75,5.22,2.04,7.57,3.64,2.78,1.89,4.77,4.29,5.82,6.96.07-1.24.14-2.49.22-3.73-3.14-2.9-5.63-6.74-6.82-10.59-1.47-4.74-1.27-9.92.57-14.56.98-2.49,2.35-4.62,3.67-6.68,1.12-1.73,2.19-3.39,3.25-5.05,1.02-1.59,2.04-3.18,3.06-4.76.02-.02.04-.04.05-.06.12-.19.26-.38.41-.55.03-.03.05-.05.07-.07.15-.16.31-.3.48-.43.04-.02.07-.05.1-.07.19-.14.39-.26.6-.36.05-.02.09-.04.14-.06.22-.09.45-.18.7-.23,1.83-.41,3.69.5,4.49,2.19l1.87,3.96c.87,1.85,1.74,3.69,2.61,5.54.94,1.97,1.77,3.76,2.5,5.71,1.37,3.72,1.9,6.86,1.61,9.62h0c-.37,3.52-2.24,6.33-3.96,8.69-1.74,2.38-3.58,4.71-5.46,6.98-.01,1.58-.01,3.17-.02,4.75.3-.48.6-.96.94-1.41,2.37-3.15,5.96-5.01,9.12-6.64l.55-.29c1.81-.94,3.63-1.87,5.45-2.8.02-.02.05-.03.08-.04.15-.07.3-.13.45-.19,0,0,.02,0,.02,0,1.11-.39,2.36-.3,3.41.34,1.05.63,1.71,1.69,1.88,2.85h0c.02.18.04.36.04.54,0,.07,0,.15-.01.22,0,.12,0,.24-.02.36-.03.21-.07.41-.13.62-.54,1.75-.9,3.6-1.28,5.55-.26,1.37-.54,2.78-.88,4.2-1.15,4.76-2.87,8.26-5.4,11.01-1.78,1.95-4.04,3.47-6.51,4.37-1.1.4-2.24.75-3.39.95-1.75,3.99-3.1,8.21-4.25,12.4.01.88.02,1.75.03,2.62.94-3.21,2.39-6.24,3.7-8.95l.57-1.19c.19-.41.46-.79.78-1.11.14-.14.3-.27.46-.39.05-.04.11-.07.16-.11.11-.07.23-.14.35-.21.06-.03.12-.06.18-.09.16-.07.32-.13.48-.18.1-.03.19-.05.29-.08.08-.02.16-.03.25-.05.11-.01.21-.03.32-.04.06,0,.13,0,.19,0,.21-.01.42,0,.64.03.05,0,.1.01.15.01.01.01.02.01.03.01.5.09.99.25,1.44.53.05.03.08.08.14.11.13.09.24.2.37.3.12.11.24.21.34.33.12.12.21.26.31.4.06.09.14.17.2.26.31.37,1.03,1.12,1.32,1.43.31.33.54.58.62.67.34.41.66.8.98,1.18.4.5.8.99,1.22,1.48,1.77,2.01,3.57,4.26,4.72,7.04.09.22.15.46.23.68,1.15-1.27,2.33-2.5,3.52-3.72.13-4.78,2.17-10.08,4.37-13.22,2.21-3.14,5.43-5.67,9.85-7.72,4.73-2.2,9.67-3.38,14.46-4.51.06-.02.11-.02.17-.04.13-.03.26-.06.39-.07.03-.01.06-.01.09-.01.14-.02.28-.03.42-.03.03,0,.05.01.08.01.22,0,.44.03.65.07.14.03.27.06.4.1.11.03.22.07.32.12.17.06.34.14.5.23.15.08.29.17.43.27.08.06.15.12.22.18.2.16.38.34.54.55.76.96,1.04,2.22.75,3.41Z"/>
      <g>
        <path class="cls-9" d="M482.48,761.83c-2.63-1.45-5.17-3.07-7.87-4.39s-5.6-2.33-8.61-2.44c.48-.89,1.63-1.15,2.64-1.19,2.86-.1,5.65.77,8.38,1.63,1.84.58,3.69,1.17,5.37,2.1"/>
        <path class="cls-18" d="M471.03,756.56c-1.2,1.39-2.26,2.3-3.84,3.23-.54.32-1.03.7-1.57,1.01-1.53.88-3.36,1.14-5.12.99-.85-.07-1.69-.23-2.52-.45-.88-.23-1.74-.52-2.6-.83-2.61-.95-5.15-2.1-7.58-3.43-.59-.33-5.89-3.95-6.12-3.95,3.09-2.02,6.28-3.95,9.8-5.08,1.44-.46,2.92-.78,4.42-.96,4.02-.48,7.99.91,11.27,3.18,1.58,1.09,3.44,2.47,4.56,4.06.11.16.19.3.23.43.26.68-.31,1.06-.92,1.8Z"/>
        <path class="cls-9" d="M491.43,732.92c2.86-7.42,6.98-14.36,12.14-20.43-6.62,8.9-9.41,20-12.05,30.78"/>
        <path class="cls-18" d="M515.31,696.58c-1,3.27-1.42,6.67-2.22,9.98-.8,3.32-2.05,6.64-4.45,9.25-1.31,1.44-3.02,2.63-4.94,3.33-1.33.48-3.3,1.15-4.74.73-.47-.14-.69-.4-.78-.71-.14-.45-.04-1.01-.03-1.53.01-1.24.08-2.48.19-3.72.19-2.04.59-3.9,1.37-5.67.46-1.03,1.05-2.05,1.8-3.04,1.94-2.57,5.37-4.25,8.32-5.78,1.83-.95,3.66-1.89,5.49-2.83Z"/>
        <path class="cls-9" d="M489.78,815.11c-3.07-12.81-11.62-24.2-23.05-30.74,9.89,4.43,18.31,12.09,23.65,21.53"/>
        <path class="cls-16" d="M476.2,790.69c-3.23.43-6.5.34-9.65-.58-2.61-.76-5.09-2.15-6.89-4.19-1.71-1.94-2.75-4.36-3.64-6.78-.62-1.69-1.2-3.45-1.22-5.25,5,.93,9.99,2.33,14.35,4.96,1.11.67,2.2,1.44,3.09,2.39,2.37,2.52,3.23,6.07,3.95,9.45Z"/>
        <path class="cls-16" d="M479.75,752.06c-.67.52-1.24.64-1.75.49-.91-.24-1.59-1.32-2.21-2.35-2.3-3.81-3.26-8.33-1.22-12.51.84-1.73,2.1-3.23,3.36-4.68,1.4-1.62,2.85-3.22,4.51-4.58.19-.16.39-.32.59-.47-.41.31.87,3.23,1.01,3.67.59,1.96,1.01,3.92,1.1,5.97.23,5.12-1.17,11.16-5.39,14.45Z"/>
        <path class="cls-3" d="M479.75,752.06c-.67.52-1.24.64-1.75.49-1.5-8.22.1-16.97,4.43-24.12.19-.16.39-.32.59-.47-.41.31.87,3.23,1.01,3.67.59,1.96,1.01,3.92,1.1,5.97.23,5.12-1.17,11.16-5.39,14.45Z"/>
        <path class="cls-9" d="M501,776.21c4.37-3.02,9.61-4.76,14.92-4.95-4.91,1.6-9.52,4.11-13.53,7.35-1.19.96-2.38,2.08-2.74,3.56"/>
        <path class="cls-18" d="M515.02,748.31c-.02.52-.07,1.04-.13,1.55-.34,2.72-1.23,5.35-2.32,7.88-.05.12-.11.25-.23.32-.14.07-.31.04-.46-.01-2.3-.67-4.54-1.61-6.46-3.04s-3.52-3.35-4.29-5.62c-2.19-6.43,1.52-13.31,4.21-18.95h0s.01.07.08.16t0,.01c.41.58,2.06,2.27,2.27,2.52.76.89,1.47,1.81,2.24,2.69,1.58,1.8,3.1,3.7,4.03,5.94.85,2.05,1.15,4.31,1.05,6.54Z"/>
        <path class="cls-16" d="M511.88,758.05c-2.3-.67-4.54-1.61-6.46-3.04s-3.52-3.35-4.29-5.62c-2.19-6.43,1.52-13.31,4.21-18.95h0s.03.05.08.16t0,.01c.88,1.97,8.45,19.25,6.45,27.43Z"/>
        <path class="cls-4" d="M539.79,726.64c-21.1,15.23-36.61,37.09-45.36,61.47-1.13-36.6-1.41-73.26-.81-109.92l-.73-.03c-2.04,28.78-3.54,57.62-4.51,86.48-3.48-5.55-7.51-10.75-11.85-15.65-6.92-7.76-14.61-14.73-22.84-20.93,0,0-.46.57-.46.57,14.39,12.8,27.45,28.17,34.84,45.98.37.9-.08,2.91-.11,3.91-.04,1.54-.08,3.08-.12,4.62-.08,2.96-.15,5.92-.21,8.88-.13,5.92-.24,11.85-.32,17.77s-.15,11.85-.19,17.77c-.02,2.87.31,5.97-.05,8.82-.26,2.07-.69,3.67,2.01,4.24.18.03.35.07.53.1,1.21.21,2.43.41,3.65.35.51-.03,1.02-.1,1.48-.31,2.15-1,1.71-4.3,1.61-6.19-.16-3.19-.32-6.37-.47-9.56-.3-6.49-.58-12.99-.83-19.48,2.65-14.63,7.44-28.93,14.71-42.01,7.68-13.91,18.16-26.22,30.48-36.29,0,0-.45-.58-.45-.58Z"/>
        <path class="cls-18" d="M551.17,715.58c-1.04,4.31-2.27,8.57-3.7,12.76-.43,1.24-.87,2.48-1.5,3.63-1.86,3.37-5.27,5.7-8.93,6.92-2.21.73-11.27,3.25-11.58-.18-.35-3.9,1.39-9.29,3.61-12.45,2.02-2.88,5.07-4.91,8.26-6.39,4.39-2.04,9.13-3.17,13.83-4.28,0,0,.01,0,.01,0Z"/>
        <path class="cls-18" d="M544.42,762.32c-2.81,3.95-6.1,7.55-9.78,10.72-2.19,1.88-4.59,3.64-7.37,4.43-2.63.76-5.43.59-8.16.29-1.23-.13-2.47-.3-3.66-.67-1.03-.33-1.99-.82-2.96-1.31-1.56-.78-3.22-1.5-4.71-2.41,1.66-2.07,3.08-4.36,4.85-6.39.81-.94,1.68-1.85,2.71-2.55,1-.67,2.12-1.14,3.26-1.53,8.24-2.79,17.22-1.74,25.83-.59Z"/>
        <path class="cls-18" d="M502.82,683.37c-.26,2.52-1.76,4.75-3.21,6.74-2.02,2.77-4.14,5.46-6.36,8.07-.2.23-.42.48-.72.56-.4.1-.8-.13-1.13-.38-.01,0-.04-.02-.05-.04-3.08-2.41-5.75-6.11-6.91-9.87-1.2-3.87-1.03-8.14.46-11.91.85-2.15,2.11-4.11,3.36-6.05,2.11-3.27,4.21-6.56,6.32-9.83,0,0,0-.01,0-.01,1.5,3.17,2.98,6.34,4.48,9.5.84,1.78,1.68,3.56,2.36,5.4.88,2.38,1.65,5.24,1.39,7.82Z"/>
        <path class="cls-18" d="M464.91,731.2c-.18,2.24-.38,4.48-.62,6.73,0,.04,0,.09-.01.13-4.08-.98-8.16-1.94-12.25-2.91-5.68-1.35-9.54-6.91-10.57-12.46-.73-3.92-.4-7.96-.07-11.93,6.76,1.68,12.92,4.84,18.5,8.99,2.19,1.63,4.17,3.76,4.84,6.4.02.08.04.16.06.24.35,1.57.24,3.21.12,4.82Z"/>
        <path class="cls-4" d="M490.68,726.23c-2.65-8.39-7.47-16.08-13.85-22.13,2.83,1.15,4.82,3.69,6.66,6.14,3.36,4.46,6.7,8.96,9.34,13.87"/>
        <path class="cls-18" d="M484.03,712.02s-.09,0-.13,0c-2.02-.11-4.04-.48-5.98-1.06-1.22-.37-2.42-.84-3.58-1.39-2.54-1.21-5.46-3.59-6.34-6.38-.85-2.68-1.57-5.47-2.4-8.18h0c.04.1.28.22.62.34,0,0,.01,0,.02.01.96.34,2.68.71,3.02.82,1.14.36,2.29.67,3.42,1.01,2.22.66,4.55,1.81,6.47,3.12,2.02,1.37,3.78,3.27,4.52,5.6.63,1.96.52,4.07.35,6.12Z"/>
        <path class="cls-16" d="M551.17,715.58c-1.04,4.31-2.27,8.57-3.7,12.76-.43,1.24-.87,2.48-1.5,3.63-1.86,3.37-5.27,5.7-8.93,6.92-2.21.73-11.27,3.25-11.58-.18,8.26-12.19,25.12-22.75,25.7-23.12,0,0,.01,0,.01,0Z"/>
        <path class="cls-16" d="M544.42,762.32c-2.81,3.95-6.1,7.55-9.78,10.72-2.19,1.88-4.59,3.64-7.37,4.43-2.63.76-5.43.59-8.16.29-1.23-.13-2.47-.3-3.66-.67-1.03-.33-1.99-.82-2.96-1.31-1.56-.78-3.22-1.5-4.71-2.41,0,0,17.69-10.17,36.64-11.05Z"/>
        <path class="cls-3" d="M476.2,790.69c-3.23.43-6.5.34-9.65-.58-2.61-.76-5.09-2.15-6.89-4.19-1.71-1.94-2.75-4.36-3.64-6.78-.62-1.69-1.2-3.45-1.22-5.25,0,0,11.55,5.88,21.4,16.8Z"/>
        <path class="cls-16" d="M471.03,756.56c-1.2,1.39-2.26,2.3-3.84,3.23-.54.32-1.03.7-1.57,1.01-1.53.88-3.36,1.14-5.12.99-.85-.07-1.69-.23-2.52-.45-.88-.23-1.74-.52-2.6-.83-2.61-.95-5.15-2.1-7.58-3.43-.59-.33-5.89-3.95-6.12-3.95.45-.04,20.79-1.47,30.28,1.64.26.68-.31,1.06-.92,1.8Z"/>
        <path class="cls-16" d="M464.3,737.93s0,.09-.01.13c-4.08-.98-8.16-1.94-12.25-2.91-5.68-1.35-9.54-6.91-10.57-12.46-.73-3.92-.4-7.96-.07-11.93,0,0,17.36,14.89,22.9,27.18Z"/>
        <path class="cls-16" d="M515.31,696.58c-1,3.27-1.42,6.67-2.22,9.98-.8,3.32-2.05,6.64-4.45,9.25-1.31,1.44-3.02,2.63-4.94,3.33-1.33.48-3.3,1.15-4.74.73-.47-.14-.69-.4-.78-.71,3.51-9.14,17.14-22.58,17.14-22.58Z"/>
        <path class="cls-16" d="M483.9,712.01c-2.02-.11-4.04-.48-5.98-1.06-1.22-.37-2.42-.84-3.58-1.39-2.54-1.21-5.46-3.59-6.34-6.38-.85-2.68-1.57-5.47-2.4-8.18h0c.05.03.27.15.62.34,0,0,.01,0,.02.01,2.78,1.53,13.63,7.93,17.65,16.66Z"/>
        <path class="cls-16" d="M502.82,683.37c-.26,2.52-1.76,4.75-3.21,6.74-2.02,2.77-4.14,5.46-6.36,8.07-.2.23-.42.48-.72.56-.4.1-.8-.13-1.13-.38-2.61-17.93,3.01-37.09,3.18-37.69,0,0,0-.01,0-.01,1.5,3.17,2.98,6.34,4.48,9.5.84,1.78,1.68,3.56,2.36,5.4.88,2.38,1.65,5.24,1.39,7.82Z"/>
      </g>
    </g>
    <path class="cls-8" d="M578.79,945.59c6.46-16.49,25.43-27.03,42.84-23.8,0-19.97,21.65-36.84,41.01-31.93,2.22-22.44,17.01-43.21,37.48-52.64s45.87-7.17,64.35,5.73c.21-9.26,6.25-18.14,14.78-21.73,8.53-3.6,19.1-1.72,25.87,4.6-1.03-25.88,20.34-48.93,45.21-56.14,24.87-7.21,51.87-1.31,75.48,9.32,6.5-14.49,21.44-23.79,36.89-27.49,15.45-3.69,31.59-2.6,47.43-1.49-2.89,68.06-.11,136.36,8.31,203.95"/>
    <path class="cls-8" d="M418.33,950.28c3.22-9.46.61-20.65-6.46-27.71-7.07-7.06-18.25-9.67-27.71-6.44-1.15-15.86-10.96-30.83-25.05-38.21-14.21-7.45-31.64-6.75-45.53,1.04,1.47-5.91,3.62-8.07.33-14.09-2.79-5.1-7.36-9.31-12.66-11.68-8.01-3.57-17.75-2.94-25.23,1.64.33-28.25-21.26-54.22-48.2-62.72-26.94-8.5-57.4-1.05-80.08,15.79-.93-10.83-9.52-20.55-20.14-22.81s-22.43,3.13-27.68,12.64c-2.19-16.66-12.96-31.95-27.91-39.61-16.89-8.66-40.65-7.06-56.4,3.6-2.92-8.96-6.14-18.37-13.26-24.55s-19.44-7.38-25.24.04c-2.53,3.24-3.39,7.44-4.15,11.48-13.39,71.22-18.55,143.98-15.35,216.38"/>
    <path class="cls-5" d="M535.4,943.41c4.59-12.91,9.86-24.31,24.01-28.5,6.53-1.94,13.47-2.07,20.25-1.48,1.72.15,3.62.3,5.03-.72,1.28-.92,1.78-2.55,2.29-4.04,3.16-9.27,9.61-17.39,17.94-22.55,21.77-13.5,54.36-5.41,70.34,13.52,9.89-17.83,30.26-29.29,50.63-28.5,20.37.79,39.79,13.79,48.28,32.33,7.31-9.71,21.3-13.74,32.65-9.41s19.1,16.66,18.08,28.78c11.66-3.64,24.98-1.49,34.9,5.64,9.92,7.13,16.2,19.08,16.46,31.29"/>
    <path class="cls-5" d="M1004.07,811.64c-13.59-10.22-32.49-12.93-48.4-6.95s-28.35,20.47-31.85,37.11c-12.75-12.07-32.71-15.84-48.97-9.24s-27.97,23.2-28.71,40.75c-7.72-.5-15.55-1-23.11.64s-14.93,5.73-18.78,12.44c-3.85,6.71-3.2,16.22,2.73,21.19-7.96-.27-15.45,4.61-20.07,11.1-4.62,6.49-6.78,14.4-8.19,22.24-.72,4.01-.92,8.93,2.4,11.28,1.77,1.26,4.08,1.38,6.25,1.45,72.23,2.51,144.45,5.02,216.68,7.53"/>
    <path class="cls-5" d="M326.81,944.4c1.49-10.74-3.85-22.13-13.06-27.86-9.21-5.72-21.79-5.46-30.75.64,2.24-8.13-2.91-17.1-10.45-20.86-7.55-3.75-16.74-2.96-24.5.33-7.76,3.29-14.33,8.83-20.51,14.57,1.33-17.38-10.12-34.96-26.55-40.76-16.44-5.8-36.38.69-46.25,15.06-1.83-12.02-16.24-18.64-28.21-16.52-11.96,2.12-21.81,10.32-31.05,18.22-1.61-13.25-4.57-26.57-11.17-38.17-6.6-11.6-17.23-21.38-30.16-24.64-12.94-3.26-28.07,1.05-35.61,12.06-.28-17.39-12.5-33.94-29.02-39.35-7.78,49.33-9.97,99.53-6.52,149.35"/>
    <rect class="cls-15" x="845.03" y="348.33" width="11.99" height="13.44"/>
    <rect class="cls-15" x="845.03" y="367.14" width="11.99" height="13.44"/>
    <rect class="cls-15" x="862.81" y="348.33" width="11.99" height="13.44"/>
    <rect class="cls-15" x="360.3" y="363.05" width="9.81" height="14.28"/>
    <rect class="cls-15" x="360.3" y="383.35" width="9.81" height="14.28"/>
  </g>
  <path class="cls-14" d="M986,940H2c-1.1,0-2-.9-2-2V2C0,1.41.26.85.71.47,1.17.09,1.77-.07,2.35.03l984,173.56c.96.17,1.65,1,1.65,1.97v762.44c0,1.1-.9,2-2,2ZM4,936h980V177.24L4,4.38v931.61Z"/>
</svg>