<?xml version="1.0" encoding="UTF-8"?>
<svg id="Image" xmlns="http://www.w3.org/2000/svg" xmlns:xlink="http://www.w3.org/1999/xlink" viewBox="0 0 988 940">
  <defs>
    <style>
      .cls-1 {
        fill: #b9d8e2;
      }

      .cls-2 {
        fill: #77ad9b;
      }

      .cls-3 {
        fill: #94ef8b;
      }

      .cls-4 {
        fill: #c1e1e9;
      }

      .cls-5 {
        fill: #1cb829;
      }

      .cls-6 {
        fill: #d87625;
      }

      .cls-7 {
        fill: #93d2ad;
      }

      .cls-8 {
        fill: none;
      }

      .cls-9 {
        fill: #85baa8;
      }

      .cls-10 {
        fill: #93dba1;
      }

      .cls-11 {
        fill: #aa5217;
      }

      .cls-12 {
        fill: #87734c;
      }

      .cls-13 {
        fill: #a9c4d0;
      }

      .cls-14 {
        fill: #93e596;
      }

      .cls-15 {
        fill: #92c8b8;
      }

      .cls-16 {
        fill: #6d3108;
      }

      .cls-17 {
        fill: #333;
      }

      .cls-18 {
        fill: #34d434;
      }

      .cls-19 {
        fill: #c9eaf2;
      }

      .cls-20 {
        fill: #54f445;
      }

      .cls-21 {
        clip-path: url(#clippath);
      }

      .cls-22 {
        fill: #af975a;
      }
    </style>
    <clipPath id="clippath">
      <polygon class="cls-8" points="2 938 2 2 986 175.56 986 938 2 938"/>
    </clipPath>
  </defs>
  <g class="cls-21">
    <rect class="cls-19" x="-65.29" y="-46.95" width="1086.63" height="703.7"/>
    <rect class="cls-4" x="41.31" y="317.93" width="38.72" height="88.47"/>
    <rect class="cls-3" x="-68.55" y="565.23" width="1247.87" height="439.47"/>
    <rect class="cls-4" x="562.15" y="375.95" width="43.27" height="112.64"/>
    <rect class="cls-13" x="625.21" y="407.64" width="87.31" height="135.75"/>
    <rect class="cls-1" x="835.03" y="338.39" width="74.68" height="167.19"/>
    <rect class="cls-1" x="321.74" y="351.16" width="57.2" height="167.19"/>
    <rect class="cls-13" x="168.4" y="287.13" width="74.68" height="167.19"/>
    <g>
      <rect class="cls-2" x="-17.3" y="584.6" width="1028.37" height="71.31"/>
      <path class="cls-15" d="M71.05,412.92c6.7-4.69,6.24-15.82.28-21.43-5.96-5.6-15.38-6.17-23.05-3.34,9.12-6.16,12.43-19.56,7.22-29.26-5.21-9.7-18.19-14.35-28.37-10.15,3.32-11.88.43-25.31-7.48-34.78-7.91-9.46-20.62-14.69-32.89-13.53-6.36,57.22-9.41,114.81-9.12,172.38.02,3.51.22,7.43,2.78,9.83,2.17,2.03,5.38,2.33,8.34,2.52,16.43,1.08,32.86,2.17,49.29,3.25,4.35-11.91-9.34-26.7-1.6-36.74,2.95-3.83,8.06-5.18,12.82-6.03s9.84-1.55,13.56-4.65,5.06-9.59,1.28-12.61"/>
      <path class="cls-15" d="M912.47,443.55c-12.6-9.58-15.39-29.74-5.87-42.39,9.52-12.65,29.65-15.54,42.35-6.09-4.85-11.99,2.61-26.12,13.48-33.12,10.87-7,24.24-8.61,37.09-10.03-1.48,69.12-1.87,138.26-1.16,207.39-14.09-3.9-28.3-7.81-42.88-8.75-14.59-.94-29.76,1.3-42.21,8.96-8.76-30.12-39.91-52.07-71.21-50.19,8-.48,10.35-14.98,11.41-20.86.91-5.03.22-9.67,2.57-14.45,2.59-5.27,7.13-9.56,12.32-12.22,7.98-4.1,17.28-4.83,26.24-4.34-.9-3.99.38-8.41,3.28-11.29,3.84-3.81,9.67-4.21,14.59-2.61Z"/>
      <path class="cls-15" d="M374.89,454.15c-7.97-5.16-20.01-2.22-24.71,6.03-4.22-13.62-17.49-23.92-31.72-24.63-14.24-.71-28.47,8.21-34.03,21.33-2.01,4.74-2.68,10.89,1.01,14.48-7.66,4.62-13.38,12.6-14.64,21.46s2.2,18.4,9.27,23.89c7.07,5.49,17.58,6.37,25.16,1.62.1,8.49,1.94,17.76,8.51,23.15,6.81,5.58,17.16,5.24,24.82.91,7.66-4.33,12.97-11.92,16.7-19.9,8.44,7.3,22.65,6.49,30.21-1.72s7.18-22.45-.79-30.25c-1.68-1.64-3.65-3.04-4.89-5.03-3-4.8,2.89-11.1,2.84-16.48-.05-5.78-2.79-11.67-7.72-14.86Z"/>
      <path class="cls-7" d="M665.92,520.49c5.57-6.2,5.58-16.62.02-22.83-5.55-6.21-15.91-7.36-22.69-2.52,2.77-11.19-4.59-23.9-15.67-27.07-11.08-3.16-24.05,3.75-27.6,14.71-2.45-8.78-12.3-14.77-21.22-12.9s-15.54,11.31-14.25,20.34c-9.49.49-18.61,5.78-23.75,13.78-2.89,4.5-4.54,10.19-2.76,15.23,1.37,3.88,4.61,6.87,8.24,8.8s7.67,2.93,11.66,3.91c-8.46,5.53-12.34,17.03-9.25,26.66,3.09,9.62,12.73,16.65,22.82,16.96,10.1.31,20.02-5.94,24.38-15.05,2.88,6.01,10.24,9.11,16.82,8.05,6.58-1.06,12.22-5.69,15.67-11.39,3.45-5.7,4.94-12.39,5.59-19.03,6.49,2.27,13.47,4.28,20.16,2.69s12.68-8.09,11.29-14.83"/>
      <path class="cls-10" d="M70.51,604.9c-.53,3.29.61,6.8,2.97,9.14,2.24,2.22,5.38,3.33,8.51,3.67s6.29-.03,9.42-.4c-1.71,3.32-.82,7.64,1.73,10.36s6.51,3.89,10.22,3.5,7.17-2.2,9.99-4.65c-.04,3.95,2.71,7.66,6.35,9.18s7.97.98,11.39-1,5.96-5.26,7.49-8.9c4.63,4.1,10.67,6.89,16.85,6.59,6.18-.3,12.33-4.14,14.35-9.98,2.02-5.85-1.09-13.27-7.01-15.07,4.26-8.23,1.46-19.43-6.17-24.69s-19.08-3.89-25.26,3.01c-3.57-5.31-10.21-8.38-16.57-7.68-6.36.71-12.16,5.17-14.48,11.14-2.53-3.78-6.19-6.94-10.57-8.19s-9.47-.35-12.7,2.86c-3.4,3.37-2.85,6.97-2.32,11.21.5,3.99-3.55,5.91-4.19,9.91Z"/>
      <path class="cls-10" d="M396.1,623.12c1.26,3.25,4.42,5.52,7.81,6.32s6.97.29,10.29-.76c-1.9,2.25-1.81,5.77-.19,8.23s4.48,3.91,7.39,4.34,5.89-.06,8.73-.81c1.53-.4,3.08-.88,4.65-.74,1.36.13,2.63.72,3.89,1.25,4.12,1.75,8.54,2.98,13.02,2.88s9.03-1.61,12.23-4.75,4.81-8,3.52-12.29c4.16.15,8.63-1.01,11.33-4.18s2.83-8.63-.48-11.16c6.15-.84,10.66-7.4,9.93-13.56s-6.03-11.28-12.11-12.55-12.59.98-17.19,5.14c-5.44-6.8-11.51-14.01-19.98-16.02-4.68-1.11-9.6-.47-14.3.57-4.47.99-8.91,2.38-12.79,4.81s-7.17,6.02-8.56,10.39-.63,9.52,2.5,12.86c-4.37.97-6.92,4.67-7.82,8.81-.81,3.74-3.39,7.3-1.87,11.22Z"/>
      <path class="cls-9" d="M122.27,656.57h119.96c-.52-5.47-3.91-10.54-8.94-12.73s-11.23-1.42-15.58,1.93c-2.67-4.12-7.3-6.9-12.19-7.3s-9.92,1.57-13.23,5.2c-1.72-6.25-7.72-11.05-14.19-11.36s-12.9,3.92-15.2,9.97c-3.62-4.88-10.33-7.23-16.2-5.67s-10.54,6.93-11.26,12.96c-3.68-1.88-8.14-2.16-12.02-.74s-7.12,4.5-8.73,8.3"/>
      <path class="cls-9" d="M857.56,652.95c-.83-6.13-5.43-11.59-11.33-13.45-5.9-1.85-12.8,0-16.98,4.55-1.95-6.1-7.87-10.72-14.27-11.12s-12.84,3.45-15.53,9.27c-4.63-5.67-12.43-8.55-19.63-7.25s-13.51,6.72-15.87,13.65c-4.47-2.16-9.8-2.48-14.5-.88-4.7,1.6-9.11,4.91-11.34,9.36h122.42"/>
      <path class="cls-9" d="M601.47,656.75h153.55c-3.03-5.28-11.19-7.05-16.6-4.25-1.88-3.22-5.37-5.45-9.09-5.78s-7.55,1.24-9.97,4.08c-1.51-9.38-9.57-17.32-18.97-18.71s-19.4,3.91-23.55,12.45c-1.86-2.66-5.25-4.17-8.47-3.76s-6.13,2.72-7.26,5.76c-3.06-5.53-9.36-9.1-15.67-8.9s-12.37,4.17-15.07,9.89c-1.97-2.32-5.2-3.49-8.2-2.97s-5.65,2.7-6.73,5.54c-10.91-4.33-24.2-1.84-32.8,6.15"/>
      <path class="cls-9" d="M419.34,656.59h148.76c-6.84-9.42-20.46-13.24-31.28-8.96-.85-4.52-4.23-8.47-8.56-10.01s-9.45-.61-12.95,2.36c-3.07-8.19-9.68-15.31-18.12-17.58-8.44-2.26-18.48,1.2-22.61,8.9-2.56-7.14-10.47-11.94-17.99-10.92s-13.86,7.76-14.42,15.33c-3.62-3.49-9.87-3.77-13.79-.62s-4.99,9.32-2.37,13.6c-6.29-1.02-13.06,2.43-15.93,8.12"/>
      <polygon class="cls-12" points="547.6 655.9 548.81 591.32 549.81 591.32 551.01 655.9 547.6 655.9 547.6 655.9"/>
      <path class="cls-7" d="M562.4,647.34c2.23-5.62,8.04-9.63,14.09-9.72s11.97,3.75,14.36,9.31c1.49-2.48,4.85-3.44,7.62-2.63s4.94,3.11,6.18,5.72,1.65,5.54,1.86,8.42h-71.06c.69-2.79,2.48-5.26,5.19-6.2,1.12-.39,2.33-.53,3.51-.44,1.06.08,2.37.83,3.41.61,1.58-.34,1.93-2.68,2.7-3.86,2.67-4.11,8.69-4.74,12.14-1.22Z"/>
      <path class="cls-7" d="M242.73,658.45h196.29c-6.19-5.1-15.2-6.53-22.71-3.71,3.09-3.86-3.32-8.54-6.47-9.37-3.21-.84-6.79-.07-9.37,2.01-1.05-4.87-4.62-7-8.66-9.15-4.69-2.49-9.87-3.63-15.2-2.99-7.42.9-14.36,5.18-18.49,11.41-6.02-3.76-14.69-2.48-19.36,2.86-.45-8.36-6.53-16.14-14.54-18.58-8.01-2.45-17.39.61-22.43,7.29-4.41-5.02-11.94-7.03-18.26-4.88-6.32,2.15-11.06,8.34-11.49,15.01-3.31-3.57-9.81-3.37-12.89.4-12.79-6.71-34.26-3.09-41.34,9.51,7.96,0,14.93,0,24.92.16Z"/>
      <polygon class="cls-12" points="875.06 656.93 876.98 607.76 878.14 607.76 880.06 656.93 875.06 656.93 875.06 656.93"/>
      <path class="cls-7" d="M985.33,659.49c-.32.11-.63.32-.97.32h-153.69c.2,0,1.42-1.79,1.65-2.03.71-.74,1.5-1.4,2.34-1.99,1.58-1.12,3.31-1.86,5.19-2.33,3.93-.97,8.2-.64,11.9,1.02.4.18.83.38,1.27.3.65-.12,1.01-.79,1.32-1.37.84-1.6,1.9-3.11,3.31-4.22,3.58-2.83,8.94-2.88,12.9-.93,2.95,1.46,5.41,3.73,7.83,5.97,3.79-6.96,11.21-11.8,19.1-12.45,7.89-.65,16.01,2.9,20.89,9.14,3.2-7.5,10.26-13.24,18.26-14.83s16.71,1,22.55,6.7c.57-7.55,4.33-14.8,10.17-19.61s13.68-7.11,21.19-6.23"/>
      <path class="cls-7" d="M-2.94,661.94h151.04c-6.1-8.6-17.85-12.6-27.74-8.97.22-5.84-5.48-10.66-11.3-11.18-5.82-.52-11.46,2.27-16.15,5.77-2.59-8.19-9.74-14.77-18.11-16.68-8.37-1.9-17.66.94-23.54,7.21-1.86-7.36-8.08-13.44-15.48-15.11-7.4-1.68-15.64,1.13-20.48,6.97-5.78-5.91-15.97-6.81-22.7-2.01"/>
      <path class="cls-7" d="M167.06,625.08c5.62,3.11,13.21,2.12,17.86-2.32.46,3.97,3.53,7.5,7.4,8.5,3.87,1,8.27-.6,10.59-3.85,3.73,4.59,10.43,6.5,16.01,4.56,5.58-1.93,9.67-7.58,9.76-13.49,4.17,3.24,10.25,3.15,15.01.88s8.4-6.38,11.39-10.74c1.38-2.01,2.7-4.25,2.66-6.69s-1.99-4.99-4.42-4.79c5.8-3.39,8.56-10.81,7.39-17.43s-5.76-12.3-11.45-15.87c-4.5-2.82-9.85-4.47-15.13-3.91s-10.4,3.55-12.88,8.25c-.2-6.42-4.2-12.37-9.61-15.84-5.4-3.47-12.04-4.67-18.46-4.34-6.99.35-14.16,2.61-19.05,7.63s-6.9,13.14-3.58,19.3c-4.68,1.69-9.34,3.74-13.01,7.09s-6.24,8.23-5.79,13.18c0,5.17,4.76,9.12,9.42,9.85-1.29,3.97-2.6,6.47-1.32,10.83,1.12,3.82,3.69,7.25,7.19,9.19Z"/>
      <polygon class="cls-12" points="199.99 661.28 202.17 587.95 202.81 587.95 204.99 661.28 199.99 661.28 199.99 661.28"/>
      <path class="cls-7" d="M831.57,617.48c5.69,5.14,15.39,4.93,20.85-.45-1.02,5.55,2.25,11.58,7.45,13.76s11.79.28,15.04-4.33c3.55,6.36,11.37,10.01,18.52,8.65s13.09-7.63,14.05-14.85c5.22.27,10.58-.06,15.4-2.08s9.04-5.96,10.39-11.01c1.35-5.05-.77-11.1-5.46-13.4,6.24-5.62,10.13-13.92,9.86-22.31s-4.91-16.64-12.23-20.74-17.12-3.6-23.66,1.66c-5.22-6.43-12.11-11.77-20.11-13.9s-17.18-.68-23.35,4.86c-6.17,5.53-8.51,15.35-4.45,22.57-8.82.89-17.44,3.81-24.98,8.48-2.31,1.43-4.69,3.26-5.25,5.92-.49,2.31.58,4.74,2.2,6.46,1.63,1.73,3.77,2.72,5.68,4.02-4.13,8.14-8.01,19.41.05,26.69Z"/>
      <polygon class="cls-12" points="730.89 657.55 732.99 602.16 733.79 602.16 735.89 657.55 730.89 657.55 730.89 657.55"/>
      <path class="cls-7" d="M710.61,620.32c-1.5,5.61,1.96,12.08,7.45,13.94s12.18-1.18,14.39-6.54c7.76,6.87,20.23,7.69,28.81,1.88,2.48-1.68,4.73-4,5.37-6.92s-.85-6.44-3.73-7.24c5.69-1.83,11.5-3.81,16.11-7.62,4.61-3.81,7.81-9.91,6.54-15.75-1.27-5.84-8.16-10.31-13.55-7.71,4.18-4.64,4.84-11.92,2.11-17.54s-8.51-9.47-14.67-10.49c-6.16-1.02-12.61.63-17.91,3.93,2.62-5.34,1.06-12-2.46-16.8s-8.69-8.09-13.84-11.06c-8.36-4.82-17.84-9.23-27.32-7.46-8.82,1.65-16.27,9.08-17.96,17.9s2.51,18.47,10.11,23.25c-2.39-1.51-9.57,11.13-10.03,12.88-1.7,6.53,2.19,10.43,4.42,16.07,3.48,8.81-.39,20.06,9.38,25.76,5.07,2.96,11.91,2.9,16.77-.48Z"/>
      <path class="cls-10" d="M500.26,605.35c3.04,5.51,9.86,8.65,16.02,7.38-2.82,3.52-2.3,9.24,1.11,12.19,3.41,2.95,9.14,2.65,12.22-.64.98,4.18,4.72,7.58,8.98,8.15s8.76-1.72,10.8-5.5c4.7,4.77,12.55,6.05,18.52,3.03,5.97-3.02,9.59-10.11,8.53-16.72,10.85-.73,20.25-10.76,20.27-21.63,0-3.27-.8-6.67-2.92-9.16s-5.72-3.88-8.8-2.78c2.27-4.37,2.12-9.85-.22-14.16-2.76-5.07-7.18-5.93-12.73-5.12,1.84-3.44,1.37-7.81-.57-11.19s-5.18-5.86-8.69-7.57c-6.32-3.08-13.78-3.85-20.53-1.87-6.39,1.87-9.9,5.79-14.31,10.36-3.73,3.87-9.09,8.39-5.53,14.45-4.63-.03-9.34-.06-13.79,1.22s-8.7,4.05-10.65,8.25c-2.59,5.57,1.15,9.4,1.89,14.63.84,5.99-2.94,10.61.41,16.68Z"/>
      <path class="cls-10" d="M16.19,609.87c5.22-1.17,9.81-4.86,12.08-9.7,6.64,3.54,14.23,5.69,21.7,4.82,7.47-.88,14.76-5.12,18.14-11.84s2.07-15.83-3.83-20.5c5.56-6.13,11.18-12.35,14.9-19.74,3.72-7.39,5.37-16.21,2.59-24s-10.75-13.96-18.96-12.95c2.87-7.51,4.75-15.63,3.52-23.57-1.24-7.94-6.08-15.65-13.53-18.65-7.45-3-17.29,0-20.48,7.38-9.81-11.31-28.28-13.8-40.73-5.49-12.45,8.31-17.25,26.33-10.57,39.73,1.03,2.06,2.33,4.28,1.77,6.52-.62,2.52-3.26,3.86-5.45,5.25-7.34,4.67-11.88,13.44-11.46,22.13.42,8.69,5.78,16.98,13.53,20.93-7.37,4.94-12.57,13.68-11.62,22.5.96,8.82,9.16,16.75,17.99,15.88,5.43-.54,10.37-4.55,15.59-2.46s8.38,5.21,14.82,3.77Z"/>
      <path class="cls-10" d="M315.58,623.09c4.51-2.89,7.6-7.92,8.14-13.25,9.17,1.11,18.84-.4,26.66-5.33s13.53-13.5,13.93-22.73c.4-9.24-5.08-18.74-13.71-22.05,5.25-5.03,6.17-13.96,2.06-19.96s-12.78-8.35-19.36-5.26c-4.42-16.66-21.75-27.97-38.98-28.28-17.23-.31-33.67,8.87-45.16,21.71-4.08,4.56-7.69,9.71-9.41,15.59-1.72,5.87-1.33,12.58,2.1,17.65-7.59,4.38-13.96,11.26-16.56,19.63s-1.01,18.21,5.01,24.57c5.37,5.67,13.53,8.03,21.34,8.01,7.82-.02,15.45-2.15,22.98-4.27-4.61,5.7-2.62,15.43,3.85,18.85,6.79,3.61,14.99-.61,17.8-7.21,4.45,6.54,12.63,6.62,19.3,2.34Z"/>
      <g>
        <path class="cls-10" d="M740.47,586.04c-4.75-.07-9.29,2.04-14.03,2.38-9.39.67-18.65-6.73-20.09-16.03-1.44-9.3,5.17-19.14,14.32-21.34-15.23-9.67-25.14-27.22-25.56-45.26-.18-7.48,1.25-15.13,5.1-21.54,3.85-6.41,10.33-11.44,17.72-12.55,4.83-.73,9.74.2,14.54,1.13-1.96-4.7-3.95-9.49-4.43-14.56-.48-5.07.76-10.56,4.44-14.08,5.31-5.08,15.14-4.05,19.27,2.03,2.65-12.44,5.97-23.49,15.18-32.79,8.47-8.55,19.93-14.27,31.99-15.14,19.64-1.42,39.5,10.04,48.38,27.57.43.86.8,1.78,1.27,2.6,2.58-1.56,6.73-1.75,9.7-1.58,3.86.23,7.67,1.54,10.83,3.77,5.19,3.66,8.59,9.67,9.33,15.99.74,6.31-1.12,12.84-4.84,17.99,4.4.11,8.74,1.95,11.88,5.04,7.44,7.33,6.65,21.54-3.08,26.55,4.47.08,10.49,3.93,14.41,6.06,5.14,2.8,9.98,6.19,14.05,10.41,7.42,7.7,12.07,18.68,10.08,29.18-1.99,10.51-11.8,19.64-22.46,18.81,1.06,7.36-2.12,14.59-7.78,19.23-2.73,2.24-5.74,3.81-9.26,4.39-1.18.2-9.41.7-9.71-1.03,1.77,10.33-3.01,21.49-11.7,27.34-8.69,5.85-20.83,6.07-29.73.54-3.44,5.72-8.3,10.71-14.34,13.57s-13.28,3.43-19.41.81c-6.14-2.62-10.89-8.64-11.3-15.3-14.29,6-36.13,4.69-43.81-10.94-.57-1.15-3.85-13.31-.96-13.27Z"/>
        <polygon class="cls-22" points="799.8 676.7 805.72 465.33 806.72 465.33 812.64 676.7 799.8 676.7 799.8 676.7"/>
        <path class="cls-22" d="M805.25,603.89c7.13-30.19,25.06-57.42,49.57-75.74l.61.79c-23.62,19.08-40.08,46.5-45.86,75.89l-4.33-.94h0Z"/>
        <path class="cls-22" d="M803.85,571.64c-4.3-23.34-21.32-44.08-43.49-53.07,0,0,.35-.94.35-.94,23.65,7.89,42.59,28.41,48.74,52.78,0,0-5.6,1.23-5.6,1.23h0Z"/>
      </g>
      <polygon class="cls-22" points="290.91 667.05 295.49 556.07 296.49 556.07 301.07 667.05 290.91 667.05 290.91 667.05"/>
      <path class="cls-22" d="M293.71,624.15c1.28-16.68,9.43-32.39,21.85-42.86l.67.74c-11.46,11.13-18.03,26.81-18.1,42.31l-4.41-.19h0Z"/>
      <g>
        <path class="cls-3" d="M938.98,622.9c-4.63-1.9-8.05-6.48-8.56-11.46-10.32,4.68-23.7,1.19-30.42-7.94-6.72-9.13-6.08-22.94,1.45-31.41-13.26-7.31-19.46-25.23-13.57-39.18,5.9-13.95,23.07-21.98,37.55-17.56-2.14-9.7,1.99-20.5,10.07-26.29,8.07-5.79,19.62-6.25,28.12-1.11s13.47,15.58,12.1,25.42c12.51.69,24.96,5.84,33.36,15.14,8.39,9.3,12.25,22.87,8.77,34.9s-14.77,21.74-27.28,22.2c8.6,3.73,12.81,15.22,8.65,23.62-4.16,8.41-15.84,12.03-24.02,7.46,2.77,1.55-13.01,8.88-15.58,8.69-2.94-.22-5.44-1.98-8.28-2.26-4.37-.43-7.94,1.58-12.36-.24Z"/>
        <polygon class="cls-22" points="949.64 669.67 952.28 531.18 953.28 531.18 955.92 669.67 949.64 669.67 949.64 669.67"/>
        <path class="cls-22" d="M951.34,617.78c-3.65-19.8-10.71-39.03-20.81-56.57l.86-.51c10.71,17.31,18.48,36.51,22.82,56.51l-2.87.58h0Z"/>
      </g>
      <polygon class="cls-22" points="28.08 548.3 32.4 672.19 22.75 672.19 27.08 548.3 28.08 548.3 28.08 548.3"/>
      <path class="cls-22" d="M26.55,629.02c-2.08-18.28-10.06-36.06-22.65-49.97l.41-.4c13.5,13.21,22.86,30.83,26.2,49.79l-3.96.58h0Z"/>
      <path class="cls-14" d="M353.44,508.34c-1.49,2.06-2.65,4.37-3.38,6.8-7.35-.7-14.92,3.4-18.37,9.92-2.21,4.19-2.63,9.23-1.4,13.78.89,3.29,2.58,7.66,4.67,10.37-5.41,2.89-9.36,8.23-10.29,14.33-.92,6.06,1.24,12.5,5.61,16.78,1.19,1.17,2.58,2.24,3.21,3.79,1.15,2.87-.75,5.95-1.55,8.93-1.55,5.78,1.36,12.15,6.12,15.77s11.03,4.78,17,4.41,11.75-2.14,17.47-3.9c-.98.3,1.13,5.72,1.56,6.39,1.08,1.69,2.25,2.24,4.29,2.54,4.54.68,9.59-1.43,11.95-5.45,3.93,4.99,10.81,7.46,17.01,6.11,7.8-1.69,15.99-10.93,12.95-19.26,8.45-2.84,16.54-7.38,22.24-14.23,5.71-6.85,8.76-16.23,6.74-24.92-2.02-8.69-9.7-16.14-18.61-16.59,5.63-5.14,7.33-13.94,4.55-21.04s-9.61-12.3-17.1-13.7c-7.5-1.4-15.46.81-21.59,5.35,2.76-2.05-10.82-11.14-12.17-12-2.05-1.32-4.62-3.32-7.11-3.68-5.71-.81-12.5.39-17.41,3.46-2.5,1.56-4.68,3.62-6.41,6.01Z"/>
      <polygon class="cls-22" points="384.25 663.77 387.4 581.59 388.4 581.59 391.56 663.77 384.25 663.77 384.25 663.77"/>
      <g>
        <path class="cls-3" d="M676.21,622.22c13.09,3.34,27.9-1.36,36.66-11.65,3.29-3.86,5.8-8.57,6.2-13.63s-1.61-10.46-5.79-13.33c10.42-1.74,18.02-13.36,15.44-23.61-2.59-10.24-14.8-16.87-24.79-13.44,5.17-14.46-2.44-32.28-16.47-38.53-14.03-6.25-32.36,0-39.66,13.51-5.69-9.68-16.63-16.05-27.86-16.2-11.23-.15-22.34,5.91-28.28,15.44-5.95,9.53-6.52,22.17-1.45,32.2-9.68,3.97-18.44,10.86-23.15,20.21s-4.83,21.25,1.01,29.93c5.84,8.68,18,13.03,27.53,8.71-6.47,1.99-10.25,9.75-8.51,16.3,1.74,6.55,8.23,11.28,14.98,11.74s13.46-2.99,17.72-8.25c-2.14,2.64-3.07,5.07-2.05,8.52.81,2.75,3.18,6.19,6,7.1,6.98,2.25,15.73-1.67,19.78-7.41,3.74,2.49,8.36,3.63,12.82,3.16,10.1-1.05,19.05-10.72,19.86-20.75Z"/>
        <polygon class="cls-22" points="636.12 676.77 640.48 561.63 641.48 561.63 645.85 676.77 636.12 676.77 636.12 676.77"/>
        <path class="cls-22" d="M638.79,640.74c-6.21-16.34-14.73-31.94-25.28-46.19l.77-.63c11.96,13.21,22.17,28.15,30.21,44.32l-5.71,2.51h0Z"/>
      </g>
      <g>
        <path class="cls-3" d="M493.68,603.22c9.08-2.8,16.24-10.41,18.48-19.66,6.5,3.32,14.59,2.79,20.09-1.32s8.18-11.6,6.63-18.62c16.37-1.3,31.16-11.5,37.85-26.12,2.11-4.61,3.46-9.79,2.55-14.97s-4.49-10.29-9.54-11.94c7.84-9.77,12.02-22.73,10.4-35.66-1.62-12.93-9.35-25.61-20.84-32.4s-26.51-7.06-36.73.22c-9.18-22.96-33.53-39.8-57.72-39.91s-46.42,16.51-52.69,39.4c-12.66-5.57-27.37-4.02-38.39,2.77-12.04,7.41-17.25,20.73-14.24,35.18,2.01,9.65,7.27,18.62,13.86,26.24,1.18,1.37,2.51,3,2.18,4.7-.29,1.47-1.7,2.31-2.94,3.11-7.32,4.69-12.04,12.96-12.71,21.82-.63,8.36,5.07,17.9,11.44,23.46,8.65,7.55,20.01,11.07,31.09,12.73-.09,5.08,3.08,10.29,7.72,12.71,2.82,1.47,6.09,1.87,9.07,1.25,1.13-.24,6.24-1.84,6.28-3.35-.45,15.44,16.51,28.64,31.07,23.99,4.92-1.57,9.05-5.14,11.28-9.75,5.04,8.69,17.8,8.57,25.78,6.11Z"/>
        <polygon class="cls-22" points="454.34 658.26 458.15 484.4 459.15 484.4 462.96 658.26 454.34 658.26 454.34 658.26"/>
        <path class="cls-22" d="M457.89,594.57c-1.51-1.1-1.58-1.51-1.12-2.81.37-1.47,1.74-5.45,2.25-6.93,5.54-15.14,14.58-29.09,26.24-40.21,4.67-4.42,9.7-8.44,15.12-11.82l.58.81c-4.88,4.03-9.48,8.33-13.66,13-9.44,10.39-17,22.46-22.26,35.45-1.23,3.12-2.9,7.78-3.75,11.01-.09.26-.18.87-.4,1.1-.28.33-.86.57-2.04.67,0,0-.97-.26-.97-.26h0Z"/>
      </g>
      <path class="cls-3" d="M207.61,596.89c1.21-.31,2.41-.68,3.59-1.1,15.39-5.48,26.74-19.97,28.51-36.39-.15,1.37,12.68-1.62,13.69-2.09,4.65-2.15,8.83-5.78,11.2-10.36,3.62-7,3.12-15.84-.49-23.16-1.79-3.62-4.82-5.53-1.93-8.89,2.04-2.36,7.88-2.75,10.75-3.86,14.78-5.74,26.75-17.98,31.66-33.13,6.16-19.04.9-41.9-13.21-57.42-14.11-15.52-36.49-23.04-56.19-18.9,2.55-.54,1.09-11.56.67-13.3-1.21-5-3.95-9.8-7.83-13.34-6.3-5.73-20.55-6.44-22.35,3.6.08-24.75-18.43-48.88-41.9-57.38-12.74-4.61-21.68-6.07-33.21.88-5.4,3.25-10.16,7.53-13.93,12.56-.82,1.09-8.4,14.58-7.49,14.83-16.87-4.73-35.4-1.1-48.42,9.47-13.02,10.57-20.19,27.83-18.75,45.08-13.22-1.33-26.6,2.57-36.57,10.65s-19.98,23.19-14.94,37.06,13.74,26.78,28.11,32.45c-10.4,2.74-16.93,14.65-13.87,25.29,3.06,10.63,15.2,18.2,25.77,16.06-10.16,15.09-14.79,36.35-4.24,52.38,8.31,12.62,24.19,18.77,38.91,18.75,14.72-.01,28.59-5.22,41.87-10.84-3.87,1.64,2.56,19.04,5.6,21.49,7.28,5.85,21.5,4.54,29.17,1.86,10.48-3.66,18.87-12.26,22.27-22.82,12,10.31,28.93,14.3,43.58,10.53Z"/>
      <polygon class="cls-22" points="125.14 699.42 135.65 412.18 136.65 412.18 147.16 699.42 125.14 699.42 125.14 699.42"/>
      <path class="cls-22" d="M130.33,597.99c11.54-41.19,37.65-77.37,71.97-100.95l.6.8c-32.27,25.94-54.6,63.07-62.5,102.57l-10.07-2.43h0Z"/>
      <path class="cls-22" d="M132.28,536.48c-4.54-27.44-19.2-50.91-35.07-73.29,0,0,.81-.59.81-.59,4.25,5.44,8.5,10.89,12.58,16.48,12.53,16.78,22.59,35.67,27.38,56.19,0,0-5.7,1.21-5.7,1.21h0Z"/>
    </g>
    <path class="cls-7" d="M579,834.55c-50.16-5.06-103.08-3.54-153.69-.26-5.91.38-11.92.78-17.22,1.79s-9.87,2.74-10.83,4.86c-2.47,5.46,23.23,8.29,34.12,9.37,16.16,1.6,33.1,1.89,49.77,2.08,18.93.21,38.02.33,56.6-.81,18.59-1.14,36.84-3.61,50.63-8.03,3.53-1.13,6.95-2.57,6.69-4.24-.41-2.59-8.86-4.02-16.08-4.75Z"/>
    <path class="cls-10" d="M578.79,945.59c6.46-16.49,25.43-27.03,42.84-23.8,0-19.97,21.65-36.84,41.01-31.93,2.22-22.44,17.01-43.21,37.48-52.64,20.47-9.43,45.87-7.17,64.35,5.73.21-9.26,6.25-18.14,14.78-21.73s19.1-1.72,25.87,4.6c-1.03-25.88,20.34-48.93,45.21-56.14,24.87-7.21,51.87-1.31,75.48,9.32,6.5-14.49,21.44-23.79,36.89-27.49s31.59-2.6,47.43-1.49c-2.89,68.06-.11,136.36,8.31,203.95"/>
    <path class="cls-10" d="M418.33,950.28c3.22-9.46.61-20.65-6.46-27.71-7.07-7.06-18.25-9.67-27.71-6.44-1.15-15.86-10.96-30.83-25.05-38.21-14.21-7.45-31.64-6.75-45.53,1.04,1.47-5.91,3.62-8.07.33-14.09-2.79-5.1-7.36-9.31-12.66-11.68-8.01-3.57-17.75-2.94-25.23,1.64.33-28.25-21.26-54.22-48.2-62.72-26.94-8.5-57.4-1.05-80.08,15.79-.93-10.83-9.52-20.55-20.14-22.81s-22.43,3.13-27.68,12.64c-2.19-16.66-12.96-31.95-27.91-39.61-16.89-8.66-40.65-7.06-56.4,3.6-2.92-8.96-6.14-18.37-13.26-24.55-7.11-6.18-19.44-7.38-25.24.04-2.53,3.24-3.39,7.44-4.15,11.48-13.39,71.22-18.55,143.98-15.35,216.38"/>
    <path class="cls-7" d="M535.4,943.41c4.59-12.91,9.86-24.31,24.01-28.5,6.53-1.94,13.47-2.07,20.25-1.48,1.72.15,3.62.3,5.03-.72,1.28-.92,1.78-2.55,2.29-4.04,3.16-9.27,9.61-17.39,17.94-22.55,21.77-13.5,54.36-5.41,70.34,13.52,9.89-17.83,30.26-29.29,50.63-28.5,20.37.79,39.79,13.79,48.28,32.33,7.31-9.71,21.3-13.74,32.65-9.41,11.35,4.33,19.1,16.66,18.08,28.78,11.66-3.64,24.98-1.49,34.9,5.64,9.92,7.13,16.2,19.08,16.46,31.29"/>
    <path class="cls-7" d="M1004.07,811.64c-13.59-10.22-32.49-12.93-48.4-6.95-15.92,5.98-28.35,20.47-31.85,37.11-12.75-12.07-32.71-15.84-48.97-9.24-16.27,6.6-27.97,23.2-28.71,40.75-7.72-.5-15.55-1-23.11.64s-14.93,5.73-18.78,12.44c-3.85,6.71-3.2,16.22,2.73,21.19-7.96-.27-15.45,4.61-20.07,11.1s-6.78,14.4-8.19,22.24c-.72,4.01-.92,8.93,2.4,11.28,1.77,1.26,4.08,1.38,6.25,1.45,72.22,2.51,144.45,5.02,216.67,7.53"/>
    <path class="cls-7" d="M326.81,944.4c1.49-10.74-3.85-22.13-13.06-27.86-9.21-5.72-21.79-5.46-30.75.64,2.24-8.13-2.91-17.1-10.45-20.86-7.55-3.75-16.74-2.96-24.5.33s-14.33,8.83-20.51,14.57c1.33-17.38-10.12-34.96-26.55-40.76-16.44-5.8-36.38.69-46.25,15.06-1.83-12.02-16.24-18.64-28.21-16.52-11.96,2.12-21.81,10.32-31.05,18.22-1.61-13.25-4.57-26.57-11.17-38.17-6.6-11.6-17.23-21.38-30.16-24.64-12.94-3.26-28.07,1.05-35.61,12.06-.28-17.39-12.5-33.94-29.02-39.35-7.78,49.33-9.97,99.53-6.52,149.35"/>
    <rect class="cls-19" x="845.03" y="348.33" width="11.99" height="13.44"/>
    <rect class="cls-19" x="845.03" y="367.14" width="11.99" height="13.44"/>
    <rect class="cls-19" x="862.81" y="348.33" width="11.99" height="13.44"/>
    <rect class="cls-19" x="360.3" y="363.05" width="9.81" height="14.28"/>
    <rect class="cls-19" x="360.3" y="383.35" width="9.81" height="14.28"/>
    <g>
      <path class="cls-16" d="M629.29,652.9c-1.01-4.71-4.54-8.41-8.73-9.77-.03-.2-.07-.4-.12-.6-.71-2.96-2.99-5.54-5.8-6.58-1.89-.7-3.79-.81-5.56-.64-.18.02-.36.04-.54.06-.54-4.07-2.08-8.07-4.51-11.65t-.01-.01c-3.71-5.44-9.04-9.29-15.02-10.85-4.99-1.3-10.22-.97-15,.67-.13-1.71-.64-3.43-1.58-4.99-1.86-3.07-5.06-5.22-8.86-6.11,1.29-1.44,2.16-3.26,2.4-5.2.41-3.24-.95-6.57-3.41-8.44.41-2.21.12-4.6-.96-6.75-1.79-3.56-5.51-6.17-9.96-6.98-2.13-.39-4.22-.36-6.18-.14-2.42-10.8-10.95-20.24-21.6-23.36-11.91-3.47-25.85,1.16-33.35,11.02-.04-.02-.08-.04-.12-.06-13.34-6.83-31.3-2.48-40.04,9.7-2.61,3.64-3.93,7.49-3.89,11.04-3.72.78-7.14,3.02-9.15,6.27-1.99,3.21-2.48,7.19-1.57,10.81-4.1,1.67-7.46,5.09-8.84,9.38-.18.55-.32,1.1-.44,1.64-4.29-1.95-9.19-2.97-14.29-2.89-9.28.18-17.32,4.64-20.98,11.65l-.13.25s-.02.04-.03.05c-.51.05-1.02.09-1.52.13-4.43.36-9.46.77-13.16,6.51-1.74,2.69-2.57,5.9-2.44,9.07-3.84.82-7.34,3.13-9.53,6.5-.1.15-.2.3-.31.48-1.5,2.55-2.22,5.63-2.01,8.59.06,1.34.31,2.67.74,3.93.95,2.87,3.14,5.02,5.86,5.77.96.26,1.95.34,2.91.23,1.44,1.48,3.5,2.39,5.57,2.41.61.01,1.18-.05,1.74-.16.84,2.7,2.43,5.23,4.62,7.18.31.28.64.54.97.8,3.85,2.91,9.15,4.22,14.53,3.58,3.14-.37,6.32-1.35,9.63-2.97.42.5.88.95,1.36,1.4,1.18,4.71,4.16,8.97,8.46,11.45,5.68,3.28,12.9,3.02,18.46-.21,1.38,1.77,3.28,3.14,5.49,3.81,3.12.94,6.51.4,9.19-1.31,2.88,1.77,6.22,2.8,9.6,3.02.55.73,1.09,1.47,1.63,2.2-2.24.55-4.42,1.84-5.67,4.05-.64,1.13-1.02,2.36-1.13,3.59-1.57.38-3.2.94-4.72,1.85-4,2.4-6.16,6.89-5.24,10.91.76,3.4,3.59,6.21,7.36,7.35,1.16.35,2.31.53,3.43.61.29,2.03,1.13,4.03,2.49,5.79.57.72,1.21,1.37,1.89,1.91,3.09,2.54,7.5,3.69,12.09,3.18,2.47-.27,4.8-.97,6.96-1.78.83,1.09,1.83,2.05,2.96,2.86-.03.37-.06.72-.07,1.06-.07,2.63-.14,5.25-.21,7.88-.13,5.06-.25,10.11-.36,15.17-.22,10.06-.41,20.27-.55,30.34-.15,10.07-.26,20.28-.33,30.36-.01,1.71.05,3.46.11,5.15.1,3.19.21,6.49-.16,9.41l-.1.69c-.4,3.02-1.25,9.29,6.72,10.98.34.07.68.13,1.02.18,1.86.32,3.95.67,6.13.67.32,0,.64,0,.97-.02.99-.05,2.49-.2,4-.9,5.81-2.69,5.36-9.7,5.12-13.46-.03-.33-.04-.64-.06-.93-.28-5.43-.54-10.86-.79-16.29-.5-10.72-.97-21.75-1.4-32.78,2.5-13.69,6.06-26.83,10.61-39.3,0-.01,0-.01,0-.02.98-2.68,2.01-5.34,3.08-7.96,0-.01.01-.02.01-.03.46-1.12.93-2.23,1.4-3.34,1.92-.15,3.72-.55,5.39-1.21,4.79-1.91,8.24-6.09,9.1-10.65,2.53-1.11,4.75-2.87,6.43-5.11,1.46-1.95,3.37-5.65,3.37-9.31,0-1.75-.43-3.5-1.57-5.04-1.01-1.36-2.44-2.42-4.05-3.06,2.07-3.07,4.21-6.09,6.44-9.05.05.03.1.07.14.1,3.09,2,6.61,2.96,9.92,2.68,2.59-.22,5-1.19,6.91-2.71,4.95,2.25,10.94,1.94,15.6-1.04,2.19-1.39,3.99-3.32,5.25-5.53,1.89.53,3.86.74,5.82.53,4.61-.5,8.89-3.19,11.51-7,8.54,3.52,19.04,1.61,25.56-5.14h0c4.31-4.48,6.21-10.3,5.09-15.58ZM476.6,687.95c-.07.03-.14.06-.21.09-.47-.57-.94-1.14-1.42-1.72,3.03-2.47,5.37-5.82,6.64-9.53.76.27,1.57.47,2.38.62.49.93.93,1.88,1.33,2.85-.15,1.88-.29,3.71-.42,5.48-2.92.26-5.68,1.18-8.3,2.21ZM521.41,688.8c-1.83.14-3.58.71-5.08,1.69-.07-.05-.15-.09-.22-.14h-.01s-.02-.02-.03-.02c0,0-.02,0-.03-.02-3.01-1.85-6.6-2.72-10.11-2.45-1.86.15-3.7.62-5.42,1.38-.1-5.33-.15-10.53-.18-15.95.82-.55,1.62-1.13,2.41-1.73,2.04,2.64,4.92,4.63,8.15,5.49,2.98.79,6.18.61,9.07-.42.53,1.22,1.21,2.4,2.02,3.52-.09,2.89-.29,5.77-.57,8.65Z"/>
      <g>
        <path class="cls-5" d="M414.24,664.53c-2.36,6.25.41,14.01,6.19,17.35s13.89,1.86,18.11-3.31c.08,2.93,2.19,5.69,5,6.54s6.09-.27,7.79-2.66c4.64,4.29,11.89,5.49,17.66,2.93s9.74-8.75,9.67-15.07c3.24,3.51,8.75,4.11,13.31,2.68s8.38-4.52,12.02-7.62c1.05,3.73,4.17,6.81,7.92,7.81s7.98-.11,10.76-2.83c-.27,7,8.03,15.32,15.18,12.62,1.46-.55,2.86-1.52,4.41-1.38,1.33.12,2.43,1.03,3.55,1.75,2.18,1.42,4.8,2.27,7.4,2.05s5.14-1.59,6.49-3.82c3.97,3.12,9.94,3.42,14.2.69,2.52-1.61,4.42-4.19,5.13-7.1s.18-6.11-1.48-8.6c-1.29-1.92-3.17-3.36-5.02-4.75-14.2-10.73-28.83-21.68-45.96-26.49-8.12-2.28-15.54-5.73-23.63-8.14s-16.61-4.03-24.95-2.74c-7.7,1.19-14.79,4.77-21.64,8.48-8.99,4.86-17.83,10.02-26.66,15.17-7.06,4.12-12.56,8.8-15.45,16.45Z"/>
        <path class="cls-6" d="M575.6,645.84c-35.99,25.98-62.45,63.29-77.38,104.88-1.93-62.45-2.4-71.17-1.38-133.73l-1.25-.05c-5.21,49.85-7.7,73.25-7.7,93.74-5.94-9.47-12.81-18.34-20.22-26.7-11.8-13.24-24.93-25.13-38.96-35.71,0,0-.79.97-.79.97,24.56,21.84,46.83,48.05,59.44,78.45.64,1.54-.14,4.97-.19,6.67-.07,2.63-.14,5.25-.21,7.88-.13,5.05-.25,10.1-.36,15.15-.22,10.1-.41,20.21-.55,30.31s-.25,20.22-.32,30.32c-.03,4.89.53,10.19-.09,15.04-.45,3.53-1.17,6.26,3.44,7.24.3.06.6.11.9.16,2.06.35,4.14.7,6.23.6.86-.04,1.74-.17,2.52-.53,3.67-1.7,2.91-7.34,2.75-10.56-.28-5.44-.54-10.87-.8-16.31-.52-11.08-.99-22.16-1.41-33.24,4.52-24.96,12.7-49.36,25.1-71.67,13.11-23.73,30.98-44.73,52.01-61.91,0,0-.76-.99-.76-.99Z"/>
        <path class="cls-11" d="M487.16,734.35c-.04,1.49-.08,2.98-.12,4.46,1.11-.26,2.25-.65,3.41-1.2,2.52-1.19,4.9-1.9,7.3-1.97-1.53-49.28-1.84-61.52-.91-118.65l-1.25-.05c-5.21,49.85-7.7,73.25-7.7,93.74-5.94-9.47-12.81-18.34-20.22-26.7-11.8-13.24-24.93-25.13-38.96-35.71,0,0-.79.97-.79.97,24.56,21.84,46.83,48.05,59.44,78.45.64,1.54-.14,4.97-.19,6.67Z"/>
        <path class="cls-11" d="M489.99,681.25c-3.41-9.87-10.68-18.78-20.32-24.26l.42-.91c10.6,4.01,19.94,12.07,25.58,22.65l-5.69,2.52h0Z"/>
        <path class="cls-11" d="M575.6,645.84c-31.93,23.05-56.36,55.02-71.89,90.99.21.09.41.17.62.27,1.99.93,3.8,2.08,5.8,2.91,3.92-10.75,8.64-21.22,14.23-31.26,13.11-23.73,30.98-44.73,52.01-61.91,0,0-.76-.99-.76-.99Z"/>
        <path class="cls-11" d="M523.75,700.53c3.39-17.67,3.07-36.22-1.06-54.06l.96-.27c5.64,17.57,7.61,36.47,5.62,55.14l-5.52-.82h0Z"/>
        <path class="cls-18" d="M464.97,652.01c4.58.07,9.13-2.27,11.75-6.04,2.03,5.67,7.47,9.96,13.46,10.6s12.22-2.38,15.4-7.49c4.92,3.4,10.32,6.28,16.19,7.43s12.27.43,17.24-2.9,8.17-9.51,7.1-15.39c6.52,1.51,13.58.59,19.5-2.53,3.27-1.72,6.38-4.38,7.18-7.99.8-3.61-1.79-8.01-5.48-7.91,2.92-1.84,3.48-6.24,1.69-9.2s-5.35-4.5-8.8-4.65-6.84.91-10.06,2.17c.57-4.92-2.69-10.01-7.39-11.56s-10.34.6-12.82,4.89c-.25-5.22-2.29-10.69-6.66-13.56s-11.25-2.01-13.66,2.64c-6.13-8.21-17.29-12.31-27.28-10.01s-18.24,10.85-20.18,20.91c-4.95-1.37-10.6.16-14.18,3.85s-4.95,9.37-3.44,14.29c-3.42.67-6.9,1.66-9.58,3.89s-4.37,5.95-3.32,9.27c1.05,3.32,5.45,5.4,8.32,3.43-3.04,3.06-2.44,8.89,1.17,11.27,1.9,1.25,4.38,1.35,6.49.58,1.74-.64,3.37-3.3,5.17-3.1,1.42.16,2.76,3.08,3.73,3.94,2.3,2.04,5.37,3.11,8.44,3.16Z"/>
        <path class="cls-20" d="M486.63,619.94c1.44-2.29,2.55-4.81,3.42-7.37-.43,1.27,3.51,3.04,4.28,3.21,2.13.48,4.43.11,6.41-.77,2.89-1.28,5.22-3.52,7.38-5.82,3.14,4.22,8.06,7.05,13.28,7.64s10.66-1.07,14.65-4.48c.75-.64,1.53-1.37,2.51-1.45.84-.07,1.62.36,2.38.73,3.09,1.49,6.68,2.09,10,1.23,4.7-1.22,9.39-6.59,7.64-11.68,1.81-.75,3.16-2.52,3.41-4.46.4-3.19-2.34-6.83-5.72-4.94,2.48-1.63,3.08-5.3,1.74-7.96s-4.18-4.31-7.1-4.84-5.93-.09-8.83.55c-.71-10.97-8.81-21.07-19.36-24.15s-22.81,1.09-29.3,9.95c-.4.55-.81,1.14-1.43,1.42-1.1.51-2.36-.13-3.44-.68-11.63-5.95-27.35-2.15-34.96,8.47-2.64,3.68-4.33,8.72-2.13,12.68-4.03-.98-8.59.89-10.77,4.41s-1.82,8.44.86,11.61c-4.76-.13-9.4,3.17-10.86,7.7-.99,3.1-.82,6.53,1.09,9.24,2.28,3.26,5.98,3.98,9.38,5.53,6.29,2.87,13.77-.71,17.43-6.35.41,5.01,4.78,9.18,9.71,10.13s10.14-.95,13.91-4.27c1.74-1.53,3.2-3.33,4.43-5.29Z"/>
        <path class="cls-20" d="M472.16,659.9c-3.61,3.81-9.47,5.29-14.46,3.67-.25,2.48-2.08,4.73-4.46,5.47-2.39.74-5.17-.08-6.78-1.99-.85,3.74-4.29,6.6-8.02,7.16-1.61.24-3.7.31-5.18-.39-.8-.38-3.81-2.95-2.87-4.14-2.56,3.22-6.84,4.97-10.92,4.48s-7.82-3.22-9.53-6.96c-3.51,2.12-7.35,3.8-11.42,4.28-4.06.48-8.38-.33-11.64-2.8-3.27-2.47-5.28-6.73-4.53-10.75-1.58,1.05-3.3,2.13-5.2,2.12-1.9-.02-3.9-1.7-3.48-3.56-2.73,2.37-6.06.98-7.09-2.11-.31-.93-.49-1.9-.54-2.88-.15-2.2.35-4.45,1.47-6.35.06-.1.12-.19.19-.29,2.31-3.6,6.86-5.62,11.07-4.91-1.45-3.43-1.09-7.58.93-10.72,3.01-4.66,7.02-4.35,11.94-4.84.53-.05,1.08-.11,1.55-.37.75-.42,1.13-1.27,1.53-2.03,3.33-6.37,10.64-9.38,17.52-9.51,7.83-.14,15.97,2.75,20.92,8.83,4.24-1.93,8.93-3.08,13.6-3.01,1.34.01,2.68.14,4.01.37,4.67.82,9.86,2.61,12.25,7.03,1.76,3.23,1.81,7.33.15,10.61,5.22.43,10.06,4.06,11.93,8.96,1.87,4.9.68,10.83-2.94,14.63Z"/>
        <path class="cls-20" d="M621.32,665.7c-6.17,6.4-17.09,7.5-24.42,2.45-1.34,4.49-5.53,7.99-10.2,8.49-4.66.5-9.5-2.02-11.77-6.12-1.89,2.75-4.54,5.3-7.86,5.72-3.31.42-7.06-2.26-6.66-5.57-2.21,1.92-4.45,3.87-7.09,5.13-2.64,1.25-5.79,1.74-8.5.64-2.72-1.09-4.76-4.05-4.2-6.92-1.93.61-3.93,1.13-5.94.94-.34-.03-.68-.09-1.01-.17-1.66-.39-3.19-1.35-3.95-2.85-.9-1.8-.3-4.37,1.54-5.2-3.82,1.71-8.67.75-11.55-2.29-2.4-2.54-3.61-6.76-2.11-10.01.23-.49.5-.96.81-1.4.66-.94,1.5-1.76,2.45-2.4.43-.29,3.93-2.15,4.33-1.49-1-1.67-1.2-3.79-.55-5.61.69-1.97,2.57-3.91,4.7-4.2,1.11-.15,4.05.12,4.09,1.68-.17-6.75,4.77-13.29,11.32-14.97,6.54-1.68,14.03,1.68,17.12,7.69,4.31-9.57,15.97-15.16,26.12-12.51,5.21,1.36,9.7,4.8,12.73,9.24,2.87,4.22,4.41,9.34,3.96,14.44,2.79-.87,5.84-1.72,8.58-.71,2.75,1.02,4.56,4.82,2.58,6.98,4.31-.81,8.62,2.78,9.54,7.06.91,4.29-1.02,8.8-4.06,11.96Z"/>
        <path class="cls-20" d="M536.1,710.66c-1.72,2.29-4.26,3.95-7.06,4.59.43,4.25-2.78,8.27-6.75,9.85-3.97,1.58-8.47,1.12-12.58-.06-.6-.18-1.22-.37-1.84-.26-.94.16-1.62.97-2.28,1.67-3.81,4.06-9.49,5.99-14.99,5.39-3.78-.41-7.41-2.96-8.52-6.61-2.95,1.3-5.99,2.53-9.2,2.88-3.2.36-6.64-.25-9.13-2.29-.47-.38-.9-.82-1.28-1.3-1.61-2.08-2.27-4.95-1.25-7.36-2.23.13-4.51.26-6.65-.39-2.13-.64-4.13-2.22-4.62-4.4-.59-2.58,1.13-5.24,3.4-6.6,2.26-1.35,4.96-1.72,7.58-2.04-.53,0-.92-1.91-.94-2.24-.06-.9.18-1.82.63-2.61,1.01-1.79,3.54-2.55,5.5-2.31,1.56.19,3.03,1.01,4.02,2.22,1.55-3.3,4.59-5.79,7.94-7.12,3.64-1.44,7.47-2.6,11.42-1.66,3.4.81,6.47,2.93,8.42,5.83.75-.8,1.61-1.5,2.55-2.08,1.74-1.08,3.73-1.75,5.77-1.91,2.7-.21,5.46.47,7.76,1.9.38.23.74.48,1.09.75.46.36.98.78,1.55.68.45-.07.78-.44,1.11-.75,1.7-1.57,4.2-2.01,6.4-1.45,3.37.85,6.11,3.79,6.71,7.2,1.89-2.12,5.49-1.16,7.02.91,1.92,2.6-.08,7.3-1.78,9.57Z"/>
        <path class="cls-18" d="M621.32,665.7c-6.17,6.4-17.09,7.5-24.42,2.45-1.34,4.49-5.53,7.99-10.2,8.49-4.66.5-9.5-2.02-11.77-6.12-1.89,2.75-4.54,5.3-7.86,5.72-3.31.42-7.06-2.26-6.66-5.57-2.21,1.92-4.45,3.87-7.09,5.13-2.64,1.25-5.79,1.74-8.5.64-2.72-1.09-4.76-4.05-4.2-6.92-1.93.61-3.93,1.13-5.94.94-.34-.03-.68-.09-1.01-.17,3.58-.73,6.88-3.05,8.47-6.36,1.86,2.54,5.1,4,8.23,3.71,3.14-.3,6.05-2.34,7.4-5.18,5.28,4.13,13.25,4.38,18.78.59,5.52-3.79,8.17-11.31,6.23-17.73,3.68,1.62,8.41,1.54,11.29-1.26,2.89-2.8,2.55-8.56-1.15-10.14,3.89.42,7.23-3.35,7.73-7.23.03-.24.05-.48.07-.72,2.87,4.22,4.41,9.34,3.96,14.44,2.79-.87,5.84-1.72,8.58-.71,2.75,1.02,4.56,4.82,2.58,6.98,4.31-.81,8.62,2.78,9.54,7.06.91,4.29-1.02,8.8-4.06,11.96Z"/>
        <path class="cls-18" d="M472.16,659.9c-3.61,3.81-9.47,5.29-14.46,3.67-.25,2.48-2.08,4.73-4.46,5.47-2.39.74-5.17-.08-6.78-1.99-.85,3.74-4.29,6.6-8.02,7.16-1.61.24-3.7.31-5.18-.39-.8-.38-3.81-2.95-2.87-4.14-2.56,3.22-6.84,4.97-10.92,4.48s-7.82-3.22-9.53-6.96c-3.51,2.12-7.35,3.8-11.42,4.28-4.06.48-8.38-.33-11.64-2.8-3.27-2.47-5.28-6.73-4.53-10.75-1.58,1.05-3.3,2.13-5.2,2.12-1.9-.02-3.9-1.7-3.48-3.56-2.73,2.37-6.06.98-7.09-2.11-.31-.93-.49-1.9-.54-2.88,1.62,1.11,3.49,1.85,5.44,2.08,3.84.46,7.86-1.03,10.46-3.88-.05,3.65,2.58,7.17,6.1,8.16,3.51.98,7.59-.66,9.44-3.8,2.39,5.35,8.87,8.51,14.56,7.11,5.69-1.41,9.95-7.22,9.57-13.07,3.01,1.69,6.21,3.2,9.63,3.52,3.43.33,7.15-.71,9.33-3.38,2.17-2.67,2.24-7.08-.37-9.32,4.68,2.86,11.51-.81,12.6-6.19.9-4.41-.02-10.8-6.04-14.43,1.34.01,2.68.14,4.01.37,4.67.82,9.86,2.61,12.25,7.03,1.76,3.23,1.81,7.33.15,10.61,5.22.43,10.06,4.06,11.93,8.96,1.87,4.9.68,10.83-2.94,14.63Z"/>
        <path class="cls-18" d="M536.1,710.66c-1.72,2.29-4.26,3.95-7.06,4.59.43,4.25-2.78,8.27-6.75,9.85-3.97,1.58-8.47,1.12-12.58-.06-.6-.18-1.22-.37-1.84-.26-.94.16-1.62.97-2.28,1.67-3.81,4.06-9.49,5.99-14.99,5.39-3.78-.41-7.41-2.96-8.52-6.61-2.95,1.3-5.99,2.53-9.2,2.88-3.2.36-6.64-.25-9.13-2.29-.47-.38-.9-.82-1.28-1.3,5.97.54,12.28-2.11,15.68-7.11,2.92,3.34,7.85,4.79,12.12,3.54,4.27-1.24,7.66-5.1,8.33-9.5,3.08.39,6.42.56,9.06-1.07,2.63-1.64,3.87-5.77,1.6-7.89,2.91-1.63,4.81-4.93,4.76-8.27,0-.16-.01-.32-.02-.47.38.23.74.48,1.09.75.46.36.98.78,1.55.68.45-.07.78-.44,1.11-.75,1.7-1.57,4.2-2.01,6.4-1.45,3.37.85,6.11,3.79,6.71,7.2,1.89-2.12,5.49-1.16,7.02.91,1.92,2.6-.08,7.3-1.78,9.57Z"/>
      </g>
    </g>
  </g>
  <path class="cls-17" d="M986,940H2c-1.1,0-2-.9-2-2V2C0,1.41.26.85.71.47,1.17.09,1.77-.07,2.35.03l984,173.56c.96.17,1.65,1,1.65,1.97v762.44c0,1.1-.9,2-2,2ZM4,936h980V177.24L4,4.38v931.61Z"/>
</svg>