<?xml version="1.0" encoding="UTF-8"?>
<svg id="Image" xmlns="http://www.w3.org/2000/svg" xmlns:xlink="http://www.w3.org/1999/xlink" viewBox="0 0 988 940">
  <defs>
    <style>
      .cls-1 {
        fill: #12993f;
      }

      .cls-2 {
        fill: #94ef8b;
      }

      .cls-3 {
        fill: #1cb829;
      }

      .cls-4 {
        fill: #d4dfd4;
      }

      .cls-5 {
        fill: #d87625;
      }

      .cls-6 {
        fill: #93d2ad;
      }

      .cls-7 {
        fill: none;
      }

      .cls-8 {
        fill: #85baa8;
      }

      .cls-9 {
        fill: #93dba1;
      }

      .cls-10 {
        fill: #bac1b7;
      }

      .cls-11 {
        fill: #aa5217;
      }

      .cls-12 {
        fill: #87734c;
      }

      .cls-13 {
        fill: #93e596;
      }

      .cls-14 {
        fill: #6d3108;
      }

      .cls-15 {
        fill: #dce9df;
      }

      .cls-16 {
        fill: #333;
      }

      .cls-17 {
        fill: #34d434;
      }

      .cls-18 {
        fill: #6d3108;
      }

      .cls-19 {
        fill: #086d3b;
      }

      .cls-20 {
        fill: #cad5cb;
      }

      .cls-21 {
        clip-path: url(#clippath);
      }

      .cls-22 {
        fill: #af975a;
      }
    </style>
    <clipPath id="clippath">
      <polygon class="cls-7" points="2 938 2 2 986 175.56 986 938 2 938"/>
    </clipPath>
  </defs>
  <g class="cls-21">
    <rect class="cls-15" x="-65.29" y="-46.95" width="1086.63" height="703.7"/>
    <rect class="cls-20" x="698.76" y="341.86" width="75.09" height="316.02"/>
    <rect class="cls-4" x="928.27" y="387.21" width="70.68" height="272.6"/>
    <path class="cls-4" d="M472.31,655.24h-74.55v-390.27h22.78c20.22,20.22,31.55,31.55,51.77,51.77v338.5Z"/>
    <rect class="cls-4" x="41.31" y="301.89" width="56.57" height="348.86"/>
    <rect class="cls-2" x="-68.55" y="649.99" width="1247.87" height="354.7"/>
    <path class="cls-6" d="M861.08,807.26c-36.63-3.7-73.34-6.57-110.09-8.74-63.07-3.73-126.25-5.42-189.43-5.61-86.18-.25-172.42,3.02-258.63,5.33-46.85,1.26-93.74,2.51-140.43,6.77-13.83,1.26-115.29,5.45-102.48,35.19,2.01,4.66,10.08,8,14.45,10.24,12.6,6.46,27.22,9.48,40.97,12.34,32.3,6.71,65.23,10.34,98.03,13.58,26.69,2.64,53.24,5.49,79.81,2.89,13.6-1.34,28.42,2.89,41.93,4.55,15.55,1.91,31.14,3.53,46.74,4.87,62.5,5.36,125.34,6.28,188.01,3.98,59.02-2.17,117.91-7.19,176.56-14.1,34.84-4.1,69.72-8.89,103.78-17.48,17.22-4.34,33.61-11.89,50.68-16.22,7.51-1.9,32.55-4.42,30.6-16.77-1.8-11.37-38.88-17.63-70.53-20.82Z"/>
    <rect class="cls-20" x="562.15" y="375.95" width="43.27" height="112.64"/>
    <rect class="cls-10" x="625.21" y="407.64" width="87.31" height="248.37"/>
    <rect class="cls-20" x="835.03" y="338.39" width="74.68" height="315.83"/>
    <rect class="cls-20" x="321.74" y="351.16" width="57.2" height="305.84"/>
    <rect class="cls-10" x="168.4" y="287.13" width="74.68" height="167.19"/>
    <rect class="cls-10" x="265.42" y="399.47" width="74.68" height="256.46"/>
    <rect class="cls-15" x="177.84" y="299.5" width="55.8" height="4.34"/>
    <rect class="cls-15" x="177.84" y="309.07" width="55.8" height="4.34"/>
    <rect class="cls-15" x="177.84" y="318.64" width="55.8" height="4.34"/>
    <rect class="cls-15" x="177.84" y="328.21" width="55.8" height="4.34"/>
    <g>
      <path class="cls-6" d="M665.92,520.49c5.57-6.2,5.58-16.62.02-22.83s-15.91-7.36-22.69-2.52c2.77-11.19-4.59-23.9-15.67-27.07-11.08-3.16-24.05,3.75-27.6,14.71-2.45-8.78-12.3-14.77-21.22-12.9s-15.54,11.31-14.25,20.34c-9.49.49-18.61,5.78-23.75,13.78-2.89,4.5-4.54,10.19-2.76,15.23,1.37,3.88,4.61,6.87,8.24,8.8s7.67,2.93,11.66,3.91c-8.46,5.53-12.34,17.03-9.25,26.66,3.09,9.62,12.73,16.65,22.82,16.96,10.1.31,20.02-5.94,24.38-15.05,2.88,6.01,10.24,9.11,16.82,8.05s12.22-5.69,15.67-11.39c3.45-5.7,4.94-12.39,5.59-19.03,6.49,2.27,13.47,4.28,20.16,2.69,6.69-1.59,12.68-8.09,11.29-14.83"/>
      <path class="cls-8" d="M122.27,656.57h119.96c-.52-5.47-3.91-10.54-8.94-12.73-5.03-2.19-11.23-1.42-15.58,1.93-2.67-4.12-7.3-6.9-12.19-7.3s-9.92,1.57-13.23,5.2c-1.72-6.25-7.72-11.05-14.19-11.36-6.47-.3-12.9,3.92-15.2,9.97-3.62-4.88-10.33-7.23-16.2-5.67-5.87,1.56-10.54,6.93-11.26,12.96-3.68-1.88-8.14-2.16-12.02-.74-3.88,1.41-7.12,4.5-8.73,8.3"/>
      <path class="cls-8" d="M857.56,652.95c-.83-6.13-5.43-11.59-11.33-13.45-5.9-1.85-12.8,0-16.98,4.55-1.95-6.1-7.87-10.72-14.27-11.12s-12.84,3.45-15.53,9.27c-4.63-5.67-12.43-8.55-19.63-7.25s-13.51,6.72-15.87,13.65c-4.47-2.16-9.8-2.48-14.5-.88-4.7,1.6-9.11,4.91-11.34,9.36h122.42"/>
      <path class="cls-8" d="M601.47,656.75h153.55c-3.03-5.28-11.19-7.05-16.6-4.25-1.88-3.22-5.37-5.45-9.09-5.78-3.71-.33-7.55,1.24-9.97,4.08-1.51-9.38-9.57-17.32-18.97-18.71s-19.4,3.91-23.55,12.45c-1.86-2.66-5.25-4.17-8.47-3.76-3.22.41-6.13,2.72-7.26,5.76-3.06-5.53-9.36-9.1-15.67-8.9-6.32.2-12.37,4.17-15.07,9.89-1.97-2.32-5.2-3.49-8.2-2.97s-5.65,2.7-6.73,5.54c-10.91-4.33-24.2-1.84-32.8,6.15"/>
      <path class="cls-8" d="M419.34,656.59h148.76c-6.84-9.42-20.46-13.24-31.28-8.96-.85-4.52-4.23-8.47-8.56-10.01s-9.45-.61-12.95,2.36c-3.07-8.19-9.68-15.31-18.12-17.58-8.44-2.26-18.48,1.2-22.61,8.9-2.56-7.14-10.47-11.94-17.99-10.92-7.52,1.02-13.86,7.76-14.42,15.33-3.62-3.49-9.87-3.77-13.79-.62s-4.99,9.32-2.37,13.6c-6.29-1.02-13.06,2.43-15.93,8.12"/>
      <polygon class="cls-12" points="547.6 655.9 548.81 591.32 549.81 591.32 551.01 655.9 547.6 655.9 547.6 655.9"/>
      <path class="cls-6" d="M562.4,647.34c2.23-5.62,8.04-9.63,14.09-9.72,6.05-.09,11.97,3.75,14.36,9.31,1.49-2.48,4.85-3.44,7.62-2.63,2.78.81,4.94,3.11,6.18,5.72,1.24,2.61,1.65,5.54,1.86,8.42h-71.06c.69-2.79,2.48-5.26,5.19-6.2,1.12-.39,2.33-.53,3.51-.44,1.06.08,2.37.83,3.41.61,1.58-.34,1.93-2.68,2.7-3.86,2.67-4.11,8.69-4.74,12.14-1.22Z"/>
      <path class="cls-6" d="M242.73,658.45h196.29c-6.19-5.1-15.2-6.53-22.71-3.71,3.09-3.86-3.32-8.54-6.47-9.37-3.21-.84-6.79-.07-9.37,2.01-1.05-4.87-4.62-7-8.66-9.15-4.69-2.49-9.87-3.63-15.2-2.99-7.42.9-14.36,5.18-18.49,11.41-6.02-3.76-14.69-2.48-19.36,2.86-.45-8.36-6.53-16.14-14.54-18.58s-17.39.61-22.43,7.29c-4.41-5.02-11.94-7.03-18.26-4.88-6.32,2.15-11.06,8.34-11.49,15.01-3.31-3.57-9.81-3.37-12.89.4-12.79-6.71-34.26-3.09-41.34,9.51,7.96,0,14.93,0,24.92.16Z"/>
      <path class="cls-6" d="M985.33,659.49c-.32.11-.63.32-.97.32h-153.69c.2,0,1.42-1.79,1.65-2.03.71-.74,1.5-1.4,2.34-1.99,1.58-1.12,3.31-1.86,5.19-2.33,3.93-.97,8.2-.64,11.9,1.02.4.18.83.38,1.27.3.65-.12,1.01-.79,1.32-1.37.84-1.6,1.9-3.11,3.31-4.22,3.58-2.83,8.94-2.88,12.9-.93,2.95,1.46,5.41,3.73,7.83,5.97,3.79-6.96,11.21-11.8,19.1-12.45,7.89-.65,16.01,2.9,20.89,9.14,3.2-7.5,10.26-13.24,18.26-14.83s16.71,1,22.55,6.7c.57-7.55,4.33-14.8,10.17-19.61,5.84-4.81,13.68-7.11,21.19-6.23"/>
      <path class="cls-6" d="M-2.94,661.94h151.04c-6.1-8.6-17.85-12.6-27.74-8.97.22-5.84-5.48-10.66-11.3-11.18-5.82-.52-11.46,2.27-16.15,5.77-2.59-8.19-9.74-14.77-18.11-16.68-8.37-1.9-17.66.94-23.54,7.21-1.86-7.36-8.08-13.44-15.48-15.11s-15.64,1.13-20.48,6.97c-5.78-5.91-15.97-6.81-22.7-2.01"/>
      <path class="cls-6" d="M167.06,625.08c5.62,3.11,13.21,2.12,17.86-2.32.46,3.97,3.53,7.5,7.4,8.5s8.27-.6,10.59-3.85c3.73,4.59,10.43,6.5,16.01,4.56s9.67-7.58,9.76-13.49c4.17,3.24,10.25,3.15,15.01.88,4.76-2.27,8.4-6.38,11.39-10.74,1.38-2.01,2.7-4.25,2.66-6.69s-1.99-4.99-4.42-4.79c5.8-3.39,8.56-10.81,7.39-17.43s-5.76-12.3-11.45-15.87c-4.5-2.82-9.85-4.47-15.13-3.91-5.28.57-10.4,3.55-12.88,8.25-.2-6.42-4.2-12.37-9.61-15.84s-12.04-4.67-18.46-4.34c-6.99.35-14.16,2.61-19.05,7.63s-6.9,13.14-3.58,19.3c-4.68,1.69-9.34,3.74-13.01,7.09s-6.24,8.23-5.79,13.18c0,5.17,4.76,9.12,9.42,9.85-1.29,3.97-2.6,6.47-1.32,10.83,1.12,3.82,3.69,7.25,7.19,9.19Z"/>
      <polygon class="cls-12" points="199.99 661.28 202.17 587.95 202.81 587.95 204.99 661.28 199.99 661.28 199.99 661.28"/>
      <polygon class="cls-12" points="730.89 657.55 732.98 602.16 733.79 602.16 735.89 657.55 730.89 657.55 730.89 657.55"/>
      <path class="cls-6" d="M710.61,620.32c-1.5,5.61,1.96,12.08,7.45,13.94,5.5,1.86,12.18-1.18,14.39-6.54,7.76,6.87,20.23,7.69,28.81,1.88,2.48-1.68,4.73-4,5.37-6.92s-.85-6.44-3.73-7.24c5.69-1.83,11.5-3.81,16.11-7.62s7.81-9.91,6.54-15.75-8.16-10.31-13.55-7.71c4.18-4.64,4.84-11.92,2.11-17.54s-8.51-9.47-14.67-10.49-12.61.63-17.91,3.93c2.62-5.34,1.06-12-2.46-16.8s-8.69-8.09-13.84-11.06c-8.36-4.82-17.84-9.23-27.32-7.46-8.82,1.65-16.27,9.08-17.96,17.9s2.51,18.47,10.11,23.25c-2.39-1.51-9.57,11.13-10.03,12.88-1.7,6.53,2.19,10.43,4.42,16.07,3.48,8.81-.39,20.06,9.38,25.76,5.07,2.96,11.91,2.9,16.77-.48Z"/>
      <path class="cls-9" d="M500.26,605.35c3.04,5.51,9.86,8.65,16.02,7.38-2.82,3.52-2.3,9.24,1.11,12.19s9.14,2.65,12.22-.64c.98,4.18,4.72,7.58,8.98,8.15s8.76-1.72,10.8-5.5c4.7,4.77,12.55,6.05,18.52,3.03s9.59-10.11,8.53-16.72c10.85-.73,20.25-10.76,20.27-21.63,0-3.27-.8-6.67-2.92-9.16-2.12-2.5-5.72-3.88-8.8-2.78,2.27-4.37,2.12-9.85-.22-14.16-2.76-5.07-7.18-5.93-12.73-5.12,1.84-3.44,1.37-7.81-.57-11.19s-5.18-5.86-8.69-7.57c-6.32-3.08-13.78-3.85-20.53-1.87-6.39,1.87-9.9,5.79-14.31,10.36-3.73,3.87-9.09,8.39-5.53,14.45-4.63-.03-9.34-.06-13.79,1.22-4.45,1.27-8.7,4.05-10.65,8.25-2.59,5.57,1.15,9.4,1.89,14.63.84,5.99-2.94,10.61.41,16.68Z"/>
      <path class="cls-9" d="M15.78,606.81c5.48-1.23,10.3-5.1,12.68-10.18,6.97,3.71,14.93,5.97,22.77,5.05s15.49-5.37,19.04-12.42c3.55-7.05,2.17-16.61-4.02-21.51,5.83-6.43,11.73-12.96,15.64-20.71s5.63-17.01,2.71-25.18-11.28-14.65-19.89-13.59c3.01-7.87,4.99-16.4,3.69-24.73-1.3-8.33-6.38-16.42-14.2-19.57-7.82-3.15-18.15,0-21.48,7.74-10.29-11.87-29.67-14.48-42.74-5.76-13.07,8.72-18.1,27.62-11.09,41.68,1.08,2.16,2.44,4.49,1.86,6.84-.65,2.64-3.42,4.05-5.72,5.51-7.7,4.9-12.46,14.1-12.02,23.22.44,9.12,6.06,17.82,14.2,21.96-7.74,5.18-13.19,14.35-12.19,23.6s9.61,17.58,18.87,16.66c5.69-.56,10.88-4.77,16.35-2.58,5.56,2.23,8.8,5.47,15.55,3.96Z"/>
      <path class="cls-9" d="M320.39,613.2c5.53-3.55,9.31-9.7,9.97-16.24,11.24,1.36,23.08-.49,32.66-6.53,9.58-6.04,16.58-16.54,17.07-27.85s-6.22-22.96-16.79-27.02c6.44-6.17,7.56-17.11,2.52-24.46-5.04-7.35-15.65-10.23-23.72-6.45-5.41-20.41-26.65-34.27-47.75-34.65s-41.25,10.86-55.32,26.6c-5,5.59-9.42,11.9-11.52,19.1-2.1,7.2-1.62,15.41,2.58,21.62-9.29,5.37-17.1,13.8-20.29,24.05s-1.24,22.3,6.14,30.1c6.58,6.95,16.57,9.84,26.15,9.82,9.57-.02,18.93-2.64,28.15-5.23-5.65,6.98-3.22,18.9,4.72,23.1,8.32,4.43,18.36-.75,21.8-8.83,5.45,8.01,15.47,8.12,23.65,2.87Z"/>
      <g>
        <path class="cls-9" d="M733.19,576.29c-5.26-.07-10.29,2.26-15.54,2.63-10.39.74-20.65-7.45-22.24-17.75-1.59-10.3,5.72-21.2,15.86-23.64-16.86-10.71-27.84-30.15-28.31-50.12-.19-8.28,1.38-16.76,5.64-23.85,4.27-7.1,11.44-12.66,19.62-13.89,5.35-.8,10.79.22,16.11,1.25-2.17-5.21-4.37-10.51-4.9-16.12-.53-5.62.84-11.69,4.92-15.59,5.88-5.63,16.77-4.48,21.34,2.25,2.94-13.77,6.62-26.02,16.81-36.31,9.38-9.47,22.07-15.8,35.42-16.77,21.75-1.57,43.74,11.12,53.58,30.53.48.95.89,1.97,1.41,2.88,2.86-1.73,7.45-1.94,10.74-1.74,4.28.25,8.49,1.7,11.99,4.17,5.75,4.06,9.51,10.71,10.33,17.7s-1.24,14.22-5.36,19.92c4.88.12,9.68,2.16,13.16,5.58,8.24,8.12,7.36,23.85-3.41,29.41,4.95.09,11.62,4.35,15.96,6.72,5.69,3.1,11.06,6.85,15.56,11.53,8.21,8.53,13.36,20.68,11.16,32.32-2.2,11.64-13.07,21.75-24.87,20.83,1.17,8.15-2.34,16.16-8.61,21.3-3.03,2.48-6.36,4.22-10.26,4.87-1.31.22-10.42.78-10.75-1.14,1.96,11.44-3.33,23.8-12.96,30.28-9.63,6.48-23.07,6.72-32.93.6-3.81,6.34-9.2,11.86-15.88,15.03s-14.7,3.8-21.5.89-12.06-9.56-12.52-16.94c-15.83,6.65-40.02,5.2-48.52-12.12-.63-1.28-4.27-14.74-1.06-14.69Z"/>
        <polygon class="cls-22" points="799.58 676.7 805.5 442.61 806.5 442.61 812.42 676.7 799.58 676.7 799.58 676.7"/>
        <path class="cls-22" d="M805.16,596.11c7.82-33.39,27.6-63.56,54.7-83.89l.61.79c-26.21,21.09-44.52,51.45-50.99,84.04l-4.33-.94h0Z"/>
        <path class="cls-22" d="M803.68,560.28c-4.86-25.91-23.81-48.86-48.44-58.76,0,0,.35-.94.35-.94,26.12,8.8,46.98,31.54,53.7,58.46,0,0-5.6,1.23-5.6,1.23h0Z"/>
      </g>
      <polygon class="cls-22" points="291.31 667.05 295.89 531.09 296.89 531.09 301.47 667.05 291.31 667.05 291.31 667.05"/>
      <path class="cls-22" d="M294.09,614.51c1.43-20.3,11.23-39.54,26.34-52.45l.67.74c-14.14,13.57-22.37,32.77-22.6,51.89l-4.41-.19h0Z"/>
      <g>
        <path class="cls-2" d="M936.28,613.47c-5.56-2.28-9.67-7.78-10.28-13.77-12.4,5.63-28.48,1.43-36.55-9.54-8.08-10.97-7.31-27.57,1.74-37.74-15.93-8.78-23.39-30.32-16.3-47.07,7.08-16.76,27.72-26.41,45.12-21.1-2.57-11.66,2.4-24.63,12.1-31.59,9.7-6.96,23.57-7.5,33.79-1.33s16.18,18.71,14.54,30.54c15.03.83,29.99,7.01,40.08,18.19s14.72,27.48,10.53,41.94c-4.19,14.46-17.74,26.12-32.78,26.67,10.34,4.48,15.39,18.28,10.4,28.39-5,10.1-19.03,14.46-28.87,8.96,3.32,1.86-15.64,10.67-18.72,10.44-3.53-.26-6.54-2.38-9.95-2.71-5.25-.52-9.54,1.89-14.85-.29Z"/>
        <polygon class="cls-22" points="949.72 669.67 952.36 503.26 953.36 503.26 956 669.67 949.72 669.67 949.72 669.67"/>
        <path class="cls-22" d="M951.42,607.26c-4.46-23.81-13.01-46.91-25.21-67.97l.86-.51c12.81,20.83,22.07,43.89,27.22,67.91l-2.87.58h0Z"/>
        <path class="cls-22" d="M951.49,573.64c1.6-12.26,7.71-23.72,16.79-31.78l.68.73c-8.5,8.32-13.8,19.7-14.73,31.34l-2.74-.29h0Z"/>
      </g>
      <polygon class="cls-22" points="28.23 542.2 32.55 672.19 22.9 672.19 27.23 542.2 28.23 542.2 28.23 542.2"/>
      <path class="cls-22" d="M26.74,626.88c-2.22-19.2-10.62-37.85-23.86-52.43l.41-.4c14.14,13.87,23.93,32.37,27.4,52.25l-3.96.58h0Z"/>
      <path class="cls-13" d="M353.44,508.34c-1.49,2.06-2.65,4.37-3.38,6.8-7.35-.7-14.92,3.4-18.37,9.92-2.21,4.19-2.63,9.23-1.4,13.78.89,3.29,2.58,7.66,4.67,10.37-5.41,2.89-9.36,8.23-10.29,14.33-.92,6.06,1.24,12.5,5.61,16.78,1.19,1.17,2.58,2.24,3.21,3.79,1.15,2.87-.75,5.95-1.55,8.93-1.55,5.78,1.36,12.15,6.12,15.77s11.03,4.78,17,4.41c5.97-.37,11.75-2.14,17.47-3.9-.98.3,1.13,5.72,1.56,6.39,1.08,1.69,2.25,2.24,4.29,2.54,4.54.68,9.59-1.43,11.95-5.45,3.93,4.99,10.81,7.46,17.01,6.11,7.8-1.69,15.99-10.93,12.95-19.26,8.45-2.84,16.54-7.38,22.24-14.23,5.71-6.85,8.76-16.23,6.74-24.92-2.02-8.69-9.7-16.14-18.61-16.59,5.63-5.14,7.33-13.94,4.55-21.04-2.78-7.11-9.61-12.3-17.1-13.7-7.5-1.4-15.46.81-21.59,5.35,2.76-2.05-10.82-11.14-12.17-12-2.05-1.32-4.62-3.32-7.11-3.68-5.71-.81-12.5.39-17.41,3.46-2.5,1.56-4.68,3.62-6.41,6.01Z"/>
      <polygon class="cls-22" points="384.25 663.77 387.4 581.59 388.4 581.59 391.55 663.77 384.25 663.77 384.25 663.77"/>
      <g>
        <path class="cls-2" d="M682.34,610.98c15.79,4.03,33.65-1.64,44.22-14.05,3.97-4.66,7-10.33,7.48-16.44.48-6.1-1.94-12.61-6.98-16.08,12.57-2.09,21.74-16.12,18.62-28.47-3.12-12.35-17.85-20.34-29.9-16.21,6.24-17.44-2.95-38.93-19.86-46.47-16.92-7.54-39.03-.01-47.83,16.29-6.86-11.68-20.06-19.35-33.6-19.53-13.54-.18-26.94,7.13-34.11,18.62-7.17,11.49-7.86,26.74-1.75,38.83-11.68,4.79-22.24,13.1-27.91,24.37-5.68,11.27-5.83,25.63,1.22,36.1,7.05,10.47,21.71,15.71,33.2,10.51-7.81,2.4-12.36,11.76-10.27,19.66,2.1,7.9,9.92,13.61,18.07,14.15,8.15.55,16.23-3.61,21.38-9.95-2.58,3.18-3.7,6.11-2.47,10.27.98,3.31,3.83,7.46,7.23,8.56,8.41,2.72,18.97-2.01,23.86-8.94,4.51,3,10.08,4.37,15.47,3.82,12.18-1.26,22.97-12.92,23.95-25.03Z"/>
        <polygon class="cls-22" points="635 676.77 639.36 537.91 640.36 537.91 644.73 676.77 635 676.77 635 676.77"/>
        <path class="cls-22" d="M637.81,633.06c-7.68-19.69-18.12-38.44-30.99-55.51l.77-.63c14.27,16.04,26.42,34.13,35.93,53.64l-5.71,2.51h0Z"/>
        <path class="cls-22" d="M638.78,602.19c5.87-13.51,14.77-25.59,25.79-35.13l.67.74c-10.45,9.94-18.58,22.2-23.64,35.54l-2.82-1.15h0Z"/>
      </g>
      <g>
        <path class="cls-2" d="M494.08,598.5c9.86-3.04,17.63-11.3,20.07-21.35,7.06,3.61,15.84,3.03,21.82-1.43,5.98-4.46,8.88-12.6,7.2-20.22,17.77-1.41,33.83-12.49,41.1-28.36,2.29-5,3.76-10.64,2.77-16.26s-4.87-11.17-10.36-12.96c8.51-10.61,13.05-24.67,11.29-38.72-1.76-14.04-10.16-27.8-22.63-35.18s-28.79-7.66-39.88.24c1.08-.77-7.05-13.04-7.92-14.23-3.22-4.41-6.97-8.4-11.09-11.97-8.21-7.12-19.03-11.69-29.9-13.32-13.53-2.02-26.41,3.17-33.15,15.39-5.52-4.4-12.77-6.57-19.8-5.93-12.27,1.12-23.15,10.81-23.19,23.61-13.59-3.97-25.25,1.96-36.5,8.89-13.07,8.05-18.73,22.51-15.46,38.2,2.18,10.48,7.89,20.22,15.05,28.49,1.29,1.49,2.72,3.26,2.36,5.1-.31,1.59-1.85,2.51-3.19,3.37-7.95,5.1-13.07,14.07-13.8,23.69-.68,9.08,5.5,19.43,12.43,25.47,9.4,8.19,21.72,12.02,33.76,13.83-.1,5.51,3.34,11.17,8.38,13.81,3.06,1.6,6.62,2.03,9.84,1.36,1.23-.26,6.77-2,6.82-3.63-.48,16.76,17.92,31.1,33.73,26.05,5.34-1.71,9.82-5.58,12.25-10.58,5.47,9.44,19.33,9.3,28,6.63Z"/>
        <polygon class="cls-22" points="453.4 658.26 457.21 469.48 458.21 469.48 462.02 658.26 453.4 658.26 453.4 658.26"/>
        <path class="cls-22" d="M456.93,589.12c-1.53-1.17-1.53-1.66-1.06-3,.4-1.59,1.88-5.91,2.44-7.51,6.01-16.42,15.78-31.55,28.39-43.65,5.05-4.81,10.49-9.19,16.35-12.89l.58.81c-5.32,4.35-10.33,9.01-14.9,14.07-10.29,11.27-18.53,24.38-24.27,38.5-1.34,3.39-3.16,8.46-4.08,11.97-.1.28-.2.94-.43,1.2-.29.36-.88.63-2.06.76l-.97-.26h0Z"/>
        <path class="cls-22" d="M455.39,559.97c-8.89-21.49-24.91-40.24-45.19-52.48l.49-.87c21.15,11.17,38.76,29.33,49.35,51.27l-4.65,2.09h0Z"/>
      </g>
      <path class="cls-2" d="M211.16,590.78c1.28-.33,2.55-.72,3.8-1.16,16.31-5.81,28.34-21.16,30.21-38.56-.16,1.45,13.43-1.72,14.5-2.22,4.93-2.28,9.36-6.13,11.86-10.97,3.84-7.41,3.31-16.79-.52-24.54-1.89-3.83-5.11-5.86-2.04-9.42,2.16-2.5,8.34-2.91,11.39-4.09,15.66-6.08,28.35-19.05,33.55-35.11,6.53-20.17.95-44.4-14-60.84-14.95-16.44-38.66-24.41-59.54-20.03,2.7-.57,1.16-12.25.71-14.09-1.28-5.3-4.18-10.39-8.29-14.13-6.67-6.08-21.78-6.83-23.68,3.81.08-26.23-19.53-51.79-44.4-60.79-13.5-4.89-22.97-6.43-35.19.93-5.72,3.45-10.76,7.98-14.76,13.31-.87,1.15-8.9,15.45-7.94,15.71-17.87-5.01-37.51-1.17-51.31,10.03-13.79,11.2-21.4,29.49-19.86,47.77-14.01-1.41-28.18,2.72-38.75,11.29-11.07,8.97-21.17,24.57-15.84,39.27,5.35,14.73,14.56,28.38,29.79,34.38-11.02,2.91-17.94,15.53-14.7,26.79,3.24,11.27,16.1,19.28,27.3,17.02-10.77,15.98-15.68,38.52-4.49,55.5,8.81,13.37,25.63,19.88,41.23,19.87,15.59-.01,30.29-5.53,44.36-11.48-4.1,1.73,2.71,20.18,5.93,22.77,7.71,6.2,22.78,4.81,30.91,1.97,11.1-3.88,19.99-12.99,23.6-24.18,12.71,10.92,30.66,15.15,46.17,11.16Z"/>
      <polygon class="cls-22" points="124.43 699.42 134.94 395.07 135.94 395.07 146.44 699.42 124.43 699.42 124.43 699.42"/>
      <path class="cls-22" d="M129.57,592.02c12.12-43.59,39.68-81.96,75.98-107.01l.6.8c-34.26,27.41-58.03,66.73-66.51,108.64l-10.07-2.43h0Z"/>
      <path class="cls-22" d="M132.77,549.12c-13.48-33.97-37.39-58.48-63.71-82.89,0,0,.67-.74.67-.74,20.22,17.36,40.58,35.22,55.25,57.76,4.95,7.49,9.34,15.37,13.13,23.54,0,0-5.34,2.33-5.34,2.33h0Z"/>
      <path class="cls-22" d="M132.46,488.3c6.63-14.7,16.56-27.72,28.72-37.86l.67.74c-11.2,10.97-19.77,24.42-24.95,38.92l-4.44-1.79h0Z"/>
    </g>
    <path class="cls-9" d="M578.79,945.59c6.46-16.49,25.43-27.03,42.84-23.8,0-19.97,21.65-36.84,41.01-31.93,2.22-22.44,17.01-43.21,37.48-52.64s45.87-7.17,64.35,5.73c.21-9.26,6.25-18.14,14.78-21.73s19.1-1.72,25.87,4.6c-1.03-25.88,20.34-48.93,45.21-56.14,24.87-7.21,51.87-1.31,75.48,9.32,6.5-14.49,21.44-23.79,36.89-27.49,15.45-3.69,31.59-2.6,47.43-1.49-2.89,68.06-.11,136.36,8.31,203.95"/>
    <path class="cls-9" d="M418.33,950.28c3.22-9.46.61-20.65-6.46-27.71-7.07-7.06-18.25-9.67-27.71-6.44-1.15-15.86-10.96-30.83-25.05-38.21-14.21-7.45-31.64-6.75-45.53,1.04,1.47-5.91,3.62-8.07.33-14.09-2.79-5.1-7.36-9.31-12.66-11.68-8.01-3.57-17.75-2.94-25.23,1.64.33-28.25-21.26-54.22-48.2-62.72-26.94-8.5-57.4-1.05-80.08,15.79-.93-10.83-9.52-20.55-20.14-22.81s-22.43,3.13-27.68,12.64c-2.19-16.66-12.96-31.95-27.91-39.61-16.89-8.66-40.65-7.06-56.4,3.6-2.92-8.96-6.14-18.37-13.26-24.55-7.11-6.18-19.44-7.38-25.24.04-2.53,3.24-3.39,7.44-4.15,11.48-13.39,71.22-18.55,143.98-15.35,216.38"/>
    <path class="cls-6" d="M535.4,943.41c4.59-12.91,9.86-24.31,24.01-28.5,6.53-1.94,13.47-2.07,20.25-1.48,1.72.15,3.62.3,5.03-.72,1.28-.92,1.78-2.55,2.29-4.04,3.16-9.27,9.61-17.39,17.94-22.55,21.77-13.5,54.36-5.41,70.34,13.52,9.89-17.83,30.26-29.29,50.63-28.5s39.79,13.79,48.28,32.33c7.31-9.71,21.3-13.74,32.65-9.41,11.35,4.33,19.1,16.66,18.08,28.78,11.66-3.64,24.98-1.49,34.9,5.64,9.92,7.13,16.2,19.08,16.46,31.29"/>
    <path class="cls-6" d="M1004.07,811.64c-13.59-10.22-32.49-12.93-48.4-6.95-15.92,5.98-28.35,20.47-31.85,37.11-12.75-12.07-32.71-15.84-48.97-9.24-16.27,6.6-27.97,23.21-28.71,40.75-7.72-.5-15.55-1-23.11.64s-14.93,5.73-18.78,12.44c-3.85,6.71-3.2,16.22,2.73,21.19-7.96-.27-15.45,4.61-20.07,11.1s-6.78,14.4-8.19,22.24c-.72,4.01-.92,8.93,2.4,11.28,1.77,1.26,4.08,1.38,6.25,1.45,72.23,2.51,144.45,5.02,216.68,7.53"/>
    <path class="cls-6" d="M326.81,944.4c1.49-10.74-3.85-22.13-13.06-27.86s-21.79-5.46-30.75.64c2.24-8.13-2.91-17.1-10.45-20.86-7.55-3.75-16.74-2.96-24.5.33-7.76,3.29-14.33,8.83-20.51,14.57,1.33-17.38-10.12-34.96-26.55-40.76-16.44-5.8-36.38.69-46.25,15.06-1.83-12.02-16.24-18.64-28.21-16.52-11.96,2.12-21.81,10.32-31.05,18.22-1.61-13.25-4.57-26.57-11.17-38.17s-17.23-21.38-30.16-24.64c-12.94-3.26-28.07,1.05-35.61,12.06-.28-17.39-12.5-33.94-29.02-39.35-7.78,49.33-9.97,99.53-6.52,149.35"/>
    <rect class="cls-15" x="845.03" y="348.33" width="11.99" height="13.44"/>
    <rect class="cls-15" x="845.03" y="367.14" width="11.99" height="13.44"/>
    <rect class="cls-15" x="862.81" y="348.33" width="11.99" height="13.44"/>
    <rect class="cls-15" x="360.3" y="363.05" width="9.81" height="14.28"/>
    <rect class="cls-15" x="347.26" y="363.05" width="9.81" height="14.28"/>
    <rect class="cls-15" x="360.3" y="380.39" width="9.81" height="14.28"/>
    <rect class="cls-15" x="634.63" y="417.35" width="9.81" height="14.28"/>
    <rect class="cls-15" x="649.81" y="417.35" width="9.81" height="14.28"/>
    <rect class="cls-15" x="634.63" y="437.65" width="9.81" height="14.28"/>
    <rect class="cls-15" x="937.54" y="395.49" width="32.27" height="6.93"/>
    <rect class="cls-15" x="937.54" y="407.21" width="32.27" height="6.93"/>
    <rect class="cls-15" x="450.75" y="326.2" width="8.87" height="8.87"/>
    <rect class="cls-15" x="436.27" y="326.2" width="8.87" height="8.87"/>
    <rect class="cls-15" x="450.75" y="339.42" width="8.87" height="8.87"/>
    <rect class="cls-15" x="407.66" y="383.03" width="8.87" height="8.87"/>
    <rect class="cls-15" x="407.66" y="396.25" width="8.87" height="8.87"/>
    <rect class="cls-10" x="633.21" y="397.95" width="71.3" height="9.6"/>
    <rect class="cls-20" x="844.27" y="323.79" width="56.21" height="15.86"/>
    <rect class="cls-15" x="709.12" y="352.14" width="5.52" height="13.68"/>
    <rect class="cls-15" x="717.82" y="352.14" width="5.52" height="13.68"/>
    <rect class="cls-15" x="726.51" y="352.14" width="5.52" height="13.68"/>
    <rect class="cls-15" x="709.12" y="369.13" width="5.52" height="13.68"/>
    <rect class="cls-15" x="717.82" y="369.13" width="5.52" height="13.68"/>
    <rect class="cls-15" x="726.51" y="369.13" width="5.52" height="13.68"/>
    <g>
      <path class="cls-14" d="M890.63,222.39c-.83,3.55-2.64,6.84-5.22,9.52-.03.04-1.96,1.88-4.3,3.44,2.56,6.54,2.53,14.31-.25,21.24-2.98,7.48-8.95,13.98-16.81,18.29-6.57,3.61-14.41,5.73-23.32,6.28-7.41.48-14.04-.33-19.71-2.4-2.44-.89-4.38-2.11-6.26-3.28-.71-.45-1.44-.9-2.2-1.34-.81-.46-1.64-.9-2.48-1.33-.96-.5-1.93-1.01-2.91-1.57-3.52,2.52-7.96,3.87-12.65,3.77-4.15-.1-8.07-1.33-11.28-3.49-7.24,8.39-18.3,13.49-29.37,13.49-1.17,0-2.35-.05-3.52-.17-12.07-1.2-23.35-8.7-29.42-19.2-8.41,5.13-17.85,6.84-25.98,4.55-3.56-1-6.76-2.85-9.4-5.23-3.63-.03-7.25-.59-10.68-1.7-4.98,8.62-14.24,14.68-24.14,15.76-1.08,2.44-2.55,4.7-4.41,6.65-5,5.26-12.36,7.88-19.5,7.25-.09,19.14-10.48,37.86-26.98,47.76-16.82,10.1-38.75,10.31-55.84.83-6.61,10.16-17.04,17.53-28.71,20.6.17,6.51.35,12.59.55,18.55.22,6.25.48,12.65.8,19.59.72,16.01,1.65,32.4,2.82,49.52.35,4.99.71,10.04,1.09,15.17.02.15.03.3.04.44.04.61.09,1.22.13,1.82.36,4.71.73,9.48,1.13,14.32.02.34.05.68.08,1.03.19,2.24.37,4.48.56,6.74,0,.03,0,.05,0,.08,3.3,39.18,7.69,81.35,13.7,131.87.77,6.38,1.49,12.77,2.21,19.17.37,3.26.75,6.54,1.12,9.82,3.94,34.22,8.53,69.23,19.51,102.18,1.19,3.57,2.45,7.05,3.78,10.44,7.07,18.1,15.99,33.52,26.64,46,1.8,2.11,3.66,4.15,5.56,6.09.12.13.25.26.39.4,2.06,2.13,5.07,5.5,4.58,9.97h0c-.08.68-.21,1.33-.39,1.95-.56,1.84-1.6,3.4-3.08,4.56-4.28,3.37-11,2.51-15.92,1.89-1.41-.18-2.73-.35-3.51-.35-.43,0-.85.01-1.28.02h-.27c-.34.02-.69.04-1.03.06l-.51.03c-.27.02-.54.05-.81.08-.24.02-.48.04-.71.06-.21.03-.42.06-.63.09-.3.03-.59.07-.89.11-.15.02-.31.05-.46.08-.35.05-.7.11-1.04.17-.1.02-.2.04-.3.06-.4.07-.8.15-1.2.23-.04.01-.08.02-.12.03-4.88,1.03-9.65,2.74-14.2,4.53-1.46.57-2.92,1.16-4.38,1.75-2.93,1.19-5.89,2.38-8.88,3.48-7.14,2.61-14.52,4.67-22.3,4.67-.29,0-.58-.01-.87-.01-.78-.02-1.54-.08-2.29-.13-.31-.02-.63-.03-.94-.05-.25-.03-.5-.07-.75-.1-.8-.08-1.6-.17-2.41-.29-.01-.01-.03-.01-.04-.01-5.1-.77-10.08-2.23-14.9-3.65-3.22-.94-6.55-1.92-9.8-2.65-.05-.01-.09-.02-.14-.03h-.01s-.02-.01-.03-.01c-.51-.11-1.01-.21-1.52-.31l-.16-.04c-8.84-1.75-18.16-2.02-27.17-2.27-4.39-.13-8.93-.26-13.42-.56-5.4-.37-9.79-.9-13.84-1.65-.75-.14-1.52-.29-2.27-.46-1.96-.42-3.8-.89-5.54-1.42-.18-.06-.5-.14-.88-.24-6.86-1.83-10.29-3.24-11.24-6.3-1.39-4.29,2.49-7.9,4.82-10.06.24-.23.46-.43.64-.61,16.17-15.89,24.22-34.65,26.91-62.74,4.55-47.7,6.2-96.25,4.89-144.33-.78-28.69-.25-57.04.25-84.47.26-14.08.53-28.64.62-43.22.09-14.05.21-28.04.33-41.85.13-13.8.28-27.45.43-40.82l.06-4.65c.16-14.17.35-28.36.55-42.53-10.17,4.64-21.69,6.4-32.68,4.55-17.36-2.92-33.05-14.71-40.9-30.47-9.37,2.02-19.52-.13-27.23-5.91-2.34-1.76-4.41-3.83-6.2-6.13-15.44-2.45-30.17-9.49-41.63-20.13-8.91,9.73-20.76,15.02-31.77,14-7.61-.7-15.21-5.19-19.83-11.7-2.47-3.48-3.95-7.28-4.36-11.1-9.57,2.88-20.4,1.28-28.6-4.59-1.41-1.01-2.73-2.14-3.95-3.37-4.03-.44-8.02-1.46-11.82-3.01-.06-.02-.11-.04-.17-.06-.38-.16-.76-.33-1.14-.5-.12-.05-.24-.1-.35-.15-.33-.15-.66-.31-.99-.47-.16-.08-.32-.15-.49-.23-.28-.15-.56-.3-.85-.44-.19-.11-.4-.21-.59-.32l-.75-.42c-.22-.13-.45-.25-.67-.38-.23-.14-.45-.29-.68-.43-.21-.12-.41-.24-.61-.37-.06-.04-.12-.07-.18-.11-3.7-2.39-6.99-5.29-9.75-8.61-.23-.27-.45-.54-.67-.81-1.2-1.48-2.33-2.87-3.48-3.28-1.2-.42-3.05.02-5,.5-.6.14-1.21.29-1.8.41-10.38,2.18-21.55-1.6-28.47-9.63-6.76-7.85-8.65-17.23-5.33-26.43,2.93-8.11,9.83-15.5,18.26-20.27-2.6-1.88-5.02-4.01-7.23-6.38-6.17-6.61-10.05-14.45-11.23-22.55-10.67,4.18-20.03,5.15-28.5,2.95-11.58-2.99-22.77-14.5-20.63-27.9,1.82-11.4,11.88-18.37,22.27-21.68-2.87-5.94-2.91-13.23.26-19.12,2.74-5.09,7.77-8.81,13.4-10.25-.8-1.08-1.58-2.17-2.31-3.29-7.63,5.28-15.4,7.1-22.23,5.14-4.44-1.28-8.32-4.8-10.39-9.43-.4-.89-.72-1.81-.96-2.72-7.66,3.49-17.21,3.27-24.57-1.18-10.7-6.47-16.05-20.24-12.7-32.75.79-2.99,2.07-5.77,3.8-8.26,3.07-4.42,7.61-7.82,12.68-9.65-1.89-6-1.16-13.03,2.22-18.81,1.08-1.86,2.41-3.6,3.96-5.16.92-.93,2.24-1.35,3.53-1.12l164.92,29.09,9.68,1.71h.04l60.28,10.63,3.52-.58c1.06-.17,2.15.09,3.02.73.44.33.8.73,1.07,1.19l135.12,23.84s.08.01.11.02l37.55,6.63h.06l10.28,1.82s.1.02.15.03l1.94.34,33.36,5.88,6.64,1.17c.05.01.09.02.14.03l1.98.35h.07l10.74,1.9h.03l16.19,2.86s.07.01.11.02l.61.1s.03.01.05.01l4.1.73,103.24,18.2,12.8,2.26s.03,0,.04,0l191.34,33.75c.92.16,1.76.64,2.36,1.35,5.45,6.43,4.86,17.2-1.31,24.03-.01,0-.01,0-.01,0-4.98,5.5-12.95,8.49-21.82,8.19-.44-.02-.87-.05-1.31-.08.96,2.88,1.65,5.86,2.01,8.91.23,1.88.33,3.75.3,5.62,4.41-.57,8.69-.06,12.44,1.52,8.11,3.42,12.52,11.13,10.74,18.76Z"/>
      <g>
        <path class="cls-1" d="M339.2,293.61c-.38,9.5,4.16,19.06,11.76,24.76,7.6,5.7,18.05,7.39,27.06,4.36,6.72,16.14,22.1,28.36,39.33,31.27,17.24,2.9,35.77-3.62,47.4-16.67,7.87,13.73,23.51,22.62,39.33,22.35,15.82-.27,31.15-9.68,38.55-23.67,16.16,10.74,38.53,11.25,55.16,1.26,16.63-9.99,26.7-29.98,24.82-49.29,7.13,2.47,15.62.42,20.83-5.05s6.85-14.05,4.04-21.05c-33.64-9.52-67.27-19.04-100.91-28.56-20.19-5.72-41.97-11.4-61.75-4.38-15.15,5.38-26.82,17.49-40.71,25.58-14.75,8.59-32.77,12.5-49.22,7.94-8.57-2.38-16.96-7-25.78-5.9-11.95,1.5-19.92,12.7-26.35,22.88l-3.55,14.18Z"/>
        <path class="cls-19" d="M379.52,271.86c-5.04,13.75-1.28,30.31,9.22,40.52,10.5,10.21,27.15,13.52,40.75,8.1,10.8,15.5,29.03,25.57,47.9,26.44,18.87.88,37.95-7.46,50.14-21.9,15.73,6.44,34.82,3.82,48.23-6.63,13.41-10.45,20.62-28.32,18.21-45.15-12.45,10.33-30.84,10.05-46.19,4.95s-29.01-14.29-43.9-20.6c-33.39-14.16-72.96-12.89-105.37,3.38l-18.97,10.89Z"/>
        <path class="cls-18" d="M452.23,343.34s-.02,0-.03,0c-.55-.01-.99-.47-.97-1.03l1.06-39.33c.01-.55.51-1,1.03-.97.55.01.99.47.97,1.03l-1.06,39.33c-.01.54-.46.97-1,.97Z"/>
        <rect class="cls-19" x="333.81" y="125.19" width="309.78" height="92.62"/>
        <path class="cls-1" d="M757.7,247.75c14.88-2.6,28.11-13.23,33.86-27.2,2.83-6.88,3.87-14.84,1.07-21.72-3.49-8.58-12.33-13.97-21.34-16.07-11.06-2.57-24.54.04-30.18,9.9,2.63-11.12-1.72-23.59-10.7-30.65-8.98-7.06-22.12-8.36-32.3-3.17-7.65-8.63-18.31-14.86-29.79-15.95-11.48-1.09-23.64,3.39-30.71,12.51s-8.15,22.82-1.61,32.31c-9.21-2.01-18.71-2.64-28.1-1.87-4.44.36-9.19,1.2-12.32,4.36-3.72,3.76-4.05,9.9-2.21,14.86s5.47,9.01,9.02,12.93c-1.89-2.09-8.25,2-9.57,3.25-3.02,2.88-3.54,5.77-3.39,9.64.35,8.68,1.72,16.36,8.65,22.43,6.5,5.69,15.99,7.76,24.27,5.27,4.22,9.86,14.67,16.71,25.39,16.63,10.72-.08,21.08-7.08,25.15-17,8.71,3.96,19.25,3.65,27.72-.82,8.47-4.47,14.67-13,16.32-22.43-.37,2.12,5.65,5.86,7.15,6.61,2.86,1.45,6.01,2.07,8.93,3.39,7.49,3.4,16.64,4.17,24.68,2.77Z"/>
        <path class="cls-1" d="M218.48,278.65c8.78,6.28,21.22,6.96,30.64,1.67-2.94,11.81,8.09,23.87,20.2,25,12.11,1.12,23.72-6.25,31.12-15.91,14.53,15.19,35.73,23.76,56.73,22.93s41.46-11.04,54.75-27.33c5.26-6.44,9.57-14.4,8.76-22.67-.81-8.28-8.57-16.15-16.72-14.48,6.55-18.13,7.6-42.16-9.35-55.18-11.37-8.73-28.18-9.58-40.37-2.05,1.73-18.23-20.19-22.12-33.62-18.95-18.48,4.37-32.72,22.52-32.56,41.51-10.34-8.12-21.89-15.22-34.77-17.83-12.88-2.61-27.33-.11-36.88,8.92-9.55,9.04-12.52,25.19-4.71,35.77-.65-.89-5.17,7.57-5.37,8.61-.57,2.91.08,7.41.49,10.31,1.1,7.75,5.25,15.09,11.65,19.67Z"/>
        <path class="cls-1" d="M685.02,139.02c-.91,2.59-2.08,5.09-3.5,7.44-.99,1.67-2.12,3.27-3.36,4.78-.46.55-.93,1.1-1.42,1.62-5.47,5.97-12.64,10.25-20.42,12.61-4.13,1.25-8.42,1.96-12.73,2.09-.88.04-1.76.04-2.64.02-2.82-.07-5.73-.45-8.52-1.19-6.53-1.73-12.41-5.4-14.99-11.47-1.33,8.57-7.48,16.24-15.56,19.39-8.09,3.16-17.81,1.68-24.59-3.73-3.18,10.17-10.51,18.97-19.93,23.94-3.16,1.67-6.55,2.9-10.04,3.67-2.48.55-5,.88-7.54.97-4.53.17-9.09-.4-13.43-1.74l-1.2-5.19v-.02l-.59-2.58c-.19-.3-.39-.6-.57-.91-.41-.65-.81-1.31-1.19-1.97-.45-.77-.88-1.54-1.3-2.33-2.8-5.23-4.99-10.79-6.54-16.52-.2-.71-.38-1.42-.55-2.13-3.22-13.3-3.05-27.44.74-40.59.12-.44.25-.88.39-1.32,3.24-10.49,8.8-20.29,16.16-28.43l12.66,2.23.73.13h.04s2.15.38,2.15.38l10.77,1.9,1.8.32,14.39,2.54h.04s.73.13.73.13l40.24,7.1,4.28.76,47.32,8.34,20.42,3.6c.38,5.44-.42,10.97-2.25,16.15Z"/>
        <path class="cls-19" d="M685.02,139.02c-.91,2.59-2.08,5.09-3.5,7.44-.99,1.67-2.12,3.27-3.36,4.78-.46.55-.93,1.1-1.42,1.62-4.55-3.04-8.86-6.42-12.87-10.14-.22-.19-.43-.39-.64-.59-.38.24-.76.47-1.15.69-2.07,1.2-4.25,2.19-6.51,2.94-2.93,1.01-5.98,1.64-9.07,1.88h0c-.96.09-1.93.13-2.9.13-3.56.01-7.12-.48-10.53-1.5-10.02-3-18.61-10.5-22.93-20.04-12.7,10.54-32.37,11.27-46.12,2.34-.02,0-.03-.01-.04-.02-.24-.16-.48-.32-.71-.48-1.15-.78-2.25-1.64-3.3-2.56-.12-.11-.24-.21-.36-.33-1.45-1.3-2.77-2.73-3.97-4.25-2.25-2.84-4.06-6.02-5.41-9.39-.36-.88-.68-1.77-.97-2.67-1.12-3.45-1.79-7.06-1.97-10.69l10.77,1.9,1.8.32,14.39,2.54h.04s.73.13.73.13l40.24,7.1,4.28.76,47.32,8.34,20.42,3.6c.38,5.44-.42,10.97-2.25,16.15Z"/>
        <path class="cls-1" d="M505.1,90.74c-.51,1.66-.99,3.34-1.45,5.02-.12.4-.22.79-.33,1.19-2.49,9.26-4.31,18.7-5.46,28.23-.05.4-.1.8-.15,1.21-1.8,15.63-1.77,31.49.12,47.11.28,2.29.57,4.67.69,7.03.1,1.62.11,3.23-.04,4.8-.27,3.17-1.12,6.17-3.04,8.73-1.77,2.35-4.23,3.96-6.97,5.06-.67.27-1.35.51-2.06.71h-.01c-2.05.62-4.19.99-6.3,1.21-2.96.31-5.96.38-8.93.17-.67-.04-1.34-.1-2-.18-4.45-.47-8.81-1.55-12.89-3.31-.03-.02-.06-.04-.1-.05-1.85-.81-3.65-1.76-5.36-2.86-8.56-5.49-14.8-14.94-15.22-25.12-5.23,10.15-19.4,14.44-29.38,8.9-9.98-5.53-13.83-19.83-7.99-29.64-10.21,8.39-26.16,8.83-36.82,1.01-.26-.19-.51-.38-.76-.58-5.62-4.43-9.36-10.98-10.77-17.99-.4-2.04-.61-4.13-.61-6.22,0-3.63.65-7.24,2.01-10.63l1.79-10.28h0s2.42-13.87,2.42-13.87c1.42-7.07,2.85-14.14,4.27-21.22,10.05.27,20.09.68,30.13,1.24l65.22,11.5h.01l37.6,6.63,5.23.93,5.16.91h.01l.38.07,1.6.28Z"/>
        <path class="cls-19" d="M357.94,164.94c-4.53,7.94-12.66,13.74-21.64,15.43s-18.66-.74-25.77-6.49c.21,13.98-7.84,27.53-19.65,35-11.82,7.46-26.93,9.02-40.38,5.22-5.42-1.52-10.73-3.96-14.66-8-1.65-1.7-3.03-3.73-3.97-5.91-1.31-3-1.82-6.3-1.17-9.49-14.53,12.72-34.21,20.82-53.23,17.47-19.03-3.33-36.02-20.19-35.63-39.51-9.7,4.58-20.74,7.7-31.12,5.01-10.38-2.68-19.37-12.8-17.68-23.4,1.78-11.16,13.75-17.71,24.85-19.83-4.94-5.08-6.11-13.45-2.75-19.69,3.14-5.83,9.99-9.37,16.55-8.73,1.65-.58,3.38-.92,5.13-1.03-4.75-6.29-3.31-15.95,2.19-21.61,5.51-5.64,14.13-7.5,21.89-6.09,13.04,2.37,23.88,13.89,25.45,27.06.82-19.47,13.95-37.62,31.78-45.5,17.82-7.87,39.47-5.63,55.94,4.79,3.71,2.35,7.15,5.08,10.28,8.14,10.8,10.47,18.01,24.67,20.4,39.58,7.82-13.74,27.9-18.63,41.17-10.02,13.26,8.61,16.97,28.95,7.6,41.69,8.72,4.49,9.28,17.4,4.42,25.92Z"/>
        <path class="cls-1" d="M297.83,134.6c-6.54,9.93-19.02,16.2-30.65,13.7,7.62,3.66,11.18,13.37,9.16,21.59-2.01,8.22-8.66,14.75-16.35,18.27-7.69,3.52-16.34,4.37-24.8,4.29l-3.32,7.73c-1.31-3-1.82-6.3-1.17-9.49-14.53,12.72-34.21,20.82-53.23,17.47-19.03-3.33-36.02-20.19-35.63-39.51-9.7,4.58-20.74,7.7-31.12,5.01-10.38-2.68-19.37-12.8-17.68-23.4,1.78-11.16,13.75-17.71,24.85-19.83-4.94-5.08-6.11-13.45-2.75-19.69,3.14-5.83,9.99-9.37,16.55-8.73,1.65-.58,3.38-.92,5.13-1.03-4.75-6.29-3.31-15.95,2.19-21.61,5.51-5.64,14.13-7.5,21.89-6.09,13.04,2.37,23.88,13.89,25.45,27.06.82-19.47,13.95-37.62,31.78-45.5,17.82-7.87,39.47-5.63,55.94,4.79,3.71,2.35,7.15,5.08,10.28,8.14.42.47.83.96,1.23,1.44,7.64,9.12,14.14,19.48,17.01,31.03,2.88,11.54,1.79,24.42-4.76,34.36Z"/>
        <path class="cls-1" d="M559.85,100.39c-.1.74-.22,1.49-.34,2.23-.98,6.17-2.28,12.28-3.88,18.3-.37,1.42-.77,2.84-1.18,4.25-1.52,5.24-3.28,10.4-5.25,15.46-5.32,13.67-12.23,26.59-20.55,38.34,0,0-.01,0-.01.01-1.06,1.5-2.15,2.98-3.26,4.44t-.01.02c-.47.62-.93,1.22-1.42,1.83-.22.29-.45.59-.68.88-.16.2-.31.39-.47.59-4.65,5.67-11.4,11.21-17.69,8.18-3.52-1.69-5.44-5.46-6.63-9.6-.45-1.57-.79-3.19-1.07-4.78-.06-.36-.12-.71-.18-1.06-2.74-16.7-4.42-33.61-5.03-50.55v-.09c-.03-.48-.04-.96-.05-1.44-.03-.74-.06-1.49-.07-2.23-.07-2.35-.12-4.69-.14-7.04-.05-4.62-.02-9.24.1-13.87.12-5.24.35-10.48.68-15.71l5.23.93,5.16.91h.01l.38.07,1.6.28,26.6,4.69,12.66,2.23.73.13h.04s2.15.38,2.15.38l10.77,1.9,1.8.32Z"/>
        <path class="cls-3" d="M575.01,103.07l40.24,7.1c-5.42,3.95-11.06,7.6-17.35,9.84-11.93,4.26-21.02,1.5-28.49-5.19-.01,0-.01-.01-.02-.02-.05-.04-.11-.09-.16-.14-3.51-3.18-6.66-7.22-9.58-11.81-.05-.07-.09-.15-.14-.22-.54-.86-1.03-1.71-1.46-2.55l1.8.32,14.39,2.54h.04s.73.13.73.13Z"/>
        <path class="cls-3" d="M736.6,131.57c-1.13,1.17-2.32,2.28-3.57,3.32-.05.04-.09.08-.14.12-6.65,5.57-14.75,9.28-23.38,10.11-8.52.82-17.29-1.49-24.49-6.1-6.81-4.33-12.22-10.7-14.72-18.4-1.41,1.96-3.05,3.78-4.85,5.42-6.01,5.49-13.91,8.95-21.86,8.87-1.83-.02-3.68-.22-5.5-.64-5.45-1.25-10.34-4.64-13.73-9.09-3.16-4.14-5.02-9.18-4.83-14.25l47.32,8.34,20.42,3.6,7.89,1.39,25.27,4.46,16.17,2.85Z"/>
        <path class="cls-1" d="M575.01,103.07l40.24,7.1c-5.42,3.95-11.06,7.6-17.35,9.84-11.93,4.26-21.02,1.5-28.49-5.19-.01,0-.01-.01-.02-.02-.05-.04-.11-.09-.16-.14-3.51-3.18-6.66-7.22-9.58-11.81-.05-.07-.09-.15-.14-.22-.54-.86-1.03-1.71-1.46-2.55l1.8.32,14.39,2.54h.04s.73.13.73.13Z"/>
        <path class="cls-1" d="M732.89,135.01c-6.65,5.57-14.75,9.28-23.38,10.11-8.52.82-17.29-1.49-24.49-6.1-6.81-4.33-12.22-10.7-14.72-18.4-1.41,1.96-3.05,3.78-4.85,5.42-6.01,5.49-13.91,8.95-21.86,8.87-1.83-.02-3.68-.22-5.5-.64-5.45-1.25-10.34-4.64-13.73-9.09-3.16-4.14-5.02-9.18-4.83-14.25l47.32,8.34,20.42,3.6,7.89,1.39c1.32,1.03,2.69,1.97,4.11,2.83,10.01,6.06,21.84,8.3,33.62,7.92Z"/>
        <path class="cls-11" d="M317.13,56.15c4.26,31.31,12.33,62.17,23.72,91.65,3.81,9.87,8.04,19.59,12.58,29.17,0,0-.89.46-.89.46-5.11-9.32-9.93-18.82-14.34-28.51-8.88-19.44-16.2-39.55-21.99-60.11-2.89-10.31-5.39-20.73-7.45-31.28,0,0,8.37-1.38,8.37-1.38h0Z"/>
        <path class="cls-3" d="M497.95,89.48c-.99,5.24-3.02,10.31-5.91,14.78-.56.86-1.16,1.7-1.78,2.52-5.21,6.79-12.23,11.89-20.07,15.37-.64.28-1.29.56-1.94.82-2.1.85-4.25,1.58-6.44,2.2-1.22.35-2.46.67-3.7.95h-.02c-.09.02-.18.04-.27.06-2.82.62-5.68,1.06-8.54,1.33-7.81.73-16,.1-23.42-2.34-6.1-2.01-11.69-5.24-16.1-9.94-.8,3.78-2.82,7.23-5.57,9.94-3.53,3.45-8.26,5.69-13.2,5.87-5.42.2-10.76-2.09-14.64-5.87-2.43-2.35-4.28-5.28-5.22-8.54-2.58,2.85-5.71,5.91-9.18,8.54-1.19.93-2.42,1.78-3.69,2.55-2.68,1.66-5.49,2.96-8.38,3.67-1.36.35-2.73.55-4.11.6-4.18.15-8.16.34-11.96-.08-.28-.03-.56-.07-.83-.11-4.4-.6-8.55-2.13-12.51-5.63-.89-.79-1.76-1.66-2.89-2.06-1.65-.58-3.45-.02-5.14.46-3.53,1.01-7.06,1.56-10.61,1.81-4.92.35-9.88.13-14.91-.24-1.82-.13-3.63-.42-5.41-.88h-.01c-.34-.09-.68-.18-1.01-.28-4.85-1.42-9.32-4.1-12.37-8.22-.11-.15-.22-.3-.32-.45h0c-1.37-1.99-2.28-4.27-2.73-6.65-1.21-6.3.75-13.24,5.87-16.79-3.96,2.28-8.55,3.15-13.1,2.81-8.9-.65-17.63-5.89-21.09-14.2-2.69-6.45-1.84-13.84,1.4-19.99.43-.85.92-1.66,1.45-2.45,2.36-3.55,5.55-6.51,9.31-8.4h.01c1.67-.83,3.44-1.46,5.31-1.82-.82-.86-1.57-1.77-2.24-2.72l12.34,2.18,48.62,8.57,6.17,1.09,22.52,3.97,48.25,8.51,65.22,11.5h.01l37.6,6.63,5.23.93Z"/>
        <path class="cls-1" d="M323.23,77.31c3.71,4.35,5.16,10.15,4.68,15.88-.29,3.59-1.34,7.16-3.07,10.31-.26.48-.53.94-.82,1.4-4.62,7.4-12.39,12.51-20.64,15.48-7.18,2.57-14.77,3.7-22.38,4.54-.17.02-.34.04-.51.06-4.85-1.42-9.32-4.1-12.37-8.22-.11-.15-.22-.3-.32-.45-1.37-1.98-2.28-4.27-2.73-6.65-1.21-6.3.75-13.24,5.87-16.79-3.96,2.28-8.55,3.15-13.1,2.81,1.62-3.73,2.93-7.59,3.93-11.51,2.44-9.58,3.18-19.47,2.89-29.38-.06-2.17-.17-4.35-.33-6.52l48.62,8.57,6.17,1.09,22.52,3.97c-3.23,7.83-10.07,14.18-18.41,15.4Z"/>
        <path class="cls-11" d="M616.99,203.85c57.46.86,114.8,11.62,168.3,32.37,0,0-.34.94-.34.94-53.97-18-111.15-25.96-167.88-24.09,0,0-.09-9.23-.09-9.23h0Z"/>
        <path class="cls-3" d="M886.73,221.48c-.67,2.87-2.16,5.54-4.2,7.66-.52.54-6.28,5.17-6.87,4.23,4,6.39,4.29,14.73,1.49,21.73-2.79,7-8.42,12.65-15.02,16.27-6.6,3.63-14.13,5.33-21.65,5.8-6.07.39-12.34-.07-18.09-2.17-2.94-1.07-5.18-2.81-7.84-4.33-2.58-1.47-5.27-2.63-7.73-4.4-6.28,6.55-18.22,6.27-24.19-.56-6.82,10.31-19.58,16.38-31.88,15.15-12.31-1.22-23.62-9.69-28.27-21.15-7.45,5.78-17.37,9.17-26.45,6.62-9.08-2.56-16.25-12.31-13.88-21.44-9.77,2.72-20.1-7.61-19.59-17.21.24-4.68,2.96-9.15,7-11.53-10.67-6.77-10.89-19.46-5.15-29.63,3.01-5.33,7.35-9.77,12.44-13.11,10.39-6.84,23.91-9.09,35.69-4.93.11-8.37,6.63-15.38,13.87-19.58,12.03-6.99,27.13-8.45,40.28-3.9,13.15,4.55,24.11,15.04,29.24,27.98,11.74-11.71,31.21-14.78,45.98-7.24,11.7,5.97,19.73,18.23,21.27,31.22.41,3.4.37,6.86-.17,10.27,4.95-1.67,10.52-1.94,15.33.09,5.72,2.41,9.85,7.92,8.39,14.16Z"/>
        <path class="cls-1" d="M863.18,196.96c-2.34,2.51-4.96,4.75-7.83,6.65-13.97,9.27-33.11,10.07-47.8,2-8.71,11.17-26.01,14.47-38.23,7.3-1.46-.86-2.92-1.88-4.61-2.09-2.6-.32-4.98,1.31-7.23,2.65-10.67,6.32-24.42,7.12-35.75,2.07-11.32-5.05-19.92-15.81-22.35-27.98-5.88,2.38-13.11.97-17.66-3.46-2.87-2.79-4.57-6.69-4.87-10.68,10.39-6.84,23.91-9.09,35.69-4.93.11-8.37,6.63-15.38,13.87-19.58,12.03-6.99,27.13-8.45,40.28-3.9,13.15,4.55,24.11,15.04,29.24,27.98,11.74-11.71,31.21-14.78,45.98-7.24,11.7,5.97,19.73,18.23,21.27,31.22Z"/>
        <path class="cls-11" d="M477.3,343.16C396.4,199.85,258.38,93.71,104.03,38.85c0,0,.32-.95.32-.95,158,49.65,302.17,153.21,389.35,295.65,0,0-16.4,9.61-16.4,9.61h0Z"/>
        <path class="cls-11" d="M499.56,253.11c104.21-61.28,225.92-87.26,345.76-90.59,0,0,.04,1,.04,1-88.91,6.25-177.45,25.9-258.98,62.08-26.99,12.06-53.07,26.02-77.52,42.21,0,0-9.31-14.71-9.31-14.71h0Z"/>
        <path class="cls-5" d="M596.01,824.92c-.93,8.46-14.05,4.48-18.92,4.48-8.59-.05-17,2.71-24.92,5.82-11.3,4.46-22.74,9.86-34.88,9.62-1.98-.05-3.91-.22-5.85-.53-8.28-1.23-16.27-4.42-24.49-6.25-.04-.01-.08-.02-.12-.03-.61-.14-1.23-.26-1.84-.38-13.51-2.68-27.4-1.99-41.09-2.9-4.48-.31-8.96-.77-13.38-1.59-.7-.13-1.41-.27-2.11-.43-1.77-.38-3.53-.82-5.27-1.35-1.63-.48-8.92-2.16-9.46-3.9-.72-2.22,3.02-5.22,4.45-6.63,18.88-18.55,25.62-39.52,28.08-65.21,4.59-48.11,6.22-96.51,4.91-144.82-1.17-43.2.59-84.37.87-127.55.19-27.56.44-55.1.76-82.65l.06-4.65c.17-14.76.36-29.53.57-44.29.02-1.65.05-3.31.07-4.96.03-1.89.06-3.78.1-5.68v-.24c0-.13,0-.26.01-.39,0-1.08.02-2.15.05-3.23h0c.08-6.15.18-12.29.28-18.43.02-1.37.05-2.73.07-4.1.02-1.46.04-2.92.08-4.38.03-1.96.06-3.93.1-5.89.07-4.58.15-9.17.24-13.75.01-.85.03-1.7.05-2.55.05-2.47.09-4.93.13-7.39.13-7.4.27-14.79.42-22.2.07-3.56.14-7.12.22-10.68,0-.23,0-.46,0-.68.18-8.99.37-17.97.57-26.96.02-.79.03-1.57.05-2.36.15-6.69.3-13.38.45-20.07,0-.05,0-.1.01-.15h0c.33-14.4.68-28.79,1.05-43.17.26-9.42.51-18.85.75-28.28.01-.32.02-.63.03-.95.03-1.18.06-2.34.09-3.52,0-.01,0-.03,0-.04.02-.47.03-.93.04-1.4.03-1.07.13-2.29.27-3.62.02-.19.04-.39.06-.58.06-.52.12-1.06.18-1.6.06-.49.12-.99.18-1.5.05-.4.1-.8.15-1.22.01-.05.02-.11.02-.17.05-.44.11-.88.16-1.33.07-.51.13-1.01.18-1.52.08-.68.15-1.36.22-2.05.42-3.88.68-7.8.37-11.04-.07-.65-.15-1.28-.26-1.87-.17-.89-.4-1.71-.7-2.43-1.3-3.13-2.62-6.25-3.97-9.36h.01l37.6,6.63,5.23.93,5.16.91c.03.78.05,1.56.08,2.34.05,1.39.09,2.8.13,4.22.05,1.52.1,3.05.14,4.59.07,1.97.13,3.95.19,5.94.03,1,.06,2,.09,3.01.06,2,.12,4.03.19,6.07.06,2.04.13,4.09.19,6.16.02.81.05,1.63.07,2.45.01.22.02.44.02.66.54,17.25,1.11,35.56,1.72,55.1.11,3.4.21,6.83.32,10.31,1.17-3.26,2.36-6.52,3.57-9.77,1.67-4.54,3.39-9.07,5.14-13.58,5.55-14.37,11.42-28.62,17.61-42.72,4.04-9.19,8.21-18.32,12.52-27.39h.04s2.15.38,2.15.38l10.77,1.9,1.8.32,14.39,2.54c-1.24,2.97-2.47,5.95-3.67,8.93-.4.97-.8,1.95-1.18,2.93-1.4,3.45-2.77,6.91-4.11,10.38-.45,1.12-.88,2.25-1.31,3.37-2.07,5.38-4.09,10.77-6.07,16.18-4.82,13.21-9.36,26.54-13.62,39.94-.02.02-.02.05-.03.08-.02.08-.04.17-.07.25-.97,3-1.92,6.02-2.84,9.04h0c-.53,1.71-1.05,3.41-1.56,5.12-1.88,6.19-3.7,12.4-5.45,18.63-1.08,3.8-2.13,7.61-3.15,11.43-1.63,5.97-3.19,11.97-4.7,17.97-.32,1.27-.64,2.53-.94,3.8-1.28,5.1-2.5,10.22-3.69,15.35-.53,2.26-1.05,4.52-1.56,6.78-.44,1.95-.88,3.9-1.3,5.85-.23,1.04-.46,2.08-.68,3.13-.27,1.19-.53,2.39-.78,3.59-.26,1.19-.51,2.38-.76,3.58-.29,1.34-.57,2.69-.84,4.04-.28,1.34-.55,2.69-.83,4.04-.55,2.7-1.08,5.4-1.6,8.1-.06.3-.12.61-.17.91-.42,2.13-.83,4.26-1.23,6.39-.46,2.43-.91,4.86-1.35,7.3-.11.64-.22,1.28-.3,1.93-.76,5.41-.72,11.29-.42,17.2.03.53.05,1.06.08,1.6v.12c.36,6.16.94,12.35,1.1,17.99.01.23.01.45.02.67.17,7.06.37,14.13.61,21.21.23,6.54.5,13.09.8,19.63,1.22,27.17,3.02,54.29,5.22,81.42,3.8,46.72,8.83,93.33,14.37,139.87,5.29,44.33,8.81,89.33,23.01,131.96,7.87,23.61,19.55,46.31,36.92,64.08,1.96,2.01,4.16,4.35,3.85,7.14Z"/>
        <path class="cls-11" d="M520.29,273.15c-3.52,15.58-6.7,31.24-9.54,46.94-.11.64-.22,1.28-.3,1.93-3.85-2.76-7.32-6.04-10.26-9.77-6.79,7.2-19.69,3.91-25.61-2.74-.34-.39-.7-.8-1.19-.96-.93-.28-1.82.48-2.52,1.14-4.7,4.48-10.65,7.58-16.98,9.06.02-1.37.05-2.73.07-4.1.02-1.46.04-2.92.08-4.38.28-17.26.6-34.53.94-51.78,21.6,5.61,43.39,10.49,65.31,14.66Z"/>
        <path class="cls-11" d="M504.22,125.84h-.01c-2.17.07-4.33.25-6.5.55-1.83.25-3.66.59-5.5,1-.02,0-.04.01-.06.02-.65.13-1.29.29-1.93.45-5.78,1.46-11.63,3.67-17.68,6.52-.48.23-.96.45-1.44.65-.65.3-1.3.58-1.95.85-3.87,1.61-7.66,2.82-11.4,3.7.12-4.49.24-8.97.36-13.45.01-.32.01-.63.03-.95.03-1.29.06-2.57.1-3.86,0,0-.01,0,0-.01,0-.37.02-.73.03-1.1.03-1.21.15-2.64.31-4.19.06-.52.12-1.06.18-1.6.06-.49.12-.99.18-1.5.05-.4.1-.8.15-1.22.01-.05.02-.11.02-.17.05-.44.11-.88.16-1.33.07-.51.13-1.01.18-1.52.08-.68.15-1.36.22-2.05.42-3.88.68-7.8.37-11.04-.06-.65-.15-1.28-.26-1.87-.16-.89-.39-1.71-.69-2.43-1.3-3.13-2.62-6.25-3.97-9.36l37.6,6.63,5.23.93,5.16.91h.01c.02.78.05,1.56.07,2.34.05,1.39.09,2.8.13,4.22.05,1.52.1,3.05.14,4.59.07,1.97.13,3.95.19,5.94.03,1,.06,2,.09,3.01.06,2.01.13,4.03.19,6.07.06,2.04.13,4.09.19,6.16.03.81.05,1.63.08,2.45,0,.22,0,.44.02.66Z"/>
        <path class="cls-11" d="M574.28,102.95c-1.17,2.78-2.31,5.57-3.44,8.36-.02.03-.03.06-.04.09-.47,1.14-.93,2.28-1.39,3.42-1.38,3.44-2.75,6.9-4.09,10.36-.44,1.13-.88,2.26-1.31,3.39-2.07,5.37-4.1,10.77-6.07,16.18-.01-.01-.03-.01-.04-.02-.33-.13-.66-.27-.99-.42h-.01c-2.62-1.12-5.17-2.37-7.7-3.67-2.59-1.34-5.16-2.73-7.74-4.1-.59-.32-1.19-.64-1.79-.95-2.26-1.19-4.55-2.35-6.89-3.45-.9-.42-1.79-.79-2.69-1.17.84-1.93,1.68-3.86,2.53-5.79,4.03-9.19,8.2-18.31,12.51-27.38l2.15.37,10.77,1.9,1.8.32,14.39,2.54h.04Z"/>
        <path class="cls-11" d="M596.01,824.92c-.94,8.46-14.05,4.48-18.92,4.48-8.59-.04-17,2.72-24.92,5.83-11.31,4.46-22.75,9.85-34.88,9.61-1.98-.04-3.91-.22-5.85-.52.46-.26.89-.52,1.3-.76,8.59-5.05,13.42-14.92,14.83-24.77,1.44-9.87-.09-19.88-1.54-29.73-19.7-135.01-24.49-272.19-14.2-408.24.24,6.55.5,13.09.8,19.64,1.22,27.17,3.02,54.29,5.22,81.41,3.81,46.72,8.83,93.33,14.37,139.88,5.28,44.33,8.81,89.33,23.01,131.96,7.87,23.6,19.55,46.31,36.92,64.08,1.96,2,4.15,4.35,3.85,7.13Z"/>
        <path class="cls-11" d="M412.57,242.12c-72.64-13.47-146.88-19.51-221.15-18.2l-.04-1c74.17-5.25,149.06-3.18,223.2,6.55l-2,12.65h0Z"/>
        <path class="cls-11" d="M500.09,691.04c-.53,0-.97-.42-1-.95-.33-6.8-.55-13.77-.77-20.52-.44-13.54-.89-27.54-2.22-40.86-11.68-118.03-9.81-213.34,5.89-299.93.1-.54.62-.91,1.16-.81.54.1.9.62.81,1.16-15.67,86.41-17.53,181.54-5.87,299.38,1.34,13.39,1.79,27.42,2.23,41,.22,6.74.44,13.7.77,20.48.03.55-.4,1.02-.95,1.05-.02,0-.03,0-.05,0Z"/>
        <path class="cls-11" d="M486.95,838.07s-.08-.02-.12-.03c-.61-.14-1.23-.26-1.84-.38,11.11-41.65,15.95-86.78,14.41-134.46-.01-.55.42-1.02.97-1.03h.03c.54,0,.99.42,1,.96,1.55,47.84-3.3,93.13-14.45,134.94Z"/>
        <path class="cls-11" d="M468.13,721.16c-2.21,39.64-15.56,78.82-37.61,112.01-.7-.13-1.41-.27-2.11-.43,22.12-33.03,35.51-72.14,37.72-111.69,1.51-27.02-1.99-54.41-5.37-80.92-3.02-23.7-6.15-48.2-5.72-72.46.31-17.23,2.42-34.64,4.46-51.46,2-16.44,4.06-33.46,4.42-50.27.42-19.22-1.63-43.49-11.17-65.31l.06-4.65c11.2,23.11,13.56,49.41,13.11,70.01-.36,16.9-2.43,33.97-4.44,50.47-2.03,16.76-4.13,34.11-4.44,51.25-.43,24.11,2.69,48.54,5.7,72.17,3.4,26.59,6.9,54.08,5.39,81.28Z"/>
        <path class="cls-11" d="M464.1,820.58c-.13,0-.26-.03-.39-.08-.51-.22-.74-.8-.53-1.31,21.52-50.38,29.48-105.77,23.02-160.17-1.74-14.69-4.57-29.48-7.3-43.79-2.16-11.32-4.4-23.02-6.09-34.63-4.69-32.18-3.92-57.4,2.43-79.37.15-.53.71-.83,1.24-.68.53.15.84.71.68,1.24-6.27,21.69-7.02,46.64-2.37,78.53,1.69,11.56,3.92,23.24,6.08,34.54,2.74,14.34,5.57,29.17,7.32,43.93,6.5,54.75-1.52,110.49-23.17,161.19-.16.38-.53.61-.92.61Z"/>
        <path class="cls-11" d="M474.68,489.44c-.06.51-.49.88-.99.88-.04,0-.08,0-.12-.01-.55-.06-.94-.56-.87-1.11,3.54-29.86,6.45-68.91-2.6-106.22-3.69-15.17-9.32-29.33-16.55-41.94h0c.01-1.3.03-2.57.06-3.86,8.13,13.47,14.42,28.81,18.43,45.33,9.13,37.61,6.21,76.9,2.64,106.93Z"/>
        <path class="cls-11" d="M502.62,317.84s-.06,0-.09,0c-.55-.05-.95-.54-.9-1.09,6.61-70.88,22.51-140.67,47.27-207.42.19-.52.77-.78,1.29-.59.52.19.78.77.59,1.29-24.7,66.58-40.56,136.2-47.15,206.91-.05.52-.48.91-1,.91Z"/>
        <path class="cls-17" d="M885.31,176.77c-4.61,5.09-11.87,7.11-18.73,6.88-2.67-.09-5.3-.47-7.9-1.04-4.1-.89-8.12-2.22-12.1-3.55-.83,5.16-3.42,9.95-7.1,13.66-3.26,3.29-7.39,5.74-11.91,6.81-9.6,2.29-20.4-1.71-26.2-9.71-1.82,3.94-4.86,7.24-8.54,9.54-4.01,2.52-8.78,3.85-13.52,3.52-9.06-.63-17.41-7.28-20.04-15.97-8.34,7.13-19.87,10.39-30.71,8.68-9.37-1.49-18.09-6.67-23.97-14.11-.92-1.16-1.77-2.37-2.54-3.63-2.67,5.21-10.05,7.31-15.06,4.28-3.87-2.34-5.68-7.34-4.76-11.71h0c.27-1.3.79-2.53,1.56-3.62-5.45,4.97-13.8,6.62-20.59,3.77-2.99-1.26-5.26-3.02-6.88-5.09-4.36-5.55-4.13-13.35-.75-19.71.4-.75.84-1.47,1.32-2.17h0c2.68-3.91,6.61-7.01,11.41-8.3-1.87-2.7-2.83-5.97-2.85-9.25-.01-2.32.45-4.65,1.4-6.77l20.42,3.6,7.89,1.39,25.27,4.46,16.17,2.85,149.94,26.45c4.42,5.21,3.36,13.68-1.23,18.75Z"/>
        <path class="cls-11" d="M480.33,354.56c-.88,0-1.76-.21-2.55-.7-1.82-1.13-2.55-3.25-3.06-5.37-5.23-21.7-5.23-46.06-.02-76.64,2.18-12.77,5.01-25.39,7.74-37.59,1.92-8.58,2.64-17.76,3.32-26.64.23-2.99.47-6.08.75-9.08,2.48-26.37,3.74-53.17,3.75-79.66,0-.55.45-1,1-1h0c.55,0,1,.45,1,1-.01,26.55-1.28,53.41-3.76,79.84-.28,2.99-.52,6.07-.75,9.05-.69,8.95-1.41,18.2-3.37,26.93-2.73,12.18-5.55,24.77-7.72,37.48-5.17,30.31-5.17,54.4,0,75.83.38,1.59.9,3.35,2.17,4.14,1.39.86,3.36.23,4.5-.8,1.28-1.15,2.04-2.79,2.8-4.9,6.52-18.2,4.26-38.13,2.08-57.4-1.94-17.16-3.95-34.91.05-51.77.13-.54.67-.87,1.2-.74.54.13.87.67.74,1.2-3.92,16.52-1.94,34.09-.01,51.08,2.21,19.5,4.49,39.67-2.19,58.3-.74,2.07-1.66,4.2-3.34,5.71-1.12,1.01-2.73,1.71-4.34,1.71Z"/>
        <path class="cls-11" d="M460.38,279.12c-.06,0-.13,0-.2-.02-.54-.11-.89-.63-.79-1.18,10.3-52.06,13.19-105.27,8.59-158.14-.05-.55.36-1.04.91-1.08.54-.06,1.04.36,1.08.91,4.62,53.06,1.72,106.46-8.62,158.7-.09.48-.51.81-.98.81Z"/>
        <path class="cls-17" d="M333.44,229.84c-3.03,5.23-9.68,8.08-15.56,6.66,3.56.86-6.45,20.74-7.72,22.42-4.45,5.89-11.83,12.05-18.9,14.3-15.24,4.84-33.58-.8-43.27-13.54-7.3,9.25-18.89,14.97-30.68,15.12-7.83.1-15.64-2.25-22.21-6.51h-.01c-3.32-2.14-6.32-4.77-8.85-7.81-1.71-2.06-3.36-4.4-5.88-5.3-2.87-1.01-5.99.14-8.97.77-8.89,1.87-18.68-1.45-24.61-8.33-16.48-19.14,4.31-41.78,24.37-45.16-2.56-5.65.69-13.17,6.56-15.17,5.87-2.01,13.04,1.95,14.47,7.99,1.98-19.68,20-36.45,39.77-37.01,19.77-.55,38.7,15.17,41.78,34.71,5.06-6.06,13.48-9.01,21.24-7.76,1.32.21,2.63.54,3.89,1.01,8.68,3.18,14.9,12.14,14.83,21.4,6.89-2.53,14.25.67,18.37,6.08,3.43,4.52,4.61,10.58,1.38,16.14Z"/>
        <path class="cls-17" d="M319.12,57.93c-1.12,2.44-2.81,4.63-4.86,6.37-3.48,2.97-7.99,4.68-12.55,4.25,1.47,6.94.48,14.23-2.4,20.71-.09.24-.2.47-.31.7h0c-3.56,7.63-9.71,14.04-17.46,17.34-5.18,2.21-10.88,2.93-16.47,2.36-10.05-1.04-19.74-6.29-25.43-14.68-.71,1.02-1.45,2.02-2.21,2.99-13.45,17.15-35.45,27.35-57.24,26.3-13.1-.63-25.88-5.31-36.55-12.94-3.96-2.83-7.63-6.06-10.91-9.64-3.43-3.73-6.43-7.84-8.91-12.27-6.2,5.24-14.43,9.43-22.24,7.19-6.61-1.91-10.86-10.46-8.15-16.12-6.62,6.88-18.47,8.24-26.8,3.21-9.36-5.66-13.69-17.89-10.91-28.3.66-2.48,1.73-4.85,3.23-7.01,3.45-4.97,9.05-8.4,15.04-9.23-3.74-5.72-3.43-13.58.02-19.49.93-1.6,2.05-3.05,3.35-4.36l164.92,29.09,9.71,1.71,12.34,2.18,48.62,8.57,6.17,1.09Z"/>
        <path class="cls-17" d="M638.01,257.16c-1.12,4.3-3.31,8.03-6.34,11.2-7.66,8.01-21.72,8.69-30.11,1.45-2.4,21.7-19.22,41.06-40.36,46.46-21.13,5.4-45.18-3.52-57.68-21.41-3.45,5.15-9.86,8.15-16.02,7.5-6.16-.64-11.8-4.91-14.11-10.66-9.58,7.76-20.29,14.41-32.18,17.66-7.27,1.99-15.03,2.63-22.46,1.51-4.72-.7-9.3-2.11-13.55-4.31-10.94-5.68-19.16-17.11-19.31-29.45-9.17,5.85-23.27.64-26.45-9.75-3.18-10.39,5.6-22.61,16.47-22.89-3.06-4.73-3.15-10.99-1.11-16.23,2.04-5.25,5.98-9.58,10.45-13.01,16.95-13.04,42.67-13.11,59.69-.15,7.93-21.98,32.35-35.29,55.69-34.53,23.33.76,45.03,13.52,61.1,30.47,1.88-4.77,5.82-8.26,10.53-10.23,4.92-2.06,10.69-2.45,15.82-.91,10.04,3.01,17.48,11.83,21.51,21.51,4.4-5.5,13.29-6.67,18.97-2.49,3.73,2.74,4.88,6.59,5.17,10.96.15,2.18-.08,4.3-.85,6.36-.32.85-2.15,5.09-3.29,5.09,3.41.21,6.43,2.67,7.87,5.78,1.44,3.11,1.42,6.75.55,10.06Z"/>
        <path class="cls-3" d="M638.01,257.16c-1.12,4.3-3.31,8.03-6.34,11.2-7.66,8.01-21.72,8.69-30.11,1.45-2.4,21.7-19.22,41.06-40.36,46.46-21.13,5.4-45.18-3.52-57.68-21.41-3.45,5.15-9.86,8.15-16.02,7.5-6.16-.64-11.8-4.91-14.11-10.66-9.58,7.76-20.29,14.41-32.18,17.66-7.27,1.99-15.03,2.63-22.46,1.51,19.37-3.65,36.89-18,42.74-36.99,12.71,4.08,26.35,7.87,39.21,4.3,12.86-3.57,23.76-17.44,19.25-30.01,6.9,5.27,17.57,4.78,23.96-1.09,6.39-5.88,7.77-16.47,3.1-23.8,10.62,2.82,22.82-4.65,25.14-15.39.51-2.36.52-4.77.11-7.11,4.92-2.06,10.69-2.45,15.82-.91,10.04,3.01,17.48,11.83,21.51,21.51,4.4-5.5,13.29-6.67,18.97-2.49,3.73,2.74,4.88,6.59,5.17,10.96.15,2.18-.08,4.3-.85,6.36-.32.85-2.15,5.09-3.29,5.09,3.41.21,6.43,2.67,7.87,5.78,1.44,3.11,1.42,6.75.55,10.06Z"/>
        <path class="cls-3" d="M333.44,229.84c-3.03,5.23-9.68,8.08-15.56,6.66,3.56.86-6.45,20.74-7.72,22.42-4.45,5.89-11.83,12.05-18.9,14.3-15.24,4.84-33.58-.8-43.27-13.54-7.3,9.25-18.89,14.97-30.68,15.12-7.83.1-15.64-2.25-22.21-6.51,16.67-1.19,32.78-11.22,40.33-26.26,6.66,2.06,13.45,4.13,20.42,4.12,6.97-.01,14.28-2.43,18.59-7.91,4.31-5.48,4.54-14.32-.64-18.98,10.71,1.25,21.74-6.45,24.26-16.94,1.4-5.81.09-12.05-3.09-17.1,1.32.21,2.63.54,3.89,1.01,8.68,3.18,14.9,12.14,14.83,21.4,6.89-2.53,14.25.67,18.37,6.08,3.43,4.52,4.61,10.58,1.38,16.14Z"/>
        <path class="cls-3" d="M839.48,192.73c-3.26,3.29-7.39,5.74-11.91,6.81-9.6,2.29-20.4-1.71-26.2-9.71-1.82,3.94-4.86,7.24-8.54,9.54-4.01,2.52-8.78,3.85-13.52,3.52-9.06-.63-17.41-7.28-20.04-15.97-8.34,7.13-19.87,10.39-30.71,8.68-9.37-1.49-18.09-6.67-23.97-14.11-.92-1.16-1.77-2.37-2.54-3.63-2.67,5.21-10.05,7.31-15.06,4.28-3.87-2.34-5.68-7.34-4.76-11.71h0c.27-1.3.79-2.53,1.56-3.62-5.45,4.97-13.8,6.62-20.59,3.77-2.99-1.26-5.26-3.02-6.88-5.09-4.36-5.55-4.13-13.35-.75-19.71.4-.75.84-1.47,1.32-2.17h0c2.68-3.91,6.61-7.01,11.41-8.3-1.87-2.7-2.83-5.97-2.85-9.25-.01-2.32.45-4.65,1.4-6.77l20.42,3.6,7.89,1.39,25.27,4.46c.63.48,1.28.93,1.94,1.36,3.3,2.14,6.9,3.71,10.66,4.81,5.31,1.57,10.95,2.2,16.5,2.16-3.77.27-6.91,2.94-8.59,6.36-.85,1.71-1.33,3.6-1.36,5.49-.08,5.67,3.12,10.94,7.2,14.87,3.59,3.47,7.96,5.99,12.67,7.55,10.56,3.5,22.85,2.16,32.01-4.16.4-.28.79-.56,1.18-.86.43-.33.86-.67,1.28-1.03-.03.54-.03,1.09.01,1.63.05.82.17,1.63.37,2.43t.01.02c1.2,5.02,5.03,9.43,9.97,11.04,6.25,2.02,13.71-.66,17.25-6.19-1.54,8.09,5.39,16.01,13.4,17.91,1.51.36,3.02.55,4.55.6Z"/>
        <path class="cls-3" d="M319.12,57.93c-1.12,2.44-2.81,4.63-4.86,6.37-3.48,2.97-7.99,4.68-12.55,4.25,1.47,6.94.48,14.23-2.4,20.71-.09.24-.2.47-.31.7h0c-3.56,7.63-9.71,14.04-17.46,17.34-5.18,2.21-10.88,2.93-16.47,2.36-10.05-1.04-19.74-6.29-25.43-14.68-.71,1.02-1.45,2.02-2.21,2.99-13.45,17.15-35.45,27.35-57.24,26.3-13.1-.63-25.88-5.31-36.55-12.94,10.1-.18,20.22-2.66,28.39-8.47,4.62-3.28,8.49-7.76,11.07-12.82,2.87-5.64,4.14-12.01,3.03-18.24,1.5.61,3.04,1.17,4.58,1.65t.02.01c1.38.45,2.77.86,4.17,1.21,7.15,1.79,14.59,2.3,21.78.8,8.57-1.79,16.68-6.75,21.47-13.97.52-.79,1.01-1.61,1.45-2.45.32-.61.62-1.24.89-1.88.96-2.22,1.56-4.6,1.82-7.01.2-1.91.19-3.85-.03-5.76l9.71,1.71,12.34,2.18,48.62,8.57,6.17,1.09Z"/>
        <path class="cls-18" d="M542.14,193.85c-.08,0-.16,0-.25-.03-.54-.13-.86-.68-.73-1.21.68-2.71,1.39-5.41,2.11-8.11,0-.04.02-.08.04-.12,3.92-14.67,8.06-27.88,12.64-40.4.02-.04.03-.08.05-.12,2-5.51,4.13-10.94,6.32-16.17.4-.97.81-1.93,1.22-2.9,1.53-3.54,3.13-7.09,4.77-10.56l.06-.13c.42-.89.85-1.79,1.29-2.68.04-.09.11-.22.17-.36l.05-.1s.03-.06.05-.1h0c1.36-2.81,2.77-5.6,4.19-8.28.26-.49.86-.68,1.35-.42.49.26.67.86.42,1.35-1.41,2.66-2.8,5.42-4.15,8.21,0,0,0,.01-.01.02-.01.03-.02.06-.04.08l-.07.13c-.05.1-.1.2-.14.3-.46.92-.87,1.81-1.29,2.69l-.06.13c-1.62,3.44-3.21,6.97-4.74,10.49-.41.95-.82,1.91-1.21,2.87-2.2,5.24-4.33,10.69-6.34,16.21-.02.04-.03.09-.06.13-4.54,12.44-8.65,25.57-12.55,40.15-.01.04-.03.09-.04.13,0,0,0,0,0,0-.7,2.63-1.41,5.33-2.09,8.02-.11.45-.52.76-.97.76Z"/>
        <path class="cls-18" d="M510.18,179.27c-.1,0-.21-.02-.31-.05-.53-.17-.81-.73-.65-1.26,1.35-4.21,2.78-8.42,4.24-12.53,4.81-13.66,10.33-27.34,16.4-40.67,4.24-9.31,8.82-18.59,13.61-27.57.26-.49.86-.67,1.35-.41.49.26.67.87.41,1.35-4.77,8.95-9.33,18.19-13.55,27.46-6.05,13.27-11.54,26.9-16.34,40.51-1.45,4.09-2.87,8.29-4.22,12.48-.14.42-.53.69-.95.69Z"/>
        <path class="cls-18" d="M456.46,190.48c-.53,0-.98-.42-1-.96-1.17-30.56.32-61.43,4.41-91.73.08-.55.57-.93,1.12-.86.55.07.93.58.86,1.13-4.08,30.19-5.55,60.94-4.39,91.39.02.55-.41,1.02-.96,1.04-.01,0-.03,0-.04,0Z"/>
        <path class="cls-18" d="M505.8,174.41c-.54,0-.98-.43-1-.97-.39-14.27-.79-28.53-1.19-42.8l-1.11-40.14c-.02-.55.42-1.01.97-1.03.53-.03,1.01.42,1.03.97l1.11,40.15c.4,14.27.8,28.54,1.19,42.81.01.55-.42,1.01-.97,1.03,0,0-.02,0-.03,0Z"/>
        <path class="cls-18" d="M510.56,355.25c-.52,0-.96-.4-1-.93-1.11-16.08-.17-32.26,2.78-48.1.1-.54.61-.9,1.17-.8.54.1.9.62.8,1.17-2.92,15.68-3.85,31.69-2.75,47.6.04.55-.38,1.03-.93,1.07-.02,0-.05,0-.07,0Z"/>
      </g>
    </g>
  </g>
  <path class="cls-16" d="M986,940H2c-1.1,0-2-.9-2-2V2C0,1.41.26.85.71.47,1.17.09,1.76-.07,2.35.03l984,173.56c.96.17,1.65,1,1.65,1.97v762.44c0,1.1-.9,2-2,2ZM4,936h980V177.24L4,4.38v931.61Z"/>
</svg>