<?xml version="1.0" encoding="UTF-8"?>
<svg id="Image" xmlns="http://www.w3.org/2000/svg" xmlns:xlink="http://www.w3.org/1999/xlink" viewBox="0 0 988 940">
  <defs>
    <style>
      .cls-1 {
        fill: #c2bfaa;
      }

      .cls-2 {
        fill: #12993f;
      }

      .cls-3 {
        fill: #94ef8b;
      }

      .cls-4 {
        fill: #1cb829;
      }

      .cls-5 {
        fill: #d87625;
      }

      .cls-6 {
        fill: #d3d4bf;
      }

      .cls-7 {
        fill: #93d2ad;
      }

      .cls-8 {
        fill: #e6e9d5;
      }

      .cls-9 {
        fill: none;
      }

      .cls-10 {
        fill: #93dba1;
      }

      .cls-11 {
        fill: #aa5217;
      }

      .cls-12 {
        fill: #93e596;
      }

      .cls-13 {
        fill: #6d3108;
      }

      .cls-14 {
        fill: #333;
      }

      .cls-15 {
        fill: #34d434;
      }

      .cls-16 {
        fill: #6d3108;
      }

      .cls-17 {
        fill: #dddeca;
      }

      .cls-18 {
        fill: #086d3b;
      }

      .cls-19 {
        clip-path: url(#clippath);
      }

      .cls-20 {
        fill: #af975a;
      }
    </style>
    <clipPath id="clippath">
      <polygon class="cls-9" points="2 938 2 2 986 175.56 986 938 2 938"/>
    </clipPath>
  </defs>
  <g class="cls-19">
    <rect class="cls-8" x="-65.29" y="-46.95" width="1086.63" height="703.7"/>
    <rect class="cls-17" x="229.57" y="349.83" width="62.33" height="300.17"/>
    <rect class="cls-17" x="511.78" y="442.67" width="124.22" height="209.08"/>
    <rect class="cls-6" x="698.76" y="341.86" width="75.09" height="316.02"/>
    <rect class="cls-1" x="756.1" y="556.8" width="56.12" height="102.46"/>
    <rect class="cls-17" x="928.27" y="387.21" width="70.68" height="272.6"/>
    <path class="cls-17" d="M472.31,655.24h-74.55v-390.27h22.78c20.22,20.22,31.55,31.55,51.77,51.77v338.49Z"/>
    <rect class="cls-17" x="41.31" y="301.89" width="56.57" height="348.86"/>
    <rect class="cls-6" x="88.1" y="513.98" width="54.39" height="140.04"/>
    <path class="cls-7" d="M885.89,804.81c-39.11-3.95-78.31-7.01-117.55-9.34-67.35-3.99-134.82-5.79-202.28-5.99-92.03-.27-184.12,3.23-276.17,5.7-50.02,1.34-100.1,2.68-149.95,7.23-14.77,1.35-123.11,5.82-109.43,37.58,2.14,4.97,10.76,8.54,15.43,10.94,13.46,6.9,29.06,10.13,43.75,13.18,34.49,7.16,69.66,11.05,104.68,14.51,28.51,2.82,56.86,5.87,85.23,3.08,14.52-1.43,30.35,3.08,44.78,4.86,16.6,2.04,33.25,3.77,49.92,5.2,66.74,5.73,133.84,6.71,200.76,4.25,63.02-2.32,125.91-7.68,188.54-15.06,37.2-4.38,74.45-9.5,110.82-18.66,18.39-4.63,35.89-12.7,54.12-17.32,8.02-2.03,34.76-4.71,32.68-17.91-1.92-12.14-41.52-18.82-75.32-22.23Z"/>
    <rect class="cls-6" x="562.15" y="375.95" width="43.27" height="301.77"/>
    <rect class="cls-1" x="625.21" y="407.64" width="87.31" height="248.37"/>
    <rect class="cls-6" x="835.03" y="338.4" width="74.68" height="312.03"/>
    <rect class="cls-1" x="881.18" y="470" width="74.55" height="183.01"/>
    <rect class="cls-6" x="321.74" y="351.16" width="57.2" height="305.84"/>
    <rect class="cls-1" x="369.5" y="481.87" width="56.76" height="173.64"/>
    <rect class="cls-1" x="369.5" y="481.87" width="56.76" height="173.64"/>
    <rect class="cls-1" x="168.4" y="287.13" width="74.68" height="386.94"/>
    <rect class="cls-1" x="265.42" y="399.47" width="74.68" height="256.46"/>
    <rect class="cls-8" x="307.05" y="405.7" width="4.85" height="19.07"/>
    <rect class="cls-8" x="314.69" y="405.7" width="4.85" height="19.07"/>
    <rect class="cls-8" x="322.33" y="405.7" width="4.85" height="19.07"/>
    <rect class="cls-8" x="329.63" y="405.7" width="4.85" height="19.07"/>
    <rect class="cls-8" x="307.05" y="427.6" width="4.85" height="19.07"/>
    <rect class="cls-8" x="322.33" y="427.6" width="4.85" height="19.07"/>
    <rect class="cls-8" x="329.63" y="427.6" width="4.85" height="19.07"/>
    <rect class="cls-8" x="307.05" y="449.49" width="4.85" height="19.07"/>
    <rect class="cls-8" x="322.33" y="449.49" width="4.85" height="19.07"/>
    <rect class="cls-8" x="329.63" y="449.49" width="4.85" height="19.07"/>
    <rect class="cls-8" x="273.83" y="599.86" width="4.85" height="19.07"/>
    <rect class="cls-8" x="273.83" y="578.06" width="4.85" height="19.07"/>
    <rect class="cls-8" x="281.13" y="599.86" width="4.85" height="19.07"/>
    <rect class="cls-8" x="273.83" y="621.75" width="4.85" height="19.07"/>
    <rect class="cls-8" x="281.13" y="621.75" width="4.85" height="19.07"/>
    <rect class="cls-8" x="177.84" y="299.5" width="55.8" height="4.34"/>
    <rect class="cls-8" x="177.84" y="309.07" width="55.8" height="4.34"/>
    <rect class="cls-8" x="177.84" y="318.64" width="55.8" height="4.34"/>
    <rect class="cls-8" x="177.84" y="328.21" width="55.8" height="4.34"/>
    <rect class="cls-8" x="177.84" y="606.13" width="55.8" height="4.34"/>
    <rect class="cls-8" x="177.84" y="615.7" width="55.8" height="4.34"/>
    <rect class="cls-3" x="-68.55" y="649.99" width="1247.87" height="354.7"/>
    <path class="cls-7" d="M861.08,807.26c-36.63-3.7-73.34-6.57-110.09-8.74-63.07-3.73-126.25-5.42-189.43-5.61-86.18-.25-172.42,3.02-258.63,5.33-46.85,1.26-93.74,2.51-140.43,6.77-13.83,1.26-115.29,5.45-102.48,35.19,2.01,4.66,10.08,8,14.45,10.24,12.6,6.46,27.22,9.48,40.97,12.34,32.3,6.71,65.23,10.34,98.03,13.58,26.69,2.64,53.24,5.49,79.81,2.89,13.6-1.34,28.42,2.89,41.93,4.55,15.55,1.91,31.14,3.53,46.74,4.87,62.5,5.36,125.34,6.28,188.01,3.98,59.02-2.17,117.91-7.19,176.56-14.1,34.84-4.1,69.72-8.89,103.78-17.48,17.22-4.34,33.61-11.89,50.68-16.22,7.51-1.9,32.55-4.42,30.6-16.77-1.8-11.37-38.88-17.63-70.53-20.82Z"/>
    <g>
      <path class="cls-7" d="M988.84,659.49c-.32.11-.63.32-.97.32h-153.69c.2,0,1.42-1.79,1.65-2.03.71-.74,1.5-1.4,2.34-1.99,1.58-1.12,3.31-1.86,5.19-2.33,3.93-.97,8.2-.64,11.9,1.02.4.18.83.38,1.27.3.65-.12,1.01-.79,1.32-1.37.84-1.6,1.9-3.11,3.31-4.22,3.58-2.83,8.94-2.88,12.9-.93,2.95,1.46,5.41,3.73,7.83,5.97,3.79-6.96,11.21-11.8,19.1-12.45s16.01,2.9,20.89,9.14c3.2-7.5,10.26-13.24,18.26-14.83s16.71,1,22.55,6.7c.57-7.55,4.33-14.8,10.17-19.61,5.84-4.81,13.68-7.11,21.19-6.23"/>
      <path class="cls-7" d="M-2.94,661.94h151.04c-6.1-8.6-17.85-12.6-27.74-8.97.22-5.84-5.48-10.66-11.3-11.18-5.82-.52-11.46,2.27-16.15,5.77-2.59-8.19-9.74-14.77-18.11-16.68-8.37-1.9-17.66.94-23.54,7.21-1.86-7.36-8.08-13.44-15.48-15.11s-15.64,1.13-20.48,6.97c-5.78-5.91-15.97-6.81-22.7-2.01"/>
      <path class="cls-10" d="M15.78,606.81c5.48-1.23,10.3-5.1,12.68-10.18,6.97,3.71,14.93,5.97,22.77,5.05,7.84-.92,15.49-5.37,19.04-12.42,3.55-7.05,2.17-16.61-4.02-21.51,5.83-6.43,11.73-12.96,15.64-20.71s5.63-17.01,2.71-25.18c-2.92-8.17-11.28-14.65-19.89-13.59,3.01-7.87,4.99-16.4,3.69-24.73-1.3-8.33-6.38-16.42-14.2-19.57-7.82-3.15-18.15,0-21.48,7.74-10.29-11.87-29.67-14.48-42.74-5.76-13.07,8.72-18.1,27.62-11.09,41.68,1.08,2.16,2.44,4.49,1.86,6.84-.65,2.64-3.42,4.05-5.72,5.51-7.7,4.9-12.46,14.1-12.02,23.22s6.06,17.82,14.2,21.96c-7.74,5.18-13.19,14.35-12.19,23.6,1,9.26,9.61,17.58,18.87,16.66,5.69-.56,10.88-4.77,16.35-2.58,5.56,2.23,8.8,5.47,15.55,3.96Z"/>
      <g>
        <path class="cls-10" d="M733.19,576.29c-5.26-.07-10.29,2.26-15.54,2.63-10.39.74-20.65-7.45-22.24-17.75-1.59-10.3,5.72-21.2,15.86-23.64-16.86-10.71-27.84-30.15-28.31-50.12-.19-8.28,1.38-16.76,5.64-23.85,4.27-7.1,11.44-12.66,19.62-13.89,5.35-.8,10.79.22,16.11,1.25-2.17-5.21-4.37-10.51-4.9-16.12-.53-5.62.84-11.69,4.92-15.59,5.88-5.63,16.77-4.48,21.34,2.25,2.94-13.77,6.62-26.02,16.81-36.31,9.38-9.47,22.07-15.8,35.42-16.77,21.75-1.57,43.74,11.12,53.58,30.53.48.95.89,1.97,1.41,2.88,2.86-1.73,7.45-1.94,10.74-1.74,4.28.25,8.49,1.7,11.99,4.17,5.75,4.06,9.51,10.71,10.33,17.7s-1.24,14.22-5.36,19.92c4.88.12,9.68,2.16,13.16,5.58,8.24,8.12,7.36,23.85-3.41,29.4,4.95.09,11.62,4.35,15.96,6.72,5.69,3.1,11.06,6.85,15.56,11.53,8.21,8.53,13.36,20.68,11.16,32.32-2.2,11.64-13.07,21.75-24.87,20.83,1.17,8.15-2.34,16.16-8.61,21.3-3.03,2.48-6.36,4.22-10.26,4.87-1.31.22-10.42.78-10.75-1.14,1.96,11.44-3.33,23.8-12.96,30.28-9.63,6.48-23.07,6.72-32.93.6-3.81,6.34-9.2,11.86-15.88,15.03-6.68,3.17-14.7,3.8-21.5.89s-12.06-9.56-12.52-16.94c-15.83,6.65-40.02,5.2-48.52-12.12-.63-1.28-4.27-14.74-1.06-14.69Z"/>
        <polygon class="cls-20" points="799.58 676.7 805.5 442.61 806.5 442.61 812.42 676.7 799.58 676.7 799.58 676.7"/>
        <path class="cls-20" d="M805.16,596.11c7.82-33.39,27.6-63.56,54.7-83.89l.61.79c-26.21,21.09-44.52,51.45-50.99,84.04l-4.33-.94h0Z"/>
        <path class="cls-20" d="M803.68,560.28c-4.86-25.91-23.81-48.86-48.44-58.76,0,0,.35-.94.35-.94,26.12,8.8,46.98,31.54,53.7,58.46,0,0-5.6,1.23-5.6,1.23h0Z"/>
      </g>
      <g>
        <path class="cls-3" d="M936.28,613.47c-5.56-2.28-9.67-7.78-10.28-13.77-12.4,5.63-28.48,1.43-36.55-9.54-8.08-10.97-7.31-27.57,1.74-37.74-15.93-8.78-23.39-30.32-16.3-47.07,7.08-16.76,27.72-26.41,45.12-21.1-2.57-11.66,2.4-24.63,12.1-31.59,9.7-6.96,23.57-7.5,33.79-1.33s16.18,18.71,14.54,30.54c15.03.83,29.99,7.01,40.08,18.19,10.09,11.17,14.72,27.48,10.53,41.94s-17.74,26.12-32.78,26.67c10.34,4.48,15.39,18.28,10.4,28.39-5,10.1-19.03,14.46-28.87,8.96,3.32,1.86-15.64,10.67-18.72,10.44-3.53-.26-6.54-2.38-9.95-2.71-5.25-.52-9.54,1.89-14.85-.29Z"/>
        <polygon class="cls-20" points="949.72 669.67 952.36 503.26 953.36 503.26 956 669.67 949.72 669.67 949.72 669.67"/>
        <path class="cls-20" d="M951.42,607.26c-4.46-23.81-13.01-46.91-25.21-67.97l.86-.51c12.81,20.83,22.07,43.89,27.22,67.91l-2.87.58h0Z"/>
        <path class="cls-20" d="M951.49,573.64c1.6-12.26,7.71-23.72,16.79-31.78l.68.73c-8.5,8.32-13.8,19.7-14.73,31.34l-2.74-.29h0Z"/>
      </g>
      <polygon class="cls-20" points="28.23 542.2 32.55 672.19 22.9 672.19 27.23 542.2 28.23 542.2 28.23 542.2"/>
      <path class="cls-20" d="M26.74,626.88c-2.22-19.2-10.62-37.85-23.86-52.42l.41-.4c14.14,13.87,23.93,32.37,27.4,52.25l-3.96.58h0Z"/>
      <path class="cls-12" d="M353.44,508.34c-1.49,2.06-2.65,4.37-3.38,6.8-7.35-.7-14.92,3.4-18.37,9.92-2.21,4.19-2.63,9.23-1.4,13.78.89,3.29,2.58,7.66,4.67,10.37-5.41,2.89-9.36,8.23-10.29,14.33-.92,6.06,1.24,12.5,5.61,16.78,1.19,1.17,2.58,2.24,3.21,3.79,1.15,2.87-.75,5.95-1.55,8.93-1.55,5.78,1.36,12.15,6.12,15.77s11.03,4.78,17,4.41c5.97-.37,11.75-2.14,17.47-3.9-.98.3,1.13,5.72,1.56,6.39,1.08,1.69,2.25,2.24,4.29,2.54,4.54.68,9.59-1.43,11.95-5.45,3.93,4.99,10.81,7.46,17.01,6.11,7.8-1.69,15.99-10.93,12.95-19.26,8.45-2.84,16.54-7.38,22.24-14.23,5.71-6.85,8.76-16.23,6.74-24.92-2.02-8.69-9.7-16.14-18.61-16.59,5.63-5.14,7.33-13.94,4.55-21.04-2.78-7.11-9.61-12.3-17.1-13.7-7.5-1.4-15.46.81-21.59,5.35,2.76-2.05-10.82-11.14-12.17-12-2.05-1.32-4.62-3.32-7.11-3.68-5.71-.81-12.5.39-17.41,3.46-2.5,1.56-4.68,3.62-6.41,6.01Z"/>
      <polygon class="cls-20" points="384.25 663.77 387.4 581.59 388.4 581.59 391.56 663.77 384.25 663.77 384.25 663.77"/>
      <g>
        <path class="cls-3" d="M682.34,610.98c15.79,4.03,33.65-1.64,44.22-14.05,3.97-4.66,7-10.33,7.48-16.44.48-6.1-1.94-12.61-6.98-16.08,12.57-2.09,21.74-16.12,18.62-28.47-3.12-12.35-17.85-20.34-29.9-16.21,6.24-17.44-2.95-38.93-19.86-46.47s-39.03-.01-47.83,16.29c-6.86-11.68-20.06-19.35-33.6-19.53-13.54-.18-26.94,7.13-34.11,18.62-7.17,11.49-7.86,26.74-1.75,38.83-11.68,4.79-22.24,13.1-27.91,24.37-5.68,11.27-5.83,25.63,1.22,36.1s21.71,15.71,33.2,10.51c-7.81,2.4-12.36,11.76-10.27,19.66,2.1,7.9,9.92,13.61,18.07,14.15,8.15.55,16.23-3.61,21.38-9.95-2.58,3.18-3.7,6.11-2.47,10.27.98,3.31,3.83,7.46,7.23,8.56,8.41,2.72,18.97-2.01,23.86-8.94,4.51,3,10.08,4.37,15.47,3.82,12.18-1.26,22.97-12.92,23.95-25.03Z"/>
        <polygon class="cls-20" points="635 676.77 639.36 537.91 640.36 537.91 644.73 676.77 635 676.77 635 676.77"/>
        <path class="cls-20" d="M637.81,633.06c-7.68-19.69-18.12-38.44-30.99-55.51l.77-.63c14.27,16.04,26.42,34.13,35.93,53.64l-5.71,2.51h0Z"/>
        <path class="cls-20" d="M638.78,602.19c5.87-13.51,14.77-25.59,25.79-35.13l.67.74c-10.45,9.94-18.58,22.2-23.64,35.54l-2.82-1.15h0Z"/>
      </g>
      <path class="cls-3" d="M211.16,590.78c1.28-.33,2.55-.72,3.8-1.16,16.31-5.81,28.34-21.16,30.21-38.56-.16,1.45,13.43-1.72,14.5-2.22,4.93-2.28,9.36-6.13,11.86-10.97,3.84-7.41,3.31-16.79-.52-24.54-1.89-3.83-5.11-5.86-2.04-9.42,2.16-2.5,8.34-2.91,11.39-4.09,15.66-6.08,28.35-19.05,33.55-35.11,6.53-20.17.95-44.4-14-60.84-14.95-16.44-38.66-24.41-59.54-20.03,2.7-.57,1.16-12.25.71-14.09-1.28-5.3-4.18-10.39-8.29-14.13-6.67-6.08-21.78-6.83-23.68,3.81.08-26.23-19.53-51.79-44.4-60.79-13.5-4.89-22.97-6.43-35.19.93-5.72,3.45-10.76,7.98-14.76,13.31-.87,1.15-8.9,15.45-7.94,15.71-17.87-5.01-37.51-1.17-51.31,10.03-13.79,11.2-21.4,29.49-19.86,47.77-14.01-1.41-28.18,2.72-38.75,11.29-11.07,8.97-21.17,24.57-15.84,39.27,5.35,14.73,14.56,28.38,29.79,34.38-11.02,2.91-17.94,15.53-14.7,26.79,3.24,11.27,16.1,19.28,27.3,17.02-10.77,15.98-15.68,38.52-4.49,55.5,8.81,13.37,25.63,19.88,41.23,19.87,15.59-.01,30.29-5.53,44.36-11.48-4.1,1.73,2.71,20.18,5.93,22.77,7.71,6.2,22.78,4.81,30.91,1.97,11.1-3.88,19.99-12.99,23.6-24.18,12.71,10.92,30.66,15.15,46.17,11.16Z"/>
      <polygon class="cls-20" points="124.43 699.42 134.94 395.07 135.94 395.07 146.44 699.42 124.43 699.42 124.43 699.42"/>
      <path class="cls-20" d="M129.57,592.02c12.12-43.59,39.68-81.96,75.98-107.01l.6.8c-34.26,27.41-58.03,66.73-66.51,108.64l-10.07-2.43h0Z"/>
      <path class="cls-20" d="M132.77,549.12c-13.48-33.97-37.39-58.48-63.71-82.89,0,0,.67-.74.67-.74,20.22,17.36,40.58,35.22,55.25,57.76,4.95,7.49,9.34,15.37,13.13,23.54,0,0-5.34,2.33-5.34,2.33h0Z"/>
      <path class="cls-20" d="M132.46,488.3c6.63-14.7,16.56-27.72,28.72-37.86l.67.74c-11.2,10.97-19.77,24.42-24.95,38.92l-4.44-1.79h0Z"/>
    </g>
    <path class="cls-10" d="M578.79,945.59c6.46-16.49,25.43-27.03,42.84-23.8,0-19.97,21.65-36.84,41.01-31.93,2.22-22.44,17.01-43.21,37.48-52.64s45.87-7.17,64.35,5.73c.21-9.26,6.25-18.14,14.78-21.73s19.1-1.72,25.87,4.6c-1.03-25.88,20.34-48.93,45.21-56.14,24.87-7.21,51.87-1.31,75.48,9.32,6.5-14.49,21.44-23.79,36.89-27.49,15.45-3.69,31.59-2.6,47.43-1.49-2.89,68.06-.11,136.36,8.31,203.95"/>
    <path class="cls-10" d="M418.33,950.28c3.22-9.46.61-20.65-6.46-27.71-7.07-7.06-18.25-9.67-27.71-6.44-1.15-15.86-10.96-30.83-25.05-38.21-14.21-7.45-31.64-6.75-45.53,1.04,1.47-5.91,3.62-8.07.33-14.09-2.79-5.1-7.36-9.31-12.66-11.68-8.01-3.57-17.75-2.94-25.23,1.64.33-28.25-21.26-54.22-48.2-62.72-26.94-8.5-57.4-1.05-80.08,15.79-.93-10.83-9.52-20.55-20.14-22.81s-22.43,3.13-27.68,12.64c-2.19-16.66-12.96-31.95-27.91-39.61-16.89-8.66-40.65-7.06-56.4,3.6-2.92-8.96-6.14-18.37-13.26-24.55s-19.44-7.38-25.24.04c-2.53,3.24-3.39,7.44-4.15,11.48-13.39,71.22-18.55,143.98-15.35,216.38"/>
    <path class="cls-7" d="M535.4,943.41c4.59-12.91,9.86-24.31,24.01-28.5,6.53-1.94,13.47-2.07,20.25-1.48,1.72.15,3.62.3,5.03-.72,1.28-.92,1.78-2.55,2.29-4.04,3.16-9.27,9.61-17.39,17.94-22.55,21.77-13.5,54.36-5.41,70.34,13.52,9.89-17.83,30.26-29.29,50.63-28.5,20.37.79,39.79,13.79,48.28,32.33,7.31-9.71,21.3-13.74,32.65-9.41,11.35,4.33,19.1,16.66,18.08,28.78,11.66-3.64,24.98-1.49,34.9,5.64,9.92,7.13,16.2,19.08,16.46,31.29"/>
    <path class="cls-7" d="M1004.07,811.64c-13.59-10.22-32.49-12.93-48.4-6.95-15.92,5.98-28.35,20.47-31.85,37.11-12.75-12.07-32.71-15.84-48.97-9.24-16.27,6.6-27.97,23.2-28.71,40.75-7.72-.5-15.55-1-23.11.64s-14.93,5.73-18.78,12.44-3.2,16.22,2.73,21.19c-7.96-.27-15.45,4.61-20.07,11.1s-6.78,14.4-8.19,22.24c-.72,4.01-.92,8.93,2.4,11.28,1.77,1.26,4.08,1.38,6.25,1.45,72.23,2.51,144.45,5.02,216.68,7.53"/>
    <path class="cls-7" d="M326.81,944.4c1.49-10.74-3.85-22.13-13.06-27.86-9.21-5.72-21.79-5.46-30.75.64,2.24-8.13-2.91-17.1-10.45-20.86-7.55-3.75-16.74-2.96-24.5.33-7.76,3.29-14.33,8.83-20.51,14.57,1.33-17.38-10.12-34.96-26.55-40.76-16.44-5.8-36.38.69-46.25,15.06-1.83-12.02-16.24-18.64-28.21-16.52s-21.81,10.32-31.05,18.22c-1.61-13.25-4.57-26.57-11.17-38.17s-17.23-21.38-30.16-24.64c-12.94-3.26-28.07,1.05-35.61,12.06-.28-17.39-12.5-33.94-29.02-39.35-7.78,49.33-9.97,99.53-6.52,149.35"/>
    <rect class="cls-8" x="845.03" y="348.33" width="7.67" height="8.6"/>
    <rect class="cls-8" x="854.44" y="348.33" width="7.67" height="8.6"/>
    <rect class="cls-8" x="863.7" y="348.33" width="7.67" height="8.6"/>
    <rect class="cls-8" x="872.97" y="348.33" width="7.67" height="8.6"/>
    <rect class="cls-8" x="882.23" y="348.33" width="7.67" height="8.6"/>
    <rect class="cls-8" x="845.03" y="358.76" width="7.67" height="8.6"/>
    <rect class="cls-8" x="854.44" y="358.76" width="7.67" height="8.6"/>
    <rect class="cls-8" x="863.7" y="358.76" width="7.67" height="8.6"/>
    <rect class="cls-8" x="872.97" y="358.76" width="7.67" height="8.6"/>
    <rect class="cls-8" x="845.03" y="369.2" width="7.67" height="8.6"/>
    <rect class="cls-8" x="854.44" y="369.2" width="7.67" height="8.6"/>
    <rect class="cls-8" x="863.7" y="369.2" width="7.67" height="8.6"/>
    <rect class="cls-8" x="366.99" y="358.02" width="4.58" height="6.66"/>
    <rect class="cls-8" x="360.9" y="358.02" width="4.58" height="6.66"/>
    <rect class="cls-8" x="354.91" y="358.02" width="4.58" height="6.66"/>
    <rect class="cls-8" x="348.91" y="358.02" width="4.58" height="6.66"/>
    <rect class="cls-8" x="342.91" y="358.02" width="4.58" height="6.66"/>
    <rect class="cls-8" x="366.99" y="366.08" width="4.58" height="6.66"/>
    <rect class="cls-8" x="282.28" y="354.53" width="4.58" height="6.66"/>
    <rect class="cls-8" x="276.19" y="354.53" width="4.58" height="6.66"/>
    <rect class="cls-8" x="282.28" y="362.59" width="4.58" height="6.66"/>
    <rect class="cls-8" x="46.37" y="306.41" width="4.58" height="6.66" transform="translate(97.33 619.49) rotate(180)"/>
    <rect class="cls-8" x="52.46" y="306.41" width="4.58" height="6.66" transform="translate(109.5 619.49) rotate(180)"/>
    <rect class="cls-8" x="46.37" y="314.48" width="4.58" height="6.66" transform="translate(97.33 635.62) rotate(180)"/>
    <rect class="cls-8" x="360.9" y="366.08" width="4.58" height="6.66"/>
    <rect class="cls-8" x="354.91" y="366.08" width="4.58" height="6.66"/>
    <rect class="cls-8" x="348.91" y="366.08" width="4.58" height="6.66"/>
    <rect class="cls-8" x="342.91" y="366.08" width="4.58" height="6.66"/>
    <rect class="cls-8" x="366.99" y="374.14" width="4.58" height="6.66"/>
    <rect class="cls-8" x="360.9" y="374.14" width="4.58" height="6.66"/>
    <rect class="cls-8" x="354.91" y="374.14" width="4.58" height="6.66"/>
    <rect class="cls-8" x="634.63" y="417.35" width="6.4" height="9.31"/>
    <rect class="cls-8" x="643.08" y="417.35" width="6.4" height="9.31"/>
    <rect class="cls-8" x="651.66" y="417.35" width="6.4" height="9.31"/>
    <rect class="cls-8" x="660.23" y="417.35" width="6.4" height="9.31"/>
    <rect class="cls-8" x="668.81" y="417.35" width="6.4" height="9.31"/>
    <rect class="cls-8" x="677.39" y="417.35" width="6.4" height="9.31"/>
    <rect class="cls-8" x="634.63" y="428.51" width="6.4" height="9.31"/>
    <rect class="cls-8" x="643.08" y="428.51" width="6.4" height="9.31"/>
    <rect class="cls-8" x="651.66" y="428.51" width="6.4" height="9.31"/>
    <rect class="cls-8" x="660.23" y="428.51" width="6.4" height="9.31"/>
    <rect class="cls-8" x="668.81" y="428.51" width="6.4" height="9.31"/>
    <rect class="cls-8" x="634.63" y="439.68" width="6.4" height="9.31"/>
    <rect class="cls-8" x="643.08" y="439.68" width="6.4" height="9.31"/>
    <rect class="cls-8" x="651.66" y="439.68" width="6.4" height="9.31"/>
    <rect class="cls-8" x="937.54" y="395.49" width="32.27" height="6.93"/>
    <rect class="cls-8" x="937.54" y="407.21" width="32.27" height="6.93"/>
    <rect class="cls-8" x="937.54" y="418.47" width="32.27" height="6.93"/>
    <rect class="cls-8" x="450.75" y="326.2" width="8.87" height="8.87"/>
    <rect class="cls-8" x="436.27" y="326.2" width="8.87" height="8.87"/>
    <rect class="cls-8" x="450.75" y="339.42" width="8.87" height="8.87"/>
    <rect class="cls-8" x="404.15" y="383.5" width="5.26" height="8.87"/>
    <rect class="cls-8" x="404.15" y="372.65" width="5.26" height="8.87"/>
    <rect class="cls-8" x="404.15" y="394.96" width="5.26" height="8.87"/>
    <rect class="cls-8" x="412.1" y="383.5" width="5.26" height="8.87"/>
    <rect class="cls-8" x="412.1" y="394.96" width="5.26" height="8.87"/>
    <rect class="cls-8" x="404.15" y="454.52" width="5.26" height="8.87"/>
    <rect class="cls-8" x="404.15" y="465.99" width="5.26" height="8.87"/>
    <rect class="cls-8" x="412.1" y="454.52" width="5.26" height="8.87"/>
    <rect class="cls-8" x="412.1" y="465.99" width="5.26" height="8.87"/>
    <rect class="cls-1" x="633.21" y="397.95" width="71.3" height="9.6"/>
    <rect class="cls-6" x="844.27" y="323.79" width="56.21" height="15.86"/>
    <rect class="cls-8" x="709.12" y="352.14" width="5.52" height="13.68"/>
    <rect class="cls-8" x="717.82" y="352.14" width="5.52" height="13.68"/>
    <rect class="cls-8" x="726.51" y="352.14" width="5.52" height="13.68"/>
    <rect class="cls-8" x="568.01" y="383.26" width="3.48" height="13.68"/>
    <rect class="cls-8" x="573.5" y="383.26" width="3.48" height="13.68"/>
    <rect class="cls-8" x="578.98" y="383.26" width="3.48" height="13.68"/>
    <rect class="cls-8" x="584.21" y="383.26" width="3.48" height="13.68"/>
    <rect class="cls-8" x="568.01" y="398.71" width="3.48" height="13.68"/>
    <rect class="cls-8" x="573.5" y="398.71" width="3.48" height="13.68"/>
    <rect class="cls-8" x="578.98" y="398.71" width="3.48" height="13.68"/>
    <rect class="cls-8" x="584.21" y="398.71" width="3.48" height="13.68"/>
    <rect class="cls-8" x="568.01" y="414.3" width="3.48" height="13.68"/>
    <rect class="cls-8" x="573.5" y="414.3" width="3.48" height="13.68"/>
    <rect class="cls-8" x="578.98" y="414.3" width="3.48" height="13.68"/>
    <rect class="cls-8" x="584.21" y="414.3" width="3.48" height="13.68"/>
    <rect class="cls-8" x="568.01" y="429.89" width="3.48" height="13.68"/>
    <rect class="cls-8" x="573.5" y="429.89" width="3.48" height="13.68"/>
    <rect class="cls-8" x="578.98" y="429.89" width="3.48" height="13.68"/>
    <rect class="cls-8" x="584.21" y="429.89" width="3.48" height="13.68"/>
    <rect class="cls-8" x="568.01" y="445.48" width="3.48" height="13.68"/>
    <rect class="cls-8" x="573.5" y="445.48" width="3.48" height="13.68"/>
    <rect class="cls-8" x="578.98" y="445.48" width="3.48" height="13.68"/>
    <rect class="cls-8" x="584.21" y="445.48" width="3.48" height="13.68"/>
    <rect class="cls-8" x="709.12" y="369.13" width="5.52" height="13.68"/>
    <rect class="cls-8" x="717.82" y="369.13" width="5.52" height="13.68"/>
    <rect class="cls-8" x="726.51" y="369.13" width="5.52" height="13.68"/>
    <g>
      <path class="cls-13" d="M955.96,173.03c-1.95,1.47-4,2.8-6.11,3.96-7.92,4.36-17.4,6.92-28.17,7.58-8.94.58-16.94-.39-23.77-2.88-2.91-1.06-5.24-2.52-7.5-3.94-.92-.58-1.79-1.13-2.71-1.65-1-.57-2.02-1.1-3.05-1.64-1.33-.7-2.69-1.41-4.05-2.21-4.23,3.2-9.68,4.92-15.42,4.79-5.19-.12-10.08-1.75-13.97-4.57-8.67,10.44-22.22,16.82-35.78,16.82-1.42,0-2.83-.07-4.24-.21-14.8-1.46-28.62-10.84-35.77-23.88-10.28,6.54-21.91,8.78-31.88,5.97-11.84-3.34-20.32-14.48-20.45-25.56-4.18-.13-8.41-1.61-12.19-4.3-6.2,5.73-14.2,9.36-22.35,10.13-1.28,3.06-3.1,5.9-5.42,8.34-5.36,5.63-13,8.71-20.68,8.71-1.15,0-2.3-.07-3.45-.21.26,23.48-12.37,46.55-32.58,58.68-20.56,12.35-47.43,12.45-68.18.59-8.08,12.81-21.15,22.1-35.76,25.74.21,8.67.44,16.34.69,23.41.09,2.69.19,5.42.3,8.18.01.22.01.43.03.65.07,1.78.14,3.57.21,5.38.02.48.04.97.06,1.45.04.73.07,1.47.1,2.21.03.68.06,1.35.09,2.02.06,1.36.13,2.73.19,4.1.35,7.83.74,15.72,1.17,23.72.91,16.64,2.02,33.76,3.33,51.61.27,3.61.54,7.26.83,10.94.33,4.36.68,8.78,1.04,13.24.41,5.05.84,10.13,1.28,15.26.21,2.49.43,4.99.65,7.51.9,10.17,1.86,20.54,2.88,31.14.32,3.36.66,6.74.99,10.15.01.03.01.05.01.08.34,3.41.68,6.85,1.03,10.31.89,8.76,1.83,17.69,2.81,26.85.39,3.63.79,7.29,1.19,10.98.21,1.88.42,3.77.63,5.67.41,3.74.83,7.51,1.26,11.32.65,5.76,1.32,11.61,2.01,17.56.91,7.9,1.86,15.96,2.84,24.22.23,1.95.46,3.91.69,5.88v.03c.2,1.63.38,3.26.57,4.89.07.59.14,1.18.2,1.77.2,1.7.39,3.39.58,5.07.22,1.95.44,3.9.66,5.82,1.78,15.73,3.59,31.66,5.79,47.58.6,4.32,1.22,8.63,1.88,12.93,1.11,7.23,2.32,14.45,3.68,21.66.81,4.29,1.66,8.57,2.57,12.84.31,1.44.63,2.88.95,4.32.64,2.84,1.3,5.67,1.98,8.49,1.04,4.26,2.15,8.5,3.33,12.72,1.44,5.15,2.98,10.28,4.66,15.36.14.45.29.9.44,1.35,1,2.99,2.03,5.93,3.1,8.81,2.15,5.76,4.44,11.3,6.87,16.63.41.89.82,1.78,1.23,2.65,3.57,7.55,7.44,14.65,11.59,21.29,1.64,2.61,3.32,5.14,5.04,7.61,1.02,1.45,2.05,2.88,3.1,4.28,4.2,5.62,8.64,10.83,13.33,15.63.08.07.16.15.23.23.76.79,1.63,1.68,2.44,2.7.16.2.32.4.48.61.16.21.32.43.46.66.84,1.21,1.55,2.56,1.94,4.06v.02c.04.14.08.28.1.42.23,1.02.31,2.11.18,3.26-.17,1.54-.59,2.94-1.25,4.17-.49.93-1.11,1.76-1.86,2.49-.25.25-.51.48-.79.7-.17.14-.35.27-.54.39-.18.12-.36.24-.55.36-.38.23-.76.43-1.16.62-.2.09-.4.18-.61.26-.41.16-.82.31-1.25.44-.21.06-.43.12-.65.17-.44.11-.88.2-1.33.28-4.11.7-8.74.11-12.73-.4-1.75-.22-3.4-.43-4.41-.43h-.01c-.74-.01-1.47.01-2.2.04-3.71.15-7.39.74-11.01,1.6-1.19.29-2.38.6-3.56.94-.61.18-1.22.36-1.83.54-1.18.37-2.35.75-3.51,1.15-.01.01-.02.01-.03.01-2.33.81-4.63,1.68-6.89,2.57-1.78.7-3.56,1.43-5.36,2.14h-.01c-7.22,2.93-14.59,5.91-22.21,7.83-.64.16-1.29.31-1.93.46-.16.03-.32.07-.48.1-4.31.96-8.71,1.53-13.22,1.53-.34,0-.68,0-1.03-.01-.2,0-.39-.02-.58-.03-.9-.03-1.79-.07-2.67-.15-.22-.01-.44-.03-.66-.05-.64-.05-1.28-.12-1.91-.2-.62-.07-1.25-.16-1.88-.26-.07-.01-.15-.03-.22-.04-.03-.01-.06-.02-.09-.02-6.1-.93-12.08-2.69-17.87-4.39-3.95-1.16-8.04-2.36-12.05-3.26-.04-.01-.09-.01-.14-.03-.01,0-.02,0-.03-.01h-.01s-.01,0-.03-.01c-.65-.15-1.32-.28-1.97-.4l-.12-.03c-10.93-2.16-22.37-2.49-33.43-2.8-5.36-.16-10.9-.32-16.35-.68-6.61-.46-11.96-1.09-16.85-2.01-.91-.16-1.84-.35-2.75-.56-2.41-.51-4.61-1.08-6.72-1.72-.2-.06-.57-.16-1.02-.28-8.12-2.16-12.17-3.77-13.21-7.14-1.52-4.7,2.96-8.88,5.63-11.37.31-.29.59-.55.82-.77,19.96-19.61,29.88-42.74,33.2-77.35,5.58-58.45,7.59-117.93,5.99-176.76-.95-35.05-.31-69.7.31-103.22.32-17.28.64-35.16.76-53.04.23-33.56.54-67.57.93-101.12v-.07l.07-5.69c.23-19.12.44-36.62.69-53.46-12.59,6.07-27.02,8.39-40.76,6.07-21.2-3.56-40.35-18.08-49.71-37.43-11.42,2.67-23.88.14-33.29-6.92-1.89-1.42-3.64-3.01-5.24-4.74-4.18,1.01-8.35,1.51-12.41,1.51-7.4,0-14.46-1.66-20.61-4.93-5.09-2.7-9.53-6.62-12.86-11.35-1.7-2.41-3.06-4.98-4.06-7.63-.34-.88-.55-1.81-.75-2.71-.13-.58-.33-1.49-.53-1.98-1.29.17-4.12,1.87-5.39,2.64-1.25.75-2.44,1.46-3.53,1.92-6.09,2.59-12.15,4.13-18.02,4.6-12.38.97-24.4-3.09-32.2-10.87-5.87-5.86-9.11-13.74-9.28-21.49-.39-.39-.77-.79-1.14-1.19-10.63,11.29-25.72,18.02-41.27,18.22h-.66c-.61,0-1.23-.01-1.84-.04-4.8-.15-9.61-.95-14.29-2.34-1.29-.37-2.57-.79-3.84-1.28-.69-.24-1.39-.51-2.07-.81-.59-.24-1.18-.49-1.76-.76-1.97-.88-3.88-1.87-5.74-2.98-.46-.27-.91-.54-1.35-.83-.15-.09-.3-.18-.44-.27-.06-.04-.12-.07-.17-.1-4.87-3.13-9.19-6.95-12.85-11.34-.3-.37-.6-.74-.91-1.12-1.73-2.12-3.37-4.13-5.28-4.81-2.01-.71-4.7-.06-7.54.63-.8.19-1.59.39-2.38.55-13.49,2.84-28.02-2.08-37.04-12.53-6.71-7.79-9.91-18.03-8.77-28.1,1.05-9.21,5.67-17.25,13.01-22.65,5.21-3.83,11.6-6.12,18.07-6.54-.05-1.07-.04-2.15.03-3.22-10.33-1.68-19.58-7.19-25.3-15.21-7.56,2.39-15.99,1.91-23.18-1.43-10.4-4.84-17.05-14.79-18.47-27.26-2.24.91-4.45,1.7-6.59,2.37-1.21.38-2.53.16-3.56-.6-1.02-.75-1.63-1.95-1.63-3.22V2C-2,.82-1.48-.3-.57-1.06c.91-.77,2.1-1.09,3.27-.88l4.91.87h.01l124.6,21.98s.05.01.07.01l39.39,6.95,54.96,9.69h.01l12.45,2.2,13.66,2.41,8.34,1.47,5.57.98,7.99,1.41,100.85,17.79s.05.01.07.01l16.03,2.83,59.61,10.51,14.35,2.53,2.42.43,20.14,3.55,6.35,1.12,28.29,4.99,2.41.42,5.28.93,11.5,2.03,23.77,4.19,37.87,6.67c.05,0,.1.02.15.03l14.09,2.49,57.18,10.08,30.02,5.29s.03.01.05.01l8.93,1.58c.25-.17.52-.32.81-.43,1.01-.41,2.14-.38,3.13.07,2.36,1.07,4.86,1.86,7.42,2.36l1.58.28,227.29,40.09c1.56.28,2.82,1.46,3.19,3.01.37,1.54-.21,3.16-1.48,4.12Z"/>
      <path class="cls-2" d="M680.23,157.04c-6.37,6.69-16.77,9.21-25.5,6.19,2.3,23.64-10.01,48.1-30.37,60.32-20.36,12.23-47.74,11.6-67.52-1.54-9.06,17.12-27.83,28.65-47.19,28.98-19.36.32-38.51-10.56-48.14-27.36-14.23,15.97-36.91,23.96-58.01,20.4-21.1-3.55-39.92-18.51-48.14-38.27-11.03,3.7-23.82,1.64-33.12-5.34-9.3-6.98-14.86-18.68-14.39-30.31l4.35-17.35c7.87-12.46,17.62-26.18,32.25-28.01,10.8-1.35,21.07,4.31,31.56,7.22,20.13,5.59,42.18.79,60.24-9.71,17.01-9.9,31.29-24.73,49.83-31.31,2.54-.9,5.11-1.64,7.71-2.21l71.25,12.56,37.87,6.67c27.42,7.76,54.84,15.52,82.26,23.29,3.45,8.57,1.43,19.07-4.94,25.77Z"/>
      <path class="cls-18" d="M357.2,143.5c-6.17,16.83-1.56,37.1,11.29,49.6,12.85,12.5,33.23,16.55,49.88,9.91,13.22,18.98,35.53,31.3,58.63,32.37,23.1,1.07,46.46-9.13,61.37-26.8,19.25,7.89,42.62,4.67,59.03-8.12,16.41-12.79,25.23-34.67,22.29-55.27-15.24,12.65-37.75,12.31-56.54,6.06-18.79-6.25-35.5-17.49-53.74-25.22-40.87-17.33-89.31-15.78-128.98,4.14"/>
      <path class="cls-16" d="M446.2,230.77h-.03c-.55-.02-.99-.47-.97-1.03l1.3-48.14c.02-.55.48-.99,1.03-.97.55.02.99.47.97,1.03l-1.3,48.14c-.01.54-.46.97-1,.97Z"/>
      <path class="cls-2" d="M704.39,125.89l11.44,2.02c-1.33,2.91-3.1,5.6-5.22,8-6.29,7.11-15.57,11.63-25.09,11.7-7.51.06-14.91-2.66-20.84-7.27-4.43-3.43-8.03-7.92-10.24-13.08-10.13,3.04-21.75.52-29.71-6.45-3.55-3.1-5.91-6.55-7.48-10.29l57.08,10.07,30.06,5.3Z"/>
      <path class="cls-2" d="M391.81,165.26c-8.17,7.86-20.1,11.87-31.33,9.96-2.94-.5-5.92-1.37-8.87-.88-3.67.61-6.63,3.21-9.51,5.56-8.2,6.7-17.49,12.3-27.75,14.92-10.25,2.62-21.55,2.07-30.9-2.89-4.53-2.41-8.5-5.92-11.46-10.12-1.47-2.09-2.69-4.35-3.59-6.74-.71-1.86-.81-4.84-2.25-6.3-3.25-3.28-9.93,2.49-13.25,3.9-5.33,2.26-10.99,3.83-16.78,4.29-10.5.83-21.59-2.26-29.05-9.71-7.45-7.44-10.51-19.49-6.05-29.05-10.52,2.72-21.8.81-31.32-4.27-1.4-.75-2.77-1.57-4.09-2.45-5.9-3.96-23.97-20.15-13.95-27.09-9.54-13.28-5.52-32.81,5.93-43.62,11.68-11.04,29.35-14.09,45.11-10.9,15.77,3.2,29.91,11.89,42.56,21.83-.07-8.98,2.48-17.8,6.95-25.57l8.2,1.45,5.51.97,8.04,1.42,100.93,17.8,16.02,2.83c3.43,14.1,1.04,30.13-3.79,43.52,9.97-2.04,19.47,7.59,20.46,17.72,1.23,12.57-7.1,25.06-15.77,33.41Z"/>
      <path class="cls-18" d="M265.92,48.55c-4.22,7.18-10.17,13.4-17.21,17.86-14.47,9.13-32.96,11.04-49.43,6.39-6.63-1.86-13.13-4.85-17.94-9.79-2.02-2.09-3.71-4.57-4.86-7.24-1.6-3.67-2.23-7.71-1.43-11.61-17.79,15.56-41.88,25.48-65.16,21.39-4.51-.79-8.93-2.2-13.12-4.14-17.43-8.05-30.88-25.16-30.49-44.22-11.87,5.61-25.39,9.43-38.09,6.13C18.21,20.74,9.28,12.55,6.92,2.87l164.07,28.94,94.93,16.74Z"/>
      <path class="cls-2" d="M170.99,31.81c-.44.47-.9.93-1.37,1.37-1.61,1.5-3.55,2.22-5.26,3.54-2.12,1.64-3.89,3.59-6.15,5.08-8.49,5.59-19.54,7.42-29.27,4.28-2.3-.74-4.73-1.74-7.03-1.04-1.74.53-3.05,1.92-4.33,3.21-5.83,5.86-13.01,10.55-20.81,13.15-3.96,1.32-8.08,2.1-12.28,2.21-12.45.34-25.3-5.79-31.44-16.63-7.26,3.24-15.91,3.18-23.11-.17-11.61-5.39-16.69-17.34-16.44-29.63-3.7,1.75-7.56,3.32-11.5,4.55V2l4.92.87,164.07,28.94Z"/>
      <path class="cls-4" d="M953.55,169.84c-1.79,1.35-3.67,2.57-5.62,3.64-8.08,4.45-17.3,6.53-26.5,7.1-7.43.48-15.11-.08-22.15-2.65-3.6-1.31-6.34-3.44-9.59-5.3-3.16-1.8-6.45-3.22-9.46-5.39-7.69,8.02-22.31,7.68-29.61-.68-8.35,12.62-23.97,20.05-39.03,18.54-15.06-1.49-28.91-11.86-34.6-25.89-9.12,7.08-21.26,11.23-32.37,8.11-11.12-3.14-19.89-15.07-16.99-26.24-6.12,1.7-12.42-.77-17.02-5.18-2.9-2.76-5.13-6.29-6.22-10.02l11.44,2.02c.17-.36.33-.73.48-1.1,2.65,1.2,5.44,2.09,8.3,2.65l1.48.26.1.02,227.36,40.1Z"/>
      <path class="cls-5" d="M622.19,820.46c-1.14,10.35-17.2,5.48-23.16,5.48-10.51-.06-20.81,3.32-30.5,7.12-13.83,5.46-27.83,12.07-42.69,11.78-2.43-.06-4.79-.27-7.16-.65-10.14-1.51-19.92-5.41-29.98-7.65-.05-.01-.1-.03-.15-.04-.74-.17-1.5-.32-2.25-.46-16.54-3.28-33.54-2.44-50.29-3.55-5.49-.38-10.97-.94-16.38-1.95-.86-.16-1.73-.33-2.58-.52-2.17-.47-4.32-1.01-6.45-1.66-2-.58-10.92-2.64-11.58-4.77-.88-2.72,3.69-6.39,5.44-8.12,23.11-22.71,31.36-48.37,34.37-79.81,5.62-58.88,7.62-118.13,6.01-177.25-1.43-52.88.73-103.28,1.07-156.13.23-33.73.54-67.45.93-101.16.02-1.9.05-3.79.07-5.69.21-18.07.44-36.14.7-54.21.06-4.34.12-8.68.21-13.02v-.02c.01-1.57.03-3.13.07-4.71h0c.1-7.53.22-15.04.34-22.57.03-1.67.07-3.34.09-5.01.02-1.79.05-3.58.1-5.37.34-21.13.73-42.26,1.15-63.38.29-15.33.62-30.67.96-46.01l43.26,7.63,47.48,8.37c-4.22,15.91-8.14,31.9-11.76,47.95-4.31,19.07-8.2,38.24-11.68,57.45-.13.79-.27,1.57-.37,2.37-2.03,14.45.63,31.62.96,46,.21,8.65.45,17.3.75,25.96.28,8.01.61,16.03.98,24.04,1.49,33.26,3.69,66.46,6.38,99.66,4.66,57.18,10.81,114.24,17.59,171.2,6.48,54.26,10.79,109.35,28.17,161.53,9.63,28.89,23.93,56.68,45.19,78.43,2.4,2.46,5.09,5.32,4.71,8.74Z"/>
      <path class="cls-11" d="M529.51,145.08c-4.31,19.07-8.2,38.24-11.68,57.46-.13.78-.27,1.57-.37,2.36-4.71-3.38-8.96-7.39-12.56-11.96-8.31,8.82-24.1,4.79-31.35-3.35-.42-.48-.86-.98-1.46-1.18-1.14-.34-2.23.59-3.08,1.4-5.75,5.48-13.04,9.28-20.78,11.09.02-1.68.06-3.34.09-5.02.02-1.79.05-3.57.1-5.36.34-21.13.73-42.26,1.15-63.38,26.44,6.87,53.11,12.84,79.94,17.95Z"/>
      <path class="cls-11" d="M622.19,820.45c-1.14,10.36-17.19,5.48-23.16,5.48-10.51-.05-20.81,3.33-30.5,7.13-13.84,5.46-27.84,12.06-42.69,11.77-2.42-.05-4.79-.27-7.16-.64.56-.32,1.09-.64,1.6-.93,10.51-6.18,16.42-18.26,18.15-30.32,1.76-12.09-.11-24.33-1.89-36.39-24.11-165.25-29.97-333.16-17.38-499.69.29,8.01.61,16.03.99,24.04,1.49,33.25,3.7,66.45,6.39,99.65,4.66,57.19,10.81,114.24,17.59,171.21,6.47,54.26,10.78,109.34,28.16,161.52,9.64,28.89,23.93,56.68,45.2,78.43,2.4,2.45,5.08,5.32,4.71,8.73Z"/>
      <path class="cls-11" d="M397.88,105.68c-89.24-16.1-180.18-23.02-270.93-20.97,0,0-.04-1-.04-1,90.95-6,182.55-2.98,272.97,9.32,0,0-2,12.65-2,12.65h0Z"/>
      <path class="cls-11" d="M504.79,656.58c-.65,0-1.19-.51-1.22-1.16-.4-8.32-.68-16.86-.94-25.11-.53-16.57-1.08-33.71-2.71-50.02-14.3-144.47-12.01-261.13,7.21-367.12.12-.67.77-1.11,1.42-.99.66.12,1.11.76.99,1.42-19.18,105.76-21.46,222.2-7.19,366.44,1.64,16.39,2.19,33.57,2.73,50.18.27,8.25.54,16.77.94,25.07.03.68-.49,1.25-1.16,1.28-.02,0-.04,0-.06,0Z"/>
      <path class="cls-11" d="M488.7,836.54s-.1-.02-.15-.04c-.75-.17-1.51-.32-2.25-.47,13.6-50.98,19.52-106.22,17.64-164.58-.01-.67.51-1.25,1.19-1.26h.04c.66,0,1.21.51,1.22,1.18,1.9,58.56-4.04,114-17.69,165.17Z"/>
      <path class="cls-11" d="M465.66,693.45c-2.71,48.52-19.05,96.48-46.04,137.1-.86-.16-1.73-.33-2.58-.53,27.08-40.43,43.46-88.3,46.17-136.71,1.85-33.07-2.44-66.6-6.57-99.05-3.7-29-7.53-59-7-88.69.38-21.09,2.96-42.4,5.46-62.99,2.45-20.13,4.97-40.95,5.41-61.53.51-23.53-2-53.23-13.67-79.94.02-1.9.05-3.8.07-5.69,13.71,28.28,16.6,60.48,16.05,85.69-.44,20.69-2.97,41.58-5.43,61.78-2.48,20.52-5.06,41.75-5.43,62.73-.53,29.51,3.29,59.42,6.98,88.33,4.16,32.54,8.45,66.2,6.6,99.49Z"/>
      <path class="cls-11" d="M460.73,815.15c-.16,0-.32-.03-.48-.1-.62-.27-.91-.98-.65-1.61,26.34-61.67,36.08-129.46,28.18-196.05-2.13-17.98-5.59-36.09-8.94-53.6-2.65-13.85-5.38-28.18-7.45-42.38-5.74-39.38-4.79-70.25,2.97-97.15.19-.65.87-1.02,1.52-.84.65.19,1.02.87.84,1.52-7.67,26.55-8.59,57.09-2.9,96.12,2.06,14.15,4.79,28.45,7.44,42.28,3.35,17.55,6.82,35.71,8.96,53.77,7.95,67.02-1.86,135.24-28.36,197.3-.2.46-.65.74-1.13.74Z"/>
      <path class="cls-11" d="M473.68,409.82c-.07.62-.6,1.08-1.21,1.08-.05,0-.1,0-.15-.01-.67-.07-1.15-.69-1.06-1.36,4.33-36.55,7.89-84.34-3.18-130.01-4.52-18.57-11.41-35.9-20.26-51.34h0c.01-1.59.04-3.15.07-4.73,9.95,16.49,17.65,35.26,22.56,55.49,11.18,46.03,7.6,94.13,3.23,130.88Z"/>
      <path class="cls-11" d="M522.08,93.74l2.41.42c-6.97,34.51-12.11,69.39-15.39,104.51-.06.64-.59,1.11-1.22,1.11h-.11c-.67-.07-1.17-.66-1.11-1.34,3.28-35.17,8.43-70.12,15.42-104.7Z"/>
      <path class="cls-11" d="M490.01,235.64c-.91,2.53-2.04,5.13-4.09,6.98-1.37,1.23-3.35,2.1-5.32,2.1-1.08,0-2.15-.26-3.12-.86-2.24-1.38-3.12-3.97-3.75-6.57-6.4-26.57-6.41-56.37-.02-93.8,2.67-15.63,6.13-31.08,9.48-46.01.75-3.36,1.35-6.79,1.84-10.26l2.42.42c-.5,3.5-1.11,6.97-1.88,10.38-3.34,14.9-6.79,30.31-9.45,45.88-6.32,37.09-6.33,66.59-.01,92.81.47,1.95,1.1,4.11,2.65,5.07,1.71,1.06,4.12.29,5.52-.97,1.56-1.41,2.5-3.42,3.42-6,7.98-22.28,5.22-46.67,2.55-70.26-2.38-21.02-4.84-42.73.07-63.37.15-.66.82-1.06,1.47-.91.66.16,1.06.82.91,1.47-4.81,20.22-2.37,41.73-.02,62.53,2.71,23.88,5.5,48.55-2.67,71.37Z"/>
      <path class="cls-11" d="M467.29,84.08c-2.19,22.56-5.5,45.03-9.91,67.33-.12.58-.63.98-1.2.98-.08,0-.16,0-.24-.02-.66-.13-1.09-.77-.96-1.44,4.41-22.28,7.71-44.73,9.89-67.28l2.42.43Z"/>
      <path class="cls-15" d="M309.05,101.02c-4.09,7.05-13.05,10.9-20.98,8.98,4.8,1.16-8.69,27.96-10.41,30.22-6,7.94-15.94,16.24-25.47,19.28-20.55,6.52-45.27-1.08-58.33-18.25-9.84,12.46-25.47,20.18-41.36,20.38-10.56.13-21.08-3.04-29.94-8.78h-.01c-4.48-2.88-8.52-6.43-11.93-10.53-2.31-2.77-4.53-5.93-7.93-7.14-3.87-1.36-8.08.19-12.09,1.04-11.99,2.52-25.18-1.96-33.18-11.23-11.4-13.23-11.03-34.18,3.58-44.91,5.77-4.24,13.1-6.32,20.23-5.74-1.38-6.47-.2-13.46,3.22-19.13,3.67-6.06,10.64-11.58,17.9-12.21,7.12-.62,14.61,4.4,16.27,11.44,1.11-10.94,5.88-21.22,12.98-29.57l39.39,6.95,54.96,9.69c1.19,3.16,2.07,6.45,2.6,9.82,2.69-3.22,6.09-5.79,9.86-7.62l22,3.88,5.51.97,8.04,1.42c5.28,5.68,8.52,13.3,8.46,21.09,9.29-3.41,19.21.9,24.77,8.2,4.62,6.09,6.21,14.26,1.86,21.76Z"/>
      <path class="cls-15" d="M674.33,120.59c-.05,1.66-.31,3.32-.73,4.92-1.37,5.26-4.05,9.83-7.76,13.71-.37.39-.76.77-1.16,1.12-9.58,8.73-25.84,9.17-35.7.65-2.93,26.56-23.52,50.26-49.4,56.87-25.86,6.61-55.3-4.31-70.6-26.2-4.22,6.3-12.07,9.97-19.61,9.18-7.54-.79-14.44-6.01-17.27-13.05-11.72,9.5-24.83,17.64-39.39,21.62-8.89,2.44-18.39,3.22-27.49,1.85-5.78-.85-11.38-2.58-16.58-5.27-13.39-6.95-23.46-20.96-23.64-36.05-11.22,7.16-28.48.79-32.37-11.93-3.9-12.72,6.85-27.67,20.16-28.02-3.75-5.79-3.86-13.45-1.36-19.86,2.49-6.43,7.32-11.73,12.79-15.93,3.31-2.55,6.9-4.69,10.67-6.42l190.15,33.54,52.21,9.2,57.08,10.07Z"/>
      <path class="cls-4" d="M674.33,120.59c-.05,1.66-.31,3.32-.73,4.92-1.37,5.26-4.05,9.83-7.76,13.71-.37.39-.76.77-1.16,1.12-9.58,8.73-25.84,9.17-35.7.65-2.93,26.56-23.52,50.26-49.4,56.87-25.86,6.61-55.3-4.31-70.6-26.2-4.22,6.3-12.07,9.97-19.61,9.18-7.54-.79-14.44-6.01-17.27-13.05-11.72,9.5-24.83,17.64-39.39,21.62-8.89,2.44-18.39,3.22-27.49,1.85,23.71-4.46,45.16-22.04,52.32-45.27,15.55,4.99,32.25,9.63,47.99,5.26,15.74-4.37,29.08-21.35,23.56-36.73,8.45,6.45,21.51,5.85,29.33-1.33,3.4-3.13,5.65-7.36,6.62-11.88l52.21,9.2,57.08,10.07Z"/>
      <path class="cls-4" d="M309.05,101.02c-4.09,7.05-13.05,10.9-20.98,8.98,4.8,1.16-8.69,27.96-10.41,30.22-6,7.94-15.94,16.24-25.47,19.28-20.55,6.52-45.27-1.08-58.33-18.25-9.84,12.46-25.47,20.18-41.36,20.38-10.56.13-21.08-3.04-29.94-8.78,22.47-1.6,44.19-15.12,54.37-35.39,8.97,2.77,18.13,5.56,27.52,5.55,9.4-.01,19.25-3.28,25.06-10.66,5.81-7.39,6.12-19.31-.86-25.6,14.44,1.69,29.31-8.69,32.7-22.84,1.3-5.41.87-11.09-.94-16.33l5.51.97,8.04,1.42c5.28,5.68,8.52,13.3,8.46,21.09,9.29-3.41,19.21.9,24.77,8.2,4.62,6.09,6.21,14.26,1.86,21.76Z"/>
      <path class="cls-16" d="M517.6,245.34c-.52,0-.96-.4-1-.93-1.36-19.66-.21-39.45,3.4-58.82.1-.54.62-.89,1.17-.8.54.1.9.62.8,1.17-3.58,19.2-4.72,38.83-3.37,58.32.04.55-.38,1.03-.93,1.07-.02,0-.05,0-.07,0Z"/>
    </g>
    <rect class="cls-8" x="888.88" y="610.4" width="5.83" height="15.59"/>
    <rect class="cls-8" x="896.89" y="610.4" width="5.83" height="15.59"/>
    <rect class="cls-8" x="904.9" y="610.4" width="5.83" height="15.59"/>
  </g>
  <path class="cls-14" d="M986,940H2c-1.1,0-2-.9-2-2V2C0,1.41.26.85.71.47,1.17.09,1.77-.07,2.35.03l984,173.56c.96.17,1.65,1,1.65,1.97v762.44c0,1.1-.9,2-2,2ZM4,936h980V177.24L4,4.39v931.61Z"/>
</svg>