<?xml version="1.0" encoding="UTF-8"?>
<svg xmlns="http://www.w3.org/2000/svg" xmlns:xlink="http://www.w3.org/1999/xlink" viewBox="0 0 472 562">
  <defs>
    <style>
      .cls-1 {
        fill: #493f19;
      }

      .cls-2 {
        fill: #d3eae8;
      }

      .cls-3 {
        fill: #fff;
      }

      .cls-4 {
        fill: #dfedf2;
      }

      .cls-5 {
        fill: #ea9939;
      }

      .cls-6 {
        fill: #d87625;
      }

      .cls-7 {
        fill: #e1d1a7;
      }

      .cls-8 {
        fill: none;
      }

      .cls-9 {
        fill: #333;
      }

      .cls-10 {
        fill: #6d3108;
      }

      .cls-11 {
        fill: #aa7f39;
      }

      .cls-12 {
        fill: #a8b6c1;
      }

      .cls-13 {
        fill: #c8a457;
      }

      .cls-14 {
        clip-path: url(#clippath);
      }

      .cls-15 {
        fill: #7d5824;
      }
    </style>
    <clipPath id="clippath">
      <polygon class="cls-8" points="470 2 470 560 2 477.43 2 2 470 2"/>
    </clipPath>
  </defs>
  <g id="Image">
    <g>
      <g class="cls-14">
        <rect class="cls-5" x="-1.86" y="339.95" width="576.9" height="225.24"/>
        <rect class="cls-6" x="-1.62" y="355.76" width="488.05" height="33.72"/>
        <rect class="cls-2" x="-8.21" y="-25.93" width="547.95" height="319.46"/>
        <path class="cls-3" d="M109.82,151.23h187.99c-12.3-17.96-35.84-27.48-57.25-23.58,1.94-4.31,3.2-9.58,3.35-14.32.09-2.69-.49-5.48-2.13-7.61-1.41-1.84-3.5-3.05-5.63-3.97-6.27-2.7-14.13-3.31-20.78-1.86,4.33-10.81-4.53-23.25-15.5-27.1-10.98-3.86-23.05-1.58-34.45.74-1.8-17.2-13.66-32.97-29.68-39.48-16.02-6.51-35.51-3.46-48.78,7.61s-19.77,29.71-16.25,46.65c-9.17-.04-18.91,2.29-25.13,9.03-6.22,6.74-7.19,18.67-.23,24.63-15.41.62-29.14,14.43-29.68,29.86"/>
        <g>
          <rect class="cls-4" x="-217.81" y="285.77" width="702.82" height="68"/>
          <rect class="cls-12" x="-217.81" y="326.3" width="702.82" height="27.48"/>
          <rect class="cls-12" x="54.63" y=".44" width="70.53" height="285.52"/>
          <rect class="cls-4" x="54.63" y=".44" width="38.87" height="285.52"/>
          <path class="cls-9" d="M54.63,287.77H-220.27c-1.11,0-2-.9-2-2s.9-2,2-2H52.63V-11.77c0-1.11.9-2,2-2s2,.9,2,2v297.54c0,1.11-.9,2-2,2Z"/>
          <path class="cls-9" d="M472.1,287.77H125.16c-1.11,0-2-.9-2-2V-11.77c0-1.11.9-2,2-2s2,.9,2,2v295.54h344.94c1.11,0,2,.9,2,2s-.9,2-2,2Z"/>
          <rect class="cls-10" x="-1.62" y="353.76" width="486.63" height="4"/>
        </g>
        <path class="cls-3" d="M485.02,248.34h-189.24c11.23-16.14,35.4-21.88,53.22-13.58-4.08-7.09-.97-17.05,5.97-21.38s16.51-3.2,22.96,1.83c-7.15-20.1,3.19-44.82,22.53-53.82,19.33-9,44.89-1.01,55.66,17.41,6.74-15.15,26.34-23.06,41.69-16.82"/>
      </g>
      <g>
        <g>
          <path class="cls-1" d="M445.3,310.53c0-71.56-58.18-129.77-129.69-129.77s-129.7,58.21-129.7,129.77c0,43.88,22.27,84.63,58.7,108.54-11.74,3.53-19.8,8.46-19.8,15.23v40.09c0,.78.11,1.56.32,2.31.63,2.26,2.22,4.37,4.74,6.27,10.08,7.64,37.52,13.15,71.62,14.37,3.52.13,7.04.21,10.46.24,1.22.01,2.44.02,3.67.02,2.08,0,4.13-.02,6.17-.06,6.35-.09,12.57-.34,18.56-.73,1.71-.11,3.41-.24,5.08-.37,2.36-.19,4.68-.4,6.95-.63.32-.04.64-.07.95-.1,14.47-1.53,27.02-3.93,36.12-6.99.88-.3,1.73-.6,2.55-.9,9.69-3.67,14.4-8.06,14.4-13.43v-40.09c0-6.77-8.06-11.69-19.8-15.23,36.43-23.91,58.7-64.66,58.7-108.54ZM372.89,283.48c39.27,6.37,60.41,18.48,60.41,27.05s-21.13,20.68-60.41,27.04c.81-8.85,1.25-17.92,1.25-27.04s-.44-18.2-1.25-27.05ZM431.52,290.18c-12.67-8.4-33.67-15.13-60.04-19.08-2.62-18.79-7.16-36.17-13.22-50.43-4.21-9.93-8.99-18.08-14.27-24.4,44.76,11.18,79.5,48.26,87.53,93.92ZM362.13,310.53c0,9.73-.51,19.38-1.48,28.76-14.14,1.7-29.27,2.58-45.04,2.58s-30.89-.88-45.07-2.58c-.97-9.26-1.46-18.92-1.46-28.76s.52-19.39,1.48-28.77c14.16-1.7,29.29-2.58,45.05-2.58s30.88.88,45.04,2.58c.97,9.36,1.48,19.01,1.48,28.77ZM315.61,192.78c11.47,0,22.69,11.57,31.61,32.59,5.29,12.47,9.38,27.63,11.9,44.12-13.85-1.53-28.45-2.32-43.51-2.32s-29.67.79-43.51,2.32c2.51-16.48,6.59-31.65,11.89-44.12,8.92-21.02,20.15-32.59,31.62-32.59ZM287.21,196.27c-5.28,6.31-10.06,14.46-14.27,24.39-6.05,14.26-10.6,31.64-13.22,50.43-26.37,3.95-47.37,10.68-60.04,19.08,8.03-45.65,42.77-82.72,87.53-93.91ZM258.32,283.48c-.81,8.85-1.25,17.92-1.25,27.05s.44,18.23,1.26,27.04c-39.27-6.37-60.42-18.48-60.42-27.04s21.13-20.68,60.41-27.05ZM261.78,415.21c-32.65-16.88-55.73-48.5-62.07-84.31,12.67,8.38,33.67,15.11,60.03,19.06.2,1.41.41,2.81.62,4.21.02.1.03.2.05.29.17,1.06.34,2.12.52,3.17.04.21.07.42.11.63.17.97.34,1.93.52,2.88.05.28.1.56.15.84.17.9.35,1.8.53,2.7.07.31.13.63.2.95.17.86.35,1.71.54,2.56.07.34.15.69.23,1.03.18.82.37,1.64.56,2.45.08.36.17.72.25,1.07.19.8.39,1.58.58,2.37.1.37.19.74.29,1.11.2.76.39,1.52.6,2.27.1.38.21.76.32,1.15.2.72.4,1.45.61,2.17.12.4.24.8.36,1.2.2.69.4,1.37.61,2.05.14.43.27.86.41,1.29.2.63.4,1.27.61,1.9.16.47.32.94.48,1.41.19.57.38,1.15.58,1.71.19.54.39,1.07.58,1.6.18.48.35.98.53,1.46.25.65.5,1.3.75,1.94.14.35.27.7.41,1.04.39.99.79,1.97,1.2,2.93.03.08.07.16.1.24.32.75.65,1.49.97,2.22.09.2.18.39.27.59.28.6.56,1.21.84,1.8.11.25.23.49.35.73.26.53.51,1.06.77,1.58.14.29.29.58.44.87.23.45.46.9.69,1.34.19.35.38.69.56,1.04.19.35.39.71.58,1.06.2.35.39.7.59,1.04-5.87.59-11.75,1.35-17.33,2.29ZM338.69,411.83c-8.41-.52-16.38-.74-23.08-.74s-14.69.22-23.1.74c-2.57-3.85-5.02-8.34-7.3-13.39-.05-.1-.09-.19-.13-.29-.36-.8-.72-1.62-1.08-2.45-.03-.08-.06-.16-.1-.24-.33-.79-.66-1.6-.99-2.41-.25-.64-.5-1.29-.75-1.94-.1-.26-.2-.51-.3-.77-.27-.74-.54-1.49-.81-2.24-.06-.18-.13-.36-.2-.54-.28-.8-.55-1.61-.83-2.43-.04-.14-.09-.27-.13-.41-.29-.85-.56-1.71-.83-2.58-.04-.1-.07-.21-.11-.32-.27-.88-.54-1.78-.81-2.68-.02-.1-.05-.19-.08-.28-.27-.92-.53-1.84-.78-2.77-.03-.09-.05-.17-.07-.26-.26-.93-.51-1.87-.75-2.82-.03-.09-.05-.19-.07-.28-.25-.94-.48-1.89-.71-2.85-.03-.11-.05-.21-.08-.32-.22-.95-.44-1.9-.66-2.86-.02-.12-.05-.24-.08-.36-.21-.95-.41-1.91-.61-2.87-.03-.14-.06-.29-.09-.43-.19-.95-.38-1.9-.57-2.85-.03-.17-.06-.34-.09-.51-.18-.94-.35-1.88-.52-2.83-.03-.18-.06-.36-.09-.54-.17-.95-.33-1.91-.48-2.87-.03-.15-.05-.3-.07-.44-.08-.46-.14-.92-.21-1.37,13.81,1.53,28.41,2.31,43.5,2.31s29.63-.78,43.51-2.32c-2.52,16.48-6.6,31.65-11.9,44.13-2.62,6.18-5.48,11.59-8.53,16.13ZM369.44,415.21c-5.59-.94-11.46-1.7-17.33-2.29,2.18-3.82,4.24-8.01,6.15-12.53,6.05-14.26,10.6-31.64,13.22-50.43,26.36-3.94,47.35-10.68,60.02-19.07-6.33,35.82-29.41,67.45-62.06,84.32Z"/>
          <path class="cls-13" d="M402.41,434.3v40.09c0,3.53-4.3,6.84-11.82,9.68-14.09,5.33-39.46,9.02-68.86,9.47-2.02.03-4.05.05-6.11.05-1.22,0-2.43-.01-3.64-.02-3.51-.03-6.96-.11-10.35-.23-33.2-1.19-60.08-6.54-69.34-13.56-2.26-1.71-3.47-3.52-3.47-5.4v-40.09h173.6Z"/>
          <path class="cls-7" d="M232.28,434.3v45.49c-2.26-1.71-3.47-3.52-3.47-5.4v-40.09h3.47Z"/>
          <path class="cls-15" d="M311.97,449.27v44.3c-3.51-.03-6.96-.11-10.35-.23v-44.07h10.35Z"/>
          <path class="cls-15" d="M390.59,436.3v47.77c-14.09,5.33-39.46,9.02-68.86,9.47v-57.24h68.86Z"/>
          <path class="cls-7" d="M402.41,434.3c0,1.15-.45,2.27-1.32,3.36-7.18,9-42.73,15.84-85.47,15.84s-78.32-6.85-85.48-15.85c-.87-1.09-1.32-2.21-1.32-3.35,0-10.61,38.86-19.21,86.81-19.21s86.8,8.6,86.8,19.21Z"/>
          <path class="cls-13" d="M402.41,434.3c0,1.15-.45,2.27-1.32,3.36-13.24,6.73-46.52,11.5-85.47,11.5s-72.25-4.78-85.48-11.51c-.87-1.09-1.32-2.21-1.32-3.35,0-10.61,38.86-19.21,86.81-19.21s86.8,8.6,86.8,19.21Z"/>
          <path class="cls-13" d="M315.61,184.76c-69.31,0-125.7,56.42-125.7,125.76,0,47.3,26.23,88.59,64.9,110.06,11.78,6.55,24.72,11.24,38.41,13.72,7.26,1.32,14.75,2,22.38,2s15.12-.68,22.39-2c13.69-2.47,26.62-7.17,38.39-13.72,38.67-21.47,64.9-62.76,64.9-110.06,0-69.35-56.39-125.76-125.69-125.76ZM370.17,419.35c-12.05,6.08-25.24,10.21-39.14,11.97-3.77.48-7.59.78-11.47.9-1.31.05-2.62.07-3.94.07-5.22,0-10.37-.33-15.42-.97-13.91-1.77-27.1-5.9-39.14-11.97-36.78-18.53-62.93-55.2-66.66-98.18-.31-3.5-.47-7.06-.47-10.64s.16-7.14.47-10.64c4.95-57.07,49.42-102.98,105.81-110.15,5.05-.64,10.2-.97,15.42-.97s10.36.33,15.41.97c56.39,7.16,100.85,53.08,105.81,110.15.31,3.5.47,7.06.47,10.64s-.16,7.14-.47,10.64c-3.73,42.99-29.88,79.66-66.66,98.18Z"/>
          <path class="cls-15" d="M436.83,299.88c-9.85-11.37-35.22-20.56-68.9-25.26-1.35-.19-2.72-.37-4.11-.54-14.77-1.87-31.03-2.9-48.2-2.9s-33.43,1.03-48.21,2.9c-1.38.17-2.75.35-4.11.54-33.67,4.71-59.06,13.89-68.9,25.26-2.92,3.37-4.47,6.94-4.47,10.64s1.55,7.27,4.47,10.64c9.85,11.38,35.24,20.56,68.92,25.26,1.35.19,2.72.37,4.1.55,14.78,1.87,31.04,2.89,48.2,2.89s33.43-1.03,48.2-2.89c1.39-.18,2.76-.36,4.11-.55,33.68-4.71,59.06-13.89,68.9-25.26,2.92-3.37,4.47-6.94,4.47-10.64s-1.55-7.27-4.47-10.64ZM368.4,342.32c-1.34.2-2.71.39-4.09.56-14.56,1.9-30.92,2.99-48.7,2.99s-34.13-1.09-48.7-2.99c-1.38-.17-2.74-.36-4.09-.56-42.66-6.13-68.9-19.28-68.9-31.79s26.24-25.65,68.89-31.79c1.35-.2,2.71-.39,4.09-.56,14.57-1.9,30.93-2.99,48.71-2.99s34.14,1.09,48.7,2.99c1.38.17,2.75.36,4.09.56,42.66,6.14,68.89,19.28,68.89,31.79s-26.24,25.65-68.89,31.79Z"/>
          <path class="cls-11" d="M368.4,278.74c-.15-1.38-.31-2.75-.48-4.12-2.49-19.57-7.02-37.52-13.34-52.39-6.59-15.54-14.67-26.59-23.57-32.49-4.93-3.28-10.11-4.98-15.41-4.98s-10.49,1.69-15.42,4.98c-8.89,5.9-16.97,16.95-23.57,32.49-6.31,14.88-10.85,32.82-13.34,52.39-.17,1.36-.33,2.73-.48,4.12-1.14,10.25-1.73,20.92-1.73,31.79s.59,21.54,1.74,31.79c.04.41.08.82.13,1.23.11.96.23,1.92.36,2.88,2.48,19.57,7,37.53,13.32,52.39,2.82,6.65,5.91,12.47,9.23,17.42,4.42,6.64,9.25,11.7,14.34,15.08,1.81,1.21,3.66,2.21,5.54,2.97,3.22,1.33,6.52,2,9.88,2,1.32,0,2.64-.11,3.94-.32,2-.32,3.98-.88,5.93-1.68,1.87-.77,3.72-1.76,5.53-2.97,5.09-3.37,9.92-8.44,14.34-15.08,3.32-4.96,6.41-10.78,9.23-17.42,6.31-14.88,10.85-32.82,13.34-52.39.17-1.36.33-2.73.48-4.12,1.14-10.25,1.73-20.92,1.73-31.79s-.59-21.54-1.73-31.79ZM363.81,346.98c-2.46,18.79-6.84,35.99-12.91,50.28-3.1,7.3-6.5,13.54-10.16,18.64-6.47,9.1-13.69,14.59-21.19,16.01-1.3.25-2.62.38-3.94.38-8.92,0-17.54-5.7-25.16-16.39-3.64-5.11-7.04-11.34-10.15-18.64-6.05-14.29-10.44-31.49-12.9-50.28-.15-1.14-.3-2.28-.43-3.43-.03-.22-.05-.44-.07-.67-1.22-10.4-1.83-21.27-1.83-32.35s.62-21.94,1.82-32.35c.15-1.37.32-2.74.5-4.1,2.46-18.79,6.84-36,12.91-50.28,9.59-22.6,22.12-35.03,35.3-35.03s25.71,12.44,35.29,35.03c6.06,14.28,10.45,31.49,12.91,50.28.18,1.35.35,2.72.5,4.1,1.2,10.41,1.82,21.27,1.82,32.35s-.62,21.94-1.82,32.35c-.15,1.38-.32,2.74-.5,4.11Z"/>
          <path class="cls-15" d="M319.55,431.92v4.06c-1.3.21-2.62.32-3.94.32-14.89,0-28.73-13.31-38.98-37.48-6.62-15.6-11.28-34.58-13.68-55.28h4.03c2.36,20.13,6.9,38.57,13.33,53.72,9.59,22.59,22.12,35.03,35.3,35.03,1.32,0,2.64-.13,3.94-.38Z"/>
        </g>
        <g>
          <path class="cls-1" d="M418.45,316.95s-.01.02-.02.03c-.32.47-.67.91-1.06,1.33,0,.01,0,.02,0,.03-.01,0-.01,0-.02,0,0,.01-.01.02-.02.02-8.48,9.39-44.77,23.11-81.27,28.25-1.89.26-3.77.5-5.66.71-29.3,35.58-66.9,66.68-76.64,66.68h-.11c-.37-.01-.71-.05-1.05-.1-.11-.02-.22-.06-.33-.09-.2-.04-.4-.08-.59-.15-.02,0-.03-.01-.05-.01,0,0-.01,0-.01-.01h-.02c-1.51-.51-3.52-1.76-4.81-4.88-3.64-8.77-.2-32.24,15.49-63.84-25.02-6-40.4-18.14-44.27-27.42-1.48-3.54-1.37-6.9.32-9.45.38-.57.85-1.14,1.39-1.72,8.6-8.89,45.51-23.92,86.67-28.67,29.32-35.56,66.93-66.68,76.65-66.68h.1c.4.02.77.06,1.13.13h.01c.06.01.12.02.17.03.03.01.05.01.07.02.2.04.39.09.55.13.02.01.04.02.07.03.16.05.3.1.41.14.37.15.76.35,1.17.6h0c.3.2.61.44.91.71.08.06.16.13.23.2.26.25.51.51.76.82.09.12.17.25.26.38.15.2.29.41.42.63.05.09.11.16.16.24.06.11.11.24.17.36.06.11.11.22.16.33.11.24.22.48.31.73.04.08.07.15.1.23.03.08.05.16.08.24.06.18.12.35.17.53.04.13.08.26.11.4,1.57,5.66.82,14.55-1.9,25.25-2.58,10.32-7.14,22.85-14.15,36.95,25.03,6.01,40.41,18.14,44.28,27.42,1.48,3.54,1.37,6.9-.32,9.44Z"/>
          <path class="cls-13" d="M268.16,342.13c-34.54-6.76-50.9-25.24-46.52-31.85.25-.38.58-.78.97-1.18,8.07-8.36,45.74-23.29,85.83-27.63l-3.57,20.32-36.71,40.34Z"/>
          <path class="cls-15" d="M268.16,342.13c-34.54-6.76-50.9-25.24-46.52-31.85.25-.38.58-.78.97-1.18l82.26-7.31-36.71,40.34Z"/>
          <path class="cls-13" d="M328.31,343.56c-31.51,38.62-68.04,66.62-74.58,66.46-.29,0-.57-.05-.83-.14-6.97-2.17-4.28-30.29,15.28-67.76l36.68-40.32h0s23.44,41.77,23.44,41.77Z"/>
          <path class="cls-15" d="M328.31,343.56c-31.51,38.62-68.04,66.62-74.58,66.46-.29,0-.57-.05-.83-.14l51.97-108.08,23.44,41.76Z"/>
          <path class="cls-13" d="M368.57,282.91l-63.43,18.77-.43.25-.08-.28,3.82-20.18h0c31.51-38.62,68.03-66.62,74.58-66.47.22,0,.42.03.61.08.16.03.3.07.45.13.73.3,1.36.9,1.86,1.79,4,7.19-.15,32.93-17.37,65.9Z"/>
          <path class="cls-15" d="M368.57,282.91l-63.43,18.77-.43.25-.08-.28,79.01-86.57c.16.03.3.07.45.13,6.68,2.71,3.85,30.64-15.51,67.7Z"/>
          <path class="cls-13" d="M415.11,314.74c-.2.3-.43.6-.73.91-7.51,8.31-45.56,23.52-86.07,27.9l-23.71-41.76h.02s63.96-18.89,63.96-18.89c34.54,6.76,50.9,25.24,46.52,31.84Z"/>
          <path class="cls-15" d="M414.38,315.65c-7.51,8.31-45.56,23.52-86.07,27.9l-23.69-41.77,109.76,13.88Z"/>
          <polygon class="cls-7" points="305.54 296.51 304.62 301.78 382.57 216.25 305.54 296.51"/>
          <polygon class="cls-7" points="298.03 309.16 304.63 302.07 258.07 399.12 298.03 309.16"/>
          <polygon class="cls-7" points="227.93 308.63 305.54 296.51 304.62 301.78 227.93 308.63"/>
          <polygon class="cls-7" points="304.62 301.78 316.81 298.18 407.98 314.44 304.62 301.78"/>
          <path class="cls-1" d="M319.36,302.05c-5.36,8.09-15.86,14.31-24.07,14.31-.13,0-.25,0-.38-.01-3.92-.09-6.87-1.66-8.31-4.43-1.75-3.36-.96-8,2.18-12.74,5.45-8.22,16.18-14.49,24.45-14.31,3.92.1,6.87,1.67,8.32,4.43,1.75,3.36.95,8.01-2.19,12.75Z"/>
          <g>
            <path class="cls-15" d="M317.7,300.94c-5.03,7.58-15.21,13.59-22.73,13.41-7.52-.18-9.54-6.47-4.5-14.05,5.03-7.58,15.21-13.59,22.73-13.41,7.52.18,9.54,6.47,4.5,14.05Z"/>
            <path class="cls-13" d="M313.67,299.53c-3.69,5.57-11.16,9.97-16.68,9.84-5.52-.13-7-4.75-3.31-10.31,3.69-5.57,11.16-9.97,16.68-9.84,5.52.13,7,4.75,3.31,10.31Z"/>
            <path class="cls-7" d="M306.32,295.36c-1.43,2.15-4.32,3.86-6.45,3.81-2.13-.05-2.71-1.84-1.28-3.99,1.43-2.15,4.32-3.86,6.45-3.81,2.13.05,2.71,1.84,1.28,3.99Z"/>
            <path class="cls-7" d="M319.55,291.93c-1.13-1.48-3.1-2.37-5.8-2.44-7.19-.17-16.91,5.57-21.73,12.81-2.33,3.51-3.08,6.73-2.41,9.14-1.88-2.44-1.5-6.48,1.49-11,4.81-7.25,14.54-12.99,21.73-12.81,3.71.09,6.02,1.73,6.72,4.29Z"/>
          </g>
        </g>
        <g>
          <path class="cls-1" d="M438.14,353.09c4.76-13.65,7.17-27.97,7.17-42.57,0-34.19-13.23-66.49-37.24-90.93-23.99-24.41-55.97-38.2-90.05-38.82h-.02c-.79-.01-1.59-.02-2.38-.02-71.52,0-129.7,58.21-129.7,129.77,0,3.88.18,7.75.52,11.6.37,4.11.95,8.19,1.7,12.24,1.85,9.88,4.83,19.54,8.89,28.7.04.09.08.17.12.25,1.01,2.26,2.08,4.49,3.22,6.69h0s0,0,0,0c0,0,0,0,0,0,8.39,16.21,19.89,30.25,34.17,41.73,22.91,18.42,51.7,28.56,81.09,28.56.31,0,.61,0,.91-.01,35.13-.24,67.83-14.78,91.52-38.84,1.68-1.71,3.34-3.45,4.93-5.26.04-.05.08-.09.12-.14,10.84-12.34,19.44-26.83,25.05-42.96,0,0,0,0,0,0,0,0,0,0,0,0,0,0,0,0,0,0ZM423.2,358.21c-.17.38-.35.75-.52,1.13-.35.77-.7,1.53-1.07,2.29-.21.44-.43.88-.65,1.32-.34.68-.68,1.37-1.04,2.04-.24.46-.48.91-.73,1.36-.35.65-.7,1.3-1.07,1.94-.26.45-.51.91-.78,1.36-.37.64-.75,1.27-1.13,1.9-.27.44-.53.87-.8,1.31-.4.64-.81,1.27-1.22,1.9-.27.41-.53.82-.8,1.22-.45.68-.92,1.34-1.38,2.01-.24.35-.48.7-.73,1.04-.62.87-1.25,1.72-1.9,2.57-.1.13-.2.27-.3.4-.75.98-1.52,1.95-2.29,2.9-.22.27-.45.53-.67.8-.56.68-1.13,1.36-1.71,2.02-.29.34-.6.67-.9,1.01-.52.58-1.04,1.16-1.57,1.74-.33.36-.66.71-1,1.06-.51.54-1.03,1.08-1.55,1.61-.35.35-.7.7-1.05,1.05-.53.52-1.06,1.04-1.59,1.55-.36.34-.71.68-1.07,1.01-.55.52-1.11,1.02-1.68,1.53-.35.31-.7.63-1.05.94-.61.53-1.22,1.05-1.84,1.57-.32.27-.64.54-.96.81-.76.62-1.53,1.23-2.3,1.83-.19.15-.37.3-.57.45-.98.75-1.96,1.49-2.96,2.21-.21.15-.42.29-.63.44-.79.56-1.58,1.12-2.38,1.66-.35.23-.7.46-1.05.69-.67.44-1.35.88-2.03,1.31-.4.25-.8.49-1.2.74-.65.4-1.29.79-1.95,1.17-.42.25-.84.49-1.27.73-.65.37-1.29.73-1.95,1.09-.43.24-.87.47-1.3.7-.66.35-1.33.69-2,1.03-.43.22-.86.44-1.29.65-.7.35-1.42.68-2.13,1.01-.4.19-.8.38-1.2.56-.82.37-1.65.73-2.48,1.08-.3.13-.6.26-.9.39-1.14.47-2.29.93-3.44,1.37-.17.06-.34.12-.52.19-.98.37-1.97.72-2.96,1.06-.4.14-.8.26-1.2.39-.77.26-1.55.51-2.32.75-.46.14-.93.28-1.4.41-.72.21-1.45.42-2.18.62-.49.13-.99.26-1.48.39-.38.1-.76.19-1.14.29.14-.16.27-.34.41-.5.18-.22.36-.43.53-.66.16-.2.33-.41.49-.62.1-.13.21-.26.31-.4.13-.16.25-.33.38-.49.22-.29.43-.58.65-.88.17-.23.34-.46.51-.7.07-.1.14-.2.21-.3.1-.14.2-.29.3-.43.05-.07.1-.14.14-.21.16-.23.32-.46.48-.7.22-.33.44-.67.67-1.01.13-.2.26-.39.39-.58.03-.05.07-.11.1-.16.22-.34.44-.7.66-1.05.14-.22.27-.43.41-.66.2-.32.39-.65.59-.98.09-.14.17-.29.26-.43.08-.14.16-.27.24-.41.35-.6.7-1.21,1.04-1.83,0-.01.01-.03.02-.04.09-.16.17-.33.26-.49.17-.3.33-.61.49-.92.37-.7.75-1.41,1.11-2.14.2-.39.4-.79.6-1.19.36-.74.72-1.48,1.07-2.23.16-.34.32-.68.48-1.02.51-1.12,1.02-2.25,1.5-3.41.65-1.54,1.29-3.11,1.9-4.71,1.72-4.46,3.27-9.16,4.69-14.06.62-2.14,1.22-4.3,1.77-6.52,1.38-5.48,2.58-11.19,3.6-17.12,0,0,0,0,0,0,.45-2.64.85-5.32,1.23-8.02.79-.12,1.57-.23,2.35-.36,3.25-.51,6.41-1.07,9.48-1.66,20.97-4.04,37.48-9.87,48.23-17.04-1.43,8.15-3.71,16.11-6.85,23.83,0,0,0,0,0,0-.47,1.17-.97,2.33-1.48,3.48ZM433.3,310.53c0,2.77-2.45,6.07-6.9,9.31-1.87,1.36-4.06,2.7-6.53,3.99-10.72,5.59-26.85,10.4-45.75,13.55-.4.07-.82.13-1.22.2.81-8.82,1.24-17.85,1.24-27.04,0-33.84-5.64-65.76-15.87-89.86-4.23-9.96-9.01-18.12-14.31-24.44,51.78,12.83,89.33,59.77,89.33,114.31ZM198.07,304.52c3.08-60.69,52.62-109.67,113.71-111.68.97-.03,1.94-.05,2.92-.06h0s.06,0,.1,0c.23,0,.47,0,.7,0,.06,0,.12,0,.19,0,11.44.05,22.64,11.62,31.53,32.59,9.62,22.63,14.91,52.87,14.91,85.16,0,9.82-.49,19.44-1.45,28.76-5.62.68-11.42,1.23-17.35,1.63-8.91.62-18.24.94-27.72.94-6.46,0-12.83-.15-19.07-.44-1.67-.08-3.33-.17-4.97-.27-16.86-1-32.67-3.06-46.59-6.1-32.33-7.05-47.06-17.66-47.06-24.53,0-2.01.05-4.02.15-6.01ZM292.19,425.94c-15.82-3.2-30.82-9.64-44.23-19.11-25.72-18.14-42.9-45.35-48.25-75.85,9.45,6.29,23.58,11.62,41.94,15.66,21.45,4.73,47.03,7.23,73.96,7.23,9.36,0,18.65-.31,27.63-.91,0,0,0,0,0,0,5.39-.36,10.7-.83,15.88-1.4-.29,1.88-.59,3.74-.92,5.58-.64,3.6-1.34,7.12-2.12,10.54-2.33,10.25-5.3,19.64-8.86,28.01-.29.69-.59,1.37-.89,2.04-.14.3-.27.6-.41.9-.17.38-.34.75-.52,1.13-.13.28-.26.54-.39.82-.2.41-.39.82-.59,1.22-.1.2-.2.39-.3.59-.25.5-.5.99-.75,1.48-.05.09-.1.18-.14.27-2.69,5.12-5.58,9.54-8.58,13.12-.01.01-.02.02-.03.04-.35.42-.71.83-1.07,1.23-.09.1-.19.2-.28.31-.28.31-.57.62-.86.92-.21.21-.41.42-.62.62-.19.19-.37.38-.56.56-.41.39-.82.77-1.23,1.13-4.71,4.14-9.55,6.23-14.39,6.23-6.09,0-12.12-.46-18.05-1.38-1.8-.28-3.59-.61-5.37-.97Z"/>
          <g>
            <path class="cls-13" d="M317.93,184.78c-.77-.01-1.55-.02-2.32-.02-69.31,0-125.7,56.42-125.7,125.76,0,20.77,5.05,40.38,14,57.65,8.13,15.7,19.45,29.47,33.12,40.45,21.53,17.31,48.87,27.67,78.58,27.67.28,0,.55,0,.83-.01,54.51-.35,100.9-35.61,117.91-84.51,4.5-12.93,6.94-26.81,6.94-41.25,0-68.57-55.14-124.5-123.37-125.74ZM428.39,356.23c-16.23,40-53.13,69.47-97.36,75.09-5.05.64-10.2.97-15.42.97-26.02,0-50.15-8.21-69.95-22.19-28.75-20.27-48.36-52.68-51.34-89.72-.27-3.25-.4-6.54-.4-9.86,0-66.83,54.08-121.25,120.76-121.75.31-.01.63-.01.94-.01,5.22,0,10.36.33,15.41.97,59.85,7.6,106.28,58.87,106.28,120.79,0,16.16-3.16,31.59-8.91,45.71Z"/>
            <path class="cls-13" d="M437.3,310.53c0,4.22-2.97,8.49-8.55,12.55-10.15,7.41-28.89,14.08-53.97,18.25-9.52,1.59-19.95,2.82-31.17,3.59-8.86.62-18.21.95-28,.95-27.77,0-52.06-2.65-71.49-6.9-31.5-6.87-50.21-17.88-50.21-28.44h-4c0,13.47,20.56,25.15,52.6,32.21,20.47,4.52,45.63,7.14,73.1,7.14,9.43,0,18.58-.31,27.36-.9,10.68-.71,20.81-1.84,30.23-3.33,25.16-3.96,45.19-10.49,56.85-18.55,7.24-5.02,11.26-10.61,11.26-16.56h-4Z"/>
            <path class="cls-13" d="M354.59,222.23c-6.59-15.54-14.67-26.59-23.57-32.49-4.93-3.28-10.11-4.98-15.41-4.98v4c13.17,0,25.71,12.44,35.29,35.03,9.83,23.13,15.23,53.94,15.23,86.73,0,16.52-1.37,32.54-3.99,47.32-2.57,14.57-6.36,27.94-11.24,39.42-2.37,5.58-4.91,10.52-7.59,14.83-3.35,5.37-6.93,9.71-10.67,12.98-5.41,4.76-11.16,7.23-17.03,7.23v4c.28,0,.55,0,.83-.01,5.01-.17,9.92-1.85,14.59-4.97,3.27-2.17,6.43-5.05,9.46-8.58,3.08-3.61,6.01-7.92,8.77-12.89,1.86-3.37,3.65-7.06,5.33-11.03,5.12-12.07,9.08-26.17,11.71-41.53,2.52-14.67,3.84-30.49,3.84-46.77,0-33.32-5.52-64.68-15.55-88.3Z"/>
            <path class="cls-7" d="M317.93,184.78c-1.03,1.37-2.12,2.7-3.26,3.99-66.67.5-120.76,54.92-120.76,121.75,0,3.32.13,6.61.4,9.86.04,12.76,3.08,25.68,6.67,38.03.95,3.25,1.94,6.5,2.92,9.76-8.95-17.27-14-36.89-14-57.65,0-69.35,56.39-125.76,125.7-125.76.77,0,1.55.01,2.32.02Z"/>
            <path class="cls-7" d="M343.61,344.92c-.07,1.38-.28,2.74-.64,4.05-8.78.59-17.93.9-27.36.9-27.47,0-52.62-2.62-73.1-7.14.51-1.26,1.03-2.53,1.61-3.76,19.42,4.25,43.72,6.9,71.49,6.9,9.79,0,19.14-.33,28-.95Z"/>
            <path class="cls-15" d="M430.04,327.09c-11.66,8.06-31.69,14.59-56.85,18.55.15-1.01.5-2.02.92-2.96.2-.46.42-.91.66-1.35,25.09-4.18,43.83-10.84,53.97-18.25.71,1.21,1.14,2.59,1.29,4.01Z"/>
            <path class="cls-15" d="M366.29,357.29c-2.63,15.36-6.58,29.46-11.71,41.53-4.16,9.82-8.92,17.84-14.1,23.92-2.47,1.27-5.1,2.19-7.85,2.32,6.73-5.89,12.95-15.29,18.26-27.8,4.87-11.47,8.67-24.85,11.24-39.42,1.37-.34,2.76-.53,4.15-.55Z"/>
            <path class="cls-15" d="M434.36,351.78c-17.01,48.9-63.4,84.16-117.91,84.51-.28.01-.55.01-.83.01-29.71,0-57.05-10.36-78.58-27.67,2.91-.12,5.82.58,8.63,1.48,19.8,13.98,43.94,22.19,69.95,22.19,5.87,0,11.62-2.47,17.03-7.23,3.73-3.26,7.31-7.61,10.67-12.98,1.98-.75,3.96-1.5,5.94-2.23-2.75,4.97-5.68,9.27-8.77,12.89-3.02,3.53-6.18,6.41-9.46,8.58,44.23-5.63,81.13-35.09,97.36-75.09,1.89-1.64,3.87-3.14,5.96-4.46Z"/>
          </g>
        </g>
      </g>
      <path class="cls-9" d="M470,562c-.12,0-.23-.01-.35-.03L1.65,479.4c-.96-.17-1.65-1-1.65-1.97V2C0,.9.9,0,2,0h468c1.11,0,2,.9,2,2v558c0,.59-.26,1.15-.72,1.53-.36.3-.82.47-1.29.47ZM4,475.75l463.99,81.87V4H4v471.74Z"/>
    </g>
  </g>
  <g id="Text">
    <g>
      <path class="cls-9" d="M222.75,75.66c-2.22-2.16-3.34-5.42-3.34-9.77,0-2.91.45-5.43,1.34-7.56.9-2.13,2.14-3.75,3.72-4.87s3.35-1.68,5.3-1.68c1.18,0,2.22.22,3.12.65.9.43,1.62,1,2.16,1.7,1.15-1.57,3.15-2.35,6-2.35,2.59,0,4.64.76,6.14,2.28,1.5,1.52,2.26,3.5,2.26,5.93v18.19h-8.45v-17.23c0-.86-.14-1.51-.43-1.94-.29-.43-.77-.65-1.44-.65-1.22,0-1.98.79-2.3,2.35h-3.41c-.22-1.57-.9-2.35-2.02-2.35-.99,0-1.79.64-2.4,1.92-.61,1.28-.91,3.15-.91,5.62,0,2.21.48,3.83,1.44,4.87.96,1.04,2.5,1.56,4.61,1.56,1.09,0,2.16-.19,3.22-.58v6.48c-1.44.45-3.06.67-4.85.67-4.29,0-7.54-1.08-9.77-3.24Z"/>
      <path class="cls-9" d="M260.14,78.26c-2.19-.43-3.99-1-5.4-1.7v-13.54h12.77v5.66h-4.61v2.98c.42.19.98.35,1.68.48.7.13,1.42.19,2.16.19,2.24,0,3.93-.6,5.06-1.8,1.14-1.2,1.7-2.97,1.7-5.3s-.66-4.18-1.99-5.26c-1.33-1.07-3.61-1.61-6.84-1.61-1.66,0-3.38.16-5.16.48-1.78.32-3.24.77-4.39,1.34v-6.53c1.31-.58,2.99-1.03,5.04-1.37,2.05-.34,4.13-.5,6.24-.5,5.09,0,8.99,1.17,11.71,3.5,2.72,2.34,4.08,5.65,4.08,9.94,0,2.82-.6,5.25-1.8,7.3s-2.96,3.62-5.28,4.73c-2.32,1.1-5.11,1.66-8.38,1.66-2.21,0-4.41-.22-6.6-.65Z"/>
      <path class="cls-9" d="M292.04,77.58c-1.5-.88-2.64-2.08-3.41-3.6-.77-1.52-1.15-3.24-1.15-5.16v-16.32h8.45v15.79c0,1.34.37,2.35,1.1,3.02.74.67,1.79,1.01,3.17,1.01,1.18,0,2.19-.25,3.02-.74.83-.5,1.55-1.26,2.16-2.28v-16.8h8.45v25.68h-8.02v-2.64c-1.06,1.06-2.32,1.88-3.79,2.47-1.47.59-2.99.89-4.56.89-2.11,0-3.92-.44-5.42-1.32Z"/>
      <path class="cls-9" d="M324.63,77.58c-1.5-.88-2.64-2.08-3.41-3.6-.77-1.52-1.15-3.24-1.15-5.16v-16.32h8.45v15.79c0,1.34.37,2.35,1.1,3.02.74.67,1.79,1.01,3.17,1.01,1.18,0,2.19-.25,3.02-.74.83-.5,1.55-1.26,2.16-2.28v-16.8h8.45v25.68h-8.02v-2.64c-1.06,1.06-2.32,1.88-3.79,2.47-1.47.59-2.99.89-4.56.89-2.11,0-3.92-.44-5.42-1.32Z"/>
      <path class="cls-9" d="M323.43,44.34h15.31v-5.04h7.63v10.32h-22.94v-5.28Z"/>
      <path class="cls-9" d="M336.05,34.12c0-.32-.06-.54-.17-.67-.11-.13-.34-.19-.7-.19h-2.11v-5.28h4.7c1.22,0,2.06.24,2.54.72.48.48.72,1.14.72,1.97v1.15h8.06v4.85h-13.06v-2.54Z"/>
      <path class="cls-9" d="M352.66,62.87c0-3.65,1.23-6.41,3.7-8.28,2.46-1.87,5.78-2.81,9.94-2.81s7.51.94,9.96,2.81c2.45,1.87,3.67,4.63,3.67,8.28v15.31h-8.45v-15.17c0-3.1-1.73-4.66-5.18-4.66s-5.18,1.55-5.18,4.66v3.07c.42-.45.96-.81,1.63-1.08.67-.27,1.39-.41,2.16-.41h3.55v6.1h-3.89c-1.02,0-1.86.3-2.5.89-.64.59-.96,1.42-.96,2.47v4.13h-8.45v-15.31Z"/>
      <path class="cls-9" d="M372.39,87.11c0-.61-.11-1.03-.34-1.27-.22-.24-.64-.36-1.25-.36h-1.49v-5.28h5.57c1.82,0,3.12.42,3.89,1.25s1.15,2.16,1.15,3.98v6.14h-7.54v-4.46Z"/>
      <path class="cls-9" d="M406.25,76.1c-1.65-1.87-2.47-4.3-2.47-7.27v-5.81c0-1.6-.36-2.78-1.08-3.53-.72-.75-1.82-1.13-3.29-1.13-1.06,0-2.02.15-2.88.46-.86.3-1.7.81-2.5,1.51l1.78,3.02v6.77c0,.71.17,1.21.5,1.51.34.3.87.46,1.61.46h2.26v6.1h-6.96c-1.86,0-3.3-.54-4.32-1.61-1.02-1.07-1.54-2.55-1.54-4.44v-8.93l-2.4-4.18c3.9-4.83,8.72-7.25,14.45-7.25,4.1,0,7.23.94,9.41,2.83,2.18,1.89,3.26,4.46,3.26,7.73v5.95c0,1.31.36,2.31,1.08,3,.72.69,1.7,1.03,2.95,1.03,1.98,0,3.58-1.01,4.8-3.02v-16.8h8.45v25.68h-7.87v-2.64c-1.06,1.09-2.28,1.92-3.67,2.5-1.39.58-2.87.86-4.44.86-3.1,0-5.48-.94-7.13-2.81Z"/>
      <path class="cls-9" d="M157.95,135.85c-2.19-.43-3.99-1-5.4-1.7v-13.54h12.77v5.66h-4.61v2.98c.42.19.98.35,1.68.48.7.13,1.42.19,2.16.19,2.24,0,3.93-.6,5.06-1.8,1.14-1.2,1.7-2.97,1.7-5.3s-.66-4.18-1.99-5.26c-1.33-1.07-3.61-1.61-6.84-1.61-1.66,0-3.38.16-5.16.48-1.78.32-3.24.77-4.39,1.34v-6.53c1.31-.58,2.99-1.03,5.04-1.37,2.05-.34,4.13-.5,6.24-.5,5.09,0,8.99,1.17,11.71,3.5,2.72,2.34,4.08,5.65,4.08,9.94,0,2.82-.6,5.25-1.8,7.3s-2.96,3.62-5.28,4.73c-2.32,1.1-5.11,1.66-8.38,1.66-2.21,0-4.41-.22-6.6-.65Z"/>
      <path class="cls-9" d="M192.48,120.23c0-1.44-.33-2.51-.98-3.22-.66-.7-1.78-1.06-3.38-1.06s-3.15.4-4.75,1.2v-6.34c.74-.38,1.77-.72,3.1-1.01,1.33-.29,2.6-.43,3.82-.43,3.46,0,6.1.91,7.92,2.71,1.82,1.81,2.74,4.42,2.74,7.85v15.84h-8.45v-15.55Z"/>
      <path class="cls-9" d="M209.93,134.37c-2.48-1.42-3.72-3.53-3.72-6.31,0-1.22.3-2.3.91-3.24.61-.94,1.44-1.67,2.5-2.18-.96-.54-1.74-1.32-2.33-2.33-.59-1.01-.89-2.1-.89-3.29,0-2.3.84-4.15,2.52-5.54,1.68-1.39,4.12-2.09,7.32-2.09.93,0,1.89.07,2.88.22.99.14,1.74.3,2.26.46v6.14c-.45-.22-.98-.4-1.61-.53-.62-.13-1.19-.19-1.7-.19-1.98,0-2.98.74-2.98,2.21s1.01,2.3,3.02,2.3h3.26v5.28h-3.26c-2.14,0-3.22.82-3.22,2.45,0,1.86,1.68,2.78,5.04,2.78,1.98,0,3.44-.41,4.37-1.22.93-.82,1.39-2.04,1.39-3.67v-15.55h8.45v15.5c0,1.82-.48,3.57-1.44,5.23-.96,1.66-2.5,3.03-4.61,4.1-2.11,1.07-4.83,1.61-8.16,1.61-4.19,0-7.53-.71-10.01-2.14Z"/>
      <path class="cls-9" d="M226.61,144.71c0-.61-.11-1.03-.34-1.27-.22-.24-.64-.36-1.25-.36h-1.49v-5.28h5.57c1.82,0,3.12.42,3.89,1.25s1.15,2.16,1.15,3.98v6.14h-7.54v-4.46Z"/>
      <path class="cls-9" d="M272.12,128.87h-15.41v-5.28l15.89-21.36h8.4v19.92h4.75v6.72h-4.75v6.91h-8.88v-6.91ZM273.41,122.15v-9.6l-7.06,9.6h7.06Z"/>
      <path class="cls-9" d="M296.4,134.41c-2.34-1.39-4.14-3.4-5.4-6.02-1.26-2.62-1.9-5.74-1.9-9.36s.62-6.74,1.87-9.36c1.25-2.62,3.03-4.64,5.35-6.05,2.32-1.41,5.06-2.11,8.23-2.11s5.91.71,8.23,2.11c2.32,1.41,4.1,3.42,5.35,6.05,1.25,2.62,1.87,5.74,1.87,9.36s-.63,6.74-1.9,9.36-3.06,4.63-5.4,6.02c-2.34,1.39-5.06,2.09-8.16,2.09s-5.82-.7-8.16-2.09ZM309.56,126.04c1.18-1.66,1.78-3.97,1.78-6.91s-.58-5.32-1.75-7.03c-1.17-1.71-2.84-2.57-5.02-2.57s-3.85.86-5.02,2.57c-1.17,1.71-1.75,4.06-1.75,7.03s.59,5.25,1.78,6.91c1.18,1.66,2.85,2.5,4.99,2.5s3.81-.83,4.99-2.5Z"/>
      <path class="cls-9" d="M345.05,134.17c-1.01-1.07-1.51-2.55-1.51-4.44v-19.63h8.45v17.62c0,.74.14,1.25.43,1.54s.78.43,1.49.43h1.68v6.1h-6.24c-1.86,0-3.29-.54-4.3-1.61ZM359.07,134.17c-1.01-1.07-1.51-2.55-1.51-4.44v-19.63h8.45v17.62c0,.74.14,1.25.43,1.54s.78.43,1.49.43h1.68v6.1h-6.24c-1.86,0-3.29-.54-4.3-1.61Z"/>
      <path class="cls-9" d="M376.21,134.37c-1.68-1.42-2.52-3.5-2.52-6.22s.95-4.95,2.86-6.5c1.9-1.55,4.5-2.33,7.8-2.33,1.41,0,2.81.13,4.2.38,1.39.26,2.6.61,3.62,1.06v-.82c0-1.47-.53-2.57-1.58-3.29-1.06-.72-2.8-1.08-5.23-1.08-1.57,0-3.14.17-4.7.5-1.57.34-2.94.78-4.13,1.32v-6.14c1.09-.54,2.58-.99,4.46-1.34,1.89-.35,3.86-.53,5.9-.53,4.7,0,8.17.94,10.39,2.83,2.22,1.89,3.34,4.48,3.34,7.78v15.79h-8.45v-9.22c-1.66-.86-3.55-1.3-5.66-1.3-1.44,0-2.49.23-3.14.7-.66.46-.98,1.19-.98,2.18,0,1.82,1.23,2.74,3.7,2.74.96,0,1.81-.16,2.54-.48v5.42c-1.34.45-3.2.67-5.57.67-2.88,0-5.16-.71-6.84-2.14Z"/>
      <path class="cls-9" d="M388.08,104.1c0-.32-.06-.55-.19-.7-.13-.14-.37-.22-.72-.22h-2.3v-5.66h4.99c2.34,0,3.5,1.01,3.5,3.02v1.34h9.5v5.33h-14.78v-3.12Z"/>
      <path class="cls-9" d="M410.16,135.98c-1.7-.35-3.12-.88-4.27-1.58v-6.53c2.02,1.38,4.69,2.06,8.02,2.06,2.43,0,4.33-.57,5.69-1.7,1.36-1.14,2.04-2.89,2.04-5.26s-.68-4.13-2.04-5.28c-1.36-1.15-3.26-1.73-5.69-1.73-3.26,0-5.87.69-7.82,2.06v-6.53c1.12-.67,2.54-1.19,4.25-1.56,1.71-.37,3.53-.55,5.45-.55,4.58,0,8.14,1.18,10.7,3.55,2.56,2.37,3.84,5.71,3.84,10.03s-1.28,7.62-3.84,9.98c-2.56,2.37-6.13,3.55-10.7,3.55-2.05,0-3.92-.18-5.62-.53Z"/>
    </g>
  </g>
</svg>