<?xml version="1.0" encoding="UTF-8"?>
<svg id="Icon" xmlns="http://www.w3.org/2000/svg" viewBox="0 0 120 120">
  <defs>
    <style>
      .cls-1 {
        fill: #fff;
      }

      .cls-2 {
        fill: #dfedf2;
      }

      .cls-3 {
        fill: #333;
      }

      .cls-4 {
        fill: #a8b6c1;
      }
    </style>
  </defs>
  <path class="cls-3" d="M93.35,50.16l-.23.23,14.07,46.31c.86,2.85-.01,6.03-2.27,8.3l-2.5,2.5c-1.44,1.44-3.38,2.19-5.32,2.07-1.77-.12-3.39-.97-4.44-2.33l-25.43-33.09c-1.26,1.03-2.03,1.58-2.56,1.92-1.96,1.82-3.91,3.36-6.11,5.06-2.35,1.92-4.62,3.74-6.81,5.44-.95.79-1.94,1.61-2.95,2.44l.88,13.92c.09,1.48-.46,2.92-1.5,3.97l-2.34,2.34c-.98.97-2.28,1.51-3.64,1.51-.2,0-.41-.01-.62-.04-1.58-.19-2.97-1.08-3.8-2.44l-5.19-8.52c-.39.21-.79.41-1.18.6-.04.02-.09.05-.13.07-.2.09-.4.19-.6.28-.13.05-.25.11-.38.16-.33.15-.67.28-1,.41-.06.02-.12.04-.18.06-1.32.48-2.59.78-3.78.78s-2.33-.31-3.32-1.03c-.03-.02-.06-.05-.09-.07-.19-.14-.37-.3-.55-.47,0-.01-.01-.01-.01-.01-.16-.17-.34-.36-.5-.59-.03-.03-.05-.07-.07-.1-.06-.09-.12-.17-.18-.27-.03-.05-.06-.11-.09-.16-.05-.09-.1-.17-.14-.26-.04-.06-.06-.14-.09-.2-.04-.09-.08-.18-.12-.27-.03-.08-.05-.16-.08-.24-.03-.1-.06-.19-.09-.29-.02-.09-.03-.18-.05-.27-.03-.11-.05-.21-.07-.32-.01-.09-.02-.19-.03-.29,0-.11-.03-.21-.03-.32v-.03s-.01-.02-.01-.02c0-.03.01-.05.01-.07-.09-1.93.63-4.28,2.34-7.53l-8.61-5.26c-1.36-.82-2.25-2.21-2.44-3.79-.19-1.58.35-3.13,1.47-4.26l2.34-2.34c1.07-1.06,2.52-1.6,4.01-1.49l14.16.89c4.19-5.52,9.25-11.76,14.82-18.28L14.6,29.18c-1.37-1.06-2.22-2.68-2.34-4.44-.12-1.95.63-3.89,2.07-5.33l2.5-2.5c2.26-2.26,5.44-3.13,8.3-2.27l46.43,14.1c1.9-1.97,3.75-3.85,5.5-5.61,6.13-6.12,15.16-8.91,20.96-8.91h.02c3.2,0,5.62.81,7.22,2.4h0s.01.01.01.01h0c1.6,1.6,2.42,4.04,2.42,7.25,0,.72-.05,1.5-.13,2.31-.44,4.07-2,9.1-4.81,13.6-1.12,1.8-2.45,3.51-3.98,5.05-.79.79-1.62,1.61-2.46,2.44-.17.16-.33.32-.5.48-.8.79-1.62,1.59-2.46,2.4Z"/>
  <g>
    <path class="cls-1" d="M103.36,97.86c.43,1.42-.07,3.11-1.27,4.31l-2.5,2.5c-1.16,1.16-2.92,1.22-3.77.12l-27.97-36.4-.14-.19c-1.83,1.58-3.65,3.14-5.45,4.66h-.01c-4.5,3.81-8.89,7.39-13,10.59-.28.22-.56.44-.84.65-1.28.99-2.53,1.95-3.75,2.85l.02.25,1.01,15.98c.02.33-.11.66-.34.89l-2.34,2.34c-.53.53-1.42.42-1.81-.22l-6.99-11.47h-.01l-.23-.39c-.67.42-1.32.8-1.94,1.15-4.05,2.3-6.84,3.21-7.83,2.22-.24-.24-.36-.56-.38-.99-.12-1.66,1.27-4.74,3.76-8.8l-11.94-7.28c-.64-.39-.75-1.28-.22-1.81l2.34-2.34c.23-.23.56-.36.89-.33l16.35,1.03c5.14-6.89,11.66-14.88,18.71-23L17.04,26.01c-1.1-.85-1.04-2.61.12-3.77l2.5-2.5c1.2-1.2,2.89-1.7,4.32-1.27l48.76,14.81c2.42-2.53,4.81-4.98,7.15-7.32,7.02-7.02,19.59-9.47,22.55-6.5,2.99,2.98.52,15.53-6.5,22.55-2.35,2.35-4.82,4.76-7.36,7.19l.02.08,14.76,48.58Z"/>
    <path class="cls-2" d="M95.94,42.01c-2.35,2.35-4.82,4.76-7.36,7.19l.02.08c-7.82,7.39-15.57,14.6-20.75,19.11-2.64,2.3-4.61,3.9-5.59,4.47h-.01c-3.65,3.45-7.37,5.85-13,10.59-1.46,1.22-2.99,2.49-4.57,3.75-3.31,2.63-6.84,5.25-10.47,7.52h-.01l-.23-.39c-5.09,3.13-8.63,4.51-9.77,3.37-.24-.24-.36-.56-.38-.99,4.58-3.06,25.66-19.94,32.02-26.01,7.11-6.79,34.6-32.84,46.6-51.24,2.99,2.98.52,15.53-6.5,22.55Z"/>
    <path class="cls-4" d="M95.95,36.33c-.21.21-.43.43-.66.64.27-1.84.22-3.78-.03-5.46-.36-2.43-2.43-4.49-4.86-4.86-1.7-.25-3.66-.31-5.52-.03.22-.24.45-.47.68-.69,1.6-1.6,4.39-2.06,6.88-1.95,2.84.14,5.33,2.63,5.47,5.47.12,2.48-.35,5.26-1.95,6.87Z"/>
  </g>
</svg>