<?xml version="1.0" encoding="UTF-8"?>
<svg id="Icon" xmlns="http://www.w3.org/2000/svg" viewBox="0 0 120 120">
  <defs>
    <style>
      .cls-1 {
        fill: #fff;
      }

      .cls-2 {
        fill: #dfedf2;
      }

      .cls-3 {
        fill: #d87625;
      }

      .cls-4 {
        fill: #fff8d9;
      }

      .cls-5 {
        fill: #aa5217;
      }

      .cls-6 {
        fill: #6d3108;
      }

      .cls-7 {
        fill: #ffeda8;
      }
    </style>
  </defs>
  <path class="cls-6" d="M93.55,89.85c2.52,2.53,3.84,5.44,3.84,8.45,0,8.35-6.49,18.31-37.4,18.31-32.52,0-37.38-11.48-37.38-18.31,0-1.52.33-3,.98-4.42.65-1.42,1.61-2.76,2.86-4.01h.01s0-.02,0-.02c.23-.22.47-.46.73-.69.56-.5,1.19-.99,1.85-1.45.2-.15.4-.29.6-.43-1.44-7.54-2.24-19.46,5.33-25.09,3.87-2.87,7.15-4.76,9.54-6.14.75-.43,1.55-.89,2.2-1.3-.65-.4-1.45-.87-2.2-1.3-2.39-1.37-5.67-3.26-9.53-6.13-4.32-3.21-5.91-8.45-6.22-13.76-.57-.42-1.11-.85-1.61-1.29-3.76-3.36-4.55-6.81-4.55-9.1,0-6.71,4.69-17.87,35.58-18.29.62-.02,1.22-.02,1.81-.02.53,0,1.08,0,1.63.01,29.49.35,35.76,10.09,35.76,18.3,0,2.24-.76,5.62-4.37,8.95-.54.5-1.15.98-1.79,1.44-.15,2.66-.63,5.29-1.61,7.67-.97,2.37-2.44,4.49-4.6,6.09-3.87,2.87-7.14,4.76-9.53,6.13-.75.43-1.55.9-2.21,1.3.66.41,1.46.87,2.21,1.3,2.39,1.38,5.66,3.27,9.53,6.14,7.57,5.62,6.78,17.53,5.33,25.07.99.66,1.89,1.36,2.68,2.09.22.2.37.35.52.5Z"/>
  <g>
    <path class="cls-5" d="M93.39,98.3c0,10.46-14.95,14.31-33.4,14.31s-33.38-3.94-33.38-14.31c0-1.99.94-3.89,2.67-5.6.18-.18.36-.36.56-.53,5.37-4.85,16.85-8.2,30.15-8.2s25.01,3.41,30.32,8.32c.14.13.28.26.41.39,1.72,1.73,2.67,3.63,2.67,5.62Z"/>
    <path class="cls-3" d="M90.73,92.95c0,5.26-13.76,9.54-30.74,9.54s-30.72-4.28-30.72-9.54c0-.08,0-.17.01-.25.18-.18.36-.36.56-.53,5.37-4.85,16.85-8.2,30.15-8.2s25.01,3.41,30.32,8.32c.14.13.28.26.41.39.01.09.01.18.01.27Z"/>
    <path class="cls-1" d="M82.63,44.1c-8.9,6.61-14.38,7.67-14.38,10.65s5.48,4.04,14.38,10.65c8.9,6.61,2.29,27.13,2.29,27.13h-49.84s-6.61-20.52,2.29-27.13c8.9-6.61,14.38-7.67,14.38-10.65s-5.48-4.04-14.38-10.65c-8.9-6.61-2.29-27.13-2.29-27.13h49.84s6.61,20.52-2.29,27.13Z"/>
    <path class="cls-2" d="M77.54,65.4c6.9,6.61,1.78,27.13,1.78,27.13h-10.73c.47-7.17.98-20.47-1.11-25.78-2.94-7.45-4.75-8.64-4.75-12s1.81-4.54,4.75-11.99c2.09-5.32,1.58-18.61,1.11-25.78h10.73s5.12,20.51-1.78,27.12c-6.9,6.62-11.15,7.67-11.15,10.65s4.25,4.04,11.15,10.65Z"/>
    <path class="cls-7" d="M81.97,38.76c-.93,1.83-2.75,2.89-4.36,4.08-2.16,1.6-4.36,3.12-6.62,4.58-1.66,1.08-3.35,2.13-5.07,3.12-1.39.8-2.86,1.76-4.48,2.01-.29.05-.57.07-.86.07-1.28.01-2.57-.38-3.73-.96-1.45-.73-2.63-1.89-4.08-2.59-1.47-.71-2.83-1.73-4.26-2.55-2.34-1.35-5.26-3.03-8.76-5.63-4.18-3.11-3.26-12.92-1.75-19.42.03-.17.07-.33.11-.49h43.77c.55,2.25.95,4.54,1.18,6.84.36,3.53.55,7.67-1.09,10.94Z"/>
    <path class="cls-4" d="M60.58,52.62c-1.28.01-2.57-.38-3.73-.96-1.45-.73-2.63-1.89-4.08-2.59-1.47-.71-2.83-1.73-4.26-2.55-2.34-1.35-5.26-3.03-8.76-5.63-4.18-3.11-3.26-12.92-1.75-19.42,1.06.15,2.11.41,3.12.77,4.34,1.56,7.94,4.64,11.34,7.76,2.77,2.53,5.54,5.23,7.06,8.66,1.92,4.32,1.61,9.23,1.06,13.96Z"/>
    <path class="cls-2" d="M84.92,92.53c0-.38-.09-.76-.26-1.13-.36-.75-1.06-1.46-2.05-2.12-3.96-2.66-12.6-4.5-22.62-4.5s-18.49,1.81-22.51,4.43c-1.07.69-1.81,1.43-2.16,2.22-.16.35-.25.72-.25,1.09,0,.18.02.37.07.55.9,4,11.68,7.18,24.85,7.18s23.95-3.18,24.86-7.18c.05-.18.07-.37.07-.55Z"/>
    <path class="cls-7" d="M81.15,91.36c0,.15-.02.31-.06.46-.77,3.4-9.92,6.1-21.09,6.1-1.41,0-2.78-.04-4.11-.12-9.23-.57-16.31-3.01-16.97-5.98-.05-.15-.06-.31-.06-.46,0-.32.07-.63.21-.93.3-.67,12.51-24.14,20.93-24.14.25,0,.51.02.77.07,8.44,1.31,19.86,23.42,20.16,24.04.14.31.22.63.22.96Z"/>
    <path class="cls-5" d="M93.39,23.17c0,2.14-1.1,4.18-3.08,6.01-5.31,4.91-16.89,8.32-30.31,8.32s-24.78-3.34-30.15-8.19c-2.08-1.85-3.23-3.93-3.23-6.13,0-10.37,14.95-14.31,33.39-14.31s33.4,3.85,33.4,14.31Z"/>
    <path class="cls-3" d="M90.73,18.4c0,1.43-1.01,2.79-2.84,4-4.89,3.28-15.54,5.55-27.9,5.55s-22.81-2.23-27.75-5.46c-1.91-1.24-2.97-2.62-2.97-4.09,0-5.26,13.76-9.54,30.73-9.54s30.74,4.28,30.74,9.54Z"/>
    <path class="cls-4" d="M61.44,86.47c-.81,4.15-2.71,8.25-5.55,11.33-9.23-.57-16.31-3.01-16.97-5.98-.05-.15-.06-.31-.06-.46,0-.32.07-.63.21-.93.3-.67,12.51-24.14,20.93-24.14.25,0,.51.02.77.07,1.02,6.67,1.98,13.49.67,20.11Z"/>
  </g>
</svg>