<?xml version="1.0" encoding="UTF-8"?>
<svg id="Icon" xmlns="http://www.w3.org/2000/svg" viewBox="0 0 120 120">
  <defs>
    <style>
      .cls-1 {
        fill: #12993f;
      }

      .cls-2 {
        fill: #34d434;
      }

      .cls-3 {
        fill: #05542a;
      }
    </style>
  </defs>
  <rect class="cls-3" x="8" y="32" width="104" height="56" rx="4" ry="4"/>
  <g>
    <rect class="cls-2" x="12" y="36" width="96" height="48"/>
    <rect class="cls-1" x="16" y="40" width="88" height="40"/>
    <path class="cls-2" d="M20,70v-20c3.31,0,6-2.69,6-6h68c0,3.31,2.69,6,6,6v20c-3.31,0-6,2.69-6,6H26c0-3.31-2.69-6-6-6Z"/>
    <g>
      <path class="cls-1" d="M40.3,56.93c-.12.06-.23.1-.32.14s-.17.07-.24.09-.14.04-.2.05-.12.01-.18.01c-.13,0-.25-.02-.35-.07s-.2-.11-.28-.2-.13-.18-.17-.29-.06-.22-.06-.34c0-.26.09-.48.28-.66.12-.12.35-.29.67-.5s.74-.45,1.26-.74c.28-.15.53-.29.74-.4s.4-.2.57-.27.32-.12.46-.15.28-.05.42-.05c.37,0,.65.1.86.31s.31.49.31.86v10.57c0,.36-.1.63-.31.82s-.52.29-.94.29-.74-.1-.94-.29-.3-.46-.3-.82v-8.95l-1.28.58Z"/>
      <path class="cls-1" d="M46.72,60.17c0-1.12.13-2.1.39-2.94s.63-1.53,1.09-2.09,1.02-.97,1.66-1.25,1.34-.41,2.11-.41,1.43.13,2.05.38,1.14.64,1.59,1.17.78,1.18,1.03,1.98.36,1.74.36,2.82-.13,2.1-.39,2.94-.62,1.54-1.09,2.09-1.02.97-1.66,1.25-1.35.41-2.11.41-1.43-.13-2.05-.38-1.15-.64-1.59-1.17-.78-1.18-1.03-1.98-.36-1.74-.36-2.82ZM49.24,59.99c0,.85.07,1.56.22,2.15s.34,1.06.58,1.43.52.63.84.79.65.24,1,.24.68-.08,1-.24.59-.42.83-.78.43-.83.57-1.42.21-1.29.21-2.13-.07-1.56-.22-2.15-.34-1.06-.58-1.43-.52-.63-.84-.79-.66-.24-1.01-.24-.68.08-1,.24-.59.42-.83.78-.42.83-.57,1.42-.21,1.29-.21,2.13Z"/>
      <path class="cls-1" d="M58.97,60.17c0-1.12.13-2.1.39-2.94s.63-1.53,1.09-2.09,1.02-.97,1.66-1.25,1.34-.41,2.11-.41,1.43.13,2.05.38,1.14.64,1.59,1.17.78,1.18,1.03,1.98.36,1.74.36,2.82-.13,2.1-.39,2.94-.62,1.54-1.09,2.09-1.02.97-1.66,1.25-1.35.41-2.11.41-1.43-.13-2.05-.38-1.15-.64-1.59-1.17-.78-1.18-1.03-1.98-.36-1.74-.36-2.82ZM61.49,59.99c0,.85.07,1.56.22,2.15s.34,1.06.58,1.43.52.63.84.79.65.24,1,.24.68-.08,1-.24.59-.42.83-.78.43-.83.57-1.42.21-1.29.21-2.13-.07-1.56-.22-2.15-.34-1.06-.58-1.43-.52-.63-.84-.79-.66-.24-1.01-.24-.68.08-1,.24-.59.42-.83.78-.42.83-.57,1.42-.21,1.29-.21,2.13Z"/>
      <path class="cls-1" d="M71.22,60.17c0-1.12.13-2.1.39-2.94s.63-1.53,1.09-2.09,1.02-.97,1.66-1.25,1.34-.41,2.11-.41,1.43.13,2.05.38,1.14.64,1.59,1.17.78,1.18,1.03,1.98.36,1.74.36,2.82-.13,2.1-.39,2.94-.62,1.54-1.09,2.09-1.02.97-1.66,1.25-1.35.41-2.11.41-1.43-.13-2.05-.38-1.15-.64-1.59-1.17-.78-1.18-1.03-1.98-.36-1.74-.36-2.82ZM73.74,59.99c0,.85.07,1.56.22,2.15s.34,1.06.58,1.43.52.63.84.79.65.24,1,.24.68-.08,1-.24.59-.42.83-.78.43-.83.57-1.42.21-1.29.21-2.13-.07-1.56-.22-2.15-.34-1.06-.58-1.43-.52-.63-.84-.79-.66-.24-1.01-.24-.68.08-1,.24-.59.42-.83.78-.42.83-.57,1.42-.21,1.29-.21,2.13Z"/>
    </g>
  </g>
</svg>