<?xml version="1.0" encoding="UTF-8"?>
<svg id="Icon" xmlns="http://www.w3.org/2000/svg" viewBox="0 0 48 48">
  <defs>
    <style>
      .cls-1 {
        fill: #dd2a39;
      }

      .cls-2 {
        fill: #fff;
      }

      .cls-3 {
        fill: #f43f3f;
      }

      .cls-4 {
        fill: #ff7d63;
      }

      .cls-5 {
        fill: #7a1839;
      }
    </style>
  </defs>
  <path class="cls-5" d="M45.01,21.68h0v6.66h-.1c-1,12.46-10.96,18.98-20.79,19h-.04c-10.26,0-20.69-7.15-20.87-20.82-.48-4.02-.13-7.81.98-11.18.01-.03.02-.06.02-.08.05-.14.11-.27.16-.41.1-.29.2-.58.32-.87.12-.3.25-.6.38-.89.07-.15.14-.3.21-.44.16-.35.34-.68.52-1.01.04-.08.09-.16.13-.24C9.59,4.97,16.45.86,24.1.86c1.19,0,2.37.12,3.53.31.26.04.51.09.77.14.05.01.1.02.16.03,1.59.32,3.16.81,4.64,1.5,3.56,1.65,6.39,4.19,8.39,7.46,1.12,1.68,1.99,3.53,2.57,5.5.11.37.21.74.3,1.13.06.27.13.57.19.87.09.5.16.98.22,1.47l.06.58c.05.57.07,1.14.07,1.7v.06s.01.05.01.07Z"/>
  <g>
    <path class="cls-1" d="M43.01,21.71C40.98-6.16,1.8-1.68,5.2,26.34h0c.18,25.43,37.69,25.24,37.79,0h0v-4.63Z"/>
    <path class="cls-4" d="M43.01,21.68c0,.93-.07,1.83-.19,2.72h0c-1.33,9.11-9.2,16.1-18.71,16.1-4.88,0-9.33-1.84-12.68-4.86h0c-1.09-.98-2.06-2.09-2.9-3.3-.1-.15-.2-.29-.29-.44-.25-.38-.47-.76-.69-1.14-.1-.18-.2-.36-.29-.54l-.09-.19c-.15-.31-.3-.63-.44-.95-.93-2.17-1.47-4.55-1.51-7.06,0-.11,0-.22,0-.34,0-.7.04-1.39.12-2.06.14-1.29.41-2.54.8-3.74C8.57,8.33,15.69,2.86,24.1,2.86c3.73,0,7.22,1.08,10.15,2.94,1.08.69,2.1,1.48,3.01,2.37.58.56,1.12,1.16,1.62,1.78.32.4.62.8.9,1.22,1.07,1.57,1.9,3.31,2.45,5.18.1.33.19.67.27,1.01.06.26.12.53.17.8.08.43.15.87.2,1.32.02.18.04.35.05.53.05.54.07,1.1.07,1.66Z"/>
    <path class="cls-3" d="M43.01,21.68c0,.93-.07,1.83-.19,2.72h0c-1.33,9.11-9.2,16.1-18.71,16.1-4.88,0-9.33-1.84-12.68-4.86h0c-1.09-.98-2.06-2.09-2.9-3.3-.1-.15-.2-.29-.29-.44-.25-.38-.47-.76-.69-1.14-.1-.18-.2-.36-.29-.54-.47-1.62-.75-3.33-.78-5.11,0-.11,0-.24,0-.35,0-.72.04-1.43.12-2.12.14-1.33.43-2.62.82-3.85,2.53-7.77,9.86-13.39,18.51-13.39,3.84,0,7.43,1.11,10.45,3.03,1.11.71,2.15,1.53,3.1,2.44.11.1.22.21.32.32,1.07,1.57,1.9,3.31,2.45,5.18.1.33.19.67.27,1.01.06.26.12.53.17.8.08.43.15.87.2,1.32.02.18.04.35.05.53.05.54.07,1.1.07,1.66Z"/>
    <path class="cls-5" d="M27.94,15.7c-.13.12-.26.23-.4.34.06.04.11.09.16.14.53.5,1.16,1.39,1.16,2.84v12.32c0,1.45-.63,2.34-1.16,2.84-.73.68-1.72,1.03-2.96,1.03s-2.24-.35-2.97-1.03c-.52-.5-1.15-1.39-1.15-2.84v-12.32c0-1.45.63-2.34,1.15-2.84.05-.04.1-.09.16-.14-.14-.1-.28-.21-.4-.33-.42-.4-.75-.87-.98-1.4-.23-.54-.35-1.12-.35-1.72s.11-1.2.34-1.74c.23-.54.56-1.02.97-1.42.41-.41.91-.73,1.47-.95.55-.22,1.15-.32,1.79-.32s1.21.11,1.76.33c.54.22,1.01.53,1.42.91.41.4.74.87.97,1.4.24.53.36,1.12.36,1.72s-.12,1.2-.35,1.74c-.23.55-.56,1.03-.99,1.44Z"/>
    <path class="cls-2" d="M27.09,11.6c-.13-.29-.3-.54-.52-.75-.23-.21-.49-.38-.8-.51-.3-.12-.64-.18-1-.18-.39,0-.74.06-1.05.18-.32.13-.59.3-.81.52-.23.21-.4.47-.52.77-.13.29-.19.61-.19.96,0,.33.06.64.19.92.12.29.29.54.52.75.22.21.49.38.79.51.31.12.64.18,1.01.18s.73-.06,1.04-.18c.31-.13.58-.3.81-.52s.4-.47.53-.77c.12-.29.19-.61.19-.96,0-.33-.07-.64-.19-.92ZM26.33,17.64c-.34-.33-.88-.49-1.59-.49s-1.25.16-1.6.49c-.35.33-.52.79-.52,1.38v12.32c0,.59.17,1.05.52,1.38.35.33.88.49,1.6.49s1.25-.16,1.59-.49c.35-.33.53-.79.53-1.38v-12.32c0-.59-.18-1.05-.53-1.38Z"/>
  </g>
</svg>