<?xml version="1.0" encoding="UTF-8"?>
<svg id="Icon" xmlns="http://www.w3.org/2000/svg" viewBox="0 0 120 120">
  <defs>
    <style>
      .cls-1 {
        fill: #fff;
      }

      .cls-2 {
        fill: #dfedf2;
      }

      .cls-3 {
        fill: #fff8d9;
      }

      .cls-4 {
        fill: #231f20;
      }

      .cls-5 {
        fill: #ffeda8;
      }

      .cls-6 {
        fill: #ffe277;
      }
    </style>
  </defs>
  <path class="cls-4" d="M108.87,100.71c-2.13,2.37-6.36,4.64-11.6,6.25h-.02s-.01.01-.02.01h-.02c-.78.25-1.59.48-2.41.68-1.34.34-2.73.63-4.14.86-1.47.24-3.64.51-5.9.51-1.89,0-3.84-.19-5.49-.75-3.17-1.07-4.13-3.17-4.42-4.33-1.19-4.7,5.89-10.56,9.58-13.24l-6.09-24.06c-.89-.1-1.78-.26-2.66-.5-7.03-1.94-12.51-6.3-15.98-12.53-2.81,8.35-8.69,14.32-16.9,17.03-.86.28-1.74.5-2.62.64l-4.92,24.4c4.7,3.02,11.12,8.23,10.23,12.68-.23,1.15-1.07,3.25-4.09,4.49-1.78.73-4.23,1.11-7.09,1.11-1.88,0-3.93-.17-6.08-.49h-.04c-.81-.12-1.64-.27-2.47-.43-1.34-.27-2.72-.62-4.11-1.02-2.63-.77-7.44-2.46-10.17-5.14-2.39-2.33-2.35-4.64-2.12-5.81.96-4.75,9.88-6.98,14.36-7.8l4.9-24.33c-.25-.16-.49-.32-.74-.49-.12-.09-.24-.17-.35-.25-.38-.28-.74-.56-1.09-.86-.23-.2-.43-.41-.65-.61-6.59-6.1-9.44-14.49-8.1-23.88.09-.64.21-1.29.34-1.95,3.89-19.3,8.94-27.22,9.55-28.12,1.04-1.58,3.19-3.04,7.46-3.48,3.24-.34,7.31-.06,11.47.78,2.99.61,6,1.48,8.62,2.61,2.87-3.1,8.43-5.46,13.97-6.86,7.7-1.95,16.29-2.29,19.16,1.94,1.04,1.45,6.19,9.27,10.79,27.45,2.62,10.37.1,19.89-7.11,26.81-.65.63-1.36,1.18-2.09,1.69l6.1,24.15c5.54.69,13.59,2.62,14.71,7.03h0c.28,1.14.43,3.39-1.75,5.81Z"/>
  <g>
    <g>
      <path class="cls-2" d="M95.13,36.2c2.91,11.5-1.75,18.87-6,22.94-3.27,3.15-8.01,4.34-12.39,3.13-5.67-1.57-13.28-5.83-16.19-17.33-4.88-19.31-3.45-27.95-3.45-27.95l27.77-7.02s5.37,6.91,10.25,26.22Z"/>
      <path class="cls-1" d="M82.73,57.77l1.12,4.44c-2.29.68-4.75.72-7.11.07-5.67-1.57-13.27-5.83-16.18-17.33-4.88-19.31-3.45-27.95-3.45-27.95l2.63-.67s-.97,7.76,3.47,25.33c2.64,10.45,8.94,14.48,13.62,16.03,1.97.66,4.02.67,5.89.07Z"/>
      <path class="cls-5" d="M87.25,55.8c-2.77,2.65-6.75,3.66-10.44,2.64-4.78-1.33-11.19-4.92-13.63-14.6-1.05-4.16-1.75-7.71-2.22-10.72-.05-.37-.11-.73-.16-1.09-.01-.04-.01-.1-.02-.14,0-.02.01-.05.02-.07.78-2.39,7.25-4.24,15.13-4.24,1.1,0,2.17.03,3.2.11,3.56.23,6.66.86,8.81,1.72,1.55.63,2.61,1.37,3.01,2.16.01.02.02.04.02.05.05.17.11.34.15.52.4,1.36.78,2.8,1.18,4.34,2.45,9.68-1.47,15.89-5.05,19.33Z"/>
      <path class="cls-6" d="M86.45,55.99c-.81.9-1.75,1.59-2.78,2.05.05-.15.1-.33.14-.5.64-2.82.9-8.38-1.68-18.57-.2-.78-.39-1.55-.59-2.29-.88-3.46-1.7-6.45-2.42-9,3.56.23,6.66.86,8.81,1.72.48,1.55.98,3.23,1.46,5.08.23.83.46,1.68.68,2.56,2.45,9.68-.69,15.69-3.63,18.96Z"/>
      <path class="cls-1" d="M85.15,10.51c.16.65-.14,1.39-.83,2.15-1.85,2.06-6.44,4.32-12.07,5.74s-10.65,1.61-13.28.71c-1.01-.34-1.66-.85-1.83-1.52-.61-2.4,5.17-5.93,12.9-7.89s14.5-1.59,15.11.8Z"/>
      <path class="cls-2" d="M82.41,11.2c.13.52-.11,1.12-.67,1.73-1.49,1.65-5.19,3.48-9.72,4.62s-8.57,1.3-10.69.57c-.82-.28-1.33-.69-1.47-1.22-.49-1.93,4.16-4.77,10.39-6.35s11.67-1.28,12.16.65Z"/>
      <path class="cls-3" d="M91.14,32.29c0,.06,0,.13-.02.18-.07.64-.56,1.25-1.39,1.8-.11.07-.21.14-.33.2-1.69,1-4.47,1.78-7.86,2.21-1.74.22-3.64.34-5.62.34-6.05,0-11.29-1.11-13.73-2.7-.58-.38-1-.77-1.24-1.2-.13-.22-.2-.46-.22-.7-.01-.04-.01-.08-.01-.13,0-.14.01-.27.05-.4,0-.02.01-.05.02-.07.78-2.39,7.25-4.24,15.13-4.24,1.1,0,2.17.03,3.2.11,3.56.23,6.66.86,8.81,1.72,1.55.63,2.61,1.37,3.01,2.16.01.02.02.04.02.05.03.05.05.12.07.17.03.12.06.23.07.35.02.05.02.11.02.16Z"/>
      <rect class="cls-2" x="85.15" y="59.61" width="3.83" height="34.83" transform="translate(-16.23 23.7) rotate(-14.19)"/>
      <rect class="cls-1" x="85.17" y="59.78" width="2.43" height="34.83" transform="translate(-16.29 23.54) rotate(-14.19)"/>
      <path class="cls-2" d="M106.73,95.88c.16.65-.14,1.38-.84,2.15-1.6,1.77-5.24,3.71-9.84,5.11.44-.64.73-1.38.86-2.18.11-.72.09-1.49-.1-2.26-.53-2.08-3.6-5.58-5.55-7.16,3.58-.38,14.89,2.05,15.47,4.33Z"/>
      <path class="cls-1" d="M96.82,98.71c.19.77.22,1.54.1,2.26-.13.8-.42,1.54-.86,2.18-.72.23-1.46.44-2.24.63-1.31.33-2.59.59-3.81.79-4,.65-7.45.6-9.46-.08-1.02-.34-1.66-.85-1.83-1.52-.5-1.97,5.98-7.88,9.92-10.32.85-.52,1.59-.89,2.1-1.02.14-.04.32-.07.52-.08,1.95,1.58,5.03,5.08,5.55,7.16Z"/>
    </g>
    <g>
      <path class="cls-2" d="M56.87,48.74c-2.34,11.63-9.73,16.26-15.32,18.1-4.31,1.42-9.1.46-12.53-2.52-4.44-3.87-9.46-11-7.11-22.62,3.94-19.53,8.96-26.69,8.96-26.69l28.08,5.66s1.86,8.55-2.08,28.08Z"/>
      <path class="cls-1" d="M36.37,62.83l-.9,4.49c-2.36-.38-4.6-1.4-6.45-3.01-4.43-3.87-9.46-10.99-7.11-22.62,3.94-19.53,8.96-26.69,8.96-26.69l2.66.54s-4.22,6.58-7.8,24.34c-2.13,10.57,1.81,16.92,5.36,20.34,1.49,1.45,3.34,2.34,5.28,2.61Z"/>
      <path class="cls-5" d="M56.04,35.51c-.01.13-.02.25-.04.39-.01.1-.02.19-.03.3-.31,3.17-.85,7.01-1.76,11.56-1.97,9.8-8.2,13.7-12.9,15.25-3.64,1.21-7.67.39-10.56-2.12-3.73-3.25-7.96-9.27-5.99-19.05.47-2.3.94-4.39,1.42-6.29.04-.16.08-.32.13-.48.01-.01.02-.03.02-.05,1.09-2.25,7.29-3.95,14.78-3.95,1.86,0,3.63.11,5.26.3,2.5.29,4.69.78,6.35,1.42,1.77.67,2.94,1.51,3.26,2.42.03.11.05.21.07.32Z"/>
      <path class="cls-6" d="M53.91,34.81c-.03.21-.04.43-.07.66-.1.88-.21,1.82-.34,2.81-.36,2.63-.86,5.63-1.55,9.03-1.97,9.79-7.4,13.86-11.45,15.53-1.11.46-2.27.67-3.39.64.12-.11.22-.24.34-.38,1.79-2.27,4.43-7.17,6.51-17.46.39-1.95.74-3.76,1.06-5.46.49-2.6.9-4.9,1.25-6.92.03-.23.06-.47.12-.69.04-.41.03-.82-.03-1.21,2.5.29,4.69.78,6.35,1.42.72.68,1.15,1.37,1.21,2.04Z"/>
      <path class="cls-1" d="M58.96,21.25c-.13.66-.73,1.19-1.68,1.58-2.55,1.06-7.68,1.11-13.37-.03-5.64-1.14-10.3-3.14-12.28-5.09-.77-.75-1.13-1.48-.99-2.16.49-2.42,7.22-3.12,15.04-1.54,7.82,1.58,13.77,4.82,13.28,7.25Z"/>
      <path class="cls-2" d="M56.2,20.7c-.11.53-.58.96-1.35,1.27-2.06.85-6.18.9-10.76-.03-4.54-.91-8.29-2.53-9.88-4.1-.62-.6-.91-1.19-.8-1.74.39-1.95,5.82-2.51,12.11-1.24s11.08,3.88,10.69,5.83Z"/>
      <path class="cls-3" d="M56.05,35.7c0,.05,0,.12-.01.18-.01.11-.04.21-.07.32-.18.51-.63,1-1.29,1.44-.34.22-.72.43-1.17.64-1.98.92-4.97,1.61-8.48,1.9-1.25.12-2.57.17-3.92.17-5.95,0-11.09-1.09-13.49-2.66-.88-.57-1.39-1.2-1.44-1.87-.01-.04-.01-.07-.01-.12,0-.05,0-.11.01-.16.01-.11.03-.21.06-.31.02-.05.04-.12.06-.17.01-.01.02-.03.02-.05,1.09-2.25,7.29-3.95,14.78-3.95,1.86,0,3.63.11,5.26.3,2.5.29,4.69.78,6.35,1.42,1.77.67,2.94,1.51,3.26,2.42.03.11.05.21.07.32.01.06.01.13.01.19Z"/>
      <rect class="cls-2" x="14.55" y="80.16" width="34.83" height="3.83" transform="translate(-54.8 97.2) rotate(-78.61)"/>
      <rect class="cls-1" x="13.87" y="80.72" width="34.83" height="2.43" transform="translate(-55.22 96.41) rotate(-78.61)"/>
      <path class="cls-2" d="M41.56,107.57c-.13.65-.73,1.18-1.68,1.58-2.21.91-6.33,1.08-11.08.36.67-.38,1.26-.93,1.72-1.59.41-.6.73-1.3.88-2.08.42-2.1-.84-6.58-1.91-8.85,3.39,1.2,12.54,8.28,12.08,10.59Z"/>
      <path class="cls-1" d="M31.4,105.84c-.16.78-.47,1.48-.88,2.08-.46.66-1.04,1.21-1.72,1.59-.75-.11-1.51-.24-2.29-.4-1.32-.27-2.59-.59-3.78-.93-3.89-1.14-6.98-2.67-8.5-4.16-.77-.75-1.13-1.48-.99-2.16.4-2,8.8-4.52,13.41-5.02.99-.1,1.82-.12,2.34-.02.15.03.32.08.5.15,1.08,2.27,2.34,6.75,1.91,8.85Z"/>
    </g>
  </g>
</svg>