<?xml version="1.0" encoding="UTF-8"?>
<svg id="Icon" xmlns="http://www.w3.org/2000/svg" viewBox="0 0 120 120">
  <defs>
    <style>
      .cls-1 {
        fill: #fff8d9;
      }

      .cls-2 {
        fill: #f4b545;
      }

      .cls-3 {
        fill: #6d3108;
      }

      .cls-4 {
        fill: #ffe277;
      }

      .cls-5 {
        opacity: .5;
      }
    </style>
  </defs>
  <path class="cls-3" d="M110.47,73.98l-18.36,4.92-23.97,6.42h-.01l-44.85,12.02c-.34.09-.68.14-1.03.14-.7,0-1.39-.19-2-.54-.92-.53-1.59-1.4-1.87-2.43l-3.46-12.92-8.22-30.67c-.57-2.13.7-4.33,2.83-4.9l17.7-4.74,21.13-5.66,48.36-12.96c1.02-.28,2.11-.13,3.03.4.92.53,1.59,1.4,1.87,2.43l11.68,43.59c.57,2.13-.7,4.33-2.83,4.9Z"/>
  <g>
    <rect class="cls-4" x="14.87" y="37.44" width="90.26" height="45.13" transform="translate(-13.48 17.57) rotate(-15)"/>
    <polygon class="cls-1" points="63.86 35.61 50.37 85.94 22.25 93.48 18.79 80.55 28.27 45.14 63.86 35.61"/>
    <polygon class="cls-2" points="97.75 26.52 103.01 46.16 95.6 73.82 67.1 81.46 80.59 31.12 97.75 26.52"/>
    <g>
      <path class="cls-3" d="M21.13,57.5c.12-.03.22-.02.31.03s.15.16.19.31.04.27-.01.36c-.05.09-.13.15-.26.18l-2.36.63c-.16.04-.3.03-.41-.03s-.19-.18-.23-.33l-1.2-4.48c-.04-.16-.03-.29.04-.4.07-.11.19-.19.38-.24s.34-.05.45.01c.11.06.19.17.23.32l1.1,4.1,1.76-.47Z"/>
      <path class="cls-3" d="M21.64,55.47c-.12-.45-.16-.87-.13-1.26.03-.39.13-.74.3-1.05.17-.31.4-.57.69-.79.29-.22.64-.38,1.04-.49s.76-.14,1.11-.1.67.15.96.32c.29.18.54.42.75.72.21.3.38.67.49,1.1.12.45.16.87.13,1.26-.03.39-.13.74-.3,1.05-.17.31-.4.57-.69.79-.29.22-.64.38-1.04.49s-.76.14-1.11.1-.67-.15-.96-.32c-.29-.17-.54-.41-.75-.72-.21-.3-.38-.67-.49-1.1ZM22.75,55.09c.08.32.2.58.34.8.14.22.31.39.48.52s.37.21.58.24c.21.03.41.02.62-.03s.39-.15.55-.28c.16-.13.29-.29.38-.49.09-.2.14-.43.15-.68.01-.26-.02-.55-.11-.86s-.2-.58-.34-.81c-.14-.22-.3-.39-.48-.52-.18-.13-.37-.2-.58-.24s-.41-.02-.62.03-.39.15-.55.28c-.16.13-.28.29-.37.49-.09.2-.14.43-.16.69s.02.55.11.86Z"/>
      <path class="cls-3" d="M27.37,51.89c-.12.03-.22.02-.31-.03-.09-.05-.15-.16-.19-.31s-.04-.27.01-.36c.05-.09.13-.15.25-.18l3.59-.96c.12-.03.22-.02.31.03.09.05.15.16.19.31s.04.27-.01.36c-.05.09-.13.15-.25.18l-1.24.33,1.1,4.1c.04.16.03.29-.04.4-.07.11-.19.19-.38.24s-.34.05-.45-.01c-.11-.06-.19-.17-.23-.32l-1.1-4.1-1.24.33Z"/>
      <path class="cls-3" d="M32.27,50.58c-.12.03-.22.02-.31-.03-.09-.05-.15-.16-.19-.31s-.04-.27.01-.36c.05-.09.13-.15.25-.18l3.59-.96c.12-.03.22-.02.31.03.09.05.15.16.19.31s.04.27-.01.36c-.05.09-.13.15-.25.18l-1.24.33,1.1,4.1c.04.16.03.29-.04.4-.07.11-.19.19-.38.24s-.34.05-.45-.01c-.11-.06-.19-.17-.23-.32l-1.1-4.1-1.24.33Z"/>
      <path class="cls-3" d="M39.39,52.64l1.86-.5c.11-.03.21-.02.3.04.09.05.15.15.19.29s.03.26-.01.35c-.05.09-.13.15-.24.18l-2.46.66c-.16.04-.3.03-.41-.03s-.19-.18-.23-.33l-1.19-4.44c-.04-.16-.03-.29.03-.4s.18-.19.34-.23l2.44-.65c.12-.03.22-.02.3.03.09.05.15.15.19.29s.03.26-.01.35c-.05.09-.13.15-.25.18l-1.84.49.37,1.39,1.57-.42c.11-.03.21-.02.3.04.09.05.15.15.19.29s.03.25-.02.34c-.05.09-.13.15-.24.18l-1.57.42.4,1.5Z"/>
      <path class="cls-3" d="M44.09,51.8c.04.16.03.29-.04.39-.07.11-.19.19-.37.24s-.34.04-.44-.02c-.11-.06-.19-.17-.23-.32l-1.2-4.48c-.04-.16-.03-.29.03-.4s.18-.19.34-.23l1.16-.31c.37-.1.7-.15.99-.14.29,0,.54.05.75.14s.39.22.52.39c.13.17.23.36.29.59.05.19.07.37.06.54-.01.17-.05.33-.11.49s-.15.29-.26.42c-.11.13-.24.24-.39.34l1.44,1.29c.06.06.11.11.14.15.03.04.06.09.07.15.02.08.02.15,0,.23-.02.07-.05.14-.09.21-.05.06-.1.12-.17.17-.07.05-.14.08-.22.1s-.15.03-.21.02-.12-.03-.18-.06c-.02-.01-.04-.02-.06-.04-.02-.01-.04-.03-.05-.04s-.03-.03-.05-.05c-.02-.02-.04-.04-.06-.06l-1.59-1.56-.55.15.46,1.72ZM43.96,49.1c.18-.05.33-.11.45-.18.12-.07.22-.16.28-.25.07-.09.11-.2.12-.31.02-.11,0-.23-.02-.34s-.08-.22-.15-.31-.15-.15-.25-.19c-.1-.04-.23-.07-.38-.07s-.32.03-.51.08l-.53.14.43,1.59.56-.15Z"/>
      <path class="cls-3" d="M46.62,46.8s-.07-.07-.1-.1c-.03-.03-.06-.06-.08-.09-.02-.03-.04-.06-.06-.09-.02-.03-.03-.06-.04-.1-.02-.08-.02-.17,0-.24.02-.08.05-.15.1-.22.05-.06.1-.12.17-.17.07-.05.13-.08.2-.1.08-.02.14-.02.2-.01.06.01.11.03.15.05.04.02.08.05.12.09s.1.09.17.16l1.26,1.29s.08.09.12.13c.04.04.07.08.1.12.04.04.07.08.1.12h.02c0-.05.01-.11.02-.16,0-.05.02-.1.03-.16,0-.06.02-.12.04-.18l.4-1.71c.02-.1.04-.18.06-.23.01-.05.03-.1.06-.14.03-.05.07-.09.12-.13.05-.04.1-.06.16-.08.07-.02.15-.02.22-.02.08,0,.15.03.21.06.07.03.12.07.18.13.05.05.09.12.11.19.02.07.02.14,0,.2-.01.07-.03.15-.06.25l-.8,2.84.44,1.66c.04.16.03.29-.04.4-.07.11-.2.19-.38.24s-.34.05-.45-.02c-.11-.06-.19-.17-.23-.32l-.44-1.66-2.06-2Z"/>
    </g>
    <g>
      <path class="cls-3" d="M58.83,44.3s-.05.04-.08.06c-.02.02-.04.03-.06.04-.02.01-.03.02-.05.03-.02,0-.03.01-.05.02-.03,0-.07.01-.1,0-.03,0-.06-.02-.09-.03s-.05-.04-.07-.06-.03-.06-.04-.09c-.02-.07,0-.14.03-.2.02-.04.07-.1.15-.18s.17-.18.29-.29c.07-.06.12-.12.17-.16.05-.05.09-.08.13-.11.04-.03.08-.06.11-.07.04-.02.07-.03.11-.04.1-.03.18-.02.26.02.07.04.12.11.15.21l.77,2.86c.03.1.02.18-.02.24-.04.07-.12.12-.23.15s-.21.03-.27,0c-.07-.04-.12-.1-.14-.2l-.65-2.42-.3.25Z"/>
      <path class="cls-3" d="M64.58,44.52c-.13.04-.24.03-.33-.02-.08-.05-.14-.13-.17-.24,0-.03-.01-.06-.02-.09,0-.03,0-.06,0-.09s0-.06.02-.1c0-.03.02-.07.03-.12l.61-1.77c.03-.08.05-.14.09-.2s.07-.1.11-.14c.04-.04.09-.07.14-.1s.11-.05.17-.07c.14-.04.25-.04.34,0,.09.04.15.12.18.24l.45,1.67.31-.08c.07-.02.13-.01.18.02.05.03.09.09.11.18s.02.16,0,.21-.08.09-.15.11l-.31.08.17.63c.03.1.02.18-.02.24-.04.06-.11.11-.23.14s-.2.03-.26,0c-.07-.03-.11-.1-.14-.2l-.17-.63-1.11.3ZM65.19,42.36l-.53,1.58.89-.24-.36-1.34Z"/>
      <path class="cls-3" d="M70.42,41.2s-.05.04-.08.06c-.02.02-.04.03-.06.04-.02.01-.03.02-.05.03-.02,0-.03.01-.05.02-.03,0-.07.01-.1,0-.03,0-.06-.02-.09-.03s-.05-.04-.07-.06-.03-.06-.04-.09c-.02-.07,0-.14.03-.2.02-.04.07-.1.15-.18s.17-.18.29-.29c.07-.06.12-.12.17-.16.05-.05.09-.08.13-.11.04-.03.08-.06.11-.07.04-.02.07-.03.11-.04.1-.03.18-.02.26.02.07.04.12.11.15.21l.77,2.86c.03.1.02.18-.02.24-.04.07-.12.12-.23.15s-.21.03-.27,0c-.07-.04-.12-.1-.14-.2l-.65-2.42-.3.25Z"/>
      <path class="cls-3" d="M76.25,40.06c.26-.06.48-.08.67-.07.19.01.36.05.5.11.14.06.25.15.34.27.09.11.15.25.19.4.04.16.06.32.04.47-.02.15-.07.29-.15.42s-.2.24-.35.34c-.15.1-.33.17-.54.23-.1.03-.2.05-.29.06-.09.01-.17.02-.24.01-.07,0-.13,0-.18-.02s-.09-.03-.12-.04c-.04-.02-.07-.05-.09-.08-.02-.03-.04-.07-.06-.12-.02-.07-.01-.13.02-.18.03-.05.08-.08.14-.1.04,0,.07-.01.11,0s.08.01.14.02.11,0,.18,0c.07,0,.15-.02.25-.04s.18-.06.25-.11.12-.1.16-.16c.04-.06.06-.13.07-.2,0-.07,0-.15-.02-.24-.02-.09-.07-.17-.13-.23s-.14-.12-.24-.15c-.1-.03-.22-.05-.37-.04s-.31.03-.5.08c-.08.02-.15.02-.2-.01-.05-.03-.08-.09-.1-.17l-.28-1.3c-.02-.09-.01-.16.02-.22.04-.06.1-.1.19-.12l1.31-.35c.07-.02.13-.01.19.02.06.03.1.1.12.19s.02.17,0,.23c-.03.06-.08.1-.15.11l-1.04.28.16.74Z"/>
      <path class="cls-3" d="M81.66,38.19s-.05.04-.08.06c-.02.02-.04.03-.06.04-.02.01-.03.02-.05.03-.02,0-.03.01-.05.02-.03,0-.07.01-.1,0-.03,0-.06-.02-.09-.03s-.05-.04-.07-.06-.03-.06-.04-.09c-.02-.07,0-.14.03-.2.02-.04.07-.1.15-.18s.17-.18.29-.29c.07-.06.12-.12.17-.16.05-.05.09-.08.13-.11.04-.03.08-.06.11-.07.04-.02.07-.03.11-.04.1-.03.18-.02.26.02.07.04.12.11.15.21l.77,2.86c.03.1.02.18-.02.24-.04.07-.12.12-.23.15s-.21.03-.27,0c-.07-.04-.12-.1-.14-.2l-.65-2.42-.3.25Z"/>
      <path class="cls-3" d="M87,36.76s-.05.04-.08.06c-.02.02-.04.03-.06.04-.02.01-.03.02-.05.03-.02,0-.03.01-.05.02-.03,0-.07.01-.1,0-.03,0-.06-.02-.09-.03s-.05-.04-.07-.06-.03-.06-.04-.09c-.02-.07,0-.14.03-.2.02-.04.07-.1.15-.18s.17-.18.29-.29c.07-.06.12-.12.17-.16.05-.05.09-.08.13-.11.04-.03.08-.06.11-.07.04-.02.07-.03.11-.04.1-.03.18-.02.26.02.07.04.12.11.15.21l.77,2.86c.03.1.02.18-.02.24-.04.07-.12.12-.23.15s-.21.03-.27,0c-.07-.04-.12-.1-.14-.2l-.65-2.42-.3.25Z"/>
      <path class="cls-3" d="M94.46,36.9c.07-.02.13-.01.19.02.05.04.09.1.12.19s.02.17,0,.22-.08.1-.15.12l-1.7.46c-.11.03-.21.02-.29-.02-.08-.04-.13-.12-.16-.22-.02-.07-.02-.13-.01-.2.01-.06.04-.13.08-.21l.42-.83c.09-.17.16-.32.23-.45.06-.13.11-.24.15-.34s.05-.19.06-.28,0-.17-.02-.26c-.04-.15-.11-.25-.22-.31-.11-.05-.25-.06-.44,0-.07.02-.14.04-.19.07-.05.03-.1.05-.14.08-.04.03-.08.05-.11.07-.03.02-.07.04-.1.05-.06.02-.11.01-.16-.02s-.08-.08-.1-.14c-.02-.07-.01-.14.03-.2.02-.04.05-.07.1-.12.05-.04.1-.08.17-.13s.15-.08.24-.12c.09-.04.19-.07.3-.1.18-.05.35-.07.49-.07.15,0,.28.03.39.09s.2.13.28.22c.07.09.13.21.16.34s.05.27.04.39c0,.13-.03.26-.08.4-.05.14-.11.3-.19.46s-.18.36-.3.58l-.33.61,1.29-.34Z"/>
    </g>
    <g>
      <path class="cls-3" d="M68.48,55.31l-.06-.22.58-1.11c.07-.13.12-.24.16-.34.04-.09.07-.18.08-.26.01-.08,0-.15-.01-.23-.02-.09-.06-.16-.12-.21-.06-.05-.13-.09-.21-.1s-.17-.01-.26.01c-.1.03-.17.07-.23.13s-.1.13-.12.21c-.02.08-.02.17,0,.26l-.28.08c-.04-.14-.04-.28,0-.41.04-.13.11-.24.2-.33s.22-.16.36-.2.28-.04.41-.01c.13.03.24.09.33.18s.15.19.19.32c.02.09.03.18.02.28,0,.1-.04.21-.09.33-.05.13-.13.29-.23.48l-.4.74v.02s1.15-.31,1.15-.31l.07.27-1.56.42Z"/>
      <path class="cls-3" d="M70.29,54.28l-.07-.25.63-2.01.18-.05.1.38-.12.03-.47,1.52v.02s1.47-.39,1.47-.39l.07.27-1.79.48ZM71.59,54.48l-.16-.58-.03-.11-.48-1.78.29-.08.66,2.47-.29.08Z"/>
      <path class="cls-3" d="M73.95,51.19l.3-.08.47,1.77c.04.16.05.3.02.43-.03.13-.09.23-.18.32s-.21.15-.35.19c-.14.04-.26.04-.38.02-.12-.02-.22-.07-.31-.15-.08-.08-.14-.18-.18-.3l.29-.08c.02.07.05.13.1.17.05.04.11.07.18.08.07.01.14,0,.22-.01.09-.02.15-.06.21-.11.05-.05.08-.12.1-.2.01-.08,0-.17-.02-.27l-.47-1.77Z"/>
      <path class="cls-3" d="M76.47,50.52l.3-.08.44,1.64c.05.17.05.33,0,.48-.04.15-.13.29-.25.4-.12.11-.28.2-.48.25s-.37.06-.54.02-.3-.11-.42-.22c-.11-.11-.19-.25-.24-.42l-.44-1.64.3-.08.43,1.61c.03.12.09.22.17.3s.17.13.29.16c.11.03.24.02.38-.01s.25-.1.33-.18c.08-.08.14-.17.17-.28.03-.11.02-.22,0-.34l-.43-1.61Z"/>
      <path class="cls-3" d="M79.33,49.75l.66,2.47-.29.08-1.87-1.58h-.02s.52,1.95.52,1.95l-.3.08-.66-2.47.29-.08,1.87,1.58h.02s-.52-1.95-.52-1.95l.29-.08Z"/>
      <path class="cls-3" d="M80.59,52.06l-.66-2.47,1.49-.4.07.27-1.19.32.22.84,1.12-.3.07.27-1.12.3.23.84,1.21-.32.07.27-1.51.41Z"/>
      <path class="cls-3" d="M83.74,48.57l.66,2.47-.3.08-.58-2.16h-.01s-.5.57-.5.57l-.08-.3.51-.58.3-.08Z"/>
      <path class="cls-3" d="M85.23,48.13c.1-.03.21-.03.32-.02.11.01.22.05.33.11s.21.17.3.3c.09.14.17.32.23.55s.09.42.09.6c0,.18-.02.34-.06.48-.05.14-.12.25-.21.34-.09.09-.21.15-.35.19s-.27.04-.39.02c-.12-.03-.23-.08-.33-.16-.1-.08-.17-.18-.22-.31l.29-.08c.06.11.13.19.23.24.1.05.21.06.34.03.19-.05.32-.17.39-.37s.06-.45-.02-.75h-.02c-.03.08-.06.16-.11.22-.05.07-.11.12-.18.17s-.15.08-.23.1c-.14.04-.28.04-.42,0-.14-.04-.26-.11-.36-.22s-.18-.24-.22-.4c-.04-.15-.04-.3,0-.44.03-.14.1-.27.21-.38.1-.11.24-.18.41-.23ZM85.3,48.4c-.1.03-.19.08-.25.15-.07.07-.11.16-.14.25-.02.1-.02.2,0,.3s.08.19.14.26.15.12.24.15c.09.03.19.03.29,0,.08-.02.14-.05.2-.1.06-.05.1-.1.14-.17s.06-.14.07-.21,0-.15-.01-.22c-.03-.1-.07-.18-.14-.25-.07-.07-.15-.12-.25-.15s-.19-.03-.3,0Z"/>
      <path class="cls-3" d="M88.08,50.09c-.16.04-.31.05-.45.03-.14-.02-.26-.07-.36-.15-.1-.08-.17-.18-.21-.31l.3-.08c.03.08.07.14.14.18.06.04.14.07.23.08.09.01.18,0,.27-.02.11-.03.2-.07.27-.13.07-.06.12-.13.15-.21s.03-.16,0-.25-.07-.17-.13-.22-.14-.09-.24-.11c-.1-.02-.21,0-.33.03l-.2.05-.07-.27.2-.05c.1-.03.18-.07.24-.12s.11-.12.13-.2.03-.16,0-.24-.06-.15-.11-.2c-.05-.05-.12-.09-.2-.1-.08-.02-.16-.01-.25.01-.09.02-.16.06-.23.11-.07.05-.12.11-.15.18-.03.07-.04.15-.02.23l-.29.08c-.03-.13-.02-.26.03-.37s.12-.22.23-.31c.1-.09.23-.15.37-.19.15-.04.29-.05.42-.01.13.03.23.09.32.18.09.09.14.19.18.3.04.14.03.27-.01.39-.05.12-.13.21-.24.28v.02c.17-.02.31.02.42.1.12.08.2.2.24.36.04.13.03.26-.01.39-.04.13-.12.24-.23.33-.11.09-.24.16-.4.21Z"/>
      <path class="cls-3" d="M89.4,49.7l-.06-.22.58-1.11c.07-.13.12-.24.16-.34.04-.09.07-.18.08-.26.01-.08,0-.15-.01-.23-.02-.09-.06-.16-.12-.21-.06-.05-.13-.09-.21-.1s-.17-.01-.26.01c-.1.03-.17.07-.23.13s-.1.13-.12.21c-.02.08-.02.17,0,.26l-.28.08c-.04-.14-.04-.28,0-.41.04-.13.11-.24.2-.33s.22-.16.36-.2.28-.04.41-.01c.13.03.24.09.33.18s.15.19.19.32c.02.09.03.18.02.28,0,.1-.04.21-.09.33-.05.13-.13.29-.23.48l-.4.74v.02s1.15-.31,1.15-.31l.07.27-1.56.42Z"/>
    </g>
    <g>
      <path class="cls-3" d="M66.89,64.56l-.66-2.47.98-.26c.19-.05.36-.06.51-.02s.28.11.38.21c.1.11.18.24.22.41s.05.32.01.46c-.04.14-.11.27-.23.38-.12.11-.27.18-.46.24l-.62.17-.11-.42.54-.14c.1-.03.18-.07.24-.12.06-.05.09-.11.11-.19.02-.07.01-.15,0-.23s-.06-.15-.11-.2c-.05-.05-.11-.09-.19-.1-.08-.02-.16-.01-.26.02l-.35.09.55,2.05-.52.14Z"/>
      <path class="cls-3" d="M69.91,63.79c-.19.05-.37.06-.52.02-.16-.04-.29-.12-.41-.25-.11-.12-.19-.28-.25-.48s-.06-.37-.02-.53c.04-.16.11-.3.22-.42.11-.12.26-.2.44-.25.12-.03.24-.04.36-.03.12.01.22.04.32.1.1.06.19.14.26.24.08.11.13.24.18.4l.04.14-1.57.42-.09-.32,1.08-.29c-.02-.07-.05-.14-.1-.18s-.1-.08-.17-.1-.14-.02-.21,0-.14.06-.19.11-.08.11-.1.18-.02.14,0,.21l.08.3c.02.09.06.17.12.22.05.06.11.1.19.12.07.02.15.02.24,0,.06-.02.11-.04.15-.07.04-.03.08-.06.1-.11.03-.04.04-.09.05-.14l.48-.1c0,.12-.02.23-.07.34-.05.1-.13.2-.23.27-.1.08-.23.14-.39.18Z"/>
      <path class="cls-3" d="M71.09,63.44l-.5-1.85.5-.13.09.32h.02c0-.13.04-.23.1-.31.06-.08.15-.13.25-.16.03,0,.05-.01.08-.02.03,0,.06,0,.08,0l.12.46s-.06,0-.11,0c-.04,0-.08.01-.12.02-.08.02-.14.05-.19.1-.05.05-.08.11-.1.17s-.02.14,0,.21l.28,1.05-.51.14Z"/>
      <path class="cls-3" d="M72.17,60.91c-.08.02-.15.01-.22-.02-.07-.04-.11-.09-.13-.16s0-.14.03-.21c.04-.07.1-.11.18-.13s.15-.01.22.02c.07.04.11.09.13.16s0,.14-.03.21c-.04.07-.1.11-.18.13ZM72.48,63.07l-.5-1.85.51-.14.5,1.85-.51.14Z"/>
      <path class="cls-3" d="M74.25,62.63c-.19.05-.36.05-.52.01-.16-.04-.29-.13-.41-.25-.11-.12-.19-.28-.25-.47s-.06-.37-.02-.53c.04-.16.11-.3.23-.42.12-.12.27-.2.45-.25s.36-.05.52-.01c.16.04.29.13.41.25.11.12.19.28.25.47s.06.37.02.53c-.04.16-.11.3-.23.42-.12.12-.27.2-.45.25ZM74.14,62.23c.09-.02.15-.07.19-.13s.07-.14.08-.23c0-.09,0-.19-.03-.3s-.07-.2-.12-.28-.11-.13-.18-.17-.15-.04-.23-.02-.15.07-.2.13-.07.14-.08.24c0,.09,0,.19.03.3s.07.2.12.28c.05.08.11.13.19.16s.15.04.24.01Z"/>
      <path class="cls-3" d="M76.18,62.11c-.14.04-.28.04-.41,0-.13-.04-.25-.13-.36-.25-.1-.12-.18-.29-.24-.5s-.07-.4-.04-.56c.03-.16.09-.29.19-.39.09-.1.21-.17.35-.21.1-.03.2-.03.27-.02.08.02.15.04.2.09s.1.08.14.13h.02s-.25-.93-.25-.93l.51-.14.66,2.47-.51.14-.08-.3h-.02c-.01.06-.03.12-.06.19-.03.06-.08.12-.14.17-.06.05-.14.09-.24.12ZM76.23,61.66c.08-.02.15-.06.19-.12.05-.06.07-.14.08-.23s0-.19-.03-.3-.07-.2-.12-.28c-.05-.07-.11-.12-.18-.15-.07-.03-.15-.03-.23,0s-.15.06-.2.13c-.05.06-.07.14-.08.23,0,.09,0,.19.03.29s.07.2.12.27c.05.07.11.13.18.16.07.03.15.03.23.01Z"/>
      <path class="cls-3" d="M80.2,61.06c-.21.05-.4.05-.58,0-.18-.06-.33-.18-.46-.35-.13-.17-.23-.39-.31-.66-.07-.27-.09-.51-.06-.72.03-.21.11-.39.23-.53s.29-.24.49-.29.4-.05.57,0,.33.17.46.34c.13.17.23.39.3.66.07.27.09.51.07.73-.03.21-.1.39-.23.53s-.29.24-.49.3ZM80.09,60.62c.14-.04.24-.14.28-.3.05-.17.03-.39-.05-.67-.05-.19-.11-.34-.18-.45-.07-.11-.15-.19-.24-.24-.09-.04-.18-.05-.27-.03-.14.04-.23.14-.28.3-.05.16-.03.39.04.67.05.19.11.34.18.46.07.12.15.2.24.24s.18.05.27.03Z"/>
      <path class="cls-3" d="M81.97,57.87l.66,2.47-.52.14-.53-1.98h-.01s-.47.51-.47.51l-.12-.46.51-.55.49-.13Z"/>
      <path class="cls-3" d="M86.47,57.43c-.04-.09-.1-.16-.19-.19s-.19-.03-.32,0c-.09.02-.15.05-.21.09-.05.04-.09.08-.11.13s-.02.1,0,.15c.01.04.03.08.06.11.03.03.07.05.11.06.04.01.09.02.14.03s.11,0,.16,0h.24c.11-.01.22,0,.32.01.1.02.19.04.27.09.08.04.15.1.21.17.06.07.1.16.13.26.04.15.04.29,0,.42s-.13.25-.26.35c-.13.1-.29.18-.49.23s-.38.07-.55.05-.3-.08-.42-.18c-.11-.1-.2-.24-.25-.41l.51-.14c.03.08.07.14.13.19.06.04.13.07.2.08.08,0,.16,0,.25-.02s.16-.06.22-.1.1-.09.12-.15.03-.11.01-.17c-.01-.06-.04-.1-.09-.13-.04-.03-.1-.05-.17-.06s-.15-.01-.25-.01h-.29c-.22,0-.41-.03-.56-.1s-.25-.2-.3-.39c-.04-.15-.04-.29.01-.42.05-.13.14-.25.26-.35.12-.1.28-.18.46-.22s.35-.06.51-.03c.15.03.28.08.39.18.11.09.18.21.22.36l-.5.13Z"/>
      <path class="cls-3" d="M88.67,58.77c-.19.05-.37.06-.52.02-.16-.04-.29-.12-.41-.25-.11-.12-.19-.28-.25-.48s-.06-.37-.02-.53c.04-.16.11-.3.22-.42.11-.12.26-.2.44-.25.12-.03.24-.04.36-.03.12.01.22.04.32.1.1.06.19.14.26.24.08.11.13.24.18.4l.04.14-1.57.42-.09-.32,1.08-.29c-.02-.07-.05-.14-.1-.18s-.1-.08-.17-.1-.14-.02-.21,0-.14.06-.19.11-.08.11-.1.18-.02.14,0,.21l.08.3c.02.09.06.17.12.22.05.06.11.1.19.12.07.02.15.02.24,0,.06-.02.11-.04.15-.07.04-.03.08-.06.1-.11.03-.04.04-.09.05-.14l.48-.1c0,.12-.02.23-.07.34-.05.1-.13.2-.23.27-.1.08-.23.14-.39.18Z"/>
      <path class="cls-3" d="M90.34,56.29l.1.39-1.12.3-.1-.39,1.12-.3ZM89.36,56.08l.51-.14.46,1.73s.03.08.05.1c.02.02.05.04.08.04s.06,0,.1,0c.02,0,.05-.02.07-.03.02-.01.04-.02.05-.03l.18.36s-.06.03-.1.06-.1.05-.16.07c-.12.04-.24.05-.34.04s-.19-.05-.26-.12-.13-.16-.16-.28l-.48-1.8Z"/>
      <path class="cls-3" d="M92.97,54.89c.13-.03.26-.05.38-.03.13.01.25.05.37.12.12.07.23.17.32.31.1.14.17.32.23.54.06.21.08.4.08.58,0,.18-.03.34-.09.47s-.14.25-.25.35c-.11.09-.24.16-.39.2-.17.04-.32.05-.46.02-.14-.03-.27-.09-.38-.18s-.19-.2-.24-.34l.52-.14c.04.08.11.14.18.18.08.03.16.04.26.01.16-.04.26-.15.31-.31s.04-.37-.03-.61h-.02c-.02.09-.05.16-.1.23s-.11.13-.18.18c-.07.05-.16.09-.25.11-.15.04-.29.04-.42,0-.13-.04-.25-.11-.35-.21-.1-.1-.17-.23-.21-.38-.05-.17-.05-.32,0-.47.04-.15.12-.28.24-.39s.27-.19.46-.24ZM93.08,55.3c-.08.02-.15.06-.2.12-.05.06-.09.12-.11.2-.02.08-.02.15,0,.23.02.08.06.15.11.2.05.06.12.09.19.12.07.02.15.02.23,0,.06-.02.11-.04.16-.08.05-.04.08-.08.11-.13s.05-.1.05-.16,0-.12-.01-.18c-.02-.08-.06-.14-.11-.2-.05-.06-.12-.09-.19-.12s-.15-.02-.23,0Z"/>
      <path class="cls-3" d="M95.21,54.29c.13-.03.26-.05.38-.03.13.01.25.05.37.12.12.07.23.17.32.31.1.14.17.32.23.54.06.21.08.4.08.58,0,.18-.03.34-.09.47s-.14.25-.25.35c-.11.09-.24.16-.39.2-.17.04-.32.05-.46.02-.14-.03-.27-.09-.38-.18s-.19-.2-.24-.34l.52-.14c.04.08.11.14.18.18.08.03.16.04.26.01.16-.04.26-.15.31-.31s.04-.37-.03-.61h-.02c-.02.09-.05.16-.1.23s-.11.13-.18.18c-.07.05-.16.09-.25.11-.15.04-.29.04-.42,0-.13-.04-.25-.11-.35-.21-.1-.1-.17-.23-.21-.38-.05-.17-.05-.32,0-.47.04-.15.12-.28.24-.39s.27-.19.46-.24ZM95.33,54.7c-.08.02-.15.06-.2.12-.05.06-.09.12-.11.2-.02.08-.02.15,0,.23.02.08.06.15.11.2.05.06.12.09.19.12.07.02.15.02.23,0,.06-.02.11-.04.16-.08.05-.04.08-.08.11-.13s.05-.1.05-.16,0-.12-.01-.18c-.02-.08-.06-.14-.11-.2-.05-.06-.12-.09-.19-.12s-.15-.02-.23,0Z"/>
    </g>
    <g>
      <rect class="cls-3" x="65.73" y="67.33" width=".49" height="8.8" transform="translate(-16.32 19.52) rotate(-15)"/>
      <rect class="cls-3" x="66.63" y="67.09" width=".49" height="8.8" transform="translate(-16.22 19.75) rotate(-15)"/>
      <rect class="cls-3" x="68.01" y="66.73" width=".44" height="8.8" transform="translate(-16.08 20.08) rotate(-15)"/>
      <rect class="cls-3" x="68.44" y="66.61" width=".49" height="8.8" transform="translate(-16.04 20.2) rotate(-15)"/>
      <rect class="cls-3" x="69.34" y="66.37" width=".49" height="8.8" transform="translate(-15.94 20.42) rotate(-15)"/>
      <rect class="cls-3" x="70.24" y="66.12" width=".49" height="8.8" transform="translate(-15.85 20.65) rotate(-15)"/>
      <rect class="cls-3" x="71.15" y="65.88" width=".49" height="8.8" transform="translate(-15.76 20.87) rotate(-15)"/>
      <rect class="cls-3" x="72.29" y="65.61" width=".25" height="8.8" transform="translate(-15.65 21.13) rotate(-15)"/>
      <rect class="cls-3" x="72.95" y="65.4" width=".49" height="8.8" transform="translate(-15.57 21.32) rotate(-15)"/>
      <rect class="cls-3" x="74.33" y="65.03" width=".49" height="8.8" transform="translate(-15.43 21.67) rotate(-15)"/>
      <rect class="cls-3" x="74.76" y="64.91" width=".49" height="8.8" transform="translate(-15.38 21.78) rotate(-15)"/>
      <rect class="cls-3" x="75.66" y="64.67" width=".49" height="8.8" transform="translate(-15.29 22) rotate(-15)"/>
      <rect class="cls-3" x="76.57" y="64.46" width=".25" height="8.8" transform="translate(-15.21 22.2) rotate(-15)"/>
      <rect class="cls-3" x="77.47" y="64.19" width=".49" height="8.8" transform="translate(-15.1 22.45) rotate(-15)"/>
      <rect class="cls-3" x="78.37" y="63.95" width=".49" height="8.8" transform="translate(-15.01 22.68) rotate(-15)"/>
      <rect class="cls-3" x="79.75" y="63.58" width=".44" height="8.8" transform="translate(-14.87 23.02) rotate(-15)"/>
      <rect class="cls-3" x="80.18" y="63.46" width=".49" height="8.8" transform="translate(-14.82 23.13) rotate(-15)"/>
      <rect class="cls-3" x="81.08" y="63.22" width=".49" height="8.8" transform="translate(-14.73 23.35) rotate(-15)"/>
      <rect class="cls-3" x="81.56" y="63.1" width=".44" height="8.8" transform="translate(-14.68 23.47) rotate(-15)"/>
      <rect class="cls-3" x="82.89" y="62.74" width=".49" height="8.8" transform="translate(-14.54 23.8) rotate(-15)"/>
      <rect class="cls-3" x="84.03" y="62.46" width=".25" height="8.8" transform="translate(-14.44 24.06) rotate(-15)"/>
      <rect class="cls-3" x="84.94" y="62.22" width=".25" height="8.8" transform="translate(-14.34 24.29) rotate(-15)"/>
      <rect class="cls-3" x="85.6" y="62.01" width=".49" height="8.8" transform="translate(-14.26 24.48) rotate(-15)"/>
      <rect class="cls-3" x="86.5" y="61.77" width=".49" height="8.8" transform="translate(-14.17 24.71) rotate(-15)"/>
      <rect class="cls-3" x="87.41" y="61.56" width=".24" height="8.8" transform="translate(-14.09 24.9) rotate(-15)"/>
      <rect class="cls-3" x="88.79" y="61.16" width=".44" height="8.8" transform="translate(-13.94 25.27) rotate(-15)"/>
      <rect class="cls-3" x="89.21" y="61.04" width=".49" height="8.8" transform="translate(-13.89 25.38) rotate(-15)"/>
      <rect class="cls-3" x="90.11" y="60.8" width=".49" height="8.8" transform="translate(-13.8 25.61) rotate(-15)"/>
      <rect class="cls-3" x="91.02" y="60.59" width=".25" height="8.8" transform="translate(-13.71 25.8) rotate(-15)"/>
      <rect class="cls-3" x="92.16" y="60.28" width=".25" height="8.8" transform="translate(-13.6 26.09) rotate(-15)"/>
      <rect class="cls-3" x="92.82" y="60.07" width=".49" height="8.8" transform="translate(-13.52 26.29) rotate(-15)"/>
      <rect class="cls-3" x="93.73" y="59.83" width=".49" height="8.8" transform="translate(-13.42 26.51) rotate(-15)"/>
      <rect class="cls-3" x="95.11" y="59.47" width=".44" height="8.8" transform="translate(-13.28 26.85) rotate(-15)"/>
      <rect class="cls-3" x="95.53" y="59.35" width=".49" height="8.8" transform="translate(-13.24 26.96) rotate(-15)"/>
      <rect class="cls-3" x="96.43" y="59.11" width=".49" height="8.8" transform="translate(-13.14 27.19) rotate(-15)"/>
      <rect class="cls-3" x="97.34" y="58.86" width=".49" height="8.8" transform="translate(-13.05 27.41) rotate(-15)"/>
      <rect class="cls-3" x="98.44" y="58.6" width=".3" height="8.8" transform="translate(-12.95 27.66) rotate(-15)"/>
      <rect class="cls-3" x="99.14" y="58.38" width=".49" height="8.8" transform="translate(-12.86 27.86) rotate(-15)"/>
      <rect class="cls-3" x="99.62" y="58.26" width=".44" height="8.8" transform="translate(-12.82 27.98) rotate(-15)"/>
      <rect class="cls-3" x="101.19" y="57.86" width=".25" height="8.8" transform="translate(-12.66 28.34) rotate(-15)"/>
    </g>
    <g class="cls-5">
      <path class="cls-2" d="M40.55,84.72s-.11.03-.18.03c-.65.02-1.68-.71-2.82-2.03-1.21-1.39-2.35-3.21-3.21-5.14-4.76.53-9.02-.59-9.32-1.63-.02-.07-.03-.14-.03-.22.02-1.35,3.08-4.17,7.17-6-.53-4.76.59-9.03,1.63-9.32.04,0,.07-.02.11-.02.04,0,.07,0,.11,0,.17,0,.35.05.54.13,1.43.61,3.84,3.4,5.46,7.04,4.76-.53,9.03.59,9.32,1.63.01.05.03.11.03.19.05,1.3-3.06,4.2-7.17,6.03.54,4.77-.59,9.03-1.63,9.32ZM33.93,60.92c-.56.15-1.83,3.98-1.23,8.94.01.11-.05.23-.16.27-4.52,1.97-7.02,4.73-7.03,5.6,0,.04,0,.07,0,.08.15.56,3.98,1.83,8.94,1.23.11-.01.23.05.27.16.85,1.95,1.99,3.79,3.2,5.19,1.13,1.29,2.03,1.86,2.42,1.85l.12.25-.07-.25c.56-.15,1.83-3.97,1.23-8.92,0-.03,0-.05,0-.08,0-.1.07-.18.15-.22,4.42-1.92,7.07-4.73,7.03-5.62l.24-.13-.25.07c-.16-.56-3.98-1.83-8.93-1.23-.12.02-.24-.04-.29-.15-1.73-3.97-4.12-6.45-5.27-6.95-.16-.07-.27-.09-.33-.09-.04,0-.05,0-.07.01Z"/>
      <path class="cls-2" d="M38.03,75.78c-1.76.47-3.57-.56-4.06-2.32-.24-.85-.13-1.75.31-2.52.44-.77,1.15-1.33,2-1.57.87-.22,1.75-.13,2.52.31.77.44,1.33,1.15,1.57,2h0c.49,1.76-.55,3.6-2.31,4.09h-.03ZM36.45,69.86h-.02c-.72.21-1.32.67-1.69,1.32s-.46,1.41-.26,2.13c.41,1.48,1.94,2.35,3.42,1.95h.02c1.49-.42,2.36-1.96,1.95-3.45-.2-.72-.67-1.32-1.32-1.69-.64-.36-1.39-.46-2.1-.27Z"/>
      <rect class="cls-2" x="38.06" y="68.6" width="2.38" height=".52" transform="translate(-40.01 68.43) rotate(-60)"/>
      <rect class="cls-2" x="33.9" y="76" width="2.39" height=".52" transform="translate(-48.5 68.52) rotate(-60)"/>
      <rect class="cls-2" x="33.21" y="69.3" width=".52" height="2.38" transform="translate(-44.31 64.22) rotate(-60)"/>
      <rect class="cls-2" x="40.61" y="73.46" width=".52" height="2.38" transform="translate(-44.21 72.72) rotate(-60)"/>
    </g>
  </g>
</svg>