<?xml version="1.0" encoding="UTF-8"?>
<svg id="Layer_1" xmlns="http://www.w3.org/2000/svg" viewBox="0 0 48 48">
  <defs>
    <style>
      .cls-1 {
        fill: #dd2a39;
      }

      .cls-2 {
        fill: #fff;
        opacity: 0;
      }

      .cls-3 {
        fill: #f43f3f;
      }

      .cls-4 {
        fill: #b51933;
      }

      .cls-5 {
        fill: #ff7d63;
      }

      .cls-6 {
        fill: #7a1839;
      }
    </style>
  </defs>
  <g>
    <g>
      <path class="cls-6" d="M24,42.27c-1.18,0-2.36-.4-3.32-1.19h0l-15.84-13.06c-1.64-1.36-2.25-3.51-1.55-5.5.73-2.06,2.64-3.39,4.87-3.39h31.68c2.23,0,4.14,1.33,4.87,3.39.7,1.99.1,4.15-1.55,5.5l-15.84,13.06c-.96.79-2.14,1.19-3.32,1.19ZM23.2,37.98c.45.37,1.16.37,1.61,0l15.84-13.06c.45-.37.42-.78.32-1.06-.06-.17-.32-.73-1.13-.73H8.16c-.8,0-1.07.56-1.13.73-.1.28-.12.69.32,1.06l15.84,13.06Z"/>
      <path class="cls-6" d="M13.1,31.9H4.99c-1.1,0-1.99-.9-1.99-2v-5.74c0-1.1.89-2,1.99-2h8.11c1.1,0,1.99.9,1.99,2v5.74c0,1.1-.89,2-1.99,2ZM6.97,27.9h4.14v-1.74h-4.14v1.74Z"/>
      <path class="cls-6" d="M24.19,42.26c-.51,0-.99-.19-1.36-.54-.4-.38-.62-.9-.62-1.46v-19.12c0-1.1.89-2,1.99-2h15.65c2.23,0,4.14,1.33,4.87,3.39.7,1.99.1,4.14-1.55,5.5l-15.84,13.06c-.83.69-1.9,1.11-3.01,1.17-.04,0-.08,0-.12,0ZM26.18,23.13v13.72l14.47-11.92c.44-.37.42-.78.32-1.06-.06-.17-.32-.74-1.13-.74h-13.66Z"/>
      <path class="cls-6" d="M43.01,31.9h-8.11c-1.1,0-1.99-.9-1.99-2v-5.74c0-1.1.89-2,1.99-2h8.11c1.1,0,1.99.9,1.99,2v5.74c0,1.1-.89,2-1.99,2ZM36.89,27.9h4.14v-1.74h-4.14v1.74Z"/>
      <path class="cls-6" d="M35.28,23.13H13.1c-1.1,0-1.99-.9-1.99-2V6c0-3.31,2.67-6,5.96-6h14.23c3.29,0,5.96,2.69,5.96,6v15.13c0,1.1-.89,2-1.99,2ZM15.09,19.13h18.21V6c0-1.1-.89-2-1.99-2h-14.23c-1.1,0-1.99.9-1.99,2v13.13Z"/>
      <path class="cls-6" d="M35.28,23.13h-11.09c-1.1,0-1.99-.9-1.99-2V2c0-1.1.89-2,1.99-2h7.12c3.29,0,5.96,2.69,5.96,6v15.13c0,1.1-.89,2-1.99,2ZM26.18,19.13h7.12V6c0-1.1-.89-2-1.99-2h-5.13v15.13Z"/>
      <path class="cls-6" d="M24,48c-1.18,0-2.36-.4-3.32-1.19l-15.84-13.05c-1.65-1.36-2.25-3.52-1.55-5.5.73-2.06,2.64-3.39,4.87-3.39h31.68c2.23,0,4.14,1.33,4.87,3.39.7,1.99.1,4.15-1.55,5.5l-15.84,13.06c-.96.79-2.14,1.19-3.32,1.19ZM8.16,28.86c-.8,0-1.07.56-1.13.73-.1.28-.12.69.32,1.06l15.84,13.06s0,0,0,0c.45.37,1.16.37,1.61,0l15.84-13.06c.45-.37.42-.78.32-1.06-.06-.17-.32-.73-1.13-.73H8.16Z"/>
      <path class="cls-6" d="M24.19,47.99c-.51,0-.99-.19-1.36-.54-.4-.38-.62-.9-.62-1.45v-19.12c0-1.1.89-2,1.99-2h15.65c2.23,0,4.14,1.33,4.87,3.39.7,1.99.1,4.14-1.55,5.5l-15.84,13.06c-.83.69-1.9,1.11-3.01,1.17-.04,0-.08,0-.12,0ZM26.18,28.86v13.72l14.47-11.92c.44-.37.42-.78.32-1.06-.06-.17-.32-.74-1.13-.74h-13.66Z"/>
      <path class="cls-6" d="M35.28,28.86H13.1c-1.1,0-1.99-.9-1.99-2v-15.13c0-3.31,2.67-6,5.96-6h14.23c3.29,0,5.96,2.69,5.96,6v15.13c0,1.1-.89,2-1.99,2ZM15.09,24.86h18.21v-13.13c0-1.1-.89-2-1.99-2h-14.23c-1.1,0-1.99.9-1.99,2v13.13Z"/>
      <path class="cls-6" d="M35.28,28.86h-11.09c-1.1,0-1.99-.9-1.99-2V7.73c0-1.1.89-2,1.99-2h7.12c3.29,0,5.96,2.69,5.96,6v15.13c0,1.1-.89,2-1.99,2ZM26.18,24.86h7.12v-13.13c0-1.1-.89-2-1.99-2h-5.13v15.13Z"/>
    </g>
    <g>
      <path class="cls-1" d="M21.94,39.53l-15.84-13.06c-2.23-1.84-.87-5.34,2.06-5.34h31.68c2.94,0,4.29,3.51,2.06,5.34l-15.84,13.06c-1.19.98-2.94.98-4.13,0Z"/>
      <rect class="cls-1" x="4.99" y="24.16" width="8.11" height="5.74"/>
      <path class="cls-4" d="M39.84,21.13h-15.65v19.12c.67-.04,1.33-.28,1.87-.73l15.84-13.06c2.23-1.83.87-5.34-2.07-5.34Z"/>
      <rect class="cls-4" x="34.9" y="24.16" width="8.11" height="5.74"/>
      <path class="cls-1" d="M31.31,2h-14.23c-2.2,0-3.97,1.79-3.97,4v15.13h22.18V6c0-2.21-1.78-4-3.97-4Z"/>
      <path class="cls-4" d="M31.31,2h-7.12v19.13h11.09V6c0-2.21-1.78-4-3.97-4Z"/>
      <path class="cls-5" d="M21.94,45.26l-15.84-13.06c-2.23-1.84-.87-5.34,2.06-5.34h31.68c2.94,0,4.29,3.51,2.06,5.34l-15.84,13.06c-1.19.98-2.94.98-4.13,0Z"/>
      <path class="cls-3" d="M39.84,26.86h-15.65v19.12c.67-.04,1.33-.28,1.87-.73l15.84-13.06c2.23-1.83.87-5.34-2.07-5.34Z"/>
      <path class="cls-5" d="M31.31,7.73h-14.23c-2.2,0-3.97,1.79-3.97,4v15.13h22.18v-15.13c0-2.21-1.78-4-3.97-4Z"/>
      <path class="cls-3" d="M31.31,7.73h-7.12v19.13h11.09v-15.13c0-2.21-1.78-4-3.97-4Z"/>
    </g>
  </g>
  <rect class="cls-2" width="48" height="48"/>
</svg>