<?xml version="1.0" encoding="UTF-8"?>
<svg id="Icon" xmlns="http://www.w3.org/2000/svg" viewBox="0 0 120 120">
  <defs>
    <style>
      .cls-1 {
        fill: #13437c;
      }

      .cls-2 {
        fill: #12993f;
      }

      .cls-3 {
        fill: #3288d6;
      }

      .cls-4 {
        fill: #1cb829;
      }

      .cls-5 {
        fill: #dfedf2;
      }

      .cls-6 {
        fill: #47acea;
      }

      .cls-7 {
        fill: #34d434;
      }

      .cls-8 {
        fill: #54f445;
      }

      .cls-9 {
        fill: #a8b6c1;
      }

      .cls-10 {
        fill: #05542a;
      }

      .cls-11 {
        fill: #1f5999;
      }
    </style>
  </defs>
  <path class="cls-1" d="M114.58,78.92v4.82s-.01.1-.02.15v.05s-.01.05-.01.07c-.03.32-.08.64-.15.95-.04.14-.08.28-.12.41-.03.1-.05.21-.08.31-.03.09-.08.16-.12.25-.07.18-.14.35-.23.52-.08.14-.16.28-.25.42-.1.17-.19.33-.31.48-.11.15-.24.29-.36.43-.11.12-.21.25-.32.36-.25.24-.52.45-.8.65-.08.05-.16.09-.24.14-.22.14-.45.28-.7.39-.12.05-.24.1-.36.14-.22.09-.44.17-.67.23-.14.04-.27.07-.41.1-.23.04-.47.08-.71.1-.08,0-.17.03-.25.04v8.13c0,3.98-3.21,7.21-7.15,7.21h-11.26c-2.88,0-5.37-1.74-6.5-4.23H29.25c-7.57,0-13.73-6.16-13.73-13.73v-43.9c0-7.57,6.16-13.73,13.73-13.73h10.54v-4.9c0-3.94,3.21-7.14,7.15-7.14h27.55c3.94,0,7.14,3.2,7.14,7.14v4.9h10.55c7.57,0,13.73,6.16,13.73,13.73v25.28l6.36,5.31s.03.03.05.04c.21.18.4.38.59.58.06.07.12.13.17.2.14.17.27.33.39.51.07.1.14.21.2.32.11.17.2.34.29.52.06.13.11.26.16.39.05.11.09.23.13.35.08.25.15.5.2.76.02.1.04.2.06.3.02.16.04.32.05.49,0,.03.01.07.01.11.01.11.01.23.01.35Z"/>
  <g>
    <g>
      <path class="cls-6" d="M74.49,21.64h-27.56c-1.74,0-3.15,1.41-3.15,3.15v13.07c0,.68.22,1.32.59,1.83.57.79,1.5,1.31,2.55,1.31h27.56c1.05,0,1.98-.52,2.55-1.31.08-.11.16-.24.22-.36.23-.44.36-.94.36-1.47v-13.07c0-1.74-1.4-3.15-3.14-3.15ZM69.63,34.7h-17.83v-5.69h17.83v5.69Z"/>
      <polygon class="cls-3" points="77.64 31.16 77.64 41.06 43.8 41.06 43.8 31.16 51.8 31.16 51.8 36.09 69.63 36.09 69.63 31.16 77.64 31.16"/>
    </g>
    <rect class="cls-3" x="19.52" y="35" width="82.39" height="62.04" rx="9.73" ry="9.73"/>
    <rect class="cls-6" x="19.52" y="33.68" width="82.39" height="53.05" rx="9.73" ry="9.73"/>
    <rect class="cls-6" x="19.52" y="38.61" width="82.39" height="48.13" rx="9.73" ry="9.73"/>
    <path class="cls-11" d="M60.72,66.25h-2.53c-.12,0-.24-.01-.36-.04l-36.31-7.46c-.97-.2-1.59-1.15-1.39-2.11.2-.97,1.14-1.6,2.11-1.39l36.13,7.43h2.35c.99,0,1.79.8,1.79,1.79s-.8,1.79-1.79,1.79Z"/>
    <path class="cls-11" d="M63.27,66.25h-2.55c-.99,0-1.79-.8-1.79-1.79s.8-1.79,1.79-1.79h2.37l36.1-7.43c.97-.2,1.92.42,2.12,1.39.2.97-.43,1.92-1.39,2.12l-36.28,7.46c-.12.02-.24.04-.36.04Z"/>
    <path class="cls-9" d="M65.29,63.63v4.78c0,1.37-1.1,2.47-2.46,2.47h-4.23c-1.36,0-2.46-1.1-2.46-2.47v-4.78c0-1.36,1.1-2.46,2.46-2.46h4.23c1.37,0,2.46,1.1,2.46,2.46Z"/>
    <path class="cls-5" d="M65.29,61.19v2.75c0,1.15-1.1,2.08-2.46,2.08h-4.23c-1.36,0-2.46-.93-2.46-2.08v-2.75c0-1.15,1.1-2.08,2.46-2.08h4.23c1.37,0,2.46.93,2.46,2.08Z"/>
    <path class="cls-1" d="M62.83,72.67h-4.23c-2.35,0-4.26-1.91-4.26-4.26v-7.13c0-2.35,1.91-4.26,4.26-4.26h4.23c2.35,0,4.26,1.91,4.26,4.26v7.13c0,2.35-1.91,4.26-4.26,4.26ZM58.6,60.6c-.37,0-.67.3-.67.67v7.13c0,.37.3.68.67.68h4.23c.38,0,.67-.3.67-.68v-7.13c0-.37-.3-.67-.67-.67h-4.23Z"/>
    <path class="cls-10" d="M101.32,103.27h-11.26c-2.84,0-5.14-2.33-5.14-5.2v-10.12h-1.91c-2.42,0-4.35-1.82-4.5-4.18,0-.08-.01-.16-.01-.25v-4.6c0-.07,0-.14,0-.2.05-1.24.61-2.36,1.59-3.18l12.53-10.46c.83-.69,1.9-1.07,2.97-1.04.08,0,.16,0,.24,0,.06,0,.18.02.24.03.12.01.24.03.37.06.08.02.17.04.26.06.19.05.32.09.44.13.11.04.21.09.31.13.18.08.29.14.39.2.12.07.27.17.41.28.08.05.15.11.22.17l12.51,10.44s.02.02.03.02c.96.81,1.51,1.93,1.56,3.16,0,.07.01.14.01.2v4.6c0,.08,0,.17-.01.25-.14,2.36-2.08,4.18-4.5,4.18h-1.61v10.12c0,2.87-2.31,5.2-5.14,5.2ZM82.5,83.35s0,.09,0,.14c0,0,.01.45.5.45h3.91c1.1,0,2,.9,2,2v12.12c0,.66.51,1.2,1.14,1.2h11.26c.63,0,1.14-.54,1.14-1.2v-12.12c0-1.1.9-2,2-2h3.61c.49,0,.5-.43.5-.45,0-.05,0-.09,0-.14v-4.27c0-.05,0-.11,0-.17,0-.14-.04-.22-.15-.31,0,0-.02-.01-.02-.02l-12.44-10.38s-.08-.06-.12-.09l-.13-.06s-.05-.01-.08-.02c-.02,0-.04,0-.06,0-.09,0-.26,0-.39.11l-12.53,10.46c-.11.09-.15.18-.15.29,0,.06,0,.12,0,.19v4.27ZM95.54,68.02h.02s0,0-.02,0Z"/>
    <g>
      <path class="cls-4" d="M93.91,71.2l-12.53,10.46c-1.76,1.47-.69,4.28,1.63,4.28h25.06c2.32,0,3.4-2.81,1.63-4.28l-12.53-10.46c-.94-.78-2.33-.78-3.27,0Z"/>
      <rect class="cls-4" x="80.5" y="78.92" width="6.42" height="4.6"/>
      <path class="cls-2" d="M108.07,85.94h-12.38v-15.32c.53.03,1.05.22,1.48.58l12.53,10.46c1.76,1.47.69,4.28-1.64,4.28Z"/>
      <rect class="cls-2" x="104.17" y="78.92" width="6.42" height="4.6"/>
      <path class="cls-4" d="M101.32,101.27h-11.26c-1.74,0-3.14-1.43-3.14-3.2v-12.12h17.55v12.12c0,1.77-1.41,3.2-3.14,3.2Z"/>
      <path class="cls-2" d="M101.32,101.27h-5.63v-15.33h8.77v12.12c0,1.77-1.41,3.2-3.14,3.2Z"/>
      <path class="cls-8" d="M93.91,66.61l-12.53,10.46c-1.76,1.47-.69,4.28,1.63,4.28h25.06c2.32,0,3.4-2.81,1.63-4.28l-12.53-10.46c-.94-.78-2.33-.78-3.27,0Z"/>
      <path class="cls-7" d="M108.07,81.35h-12.38v-15.32c.53.03,1.05.22,1.48.58l12.53,10.46c1.76,1.47.69,4.28-1.64,4.28Z"/>
      <path class="cls-8" d="M101.32,96.67h-11.26c-1.74,0-3.14-1.43-3.14-3.2v-12.12h17.55v12.12c0,1.77-1.41,3.2-3.14,3.2Z"/>
      <path class="cls-7" d="M101.32,96.67h-5.63v-15.33h8.77v12.12c0,1.77-1.41,3.2-3.14,3.2Z"/>
    </g>
  </g>
</svg>