<?xml version="1.0" encoding="UTF-8"?>
<svg id="Icon" xmlns="http://www.w3.org/2000/svg" viewBox="0 0 120 120">
  <defs>
    <style>
      .cls-1 {
        fill: #ffa9c2;
      }

      .cls-2 {
        fill: #7a1859;
      }

      .cls-3 {
        fill: #dd4a8c;
      }
    </style>
  </defs>
  <path class="cls-2" d="M115.25,45.91c0,1.06-.42,2.08-1.17,2.83L48.73,114.09c-.78.78-1.8,1.17-2.83,1.17s-2.04-.39-2.83-1.17l-9.51-9.52c-1.24-1.24-1.53-3.13-.72-4.68,1.92-3.67,1.24-8.11-1.69-11.04s-7.36-3.6-11.03-1.69c-1.55.81-3.45.52-4.69-.71l-9.51-9.52c-1.57-1.56-1.57-4.1,0-5.66L71.27,5.92c1.56-1.56,4.09-1.56,5.65,0l9.53,9.53c1.24,1.23,1.53,3.13.72,4.68-1.92,3.67-1.25,8.1,1.68,11.02,2.92,2.93,7.36,3.61,11.03,1.69,1.55-.81,3.44-.52,4.68.72l9.52,9.52c.75.75,1.17,1.77,1.17,2.83Z"/>
  <path class="cls-1" d="M86.02,33.97c4.25,4.25,10.65,5.05,15.71,2.4l9.52,9.52L45.91,111.25l-9.52-9.52c2.64-5.06,1.85-11.46-2.41-15.72s-10.65-5.05-15.71-2.4l-9.52-9.52L74.1,8.75l9.52,9.52c-2.64,5.06-1.85,11.46,2.4,15.7Z"/>
  <g>
    <path class="cls-3" d="M93.73,61.78c-.39.39-1.02.39-1.41,0l-2.12-2.12c-.39-.39-.39-1.02,0-1.41s1.02-.39,1.41,0l2.12,2.12c.39.39.39,1.02,0,1.41Z"/>
    <path class="cls-3" d="M88.9,56.95c-.39.39-1.02.39-1.41,0l-4.07-4.07c-.39-.39-.39-1.02,0-1.41s1.02-.39,1.41,0l4.07,4.07c.39.39.39,1.02,0,1.41ZM82.11,50.16c-.39.39-1.02.39-1.41,0l-4.07-4.07c-.39-.39-.39-1.02,0-1.41s1.02-.39,1.41,0l4.07,4.07c.39.39.39,1.02,0,1.41ZM75.33,43.38c-.39.39-1.02.39-1.41,0l-4.07-4.07c-.39-.39-.39-1.02,0-1.41s1.02-.39,1.41,0l4.07,4.07c.39.39.39,1.02,0,1.41ZM68.54,36.59c-.39.39-1.02.39-1.41,0l-4.07-4.07c-.39-.39-.39-1.02,0-1.41s1.02-.39,1.41,0l4.07,4.07c.39.39.39,1.02,0,1.41Z"/>
    <path class="cls-3" d="M61.75,29.81c-.39.39-1.02.39-1.41,0l-2.12-2.12c-.39-.39-.39-1.02,0-1.41s1.02-.39,1.41,0l2.12,2.12c.39.39.39,1.02,0,1.41Z"/>
  </g>
  <g>
    <rect class="cls-3" x="45.82" y="64.44" width="2.94" height="19.33" transform="translate(-38.55 55.15) rotate(-45)"/>
    <path class="cls-3" d="M36.74,54.52h19.8c1.32,0,2.39,1.07,2.39,2.39v4.9h-24.57v-4.9c0-1.32,1.07-2.39,2.39-2.39Z" transform="translate(-27.47 50.01) rotate(-45)"/>
    <ellipse class="cls-3" cx="66.6" cy="69.15" rx="6.02" ry="4.42" transform="translate(-27.17 89.72) rotate(-58.45)"/>
    <ellipse class="cls-3" cx="51.31" cy="84.44" rx="6.02" ry="4.42" transform="translate(-47.5 83.98) rotate(-58.45)"/>
    <rect class="cls-3" x="61.12" y="49.15" width="2.94" height="19.33" transform="translate(-23.26 61.48) rotate(-45)"/>
  </g>
</svg>