<?xml version="1.0" encoding="UTF-8"?>
<svg id="Icon" xmlns="http://www.w3.org/2000/svg" viewBox="0 0 120 120">
  <defs>
    <style>
      .cls-1 {
        fill: #ea9939;
      }

      .cls-2 {
        fill: #d87625;
      }

      .cls-3 {
        fill: #fff8d9;
      }

      .cls-4 {
        fill: #f4b545;
      }

      .cls-5 {
        fill: #6d3108;
      }

      .cls-6 {
        fill: #ffe277;
      }
    </style>
  </defs>
  <path class="cls-5" d="M86.13,33.85c-8.38-3.67-16.24-5.74-23.35-6.13-11.85-.67-20.6,3.46-24.05,11.33-.85,1.94-1.31,4-1.38,6.13-20.14,1.88-33.16,10.81-33.16,23.4,0,4.37,1.72,8.52,4.92,12.04,1.06,1.17,2.29,2.28,3.67,3.3.41.3.83.59,1.27.88.66.44,1.36.86,2.08,1.26.02.02.05.03.07.04,2.16,1.2,4.57,2.24,7.22,3.12,2.08.69,4.31,1.25,6.59,1.7.25.05.5.11.75.15h.02s0,0,.01,0c.28.05.58.09.87.14,1.46.26,2.97.48,4.56.65,1.91.21,3.89.35,5.95.43h.06c1.06.03,2.17.06,3.28.06s2.11-.03,3.19-.06h.04c1.18-.04,2.34-.11,3.49-.2.08,0,.17,0,.25-.01.12-.01.23-.02.35-.03,1.2-.1,2.37-.22,3.52-.37h.03c8.04-1.03,14.84-3.25,20.02-6.55.15-.09.3-.19.44-.29.12-.07.24-.15.36-.22h0c.12-.09.23-.17.34-.25.18-.12.36-.25.53-.39.2-.14.4-.27.58-.42.4-.3.8-.62,1.18-.96.03-.02.05-.04.07-.06.2-.17.39-.35.58-.53.04.01.09.02.13.03.27.07.54.12.8.18.45.1.9.2,1.34.29.14.03.27.05.41.08.57.11,1.14.22,1.7.31.04.01.08.01.12.02,2.61.43,5.13.66,7.54.67h.15c.75,0,1.49-.02,2.22-.06,2.13-.11,4.14-.4,6.02-.87,1.02-.25,2.07-.58,3.12-.99.54-.21,1.06-.44,1.57-.69.04-.02.08-.03.11-.05.11-.05.2-.11.3-.16.8-.41,1.56-.86,2.28-1.35.3-.21.58-.42.86-.64.08-.06.16-.11.23-.17,0,0,0-.01.02-.01,0-.01.01-.01.02-.02s.02-.02.02-.03c2.15-1.72,3.81-3.86,4.91-6.36,5.71-13.03-5.64-28.44-28.22-38.35ZM51.94,71.62c-.05.01-.11.01-.16.02-.35.03-.71.05-1.06.08-.39.03-.77.05-1.17.07-.17.01-.34.02-.52.03-.09,0-.17,0-.26.02h-.05c-.12.01-.24.01-.36.01-.93.04-1.87.06-2.85.06-3.27,0-6.44-.21-9.47-.62-.01-.01-.02-.01-.04-.01-.95-.13-1.9-.29-2.82-.46-.11-.02-.23-.04-.34-.06-.24-.05-.48-.1-.71-.15-4.76-1-8.41-2.44-10.82-3.9.94-.58,2.15-1.19,3.69-1.8.05-.02.1-.05.16-.07,5.13-1.99,11.79-3.13,18.9-3.26,1.19,1.38,2.52,2.75,3.99,4.07,1.78,1.61,3.8,3.18,5.98,4.65.44.31.92.61,1.38.91-1.13.16-2.29.3-3.47.41ZM98.87,63.72c-.15.01-.29.03-.45.04-.32.03-.66.04-1.01.06-.34,0-.69,0-1.06,0h-.58c-.83-.02-1.72-.07-2.66-.16-.1-.01-.19-.02-.29-.03-.21-.02-.42-.04-.63-.07-.69-.08-1.4-.19-2.13-.31-.07,0-.13-.02-.2-.04-.29-.05-.59-.1-.89-.16-.19-.04-.38-.08-.57-.12-.24-.04-.49-.1-.73-.15-.27-.06-.55-.12-.83-.19-.18-.04-.37-.08-.56-.13-.23-.06-.46-.12-.69-.18-3.14-7.99-12.37-13.81-25.55-16.24-.12-.02-.24-.04-.36-.06-.47-.09-.94-.17-1.42-.24-.31-.05-.64-.1-.96-.14-.3-.05-.6-.09-.91-.13-.09-.02-.17-.02-.26-.04-.35-.42-.67-.84-.95-1.24,1.09-.15,2.42-.23,4.08-.17h.19c5.88.26,12.95,2.09,19.95,5.16,9.95,4.36,16.98,10.04,20.07,14.45-.2.03-.39.06-.6.08Z"/>
  <g>
    <g>
      <path class="cls-6" d="M45.51,48.8c-23.43,0-37.32,8.86-37.32,19.78,0,4.57,2.43,8.78,6.97,12.12.35.26.72.51,1.09.76,2.34,1.54,5.16,2.87,8.42,3.95,2.1.69,4.37,1.27,6.84,1.73,3.29.62,6.89,1.01,10.79,1.16,1.04.03,2.12.06,3.21.06s2.08-.02,3.09-.06c12.4-.42,21.85-3.44,27.63-7.92.75-.57,1.44-1.18,2.07-1.81,2.92-2.94,4.46-6.35,4.46-9.99,0-10.93-13.83-19.78-37.25-19.78ZM77.1,63.71c-.2,1.49-1.03,2.91-2.37,4.2-.26.26-.53.51-.83.75-4.68,3.9-13.95,6.68-24.91,7.17-1.08.06-2.17.08-3.28.08h-.19c-4.71,0-9.19-.42-13.21-1.18-2.49-.47-4.8-1.07-6.89-1.78-2.62-.87-4.89-1.93-6.71-3.12-.26-.17-.51-.34-.75-.52-2.43-1.76-3.88-3.79-4.05-5.95-.03-.14-.03-.28-.03-.42,0-7.17,14.16-12.97,31.65-12.97s31.65,5.8,31.65,12.97c0,.26-.02.52-.07.78Z"/>
      <path class="cls-6" d="M52.23,49.06c-2.14-.17-4.38-.26-6.72-.26-23.43,0-37.32,8.86-37.32,19.78,0,4.57,2.43,8.78,6.98,12.12.35.26.71.51,1.09.76,2.34,1.55,5.15,2.88,8.41,3.96,2.1.69,4.38,1.27,6.84,1.72,3.29.63,6.89,1.01,10.79,1.16,1.04.03,2.12.06,3.21.06s2.08-.03,3.09-.06c9.94-.34,17.99-2.35,23.77-5.44,1.43-.76,2.72-1.59,3.86-2.48.75-.56,1.45-1.18,2.07-1.8,2.92-2.94,4.46-6.35,4.46-10,0-9.83-11.21-17.99-30.53-19.52ZM77.1,63.71c-.21,1.49-1.04,2.91-2.38,4.2-.26.27-.53.52-.82.75-.69.58-1.49,1.13-2.38,1.66-5.09,3.01-13.2,5.09-22.53,5.51-1.08.06-2.17.08-3.28.08h-.2c-4.71,0-9.18-.42-13.2-1.18-2.49-.47-4.81-1.07-6.9-1.78-2.62-.88-4.89-1.94-6.71-3.13-.26-.17-.51-.34-.75-.52-2.43-1.76-3.88-3.79-4.05-5.95-.04-.14-.04-.29-.04-.42,0-7.17,14.16-12.97,31.65-12.97,2.53,0,5,.12,7.36.36,13.93,1.35,24.3,6.48,24.3,12.61,0,.26-.03.52-.07.78Z"/>
      <path class="cls-4" d="M82.76,68.58c0,3.65-1.54,7.06-4.46,10-.62.62-1.32,1.24-2.07,1.8-1.14.89-2.43,1.72-3.86,2.48-.08-1.2.08-2.5.18-3.69.26-2.98-.12-6-1.03-8.85.89-.53,1.69-1.08,2.38-1.66.29-.23.56-.48.82-.75,1.34-1.29,2.17-2.71,2.38-4.2.04-.26.07-.52.07-.78,0-6.13-10.37-11.26-24.3-12.61-.25-.4-.46-.82-.64-1.26,19.32,1.53,30.53,9.69,30.53,19.52Z"/>
      <path class="cls-4" d="M76.23,80.38c-.79.62-1.65,1.21-2.6,1.76-2.28,1.38-4.98,2.56-8.06,3.5-1,.31-2.04.6-3.12.87-4.07.99-8.71,1.62-13.85,1.79,1.16-4.03,1.29-8.37.39-12.47,5.39-.24,10.37-1.03,14.59-2.25.36-.1.71-.2,1.05-.31,3.02-.93,5.61-2.1,7.64-3.41.59-.39,1.14-.79,1.63-1.2.29-.23.56-.48.82-.75,1.68,3.9,2.23,8.28,1.51,12.47Z"/>
      <path class="cls-1" d="M76.23,80.38c-.79.62-1.65,1.21-2.6,1.76-2.28,1.38-4.98,2.56-8.06,3.5-1,.31-2.04.6-3.12.87,1.71-4.04,2.11-8.65,1.13-12.93.36-.1.71-.2,1.05-.31,3.02-.93,5.61-2.1,7.64-3.41.59-.39,1.14-.79,1.63-1.2.29-.23.56-.48.82-.75,1.68,3.9,2.23,8.28,1.51,12.47Z"/>
      <path class="cls-1" d="M77.16,62.93c0,1.33-.49,2.6-1.37,3.8-3.95-5.32-16.01-9.19-30.28-9.19-8.52,0-16.25,1.39-21.95,3.62-.01.01-.02.02-.03.02-3.82,1.51-6.7,3.41-8.29,5.54-.89-1.2-1.37-2.48-1.37-3.8,0-7.17,14.16-12.97,31.65-12.97,5.46,0,10.6.57,15.07,1.57.01-.01.01,0,.01,0,9.87,2.19,16.57,6.47,16.57,11.4Z"/>
      <path class="cls-2" d="M60.58,51.52c-12.91-.36-25.94,3.01-37.02,9.64-.01.01-.02.02-.03.02-3.82,1.51-6.7,3.41-8.29,5.54-.89-1.2-1.37-2.48-1.37-3.8,0-7.17,14.16-12.97,31.65-12.97,5.46,0,10.6.57,15.07,1.57Z"/>
      <path class="cls-3" d="M77.13,64.19c0,7.75-14.17,14.03-31.65,14.03s-31.65-6.28-31.65-14.03c0-.28.02-.56.07-.84.52,6.97,14.47,12.56,31.62,12.56s30.61-5.39,31.58-12.2c.02.16.03.32.03.48Z"/>
      <path class="cls-3" d="M31.51,87.14c-2.46-.45-4.74-1.03-6.84-1.73-3.26-1.08-6.08-2.41-8.42-3.95,0-.36.01-.73.03-1.08.2-3.74.76-7.45,1.66-11.08.24.18.49.35.75.52,1.82,1.19,4.09,2.25,6.71,3.12,2.09.72,4.41,1.32,6.89,1.78-1.01,4.04-1.28,8.27-.8,12.41Z"/>
    </g>
    <g>
      <path class="cls-6" d="M84.52,37.51c-8.21-3.6-15.65-5.45-21.97-5.8-10.2-.58-17.45,2.76-20.16,8.94-1.83,4.18-1.3,9.01,1.52,13.89.22.38.45.76.7,1.14.52.8,1.09,1.6,1.73,2.39,1.24,1.55,2.7,3.09,4.39,4.61,1.64,1.48,3.49,2.92,5.56,4.32,2.77,1.9,5.91,3.7,9.42,5.4.94.45,1.92.9,2.92,1.34.96.42,1.91.81,2.85,1.19,2.05.82,4.05,1.52,6,2.12,8.96,2.75,16.66,3.18,22.49,1.73.91-.22,1.79-.51,2.61-.83,1.64-.64,3.08-1.47,4.31-2.46,1.67-1.33,2.95-2.98,3.8-4.9,4.38-10-4.73-23.67-26.17-33.08ZM103.59,66.75c-.34.13-.69.25-1.06.35-4.82,1.39-12.2.84-20.38-1.61-1.74-.52-3.51-1.13-5.31-1.83-1.01-.38-2.01-.79-3.03-1.24l-.18-.08c-4.32-1.89-8.25-4.07-11.62-6.39-2.09-1.42-3.97-2.9-5.6-4.4-2.05-1.85-3.71-3.73-4.89-5.55-.17-.26-.33-.52-.48-.78-.97-1.64-1.52-3.22-1.62-4.68-.06-.85.04-1.65.3-2.4.02-.14.08-.27.13-.4,1.01-2.3,3.53-3.74,7.08-4.35,6.59-1.14,16.7.61,27.12,5.18,14.74,6.46,24.94,16.31,24.21,22.95-.06.57-.2,1.12-.43,1.64-.11.24-.23.47-.38.69-.78,1.28-2.11,2.25-3.86,2.9Z"/>
      <path class="cls-4" d="M108.18,71.66c-.27,1.31-.7,2.61-1.29,3.83-.54.44-1.13.84-1.75,1.2-.79.49-1.64.9-2.56,1.26-.82.32-1.7.61-2.61.83-2.22.55-4.71.83-7.44.82-4.43-.03-9.5-.85-15.05-2.55,2.04-2.12,3.51-4.78,4.2-7.64.31-1.28.47-2.6.47-3.92,4.69,1.4,9.11,2.19,12.94,2.33,2.86.11,5.38-.13,7.44-.72.37-.1.72-.22,1.06-.35,1.18-.44,2.17-1.02,2.93-1.76.37-.34.68-.72.93-1.14.15-.22.27-.45.38-.69.23-.52.37-1.07.43-1.64.39,3.39.6,6.81-.08,10.14Z"/>
      <path class="cls-1" d="M105.48,76.01c-.1.23-.22.46-.34.68-.79.49-1.64.9-2.56,1.26-.82.32-1.7.61-2.61.83-2.22.55-4.71.83-7.44.82,2.02-3.54,2.92-7.72,2.56-11.78,2.86.11,5.38-.13,7.44-.72.37-.1.72-.22,1.06-.35,1.18-.44,2.17-1.02,2.93-1.76.88,3.65.54,7.6-1.04,11.02Z"/>
      <path class="cls-1" d="M107.83,63.16c-.53,1.22-1.49,2.19-2.79,2.93-1.48-6.45-10.98-14.85-24.04-20.57-7.8-3.42-15.44-5.26-21.56-5.5-.01,0-.03.01-.04,0-4.1-.15-7.5.43-9.82,1.75-.33-1.46-.26-2.82.27-4.04,2.88-6.56,18.18-6.19,34.2.83,5,2.19,9.48,4.78,13.17,7.49.01,0,.01,0,.01,0,8.16,5.97,12.58,12.58,10.6,17.1Z"/>
      <path class="cls-2" d="M97.22,46.06c-11.68-5.52-24.96-7.66-37.78-6.04-.01,0-.03.01-.04,0-4.1-.15-7.5.43-9.82,1.75-.33-1.46-.26-2.82.27-4.04,2.88-6.56,18.18-6.19,34.2.83,5,2.19,9.48,4.78,13.17,7.49Z"/>
      <path class="cls-3" d="M107.29,64.3c-3.11,7.09-18.61,7.15-34.62.13s-26.47-18.46-23.35-25.56c.11-.26.24-.5.4-.74-2.32,6.6,8.21,17.31,23.91,24.2,15.42,6.76,30.2,7.35,33.82,1.51-.04.15-.1.3-.16.45Z"/>
      <path class="cls-3" d="M62.55,31.71c-1.95.28-3.86.84-5.62,1.68-3.55.61-6.07,2.05-7.08,4.35-.05.13-.11.26-.13.4-.26.75-.36,1.55-.3,2.4-1.46,2.6-2.36,5.55-2.79,8.51-.43,2.98-.44,6-.29,9.02-.64-.79-1.21-1.59-1.73-2.39-.25-.38-.48-.76-.7-1.14-2.82-4.88-3.35-9.71-1.52-13.89,2.71-6.18,9.96-9.52,20.16-8.94Z"/>
    </g>
  </g>
</svg>