<?xml version="1.0" encoding="UTF-8"?>
<svg id="Icon" xmlns="http://www.w3.org/2000/svg" viewBox="0 0 120 120">
  <defs>
    <style>
      .cls-1 {
        fill: #e1fcc5;
      }

      .cls-2 {
        fill: #12993f;
      }

      .cls-3 {
        fill: #1cb829;
      }

      .cls-4 {
        fill: #34d434;
      }

      .cls-5 {
        fill: #086d3b;
      }

      .cls-6 {
        fill: #05542a;
      }
    </style>
  </defs>
  <g>
    <path class="cls-6" d="M118.32,53.32v32.63s-.01.08-.01.11c-.01.18-.02.35-.05.52-.01.06-.02.13-.03.19-.05.2-.1.41-.18.6,0,.02-.01.04-.02.05-.07.2-.17.39-.27.56-.04.06-.07.11-.11.17-.09.13-.18.26-.28.38-.05.05-.09.1-.13.14-.13.14-.27.28-.42.4-.02,0-.04.03-.06.04-.17.14-.35.25-.54.35-.05.03-.11.06-.17.09-.15.07-.29.13-.45.18-.06.02-.12.04-.19.06-.21.06-.43.11-.66.14l-40.45,4.41c-.14.01-.28.02-.43.02-.27,0-.53-.03-.79-.08-.01,0-.03,0-.05-.01t-.02.01c-.07.02-.13.05-.2.06-.21.06-.43.11-.65.14l-40.45,4.41c-.15.02-.29.02-.43.02-.01,0-.01.01-.01.01-.26,0-.52-.04-.78-.09h-.06c-.06-.02-.13-.05-.19-.07-.17-.04-.34-.09-.51-.16-.03-.02-.07-.02-.1-.04-.06-.03-.11-.07-.17-.1-.15-.07-.29-.15-.42-.25-.05-.03-.1-.04-.14-.08-.04-.03-.08-.07-.12-.11-.06-.04-.12-.08-.18-.13-.06-.05-.1-.12-.16-.18s-.12-.1-.17-.16l-12.31-14.04c-.15-.17-.27-.35-.39-.53-.02-.04-.04-.07-.06-.11t-.01-.01c-.06-.04-.12-.08-.18-.13s-.11-.12-.16-.18c-.06-.06-.12-.1-.18-.16l-12.31-14.04c-.14-.17-.27-.35-.38-.53-.03-.06-.06-.11-.1-.17-.07-.14-.14-.28-.2-.43-.03-.06-.05-.12-.07-.18-.07-.18-.12-.37-.16-.55,0-.03-.01-.05-.01-.07-.04-.22-.06-.43-.06-.65,0-.02-.01-.04-.01-.06v-32.63s.01-.1.01-.16c.01-.11.02-.23.03-.35.01-.08.03-.16.04-.24.02-.11.05-.22.08-.32.02-.09.04-.17.07-.25.02-.04.03-.09.04-.13.03-.06.06-.11.08-.17.04-.08.07-.15.11-.23.05-.1.11-.19.17-.29.04-.06.08-.13.13-.2.07-.09.14-.18.22-.27.05-.05.09-.11.15-.17.09-.09.18-.17.28-.26.05-.04.09-.08.14-.12.15-.12.31-.22.47-.32.04-.02.08-.03.12-.05.13-.07.27-.14.41-.2.02,0,.03-.01.04-.02.06-.02.11-.02.17-.04.11-.04.23-.08.35-.1.08-.02.17-.04.25-.05.07-.01.14-.03.21-.04l33.06-3.6c.07-.05.14-.1.21-.14.04-.02.08-.04.11-.06.14-.07.27-.13.42-.19.01-.01.03-.01.04-.02.05-.02.11-.03.16-.05.12-.04.23-.07.35-.1.09-.02.17-.03.26-.05.07-.01.13-.02.2-.03l4.1-.45v-11.4c0-.06.01-.11.01-.16.01-.12.01-.23.03-.35.01-.08.02-.16.04-.25.02-.1.04-.21.07-.32.03-.08.05-.16.08-.24.02-.05.02-.09.04-.13.02-.06.06-.12.08-.17.04-.08.07-.16.11-.23.05-.1.11-.19.17-.29.04-.07.08-.13.13-.2.07-.09.14-.18.22-.27.05-.06.09-.11.14-.17.09-.09.19-.17.29-.26.04-.04.09-.08.14-.12.15-.12.31-.23.47-.32.04-.02.08-.03.11-.05.14-.07.28-.14.42-.2,0,0,.03-.01.04-.02.05-.02.11-.03.16-.04.12-.04.24-.08.36-.11.08-.02.16-.03.24-.04.07-.01.14-.03.22-.04l40.44-4.41c1.3-.14,2.58.36,3.44,1.34l12.32,14.04c.05.07.1.14.15.21.04.05.07.09.11.14.14.2.26.41.36.63.02.03.03.07.05.11.08.2.15.41.2.62.01.05.02.09.03.14.05.24.08.49.08.73,0,.02.01.04.01.06v13.9l.1.1,12.31,14.04.15.21s.08.09.11.14c.14.2.26.41.36.63.02.04.03.07.05.11.08.2.15.41.2.62.01.05.03.09.04.15.04.23.07.48.07.72,0,.02.01.04.01.06Z"/>
    <g>
      <g>
        <polygon class="cls-2" points="100.92 38.95 60.47 43.37 48.16 29.32 88.61 24.91 100.92 38.95"/>
        <polygon class="cls-4" points="100.92 22.64 60.47 27.05 48.16 13.01 88.61 8.59 100.92 22.64"/>
        <polygon class="cls-2" points="61.13 25.7 50.87 13.99 87.95 9.95 98.21 21.65 61.13 25.7"/>
        <path class="cls-4" d="M60.25,22.59l-5.13-5.85c1.4-.15,1.84-1.06.99-2.03l28.65-3.13c.85.97,2.67,1.63,4.07,1.48l5.13,5.85c-1.4.15-1.84,1.06-.99,2.03l-28.65,3.13c-.85-.97-2.67-1.63-4.07-1.48Z"/>
        <g>
          <path class="cls-2" d="M65.45,17.83s-.07.04-.1.05-.05.03-.08.04-.05.02-.07.02-.05,0-.07.01c-.05,0-.11,0-.17,0s-.11-.02-.17-.05-.1-.05-.15-.08-.08-.06-.11-.1c-.07-.08-.08-.14-.05-.21.02-.04.07-.1.16-.18s.2-.17.34-.27c.08-.06.15-.11.21-.15s.12-.08.17-.1.11-.05.16-.07.11-.03.17-.03c.15-.02.3,0,.44.05s.26.13.35.24l2.71,3.09c.09.1.12.19.08.25s-.15.11-.32.13-.33,0-.47-.04-.25-.12-.34-.23l-2.29-2.62-.39.23Z"/>
          <path class="cls-2" d="M68.99,18.48c-.29-.33-.48-.62-.59-.88s-.13-.48-.08-.66.18-.33.38-.44.46-.18.78-.22.64-.03.96.02.65.14.97.27.63.31.94.53.6.49.88.81.48.62.59.88.13.48.08.66-.18.33-.38.44-.46.18-.78.22-.64.03-.96-.02-.65-.14-.97-.27-.63-.31-.94-.53-.6-.49-.88-.81ZM70,18.31c.22.25.43.45.64.62s.41.29.61.39.38.16.56.19.34.04.48.03.27-.05.36-.12.14-.15.15-.27-.03-.26-.12-.44-.24-.39-.46-.63-.43-.45-.64-.62-.41-.29-.61-.39-.38-.16-.56-.19-.34-.04-.49-.02-.27.05-.36.12-.14.15-.15.27.03.26.12.44.24.39.46.63Z"/>
          <path class="cls-2" d="M74.15,17.92c-.29-.33-.48-.62-.59-.88s-.13-.48-.08-.66.18-.33.38-.44.46-.18.78-.22.64-.03.96.02.65.14.97.27.63.31.94.53.6.49.88.81.48.62.59.88.13.48.08.66-.18.33-.38.44-.46.18-.78.22-.64.03-.96-.02-.65-.14-.97-.27-.63-.31-.94-.53-.6-.49-.88-.81ZM75.16,17.75c.22.25.43.45.64.62s.41.29.61.39.38.16.56.19.34.04.48.03.27-.05.36-.12.14-.15.15-.27-.03-.26-.12-.44-.24-.39-.46-.63-.43-.45-.64-.62-.41-.29-.61-.39-.38-.16-.56-.19-.34-.04-.49-.02-.27.05-.36.12-.14.15-.15.27.03.26.12.44.24.39.46.63Z"/>
          <path class="cls-2" d="M79.31,17.36c-.29-.33-.48-.62-.59-.88s-.13-.48-.08-.66.18-.33.38-.44.46-.18.78-.22.64-.03.96.02.65.14.97.27.63.31.94.53.6.49.88.81.48.62.59.88.13.48.08.66-.18.33-.38.44-.46.18-.78.22-.64.03-.96-.02-.65-.14-.97-.27-.63-.31-.94-.53-.6-.49-.88-.81ZM80.32,17.19c.22.25.43.45.64.62s.41.29.61.39.38.16.56.19.34.04.48.03.27-.05.36-.12.14-.15.15-.27-.03-.26-.12-.44-.24-.39-.46-.63-.43-.45-.64-.62-.41-.29-.61-.39-.38-.16-.56-.19-.34-.04-.49-.02-.27.05-.36.12-.14.15-.15.27.03.26.12.44.24.39.46.63Z"/>
        </g>
        <polygon class="cls-3" points="60.47 27.05 60.47 43.37 48.16 29.32 48.16 13.01 60.47 27.05"/>
        <polygon class="cls-2" points="60.47 27.05 60.47 43.37 100.92 38.95 100.92 22.64 60.47 27.05"/>
        <g>
          <polygon class="cls-5" points="60.47 28.18 60.47 28.6 100.92 24.19 100.92 23.77 60.47 28.18"/>
          <polygon class="cls-5" points="60.47 29.92 60.47 30.33 100.92 25.92 100.92 25.5 60.47 29.92"/>
          <polygon class="cls-5" points="60.47 31.65 60.47 32.07 100.92 27.65 100.92 27.24 60.47 31.65"/>
          <polygon class="cls-5" points="60.47 33.38 60.47 33.8 100.92 29.39 100.92 28.97 60.47 33.38"/>
          <polygon class="cls-5" points="60.47 35.12 60.47 35.54 100.92 31.12 100.92 30.7 60.47 35.12"/>
          <polygon class="cls-5" points="60.47 36.85 60.47 37.27 100.92 32.86 100.92 32.44 60.47 36.85"/>
          <polygon class="cls-5" points="60.47 38.59 60.47 39 100.92 34.59 100.92 34.17 60.47 38.59"/>
          <polygon class="cls-5" points="60.47 40.32 60.47 40.74 100.92 36.32 100.92 35.91 60.47 40.32"/>
          <polygon class="cls-5" points="60.47 42.05 60.47 42.47 100.92 38.06 100.92 37.64 60.47 42.05"/>
        </g>
        <g>
          <polygon class="cls-2" points="60.47 28.18 60.47 28.6 48.16 14.73 48.16 14.31 60.47 28.18"/>
          <polygon class="cls-2" points="60.47 29.92 60.47 30.33 48.16 16.46 48.16 16.04 60.47 29.92"/>
          <polygon class="cls-2" points="60.47 31.65 60.47 32.07 48.16 18.19 48.16 17.78 60.47 31.65"/>
          <polygon class="cls-2" points="60.47 33.38 60.47 33.8 48.16 19.93 48.16 19.51 60.47 33.38"/>
          <polygon class="cls-2" points="60.47 35.12 60.47 35.54 48.16 21.66 48.16 21.25 60.47 35.12"/>
          <polygon class="cls-2" points="60.47 36.85 60.47 37.27 48.16 23.4 48.16 22.98 60.47 36.85"/>
          <polygon class="cls-2" points="60.47 38.59 60.47 39 48.16 25.13 48.16 24.71 60.47 38.59"/>
          <polygon class="cls-2" points="60.47 40.32 60.47 40.74 48.16 26.86 48.16 26.45 60.47 40.32"/>
          <polygon class="cls-2" points="60.47 42.05 60.47 42.47 48.16 28.6 48.16 28.18 60.47 42.05"/>
        </g>
        <g>
          <polygon class="cls-2" points="100.92 55.27 60.47 59.68 48.16 45.64 88.61 41.22 100.92 55.27"/>
          <polygon class="cls-3" points="60.47 43.37 60.47 59.68 48.16 45.64 48.16 29.32 60.47 43.37"/>
          <polygon class="cls-2" points="60.47 43.37 60.47 59.68 100.92 55.27 100.92 38.95 60.47 43.37"/>
          <g>
            <polygon class="cls-5" points="60.47 44.5 60.47 44.91 100.92 40.5 100.92 40.08 60.47 44.5"/>
            <polygon class="cls-5" points="60.47 46.23 60.47 46.65 100.92 42.23 100.92 41.82 60.47 46.23"/>
            <polygon class="cls-5" points="60.47 47.96 60.47 48.38 100.92 43.97 100.92 43.55 60.47 47.96"/>
            <polygon class="cls-5" points="60.47 49.7 60.47 50.12 100.92 45.7 100.92 45.29 60.47 49.7"/>
            <polygon class="cls-5" points="60.47 51.43 60.47 51.85 100.92 47.44 100.92 47.02 60.47 51.43"/>
            <polygon class="cls-5" points="60.47 53.17 60.47 53.58 100.92 49.17 100.92 48.75 60.47 53.17"/>
            <polygon class="cls-5" points="60.47 54.9 60.47 55.32 100.92 50.91 100.92 50.49 60.47 54.9"/>
            <polygon class="cls-5" points="60.47 56.64 60.47 57.05 100.92 52.64 100.92 52.22 60.47 56.64"/>
            <polygon class="cls-5" points="60.47 58.37 60.47 58.79 100.92 54.37 100.92 53.96 60.47 58.37"/>
          </g>
          <g>
            <polygon class="cls-2" points="60.47 44.5 60.47 44.91 48.16 31.04 48.16 30.62 60.47 44.5"/>
            <polygon class="cls-2" points="60.47 46.23 60.47 46.65 48.16 32.77 48.16 32.36 60.47 46.23"/>
            <polygon class="cls-2" points="60.47 47.96 60.47 48.38 48.16 34.51 48.16 34.09 60.47 47.96"/>
            <polygon class="cls-2" points="60.47 49.7 60.47 50.12 48.16 36.24 48.16 35.83 60.47 49.7"/>
            <polygon class="cls-2" points="60.47 51.43 60.47 51.85 48.16 37.98 48.16 37.56 60.47 51.43"/>
            <polygon class="cls-2" points="60.47 53.17 60.47 53.58 48.16 39.71 48.16 39.29 60.47 53.17"/>
            <polygon class="cls-2" points="60.47 54.9 60.47 55.32 48.16 41.45 48.16 41.03 60.47 54.9"/>
            <polygon class="cls-2" points="60.47 56.64 60.47 57.05 48.16 43.18 48.16 42.76 60.47 56.64"/>
            <polygon class="cls-2" points="60.47 58.37 60.47 58.79 48.16 44.91 48.16 44.5 60.47 58.37"/>
          </g>
        </g>
      </g>
      <g>
        <polygon class="cls-2" points="114.32 69.63 73.87 74.05 61.56 60 102.01 55.59 114.32 69.63"/>
        <polygon class="cls-4" points="114.32 53.32 73.87 57.73 61.56 43.69 102.01 39.27 114.32 53.32"/>
        <polygon class="cls-2" points="74.53 56.38 64.27 44.67 101.35 40.63 111.61 52.33 74.53 56.38"/>
        <path class="cls-4" d="M73.65,53.27l-5.13-5.85c1.4-.15,1.84-1.06.99-2.03l28.65-3.13c.85.97,2.67,1.63,4.07,1.48l5.13,5.85c-1.4.15-1.84,1.06-.99,2.03l-28.65,3.13c-.85-.97-2.67-1.63-4.07-1.48Z"/>
        <g>
          <path class="cls-2" d="M78.85,48.51s-.07.04-.1.05-.05.03-.08.04-.05.02-.07.02-.05,0-.07.01c-.05,0-.11,0-.17,0s-.11-.02-.17-.05-.1-.05-.15-.08-.08-.06-.11-.1c-.07-.08-.08-.14-.05-.21.02-.04.07-.1.16-.18s.2-.17.34-.27c.08-.06.15-.11.21-.15s.12-.08.17-.1.11-.05.16-.07.11-.03.17-.03c.15-.02.3,0,.44.05s.26.13.35.24l2.71,3.09c.09.1.12.19.08.25s-.15.11-.32.13-.33,0-.47-.04-.25-.12-.34-.23l-2.29-2.62-.39.23Z"/>
          <path class="cls-2" d="M82.39,49.16c-.29-.33-.48-.62-.59-.88s-.13-.48-.08-.66.18-.33.38-.44.46-.18.78-.22.64-.03.96.02.65.14.97.27.63.31.94.53.6.49.88.81.48.62.59.88.13.48.08.66-.18.33-.38.44-.46.18-.78.22-.64.03-.96-.02-.65-.14-.97-.27-.63-.31-.94-.53-.6-.49-.88-.81ZM83.4,48.99c.22.25.43.45.64.62s.41.29.61.39.38.16.56.19.34.04.48.03.27-.05.36-.12.14-.15.15-.27-.03-.26-.12-.44-.24-.39-.46-.63-.43-.45-.64-.62-.41-.29-.61-.39-.38-.16-.56-.19-.34-.04-.49-.02-.27.05-.36.12-.14.15-.15.27.03.26.12.44.24.39.46.63Z"/>
          <path class="cls-2" d="M87.55,48.6c-.29-.33-.48-.62-.59-.88s-.13-.48-.08-.66.18-.33.38-.44.46-.18.78-.22.64-.03.96.02.65.14.97.27.63.31.94.53.6.49.88.81.48.62.59.88.13.48.08.66-.18.33-.38.44-.46.18-.78.22-.64.03-.96-.02-.65-.14-.97-.27-.63-.31-.94-.53-.6-.49-.88-.81ZM88.56,48.43c.22.25.43.45.64.62s.41.29.61.39.38.16.56.19.34.04.48.03.27-.05.36-.12.14-.15.15-.27-.03-.26-.12-.44-.24-.39-.46-.63-.43-.45-.64-.62-.41-.29-.61-.39-.38-.16-.56-.19-.34-.04-.49-.02-.27.05-.36.12-.14.15-.15.27.03.26.12.44.24.39.46.63Z"/>
          <path class="cls-2" d="M92.71,48.04c-.29-.33-.48-.62-.59-.88s-.13-.48-.08-.66.18-.33.38-.44.46-.18.78-.22.64-.03.96.02.65.14.97.27.63.31.94.53.6.49.88.81.48.62.59.88.13.48.08.66-.18.33-.38.44-.46.18-.78.22-.64.03-.96-.02-.65-.14-.97-.27-.63-.31-.94-.53-.6-.49-.88-.81ZM93.72,47.87c.22.25.43.45.64.62s.41.29.61.39.38.16.56.19.34.04.48.03.27-.05.36-.12.14-.15.15-.27-.03-.26-.12-.44-.24-.39-.46-.63-.43-.45-.64-.62-.41-.29-.61-.39-.38-.16-.56-.19-.34-.04-.49-.02-.27.05-.36.12-.14.15-.15.27.03.26.12.44.24.39.46.63Z"/>
        </g>
        <polygon class="cls-3" points="73.87 57.73 73.87 74.05 61.56 60 61.56 43.69 73.87 57.73"/>
        <polygon class="cls-2" points="73.87 57.73 73.87 74.05 114.32 69.63 114.32 53.32 73.87 57.73"/>
        <g>
          <polygon class="cls-5" points="73.87 58.86 73.87 59.28 114.32 54.87 114.32 54.45 73.87 58.86"/>
          <polygon class="cls-5" points="73.87 60.6 73.87 61.01 114.32 56.6 114.32 56.18 73.87 60.6"/>
          <polygon class="cls-5" points="73.87 62.33 73.87 62.75 114.32 58.33 114.32 57.92 73.87 62.33"/>
          <polygon class="cls-5" points="73.87 64.06 73.87 64.48 114.32 60.07 114.32 59.65 73.87 64.06"/>
          <polygon class="cls-5" points="73.87 65.8 73.87 66.22 114.32 61.8 114.32 61.39 73.87 65.8"/>
          <polygon class="cls-5" points="73.87 67.53 73.87 67.95 114.32 63.54 114.32 63.12 73.87 67.53"/>
          <polygon class="cls-5" points="73.87 69.27 73.87 69.68 114.32 65.27 114.32 64.85 73.87 69.27"/>
          <polygon class="cls-5" points="73.87 71 73.87 71.42 114.32 67 114.32 66.59 73.87 71"/>
          <polygon class="cls-5" points="73.87 72.74 73.87 73.15 114.32 68.74 114.32 68.32 73.87 72.74"/>
        </g>
        <g>
          <polygon class="cls-2" points="73.87 58.86 73.87 59.28 61.56 45.41 61.56 44.99 73.87 58.86"/>
          <polygon class="cls-2" points="73.87 60.6 73.87 61.01 61.56 47.14 61.56 46.72 73.87 60.6"/>
          <polygon class="cls-2" points="73.87 62.33 73.87 62.75 61.56 48.87 61.56 48.46 73.87 62.33"/>
          <polygon class="cls-2" points="73.87 64.06 73.87 64.48 61.56 50.61 61.56 50.19 73.87 64.06"/>
          <polygon class="cls-2" points="73.87 65.8 73.87 66.22 61.56 52.34 61.56 51.93 73.87 65.8"/>
          <polygon class="cls-2" points="73.87 67.53 73.87 67.95 61.56 54.08 61.56 53.66 73.87 67.53"/>
          <polygon class="cls-2" points="73.87 69.27 73.87 69.68 61.56 55.81 61.56 55.39 73.87 69.27"/>
          <polygon class="cls-2" points="73.87 71 73.87 71.42 61.56 57.55 61.56 57.13 73.87 71"/>
          <polygon class="cls-2" points="73.87 72.74 73.87 73.15 61.56 59.28 61.56 58.86 73.87 72.74"/>
        </g>
        <g>
          <polygon class="cls-2" points="114.32 85.95 73.87 90.36 61.56 76.32 102.01 71.9 114.32 85.95"/>
          <polygon class="cls-3" points="73.87 74.05 73.87 90.36 61.56 76.32 61.56 60 73.87 74.05"/>
          <polygon class="cls-2" points="73.87 74.05 73.87 90.36 114.32 85.95 114.32 69.63 73.87 74.05"/>
          <g>
            <polygon class="cls-5" points="73.87 75.18 73.87 75.59 114.32 71.18 114.32 70.76 73.87 75.18"/>
            <polygon class="cls-5" points="73.87 76.91 73.87 77.33 114.32 72.91 114.32 72.5 73.87 76.91"/>
            <polygon class="cls-5" points="73.87 78.65 73.87 79.06 114.32 74.65 114.32 74.23 73.87 78.65"/>
            <polygon class="cls-5" points="73.87 80.38 73.87 80.8 114.32 76.38 114.32 75.97 73.87 80.38"/>
            <polygon class="cls-5" points="73.87 82.11 73.87 82.53 114.32 78.12 114.32 77.7 73.87 82.11"/>
            <polygon class="cls-5" points="73.87 83.85 73.87 84.26 114.32 79.85 114.32 79.43 73.87 83.85"/>
            <polygon class="cls-5" points="73.87 85.58 73.87 86 114.32 81.59 114.32 81.17 73.87 85.58"/>
            <polygon class="cls-5" points="73.87 87.32 73.87 87.73 114.32 83.32 114.32 82.9 73.87 87.32"/>
            <polygon class="cls-5" points="73.87 89.05 73.87 89.47 114.32 85.05 114.32 84.64 73.87 89.05"/>
          </g>
          <g>
            <polygon class="cls-2" points="73.87 75.18 73.87 75.59 61.56 61.72 61.56 61.3 73.87 75.18"/>
            <polygon class="cls-2" points="73.87 76.91 73.87 77.33 61.56 63.46 61.56 63.04 73.87 76.91"/>
            <polygon class="cls-2" points="73.87 78.65 73.87 79.06 61.56 65.19 61.56 64.77 73.87 78.65"/>
            <polygon class="cls-2" points="73.87 80.38 73.87 80.8 61.56 66.92 61.56 66.51 73.87 80.38"/>
            <polygon class="cls-2" points="73.87 82.11 73.87 82.53 61.56 68.66 61.56 68.24 73.87 82.11"/>
            <polygon class="cls-2" points="73.87 83.85 73.87 84.26 61.56 70.39 61.56 69.97 73.87 83.85"/>
            <polygon class="cls-2" points="73.87 85.58 73.87 86 61.56 72.13 61.56 71.71 73.87 85.58"/>
            <polygon class="cls-2" points="73.87 87.32 73.87 87.73 61.56 73.86 61.56 73.44 73.87 87.32"/>
            <polygon class="cls-2" points="73.87 89.05 73.87 89.47 61.56 75.59 61.56 75.18 73.87 89.05"/>
          </g>
        </g>
      </g>
      <g>
        <polygon class="cls-2" points="58.44 59.03 17.99 63.44 5.68 49.39 46.13 44.98 58.44 59.03"/>
        <polygon class="cls-4" points="58.44 42.71 17.99 47.12 5.68 33.08 46.13 28.67 58.44 42.71"/>
        <polygon class="cls-2" points="18.65 45.77 8.39 34.07 45.47 30.02 55.73 41.72 18.65 45.77"/>
        <path class="cls-4" d="M17.77,42.66l-5.13-5.85c1.4-.15,1.84-1.06.99-2.03l28.65-3.13c.85.97,2.67,1.63,4.07,1.48l5.13,5.85c-1.4.15-1.84,1.06-.99,2.03l-28.65,3.13c-.85-.97-2.67-1.63-4.07-1.48Z"/>
        <g>
          <path class="cls-2" d="M22.98,37.9s-.07.04-.1.05-.05.03-.08.04-.05.02-.07.02-.05,0-.07.01c-.05,0-.11,0-.17,0s-.11-.02-.17-.05-.1-.05-.15-.08-.08-.06-.11-.1c-.07-.08-.08-.14-.05-.21.02-.04.07-.1.16-.18s.2-.17.34-.27c.08-.06.15-.11.21-.15s.12-.08.17-.1.11-.05.16-.07.11-.03.17-.03c.15-.02.3,0,.44.05s.26.13.35.24l2.71,3.09c.09.1.12.19.08.25s-.15.11-.32.13-.33,0-.47-.04-.25-.12-.34-.23l-2.29-2.62-.39.23Z"/>
          <path class="cls-2" d="M26.51,38.56c-.29-.33-.48-.62-.59-.88s-.13-.48-.08-.66.18-.33.38-.44.46-.18.78-.22.64-.03.96.02.65.14.97.27.63.31.94.53.6.49.88.81.48.62.59.88.13.48.08.66-.18.33-.38.44-.46.18-.78.22-.64.03-.96-.02-.65-.14-.97-.27-.63-.31-.94-.53-.6-.49-.88-.81ZM27.52,38.39c.22.25.43.45.64.62s.41.29.61.39.38.16.56.19.34.04.48.03.27-.05.36-.12.14-.15.15-.27-.03-.26-.12-.44-.24-.39-.46-.63-.43-.45-.64-.62-.41-.29-.61-.39-.38-.16-.56-.19-.34-.04-.49-.02-.27.05-.36.12-.14.15-.15.27.03.26.12.44.24.39.46.63Z"/>
          <path class="cls-2" d="M31.67,37.99c-.29-.33-.48-.62-.59-.88s-.13-.48-.08-.66.18-.33.38-.44.46-.18.78-.22.64-.03.96.02.65.14.97.27.63.31.94.53.6.49.88.81.48.62.59.88.13.48.08.66-.18.33-.38.44-.46.18-.78.22-.64.03-.96-.02-.65-.14-.97-.27-.63-.31-.94-.53-.6-.49-.88-.81ZM32.69,37.82c.22.25.43.45.64.62s.41.29.61.39.38.16.56.19.34.04.48.03.27-.05.36-.12.14-.15.15-.27-.03-.26-.12-.44-.24-.39-.46-.63-.43-.45-.64-.62-.41-.29-.61-.39-.38-.16-.56-.19-.34-.04-.49-.02-.27.05-.36.12-.14.15-.15.27.03.26.12.44.24.39.46.63Z"/>
          <path class="cls-2" d="M36.83,37.43c-.29-.33-.48-.62-.59-.88s-.13-.48-.08-.66.18-.33.38-.44.46-.18.78-.22.64-.03.96.02.65.14.97.27.63.31.94.53.6.49.88.81.48.62.59.88.13.48.08.66-.18.33-.38.44-.46.18-.78.22-.64.03-.96-.02-.65-.14-.97-.27-.63-.31-.94-.53-.6-.49-.88-.81ZM37.85,37.26c.22.25.43.45.64.62s.41.29.61.39.38.16.56.19.34.04.48.03.27-.05.36-.12.14-.15.15-.27-.03-.26-.12-.44-.24-.39-.46-.63-.43-.45-.64-.62-.41-.29-.61-.39-.38-.16-.56-.19-.34-.04-.49-.02-.27.05-.36.12-.14.15-.15.27.03.26.12.44.24.39.46.63Z"/>
        </g>
        <polygon class="cls-3" points="17.99 47.12 17.99 63.44 5.68 49.39 5.68 33.08 17.99 47.12"/>
        <polygon class="cls-2" points="17.99 47.12 17.99 63.44 58.44 59.03 58.44 42.71 17.99 47.12"/>
        <g>
          <polygon class="cls-5" points="17.99 48.25 17.99 48.67 58.44 44.26 58.44 43.84 17.99 48.25"/>
          <polygon class="cls-5" points="17.99 49.99 17.99 50.41 58.44 45.99 58.44 45.57 17.99 49.99"/>
          <polygon class="cls-5" points="17.99 51.72 17.99 52.14 58.44 47.73 58.44 47.31 17.99 51.72"/>
          <polygon class="cls-5" points="17.99 53.46 17.99 53.87 58.44 49.46 58.44 49.04 17.99 53.46"/>
          <polygon class="cls-5" points="17.99 55.19 17.99 55.61 58.44 51.19 58.44 50.78 17.99 55.19"/>
          <polygon class="cls-5" points="17.99 56.92 17.99 57.34 58.44 52.93 58.44 52.51 17.99 56.92"/>
          <polygon class="cls-5" points="17.99 58.66 17.99 59.08 58.44 54.66 58.44 54.25 17.99 58.66"/>
          <polygon class="cls-5" points="17.99 60.39 17.99 60.81 58.44 56.4 58.44 55.98 17.99 60.39"/>
          <polygon class="cls-5" points="17.99 62.13 17.99 62.54 58.44 58.13 58.44 57.71 17.99 62.13"/>
        </g>
        <g>
          <polygon class="cls-2" points="17.99 48.25 17.99 48.67 5.68 34.8 5.68 34.38 17.99 48.25"/>
          <polygon class="cls-2" points="17.99 49.99 17.99 50.41 5.68 36.53 5.68 36.12 17.99 49.99"/>
          <polygon class="cls-2" points="17.99 51.72 17.99 52.14 5.68 38.27 5.68 37.85 17.99 51.72"/>
          <polygon class="cls-2" points="17.99 53.46 17.99 53.87 5.68 40 5.68 39.58 17.99 53.46"/>
          <polygon class="cls-2" points="17.99 55.19 17.99 55.61 5.68 41.73 5.68 41.32 17.99 55.19"/>
          <polygon class="cls-2" points="17.99 56.92 17.99 57.34 5.68 43.47 5.68 43.05 17.99 56.92"/>
          <polygon class="cls-2" points="17.99 58.66 17.99 59.08 5.68 45.2 5.68 44.79 17.99 58.66"/>
          <polygon class="cls-2" points="17.99 60.39 17.99 60.81 5.68 46.94 5.68 46.52 17.99 60.39"/>
          <polygon class="cls-2" points="17.99 62.13 17.99 62.54 5.68 48.67 5.68 48.25 17.99 62.13"/>
        </g>
        <g>
          <polygon class="cls-2" points="58.44 75.34 17.99 79.75 5.68 65.71 46.13 61.3 58.44 75.34"/>
          <polygon class="cls-3" points="17.99 63.44 17.99 79.75 5.68 65.71 5.68 49.39 17.99 63.44"/>
          <polygon class="cls-2" points="17.99 63.44 17.99 79.75 58.44 75.34 58.44 59.03 17.99 63.44"/>
          <g>
            <polygon class="cls-5" points="17.99 64.57 17.99 64.99 58.44 60.57 58.44 60.16 17.99 64.57"/>
            <polygon class="cls-5" points="17.99 66.3 17.99 66.72 58.44 62.31 58.44 61.89 17.99 66.3"/>
            <polygon class="cls-5" points="17.99 68.04 17.99 68.45 58.44 64.04 58.44 63.62 17.99 68.04"/>
            <polygon class="cls-5" points="17.99 69.77 17.99 70.19 58.44 65.78 58.44 65.36 17.99 69.77"/>
            <polygon class="cls-5" points="17.99 71.51 17.99 71.92 58.44 67.51 58.44 67.09 17.99 71.51"/>
            <polygon class="cls-5" points="17.99 73.24 17.99 73.66 58.44 69.24 58.44 68.83 17.99 73.24"/>
            <polygon class="cls-5" points="17.99 74.97 17.99 75.39 58.44 70.98 58.44 70.56 17.99 74.97"/>
            <polygon class="cls-5" points="17.99 76.71 17.99 77.13 58.44 72.71 58.44 72.29 17.99 76.71"/>
            <polygon class="cls-5" points="17.99 78.44 17.99 78.86 58.44 74.45 58.44 74.03 17.99 78.44"/>
          </g>
          <g>
            <polygon class="cls-2" points="17.99 64.57 17.99 64.99 5.68 51.11 5.68 50.7 17.99 64.57"/>
            <polygon class="cls-2" points="17.99 66.3 17.99 66.72 5.68 52.85 5.68 52.43 17.99 66.3"/>
            <polygon class="cls-2" points="17.99 68.04 17.99 68.45 5.68 54.58 5.68 54.16 17.99 68.04"/>
            <polygon class="cls-2" points="17.99 69.77 17.99 70.19 5.68 56.32 5.68 55.9 17.99 69.77"/>
            <polygon class="cls-2" points="17.99 71.51 17.99 71.92 5.68 58.05 5.68 57.63 17.99 71.51"/>
            <polygon class="cls-2" points="17.99 73.24 17.99 73.66 5.68 59.78 5.68 59.37 17.99 73.24"/>
            <polygon class="cls-2" points="17.99 74.97 17.99 75.39 5.68 61.52 5.68 61.1 17.99 74.97"/>
            <polygon class="cls-2" points="17.99 76.71 17.99 77.13 5.68 63.25 5.68 62.84 17.99 76.71"/>
            <polygon class="cls-2" points="17.99 78.44 17.99 78.86 5.68 64.99 5.68 64.57 17.99 78.44"/>
          </g>
        </g>
      </g>
      <g>
        <polygon class="cls-2" points="71.72 74.19 31.27 78.6 18.96 64.55 59.41 60.14 71.72 74.19"/>
        <polygon class="cls-4" points="71.72 57.87 31.27 62.29 18.96 48.24 59.41 43.83 71.72 57.87"/>
        <polygon class="cls-2" points="31.93 60.93 21.67 49.23 58.75 45.18 69.01 56.89 31.93 60.93"/>
        <path class="cls-4" d="M31.05,57.82l-5.13-5.85c1.4-.15,1.84-1.06.99-2.03l28.65-3.13c.85.97,2.67,1.63,4.07,1.48l5.13,5.85c-1.4.15-1.84,1.06-.99,2.03l-28.65,3.13c-.85-.97-2.67-1.63-4.07-1.48Z"/>
        <g>
          <path class="cls-2" d="M36.26,53.06s-.07.04-.1.05-.05.03-.08.04-.05.02-.07.02-.05,0-.07.01c-.05,0-.11,0-.17,0s-.11-.02-.17-.05-.1-.05-.15-.08-.08-.06-.11-.1c-.07-.08-.08-.14-.05-.21.02-.04.07-.1.16-.18s.2-.17.34-.27c.08-.06.15-.11.21-.15s.12-.08.17-.1.11-.05.16-.07.11-.03.17-.03c.15-.02.3,0,.44.05s.26.13.35.24l2.71,3.09c.09.1.12.19.08.25s-.15.11-.32.13-.33,0-.47-.04-.25-.12-.34-.23l-2.29-2.62-.39.23Z"/>
          <path class="cls-2" d="M39.79,53.72c-.29-.33-.48-.62-.59-.88s-.13-.48-.08-.66.18-.33.38-.44.46-.18.78-.22.64-.03.96.02.65.14.97.27.63.31.94.53.6.49.88.81.48.62.59.88.13.48.08.66-.18.33-.38.44-.46.18-.78.22-.64.03-.96-.02-.65-.14-.97-.27-.63-.31-.94-.53-.6-.49-.88-.81ZM40.81,53.55c.22.25.43.45.64.62s.41.29.61.39.38.16.56.19.34.04.48.03.27-.05.36-.12.14-.15.15-.27-.03-.26-.12-.44-.24-.39-.46-.63-.43-.45-.64-.62-.41-.29-.61-.39-.38-.16-.56-.19-.34-.04-.49-.02-.27.05-.36.12-.14.15-.15.27.03.26.12.44.24.39.46.63Z"/>
          <path class="cls-2" d="M44.95,53.15c-.29-.33-.48-.62-.59-.88s-.13-.48-.08-.66.18-.33.38-.44.46-.18.78-.22.64-.03.96.02.65.14.97.27.63.31.94.53.6.49.88.81.48.62.59.88.13.48.08.66-.18.33-.38.44-.46.18-.78.22-.64.03-.96-.02-.65-.14-.97-.27-.63-.31-.94-.53-.6-.49-.88-.81ZM45.97,52.98c.22.25.43.45.64.62s.41.29.61.39.38.16.56.19.34.04.48.03.27-.05.36-.12.14-.15.15-.27-.03-.26-.12-.44-.24-.39-.46-.63-.43-.45-.64-.62-.41-.29-.61-.39-.38-.16-.56-.19-.34-.04-.49-.02-.27.05-.36.12-.14.15-.15.27.03.26.12.44.24.39.46.63Z"/>
          <path class="cls-2" d="M50.11,52.59c-.29-.33-.48-.62-.59-.88s-.13-.48-.08-.66.18-.33.38-.44.46-.18.78-.22.64-.03.96.02.65.14.97.27.63.31.94.53.6.49.88.81.48.62.59.88.13.48.08.66-.18.33-.38.44-.46.18-.78.22-.64.03-.96-.02-.65-.14-.97-.27-.63-.31-.94-.53-.6-.49-.88-.81ZM51.13,52.42c.22.25.43.45.64.62s.41.29.61.39.38.16.56.19.34.04.48.03.27-.05.36-.12.14-.15.15-.27-.03-.26-.12-.44-.24-.39-.46-.63-.43-.45-.64-.62-.41-.29-.61-.39-.38-.16-.56-.19-.34-.04-.49-.02-.27.05-.36.12-.14.15-.15.27.03.26.12.44.24.39.46.63Z"/>
        </g>
        <polygon class="cls-3" points="31.27 62.29 31.27 78.6 18.96 64.55 18.96 48.24 31.27 62.29"/>
        <polygon class="cls-2" points="31.27 62.29 31.27 78.6 71.72 74.19 71.72 57.87 31.27 62.29"/>
        <g>
          <polygon class="cls-5" points="31.27 63.41 31.27 63.83 71.72 59.42 71.72 59 31.27 63.41"/>
          <polygon class="cls-5" points="31.27 65.15 31.27 65.57 71.72 61.15 71.72 60.74 31.27 65.15"/>
          <polygon class="cls-5" points="31.27 66.88 31.27 67.3 71.72 62.89 71.72 62.47 31.27 66.88"/>
          <polygon class="cls-5" points="31.27 68.62 31.27 69.03 71.72 64.62 71.72 64.2 31.27 68.62"/>
          <polygon class="cls-5" points="31.27 70.35 31.27 70.77 71.72 66.35 71.72 65.94 31.27 70.35"/>
          <polygon class="cls-5" points="31.27 72.09 31.27 72.5 71.72 68.09 71.72 67.67 31.27 72.09"/>
          <polygon class="cls-5" points="31.27 73.82 31.27 74.24 71.72 69.82 71.72 69.41 31.27 73.82"/>
          <polygon class="cls-5" points="31.27 75.55 31.27 75.97 71.72 71.56 71.72 71.14 31.27 75.55"/>
          <polygon class="cls-5" points="31.27 77.29 31.27 77.7 71.72 73.29 71.72 72.87 31.27 77.29"/>
        </g>
        <g>
          <polygon class="cls-2" points="31.27 63.41 31.27 63.83 18.96 49.96 18.96 49.54 31.27 63.41"/>
          <polygon class="cls-2" points="31.27 65.15 31.27 65.57 18.96 51.69 18.96 51.28 31.27 65.15"/>
          <polygon class="cls-2" points="31.27 66.88 31.27 67.3 18.96 53.43 18.96 53.01 31.27 66.88"/>
          <polygon class="cls-2" points="31.27 68.62 31.27 69.03 18.96 55.16 18.96 54.74 31.27 68.62"/>
          <polygon class="cls-2" points="31.27 70.35 31.27 70.77 18.96 56.9 18.96 56.48 31.27 70.35"/>
          <polygon class="cls-2" points="31.27 72.09 31.27 72.5 18.96 58.63 18.96 58.21 31.27 72.09"/>
          <polygon class="cls-2" points="31.27 73.82 31.27 74.24 18.96 60.36 18.96 59.95 31.27 73.82"/>
          <polygon class="cls-2" points="31.27 75.55 31.27 75.97 18.96 62.1 18.96 61.68 31.27 75.55"/>
          <polygon class="cls-2" points="31.27 77.29 31.27 77.7 18.96 63.83 18.96 63.41 31.27 77.29"/>
        </g>
        <g>
          <polygon class="cls-2" points="71.72 90.5 31.27 94.92 18.96 80.87 59.41 76.46 71.72 90.5"/>
          <polygon class="cls-3" points="31.27 78.6 31.27 94.92 18.96 80.87 18.96 64.55 31.27 78.6"/>
          <polygon class="cls-2" points="31.27 78.6 31.27 94.92 71.72 90.5 71.72 74.19 31.27 78.6"/>
          <g>
            <polygon class="cls-5" points="31.27 79.73 31.27 80.15 71.72 75.73 71.72 75.32 31.27 79.73"/>
            <polygon class="cls-5" points="31.27 81.46 31.27 81.88 71.72 77.47 71.72 77.05 31.27 81.46"/>
            <polygon class="cls-5" points="31.27 83.2 31.27 83.61 71.72 79.2 71.72 78.78 31.27 83.2"/>
            <polygon class="cls-5" points="31.27 84.93 31.27 85.35 71.72 80.94 71.72 80.52 31.27 84.93"/>
            <polygon class="cls-5" points="31.27 86.67 31.27 87.08 71.72 82.67 71.72 82.25 31.27 86.67"/>
            <polygon class="cls-5" points="31.27 88.4 31.27 88.82 71.72 84.4 71.72 83.99 31.27 88.4"/>
            <polygon class="cls-5" points="31.27 90.13 31.27 90.55 71.72 86.14 71.72 85.72 31.27 90.13"/>
            <polygon class="cls-5" points="31.27 91.87 31.27 92.29 71.72 87.87 71.72 87.46 31.27 91.87"/>
            <polygon class="cls-5" points="31.27 93.6 31.27 94.02 71.72 89.61 71.72 89.19 31.27 93.6"/>
          </g>
          <g>
            <polygon class="cls-2" points="31.27 79.73 31.27 80.15 18.96 66.27 18.96 65.86 31.27 79.73"/>
            <polygon class="cls-2" points="31.27 81.46 31.27 81.88 18.96 68.01 18.96 67.59 31.27 81.46"/>
            <polygon class="cls-2" points="31.27 83.2 31.27 83.61 18.96 69.74 18.96 69.32 31.27 83.2"/>
            <polygon class="cls-2" points="31.27 84.93 31.27 85.35 18.96 71.48 18.96 71.06 31.27 84.93"/>
            <polygon class="cls-2" points="31.27 86.67 31.27 87.08 18.96 73.21 18.96 72.79 31.27 86.67"/>
            <polygon class="cls-2" points="31.27 88.4 31.27 88.82 18.96 74.94 18.96 74.53 31.27 88.4"/>
            <polygon class="cls-2" points="31.27 90.13 31.27 90.55 18.96 76.68 18.96 76.26 31.27 90.13"/>
            <polygon class="cls-2" points="31.27 91.87 31.27 92.29 18.96 78.41 18.96 78 31.27 91.87"/>
            <polygon class="cls-2" points="31.27 93.6 31.27 94.02 18.96 80.15 18.96 79.73 31.27 93.6"/>
          </g>
        </g>
      </g>
      <g>
        <polygon class="cls-2" points="93.26 54.78 52.81 59.19 40.5 45.15 80.95 40.74 93.26 54.78"/>
        <polygon class="cls-4" points="93.26 38.47 52.81 42.88 40.5 28.83 80.95 24.42 93.26 38.47"/>
        <polygon class="cls-2" points="53.47 41.52 43.21 29.82 80.29 25.77 90.55 37.48 53.47 41.52"/>
        <path class="cls-4" d="M52.59,38.41l-5.13-5.85c1.4-.15,1.84-1.06.99-2.03l28.65-3.13c.85.97,2.67,1.63,4.07,1.48l5.13,5.85c-1.4.15-1.84,1.06-.99,2.03l-28.65,3.13c-.85-.97-2.67-1.63-4.07-1.48Z"/>
        <g>
          <path class="cls-2" d="M57.79,33.66s-.07.04-.1.05-.05.03-.08.04-.05.02-.07.02-.05,0-.07.01c-.05,0-.11,0-.17,0s-.11-.02-.17-.05-.1-.05-.15-.08-.08-.06-.11-.1c-.07-.08-.08-.14-.05-.21.02-.04.07-.1.16-.18s.2-.17.34-.27c.08-.06.15-.11.21-.15s.12-.08.17-.1.11-.05.16-.07.11-.03.17-.03c.15-.02.3,0,.44.05s.26.13.35.24l2.71,3.09c.09.1.12.19.08.25s-.15.11-.32.13-.33,0-.47-.04-.25-.12-.34-.23l-2.29-2.62-.39.23Z"/>
          <path class="cls-2" d="M61.33,34.31c-.29-.33-.48-.62-.59-.88s-.13-.48-.08-.66.18-.33.38-.44.46-.18.78-.22.64-.03.96.02.65.14.97.27.63.31.94.53.6.49.88.81.48.62.59.88.13.48.08.66-.18.33-.38.44-.46.18-.78.22-.64.03-.96-.02-.65-.14-.97-.27-.63-.31-.94-.53-.6-.49-.88-.81ZM62.34,34.14c.22.25.43.45.64.62s.41.29.61.39.38.16.56.19.34.04.48.03.27-.05.36-.12.14-.15.15-.27-.03-.26-.12-.44-.24-.39-.46-.63-.43-.45-.64-.62-.41-.29-.61-.39-.38-.16-.56-.19-.34-.04-.49-.02-.27.05-.36.12-.14.15-.15.27.03.26.12.44.24.39.46.63Z"/>
          <path class="cls-2" d="M66.49,33.75c-.29-.33-.48-.62-.59-.88s-.13-.48-.08-.66.18-.33.38-.44.46-.18.78-.22.64-.03.96.02.65.14.97.27.63.31.94.53.6.49.88.81.48.62.59.88.13.48.08.66-.18.33-.38.44-.46.18-.78.22-.64.03-.96-.02-.65-.14-.97-.27-.63-.31-.94-.53-.6-.49-.88-.81ZM67.5,33.58c.22.25.43.45.64.62s.41.29.61.39.38.16.56.19.34.04.48.03.27-.05.36-.12.14-.15.15-.27-.03-.26-.12-.44-.24-.39-.46-.63-.43-.45-.64-.62-.41-.29-.61-.39-.38-.16-.56-.19-.34-.04-.49-.02-.27.05-.36.12-.14.15-.15.27.03.26.12.44.24.39.46.63Z"/>
          <path class="cls-2" d="M71.65,33.18c-.29-.33-.48-.62-.59-.88s-.13-.48-.08-.66.18-.33.38-.44.46-.18.78-.22.64-.03.96.02.65.14.97.27.63.31.94.53.6.49.88.81.48.62.59.88.13.48.08.66-.18.33-.38.44-.46.18-.78.22-.64.03-.96-.02-.65-.14-.97-.27-.63-.31-.94-.53-.6-.49-.88-.81ZM72.66,33.01c.22.25.43.45.64.62s.41.29.61.39.38.16.56.19.34.04.48.03.27-.05.36-.12.14-.15.15-.27-.03-.26-.12-.44-.24-.39-.46-.63-.43-.45-.64-.62-.41-.29-.61-.39-.38-.16-.56-.19-.34-.04-.49-.02-.27.05-.36.12-.14.15-.15.27.03.26.12.44.24.39.46.63Z"/>
        </g>
        <polygon class="cls-3" points="52.81 42.88 52.81 59.19 40.5 45.15 40.5 28.83 52.81 42.88"/>
        <polygon class="cls-2" points="52.81 42.88 52.81 59.19 93.26 54.78 93.26 38.47 52.81 42.88"/>
        <g>
          <polygon class="cls-5" points="52.81 44.01 52.81 44.43 93.26 40.01 93.26 39.59 52.81 44.01"/>
          <polygon class="cls-5" points="52.81 45.74 52.81 46.16 93.26 41.75 93.26 41.33 52.81 45.74"/>
          <polygon class="cls-5" points="52.81 47.48 52.81 47.89 93.26 43.48 93.26 43.06 52.81 47.48"/>
          <polygon class="cls-5" points="52.81 49.21 52.81 49.63 93.26 45.21 93.26 44.8 52.81 49.21"/>
          <polygon class="cls-5" points="52.81 50.94 52.81 51.36 93.26 46.95 93.26 46.53 52.81 50.94"/>
          <polygon class="cls-5" points="52.81 52.68 52.81 53.1 93.26 48.68 93.26 48.27 52.81 52.68"/>
          <polygon class="cls-5" points="52.81 54.41 52.81 54.83 93.26 50.42 93.26 50 52.81 54.41"/>
          <polygon class="cls-5" points="52.81 56.15 52.81 56.56 93.26 52.15 93.26 51.73 52.81 56.15"/>
          <polygon class="cls-5" points="52.81 57.88 52.81 58.3 93.26 53.89 93.26 53.47 52.81 57.88"/>
        </g>
        <g>
          <polygon class="cls-2" points="52.81 44.01 52.81 44.43 40.5 30.55 40.5 30.14 52.81 44.01"/>
          <polygon class="cls-2" points="52.81 45.74 52.81 46.16 40.5 32.29 40.5 31.87 52.81 45.74"/>
          <polygon class="cls-2" points="52.81 47.48 52.81 47.89 40.5 34.02 40.5 33.6 52.81 47.48"/>
          <polygon class="cls-2" points="52.81 49.21 52.81 49.63 40.5 35.75 40.5 35.34 52.81 49.21"/>
          <polygon class="cls-2" points="52.81 50.94 52.81 51.36 40.5 37.49 40.5 37.07 52.81 50.94"/>
          <polygon class="cls-2" points="52.81 52.68 52.81 53.1 40.5 39.22 40.5 38.81 52.81 52.68"/>
          <polygon class="cls-2" points="52.81 54.41 52.81 54.83 40.5 40.96 40.5 40.54 52.81 54.41"/>
          <polygon class="cls-2" points="52.81 56.15 52.81 56.56 40.5 42.69 40.5 42.27 52.81 56.15"/>
          <polygon class="cls-2" points="52.81 57.88 52.81 58.3 40.5 44.43 40.5 44.01 52.81 57.88"/>
        </g>
      </g>
    </g>
  </g>
  <g>
    <path class="cls-6" d="M104.12,101.71s-.01.08-.01.12.01.09.01.13-.01.08-.01.12.01.09.01.13-.01.08-.01.12.01.09.01.13-.01.08-.01.12.01.09.01.13-.01.08-.01.12.01.09.01.13-.01.08-.01.12.01.09.01.13-.01.08-.01.12.01.09.01.13-.01.08-.01.12.01.09.01.13-.01.08-.01.12.01.09.01.13c0,1.07-.26,2.08-.77,3.01-.41.74-.95,1.4-1.59,1.96-.64.54-1.36.97-2.15,1.27-.8.3-1.64.45-2.48.45-.92,0-1.79-.18-2.6-.54-.72-.33-1.37-.78-1.94-1.36-.25-.25-.48-.5-.68-.74-.13-.17-.31-.4-.5-.66l-.16-.22c-.37.76-.85,1.33-1.29,1.74-1.21,1.14-2.83,1.72-4.8,1.72s-3.58-.58-4.79-1.72c-.88-.82-1.94-2.31-1.94-4.69v-.17c-.39.63-.8,1.24-1.26,1.79-1.42,1.69-3.14,2.98-5.12,3.83-1.9.81-3.98,1.22-6.17,1.22s-4.17-.38-6-1.13c-1.95-.8-3.63-2.03-5.01-3.67-.91-1.07-1.66-2.33-2.26-3.74-.61,1.3-1.33,2.48-2.18,3.49-1.42,1.69-3.14,2.98-5.12,3.83-1.9.81-3.97,1.22-6.17,1.22s-4.17-.38-6-1.13c-1.94-.8-3.63-2.03-5.01-3.67-.66-.79-1.25-1.67-1.75-2.64v.77c0,2.41-1.06,3.9-1.96,4.73-1.21,1.12-2.81,1.68-4.77,1.68s-3.58-.57-4.79-1.7c-.88-.83-1.92-2.31-1.92-4.71v-13.67c-1.2.15-2.28-.01-3.28-.47-.72-.33-1.35-.79-1.87-1.36-.52-.55-.92-1.21-1.19-1.94-.26-.68-.38-1.4-.38-2.15v-2.5c0-1.61.63-3.13,1.77-4.27.49-.49,1.15-.99,2.13-1.62.8-.51,1.8-1.1,2.99-1.75.65-.35,1.21-.65,1.69-.9.59-.31,1.12-.55,1.61-.75.54-.22,1.07-.39,1.56-.51.62-.14,1.24-.22,1.86-.22,2.36,0,3.86,1,4.7,1.85.85.84,1.85,2.34,1.85,4.7v1.34c.56-1.12,1.21-2.14,1.96-3.03,1.42-1.69,3.14-2.98,5.11-3.83,1.9-.81,3.98-1.23,6.19-1.23s4.17.38,5.99,1.14c1.94.8,3.62,2.03,5,3.67.9,1.07,1.65,2.34,2.26,3.75.61-1.3,1.33-2.48,2.19-3.5,1.42-1.69,3.14-2.98,5.11-3.83,1.9-.81,3.98-1.23,6.19-1.23s4.16.38,5.99,1.14c1.94.8,3.62,2.03,5,3.67.38.46.73.96,1.06,1.48v-1.54c0-2.38,1.05-3.87,1.94-4.69,1.21-1.14,2.82-1.72,4.79-1.72s3.59.58,4.8,1.72c.88.82,1.93,2.31,1.93,4.68v5.21l.21-.22c.14-.15.27-.29.4-.41.03-.04.07-.07.1-.1.58-.55,1.24-.98,1.97-1.28,1.54-.64,3.42-.63,5.05.05.76.32,1.45.76,2.05,1.31.6.56,1.1,1.22,1.47,1.96.44.88.66,1.8.66,2.74,0,.04-.01.08-.01.13,0,.04.01.08.01.12s-.01.08-.01.13c0,.04.01.08.01.12s-.01.08-.01.13c0,.04.01.08.01.12s-.01.08-.01.13c0,.04.01.08.01.12s-.01.08-.01.13c0,.04.01.08.01.12s-.01.08-.01.13c0,.04.01.08.01.12s-.01.08-.01.13c0,.04.01.08.01.12s-.01.08-.01.13c0,.04.01.08.01.12s-.01.08-.01.13c0,.04.01.08.01.12s-.01.08-.01.13c0,.04.01.08.01.12,0,.83-.18,1.65-.54,2.45-.32.74-.82,1.44-1.5,2.12l-1.51,1.47,2.24,2.78c.39.46.77,1.04,1.05,1.65.39.83.58,1.71.58,2.62,0,.04-.01.08-.01.12s.01.09.01.13Z"/>
    <g>
      <path class="cls-3" d="M100.1,101.58s.01-.08.01-.12c0-.33-.07-.65-.2-.93-.13-.29-.32-.57-.54-.83l-4.53-5.61,4.09-3.97c.32-.32.55-.62.67-.91.13-.29.19-.57.19-.83,0-.04-.01-.08-.01-.12,0-.04.01-.09.01-.13s-.01-.08-.01-.12c0-.04.01-.09.01-.13s-.01-.08-.01-.12c0-.04.01-.09.01-.13s-.01-.08-.01-.12c0-.04.01-.09.01-.13s-.01-.08-.01-.12c0-.04.01-.09.01-.13s-.01-.08-.01-.12c0-.04.01-.09.01-.13s-.01-.08-.01-.12c0-.04.01-.09.01-.13s-.01-.08-.01-.12c0-.04.01-.09.01-.13s-.01-.08-.01-.12c0-.04.01-.09.01-.13s-.01-.08-.01-.12c0-.04.01-.09.01-.13,0-.32-.08-.63-.23-.94-.15-.31-.36-.58-.61-.81s-.55-.42-.88-.56c-.33-.14-.68-.21-1.04-.21s-.66.06-.93.17-.53.28-.75.49c-.11.11-.22.23-.35.36-.13.13-.29.3-.47.5l-6.62,7.26v-15.51c0-.76-.22-1.35-.67-1.78-.45-.42-1.13-.63-2.06-.63s-1.61.21-2.06.63-.67,1.01-.67,1.78v27.57c0,.76.22,1.36.67,1.78.45.42,1.13.63,2.06.63s1.61-.21,2.06-.63.67-1.01.67-1.78v-8.24l6.74,9.04c.15.2.28.37.39.51.11.14.24.28.39.43.23.23.48.41.76.53.28.13.59.19.94.19s.72-.07,1.07-.2.67-.32.95-.56c.28-.24.51-.52.69-.85s.27-.69.27-1.07c0-.05-.01-.09-.01-.13,0-.04.01-.08.01-.12,0-.05-.01-.09-.01-.13,0-.04.01-.08.01-.12,0-.05-.01-.09-.01-.13,0-.04.01-.08.01-.12,0-.05-.01-.09-.01-.13,0-.04.01-.08.01-.12,0-.05-.01-.09-.01-.13,0-.04.01-.08.01-.12,0-.05-.01-.09-.01-.13,0-.04.01-.08.01-.12,0-.05-.01-.09-.01-.13,0-.04.01-.08.01-.12,0-.05-.01-.09-.01-.13,0-.04.01-.08.01-.12,0-.05-.01-.09-.01-.13,0-.04.01-.08.01-.12,0-.05-.01-.09-.01-.13Z"/>
      <path class="cls-3" d="M19.83,76.07c-.31,0-.62.04-.92.11-.31.07-.65.18-1.01.33-.37.15-.78.34-1.25.58-.46.24-1,.53-1.62.86-1.12.62-2.04,1.15-2.75,1.61-.71.46-1.2.82-1.47,1.08-.4.4-.6.88-.6,1.45,0,.05,0,.09.01.13,0,.04-.01.08-.01.12,0,.05,0,.09.01.13,0,.04-.01.08-.01.12,0,.05,0,.09.01.13,0,.04-.01.08-.01.12,0,.05,0,.09.01.13,0,.04-.01.08-.01.12,0,.05,0,.09.01.13,0,.04-.01.08-.01.12,0,.05,0,.09.01.13,0,.04-.01.08-.01.12,0,.05,0,.09.01.13,0,.04-.01.08-.01.12,0,.05,0,.09.01.13,0,.04-.01.08-.01.12,0,.05,0,.09.01.13,0,.04-.01.08-.01.12,0,.05,0,.09.01.13,0,.04-.01.08-.01.12,0,.27.04.52.13.75s.21.44.38.62c.17.18.37.32.6.43.23.11.49.16.77.16.13,0,.27,0,.4-.03.13-.02.28-.06.43-.11.15-.05.33-.12.52-.2s.42-.18.69-.3l2.79-1.26v19.53c0,.78.22,1.37.66,1.79.44.42,1.12.62,2.05.62s1.61-.21,2.06-.62c.45-.42.67-1.01.67-1.79v-25.56c0-.8-.22-1.43-.67-1.88-.45-.45-1.07-.67-1.88-.67Z"/>
      <path class="cls-3" d="M49.81,83.58c-.53-1.74-1.27-3.18-2.24-4.33-.96-1.14-2.12-1.99-3.46-2.55-1.34-.55-2.83-.83-4.47-.83s-3.21.3-4.61.9c-1.4.6-2.61,1.51-3.63,2.73-1.02,1.22-1.82,2.74-2.39,4.57-.57,1.83-.85,3.96-.85,6.41,0,.04,0,.08,0,.13,0,.04,0,.08,0,.12s0,.08,0,.13c0,.04,0,.08,0,.12s0,.08,0,.13c0,.04,0,.08,0,.12s0,.08,0,.13c0,.04,0,.08,0,.12s0,.08,0,.13c0,.04,0,.08,0,.12s0,.08,0,.13c0,.04,0,.08,0,.12s0,.08,0,.13c0,.04,0,.08,0,.12s0,.08,0,.13c0,.04,0,.08,0,.12s0,.08,0,.13c0,.04,0,.08,0,.12s0,.08,0,.13c0,.04,0,.08,0,.12,0,2.37.26,4.42.79,6.16.53,1.74,1.27,3.18,2.24,4.33.96,1.14,2.12,1.99,3.47,2.55,1.35.56,2.84.83,4.48.83s3.19-.3,4.6-.9c1.41-.6,2.62-1.51,3.63-2.72s1.81-2.73,2.38-4.57c.57-1.83.85-3.97.85-6.42,0-.04,0-.08,0-.13,0-.04,0-.08,0-.12s0-.08,0-.13c0-.04,0-.08,0-.12s0-.08,0-.13c0-.04,0-.08,0-.12s0-.08,0-.13c0-.04,0-.08,0-.12s0-.08,0-.13c0-.04,0-.08,0-.12s0-.08,0-.13c0-.04,0-.08,0-.12s0-.08,0-.13c0-.04,0-.08,0-.12s0-.08,0-.13c0-.04,0-.08,0-.12s0-.08,0-.13c0-.04,0-.08,0-.12s0-.08,0-.13c0-.04,0-.08,0-.12,0-2.37-.26-4.42-.79-6.16ZM43.41,97.91c-.52.79-1.13,1.36-1.82,1.71-.69.35-1.42.52-2.18.52s-1.49-.18-2.19-.53c-.7-.35-1.31-.93-1.84-1.73-.53-.8-.95-1.83-1.26-3.11-.24-.98-.39-2.13-.44-3.45.06-1.29.2-2.43.43-3.4.31-1.27.72-2.3,1.23-3.09.51-.79,1.12-1.36,1.81-1.71.69-.35,1.42-.52,2.18-.52s1.51.18,2.21.53c.7.35,1.31.93,1.84,1.73.53.8.95,1.83,1.26,3.11.24.98.39,2.13.44,3.44-.06,1.3-.2,2.43-.43,3.4-.31,1.27-.72,2.3-1.24,3.09Z"/>
      <path class="cls-3" d="M76.54,83.58c-.53-1.74-1.27-3.18-2.24-4.33-.96-1.14-2.12-1.99-3.46-2.55-1.34-.55-2.83-.83-4.47-.83s-3.21.3-4.61.9c-1.4.6-2.61,1.51-3.63,2.73-1.02,1.22-1.82,2.74-2.39,4.57-.57,1.83-.85,3.96-.85,6.41,0,.04,0,.08,0,.13,0,.04,0,.08,0,.12s0,.08,0,.13c0,.04,0,.08,0,.12s0,.08,0,.13c0,.04,0,.08,0,.12s0,.08,0,.13c0,.04,0,.08,0,.12s0,.08,0,.13c0,.04,0,.08,0,.12s0,.08,0,.13c0,.04,0,.08,0,.12s0,.08,0,.13c0,.04,0,.08,0,.12s0,.08,0,.13c0,.04,0,.08,0,.12s0,.08,0,.13c0,.04,0,.08,0,.12s0,.08,0,.13c0,.04,0,.08,0,.12,0,2.37.26,4.42.79,6.16.53,1.74,1.27,3.18,2.24,4.33.96,1.14,2.12,1.99,3.47,2.55,1.35.56,2.84.83,4.48.83s3.19-.3,4.6-.9c1.41-.6,2.62-1.51,3.63-2.72s1.81-2.73,2.38-4.57c.57-1.83.85-3.97.85-6.42,0-.04,0-.08,0-.13,0-.04,0-.08,0-.12s0-.08,0-.13c0-.04,0-.08,0-.12s0-.08,0-.13c0-.04,0-.08,0-.12s0-.08,0-.13c0-.04,0-.08,0-.12s0-.08,0-.13c0-.04,0-.08,0-.12s0-.08,0-.13c0-.04,0-.08,0-.12s0-.08,0-.13c0-.04,0-.08,0-.12s0-.08,0-.13c0-.04,0-.08,0-.12s0-.08,0-.13c0-.04,0-.08,0-.12s0-.08,0-.13c0-.04,0-.08,0-.12,0-2.37-.26-4.42-.79-6.16ZM70.15,97.91c-.52.79-1.13,1.36-1.82,1.71-.69.35-1.42.52-2.18.52s-1.49-.18-2.19-.53c-.7-.35-1.31-.93-1.84-1.73-.53-.8-.95-1.83-1.26-3.11-.24-.98-.39-2.13-.44-3.45.06-1.29.2-2.43.43-3.4.31-1.27.72-2.3,1.23-3.09.51-.79,1.12-1.36,1.81-1.71.69-.35,1.42-.52,2.18-.52s1.51.18,2.21.53c.7.35,1.31.93,1.84,1.73.53.8.95,1.83,1.26,3.11.24.98.39,2.13.44,3.44-.06,1.3-.2,2.43-.43,3.4-.31,1.27-.72,2.3-1.24,3.09Z"/>
    </g>
    <g>
      <path class="cls-1" d="M14.15,83.42c-.27.12-.5.22-.69.3s-.37.15-.52.2c-.15.05-.3.09-.43.11-.13.02-.27.03-.4.03-.28,0-.54-.05-.77-.16-.23-.11-.43-.25-.6-.43-.17-.18-.29-.39-.38-.62s-.13-.49-.13-.75c0-.56.2-1.04.6-1.45.27-.27.76-.63,1.47-1.08.71-.45,1.63-.99,2.75-1.61.62-.33,1.15-.62,1.62-.86.46-.24.88-.43,1.25-.58.37-.15.71-.26,1.01-.33.31-.07.62-.11.92-.11.8,0,1.43.22,1.88.67.45.45.67,1.07.67,1.88v23.06c0,.78-.22,1.37-.67,1.79-.45.42-1.13.62-2.06.62s-1.61-.21-2.05-.62c-.44-.42-.66-1.01-.66-1.79v-19.53l-2.79,1.26Z"/>
      <path class="cls-1" d="M28.16,90.49c0-2.45.28-4.59.85-6.41.57-1.83,1.36-3.35,2.39-4.57,1.02-1.22,2.23-2.13,3.63-2.73,1.4-.6,2.93-.9,4.61-.9s3.12.28,4.47.83c1.34.56,2.5,1.41,3.46,2.55.96,1.14,1.71,2.59,2.24,4.33s.79,3.79.79,6.16-.28,4.59-.85,6.42c-.57,1.83-1.36,3.36-2.38,4.57s-2.23,2.12-3.63,2.72c-1.41.6-2.94.9-4.6.9s-3.12-.28-4.48-.83c-1.35-.55-2.51-1.41-3.47-2.55-.96-1.14-1.71-2.59-2.24-4.33-.53-1.74-.79-3.79-.79-6.16ZM33.66,90.08c0,1.85.16,3.41.47,4.69.31,1.28.74,2.31,1.26,3.11.53.8,1.14,1.37,1.84,1.73.7.35,1.43.53,2.19.53s1.49-.17,2.18-.52c.69-.35,1.29-.92,1.82-1.71.52-.79.94-1.82,1.24-3.09s.46-2.82.46-4.66-.16-3.41-.47-4.69c-.31-1.28-.74-2.31-1.26-3.11-.53-.8-1.14-1.37-1.84-1.73-.7-.35-1.43-.53-2.21-.53s-1.49.17-2.18.52c-.69.35-1.29.92-1.81,1.71-.52.79-.93,1.82-1.23,3.09-.31,1.27-.46,2.82-.46,4.66Z"/>
      <path class="cls-1" d="M54.9,90.49c0-2.45.28-4.59.85-6.41.57-1.83,1.36-3.35,2.39-4.57,1.02-1.22,2.23-2.13,3.63-2.73,1.4-.6,2.93-.9,4.61-.9s3.12.28,4.47.83c1.34.56,2.5,1.41,3.46,2.55.96,1.14,1.71,2.59,2.24,4.33s.79,3.79.79,6.16-.28,4.59-.85,6.42c-.57,1.83-1.36,3.36-2.38,4.57s-2.23,2.12-3.63,2.72c-1.41.6-2.94.9-4.6.9s-3.12-.28-4.48-.83c-1.35-.55-2.51-1.41-3.47-2.55-.96-1.14-1.71-2.59-2.24-4.33-.53-1.74-.79-3.79-.79-6.16ZM60.4,90.08c0,1.85.16,3.41.47,4.69.31,1.28.74,2.31,1.26,3.11.53.8,1.14,1.37,1.84,1.73.7.35,1.43.53,2.19.53s1.49-.17,2.18-.52c.69-.35,1.29-.92,1.82-1.71.52-.79.94-1.82,1.24-3.09s.46-2.82.46-4.66-.16-3.41-.47-4.69c-.31-1.28-.74-2.31-1.26-3.11-.53-.8-1.14-1.37-1.84-1.73-.7-.35-1.43-.53-2.21-.53s-1.49.17-2.18.52c-.69.35-1.29.92-1.81,1.71-.52.79-.93,1.82-1.23,3.09-.31,1.27-.46,2.82-.46,4.66Z"/>
      <path class="cls-1" d="M94.52,84.86c.19-.2.34-.37.47-.5.13-.13.24-.25.35-.36.23-.21.48-.38.75-.49s.58-.17.93-.17.71.07,1.04.21c.33.14.63.33.88.56s.46.5.61.81c.15.31.23.62.23.94,0,.27-.06.55-.19.83-.13.29-.35.59-.67.91l-5.22,5.07,5.66,7.02c.23.27.41.54.54.83.13.29.2.6.2.93,0,.39-.09.75-.27,1.07s-.41.61-.69.85c-.28.24-.6.43-.95.56s-.71.2-1.07.2-.66-.06-.94-.19c-.28-.13-.54-.3-.76-.53-.15-.15-.28-.29-.39-.43-.11-.14-.24-.31-.39-.51l-6.74-9.04v8.24c0,.76-.22,1.36-.67,1.78s-1.13.63-2.06.63-1.61-.21-2.06-.63c-.45-.42-.67-1.01-.67-1.78v-25.07c0-.76.22-1.35.67-1.78s1.13-.63,2.06-.63,1.61.21,2.06.63c.45.42.67,1.01.67,1.78v15.51l6.62-7.26Z"/>
    </g>
  </g>
</svg>