<?xml version="1.0" encoding="UTF-8"?>
<svg id="Icon" xmlns="http://www.w3.org/2000/svg" viewBox="0 0 120 120">
  <defs>
    <style>
      .cls-1 {
        fill: #ea9939;
      }

      .cls-2 {
        fill: #d87625;
      }

      .cls-3 {
        fill: #aa5217;
      }

      .cls-4 {
        fill: #6d3108;
      }

      .cls-5 {
        fill: #333;
      }
    </style>
  </defs>
  <g>
    <path class="cls-5" d="M89.19,12.6c-1.55-1.33-3.46-1.92-5-2.4l-3.77-1.16c-.35-1.43-1.42-2.64-2.94-3.08l-5.18-1.49c-2.26-.65-4.62.65-5.27,2.91-.65,2.26.65,4.62,2.91,5.27l5.18,1.49c.39.11.79.17,1.18.17,1.1,0,2.15-.44,2.93-1.18l3.7,1.14c1.28.39,2.6.8,3.47,1.55.61.52.95,1.33.76,1.8-.44,1.09.09,2.33,1.18,2.77.26.11.53.15.79.15.84,0,1.64-.51,1.98-1.34,1.02-2.54-.23-5.15-1.93-6.61Z"/>
    <path class="cls-5" d="M46.91,4.47l-5.18,1.49c-1.52.44-2.59,1.65-2.94,3.08l-3.77,1.16c-1.54.47-3.46,1.06-5,2.4-1.69,1.46-2.94,4.07-1.92,6.61.33.83,1.13,1.34,1.98,1.34.26,0,.53-.05.79-.15,1.09-.44,1.62-1.68,1.18-2.77-.19-.47.15-1.28.76-1.8.87-.75,2.19-1.16,3.47-1.55l3.7-1.14c.78.74,1.83,1.18,2.93,1.18.39,0,.79-.05,1.18-.17l5.18-1.49c2.26-.65,3.57-3.01,2.91-5.27-.65-2.26-3.01-3.56-5.27-2.91Z"/>
  </g>
  <g>
    <path class="cls-4" d="M103.08,27.28l-3.39,20.03c-.06.33-.14.65-.23.97l-.49,3.08c-.68,4.22-4.13,7.28-8.2,7.28h-2.95l-2.51,31.12s.01.04.01.07l-.11,1.3h1.16c4.92,0,8.91,4,8.91,8.92v12.77c0,2.21-1.79,4-4,4H28.72c-2.21,0-4-1.79-4-4v-12.77c0-4.92,4-8.92,8.91-8.92h1.16l-.11-1.3s.01-.03.01-.04l-2.51-31.15h-2.95c-4.07,0-7.52-3.06-8.19-7.28l-.5-3.07c-.09-.32-.17-.64-.23-.98l-3.39-20.03c-.43-2.54.27-5.12,1.92-7.07,1.59-1.89,3.91-2.98,6.36-2.98h69.61c2.44,0,4.76,1.09,6.36,2.98,1.65,1.95,2.35,4.53,1.91,7.07Z"/>
    <g>
      <path class="cls-1" d="M91.41,50.43H28.59c-2.13,0-3.96-1.6-4.33-3.78l-3.4-20.04c-.48-2.8,1.6-5.37,4.33-5.37h69.61c2.74,0,4.81,2.57,4.33,5.37l-3.4,20.04c-.37,2.19-2.2,3.78-4.33,3.78Z"/>
      <path class="cls-2" d="M90.77,54.64H29.23c-2.09,0-3.88-1.65-4.24-3.91l-3.33-20.71c-.47-2.9,1.56-5.56,4.24-5.56h68.2c2.68,0,4.71,2.66,4.24,5.56l-3.33,20.71c-.36,2.26-2.15,3.91-4.24,3.91Z"/>
      <path class="cls-1" d="M85.18,41.56l-3.4,42.23-.91,11.34-.08.91h-41.59l-.08-.91-.91-11.34-3.39-42.23c-.25-3.06,1.94-5.69,4.73-5.69h40.89c2.79,0,4.98,2.63,4.74,5.69Z"/>
      <polygon class="cls-2" points="81.33 89.5 80.87 95.13 39.13 95.13 38.67 89.5 81.33 89.5"/>
      <path class="cls-1" d="M91.28,112.82H28.72v-12.77c0-2.71,2.2-4.91,4.91-4.91h52.74c2.71,0,4.91,2.2,4.91,4.91v12.77Z"/>
      <rect class="cls-2" x="28.72" y="109.16" width="62.57" height="3.66"/>
      <path class="cls-3" d="M35.78,51.25c-.24,0-.45-.17-.49-.42-.17-1.04-.39-2.1-.6-3.16-.38-1.9-.78-3.87-.96-5.79-.21-2.33,1.34-5.07,3.46-6.12,1.58-.78,3.45-.7,4.95-.64,2.97.13,6.24.11,9.39.1,3.16-.01,6.44-.03,9.44.1.28.01.49.25.48.52-.01.28-.21.47-.52.48-2.97-.13-6.24-.11-9.39-.1-3.16.01-6.44.03-9.44-.1-1.46-.07-3.11-.13-4.47.54-1.72.85-3.08,3.25-2.91,5.13.17,1.86.56,3.8.94,5.68.22,1.07.43,2.14.61,3.19.05.27-.14.53-.41.58-.03,0-.06,0-.08,0Z"/>
      <path class="cls-3" d="M66.69,36.49h-2.62c-.28,0-.5-.22-.5-.5s.22-.5.5-.5h2.62c.28,0,.5.22.5.5s-.22.5-.5.5Z"/>
      <path class="cls-3" d="M84.2,53.58s-.06,0-.08,0c-.27-.05-.46-.3-.41-.58.58-3.47.98-7,1.18-10.5.08-1.43.11-2.8-.5-3.94-.7-1.32-2.36-2.29-3.88-2.29-.02,0-.05,0-.07,0-1.77.04-3.55.04-5.32.05h-1.84c-.24,0-.5-.21-.5-.49s.22-.5.5-.5h1.84c1.77-.01,3.54-.02,5.31-.06,1.94-.05,3.96,1.15,4.85,2.82.73,1.36.7,2.95.62,4.47-.21,3.54-.61,7.1-1.19,10.61-.04.25-.25.42-.49.42Z"/>
    </g>
  </g>
</svg>