<?xml version="1.0" encoding="UTF-8"?>
<svg id="Icon" xmlns="http://www.w3.org/2000/svg" viewBox="0 0 120 120">
  <defs>
    <style>
      .cls-1 {
        fill: #fff;
      }

      .cls-2 {
        fill: #dfedf2;
      }

      .cls-3 {
        fill: #ea9939;
      }

      .cls-4 {
        fill: #d87625;
      }

      .cls-5 {
        fill: #fff8d9;
      }

      .cls-6 {
        fill: #f43f3f;
      }

      .cls-7 {
        fill: #6d3108;
      }

      .cls-8 {
        fill: #ffeda8;
      }

      .cls-9 {
        fill: #ffe277;
      }

      .cls-10 {
        fill: #a8b6c1;
      }
    </style>
  </defs>
  <path class="cls-7" d="M116.17,92.53c0,13.78-25.54,18.46-40.79,20.02t-.02.01c-5.25.54-10.56.83-15.36.83s-9.97-.29-15.31-.83c-15.26-1.58-40.85-6.28-40.85-20.03,0-7.89,7.08-16.53,18.93-23.12,5.72-3.18,12.17-5.64,18.92-7.24,1.42-.33,2.85-.61,4.29-.87l-2.42-7.99c-6.84,2.78-11.48,6.03-11.54,6.07-.09.07-.19.12-.29.17-.06.04-.11.09-.17.12-.58.31-1.22.46-1.86.46-.16,0-.31-.03-.47-.05-.11-.02-.21-.02-.31-.04-.16-.03-.32-.09-.47-.14-.08-.02-.16-.04-.24-.07-.05-.02-.1-.04-.14-.07-.06-.02-.11-.03-.16-.05-10.73-5.4-18.28-2.82-18.6-2.71-1.17.42-2.49.27-3.53-.41-1.05-.67-1.74-1.79-1.83-3.03C.97,15.79,34.82,4.77,35.16,4.66c.02-.01.04-.01.06-.02.02,0,.04-.01.06-.02.35-.09,34.75-9.23,52.78,24.09.54,1.02.63,2.22.23,3.3-.4,1.08-1.25,1.93-2.32,2.34-.09.04-9.39,3.74-14.71,12.58-.66,1.1-1.81,1.82-3.09,1.92-.11.01-.23.02-.34.02-.03,0-.06-.01-.09-.01h-.1c-.11,0-5.55-.2-12.57,1.1l2.73,8.73c.09.26.14.53.17.8l.18.59c1.67-.04,3.35-.04,5.02.03l2.86-6.29c.88-1.93,2.82-3.17,4.92-3.17.13,0,.27.01.4.02h.02l26.77,1.94.78.06.36.02c.2.02.4.04.59.08.02,0,.04,0,.06.01.02,0,.05.01.07.02,1.75.34,3.22,1.46,4.16,3.16,1.32,2.4,1.51,5.87.47,8.44-.02.05-.04.1-.07.15l-3.29,7.25c9.09,5.97,14.9,13.47,14.9,20.73Z"/>
  <path class="cls-8" d="M112.16,92.53c0,9.17-19.39,14.22-37.22,16.05,3.35-3.38,5.75-8.18,5.75-14.59,0-9.68-3.92-21.84-9.81-29.16,23.58,3.44,41.27,17.35,41.27,27.7Z"/>
  <path class="cls-5" d="M80.7,93.98c0,6.42-2.4,11.21-5.75,14.6-5.31.55-10.47.81-14.95.81s-9.6-.27-14.91-.81c-17.78-1.84-37.25-6.89-37.25-16.05,0-6.28,6.5-13.86,16.87-19.62,6.74-3.75,15.11-6.73,24.4-8.08,3.52-.51,7.16-.79,10.89-.79s7.38.28,10.89.79c3.92,4.86,6.96,11.85,8.56,18.84.81,3.53,1.25,7.06,1.25,10.31Z"/>
  <path class="cls-8" d="M79.45,83.67l-34.4,6.47s-24-3.44-20.34-17.23c6.74-3.75,15.11-6.73,24.4-8.08,3.52-.51,7.16-.79,10.89-.79s7.38.28,10.89.79c3.92,4.86,6.96,11.85,8.56,18.84Z"/>
  <path class="cls-8" d="M98.75,83.91l-34.71-2.51c-.14-.01-.28.01-.41.07l-26.54,12.02c-.79.36-.58,1.53.28,1.6l34.71,2.51c.14.01.28-.01.41-.07l26.54-12.02c.79-.36.58-1.53-.28-1.6Z"/>
  <g>
    <path class="cls-3" d="M56.9,74.36h-1.98c-.49,0-.91-.32-1.05-.79l-11.72-38.73,3.65-1.08,12.14,39.18c.21.71-.31,1.42-1.05,1.42Z"/>
    <path class="cls-4" d="M53.99,59.88l-8.18-26.12-3.65,1.08,8,26.13c1.28-.37,2.56-.74,3.84-1.1Z"/>
    <path class="cls-6" d="M36.35,8.48S5.18,18.22,7.93,53.24c0,0,9.15-3.46,21.77,2.89l6.65-47.65Z"/>
    <path class="cls-6" d="M36.35,8.48S67.82-.29,84.53,30.62c0,0-10.56,4.04-16.71,14.25L36.35,8.48Z"/>
    <path class="cls-9" d="M67.82,44.87s-9.37-.43-19.92,2.69-18.2,8.57-18.2,8.57c-8.1-42.8,6.66-47.65,6.66-47.65,0,0,15.01-3.94,31.46,36.39Z"/>
  </g>
  <g>
    <g>
      <path class="cls-2" d="M89.42,80.67v4.94c-.24.05-.48.05-.72.04l-.26-.03-2.72-.26c-.35-.04-.6-.32-.6-.66v-4.45l4.31.43Z"/>
      <path class="cls-10" d="M91.84,77.86v6.37c0,.26-.15.51-.4.61l-.88.39-.49.22c-.21.08-.43.15-.65.17v-7.33l2.42-.43Z"/>
    </g>
    <g>
      <polygon class="cls-2" points="47.23 92.92 42.92 93.58 42.92 87.43 47.23 87.86 47.23 92.92"/>
      <path class="cls-1" d="M47.23,90.03v4.94c-.24.05-.48.05-.72.04l-.26-.03-2.72-.26c-.35-.04-.6-.32-.6-.66v-4.45l4.31.43Z"/>
      <path class="cls-10" d="M49.65,87.22v6.37c0,.26-.15.51-.4.61l-.88.39-.49.22c-.21.08-.43.15-.65.17v-7.33l2.42-.43Z"/>
    </g>
    <g>
      <polygon class="cls-2" points="65.69 94.31 61.38 94.97 61.38 88.83 65.69 89.26 65.69 94.31"/>
      <path class="cls-1" d="M65.69,91.43v4.94c-.24.05-.48.05-.72.04l-.26-.03-2.72-.26c-.35-.04-.6-.32-.6-.66v-4.45l4.31.43Z"/>
      <path class="cls-10" d="M68.11,88.61v6.37c0,.26-.15.51-.4.61l-.88.39-.49.22c-.21.08-.43.15-.65.17v-7.33l2.42-.43Z"/>
    </g>
    <path class="cls-2" d="M70.16,81.95l-.45,6.87-.05.62c-.33.06-.66.08-.99.06h-.05l-1.1-.08-26.52-1.93c-.61-.04-1.1-.51-1.16-1.12l-.48-4.3s0-.08-.03-.22l-.07-.64c0-.06,0-.13-.02-.18-.02-.22.05-.43.18-.6l.79.05,28.35,2.06,1.59-.6Z"/>
    <polygon class="cls-1" points="94.27 71.75 81.06 77.73 62.78 76.41 63.28 69.5 94.27 71.75"/>
    <path class="cls-10" d="M100.92,62.9l-6.02,13.27c-.73,1.6-2.01,2.89-3.62,3.62l-17.47,7.91-3.22,1.46c-.3.14-.61.24-.93.29l.05-.62.45-6.87,10.9-4.22,13.21-5.98s1.05-15.74,4.94-15.03c2,.36,2.51,4.19,1.7,6.18Z"/>
    <path class="cls-2" d="M98.63,56.65c1.18.09,1.91,1.32,1.42,2.4l-5.33,11.71-.45.98-30.99-2.24.45-.98,5.94-13.04c.24-.54.8-.86,1.38-.82l27.57,2Z"/>
    <path class="cls-1" d="M100.2,58.72l-5.48,12.04-30.99-2.24,5.93-13.02c.25-.55.82-.89,1.42-.84l27.91,2.02c1,.07,1.63,1.12,1.21,2.04Z"/>
    <path class="cls-1" d="M94.27,71.75l-22.66,10.26c-.96.43-2,.62-3.05.54l-28.35-2.06-.79-.05c.07-.12.18-.21.32-.27.15-.07.31-.14.45-.2l23.09-10.46,30.99,2.25Z"/>
  </g>
</svg>