<?xml version="1.0" encoding="UTF-8"?>
<svg id="Icon" xmlns="http://www.w3.org/2000/svg" viewBox="0 0 120 120">
  <defs>
    <style>
      .cls-1 {
        fill: #fff;
      }

      .cls-2 {
        fill: #dfedf2;
      }

      .cls-3 {
        fill: #f4b545;
      }

      .cls-4 {
        fill: #ffe277;
      }

      .cls-5 {
        fill: #333;
      }

      .cls-6 {
        fill: #47acea;
      }

      .cls-7 {
        fill: #a8b6c1;
      }
    </style>
  </defs>
  <path class="cls-5" d="M111.48,62.94c.21,1.42-.36,2.84-1.49,3.73-.72.56-1.59.85-2.47.85-.51,0-1.02-.09-1.5-.29l-4.42-1.79v30.32s0,.05,0,.08c0,.47-.1.94-.27,1.38-.02.06-.05.12-.08.18-.07.16-.16.32-.25.47-.04.05-.07.11-.11.17-.13.19-.28.38-.45.55-3.33,3.33-5.73,5.73-8.38,8.37l-5.08,5.09c-.19.19-.39.35-.61.5-.11.07-.22.11-.33.17-.12.07-.24.14-.36.2-.13.05-.27.08-.4.12-.12.03-.23.08-.35.1-.23.05-.47.07-.71.07-.02,0-.04.01-.07.01H23.04c-2.21,0-4-1.79-4-4V10.79c0-2.21,1.79-4,4-4h74.56c2.21,0,4,1.79,4,4v7.84c1.35.57,2.64,1.29,3.85,2.19,3.99,2.97,6.59,7.32,7.31,12.25.76,5.15-.69,10.12-3.61,13.97l2.33,15.9Z"/>
  <g>
    <g>
      <path class="cls-1" d="M97.6,10.79v84.97c-5.26,5.25-8.2,8.2-13.46,13.46H23.04V10.79h74.56Z"/>
      <path class="cls-2" d="M97.6,94.46v1.3c-5.26,5.25-8.2,8.2-13.46,13.46h-1.64v-14.76h15.1Z"/>
      <path class="cls-1" d="M97.6,95.76c-5.27,5.26-8.2,8.2-13.46,13.46v-13.46h13.46Z"/>
      <g>
        <path class="cls-7" d="M58.19,26.85h-22.68c-1.18,0-2.14-.96-2.14-2.14s.96-2.14,2.14-2.14h22.68c1.18,0,2.14.96,2.14,2.14s-.96,2.14-2.14,2.14Z"/>
        <path class="cls-7" d="M52.81,51.76h-13.11c-1.18,0-2.14-.96-2.14-2.14s.96-2.14,2.14-2.14h13.11c1.18,0,2.14.96,2.14,2.14s-.96,2.14-2.14,2.14Z"/>
        <path class="cls-7" d="M75.63,39.69h-40.12c-1.18,0-2.14-.96-2.14-2.14s.96-2.14,2.14-2.14h40.12c1.18,0,2.14.96,2.14,2.14s-.96,2.14-2.14,2.14Z"/>
        <path class="cls-7" d="M65.84,85.1h-30.33c-1.18,0-2.14-.96-2.14-2.14s.96-2.14,2.14-2.14h30.33c1.18,0,2.14.96,2.14,2.14s-.96,2.14-2.14,2.14Z"/>
        <path class="cls-7" d="M52.81,95.83h-13.11c-1.18,0-2.14-.96-2.14-2.14s.96-2.14,2.14-2.14h13.11c1.18,0,2.14.96,2.14,2.14s-.96,2.14-2.14,2.14Z"/>
      </g>
    </g>
    <g>
      <polygon class="cls-6" points="97.81 59.59 89.64 66.14 85.99 41.22 94.93 39.91 97.81 59.59"/>
      <polygon class="cls-6" points="97.81 59.59 107.52 63.52 103.87 38.6 94.93 39.91 97.81 59.59"/>
      <circle class="cls-3" cx="94.32" cy="35.77" r="14.64"/>
      <circle class="cls-4" cx="94.32" cy="35.77" r="10.23"/>
    </g>
  </g>
</svg>