<?xml version="1.0" encoding="UTF-8"?>
<svg id="Icon" xmlns="http://www.w3.org/2000/svg" viewBox="0 0 120 120">
  <defs>
    <style>
      .cls-1 {
        fill: #fff;
      }

      .cls-2 {
        fill: #dfedf2;
      }

      .cls-3 {
        fill: #231f20;
      }

      .cls-4 {
        fill: gray;
      }

      .cls-5 {
        fill: #a8b6c1;
      }
    </style>
  </defs>
  <path class="cls-3" d="M26.59,58.44l-.15,1.82c-.1-.27-.16-.56-.16-.86,0-.47.13-.89.36-1.26-.01.1-.04.2-.05.3Z"/>
  <path class="cls-3" d="M107.59,29.2l-2.43,21.34v.02l-2.24,19.68c-.9,7.96-7.41,14.02-15.32,14.47,0,6.15-1.79,12.23-5.19,17.1-1.08,1.54-2.31,2.94-3.66,4.21-4.93,4.63-11.47,7.37-18.08,7.38h-.04s-.03,0-.04,0h-.08c-6.82-.05-13.39-3.08-17.87-7.92-1.5-1.62-2.76-3.43-3.72-5.41-2.6-5.33-2.87-11.03-2.93-16.41v-.77c-.01-.42-.01-.85-.02-1.28,0-.16,0-.32,0-.47,0-.28-.01-.56-.01-.84-.01-.21-.02-.43-.02-.65-.01-.2-.02-.39-.03-.59-.01-.27-.02-.54-.03-.8-.01-.09-.01-.17-.02-.25-.08-1.28-.22-2.54-.45-3.73-2.06.94-4.34,1.48-6.75,1.48-9.01,0-16.35-7.34-16.35-16.35s7.34-16.35,16.35-16.35,16.35,7.33,16.35,16.35c0,1.49-.22,2.93-.6,4.31.72,1.18,1.34,2.45,1.85,3.8.32.88.58,1.76.81,2.64,0,.01.01.02.01.03.01.06.02.11.04.17.5,1.99.78,3.99.93,5.95.02.18.03.36.05.54.02.35.04.7.06,1.04,0,.26.02.52.03.78.02.3.03.58.03.87,0,.35.02.68.03,1.02,0,.22.01.43.01.64.01.54.01,1.06.02,1.58v.75c.05,4.14.21,8.12,1.69,11.17,1.83,3.74,6.19,6.38,10.6,6.42,4.47,0,9.05-2.42,11.77-6.33,1.97-2.82,3-6.39,2.99-10.03h-4.61c-8.33,0-15.33-6.24-16.27-14.52l-2.24-19.67h0s-2.43-21.37-2.43-21.37c-.53-4.63.95-9.27,4.07-12.75,1.28-1.44,2.8-2.6,4.47-3.5.37-.83.88-1.62,1.52-2.33,1.69-1.86,4.24-3.18,7.36-3.82,2.38-.49,4.81-.02,6.84,1.32,2.03,1.34,3.41,3.39,3.9,5.77,1.01,4.91-2.17,9.73-7.08,10.74-1.31.27-2.52.39-3.62.39-1.51,0-2.82-.23-3.96-.64-.09.09-.19.16-.27.25-.78.87-1.15,2.04-1.02,3.19l2.49,21.83v.02l2.18,19.18c.23,2.07,1.98,3.63,4.06,3.63h15.95c2.08,0,3.83-1.56,4.06-3.63l4.66-41.03c.13-1.15-.24-2.32-1.01-3.19-.18-.2-.38-.38-.6-.54-1.28.58-2.84.93-4.69.93-1.09,0-2.3-.12-3.61-.39-2.38-.49-4.43-1.87-5.77-3.9-1.33-2.03-1.8-4.46-1.31-6.84s1.87-4.43,3.9-5.77c2.03-1.34,4.46-1.81,6.84-1.32,3.12.64,5.67,1.96,7.36,3.82.47.52.87,1.08,1.2,1.67,2.21.94,4.22,2.34,5.85,4.17,3.11,3.47,4.58,8.12,4.05,12.75Z"/>
  <g>
    <path class="cls-1" d="M103.62,28.74l-2.43,21.37-2.24,19.67c-.71,6.25-5.99,10.97-12.29,10.97h-15.95c-6.29,0-11.58-4.72-12.29-10.97l-2.24-19.67-2.43-21.37c-.4-3.49.72-7.01,3.07-9.63,2.34-2.63,5.7-4.14,9.23-4.14,1.18,0,2.14.96,2.14,2.15s-.96,2.14-2.14,2.14c-2.31,0-4.51.98-6.04,2.7-1.53,1.72-2.26,4.01-2,6.3l2.49,21.85,2.18,19.18c.46,4.09,3.92,7.18,8.03,7.18h15.95c4.12,0,7.57-3.09,8.04-7.18l2.18-19.18,2.48-21.85c.26-2.29-.47-4.58-2-6.3-1.53-1.72-3.73-2.7-6.03-2.7-1.19,0-2.15-.96-2.15-2.14s.95-2.15,2.14-2.15h.01c3.52,0,6.88,1.51,9.23,4.14,2.34,2.62,3.46,6.14,3.06,9.63Z"/>
    <path class="cls-4" d="M94.68,17.22c.57-2.76-1.51-5.52-6.35-6.51-2.76-.57-5.45,1.21-6.02,3.97s1.21,5.45,3.97,6.02c5.25,1.08,7.83-.72,8.4-3.48Z"/>
    <path class="cls-4" d="M61.65,17.22c-.57-2.76,1.51-5.52,6.35-6.51,2.76-.57,5.45,1.21,6.02,3.97s-1.21,5.45-3.97,6.02c-5.25,1.08-7.83-.72-8.4-3.48Z"/>
    <circle class="cls-5" cx="28.65" cy="59.4" r="12.35"/>
    <circle class="cls-2" cx="28.65" cy="59.4" r="11.12"/>
    <circle class="cls-1" cx="28.65" cy="59.4" r="6.38"/>
    <path class="cls-1" d="M60.67,109.39c-.06,0-.12,0-.17,0-7.55-.06-14.78-4.52-17.97-11.08-2.24-4.59-2.47-9.78-2.53-14.71v-.76c-.05-4.24-.09-8.63-1.51-12.45-1.28-3.44-4.33-7.05-8.25-7.37l.35-4.27c5.1.41,9.78,4.39,11.92,10.14,1.68,4.52,1.73,9.29,1.77,13.9v.75c.06,4.62.25,9.08,2.1,12.88,2.5,5.14,8.19,8.62,14.16,8.67.05,0,.09,0,.14,0,5.76,0,11.48-3.07,14.95-8.04,3.34-4.78,4.52-11.24,3.16-17.28l4.18-.94c1.62,7.19.19,14.92-3.83,20.67-4.26,6.1-11.32,9.87-18.46,9.87Z"/>
    <path class="cls-4" d="M82.96,78.85l-4.18.94c1.36,6.04.18,12.5-3.16,17.28-3.47,4.97-9.19,8.04-14.95,8.04-.05,0-.09,0-.14,0-5.97-.05-11.66-3.54-14.16-8.67-1.85-3.79-2.04-8.26-2.09-12.88v-.75c-.04-3.85-.09-7.8-1.08-11.63-1.34.55-2.67,1.1-4.01,1.66.72,3.19.77,6.65.8,10.01v.76c.06,4.93.3,10.12,2.53,14.71,3.2,6.56,10.42,11.02,17.97,11.08.06,0,.11,0,.17,0,7.14,0,14.21-3.77,18.46-9.87,4.02-5.76,5.45-13.48,3.83-20.67Z"/>
    <path class="cls-4" d="M101.19,50.11l-2.24,19.67c-.71,6.25-5.99,10.97-12.29,10.97h-15.95c-6.29,0-11.58-4.72-12.29-10.97l-2.24-19.67h4.32l2.18,19.18c.46,4.09,3.92,7.18,8.03,7.18h15.95c4.12,0,7.57-3.09,8.04-7.18l2.18-19.18h4.31Z"/>
  </g>
</svg>