<?xml version="1.0" encoding="UTF-8"?>
<svg id="Icon" xmlns="http://www.w3.org/2000/svg" viewBox="0 0 120 120">
  <defs>
    <style>
      .cls-1 {
        fill: #fff;
      }

      .cls-2 {
        fill: #dfedf2;
      }

      .cls-3 {
        fill: #ea9939;
      }

      .cls-4 {
        fill: #f4b545;
      }

      .cls-5 {
        fill: #231f20;
      }

      .cls-6 {
        fill: #788696;
      }

      .cls-7 {
        fill: #ffe277;
      }

      .cls-8 {
        fill: #a8b6c1;
      }
    </style>
  </defs>
  <path class="cls-5" d="M115.03,36.15s-.01.06-.01.09c0,.12.01.23.01.34,0,2.46-.37,4.88-1.08,7.18-.71,2.31-1.77,4.5-3.15,6.53h-.01c-.41.6-.85,1.17-1.31,1.73-.09.11-.17.21-.26.31-.47.55-.95,1.07-1.46,1.57-.03.03-.05.06-.07.08-.15.14-.29.27-.44.4-.15.15-.31.3-.47.44-.19.17-.4.33-.6.5-.16.13-.31.26-.48.39-.35.28-.7.54-1.07.79-.18.13-.37.25-.55.37-.21.13-.41.27-.62.4-.17.1-.35.2-.52.3-.24.14-.48.28-.72.41-.15.08-.3.15-.45.23-.28.14-.56.28-.85.42-.12.05-.24.11-.37.16-.32.14-.64.28-.97.41-.11.04-.21.08-.31.12-.16.06-.31.12-.47.18-.12.04-.24.07-.37.11-.29.09-.59.19-.89.27v45.04c0,4.61-3.19,8.23-7.27,8.23H29.73c-4.08,0-7.27-3.62-7.27-8.23V29.72c-2.36-.79-4.07-3.01-4.07-5.63v-7.77c0-3.27,2.66-5.93,5.93-5.93h53.81c3.71-2.26,8.05-3.53,12.62-3.53s9.15,1.32,13.04,3.8c1.39.89,2.69,1.92,3.87,3.06.74.72,1.45,1.49,2.09,2.31,1.96,2.45,3.41,5.23,4.3,8.25.12.43.24.87.34,1.31.09.36.16.7.22,1.05.11.54.19,1.11.26,1.69l.02.18c.02.18.04.36.05.54.06.64.09,1.36.09,2.09v5.01Z"/>
  <g>
    <path class="cls-1" d="M90.27,109.14H29.73c-1.81,0-3.27-1.89-3.27-4.23V17.3h67.08v87.62c0,2.34-1.47,4.23-3.27,4.23Z"/>
    <path class="cls-2" d="M90.27,17.3H29.73c-1.81,0-3.27.25-3.27.56v11.63h67.08v-11.63c0-.31-1.47-.56-3.27-.56Z"/>
    <path class="cls-6" d="M64.27,85.58h-8.54c-1.54,0-2.79,1.25-2.79,2.79v20.77h14.12v-20.77c0-1.54-1.25-2.79-2.79-2.79Z"/>
    <rect class="cls-1" x="22.39" y="14.38" width="74.3" height="11.63" rx="1.93" ry="1.93"/>
    <rect class="cls-6" x="37.42" y="36.7" width="8.61" height="8.61"/>
    <rect class="cls-6" x="55.7" y="36.7" width="8.61" height="8.61"/>
    <rect class="cls-8" x="73.97" y="36.7" width="8.61" height="8.61"/>
    <rect class="cls-8" x="37.42" y="52.24" width="8.61" height="8.61"/>
    <rect class="cls-8" x="55.7" y="52.24" width="8.61" height="8.61"/>
    <rect class="cls-6" x="73.97" y="52.24" width="8.61" height="8.61"/>
    <rect class="cls-6" x="37.42" y="67.78" width="8.61" height="8.61"/>
    <rect class="cls-8" x="55.7" y="67.78" width="8.61" height="8.61"/>
    <rect class="cls-6" x="73.97" y="67.78" width="8.61" height="8.61"/>
    <g>
      <path class="cls-4" d="M111.03,36.58c0,4.25-1.31,8.19-3.54,11.44-3.65,5.33-9.79,8.83-16.74,8.83-.29,0-.57,0-.86-.02-10.8-.45-19.42-9.35-19.42-20.26s9.08-20.27,20.28-20.27,20.28,9.08,20.28,20.27Z"/>
      <path class="cls-3" d="M107.49,35.08v12.94c-.76,1.12-1.63,2.15-2.6,3.09-2.09,2.03-4.61,3.62-7.42,4.6-2.1.74-4.36,1.14-6.72,1.14-.29,0-.57,0-.86-.02v-21.76h17.6Z"/>
      <rect class="cls-4" x="70.48" y="31.13" width="40.55" height="5.01"/>
      <path class="cls-7" d="M111.03,31.13c0,1-.07,1.97-.21,2.93h0c-1.42,9.81-9.86,17.35-20.07,17.35-5.23,0-10-1.99-13.6-5.24h0c-1.17-1.06-2.21-2.25-3.11-3.55-.11-.16-.21-.31-.31-.48-.26-.4-.51-.81-.74-1.23-.14-.26-.28-.52-.41-.78-.17-.34-.33-.68-.47-1.02-1-2.34-1.58-4.91-1.63-7.6,0-.12,0-.25,0-.37,0-.75.04-1.49.12-2.23.15-1.39.44-2.74.86-4.03,2.64-8.14,10.28-14.02,19.29-14.02,4.01,0,7.74,1.16,10.89,3.17,1.16.74,2.25,1.6,3.23,2.56.62.6,1.2,1.24,1.74,1.92,1.61,2.02,2.84,4.35,3.59,6.89.11.36.2.72.29,1.09.07.29.13.57.18.86.09.47.16.94.21,1.42.02.19.04.38.06.57.05.59.08,1.18.08,1.79Z"/>
      <path class="cls-3" d="M105.21,31.13c0,.42-.02.84-.05,1.25-.63,7.4-6.84,13.2-14.4,13.2s-13.76-5.8-14.4-13.2c-.04-.41-.05-.83-.05-1.25,0-7.98,6.47-14.45,14.45-14.45s14.45,6.47,14.45,14.45Z"/>
      <path class="cls-4" d="M105.15,32.39c-.63,7.4-6.84,13.2-14.4,13.2s-13.76-5.8-14.4-13.2c.63-7.4,6.84-13.2,14.4-13.2s13.76,5.8,14.4,13.2Z"/>
      <g>
        <path class="cls-3" d="M97.94,35.52c0,1.4-.46,2.49-1.38,3.26-.92.77-2.22,1.18-3.91,1.22v.93c0,.41-.1.69-.29.84-.19.16-.54.24-1.05.24h-1.56c-.42,0-.72-.09-.89-.26-.17-.17-.26-.45-.26-.82v-.93h-2.47c-.41,0-.69-.09-.87-.26-.17-.17-.26-.45-.26-.82v-12.54c0-.37.09-.65.26-.83s.46-.27.87-.27h2.47v-.95c0-.38.09-.65.26-.84.17-.18.47-.27.89-.27h1.73c.42,0,.72.09.9.27.18.18.27.46.27.84v.95c3.26.07,4.9,1.48,4.9,4.22,0,.66-.15,1.26-.46,1.77-.3.52-.71.89-1.23,1.11,1.39.45,2.08,1.49,2.08,3.14Z"/>
        <rect class="cls-3" x="95.87" y="32.97" width="2.08" height="2.55"/>
        <rect class="cls-3" x="95.48" y="26.95" width="2.08" height="2.55"/>
        <path class="cls-7" d="M97.75,32.01c-.24-.74-.71-1.28-1.41-1.62-.15-.07-.31-.14-.48-.19.52-.22.93-.58,1.23-1.11.31-.52.46-1.11.46-1.77,0-1.76-.67-2.97-2.02-3.63-.52-.25-1.14-.43-1.87-.52-.32-.04-.65-.07-1.01-.07v-.95c0-.38-.09-.65-.27-.83-.18-.18-.48-.27-.9-.27h-1.73c-.42,0-.72.09-.89.27-.17.18-.26.46-.26.83v.95h-2.47c-.41,0-.69.09-.87.27-.17.18-.26.46-.26.83v12.54c0,.38.09.65.26.82.17.17.46.26.87.26h2.47v.93c0,.38.09.65.26.82.17.17.47.26.89.26h1.56c.5,0,.86-.08,1.05-.24.19-.16.29-.44.29-.85v-.93c1.69-.04,2.99-.45,3.91-1.22.61-.51,1.02-1.17,1.22-1.96.05-.19.09-.39.11-.6.03-.23.04-.46.04-.7,0-.5-.06-.94-.19-1.33ZM92.05,31.76c.14,0,.27.01.4.03.29.05.54.16.73.33.27.25.41.62.41,1.11,0,.1,0,.19-.02.28-.04.31-.16.56-.36.77-.25.27-.61.4-1.07.4h-2.75v-2.92h2.66ZM89.39,28.85v-2.62h2.38c.47,0,.83.1,1.06.31.23.2.35.53.35,1,0,.43-.12.76-.37.98-.25.23-.59.34-1.04.34h-2.38Z"/>
      </g>
    </g>
  </g>
</svg>