<?xml version="1.0" encoding="UTF-8"?>
<svg id="Icon" xmlns="http://www.w3.org/2000/svg" viewBox="0 0 120 120">
  <defs>
    <style>
      .cls-1 {
        fill: #fff8d9;
      }

      .cls-2 {
        fill: #f4b545;
      }

      .cls-3 {
        fill: #6d3108;
      }

      .cls-4 {
        fill: #ffeda8;
      }

      .cls-5 {
        fill: #ffe277;
      }

      .cls-6 {
        fill: #fff8dc;
      }
    </style>
  </defs>
  <path class="cls-3" d="M93.95,93.31c0,5.39-4.1,10.14-11.53,13.38-5.28,2.31-11.97,3.72-19.09,4.06-1.11.05-2.22.08-3.33.08-1.39,0-2.77-.04-4.11-.13-8.78-.5-16.24-2.54-21.51-5.6-5.26-3.07-8.33-7.17-8.33-11.79v-50.69c0-8.28,10.03-14.86,24.47-16.88,1.57-6.97,5.5-13.71,6.05-14.62.72-1.21,2.02-1.95,3.43-1.95s2.71.74,3.43,1.95c.55.91,4.48,7.65,6.05,14.62,14.44,2.02,24.46,8.6,24.46,16.88v50.63s.01.04.01.06Z"/>
  <g>
    <path class="cls-4" d="M89.95,93.31c0,3.81-3.5,7.26-9.12,9.71-5.39,2.36-12.74,3.81-20.83,3.81-1.31,0-2.59-.04-3.85-.12-14.71-.84-26.09-6.52-26.09-13.4s11.38-12.56,26.09-13.4c1.26-.08,2.54-.12,3.85-.12,8.09,0,15.44,1.45,20.83,3.81,5.62,2.45,9.12,5.9,9.12,9.71Z"/>
    <rect class="cls-4" x="30.05" y="42.62" width="59.89" height="50.69"/>
    <path class="cls-5" d="M80.82,44.69v58.33c-5.39,2.36-12.74,3.81-20.83,3.81-1.31,0-2.59-.04-3.85-.12v-62.02h24.68Z"/>
    <ellipse class="cls-1" cx="60" cy="42.62" rx="29.94" ry="13.52"/>
    <ellipse class="cls-4" cx="60" cy="42.62" rx="6.13" ry="2.77"/>
    <path class="cls-2" d="M66.13,30.97c0,7.58-6.13,13.72-6.13,13.72,0,0-6.13-6.14-6.13-13.72s6.13-17.8,6.13-17.8c0,0,6.13,10.22,6.13,17.8Z"/>
    <path class="cls-6" d="M62.92,35.26c0,4.56-2.92,8.25-2.92,8.25,0,0-2.92-3.69-2.92-8.25s2.92-10.22,2.92-10.22c0,0,2.92,5.66,2.92,10.22Z"/>
  </g>
</svg>