<?xml version="1.0" encoding="UTF-8"?>
<svg id="Icon" xmlns="http://www.w3.org/2000/svg" viewBox="0 0 120 120">
  <defs>
    <style>
      .cls-1 {
        fill: #ffa9c2;
      }

      .cls-2 {
        fill: #a152db;
      }

      .cls-3 {
        fill: #dfedf2;
      }

      .cls-4 {
        fill: #d87625;
      }

      .cls-5 {
        fill: #7a1859;
      }

      .cls-6 {
        fill: #f47aa0;
      }

      .cls-7 {
        fill: #aa5217;
      }

      .cls-8 {
        fill: #666;
      }

      .cls-9 {
        fill: #ffe277;
      }

      .cls-10 {
        fill: #8942c5;
      }

      .cls-11 {
        fill: #d27cf2;
      }

      .cls-12 {
        fill: #ffd2e1;
      }
    </style>
  </defs>
  <path class="cls-5" d="M107.54,78.15h-4.58v-13.86c0-3.44-2.79-6.23-6.23-6.23h-23.12v-21.9c0-5.74-4.67-10.41-10.41-10.41h-6.29v-13.14c0-4.07-3.32-7.39-7.39-7.39h-18.79c-4.08,0-7.39,3.32-7.39,7.39v13.14h-6.3c-5.74,0-10.4,4.67-10.4,10.41v61.67c0,3.72,1.97,6.98,4.91,8.82v2.21c0,3.26,2.66,5.92,5.92,5.92h4.37c3.26,0,5.91-2.66,5.91-5.92v-.63h15.16c.18,3.64,3.18,6.55,6.86,6.55h58.09c3.8,0,6.89-3.09,6.89-6.89v-22.53c0-3.98-3.24-7.21-7.21-7.21ZM44.9,25.75h-9.56v-8.52h9.56v8.52Z"/>
  <g>
    <rect class="cls-7" x="46.89" y="90.68" width="63.85" height="20.09" rx="2.88" ry="2.88"/>
    <rect class="cls-4" x="46.89" y="82.15" width="63.85" height="24.88" rx="3.21" ry="3.21"/>
    <rect class="cls-2" x="56.13" y="62.06" width="42.83" height="20.09" rx="2.46" ry="2.46"/>
    <rect class="cls-11" x="56.13" y="62.06" width="42.83" height="16.52" rx="2.23" ry="2.23"/>
    <rect class="cls-10" x="66.39" y="69.59" width="32.57" height="1.68"/>
    <rect class="cls-7" x="61.07" y="93.75" width="49.67" height="1.68"/>
    <path class="cls-3" d="M52.91,12.61v26.19h-4.01V14.47c0-.68-.55-1.23-1.23-1.23h-15.09c-.68,0-1.23.55-1.23,1.23v24.34h-4V12.61c0-1.87,1.52-3.39,3.39-3.39h18.79c1.87,0,3.39,1.52,3.39,3.39Z"/>
    <rect class="cls-8" x="15.55" y="98.69" width="8.2" height="12.09" rx="1.91" ry="1.91"/>
    <rect class="cls-8" x="55.95" y="98.69" width="8.2" height="12.09" rx="1.91" ry="1.91"/>
    <rect class="cls-6" x="10.64" y="37.04" width="58.97" height="67.19" rx="6.4" ry="6.4"/>
    <rect class="cls-12" x="10.64" y="29.75" width="58.97" height="67.19" rx="6.4" ry="6.4"/>
    <rect class="cls-1" x="10.64" y="34.01" width="58.97" height="62.94" rx="6.2" ry="6.2"/>
    <g>
      <path class="cls-6" d="M23.31,41.58v46.31c0,.95-.77,1.72-1.72,1.72s-1.73-.77-1.73-1.72v-46.31c0-.95.78-1.72,1.73-1.72s1.72.77,1.72,1.72Z"/>
      <path class="cls-6" d="M32.58,41.58v46.31c0,.95-.77,1.72-1.72,1.72s-1.72-.77-1.72-1.72v-46.31c0-.95.77-1.72,1.72-1.72s1.72.77,1.72,1.72Z"/>
      <path class="cls-6" d="M41.85,41.58v46.31c0,.95-.77,1.72-1.72,1.72s-1.72-.77-1.72-1.72v-46.31c0-.95.77-1.72,1.72-1.72s1.72.77,1.72,1.72Z"/>
      <path class="cls-6" d="M51.12,41.58v46.31c0,.95-.78,1.72-1.73,1.72s-1.72-.77-1.72-1.72v-46.31c0-.95.78-1.72,1.72-1.72s1.73.77,1.73,1.72Z"/>
      <path class="cls-6" d="M60.39,41.58v46.31c0,.95-.78,1.72-1.72,1.72s-1.73-.77-1.73-1.72v-46.31c0-.95.78-1.72,1.73-1.72s1.72.77,1.72,1.72Z"/>
    </g>
    <rect class="cls-7" x="96.53" y="97.22" width="4" height="1.86"/>
    <rect class="cls-9" x="96.53" y="91.68" width="4" height="5.55"/>
    <rect class="cls-10" x="86.23" y="71.87" width="3.15" height="1.46"/>
    <rect class="cls-3" x="86.23" y="67.51" width="3.15" height="4.36"/>
  </g>
</svg>