<?xml version="1.0" encoding="UTF-8"?>
<svg id="Icon" xmlns="http://www.w3.org/2000/svg" viewBox="0 0 120 120">
  <defs>
    <style>
      .cls-1 {
        fill: #fff8d9;
      }

      .cls-2 {
        fill: #f4b545;
      }

      .cls-3 {
        fill: #6d3108;
      }

      .cls-4 {
        fill: #ffe277;
      }

      .cls-5 {
        opacity: .5;
      }
    </style>
  </defs>
  <g>
    <path class="cls-3" d="M113.78,64.26c.47-.89.6-1.92.34-2.89l-11.59-43.21c-.07-.26-.16-.51-.28-.74-.08-.16-.18-.3-.28-.45-.05-.07-.08-.15-.14-.22-.12-.16-.26-.3-.4-.43-.05-.04-.08-.09-.13-.14-.39-.34-.85-.61-1.35-.78-.07-.02-.14-.03-.21-.05-.18-.05-.36-.1-.55-.13-.11-.01-.21,0-.32-.01-.15,0-.31-.03-.46-.02-.17.01-.33.05-.5.08-.1.02-.19.02-.29.05L11.2,38.48c-1.41.38-2.42,1.46-2.8,2.76-.06.11-.11.23-.16.35-.17.26-.32.52-.42.81-.13.22-.24.44-.33.68-.17.27-.32.55-.42.86-.06.11-.11.23-.16.35-.17.26-.32.53-.43.82-.13.21-.24.44-.33.68-.15.23-.28.48-.37.74-.02.04-.05.06-.07.1-.53.92-.67,2.01-.4,3.04l11.58,43.21c.27,1.02.94,1.9,1.86,2.43.61.35,1.3.54,2,.54.35,0,.69-.04,1.04-.14l86.43-23.16c1.02-.27,1.9-.94,2.43-1.86.11-.19.19-.39.27-.6.02-.04.06-.07.08-.11.11-.19.2-.4.27-.6.03-.05.07-.09.1-.14.11-.19.19-.39.27-.6.02-.03.04-.05.06-.08.09-.15.15-.32.22-.48.05-.07.11-.14.15-.21.13-.23.24-.48.33-.73.08-.15.15-.31.21-.46.03-.05.07-.09.1-.14.11-.19.19-.39.27-.6.02-.03.04-.05.06-.08.09-.15.15-.32.22-.48.05-.07.11-.14.15-.21.17-.29.28-.59.37-.91Z"/>
    <g>
      <path class="cls-3" d="M100.27,60.93l-3.78,1.01,2.71-10.13.93-.25,1.98,7.4-.43,1.59-1.42.38ZM30.68,45.73c-.3-.08-.59-.14-.89-.19.2-.02.41-.06.61-.11.13-.03.26-.09.39-.14l-.12.43ZM36.16,68.85c.21-.02.41-.06.61-.11.13-.03.26-.09.39-.14l-.12.43c-.3-.08-.59-.14-.89-.19ZM95.33,37.24l-.29.08-4.91,1.32,2.72-10.13.93-.25,1.98,7.4-.43,1.59ZM55.49,72.94l-3.78,1.01.24-.89,5.2-1.39-.24.89-1.42.38Z"/>
      <g>
        <g>
          <rect class="cls-2" x="54.52" y="30.9" width="44.74" height="22.37" transform="translate(-8.27 21.33) rotate(-15)"/>
          <rect class="cls-4" x="54.87" y="30.19" width="44.74" height="22.37" transform="translate(-8.08 21.4) rotate(-15)"/>
          <rect class="cls-2" x="55.24" y="29.45" width="44.74" height="22.37" transform="translate(-7.87 21.47) rotate(-15)"/>
          <rect class="cls-4" x="55.57" y="28.77" width="44.74" height="22.37" transform="translate(-7.69 21.53) rotate(-15)"/>
          <rect class="cls-2" x="55.94" y="28.08" width="44.74" height="22.37" transform="translate(-7.49 21.6) rotate(-15)"/>
          <rect class="cls-4" x="56.2" y="27.48" width="44.74" height="22.37" transform="translate(-7.33 21.65) rotate(-15)"/>
          <rect class="cls-2" x="56.57" y="26.74" width="44.74" height="22.37" transform="translate(-7.13 21.72) rotate(-15)"/>
          <rect class="cls-4" x="56.9" y="26.06" width="44.74" height="22.37" transform="translate(-6.94 21.79) rotate(-15)"/>
          <rect class="cls-2" x="57.27" y="25.37" width="44.74" height="22.37" transform="translate(-6.75 21.86) rotate(-15)"/>
          <rect class="cls-4" x="57.58" y="24.61" width="44.74" height="22.37" transform="translate(-6.54 21.91) rotate(-15)"/>
          <polygon class="cls-1" points="81.86 23.7 75.17 48.65 61.23 52.38 59.52 45.98 64.22 28.43 81.86 23.7"/>
          <polygon class="cls-2" points="98.66 19.2 101.27 28.93 97.59 42.64 83.47 46.43 90.15 21.48 98.66 19.2"/>
          <g>
            <path class="cls-3" d="M60.68,34.55c.06-.02.11-.01.15.02s.08.08.1.15.02.13,0,.18c-.02.05-.07.08-.13.09l-1.17.31c-.08.02-.15.02-.2-.02s-.09-.09-.11-.17l-.6-2.22c-.02-.08-.01-.14.02-.2.03-.05.1-.09.19-.12s.17-.02.22,0c.06.03.09.08.11.16l.54,2.03.87-.23Z"/>
            <path class="cls-3" d="M60.93,33.55c-.06-.22-.08-.43-.06-.63.02-.19.07-.37.15-.52.08-.15.2-.28.34-.39.15-.11.32-.19.52-.24s.37-.07.55-.05.33.07.47.16c.14.09.27.21.37.36.11.15.19.33.24.54.06.22.08.43.06.62-.02.19-.07.37-.15.52-.08.15-.2.28-.34.39-.15.11-.32.19-.52.24s-.37.07-.55.05-.33-.07-.47-.16c-.14-.09-.27-.2-.37-.36-.11-.15-.19-.33-.24-.54ZM61.48,33.36c.04.16.1.29.17.4.07.11.15.19.24.26s.18.1.29.12c.1.02.2.01.31-.02s.19-.07.27-.14c.08-.06.14-.15.19-.24.04-.1.07-.21.08-.34,0-.13-.01-.27-.05-.43s-.1-.29-.17-.4c-.07-.11-.15-.2-.24-.26-.09-.06-.18-.1-.29-.12s-.2-.01-.31.02-.19.07-.27.14c-.08.06-.14.15-.19.24-.05.1-.07.21-.08.34s.01.27.05.43Z"/>
            <path class="cls-3" d="M63.77,31.77c-.06.02-.11.01-.15-.02-.04-.03-.08-.08-.1-.15s-.02-.13,0-.18c.02-.04.07-.08.12-.09l1.78-.48c.06-.02.11-.01.15.02.04.03.08.08.1.15s.02.13,0,.18c-.02.05-.07.08-.12.09l-.62.17.54,2.03c.02.08.01.14-.02.2-.03.05-.1.09-.19.12s-.17.02-.22,0c-.06-.03-.09-.08-.11-.16l-.54-2.03-.62.17Z"/>
            <path class="cls-3" d="M66.2,31.12c-.06.02-.11.01-.15-.02-.04-.03-.08-.08-.1-.15s-.02-.13,0-.18c.02-.04.07-.08.12-.09l1.78-.48c.06-.02.11-.01.15.02.04.03.08.08.1.15s.02.13,0,.18c-.02.05-.07.08-.12.09l-.62.17.54,2.03c.02.08.01.14-.02.2-.03.05-.1.09-.19.12s-.17.02-.22,0c-.06-.03-.09-.08-.11-.16l-.54-2.03-.62.17Z"/>
            <path class="cls-3" d="M69.73,32.14l.92-.25c.06-.02.11,0,.15.02.04.03.07.08.09.15s.02.13,0,.17c-.02.04-.06.07-.12.09l-1.22.33c-.08.02-.15.02-.2-.02s-.09-.09-.11-.17l-.59-2.2c-.02-.08-.02-.15.02-.2s.09-.09.17-.11l1.21-.32c.06-.02.11,0,.15.02.04.03.07.07.09.15s.02.13,0,.17c-.02.04-.06.07-.12.09l-.91.24.18.69.78-.21c.05-.01.1,0,.15.02.04.03.07.07.09.14s.02.12,0,.17c-.02.04-.06.07-.12.09l-.78.21.2.74Z"/>
            <path class="cls-3" d="M72.06,31.73c.02.08.01.14-.02.2-.03.05-.09.09-.19.12s-.17.02-.22,0c-.05-.03-.09-.08-.11-.16l-.6-2.22c-.02-.08-.02-.15.02-.2s.09-.09.17-.11l.58-.15c.18-.05.35-.07.49-.07.14,0,.27.03.37.07s.19.11.26.19c.07.08.11.18.14.29.02.09.03.18.03.27,0,.09-.02.17-.05.24s-.07.14-.13.21c-.05.06-.12.12-.19.17l.71.64s.06.05.07.08c.02.02.03.05.04.07.01.04.01.08,0,.11,0,.04-.02.07-.05.1-.02.03-.05.06-.08.08-.03.02-.07.04-.11.05s-.07.01-.1,0-.06-.01-.09-.03c0,0-.02-.01-.03-.02,0,0-.02-.01-.03-.02s-.02-.02-.03-.02c0,0-.02-.02-.03-.03l-.79-.77-.27.07.23.85ZM72,30.39c.09-.02.16-.05.22-.09.06-.04.11-.08.14-.13.03-.05.05-.1.06-.15,0-.06,0-.11-.01-.17s-.04-.11-.07-.15-.07-.07-.13-.1c-.05-.02-.11-.03-.19-.03s-.16.01-.25.04l-.26.07.21.79.28-.07Z"/>
            <path class="cls-3" d="M73.31,29.25s-.04-.03-.05-.05c-.02-.02-.03-.03-.04-.05-.01-.01-.02-.03-.03-.04,0-.01-.01-.03-.02-.05-.01-.04-.01-.08,0-.12,0-.04.03-.07.05-.11.02-.03.05-.06.08-.08.03-.02.07-.04.1-.05.04-.01.07-.01.1,0,.03,0,.05.01.08.03.02.01.04.03.06.05s.05.05.08.08l.62.64s.04.04.06.07c.02.02.04.04.05.06.02.02.03.04.05.06h0s0-.05.01-.08c0-.02,0-.05.01-.08,0-.03.01-.06.02-.09l.2-.85c.01-.05.02-.09.03-.11,0-.02.02-.05.03-.07.01-.02.03-.05.06-.06.02-.02.05-.03.08-.04.04,0,.07-.01.11,0,.04,0,.07.01.11.03.03.02.06.04.09.06.03.03.04.06.05.09,0,.03.01.07,0,.1,0,.03-.02.07-.03.12l-.4,1.41.22.82c.02.08.01.14-.02.2-.03.05-.1.09-.19.12s-.17.02-.22,0c-.06-.03-.09-.08-.11-.16l-.22-.82-1.02-.99Z"/>
          </g>
          <g class="cls-5">
            <path class="cls-2" d="M70.3,48.05s-.05.01-.09.01c-.32.01-.83-.35-1.4-1-.6-.69-1.16-1.59-1.59-2.55-2.36.26-4.47-.29-4.62-.81,0-.03-.01-.07-.01-.11.01-.67,1.53-2.07,3.55-2.97-.27-2.36.29-4.48.81-4.62.02,0,.04,0,.05-.01.02,0,.04,0,.05,0,.09,0,.17.02.27.07.71.3,1.9,1.69,2.71,3.49,2.36-.26,4.47.29,4.62.81,0,.02.01.06.01.09.02.64-1.52,2.08-3.55,2.99.27,2.36-.29,4.48-.81,4.62ZM67.02,36.25c-.28.08-.91,1.97-.61,4.43,0,.06-.02.11-.08.13-2.24.98-3.48,2.35-3.49,2.77,0,.02,0,.03,0,.04.08.28,1.97.91,4.43.61.06,0,.11.02.13.08.42.97.99,1.88,1.59,2.57.56.64,1,.92,1.2.91l.06.12-.03-.13c.28-.08.91-1.97.61-4.42,0-.01,0-.03,0-.04,0-.05.03-.09.08-.11,2.19-.95,3.5-2.34,3.49-2.78l.12-.06-.13.03c-.08-.28-1.97-.91-4.43-.61-.06.01-.12-.02-.14-.08-.86-1.97-2.04-3.2-2.61-3.44-.08-.03-.13-.04-.17-.04-.02,0-.03,0-.04,0Z"/>
            <path class="cls-2" d="M69.06,43.61c-.87.23-1.77-.28-2.01-1.15-.12-.42-.06-.87.15-1.25.22-.38.57-.66.99-.78.43-.11.87-.06,1.25.15.38.22.66.57.78.99h0c.24.87-.27,1.78-1.15,2.03h-.01ZM68.27,40.68h-.01c-.36.1-.65.33-.84.66s-.23.7-.13,1.05c.2.73.96,1.17,1.69.97h.01c.74-.21,1.17-.97.97-1.71-.1-.36-.33-.65-.65-.84-.32-.18-.69-.23-1.04-.13Z"/>
            <rect class="cls-2" x="69.07" y="40.06" width="1.18" height=".26" transform="translate(.03 80.42) rotate(-60)"/>
            <rect class="cls-2" x="67.01" y="43.72" width="1.19" height=".26" transform="translate(-4.18 80.47) rotate(-60)"/>
            <rect class="cls-2" x="66.67" y="40.4" width=".26" height="1.18" transform="translate(-2.1 78.34) rotate(-60)"/>
            <rect class="cls-2" x="70.33" y="42.46" width=".26" height="1.18" transform="translate(-2.05 82.55) rotate(-60)"/>
          </g>
        </g>
        <g>
          <rect class="cls-2" x="11.31" y="42.47" width="44.74" height="22.37" transform="translate(-12.74 10.55) rotate(-15)"/>
          <rect class="cls-4" x="11.66" y="41.76" width="44.74" height="22.37" transform="translate(-12.54 10.61) rotate(-15)"/>
          <rect class="cls-2" x="12.03" y="41.02" width="44.74" height="22.37" transform="translate(-12.34 10.68) rotate(-15)"/>
          <rect class="cls-4" x="12.36" y="40.34" width="44.74" height="22.37" transform="translate(-12.15 10.74) rotate(-15)"/>
          <rect class="cls-2" x="12.73" y="39.65" width="44.74" height="22.37" transform="translate(-11.96 10.82) rotate(-15)"/>
          <rect class="cls-4" x="13" y="39.05" width="44.74" height="22.37" transform="translate(-11.8 10.87) rotate(-15)"/>
          <rect class="cls-2" x="13.37" y="38.31" width="44.74" height="22.37" transform="translate(-11.59 10.94) rotate(-15)"/>
          <rect class="cls-4" x="13.7" y="37.63" width="44.74" height="22.37" transform="translate(-11.41 11) rotate(-15)"/>
          <rect class="cls-2" x="14.07" y="36.94" width="44.74" height="22.37" transform="translate(-11.21 11.07) rotate(-15)"/>
          <rect class="cls-4" x="14.37" y="36.18" width="44.74" height="22.37" transform="translate(-11.01 11.12) rotate(-15)"/>
          <polygon class="cls-1" points="38.65 35.27 31.97 60.22 18.03 63.95 16.31 57.55 21.01 40 38.65 35.27"/>
          <polygon class="cls-2" points="55.45 30.77 58.06 40.5 54.39 54.21 40.26 58 46.95 33.05 55.45 30.77"/>
          <g>
            <path class="cls-3" d="M17.47,46.12c.06-.02.11-.01.15.02s.08.08.1.15.02.13,0,.18c-.02.05-.07.08-.13.09l-1.17.31c-.08.02-.15.02-.2-.02s-.09-.09-.11-.17l-.6-2.22c-.02-.08-.01-.14.02-.2.03-.05.1-.09.19-.12s.17-.02.22,0c.06.03.09.08.11.16l.54,2.03.87-.23Z"/>
            <path class="cls-3" d="M17.73,45.12c-.06-.22-.08-.43-.06-.63.02-.19.07-.37.15-.52.08-.15.2-.28.34-.39.15-.11.32-.19.52-.24s.37-.07.55-.05.33.07.47.16c.14.09.27.21.37.36.11.15.19.33.24.54.06.22.08.43.06.62-.02.19-.07.37-.15.52-.08.15-.2.28-.34.39-.15.11-.32.19-.52.24s-.37.07-.55.05-.33-.07-.47-.16c-.14-.09-.27-.2-.37-.36-.11-.15-.19-.33-.24-.54ZM18.28,44.93c.04.16.1.29.17.4.07.11.15.19.24.26s.18.1.29.12c.1.02.2.01.31-.02s.19-.07.27-.14c.08-.06.14-.15.19-.24.04-.1.07-.21.08-.34,0-.13-.01-.27-.05-.43s-.1-.29-.17-.4c-.07-.11-.15-.2-.24-.26-.09-.06-.18-.1-.29-.12s-.2-.01-.31.02-.19.07-.27.14c-.08.06-.14.15-.19.24-.05.1-.07.21-.08.34s.01.27.05.43Z"/>
            <path class="cls-3" d="M20.57,43.34c-.06.02-.11.01-.15-.02-.04-.03-.08-.08-.1-.15s-.02-.13,0-.18c.02-.04.07-.08.12-.09l1.78-.48c.06-.02.11-.01.15.02.04.03.08.08.1.15s.02.13,0,.18c-.02.05-.07.08-.12.09l-.62.17.54,2.03c.02.08.01.14-.02.2-.03.05-.1.09-.19.12s-.17.02-.22,0c-.06-.03-.09-.08-.11-.16l-.54-2.03-.62.17Z"/>
            <path class="cls-3" d="M22.99,42.69c-.06.02-.11.01-.15-.02-.04-.03-.08-.08-.1-.15s-.02-.13,0-.18c.02-.04.07-.08.12-.09l1.78-.48c.06-.02.11-.01.15.02.04.03.08.08.1.15s.02.13,0,.18c-.02.05-.07.08-.12.09l-.62.17.54,2.03c.02.08.01.14-.02.2-.03.05-.1.09-.19.12s-.17.02-.22,0c-.06-.03-.09-.08-.11-.16l-.54-2.03-.62.17Z"/>
            <path class="cls-3" d="M26.52,43.71l.92-.25c.06-.02.11,0,.15.02.04.03.07.08.09.15s.02.13,0,.17c-.02.04-.06.07-.12.09l-1.22.33c-.08.02-.15.02-.2-.02s-.09-.09-.11-.17l-.59-2.2c-.02-.08-.02-.15.02-.2s.09-.09.17-.11l1.21-.32c.06-.02.11,0,.15.02.04.03.07.07.09.15s.02.13,0,.17c-.02.04-.06.07-.12.09l-.91.24.18.69.78-.21c.05-.01.1,0,.15.02.04.03.07.07.09.14s.02.12,0,.17c-.02.04-.06.07-.12.09l-.78.21.2.74Z"/>
            <path class="cls-3" d="M28.85,43.3c.02.08.01.14-.02.2-.03.05-.09.09-.19.12s-.17.02-.22,0c-.05-.03-.09-.08-.11-.16l-.6-2.22c-.02-.08-.02-.15.02-.2s.09-.09.17-.11l.58-.15c.18-.05.35-.07.49-.07.14,0,.27.03.37.07s.19.11.26.19c.07.08.11.18.14.29.02.09.03.18.03.27,0,.09-.02.17-.05.24s-.07.14-.13.21c-.05.06-.12.12-.19.17l.71.64s.06.05.07.08c.02.02.03.05.04.07.01.04.01.08,0,.11,0,.04-.02.07-.05.1-.02.03-.05.06-.08.08-.03.02-.07.04-.11.05s-.07.01-.1,0-.06-.01-.09-.03c0,0-.02-.01-.03-.02,0,0-.02-.01-.03-.02s-.02-.02-.03-.02c0,0-.02-.02-.03-.03l-.79-.77-.27.07.23.85ZM28.79,41.96c.09-.02.16-.05.22-.09.06-.04.11-.08.14-.13.03-.05.05-.1.06-.15,0-.06,0-.11-.01-.17s-.04-.11-.07-.15-.07-.07-.13-.1c-.05-.02-.11-.03-.19-.03s-.16.01-.25.04l-.26.07.21.79.28-.07Z"/>
            <path class="cls-3" d="M30.11,40.82s-.04-.03-.05-.05c-.02-.02-.03-.03-.04-.05-.01-.01-.02-.03-.03-.04,0-.01-.01-.03-.02-.05-.01-.04-.01-.08,0-.12,0-.04.03-.07.05-.11.02-.03.05-.06.08-.08.03-.02.07-.04.1-.05.04-.01.07-.01.1,0,.03,0,.05.01.08.03.02.01.04.03.06.05s.05.05.08.08l.62.64s.04.04.06.07c.02.02.04.04.05.06.02.02.03.04.05.06h0s0-.05.01-.08c0-.02,0-.05.01-.08,0-.03.01-.06.02-.09l.2-.85c.01-.05.02-.09.03-.11,0-.02.02-.05.03-.07.01-.02.03-.05.06-.06.02-.02.05-.03.08-.04.04,0,.07-.01.11,0,.04,0,.07.01.11.03.03.02.06.04.09.06.03.03.04.06.05.09,0,.03.01.07,0,.1,0,.03-.02.07-.03.12l-.4,1.41.22.82c.02.08.01.14-.02.2-.03.05-.1.09-.19.12s-.17.02-.22,0c-.06-.03-.09-.08-.11-.16l-.22-.82-1.02-.99Z"/>
          </g>
          <g class="cls-5">
            <path class="cls-2" d="M27.1,59.62s-.05.01-.09.01c-.32.01-.83-.35-1.4-1-.6-.69-1.16-1.59-1.59-2.55-2.36.26-4.47-.29-4.62-.81,0-.03-.01-.07-.01-.11.01-.67,1.53-2.07,3.55-2.97-.27-2.36.29-4.48.81-4.62.02,0,.04,0,.05-.01.02,0,.04,0,.05,0,.09,0,.17.02.27.07.71.3,1.9,1.69,2.71,3.49,2.36-.26,4.47.29,4.62.81,0,.02.01.06.01.09.02.64-1.52,2.08-3.55,2.99.27,2.36-.29,4.48-.81,4.62ZM23.82,47.82c-.28.08-.91,1.97-.61,4.43,0,.06-.02.11-.08.13-2.24.98-3.48,2.35-3.49,2.77,0,.02,0,.03,0,.04.08.28,1.97.91,4.43.61.06,0,.11.02.13.08.42.97.99,1.88,1.59,2.57.56.64,1,.92,1.2.91l.06.12-.03-.13c.28-.08.91-1.97.61-4.42,0-.01,0-.03,0-.04,0-.05.03-.09.08-.11,2.19-.95,3.5-2.34,3.49-2.78l.12-.06-.13.03c-.08-.28-1.97-.91-4.43-.61-.06.01-.12-.02-.14-.08-.86-1.97-2.04-3.2-2.61-3.44-.08-.03-.13-.04-.17-.04-.02,0-.03,0-.04,0Z"/>
            <path class="cls-2" d="M25.85,55.18c-.87.23-1.77-.28-2.01-1.15-.12-.42-.06-.87.15-1.25.22-.38.57-.66.99-.78.43-.11.87-.06,1.25.15.38.22.66.57.78.99h0c.24.87-.27,1.78-1.15,2.03h-.01ZM25.07,52.25h-.01c-.36.1-.65.33-.84.66s-.23.7-.13,1.05c.2.73.96,1.17,1.69.97h.01c.74-.21,1.17-.97.97-1.71-.1-.36-.33-.65-.65-.84-.32-.18-.69-.23-1.04-.13Z"/>
            <rect class="cls-2" x="25.87" y="51.63" width="1.18" height=".26" transform="translate(-31.59 48.79) rotate(-60)"/>
            <rect class="cls-2" x="23.8" y="55.29" width="1.19" height=".26" transform="translate(-35.8 48.84) rotate(-60)"/>
            <rect class="cls-2" x="23.46" y="51.97" width=".26" height="1.18" transform="translate(-33.72 46.7) rotate(-60)"/>
            <rect class="cls-2" x="27.13" y="54.03" width=".26" height="1.18" transform="translate(-33.68 50.92) rotate(-60)"/>
          </g>
        </g>
        <g>
          <rect class="cls-2" x="60.32" y="52.49" width="44.74" height="22.37" transform="translate(-13.66 23.57) rotate(-15)"/>
          <rect class="cls-4" x="60.66" y="51.79" width="44.74" height="22.37" transform="translate(-13.47 23.64) rotate(-15)"/>
          <rect class="cls-2" x="61.04" y="51.05" width="44.74" height="22.37" transform="translate(-13.26 23.71) rotate(-15)"/>
          <rect class="cls-4" x="61.36" y="50.37" width="44.74" height="22.37" transform="translate(-13.08 23.77) rotate(-15)"/>
          <rect class="cls-2" x="61.73" y="49.68" width="44.74" height="22.37" transform="translate(-12.89 23.84) rotate(-15)"/>
          <rect class="cls-4" x="62" y="49.08" width="44.74" height="22.37" transform="translate(-12.72 23.89) rotate(-15)"/>
          <rect class="cls-2" x="62.37" y="48.34" width="44.74" height="22.37" transform="translate(-12.52 23.96) rotate(-15)"/>
          <rect class="cls-4" x="62.7" y="47.66" width="44.74" height="22.37" transform="translate(-12.33 24.02) rotate(-15)"/>
          <rect class="cls-2" x="63.07" y="46.97" width="44.74" height="22.37" transform="translate(-12.14 24.1) rotate(-15)"/>
          <rect class="cls-4" x="63.38" y="46.2" width="44.74" height="22.37" transform="translate(-11.93 24.15) rotate(-15)"/>
          <polygon class="cls-1" points="87.66 45.3 80.97 70.25 67.03 73.98 65.32 67.58 70.02 50.02 87.66 45.3"/>
          <polygon class="cls-2" points="104.46 40.8 107.07 50.53 103.39 64.24 89.27 68.03 95.95 43.08 104.46 40.8"/>
          <g>
            <path class="cls-3" d="M66.48,56.15c.06-.02.11-.01.15.02s.08.08.1.15.02.13,0,.18c-.02.05-.07.08-.13.09l-1.17.31c-.08.02-.15.02-.2-.02s-.09-.09-.11-.17l-.6-2.22c-.02-.08-.01-.14.02-.2.03-.05.1-.09.19-.12s.17-.02.22,0c.06.03.09.08.11.16l.54,2.03.87-.23Z"/>
            <path class="cls-3" d="M66.73,55.15c-.06-.22-.08-.43-.06-.63.02-.19.07-.37.15-.52.08-.15.2-.28.34-.39.15-.11.32-.19.52-.24s.37-.07.55-.05.33.07.47.16c.14.09.27.21.37.36.11.15.19.33.24.54.06.22.08.43.06.62-.02.19-.07.37-.15.52-.08.15-.2.28-.34.39-.15.11-.32.19-.52.24s-.37.07-.55.05-.33-.07-.47-.16c-.14-.09-.27-.2-.37-.36-.11-.15-.19-.33-.24-.54ZM67.28,54.96c.04.16.1.29.17.4.07.11.15.19.24.26s.18.1.29.12c.1.02.2.01.31-.02s.19-.07.27-.14c.08-.06.14-.15.19-.24.04-.1.07-.21.08-.34,0-.13-.01-.27-.05-.43s-.1-.29-.17-.4c-.07-.11-.15-.2-.24-.26-.09-.06-.18-.1-.29-.12s-.2-.01-.31.02-.19.07-.27.14c-.08.06-.14.15-.19.24-.05.1-.07.21-.08.34s.01.27.05.43Z"/>
            <path class="cls-3" d="M69.57,53.37c-.06.02-.11.01-.15-.02-.04-.03-.08-.08-.1-.15s-.02-.13,0-.18c.02-.04.07-.08.12-.09l1.78-.48c.06-.02.11-.01.15.02.04.03.08.08.1.15s.02.13,0,.18c-.02.05-.07.08-.12.09l-.62.17.54,2.03c.02.08.01.14-.02.2-.03.05-.1.09-.19.12s-.17.02-.22,0c-.06-.03-.09-.08-.11-.16l-.54-2.03-.62.17Z"/>
            <path class="cls-3" d="M72,52.72c-.06.02-.11.01-.15-.02-.04-.03-.08-.08-.1-.15s-.02-.13,0-.18c.02-.04.07-.08.12-.09l1.78-.48c.06-.02.11-.01.15.02.04.03.08.08.1.15s.02.13,0,.18c-.02.05-.07.08-.12.09l-.62.17.54,2.03c.02.08.01.14-.02.2-.03.05-.1.09-.19.12s-.17.02-.22,0c-.06-.03-.09-.08-.11-.16l-.54-2.03-.62.17Z"/>
            <path class="cls-3" d="M75.53,53.74l.92-.25c.06-.02.11,0,.15.02.04.03.07.08.09.15s.02.13,0,.17c-.02.04-.06.07-.12.09l-1.22.33c-.08.02-.15.02-.2-.02s-.09-.09-.11-.17l-.59-2.2c-.02-.08-.02-.15.02-.2s.09-.09.17-.11l1.21-.32c.06-.02.11,0,.15.02.04.03.07.07.09.15s.02.13,0,.17c-.02.04-.06.07-.12.09l-.91.24.18.69.78-.21c.05-.01.1,0,.15.02.04.03.07.07.09.14s.02.12,0,.17c-.02.04-.06.07-.12.09l-.78.21.2.74Z"/>
            <path class="cls-3" d="M77.86,53.33c.02.08.01.14-.02.2-.03.05-.09.09-.19.12s-.17.02-.22,0c-.05-.03-.09-.08-.11-.16l-.6-2.22c-.02-.08-.02-.15.02-.2s.09-.09.17-.11l.58-.15c.18-.05.35-.07.49-.07.14,0,.27.03.37.07s.19.11.26.19c.07.08.11.18.14.29.02.09.03.18.03.27,0,.09-.02.17-.05.24s-.07.14-.13.21c-.05.06-.12.12-.19.17l.71.64s.06.05.07.08c.02.02.03.05.04.07.01.04.01.08,0,.11,0,.04-.02.07-.05.1-.02.03-.05.06-.08.08-.03.02-.07.04-.11.05s-.07.01-.1,0-.06-.01-.09-.03c0,0-.02-.01-.03-.02,0,0-.02-.01-.03-.02s-.02-.02-.03-.02c0,0-.02-.02-.03-.03l-.79-.77-.27.07.23.85ZM77.79,51.98c.09-.02.16-.05.22-.09.06-.04.11-.08.14-.13.03-.05.05-.1.06-.15,0-.06,0-.11-.01-.17s-.04-.11-.07-.15-.07-.07-.13-.1c-.05-.02-.11-.03-.19-.03s-.16.01-.25.04l-.26.07.21.79.28-.07Z"/>
            <path class="cls-3" d="M79.11,50.84s-.04-.03-.05-.05c-.02-.02-.03-.03-.04-.05-.01-.01-.02-.03-.03-.04,0-.01-.01-.03-.02-.05-.01-.04-.01-.08,0-.12,0-.04.03-.07.05-.11.02-.03.05-.06.08-.08.03-.02.07-.04.1-.05.04-.01.07-.01.1,0,.03,0,.05.01.08.03.02.01.04.03.06.05s.05.05.08.08l.62.64s.04.04.06.07c.02.02.04.04.05.06.02.02.03.04.05.06h0s0-.05.01-.08c0-.02,0-.05.01-.08,0-.03.01-.06.02-.09l.2-.85c.01-.05.02-.09.03-.11,0-.02.02-.05.03-.07.01-.02.03-.05.06-.06.02-.02.05-.03.08-.04.04,0,.07-.01.11,0,.04,0,.07.01.11.03.03.02.06.04.09.06.03.03.04.06.05.09,0,.03.01.07,0,.1,0,.03-.02.07-.03.12l-.4,1.41.22.82c.02.08.01.14-.02.2-.03.05-.1.09-.19.12s-.17.02-.22,0c-.06-.03-.09-.08-.11-.16l-.22-.82-1.02-.99Z"/>
          </g>
          <g class="cls-5">
            <path class="cls-2" d="M76.1,69.64s-.05.01-.09.01c-.32.01-.83-.35-1.4-1-.6-.69-1.16-1.59-1.59-2.55-2.36.26-4.47-.29-4.62-.81,0-.03-.01-.07-.01-.11.01-.67,1.53-2.07,3.55-2.97-.27-2.36.29-4.48.81-4.62.02,0,.04,0,.05-.01.02,0,.04,0,.05,0,.09,0,.17.02.27.07.71.3,1.9,1.69,2.71,3.49,2.36-.26,4.47.29,4.62.81,0,.02.01.06.01.09.02.64-1.52,2.08-3.55,2.99.27,2.36-.29,4.48-.81,4.62ZM72.82,57.84c-.28.08-.91,1.97-.61,4.43,0,.06-.02.11-.08.13-2.24.98-3.48,2.35-3.49,2.77,0,.02,0,.03,0,.04.08.28,1.97.91,4.43.61.06,0,.11.02.13.08.42.97.99,1.88,1.59,2.57.56.64,1,.92,1.2.91l.06.12-.03-.13c.28-.08.91-1.97.61-4.42,0-.01,0-.03,0-.04,0-.05.03-.09.08-.11,2.19-.95,3.5-2.34,3.49-2.78l.12-.06-.13.03c-.08-.28-1.97-.91-4.43-.61-.06.01-.12-.02-.14-.08-.86-1.97-2.04-3.2-2.61-3.44-.08-.03-.13-.04-.17-.04-.02,0-.03,0-.04,0Z"/>
            <path class="cls-2" d="M74.85,65.21c-.87.23-1.77-.28-2.01-1.15-.12-.42-.06-.87.15-1.25.22-.38.57-.66.99-.78.43-.11.87-.06,1.25.15.38.22.66.57.78.99h0c.24.87-.27,1.78-1.15,2.03h-.01ZM74.07,62.28h-.01c-.36.1-.65.33-.84.66s-.23.7-.13,1.05c.2.73.96,1.17,1.69.97h.01c.74-.21,1.17-.97.97-1.71-.1-.36-.33-.65-.65-.84-.32-.18-.69-.23-1.04-.13Z"/>
            <rect class="cls-2" x="74.87" y="61.65" width="1.18" height=".26" transform="translate(-15.78 96.24) rotate(-60)"/>
            <rect class="cls-2" x="72.81" y="65.32" width="1.19" height=".26" transform="translate(-19.98 96.29) rotate(-60)"/>
            <rect class="cls-2" x="72.46" y="62" width=".26" height="1.18" transform="translate(-17.91 94.16) rotate(-60)"/>
            <rect class="cls-2" x="76.13" y="64.06" width=".26" height="1.18" transform="translate(-17.86 98.38) rotate(-60)"/>
          </g>
        </g>
        <g>
          <rect class="cls-2" x="17.1" y="64.07" width="44.74" height="22.37" transform="translate(-18.13 12.78) rotate(-15)"/>
          <rect class="cls-4" x="17.45" y="63.37" width="44.74" height="22.37" transform="translate(-17.94 12.85) rotate(-15)"/>
          <rect class="cls-2" x="17.82" y="62.63" width="44.74" height="22.37" transform="translate(-17.73 12.92) rotate(-15)"/>
          <rect class="cls-4" x="18.15" y="61.95" width="44.74" height="22.37" transform="translate(-17.55 12.98) rotate(-15)"/>
          <rect class="cls-2" x="18.52" y="61.25" width="44.74" height="22.37" transform="translate(-17.36 13.05) rotate(-15)"/>
          <rect class="cls-4" x="18.79" y="60.66" width="44.74" height="22.37" transform="translate(-17.19 13.1) rotate(-15)"/>
          <rect class="cls-2" x="19.16" y="59.92" width="44.74" height="22.37" transform="translate(-16.99 13.17) rotate(-15)"/>
          <rect class="cls-4" x="19.49" y="59.24" width="44.74" height="22.37" transform="translate(-16.8 13.23) rotate(-15)"/>
          <rect class="cls-2" x="19.86" y="58.55" width="44.74" height="22.37" transform="translate(-16.61 13.3) rotate(-15)"/>
          <rect class="cls-4" x="20.16" y="57.78" width="44.74" height="22.37" transform="translate(-16.4 13.36) rotate(-15)"/>
          <polygon class="cls-1" points="44.44 56.88 37.76 81.83 23.82 85.56 22.1 79.16 26.8 61.6 44.44 56.88"/>
          <polygon class="cls-2" points="61.24 52.38 63.85 62.11 60.18 75.82 46.05 79.61 52.73 54.66 61.24 52.38"/>
          <g>
            <path class="cls-3" d="M23.26,67.73c.06-.02.11-.01.15.02s.08.08.1.15.02.13,0,.18c-.02.05-.07.08-.13.09l-1.17.31c-.08.02-.15.02-.2-.02s-.09-.09-.11-.17l-.6-2.22c-.02-.08-.01-.14.02-.2.03-.05.1-.09.19-.12s.17-.02.22,0c.06.03.09.08.11.16l.54,2.03.87-.23Z"/>
            <path class="cls-3" d="M23.52,66.73c-.06-.22-.08-.43-.06-.63.02-.19.07-.37.15-.52.08-.15.2-.28.34-.39.15-.11.32-.19.52-.24s.37-.07.55-.05.33.07.47.16c.14.09.27.21.37.36.11.15.19.33.24.54.06.22.08.43.06.62-.02.19-.07.37-.15.52-.08.15-.2.28-.34.39-.15.11-.32.19-.52.24s-.37.07-.55.05-.33-.07-.47-.16c-.14-.09-.27-.2-.37-.36-.11-.15-.19-.33-.24-.54ZM24.07,66.53c.04.16.1.29.17.4.07.11.15.19.24.26s.18.1.29.12c.1.02.2.01.31-.02s.19-.07.27-.14c.08-.06.14-.15.19-.24.04-.1.07-.21.08-.34,0-.13-.01-.27-.05-.43s-.1-.29-.17-.4c-.07-.11-.15-.2-.24-.26-.09-.06-.18-.1-.29-.12s-.2-.01-.31.02-.19.07-.27.14c-.08.06-.14.15-.19.24-.05.1-.07.21-.08.34s.01.27.05.43Z"/>
            <path class="cls-3" d="M26.36,64.95c-.06.02-.11.01-.15-.02-.04-.03-.08-.08-.1-.15s-.02-.13,0-.18c.02-.04.07-.08.12-.09l1.78-.48c.06-.02.11-.01.15.02.04.03.08.08.1.15s.02.13,0,.18c-.02.05-.07.08-.12.09l-.62.17.54,2.03c.02.08.01.14-.02.2-.03.05-.1.09-.19.12s-.17.02-.22,0c-.06-.03-.09-.08-.11-.16l-.54-2.03-.62.17Z"/>
            <path class="cls-3" d="M28.78,64.3c-.06.02-.11.01-.15-.02-.04-.03-.08-.08-.1-.15s-.02-.13,0-.18c.02-.04.07-.08.12-.09l1.78-.48c.06-.02.11-.01.15.02.04.03.08.08.1.15s.02.13,0,.18c-.02.05-.07.08-.12.09l-.62.17.54,2.03c.02.08.01.14-.02.2-.03.05-.1.09-.19.12s-.17.02-.22,0c-.06-.03-.09-.08-.11-.16l-.54-2.03-.62.17Z"/>
            <path class="cls-3" d="M32.31,65.32l.92-.25c.06-.02.11,0,.15.02.04.03.07.08.09.15s.02.13,0,.17c-.02.04-.06.07-.12.09l-1.22.33c-.08.02-.15.02-.2-.02s-.09-.09-.11-.17l-.59-2.2c-.02-.08-.02-.15.02-.2s.09-.09.17-.11l1.21-.32c.06-.02.11,0,.15.02.04.03.07.07.09.15s.02.13,0,.17c-.02.04-.06.07-.12.09l-.91.24.18.69.78-.21c.05-.01.1,0,.15.02.04.03.07.07.09.14s.02.12,0,.17c-.02.04-.06.07-.12.09l-.78.21.2.74Z"/>
            <path class="cls-3" d="M34.64,64.91c.02.08.01.14-.02.2-.03.05-.09.09-.19.12s-.17.02-.22,0c-.05-.03-.09-.08-.11-.16l-.6-2.22c-.02-.08-.02-.15.02-.2s.09-.09.17-.11l.58-.15c.18-.05.35-.07.49-.07.14,0,.27.03.37.07s.19.11.26.19c.07.08.11.18.14.29.02.09.03.18.03.27,0,.09-.02.17-.05.24s-.07.14-.13.21c-.05.06-.12.12-.19.17l.71.64s.06.05.07.08c.02.02.03.05.04.07.01.04.01.08,0,.11,0,.04-.02.07-.05.1-.02.03-.05.06-.08.08-.03.02-.07.04-.11.05s-.07.01-.1,0-.06-.01-.09-.03c0,0-.02-.01-.03-.02,0,0-.02-.01-.03-.02s-.02-.02-.03-.02c0,0-.02-.02-.03-.03l-.79-.77-.27.07.23.85ZM34.58,63.56c.09-.02.16-.05.22-.09.06-.04.11-.08.14-.13.03-.05.05-.1.06-.15,0-.06,0-.11-.01-.17s-.04-.11-.07-.15-.07-.07-.13-.1c-.05-.02-.11-.03-.19-.03s-.16.01-.25.04l-.26.07.21.79.28-.07Z"/>
            <path class="cls-3" d="M35.9,62.42s-.04-.03-.05-.05c-.02-.02-.03-.03-.04-.05-.01-.01-.02-.03-.03-.04,0-.01-.01-.03-.02-.05-.01-.04-.01-.08,0-.12,0-.04.03-.07.05-.11.02-.03.05-.06.08-.08.03-.02.07-.04.1-.05.04-.01.07-.01.1,0,.03,0,.05.01.08.03.02.01.04.03.06.05s.05.05.08.08l.62.64s.04.04.06.07c.02.02.04.04.05.06.02.02.03.04.05.06h0s0-.05.01-.08c0-.02,0-.05.01-.08,0-.03.01-.06.02-.09l.2-.85c.01-.05.02-.09.03-.11,0-.02.02-.05.03-.07.01-.02.03-.05.06-.06.02-.02.05-.03.08-.04.04,0,.07-.01.11,0,.04,0,.07.01.11.03.03.02.06.04.09.06.03.03.04.06.05.09,0,.03.01.07,0,.1,0,.03-.02.07-.03.12l-.4,1.41.22.82c.02.08.01.14-.02.2-.03.05-.1.09-.19.12s-.17.02-.22,0c-.06-.03-.09-.08-.11-.16l-.22-.82-1.02-.99Z"/>
          </g>
          <g class="cls-5">
            <path class="cls-2" d="M32.89,81.22s-.05.01-.09.01c-.32.01-.83-.35-1.4-1-.6-.69-1.16-1.59-1.59-2.55-2.36.26-4.47-.29-4.62-.81,0-.03-.01-.07-.01-.11.01-.67,1.53-2.07,3.55-2.97-.27-2.36.29-4.48.81-4.62.02,0,.04,0,.05-.01.02,0,.04,0,.05,0,.09,0,.17.02.27.07.71.3,1.9,1.69,2.71,3.49,2.36-.26,4.47.29,4.62.81,0,.02.01.06.01.09.02.64-1.52,2.08-3.55,2.99.27,2.36-.29,4.48-.81,4.62ZM29.61,69.42c-.28.08-.91,1.97-.61,4.43,0,.06-.02.11-.08.13-2.24.98-3.48,2.35-3.49,2.77,0,.02,0,.03,0,.04.08.28,1.97.91,4.43.61.06,0,.11.02.13.08.42.97.99,1.88,1.59,2.57.56.64,1,.92,1.2.91l.06.12-.03-.13c.28-.08.91-1.97.61-4.42,0-.01,0-.03,0-.04,0-.05.03-.09.08-.11,2.19-.95,3.5-2.34,3.49-2.78l.12-.06-.13.03c-.08-.28-1.97-.91-4.43-.61-.06.01-.12-.02-.14-.08-.86-1.97-2.04-3.2-2.61-3.44-.08-.03-.13-.04-.17-.04-.02,0-.03,0-.04,0Z"/>
            <path class="cls-2" d="M31.64,76.79c-.87.23-1.77-.28-2.01-1.15-.12-.42-.06-.87.15-1.25.22-.38.57-.66.99-.78.43-.11.87-.06,1.25.15.38.22.66.57.78.99h0c.24.87-.27,1.78-1.15,2.03h-.01ZM30.85,73.86h-.01c-.36.1-.65.33-.84.66s-.23.7-.13,1.05c.2.73.96,1.17,1.69.97h.01c.74-.21,1.17-.97.97-1.71-.1-.36-.33-.65-.65-.84-.32-.18-.69-.23-1.04-.13Z"/>
            <rect class="cls-2" x="31.66" y="73.23" width="1.18" height=".26" transform="translate(-47.41 64.61) rotate(-60)"/>
            <rect class="cls-2" x="29.59" y="76.9" width="1.19" height=".26" transform="translate(-51.62 64.65) rotate(-60)"/>
            <rect class="cls-2" x="29.25" y="73.58" width=".26" height="1.18" transform="translate(-49.54 62.52) rotate(-60)"/>
            <rect class="cls-2" x="32.92" y="75.64" width=".26" height="1.18" transform="translate(-49.49 66.74) rotate(-60)"/>
          </g>
        </g>
        <g>
          <rect class="cls-2" x="40.7" y="42.18" width="44.74" height="22.37" transform="translate(-11.66 18.14) rotate(-15)"/>
          <rect class="cls-4" x="41.05" y="41.47" width="44.74" height="22.37" transform="translate(-11.47 18.21) rotate(-15)"/>
          <rect class="cls-2" x="41.43" y="40.73" width="44.74" height="22.37" transform="translate(-11.26 18.28) rotate(-15)"/>
          <rect class="cls-4" x="41.75" y="40.05" width="44.74" height="22.37" transform="translate(-11.08 18.34) rotate(-15)"/>
          <rect class="cls-2" x="42.12" y="39.36" width="44.74" height="22.37" transform="translate(-10.88 18.41) rotate(-15)"/>
          <rect class="cls-4" x="42.39" y="38.77" width="44.74" height="22.37" transform="translate(-10.72 18.46) rotate(-15)"/>
          <rect class="cls-2" x="42.76" y="38.02" width="44.74" height="22.37" transform="translate(-10.52 18.53) rotate(-15)"/>
          <rect class="cls-4" x="43.09" y="37.35" width="44.74" height="22.37" transform="translate(-10.33 18.6) rotate(-15)"/>
          <rect class="cls-2" x="43.46" y="36.65" width="44.74" height="22.37" transform="translate(-10.14 18.67) rotate(-15)"/>
          <rect class="cls-4" x="43.76" y="35.89" width="44.74" height="22.37" transform="translate(-9.93 18.72) rotate(-15)"/>
          <polygon class="cls-1" points="68.05 34.98 61.36 59.93 47.42 63.67 45.7 57.26 50.4 39.71 68.05 34.98"/>
          <polygon class="cls-2" points="84.85 30.48 87.45 40.21 83.78 53.92 69.65 57.71 76.34 32.76 84.85 30.48"/>
          <g>
            <path class="cls-3" d="M46.86,45.83c.06-.02.11-.01.15.02s.08.08.1.15.02.13,0,.18c-.02.05-.07.08-.13.09l-1.17.31c-.08.02-.15.02-.2-.02s-.09-.09-.11-.17l-.6-2.22c-.02-.08-.01-.14.02-.2.03-.05.1-.09.19-.12s.17-.02.22,0c.06.03.09.08.11.16l.54,2.03.87-.23Z"/>
            <path class="cls-3" d="M47.12,44.83c-.06-.22-.08-.43-.06-.63.02-.19.07-.37.15-.52.08-.15.2-.28.34-.39.15-.11.32-.19.52-.24s.37-.07.55-.05.33.07.47.16c.14.09.27.21.37.36.11.15.19.33.24.54.06.22.08.43.06.62-.02.19-.07.37-.15.52-.08.15-.2.28-.34.39-.15.11-.32.19-.52.24s-.37.07-.55.05-.33-.07-.47-.16c-.14-.09-.27-.2-.37-.36-.11-.15-.19-.33-.24-.54ZM47.67,44.64c.04.16.1.29.17.4.07.11.15.19.24.26s.18.1.29.12c.1.02.2.01.31-.02s.19-.07.27-.14c.08-.06.14-.15.19-.24.04-.1.07-.21.08-.34,0-.13-.01-.27-.05-.43s-.1-.29-.17-.4c-.07-.11-.15-.2-.24-.26-.09-.06-.18-.1-.29-.12s-.2-.01-.31.02-.19.07-.27.14c-.08.06-.14.15-.19.24-.05.1-.07.21-.08.34s.01.27.05.43Z"/>
            <path class="cls-3" d="M49.96,43.05c-.06.02-.11.01-.15-.02-.04-.03-.08-.08-.1-.15s-.02-.13,0-.18c.02-.04.07-.08.12-.09l1.78-.48c.06-.02.11-.01.15.02.04.03.08.08.1.15s.02.13,0,.18c-.02.05-.07.08-.12.09l-.62.17.54,2.03c.02.08.01.14-.02.2-.03.05-.1.09-.19.12s-.17.02-.22,0c-.06-.03-.09-.08-.11-.16l-.54-2.03-.62.17Z"/>
            <path class="cls-3" d="M52.39,42.4c-.06.02-.11.01-.15-.02-.04-.03-.08-.08-.1-.15s-.02-.13,0-.18c.02-.04.07-.08.12-.09l1.78-.48c.06-.02.11-.01.15.02.04.03.08.08.1.15s.02.13,0,.18c-.02.05-.07.08-.12.09l-.62.17.54,2.03c.02.08.01.14-.02.2-.03.05-.1.09-.19.12s-.17.02-.22,0c-.06-.03-.09-.08-.11-.16l-.54-2.03-.62.17Z"/>
            <path class="cls-3" d="M55.92,43.42l.92-.25c.06-.02.11,0,.15.02.04.03.07.08.09.15s.02.13,0,.17c-.02.04-.06.07-.12.09l-1.22.33c-.08.02-.15.02-.2-.02s-.09-.09-.11-.17l-.59-2.2c-.02-.08-.02-.15.02-.2s.09-.09.17-.11l1.21-.32c.06-.02.11,0,.15.02.04.03.07.07.09.15s.02.13,0,.17c-.02.04-.06.07-.12.09l-.91.24.18.69.78-.21c.05-.01.1,0,.15.02.04.03.07.07.09.14s.02.12,0,.17c-.02.04-.06.07-.12.09l-.78.21.2.74Z"/>
            <path class="cls-3" d="M58.25,43.01c.02.08.01.14-.02.2-.03.05-.09.09-.19.12s-.17.02-.22,0c-.05-.03-.09-.08-.11-.16l-.6-2.22c-.02-.08-.02-.15.02-.2s.09-.09.17-.11l.58-.15c.18-.05.35-.07.49-.07.14,0,.27.03.37.07s.19.11.26.19c.07.08.11.18.14.29.02.09.03.18.03.27,0,.09-.02.17-.05.24s-.07.14-.13.21c-.05.06-.12.12-.19.17l.71.64s.06.05.07.08c.02.02.03.05.04.07.01.04.01.08,0,.11,0,.04-.02.07-.05.1-.02.03-.05.06-.08.08-.03.02-.07.04-.11.05s-.07.01-.1,0-.06-.01-.09-.03c0,0-.02-.01-.03-.02,0,0-.02-.01-.03-.02s-.02-.02-.03-.02c0,0-.02-.02-.03-.03l-.79-.77-.27.07.23.85ZM58.18,41.67c.09-.02.16-.05.22-.09.06-.04.11-.08.14-.13.03-.05.05-.1.06-.15,0-.06,0-.11-.01-.17s-.04-.11-.07-.15-.07-.07-.13-.1c-.05-.02-.11-.03-.19-.03s-.16.01-.25.04l-.26.07.21.79.28-.07Z"/>
            <path class="cls-3" d="M59.5,40.53s-.04-.03-.05-.05c-.02-.02-.03-.03-.04-.05-.01-.01-.02-.03-.03-.04,0-.01-.01-.03-.02-.05-.01-.04-.01-.08,0-.12,0-.04.03-.07.05-.11.02-.03.05-.06.08-.08.03-.02.07-.04.1-.05.04-.01.07-.01.1,0,.03,0,.05.01.08.03.02.01.04.03.06.05s.05.05.08.08l.62.64s.04.04.06.07c.02.02.04.04.05.06.02.02.03.04.05.06h0s0-.05.01-.08c0-.02,0-.05.01-.08,0-.03.01-.06.02-.09l.2-.85c.01-.05.02-.09.03-.11,0-.02.02-.05.03-.07.01-.02.03-.05.06-.06.02-.02.05-.03.08-.04.04,0,.07-.01.11,0,.04,0,.07.01.11.03.03.02.06.04.09.06.03.03.04.06.05.09,0,.03.01.07,0,.1,0,.03-.02.07-.03.12l-.4,1.41.22.82c.02.08.01.14-.02.2-.03.05-.1.09-.19.12s-.17.02-.22,0c-.06-.03-.09-.08-.11-.16l-.22-.82-1.02-.99Z"/>
          </g>
          <g class="cls-5">
            <path class="cls-2" d="M56.49,59.33s-.05.01-.09.01c-.32.01-.83-.35-1.4-1-.6-.69-1.16-1.59-1.59-2.55-2.36.26-4.47-.29-4.62-.81,0-.03-.01-.07-.01-.11.01-.67,1.53-2.07,3.55-2.97-.27-2.36.29-4.48.81-4.62.02,0,.04,0,.05-.01.02,0,.04,0,.05,0,.09,0,.17.02.27.07.71.3,1.9,1.69,2.71,3.49,2.36-.26,4.47.29,4.62.81,0,.02.01.06.01.09.02.64-1.52,2.08-3.55,2.99.27,2.36-.29,4.48-.81,4.62ZM53.21,47.53c-.28.08-.91,1.97-.61,4.43,0,.06-.02.11-.08.13-2.24.98-3.48,2.35-3.49,2.77,0,.02,0,.03,0,.04.08.28,1.97.91,4.43.61.06,0,.11.02.13.08.42.97.99,1.88,1.59,2.57.56.64,1,.92,1.2.91l.06.12-.03-.13c.28-.08.91-1.97.61-4.42,0-.01,0-.03,0-.04,0-.05.03-.09.08-.11,2.19-.95,3.5-2.34,3.49-2.78l.12-.06-.13.03c-.08-.28-1.97-.91-4.43-.61-.06.01-.12-.02-.14-.08-.86-1.97-2.04-3.2-2.61-3.44-.08-.03-.13-.04-.17-.04-.02,0-.03,0-.04,0Z"/>
            <path class="cls-2" d="M55.24,54.89c-.87.23-1.77-.28-2.01-1.15-.12-.42-.06-.87.15-1.25.22-.38.57-.66.99-.78.43-.11.87-.06,1.25.15.38.22.66.57.78.99h0c.24.87-.27,1.78-1.15,2.03h-.01ZM54.46,51.96h-.01c-.36.1-.65.33-.84.66s-.23.7-.13,1.05c.2.73.96,1.17,1.69.97h.01c.74-.21,1.17-.97.97-1.71-.1-.36-.33-.65-.65-.84-.32-.18-.69-.23-1.04-.13Z"/>
            <rect class="cls-2" x="55.26" y="51.34" width="1.18" height=".26" transform="translate(-16.65 74.1) rotate(-60)"/>
            <rect class="cls-2" x="53.19" y="55" width="1.19" height=".26" transform="translate(-20.85 74.15) rotate(-60)"/>
            <rect class="cls-2" x="52.85" y="51.68" width=".26" height="1.18" transform="translate(-18.78 72.01) rotate(-60)"/>
            <rect class="cls-2" x="56.52" y="53.74" width=".26" height="1.18" transform="translate(-18.73 76.23) rotate(-60)"/>
          </g>
        </g>
      </g>
    </g>
  </g>
  <g>
    <path class="cls-3" d="M113.57,85.38v2.5c0,2.84-.35,5.4-1.03,7.61-.73,2.33-1.78,4.34-3.14,5.95-1.42,1.69-3.14,2.98-5.12,3.83-1.9.81-3.97,1.22-6.17,1.22s-4.17-.38-6-1.13c-1.94-.8-3.63-2.03-5.01-3.67-.45-.54-.86-1.15-1.24-1.78h-.25c-.63,1.15-1.45,2.17-2.44,3.06-1.29,1.15-2.87,2.04-4.69,2.65-1.71.57-3.65.85-5.77.85-1.03,0-2-.06-2.88-.19-.86-.12-1.66-.29-2.37-.5-.81-.24-1.5-.52-2.11-.85-.23-.13-.42-.26-.62-.39-.61.52-1.28.94-2.01,1.24-.83.34-1.69.51-2.55.51-.75,0-1.48-.13-2.17-.39-.61-.23-1.17-.56-1.68-.97-.23-.19-.45-.4-.65-.63-.15-.14-.32-.32-.51-.55-.15-.17-.31-.37-.51-.62l-1.27-1.54-.97,1.33c-.19.25-.34.45-.46.61l-.22.28c-.12.16-.22.28-.3.37-.11.13-.22.25-.33.36-.56.56-1.22,1-1.94,1.3-1.47.61-3.21.6-4.8-.05-.74-.3-1.43-.72-2.04-1.26-.62-.55-1.14-1.2-1.54-1.94-.49-.91-.74-1.9-.74-2.95,0-.03.01-.07.01-.1-.01-.05-.01-.1-.01-.15,0-.03.01-.07.01-.1-.01-.05-.01-.1-.01-.15,0-.03.01-.07.01-.1-.01-.05-.01-.1-.01-.15,0-.03.01-.07.01-.1-.01-.05-.01-.1-.01-.15,0-.03.01-.07.01-.1-.01-.05-.01-.1-.01-.15,0-.03.01-.07.01-.1-.01-.05-.01-.1-.01-.15,0-.03.01-.07.01-.1-.01-.05-.01-.1-.01-.15,0-.03.01-.07.01-.1-.01-.05-.01-.1-.01-.15,0-.03.01-.07.01-.1-.01-.05-.01-.1-.01-.15,0-.03.01-.07.01-.1-.01-.05-.01-.1-.01-.15,0-.68.11-1.35.34-1.97.18-.48.4-.92.68-1.34.22-.34.47-.66.73-.97.14-.16.28-.32.43-.49l1.56-1.79-1-1.15c-.21-.24-.41-.46-.58-.66-.26-.3-.49-.59-.68-.87-.31-.44-.57-.91-.76-1.4-.25-.65-.38-1.34-.38-2.05,0-.06.01-.11.01-.16,0-.03-.01-.06-.01-.09,0-.06.01-.11.01-.16,0-.03-.01-.06-.01-.09,0-.06.01-.11.01-.16,0-.03-.01-.06-.01-.09,0-.06.01-.11.01-.16,0-.03-.01-.06-.01-.09,0-.06.01-.11.01-.16,0-.03-.01-.06-.01-.09,0-.06.01-.11.01-.16,0-.03-.01-.06-.01-.09,0-.06.01-.11.01-.16,0-.03-.01-.06-.01-.09,0-.06.01-.11.01-.16,0-.03-.01-.06-.01-.09,0-.06.01-.11.01-.16,0-.03-.01-.06-.01-.09,0-.06.01-.11.01-.16,0-.03-.01-.06-.01-.09,0-1.09.25-2.13.76-3.07.42-.79.97-1.47,1.62-2.05.64-.57,1.36-1.02,2.14-1.34,1.55-.63,3.22-.67,4.65-.15.65.23,1.24.57,1.75,1.01.08.07.16.13.24.21.14.11.31.28.52.5.12.14.27.31.45.53l1.36,1.66,1.04-1.42c.11-.14.21-.28.3-.39.19-.25.36-.44.5-.58l.13.12s.05-.04.08-.07l-.13-.13c.59-.59,1.22-1.01,1.91-1.31.03-.02.07-.03.11-.05,1.09-.45,2.36-.55,3.6-.29h2.15l.07-1.23c.08-2.19,1.05-3.57,1.86-4.33.79-.75,2.19-1.64,4.42-1.64h10.55c1.67,0,3.2.64,4.3,1.8.7.75,1.52,2.06,1.6,4.11.3-.45.62-.87.95-1.27,1.42-1.69,3.14-2.98,5.11-3.83,1.9-.82,3.98-1.23,6.19-1.23s4.17.38,5.99,1.14c1.94.8,3.62,2.03,5,3.67,1.31,1.55,2.32,3.48,3.01,5.74.64,2.11.96,4.57.96,7.32Z"/>
    <g>
      <path class="cls-4" d="M109.57,85.5s0-.08,0-.12c0-2.37-.26-4.42-.79-6.16s-1.27-3.18-2.24-4.33c-.96-1.14-2.12-1.99-3.46-2.55-1.34-.55-2.83-.83-4.47-.83s-3.21.3-4.61.9c-1.4.6-2.61,1.51-3.63,2.73-1.02,1.22-1.82,2.74-2.39,4.57-.57,1.83-.85,3.96-.85,6.41,0,.04,0,.08,0,.13,0,.04,0,.08,0,.12s0,.08,0,.13c0,.04,0,.08,0,.12s0,.08,0,.13c0,.04,0,.08,0,.12s0,.08,0,.13c0,.04,0,.08,0,.12s0,.08,0,.13c0,.04,0,.08,0,.12s0,.08,0,.13c0,.04,0,.08,0,.12s0,.08,0,.13c0,.04,0,.08,0,.12s0,.08,0,.13c0,.04,0,.08,0,.12s0,.08,0,.13c0,.04,0,.08,0,.12s0,.08,0,.13c0,.04,0,.08,0,.12,0,2.37.26,4.42.79,6.16.53,1.74,1.27,3.18,2.24,4.33.96,1.14,2.12,1.99,3.47,2.55,1.35.56,2.84.83,4.48.83s3.19-.3,4.6-.9c1.41-.6,2.62-1.51,3.63-2.72s1.81-2.73,2.38-4.57c.57-1.83.85-3.97.85-6.42,0-.04,0-.08,0-.13,0-.04,0-.08,0-.12s0-.08,0-.13c0-.04,0-.08,0-.12s0-.08,0-.13c0-.04,0-.08,0-.12s0-.08,0-.13c0-.04,0-.08,0-.12s0-.08,0-.13c0-.04,0-.08,0-.12s0-.08,0-.13c0-.04,0-.08,0-.12s0-.08,0-.13c0-.04,0-.08,0-.12s0-.08,0-.13c0-.04,0-.08,0-.12s0-.08,0-.13c0-.04,0-.08,0-.12s0-.08,0-.13ZM102.39,93.55c-.52.79-1.13,1.36-1.82,1.71-.69.35-1.42.52-2.18.52s-1.49-.18-2.19-.53c-.7-.35-1.31-.93-1.84-1.73-.53-.8-.95-1.83-1.26-3.11-.24-.98-.39-2.13-.44-3.45.06-1.29.2-2.43.43-3.4.31-1.27.72-2.3,1.23-3.09.51-.79,1.12-1.36,1.81-1.71.69-.35,1.42-.52,2.18-.52s1.51.18,2.21.53c.7.35,1.31.93,1.84,1.73.53.8.95,1.83,1.26,3.11.24.98.39,2.13.44,3.44-.06,1.3-.2,2.43-.43,3.4-.31,1.27-.72,2.3-1.24,3.09Z"/>
      <path class="cls-4" d="M63.13,96.22c-.07-.19-.17-.38-.3-.56-.13-.19-.28-.38-.45-.56-.17-.19-.36-.39-.54-.62l-3.67-4.19,3.51-4c.16-.19.32-.36.47-.53.15-.17.28-.33.39-.5.11-.17.19-.34.26-.52s.1-.38.1-.59c0-.05-.01-.1-.02-.15,0-.04.02-.07.02-.1,0-.05-.01-.1-.02-.15,0-.04.02-.07.02-.1,0-.05-.01-.1-.02-.15,0-.04.02-.07.02-.1,0-.05-.01-.1-.02-.15,0-.04.02-.07.02-.1,0-.05-.01-.1-.02-.15,0-.04.02-.07.02-.1,0-.05-.01-.1-.02-.15,0-.04.02-.07.02-.1,0-.05-.01-.1-.02-.15,0-.04.02-.07.02-.1,0-.05-.01-.1-.02-.15,0-.04.02-.07.02-.1,0-.05-.01-.1-.02-.15,0-.04.02-.07.02-.1,0-.05-.01-.1-.02-.15,0-.04.02-.07.02-.1,0-.38-.09-.72-.26-1.04-.17-.32-.4-.6-.67-.84-.27-.24-.58-.43-.91-.56-.33-.13-.66-.2-.98-.2-.28,0-.54.05-.77.15-.23.1-.45.24-.63.43-.04.04-.08.08-.13.13-.05.05-.1.11-.17.2s-.15.19-.24.32c-.09.13-.21.29-.36.49l-3.72,5.05-4.21-5.11c-.17-.21-.32-.39-.43-.53-.11-.14-.21-.25-.29-.34s-.15-.15-.2-.2-.11-.09-.16-.13c-.16-.15-.35-.26-.57-.34s-.46-.12-.73-.12c-.33,0-.68.07-1.04.22-.36.15-.69.35-.99.62-.3.27-.55.58-.74.94-.19.36-.29.75-.29,1.18,0,.03.02.06.02.1,0,.05-.02.1-.02.15,0,.03.02.06.02.1,0,.05-.02.1-.02.15,0,.03.02.06.02.1,0,.05-.02.1-.02.15,0,.03.02.06.02.1,0,.05-.02.1-.02.15,0,.03.02.06.02.1,0,.05-.02.1-.02.15,0,.03.02.06.02.1,0,.05-.02.1-.02.15,0,.03.02.06.02.1,0,.05-.02.1-.02.15,0,.03.02.06.02.1,0,.05-.02.1-.02.15,0,.03.02.06.02.1,0,.05-.02.1-.02.15,0,.03.02.06.02.1,0,.05-.02.1-.02.15,0,.21.04.42.11.6.07.19.17.37.3.55s.27.37.44.56c.17.19.35.4.55.63l3.3,3.77-3.82,4.41c-.16.19-.31.37-.46.53-.15.17-.28.34-.39.51-.11.17-.2.35-.27.53-.07.18-.1.38-.1.59,0,.05.01.1.02.15,0,.04-.02.07-.02.1,0,.05.01.1.02.15,0,.04-.02.07-.02.1,0,.05.01.1.02.15,0,.04-.02.07-.02.1,0,.05.01.1.02.15,0,.04-.02.07-.02.1,0,.05.01.1.02.15,0,.04-.02.07-.02.1,0,.05.01.1.02.15,0,.04-.02.07-.02.1,0,.05.01.1.02.15,0,.04-.02.07-.02.1,0,.05.01.1.02.15,0,.04-.02.07-.02.1,0,.05.01.1.02.15,0,.04-.02.07-.02.1,0,.05.01.1.02.15,0,.04-.02.07-.02.1,0,.38.09.72.26,1.04s.4.6.67.84c.27.24.58.43.9.56.33.13.65.2.97.2.28,0,.54-.05.78-.15.24-.1.46-.24.64-.43.04-.04.08-.08.12-.13s.09-.11.16-.2c.07-.09.15-.19.25-.32.1-.13.22-.29.37-.49l4.02-5.5,4.57,5.57c.17.21.32.39.43.52.11.13.21.24.29.32.08.08.14.15.19.2s.1.1.15.14c.17.15.37.26.6.35.23.09.47.13.74.13.33,0,.68-.07,1.04-.22.36-.15.69-.35.99-.62.3-.27.55-.58.74-.94.19-.36.29-.76.29-1.19,0-.03-.02-.06-.02-.1,0-.05.02-.1.02-.15,0-.03-.02-.06-.02-.1,0-.05.02-.1.02-.15,0-.03-.02-.06-.02-.1,0-.05.02-.1.02-.15,0-.03-.02-.06-.02-.1,0-.05.02-.1.02-.15,0-.03-.02-.06-.02-.1,0-.05.02-.1.02-.15,0-.03-.02-.06-.02-.1,0-.05.02-.1.02-.15,0-.03-.02-.06-.02-.1,0-.05.02-.1.02-.15,0-.03-.02-.06-.02-.1,0-.05.02-.1.02-.15,0-.03-.02-.06-.02-.1,0-.05.02-.1.02-.15,0-.03-.02-.06-.02-.1,0-.05.02-.1.02-.15,0-.21-.04-.42-.11-.6Z"/>
      <path class="cls-4" d="M82.54,87.64c-.42-1.04-1.09-1.94-2.01-2.71s-2.1-1.39-3.54-1.86c-1.41-.46-3.11-.73-5.1-.81l.16-3.39h8.41c.58,0,1.04-.18,1.39-.55.35-.37.52-.93.52-1.68,0-.04,0-.08,0-.12,0-.04,0-.08,0-.13s0-.08,0-.12c0-.04,0-.08,0-.13s0-.08,0-.12c0-.04,0-.08,0-.13s0-.08,0-.12c0-.04,0-.08,0-.13s0-.08,0-.12c0-.04,0-.08,0-.13s0-.08,0-.12c0-.04,0-.08,0-.13s0-.08,0-.12c0-.04,0-.08,0-.13s0-.08,0-.12c0-.04,0-.08,0-.13s0-.08,0-.12c0-.04,0-.08,0-.13s0-.08,0-.12c0-.04,0-.08,0-.13,0-.74-.17-1.29-.52-1.66-.35-.37-.81-.55-1.39-.55h-10.55c-.74,0-1.3.18-1.68.54-.38.36-.59.9-.61,1.63l-.52,10.34c0,.06,0,.11,0,.17v.08c0,.06,0,.11,0,.17v.08c0,.06,0,.11,0,.17v.08c0,.06,0,.11,0,.17v.08c0,.06,0,.11,0,.17v.08c0,.06,0,.11,0,.17v.08c0,.06,0,.11,0,.17v.08c0,.06,0,.11,0,.17v.08c0,.06,0,.11,0,.17v.08c0,.06,0,.11,0,.17v.08c-.03.67.11,1.17.42,1.51.31.33.8.5,1.49.5,1.54,0,2.85.13,3.93.38s1.97.61,2.66,1.05c.69.45,1.19.98,1.5,1.6.13.25.22.52.3.79-.05.18-.08.37-.15.54-.21.54-.53,1.01-.95,1.4s-.94.69-1.56.9-1.32.32-2.11.32-1.47-.06-2-.18c-.53-.12-.98-.25-1.37-.39-.38-.14-.71-.27-.98-.39s-.56-.18-.85-.18c-.51,0-.92.16-1.24.48-.32.32-.48.76-.48,1.33,0,.04,0,.08.01.12,0,.05-.01.09-.01.13,0,.04,0,.08.01.12,0,.05-.01.09-.01.13,0,.04,0,.08.01.12,0,.05-.01.09-.01.13,0,.04,0,.08.01.12,0,.05-.01.09-.01.13,0,.04,0,.08.01.12,0,.05-.01.09-.01.13,0,.04,0,.08.01.12,0,.05-.01.09-.01.13,0,.04,0,.08.01.12,0,.05-.01.09-.01.13,0,.04,0,.08.01.12,0,.05-.01.09-.01.13,0,.04,0,.08.01.12,0,.05-.01.09-.01.13,0,.04,0,.08.01.12,0,.05-.01.09-.01.13,0,.39.06.72.19.99.13.27.31.53.55.77.19.19.46.38.81.57.35.19.79.37,1.32.52.52.15,1.13.28,1.82.38.69.1,1.46.15,2.3.15,1.7,0,3.21-.22,4.51-.65,1.31-.44,2.4-1.05,3.29-1.84.88-.79,1.55-1.73,2-2.83s.67-2.31.67-3.63c0-.04,0-.08,0-.12,0-.04,0-.08,0-.13s0-.08,0-.12c0-.04,0-.08,0-.13s0-.08,0-.12c0-.04,0-.08,0-.13s0-.08,0-.12c0-.04,0-.08,0-.13s0-.08,0-.12c0-.04,0-.08,0-.13s0-.08,0-.12c0-.04,0-.08,0-.13s0-.08,0-.12c0-.04,0-.08,0-.13s0-.08,0-.12c0-.04,0-.08,0-.13s0-.08,0-.12c0-.04,0-.08,0-.13s0-.08,0-.12c0-.04,0-.08,0-.13,0-1.22-.21-2.35-.63-3.38Z"/>
    </g>
    <g>
      <path class="cls-1" d="M45.78,84.29c-.2-.23-.38-.44-.55-.63-.17-.19-.31-.38-.44-.56s-.23-.36-.3-.55c-.07-.19-.11-.39-.11-.6,0-.43.1-.82.29-1.18.19-.36.44-.67.74-.94.3-.27.63-.47.99-.62.36-.15.71-.22,1.04-.22.27,0,.51.04.73.12s.41.19.57.34c.05.04.11.08.16.13s.12.11.2.2.18.2.29.34c.11.14.26.32.43.53l4.21,5.11,3.72-5.05c.15-.2.27-.36.36-.49.09-.13.17-.23.24-.32s.12-.15.17-.2c.05-.05.09-.09.13-.13.19-.19.4-.33.63-.43.23-.1.49-.15.77-.15.32,0,.65.07.98.2.33.13.64.32.91.56.27.24.5.52.67.84.17.32.26.67.26,1.04,0,.21-.03.41-.1.59s-.15.35-.26.52c-.11.17-.24.33-.39.5-.15.17-.31.34-.47.53l-4.6,5.25,4.76,5.44c.19.23.37.43.54.62.17.19.32.38.45.56.13.19.23.38.3.56.07.19.11.39.11.6,0,.43-.1.82-.29,1.19-.19.36-.44.68-.74.94-.3.27-.63.48-.99.62-.36.15-.71.22-1.04.22-.27,0-.52-.04-.74-.13-.23-.09-.43-.2-.6-.35-.05-.04-.1-.09-.15-.14s-.11-.12-.19-.2c-.08-.08-.18-.19-.29-.32-.11-.13-.26-.31-.43-.52l-4.57-5.57-4.02,5.5c-.15.2-.27.37-.37.49-.1.13-.18.23-.25.32-.07.09-.12.15-.16.2s-.08.09-.12.13c-.19.19-.4.33-.64.43-.24.1-.5.15-.78.15-.32,0-.65-.07-.97-.2-.33-.13-.63-.32-.9-.56-.27-.24-.5-.52-.67-.84s-.26-.67-.26-1.04c0-.21.03-.41.1-.59.07-.18.16-.36.27-.53.11-.17.24-.34.39-.51.15-.17.3-.34.46-.53l4.91-5.67-4.39-5.01Z"/>
      <path class="cls-1" d="M71.78,82.25c2.04.08,3.78.35,5.22.82,1.44.47,2.62,1.09,3.54,1.86s1.59,1.67,2.01,2.71c.42,1.04.63,2.17.63,3.38,0,1.32-.22,2.54-.67,3.63s-1.12,2.04-2,2.83c-.88.79-1.98,1.4-3.29,1.84-1.31.43-2.81.65-4.51.65-.84,0-1.61-.05-2.3-.15-.69-.1-1.3-.23-1.82-.38-.52-.15-.96-.33-1.32-.52-.36-.19-.63-.38-.81-.57-.24-.24-.42-.5-.55-.77-.13-.27-.19-.6-.19-.99,0-.56.16-1,.48-1.33.32-.32.74-.48,1.24-.48.29,0,.58.06.85.18s.6.25.98.39c.38.14.84.27,1.37.39.53.12,1.19.18,2,.18s1.49-.11,2.11-.32,1.13-.52,1.56-.9.74-.85.95-1.4.32-1.15.32-1.82c0-.72-.16-1.39-.47-2.01s-.82-1.15-1.5-1.6c-.69-.45-1.58-.8-2.66-1.05s-2.4-.38-3.93-.38c-.68,0-1.18-.17-1.49-.5-.31-.33-.45-.84-.42-1.51l.52-10.34c.03-.72.23-1.26.61-1.63.38-.36.94-.54,1.68-.54h10.55c.58,0,1.04.18,1.39.55.35.37.52.92.52,1.66s-.17,1.31-.52,1.68c-.35.37-.81.55-1.39.55h-8.41l-.28,5.88Z"/>
      <path class="cls-1" d="M87.13,86.12c0-2.45.28-4.59.85-6.41.57-1.83,1.36-3.35,2.39-4.57,1.02-1.22,2.23-2.13,3.63-2.73,1.4-.6,2.93-.9,4.61-.9s3.12.28,4.47.83c1.34.56,2.5,1.41,3.46,2.55.96,1.14,1.71,2.59,2.24,4.33s.79,3.79.79,6.16-.28,4.59-.85,6.42c-.57,1.83-1.36,3.36-2.38,4.57s-2.23,2.12-3.63,2.72c-1.41.6-2.94.9-4.6.9s-3.12-.28-4.48-.83c-1.35-.55-2.51-1.41-3.47-2.55-.96-1.14-1.71-2.59-2.24-4.33-.53-1.74-.79-3.79-.79-6.16ZM92.63,85.72c0,1.85.16,3.41.47,4.69.31,1.28.74,2.31,1.26,3.11.53.8,1.14,1.37,1.84,1.73.7.35,1.43.53,2.19.53s1.49-.17,2.18-.52c.69-.35,1.29-.92,1.82-1.71.52-.79.94-1.82,1.24-3.09.31-1.27.46-2.82.46-4.66s-.16-3.41-.47-4.69c-.31-1.28-.74-2.31-1.26-3.11-.53-.8-1.14-1.37-1.84-1.73-.7-.35-1.43-.53-2.21-.53s-1.49.17-2.18.52c-.69.35-1.29.92-1.81,1.71-.52.79-.93,1.82-1.23,3.09-.31,1.27-.46,2.82-.46,4.66Z"/>
    </g>
  </g>
</svg>