<?xml version="1.0" encoding="UTF-8"?>
<svg id="Icon" xmlns="http://www.w3.org/2000/svg" viewBox="0 0 120 120">
  <defs>
    <style>
      .cls-1 {
        fill: #12993f;
      }

      .cls-2 {
        fill: #dd2a39;
      }

      .cls-3 {
        fill: #1cb829;
      }

      .cls-4 {
        fill: #fff;
      }

      .cls-5 {
        fill: #dfedf2;
      }

      .cls-6 {
        fill: #d87625;
      }

      .cls-7 {
        fill: #aa5217;
      }

      .cls-8 {
        fill: #f43f3f;
      }

      .cls-9 {
        fill: #a0ff78;
      }

      .cls-10 {
        fill: #788696;
      }

      .cls-11 {
        fill: #333;
      }

      .cls-12 {
        fill: #ff7d63;
      }

      .cls-13 {
        fill: #54f445;
      }

      .cls-14 {
        fill: #a8b6c1;
      }

      .cls-15 {
        fill: #05542a;
      }

      .cls-16 {
        fill: #7a1839;
      }
    </style>
  </defs>
  <g>
    <path class="cls-15" d="M117.77,33.23c-.51,1.53-1.42,2.67-2.09,3.51l-.15.18c-.33.41-.47.63-.53.75.02.14.12.55.19.85.23.93.54,2.2.39,3.66-.3,2.88-2.13,4.87-3.7,6.28l-.31.29c-.57.51-1.36,1.21-1.49,1.57-.05.15-.12.52-.17.82-.2,1.12-.49,2.81-1.77,4.29-1.73,2.03-4.06,2.37-5.6,2.59-.44.06-.94.14-1.16.22-.39.14-1.06.86-1.65,1.49-.36.39-.71.77-1.09,1.13-3.28,3.21-8.08,4.91-12.91,4.91-1.23,0-2.46-.12-3.67-.34-1.29.29-2.59.61-3.89.93-2.91.73-5.91,1.47-8.98,1.9-.11.02-.21.02-.32.04-1.83,1.5-3.86,2.57-5.98,3.09-.32.08-.64.12-.96.12-1.8,0-3.43-1.22-3.88-3.05-.21-.86-.12-1.73.2-2.5-.32-.22-.63-.46-.92-.71-1.82.17-3.58-.92-4.17-2.73-.37-1.11-.21-2.26.33-3.21-.39-1.08-.68-2.15-.93-3.17-.54-2.11-1.08-4.57-1.05-7.18-1.88-1.34-3.4-3.07-4.37-5.09-1.38-2.88-1.53-6.07-.39-8.74.98-2.3,2.72-3.82,4.11-5.05.89-.78,1.8-1.58,2.03-2.2.19-.49.15-1.47.12-2.41-.06-1.72-.13-3.87.86-6.04,1.11-2.42,3.31-4.29,6.53-5.55.9-.36,1.78-.66,2.64-.94.94-.32,1.83-.62,2.65-.96.41-.17,1.3-1.21,1.83-1.83.39-.45.77-.88,1.14-1.27,1.1-1.15,2.76-2.88,5.2-3.61,3.64-1.09,7.48.76,8.56,4.12.43,1.35.31,2.55.22,3.35v.03c.33-.35.67-.76,1.03-1.2,1.25-1.53,2.8-3.44,5.41-4.33,2.34-.81,4.52-.44,6.27-.14.83.14,1.61.28,2.15.23.34-.02.81-.14,1.31-.26,1.05-.26,2.36-.57,3.88-.47,2.97.2,5.33,1.64,6.65,4.07,1.96,3.58,1.09,8.35-.64,11.48-.22.4-.45.79-.68,1.19.83.04,1.65.11,2.47.24,3.16.48,5.49,1.81,6.74,3.85,1.03,1.69,1.22,3.75.54,5.8Z"/>
    <g>
      <path class="cls-3" d="M78.49,25.82c.56-.84.75-1.6,1.11-2.5.39-.99,1.03-1.83,1.32-2.87.35-1.22.34-2.59-.3-3.68-.58-.99-1.65-1.71-1.94-2.83-.28-1.08.26-2.27-.08-3.34-.44-1.38-2.22-1.92-3.61-1.51s-2.45,1.5-3.45,2.54c-1.27,1.32-2.59,3.3-4.31,4.02s-3.61,1.23-5.37,1.93c-1.78.7-3.56,1.77-4.36,3.5-1.15,2.51.1,5.59-.87,8.18-1.14,3.05-4.93,4.42-6.21,7.42-.74,1.72-.49,3.75.32,5.44,1.48,3.07,4.72,5.08,8.09,5.57s6.84-.41,9.87-1.97c1.74-.9,3.44-2.1,4.29-3.87,1.23-2.55.41-5.61,1.03-8.37.65-2.91,2.8-5.2,4.46-7.68Z"/>
      <path class="cls-3" d="M78.83,60.18c5.27,2.69,12.72,2.02,17.02-2.18,1.31-1.28,2.43-2.88,4.14-3.51,1.71-.63,3.92-.27,5.11-1.65.89-1.04.75-2.59,1.22-3.88.52-1.42,1.75-2.44,2.88-3.45s2.24-2.23,2.4-3.73c.17-1.6-.82-3.19-.56-4.78.16-.97.75-1.8,1.36-2.56s1.26-1.53,1.57-2.46c.97-2.92-1.76-4.08-4.09-4.44-2.36-.36-4.78-.31-7.13.12s-4.54,1.6-6.86,2.38c-4.95,1.66-9.33,4.65-13.39,7.91-3.28,2.63-6.46,5.57-8.28,9.36s-2.03,8.6.44,12"/>
      <path class="cls-13" d="M59.4,61.71c2.34,2.49,5.99,3.05,9.23,2.59,4.21-.59,8.43-1.85,12.58-2.78,1.41-.32,2.94-.7,3.86-1.81.65-.78.91-1.8,1.47-2.64.97-1.43,2.68-2.13,4.25-2.85,2.2-1.02,4.55-2.93,4.95-5.47.2-1.24-.04-2.55.36-3.74.99-2.95,5.1-3.54,6.82-6.12,1.21-1.81,1-4.21.5-6.33s-1.24-4.27-.93-6.42c.31-2.16,1.63-4.01,2.69-5.92,1.75-3.17,2.33-9.28-2.78-9.62-1.55-.1-3.05.61-4.6.73-2.5.2-5.07-1.12-7.44-.3-2.71.93-3.87,4.2-6.29,5.74-3.3,2.09-9.55-.91-11.13,3.73-.94,2.76.73,6.1-1.51,8.48-1.64,1.75-4.81,1.45-6.23,3.38-1.05,1.43-.67,3.48-1.37,5.11-1.04,2.41-4.01,3.22-5.89,5.04-1.6,1.55-2.35,3.83-2.45,6.06s.38,4.44.92,6.61c.59,2.35,1.31,4.78,2.97,6.54Z"/>
      <path class="cls-9" d="M56.96,61.27c7.03-2.31,12.96-7.79,15.83-14.61.96-2.28,1.63-4.77,3.3-6.6,2.78-3.06,7.74-3.64,10.08-7.05,1.16-1.69,1.47-3.81,2.17-5.74s2.1-3.89,4.14-4.12c-2.23,1.26-3.25,3.91-3.79,6.41s-.79,5.15-2.14,7.33c-1.69,2.74-4.8,4.22-7.13,6.45-2.48,2.36-4.03,5.51-5.35,8.66s-2.46,6.42-4.3,9.3-4.52,5.41-7.84,6.22"/>
      <path class="cls-9" d="M72.52,49.61l.19-7.55c.04-1.65.09-3.33.6-4.9.55-1.7,1.61-3.19,2.39-4.8s1.28-3.51.62-5.18c.64,1.85.35,3.9-.19,5.79s-1.33,3.7-1.7,5.63-.28,4.05.82,5.67"/>
      <path class="cls-9" d="M69.59,59.47c.12-2.6,1.93-5.03,4.38-5.9,1.82-.65,3.8-.47,5.73-.42s3.98-.1,5.53-1.24c1.15-.85,1.87-2.15,2.76-3.27s2.13-2.16,3.56-2.11c-1.24-.41-2.63.03-3.71.77s-1.94,1.76-2.88,2.67-2.03,1.75-3.32,2c-1.2.23-2.43-.09-3.6-.43s-2.37-.72-3.58-.61-2.47.83-2.79,2"/>
      <path class="cls-9" d="M83.56,38.46c2.34.56,4.89.19,6.99-1,1.35-.77,2.49-1.85,3.75-2.75s2.72-1.66,4.27-1.63c-2.03.1-3.75,1.5-5.15,2.98s-2.72,3.13-4.56,3.99c-2.59,1.22-5.64.62-8.44,0"/>
      <path class="cls-9" d="M64.51,57.47c1.16-1.34,1.16-3.35.69-5.05s-1.33-3.3-1.72-5.03-.17-3.77,1.18-4.92c-1.15,1.47-1.09,3.58-.49,5.34s1.68,3.33,2.45,5.02,1.25,3.67.58,5.41"/>
    </g>
  </g>
  <g>
    <path class="cls-16" d="M56.04,31.25c4.37,3.06,7.48,8.34,8.13,13.87.58,5.01-.64,9.17-1.83,13.2-.22.74-.45,1.5-.66,2.27h0c-1.37,4.88-3.78,9.53-6.99,13.45-2.94,3.61-9.07,11.14-16.99,8.43-.42-.14-.85-.31-1.28-.49-.28-.12-.68-.28-.91-.35-.12.06-.39.2-.59.31-.42.22-.94.5-1.54.73-1.4.54-2.86.81-4.34.81-5.34,0-11.09-3.44-16.62-10.03-.65-.76-1.28-1.56-1.93-2.44C3.16,61.12.86,50.32,4.19,41.37c2.59-6.98,8.74-12.03,15.31-12.58,1.74-.14,3.66,0,5.9.42.21.04.44.1.67.16-.19-.2-.39-.39-.6-.56l-.17-.14c-.89-.73-2.25-1.83-2.87-3.75-.05-.12-.07-.27-.1-.41-.04-.11-.06-.22-.08-.33-.01-.05-.03-.11-.04-.17-.01-.06-.02-.12-.03-.18h0c-.01-.09-.01-.16-.02-.23,0-.18-.03-.37-.03-.55,0-.04.01-.09.01-.13.03-1.75.78-3.5,2.12-4.84,1.28-1.27,2.76-1.92,3.84-2.4.98-.43,2.18-.96,3.65-1.12,2.17-.26,4.26.43,5.71,1.89.15.15.31.34.46.53.05.05.1.12.14.18.04.05.07.11.1.16.05.07.09.14.13.21.06.09.12.18.17.28,1.26-1.15,2.61-2.18,4.05-3.03,3.57-2.13,7.42-3.23,11.38-4.26.78-.21,1.64-.4,2.51-.6,2.19-.49,4.46-1.01,5.89-1.88.04-.02.08-.04.12-.07,1.32-.87,3-.86,4.33,0,1.34.86,2,2.44,1.76,4.01-.71,4.47-2.75,9.37-5.46,13.1-1.94,2.67-4.36,4.76-7,6.17Z"/>
    <g>
      <path class="cls-3" d="M64.54,11.35c-.62,3.92-2.42,8.18-4.75,11.38-2.45,3.36-6.11,6.02-10.24,6.48-1.23.13-2.45.08-3.68-.02-1.37-.1-2.75-.26-4.13-.24-1.34.02-2.71.23-3.96.77-1.21.51-1.85,1.47-2.84,2.17-.12-.17-.2-.38-.23-.6-.31-1.97,2.38-5.57,3.23-6.83,1.72-2.52,3.96-4.69,6.59-6.25,3.18-1.9,6.79-2.9,10.35-3.83,2.99-.79,6.82-1.31,9.47-2.93.06-.03.12-.07.17-.1Z"/>
      <path class="cls-1" d="M64.54,11.35c-.62,3.92-2.42,8.18-4.75,11.38-2.45,3.36-6.11,6.02-10.24,6.48-1.23.13-2.45.08-3.68-.02-1.37-.1-2.75-.26-4.13-.24-1.34.02-2.71.23-3.96.77-1.21.51-1.85,1.47-2.84,2.17-.12-.17-.2-.38-.23-.6.6-1.47,1.61-2.8,2.83-3.83,2.08-1.73,4.68-2.71,7.29-3.45,2.6-.73,5.28-1.24,7.8-2.23,4.96-1.92,9.19-5.66,11.73-10.33.06-.03.12-.07.17-.1Z"/>
      <path class="cls-8" d="M57.82,59.52c-1.22,4.35-3.35,8.46-6.23,11.99-2.98,3.66-7.53,8.92-12.61,7.18-1.3-.44-2.56-1.24-3.94-1.06-1.12.15-2.07.9-3.12,1.31-6.06,2.33-12.49-3.35-16.45-8.07-.67-.79-1.26-1.55-1.78-2.25-5.32-7.17-9.1-16.91-5.77-25.87,1.9-5.11,6.5-9.53,11.89-9.98,1.58-.13,3.28.07,4.82.36.39.07.76.18,1.12.32,1.03.38,2.02.92,3.07,1.23,3.32.97,6.95,1,10.34.02,1.8-.52,3.53-1.31,5.33-1.82,8.14-2.3,14.8,5.27,15.68,12.71.59,5.04-1.06,9.2-2.37,13.93Z"/>
      <path class="cls-2" d="M57.82,59.52c-1.22,4.35-3.35,8.46-6.23,11.99-2.98,3.66-7.53,8.92-12.61,7.18-1.3-.44-2.56-1.24-3.94-1.06-1.12.15-2.07.9-3.12,1.31-6.06,2.33-12.49-3.35-16.45-8.07,7.22,3.65,16.66,2.98,23.26-1.68,5.73-4.04,9.33-10.95,9.35-17.97.02-5.09-3.45-11.66-9.24-11.85-2.14-.08-4.22.8-6.35.71-3.45-.15-6.39-3.26-6.72-6.63,1.03.38,2.02.92,3.07,1.23,3.32.97,6.95,1,10.34.02,1.8-.52,3.53-1.31,5.33-1.82,8.14-2.3,14.8,5.27,15.68,12.71.59,5.04-1.06,9.2-2.37,13.93Z"/>
      <path class="cls-7" d="M35.37,22.61c-.15,3.07-.03,6.15-.11,9.22-.04,1.54-.13,3.08-.34,4.6-.17,1.22-.19,3.28-2,2.48-.52-.22-.92-.75-1-1.31-.08-.51.09-1.03.21-1.54.47-1.94.43-4-.47-5.78-.88-1.74-2.11-3.3-3.61-4.56-.71-.58-1.52-1.17-1.8-2.04-.03-.1-.06-.21-.08-.32h0c-.14-.9.29-1.83.94-2.47.73-.72,1.69-1.15,2.63-1.56.8-.35,1.61-.71,2.47-.81.87-.1,1.81.1,2.42.72.08.08.15.16.21.25.61.84.6,2.03.55,3.11Z"/>
      <path class="cls-6" d="M34.82,19.5c-.03.08-.07.15-.1.22-.79,1.56-2.16,2.82-3.79,3.47-1.51.59-3.23.66-4.77.18h0c-.14-.9.29-1.83.94-2.47.73-.72,1.69-1.15,2.63-1.56.8-.35,1.61-.71,2.47-.81.87-.1,1.81.1,2.42.72.08.08.15.16.21.25Z"/>
      <path class="cls-12" d="M15.26,39.07c-1.34.88-2.48,2.15-2.93,3.69s-.14,3.35,1.02,4.46c1.47,1.41,3.86,1.37,5.71.54,2.45-1.1,4.29-3.48,4.74-6.13.36-2.13-.53-4.52-2.98-4.72-1.7-.14-4.2,1.27-5.56,2.17Z"/>
      <path class="cls-12" d="M12.49,51.08c-1.05.38-2.24.92-2.52,2-.25.96.45,2.03,1.42,2.25s2.03-.41,2.37-1.34,0-2.05-.78-2.67"/>
    </g>
  </g>
  <g>
    <path class="cls-11" d="M114.34,76.97s0,.01-.01.01c-2.36,3.75-5.35,7.06-8.9,9.84-2.75,2.15-5.52,3.36-8.2,4.53-1.03.46-2.02.89-3.01,1.37-5.77,2.84-11.92,4.95-18.28,6.29-3.29.7-6.6,1.15-9.92,1.42l-5.9,3.38c-1.15.66-3.04,1.74-5.34,1.74-.18,0-.37-.01-.55-.02-3.52-.27-5.79-3-6.54-3.9l-.22-.27c-.61-.74-1.13-1.38-1.69-1.87-.04-.03-.07-.06-.1-.09-1.58-.3-3.14-.65-4.69-1.05-1.1,1.87-2.29,3.62-3.46,5.33-.57.84-1.15,1.68-1.71,2.53l-4.88,7.44c-.5.77-1.55,2.35-3.56,3.02-.56.19-1.15.28-1.72.28-2.37,0-4.68-1.51-5.7-3.93-.73-1.74-.64-3.36-.58-4.54.02-.4.04-.77.02-1-.09-.98-.12-1.89-.15-2.77-.01-.34-.02-.68-.03-1.03-.09-1.91-.77-3.74-1.94-5.17-1.14-1.38-2.85-2.57-4.51-3.72l-6.62-4.61c-.66-.46-1.76-1.22-2.53-2.53-1.25-2.12-1.01-4.81.59-6.52.63-.67,1.43-1.16,2.32-1.43,1.32-.4,2.55-.24,3.47-.06,7.88,1.53,15.57,1.64,24.03,1.58.61-.8,1.24-1.59,1.87-2.36-.5-1.5-.86-3.56.25-5.48,1.14-1.99,3.31-2.65,4.61-3.05.16-.04.31-.09.42-.13,1.58-.6,3.16-1.15,4.73-1.69.62-.55,1.24-1.08,1.88-1.6-.02-.17-.03-.33-.04-.47-.1-1.24-.2-2.47-.28-3.7l-.02-.24c-.09-1.12-.23-3,1.29-4.93,1.44-1.84,3.42-2.69,4.98-3.23,3.05-1.05,6.21-1.45,8.63-1.68,3.72-.36,7.5-.11,11.1.72,6.76-1.77,13.58-2.26,20.33-1.41,4.26.55,8.38,1.55,13.39,3.26.36.13.71.24,1.06.36,2.14.7,4.56,1.49,6.49,3.42,1.39,1.39,2.31,3.17,2.73,5.29.77,3.86-.27,8.13-3.11,12.67Z"/>
    <g>
      <path class="cls-14" d="M47.76,95.65c-.11.16.15.4.64.83.9.78,1.62,1.68,2.37,2.6.98,1.19,2.22,2.35,3.75,2.47,1.29.1,2.49-.56,3.61-1.2l5.81-3.32c.94-.54,1.88-1.08,2.83-1.62.6-.34,1.52-.6,1.96-1.14-3.46-.69-7.31-.46-10.81-.21-1.78.13-3.56.33-5.33.57-1.37.19-2.71.6-4.08.8-.44.06-.67.13-.75.23Z"/>
      <path class="cls-5" d="M110.95,74.85c-2.12,3.37-4.85,6.37-7.98,8.81-3.33,2.6-6.84,3.67-10.51,5.47-5.5,2.7-11.35,4.7-17.34,5.97-11.87,2.51-24.38,2.13-36-1.43-1.15-.35-2.38-.81-3.29-1.55-.61-.47-1.08-1.05-1.31-1.79-.61-1.88.57-3.83,1.73-5.41,8.66-11.74,20.7-21.86,34.48-26.56,7.13-2.43,14.72-3.41,22.56-2.42,4.43.57,8.4,1.65,12.59,3.08,2.27.78,4.52,1.31,6.02,2.82.77.77,1.35,1.8,1.63,3.24.68,3.38-.75,6.85-2.58,9.78Z"/>
      <path class="cls-14" d="M111.89,61.84c-1.38,1.4-3.09,2.35-4.73,3.4-1.37.88-1.77,1.94-2.86,3.01-2.27,2.21-6.33,2.18-9.25,2.01-3.68-.21-7.7-.6-10.72,1.52-1.74,1.22-2.93,3.16-4.81,4.16-2.66,1.43-6.05.65-8.8,1.9-1.66.76-2.91,2.18-4.42,3.2-2.9,1.97-6.54,2.35-9.96,3.11-2.74.61-5.74,1.62-7.64,3.8-.9,1.04-1.01,1.84-2.33,2.41-1.18.52-2.52.71-3.78.93-1.11.2-5.91,1.49-6.78.82-.61-.47-1.08-1.05-1.31-1.79-.61-1.88.57-3.83,1.73-5.41,8.66-11.74,20.7-21.86,34.48-26.56,7.13-2.43,14.72-3.41,22.56-2.42,4.43.57,8.4,1.65,12.59,3.08,2.27.78,4.52,1.31,6.02,2.82Z"/>
      <path class="cls-14" d="M7.68,83.53c-.21.06-.4.17-.55.33-.43.46-.38,1.22-.06,1.76s.85.92,1.37,1.28c2.21,1.54,4.41,3.07,6.62,4.61,1.91,1.33,3.84,2.68,5.31,4.47,1.73,2.11,2.73,4.81,2.85,7.53.05,1.23.06,2.39.17,3.6.13,1.45-.32,2.96.26,4.36.4.96,1.48,1.73,2.48,1.41.66-.22,1.09-.84,1.47-1.42,1.63-2.48,3.25-4.96,4.88-7.44,2.01-3.06,4.22-5.99,5.92-9.24.24-.45.47-.98.26-1.45-.19-.44-.7-.63-1.11-.88-1.38-.84-1.68-2.49-1.32-3.98.13-.52.34-1.02.4-1.55s-.08-1.13-.51-1.44c-.36-.26-.83-.26-1.27-.26-8.73.07-16.99.02-25.61-1.66-.5-.1-1.08-.18-1.55-.03Z"/>
      <path class="cls-14" d="M75.73,58.2c-4.15-1.46-8.62-1.97-13-1.56-2.59.25-5.24.63-7.7,1.48-1.17.4-2.35.92-3.14,1.91-.62.79-.5,1.45-.43,2.43.09,1.22.18,2.44.27,3.66.07.92.17,1.88.68,2.65.76,1.13,2.28,1.55,3.63,1.36,1.29-.18,2.49-.78,3.58-1.46,1.03-.65,2.19-1.03,3.24-1.69"/>
      <path class="cls-14" d="M50.49,71.36c-2.69,2.74-5.38,5.48-8.06,8.22-.26.26-.55.54-.92.57-.65.05-1.06-.66-1.31-1.26-.37-.89-1.14-2.56-.59-3.51.47-.81,2.19-1.13,2.99-1.44,2.63-1,5.3-1.89,7.96-2.82"/>
      <path class="cls-14" d="M76.11,79.27c-.36.18-.71.38-1.06.57-.35.2-.64.56-.63.96,0,.58.57.97,1.08,1.27,1.88,1.09,3.9,2.21,6.06,2.06,1.71-.12,3.28-1.05,4.5-2.25.85-.84,1.55-1.8,2.21-2.8.52-.78,1.43-1.71,1.48-2.69.14-2.64-4.95-.47-6.17-.09-2.51.79-5.11,1.76-7.47,2.97Z"/>
      <path class="cls-10" d="M97.67,81.64c-.08,0-.17-.02-.25-.07-3.62-2.09-6.49-5.56-7.87-9.51-1.38-3.95-1.28-8.45.25-12.34.1-.26.39-.38.65-.28.26.1.38.39.28.65-1.45,3.67-1.54,7.92-.24,11.64,1.3,3.73,4,7,7.42,8.97.24.14.32.44.18.68-.09.16-.26.25-.43.25Z"/>
      <path class="cls-10" d="M33.31,89.18h0l-15.94-.2c-.28,0-.5-.23-.49-.51,0-.27.23-.49.5-.49h0l15.94.2c.28,0,.5.23.49.51,0,.27-.23.49-.5.49Z"/>
      <path class="cls-10" d="M24.76,94.88c-.22,0-.43-.15-.48-.37-.07-.27.09-.54.36-.61l7.44-1.93c.27-.07.54.09.61.36.07.27-.09.54-.36.61l-7.44,1.93s-.08.02-.13.02Z"/>
      <path class="cls-10" d="M25.76,104.24c-.11,0-.21-.03-.3-.1-.22-.17-.26-.48-.1-.7,2.66-3.52,6.01-6.66,9.97-9.32.23-.15.54-.09.69.14.15.23.09.54-.14.69-3.87,2.6-7.14,5.66-9.73,9.09-.1.13-.25.2-.4.2Z"/>
      <path class="cls-10" d="M70,61c-.06,0-.11,0-.17-.03-4.44-1.57-9.39-1.75-13.93-.49-.27.08-.54-.08-.62-.35-.07-.27.08-.54.35-.62,4.74-1.32,9.9-1.13,14.53.51.26.09.4.38.3.64-.07.21-.27.33-.47.33Z"/>
      <path class="cls-10" d="M65.36,64.06s-.08,0-.12-.02c-3.07-.77-6.35-.95-9.49-.51-.28.04-.53-.15-.57-.42-.04-.27.15-.53.42-.57,3.26-.46,6.67-.28,9.87.53.27.07.43.34.36.61-.06.23-.26.38-.48.38Z"/>
      <path class="cls-10" d="M61.81,66.84s-.07,0-.1-.01c-1.78-.37-3.59-.42-5.38-.15-.27.05-.53-.15-.57-.42s.15-.53.42-.57c1.91-.29,3.84-.23,5.73.16.27.06.45.32.39.59-.05.24-.26.4-.49.4Z"/>
      <path class="cls-4" d="M94.49,64.17c-.47.97-.2,2.23.61,2.93s2.09.78,2.99.2,1.35-1.77,1.07-2.81c-.23-.87-1.16-1.89-2.13-1.88s-2.14.71-2.55,1.56Z"/>
      <path class="cls-10" d="M97.04,63.78c-.56.16-1.03.64-1.12,1.22s.21,1.21.74,1.45c.31.14.67.15,1,.08.52-.12,1.01-.45,1.23-.94.55-1.21-.74-2.12-1.85-1.8Z"/>
    </g>
  </g>
</svg>