<?xml version="1.0" encoding="UTF-8"?>
<svg id="Icon" xmlns="http://www.w3.org/2000/svg" viewBox="0 0 120 120">
  <defs>
    <style>
      .cls-1 {
        fill: #dfedf2;
      }

      .cls-2 {
        fill: #666;
      }

      .cls-3 {
        fill: #333;
      }

      .cls-4 {
        fill: gray;
      }

      .cls-5 {
        fill: #a8b6c1;
      }
    </style>
  </defs>
  <path class="cls-3" d="M113.86,54.09c-.9,4.92-2.88,9.32-5.87,12.76-1.5,1.72-3.21,3.14-5.08,4.23-.04.02-.07.05-.1.07l-8.21,4.63s-.09.05-.13.07c-2.77,1.48-5.86,2.27-9.09,2.27-6.6,0-12.94-3.15-17.97-8.33l-3.7,2.17c1.27,9.37-.93,18.11-6.06,24.01-1.5,1.72-3.21,3.14-5.07,4.23-.04.02-.07.05-.11.07l-8.2,4.64s-.1.04-.15.07c-2.77,1.48-5.85,2.26-9.08,2.26-2.68,0-5.32-.52-7.84-1.49-.6.07-1.21.12-1.82.12-10.38,0-19.91-10.01-21.7-22.77-.87-6.21.28-12.08,3.16-16.51.83-5.2,2.86-9.85,5.99-13.44,1.73-1.99,3.74-3.57,5.95-4.71l.03-.03,7.56-4.28s.05-.02.08-.04c2.75-1.45,5.8-2.21,8.98-2.21,6.8,0,13.32,3.34,18.42,8.79l3.36-1.97c-.03-.17-.06-.33-.08-.5-1.32-9.43.88-18.24,6.04-24.17,1.73-1.99,3.74-3.57,5.95-4.72.01,0,.02,0,.03-.02l7.56-4.28s.04-.02.06-.03c2.75-1.46,5.81-2.22,9-2.22,4.2,0,8.3,1.27,12.02,3.53,9.09,1.77,16.93,11,18.54,22.46.79,5.68-.11,11.07-2.47,15.34Z"/>
  <g>
    <g>
      <path class="cls-2" d="M112.36,39.3c1.49,10.67-4.02,19.33-12.32,19.33s-16.24-8.65-17.74-19.33,4.02-19.33,12.32-19.33,16.24,8.65,17.74,19.33Z"/>
      <polygon class="cls-2" points="99.64 60.52 105.63 57.14 89.45 21.24 83.94 24.36 99.64 60.52"/>
      <path class="cls-4" d="M106.66,42.52c1.49,10.67-4.02,19.33-12.32,19.33s-16.24-8.65-17.74-19.33c-1.49-10.67,4.02-19.33,12.32-19.33s16.24,8.65,17.74,19.33Z"/>
    </g>
    <path class="cls-2" d="M110.07,43.23c2.05,14.62-5.51,26.48-16.88,26.48s-22.25-11.85-24.29-26.48c-2.05-14.62,5.51-26.48,16.88-26.48s22.25,11.85,24.29,26.48Z"/>
    <polygon class="cls-2" points="92.63 72.3 100.83 67.67 78.68 18.49 71.12 22.77 92.63 72.3"/>
    <path class="cls-4" d="M102.26,47.64c2.05,14.62-5.51,26.48-16.88,26.48s-22.25-11.85-24.29-26.48c-2.05-14.62,5.51-26.48,16.88-26.48s22.25,11.85,24.29,26.48Z"/>
    <path class="cls-2" d="M88.62,48.85c.86,6.13-2.31,11.1-7.08,11.1s-9.33-4.97-10.19-11.1,2.31-11.1,7.08-11.1,9.33,4.97,10.19,11.1Z"/>
    <g>
      <path class="cls-5" d="M83.24,55.84c-.64.38-1.38.59-2.2.59-2.61,0-5.13-2.19-6.33-5.22-.3-.74-.51-1.53-.62-2.36-.42-3.03.59-5.64,2.41-6.85l.39-.23c.6-.32,1.29-.5,2.03-.5,2.3,0,4.53,1.69,5.84,4.17.55,1.02.95,2.19,1.12,3.41.43,3.15-.68,5.84-2.64,6.98Z"/>
      <polygon class="cls-5" points="83.24 55.84 83.24 55.85 51.38 74.57 47.79 66.87 44.86 60.59 76.51 42 76.9 41.77 79.83 48.28 83.24 55.84"/>
      <path class="cls-4" d="M54.02,67.57c.59,4.19-1.58,7.58-4.83,7.58s-6.37-3.39-6.95-7.58c-.59-4.19,1.58-7.58,4.83-7.58s6.37,3.39,6.95,7.58Z"/>
      <path class="cls-1" d="M84.77,45.45l-4.93,2.83-5.11,2.94-26.59,15.65h-.35l-2.93-6.27,31.65-18.59.39-.23c.6-.32,1.29-.5,2.03-.5,2.3,0,4.53,1.69,5.84,4.17Z"/>
    </g>
    <path class="cls-2" d="M59.73,72.35c2.05,14.62-5.51,26.48-16.88,26.48s-22.25-11.85-24.29-26.48c-2.05-14.62,5.51-26.48,16.88-26.48s22.25,11.85,24.29,26.48Z"/>
    <polygon class="cls-2" points="42.29 101.43 50.5 96.79 28.34 47.61 20.78 51.89 42.29 101.43"/>
    <path class="cls-4" d="M51.92,76.77c2.05,14.62-5.51,26.48-16.88,26.48s-22.25-11.85-24.29-26.48c-2.05-14.62,5.51-26.48,16.88-26.48s22.25,11.85,24.29,26.48Z"/>
    <path class="cls-2" d="M43.39,79.32c1.49,10.67-4.02,19.33-12.32,19.33s-16.24-8.65-17.74-19.33c-1.49-10.67,4.02-19.33,12.32-19.33s16.24,8.65,17.74,19.33Z"/>
    <polygon class="cls-2" points="30.67 100.54 36.65 97.16 20.48 61.26 14.97 64.38 30.67 100.54"/>
    <path class="cls-4" d="M37.69,82.54c1.49,10.67-4.02,19.33-12.32,19.33s-16.24-8.65-17.74-19.33c-1.49-10.67,4.02-19.33,12.32-19.33s16.24,8.65,17.74,19.33Z"/>
    <g>
      <path class="cls-5" d="M28.88,81.84c.59,4.19-1.58,7.58-4.83,7.58s-6.37-3.39-6.95-7.58,1.58-7.58,4.83-7.58,6.37,3.39,6.95,7.58Z"/>
      <polygon class="cls-5" points="21.84 91.34 26.23 88.84 19.89 74.76 15.31 77.36 21.84 91.34"/>
      <path class="cls-1" d="M24.48,84.34c.59,4.19-1.58,7.58-4.83,7.58s-6.37-3.39-6.95-7.58c-.59-4.19,1.58-7.58,4.83-7.58s6.37,3.39,6.95,7.58Z"/>
    </g>
  </g>
</svg>