<?xml version="1.0" encoding="UTF-8"?>
<svg id="Icon" xmlns="http://www.w3.org/2000/svg" viewBox="0 0 120 120">
  <defs>
    <style>
      .cls-1 {
        fill: #fff;
      }

      .cls-2 {
        fill: #dfedf2;
      }

      .cls-3 {
        fill: #f4b545;
      }

      .cls-4 {
        fill: #ffe277;
      }

      .cls-5 {
        fill: #333;
      }

      .cls-6 {
        fill: #47acea;
      }

      .cls-7 {
        fill: #a8b6c1;
      }

      .cls-8 {
        opacity: .5;
      }
    </style>
  </defs>
  <path class="cls-5" d="M109.29,42.46c-1.26,5.06-9.54,12.17-25.88,24.57-.04.13-.08.26-.13.38t-.01.02c-1.49,3.75-5.2,6.71-8.21,7.97-.88.37-1.68.53-2.4.58-2.05,2.22-4.48,5.13-7.18,8.35-6.56,7.84-14.71,17.59-22.61,23.63h-.01s-.03.03-.04.04c-.04.02-.07.05-.1.07-.02.02-.04.03-.06.05-.65.51-1.35.95-2.09,1.31-.79.39-1.62.7-2.49.91-1.07.27-2.2.4-3.36.4-1.75,0-3.59-.3-5.46-.9-4.64-1.49-9.19-4.71-12.81-9.07-.08-.09-.14-.18-.21-.27-.39-.48-.77-.97-1.13-1.46-.23-.31-.43-.63-.64-.94-.19-.28-.38-.55-.56-.83-.24-.38-.46-.77-.68-1.16-.12-.21-.25-.42-.36-.63-.23-.42-.44-.84-.64-1.27-.09-.18-.18-.37-.27-.56-.2-.43-.38-.86-.55-1.3-.07-.18-.14-.37-.21-.55-.16-.43-.3-.86-.44-1.29-.06-.2-.12-.39-.18-.59-.12-.41-.22-.82-.31-1.23-.05-.22-.1-.44-.15-.67-.07-.37-.14-.75-.19-1.12-.02-.13-.05-.26-.07-.39-.01-.11-.01-.22-.02-.33-.05-.42-.08-.84-.1-1.26-.01-.23-.02-.45-.02-.67,0-.43.01-.86.03-1.29.01-.18.02-.35.04-.53.04-.48.11-.96.2-1.43.02-.1.03-.21.05-.31.11-.54.25-1.08.42-1.59,0-.03,0-.05.02-.07.54-1.64,1.37-3.12,2.5-4.38h.01c.2-.23.44-.44.66-.65.04-.04.07-.09.1-.14.07-.1.16-.2.24-.3.08-.11.16-.21.26-.32.08-.1.19-.22.29-.33.1-.11.2-.22.31-.34.11-.12.23-.24.35-.36.12-.13.23-.25.36-.37.14-.13.28-.27.42-.4.14-.14.27-.26.42-.4.15-.14.33-.3.5-.45.15-.14.29-.27.44-.4.2-.18.41-.36.62-.54.15-.13.29-.26.45-.39.24-.2.49-.41.74-.62.15-.13.3-.25.46-.38.29-.24.61-.5.92-.75.13-.11.26-.22.4-.33.36-.29.74-.6,1.14-.91.1-.08.2-.16.31-.25.45-.35.92-.73,1.41-1.11.06-.04.11-.09.17-.13,2.77-2.17,6.12-4.71,10.1-7.71,3.72-2.81,7.49-5.66,10.66-8.15.15-2.71,2.48-4.61,3.48-5.42.16-.13.32-.25.44-.36,1.21-1.18,3.24-3.12,6.16-3.54.11-.12.21-.23.32-.36.13-.15.26-.29.4-.44.34-.38.69-.77,1.03-1.17.15-.17.3-.33.44-.5.38-.42.76-.86,1.14-1.29.12-.15.25-.29.38-.44.37-.43.75-.87,1.12-1.31.15-.17.29-.33.43-.5.37-.44.75-.87,1.12-1.31.15-.18.3-.36.46-.54.34-.41.69-.83,1.04-1.25.19-.21.37-.42.55-.64.32-.39.64-.77.97-1.16.2-.25.4-.49.6-.73.31-.37.62-.74.92-1.11.22-.25.43-.51.64-.77.29-.34.57-.68.85-1.02.23-.28.46-.56.69-.84.24-.29.47-.58.71-.87.26-.32.53-.65.79-.96.19-.23.37-.46.55-.68.3-.36.59-.72.88-1.07.17-.21.33-.41.49-.62.29-.35.57-.7.85-1.04.15-.19.3-.38.46-.57.27-.33.54-.67.8-.99.14-.17.27-.33.4-.5.2-.25.41-.5.6-.75.06-.11.13-.21.2-.32.09-.15.18-.31.29-.46.11-.16.22-.32.34-.48.1-.14.2-.28.31-.41.15-.18.31-.36.47-.53.09-.1.17-.2.27-.29.25-.26.51-.5.79-.74l.02-.02s.01,0,.01-.01c.26-.21.52-.42.8-.62.11-.07.21-.14.33-.2.25-.17.51-.32.77-.47,10.05-5.74,25.56,3.6,27.3,4.69.91.57,1.56,1.49,1.78,2.54.23,1.05.03,2.15-.57,3.05-.15.23-.39.6-1.42,1.75,4.03,6.43,5.24,13.51,3.17,18.81Z"/>
  <g>
    <ellipse class="cls-1" cx="28.53" cy="90.73" rx="11.71" ry="18.42" transform="translate(-51.41 39.2) rotate(-39.74)"/>
    <path class="cls-1" d="M105.47,41.26c-.5,1.19-1.24,2.23-2.23,3.04-4.13,3.44-11.26,1.95-17.28-3.15-.5-.43-.99-.88-1.47-1.34-.7-.68-1.37-1.41-2.01-2.18-4.01-4.82-6.01-10.35-5.8-14.85.07-1.62.43-3.1,1.1-4.38.48-.93,1.12-1.74,1.92-2.41.17-.14.34-.28.53-.41.07-.03.12-.07.19-.11.18-.12.36-.23.55-.34,3.23-1.73,7.71-1.17,12.07,1.26,2.62,1.45,5.19,3.58,7.44,6.27.18.21.35.43.51.64.42.53.81,1.06,1.17,1.6,3.91,5.74,5.13,12.08,3.31,16.36Z"/>
    <path class="cls-1" d="M105.47,41.26c-.74,6.07-28.87,25.39-33.07,29.27-6.95,6.42-19.98,25.16-32.1,34.35-7.34,5.57-26.3-23.66-23.56-28.32,0,0,0,0,.02-.03,2.83-4.72,31.19-23.97,37.62-30.61,7.06-7.3,18.79-21.8,23.39-27.53,1.2-1.51,1.92-2.41,1.92-2.41,0,0,8.65,6.27,15.93,12.79,5.46,4.88,10.15,9.89,9.84,12.49Z"/>
    <path class="cls-2" d="M42.53,101.84c-.49,1.17-1.25,2.24-2.23,3.05-4.97,4.14-14.27,1.15-20.78-6.67-6.51-7.82-7.75-17.52-2.78-21.65,1.58-1.31,7.64-3.82,9.7-3.7-.99.84-1.9,1.75-2.77,2.7-.07.08-.35.46-.68.89-.61.77-1.37,1.77-1.44,1.77,3.78.31,7.72,1.09,11.09,2.87,1.57.83,2.93,1.83,4.14,2.96,1.58,1.48,2.94,3.2,4.19,5.1,1.3,1.96,2.15,4.49,2.36,7.05.15,1.96-.08,3.92-.8,5.63Z"/>
    <path class="cls-2" d="M102.16,24.9c-.07.08-.16.18-.24.26-1.45,1.51-3.29,3.39-5.36,5.47-3.22,3.24-6.96,6.95-10.6,10.52-.19.17-.36.34-.54.52-7.1,6.94-10.15,9.72-14.78,13.75-2.18,1.89-25.45,30.18-25.45,30.18-22.11-15.94-27.08-7.66-27.5-7.2,2.83-4.72,31.19-23.97,37.62-30.61,6.18-6.39,15.94-18.3,21.36-25.01.77-.95,1.45-1.81,2.03-2.52.48-.93,1.12-1.74,1.92-2.41.17-.14.34-.28.53-.41.07-.03.12-.07.19-.11.18-.12.36-.23.55-.34,3.15-1.8,7.25-1.58,11.14-.61,2.62,1.45,5.19,3.58,7.44,6.27.18.21.35.43.51.64.42.53.81,1.06,1.17,1.6Z"/>
    <path class="cls-1" d="M104.21,19.7c-.31.47-1.47,1.76-3.22,3.6-1.45,1.51-3.29,3.39-5.36,5.47-3.37,3.4-7.34,7.33-11.14,11.04-7.1,6.94-10.15,9.72-14.78,13.75-2.18,1.9-25.51,27.87-25.51,27.87-20.54-11.87-27.02-5.35-27.44-4.89,2.83-4.72,31.19-23.97,37.62-30.61,7.06-7.3,18.79-21.8,23.39-27.53.48-.93,1.12-1.74,1.92-2.41.17-.14.34-.28.53-.41.07-.03.12-.07.19-.11.18-.12.36-.23.55-.34,8.32-4.75,23.24,4.58,23.24,4.58Z"/>
    <g class="cls-8">
      <path class="cls-7" d="M26.16,93.58c1-1.43,2-2.87,2.98-4.31,1.65-2.43,3.19-4.95,4.86-7.37-.44-.28-.88-.55-1.35-.8-3.37-1.78-7.32-2.56-11.09-2.87-1.6,3.05-1.47,6.88.03,9.99,1.03,2.15,2.65,3.95,4.58,5.36Z"/>
    </g>
    <path class="cls-6" d="M79.56,65.95c-.97,2.43-3.65,4.76-6.05,5.77-2.21.92-3.19-.58-3.85-2.38-.15-.41-.28-.83-.41-1.25-.15-.48-.3-.96-.45-1.38-.9-2.53-1.83-5.08-3.39-7.25-2.67-3.7-6.84-5.83-11.03-7.36-1.31-.48-5.08-.93-5.58-2.42-.5-1.48,1.72-2.8,2.61-3.64,1.17-1.14,2.48-2.33,4.11-2.5,2.18-.22,4.5.63,6.57,1.26,2.37.7,4.69,1.58,6.83,2.82,4.37,2.54,7.79,6.63,9.64,11.32.34.85.71,1.79.97,2.76.39,1.44.55,2.95.03,4.27Z"/>
    <g>
      <circle class="cls-4" cx="65.96" cy="54.38" r="11.34"/>
      <circle class="cls-3" cx="66.99" cy="53.39" r="8.34"/>
      <path class="cls-4" d="M67.93,58.12c.09.17.15.32.2.45s.07.25.07.36c0,.1-.03.21-.08.33s-.13.22-.25.33c-.1.09-.21.17-.34.24s-.26.1-.39.12-.27.01-.4-.03-.25-.11-.35-.22c-.06-.06-.11-.13-.15-.21s-.1-.2-.18-.37l-3.51-7.69c-.05-.12-.1-.24-.14-.34s-.07-.2-.1-.3-.04-.18-.05-.27-.02-.17-.01-.26c0-.19.06-.39.15-.58s.26-.39.47-.6.42-.36.62-.45.39-.13.59-.13c.09,0,.18.01.26.03s.17.04.26.06.19.06.29.11.21.1.34.16l7.51,3.82c.17.09.29.15.36.2s.13.1.18.15c.11.12.18.25.22.39s.03.28,0,.42-.08.27-.15.4-.16.24-.26.34c-.11.11-.23.18-.35.23s-.24.07-.36.07c-.11,0-.23-.03-.34-.08s-.26-.12-.42-.21l-1.54-.8-2.9,2.77.74,1.54ZM68.54,52.95l-2.91-1.54c-.2-.11-.39-.2-.56-.3s-.32-.18-.46-.26c-.15-.09-.3-.17-.43-.25l-.02.02c.08.13.15.28.24.43.07.14.15.29.24.46s.19.36.29.56l1.44,2.94,2.16-2.07Z"/>
    </g>
  </g>
</svg>