<?xml version="1.0" encoding="UTF-8"?>
<svg id="Icon" xmlns="http://www.w3.org/2000/svg" viewBox="0 0 120 120">
  <defs>
    <style>
      .cls-1 {
        fill: #a152db;
      }

      .cls-2 {
        fill: #fff;
      }

      .cls-3 {
        fill: #dfedf2;
      }

      .cls-4 {
        fill: #fff8d9;
      }

      .cls-5 {
        fill: #f4b545;
      }

      .cls-6 {
        fill: #f8d7ff;
      }

      .cls-7 {
        fill: #f47aa0;
      }

      .cls-8 {
        fill: #231f20;
      }

      .cls-9 {
        fill: #79cdf6;
      }

      .cls-10 {
        fill: #ffe277;
      }

      .cls-11 {
        fill: #333;
      }

      .cls-12 {
        fill: #47acea;
      }

      .cls-13 {
        fill: #dd4a8c;
      }

      .cls-14 {
        fill: #a8b6c1;
      }

      .cls-15 {
        fill: #d27cf2;
      }

      .cls-16 {
        fill: #ffd2e1;
      }
    </style>
  </defs>
  <path class="cls-8" d="M110.09,55.37c-.17.18-.34.36-.5.54-.68.72-1.39,1.44-2.14,2.16-.19.17-.38.35-.58.54-.38.36-.77.72-1.17,1.09-.41.35-.82.72-1.24,1.08-.42.36-.84.73-1.28,1.09-2.26,1.87-4.72,3.73-7.35,5.53-.4.27-.81.55-1.22.82-2.55,1.69-5.24,3.31-8.03,4.83,2.84,18.82.56,41.2-7.06,43.8-.42.13-.79.22-1.18.27-.11.02-.23.03-.34.04-.19.02-.39.03-.59.03-7.73,0-21.14-13.51-30.44-30.6-5.18.78-10.63,1.17-15.85,1.17-13.79,0-26.07-2.72-27.96-8.24-.17-.49-.27-.99-.31-1.51,0-.07-.02-.15-.02-.22-.02-.19-.02-.37,0-.56.34-7.86,13.87-21.16,30.6-30.28-2.83-18.82-.55-41.19,7.05-43.79.23-.07.45-.14.67-.18.02,0,.04-.01.05-.01.03-.01.06-.01.09-.02.03-.01.05-.01.07-.01.03-.01.07-.01.1-.02.08-.02.16-.03.23-.04.05-.01.1-.01.15-.02.02-.01.04-.01.06-.01.13-.01.24-.03.34-.03h.3c.23,0,.46,0,.69.04.15.01.31.03.46.06.68.08,1.38.26,2.1.51,1.39.5,3,1.4,4.74,2.61.38.26.77.54,1.15.83.17.13.35.26.52.4.35.26.7.54,1.05.84.48.4.96.81,1.45,1.25.05.04.09.08.14.12.26.24.52.48.79.73,2.63,2.45,5.32,5.42,7.95,8.77.34.43.67.87,1.01,1.31.36.47.71.95,1.06,1.43.36.49.71.97,1.05,1.47.35.5.7,1,1.04,1.5.34.51.68,1.02,1.02,1.54.34.52.67,1.04,1,1.57.33.53.66,1.06.98,1.6.25.41.5.82.74,1.24.11.18.21.37.32.56.42.73.84,1.47,1.24,2.22,18.83-2.83,41.2-.55,43.81,7.06,0,.02.01.04.02.05.12.38.21.76.25,1.13.01.08.02.16.03.25h0s0,.07,0,.1c.01.1.01.19.01.29.18,3.46-2.5,8.12-7.08,13.07Z"/>
  <path class="cls-15" d="M82.17,70.86c4.05,22.18-.35,40.98-3.94,42.2-.16.05-.33.09-.52.11-4.91.48-18.72-11.66-28.56-31.01l10.85-22.16h0s22.16,10.85,22.16,10.85Z"/>
  <path class="cls-1" d="M82.17,70.86c4.05,22.18-.35,40.98-3.94,42.2-.16.05-.33.09-.52.11l-17.7-53.16,22.16,10.85Z"/>
  <path class="cls-10" d="M70.85,37.84l-10.75,21.97-.09.19-.2-.1-21.97-10.75h0c-4.05-22.18.35-40.98,3.94-42.21.12-.04.24-.07.37-.09.1-.02.2-.03.31-.04.56-.02,1.22.1,1.97.37,6.04,2.18,17.78,13.63,26.43,30.65Z"/>
  <path class="cls-5" d="M70.85,37.84l-10.75,21.97-.09.19-.2-.1L42.15,6.86c.1-.02.2-.03.31-.04,5.05-.21,18.67,11.89,28.4,31.03Z"/>
  <polygon class="cls-4" points="56.96 58.59 61.29 57.15 42.15 6.86 56.96 58.59"/>
  <polygon class="cls-6" points="57.38 59.85 61.71 58.41 77.71 113.17 57.38 59.85"/>
  <path class="cls-7" d="M60,60l-10.85,22.18c-22.18,4.05-40.97-.35-42.21-3.95-.07-.21-.11-.44-.12-.68-.21-5.05,11.89-18.67,31.03-28.4l21.97,10.75.19.09Z"/>
  <path class="cls-13" d="M60,60l-10.85,22.18c-22.18,4.05-40.97-.35-42.21-3.95-.07-.21-.11-.44-.12-.68l52.99-17.65.19.09Z"/>
  <path class="cls-9" d="M113.06,41.78c.05.16.09.33.11.52.48,4.92-11.67,18.73-31.01,28.55l-22.16-10.85h0s10.85-22.17,10.85-22.17c22.18-4.05,40.97.35,42.2,3.94Z"/>
  <path class="cls-12" d="M113.17,42.3c.48,4.92-11.67,18.73-31.01,28.55l-22.16-10.85h0s53.16-17.71,53.16-17.71Z"/>
  <polyline class="cls-3" points="55.63 59.46 113.17 42.3 57.07 63.78"/>
  <polyline class="cls-16" points="60.49 57.84 6.82 77.55 61.93 62.16"/>
  <circle class="cls-14" cx="60" cy="60" r="13.89"/>
  <circle class="cls-3" cx="58.36" cy="59.18" r="10.2"/>
  <circle class="cls-2" cx="53.37" cy="56.69" r="3.94"/>
  <path class="cls-2" d="M66.3,48.31c-2.48-.68-5.18-.65-7.79.25-6.94,2.38-10.64,9.93-8.26,16.87,1.15,3.36,3.52,5.96,6.45,7.48-4.1-1.12-7.59-4.19-9.08-8.5-2.38-6.94,1.32-14.49,8.26-16.87,3.58-1.23,7.32-.84,10.43.78Z"/>
  <path class="cls-11" d="M60.02,74.9c-6.19,0-11.99-3.89-14.1-10.07-2.66-7.77,1.49-16.26,9.26-18.92,7.77-2.66,16.26,1.49,18.92,9.26h0c2.66,7.77-1.49,16.26-9.26,18.92-1.59.55-3.22.8-4.82.8ZM59.99,47.11c-1.38,0-2.79.22-4.17.7-6.73,2.31-10.32,9.65-8.02,16.38,1.12,3.26,3.43,5.89,6.53,7.4,3.09,1.51,6.59,1.73,9.85.62,6.73-2.31,10.32-9.65,8.02-16.38h0c-1.83-5.35-6.85-8.71-12.21-8.71Z"/>
  <line class="cls-4" x1="55.61" y1="56.85" x2="58.48" y2="55.9"/>
</svg>