<?xml version="1.0" encoding="UTF-8"?>
<svg id="Icon" xmlns="http://www.w3.org/2000/svg" viewBox="0 0 120 120">
  <defs>
    <style>
      .cls-1 {
        fill: #dd2a39;
      }

      .cls-2 {
        fill: #4d4d4d;
      }

      .cls-3 {
        fill: #fff;
      }

      .cls-4 {
        fill: #dfedf2;
      }

      .cls-5 {
        fill: #f43f3f;
      }

      .cls-6 {
        fill: #231f20;
      }

      .cls-7 {
        fill: #666;
      }

      .cls-8 {
        fill: #333;
      }

      .cls-9 {
        fill: #a8b6c1;
      }
    </style>
  </defs>
  <g>
    <path class="cls-8" d="M78.5,76.2c-5.8,11.51-19.19,18.47-26.42,19.55-.97.15-2.08.22-3.3.22-7.82,0-19.98-3.14-27.68-11.21-8.65-9.06-15.32-24.54-17.84-41.41-1.21-8.12,1.99-16.94,8.77-24.2,6.74-7.22,16.03-12.03,26.16-13.54.14-.02.29-.04.44-.06.14-.03.3-.05.44-.07,10.11-1.51,20.4.38,28.96,5.31,8.6,4.97,14.23,12.48,15.44,20.59,2.52,16.87.66,33.62-4.97,44.82Z"/>
    <g>
      <path class="cls-3" d="M79.52,31.97c2.07,13.89,1.27,30.77-4.59,42.43-5.08,10.09-17.29,16.48-23.44,17.4-6.42.96-19.69-1.62-27.5-9.8-9.01-9.44-14.7-25.35-16.77-39.24S19.46,12.44,38.78,9.56c.14-.02.29-.04.43-.06.14-.03.29-.05.43-.07,19.32-2.88,37.74,8.23,39.87,22.54Z"/>
      <g>
        <path class="cls-9" d="M72.93,45.67c.04.29.06.58.05.85h0c-.11,3.58-4.5,5.29-10.02,6.11-5.68.85-10.5.45-11.44-3.23-.05-.16-.09-.34-.11-.53-.49-3.29,2.97-8.14,7.55-8.83,5.94-.89,13.59,3.11,13.97,5.62Z"/>
        <path class="cls-4" d="M72.99,46.52h0c-.11,3.58-4.5,5.29-10.02,6.11-5.68.85-10.5.45-11.44-3.23.28-3.21,3.51-7.18,7.65-7.8,5.43-.81,12.28,2.42,13.81,4.92Z"/>
        <path class="cls-9" d="M18.42,53.8c.04.29.11.57.2.83h0c1.15,3.39,5.84,3.75,11.36,2.92s10.17-2.64,10-6.43c0-.17-.02-.35-.04-.54-.49-3.29-5.22-6.92-9.8-6.24-5.94.89-12.1,6.94-11.72,9.45Z"/>
        <path class="cls-4" d="M18.62,54.63h0c1.15,3.39,5.84,3.75,11.36,2.92s10.17-2.64,10-6.43c-1.21-2.99-5.45-5.85-9.59-5.23-5.43.81-11.04,5.89-11.77,8.73Z"/>
      </g>
      <path class="cls-9" d="M53.24,61.39c0,.05,0,.11-.02.17-.28,1.04-4.61,1.88-5.5,2.01s-5.28.59-5.85-.32c-.04-.05-.06-.1-.07-.15-.11-.72.97-.8,2.53-1.39.85-.34,1.58-2.59,2.7-2.76s2.47,1.78,3.39,1.85c1.66.1,2.72-.13,2.83.59Z"/>
      <path class="cls-4" d="M53.22,61.55c-.28,1.04-4.61,1.88-5.5,2.01s-5.28.59-5.85-.32c.44-.29,1.29-.47,2.37-.88.91-.35,1.68-2.75,2.86-2.93s2.62,1.9,3.59,1.97c1.15.07,2.02,0,2.53.15Z"/>
      <path class="cls-9" d="M59.78,73.33c.41,2.78-3.89,5.71-9.62,6.57s-10.7-.7-11.12-3.47c-.04-.28-.03-.56.03-.82.52-2.23,4.7-3.41,9.82-4.18s9.47-.85,10.62,1.13c.13.23.23.49.27.77Z"/>
      <path class="cls-4" d="M59.78,73.33c.41,2.78-3.89,5.71-9.62,6.57s-10.7-.7-11.12-3.47c-.04-.28-.03-.56.03-.82,1.55-1.66,5.41-2.64,9.95-3.32s8.52-.86,10.49.27c.13.23.23.49.27.77Z"/>
    </g>
  </g>
  <g>
    <path class="cls-6" d="M118.32,52.07c0,1.43-.55,2.77-1.56,3.77-1.3,1.31-3.02,1.96-4.73,1.96-1.62,0-3.24-.59-4.51-1.76l-5.42,7.19,5.24,5.24c1.14,1.13,1.76,2.64,1.76,4.24s-.62,3.12-1.76,4.25l-1.58,1.59c-1.18,1.17-2.71,1.75-4.25,1.75s-3.08-.58-4.25-1.75l-1.6-1.6-29.75,29.74c-1.31,1.31-3.03,1.97-4.75,1.97-1.06,0-2.12-.25-3.08-.75-.95.55-2.02.82-3.08.82-1.57,0-3.15-.59-4.35-1.77l-8.77,8.77c-.86.86-1.97,1.3-3.1,1.3-.83,0-1.66-.24-2.4-.72-1.76-1.14-2.46-3.3-1.71-5.26l.77-2.01c.36-.93.9-1.76,1.6-2.46l6.62-6.63c-1.97-2-2.3-5-1-7.34-.28-.49-.5-1.02-.66-1.57-.05-.19-.09-.38-.11-.57-.39-2.16.28-4.4,1.84-5.96l29.74-29.75-1.6-1.6c-1.13-1.14-1.76-2.65-1.76-4.25s.63-3.11,1.76-4.25l1.59-1.58c1.13-1.14,2.64-1.76,4.25-1.76s3.11.62,4.24,1.76l5.24,5.24,7.18-5.42c-1.13-1.23-1.75-2.82-1.75-4.51,0-1.79.69-3.47,1.96-4.73,1-1.01,2.34-1.56,3.77-1.56s2.76.55,3.76,1.56l14.65,14.64c1.01,1.01,1.56,2.35,1.56,3.77Z"/>
    <g>
      <path class="cls-3" d="M38.4,112.49l.77-2.02c.15-.4.39-.76.69-1.07l9.44-9.44,1.34,1.34-11.6,11.6c-.3.3-.8-.02-.65-.42Z"/>
      <path class="cls-4" d="M63.08,103.86l34.41-34.41c1.06-1.06,1.06-2.78,0-3.84l-12.69-12.69c-.35-.35-.77-.58-1.21-.7-.9-.24-1.91-.01-2.63.7l-34.41,34.41c-.71.71-.95,1.72-.7,2.63.12.44.35.86.7,1.21l12.69,12.69c1.06,1.06,2.78,1.06,3.84,0Z"/>
      <rect class="cls-7" x="69.54" y="68.19" width="4.99" height="20.39" transform="translate(-34.33 73.89) rotate(-45)"/>
      <path class="cls-5" d="M59.72,102.61l-11.91-11.91c-.69-.69-.69-1.82,0-2.51l15.25-15.25,14.42,14.42-15.25,15.25c-.69.69-1.82.69-2.51,0Z"/>
      <rect class="cls-9" x="47.77" y="76.02" width="54.09" height="10.33" transform="translate(-35.49 76.68) rotate(-45)"/>
      <path class="cls-3" d="M47.57,92.19l38.25-38.25-1.02-1.02c-.35-.35-.77-.58-1.21-.7l-37.74,37.74c.12.44.35.86.7,1.21l1.02,1.02Z"/>
      <rect class="cls-4" x="86.48" y="40.85" width="6.25" height="39.92" rx="2.01" ry="2.01" transform="translate(-16.76 81.17) rotate(-45)"/>
      <rect class="cls-9" x="86.13" y="51.86" width="1.49" height="23.37" transform="translate(-19.49 80.04) rotate(-45)"/>
      <rect class="cls-1" x="53.13" y="86.03" width="23.35" height="10.33" transform="translate(-45.5 72.54) rotate(-45)"/>
      <polygon class="cls-4" points="96.81 63.6 106.02 51.38 107.08 49.98 107.62 49.26 101.16 42.8 100.44 43.34 99.04 44.4 86.82 53.61 96.81 63.6"/>
      <polygon class="cls-9" points="97.85 62.2 88.21 52.56 86.82 53.61 96.81 63.59 97.85 62.2"/>
      <path class="cls-4" d="M113.93,51.13l-14.65-14.65c-.52-.52-1.36-.52-1.88,0h0c-1.05,1.05-1.05,2.76,0,3.81l12.72,12.72c1.05,1.05,2.76,1.05,3.81,0h0c.52-.52.52-1.36,0-1.88Z"/>
      <rect class="cls-2" x="72.33" y="76.01" width="4.99" height="10.33" transform="translate(-35.48 76.68) rotate(-45)"/>
      <polygon class="cls-9" points="106.02 51.38 107.08 49.98 100.44 43.34 99.04 44.4 106.02 51.38"/>
      <path class="cls-4" d="M53.44,104.09l-6.92-6.92c-.86-.86-.86-2.26,0-3.12l1.46-1.46,10.03,10.03-1.46,1.46c-.86.86-2.26.86-3.12,0Z"/>
    </g>
  </g>
</svg>