<?xml version="1.0" encoding="UTF-8"?>
<svg id="Icon" xmlns="http://www.w3.org/2000/svg" viewBox="0 0 120 120">
  <defs>
    <style>
      .cls-1 {
        fill: #ffa9c2;
      }

      .cls-2 {
        fill: #fff;
      }

      .cls-3 {
        fill: #dfedf2;
      }

      .cls-4 {
        fill: #fff8d9;
      }

      .cls-5 {
        fill: #f47aa0;
      }

      .cls-6 {
        fill: #ffe277;
      }

      .cls-7 {
        fill: #333;
      }

      .cls-8 {
        fill: #a8b6c1;
      }

      .cls-9 {
        opacity: .5;
      }
    </style>
  </defs>
  <path class="cls-7" d="M112.55,25.48c-1.2,2.28-3.05,3.68-4.54,4.81-.53.4-1.02.77-1.43,1.14-1.13,1.01-2.01,2.38-2.52,3.89,1.95,3.78,2.94,7.59,2.94,11.22,0,4.94-1.84,9.55-5.58,13.29-1.14,1.14-2.54,1.96-4.12,2.45-.23.54-.47,1.08-.73,1.64-1.37,3.04-2.93,5.55-4.76,7.66-.36.43-.74.84-1.14,1.23-2.86,2.86-6.61,5.61-10.58,8.51-2.57,1.87-5.19,3.79-7.67,5.81t-.02.02c-.46.38-.91.75-1.34,1.11-.03.03-.06.06-.1.08-.35.31-.69.6-1.03.9-.18.17-.37.33-.56.5-.22.2-.44.41-.66.6-.42.4-.85.81-1.26,1.22-.4.4-.77.79-1.13,1.17-.63.7-1.19,1.36-1.7,2.01-1.47,1.87-2.5,3.59-3.57,5.37-.27.46-.55.92-.84,1.39-.73,1.2-1.53,2.44-2.49,3.72-.96,1.29-2.09,2.64-3.51,4.06-.1.09-.2.17-.3.26-2.06,1.91-4.79,2.89-8.01,2.89-1.93,0-4.03-.37-6.26-1.07-.11-.03-.22-.06-.34-.1-.14-.04-.27-.08-.41-.13-.14-.04-.28-.1-.41-.15-.5-.18-1.01-.37-1.51-.59-.15-.06-.3-.13-.45-.2-.56-.24-1.12-.5-1.68-.78-.05-.02-.1-.05-.16-.07-.62-.32-1.25-.67-1.88-1.03-.1-.06-.2-.11-.3-.17-.61-.36-1.21-.74-1.82-1.14-.12-.07-.24-.16-.36-.24-.61-.4-1.21-.81-1.81-1.26-.09-.06-.17-.13-.26-.2-.32-.23-.63-.47-.94-.72-.05-.03-.09-.08-.13-.11-1.62-1.28-3.21-2.68-4.73-4.2-11.62-11.61-15.49-25.26-9-31.75.25-.25.5-.48.75-.71.02-.03.05-.06.08-.09.07-.07.15-.13.22-.2.19-.18.37-.34.55-.5.21-.19.41-.37.62-.54.18-.16.37-.32.55-.47.2-.16.39-.31.58-.46.19-.15.37-.29.55-.43l.57-.42c.18-.13.36-.26.53-.38.19-.13.38-.26.56-.38.17-.12.35-.24.52-.35.19-.13.37-.24.56-.36.16-.11.33-.22.5-.32.18-.11.35-.22.53-.33.5-.31,1-.61,1.49-.9.47-.28.94-.56,1.4-.85.9-.54,1.79-1.11,2.71-1.77,1.39-.99,2.85-2.18,4.45-3.79,3.74-3.74,7.04-8.26,10.24-12.63,2.9-3.97,5.64-7.72,8.51-10.59.01-.01.03-.03.05-.04.47-.47.97-.92,1.47-1.36.16-.13.32-.26.49-.4.4-.33.82-.66,1.25-.97.14-.1.28-.21.43-.31,2.11-1.49,4.43-2.72,6.85-3.64.49-1.53,1.3-2.89,2.44-4.03,4.58-4.59,10.72-6.42,17.27-5.17,3.44.66,6.9,2.13,10.23,4.31,1.03-.41,1.87-.94,2.34-1.54.43-.54.82-1.22,1.24-1.93,1.34-2.28,3.18-5.4,7.54-6.3.44-.08.87-.14,1.31-.17.12-.01.25,0,.37-.01.33-.01.66-.01.99.02.11,0,.22.01.33.02.38.04.76.1,1.14.18.04.01.07.01.11.02.91.2,1.77.52,2.57.96.03.02.06.04.09.06.28.15.56.32.82.51.87.6,1.66,1.31,2.31,2.17.64.83,1.15,1.79,1.52,2.83.96,2.74.77,5.74-.53,8.22Z"/>
  <g>
    <path class="cls-3" d="M64.63,88.73c-6.94,6.94-6.99,11.47-13.25,17.72-4.72,4.72-16.41.69-26.1-9-9.69-9.69-13.72-21.37-9-26.1,6.25-6.25,10.78-6.31,17.72-13.25,7.43-7.43,13.07-17.54,18.75-23.22,5.84-5.84,14.99-8.57,22.15-7.12,4.93,1,9.13,4.21,12.49,7.57,4.62,4.62,8.72,10.95,8.22,18.27-.21,3.1-1.36,5.75-2.68,8.67-1.07,2.36-2.4,4.68-4.14,6.69-.3.35-.61.69-.94,1.01-5.68,5.68-15.79,11.32-23.22,18.75Z"/>
    <g>
      <path class="cls-4" d="M87.01,65.34c0,.12-.01.23-.04.35h0c-.28.39-.57.74-.86,1.08-.24.27-.47.53-.71.77-.08.08-.17.17-.26.25-2.38,2.32-5.75,4.78-9.32,7.39-4.42,3.23-9.43,6.89-13.65,11.1-3.97,3.97-5.95,7.3-7.71,10.23-1.55,2.61-2.9,4.85-5.54,7.49-2.01,2.01-11.44-.03-20.81-9.4-9.37-9.37-11.41-18.8-9.39-20.81,2.64-2.64,4.89-3.98,7.49-5.54,1.87-1.12,3.91-2.33,6.16-4.09.57-.45,1.17-.94,1.77-1.46,4.19-2.41,13.96-4.11,25.34-4.11,15.21,0,27.53,3.02,27.53,6.74Z"/>
      <path class="cls-2" d="M87.01,65.34c0,.12-.01.23-.04.35h0c-.15.74-.79,1.45-1.83,2.11-4,2.51-13.98,4.29-25.66,4.29-15.2,0-27.53-3.02-27.53-6.75,0-.4.14-.79.42-1.17.36-.51.96-1,1.77-1.46,4.19-2.41,13.96-4.11,25.34-4.11,15.21,0,27.53,3.02,27.53,6.74Z"/>
      <g class="cls-9">
        <path class="cls-4" d="M87.01,65.34c0,.12-.01.23-.04.35h0c-.15.74-.79,1.45-1.83,2.11-4,2.51-13.98,4.29-25.66,4.29-15.2,0-27.53-3.02-27.53-6.75,0-.4.14-.79.42-1.17.36-.51.96-1,1.77-1.46,4.19-2.41,13.96-4.11,25.34-4.11,15.21,0,27.53,3.02,27.53,6.74Z"/>
      </g>
    </g>
    <path class="cls-8" d="M51.38,106.45c-4.01,4.01-13.04,1.71-21.6-5.01,1.97.03,3.96-.21,5.95-.68,6.4,4.04,11.74,4.7,13.2,3.25,2.64-2.64,3.98-4.89,5.54-7.49,1.74-2.9,3.69-6.18,7.57-10.09,2.53-1.09,5.16-1.9,7.84-2.38-1.83,1.49-3.61,3.04-5.25,4.68-6.94,6.94-7,11.47-13.25,17.72Z"/>
    <path class="cls-2" d="M36.45,60.55c-3.97,3.97-7.3,5.95-10.23,7.71-.93.55-1.81,1.09-2.69,1.65-2.12.42-4.31.64-6.5.72,5.87-5.55,10.32-5.87,16.98-12.53,7.42-7.42,13.07-17.54,18.75-23.22,1.89-1.89,4.12-3.45,6.51-4.64-.09,1.43-.25,2.86-.47,4.28-1.32.81-2.54,1.76-3.6,2.81-2.39,2.39-4.94,5.88-7.64,9.57-3.23,4.42-6.89,9.43-11.1,13.64Z"/>
    <path class="cls-1" d="M98.6,57c-2.01,2.01-5.35,2.33-9.25,1.24-4.71-1.31-10.24-4.69-15.2-9.65-.26-.26-.52-.53-.77-.79-8.52-8.91-11.94-19.36-7.64-23.66,7.75-7.75,19.32-4.6,28.4,4.48,9.08,9.08,12.34,20.53,4.48,28.39Z"/>
    <path class="cls-5" d="M94.83,56.24c-1.66,1.31-3.56,1.9-5.49,2-4.71-1.31-10.24-4.69-15.2-9.65-.26-.26-.52-.53-.77-.79,2.53.17,5.22-.3,7.77-1.34,3.01-1.23,5.45-3.19,7.74-5.6,1.62-1.7,3.48-3.39,5.77-3.59,5.26-.46,5.07,7.42,4.37,11.26-.52,2.82-1.79,5.82-4.19,7.72Z"/>
    <path class="cls-2" d="M49.73,50.19c-.58,1.43-.9,3.12-.17,4.47.85,1.56,2.89,2.16,4.64,1.83s3.25-1.41,4.64-2.52c1.58-1.27,3.12-2.68,4.05-4.49s1.14-4.09.08-5.83c-3.58-5.85-11.77,2.93-13.24,6.53Z"/>
    <path class="cls-6" d="M97.73,42.68c-1.66,1.39-4.09.7-5.96-.32-1.69-.92-3.26-2.08-4.68-3.42-1.93-1.83-3.58-4-4.84-6.42-.51-.98-.97-2.03-1.08-3.15-.11-1.12.17-2.34.95-3.1,1.11-1.1,2.8-.97,4.31-1.02,3.13-.08,7.33-1.18,9.45-3.87,2.08-2.66,2.77-6.03,6.44-6.78,2.21-.45,4.64.4,6.06,2.26.39.51.7,1.1.91,1.72.57,1.63.51,3.53-.29,5.05-1.12,2.13-3.35,3.25-5.1,4.82-2.2,1.97-3.72,4.82-4.19,7.86-.35,2.27-.29,4.97-1.99,6.37Z"/>
    <path class="cls-4" d="M91.94,38.23c-1.47.78-3.18.97-4.84.71-1.93-1.83-3.58-4-4.84-6.42-.51-.98-.97-2.03-1.08-3.15-.11-1.12.17-2.34.95-3.1,1.11-1.1,2.8-.97,4.31-1.02,3.13-.08,7.33-1.18,9.45-3.87,2.08-2.66,2.77-6.03,6.44-6.78,1.68-.34,3.68.06,4.98,1.22,1.1.99,1.28,2.46.95,3.85-.35,1.47-1.39,2.74-2.56,3.64-1.75,1.35-3.87,2.19-5.49,3.7-3.44,3.22-4.12,9.01-8.27,11.23Z"/>
  </g>
</svg>