<?xml version="1.0" encoding="UTF-8"?>
<svg id="Layer_1" xmlns="http://www.w3.org/2000/svg" viewBox="0 0 48 48">
  <defs>
    <style>
      .cls-1 {
        fill: #13437c;
      }

      .cls-2 {
        fill: #3288d6;
      }

      .cls-3 {
        fill: #dfedf2;
      }

      .cls-4 {
        fill: #fff;
        opacity: 0;
      }

      .cls-5 {
        fill: #47acea;
      }

      .cls-6 {
        fill: #a8b6c1;
      }

      .cls-7 {
        fill: #1f5999;
      }
    </style>
  </defs>
  <rect class="cls-4" width="48" height="48"/>
  <g>
    <g>
      <path class="cls-5" d="M31.69,2.98h-15.38c-.97,0-1.76.79-1.76,1.76v7.3c0,.38.12.74.33,1.02.32.44.84.73,1.43.73h15.38c.59,0,1.11-.29,1.43-.73.05-.06.09-.13.12-.2.13-.24.2-.52.2-.82v-7.3c0-.97-.78-1.76-1.75-1.76ZM28.98,10.28h-9.96v-3.18h9.96v3.18Z"/>
      <polygon class="cls-2" points="33.24 8.3 33.24 13.83 14.55 13.83 14.55 8.3 19.02 8.3 19.02 11.05 28.98 11.05 28.98 8.3 33.24 8.3"/>
      <path class="cls-1" d="M31.69,15.64h-15.38c-1.52,0-2.75-1.24-2.75-2.76V4.5c0-1.52,1.24-2.75,2.75-2.75h15.38c1.52,0,2.76,1.24,2.76,2.75v8.38c0,1.52-1.24,2.76-2.76,2.76ZM16.31,3.75c-.42,0-.75.34-.75.75v8.38c0,.42.34.76.75.76h15.38c.42,0,.76-.34.76-.76V4.5c0-.42-.34-.75-.76-.75h-15.38ZM29.98,12.13h-11.96v-5.91h11.96v5.91ZM20.02,10.13h7.96v-1.91h-7.96v1.91Z"/>
    </g>
    <rect class="cls-2" x="1" y="10.62" width="46" height="34.64" rx="5.43" ry="5.43"/>
    <rect class="cls-3" x="1" y="10.62" width="46" height="29.62" rx="5.43" ry="5.43"/>
    <rect class="cls-5" x="1" y="13.37" width="46" height="26.87" rx="5.43" ry="5.43"/>
    <path class="cls-7" d="M24,28.8h-1.41c-.07,0-.14,0-.2-.02L2.11,24.61c-.54-.11-.89-.64-.78-1.18.11-.54.64-.89,1.18-.78l20.17,4.15h1.31c.55,0,1,.45,1,1s-.45,1-1,1Z"/>
    <path class="cls-7" d="M25.43,28.8h-1.43c-.55,0-1-.45-1-1s.45-1,1-1h1.32l20.16-4.15c.54-.11,1.07.24,1.18.78.11.54-.24,1.07-.78,1.18l-20.26,4.17c-.07.01-.13.02-.2.02Z"/>
    <path class="cls-6" d="M22.82,25.96h2.36c.76,0,1.38.62,1.38,1.38v2.67c0,.76-.62,1.38-1.38,1.38h-2.36c-.76,0-1.38-.62-1.38-1.38v-2.67c0-.76.62-1.38,1.38-1.38Z"/>
    <path class="cls-3" d="M26.56,25.97v1.54c0,.64-.61,1.16-1.38,1.16h-2.36c-.76,0-1.38-.52-1.38-1.16v-1.54c0-.64.62-1.16,1.38-1.16h2.36c.76,0,1.38.52,1.38,1.16Z"/>
    <path class="cls-1" d="M25.18,32.38h-2.36c-1.31,0-2.38-1.07-2.38-2.38v-3.98c0-1.31,1.07-2.38,2.38-2.38h2.36c1.31,0,2.38,1.07,2.38,2.38v3.98c0,1.31-1.07,2.38-2.38,2.38ZM22.82,25.65c-.21,0-.38.17-.38.38v3.98c0,.21.17.38.38.38h2.36c.21,0,.38-.17.38-.38v-3.98c0-.21-.17-.38-.38-.38h-2.36Z"/>
    <path class="cls-1" d="M41.57,46.25H6.43c-3.55,0-6.43-2.89-6.43-6.43v-23.77c0-3.55,2.89-6.43,6.43-6.43h35.14c3.55,0,6.43,2.89,6.43,6.43v23.77c0,3.55-2.89,6.43-6.43,6.43ZM6.43,11.62c-2.44,0-4.43,1.99-4.43,4.43v23.77c0,2.44,1.99,4.43,4.43,4.43h35.14c2.44,0,4.43-1.99,4.43-4.43v-23.77c0-2.44-1.99-4.43-4.43-4.43H6.43Z"/>
  </g>
</svg>