<?xml version="1.0" encoding="UTF-8"?>
<svg id="Icon" xmlns="http://www.w3.org/2000/svg" viewBox="0 0 120 120">
  <defs>
    <style>
      .cls-1 {
        fill: #fff8d9;
      }

      .cls-2 {
        fill: #f4b545;
      }

      .cls-3 {
        fill: #6d3108;
      }

      .cls-4 {
        fill: #ffe277;
      }

      .cls-5 {
        opacity: .5;
      }
    </style>
  </defs>
  <g>
    <path class="cls-3" d="M115.98,62.77c.53-.92.67-2.01.4-3.04l-11.68-43.59c-.07-.26-.16-.51-.28-.74-.07-.14-.16-.27-.25-.4-.06-.09-.1-.18-.16-.26-.11-.15-.25-.28-.38-.41-.05-.05-.1-.11-.15-.16-.39-.35-.85-.61-1.35-.78-.03,0-.06-.01-.09-.02-.22-.07-.44-.13-.67-.16-.07,0-.15,0-.22,0-.19-.01-.37-.03-.56-.02-.26.02-.53.06-.78.13L12.62,36.68c-1.56.42-2.65,1.71-2.9,3.21-.04.07-.1.13-.14.2-.16.27-.27.56-.36.85-.37.45-.63.97-.78,1.53-.31.41-.53.87-.66,1.37-.13.16-.26.33-.36.51-.18.31-.3.65-.39.99-.22.33-.39.68-.5,1.06-.14.17-.28.35-.39.54-.18.31-.3.64-.39.99-.09.13-.19.24-.27.38-.18.31-.3.65-.39.99-.13.16-.26.33-.37.51-.18.31-.3.64-.39.98-.11.14-.22.28-.32.44-.53.92-.67,2.01-.4,3.04l11.68,43.59c.48,1.79,2.09,2.97,3.86,2.97.34,0,.69-.04,1.04-.14l87.18-23.36c1.43-.38,2.46-1.51,2.82-2.85.11-.14.22-.28.32-.44.18-.31.3-.64.39-.98.35-.44.61-.95.75-1.49.28-.37.49-.79.63-1.24.14-.17.28-.35.39-.54.18-.31.3-.65.39-.99.24-.37.42-.77.54-1.19.13-.16.26-.33.36-.51.18-.31.3-.64.39-.98.09-.13.19-.24.27-.38.16-.27.27-.56.36-.85.45-.54.75-1.19.86-1.89.04-.07.1-.13.14-.2Z"/>
    <g>
      <rect class="cls-2" x="11.79" y="40.78" width="90.26" height="45.13" transform="translate(-14.46 16.89) rotate(-15)"/>
      <rect class="cls-4" x="12.49" y="39.36" width="90.26" height="45.13" transform="translate(-14.06 17.02) rotate(-15)"/>
      <rect class="cls-2" x="13.24" y="37.86" width="90.26" height="45.13" transform="translate(-13.65 17.17) rotate(-15)"/>
      <rect class="cls-4" x="13.9" y="36.49" width="90.26" height="45.13" transform="translate(-13.27 17.29) rotate(-15)"/>
      <rect class="cls-2" x="14.65" y="35.09" width="90.26" height="45.13" transform="translate(-12.89 17.44) rotate(-15)"/>
      <rect class="cls-4" x="15.18" y="33.9" width="90.26" height="45.13" transform="translate(-12.56 17.53) rotate(-15)"/>
      <rect class="cls-2" x="15.94" y="32.4" width="90.26" height="45.13" transform="translate(-12.14 17.68) rotate(-15)"/>
      <rect class="cls-4" x="16.6" y="31.03" width="90.26" height="45.13" transform="translate(-11.77 17.8) rotate(-15)"/>
      <rect class="cls-2" x="17.34" y="29.63" width="90.26" height="45.13" transform="translate(-11.38 17.95) rotate(-15)"/>
      <rect class="cls-4" x="17.96" y="28.09" width="90.26" height="45.13" transform="translate(-10.96 18.05) rotate(-15)"/>
      <polygon class="cls-1" points="66.94 26.26 53.46 76.6 25.33 84.13 21.87 71.21 31.35 35.8 66.94 26.26"/>
      <polygon class="cls-2" points="100.84 17.18 106.1 36.81 98.69 64.48 70.19 72.11 83.67 21.78 100.84 17.18"/>
      <g>
        <path class="cls-3" d="M24.21,48.16c.12-.03.22-.02.31.03s.15.16.19.31.04.27-.01.36c-.05.09-.13.15-.26.18l-2.36.63c-.16.04-.3.03-.41-.03s-.19-.18-.23-.33l-1.2-4.48c-.04-.16-.03-.29.04-.4.07-.11.19-.19.38-.24s.34-.05.45.01c.11.06.19.17.23.32l1.1,4.1,1.76-.47Z"/>
        <path class="cls-3" d="M24.73,46.13c-.12-.45-.16-.87-.13-1.26.03-.39.13-.74.3-1.05.17-.31.4-.57.69-.79.29-.22.64-.38,1.04-.49s.76-.14,1.11-.1.67.15.96.32c.29.18.54.42.75.72.21.3.38.67.49,1.1.12.45.16.87.13,1.26-.03.39-.13.74-.3,1.05-.17.31-.4.57-.69.79-.29.22-.64.38-1.04.49s-.76.14-1.11.1-.67-.15-.96-.32c-.29-.17-.54-.41-.75-.72-.21-.3-.38-.67-.49-1.1ZM25.84,45.74c.08.32.2.58.34.8.14.22.31.39.48.52s.37.21.58.24c.21.03.41.02.62-.03s.39-.15.55-.28c.16-.13.29-.29.38-.49.09-.2.14-.43.15-.68.01-.26-.02-.55-.11-.86s-.2-.58-.34-.81c-.14-.22-.3-.39-.48-.52-.18-.13-.37-.2-.58-.24s-.41-.02-.62.03-.39.15-.55.28c-.16.13-.28.29-.37.49-.09.2-.14.43-.16.69s.02.55.11.86Z"/>
        <path class="cls-3" d="M30.46,42.55c-.12.03-.22.02-.31-.03-.09-.05-.15-.16-.19-.31s-.04-.27.01-.36c.05-.09.13-.15.25-.18l3.59-.96c.12-.03.22-.02.31.03.09.05.15.16.19.31s.04.27-.01.36c-.05.09-.13.15-.25.18l-1.24.33,1.1,4.1c.04.16.03.29-.04.4-.07.11-.19.19-.38.24s-.34.05-.45-.01c-.11-.06-.19-.17-.23-.32l-1.1-4.1-1.24.33Z"/>
        <path class="cls-3" d="M35.35,41.23c-.12.03-.22.02-.31-.03-.09-.05-.15-.16-.19-.31s-.04-.27.01-.36c.05-.09.13-.15.25-.18l3.59-.96c.12-.03.22-.02.31.03.09.05.15.16.19.31s.04.27-.01.36c-.05.09-.13.15-.25.18l-1.24.33,1.1,4.1c.04.16.03.29-.04.4-.07.11-.19.19-.38.24s-.34.05-.45-.01c-.11-.06-.19-.17-.23-.32l-1.1-4.1-1.24.33Z"/>
        <path class="cls-3" d="M42.48,43.29l1.86-.5c.11-.03.21-.02.3.04.09.05.15.15.19.29s.03.26-.01.35c-.05.09-.13.15-.24.18l-2.46.66c-.16.04-.3.03-.41-.03s-.19-.18-.23-.33l-1.19-4.44c-.04-.16-.03-.29.03-.4s.18-.19.34-.23l2.44-.65c.12-.03.22-.02.3.03.09.05.15.15.19.29s.03.26-.01.35c-.05.09-.13.15-.25.18l-1.84.49.37,1.39,1.57-.42c.11-.03.21-.02.3.04.09.05.15.15.19.29s.03.25-.02.34c-.05.09-.13.15-.24.18l-1.57.42.4,1.5Z"/>
        <path class="cls-3" d="M47.17,42.46c.04.16.03.29-.04.39-.07.11-.19.19-.37.24s-.34.04-.44-.02c-.11-.06-.19-.17-.23-.32l-1.2-4.48c-.04-.16-.03-.29.03-.4s.18-.19.34-.23l1.16-.31c.37-.1.7-.15.99-.14.29,0,.54.05.75.14s.39.22.52.39c.13.17.23.36.29.59.05.19.07.37.06.54-.01.17-.05.33-.11.49s-.15.29-.26.42c-.11.13-.24.24-.39.34l1.44,1.29c.06.06.11.11.14.15.03.04.06.09.07.15.02.08.02.15,0,.23-.02.07-.05.14-.09.21-.05.06-.1.12-.17.17-.07.05-.14.08-.22.1s-.15.03-.21.02-.12-.03-.18-.06c-.02-.01-.04-.02-.06-.04-.02-.01-.04-.03-.05-.04s-.03-.03-.05-.05c-.02-.02-.04-.04-.06-.06l-1.59-1.56-.55.15.46,1.72ZM47.05,39.75c.18-.05.33-.11.45-.18.12-.07.22-.16.28-.25.07-.09.11-.2.12-.31.02-.11,0-.23-.02-.34s-.08-.22-.15-.31-.15-.15-.25-.19c-.1-.04-.23-.07-.38-.07s-.32.03-.51.08l-.53.14.43,1.59.56-.15Z"/>
        <path class="cls-3" d="M49.71,37.45s-.07-.07-.1-.1c-.03-.03-.06-.06-.08-.09-.02-.03-.04-.06-.06-.09-.02-.03-.03-.06-.04-.1-.02-.08-.02-.17,0-.24.02-.08.05-.15.1-.22.05-.06.1-.12.17-.17.07-.05.13-.08.2-.1.08-.02.14-.02.2-.01.06.01.11.03.15.05.04.02.08.05.12.09s.1.09.17.16l1.26,1.29s.08.09.12.13c.04.04.07.08.1.12.04.04.07.08.1.12h.02c0-.05.01-.11.02-.16,0-.05.02-.1.03-.16,0-.06.02-.12.04-.18l.4-1.71c.02-.1.04-.18.06-.23.01-.05.03-.1.06-.14.03-.05.07-.09.12-.13.05-.04.1-.06.16-.08.07-.02.15-.02.22-.02.08,0,.15.03.21.06.07.03.12.07.18.13.05.05.09.12.11.19.02.07.02.14,0,.2-.01.07-.03.15-.06.25l-.8,2.84.44,1.66c.04.16.03.29-.04.4-.07.11-.2.19-.38.24s-.34.05-.45-.02c-.11-.06-.19-.17-.23-.32l-.44-1.66-2.06-2Z"/>
      </g>
      <g>
        <path class="cls-3" d="M61.92,34.96s-.05.04-.08.06c-.02.02-.04.03-.06.04-.02.01-.03.02-.05.03-.02,0-.03.01-.05.02-.03,0-.07.01-.1,0-.03,0-.06-.02-.09-.03s-.05-.04-.07-.06-.03-.06-.04-.09c-.02-.07,0-.14.03-.2.02-.04.07-.1.15-.18s.17-.18.29-.29c.07-.06.12-.12.17-.16.05-.05.09-.08.13-.11.04-.03.08-.06.11-.07.04-.02.07-.03.11-.04.1-.03.18-.02.26.02.07.04.12.11.15.21l.77,2.86c.03.1.02.18-.02.24-.04.07-.12.12-.23.15s-.21.03-.27,0c-.07-.04-.12-.1-.14-.2l-.65-2.42-.3.25Z"/>
        <path class="cls-3" d="M67.67,35.18c-.13.04-.24.03-.33-.02-.08-.05-.14-.13-.17-.24,0-.03-.01-.06-.02-.09,0-.03,0-.06,0-.09s0-.06.02-.1c0-.03.02-.07.03-.12l.61-1.77c.03-.08.05-.14.09-.2s.07-.1.11-.14c.04-.04.09-.07.14-.1s.11-.05.17-.07c.14-.04.25-.04.34,0,.09.04.15.12.18.24l.45,1.67.31-.08c.07-.02.13-.01.18.02.05.03.09.09.11.18s.02.16,0,.21-.08.09-.15.11l-.31.08.17.63c.03.1.02.18-.02.24-.04.06-.11.11-.23.14s-.2.03-.26,0c-.07-.03-.11-.1-.14-.2l-.17-.63-1.11.3ZM68.28,33.01l-.53,1.58.89-.24-.36-1.34Z"/>
        <path class="cls-3" d="M73.5,31.86s-.05.04-.08.06c-.02.02-.04.03-.06.04-.02.01-.03.02-.05.03-.02,0-.03.01-.05.02-.03,0-.07.01-.1,0-.03,0-.06-.02-.09-.03s-.05-.04-.07-.06-.03-.06-.04-.09c-.02-.07,0-.14.03-.2.02-.04.07-.1.15-.18s.17-.18.29-.29c.07-.06.12-.12.17-.16.05-.05.09-.08.13-.11.04-.03.08-.06.11-.07.04-.02.07-.03.11-.04.1-.03.18-.02.26.02.07.04.12.11.15.21l.77,2.86c.03.1.02.18-.02.24-.04.07-.12.12-.23.15s-.21.03-.27,0c-.07-.04-.12-.1-.14-.2l-.65-2.42-.3.25Z"/>
        <path class="cls-3" d="M79.34,30.72c.26-.06.48-.08.67-.07.19.01.36.05.5.11.14.06.25.15.34.27.09.11.15.25.19.4.04.16.06.32.04.47-.02.15-.07.29-.15.42s-.2.24-.35.34c-.15.1-.33.17-.54.23-.1.03-.2.05-.29.06-.09.01-.17.02-.24.01-.07,0-.13,0-.18-.02s-.09-.03-.12-.04c-.04-.02-.07-.05-.09-.08-.02-.03-.04-.07-.06-.12-.02-.07-.01-.13.02-.18.03-.05.08-.08.14-.1.04,0,.07-.01.11,0s.08.01.14.02.11,0,.18,0c.07,0,.15-.02.25-.04s.18-.06.25-.11.12-.1.16-.16c.04-.06.06-.13.07-.2,0-.07,0-.15-.02-.24-.02-.09-.07-.17-.13-.23s-.14-.12-.24-.15c-.1-.03-.22-.05-.37-.04s-.31.03-.5.08c-.08.02-.15.02-.2-.01-.05-.03-.08-.09-.1-.17l-.28-1.3c-.02-.09-.01-.16.02-.22.04-.06.1-.1.19-.12l1.31-.35c.07-.02.13-.01.19.02.06.03.1.1.12.19s.02.17,0,.23c-.03.06-.08.1-.15.11l-1.04.28.16.74Z"/>
        <path class="cls-3" d="M84.74,28.84s-.05.04-.08.06c-.02.02-.04.03-.06.04-.02.01-.03.02-.05.03-.02,0-.03.01-.05.02-.03,0-.07.01-.1,0-.03,0-.06-.02-.09-.03s-.05-.04-.07-.06-.03-.06-.04-.09c-.02-.07,0-.14.03-.2.02-.04.07-.1.15-.18s.17-.18.29-.29c.07-.06.12-.12.17-.16.05-.05.09-.08.13-.11.04-.03.08-.06.11-.07.04-.02.07-.03.11-.04.1-.03.18-.02.26.02.07.04.12.11.15.21l.77,2.86c.03.1.02.18-.02.24-.04.07-.12.12-.23.15s-.21.03-.27,0c-.07-.04-.12-.1-.14-.2l-.65-2.42-.3.25Z"/>
        <path class="cls-3" d="M90.09,27.41s-.05.04-.08.06c-.02.02-.04.03-.06.04-.02.01-.03.02-.05.03-.02,0-.03.01-.05.02-.03,0-.07.01-.1,0-.03,0-.06-.02-.09-.03s-.05-.04-.07-.06-.03-.06-.04-.09c-.02-.07,0-.14.03-.2.02-.04.07-.1.15-.18s.17-.18.29-.29c.07-.06.12-.12.17-.16.05-.05.09-.08.13-.11.04-.03.08-.06.11-.07.04-.02.07-.03.11-.04.1-.03.18-.02.26.02.07.04.12.11.15.21l.77,2.86c.03.1.02.18-.02.24-.04.07-.12.12-.23.15s-.21.03-.27,0c-.07-.04-.12-.1-.14-.2l-.65-2.42-.3.25Z"/>
        <path class="cls-3" d="M97.55,27.55c.07-.02.13-.01.19.02.05.04.09.1.12.19s.02.17,0,.22-.08.1-.15.12l-1.7.46c-.11.03-.21.02-.29-.02-.08-.04-.13-.12-.16-.22-.02-.07-.02-.13-.01-.2.01-.06.04-.13.08-.21l.42-.83c.09-.17.16-.32.23-.45.06-.13.11-.24.15-.34s.05-.19.06-.28,0-.17-.02-.26c-.04-.15-.11-.25-.22-.31-.11-.05-.25-.06-.44,0-.07.02-.14.04-.19.07-.05.03-.1.05-.14.08-.04.03-.08.05-.11.07-.03.02-.07.04-.1.05-.06.02-.11.01-.16-.02s-.08-.08-.1-.14c-.02-.07-.01-.14.03-.2.02-.04.05-.07.1-.12.05-.04.1-.08.17-.13s.15-.08.24-.12c.09-.04.19-.07.3-.1.18-.05.35-.07.49-.07.15,0,.28.03.39.09s.2.13.28.22c.07.09.13.21.16.34s.05.27.04.39c0,.13-.03.26-.08.4-.05.14-.11.3-.19.46s-.18.36-.3.58l-.33.61,1.29-.34Z"/>
      </g>
      <g>
        <path class="cls-3" d="M71.56,45.97l-.06-.22.58-1.11c.07-.13.12-.24.16-.34.04-.09.07-.18.08-.26.01-.08,0-.15-.01-.23-.02-.09-.06-.16-.12-.21-.06-.05-.13-.09-.21-.1s-.17-.01-.26.01c-.1.03-.17.07-.23.13s-.1.13-.12.21c-.02.08-.02.17,0,.26l-.28.08c-.04-.14-.04-.28,0-.41.04-.13.11-.24.2-.33s.22-.16.36-.2.28-.04.41-.01c.13.03.24.09.33.18s.15.19.19.32c.02.09.03.18.02.28,0,.1-.04.21-.09.33-.05.13-.13.29-.23.48l-.4.74v.02s1.15-.31,1.15-.31l.07.27-1.56.42Z"/>
        <path class="cls-3" d="M73.37,44.94l-.07-.25.63-2.01.18-.05.1.38-.12.03-.47,1.52v.02s1.47-.39,1.47-.39l.07.27-1.79.48ZM74.67,45.13l-.16-.58-.03-.11-.48-1.78.29-.08.66,2.47-.29.08Z"/>
        <path class="cls-3" d="M77.03,41.85l.3-.08.47,1.77c.04.16.05.3.02.43-.03.13-.09.23-.18.32s-.21.15-.35.19c-.14.04-.26.04-.38.02-.12-.02-.22-.07-.31-.15-.08-.08-.14-.18-.18-.3l.29-.08c.02.07.05.13.1.17.05.04.11.07.18.08.07.01.14,0,.22-.01.09-.02.15-.06.21-.11.05-.05.08-.12.1-.2.01-.08,0-.17-.02-.27l-.47-1.77Z"/>
        <path class="cls-3" d="M79.55,41.17l.3-.08.44,1.64c.05.17.05.33,0,.48-.04.15-.13.29-.25.4-.12.11-.28.2-.48.25s-.37.06-.54.02-.3-.11-.42-.22c-.11-.11-.19-.25-.24-.42l-.44-1.64.3-.08.43,1.61c.03.12.09.22.17.3s.17.13.29.16c.11.03.24.02.38-.01s.25-.1.33-.18c.08-.08.14-.17.17-.28.03-.11.02-.22,0-.34l-.43-1.61Z"/>
        <path class="cls-3" d="M82.41,40.41l.66,2.47-.29.08-1.87-1.58h-.02s.52,1.95.52,1.95l-.3.08-.66-2.47.29-.08,1.87,1.58h.02s-.52-1.95-.52-1.95l.29-.08Z"/>
        <path class="cls-3" d="M83.67,42.72l-.66-2.47,1.49-.4.07.27-1.19.32.22.84,1.12-.3.07.27-1.12.3.23.84,1.21-.32.07.27-1.51.41Z"/>
        <path class="cls-3" d="M86.83,39.23l.66,2.47-.3.08-.58-2.16h-.01s-.5.57-.5.57l-.08-.3.51-.58.3-.08Z"/>
        <path class="cls-3" d="M88.32,38.79c.1-.03.21-.03.32-.02.11.01.22.05.33.11s.21.17.3.3c.09.14.17.32.23.55s.09.42.09.6c0,.18-.02.34-.06.48-.05.14-.12.25-.21.34-.09.09-.21.15-.35.19s-.27.04-.39.02c-.12-.03-.23-.08-.33-.16-.1-.08-.17-.18-.22-.31l.29-.08c.06.11.13.19.23.24.1.05.21.06.34.03.19-.05.32-.17.39-.37s.06-.45-.02-.75h-.02c-.03.08-.06.16-.11.22-.05.07-.11.12-.18.17s-.15.08-.23.1c-.14.04-.28.04-.42,0-.14-.04-.26-.11-.36-.22s-.18-.24-.22-.4c-.04-.15-.04-.3,0-.44.03-.14.1-.27.21-.38.1-.11.24-.18.41-.23ZM88.39,39.06c-.1.03-.19.08-.25.15-.07.07-.11.16-.14.25-.02.1-.02.2,0,.3s.08.19.14.26.15.12.24.15c.09.03.19.03.29,0,.08-.02.14-.05.2-.1.06-.05.1-.1.14-.17s.06-.14.07-.21,0-.15-.01-.22c-.03-.1-.07-.18-.14-.25-.07-.07-.15-.12-.25-.15s-.19-.03-.3,0Z"/>
        <path class="cls-3" d="M91.16,40.75c-.16.04-.31.05-.45.03-.14-.02-.26-.07-.36-.15-.1-.08-.17-.18-.21-.31l.3-.08c.03.08.07.14.14.18.06.04.14.07.23.08.09.01.18,0,.27-.02.11-.03.2-.07.27-.13.07-.06.12-.13.15-.21s.03-.16,0-.25-.07-.17-.13-.22-.14-.09-.24-.11c-.1-.02-.21,0-.33.03l-.2.05-.07-.27.2-.05c.1-.03.18-.07.24-.12s.11-.12.13-.2.03-.16,0-.24-.06-.15-.11-.2c-.05-.05-.12-.09-.2-.1-.08-.02-.16-.01-.25.01-.09.02-.16.06-.23.11-.07.05-.12.11-.15.18-.03.07-.04.15-.02.23l-.29.08c-.03-.13-.02-.26.03-.37s.12-.22.23-.31c.1-.09.23-.15.37-.19.15-.04.29-.05.42-.01.13.03.23.09.32.18.09.09.14.19.18.3.04.14.03.27-.01.39-.05.12-.13.21-.24.28v.02c.17-.02.31.02.42.1.12.08.2.2.24.36.04.13.03.26-.01.39-.04.13-.12.24-.23.33-.11.09-.24.16-.4.21Z"/>
        <path class="cls-3" d="M92.48,40.36l-.06-.22.58-1.11c.07-.13.12-.24.16-.34.04-.09.07-.18.08-.26.01-.08,0-.15-.01-.23-.02-.09-.06-.16-.12-.21-.06-.05-.13-.09-.21-.1s-.17-.01-.26.01c-.1.03-.17.07-.23.13s-.1.13-.12.21c-.02.08-.02.17,0,.26l-.28.08c-.04-.14-.04-.28,0-.41.04-.13.11-.24.2-.33s.22-.16.36-.2.28-.04.41-.01c.13.03.24.09.33.18s.15.19.19.32c.02.09.03.18.02.28,0,.1-.04.21-.09.33-.05.13-.13.29-.23.48l-.4.74v.02s1.15-.31,1.15-.31l.07.27-1.56.42Z"/>
      </g>
      <g>
        <path class="cls-3" d="M69.98,55.22l-.66-2.47.98-.26c.19-.05.36-.06.51-.02s.28.11.38.21c.1.11.18.24.22.41s.05.32.01.46c-.04.14-.11.27-.23.38-.12.11-.27.18-.46.24l-.62.17-.11-.42.54-.14c.1-.03.18-.07.24-.12.06-.05.09-.11.11-.19.02-.07.01-.15,0-.23s-.06-.15-.11-.2c-.05-.05-.11-.09-.19-.1-.08-.02-.16-.01-.26.02l-.35.09.55,2.05-.52.14Z"/>
        <path class="cls-3" d="M72.99,54.45c-.19.05-.37.06-.52.02-.16-.04-.29-.12-.41-.25-.11-.12-.19-.28-.25-.48s-.06-.37-.02-.53c.04-.16.11-.3.22-.42.11-.12.26-.2.44-.25.12-.03.24-.04.36-.03.12.01.22.04.32.1.1.06.19.14.26.24.08.11.13.24.18.4l.04.14-1.57.42-.09-.32,1.08-.29c-.02-.07-.05-.14-.1-.18s-.1-.08-.17-.1-.14-.02-.21,0-.14.06-.19.11-.08.11-.1.18-.02.14,0,.21l.08.3c.02.09.06.17.12.22.05.06.11.1.19.12.07.02.15.02.24,0,.06-.02.11-.04.15-.07.04-.03.08-.06.1-.11.03-.04.04-.09.05-.14l.48-.1c0,.12-.02.23-.07.34-.05.1-.13.2-.23.27-.1.08-.23.14-.39.18Z"/>
        <path class="cls-3" d="M74.17,54.1l-.5-1.85.5-.13.09.32h.02c0-.13.04-.23.1-.31.06-.08.15-.13.25-.16.03,0,.05-.01.08-.02.03,0,.06,0,.08,0l.12.46s-.06,0-.11,0c-.04,0-.08.01-.12.02-.08.02-.14.05-.19.1-.05.05-.08.11-.1.17s-.02.14,0,.21l.28,1.05-.51.14Z"/>
        <path class="cls-3" d="M75.26,51.56c-.08.02-.15.01-.22-.02-.07-.04-.11-.09-.13-.16s0-.14.03-.21c.04-.07.1-.11.18-.13s.15-.01.22.02c.07.04.11.09.13.16s0,.14-.03.21c-.04.07-.1.11-.18.13ZM75.56,53.72l-.5-1.85.51-.14.5,1.85-.51.14Z"/>
        <path class="cls-3" d="M77.33,53.29c-.19.05-.36.05-.52.01-.16-.04-.29-.13-.41-.25-.11-.12-.19-.28-.25-.47s-.06-.37-.02-.53c.04-.16.11-.3.23-.42.12-.12.27-.2.45-.25s.36-.05.52-.01c.16.04.29.13.41.25.11.12.19.28.25.47s.06.37.02.53c-.04.16-.11.3-.23.42-.12.12-.27.2-.45.25ZM77.23,52.89c.09-.02.15-.07.19-.13s.07-.14.08-.23c0-.09,0-.19-.03-.3s-.07-.2-.12-.28-.11-.13-.18-.17-.15-.04-.23-.02-.15.07-.2.13-.07.14-.08.24c0,.09,0,.19.03.3s.07.2.12.28c.05.08.11.13.19.16s.15.04.24.01Z"/>
        <path class="cls-3" d="M79.26,52.76c-.14.04-.28.04-.41,0-.13-.04-.25-.13-.36-.25-.1-.12-.18-.29-.24-.5s-.07-.4-.04-.56c.03-.16.09-.29.19-.39.09-.1.21-.17.35-.21.1-.03.2-.03.27-.02.08.02.15.04.2.09s.1.08.14.13h.02s-.25-.93-.25-.93l.51-.14.66,2.47-.51.14-.08-.3h-.02c-.01.06-.03.12-.06.19-.03.06-.08.12-.14.17-.06.05-.14.09-.24.12ZM79.32,52.31c.08-.02.15-.06.19-.12.05-.06.07-.14.08-.23s0-.19-.03-.3-.07-.2-.12-.28c-.05-.07-.11-.12-.18-.15-.07-.03-.15-.03-.23,0s-.15.06-.2.13c-.05.06-.07.14-.08.23,0,.09,0,.19.03.29s.07.2.12.27c.05.07.11.13.18.16.07.03.15.03.23.01Z"/>
        <path class="cls-3" d="M83.29,51.71c-.21.05-.4.05-.58,0-.18-.06-.33-.18-.46-.35-.13-.17-.23-.39-.31-.66-.07-.27-.09-.51-.06-.72.03-.21.11-.39.23-.53s.29-.24.49-.29.4-.05.57,0,.33.17.46.34c.13.17.23.39.3.66.07.27.09.51.07.73-.03.21-.1.39-.23.53s-.29.24-.49.3ZM83.17,51.28c.14-.04.24-.14.28-.3.05-.17.03-.39-.05-.67-.05-.19-.11-.34-.18-.45-.07-.11-.15-.19-.24-.24-.09-.04-.18-.05-.27-.03-.14.04-.23.14-.28.3-.05.16-.03.39.04.67.05.19.11.34.18.46.07.12.15.2.24.24s.18.05.27.03Z"/>
        <path class="cls-3" d="M85.06,48.53l.66,2.47-.52.14-.53-1.98h-.01s-.47.51-.47.51l-.12-.46.51-.55.49-.13Z"/>
        <path class="cls-3" d="M89.56,48.09c-.04-.09-.1-.16-.19-.19s-.19-.03-.32,0c-.09.02-.15.05-.21.09-.05.04-.09.08-.11.13s-.02.1,0,.15c.01.04.03.08.06.11.03.03.07.05.11.06.04.01.09.02.14.03s.11,0,.16,0h.24c.11-.01.22,0,.32.01.1.02.19.04.27.09.08.04.15.1.21.17.06.07.1.16.13.26.04.15.04.29,0,.42s-.13.25-.26.35c-.13.1-.29.18-.49.23s-.38.07-.55.05-.3-.08-.42-.18c-.11-.1-.2-.24-.25-.41l.51-.14c.03.08.07.14.13.19.06.04.13.07.2.08.08,0,.16,0,.25-.02s.16-.06.22-.1.1-.09.12-.15.03-.11.01-.17c-.01-.06-.04-.1-.09-.13-.04-.03-.1-.05-.17-.06s-.15-.01-.25-.01h-.29c-.22,0-.41-.03-.56-.1s-.25-.2-.3-.39c-.04-.15-.04-.29.01-.42.05-.13.14-.25.26-.35.12-.1.28-.18.46-.22s.35-.06.51-.03c.15.03.28.08.39.18.11.09.18.21.22.36l-.5.13Z"/>
        <path class="cls-3" d="M91.76,49.42c-.19.05-.37.06-.52.02-.16-.04-.29-.12-.41-.25-.11-.12-.19-.28-.25-.48s-.06-.37-.02-.53c.04-.16.11-.3.22-.42.11-.12.26-.2.44-.25.12-.03.24-.04.36-.03.12.01.22.04.32.1.1.06.19.14.26.24.08.11.13.24.18.4l.04.14-1.57.42-.09-.32,1.08-.29c-.02-.07-.05-.14-.1-.18s-.1-.08-.17-.1-.14-.02-.21,0-.14.06-.19.11-.08.11-.1.18-.02.14,0,.21l.08.3c.02.09.06.17.12.22.05.06.11.1.19.12.07.02.15.02.24,0,.06-.02.11-.04.15-.07.04-.03.08-.06.1-.11.03-.04.04-.09.05-.14l.48-.1c0,.12-.02.23-.07.34-.05.1-.13.2-.23.27-.1.08-.23.14-.39.18Z"/>
        <path class="cls-3" d="M93.43,46.95l.1.39-1.12.3-.1-.39,1.12-.3ZM92.44,46.74l.51-.14.46,1.73s.03.08.05.1c.02.02.05.04.08.04s.06,0,.1,0c.02,0,.05-.02.07-.03.02-.01.04-.02.05-.03l.18.36s-.06.03-.1.06-.1.05-.16.07c-.12.04-.24.05-.34.04s-.19-.05-.26-.12-.13-.16-.16-.28l-.48-1.8Z"/>
        <path class="cls-3" d="M96.05,45.55c.13-.03.26-.05.38-.03.13.01.25.05.37.12.12.07.23.17.32.31.1.14.17.32.23.54.06.21.08.4.08.58,0,.18-.03.34-.09.47s-.14.25-.25.35c-.11.09-.24.16-.39.2-.17.04-.32.05-.46.02-.14-.03-.27-.09-.38-.18s-.19-.2-.24-.34l.52-.14c.04.08.11.14.18.18.08.03.16.04.26.01.16-.04.26-.15.31-.31s.04-.37-.03-.61h-.02c-.02.09-.05.16-.1.23s-.11.13-.18.18c-.07.05-.16.09-.25.11-.15.04-.29.04-.42,0-.13-.04-.25-.11-.35-.21-.1-.1-.17-.23-.21-.38-.05-.17-.05-.32,0-.47.04-.15.12-.28.24-.39s.27-.19.46-.24ZM96.17,45.96c-.08.02-.15.06-.2.12-.05.06-.09.12-.11.2-.02.08-.02.15,0,.23.02.08.06.15.11.2.05.06.12.09.19.12.07.02.15.02.23,0,.06-.02.11-.04.16-.08.05-.04.08-.08.11-.13s.05-.1.05-.16,0-.12-.01-.18c-.02-.08-.06-.14-.11-.2-.05-.06-.12-.09-.19-.12s-.15-.02-.23,0Z"/>
        <path class="cls-3" d="M98.3,44.95c.13-.03.26-.05.38-.03.13.01.25.05.37.12.12.07.23.17.32.31.1.14.17.32.23.54.06.21.08.4.08.58,0,.18-.03.34-.09.47s-.14.25-.25.35c-.11.09-.24.16-.39.2-.17.04-.32.05-.46.02-.14-.03-.27-.09-.38-.18s-.19-.2-.24-.34l.52-.14c.04.08.11.14.18.18.08.03.16.04.26.01.16-.04.26-.15.31-.31s.04-.37-.03-.61h-.02c-.02.09-.05.16-.1.23s-.11.13-.18.18c-.07.05-.16.09-.25.11-.15.04-.29.04-.42,0-.13-.04-.25-.11-.35-.21-.1-.1-.17-.23-.21-.38-.05-.17-.05-.32,0-.47.04-.15.12-.28.24-.39s.27-.19.46-.24ZM98.41,45.35c-.08.02-.15.06-.2.12-.05.06-.09.12-.11.2-.02.08-.02.15,0,.23.02.08.06.15.11.2.05.06.12.09.19.12.07.02.15.02.23,0,.06-.02.11-.04.16-.08.05-.04.08-.08.11-.13s.05-.1.05-.16,0-.12-.01-.18c-.02-.08-.06-.14-.11-.2-.05-.06-.12-.09-.19-.12s-.15-.02-.23,0Z"/>
      </g>
      <g>
        <rect class="cls-3" x="68.81" y="57.99" width=".49" height="8.8" transform="translate(-13.79 20) rotate(-15)"/>
        <rect class="cls-3" x="69.72" y="57.75" width=".49" height="8.8" transform="translate(-13.7 20.23) rotate(-15)"/>
        <rect class="cls-3" x="71.1" y="57.38" width=".44" height="8.8" transform="translate(-13.56 20.56) rotate(-15)"/>
        <rect class="cls-3" x="71.52" y="57.26" width=".49" height="8.8" transform="translate(-13.51 20.68) rotate(-15)"/>
        <rect class="cls-3" x="72.43" y="57.02" width=".49" height="8.8" transform="translate(-13.42 20.9) rotate(-15)"/>
        <rect class="cls-3" x="73.33" y="56.78" width=".49" height="8.8" transform="translate(-13.33 21.13) rotate(-15)"/>
        <rect class="cls-3" x="74.23" y="56.54" width=".49" height="8.8" transform="translate(-13.23 21.35) rotate(-15)"/>
        <rect class="cls-3" x="75.38" y="56.26" width=".25" height="8.8" transform="translate(-13.13 21.61) rotate(-15)"/>
        <rect class="cls-3" x="76.04" y="56.05" width=".49" height="8.8" transform="translate(-13.05 21.8) rotate(-15)"/>
        <rect class="cls-3" x="77.42" y="55.68" width=".49" height="8.8" transform="translate(-12.9 22.15) rotate(-15)"/>
        <rect class="cls-3" x="77.85" y="55.57" width=".49" height="8.8" transform="translate(-12.86 22.26) rotate(-15)"/>
        <rect class="cls-3" x="78.75" y="55.33" width=".49" height="8.8" transform="translate(-12.77 22.48) rotate(-15)"/>
        <rect class="cls-3" x="79.66" y="55.12" width=".25" height="8.8" transform="translate(-12.69 22.68) rotate(-15)"/>
        <rect class="cls-3" x="80.55" y="54.84" width=".49" height="8.8" transform="translate(-12.58 22.93) rotate(-15)"/>
        <rect class="cls-3" x="81.46" y="54.6" width=".49" height="8.8" transform="translate(-12.49 23.16) rotate(-15)"/>
        <rect class="cls-3" x="82.84" y="54.24" width=".44" height="8.8" transform="translate(-12.35 23.5) rotate(-15)"/>
        <rect class="cls-3" x="83.26" y="54.12" width=".49" height="8.8" transform="translate(-12.3 23.61) rotate(-15)"/>
        <rect class="cls-3" x="84.17" y="53.88" width=".49" height="8.8" transform="translate(-12.21 23.83) rotate(-15)"/>
        <rect class="cls-3" x="84.65" y="53.75" width=".44" height="8.8" transform="translate(-12.16 23.95) rotate(-15)"/>
        <rect class="cls-3" x="85.97" y="53.39" width=".49" height="8.8" transform="translate(-12.02 24.28) rotate(-15)"/>
        <rect class="cls-3" x="87.12" y="53.12" width=".25" height="8.8" transform="translate(-11.91 24.54) rotate(-15)"/>
        <rect class="cls-3" x="88.02" y="52.88" width=".25" height="8.8" transform="translate(-11.82 24.77) rotate(-15)"/>
        <rect class="cls-3" x="88.68" y="52.67" width=".49" height="8.8" transform="translate(-11.74 24.96) rotate(-15)"/>
        <rect class="cls-3" x="89.59" y="52.42" width=".49" height="8.8" transform="translate(-11.65 25.19) rotate(-15)"/>
        <rect class="cls-3" x="90.49" y="52.21" width=".24" height="8.8" transform="translate(-11.57 25.38) rotate(-15)"/>
        <rect class="cls-3" x="91.87" y="51.82" width=".44" height="8.8" transform="translate(-11.41 25.75) rotate(-15)"/>
        <rect class="cls-3" x="92.3" y="51.7" width=".49" height="8.8" transform="translate(-11.37 25.86) rotate(-15)"/>
        <rect class="cls-3" x="93.2" y="51.46" width=".49" height="8.8" transform="translate(-11.27 26.09) rotate(-15)"/>
        <rect class="cls-3" x="94.11" y="51.25" width=".25" height="8.8" transform="translate(-11.19 26.28) rotate(-15)"/>
        <rect class="cls-3" x="95.25" y="50.94" width=".25" height="8.8" transform="translate(-11.07 26.57) rotate(-15)"/>
        <rect class="cls-3" x="95.91" y="50.73" width=".49" height="8.8" transform="translate(-10.99 26.77) rotate(-15)"/>
        <rect class="cls-3" x="96.81" y="50.49" width=".49" height="8.8" transform="translate(-10.9 26.99) rotate(-15)"/>
        <rect class="cls-3" x="98.19" y="50.12" width=".44" height="8.8" transform="translate(-10.76 27.33) rotate(-15)"/>
        <rect class="cls-3" x="98.62" y="50" width=".49" height="8.8" transform="translate(-10.71 27.44) rotate(-15)"/>
        <rect class="cls-3" x="99.52" y="49.76" width=".49" height="8.8" transform="translate(-10.62 27.67) rotate(-15)"/>
        <rect class="cls-3" x="100.42" y="49.52" width=".49" height="8.8" transform="translate(-10.53 27.89) rotate(-15)"/>
        <rect class="cls-3" x="101.52" y="49.25" width=".3" height="8.8" transform="translate(-10.42 28.14) rotate(-15)"/>
        <rect class="cls-3" x="102.23" y="49.04" width=".49" height="8.8" transform="translate(-10.34 28.34) rotate(-15)"/>
        <rect class="cls-3" x="102.71" y="48.91" width=".44" height="8.8" transform="translate(-10.29 28.46) rotate(-15)"/>
        <rect class="cls-3" x="104.28" y="48.52" width=".25" height="8.8" transform="translate(-10.14 28.82) rotate(-15)"/>
      </g>
      <g class="cls-5">
        <path class="cls-2" d="M43.63,75.38s-.11.03-.18.03c-.65.02-1.68-.71-2.82-2.03-1.21-1.39-2.35-3.21-3.21-5.14-4.76.53-9.02-.59-9.32-1.63-.02-.07-.03-.14-.03-.22.02-1.35,3.08-4.17,7.17-6-.53-4.76.59-9.03,1.63-9.32.04,0,.07-.02.11-.02.04,0,.07,0,.11,0,.17,0,.35.05.54.13,1.43.61,3.84,3.4,5.46,7.04,4.76-.53,9.03.59,9.32,1.63.01.05.03.11.03.19.05,1.3-3.06,4.2-7.17,6.03.54,4.77-.59,9.03-1.63,9.32ZM37.01,51.57c-.56.15-1.83,3.98-1.23,8.94.01.11-.05.23-.16.27-4.52,1.97-7.02,4.73-7.03,5.6,0,.04,0,.07,0,.08.15.56,3.98,1.83,8.94,1.23.11-.01.23.05.27.16.85,1.95,1.99,3.79,3.2,5.19,1.13,1.29,2.03,1.86,2.42,1.85l.12.25-.07-.25c.56-.15,1.83-3.97,1.23-8.92,0-.03,0-.05,0-.08,0-.1.07-.18.15-.22,4.42-1.92,7.07-4.73,7.03-5.62l.24-.13-.25.07c-.16-.56-3.98-1.83-8.93-1.23-.12.02-.24-.04-.29-.15-1.73-3.97-4.12-6.45-5.27-6.95-.16-.07-.27-.09-.33-.09-.04,0-.05,0-.07.01Z"/>
        <path class="cls-2" d="M41.11,66.43c-1.76.47-3.57-.56-4.06-2.32-.24-.85-.13-1.75.31-2.52.44-.77,1.15-1.33,2-1.57.87-.22,1.75-.13,2.52.31.77.44,1.33,1.15,1.57,2h0c.49,1.76-.55,3.6-2.31,4.09h-.03ZM39.53,60.52h-.02c-.72.21-1.32.67-1.69,1.32s-.46,1.41-.26,2.13c.41,1.48,1.94,2.35,3.42,1.95h.02c1.49-.42,2.36-1.96,1.95-3.45-.2-.72-.67-1.32-1.32-1.69-.64-.36-1.39-.46-2.1-.27Z"/>
        <rect class="cls-2" x="41.15" y="59.26" width="2.38" height=".52" transform="translate(-30.38 66.43) rotate(-60)"/>
        <rect class="cls-2" x="36.98" y="66.66" width="2.39" height=".52" transform="translate(-38.86 66.52) rotate(-60)"/>
        <rect class="cls-2" x="36.29" y="59.95" width=".52" height="2.38" transform="translate(-34.67 62.22) rotate(-60)"/>
        <rect class="cls-2" x="43.69" y="64.12" width=".52" height="2.38" transform="translate(-34.58 70.72) rotate(-60)"/>
      </g>
    </g>
  </g>
  <g>
    <path class="cls-3" d="M113.75,85.38v2.5c0,2.84-.34,5.4-1.03,7.61-.72,2.33-1.78,4.34-3.13,5.95-1.42,1.69-3.15,2.98-5.13,3.83-1.89.81-3.97,1.22-6.17,1.22s-4.17-.38-5.99-1.13c-1.95-.8-3.63-2.03-5.01-3.67-.46-.54-.87-1.15-1.25-1.78h-.51c-.03,2.35-1.07,3.82-1.95,4.63-1.21,1.13-2.82,1.69-4.78,1.69s-3.57-.57-4.78-1.7c-.87-.82-1.89-2.28-1.92-4.62h-.25c-.08.87-.31,1.7-.73,2.48-.42.78-.96,1.46-1.6,2.04-.65.58-1.38,1.03-2.16,1.35-.83.34-1.69.51-2.55.51-.75,0-1.48-.13-2.17-.39-.61-.23-1.18-.56-1.68-.97-.23-.19-.45-.4-.65-.63-.15-.14-.32-.32-.52-.55-.14-.17-.3-.37-.5-.62l-1.27-1.54-.98,1.33c-.18.25-.33.45-.45.61l-.22.28c-.12.16-.22.28-.3.37-.11.13-.22.25-.33.36-.56.56-1.22,1-1.94,1.3-1.47.61-3.21.6-4.8-.05-.74-.3-1.43-.72-2.04-1.26-.62-.55-1.14-1.2-1.54-1.94-.49-.91-.74-1.9-.74-2.95,0-.03,0-.07.01-.1-.01-.05-.01-.1-.01-.15,0-.03,0-.07.01-.1-.01-.05-.01-.1-.01-.15,0-.03,0-.07.01-.1-.01-.05-.01-.1-.01-.15,0-.03,0-.07.01-.1-.01-.05-.01-.1-.01-.15,0-.03,0-.07.01-.1-.01-.05-.01-.1-.01-.15,0-.03,0-.07.01-.1-.01-.05-.01-.1-.01-.15,0-.03,0-.07.01-.1-.01-.05-.01-.1-.01-.15,0-.03,0-.07.01-.1-.01-.05-.01-.1-.01-.15,0-.03,0-.07.01-.1-.01-.05-.01-.1-.01-.15,0-.03,0-.07.01-.1-.01-.05-.01-.1-.01-.15,0-.68.11-1.35.34-1.97.18-.48.4-.92.68-1.34.22-.34.47-.66.73-.97.14-.16.28-.32.43-.49l1.56-1.79-1-1.15c-.21-.24-.41-.46-.58-.66-.26-.3-.49-.59-.68-.87-.32-.44-.57-.91-.76-1.4-.25-.65-.38-1.34-.38-2.05,0-.06.01-.11.01-.16,0-.03-.01-.06-.01-.09,0-.06.01-.11.01-.16,0-.03-.01-.06-.01-.09,0-.06.01-.11.01-.16,0-.03-.01-.06-.01-.09,0-.06.01-.11.01-.16,0-.03-.01-.06-.01-.09,0-.06.01-.11.01-.16,0-.03-.01-.06-.01-.09,0-.06.01-.11.01-.16,0-.03-.01-.06-.01-.09,0-.06.01-.11.01-.16,0-.03-.01-.06-.01-.09,0-.06.01-.11.01-.16,0-.03-.01-.06-.01-.09,0-.06.01-.11.01-.16,0-.03-.01-.06-.01-.09,0-.06.01-.11.01-.16,0-.03-.01-.06-.01-.09,0-1.09.25-2.13.76-3.07.42-.79.97-1.47,1.62-2.05.64-.57,1.36-1.02,2.14-1.34,1.55-.63,3.22-.67,4.65-.15.65.23,1.23.57,1.75,1.01.08.07.16.13.24.21.14.11.31.28.52.5.12.14.27.31.45.53l1.36,1.66,1.04-1.42c.11-.14.21-.28.3-.39.19-.25.36-.44.5-.58l.13.12s.05-.04.08-.07l-.13-.13c.59-.59,1.21-1.01,1.9-1.31.04-.02.08-.03.12-.05,1.07-.44,2.31-.55,3.53-.31.29-.6.68-1.16,1.16-1.65.49-.49,1.15-.99,2.14-1.62.79-.51,1.8-1.1,2.99-1.75.65-.35,1.2-.65,1.68-.9.6-.31,1.13-.56,1.62-.75.54-.22,1.06-.39,1.55-.51.63-.14,1.25-.22,1.87-.22,2.36,0,3.86,1,4.7,1.84.84.85,1.84,2.35,1.84,4.71v.87h.24c.51-.93,1.08-1.79,1.73-2.56,1.42-1.69,3.14-2.98,5.11-3.83,1.89-.82,3.98-1.23,6.19-1.23s4.16.38,5.99,1.14c1.94.8,3.62,2.03,4.99,3.67,1.31,1.55,2.32,3.48,3.01,5.74.64,2.11.96,4.57.96,7.32Z"/>
    <g>
      <path class="cls-4" d="M109.75,85.5s0-.08,0-.12c0-2.37-.26-4.42-.79-6.16s-1.27-3.18-2.24-4.33c-.96-1.14-2.12-1.99-3.46-2.55-1.34-.55-2.83-.83-4.47-.83s-3.21.3-4.61.9c-1.4.6-2.61,1.51-3.63,2.73-1.02,1.22-1.82,2.74-2.39,4.57-.57,1.83-.85,3.96-.85,6.41,0,.04,0,.08,0,.13,0,.04,0,.08,0,.12s0,.08,0,.13c0,.04,0,.08,0,.12s0,.08,0,.13c0,.04,0,.08,0,.12s0,.08,0,.13c0,.04,0,.08,0,.12s0,.08,0,.13c0,.04,0,.08,0,.12s0,.08,0,.13c0,.04,0,.08,0,.12s0,.08,0,.13c0,.04,0,.08,0,.12s0,.08,0,.13c0,.04,0,.08,0,.12s0,.08,0,.13c0,.04,0,.08,0,.12s0,.08,0,.13c0,.04,0,.08,0,.12,0,2.37.26,4.42.79,6.16.53,1.74,1.27,3.18,2.24,4.33.96,1.14,2.12,1.99,3.47,2.55,1.35.56,2.84.83,4.48.83s3.19-.3,4.6-.9c1.41-.6,2.62-1.51,3.63-2.72s1.81-2.73,2.38-4.57c.57-1.83.85-3.97.85-6.42,0-.04,0-.08,0-.13,0-.04,0-.08,0-.12s0-.08,0-.13c0-.04,0-.08,0-.12s0-.08,0-.13c0-.04,0-.08,0-.12s0-.08,0-.13c0-.04,0-.08,0-.12s0-.08,0-.13c0-.04,0-.08,0-.12s0-.08,0-.13c0-.04,0-.08,0-.12s0-.08,0-.13c0-.04,0-.08,0-.12s0-.08,0-.13c0-.04,0-.08,0-.12s0-.08,0-.13c0-.04,0-.08,0-.12s0-.08,0-.13ZM102.57,93.55c-.52.79-1.13,1.36-1.82,1.71-.69.35-1.42.52-2.18.52s-1.49-.18-2.19-.53c-.7-.35-1.31-.93-1.84-1.73-.53-.8-.95-1.83-1.26-3.11-.24-.98-.39-2.13-.44-3.45.06-1.29.2-2.43.43-3.4.31-1.27.72-2.3,1.23-3.09.51-.79,1.12-1.36,1.81-1.71.69-.35,1.42-.52,2.18-.52s1.51.18,2.21.53c.7.35,1.31.93,1.84,1.73.53.8.95,1.83,1.26,3.11.24.98.39,2.13.44,3.44-.06,1.3-.2,2.43-.43,3.4-.31,1.27-.72,2.3-1.24,3.09Z"/>
      <path class="cls-4" d="M67.77,96.22c-.07-.19-.17-.38-.3-.56-.13-.19-.28-.38-.45-.56-.17-.19-.36-.39-.54-.62l-3.67-4.19,3.51-4c.16-.19.32-.36.47-.53.15-.17.28-.33.39-.5.11-.17.19-.34.26-.52s.1-.38.1-.59c0-.05-.01-.1-.02-.15,0-.04.02-.07.02-.1,0-.05-.01-.1-.02-.15,0-.04.02-.07.02-.1,0-.05-.01-.1-.02-.15,0-.04.02-.07.02-.1,0-.05-.01-.1-.02-.15,0-.04.02-.07.02-.1,0-.05-.01-.1-.02-.15,0-.04.02-.07.02-.1,0-.05-.01-.1-.02-.15,0-.04.02-.07.02-.1,0-.05-.01-.1-.02-.15,0-.04.02-.07.02-.1,0-.05-.01-.1-.02-.15,0-.04.02-.07.02-.1,0-.05-.01-.1-.02-.15,0-.04.02-.07.02-.1,0-.05-.01-.1-.02-.15,0-.04.02-.07.02-.1,0-.38-.09-.72-.26-1.04-.17-.32-.4-.6-.67-.84-.27-.24-.58-.43-.91-.56-.33-.13-.66-.2-.98-.2-.28,0-.54.05-.77.15-.23.1-.45.24-.63.43-.04.04-.08.08-.13.13-.05.05-.1.11-.17.2s-.15.19-.24.32c-.09.13-.21.29-.36.49l-3.72,5.05-4.21-5.11c-.17-.21-.32-.39-.43-.53-.11-.14-.21-.25-.29-.34s-.15-.15-.2-.2-.11-.09-.16-.13c-.16-.15-.35-.26-.57-.34s-.46-.12-.73-.12c-.33,0-.68.07-1.04.22-.36.15-.69.35-.99.62-.3.27-.55.58-.74.94-.19.36-.29.75-.29,1.18,0,.03.02.06.02.1,0,.05-.02.1-.02.15,0,.03.02.06.02.1,0,.05-.02.1-.02.15,0,.03.02.06.02.1,0,.05-.02.1-.02.15,0,.03.02.06.02.1,0,.05-.02.1-.02.15,0,.03.02.06.02.1,0,.05-.02.1-.02.15,0,.03.02.06.02.1,0,.05-.02.1-.02.15,0,.03.02.06.02.1,0,.05-.02.1-.02.15,0,.03.02.06.02.1,0,.05-.02.1-.02.15,0,.03.02.06.02.1,0,.05-.02.1-.02.15,0,.03.02.06.02.1,0,.05-.02.1-.02.15,0,.21.04.42.11.6.07.19.17.37.3.55s.27.37.44.56c.17.19.35.4.55.63l3.3,3.77-3.82,4.41c-.16.19-.31.37-.46.53-.15.17-.28.34-.39.51-.11.17-.2.35-.27.53-.07.18-.1.38-.1.59,0,.05.01.1.02.15,0,.04-.02.07-.02.1,0,.05.01.1.02.15,0,.04-.02.07-.02.1,0,.05.01.1.02.15,0,.04-.02.07-.02.1,0,.05.01.1.02.15,0,.04-.02.07-.02.1,0,.05.01.1.02.15,0,.04-.02.07-.02.1,0,.05.01.1.02.15,0,.04-.02.07-.02.1,0,.05.01.1.02.15,0,.04-.02.07-.02.1,0,.05.01.1.02.15,0,.04-.02.07-.02.1,0,.05.01.1.02.15,0,.04-.02.07-.02.1,0,.05.01.1.02.15,0,.04-.02.07-.02.1,0,.38.09.72.26,1.04s.4.6.67.84c.27.24.58.43.9.56.33.13.65.2.97.2.28,0,.54-.05.78-.15.24-.1.46-.24.64-.43.04-.04.08-.08.12-.13s.09-.11.16-.2c.07-.09.15-.19.25-.32.1-.13.22-.29.37-.49l4.02-5.5,4.57,5.57c.17.21.32.39.43.52.11.13.21.24.29.32.08.08.14.15.19.2s.1.1.15.14c.17.15.37.26.6.35.23.09.47.13.74.13.33,0,.68-.07,1.04-.22.36-.15.69-.35.99-.62.3-.27.55-.58.74-.94.19-.36.29-.76.29-1.19,0-.03-.02-.06-.02-.1,0-.05.02-.1.02-.15,0-.03-.02-.06-.02-.1,0-.05.02-.1.02-.15,0-.03-.02-.06-.02-.1,0-.05.02-.1.02-.15,0-.03-.02-.06-.02-.1,0-.05.02-.1.02-.15,0-.03-.02-.06-.02-.1,0-.05.02-.1.02-.15,0-.03-.02-.06-.02-.1,0-.05.02-.1.02-.15,0-.03-.02-.06-.02-.1,0-.05.02-.1.02-.15,0-.03-.02-.06-.02-.1,0-.05.02-.1.02-.15,0-.03-.02-.06-.02-.1,0-.05.02-.1.02-.15,0-.03-.02-.06-.02-.1,0-.05.02-.1.02-.15,0-.21-.04-.42-.11-.6Z"/>
      <path class="cls-4" d="M78.99,71.71c-.31,0-.62.04-.92.11-.31.07-.65.18-1.01.33-.37.15-.78.34-1.25.58-.46.24-1,.53-1.62.86-1.12.62-2.04,1.15-2.75,1.61-.71.46-1.2.82-1.47,1.08-.4.4-.6.88-.6,1.45,0,.05,0,.09.01.13,0,.04-.01.08-.01.12,0,.05,0,.09.01.13,0,.04-.01.08-.01.12,0,.05,0,.09.01.13,0,.04-.01.08-.01.12,0,.05,0,.09.01.13,0,.04-.01.08-.01.12,0,.05,0,.09.01.13,0,.04-.01.08-.01.12,0,.05,0,.09.01.13,0,.04-.01.08-.01.12,0,.05,0,.09.01.13,0,.04-.01.08-.01.12,0,.05,0,.09.01.13,0,.04-.01.08-.01.12,0,.05,0,.09.01.13,0,.04-.01.08-.01.12,0,.05,0,.09.01.13,0,.04-.01.08-.01.12,0,.27.04.52.13.75s.21.44.38.62c.17.18.37.32.6.43.23.11.49.16.77.16.13,0,.27,0,.4-.03.13-.02.28-.06.43-.11.15-.05.33-.12.52-.2s.42-.18.69-.3l2.79-1.26v19.53c0,.78.22,1.37.66,1.79.44.42,1.12.62,2.05.62s1.61-.21,2.06-.62c.45-.42.67-1.01.67-1.79v-25.56c0-.8-.22-1.43-.67-1.88-.45-.45-1.07-.67-1.88-.67Z"/>
    </g>
    <g>
      <path class="cls-1" d="M50.42,84.29c-.2-.23-.38-.44-.55-.63-.17-.19-.31-.38-.44-.56s-.23-.36-.3-.55c-.07-.19-.11-.39-.11-.6,0-.43.1-.82.29-1.18.19-.36.44-.67.74-.94.3-.27.63-.47.99-.62.36-.15.71-.22,1.04-.22.27,0,.51.04.73.12s.41.19.57.34c.05.04.11.08.16.13s.12.11.2.2.18.2.29.34c.11.14.26.32.43.53l4.21,5.11,3.72-5.05c.15-.2.27-.36.36-.49.09-.13.17-.23.24-.32s.12-.15.17-.2c.05-.05.09-.09.13-.13.19-.19.4-.33.63-.43.23-.1.49-.15.77-.15.32,0,.65.07.98.2.33.13.64.32.91.56.27.24.5.52.67.84.17.32.26.67.26,1.04,0,.21-.03.41-.1.59s-.15.35-.26.52c-.11.17-.24.33-.39.5-.15.17-.31.34-.47.53l-4.6,5.25,4.76,5.44c.19.23.37.43.54.62.17.19.32.38.45.56.13.19.23.38.3.56.07.19.11.39.11.6,0,.43-.1.82-.29,1.19-.19.36-.44.68-.74.94-.3.27-.63.48-.99.62-.36.15-.71.22-1.04.22-.27,0-.52-.04-.74-.13-.23-.09-.43-.2-.6-.35-.05-.04-.1-.09-.15-.14s-.11-.12-.19-.2c-.08-.08-.18-.19-.29-.32-.11-.13-.26-.31-.43-.52l-4.57-5.57-4.02,5.5c-.15.2-.27.37-.37.49-.1.13-.18.23-.25.32-.07.09-.12.15-.16.2s-.08.09-.12.13c-.19.19-.4.33-.64.43-.24.1-.5.15-.78.15-.32,0-.65-.07-.97-.2-.33-.13-.63-.32-.9-.56-.27-.24-.5-.52-.67-.84s-.26-.67-.26-1.04c0-.21.03-.41.1-.59.07-.18.16-.36.27-.53.11-.17.24-.34.39-.51.15-.17.3-.34.46-.53l4.91-5.67-4.39-5.01Z"/>
      <path class="cls-1" d="M73.3,79.06c-.27.12-.5.22-.69.3s-.37.15-.52.2c-.15.05-.3.09-.43.11-.13.02-.27.03-.4.03-.28,0-.54-.05-.77-.16-.23-.11-.43-.25-.6-.43-.17-.18-.29-.39-.38-.62s-.13-.49-.13-.75c0-.56.2-1.04.6-1.45.27-.27.76-.63,1.47-1.08.71-.45,1.63-.99,2.75-1.61.62-.33,1.15-.62,1.62-.86.46-.24.88-.43,1.25-.58.37-.15.71-.26,1.01-.33.31-.07.62-.11.92-.11.8,0,1.43.22,1.88.67.45.45.67,1.07.67,1.88v23.06c0,.78-.22,1.37-.67,1.79-.45.42-1.13.62-2.06.62s-1.61-.21-2.05-.62c-.44-.42-.66-1.01-.66-1.79v-19.53l-2.79,1.26Z"/>
      <path class="cls-1" d="M87.31,86.12c0-2.45.28-4.59.85-6.41.57-1.83,1.36-3.35,2.39-4.57,1.02-1.22,2.23-2.13,3.63-2.73,1.4-.6,2.93-.9,4.61-.9s3.12.28,4.47.83c1.34.56,2.5,1.41,3.46,2.55.96,1.14,1.71,2.59,2.24,4.33s.79,3.79.79,6.16-.28,4.59-.85,6.42c-.57,1.83-1.36,3.36-2.38,4.57s-2.23,2.12-3.63,2.72c-1.41.6-2.94.9-4.6.9s-3.12-.28-4.48-.83c-1.35-.55-2.51-1.41-3.47-2.55-.96-1.14-1.71-2.59-2.24-4.33-.53-1.74-.79-3.79-.79-6.16ZM92.81,85.72c0,1.85.16,3.41.47,4.69.31,1.28.74,2.31,1.26,3.11.53.8,1.14,1.37,1.84,1.73.7.35,1.43.53,2.19.53s1.49-.17,2.18-.52c.69-.35,1.29-.92,1.82-1.71.52-.79.94-1.82,1.24-3.09s.46-2.82.46-4.66-.16-3.41-.47-4.69c-.31-1.28-.74-2.31-1.26-3.11-.53-.8-1.14-1.37-1.84-1.73-.7-.35-1.43-.53-2.21-.53s-1.49.17-2.18.52c-.69.35-1.29.92-1.81,1.71-.52.79-.93,1.82-1.23,3.09-.31,1.27-.46,2.82-.46,4.66Z"/>
    </g>
  </g>
</svg>