<?xml version="1.0" encoding="UTF-8"?>
<svg id="Icon" xmlns="http://www.w3.org/2000/svg" viewBox="0 0 120 120">
  <defs>
    <style>
      .cls-1 {
        fill: #fff;
      }

      .cls-2 {
        fill: #dfedf2;
      }

      .cls-3 {
        fill: #ea9939;
      }

      .cls-4 {
        fill: #fff8d9;
      }

      .cls-5 {
        fill: #f4b545;
      }

      .cls-6 {
        fill: #231f20;
      }

      .cls-7 {
        fill: #ffeda8;
      }

      .cls-8 {
        fill: #ffe277;
      }

      .cls-9 {
        opacity: .5;
      }
    </style>
  </defs>
  <path class="cls-6" d="M116.47,30.28v28.66c0,3.93-3.2,7.12-7.12,7.12h-4.31v4.88c0,1.78-.71,4.37-4.11,6.63-4.82,3.23-14.47,5.24-25.19,5.24-.75,0-1.49-.01-2.23-.04-.46-.01-.93-.03-1.39-.05v4.96s.06.09.09.14c.07.11.13.21.2.32.07.12.14.24.2.37.06.11.11.24.16.36.06.12.11.23.16.36s.09.27.13.4c.03.12.07.23.1.35.04.16.06.33.09.49.02.1.04.2.05.3.04.27.05.54.05.82v11.08c0,1.78-.71,4.37-4.11,6.63-4.82,3.23-14.47,5.24-25.19,5.24-.75,0-1.49-.01-2.22-.04-9.74-.24-18.28-2.15-22.82-5.1-3.53-2.29-4.27-4.92-4.27-6.73v-4.88h-4.09c-3.92,0-7.12-3.19-7.12-7.12v-28.66c0-3.93,3.2-7.12,7.12-7.12h5.4v-2.09c0-2.24,1.07-4.09,2.87-5.61.25-.53.54-1.06.87-1.58,3.25-5.11,9.85-8.61,15.68-8.4,1.68.06,3.26.38,4.65.67,1.08.22,2.11.42,3.05.5,1.41.1,2.95-.07,4.57-.26v-17.05c0-2.2,1.03-4.03,2.78-5.53,3.01-6.94,11.63-10.06,18.7-9.46.83.08,1.65.18,2.48.27,1.73.21,3.36.41,4.85.3.95-.07,1.97-.28,3.06-.5,1.39-.28,2.97-.61,4.64-.67,5.82-.21,12.44,3.29,15.69,8.41.31.49.59.99.83,1.49,1.55,1.28,2.57,2.8,2.87,4.6.1.35.17.71.17,1.09v2.09h5.54c3.92,0,7.12,3.19,7.12,7.12Z"/>
  <g>
    <g>
      <path class="cls-2" d="M97.17,62.06h12.18c1.72,0,3.12-1.4,3.12-3.12v-28.66c0-1.72-1.4-3.12-3.12-3.12h-13.22c-1.72,0-3.12,1.4-3.12,3.12s1.4,3.12,3.12,3.12h10.09v22.41h-9.05c-1.72,0-3.12,1.4-3.12,3.12s1.4,3.12,3.12,3.12Z"/>
      <path class="cls-2" d="M99.74,21.07c0,1.11-.79,2.18-2.21,3.13-3.81,2.56-12.13,4.33-21.79,4.33s-17.81-1.74-21.67-4.26c-1.49-.97-2.32-2.05-2.32-3.19,0-4.11,10.74-7.45,23.99-7.45s24,3.34,24,7.45Z"/>
      <rect class="cls-2" x="51.74" y="21.07" width="48.07" height="39.46"/>
      <path class="cls-1" d="M75.73,28.53c-9.56,0-17.81-1.74-21.67-4.26-1.49-.97-2.32-2.05-2.32-3.19,0-4.11,10.74-7.45,23.99-7.45s9.65,14.91,0,14.91Z"/>
      <rect class="cls-1" x="51.74" y="21.07" width="32.64" height="39.46"/>
      <path class="cls-1" d="M101.04,70.94c0,1.18-.84,2.3-2.33,3.3-4.02,2.69-12.8,4.56-22.97,4.56-.7,0-1.4,0-2.08-.03-9.18-.23-16.98-1.99-20.77-4.46-1.58-1.02-2.45-2.16-2.45-3.37,0-2.16,2.82-4.11,7.38-5.54,4.12-1.28,9.67-2.13,15.84-2.29.69-.02,1.38-.02,2.08-.02,7.01,0,13.36.89,17.94,2.32,4.55,1.43,7.36,3.38,7.36,5.54Z"/>
      <rect class="cls-1" x="50.43" y="59.87" width="50.61" height="11.07"/>
      <path class="cls-1" d="M101.04,59.86h0c0,1.18-.84,2.3-2.33,3.29-1.25.84-2.96,1.6-5.03,2.25-4.58,1.44-10.93,2.32-17.94,2.32-.7,0-1.4,0-2.08-.03-6.18-.15-11.72-1-15.84-2.3-2.01-.62-3.69-1.36-4.93-2.17-1.58-1.01-2.45-2.15-2.45-3.36h0c0-4.12,10.22-7.5,23.22-7.84.69-.02,1.38-.02,2.08-.02,13.98,0,25.31,3.52,25.31,7.85Z"/>
      <path class="cls-2" d="M101.04,59.86v11.08c0,1.18-.84,2.3-2.33,3.3-4.02,2.69-12.8,4.56-22.97,4.56-.7,0-1.4,0-2.08-.03v-26.74c.69-.02,1.38-.02,2.08-.02,13.98,0,25.31,3.52,25.31,7.85Z"/>
      <path class="cls-5" d="M97.24,59.87h0c0,1.01-.71,1.95-1.98,2.8-.62.41-1.37.8-2.24,1.16-3.92,1.65-10.2,2.71-17.27,2.71-.7,0-1.4,0-2.08-.03-5.7-.17-10.74-1.03-14.27-2.32-1.22-.45-2.25-.94-3.06-1.47-1.34-.87-2.08-1.82-2.08-2.85h0c0-1.66,1.94-3.16,5.14-4.33,3.52-1.29,8.57-2.15,14.27-2.32.69-.02,1.38-.03,2.08-.03,7.08,0,13.36,1.06,17.27,2.7,2.58,1.08,4.13,2.4,4.22,3.83,0,.04,0,.09,0,.13Z"/>
      <rect class="cls-5" x="54.24" y="26.18" width="42.98" height="33.68"/>
      <path class="cls-8" d="M59.39,30.81v33.38c-1.22-.45-2.25-.94-3.06-1.47-1.34-.87-2.08-1.82-2.08-2.85h0s0,0,0,0v-29.05h5.15Z"/>
      <path class="cls-3" d="M93.01,28.97v34.86c-3.92,1.65-10.2,2.71-17.27,2.71-.7,0-1.4,0-2.08-.03V28.97h19.36Z"/>
      <g class="cls-9">
        <path class="cls-4" d="M79.48,36.28v21.99c0,1.33-.54,2.54-1.41,3.41-.87.87-2.07,1.41-3.4,1.41-1.48,0-2.8-.66-3.69-1.72.77.51,1.69.81,2.69.81,1.34,0,2.54-.54,3.4-1.41.87-.87,1.41-2.08,1.41-3.41v-21.08h1.01Z"/>
      </g>
      <g class="cls-9">
        <path class="cls-8" d="M93.72,33.72v21.99c0,1.33-.54,2.54-1.41,3.41-.87.87-2.07,1.41-3.4,1.41-1.48,0-2.8-.66-3.69-1.72.77.51,1.69.81,2.69.81,1.34,0,2.54-.54,3.4-1.41.87-.87,1.41-2.08,1.41-3.41v-21.08h1.01Z"/>
      </g>
      <g class="cls-9">
        <path class="cls-4" d="M66.3,33.72v21.99c0,1.33-.54,2.54-1.41,3.41-.87.87-2.07,1.41-3.4,1.41-1.48,0-2.8-.66-3.69-1.72.77.51,1.69.81,2.69.81,1.34,0,2.54-.54,3.4-1.41.87-.87,1.41-2.08,1.41-3.41v-21.08h1.01Z"/>
      </g>
      <path class="cls-7" d="M97.23,31.63c0,1-.71,1.95-1.98,2.8-3.42,2.29-10.87,3.88-19.51,3.88s-15.95-1.56-19.41-3.82c-1.34-.86-2.08-1.83-2.08-2.86,0-3.68,9.62-6.67,21.49-6.67s21.5,2.99,21.5,6.67Z"/>
      <rect class="cls-7" x="54.25" y="18.28" width="42.98" height="13.35"/>
      <path class="cls-4" d="M53.81,18.17c-.27.91-.41,1.92-.4,3.02.01,1.62.73,3.35,2.17,4.1,1.12.59,2.48.51,3.68.92,3.54,1.2,4.58,6.05,7.95,7.7,2.69,1.31,5.93.13,8.48-1.44s5.02-3.56,7.99-3.95c2.39-.32,4.82.46,7.21.16,2.6-.32,5-1.99,6.21-4.32,3.98-7.65-5.65-15.17-12.67-14.88-2.55.1-5.02.97-7.56,1.16-2.66.2-5.32-.34-7.98-.57-5.71-.49-13.27,1.99-15.07,8.1Z"/>
    </g>
    <g>
      <path class="cls-1" d="M22.83,93.79h-12.18c-1.72,0-3.12-1.4-3.12-3.12v-28.66c0-1.72,1.4-3.12,3.12-3.12h13.22c1.72,0,3.12,1.4,3.12,3.12s-1.4,3.12-3.12,3.12h-10.09v22.41h9.05c1.72,0,3.12,1.4,3.12,3.12s-1.4,3.12-3.12,3.12Z"/>
      <path class="cls-2" d="M68.05,52.8c0,1.11-.79,2.18-2.21,3.13-3.81,2.56-12.13,4.33-21.79,4.33s-17.81-1.74-21.67-4.26c-1.49-.97-2.32-2.05-2.32-3.19,0-4.11,10.74-7.45,23.99-7.45s24,3.34,24,7.45Z"/>
      <rect class="cls-2" x="20.05" y="52.8" width="48.07" height="39.46"/>
      <path class="cls-1" d="M44.05,60.26c-9.56,0-17.81-1.74-21.67-4.26-1.49-.97-2.32-2.05-2.32-3.19,0-4.11,10.74-7.45,23.99-7.45s9.65,14.91,0,14.91Z"/>
      <rect class="cls-1" x="20.05" y="52.8" width="32.64" height="39.46"/>
      <path class="cls-1" d="M69.35,102.67c0,1.18-.84,2.3-2.33,3.3-4.02,2.69-12.8,4.56-22.97,4.56-.7,0-1.4,0-2.08-.03-9.18-.23-16.98-1.99-20.77-4.46-1.58-1.02-2.45-2.16-2.45-3.37,0-2.16,2.82-4.11,7.38-5.54,4.12-1.28,9.67-2.13,15.84-2.29.69-.02,1.38-.02,2.08-.02,7.01,0,13.36.89,17.94,2.32,4.55,1.43,7.36,3.38,7.36,5.54Z"/>
      <rect class="cls-1" x="18.74" y="91.6" width="50.61" height="11.07"/>
      <path class="cls-1" d="M69.35,91.59h0c0,1.18-.84,2.3-2.33,3.29-1.25.84-2.96,1.6-5.03,2.25-4.58,1.44-10.93,2.32-17.94,2.32-.7,0-1.4,0-2.08-.03-6.18-.15-11.72-1-15.84-2.3-2.01-.62-3.69-1.36-4.93-2.17-1.58-1.01-2.45-2.15-2.45-3.36h0c0-4.12,10.22-7.5,23.22-7.84.69-.02,1.38-.02,2.08-.02,13.98,0,25.31,3.52,25.31,7.85Z"/>
      <path class="cls-2" d="M69.35,91.59v11.08c0,1.18-.84,2.3-2.33,3.3-4.02,2.69-12.8,4.56-22.97,4.56-.7,0-1.4,0-2.08-.03v-26.74c.69-.02,1.38-.02,2.08-.02,13.98,0,25.31,3.52,25.31,7.85Z"/>
      <path class="cls-5" d="M65.55,91.6h0c0,1.01-.71,1.95-1.98,2.8-.62.41-1.37.8-2.24,1.16-3.92,1.65-10.2,2.71-17.27,2.71-.7,0-1.4,0-2.08-.03-5.7-.17-10.74-1.03-14.27-2.32-1.22-.45-2.25-.94-3.06-1.47-1.34-.87-2.08-1.82-2.08-2.85h0c0-1.66,1.94-3.16,5.14-4.33,3.52-1.29,8.57-2.15,14.27-2.32.69-.02,1.38-.03,2.08-.03,7.08,0,13.36,1.06,17.27,2.7,2.58,1.08,4.13,2.4,4.22,3.83,0,.04,0,.09,0,.13Z"/>
      <rect class="cls-5" x="22.56" y="57.91" width="42.98" height="33.68"/>
      <path class="cls-8" d="M27.7,62.54v33.38c-1.22-.45-2.25-.94-3.06-1.47-1.34-.87-2.08-1.82-2.08-2.85h0s0,0,0,0v-29.05h5.15Z"/>
      <path class="cls-3" d="M61.32,60.7v34.86c-3.92,1.65-10.2,2.71-17.27,2.71-.7,0-1.4,0-2.08-.03v-37.54h19.36Z"/>
      <g class="cls-9">
        <path class="cls-4" d="M47.79,68.01v21.99c0,1.33-.54,2.54-1.41,3.41-.87.87-2.07,1.41-3.4,1.41-1.48,0-2.8-.66-3.69-1.72.77.51,1.69.81,2.69.81,1.34,0,2.54-.54,3.4-1.41.87-.87,1.41-2.08,1.41-3.41v-21.08h1.01Z"/>
      </g>
      <g class="cls-9">
        <path class="cls-8" d="M62.03,65.45v21.99c0,1.33-.54,2.54-1.41,3.41-.87.87-2.07,1.41-3.4,1.41-1.48,0-2.8-.66-3.69-1.72.77.51,1.69.81,2.69.81,1.34,0,2.54-.54,3.4-1.41.87-.87,1.41-2.08,1.41-3.41v-21.08h1.01Z"/>
      </g>
      <g class="cls-9">
        <path class="cls-4" d="M34.62,65.45v21.99c0,1.33-.54,2.54-1.41,3.41-.87.87-2.07,1.41-3.4,1.41-1.48,0-2.8-.66-3.69-1.72.77.51,1.69.81,2.69.81,1.34,0,2.54-.54,3.4-1.41.87-.87,1.41-2.08,1.41-3.41v-21.08h1.01Z"/>
      </g>
      <path class="cls-7" d="M65.54,63.36c0,1-.71,1.95-1.98,2.8-3.42,2.29-10.87,3.88-19.51,3.88s-15.95-1.56-19.41-3.82c-1.34-.86-2.08-1.83-2.08-2.86,0-3.68,9.62-6.67,21.49-6.67s21.5,2.99,21.5,6.67Z"/>
      <rect class="cls-7" x="22.56" y="50.01" width="42.98" height="13.35"/>
      <path class="cls-4" d="M65.92,49.9c.27.91.41,1.92.4,3.02-.01,1.62-.73,3.35-2.17,4.1-1.12.59-2.48.51-3.68.92-3.54,1.2-4.58,6.05-7.95,7.7-2.69,1.31-5.93.13-8.48-1.44s-5.02-3.56-7.99-3.95c-2.39-.32-4.82.46-7.21.16-2.6-.32-5-1.99-6.21-4.32-3.98-7.65,5.65-15.17,12.67-14.88,2.55.1,5.02.97,7.56,1.16,2.66.2,5.32-.34,7.98-.57,5.71-.49,13.27,1.99,15.07,8.1Z"/>
    </g>
  </g>
</svg>