<?xml version="1.0" encoding="UTF-8"?>
<svg id="Icon" xmlns="http://www.w3.org/2000/svg" viewBox="0 0 120 120">
  <defs>
    <style>
      .cls-1 {
        fill: #13437c;
      }

      .cls-2 {
        fill: #3288d6;
      }

      .cls-3 {
        fill: #f4b545;
      }

      .cls-4 {
        fill: #ffe277;
      }

      .cls-5 {
        fill: #47acea;
      }
    </style>
  </defs>
  <path class="cls-1" d="M97.38,15.74v88.52c0,5.91-4.8,10.71-10.7,10.71h-53.35c-5.9,0-10.71-4.8-10.71-10.71V15.74c0-5.91,4.81-10.71,10.71-10.71h53.35c5.9,0,10.7,4.8,10.7,10.71Z"/>
  <g>
    <rect class="cls-2" x="26.62" y="9.03" width="66.75" height="101.93" rx="6.7" ry="6.7"/>
    <rect class="cls-5" x="26.62" y="9.03" width="66.75" height="96.92" rx="6.7" ry="6.7"/>
    <path class="cls-3" d="M85.9,60c0,3.39-2.75,6.14-6.14,6.14-2.59,0-4.81-1.61-5.71-3.88-.28-.7-.43-1.46-.43-2.26,0-3.39,2.75-6.14,6.14-6.14.8,0,1.56.15,2.26.43,2.27.9,3.88,3.12,3.88,5.71Z"/>
    <path class="cls-4" d="M83.42,58.01c0,3.12-2.53,5.65-5.65,5.65-1.43,0-2.72-.53-3.72-1.4-.28-.7-.43-1.46-.43-2.26,0-3.39,2.75-6.14,6.14-6.14.8,0,1.56.15,2.26.43.87.99,1.4,2.29,1.4,3.72Z"/>
    <g>
      <path d="M45.11,35.95h4.21c.26,0,.46.08.61.25s.23.41.23.73-.08.56-.23.72-.36.24-.61.24h-5.57c-.36,0-.64-.1-.84-.3s-.3-.48-.3-.84v-10.06c0-.36.1-.64.3-.84s.48-.3.84-.3h5.52c.26,0,.47.08.62.24s.23.4.23.72-.08.57-.23.73-.36.25-.62.25h-4.16v3.14h3.55c.25,0,.45.08.6.24s.23.4.23.72-.08.55-.23.71-.35.24-.6.24h-3.55v3.4Z"/>
      <path d="M52.08,27.88c-.07-.1-.14-.19-.21-.27s-.12-.17-.17-.26-.09-.17-.12-.26-.04-.18-.04-.28c0-.19.04-.37.13-.53s.19-.3.33-.42.29-.21.46-.28.34-.1.51-.1.31.03.42.08.21.12.29.2c.02.02.05.05.08.08s.06.07.09.11.08.1.13.16.11.15.17.24l2.47,3.53,2.17-3.44c.07-.1.12-.19.17-.26l.13-.19c.04-.05.07-.1.1-.13s.06-.07.1-.11c.08-.08.18-.15.3-.2s.24-.07.38-.07c.17,0,.34.03.51.09s.31.15.43.25.23.23.3.37.11.29.11.44c0,.18-.05.34-.14.49s-.21.32-.35.51l-2.85,3.97,2.97,3.98c.07.1.14.19.21.28s.13.17.17.26.09.17.12.26.04.18.04.28c0,.19-.04.37-.13.53s-.2.3-.34.42-.29.21-.46.28-.34.1-.51.1c-.16,0-.3-.03-.41-.08s-.21-.12-.29-.2c-.05-.05-.1-.11-.17-.18s-.17-.21-.3-.41l-2.66-3.81-2.33,3.72c-.13.2-.22.35-.29.45s-.14.18-.2.24c-.08.08-.18.15-.3.2s-.24.07-.38.07c-.17,0-.34-.03-.5-.09s-.3-.15-.43-.25-.23-.23-.3-.37-.11-.29-.11-.44c0-.18.04-.34.13-.49s.2-.32.34-.51l3.02-4.24-2.79-3.71Z"/>
      <path d="M63.36,26.6c0-.35.1-.62.3-.81s.52-.29.94-.29.75.1.95.29.3.46.3.81v10.26c0,.35-.1.62-.3.81s-.52.29-.95.29-.74-.1-.94-.29-.3-.46-.3-.81v-10.26Z"/>
      <path d="M68.38,27.57c-.27,0-.48-.08-.64-.25s-.23-.42-.23-.76.08-.59.23-.76.37-.25.64-.25h8.13c.27,0,.48.08.64.25s.23.42.23.76-.08.59-.23.76-.37.25-.64.25h-2.82v9.29c0,.35-.1.62-.31.81-.2.19-.52.29-.94.29s-.74-.1-.94-.29c-.2-.19-.31-.46-.31-.81v-9.29h-2.82Z"/>
    </g>
  </g>
</svg>