<?xml version="1.0" encoding="UTF-8"?>
<svg id="Icon" xmlns="http://www.w3.org/2000/svg" viewBox="0 0 120 120">
  <defs>
    <style>
      .cls-1 {
        fill: #dd2a39;
      }

      .cls-2 {
        fill: #f43f3f;
      }

      .cls-3 {
        fill: #ffc4b0;
      }

      .cls-4 {
        fill: #7a1839;
      }
    </style>
  </defs>
  <g>
    <g>
      <path class="cls-4" d="M13.13,65.26c.11.25.23.51.34.76.04.09.08.17.13.26-.16-.34-.32-.68-.47-1.02ZM15.74,70.52s.01.03.02.06c.09.17.19.34.29.52-.11-.2-.21-.39-.31-.58Z"/>
      <path class="cls-4" d="M115.39,60.62h0c-3.51,12.24-14.8,19.65-25.11,25.64-13.78,8.01-27.55,16.02-41.33,24.02-.63.36-1.32.54-2.01.54-1.16,0-2.3-.5-3.08-1.45l-1.09-1.32c-2.22-2.68-4.45-5.37-6.64-8.09-5.48-6.77-12.52-15.83-18.39-25.85-.23-.4-.46-.8-.68-1.19-.05-.07-.09-.15-.12-.22-.01,0-.01-.01-.01-.01-.3-.54-.6-1.07-.88-1.59-.11-.2-.21-.39-.31-.58h-.01c-.77-1.45-1.48-2.86-2.13-4.24-.16-.34-.32-.68-.47-1.02-.16-.34-.31-.68-.46-1.02-.71-1.62-1.34-3.2-1.89-4.76-.12-.36-.25-.71-.36-1.06-.12-.36-.24-.71-.35-1.06s-.22-.7-.32-1.05c-1.67-5.64-2.34-11.21-2.01-16.54.34-5.65,2.07-11.44,4.89-16.31,2.39-4.12,5.4-7.48,8.95-9.98,7.61-5.37,18.33-6.35,27.31-2.49.07.02.13.05.19.08.59.26,1.16.53,1.75.85.88.45,1.78,1,2.74,1.67,1.61,1.14,3.06,2.42,4.32,3.82,2.67,2.93,4.66,6.38,5.85,10.08,1.15-.66,2.35-1.27,3.58-1.8.58-.26,1.16-.5,1.76-.73.59-.22,1.19-.43,1.79-.63.6-.19,1.21-.37,1.83-.54,3.17-.84,6.44-1.26,9.66-1.23,6.52.06,13.31,2.03,19.12,5.53.03.02.06.04.1.06,2.65,1.63,5.03,3.54,7.06,5.68,6.73,7.1,9.37,17.62,6.75,26.79Z"/>
    </g>
    <path class="cls-4" d="M13.13,65.26c-.16-.34-.31-.68-.46-1.02.26.59.52,1.18.8,1.78.04.09.08.17.13.26-.16-.34-.32-.68-.47-1.02ZM15.74,70.52s.01.03.02.06c.09.17.19.34.29.52-.11-.2-.21-.39-.31-.58Z"/>
  </g>
  <path class="cls-2" d="M111.55,59.52c-3.15,10.97-13.67,17.7-23.28,23.28-13.78,8.01-27.55,16.02-41.33,24.02-2.57-3.11-5.16-6.23-7.7-9.37-6.52-8.06-12.76-16.34-18.04-25.36-.27-.45-.53-.9-.79-1.37-2.76-4.89-5.21-10.09-6.82-15.54-1.44-4.88-2.19-9.96-1.86-15.17.3-4.99,1.8-10.11,4.36-14.55,1.98-3.43,4.59-6.46,7.79-8.71,6.59-4.65,15.98-5.29,23.44-2.09h.01c.56.25,1.1.51,1.63.79.81.42,1.58.9,2.33,1.42,1.32.94,2.55,2.01,3.64,3.22,3.53,3.88,5.75,8.97,6.05,14.22,2.39-2.04,5.09-3.72,7.97-4.97,4.2-1.86,8.79-2.83,13.37-2.78,5.84.05,11.95,1.84,17.1,4.95.01,0,.02.01.03.02,2.33,1.42,4.46,3.11,6.29,5.04,5.48,5.79,8.14,14.77,5.81,22.94Z"/>
  <path class="cls-3" d="M23.06,22.87c-2.08,1.56-3.69,3.86-4.08,6.44s.55,5.4,2.63,6.96c1.68,1.26,3.94,1.61,6.01,1.24s3.98-1.4,5.67-2.66c2.07-1.55,3.9-3.54,4.77-5.97s.63-5.36-1.04-7.33c-3.25-3.84-10.64-1.16-13.95,1.32Z"/>
  <path class="cls-1" d="M111.55,59.52c-3.15,10.97-13.67,17.7-23.28,23.28-13.78,8.01-27.55,16.02-41.33,24.02-2.57-3.11-5.16-6.23-7.7-9.37-6.52-8.06-12.76-16.34-18.04-25.36-3.08-5.28-5.85-10.95-7.6-16.91,3.4,6.23,7.7,11.28,12.49,16.35,4.89,5.18,9.49,10.04,15.59,13.88,2.26,1.42,4.72,2.73,7.38,2.82,4.05.13,7.73-2.43,11-4.51,3.72-2.37,7.35-4.87,10.89-7.49,4.29-3.19,8.48-6.59,11.88-10.72s5.98-9.06,6.66-14.36c1.49-11.67-7.94-24.24-20.53-21.8,4.2-1.86,8.79-2.83,13.37-2.78,5.84.05,11.95,1.84,17.1,4.95.01,0,.02.01.03.02,2.33,1.42,4.46,3.11,6.29,5.04,5.48,5.79,8.14,14.77,5.81,22.94Z"/>
  <path class="cls-3" d="M48.96,15.45c-4.6-.81-9.5-.23-13.82,1.64-7.13,3.07-12.65,9.34-15.63,16.51-2.98,7.18-3.57,15.21-2.56,22.91.64,4.86,1.87,9.6,3.47,14.22-2.76-4.89-5.21-10.09-6.82-15.54-1.44-4.88-2.19-9.96-1.86-15.17.3-4.99,1.8-10.11,4.36-14.55,1.98-3.43,4.59-6.46,7.79-8.71,6.59-4.65,15.98-5.29,23.44-2.09h.01c.56.25,1.1.51,1.63.79Z"/>
</svg>