<?xml version="1.0" encoding="UTF-8"?>
<svg id="Icon" xmlns="http://www.w3.org/2000/svg" viewBox="0 0 120 120">
  <defs>
    <style>
      .cls-1 {
        fill: #e1fcc5;
      }

      .cls-2 {
        fill: #12993f;
      }

      .cls-3 {
        fill: #1cb829;
      }

      .cls-4 {
        fill: #34d434;
      }

      .cls-5 {
        fill: #086d3b;
      }

      .cls-6 {
        fill: #05542a;
      }
    </style>
  </defs>
  <g>
    <path class="cls-6" d="M115.87,57.12v32.16s-.01.08-.01.12c0,.17-.02.34-.05.51-.01.06-.01.13-.03.19-.04.21-.1.41-.17.61-.01.01-.01.03-.02.05-.08.19-.17.38-.28.56-.03.05-.07.1-.1.16-.09.13-.19.26-.29.38-.04.05-.08.1-.13.15-.13.14-.27.27-.42.39-.02.01-.03.03-.05.05-.17.13-.35.24-.54.34-.06.03-.12.06-.18.09-.14.07-.29.13-.44.18-.07.02-.13.04-.2.06-.21.06-.43.11-.65.14l-79.6,8.68c-.15.02-.29.03-.43.03h-.01c-.26,0-.52-.03-.78-.09h-.06c-.06-.02-.13-.05-.19-.07-.17-.04-.34-.09-.5-.16-.04-.02-.07-.02-.11-.04-.06-.02-.11-.07-.17-.1-.15-.07-.29-.15-.42-.24-.05-.03-.1-.05-.14-.08l-.12-.12c-.06-.04-.12-.08-.18-.13s-.1-.12-.16-.18c-.06-.05-.12-.1-.17-.16l-24.23-27.64c-.15-.16-.27-.34-.38-.52-.04-.06-.07-.12-.1-.17-.08-.14-.14-.28-.2-.43-.03-.06-.06-.12-.08-.18-.06-.18-.11-.37-.15-.56-.01-.02-.01-.04-.02-.07-.04-.21-.05-.42-.06-.64v-32.17s.01-.1.01-.15c0-.12.01-.24.03-.36,0-.08.02-.16.04-.24.02-.11.04-.22.07-.32.03-.09.05-.17.08-.25,0-.04.02-.09.04-.13.02-.06.05-.11.08-.17.03-.08.07-.15.11-.23.05-.1.11-.19.17-.29.04-.06.08-.13.13-.2.06-.09.14-.18.21-.27.05-.05.1-.11.15-.17.09-.09.19-.17.29-.25.04-.05.09-.09.14-.13.15-.12.31-.22.47-.32.04-.02.08-.03.11-.05.14-.07.27-.14.42-.2.01,0,.03-.01.04-.01.05-.02.11-.03.16-.05.12-.04.23-.08.35-.1.09-.02.17-.04.26-.05.07-.01.13-.03.2-.04l79.6-8.68c1.3-.14,2.58.36,3.44,1.34l24.23,27.64c.06.06.11.14.16.21.03.04.07.09.1.13.14.2.27.41.37.63.01.04.03.08.04.12.09.2.15.4.2.61.02.05.03.1.04.15.05.24.07.48.08.73Z"/>
    <g>
      <polygon class="cls-2" points="111.87 89.28 32.27 97.97 8.05 70.33 87.65 61.64 111.87 89.28"/>
      <polygon class="cls-4" points="111.87 57.17 32.27 65.86 8.05 38.22 87.65 29.53 111.87 57.17"/>
      <polygon class="cls-2" points="33.57 63.19 13.38 40.16 86.35 32.2 106.54 55.23 33.57 63.19"/>
      <path class="cls-4" d="M31.84,57.07l-10.09-11.52c2.75-.3,3.62-2.09,1.95-4l56.38-6.15c1.67,1.91,5.26,3.21,8,2.91l10.09,11.52c-2.75.3-3.62,2.09-1.95,4l-56.38,6.15c-1.67-1.91-5.26-3.21-8-2.91Z"/>
      <g>
        <path class="cls-2" d="M42.08,47.71c-.07.04-.14.08-.19.11s-.11.05-.15.07-.09.04-.14.05-.09.02-.15.02c-.11.01-.22,0-.33-.01s-.22-.05-.33-.09-.2-.09-.29-.15-.16-.12-.22-.19c-.13-.15-.17-.28-.11-.41.04-.08.14-.2.31-.35s.39-.33.67-.54c.16-.11.29-.21.41-.29s.23-.15.34-.21.21-.1.31-.13.21-.05.33-.07c.3-.03.59,0,.87.1s.5.26.69.47l5.33,6.08c.18.2.23.37.16.5s-.29.21-.64.25-.66.01-.92-.08-.49-.24-.66-.44l-4.52-5.15-.77.45Z"/>
        <path class="cls-2" d="M49.04,49c-.57-.65-.95-1.22-1.16-1.73s-.26-.94-.15-1.3.36-.65.75-.87.91-.36,1.54-.43,1.25-.06,1.89.03,1.27.27,1.9.53,1.25.61,1.85,1.05,1.18.97,1.73,1.59.95,1.22,1.16,1.73.26.94.15,1.3-.36.65-.75.87-.91.36-1.54.43-1.25.06-1.89-.03-1.28-.27-1.91-.53-1.25-.61-1.85-1.05-1.18-.97-1.73-1.59ZM51.03,48.66c.43.49.85.89,1.26,1.22s.81.58,1.2.77.75.31,1.1.38.66.08.95.05.53-.11.71-.23.28-.3.3-.53-.06-.52-.24-.87-.48-.76-.9-1.25-.85-.89-1.26-1.22-.81-.58-1.2-.77-.75-.31-1.1-.38-.67-.08-.96-.05-.53.11-.71.23-.28.3-.29.52.07.52.25.87.48.76.9,1.25Z"/>
        <path class="cls-2" d="M59.19,47.89c-.57-.65-.95-1.22-1.16-1.73s-.26-.94-.15-1.3.36-.65.75-.87.91-.36,1.54-.43,1.25-.06,1.89.03,1.27.27,1.9.53,1.25.61,1.85,1.05,1.18.97,1.73,1.59.95,1.22,1.16,1.73.26.94.15,1.3-.36.65-.75.87-.91.36-1.54.43-1.25.06-1.89-.03-1.28-.27-1.91-.53-1.25-.61-1.85-1.05-1.18-.97-1.73-1.59ZM61.19,47.55c.43.49.85.89,1.26,1.22s.81.58,1.2.77.75.31,1.1.38.66.08.95.05.53-.11.71-.23.28-.3.3-.53-.06-.52-.24-.87-.48-.76-.9-1.25-.85-.89-1.26-1.22-.81-.58-1.2-.77-.75-.31-1.1-.38-.67-.08-.96-.05-.53.11-.71.23-.28.3-.29.52.07.52.25.87.48.76.9,1.25Z"/>
        <path class="cls-2" d="M69.35,46.78c-.57-.65-.95-1.22-1.16-1.73s-.26-.94-.15-1.3.36-.65.75-.87.91-.36,1.54-.43,1.25-.06,1.89.03,1.27.27,1.9.53,1.25.61,1.85,1.05,1.18.97,1.73,1.59.95,1.22,1.16,1.73.26.94.15,1.3-.36.65-.75.87-.91.36-1.54.43-1.25.06-1.89-.03-1.28-.27-1.91-.53-1.25-.61-1.85-1.05-1.18-.97-1.73-1.59ZM71.34,46.45c.43.49.85.89,1.26,1.22s.81.58,1.2.77.75.31,1.1.38.66.08.95.05.53-.11.71-.23.28-.3.3-.53-.06-.52-.24-.87-.48-.76-.9-1.25-.85-.89-1.26-1.22-.81-.58-1.2-.77-.75-.31-1.1-.38-.67-.08-.96-.05-.53.11-.71.23-.28.3-.29.52.07.52.25.87.48.76.9,1.25Z"/>
      </g>
      <polygon class="cls-3" points="32.27 65.86 32.27 97.97 8.05 70.33 8.05 38.22 32.27 65.86"/>
      <polygon class="cls-2" points="32.27 65.86 32.27 97.97 111.87 89.28 111.87 57.17 32.27 65.86"/>
      <g>
        <polygon class="cls-5" points="32.27 68.08 32.27 68.9 111.87 60.22 111.87 59.4 32.27 68.08"/>
        <polygon class="cls-5" points="32.27 71.5 32.27 72.32 111.87 63.63 111.87 62.81 32.27 71.5"/>
        <polygon class="cls-5" points="32.27 74.91 32.27 75.73 111.87 67.04 111.87 66.22 32.27 74.91"/>
        <polygon class="cls-5" points="32.27 78.32 32.27 79.14 111.87 70.46 111.87 69.64 32.27 78.32"/>
        <polygon class="cls-5" points="32.27 81.73 32.27 82.55 111.87 73.87 111.87 73.05 32.27 81.73"/>
        <polygon class="cls-5" points="32.27 85.15 32.27 85.97 111.87 77.28 111.87 76.46 32.27 85.15"/>
        <polygon class="cls-5" points="32.27 88.56 32.27 89.38 111.87 80.69 111.87 79.87 32.27 88.56"/>
        <polygon class="cls-5" points="32.27 91.97 32.27 92.79 111.87 84.11 111.87 83.29 32.27 91.97"/>
        <polygon class="cls-5" points="32.27 95.38 32.27 96.2 111.87 87.52 111.87 86.7 32.27 95.38"/>
      </g>
      <g>
        <polygon class="cls-2" points="32.27 68.08 32.27 68.9 8.05 41.6 8.05 40.78 32.27 68.08"/>
        <polygon class="cls-2" points="32.27 71.5 32.27 72.32 8.05 45.01 8.05 44.19 32.27 71.5"/>
        <polygon class="cls-2" points="32.27 74.91 32.27 75.73 8.05 48.43 8.05 47.61 32.27 74.91"/>
        <polygon class="cls-2" points="32.27 78.32 32.27 79.14 8.05 51.84 8.05 51.02 32.27 78.32"/>
        <polygon class="cls-2" points="32.27 81.73 32.27 82.55 8.05 55.25 8.05 54.43 32.27 81.73"/>
        <polygon class="cls-2" points="32.27 85.15 32.27 85.97 8.05 58.67 8.05 57.84 32.27 85.15"/>
        <polygon class="cls-2" points="32.27 88.56 32.27 89.38 8.05 62.08 8.05 61.26 32.27 88.56"/>
        <polygon class="cls-2" points="32.27 91.97 32.27 92.79 8.05 65.49 8.05 64.67 32.27 91.97"/>
        <polygon class="cls-2" points="32.27 95.38 32.27 96.2 8.05 68.9 8.05 68.08 32.27 95.38"/>
      </g>
    </g>
  </g>
  <g>
    <path class="cls-6" d="M77.38,101.71s0,.08-.01.12c.01.04.01.09.01.13s0,.08-.01.12c.01.04.01.09.01.13s0,.08-.01.12c.01.04.01.09.01.13s0,.08-.01.12c.01.04.01.09.01.13s0,.08-.01.12c.01.04.01.09.01.13s0,.08-.01.12c.01.04.01.09.01.13s0,.08-.01.12c.01.04.01.09.01.13s0,.08-.01.12c.01.04.01.09.01.13s0,.08-.01.12c.01.04.01.09.01.13,0,1.07-.26,2.08-.76,3.01-.42.74-.95,1.4-1.6,1.96-.63.54-1.35.97-2.14,1.27-.81.3-1.65.45-2.49.45-.92,0-1.79-.18-2.59-.54-.72-.33-1.38-.78-1.95-1.36-.25-.25-.47-.5-.67-.74-.14-.17-.31-.4-.5-.66l-.17-.22c-.37.76-.85,1.33-1.28,1.74-1.22,1.14-2.83,1.72-4.8,1.72s-3.59-.58-4.8-1.72c-.88-.82-1.93-2.31-1.93-4.69v-.18c-.39.64-.81,1.25-1.27,1.8-1.42,1.69-3.14,2.98-5.12,3.83-1.9.81-3.97,1.22-6.17,1.22s-4.17-.38-6-1.13c-1.94-.8-3.63-2.03-5.01-3.67-.66-.79-1.25-1.67-1.75-2.64v.77c0,2.41-1.06,3.9-1.96,4.73-1.21,1.12-2.81,1.68-4.77,1.68s-3.58-.57-4.79-1.7c-.88-.83-1.92-2.31-1.92-4.71v-13.67c-1.2.15-2.28-.01-3.28-.47-.72-.33-1.35-.79-1.87-1.36-.52-.55-.92-1.21-1.19-1.94-.26-.68-.38-1.4-.38-2.15v-2.5c0-1.61.63-3.13,1.77-4.27.49-.49,1.15-.99,2.13-1.62.8-.51,1.8-1.1,2.99-1.75.65-.35,1.21-.65,1.69-.9.59-.31,1.12-.55,1.61-.75.54-.22,1.07-.39,1.56-.51.62-.14,1.24-.22,1.86-.22,2.36,0,3.86,1,4.7,1.85.85.84,1.85,2.34,1.85,4.7v1.34c.56-1.12,1.21-2.14,1.96-3.03,1.42-1.69,3.14-2.98,5.11-3.83,1.9-.81,3.98-1.23,6.19-1.23s4.17.38,5.99,1.14c1.94.8,3.62,2.03,5,3.67.38.46.74.96,1.07,1.48v-1.54c0-2.38,1.05-3.87,1.93-4.69,1.21-1.14,2.83-1.72,4.8-1.72s3.58.58,4.8,1.72c.88.82,1.93,2.31,1.93,4.68v5.21l.2-.22c.14-.15.28-.29.4-.41.04-.04.07-.07.11-.1.58-.55,1.24-.98,1.96-1.28,1.54-.64,3.42-.63,5.05.05.77.32,1.46.76,2.05,1.31.61.56,1.11,1.22,1.48,1.96.43.88.65,1.8.65,2.74,0,.04-.01.08-.01.13,0,.04.01.08.01.12s-.01.08-.01.13c0,.04.01.08.01.12s-.01.08-.01.13c0,.04.01.08.01.12s-.01.08-.01.13c0,.04.01.08.01.12s-.01.08-.01.13c0,.04.01.08.01.12s-.01.08-.01.13c0,.04.01.08.01.12s-.01.08-.01.13c0,.04.01.08.01.12s-.01.08-.01.13c0,.04.01.08.01.12s-.01.08-.01.13c0,.04.01.08.01.12s-.01.08-.01.13c0,.04.01.08.01.12,0,.83-.18,1.65-.53,2.45-.33.74-.82,1.44-1.5,2.12l-1.52,1.47,2.24,2.78c.4.46.77,1.04,1.05,1.65.39.83.58,1.71.58,2.62,0,.04,0,.08-.01.12.01.04.01.09.01.13Z"/>
    <g>
      <path class="cls-3" d="M73.37,101.58s.01-.08.01-.12c0-.33-.07-.65-.2-.93-.13-.29-.32-.57-.54-.83l-4.53-5.61,4.09-3.97c.32-.32.55-.62.67-.91.13-.29.19-.57.19-.83,0-.04-.01-.08-.01-.12,0-.04.01-.09.01-.13s-.01-.08-.01-.12c0-.04.01-.09.01-.13s-.01-.08-.01-.12c0-.04.01-.09.01-.13s-.01-.08-.01-.12c0-.04.01-.09.01-.13s-.01-.08-.01-.12c0-.04.01-.09.01-.13s-.01-.08-.01-.12c0-.04.01-.09.01-.13s-.01-.08-.01-.12c0-.04.01-.09.01-.13s-.01-.08-.01-.12c0-.04.01-.09.01-.13s-.01-.08-.01-.12c0-.04.01-.09.01-.13s-.01-.08-.01-.12c0-.04.01-.09.01-.13,0-.32-.08-.63-.23-.94-.15-.31-.36-.58-.61-.81s-.55-.42-.88-.56c-.33-.14-.68-.21-1.04-.21s-.66.06-.93.17-.53.28-.75.49c-.11.11-.22.23-.35.36-.13.13-.29.3-.47.5l-6.62,7.26v-15.51c0-.76-.22-1.35-.67-1.78-.45-.42-1.13-.63-2.06-.63s-1.61.21-2.06.63-.67,1.01-.67,1.78v27.57c0,.76.22,1.36.67,1.78.45.42,1.13.63,2.06.63s1.61-.21,2.06-.63.67-1.01.67-1.78v-8.24l6.74,9.04c.15.2.28.37.39.51.11.14.24.28.39.43.23.23.48.41.76.53.28.13.59.19.94.19s.72-.07,1.07-.2.67-.32.95-.56c.28-.24.51-.52.69-.85s.27-.69.27-1.07c0-.05-.01-.09-.01-.13,0-.04.01-.08.01-.12,0-.05-.01-.09-.01-.13,0-.04.01-.08.01-.12,0-.05-.01-.09-.01-.13,0-.04.01-.08.01-.12,0-.05-.01-.09-.01-.13,0-.04.01-.08.01-.12,0-.05-.01-.09-.01-.13,0-.04.01-.08.01-.12,0-.05-.01-.09-.01-.13,0-.04.01-.08.01-.12,0-.05-.01-.09-.01-.13,0-.04.01-.08.01-.12,0-.05-.01-.09-.01-.13,0-.04.01-.08.01-.12,0-.05-.01-.09-.01-.13,0-.04.01-.08.01-.12,0-.05-.01-.09-.01-.13Z"/>
      <path class="cls-3" d="M19.83,76.07c-.31,0-.62.04-.92.11-.31.07-.65.18-1.01.33-.37.15-.78.34-1.25.58-.46.24-1,.53-1.62.86-1.12.62-2.04,1.15-2.75,1.61-.71.46-1.2.82-1.47,1.08-.4.4-.6.88-.6,1.45,0,.05,0,.09.01.13,0,.04-.01.08-.01.12,0,.05,0,.09.01.13,0,.04-.01.08-.01.12,0,.05,0,.09.01.13,0,.04-.01.08-.01.12,0,.05,0,.09.01.13,0,.04-.01.08-.01.12,0,.05,0,.09.01.13,0,.04-.01.08-.01.12,0,.05,0,.09.01.13,0,.04-.01.08-.01.12,0,.05,0,.09.01.13,0,.04-.01.08-.01.12,0,.05,0,.09.01.13,0,.04-.01.08-.01.12,0,.05,0,.09.01.13,0,.04-.01.08-.01.12,0,.05,0,.09.01.13,0,.04-.01.08-.01.12,0,.27.04.52.13.75s.21.44.38.62c.17.18.37.32.6.43.23.11.49.16.77.16.13,0,.27,0,.4-.03.13-.02.28-.06.43-.11.15-.05.33-.12.52-.2s.42-.18.69-.3l2.79-1.26v19.53c0,.78.22,1.37.66,1.79.44.42,1.12.62,2.05.62s1.61-.21,2.06-.62c.45-.42.67-1.01.67-1.79v-25.56c0-.8-.22-1.43-.67-1.88-.45-.45-1.07-.67-1.88-.67Z"/>
      <path class="cls-3" d="M49.81,83.58c-.53-1.74-1.27-3.18-2.24-4.33-.96-1.14-2.12-1.99-3.46-2.55-1.34-.55-2.83-.83-4.47-.83s-3.21.3-4.61.9c-1.4.6-2.61,1.51-3.63,2.73-1.02,1.22-1.82,2.74-2.39,4.57-.57,1.83-.85,3.96-.85,6.41,0,.04,0,.08,0,.13,0,.04,0,.08,0,.12s0,.08,0,.13c0,.04,0,.08,0,.12s0,.08,0,.13c0,.04,0,.08,0,.12s0,.08,0,.13c0,.04,0,.08,0,.12s0,.08,0,.13c0,.04,0,.08,0,.12s0,.08,0,.13c0,.04,0,.08,0,.12s0,.08,0,.13c0,.04,0,.08,0,.12s0,.08,0,.13c0,.04,0,.08,0,.12s0,.08,0,.13c0,.04,0,.08,0,.12s0,.08,0,.13c0,.04,0,.08,0,.12,0,2.37.26,4.42.79,6.16.53,1.74,1.27,3.18,2.24,4.33.96,1.14,2.12,1.99,3.47,2.55,1.35.56,2.84.83,4.48.83s3.19-.3,4.6-.9c1.41-.6,2.62-1.51,3.63-2.72s1.81-2.73,2.38-4.57c.57-1.83.85-3.97.85-6.42,0-.04,0-.08,0-.13,0-.04,0-.08,0-.12s0-.08,0-.13c0-.04,0-.08,0-.12s0-.08,0-.13c0-.04,0-.08,0-.12s0-.08,0-.13c0-.04,0-.08,0-.12s0-.08,0-.13c0-.04,0-.08,0-.12s0-.08,0-.13c0-.04,0-.08,0-.12s0-.08,0-.13c0-.04,0-.08,0-.12s0-.08,0-.13c0-.04,0-.08,0-.12s0-.08,0-.13c0-.04,0-.08,0-.12s0-.08,0-.13c0-.04,0-.08,0-.12,0-2.37-.26-4.42-.79-6.16ZM43.41,97.91c-.52.79-1.13,1.36-1.82,1.71-.69.35-1.42.52-2.18.52s-1.49-.18-2.19-.53c-.7-.35-1.31-.93-1.84-1.73-.53-.8-.95-1.83-1.26-3.11-.24-.98-.39-2.13-.44-3.45.06-1.29.2-2.43.43-3.4.31-1.27.72-2.3,1.23-3.09.51-.79,1.12-1.36,1.81-1.71.69-.35,1.42-.52,2.18-.52s1.51.18,2.21.53c.7.35,1.31.93,1.84,1.73.53.8.95,1.83,1.26,3.11.24.98.39,2.13.44,3.44-.06,1.3-.2,2.43-.43,3.4-.31,1.27-.72,2.3-1.24,3.09Z"/>
    </g>
    <g>
      <path class="cls-1" d="M14.15,83.42c-.27.12-.5.22-.69.3s-.37.15-.52.2c-.15.05-.3.09-.43.11-.13.02-.27.03-.4.03-.28,0-.54-.05-.77-.16-.23-.11-.43-.25-.6-.43-.17-.18-.29-.39-.38-.62s-.13-.49-.13-.75c0-.56.2-1.04.6-1.45.27-.27.76-.63,1.47-1.08.71-.45,1.63-.99,2.75-1.61.62-.33,1.15-.62,1.62-.86.46-.24.88-.43,1.25-.58.37-.15.71-.26,1.01-.33.31-.07.62-.11.92-.11.8,0,1.43.22,1.88.67.45.45.67,1.07.67,1.88v23.06c0,.78-.22,1.37-.67,1.79-.45.42-1.13.62-2.06.62s-1.61-.21-2.05-.62c-.44-.42-.66-1.01-.66-1.79v-19.53l-2.79,1.26Z"/>
      <path class="cls-1" d="M28.16,90.49c0-2.45.28-4.59.85-6.41.57-1.83,1.36-3.35,2.39-4.57,1.02-1.22,2.23-2.13,3.63-2.73,1.4-.6,2.93-.9,4.61-.9s3.12.28,4.47.83c1.34.56,2.5,1.41,3.46,2.55.96,1.14,1.71,2.59,2.24,4.33s.79,3.79.79,6.16-.28,4.59-.85,6.42c-.57,1.83-1.36,3.36-2.38,4.57s-2.23,2.12-3.63,2.72c-1.41.6-2.94.9-4.6.9s-3.12-.28-4.48-.83c-1.35-.55-2.51-1.41-3.47-2.55-.96-1.14-1.71-2.59-2.24-4.33-.53-1.74-.79-3.79-.79-6.16ZM33.66,90.08c0,1.85.16,3.41.47,4.69.31,1.28.74,2.31,1.26,3.11.53.8,1.14,1.37,1.84,1.73.7.35,1.43.53,2.19.53s1.49-.17,2.18-.52c.69-.35,1.29-.92,1.82-1.71.52-.79.94-1.82,1.24-3.09s.46-2.82.46-4.66-.16-3.41-.47-4.69c-.31-1.28-.74-2.31-1.26-3.11-.53-.8-1.14-1.37-1.84-1.73-.7-.35-1.43-.53-2.21-.53s-1.49.17-2.18.52c-.69.35-1.29.92-1.81,1.71-.52.79-.93,1.82-1.23,3.09-.31,1.27-.46,2.82-.46,4.66Z"/>
      <path class="cls-1" d="M67.78,84.86c.19-.2.34-.37.47-.5.13-.13.24-.25.35-.36.23-.21.48-.38.75-.49s.58-.17.93-.17.71.07,1.04.21c.33.14.63.33.88.56s.46.5.61.81c.15.31.23.62.23.94,0,.27-.06.55-.19.83-.13.29-.35.59-.67.91l-5.22,5.07,5.66,7.02c.23.27.41.54.54.83.13.29.2.6.2.93,0,.39-.09.75-.27,1.07s-.41.61-.69.85c-.28.24-.6.43-.95.56s-.71.2-1.07.2-.66-.06-.94-.19c-.28-.13-.54-.3-.76-.53-.15-.15-.28-.29-.39-.43-.11-.14-.24-.31-.39-.51l-6.74-9.04v8.24c0,.76-.22,1.36-.67,1.78s-1.13.63-2.06.63-1.61-.21-2.06-.63c-.45-.42-.67-1.01-.67-1.78v-25.07c0-.76.22-1.35.67-1.78s1.13-.63,2.06-.63,1.61.21,2.06.63c.45.42.67,1.01.67,1.78v15.51l6.62-7.26Z"/>
    </g>
  </g>
</svg>