<?xml version="1.0" encoding="UTF-8"?>
<svg id="Layer_1" xmlns="http://www.w3.org/2000/svg" viewBox="0 0 48 48">
  <defs>
    <style>
      .cls-1 {
        fill: #12993f;
      }

      .cls-2 {
        fill: #1cb829;
      }

      .cls-3 {
        fill: #fff;
        opacity: 0;
      }

      .cls-4 {
        fill: #34d434;
      }

      .cls-5 {
        fill: #54f445;
      }

      .cls-6 {
        fill: #05542a;
      }
    </style>
  </defs>
  <g>
    <g>
      <path class="cls-6" d="M42.1,28.87H5.9c-2.55,0-4.73-1.33-5.57-3.39-.81-1.99-.11-4.15,1.77-5.5L20.2,6.92c2.2-1.59,5.4-1.59,7.6,0l18.1,13.06c1.88,1.36,2.57,3.51,1.77,5.5-.84,2.06-3.02,3.39-5.57,3.39ZM24,9.74c-.33,0-.66.09-.92.28t0,0L4.98,23.07c-.51.37-.48.78-.37,1.06.07.17.37.73,1.29.73h36.2c.92,0,1.22-.56,1.29-.73.11-.28.14-.69-.37-1.06l-18.1-13.06c-.26-.19-.59-.28-.92-.28ZM21.64,8.47h.01-.01Z"/>
      <path class="cls-6" d="M11.54,25.84H2.27c-1.25,0-2.27-.9-2.27-2v-5.74c0-1.1,1.02-2,2.27-2h9.27c1.25,0,2.27.9,2.27,2v5.74c0,1.1-1.02,2-2.27,2ZM4.54,21.84h4.73v-1.74h-4.73v1.74Z"/>
      <path class="cls-6" d="M42.1,28.87h-17.88c-1.25,0-2.27-.9-2.27-2V7.74c0-.55.26-1.08.71-1.46s1.07-.58,1.69-.54c1.27.07,2.49.49,3.45,1.18l18.1,13.05c1.88,1.35,2.57,3.51,1.77,5.5-.84,2.06-3.02,3.39-5.57,3.39ZM26.49,24.87h15.61c.92,0,1.22-.56,1.29-.74.11-.28.14-.69-.37-1.06l-16.53-11.92v13.72Z"/>
      <path class="cls-6" d="M45.73,25.84h-9.27c-1.25,0-2.27-.9-2.27-2v-5.74c0-1.1,1.02-2,2.27-2h9.27c1.25,0,2.27.9,2.27,2v5.74c0,1.1-1.02,2-2.27,2ZM38.73,21.84h4.73v-1.74h-4.73v1.74Z"/>
      <path class="cls-6" d="M32.35,48h-16.26c-3.76,0-6.81-2.69-6.81-6v-15.13c0-1.1,1.02-2,2.27-2h25.35c1.25,0,2.27.9,2.27,2v15.13c0,3.31-3.06,6-6.81,6ZM13.81,28.87v13.13c0,1.1,1.02,2,2.27,2h16.26c1.25,0,2.27-.9,2.27-2v-13.13H13.81Z"/>
      <path class="cls-6" d="M32.35,48h-8.13c-1.25,0-2.27-.9-2.27-2v-19.13c0-1.1,1.02-2,2.27-2h12.67c1.25,0,2.27.9,2.27,2v15.13c0,3.31-3.06,6-6.81,6ZM26.49,44h5.86c1.25,0,2.27-.9,2.27-2v-13.13h-8.13v15.13Z"/>
      <path class="cls-6" d="M42.1,23.14H5.9c-2.55,0-4.73-1.33-5.57-3.39-.81-1.99-.11-4.15,1.77-5.5L20.2,1.19h0c2.2-1.59,5.39-1.59,7.59,0l18.1,13.06c1.88,1.36,2.57,3.51,1.77,5.5-.84,2.06-3.02,3.39-5.57,3.39ZM23.08,4.28L4.98,17.34c-.51.37-.48.78-.37,1.06.07.17.37.73,1.29.73h36.2c.92,0,1.22-.56,1.29-.73.11-.28.14-.69-.37-1.06L24.92,4.28c-.51-.37-1.32-.37-1.84,0Z"/>
      <path class="cls-6" d="M42.1,23.14h-17.88c-1.25,0-2.27-.9-2.27-2V2.01c0-.55.26-1.08.71-1.46S23.73-.02,24.35.02c1.27.07,2.49.49,3.45,1.18l18.1,13.05c1.88,1.35,2.57,3.51,1.77,5.5-.84,2.06-3.02,3.39-5.57,3.39ZM26.49,19.14h15.61c.92,0,1.22-.56,1.29-.74.11-.28.14-.69-.37-1.06L26.49,5.42v13.72Z"/>
      <path class="cls-6" d="M32.35,42.27h-16.26c-3.76,0-6.81-2.69-6.81-6v-15.13c0-1.1,1.02-2,2.27-2h25.35c1.25,0,2.27.9,2.27,2v15.13c0,3.31-3.06,6-6.81,6ZM13.81,23.14v13.13c0,1.1,1.02,2,2.27,2h16.26c1.25,0,2.27-.9,2.27-2v-13.13H13.81Z"/>
      <path class="cls-6" d="M32.35,42.27h-8.13c-1.25,0-2.27-.9-2.27-2v-19.13c0-1.1,1.02-2,2.27-2h12.67c1.25,0,2.27.9,2.27,2v15.13c0,3.31-3.06,6-6.81,6ZM26.49,38.27h5.86c1.25,0,2.27-.9,2.27-2v-13.13h-8.13v15.13Z"/>
    </g>
    <g>
      <path class="cls-2" d="M21.64,8.47L3.54,21.53c-2.55,1.84-1,5.34,2.36,5.34h36.2c3.36,0,4.91-3.51,2.36-5.34l-18.1-13.06c-1.36-.98-3.36-.98-4.72,0Z"/>
      <rect class="cls-2" x="2.27" y="18.1" width="9.27" height="5.74"/>
      <path class="cls-1" d="M42.1,26.87h-17.88V7.74c.76.04,1.52.28,2.14.73l18.11,13.06c2.54,1.83,1,5.34-2.36,5.34Z"/>
      <rect class="cls-1" x="36.46" y="18.1" width="9.27" height="5.74"/>
      <path class="cls-2" d="M32.35,46h-16.27c-2.51,0-4.54-1.79-4.54-4v-15.13h25.35v15.13c0,2.21-2.03,4-4.54,4Z"/>
      <path class="cls-1" d="M32.35,46h-8.13v-19.13h12.68v15.13c0,2.21-2.03,4-4.54,4Z"/>
      <path class="cls-5" d="M21.64,2.74L3.54,15.79c-2.55,1.84-1,5.34,2.36,5.34h36.2c3.36,0,4.91-3.51,2.36-5.34L26.36,2.74c-1.36-.98-3.36-.98-4.72,0Z"/>
      <path class="cls-4" d="M42.1,21.14h-17.88V2.01c.76.04,1.52.28,2.14.73l18.11,13.06c2.54,1.83,1,5.34-2.36,5.34Z"/>
      <path class="cls-5" d="M32.35,40.27h-16.27c-2.51,0-4.54-1.79-4.54-4v-15.13h25.35v15.13c0,2.21-2.03,4-4.54,4Z"/>
      <path class="cls-4" d="M32.35,40.27h-8.13v-19.13h12.68v15.13c0,2.21-2.03,4-4.54,4Z"/>
    </g>
  </g>
  <rect class="cls-3" width="48" height="48"/>
</svg>