<?xml version="1.0" encoding="UTF-8"?>
<svg id="Layer_1" xmlns="http://www.w3.org/2000/svg" viewBox="0 0 24 24">
  <defs>
    <style>
      .cls-1 {
        fill: #dd2a39;
      }

      .cls-2 {
        fill: #fff;
        opacity: 0;
      }

      .cls-3 {
        fill: #f43f3f;
      }

      .cls-4 {
        fill: #b51933;
      }

      .cls-5 {
        fill: #ff7d63;
      }

      .cls-6 {
        fill: #7a1839;
      }
    </style>
  </defs>
  <rect class="cls-2" width="24" height="24"/>
  <g>
    <g>
      <path class="cls-6" d="M12,21.39c-.77,0-1.54-.26-2.17-.79l-7.11-5.93c-1.09-.91-1.5-2.37-1.02-3.71.48-1.38,1.74-2.26,3.19-2.26h14.22c1.46,0,2.71.89,3.19,2.26.47,1.34.07,2.8-1.03,3.71l-7.11,5.93c-.63.52-1.4.79-2.17.79ZM12.32,17.51h0ZM6.55,12.7l5.45,4.55,5.45-4.55H6.55Z"/>
      <path class="cls-6" d="M7.11,16.68h-3.64c-1.08,0-1.96-.9-1.96-2v-2.61c0-1.1.88-2,1.96-2h3.64c1.08,0,1.96.9,1.96,2v2.61c0,1.1-.88,2-1.96,2Z"/>
      <path class="cls-6" d="M12.09,21.39c-.5,0-.98-.19-1.35-.54-.39-.38-.62-.9-.62-1.46v-8.69c0-1.1.88-2,1.96-2h7.02c1.46,0,2.71.89,3.2,2.27.47,1.34.07,2.8-1.02,3.71l-7.11,5.94c-.55.46-1.25.73-1.97.78-.04,0-.08,0-.12,0ZM11.68,17.51s0,0,0,0h0ZM14.05,12.7v2.84l3.4-2.84h-3.4ZM19.11,12.7h0,0Z"/>
      <path class="cls-6" d="M20.54,16.68h-3.64c-1.08,0-1.96-.9-1.96-2v-2.61c0-1.1.88-2,1.96-2h3.64c1.08,0,1.96.9,1.96,2v2.61c0,1.1-.88,2-1.96,2Z"/>
      <path class="cls-6" d="M17.06,12.7H7.11c-1.08,0-1.96-.9-1.96-2V3.82c0-2.11,1.68-3.82,3.75-3.82h6.39c2.07,0,3.75,1.71,3.75,3.82v6.88c0,1.1-.88,2-1.96,2ZM9.07,8.7h6.03V4h-6.03v4.7ZM15.28,4h0,0Z"/>
      <path class="cls-6" d="M17.06,12.7h-4.98c-1.08,0-1.96-.9-1.96-2V2c0-1.1.88-2,1.96-2h3.19c2.07,0,3.75,1.71,3.75,3.82v6.88c0,1.1-.88,2-1.96,2ZM14.05,8.7h1.05V4h-1.05v4.7ZM15.28,4h0,0Z"/>
      <path class="cls-6" d="M12,24c-.77,0-1.54-.26-2.17-.79l-7.11-5.93c-1.09-.91-1.5-2.37-1.02-3.71.48-1.38,1.74-2.26,3.19-2.26h14.22c1.46,0,2.71.89,3.19,2.26.47,1.34.07,2.8-1.03,3.71l-7.11,5.93c-.63.52-1.4.79-2.17.79ZM12.32,20.12h0,0ZM6.55,15.3l5.45,4.55,5.45-4.55H6.55Z"/>
      <path class="cls-6" d="M12.09,24c-.5,0-.98-.19-1.35-.54-.39-.38-.62-.9-.62-1.46v-8.69c0-1.1.88-2,1.96-2h7.02c1.46,0,2.71.89,3.2,2.27.47,1.34.07,2.8-1.02,3.71l-7.11,5.94c-.55.46-1.25.73-1.97.78-.04,0-.08,0-.12,0ZM11.68,20.12s0,0,0,0h0ZM14.05,15.3v2.84l3.4-2.84h-3.4ZM19.11,15.3h0,0Z"/>
      <path class="cls-6" d="M17.06,15.3H7.11c-1.08,0-1.96-.9-1.96-2v-6.88c0-2.11,1.68-3.82,3.75-3.82h6.39c2.07,0,3.75,1.71,3.75,3.82v6.88c0,1.1-.88,2-1.96,2ZM9.07,11.3h6.03v-4.7h-6.03v4.7ZM15.28,6.61h0,0Z"/>
      <path class="cls-6" d="M17.06,15.3h-4.98c-1.08,0-1.96-.9-1.96-2V4.61c0-1.1.88-2,1.96-2h3.19c2.07,0,3.75,1.71,3.75,3.82v6.88c0,1.1-.88,2-1.96,2ZM14.05,11.3h1.05v-4.7h-1.05v4.7ZM15.28,6.61h0,0Z"/>
    </g>
    <g>
      <path class="cls-1" d="M11.07,19.06l-7.11-5.93c-1-.84-.39-2.43.93-2.43h14.22c1.32,0,1.93,1.59.93,2.43l-7.11,5.93c-.53.44-1.32.44-1.85,0Z"/>
      <rect class="cls-1" x="3.46" y="12.07" width="3.64" height="2.61"/>
      <path class="cls-4" d="M19.11,10.7h-7.02v8.69c.3-.02.6-.13.84-.33l7.11-5.94c1-.83.39-2.43-.93-2.43Z"/>
      <rect class="cls-4" x="16.89" y="12.07" width="3.64" height="2.61"/>
      <path class="cls-1" d="M15.28,2h-6.39c-.99,0-1.78.81-1.78,1.82v6.88h9.96V3.82c0-1-.8-1.82-1.78-1.82Z"/>
      <path class="cls-4" d="M15.28,2h-3.19v8.7h4.98V3.82c0-1-.8-1.82-1.78-1.82Z"/>
      <path class="cls-5" d="M11.07,21.67l-7.11-5.93c-1-.84-.39-2.43.93-2.43h14.22c1.32,0,1.93,1.59.93,2.43l-7.11,5.93c-.53.44-1.32.44-1.85,0Z"/>
      <path class="cls-3" d="M19.11,13.3h-7.02v8.69c.3-.02.6-.13.84-.33l7.11-5.94c1-.83.39-2.43-.93-2.43Z"/>
      <path class="cls-5" d="M15.28,4.61h-6.39c-.99,0-1.78.81-1.78,1.82v6.88h9.96v-6.88c0-1-.8-1.82-1.78-1.82Z"/>
      <path class="cls-3" d="M15.28,4.61h-3.19v8.7h4.98v-6.88c0-1-.8-1.82-1.78-1.82Z"/>
    </g>
  </g>
</svg>