<?xml version="1.0" encoding="UTF-8"?>
<svg id="Icon" xmlns="http://www.w3.org/2000/svg" viewBox="0 0 120 120">
  <defs>
    <style>
      .cls-1 {
        fill: #fff8d9;
      }

      .cls-2 {
        fill: #f4b545;
      }

      .cls-3 {
        fill: #6d3108;
      }

      .cls-4 {
        fill: #ffe277;
      }

      .cls-5 {
        opacity: .5;
      }
    </style>
  </defs>
  <g>
    <path class="cls-3" d="M114.68,63.18l-6.42-23.96s0,0,0,0l-5.26-19.63c-.07-.26-.16-.51-.28-.74-.08-.16-.18-.3-.28-.45-.05-.07-.08-.15-.14-.22-.12-.16-.27-.3-.41-.44-.04-.04-.08-.09-.12-.12-.39-.35-.85-.61-1.35-.78-.03,0-.05-.01-.08-.02-.22-.07-.45-.13-.68-.16-.07,0-.15,0-.22,0-.19-.01-.37-.03-.56-.02-.26.02-.53.06-.78.13l-17.16,4.6s0,0,0,0l-16.72,4.48s0,0,0,0l-35.59,9.54s0,0,0,0l-17.69,4.74c-1.02.27-1.9.94-2.43,1.86-.24.42-.39.87-.47,1.34-.22.33-.39.68-.5,1.06-.14.17-.28.35-.39.54-.18.31-.3.64-.39.98-.09.13-.19.24-.27.38-.18.31-.3.64-.39.98-.78.96-1.11,2.26-.76,3.55l11.68,43.59c.27,1.02.94,1.9,1.86,2.43.61.35,1.3.54,2,.54.35,0,.69-.04,1.04-.14l87.18-23.36c1.02-.27,1.9-.94,2.43-1.86.18-.31.3-.65.39-.99.13-.16.26-.33.37-.51.18-.31.3-.64.39-.98.09-.13.19-.24.27-.38.16-.27.27-.56.36-.85.45-.54.75-1.19.86-1.89.61-.92.85-2.08.54-3.23Z"/>
    <g>
      <rect class="cls-4" x="13.48" y="37.34" width="90.26" height="45.13" transform="translate(-13.51 17.21) rotate(-15)"/>
      <rect class="cls-2" x="14.24" y="35.84" width="90.26" height="45.13" transform="translate(-13.09 17.36) rotate(-15)"/>
      <rect class="cls-4" x="14.9" y="34.48" width="90.26" height="45.13" transform="translate(-12.72 17.48) rotate(-15)"/>
      <rect class="cls-2" x="15.64" y="33.08" width="90.26" height="45.13" transform="translate(-12.33 17.62) rotate(-15)"/>
      <rect class="cls-4" x="16.26" y="31.53" width="90.26" height="45.13" transform="translate(-11.91 17.73) rotate(-15)"/>
      <polygon class="cls-1" points="65.25 29.7 51.76 80.04 23.64 87.57 20.17 74.65 29.66 39.24 65.25 29.7"/>
      <polygon class="cls-2" points="99.14 20.62 104.4 40.26 96.99 67.92 68.49 75.56 81.97 25.22 99.14 20.62"/>
      <g>
        <path class="cls-3" d="M22.51,51.6c.12-.03.22-.02.31.03s.15.16.19.31.04.27-.01.36c-.05.09-.13.15-.26.18l-2.36.63c-.16.04-.3.03-.41-.03s-.19-.18-.23-.33l-1.2-4.48c-.04-.16-.03-.29.04-.4.07-.11.19-.19.38-.24s.34-.05.45.01c.11.06.19.17.23.32l1.1,4.1,1.76-.47Z"/>
        <path class="cls-3" d="M23.03,49.57c-.12-.45-.16-.87-.13-1.26.03-.39.13-.74.3-1.05.17-.31.4-.57.69-.79.29-.22.64-.38,1.04-.49s.76-.14,1.11-.1.67.15.96.32c.29.18.54.42.75.72.21.3.38.67.49,1.1.12.45.16.87.13,1.26-.03.39-.13.74-.3,1.05-.17.31-.4.57-.69.79-.29.22-.64.38-1.04.49s-.76.14-1.11.1-.67-.15-.96-.32c-.29-.17-.54-.41-.75-.72-.21-.3-.38-.67-.49-1.1ZM24.14,49.19c.08.32.2.58.34.8.14.22.31.39.48.52s.37.21.58.24c.21.03.41.02.62-.03s.39-.15.55-.28c.16-.13.29-.29.38-.49.09-.2.14-.43.15-.68.01-.26-.02-.55-.11-.86s-.2-.58-.34-.81c-.14-.22-.3-.39-.48-.52-.18-.13-.37-.2-.58-.24s-.41-.02-.62.03-.39.15-.55.28c-.16.13-.28.29-.37.49-.09.2-.14.43-.16.69s.02.55.11.86Z"/>
        <path class="cls-3" d="M28.76,45.99c-.12.03-.22.02-.31-.03-.09-.05-.15-.16-.19-.31s-.04-.27.01-.36c.05-.09.13-.15.25-.18l3.59-.96c.12-.03.22-.02.31.03.09.05.15.16.19.31s.04.27-.01.36c-.05.09-.13.15-.25.18l-1.24.33,1.1,4.1c.04.16.03.29-.04.4-.07.11-.19.19-.38.24s-.34.05-.45-.01c-.11-.06-.19-.17-.23-.32l-1.1-4.1-1.24.33Z"/>
        <path class="cls-3" d="M33.66,44.68c-.12.03-.22.02-.31-.03-.09-.05-.15-.16-.19-.31s-.04-.27.01-.36c.05-.09.13-.15.25-.18l3.59-.96c.12-.03.22-.02.31.03.09.05.15.16.19.31s.04.27-.01.36c-.05.09-.13.15-.25.18l-1.24.33,1.1,4.1c.04.16.03.29-.04.4-.07.11-.19.19-.38.24s-.34.05-.45-.01c-.11-.06-.19-.17-.23-.32l-1.1-4.1-1.24.33Z"/>
        <path class="cls-3" d="M40.78,46.73l1.86-.5c.11-.03.21-.02.3.04.09.05.15.15.19.29s.03.26-.01.35c-.05.09-.13.15-.24.18l-2.46.66c-.16.04-.3.03-.41-.03s-.19-.18-.23-.33l-1.19-4.44c-.04-.16-.03-.29.03-.4s.18-.19.34-.23l2.44-.65c.12-.03.22-.02.3.03.09.05.15.15.19.29s.03.26-.01.35c-.05.09-.13.15-.25.18l-1.84.49.37,1.39,1.57-.42c.11-.03.21-.02.3.04.09.05.15.15.19.29s.03.25-.02.34c-.05.09-.13.15-.24.18l-1.57.42.4,1.5Z"/>
        <path class="cls-3" d="M45.48,45.9c.04.16.03.29-.04.39-.07.11-.19.19-.37.24s-.34.04-.44-.02c-.11-.06-.19-.17-.23-.32l-1.2-4.48c-.04-.16-.03-.29.03-.4s.18-.19.34-.23l1.16-.31c.37-.1.7-.15.99-.14.29,0,.54.05.75.14s.39.22.52.39c.13.17.23.36.29.59.05.19.07.37.06.54-.01.17-.05.33-.11.49s-.15.29-.26.42c-.11.13-.24.24-.39.34l1.44,1.29c.06.06.11.11.14.15.03.04.06.09.07.15.02.08.02.15,0,.23-.02.07-.05.14-.09.21-.05.06-.1.12-.17.17-.07.05-.14.08-.22.1s-.15.03-.21.02-.12-.03-.18-.06c-.02-.01-.04-.02-.06-.04-.02-.01-.04-.03-.05-.04s-.03-.03-.05-.05c-.02-.02-.04-.04-.06-.06l-1.59-1.56-.55.15.46,1.72ZM45.35,43.19c.18-.05.33-.11.45-.18.12-.07.22-.16.28-.25.07-.09.11-.2.12-.31.02-.11,0-.23-.02-.34s-.08-.22-.15-.31-.15-.15-.25-.19c-.1-.04-.23-.07-.38-.07s-.32.03-.51.08l-.53.14.43,1.59.56-.15Z"/>
        <path class="cls-3" d="M48.01,40.89s-.07-.07-.1-.1c-.03-.03-.06-.06-.08-.09-.02-.03-.04-.06-.06-.09-.02-.03-.03-.06-.04-.1-.02-.08-.02-.17,0-.24.02-.08.05-.15.1-.22.05-.06.1-.12.17-.17.07-.05.13-.08.2-.1.08-.02.14-.02.2-.01.06.01.11.03.15.05.04.02.08.05.12.09s.1.09.17.16l1.26,1.29s.08.09.12.13c.04.04.07.08.1.12.04.04.07.08.1.12h.02c0-.05.01-.11.02-.16,0-.05.02-.1.03-.16,0-.06.02-.12.04-.18l.4-1.71c.02-.1.04-.18.06-.23.01-.05.03-.1.06-.14.03-.05.07-.09.12-.13.05-.04.1-.06.16-.08.07-.02.15-.02.22-.02.08,0,.15.03.21.06.07.03.12.07.18.13.05.05.09.12.11.19.02.07.02.14,0,.2-.01.07-.03.15-.06.25l-.8,2.84.44,1.66c.04.16.03.29-.04.4-.07.11-.2.19-.38.24s-.34.05-.45-.02c-.11-.06-.19-.17-.23-.32l-.44-1.66-2.06-2Z"/>
      </g>
      <g>
        <path class="cls-3" d="M60.22,38.4s-.05.04-.08.06c-.02.02-.04.03-.06.04-.02.01-.03.02-.05.03-.02,0-.03.01-.05.02-.03,0-.07.01-.1,0-.03,0-.06-.02-.09-.03s-.05-.04-.07-.06-.03-.06-.04-.09c-.02-.07,0-.14.03-.2.02-.04.07-.1.15-.18s.17-.18.29-.29c.07-.06.12-.12.17-.16.05-.05.09-.08.13-.11.04-.03.08-.06.11-.07.04-.02.07-.03.11-.04.1-.03.18-.02.26.02.07.04.12.11.15.21l.77,2.86c.03.1.02.18-.02.24-.04.07-.12.12-.23.15s-.21.03-.27,0c-.07-.04-.12-.1-.14-.2l-.65-2.42-.3.25Z"/>
        <path class="cls-3" d="M65.97,38.62c-.13.04-.24.03-.33-.02-.08-.05-.14-.13-.17-.24,0-.03-.01-.06-.02-.09,0-.03,0-.06,0-.09s0-.06.02-.1c0-.03.02-.07.03-.12l.61-1.77c.03-.08.05-.14.09-.2s.07-.1.11-.14c.04-.04.09-.07.14-.1s.11-.05.17-.07c.14-.04.25-.04.34,0,.09.04.15.12.18.24l.45,1.67.31-.08c.07-.02.13-.01.18.02.05.03.09.09.11.18s.02.16,0,.21-.08.09-.15.11l-.31.08.17.63c.03.1.02.18-.02.24-.04.06-.11.11-.23.14s-.2.03-.26,0c-.07-.03-.11-.1-.14-.2l-.17-.63-1.11.3ZM66.58,36.45l-.53,1.58.89-.24-.36-1.34Z"/>
        <path class="cls-3" d="M71.8,35.3s-.05.04-.08.06c-.02.02-.04.03-.06.04-.02.01-.03.02-.05.03-.02,0-.03.01-.05.02-.03,0-.07.01-.1,0-.03,0-.06-.02-.09-.03s-.05-.04-.07-.06-.03-.06-.04-.09c-.02-.07,0-.14.03-.2.02-.04.07-.1.15-.18s.17-.18.29-.29c.07-.06.12-.12.17-.16.05-.05.09-.08.13-.11.04-.03.08-.06.11-.07.04-.02.07-.03.11-.04.1-.03.18-.02.26.02.07.04.12.11.15.21l.77,2.86c.03.1.02.18-.02.24-.04.07-.12.12-.23.15s-.21.03-.27,0c-.07-.04-.12-.1-.14-.2l-.65-2.42-.3.25Z"/>
        <path class="cls-3" d="M77.64,34.16c.26-.06.48-.08.67-.07.19.01.36.05.5.11.14.06.25.15.34.27.09.11.15.25.19.4.04.16.06.32.04.47-.02.15-.07.29-.15.42s-.2.24-.35.34c-.15.1-.33.17-.54.23-.1.03-.2.05-.29.06-.09.01-.17.02-.24.01-.07,0-.13,0-.18-.02s-.09-.03-.12-.04c-.04-.02-.07-.05-.09-.08-.02-.03-.04-.07-.06-.12-.02-.07-.01-.13.02-.18.03-.05.08-.08.14-.1.04,0,.07-.01.11,0s.08.01.14.02.11,0,.18,0c.07,0,.15-.02.25-.04s.18-.06.25-.11.12-.1.16-.16c.04-.06.06-.13.07-.2,0-.07,0-.15-.02-.24-.02-.09-.07-.17-.13-.23s-.14-.12-.24-.15c-.1-.03-.22-.05-.37-.04s-.31.03-.5.08c-.08.02-.15.02-.2-.01-.05-.03-.08-.09-.1-.17l-.28-1.3c-.02-.09-.01-.16.02-.22.04-.06.1-.1.19-.12l1.31-.35c.07-.02.13-.01.19.02.06.03.1.1.12.19s.02.17,0,.23c-.03.06-.08.1-.15.11l-1.04.28.16.74Z"/>
        <path class="cls-3" d="M83.04,32.29s-.05.04-.08.06c-.02.02-.04.03-.06.04-.02.01-.03.02-.05.03-.02,0-.03.01-.05.02-.03,0-.07.01-.1,0-.03,0-.06-.02-.09-.03s-.05-.04-.07-.06-.03-.06-.04-.09c-.02-.07,0-.14.03-.2.02-.04.07-.1.15-.18s.17-.18.29-.29c.07-.06.12-.12.17-.16.05-.05.09-.08.13-.11.04-.03.08-.06.11-.07.04-.02.07-.03.11-.04.1-.03.18-.02.26.02.07.04.12.11.15.21l.77,2.86c.03.1.02.18-.02.24-.04.07-.12.12-.23.15s-.21.03-.27,0c-.07-.04-.12-.1-.14-.2l-.65-2.42-.3.25Z"/>
        <path class="cls-3" d="M88.39,30.85s-.05.04-.08.06c-.02.02-.04.03-.06.04-.02.01-.03.02-.05.03-.02,0-.03.01-.05.02-.03,0-.07.01-.1,0-.03,0-.06-.02-.09-.03s-.05-.04-.07-.06-.03-.06-.04-.09c-.02-.07,0-.14.03-.2.02-.04.07-.1.15-.18s.17-.18.29-.29c.07-.06.12-.12.17-.16.05-.05.09-.08.13-.11.04-.03.08-.06.11-.07.04-.02.07-.03.11-.04.1-.03.18-.02.26.02.07.04.12.11.15.21l.77,2.86c.03.1.02.18-.02.24-.04.07-.12.12-.23.15s-.21.03-.27,0c-.07-.04-.12-.1-.14-.2l-.65-2.42-.3.25Z"/>
        <path class="cls-3" d="M95.85,31c.07-.02.13-.01.19.02.05.04.09.1.12.19s.02.17,0,.22-.08.1-.15.12l-1.7.46c-.11.03-.21.02-.29-.02-.08-.04-.13-.12-.16-.22-.02-.07-.02-.13-.01-.2.01-.06.04-.13.08-.21l.42-.83c.09-.17.16-.32.23-.45.06-.13.11-.24.15-.34s.05-.19.06-.28,0-.17-.02-.26c-.04-.15-.11-.25-.22-.31-.11-.05-.25-.06-.44,0-.07.02-.14.04-.19.07-.05.03-.1.05-.14.08-.04.03-.08.05-.11.07-.03.02-.07.04-.1.05-.06.02-.11.01-.16-.02s-.08-.08-.1-.14c-.02-.07-.01-.14.03-.2.02-.04.05-.07.1-.12.05-.04.1-.08.17-.13s.15-.08.24-.12c.09-.04.19-.07.3-.1.18-.05.35-.07.49-.07.15,0,.28.03.39.09s.2.13.28.22c.07.09.13.21.16.34s.05.27.04.39c0,.13-.03.26-.08.4-.05.14-.11.3-.19.46s-.18.36-.3.58l-.33.61,1.29-.34Z"/>
      </g>
      <g>
        <path class="cls-3" d="M69.86,49.41l-.06-.22.58-1.11c.07-.13.12-.24.16-.34.04-.09.07-.18.08-.26.01-.08,0-.15-.01-.23-.02-.09-.06-.16-.12-.21-.06-.05-.13-.09-.21-.1s-.17-.01-.26.01c-.1.03-.17.07-.23.13s-.1.13-.12.21c-.02.08-.02.17,0,.26l-.28.08c-.04-.14-.04-.28,0-.41.04-.13.11-.24.2-.33s.22-.16.36-.2.28-.04.41-.01c.13.03.24.09.33.18s.15.19.19.32c.02.09.03.18.02.28,0,.1-.04.21-.09.33-.05.13-.13.29-.23.48l-.4.74v.02s1.15-.31,1.15-.31l.07.27-1.56.42Z"/>
        <path class="cls-3" d="M71.67,48.38l-.07-.25.63-2.01.18-.05.1.38-.12.03-.47,1.52v.02s1.47-.39,1.47-.39l.07.27-1.79.48ZM72.97,48.57l-.16-.58-.03-.11-.48-1.78.29-.08.66,2.47-.29.08Z"/>
        <path class="cls-3" d="M75.33,45.29l.3-.08.47,1.77c.04.16.05.3.02.43-.03.13-.09.23-.18.32s-.21.15-.35.19c-.14.04-.26.04-.38.02-.12-.02-.22-.07-.31-.15-.08-.08-.14-.18-.18-.3l.29-.08c.02.07.05.13.1.17.05.04.11.07.18.08.07.01.14,0,.22-.01.09-.02.15-.06.21-.11.05-.05.08-.12.1-.2.01-.08,0-.17-.02-.27l-.47-1.77Z"/>
        <path class="cls-3" d="M77.86,44.62l.3-.08.44,1.64c.05.17.05.33,0,.48-.04.15-.13.29-.25.4-.12.11-.28.2-.48.25s-.37.06-.54.02-.3-.11-.42-.22c-.11-.11-.19-.25-.24-.42l-.44-1.64.3-.08.43,1.61c.03.12.09.22.17.3s.17.13.29.16c.11.03.24.02.38-.01s.25-.1.33-.18c.08-.08.14-.17.17-.28.03-.11.02-.22,0-.34l-.43-1.61Z"/>
        <path class="cls-3" d="M80.71,43.85l.66,2.47-.29.08-1.87-1.58h-.02s.52,1.95.52,1.95l-.3.08-.66-2.47.29-.08,1.87,1.58h.02s-.52-1.95-.52-1.95l.29-.08Z"/>
        <path class="cls-3" d="M81.98,46.16l-.66-2.47,1.49-.4.07.27-1.19.32.22.84,1.12-.3.07.27-1.12.3.23.84,1.21-.32.07.27-1.51.41Z"/>
        <path class="cls-3" d="M85.13,42.67l.66,2.47-.3.08-.58-2.16h-.01s-.5.57-.5.57l-.08-.3.51-.58.3-.08Z"/>
        <path class="cls-3" d="M86.62,42.23c.1-.03.21-.03.32-.02.11.01.22.05.33.11s.21.17.3.3c.09.14.17.32.23.55s.09.42.09.6c0,.18-.02.34-.06.48-.05.14-.12.25-.21.34-.09.09-.21.15-.35.19s-.27.04-.39.02c-.12-.03-.23-.08-.33-.16-.1-.08-.17-.18-.22-.31l.29-.08c.06.11.13.19.23.24.1.05.21.06.34.03.19-.05.32-.17.39-.37s.06-.45-.02-.75h-.02c-.03.08-.06.16-.11.22-.05.07-.11.12-.18.17s-.15.08-.23.1c-.14.04-.28.04-.42,0-.14-.04-.26-.11-.36-.22s-.18-.24-.22-.4c-.04-.15-.04-.3,0-.44.03-.14.1-.27.21-.38.1-.11.24-.18.41-.23ZM86.69,42.5c-.1.03-.19.08-.25.15-.07.07-.11.16-.14.25-.02.1-.02.2,0,.3s.08.19.14.26.15.12.24.15c.09.03.19.03.29,0,.08-.02.14-.05.2-.1.06-.05.1-.1.14-.17s.06-.14.07-.21,0-.15-.01-.22c-.03-.1-.07-.18-.14-.25-.07-.07-.15-.12-.25-.15s-.19-.03-.3,0Z"/>
        <path class="cls-3" d="M89.47,44.19c-.16.04-.31.05-.45.03-.14-.02-.26-.07-.36-.15-.1-.08-.17-.18-.21-.31l.3-.08c.03.08.07.14.14.18.06.04.14.07.23.08.09.01.18,0,.27-.02.11-.03.2-.07.27-.13.07-.06.12-.13.15-.21s.03-.16,0-.25-.07-.17-.13-.22-.14-.09-.24-.11c-.1-.02-.21,0-.33.03l-.2.05-.07-.27.2-.05c.1-.03.18-.07.24-.12s.11-.12.13-.2.03-.16,0-.24-.06-.15-.11-.2c-.05-.05-.12-.09-.2-.1-.08-.02-.16-.01-.25.01-.09.02-.16.06-.23.11-.07.05-.12.11-.15.18-.03.07-.04.15-.02.23l-.29.08c-.03-.13-.02-.26.03-.37s.12-.22.23-.31c.1-.09.23-.15.37-.19.15-.04.29-.05.42-.01.13.03.23.09.32.18.09.09.14.19.18.3.04.14.03.27-.01.39-.05.12-.13.21-.24.28v.02c.17-.02.31.02.42.1.12.08.2.2.24.36.04.13.03.26-.01.39-.04.13-.12.24-.23.33-.11.09-.24.16-.4.21Z"/>
        <path class="cls-3" d="M90.78,43.8l-.06-.22.58-1.11c.07-.13.12-.24.16-.34.04-.09.07-.18.08-.26.01-.08,0-.15-.01-.23-.02-.09-.06-.16-.12-.21-.06-.05-.13-.09-.21-.1s-.17-.01-.26.01c-.1.03-.17.07-.23.13s-.1.13-.12.21c-.02.08-.02.17,0,.26l-.28.08c-.04-.14-.04-.28,0-.41.04-.13.11-.24.2-.33s.22-.16.36-.2.28-.04.41-.01c.13.03.24.09.33.18s.15.19.19.32c.02.09.03.18.02.28,0,.1-.04.21-.09.33-.05.13-.13.29-.23.48l-.4.74v.02s1.15-.31,1.15-.31l.07.27-1.56.42Z"/>
      </g>
      <g>
        <path class="cls-3" d="M68.28,58.66l-.66-2.47.98-.26c.19-.05.36-.06.51-.02s.28.11.38.21c.1.11.18.24.22.41s.05.32.01.46c-.04.14-.11.27-.23.38-.12.11-.27.18-.46.24l-.62.17-.11-.42.54-.14c.1-.03.18-.07.24-.12.06-.05.09-.11.11-.19.02-.07.01-.15,0-.23s-.06-.15-.11-.2c-.05-.05-.11-.09-.19-.1-.08-.02-.16-.01-.26.02l-.35.09.55,2.05-.52.14Z"/>
        <path class="cls-3" d="M71.3,57.89c-.19.05-.37.06-.52.02-.16-.04-.29-.12-.41-.25-.11-.12-.19-.28-.25-.48s-.06-.37-.02-.53c.04-.16.11-.3.22-.42.11-.12.26-.2.44-.25.12-.03.24-.04.36-.03.12.01.22.04.32.1.1.06.19.14.26.24.08.11.13.24.18.4l.04.14-1.57.42-.09-.32,1.08-.29c-.02-.07-.05-.14-.1-.18s-.1-.08-.17-.1-.14-.02-.21,0-.14.06-.19.11-.08.11-.1.18-.02.14,0,.21l.08.3c.02.09.06.17.12.22.05.06.11.1.19.12.07.02.15.02.24,0,.06-.02.11-.04.15-.07.04-.03.08-.06.1-.11.03-.04.04-.09.05-.14l.48-.1c0,.12-.02.23-.07.34-.05.1-.13.2-.23.27-.1.08-.23.14-.39.18Z"/>
        <path class="cls-3" d="M72.47,57.54l-.5-1.85.5-.13.09.32h.02c0-.13.04-.23.1-.31.06-.08.15-.13.25-.16.03,0,.05-.01.08-.02.03,0,.06,0,.08,0l.12.46s-.06,0-.11,0c-.04,0-.08.01-.12.02-.08.02-.14.05-.19.1-.05.05-.08.11-.1.17s-.02.14,0,.21l.28,1.05-.51.14Z"/>
        <path class="cls-3" d="M73.56,55c-.08.02-.15.01-.22-.02-.07-.04-.11-.09-.13-.16s0-.14.03-.21c.04-.07.1-.11.18-.13s.15-.01.22.02c.07.04.11.09.13.16s0,.14-.03.21c-.04.07-.1.11-.18.13ZM73.86,57.17l-.5-1.85.51-.14.5,1.85-.51.14Z"/>
        <path class="cls-3" d="M75.64,56.73c-.19.05-.36.05-.52.01-.16-.04-.29-.13-.41-.25-.11-.12-.19-.28-.25-.47s-.06-.37-.02-.53c.04-.16.11-.3.23-.42.12-.12.27-.2.45-.25s.36-.05.52-.01c.16.04.29.13.41.25.11.12.19.28.25.47s.06.37.02.53c-.04.16-.11.3-.23.42-.12.12-.27.2-.45.25ZM75.53,56.33c.09-.02.15-.07.19-.13s.07-.14.08-.23c0-.09,0-.19-.03-.3s-.07-.2-.12-.28-.11-.13-.18-.17-.15-.04-.23-.02-.15.07-.2.13-.07.14-.08.24c0,.09,0,.19.03.3s.07.2.12.28c.05.08.11.13.19.16s.15.04.24.01Z"/>
        <path class="cls-3" d="M77.57,56.21c-.14.04-.28.04-.41,0-.13-.04-.25-.13-.36-.25-.1-.12-.18-.29-.24-.5s-.07-.4-.04-.56c.03-.16.09-.29.19-.39.09-.1.21-.17.35-.21.1-.03.2-.03.27-.02.08.02.15.04.2.09s.1.08.14.13h.02s-.25-.93-.25-.93l.51-.14.66,2.47-.51.14-.08-.3h-.02c-.01.06-.03.12-.06.19-.03.06-.08.12-.14.17-.06.05-.14.09-.24.12ZM77.62,55.75c.08-.02.15-.06.19-.12.05-.06.07-.14.08-.23s0-.19-.03-.3-.07-.2-.12-.28c-.05-.07-.11-.12-.18-.15-.07-.03-.15-.03-.23,0s-.15.06-.2.13c-.05.06-.07.14-.08.23,0,.09,0,.19.03.29s.07.2.12.27c.05.07.11.13.18.16.07.03.15.03.23.01Z"/>
        <path class="cls-3" d="M81.59,55.15c-.21.05-.4.05-.58,0-.18-.06-.33-.18-.46-.35-.13-.17-.23-.39-.31-.66-.07-.27-.09-.51-.06-.72.03-.21.11-.39.23-.53s.29-.24.49-.29.4-.05.57,0,.33.17.46.34c.13.17.23.39.3.66.07.27.09.51.07.73-.03.21-.1.39-.23.53s-.29.24-.49.3ZM81.47,54.72c.14-.04.24-.14.28-.3.05-.17.03-.39-.05-.67-.05-.19-.11-.34-.18-.45-.07-.11-.15-.19-.24-.24-.09-.04-.18-.05-.27-.03-.14.04-.23.14-.28.3-.05.16-.03.39.04.67.05.19.11.34.18.46.07.12.15.2.24.24s.18.05.27.03Z"/>
        <path class="cls-3" d="M83.36,51.97l.66,2.47-.52.14-.53-1.98h-.01s-.47.51-.47.51l-.12-.46.51-.55.49-.13Z"/>
        <path class="cls-3" d="M87.86,51.53c-.04-.09-.1-.16-.19-.19s-.19-.03-.32,0c-.09.02-.15.05-.21.09-.05.04-.09.08-.11.13s-.02.1,0,.15c.01.04.03.08.06.11.03.03.07.05.11.06.04.01.09.02.14.03s.11,0,.16,0h.24c.11-.01.22,0,.32.01.1.02.19.04.27.09.08.04.15.1.21.17.06.07.1.16.13.26.04.15.04.29,0,.42s-.13.25-.26.35c-.13.1-.29.18-.49.23s-.38.07-.55.05-.3-.08-.42-.18c-.11-.1-.2-.24-.25-.41l.51-.14c.03.08.07.14.13.19.06.04.13.07.2.08.08,0,.16,0,.25-.02s.16-.06.22-.1.1-.09.12-.15.03-.11.01-.17c-.01-.06-.04-.1-.09-.13-.04-.03-.1-.05-.17-.06s-.15-.01-.25-.01h-.29c-.22,0-.41-.03-.56-.1s-.25-.2-.3-.39c-.04-.15-.04-.29.01-.42.05-.13.14-.25.26-.35.12-.1.28-.18.46-.22s.35-.06.51-.03c.15.03.28.08.39.18.11.09.18.21.22.36l-.5.13Z"/>
        <path class="cls-3" d="M90.06,52.86c-.19.05-.37.06-.52.02-.16-.04-.29-.12-.41-.25-.11-.12-.19-.28-.25-.48s-.06-.37-.02-.53c.04-.16.11-.3.22-.42.11-.12.26-.2.44-.25.12-.03.24-.04.36-.03.12.01.22.04.32.1.1.06.19.14.26.24.08.11.13.24.18.4l.04.14-1.57.42-.09-.32,1.08-.29c-.02-.07-.05-.14-.1-.18s-.1-.08-.17-.1-.14-.02-.21,0-.14.06-.19.11-.08.11-.1.18-.02.14,0,.21l.08.3c.02.09.06.17.12.22.05.06.11.1.19.12.07.02.15.02.24,0,.06-.02.11-.04.15-.07.04-.03.08-.06.1-.11.03-.04.04-.09.05-.14l.48-.1c0,.12-.02.23-.07.34-.05.1-.13.2-.23.27-.1.08-.23.14-.39.18Z"/>
        <path class="cls-3" d="M91.73,50.39l.1.39-1.12.3-.1-.39,1.12-.3ZM90.75,50.18l.51-.14.46,1.73s.03.08.05.1c.02.02.05.04.08.04s.06,0,.1,0c.02,0,.05-.02.07-.03.02-.01.04-.02.05-.03l.18.36s-.06.03-.1.06-.1.05-.16.07c-.12.04-.24.05-.34.04s-.19-.05-.26-.12-.13-.16-.16-.28l-.48-1.8Z"/>
        <path class="cls-3" d="M94.35,48.99c.13-.03.26-.05.38-.03.13.01.25.05.37.12.12.07.23.17.32.31.1.14.17.32.23.54.06.21.08.4.08.58,0,.18-.03.34-.09.47s-.14.25-.25.35c-.11.09-.24.16-.39.2-.17.04-.32.05-.46.02-.14-.03-.27-.09-.38-.18s-.19-.2-.24-.34l.52-.14c.04.08.11.14.18.18.08.03.16.04.26.01.16-.04.26-.15.31-.31s.04-.37-.03-.61h-.02c-.02.09-.05.16-.1.23s-.11.13-.18.18c-.07.05-.16.09-.25.11-.15.04-.29.04-.42,0-.13-.04-.25-.11-.35-.21-.1-.1-.17-.23-.21-.38-.05-.17-.05-.32,0-.47.04-.15.12-.28.24-.39s.27-.19.46-.24ZM94.47,49.4c-.08.02-.15.06-.2.12-.05.06-.09.12-.11.2-.02.08-.02.15,0,.23.02.08.06.15.11.2.05.06.12.09.19.12.07.02.15.02.23,0,.06-.02.11-.04.16-.08.05-.04.08-.08.11-.13s.05-.1.05-.16,0-.12-.01-.18c-.02-.08-.06-.14-.11-.2-.05-.06-.12-.09-.19-.12s-.15-.02-.23,0Z"/>
        <path class="cls-3" d="M96.6,48.39c.13-.03.26-.05.38-.03.13.01.25.05.37.12.12.07.23.17.32.31.1.14.17.32.23.54.06.21.08.4.08.58,0,.18-.03.34-.09.47s-.14.25-.25.35c-.11.09-.24.16-.39.2-.17.04-.32.05-.46.02-.14-.03-.27-.09-.38-.18s-.19-.2-.24-.34l.52-.14c.04.08.11.14.18.18.08.03.16.04.26.01.16-.04.26-.15.31-.31s.04-.37-.03-.61h-.02c-.02.09-.05.16-.1.23s-.11.13-.18.18c-.07.05-.16.09-.25.11-.15.04-.29.04-.42,0-.13-.04-.25-.11-.35-.21-.1-.1-.17-.23-.21-.38-.05-.17-.05-.32,0-.47.04-.15.12-.28.24-.39s.27-.19.46-.24ZM96.71,48.8c-.08.02-.15.06-.2.12-.05.06-.09.12-.11.2-.02.08-.02.15,0,.23.02.08.06.15.11.2.05.06.12.09.19.12.07.02.15.02.23,0,.06-.02.11-.04.16-.08.05-.04.08-.08.11-.13s.05-.1.05-.16,0-.12-.01-.18c-.02-.08-.06-.14-.11-.2-.05-.06-.12-.09-.19-.12s-.15-.02-.23,0Z"/>
      </g>
      <g>
        <rect class="cls-3" x="67.12" y="61.43" width=".49" height="8.8" transform="translate(-14.74 19.68) rotate(-15)"/>
        <rect class="cls-3" x="68.02" y="61.19" width=".49" height="8.8" transform="translate(-14.65 19.9) rotate(-15)"/>
        <rect class="cls-3" x="69.4" y="60.83" width=".44" height="8.8" transform="translate(-14.51 20.24) rotate(-15)"/>
        <rect class="cls-3" x="69.82" y="60.71" width=".49" height="8.8" transform="translate(-14.46 20.35) rotate(-15)"/>
        <rect class="cls-3" x="70.73" y="60.46" width=".49" height="8.8" transform="translate(-14.37 20.58) rotate(-15)"/>
        <rect class="cls-3" x="71.63" y="60.22" width=".49" height="8.8" transform="translate(-14.28 20.81) rotate(-15)"/>
        <rect class="cls-3" x="72.53" y="59.98" width=".49" height="8.8" transform="translate(-14.18 21.03) rotate(-15)"/>
        <rect class="cls-3" x="73.68" y="59.71" width=".25" height="8.8" transform="translate(-14.08 21.29) rotate(-15)"/>
        <rect class="cls-3" x="74.34" y="59.5" width=".49" height="8.8" transform="translate(-14 21.48) rotate(-15)"/>
        <rect class="cls-3" x="75.72" y="59.13" width=".49" height="8.8" transform="translate(-13.85 21.83) rotate(-15)"/>
        <rect class="cls-3" x="76.15" y="59.01" width=".49" height="8.8" transform="translate(-13.81 21.93) rotate(-15)"/>
        <rect class="cls-3" x="77.05" y="58.77" width=".49" height="8.8" transform="translate(-13.72 22.16) rotate(-15)"/>
        <rect class="cls-3" x="77.96" y="58.56" width=".25" height="8.8" transform="translate(-13.63 22.35) rotate(-15)"/>
        <rect class="cls-3" x="78.86" y="58.29" width=".49" height="8.8" transform="translate(-13.53 22.61) rotate(-15)"/>
        <rect class="cls-3" x="79.76" y="58.04" width=".49" height="8.8" transform="translate(-13.44 22.83) rotate(-15)"/>
        <rect class="cls-3" x="81.14" y="57.68" width=".44" height="8.8" transform="translate(-13.3 23.17) rotate(-15)"/>
        <rect class="cls-3" x="81.57" y="57.56" width=".49" height="8.8" transform="translate(-13.25 23.29) rotate(-15)"/>
        <rect class="cls-3" x="82.47" y="57.32" width=".49" height="8.8" transform="translate(-13.16 23.51) rotate(-15)"/>
        <rect class="cls-3" x="82.95" y="57.2" width=".44" height="8.8" transform="translate(-13.11 23.62) rotate(-15)"/>
        <rect class="cls-3" x="84.27" y="56.83" width=".49" height="8.8" transform="translate(-12.97 23.96) rotate(-15)"/>
        <rect class="cls-3" x="85.42" y="56.56" width=".25" height="8.8" transform="translate(-12.86 24.22) rotate(-15)"/>
        <rect class="cls-3" x="86.32" y="56.32" width=".25" height="8.8" transform="translate(-12.77 24.44) rotate(-15)"/>
        <rect class="cls-3" x="86.98" y="56.11" width=".49" height="8.8" transform="translate(-12.69 24.64) rotate(-15)"/>
        <rect class="cls-3" x="87.89" y="55.87" width=".49" height="8.8" transform="translate(-12.59 24.86) rotate(-15)"/>
        <rect class="cls-3" x="88.79" y="55.66" width=".24" height="8.8" transform="translate(-12.51 25.06) rotate(-15)"/>
        <rect class="cls-3" x="90.17" y="55.26" width=".44" height="8.8" transform="translate(-12.36 25.43) rotate(-15)"/>
        <rect class="cls-3" x="90.6" y="55.14" width=".49" height="8.8" transform="translate(-12.31 25.54) rotate(-15)"/>
        <rect class="cls-3" x="91.5" y="54.9" width=".49" height="8.8" transform="translate(-12.22 25.77) rotate(-15)"/>
        <rect class="cls-3" x="92.41" y="54.69" width=".25" height="8.8" transform="translate(-12.14 25.96) rotate(-15)"/>
        <rect class="cls-3" x="93.55" y="54.38" width=".25" height="8.8" transform="translate(-12.02 26.25) rotate(-15)"/>
        <rect class="cls-3" x="94.21" y="54.17" width=".49" height="8.8" transform="translate(-11.94 26.44) rotate(-15)"/>
        <rect class="cls-3" x="95.11" y="53.93" width=".49" height="8.8" transform="translate(-11.85 26.67) rotate(-15)"/>
        <rect class="cls-3" x="96.49" y="53.57" width=".44" height="8.8" transform="translate(-11.71 27.01) rotate(-15)"/>
        <rect class="cls-3" x="96.92" y="53.45" width=".49" height="8.8" transform="translate(-11.66 27.12) rotate(-15)"/>
        <rect class="cls-3" x="97.82" y="53.2" width=".49" height="8.8" transform="translate(-11.57 27.34) rotate(-15)"/>
        <rect class="cls-3" x="98.72" y="52.96" width=".49" height="8.8" transform="translate(-11.47 27.57) rotate(-15)"/>
        <rect class="cls-3" x="99.82" y="52.69" width=".3" height="8.8" transform="translate(-11.37 27.82) rotate(-15)"/>
        <rect class="cls-3" x="100.53" y="52.48" width=".49" height="8.8" transform="translate(-11.29 28.02) rotate(-15)"/>
        <rect class="cls-3" x="101.01" y="52.36" width=".44" height="8.8" transform="translate(-11.24 28.13) rotate(-15)"/>
        <rect class="cls-3" x="102.58" y="51.96" width=".25" height="8.8" transform="translate(-11.09 28.5) rotate(-15)"/>
      </g>
      <g class="cls-5">
        <path class="cls-2" d="M41.93,78.82s-.11.03-.18.03c-.65.02-1.68-.71-2.82-2.03-1.21-1.39-2.35-3.21-3.21-5.14-4.76.53-9.02-.59-9.32-1.63-.02-.07-.03-.14-.03-.22.02-1.35,3.08-4.17,7.17-6-.53-4.76.59-9.03,1.63-9.32.04,0,.07-.02.11-.02.04,0,.07,0,.11,0,.17,0,.35.05.54.13,1.43.61,3.84,3.4,5.46,7.04,4.76-.53,9.03.59,9.32,1.63.01.05.03.11.03.19.05,1.3-3.06,4.2-7.17,6.03.54,4.77-.59,9.03-1.63,9.32ZM35.32,55.02c-.56.15-1.83,3.98-1.23,8.94.01.11-.05.23-.16.27-4.52,1.97-7.02,4.73-7.03,5.6,0,.04,0,.07,0,.08.15.56,3.98,1.83,8.94,1.23.11-.01.23.05.27.16.85,1.95,1.99,3.79,3.2,5.19,1.13,1.29,2.03,1.86,2.42,1.85l.12.25-.07-.25c.56-.15,1.83-3.97,1.23-8.92,0-.03,0-.05,0-.08,0-.1.07-.18.15-.22,4.42-1.92,7.07-4.73,7.03-5.62l.24-.13-.25.07c-.16-.56-3.98-1.83-8.93-1.23-.12.02-.24-.04-.29-.15-1.73-3.97-4.12-6.45-5.27-6.95-.16-.07-.27-.09-.33-.09-.04,0-.05,0-.07.01Z"/>
        <path class="cls-2" d="M39.42,69.87c-1.76.47-3.57-.56-4.06-2.32-.24-.85-.13-1.75.31-2.52.44-.77,1.15-1.33,2-1.57.87-.22,1.75-.13,2.52.31.77.44,1.33,1.15,1.57,2h0c.49,1.76-.55,3.6-2.31,4.09h-.03ZM37.83,63.96h-.02c-.72.21-1.32.67-1.69,1.32s-.46,1.41-.26,2.13c.41,1.48,1.94,2.35,3.42,1.95h.02c1.49-.42,2.36-1.96,1.95-3.45-.2-.72-.67-1.32-1.32-1.69-.64-.36-1.39-.46-2.1-.27Z"/>
        <rect class="cls-2" x="39.45" y="62.7" width="2.38" height=".52" transform="translate(-34.21 66.68) rotate(-60)"/>
        <rect class="cls-2" x="35.28" y="70.1" width="2.39" height=".52" transform="translate(-42.69 66.77) rotate(-60)"/>
        <rect class="cls-2" x="34.59" y="63.39" width=".52" height="2.38" transform="translate(-38.5 62.47) rotate(-60)"/>
        <rect class="cls-2" x="41.99" y="67.56" width=".52" height="2.38" transform="translate(-38.41 70.97) rotate(-60)"/>
      </g>
    </g>
  </g>
  <g>
    <path class="cls-3" d="M105.77,91.27s-.01.08-.01.13c0,.04.01.08.01.12s-.01.08-.01.13c0,.04.01.08.01.12s-.01.08-.01.13c0,.04.01.08.01.12s-.01.08-.01.13c0,.04.01.08.01.12s-.01.08-.01.13c0,.04.01.08.01.12s-.01.08-.01.13c0,.04.01.08.01.12s-.01.08-.01.13c0,.04.01.08.01.12s-.01.08-.01.13c0,.04.01.08.01.12s-.01.08-.01.13c0,.04.01.08.01.12,0,1.84-.33,3.57-.97,5.15-.68,1.66-1.7,3.11-3.04,4.3-1.29,1.15-2.86,2.04-4.69,2.65-1.71.57-3.65.85-5.77.85-1.03,0-2-.06-2.88-.19-.86-.12-1.66-.29-2.37-.5-.81-.24-1.5-.52-2.11-.85-.22-.13-.42-.26-.62-.39-.61.52-1.28.94-2.01,1.24-.83.34-1.69.51-2.54.51-.76,0-1.49-.13-2.18-.39-.61-.23-1.17-.56-1.68-.97-.23-.19-.45-.4-.65-.63-.15-.14-.32-.32-.51-.55-.14-.17-.31-.37-.51-.62l-1.27-1.54-.97,1.33c-.19.25-.34.45-.46.61l-.22.28c-.12.16-.22.28-.3.37-.11.13-.22.25-.33.36-.56.56-1.21,1-1.94,1.3-1.47.61-3.21.6-4.8-.05-.74-.3-1.43-.72-2.03-1.26-.63-.55-1.15-1.2-1.55-1.94-.49-.91-.74-1.9-.74-2.95,0-.03.01-.07.01-.1,0-.05-.01-.1-.01-.15,0-.03.01-.07.01-.1,0-.05-.01-.1-.01-.15,0-.03.01-.07.01-.1,0-.05-.01-.1-.01-.15,0-.03.01-.07.01-.1,0-.05-.01-.1-.01-.15,0-.03.01-.07.01-.1,0-.05-.01-.1-.01-.15,0-.03.01-.07.01-.1,0-.05-.01-.1-.01-.15,0-.03.01-.07.01-.1,0-.05-.01-.1-.01-.15,0-.03.01-.07.01-.1,0-.05-.01-.1-.01-.15,0-.03.01-.07.01-.1,0-.05-.01-.1-.01-.15,0-.03.01-.07.01-.1,0-.05-.01-.1-.01-.15,0-.68.11-1.35.34-1.97.18-.48.41-.92.68-1.34.22-.34.47-.66.73-.97.15-.16.28-.32.43-.49l1.56-1.79-1-1.15c-.21-.24-.41-.46-.58-.66-.26-.3-.49-.59-.68-.87-.31-.44-.57-.91-.76-1.4-.25-.65-.38-1.34-.38-2.05,0-.06.01-.11.01-.16,0-.03-.01-.06-.01-.09,0-.06.01-.11.01-.16,0-.03-.01-.06-.01-.09,0-.06.01-.11.01-.16,0-.03-.01-.06-.01-.09,0-.06.01-.11.01-.16,0-.03-.01-.06-.01-.09,0-.06.01-.11.01-.16,0-.03-.01-.06-.01-.09,0-.06.01-.11.01-.16,0-.03-.01-.06-.01-.09,0-.06.01-.11.01-.16,0-.03-.01-.06-.01-.09,0-.06.01-.11.01-.16,0-.03-.01-.06-.01-.09,0-.06.01-.11.01-.16,0-.03-.01-.06-.01-.09,0-.06.01-.11.01-.16,0-.03-.01-.06-.01-.09,0-1.09.26-2.13.76-3.07.42-.79.97-1.47,1.62-2.05.64-.57,1.36-1.02,2.14-1.34,1.55-.63,3.22-.67,4.65-.15.65.23,1.24.57,1.75,1.01.08.07.16.13.24.21.14.11.32.28.52.5.12.14.27.31.45.53l1.36,1.66,1.04-1.42c.11-.14.21-.28.3-.39.19-.25.37-.44.5-.58l.13.12s.06-.04.08-.07l-.13-.13c.6-.6,1.24-1.03,1.95-1.33,1.44-.62,3.19-.63,4.81.02.34.13.66.3.97.49l.11-2.06c.08-2.19,1.06-3.57,1.86-4.33.79-.75,2.19-1.64,4.42-1.64h10.56c1.66,0,3.19.64,4.29,1.8.73.78,1.61,2.18,1.61,4.41v2.5c0,2.25-.88,3.65-1.62,4.43-.4.43-.88.76-1.38,1.04,1.28,1.14,2.26,2.49,2.88,4.02.62,1.52.93,3.16.93,4.89,0,.04-.01.08-.01.13,0,.04.01.08.01.12Z"/>
    <g>
      <path class="cls-4" d="M101.76,91.15s0-.08,0-.13c0-1.22-.21-2.35-.63-3.38-.42-1.04-1.09-1.94-2.01-2.71s-2.1-1.39-3.54-1.86c-1.41-.46-3.11-.73-5.1-.81l.16-3.39h8.41c.58,0,1.04-.18,1.39-.55.35-.37.52-.93.52-1.68,0-.04,0-.08,0-.12,0-.04,0-.08,0-.13s0-.08,0-.12c0-.04,0-.08,0-.13s0-.08,0-.12c0-.04,0-.08,0-.13s0-.08,0-.12c0-.04,0-.08,0-.13s0-.08,0-.12c0-.04,0-.08,0-.13s0-.08,0-.12c0-.04,0-.08,0-.13s0-.08,0-.12c0-.04,0-.08,0-.13s0-.08,0-.12c0-.04,0-.08,0-.13s0-.08,0-.12c0-.04,0-.08,0-.13s0-.08,0-.12c0-.04,0-.08,0-.13,0-.74-.17-1.29-.52-1.66-.35-.37-.81-.55-1.39-.55h-10.55c-.74,0-1.3.18-1.68.54-.38.36-.59.9-.61,1.63l-.52,10.34c0,.06,0,.11,0,.17v.08c0,.06,0,.11,0,.17v.08c0,.06,0,.11,0,.17v.08c0,.06,0,.11,0,.17v.08c0,.06,0,.11,0,.17v.08c0,.06,0,.11,0,.17v.08c0,.06,0,.11,0,.17v.08c0,.06,0,.11,0,.17v.08c0,.06,0,.11,0,.17v.08c0,.06,0,.11,0,.17v.08c-.03.67.11,1.17.42,1.51.31.33.8.5,1.49.5,1.54,0,2.85.13,3.93.38s1.97.61,2.66,1.05c.69.45,1.19.98,1.5,1.6.13.25.22.52.3.79-.05.18-.08.37-.15.54-.21.54-.53,1.01-.95,1.4s-.94.69-1.56.9-1.32.32-2.11.32-1.47-.06-2-.18c-.53-.12-.98-.25-1.37-.39-.38-.14-.71-.27-.98-.39s-.56-.18-.85-.18c-.51,0-.92.16-1.24.48-.32.32-.48.76-.48,1.33,0,.04,0,.08.01.12,0,.05-.01.09-.01.13,0,.04,0,.08.01.12,0,.05-.01.09-.01.13,0,.04,0,.08.01.12,0,.05-.01.09-.01.13,0,.04,0,.08.01.12,0,.05-.01.09-.01.13,0,.04,0,.08.01.12,0,.05-.01.09-.01.13,0,.04,0,.08.01.12,0,.05-.01.09-.01.13,0,.04,0,.08.01.12,0,.05-.01.09-.01.13,0,.04,0,.08.01.12,0,.05-.01.09-.01.13,0,.04,0,.08.01.12,0,.05-.01.09-.01.13,0,.04,0,.08.01.12,0,.05-.01.09-.01.13,0,.39.06.72.19.99.13.27.31.53.55.77.19.19.46.38.81.57.35.19.79.37,1.32.52.52.15,1.13.28,1.82.38.69.1,1.46.15,2.3.15,1.7,0,3.21-.22,4.51-.65,1.31-.44,2.4-1.05,3.29-1.84.88-.79,1.55-1.73,2-2.83s.67-2.31.67-3.63c0-.04,0-.08,0-.12,0-.04,0-.08,0-.13s0-.08,0-.12c0-.04,0-.08,0-.13s0-.08,0-.12c0-.04,0-.08,0-.13s0-.08,0-.12c0-.04,0-.08,0-.13s0-.08,0-.12c0-.04,0-.08,0-.13s0-.08,0-.12c0-.04,0-.08,0-.13s0-.08,0-.12c0-.04,0-.08,0-.13s0-.08,0-.12c0-.04,0-.08,0-.13s0-.08,0-.12c0-.04,0-.08,0-.13s0-.08,0-.12Z"/>
      <path class="cls-4" d="M81.73,96.22c-.07-.19-.17-.38-.3-.56-.13-.19-.28-.38-.45-.56-.17-.19-.36-.39-.54-.62l-3.67-4.19,3.51-4c.16-.19.32-.36.47-.53.15-.17.28-.33.39-.5.11-.17.19-.34.26-.52s.1-.38.1-.59c0-.05-.01-.1-.02-.15,0-.04.02-.07.02-.1,0-.05-.01-.1-.02-.15,0-.04.02-.07.02-.1,0-.05-.01-.1-.02-.15,0-.04.02-.07.02-.1,0-.05-.01-.1-.02-.15,0-.04.02-.07.02-.1,0-.05-.01-.1-.02-.15,0-.04.02-.07.02-.1,0-.05-.01-.1-.02-.15,0-.04.02-.07.02-.1,0-.05-.01-.1-.02-.15,0-.04.02-.07.02-.1,0-.05-.01-.1-.02-.15,0-.04.02-.07.02-.1,0-.05-.01-.1-.02-.15,0-.04.02-.07.02-.1,0-.05-.01-.1-.02-.15,0-.04.02-.07.02-.1,0-.38-.09-.72-.26-1.04-.17-.32-.4-.6-.67-.84-.27-.24-.58-.43-.91-.56-.33-.13-.66-.2-.98-.2-.28,0-.54.05-.77.15-.23.1-.45.24-.63.43-.04.04-.08.08-.13.13-.05.05-.1.11-.17.2s-.15.19-.24.32c-.09.13-.21.29-.36.49l-3.72,5.05-4.21-5.11c-.17-.21-.32-.39-.43-.53-.11-.14-.21-.25-.29-.34s-.15-.15-.2-.2-.11-.09-.16-.13c-.16-.15-.35-.26-.57-.34s-.46-.12-.73-.12c-.33,0-.68.07-1.04.22-.36.15-.69.35-.99.62-.3.27-.55.58-.74.94-.19.36-.29.75-.29,1.18,0,.03.02.06.02.1,0,.05-.02.1-.02.15,0,.03.02.06.02.1,0,.05-.02.1-.02.15,0,.03.02.06.02.1,0,.05-.02.1-.02.15,0,.03.02.06.02.1,0,.05-.02.1-.02.15,0,.03.02.06.02.1,0,.05-.02.1-.02.15,0,.03.02.06.02.1,0,.05-.02.1-.02.15,0,.03.02.06.02.1,0,.05-.02.1-.02.15,0,.03.02.06.02.1,0,.05-.02.1-.02.15,0,.03.02.06.02.1,0,.05-.02.1-.02.15,0,.03.02.06.02.1,0,.05-.02.1-.02.15,0,.21.04.42.11.6.07.19.17.37.3.55s.27.37.44.56c.17.19.35.4.55.63l3.3,3.77-3.82,4.41c-.16.19-.31.37-.46.53-.15.17-.28.34-.39.51-.11.17-.2.35-.27.53-.07.18-.1.38-.1.59,0,.05.01.1.02.15,0,.04-.02.07-.02.1,0,.05.01.1.02.15,0,.04-.02.07-.02.1,0,.05.01.1.02.15,0,.04-.02.07-.02.1,0,.05.01.1.02.15,0,.04-.02.07-.02.1,0,.05.01.1.02.15,0,.04-.02.07-.02.1,0,.05.01.1.02.15,0,.04-.02.07-.02.1,0,.05.01.1.02.15,0,.04-.02.07-.02.1,0,.05.01.1.02.15,0,.04-.02.07-.02.1,0,.05.01.1.02.15,0,.04-.02.07-.02.1,0,.05.01.1.02.15,0,.04-.02.07-.02.1,0,.38.09.72.26,1.04s.4.6.67.84c.27.24.58.43.9.56.33.13.65.2.97.2.28,0,.54-.05.78-.15.24-.1.46-.24.64-.43.04-.04.08-.08.12-.13s.09-.11.16-.2c.07-.09.15-.19.25-.32.1-.13.22-.29.37-.49l4.02-5.5,4.57,5.57c.17.21.32.39.43.52.11.13.21.24.29.32.08.08.14.15.19.2s.1.1.15.14c.17.15.37.26.6.35.23.09.47.13.74.13.33,0,.68-.07,1.04-.22.36-.15.69-.35.99-.62.3-.27.55-.58.74-.94.19-.36.29-.76.29-1.19,0-.03-.02-.06-.02-.1,0-.05.02-.1.02-.15,0-.03-.02-.06-.02-.1,0-.05.02-.1.02-.15,0-.03-.02-.06-.02-.1,0-.05.02-.1.02-.15,0-.03-.02-.06-.02-.1,0-.05.02-.1.02-.15,0-.03-.02-.06-.02-.1,0-.05.02-.1.02-.15,0-.03-.02-.06-.02-.1,0-.05.02-.1.02-.15,0-.03-.02-.06-.02-.1,0-.05.02-.1.02-.15,0-.03-.02-.06-.02-.1,0-.05.02-.1.02-.15,0-.03-.02-.06-.02-.1,0-.05.02-.1.02-.15,0-.03-.02-.06-.02-.1,0-.05.02-.1.02-.15,0-.21-.04-.42-.11-.6Z"/>
    </g>
    <g>
      <path class="cls-1" d="M64.37,84.29c-.2-.23-.38-.44-.55-.63-.17-.19-.31-.38-.44-.56s-.23-.36-.3-.55c-.07-.19-.11-.39-.11-.6,0-.43.1-.82.29-1.18.19-.36.44-.67.74-.94.3-.27.63-.47.99-.62.36-.15.71-.22,1.04-.22.27,0,.51.04.73.12s.41.19.57.34c.05.04.11.08.16.13s.12.11.2.2.18.2.29.34c.11.14.26.32.43.53l4.21,5.11,3.72-5.05c.15-.2.27-.36.36-.49.09-.13.17-.23.24-.32s.12-.15.17-.2c.05-.05.09-.09.13-.13.19-.19.4-.33.63-.43.23-.1.49-.15.77-.15.32,0,.65.07.98.2.33.13.64.32.91.56.27.24.5.52.67.84.17.32.26.67.26,1.04,0,.21-.03.41-.1.59s-.15.35-.26.52c-.11.17-.24.33-.39.5-.15.17-.31.34-.47.53l-4.6,5.25,4.76,5.44c.19.23.37.43.54.62.17.19.32.38.45.56.13.19.23.38.3.56.07.19.11.39.11.6,0,.43-.1.82-.29,1.19-.19.36-.44.68-.74.94-.3.27-.63.48-.99.62-.36.15-.71.22-1.04.22-.27,0-.52-.04-.74-.13-.23-.09-.43-.2-.6-.35-.05-.04-.1-.09-.15-.14s-.11-.12-.19-.2c-.08-.08-.18-.19-.29-.32-.11-.13-.26-.31-.43-.52l-4.57-5.57-4.02,5.5c-.15.2-.27.37-.37.49-.1.13-.18.23-.25.32-.07.09-.12.15-.16.2s-.08.09-.12.13c-.19.19-.4.33-.64.43-.24.1-.5.15-.78.15-.32,0-.65-.07-.97-.2-.33-.13-.63-.32-.9-.56-.27-.24-.5-.52-.67-.84s-.26-.67-.26-1.04c0-.21.03-.41.1-.59.07-.18.16-.36.27-.53.11-.17.24-.34.39-.51.15-.17.3-.34.46-.53l4.91-5.67-4.39-5.01Z"/>
      <path class="cls-1" d="M90.37,82.25c2.04.08,3.78.35,5.22.82,1.44.47,2.62,1.09,3.54,1.86s1.59,1.67,2.01,2.71c.42,1.04.63,2.17.63,3.38,0,1.32-.22,2.54-.67,3.63s-1.12,2.04-2,2.83c-.88.79-1.98,1.4-3.29,1.84-1.31.43-2.81.65-4.51.65-.84,0-1.61-.05-2.3-.15-.69-.1-1.3-.23-1.82-.38-.52-.15-.96-.33-1.32-.52-.36-.19-.63-.38-.81-.57-.24-.24-.42-.5-.55-.77-.13-.27-.19-.6-.19-.99,0-.56.16-1,.48-1.33.32-.32.74-.48,1.24-.48.29,0,.58.06.85.18s.6.25.98.39c.38.14.84.27,1.37.39.53.12,1.19.18,2,.18s1.49-.11,2.11-.32,1.13-.52,1.56-.9.74-.85.95-1.4.32-1.15.32-1.82c0-.72-.16-1.39-.47-2.01s-.82-1.15-1.5-1.6c-.69-.45-1.58-.8-2.66-1.05s-2.4-.38-3.93-.38c-.68,0-1.18-.17-1.49-.5-.31-.33-.45-.84-.42-1.51l.52-10.34c.03-.72.23-1.26.61-1.63.38-.36.94-.54,1.68-.54h10.55c.58,0,1.04.18,1.39.55.35.37.52.92.52,1.66s-.17,1.31-.52,1.68c-.35.37-.81.55-1.39.55h-8.41l-.28,5.88Z"/>
    </g>
  </g>
</svg>