<?xml version="1.0" encoding="UTF-8"?>
<svg id="Icon" xmlns="http://www.w3.org/2000/svg" viewBox="0 0 120 120">
  <defs>
    <style>
      .cls-1 {
        fill: #fff;
      }

      .cls-2 {
        fill: #dfedf2;
      }

      .cls-3 {
        fill: #f4b545;
      }

      .cls-4 {
        fill: #6d3108;
      }

      .cls-5 {
        fill: #ffe277;
      }

      .cls-6 {
        fill: #333;
      }

      .cls-7 {
        fill: gray;
      }

      .cls-8 {
        fill: #a8b6c1;
      }
    </style>
  </defs>
  <path class="cls-6" d="M113.62,25.73v32.06c0,21.61-12.82,41.11-32.66,49.67l-19.37,8.37c-.51.22-1.05.33-1.59.33s-1.08-.11-1.59-.33l-19.37-8.37C19.2,98.91,6.38,79.41,6.38,57.79V25.73c0-1.69,1.06-3.19,2.64-3.77L58.64,4.07c.05-.01.09-.02.14-.03.14-.05.28-.09.42-.12.09,0,.17-.02.25-.04.13-.01.26-.03.39-.03.07,0,.14-.01.21-.01.18,0,.36.02.55.05.07.01.15.03.23.04.13.03.25.06.38.1.05.02.1.03.15.04l49.62,17.9c1.58.58,2.64,2.08,2.64,3.77Z"/>
  <g>
    <path class="cls-7" d="M60,10.37L10.38,28.28v29.52c0,19.99,11.89,38.07,30.24,46l19.38,8.37,19.38-8.37c18.36-7.93,30.24-26.01,30.24-46v-29.52L60,10.37Z"/>
    <path class="cls-8" d="M60,7.83L10.38,25.73v29.52c0,19.99,11.89,38.07,30.24,46l19.38,8.37,19.38-8.37c18.36-7.93,30.24-26.01,30.24-46v-29.52L60,7.83Z"/>
    <path class="cls-2" d="M60,7.83v101.78l-19.38-8.36c-18.36-7.93-30.24-26.01-30.24-46v-29.52L60,7.83Z"/>
    <path class="cls-8" d="M100.11,32.41v22.84c0,16.21-9.62,30.84-24.5,37.27l-15.61,6.74-15.61-6.74c-14.88-6.43-24.5-21.06-24.5-37.27v-22.84l40.11-14.47,40.11,14.47Z"/>
    <path class="cls-7" d="M100.11,32.41v22.84c0,16.21-9.62,30.84-24.5,37.27l-15.61,6.74V17.95l40.11,14.47Z"/>
    <path class="cls-5" d="M100.11,34.41v20.84c0,16.21-9.62,30.84-24.5,37.27l-15.61,6.74-15.61-6.74c-14.88-6.43-24.5-21.06-24.5-37.27v-20.84l40.11-14.47,40.11,14.47Z"/>
    <path class="cls-3" d="M100.11,34.41v20.84c0,16.21-9.62,30.84-24.5,37.27l-15.61,6.74V19.95l40.11,14.47Z"/>
    <g>
      <path class="cls-4" d="M54.52,79.2c-.76,0-1.5-.09-2.24-.29-3.14-.79-4.97-3.05-5.75-4.01l-8.95-10.98c-1.15-1.41-1.67-3.17-1.48-4.97.19-1.8,1.07-3.41,2.48-4.54,1.18-.97,2.7-1.5,4.25-1.5,2.05,0,3.96.91,5.26,2.5l6.9,8.47,24.42-23.94c1.26-1.24,2.95-1.93,4.75-1.93s3.55.72,4.83,2.01c1.27,1.28,1.96,2.98,1.95,4.79-.01,1.8-.73,3.49-2.02,4.75l-26.34,25.8c-.96.94-3.89,3.83-8.06,3.83Z"/>
      <path class="cls-1" d="M87.21,47.83l-26.34,25.8c-.84.83-3.19,3.13-6.35,3.13-.53,0-1.06-.06-1.63-.21-2.35-.59-3.73-2.28-4.46-3.18l-8.95-10.99c-1.5-1.85-1.22-4.56.64-6.06.8-.65,1.76-.97,2.72-.97,1.26,0,2.51.55,3.36,1.6l8.6,10.54s.01-.01.01-.01l26.33-25.8c.84-.83,1.95-1.24,3.03-1.24s2.24.43,3.08,1.28c1.68,1.69,1.66,4.42-.04,6.08Z"/>
    </g>
  </g>
</svg>