<?xml version="1.0" encoding="UTF-8"?>
<svg id="Icon" xmlns="http://www.w3.org/2000/svg" viewBox="0 0 120 120">
  <defs>
    <style>
      .cls-1 {
        fill: #fff;
      }

      .cls-2 {
        fill: #dfedf2;
      }

      .cls-3 {
        fill: #231f20;
      }

      .cls-4 {
        fill: #a8b6c1;
      }
    </style>
  </defs>
  <path class="cls-3" d="M108.24,77.82c0,3.07.95,13.41,1.85,22.05.23,2.21-.49,4.42-1.98,6.07-1.49,1.65-3.61,2.59-5.83,2.59-.3,0-.59-.02-.88-.05-.3.03-.59.05-.89.05-4.33,0-7.85-3.52-7.85-7.85v-.05l.08-6.85c-8.27,7.73-19.36,12.47-31.55,12.47-13.66,0-25.95-5.95-34.42-15.39l.14,6.79c.04,2.06-.73,4-2.17,5.47-1.44,1.46-3.36,2.27-5.41,2.27h-.3c-.22,0-.43-.01-.64-.03-.22.02-.43.03-.65.03h-.3c-2.06,0-3.98-.81-5.42-2.29-1.44-1.47-2.21-3.42-2.16-5.49l.95-36.02v-.04l.12-4.56.18-6.73c-.1-.05-.18-.12-.28-.17-.17-.09-.33-.19-.5-.3-.19-.13-.39-.27-.57-.41-.16-.12-.31-.24-.45-.37-.18-.16-.35-.33-.52-.51-.13-.14-.27-.28-.39-.43-.16-.19-.31-.39-.45-.59-.11-.16-.23-.32-.33-.48-.14-.22-.26-.45-.38-.68-.08-.17-.18-.34-.26-.52-.11-.25-.2-.51-.29-.77-.06-.18-.13-.35-.18-.53-.08-.3-.14-.6-.2-.91-.03-.16-.07-.31-.1-.47-.06-.48-.1-.96-.1-1.46,0-.1,0-.19,0-.29l1.6-22.14c.15-2.57,2.26-4.62,4.81-4.62h.11c.57,0,1.11.1,1.62.29.26-.1.53-.17.81-.21.22-.04.43-.05.65-.05.07-.01.13-.02.2-.02.58,0,1.16.11,1.68.31.19-.08.39-.12.58-.17.08-.02.14-.04.22-.06.22-.04.45-.05.68-.06.05-.01.11-.02.17-.02.17,0,.35.02.53.04.11.01.21.01.32.03.28.04.55.11.81.21.51-.19,1.05-.29,1.61-.29h.11c.27,0,.54.03.81.08l.18.03c.53.12,1.03.32,1.49.61.03.02.06.04.09.06.46.29.86.67,1.21,1.11.02.04.05.07.07.1.03.04.05.07.08.11.01.02.03.03.04.05.01.01.01.02.02.03,0,.01.01.01.01.02.26.39.46.83.6,1.3,0,.04.02.09.03.13.06.22.11.45.14.68,0,.05.02.09.02.14l1.1,7.57c8.37-7.96,19.93-12.88,32.67-12.88s24.05,4.82,32.4,12.63l.14-10.96c0-.09.02-.17.02-.25.01-.13.02-.25.04-.38.02-.09.05-.19.07-.28.03-.12.05-.23.09-.34.03-.1.08-.19.12-.28.04-.11.08-.21.14-.31.05-.09.1-.17.16-.26.06-.09.12-.19.18-.28.07-.08.14-.15.21-.23.07-.08.14-.16.22-.24.07-.07.16-.14.24-.2.08-.07.17-.14.26-.2.09-.06.18-.11.28-.17.09-.05.18-.11.28-.15.1-.05.21-.09.31-.12.08-.03.15-.07.23-.09.03-.01.05-.01.08-.02.03-.01.06-.02.09-.03.08-.02.15-.02.23-.04.11-.02.23-.04.34-.06.1-.01.2-.01.3-.01.12,0,.24-.01.35,0,.1.01.2.02.3.04.11.01.22.03.33.05.1.02.2.05.3.08.1.04.21.07.31.11s.19.08.28.13c.1.05.2.1.29.15.09.06.18.12.27.18.08.06.17.12.25.19.08.07.16.15.24.23.07.07.15.15.22.23s.14.17.2.26c.04.06.09.1.12.16.06.09.79,1.23,1.88,3.35,1.08,2.12,2.51,5.24,3.98,9.28h0s0,.01.01.01c2.37,6.49,4.17,13.55,5.34,21.03.17,1.06.32,2.14.47,3.22.18,1.43.35,2.92.5,4.44.29,3.07.49,6.23.57,9.38.03,1.25.05,2.5.05,3.76,0,3.54-1.82,6.84-4.75,8.62-.82.5-.89.94-.89,1.44Z"/>
  <g>
    <circle class="cls-2" cx="61.19" cy="60" r="42.25"/>
    <ellipse class="cls-1" cx="61.19" cy="57.74" rx="42.25" ry="40"/>
    <ellipse class="cls-2" cx="61.19" cy="57.74" rx="31.96" ry="30.25"/>
    <ellipse class="cls-1" cx="61.19" cy="58.83" rx="29.65" ry="29.15"/>
    <path class="cls-4" d="M96.66,100.68l1.07-85.21s10.37,18.68,10.38,52.29c0,2.09-1.03,4.11-2.82,5.19-1.42.86-2.82,2.34-2.82,4.87,0,3.7,1.2,15.91,1.88,22.47.23,2.27-1.55,4.25-3.83,4.25h0c-2.13,0-3.85-1.72-3.85-3.85Z"/>
    <path class="cls-2" d="M109.88,67.75c0,2.1-1.02,4.11-2.82,5.2-1.42.86-2.82,2.35-2.82,4.86,0,3.7,1.19,15.91,1.87,22.46.24,2.27-1.55,4.25-3.83,4.25-1.07,0-2.02-.43-2.72-1.13-.7-.69-1.13-1.66-1.13-2.72l-.25-29.85-.08-9.39-.03-4.55-.23-26.52-.12-14.9s2.65,4.07,5.45,11.82c2.12,5.79,4.33,13.65,5.61,23.41.18,1.4.34,2.83.48,4.29.28,2.89.47,5.93.56,9.11.02,1.19.04,2.41.04,3.65Z"/>
    <path class="cls-4" d="M22.13,47.1h-.26l1.04,50.63c.04,2.01-1.57,3.66-3.58,3.66h-.3c-2.01,0-3.63-1.66-3.58-3.68l1.34-50.61h-.58c-2.49,0-4.51-2.44-4.51-5.44v-22.14c.04-.51.4-.91.83-.91h.11c.45,0,.82.45.82,1l1.59,18.03h.96l-.95-18.07c.02-.54.38-.96.83-.96s.81.43.82.97l2,18.06h1.14l-1.39-18.04c0-.55.37-.99.83-.99s.81.42.83.96l2.22,18.07h.95l-1.59-18.03c0-.55.37-1,.82-1h.11c.43,0,.79.4.82.91l3.19,22.14c0,3-2.02,5.44-4.51,5.44Z"/>
    <path class="cls-2" d="M25.05,41.66c0,.39-.03.76-.1,1.13h0c-.44,2.47-2.24,4.31-4.41,4.31h-.26l.05,2.61.18,8.66.81,39.36c.04,2.01-1.57,3.66-3.58,3.66h-.3c-2.01,0-3.63-1.66-3.58-3.68l.95-36.05.24-8.9.11-4.32.04-1.34h-.58c-2.49,0-4.51-2.44-4.51-5.44l1.14-15.73.46-6.41c.03-.51.39-.91.82-.91h.11c.45,0,.82.45.82,1v18.03h.96l.49-13.82.15-4.25c.02-.54.38-.96.83-.96s.81.43.82.97l.07,3.16.34,14.9h1.14l.18-15.86.02-2.18c0-.55.37-.99.83-.99s.81.42.83.96l.04,1.22.59,16.85h.95v-18.03c0-.55.37-1,.82-1h.11c.26,0,.5.15.65.38.1.15.16.33.17.53l1.6,22.14Z"/>
    <path class="cls-1" d="M108.79,50.7l-10.72,6.19-.23-26.52,5.34-3.08c2.12,5.79,4.33,13.65,5.61,23.41Z"/>
    <path class="cls-1" d="M109.84,64.11l-11.65,6.72-.08-9.39,11.17-6.44c.28,2.89.47,5.93.56,9.11Z"/>
    <path class="cls-1" d="M25.05,41.66c0,.39-.03.76-.1,1.13h0s-9.79,5.65-9.79,5.65l.04-1.34h-.58c-2.49,0-4.51-2.44-4.51-5.44l1.14-15.73,2.21-1.27v12.98h.96l.49-13.82,1.87-1.08.34,14.9h1.14l.18-15.86,1.72-.99.59,16.85h.95v-17.74l1.58-.91c.1.15.16.33.17.53l1.6,22.14Z"/>
    <polygon class="cls-1" points="20.51 58.37 14.81 61.66 15.05 52.76 20.33 49.71 20.51 58.37"/>
  </g>
</svg>