<?xml version="1.0" encoding="UTF-8"?>
<svg id="Layer_1" xmlns="http://www.w3.org/2000/svg" viewBox="0 0 48 48">
  <defs>
    <style>
      .cls-1 {
        fill: #ea9939;
      }

      .cls-2 {
        fill: #d87625;
      }

      .cls-3 {
        fill: #fff8d9;
      }

      .cls-4 {
        fill: #f4b545;
      }

      .cls-5 {
        fill: #fff;
        opacity: 0;
      }

      .cls-6 {
        fill: #6d3108;
      }

      .cls-7 {
        fill: #ffe277;
      }
    </style>
  </defs>
  <rect class="cls-5" width="48" height="48"/>
  <g>
    <path class="cls-4" d="M44.28,26.72c0,4.25-1.31,8.19-3.54,11.44-3.65,5.33-9.79,8.83-16.74,8.83-.29,0-.57,0-.86-.02-10.8-.45-19.42-9.35-19.42-20.26S12.8,6.45,24,6.45s20.28,9.08,20.28,20.27Z"/>
    <path class="cls-1" d="M40.74,25.23v12.94c-.76,1.12-1.63,2.15-2.6,3.09-2.09,2.03-4.61,3.62-7.42,4.6-2.1.74-4.36,1.14-6.72,1.14-.29,0-.57,0-.86-.02v-21.76h17.6Z"/>
    <path class="cls-2" d="M38.14,31.2v10.06c-2.09,2.03-4.61,3.62-7.42,4.6v-14.66h7.42Z"/>
    <rect class="cls-4" x="3.73" y="21.28" width="40.55" height="5.01"/>
    <path class="cls-7" d="M44.28,21.28c0,1-.07,1.97-.21,2.93h0c-1.42,9.81-9.86,17.35-20.07,17.35-5.23,0-10-1.99-13.6-5.24h0c-1.17-1.06-2.21-2.25-3.11-3.55-.11-.16-.21-.31-.31-.48-.26-.4-.51-.81-.74-1.23-.14-.26-.28-.52-.41-.78-.17-.34-.33-.68-.47-1.02-1-2.34-1.58-4.91-1.63-7.6,0-.12,0-.25,0-.37,0-.75.04-1.49.12-2.23.15-1.39.44-2.74.86-4.03C7.34,6.88,14.98,1,24,1c4.01,0,7.74,1.16,10.89,3.17,1.16.74,2.25,1.6,3.23,2.56.62.6,1.2,1.24,1.74,1.92,1.61,2.02,2.84,4.35,3.59,6.89.11.36.2.72.29,1.09.07.29.13.57.18.86.09.47.16.94.21,1.42.02.19.04.38.06.57.05.59.08,1.18.08,1.79Z"/>
    <path class="cls-3" d="M44.28,21.28c0,1-.07,1.97-.21,2.93h0s-33.67,12.11-33.67,12.11h0c-1.17-1.06-2.21-2.25-3.11-3.55-.11-.16-.21-.31-.31-.48-.26-.4-.51-.81-.74-1.23-.14-.26-.28-.52-.41-.78-.17-.34-.33-.68-.47-1.02-1-2.34-1.58-4.91-1.63-7.6,0-.12,0-.25,0-.37,0-.75.04-1.49.12-2.23L38.12,6.73c.62.6,1.2,1.24,1.74,1.92,1.61,2.02,2.84,4.35,3.59,6.89.11.36.2.72.29,1.09.07.29.13.57.18.86.09.47.16.94.21,1.42.02.19.04.38.06.57.05.59.08,1.18.08,1.79Z"/>
    <path class="cls-1" d="M38.45,21.28c0,.42-.02.84-.05,1.25-.63,7.4-6.84,13.2-14.4,13.2s-13.76-5.8-14.4-13.2c-.04-.41-.05-.83-.05-1.25,0-7.98,6.47-14.45,14.45-14.45s14.45,6.47,14.45,14.45Z"/>
    <path class="cls-6" d="M24,48c-11.73,0-21.28-9.54-21.28-21.28,0-.15,0-.3,0-.46v-4.99C2.72,9.55,12.27,0,24,0s21.28,9.54,21.28,21.28v5.01s0,.06,0,.09v.34c0,11.73-9.54,21.28-21.27,21.28ZM24,2C13.37,2,4.72,10.65,4.72,21.28v.39s0,5.05,0,5.05c0,10.63,8.65,19.28,19.28,19.28s19.28-8.65,19.28-19.28v-.41s0-.08,0-.12v-4.91c0-10.63-8.65-19.28-19.28-19.28Z"/>
    <path class="cls-4" d="M38.4,22.53c-.63,7.4-6.84,13.2-14.4,13.2s-13.76-5.8-14.4-13.2c.63-7.4,6.84-13.2,14.4-13.2s13.76,5.8,14.4,13.2Z"/>
    <g>
      <path class="cls-1" d="M31.19,25.66c0,1.4-.46,2.49-1.38,3.26-.92.77-2.22,1.18-3.91,1.22v.93c0,.41-.1.69-.29.84-.19.16-.54.24-1.05.24h-1.56c-.42,0-.72-.09-.89-.26-.17-.17-.26-.45-.26-.82v-.93h-2.47c-.41,0-.69-.09-.87-.26-.17-.17-.26-.45-.26-.82v-12.54c0-.37.09-.65.26-.83s.46-.27.87-.27h2.47v-.95c0-.38.09-.65.26-.84.17-.18.47-.27.89-.27h1.73c.42,0,.72.09.9.27.18.18.27.46.27.84v.95c3.26.07,4.9,1.48,4.9,4.22,0,.66-.15,1.26-.46,1.77-.3.52-.71.89-1.23,1.11,1.39.45,2.08,1.49,2.08,3.14Z"/>
      <rect class="cls-1" x="29.11" y="23.11" width="2.08" height="2.55"/>
      <rect class="cls-1" x="28.72" y="17.09" width="2.08" height="2.55"/>
      <path class="cls-7" d="M31,22.15c-.24-.74-.71-1.28-1.41-1.62-.15-.07-.31-.14-.48-.19.52-.22.93-.58,1.23-1.11.31-.52.46-1.11.46-1.77,0-1.76-.67-2.97-2.02-3.63-.52-.25-1.14-.43-1.87-.52-.32-.04-.65-.07-1.01-.07v-.95c0-.38-.09-.65-.27-.83-.18-.18-.48-.27-.9-.27h-1.73c-.42,0-.72.09-.89.27-.17.18-.26.46-.26.83v.95h-2.47c-.41,0-.69.09-.87.27-.17.18-.26.46-.26.83v12.54c0,.38.09.65.26.82.17.17.46.26.87.26h2.47v.93c0,.38.09.65.26.82.17.17.47.26.89.26h1.56c.5,0,.86-.08,1.05-.24.19-.16.29-.44.29-.85v-.93c1.69-.04,2.99-.45,3.91-1.22.61-.51,1.02-1.17,1.22-1.96.05-.19.09-.39.11-.6.03-.23.04-.46.04-.7,0-.5-.06-.94-.19-1.33ZM25.3,21.9c.14,0,.27.01.4.03.29.05.54.16.73.33.27.25.41.62.41,1.11,0,.1,0,.19-.02.28-.04.31-.16.56-.36.77-.25.27-.61.4-1.07.4h-2.75v-2.92h2.66ZM22.63,19v-2.62h2.38c.47,0,.83.1,1.06.31.23.2.35.53.35,1,0,.43-.12.76-.37.98-.25.23-.59.34-1.04.34h-2.38Z"/>
      <path class="cls-3" d="M31,22.15c-.24-.74-.71-1.28-1.41-1.62-.15-.07-.31-.14-.48-.19.52-.22.93-.58,1.23-1.11.31-.52.46-1.11.46-1.77,0-1.76-.67-2.97-2.02-3.63l-10.53,3.35v9.71c0,.38.09.65.26.82.17.17.46.26.87.26h1.63l10.02-3.18c.05-.19.09-.39.11-.6.03-.23.04-.46.04-.7,0-.5-.06-.94-.19-1.33ZM22.63,16.38h2.38c.47,0,.83.1,1.06.31.23.2.35.53.35,1,0,.43-.12.76-.37.98-.25.23-.59.34-1.04.34h-2.38v-2.62ZM26.81,23.65c-.04.31-.16.56-.36.77-.25.27-.61.4-1.07.4h-2.75v-2.92h2.66c.14,0,.27.01.4.03.29.05.54.16.73.33.27.25.41.62.41,1.11,0,.1,0,.19-.02.28Z"/>
    </g>
  </g>
</svg>