<?xml version="1.0" encoding="UTF-8"?>
<svg id="Layer_1" xmlns="http://www.w3.org/2000/svg" viewBox="0 0 48 48">
  <defs>
    <style>
      .cls-1 {
        fill: #f47aa0;
      }

      .cls-2 {
        fill: #fff;
        opacity: 0;
      }

      .cls-3 {
        fill: #7a1859;
      }

      .cls-4 {
        fill: #dd4a8c;
      }

      .cls-5 {
        fill: #ffd2e1;
      }
    </style>
  </defs>
  <rect class="cls-2" width="48" height="48"/>
  <g>
    <path class="cls-1" d="M24,44.05S.67,32.67,1.09,17.07c.02-.67.08-1.35.19-2.04.17-1.33.76-2.98,1.15-3.92C6.2,2.23,18.73,1.49,24,9.57c3.14-4.81,8.85-6.49,13.75-5.19,3.33.88,6.29,3.14,7.81,6.74.4.94.99,2.58,1.15,3.92,2.66,16.64-22.72,29.02-22.72,29.02Z"/>
    <path class="cls-4" d="M24,44.05S.67,32.67,1.09,17.07c.68,3.56,2.86,6.77,5.57,9.21,3.09,2.77,6.84,4.66,10.58,6.45,2.52,1.2,5.2,2.39,7.99,2.19,2.64-.19,5.02-1.62,7.21-3.12,3.37-2.32,6.61-4.97,8.89-8.37,2.28-3.4,3.51-7.67,2.6-11.66-.74-3.26-3.12-6.2-6.18-7.39,3.33.88,6.29,3.14,7.81,6.74.4.94.99,2.58,1.15,3.92,2.66,16.64-22.72,29.02-22.72,29.02Z"/>
    <path class="cls-5" d="M14.71,4.98c-5.11,2.8-8.75,8.16-9.46,13.95-.71,5.79,1.52,11.86,5.8,15.82C5.29,31.25,1.4,24.83.96,18.1c-.16-2.41.11-4.88,1.09-7.09,1.13-2.55,3.23-4.67,5.77-5.83,2.54-1.16,5.51-1.35,8.19-.54"/>
    <path class="cls-3" d="M24,45.05c-.15,0-.3-.03-.44-.1-1.06-.52-26.01-12.9-23.27-30.08.21-1.67.98-3.6,1.22-4.15C3.38,6.32,7.41,3.44,12.29,3.01c4.55-.41,8.91,1.44,11.71,4.87,2.8-3.43,7.16-5.27,11.71-4.87,4.89.43,8.92,3.32,10.78,7.72.23.55,1.01,2.48,1.22,4.18,2.74,17.15-22.21,29.52-23.27,30.04-.14.07-.29.1-.44.1ZM13.52,4.95c-.35,0-.7.02-1.05.05-4.14.37-7.54,2.8-9.12,6.51-.43,1.01-.94,2.5-1.08,3.65C-.06,29.74,20.69,41.2,24,42.93c3.31-1.73,24.06-13.2,21.73-27.74-.15-1.18-.66-2.67-1.08-3.68-1.57-3.71-4.98-6.14-9.12-6.51-4.29-.38-8.39,1.58-10.69,5.11-.18.28-.5.45-.84.45h0c-.34,0-.65-.17-.84-.45-2.11-3.24-5.74-5.16-9.64-5.16Z"/>
    <path class="cls-5" d="M7.91,9.23c-1.52,1.28-2.52,3.17-2.7,5.15-.11,1.16.06,2.37.66,3.37,1.06,1.77,3.36,2.57,5.4,2.25,2.04-.32,3.84-1.59,5.22-3.13.96-1.07,1.78-2.32,2.12-3.72.34-1.4.17-2.97-.68-4.14-2.22-3.04-7.59-1.8-10.01.22Z"/>
  </g>
</svg>