<?xml version="1.0" encoding="UTF-8"?>
<svg id="Layer_1" xmlns="http://www.w3.org/2000/svg" viewBox="0 0 108 108">
  <defs>
    <style>
      .cls-1 {
        fill: #e1fcc5;
      }

      .cls-2 {
        fill: #12993f;
      }

      .cls-3 {
        fill: #fff;
      }

      .cls-4 {
        fill: #54f445;
      }

      .cls-5 {
        fill: #05542a;
      }
    </style>
  </defs>
  <path class="cls-3" d="M81.16,100.05c-8.32,5.3-17.91,7.95-27.49,7.95-9.03,0-18.03-2.36-25.94-7.09C11.02,90.92,2.47,72.19,4.23,49.49c.14-14.81,5.44-27.43,15.3-36.51C28.31,4.9,40.11.3,52.75.01c23.99-.56,49.1,15.54,50.83,47.34,2.43,22.86-5.73,42.06-22.42,52.69Z"/>
  <g>
    <path class="cls-5" d="M95.48,48c7.44,67.78-88.68,69.9-83.15,1.84.26-54.54,80.41-56.2,83.15-1.84Z"/>
    <g>
      <path class="cls-2" d="M90.41,49.05C86.5-4.75,10.84,3.9,17.41,58h.01c.36,49.1,72.79,48.74,72.98,0h.02v-8.94Z"/>
      <path class="cls-1" d="M90.41,49.01c0,1.79-.13,3.54-.38,5.25h0c-2.57,17.59-17.76,31.09-36.13,31.09-9.42,0-18.01-3.55-24.49-9.39h0c-2.11-1.9-3.99-4.04-5.6-6.37-.19-.28-.39-.57-.57-.85-.48-.73-.91-1.46-1.33-2.21-.19-.34-.39-.69-.56-1.04l-.18-.36c-.29-.61-.58-1.21-.85-1.84-1.81-4.19-2.84-8.79-2.92-13.63,0-.21-.01-.43-.01-.66,0-1.34.07-2.67.22-3.99.27-2.49.79-4.91,1.55-7.22,4.75-14.59,18.5-25.13,34.73-25.13,7.21,0,13.94,2.09,19.6,5.68,2.09,1.33,4.05,2.87,5.82,4.58,1.12,1.08,2.17,2.23,3.13,3.44.61.77,1.2,1.54,1.73,2.36,2.07,3.04,3.67,6.4,4.74,10,.19.65.37,1.29.52,1.96.12.5.23,1.02.33,1.54.15.84.28,1.69.39,2.54.03.34.07.68.1,1.02.09,1.05.14,2.12.14,3.2Z"/>
      <path class="cls-4" d="M90.41,49.01c0,1.79-.13,3.54-.38,5.25h0c-2.57,17.59-17.76,31.09-36.13,31.09-9.42,0-18.01-3.55-24.49-9.39h0c-2.11-1.9-3.99-4.04-5.6-6.37-.19-.28-.39-.57-.57-.85-.48-.73-.91-1.46-1.33-2.21-.19-.34-.39-.69-.56-1.04-.91-3.13-1.44-6.44-1.5-9.86,0-.22-.01-.45-.01-.68,0-1.38.08-2.76.23-4.1.27-2.56.82-5.06,1.59-7.43,4.89-15.01,19.03-25.86,35.74-25.86,7.42,0,14.35,2.15,20.18,5.84,2.15,1.37,4.16,2.95,5.98,4.71.21.2.42.4.62.62,2.07,3.04,3.67,6.4,4.74,10,.19.65.37,1.29.52,1.96.12.5.23,1.02.33,1.54.15.84.28,1.69.39,2.54.03.34.07.68.1,1.02.09,1.05.14,2.12.14,3.2Z"/>
      <g>
        <path class="cls-3" d="M77.35,44.03l-21.52,21.09c-.94.92-3.79,3.71-8.04,3.71-.78,0-1.56-.09-2.32-.28-3.22-.82-5.04-3.03-5.81-3.98l-7.32-8.98c-1.28-1.56-1.86-3.53-1.65-5.54.21-2.01,1.2-3.82,2.77-5.09,1.35-1.09,3.05-1.69,4.79-1.69,2.29,0,4.44,1.02,5.89,2.8l4.22,5.17,18.36-17.98c1.42-1.4,3.32-2.18,5.32-2.18s3.97.81,5.41,2.26c2.94,2.97,2.9,7.76-.08,10.69Z"/>
        <path class="cls-5" d="M72.03,35.13c.91,0,1.83.35,2.52,1.05,1.37,1.38,1.35,3.61-.04,4.98l-21.52,21.09c-.7.68-2.61,2.56-5.2,2.56-.43,0-.87-.05-1.33-.17-1.92-.48-3.04-1.86-3.65-2.61l-7.32-8.98c-1.23-1.51-1-3.73.52-4.95.66-.53,1.44-.79,2.23-.79,1.03,0,2.05.44,2.75,1.3l7.03,8.62s0,0,.01-.01l21.52-21.09c.69-.67,1.58-1.01,2.48-1.01M72.03,31.09h0c-2.01,0-3.9.77-5.33,2.17l-18.35,17.98-4.22-5.17c-1.45-1.78-3.6-2.8-5.9-2.8-1.73,0-3.43.6-4.78,1.69-1.58,1.27-2.56,3.08-2.77,5.09-.21,2.01.38,3.98,1.65,5.54l7.32,8.98c.77.95,2.58,3.17,5.81,3.98.76.19,1.55.29,2.32.29,4.25,0,7.11-2.8,8.04-3.72l21.52-21.09c2.98-2.92,3.02-7.72.08-10.69-1.44-1.45-3.36-2.26-5.41-2.26h0Z"/>
      </g>
    </g>
  </g>
</svg>