<?xml version="1.0" encoding="UTF-8"?>
<svg id="Icon" xmlns="http://www.w3.org/2000/svg" viewBox="0 0 120 120">
  <defs>
    <style>
      .cls-1 {
        fill: #fff8d9;
      }

      .cls-2 {
        fill: #f4b545;
      }

      .cls-3 {
        fill: #6d3108;
      }

      .cls-4 {
        fill: #ffe277;
      }

      .cls-5 {
        opacity: .5;
      }
    </style>
  </defs>
  <rect class="cls-3" x="95.29" y="80.62" width="5.27" height="12.79"/>
  <g>
    <path class="cls-3" d="M115.47,57.18c.45-.86.61-1.88.33-2.89l-11.58-43.21c-.57-2.13-2.77-3.41-4.9-2.83l-25.45,6.82-1.03-3.86c-.07-.26-.16-.51-.28-.74-.07-.15-.17-.28-.26-.41-.05-.08-.1-.17-.16-.25-.11-.14-.24-.26-.36-.38-.06-.06-.11-.13-.17-.18-.39-.34-.85-.61-1.34-.78-.07-.03-.15-.03-.23-.05-.18-.05-.35-.1-.53-.12-.09-.01-.19,0-.28-.01-.17-.01-.33-.03-.5-.02-.15,0-.3.05-.44.07-.11.02-.23.03-.34.06l-43.22,11.58c-1.02.27-1.9.94-2.43,1.86-.17.29-.28.59-.37.91-.06.11-.11.23-.15.34-.05.07-.11.14-.15.21-.11.19-.19.39-.27.6-.02.03-.04.05-.06.08-.11.19-.2.4-.27.6-.03.05-.07.09-.1.14-.13.23-.24.48-.33.73-.06.11-.11.23-.16.35-.05.07-.11.14-.15.21-.11.19-.19.39-.27.6-.02.03-.04.05-.06.08-.11.19-.2.4-.27.6-.03.05-.07.09-.1.14-.11.19-.19.39-.27.6-.34.55-.54,1.18-.59,1.84l-5.84,1.57c-1.02.27-1.9.94-2.43,1.86-.17.29-.28.59-.37.91-.06.11-.11.23-.16.34-.17.26-.32.52-.42.81-.02.03-.04.05-.05.07-.11.19-.2.4-.27.6-.03.05-.07.09-.1.14-.14.23-.24.48-.33.73-.06.11-.11.23-.16.35-.17.26-.32.52-.42.81-.13.21-.24.44-.33.68-.15.23-.28.48-.37.74-.02.04-.05.06-.07.1-.06.1-.09.21-.14.31-.06.09-.14.18-.2.27-.11.19-.19.39-.27.6-.02.03-.04.05-.06.08-.11.19-.2.4-.27.6-.03.05-.07.09-.1.14-.14.23-.24.48-.33.73-.06.11-.11.23-.15.34-.17.26-.32.53-.43.82-.13.22-.24.44-.33.68-.15.23-.27.48-.37.74-.08.12-.14.25-.2.39-.21.29-.39.6-.52.94-.02.04-.05.07-.07.1-.53.92-.67,2.01-.4,3.04l11.58,43.22c.27,1.02.94,1.9,1.86,2.43.61.35,1.3.54,2,.54.35,0,.69-.04,1.04-.14l86.43-23.16c1.02-.27,1.9-.94,2.43-1.86.11-.19.19-.39.27-.6.02-.04.06-.07.08-.11.05-.09.08-.19.13-.28.08-.11.17-.22.24-.34.11-.19.19-.39.27-.6.02-.04.05-.07.08-.11.11-.19.19-.39.27-.6.15-.24.28-.49.38-.75.11-.18.19-.37.27-.56.19-.29.36-.6.47-.93.08-.15.15-.31.21-.47.03-.05.07-.09.1-.14.11-.19.19-.39.27-.6.02-.03.04-.05.06-.08.06-.1.09-.21.14-.31.06-.09.14-.18.2-.27.11-.19.19-.39.27-.6.02-.04.06-.07.08-.11.11-.19.2-.4.27-.6.03-.05.07-.09.1-.14.11-.19.19-.39.27-.6.02-.03.04-.05.06-.08.09-.15.15-.32.22-.48.05-.07.11-.14.15-.21.13-.23.24-.48.33-.73.08-.15.15-.31.21-.47.15-.23.27-.48.37-.74.02-.03.04-.05.05-.07.09-.15.15-.32.22-.48.05-.07.11-.14.15-.21.17-.29.28-.59.37-.91Z"/>
    <g>
      <g>
        <rect class="cls-2" x="52.78" y="30.56" width="44.74" height="22.37" transform="translate(-8.24 20.87) rotate(-15)"/>
        <rect class="cls-4" x="53.13" y="29.85" width="44.74" height="22.37" transform="translate(-8.05 20.94) rotate(-15)"/>
        <rect class="cls-2" x="53.5" y="29.22" width="44.74" height="22.37" transform="translate(-7.87 21.01) rotate(-15)"/>
        <rect class="cls-4" x="53.85" y="28.52" width="44.74" height="22.37" transform="translate(-7.68 21.08) rotate(-15)"/>
        <rect class="cls-2" x="54.22" y="27.78" width="44.74" height="22.37" transform="translate(-7.47 21.15) rotate(-15)"/>
        <rect class="cls-4" x="54.55" y="27.1" width="44.74" height="22.37" transform="translate(-7.29 21.21) rotate(-15)"/>
        <rect class="cls-2" x="54.92" y="26.41" width="44.74" height="22.37" transform="translate(-7.1 21.29) rotate(-15)"/>
        <rect class="cls-4" x="55.19" y="25.81" width="44.74" height="22.37" transform="translate(-6.93 21.33) rotate(-15)"/>
        <rect class="cls-2" x="55.56" y="25.07" width="44.74" height="22.37" transform="translate(-6.73 21.4) rotate(-15)"/>
        <rect class="cls-4" x="55.89" y="24.39" width="44.74" height="22.37" transform="translate(-6.54 21.47) rotate(-15)"/>
        <rect class="cls-2" x="56.22" y="23.81" width="44.74" height="22.37" transform="translate(-6.38 21.53) rotate(-15)"/>
        <rect class="cls-4" x="56.57" y="23.1" width="44.74" height="22.37" transform="translate(-6.18 21.6) rotate(-15)"/>
        <rect class="cls-2" x="56.94" y="22.36" width="44.74" height="22.37" transform="translate(-5.98 21.67) rotate(-15)"/>
        <rect class="cls-4" x="57.27" y="21.68" width="44.74" height="22.37" transform="translate(-5.79 21.73) rotate(-15)"/>
        <rect class="cls-2" x="57.64" y="20.99" width="44.74" height="22.37" transform="translate(-5.6 21.8) rotate(-15)"/>
        <rect class="cls-4" x="57.91" y="20.4" width="44.74" height="22.37" transform="translate(-5.44 21.85) rotate(-15)"/>
        <rect class="cls-2" x="58.28" y="19.66" width="44.74" height="22.37" transform="translate(-5.23 21.92) rotate(-15)"/>
        <rect class="cls-4" x="58.61" y="18.98" width="44.74" height="22.37" transform="translate(-5.05 21.99) rotate(-15)"/>
        <rect class="cls-2" x="58.98" y="18.28" width="44.74" height="22.37" transform="translate(-4.86 22.06) rotate(-15)"/>
        <rect class="cls-4" x="59.28" y="17.52" width="44.74" height="22.37" transform="translate(-4.65 22.11) rotate(-15)"/>
        <polygon class="cls-1" points="83.56 16.61 76.88 41.56 62.94 45.3 61.22 38.89 65.92 21.34 83.56 16.61"/>
        <polygon class="cls-2" points="100.36 12.11 102.97 21.84 99.3 35.56 85.17 39.34 91.86 14.39 100.36 12.11"/>
        <g>
          <path class="cls-3" d="M62.38,27.47c.06-.02.11-.01.15.02s.08.08.1.15.02.13,0,.18c-.02.05-.07.08-.13.09l-1.17.31c-.08.02-.15.02-.2-.02s-.09-.09-.11-.17l-.6-2.22c-.02-.08-.01-.14.02-.2.03-.05.1-.09.19-.12s.17-.02.22,0c.06.03.09.08.11.16l.54,2.03.87-.23Z"/>
          <path class="cls-3" d="M62.64,26.46c-.06-.22-.08-.43-.06-.63.02-.19.07-.37.15-.52.08-.15.2-.28.34-.39.15-.11.32-.19.52-.24s.37-.07.55-.05.33.07.47.16c.14.09.27.21.37.36.11.15.19.33.24.54.06.22.08.43.06.62-.02.19-.07.37-.15.52-.08.15-.2.28-.34.39-.15.11-.32.19-.52.24s-.37.07-.55.05-.33-.07-.47-.16c-.14-.09-.27-.2-.37-.36-.11-.15-.19-.33-.24-.54ZM63.19,26.27c.04.16.1.29.17.4.07.11.15.19.24.26s.18.1.29.12c.1.02.2.01.31-.02s.19-.07.27-.14c.08-.06.14-.15.19-.24.04-.1.07-.21.08-.34,0-.13-.01-.27-.05-.43s-.1-.29-.17-.4c-.07-.11-.15-.2-.24-.26-.09-.06-.18-.1-.29-.12s-.2-.01-.31.02-.19.07-.27.14c-.08.06-.14.15-.19.24-.05.1-.07.21-.08.34s.01.27.05.43Z"/>
          <path class="cls-3" d="M65.48,24.69c-.06.02-.11.01-.15-.02-.04-.03-.08-.08-.1-.15s-.02-.13,0-.18c.02-.04.07-.08.12-.09l1.78-.48c.06-.02.11-.01.15.02.04.03.08.08.1.15s.02.13,0,.18c-.02.05-.07.08-.12.09l-.62.17.54,2.03c.02.08.01.14-.02.2-.03.05-.1.09-.19.12s-.17.02-.22,0c-.06-.03-.09-.08-.11-.16l-.54-2.03-.62.17Z"/>
          <path class="cls-3" d="M67.91,24.03c-.06.02-.11.01-.15-.02-.04-.03-.08-.08-.1-.15s-.02-.13,0-.18c.02-.04.07-.08.12-.09l1.78-.48c.06-.02.11-.01.15.02.04.03.08.08.1.15s.02.13,0,.18c-.02.05-.07.08-.12.09l-.62.17.54,2.03c.02.08.01.14-.02.2-.03.05-.1.09-.19.12s-.17.02-.22,0c-.06-.03-.09-.08-.11-.16l-.54-2.03-.62.17Z"/>
          <path class="cls-3" d="M71.44,25.05l.92-.25c.06-.02.11,0,.15.02.04.03.07.08.09.15s.02.13,0,.17c-.02.04-.06.07-.12.09l-1.22.33c-.08.02-.15.02-.2-.02s-.09-.09-.11-.17l-.59-2.2c-.02-.08-.02-.15.02-.2s.09-.09.17-.11l1.21-.32c.06-.02.11,0,.15.02.04.03.07.07.09.15s.02.13,0,.17c-.02.04-.06.07-.12.09l-.91.24.18.69.78-.21c.05-.01.1,0,.15.02.04.03.07.07.09.14s.02.12,0,.17c-.02.04-.06.07-.12.09l-.78.21.2.74Z"/>
          <path class="cls-3" d="M73.77,24.64c.02.08.01.14-.02.2-.03.05-.09.09-.19.12s-.17.02-.22,0c-.05-.03-.09-.08-.11-.16l-.6-2.22c-.02-.08-.02-.15.02-.2s.09-.09.17-.11l.58-.15c.18-.05.35-.07.49-.07.14,0,.27.03.37.07s.19.11.26.19c.07.08.11.18.14.29.02.09.03.18.03.27,0,.09-.02.17-.05.24s-.07.14-.13.21c-.05.06-.12.12-.19.17l.71.64s.06.05.07.08c.02.02.03.05.04.07.01.04.01.08,0,.11,0,.04-.02.07-.05.1-.02.03-.05.06-.08.08-.03.02-.07.04-.11.05s-.07.01-.1,0-.06-.01-.09-.03c0,0-.02-.01-.03-.02,0,0-.02-.01-.03-.02s-.02-.02-.03-.02c0,0-.02-.02-.03-.03l-.79-.77-.27.07.23.85ZM73.7,23.3c.09-.02.16-.05.22-.09.06-.04.11-.08.14-.13.03-.05.05-.1.06-.15,0-.06,0-.11-.01-.17s-.04-.11-.07-.15-.07-.07-.13-.1c-.05-.02-.11-.03-.19-.03s-.16.01-.25.04l-.26.07.21.79.28-.07Z"/>
          <path class="cls-3" d="M75.02,22.16s-.04-.03-.05-.05c-.02-.02-.03-.03-.04-.05-.01-.01-.02-.03-.03-.04,0-.01-.01-.03-.02-.05-.01-.04-.01-.08,0-.12,0-.04.03-.07.05-.11.02-.03.05-.06.08-.08.03-.02.07-.04.1-.05.04-.01.07-.01.1,0,.03,0,.05.01.08.03.02.01.04.03.06.05s.05.05.08.08l.62.64s.04.04.06.07c.02.02.04.04.05.06.02.02.03.04.05.06h0s0-.05.01-.08c0-.02,0-.05.01-.08,0-.03.01-.06.02-.09l.2-.85c.01-.05.02-.09.03-.11,0-.02.02-.05.03-.07.01-.02.03-.05.06-.06.02-.02.05-.03.08-.04.04,0,.07-.01.11,0,.04,0,.07.01.11.03.03.02.06.04.09.06.03.03.04.06.05.09,0,.03.01.07,0,.1,0,.03-.02.07-.03.12l-.4,1.41.22.82c.02.08.01.14-.02.2-.03.05-.1.09-.19.12s-.17.02-.22,0c-.06-.03-.09-.08-.11-.16l-.22-.82-1.02-.99Z"/>
        </g>
        <g class="cls-5">
          <path class="cls-2" d="M72.01,40.96s-.05.01-.09.01c-.32.01-.83-.35-1.4-1-.6-.69-1.16-1.59-1.59-2.55-2.36.26-4.47-.29-4.62-.81,0-.03-.01-.07-.01-.11.01-.67,1.53-2.07,3.55-2.97-.27-2.36.29-4.48.81-4.62.02,0,.04,0,.05-.01.02,0,.04,0,.05,0,.09,0,.17.02.27.07.71.3,1.9,1.69,2.71,3.49,2.36-.26,4.47.29,4.62.81,0,.02.01.06.01.09.02.64-1.52,2.08-3.55,2.99.27,2.36-.29,4.48-.81,4.62ZM68.73,29.16c-.28.08-.91,1.97-.61,4.43,0,.06-.02.11-.08.13-2.24.98-3.48,2.35-3.49,2.77,0,.02,0,.03,0,.04.08.28,1.97.91,4.43.61.06,0,.11.02.13.08.42.97.99,1.88,1.59,2.57.56.64,1,.92,1.2.91l.06.12-.03-.13c.28-.08.91-1.97.61-4.42,0-.01,0-.03,0-.04,0-.05.03-.09.08-.11,2.19-.95,3.5-2.34,3.49-2.78l.12-.06-.13.03c-.08-.28-1.97-.91-4.43-.61-.06.01-.12-.02-.14-.08-.86-1.97-2.04-3.2-2.61-3.44-.08-.03-.13-.04-.17-.04-.02,0-.03,0-.04,0Z"/>
          <path class="cls-2" d="M70.76,36.52c-.87.23-1.77-.28-2.01-1.15-.12-.42-.06-.87.15-1.25.22-.38.57-.66.99-.78.43-.11.87-.06,1.25.15.38.22.66.57.78.99h0c.24.87-.27,1.78-1.15,2.03h-.01ZM69.98,33.59h-.01c-.36.1-.65.33-.84.66s-.23.7-.13,1.05c.2.73.96,1.17,1.69.97h.01c.74-.21,1.17-.97.97-1.71-.1-.36-.33-.65-.65-.84-.32-.18-.69-.23-1.04-.13Z"/>
          <rect class="cls-2" x="70.78" y="32.97" width="1.18" height=".26" transform="translate(7.02 78.36) rotate(-60)"/>
          <rect class="cls-2" x="68.71" y="36.64" width="1.19" height=".26" transform="translate(2.81 78.4) rotate(-60)"/>
          <rect class="cls-2" x="68.37" y="33.31" width=".26" height="1.18" transform="translate(4.89 76.27) rotate(-60)"/>
          <rect class="cls-2" x="72.04" y="35.38" width=".26" height="1.18" transform="translate(4.94 80.49) rotate(-60)"/>
        </g>
      </g>
      <g>
        <rect class="cls-2" x="9.57" y="42.14" width="44.74" height="22.37" transform="translate(-12.71 10.08) rotate(-15)"/>
        <rect class="cls-4" x="9.91" y="41.43" width="44.74" height="22.37" transform="translate(-12.52 10.15) rotate(-15)"/>
        <rect class="cls-2" x="10.29" y="40.8" width="44.74" height="22.37" transform="translate(-12.34 10.22) rotate(-15)"/>
        <rect class="cls-4" x="10.63" y="40.1" width="44.74" height="22.37" transform="translate(-12.15 10.29) rotate(-15)"/>
        <rect class="cls-2" x="11.01" y="39.36" width="44.74" height="22.37" transform="translate(-11.94 10.36) rotate(-15)"/>
        <rect class="cls-4" x="11.33" y="38.68" width="44.74" height="22.37" transform="translate(-11.76 10.42) rotate(-15)"/>
        <rect class="cls-2" x="11.71" y="37.99" width="44.74" height="22.37" transform="translate(-11.57 10.49) rotate(-15)"/>
        <rect class="cls-4" x="11.97" y="37.39" width="44.74" height="22.37" transform="translate(-11.4 10.54) rotate(-15)"/>
        <rect class="cls-2" x="12.34" y="36.65" width="44.74" height="22.37" transform="translate(-11.2 10.61) rotate(-15)"/>
        <rect class="cls-4" x="12.67" y="35.97" width="44.74" height="22.37" transform="translate(-11.01 10.68) rotate(-15)"/>
        <rect class="cls-2" x="13.01" y="35.39" width="44.74" height="22.37" transform="translate(-10.85 10.74) rotate(-15)"/>
        <rect class="cls-4" x="13.36" y="34.68" width="44.74" height="22.37" transform="translate(-10.65 10.81) rotate(-15)"/>
        <rect class="cls-2" x="13.73" y="33.94" width="44.74" height="22.37" transform="translate(-10.45 10.88) rotate(-15)"/>
        <rect class="cls-4" x="14.06" y="33.26" width="44.74" height="22.37" transform="translate(-10.26 10.94) rotate(-15)"/>
        <rect class="cls-2" x="14.43" y="32.57" width="44.74" height="22.37" transform="translate(-10.07 11.01) rotate(-15)"/>
        <rect class="cls-4" x="14.69" y="31.98" width="44.74" height="22.37" transform="translate(-9.91 11.06) rotate(-15)"/>
        <rect class="cls-2" x="15.06" y="31.23" width="44.74" height="22.37" transform="translate(-9.7 11.13) rotate(-15)"/>
        <rect class="cls-4" x="15.39" y="30.56" width="44.74" height="22.37" transform="translate(-9.52 11.2) rotate(-15)"/>
        <rect class="cls-2" x="15.76" y="29.86" width="44.74" height="22.37" transform="translate(-9.32 11.27) rotate(-15)"/>
        <rect class="cls-4" x="16.07" y="29.1" width="44.74" height="22.37" transform="translate(-9.12 11.32) rotate(-15)"/>
        <polygon class="cls-1" points="40.35 28.19 33.67 53.14 19.72 56.88 18.01 50.47 22.71 32.92 40.35 28.19"/>
        <polygon class="cls-2" points="57.15 23.69 59.76 33.42 56.08 47.14 41.96 50.92 48.64 25.97 57.15 23.69"/>
        <g>
          <path class="cls-3" d="M19.17,39.05c.06-.02.11-.01.15.02s.08.08.1.15.02.13,0,.18c-.02.05-.07.08-.13.09l-1.17.31c-.08.02-.15.02-.2-.02s-.09-.09-.11-.17l-.6-2.22c-.02-.08-.01-.14.02-.2.03-.05.1-.09.19-.12s.17-.02.22,0c.06.03.09.08.11.16l.54,2.03.87-.23Z"/>
          <path class="cls-3" d="M19.42,38.04c-.06-.22-.08-.43-.06-.63.02-.19.07-.37.15-.52.08-.15.2-.28.34-.39.15-.11.32-.19.52-.24s.37-.07.55-.05.33.07.47.16c.14.09.27.21.37.36.11.15.19.33.24.54.06.22.08.43.06.62-.02.19-.07.37-.15.52-.08.15-.2.28-.34.39-.15.11-.32.19-.52.24s-.37.07-.55.05-.33-.07-.47-.16c-.14-.09-.27-.2-.37-.36-.11-.15-.19-.33-.24-.54ZM19.97,37.85c.04.16.1.29.17.4.07.11.15.19.24.26s.18.1.29.12c.1.02.2.01.31-.02s.19-.07.27-.14c.08-.06.14-.15.19-.24.04-.1.07-.21.08-.34,0-.13-.01-.27-.05-.43s-.1-.29-.17-.4c-.07-.11-.15-.2-.24-.26-.09-.06-.18-.1-.29-.12s-.2-.01-.31.02-.19.07-.27.14c-.08.06-.14.15-.19.24-.05.1-.07.21-.08.34s.01.27.05.43Z"/>
          <path class="cls-3" d="M22.26,36.26c-.06.02-.11.01-.15-.02-.04-.03-.08-.08-.1-.15s-.02-.13,0-.18c.02-.04.07-.08.12-.09l1.78-.48c.06-.02.11-.01.15.02.04.03.08.08.1.15s.02.13,0,.18c-.02.05-.07.08-.12.09l-.62.17.54,2.03c.02.08.01.14-.02.2-.03.05-.1.09-.19.12s-.17.02-.22,0c-.06-.03-.09-.08-.11-.16l-.54-2.03-.62.17Z"/>
          <path class="cls-3" d="M24.69,35.61c-.06.02-.11.01-.15-.02-.04-.03-.08-.08-.1-.15s-.02-.13,0-.18c.02-.04.07-.08.12-.09l1.78-.48c.06-.02.11-.01.15.02.04.03.08.08.1.15s.02.13,0,.18c-.02.05-.07.08-.12.09l-.62.17.54,2.03c.02.08.01.14-.02.2-.03.05-.1.09-.19.12s-.17.02-.22,0c-.06-.03-.09-.08-.11-.16l-.54-2.03-.62.17Z"/>
          <path class="cls-3" d="M28.22,36.63l.92-.25c.06-.02.11,0,.15.02.04.03.07.08.09.15s.02.13,0,.17c-.02.04-.06.07-.12.09l-1.22.33c-.08.02-.15.02-.2-.02s-.09-.09-.11-.17l-.59-2.2c-.02-.08-.02-.15.02-.2s.09-.09.17-.11l1.21-.32c.06-.02.11,0,.15.02.04.03.07.07.09.15s.02.13,0,.17c-.02.04-.06.07-.12.09l-.91.24.18.69.78-.21c.05-.01.1,0,.15.02.04.03.07.07.09.14s.02.12,0,.17c-.02.04-.06.07-.12.09l-.78.21.2.74Z"/>
          <path class="cls-3" d="M30.55,36.22c.02.08.01.14-.02.2-.03.05-.09.09-.19.12s-.17.02-.22,0c-.05-.03-.09-.08-.11-.16l-.6-2.22c-.02-.08-.02-.15.02-.2s.09-.09.17-.11l.58-.15c.18-.05.35-.07.49-.07.14,0,.27.03.37.07s.19.11.26.19c.07.08.11.18.14.29.02.09.03.18.03.27,0,.09-.02.17-.05.24s-.07.14-.13.21c-.05.06-.12.12-.19.17l.71.64s.06.05.07.08c.02.02.03.05.04.07.01.04.01.08,0,.11,0,.04-.02.07-.05.1-.02.03-.05.06-.08.08-.03.02-.07.04-.11.05s-.07.01-.1,0-.06-.01-.09-.03c0,0-.02-.01-.03-.02,0,0-.02-.01-.03-.02s-.02-.02-.03-.02c0,0-.02-.02-.03-.03l-.79-.77-.27.07.23.85ZM30.49,34.88c.09-.02.16-.05.22-.09.06-.04.11-.08.14-.13.03-.05.05-.1.06-.15,0-.06,0-.11-.01-.17s-.04-.11-.07-.15-.07-.07-.13-.1c-.05-.02-.11-.03-.19-.03s-.16.01-.25.04l-.26.07.21.79.28-.07Z"/>
          <path class="cls-3" d="M31.8,33.74s-.04-.03-.05-.05c-.02-.02-.03-.03-.04-.05-.01-.01-.02-.03-.03-.04,0-.01-.01-.03-.02-.05-.01-.04-.01-.08,0-.12,0-.04.03-.07.05-.11.02-.03.05-.06.08-.08.03-.02.07-.04.1-.05.04-.01.07-.01.1,0,.03,0,.05.01.08.03.02.01.04.03.06.05s.05.05.08.08l.62.64s.04.04.06.07c.02.02.04.04.05.06.02.02.03.04.05.06h0s0-.05.01-.08c0-.02,0-.05.01-.08,0-.03.01-.06.02-.09l.2-.85c.01-.05.02-.09.03-.11,0-.02.02-.05.03-.07.01-.02.03-.05.06-.06.02-.02.05-.03.08-.04.04,0,.07-.01.11,0,.04,0,.07.01.11.03.03.02.06.04.09.06.03.03.04.06.05.09,0,.03.01.07,0,.1,0,.03-.02.07-.03.12l-.4,1.41.22.82c.02.08.01.14-.02.2-.03.05-.1.09-.19.12s-.17.02-.22,0c-.06-.03-.09-.08-.11-.16l-.22-.82-1.02-.99Z"/>
        </g>
        <g class="cls-5">
          <path class="cls-2" d="M28.79,52.54s-.05.01-.09.01c-.32.01-.83-.35-1.4-1-.6-.69-1.16-1.59-1.59-2.55-2.36.26-4.47-.29-4.62-.81,0-.03-.01-.07-.01-.11.01-.67,1.53-2.07,3.55-2.97-.27-2.36.29-4.48.81-4.62.02,0,.04,0,.05-.01.02,0,.04,0,.05,0,.09,0,.17.02.27.07.71.3,1.9,1.69,2.71,3.49,2.36-.26,4.47.29,4.62.81,0,.02.01.06.01.09.02.64-1.52,2.08-3.55,2.99.27,2.36-.29,4.48-.81,4.62ZM25.51,40.74c-.28.08-.91,1.97-.61,4.43,0,.06-.02.11-.08.13-2.24.98-3.48,2.35-3.49,2.77,0,.02,0,.03,0,.04.08.28,1.97.91,4.43.61.06,0,.11.02.13.08.42.97.99,1.88,1.59,2.57.56.64,1,.92,1.2.91l.06.12-.03-.13c.28-.08.91-1.97.61-4.42,0-.01,0-.03,0-.04,0-.05.03-.09.08-.11,2.19-.95,3.5-2.34,3.49-2.78l.12-.06-.13.03c-.08-.28-1.97-.91-4.43-.61-.06.01-.12-.02-.14-.08-.86-1.97-2.04-3.2-2.61-3.44-.08-.03-.13-.04-.17-.04-.02,0-.03,0-.04,0Z"/>
          <path class="cls-2" d="M27.55,48.1c-.87.23-1.77-.28-2.01-1.15-.12-.42-.06-.87.15-1.25.22-.38.57-.66.99-.78.43-.11.87-.06,1.25.15.38.22.66.57.78.99h0c.24.87-.27,1.78-1.15,2.03h-.01ZM26.76,45.17h-.01c-.36.1-.65.33-.84.66s-.23.7-.13,1.05c.2.73.96,1.17,1.69.97h.01c.74-.21,1.17-.97.97-1.71-.1-.36-.33-.65-.65-.84-.32-.18-.69-.23-1.04-.13Z"/>
          <rect class="cls-2" x="27.56" y="44.55" width="1.18" height=".26" transform="translate(-24.62 46.72) rotate(-60)"/>
          <rect class="cls-2" x="25.5" y="48.21" width="1.19" height=".26" transform="translate(-28.82 46.77) rotate(-60)"/>
          <rect class="cls-2" x="25.16" y="44.89" width=".26" height="1.18" transform="translate(-26.75 44.64) rotate(-60)"/>
          <rect class="cls-2" x="28.82" y="46.96" width=".26" height="1.18" transform="translate(-26.7 48.85) rotate(-60)"/>
        </g>
      </g>
      <g>
        <rect class="cls-2" x="58.57" y="52.16" width="44.74" height="22.37" transform="translate(-13.64 23.11) rotate(-15)"/>
        <rect class="cls-4" x="58.92" y="51.46" width="44.74" height="22.37" transform="translate(-13.44 23.17) rotate(-15)"/>
        <rect class="cls-2" x="59.29" y="50.83" width="44.74" height="22.37" transform="translate(-13.27 23.25) rotate(-15)"/>
        <rect class="cls-4" x="59.64" y="50.13" width="44.74" height="22.37" transform="translate(-13.07 23.31) rotate(-15)"/>
        <rect class="cls-2" x="60.01" y="49.38" width="44.74" height="22.37" transform="translate(-12.87 23.39) rotate(-15)"/>
        <rect class="cls-4" x="60.34" y="48.71" width="44.74" height="22.37" transform="translate(-12.68 23.45) rotate(-15)"/>
        <rect class="cls-2" x="60.71" y="48.01" width="44.74" height="22.37" transform="translate(-12.49 23.52) rotate(-15)"/>
        <rect class="cls-4" x="60.98" y="47.42" width="44.74" height="22.37" transform="translate(-12.33 23.57) rotate(-15)"/>
        <rect class="cls-2" x="61.35" y="46.68" width="44.74" height="22.37" transform="translate(-12.12 23.64) rotate(-15)"/>
        <rect class="cls-4" x="61.68" y="46" width="44.74" height="22.37" transform="translate(-11.94 23.7) rotate(-15)"/>
        <rect class="cls-2" x="62.01" y="45.42" width="44.74" height="22.37" transform="translate(-11.77 23.77) rotate(-15)"/>
        <rect class="cls-4" x="62.36" y="44.71" width="44.74" height="22.37" transform="translate(-11.58 23.83) rotate(-15)"/>
        <rect class="cls-2" x="62.73" y="43.97" width="44.74" height="22.37" transform="translate(-11.38 23.91) rotate(-15)"/>
        <rect class="cls-4" x="63.06" y="43.29" width="44.74" height="22.37" transform="translate(-11.19 23.97) rotate(-15)"/>
        <rect class="cls-2" x="63.43" y="42.6" width="44.74" height="22.37" transform="translate(-11 24.04) rotate(-15)"/>
        <rect class="cls-4" x="63.7" y="42" width="44.74" height="22.37" transform="translate(-10.83 24.09) rotate(-15)"/>
        <rect class="cls-2" x="64.07" y="41.26" width="44.74" height="22.37" transform="translate(-10.63 24.16) rotate(-15)"/>
        <rect class="cls-4" x="64.4" y="40.59" width="44.74" height="22.37" transform="translate(-10.44 24.22) rotate(-15)"/>
        <rect class="cls-2" x="64.77" y="39.89" width="44.74" height="22.37" transform="translate(-10.25 24.29) rotate(-15)"/>
        <rect class="cls-4" x="65.07" y="39.13" width="44.74" height="22.37" transform="translate(-10.04 24.35) rotate(-15)"/>
        <polygon class="cls-1" points="89.35 38.22 82.67 63.17 68.73 66.91 67.01 60.5 71.71 42.95 89.35 38.22"/>
        <polygon class="cls-2" points="106.15 33.72 108.76 43.45 105.09 57.16 90.96 60.95 97.65 36 106.15 33.72"/>
        <g>
          <path class="cls-3" d="M68.17,49.07c.06-.02.11-.01.15.02s.08.08.1.15.02.13,0,.18c-.02.05-.07.08-.13.09l-1.17.31c-.08.02-.15.02-.2-.02s-.09-.09-.11-.17l-.6-2.22c-.02-.08-.01-.14.02-.2.03-.05.1-.09.19-.12s.17-.02.22,0c.06.03.09.08.11.16l.54,2.03.87-.23Z"/>
          <path class="cls-3" d="M68.43,48.07c-.06-.22-.08-.43-.06-.63.02-.19.07-.37.15-.52.08-.15.2-.28.34-.39.15-.11.32-.19.52-.24s.37-.07.55-.05.33.07.47.16c.14.09.27.21.37.36.11.15.19.33.24.54.06.22.08.43.06.62-.02.19-.07.37-.15.52-.08.15-.2.28-.34.39-.15.11-.32.19-.52.24s-.37.07-.55.05-.33-.07-.47-.16c-.14-.09-.27-.2-.37-.36-.11-.15-.19-.33-.24-.54ZM68.98,47.88c.04.16.1.29.17.4.07.11.15.19.24.26s.18.1.29.12c.1.02.2.01.31-.02s.19-.07.27-.14c.08-.06.14-.15.19-.24.04-.1.07-.21.08-.34,0-.13-.01-.27-.05-.43s-.1-.29-.17-.4c-.07-.11-.15-.2-.24-.26-.09-.06-.18-.1-.29-.12s-.2-.01-.31.02-.19.07-.27.14c-.08.06-.14.15-.19.24-.05.1-.07.21-.08.34s.01.27.05.43Z"/>
          <path class="cls-3" d="M71.27,46.29c-.06.02-.11.01-.15-.02-.04-.03-.08-.08-.1-.15s-.02-.13,0-.18c.02-.04.07-.08.12-.09l1.78-.48c.06-.02.11-.01.15.02.04.03.08.08.1.15s.02.13,0,.18c-.02.05-.07.08-.12.09l-.62.17.54,2.03c.02.08.01.14-.02.2-.03.05-.1.09-.19.12s-.17.02-.22,0c-.06-.03-.09-.08-.11-.16l-.54-2.03-.62.17Z"/>
          <path class="cls-3" d="M73.7,45.64c-.06.02-.11.01-.15-.02-.04-.03-.08-.08-.1-.15s-.02-.13,0-.18c.02-.04.07-.08.12-.09l1.78-.48c.06-.02.11-.01.15.02.04.03.08.08.1.15s.02.13,0,.18c-.02.05-.07.08-.12.09l-.62.17.54,2.03c.02.08.01.14-.02.2-.03.05-.1.09-.19.12s-.17.02-.22,0c-.06-.03-.09-.08-.11-.16l-.54-2.03-.62.17Z"/>
          <path class="cls-3" d="M77.23,46.66l.92-.25c.06-.02.11,0,.15.02.04.03.07.08.09.15s.02.13,0,.17c-.02.04-.06.07-.12.09l-1.22.33c-.08.02-.15.02-.2-.02s-.09-.09-.11-.17l-.59-2.2c-.02-.08-.02-.15.02-.2s.09-.09.17-.11l1.21-.32c.06-.02.11,0,.15.02.04.03.07.07.09.15s.02.13,0,.17c-.02.04-.06.07-.12.09l-.91.24.18.69.78-.21c.05-.01.1,0,.15.02.04.03.07.07.09.14s.02.12,0,.17c-.02.04-.06.07-.12.09l-.78.21.2.74Z"/>
          <path class="cls-3" d="M79.55,46.25c.02.08.01.14-.02.2-.03.05-.09.09-.19.12s-.17.02-.22,0c-.05-.03-.09-.08-.11-.16l-.6-2.22c-.02-.08-.02-.15.02-.2s.09-.09.17-.11l.58-.15c.18-.05.35-.07.49-.07.14,0,.27.03.37.07s.19.11.26.19c.07.08.11.18.14.29.02.09.03.18.03.27,0,.09-.02.17-.05.24s-.07.14-.13.21c-.05.06-.12.12-.19.17l.71.64s.06.05.07.08c.02.02.03.05.04.07.01.04.01.08,0,.11,0,.04-.02.07-.05.1-.02.03-.05.06-.08.08-.03.02-.07.04-.11.05s-.07.01-.1,0-.06-.01-.09-.03c0,0-.02-.01-.03-.02,0,0-.02-.01-.03-.02s-.02-.02-.03-.02c0,0-.02-.02-.03-.03l-.79-.77-.27.07.23.85ZM79.49,44.91c.09-.02.16-.05.22-.09.06-.04.11-.08.14-.13.03-.05.05-.1.06-.15,0-.06,0-.11-.01-.17s-.04-.11-.07-.15-.07-.07-.13-.1c-.05-.02-.11-.03-.19-.03s-.16.01-.25.04l-.26.07.21.79.28-.07Z"/>
          <path class="cls-3" d="M80.81,43.77s-.04-.03-.05-.05c-.02-.02-.03-.03-.04-.05-.01-.01-.02-.03-.03-.04,0-.01-.01-.03-.02-.05-.01-.04-.01-.08,0-.12,0-.04.03-.07.05-.11.02-.03.05-.06.08-.08.03-.02.07-.04.1-.05.04-.01.07-.01.1,0,.03,0,.05.01.08.03.02.01.04.03.06.05s.05.05.08.08l.62.64s.04.04.06.07c.02.02.04.04.05.06.02.02.03.04.05.06h0s0-.05.01-.08c0-.02,0-.05.01-.08,0-.03.01-.06.02-.09l.2-.85c.01-.05.02-.09.03-.11,0-.02.02-.05.03-.07.01-.02.03-.05.06-.06.02-.02.05-.03.08-.04.04,0,.07-.01.11,0,.04,0,.07.01.11.03.03.02.06.04.09.06.03.03.04.06.05.09,0,.03.01.07,0,.1,0,.03-.02.07-.03.12l-.4,1.41.22.82c.02.08.01.14-.02.2-.03.05-.1.09-.19.12s-.17.02-.22,0c-.06-.03-.09-.08-.11-.16l-.22-.82-1.02-.99Z"/>
        </g>
        <g class="cls-5">
          <path class="cls-2" d="M77.8,62.57s-.05.01-.09.01c-.32.01-.83-.35-1.4-1-.6-.69-1.16-1.59-1.59-2.55-2.36.26-4.47-.29-4.62-.81,0-.03-.01-.07-.01-.11.01-.67,1.53-2.07,3.55-2.97-.27-2.36.29-4.48.81-4.62.02,0,.04,0,.05-.01.02,0,.04,0,.05,0,.09,0,.17.02.27.07.71.3,1.9,1.69,2.71,3.49,2.36-.26,4.47.29,4.62.81,0,.02.01.06.01.09.02.64-1.52,2.08-3.55,2.99.27,2.36-.29,4.48-.81,4.62ZM74.52,50.77c-.28.08-.91,1.97-.61,4.43,0,.06-.02.11-.08.13-2.24.98-3.48,2.35-3.49,2.77,0,.02,0,.03,0,.04.08.28,1.97.91,4.43.61.06,0,.11.02.13.08.42.97.99,1.88,1.59,2.57.56.64,1,.92,1.2.91l.06.12-.03-.13c.28-.08.91-1.97.61-4.42,0-.01,0-.03,0-.04,0-.05.03-.09.08-.11,2.19-.95,3.5-2.34,3.49-2.78l.12-.06-.13.03c-.08-.28-1.97-.91-4.43-.61-.06.01-.12-.02-.14-.08-.86-1.97-2.04-3.2-2.61-3.44-.08-.03-.13-.04-.17-.04-.02,0-.03,0-.04,0Z"/>
          <path class="cls-2" d="M76.55,58.13c-.87.23-1.77-.28-2.01-1.15-.12-.42-.06-.87.15-1.25.22-.38.57-.66.99-.78.43-.11.87-.06,1.25.15.38.22.66.57.78.99h0c.24.87-.27,1.78-1.15,2.03h-.01ZM75.77,55.2h-.01c-.36.1-.65.33-.84.66s-.23.7-.13,1.05c.2.73.96,1.17,1.69.97h.01c.74-.21,1.17-.97.97-1.71-.1-.36-.33-.65-.65-.84-.32-.18-.69-.23-1.04-.13Z"/>
          <rect class="cls-2" x="76.57" y="54.58" width="1.18" height=".26" transform="translate(-8.8 94.17) rotate(-60)"/>
          <rect class="cls-2" x="74.5" y="58.24" width="1.19" height=".26" transform="translate(-13.01 94.22) rotate(-60)"/>
          <rect class="cls-2" x="74.16" y="54.92" width=".26" height="1.18" transform="translate(-10.93 92.09) rotate(-60)"/>
          <rect class="cls-2" x="77.83" y="56.98" width=".26" height="1.18" transform="translate(-10.88 96.31) rotate(-60)"/>
        </g>
      </g>
      <g>
        <rect class="cls-2" x="15.36" y="63.74" width="44.74" height="22.37" transform="translate(-18.11 12.32) rotate(-15)"/>
        <rect class="cls-4" x="15.7" y="63.04" width="44.74" height="22.37" transform="translate(-17.91 12.38) rotate(-15)"/>
        <rect class="cls-2" x="16.08" y="62.41" width="44.74" height="22.37" transform="translate(-17.74 12.46) rotate(-15)"/>
        <rect class="cls-4" x="16.42" y="61.71" width="44.74" height="22.37" transform="translate(-17.54 12.52) rotate(-15)"/>
        <rect class="cls-2" x="16.8" y="60.96" width="44.74" height="22.37" transform="translate(-17.34 12.6) rotate(-15)"/>
        <rect class="cls-4" x="17.12" y="60.29" width="44.74" height="22.37" transform="translate(-17.15 12.66) rotate(-15)"/>
        <rect class="cls-2" x="17.49" y="59.59" width="44.74" height="22.37" transform="translate(-16.96 12.73) rotate(-15)"/>
        <rect class="cls-4" x="17.76" y="59" width="44.74" height="22.37" transform="translate(-16.8 12.78) rotate(-15)"/>
        <rect class="cls-2" x="18.13" y="58.26" width="44.74" height="22.37" transform="translate(-16.59 12.85) rotate(-15)"/>
        <rect class="cls-4" x="18.46" y="57.58" width="44.74" height="22.37" transform="translate(-16.41 12.91) rotate(-15)"/>
        <rect class="cls-2" x="18.8" y="57" width="44.74" height="22.37" transform="translate(-16.24 12.98) rotate(-15)"/>
        <rect class="cls-4" x="19.15" y="56.29" width="44.74" height="22.37" transform="translate(-16.05 13.04) rotate(-15)"/>
        <rect class="cls-2" x="19.52" y="55.55" width="44.74" height="22.37" transform="translate(-15.84 13.12) rotate(-15)"/>
        <rect class="cls-4" x="19.85" y="54.87" width="44.74" height="22.37" transform="translate(-15.66 13.18) rotate(-15)"/>
        <rect class="cls-2" x="20.22" y="54.18" width="44.74" height="22.37" transform="translate(-15.47 13.25) rotate(-15)"/>
        <rect class="cls-4" x="20.48" y="53.58" width="44.74" height="22.37" transform="translate(-15.3 13.3) rotate(-15)"/>
        <rect class="cls-2" x="20.85" y="52.84" width="44.74" height="22.37" transform="translate(-15.1 13.37) rotate(-15)"/>
        <rect class="cls-4" x="21.18" y="52.17" width="44.74" height="22.37" transform="translate(-14.91 13.43) rotate(-15)"/>
        <rect class="cls-2" x="21.55" y="51.47" width="44.74" height="22.37" transform="translate(-14.72 13.5) rotate(-15)"/>
        <rect class="cls-4" x="21.86" y="50.71" width="44.74" height="22.37" transform="translate(-14.51 13.56) rotate(-15)"/>
        <polygon class="cls-1" points="46.14 49.8 39.45 74.75 25.51 78.49 23.8 72.08 28.5 54.53 46.14 49.8"/>
        <polygon class="cls-2" points="62.94 45.3 65.55 55.03 61.87 68.74 47.75 72.53 54.43 47.58 62.94 45.3"/>
        <g>
          <path class="cls-3" d="M24.96,60.65c.06-.02.11-.01.15.02s.08.08.1.15.02.13,0,.18c-.02.05-.07.08-.13.09l-1.17.31c-.08.02-.15.02-.2-.02s-.09-.09-.11-.17l-.6-2.22c-.02-.08-.01-.14.02-.2.03-.05.1-.09.19-.12s.17-.02.22,0c.06.03.09.08.11.16l.54,2.03.87-.23Z"/>
          <path class="cls-3" d="M25.21,59.65c-.06-.22-.08-.43-.06-.63.02-.19.07-.37.15-.52.08-.15.2-.28.34-.39.15-.11.32-.19.52-.24s.37-.07.55-.05.33.07.47.16c.14.09.27.21.37.36.11.15.19.33.24.54.06.22.08.43.06.62-.02.19-.07.37-.15.52-.08.15-.2.28-.34.39-.15.11-.32.19-.52.24s-.37.07-.55.05-.33-.07-.47-.16c-.14-.09-.27-.2-.37-.36-.11-.15-.19-.33-.24-.54ZM25.76,59.46c.04.16.1.29.17.4.07.11.15.19.24.26s.18.1.29.12c.1.02.2.01.31-.02s.19-.07.27-.14c.08-.06.14-.15.19-.24.04-.1.07-.21.08-.34,0-.13-.01-.27-.05-.43s-.1-.29-.17-.4c-.07-.11-.15-.2-.24-.26-.09-.06-.18-.1-.29-.12s-.2-.01-.31.02-.19.07-.27.14c-.08.06-.14.15-.19.24-.05.1-.07.21-.08.34s.01.27.05.43Z"/>
          <path class="cls-3" d="M28.05,57.87c-.06.02-.11.01-.15-.02-.04-.03-.08-.08-.1-.15s-.02-.13,0-.18c.02-.04.07-.08.12-.09l1.78-.48c.06-.02.11-.01.15.02.04.03.08.08.1.15s.02.13,0,.18c-.02.05-.07.08-.12.09l-.62.17.54,2.03c.02.08.01.14-.02.2-.03.05-.1.09-.19.12s-.17.02-.22,0c-.06-.03-.09-.08-.11-.16l-.54-2.03-.62.17Z"/>
          <path class="cls-3" d="M30.48,57.22c-.06.02-.11.01-.15-.02-.04-.03-.08-.08-.1-.15s-.02-.13,0-.18c.02-.04.07-.08.12-.09l1.78-.48c.06-.02.11-.01.15.02.04.03.08.08.1.15s.02.13,0,.18c-.02.05-.07.08-.12.09l-.62.17.54,2.03c.02.08.01.14-.02.2-.03.05-.1.09-.19.12s-.17.02-.22,0c-.06-.03-.09-.08-.11-.16l-.54-2.03-.62.17Z"/>
          <path class="cls-3" d="M34.01,58.24l.92-.25c.06-.02.11,0,.15.02.04.03.07.08.09.15s.02.13,0,.17c-.02.04-.06.07-.12.09l-1.22.33c-.08.02-.15.02-.2-.02s-.09-.09-.11-.17l-.59-2.2c-.02-.08-.02-.15.02-.2s.09-.09.17-.11l1.21-.32c.06-.02.11,0,.15.02.04.03.07.07.09.15s.02.13,0,.17c-.02.04-.06.07-.12.09l-.91.24.18.69.78-.21c.05-.01.1,0,.15.02.04.03.07.07.09.14s.02.12,0,.17c-.02.04-.06.07-.12.09l-.78.21.2.74Z"/>
          <path class="cls-3" d="M36.34,57.83c.02.08.01.14-.02.2-.03.05-.09.09-.19.12s-.17.02-.22,0c-.05-.03-.09-.08-.11-.16l-.6-2.22c-.02-.08-.02-.15.02-.2s.09-.09.17-.11l.58-.15c.18-.05.35-.07.49-.07.14,0,.27.03.37.07s.19.11.26.19c.07.08.11.18.14.29.02.09.03.18.03.27,0,.09-.02.17-.05.24s-.07.14-.13.21c-.05.06-.12.12-.19.17l.71.64s.06.05.07.08c.02.02.03.05.04.07.01.04.01.08,0,.11,0,.04-.02.07-.05.1-.02.03-.05.06-.08.08-.03.02-.07.04-.11.05s-.07.01-.1,0-.06-.01-.09-.03c0,0-.02-.01-.03-.02,0,0-.02-.01-.03-.02s-.02-.02-.03-.02c0,0-.02-.02-.03-.03l-.79-.77-.27.07.23.85ZM36.28,56.49c.09-.02.16-.05.22-.09.06-.04.11-.08.14-.13.03-.05.05-.1.06-.15,0-.06,0-.11-.01-.17s-.04-.11-.07-.15-.07-.07-.13-.1c-.05-.02-.11-.03-.19-.03s-.16.01-.25.04l-.26.07.21.79.28-.07Z"/>
          <path class="cls-3" d="M37.59,55.35s-.04-.03-.05-.05c-.02-.02-.03-.03-.04-.05-.01-.01-.02-.03-.03-.04,0-.01-.01-.03-.02-.05-.01-.04-.01-.08,0-.12,0-.04.03-.07.05-.11.02-.03.05-.06.08-.08.03-.02.07-.04.1-.05.04-.01.07-.01.1,0,.03,0,.05.01.08.03.02.01.04.03.06.05s.05.05.08.08l.62.64s.04.04.06.07c.02.02.04.04.05.06.02.02.03.04.05.06h0s0-.05.01-.08c0-.02,0-.05.01-.08,0-.03.01-.06.02-.09l.2-.85c.01-.05.02-.09.03-.11,0-.02.02-.05.03-.07.01-.02.03-.05.06-.06.02-.02.05-.03.08-.04.04,0,.07-.01.11,0,.04,0,.07.01.11.03.03.02.06.04.09.06.03.03.04.06.05.09,0,.03.01.07,0,.1,0,.03-.02.07-.03.12l-.4,1.41.22.82c.02.08.01.14-.02.2-.03.05-.1.09-.19.12s-.17.02-.22,0c-.06-.03-.09-.08-.11-.16l-.22-.82-1.02-.99Z"/>
        </g>
        <g class="cls-5">
          <path class="cls-2" d="M34.58,74.15s-.05.01-.09.01c-.32.01-.83-.35-1.4-1-.6-.69-1.16-1.59-1.59-2.55-2.36.26-4.47-.29-4.62-.81,0-.03-.01-.07-.01-.11.01-.67,1.53-2.07,3.55-2.97-.27-2.36.29-4.48.81-4.62.02,0,.04,0,.05-.01.02,0,.04,0,.05,0,.09,0,.17.02.27.07.71.3,1.9,1.69,2.71,3.49,2.36-.26,4.47.29,4.62.81,0,.02.01.06.01.09.02.64-1.52,2.08-3.55,2.99.27,2.36-.29,4.48-.81,4.62ZM31.3,62.35c-.28.08-.91,1.97-.61,4.43,0,.06-.02.11-.08.13-2.24.98-3.48,2.35-3.49,2.77,0,.02,0,.03,0,.04.08.28,1.97.91,4.43.61.06,0,.11.02.13.08.42.97.99,1.88,1.59,2.57.56.64,1,.92,1.2.91l.06.12-.03-.13c.28-.08.91-1.97.61-4.42,0-.01,0-.03,0-.04,0-.05.03-.09.08-.11,2.19-.95,3.5-2.34,3.49-2.78l.12-.06-.13.03c-.08-.28-1.97-.91-4.43-.61-.06.01-.12-.02-.14-.08-.86-1.97-2.04-3.2-2.61-3.44-.08-.03-.13-.04-.17-.04-.02,0-.03,0-.04,0Z"/>
          <path class="cls-2" d="M33.34,69.71c-.87.23-1.77-.28-2.01-1.15-.12-.42-.06-.87.15-1.25.22-.38.57-.66.99-.78.43-.11.87-.06,1.25.15.38.22.66.57.78.99h0c.24.87-.27,1.78-1.15,2.03h-.01ZM32.55,66.78h-.01c-.36.1-.65.33-.84.66s-.23.7-.13,1.05c.2.73.96,1.17,1.69.97h.01c.74-.21,1.17-.97.97-1.71-.1-.36-.33-.65-.65-.84-.32-.18-.69-.23-1.04-.13Z"/>
          <rect class="cls-2" x="33.35" y="66.16" width="1.18" height=".26" transform="translate(-40.43 62.54) rotate(-60)"/>
          <rect class="cls-2" x="31.29" y="69.82" width="1.19" height=".26" transform="translate(-44.64 62.58) rotate(-60)"/>
          <rect class="cls-2" x="30.95" y="66.5" width=".26" height="1.18" transform="translate(-42.56 60.45) rotate(-60)"/>
          <rect class="cls-2" x="34.61" y="68.56" width=".26" height="1.18" transform="translate(-42.52 64.67) rotate(-60)"/>
        </g>
      </g>
      <g>
        <rect class="cls-2" x="24.85" y="23.94" width="44.74" height="22.37" transform="translate(-7.48 13.42) rotate(-15)"/>
        <rect class="cls-4" x="25.19" y="23.24" width="44.74" height="22.37" transform="translate(-7.29 13.48) rotate(-15)"/>
        <rect class="cls-2" x="25.57" y="22.5" width="44.74" height="22.37" transform="translate(-7.08 13.55) rotate(-15)"/>
        <rect class="cls-4" x="25.89" y="21.82" width="44.74" height="22.37" transform="translate(-6.9 13.62) rotate(-15)"/>
        <rect class="cls-2" x="26.26" y="21.12" width="44.74" height="22.37" transform="translate(-6.71 13.69) rotate(-15)"/>
        <rect class="cls-4" x="26.53" y="20.53" width="44.74" height="22.37" transform="translate(-6.54 13.74) rotate(-15)"/>
        <rect class="cls-2" x="26.9" y="19.79" width="44.74" height="22.37" transform="translate(-6.34 13.81) rotate(-15)"/>
        <rect class="cls-4" x="27.23" y="19.11" width="44.74" height="22.37" transform="translate(-6.15 13.87) rotate(-15)"/>
        <rect class="cls-2" x="27.6" y="18.42" width="44.74" height="22.37" transform="translate(-5.96 13.94) rotate(-15)"/>
        <rect class="cls-4" x="27.9" y="17.65" width="44.74" height="22.37" transform="translate(-5.75 13.99) rotate(-15)"/>
        <polygon class="cls-1" points="52.19 16.75 45.5 41.7 31.56 45.43 29.85 39.03 34.55 21.47 52.19 16.75"/>
        <polygon class="cls-2" points="68.99 12.24 71.59 21.98 67.92 35.69 53.79 39.47 60.48 14.52 68.99 12.24"/>
        <g>
          <path class="cls-3" d="M31.01,27.6c.06-.02.11-.01.15.02s.08.08.1.15.02.13,0,.18c-.02.05-.07.08-.13.09l-1.17.31c-.08.02-.15.02-.2-.02s-.09-.09-.11-.17l-.6-2.22c-.02-.08-.01-.14.02-.2.03-.05.1-.09.19-.12s.17-.02.22,0c.06.03.09.08.11.16l.54,2.03.87-.23Z"/>
          <path class="cls-3" d="M31.26,26.6c-.06-.22-.08-.43-.06-.63.02-.19.07-.37.15-.52.08-.15.2-.28.34-.39.15-.11.32-.19.52-.24s.37-.07.55-.05.33.07.47.16c.14.09.27.21.37.36.11.15.19.33.24.54.06.22.08.43.06.62-.02.19-.07.37-.15.52-.08.15-.2.28-.34.39-.15.11-.32.19-.52.24s-.37.07-.55.05-.33-.07-.47-.16c-.14-.09-.27-.2-.37-.36-.11-.15-.19-.33-.24-.54ZM31.81,26.4c.04.16.1.29.17.4.07.11.15.19.24.26s.18.1.29.12c.1.02.2.01.31-.02s.19-.07.27-.14c.08-.06.14-.15.19-.24.04-.1.07-.21.08-.34,0-.13-.01-.27-.05-.43s-.1-.29-.17-.4c-.07-.11-.15-.2-.24-.26-.09-.06-.18-.1-.29-.12s-.2-.01-.31.02-.19.07-.27.14c-.08.06-.14.15-.19.24-.05.1-.07.21-.08.34s.01.27.05.43Z"/>
          <path class="cls-3" d="M34.1,24.82c-.06.02-.11.01-.15-.02-.04-.03-.08-.08-.1-.15s-.02-.13,0-.18c.02-.04.07-.08.12-.09l1.78-.48c.06-.02.11-.01.15.02.04.03.08.08.1.15s.02.13,0,.18c-.02.05-.07.08-.12.09l-.62.17.54,2.03c.02.08.01.14-.02.2-.03.05-.1.09-.19.12s-.17.02-.22,0c-.06-.03-.09-.08-.11-.16l-.54-2.03-.62.17Z"/>
          <path class="cls-3" d="M36.53,24.17c-.06.02-.11.01-.15-.02-.04-.03-.08-.08-.1-.15s-.02-.13,0-.18c.02-.04.07-.08.12-.09l1.78-.48c.06-.02.11-.01.15.02.04.03.08.08.1.15s.02.13,0,.18c-.02.05-.07.08-.12.09l-.62.17.54,2.03c.02.08.01.14-.02.2-.03.05-.1.09-.19.12s-.17.02-.22,0c-.06-.03-.09-.08-.11-.16l-.54-2.03-.62.17Z"/>
          <path class="cls-3" d="M40.06,25.19l.92-.25c.06-.02.11,0,.15.02.04.03.07.08.09.15s.02.13,0,.17c-.02.04-.06.07-.12.09l-1.22.33c-.08.02-.15.02-.2-.02s-.09-.09-.11-.17l-.59-2.2c-.02-.08-.02-.15.02-.2s.09-.09.17-.11l1.21-.32c.06-.02.11,0,.15.02.04.03.07.07.09.15s.02.13,0,.17c-.02.04-.06.07-.12.09l-.91.24.18.69.78-.21c.05-.01.1,0,.15.02.04.03.07.07.09.14s.02.12,0,.17c-.02.04-.06.07-.12.09l-.78.21.2.74Z"/>
          <path class="cls-3" d="M42.39,24.78c.02.08.01.14-.02.2-.03.05-.09.09-.19.12s-.17.02-.22,0c-.05-.03-.09-.08-.11-.16l-.6-2.22c-.02-.08-.02-.15.02-.2s.09-.09.17-.11l.58-.15c.18-.05.35-.07.49-.07.14,0,.27.03.37.07s.19.11.26.19c.07.08.11.18.14.29.02.09.03.18.03.27,0,.09-.02.17-.05.24s-.07.14-.13.21c-.05.06-.12.12-.19.17l.71.64s.06.05.07.08c.02.02.03.05.04.07.01.04.01.08,0,.11,0,.04-.02.07-.05.1-.02.03-.05.06-.08.08-.03.02-.07.04-.11.05s-.07.01-.1,0-.06-.01-.09-.03c0,0-.02-.01-.03-.02,0,0-.02-.01-.03-.02s-.02-.02-.03-.02c0,0-.02-.02-.03-.03l-.79-.77-.27.07.23.85ZM42.32,23.43c.09-.02.16-.05.22-.09.06-.04.11-.08.14-.13.03-.05.05-.1.06-.15,0-.06,0-.11-.01-.17s-.04-.11-.07-.15-.07-.07-.13-.1c-.05-.02-.11-.03-.19-.03s-.16.01-.25.04l-.26.07.21.79.28-.07Z"/>
          <path class="cls-3" d="M43.64,22.29s-.04-.03-.05-.05c-.02-.02-.03-.03-.04-.05-.01-.01-.02-.03-.03-.04,0-.01-.01-.03-.02-.05-.01-.04-.01-.08,0-.12,0-.04.03-.07.05-.11.02-.03.05-.06.08-.08.03-.02.07-.04.1-.05.04-.01.07-.01.1,0,.03,0,.05.01.08.03.02.01.04.03.06.05s.05.05.08.08l.62.64s.04.04.06.07c.02.02.04.04.05.06.02.02.03.04.05.06h0s0-.05.01-.08c0-.02,0-.05.01-.08,0-.03.01-.06.02-.09l.2-.85c.01-.05.02-.09.03-.11,0-.02.02-.05.03-.07.01-.02.03-.05.06-.06.02-.02.05-.03.08-.04.04,0,.07-.01.11,0,.04,0,.07.01.11.03.03.02.06.04.09.06.03.03.04.06.05.09,0,.03.01.07,0,.1,0,.03-.02.07-.03.12l-.4,1.41.22.82c.02.08.01.14-.02.2-.03.05-.1.09-.19.12s-.17.02-.22,0c-.06-.03-.09-.08-.11-.16l-.22-.82-1.02-.99Z"/>
        </g>
        <g class="cls-5">
          <path class="cls-2" d="M40.63,41.09s-.05.01-.09.01c-.32.01-.83-.35-1.4-1-.6-.69-1.16-1.59-1.59-2.55-2.36.26-4.47-.29-4.62-.81,0-.03-.01-.07-.01-.11.01-.67,1.53-2.07,3.55-2.97-.27-2.36.29-4.48.81-4.62.02,0,.04,0,.05-.01.02,0,.04,0,.05,0,.09,0,.17.02.27.07.71.3,1.9,1.69,2.71,3.49,2.36-.26,4.47.29,4.62.81,0,.02.01.06.01.09.02.64-1.52,2.08-3.55,2.99.27,2.36-.29,4.48-.81,4.62ZM37.35,29.29c-.28.08-.91,1.97-.61,4.43,0,.06-.02.11-.08.13-2.24.98-3.48,2.35-3.49,2.77,0,.02,0,.03,0,.04.08.28,1.97.91,4.43.61.06,0,.11.02.13.08.42.97.99,1.88,1.59,2.57.56.64,1,.92,1.2.91l.06.12-.03-.13c.28-.08.91-1.97.61-4.42,0-.01,0-.03,0-.04,0-.05.03-.09.08-.11,2.19-.95,3.5-2.34,3.49-2.78l.12-.06-.13.03c-.08-.28-1.97-.91-4.43-.61-.06.01-.12-.02-.14-.08-.86-1.97-2.04-3.2-2.61-3.44-.08-.03-.13-.04-.17-.04-.02,0-.03,0-.04,0Z"/>
          <path class="cls-2" d="M39.38,36.66c-.87.23-1.77-.28-2.01-1.15-.12-.42-.06-.87.15-1.25.22-.38.57-.66.99-.78.43-.11.87-.06,1.25.15.38.22.66.57.78.99h0c.24.87-.27,1.78-1.15,2.03h-.01ZM38.6,33.73h-.01c-.36.1-.65.33-.84.66s-.23.7-.13,1.05c.2.73.96,1.17,1.69.97h.01c.74-.21,1.17-.97.97-1.71-.1-.36-.33-.65-.65-.84-.32-.18-.69-.23-1.04-.13Z"/>
          <rect class="cls-2" x="39.4" y="33.1" width="1.18" height=".26" transform="translate(-8.79 51.25) rotate(-60)"/>
          <rect class="cls-2" x="37.33" y="36.77" width="1.19" height=".26" transform="translate(-12.99 51.3) rotate(-60)"/>
          <rect class="cls-2" x="36.99" y="33.45" width=".26" height="1.18" transform="translate(-10.92 49.16) rotate(-60)"/>
          <rect class="cls-2" x="40.66" y="35.51" width=".26" height="1.18" transform="translate(-10.87 53.38) rotate(-60)"/>
        </g>
      </g>
      <g>
        <rect class="cls-2" x="46.03" y="41.43" width="44.74" height="22.37" transform="translate(-11.29 19.5) rotate(-15)"/>
        <rect class="cls-4" x="46.38" y="40.72" width="44.74" height="22.37" transform="translate(-11.09 19.56) rotate(-15)"/>
        <rect class="cls-2" x="46.75" y="39.98" width="44.74" height="22.37" transform="translate(-10.89 19.63) rotate(-15)"/>
        <rect class="cls-4" x="47.08" y="39.31" width="44.74" height="22.37" transform="translate(-10.7 19.7) rotate(-15)"/>
        <rect class="cls-2" x="47.45" y="38.61" width="44.74" height="22.37" transform="translate(-10.51 19.77) rotate(-15)"/>
        <rect class="cls-4" x="47.72" y="38.02" width="44.74" height="22.37" transform="translate(-10.35 19.82) rotate(-15)"/>
        <rect class="cls-2" x="48.09" y="37.28" width="44.74" height="22.37" transform="translate(-10.14 19.89) rotate(-15)"/>
        <rect class="cls-4" x="48.42" y="36.6" width="44.74" height="22.37" transform="translate(-9.96 19.95) rotate(-15)"/>
        <rect class="cls-2" x="48.79" y="35.91" width="44.74" height="22.37" transform="translate(-9.76 20.02) rotate(-15)"/>
        <rect class="cls-4" x="49.09" y="35.14" width="44.74" height="22.37" transform="translate(-9.56 20.07) rotate(-15)"/>
        <polygon class="cls-1" points="73.37 34.23 66.69 59.18 52.75 62.92 51.03 56.51 55.73 38.96 73.37 34.23"/>
        <polygon class="cls-2" points="90.17 29.73 92.78 39.46 89.11 53.18 74.98 56.96 81.67 32.01 90.17 29.73"/>
        <g>
          <path class="cls-3" d="M52.19,45.09c.06-.02.11-.01.15.02s.08.08.1.15.02.13,0,.18c-.02.05-.07.08-.13.09l-1.17.31c-.08.02-.15.02-.2-.02s-.09-.09-.11-.17l-.6-2.22c-.02-.08-.01-.14.02-.2.03-.05.1-.09.19-.12s.17-.02.22,0c.06.03.09.08.11.16l.54,2.03.87-.23Z"/>
          <path class="cls-3" d="M52.45,44.08c-.06-.22-.08-.43-.06-.63.02-.19.07-.37.15-.52.08-.15.2-.28.34-.39.15-.11.32-.19.52-.24s.37-.07.55-.05.33.07.47.16c.14.09.27.21.37.36.11.15.19.33.24.54.06.22.08.43.06.62-.02.19-.07.37-.15.52-.08.15-.2.28-.34.39-.15.11-.32.19-.52.24s-.37.07-.55.05-.33-.07-.47-.16c-.14-.09-.27-.2-.37-.36-.11-.15-.19-.33-.24-.54ZM53,43.89c.04.16.1.29.17.4.07.11.15.19.24.26s.18.1.29.12c.1.02.2.01.31-.02s.19-.07.27-.14c.08-.06.14-.15.19-.24.04-.1.07-.21.08-.34,0-.13-.01-.27-.05-.43s-.1-.29-.17-.4c-.07-.11-.15-.2-.24-.26-.09-.06-.18-.1-.29-.12s-.2-.01-.31.02-.19.07-.27.14c-.08.06-.14.15-.19.24-.05.1-.07.21-.08.34s.01.27.05.43Z"/>
          <path class="cls-3" d="M55.29,42.31c-.06.02-.11.01-.15-.02-.04-.03-.08-.08-.1-.15s-.02-.13,0-.18c.02-.04.07-.08.12-.09l1.78-.48c.06-.02.11-.01.15.02.04.03.08.08.1.15s.02.13,0,.18c-.02.05-.07.08-.12.09l-.62.17.54,2.03c.02.08.01.14-.02.2-.03.05-.1.09-.19.12s-.17.02-.22,0c-.06-.03-.09-.08-.11-.16l-.54-2.03-.62.17Z"/>
          <path class="cls-3" d="M57.71,41.66c-.06.02-.11.01-.15-.02-.04-.03-.08-.08-.1-.15s-.02-.13,0-.18c.02-.04.07-.08.12-.09l1.78-.48c.06-.02.11-.01.15.02.04.03.08.08.1.15s.02.13,0,.18c-.02.05-.07.08-.12.09l-.62.17.54,2.03c.02.08.01.14-.02.2-.03.05-.1.09-.19.12s-.17.02-.22,0c-.06-.03-.09-.08-.11-.16l-.54-2.03-.62.17Z"/>
          <path class="cls-3" d="M61.24,42.68l.92-.25c.06-.02.11,0,.15.02.04.03.07.08.09.15s.02.13,0,.17c-.02.04-.06.07-.12.09l-1.22.33c-.08.02-.15.02-.2-.02s-.09-.09-.11-.17l-.59-2.2c-.02-.08-.02-.15.02-.2s.09-.09.17-.11l1.21-.32c.06-.02.11,0,.15.02.04.03.07.07.09.15s.02.13,0,.17c-.02.04-.06.07-.12.09l-.91.24.18.69.78-.21c.05-.01.1,0,.15.02.04.03.07.07.09.14s.02.12,0,.17c-.02.04-.06.07-.12.09l-.78.21.2.74Z"/>
          <path class="cls-3" d="M63.57,42.26c.02.08.01.14-.02.2-.03.05-.09.09-.19.12s-.17.02-.22,0c-.05-.03-.09-.08-.11-.16l-.6-2.22c-.02-.08-.02-.15.02-.2s.09-.09.17-.11l.58-.15c.18-.05.35-.07.49-.07.14,0,.27.03.37.07s.19.11.26.19c.07.08.11.18.14.29.02.09.03.18.03.27,0,.09-.02.17-.05.24s-.07.14-.13.21c-.05.06-.12.12-.19.17l.71.64s.06.05.07.08c.02.02.03.05.04.07.01.04.01.08,0,.11,0,.04-.02.07-.05.1-.02.03-.05.06-.08.08-.03.02-.07.04-.11.05s-.07.01-.1,0-.06-.01-.09-.03c0,0-.02-.01-.03-.02,0,0-.02-.01-.03-.02s-.02-.02-.03-.02c0,0-.02-.02-.03-.03l-.79-.77-.27.07.23.85ZM63.51,40.92c.09-.02.16-.05.22-.09.06-.04.11-.08.14-.13.03-.05.05-.1.06-.15,0-.06,0-.11-.01-.17s-.04-.11-.07-.15-.07-.07-.13-.1c-.05-.02-.11-.03-.19-.03s-.16.01-.25.04l-.26.07.21.79.28-.07Z"/>
          <path class="cls-3" d="M64.83,39.78s-.04-.03-.05-.05c-.02-.02-.03-.03-.04-.05-.01-.01-.02-.03-.03-.04,0-.01-.01-.03-.02-.05-.01-.04-.01-.08,0-.12,0-.04.03-.07.05-.11.02-.03.05-.06.08-.08.03-.02.07-.04.1-.05.04-.01.07-.01.1,0,.03,0,.05.01.08.03.02.01.04.03.06.05s.05.05.08.08l.62.64s.04.04.06.07c.02.02.04.04.05.06.02.02.03.04.05.06h0s0-.05.01-.08c0-.02,0-.05.01-.08,0-.03.01-.06.02-.09l.2-.85c.01-.05.02-.09.03-.11,0-.02.02-.05.03-.07.01-.02.03-.05.06-.06.02-.02.05-.03.08-.04.04,0,.07-.01.11,0,.04,0,.07.01.11.03.03.02.06.04.09.06.03.03.04.06.05.09,0,.03.01.07,0,.1,0,.03-.02.07-.03.12l-.4,1.41.22.82c.02.08.01.14-.02.2-.03.05-.1.09-.19.12s-.17.02-.22,0c-.06-.03-.09-.08-.11-.16l-.22-.82-1.02-.99Z"/>
        </g>
        <g class="cls-5">
          <path class="cls-2" d="M61.82,58.58s-.05.01-.09.01c-.32.01-.83-.35-1.4-1-.6-.69-1.16-1.59-1.59-2.55-2.36.26-4.47-.29-4.62-.81,0-.03-.01-.07-.01-.11.01-.67,1.53-2.07,3.55-2.97-.27-2.36.29-4.48.81-4.62.02,0,.04,0,.05-.01.02,0,.04,0,.05,0,.09,0,.17.02.27.07.71.3,1.9,1.69,2.71,3.49,2.36-.26,4.47.29,4.62.81,0,.02.01.06.01.09.02.64-1.52,2.08-3.55,2.99.27,2.36-.29,4.48-.81,4.62ZM58.54,46.78c-.28.08-.91,1.97-.61,4.43,0,.06-.02.11-.08.13-2.24.98-3.48,2.35-3.49,2.77,0,.02,0,.03,0,.04.08.28,1.97.91,4.43.61.06,0,.11.02.13.08.42.97.99,1.88,1.59,2.57.56.64,1,.92,1.2.91l.06.12-.03-.13c.28-.08.91-1.97.61-4.42,0-.01,0-.03,0-.04,0-.05.03-.09.08-.11,2.19-.95,3.5-2.34,3.49-2.78l.12-.06-.13.03c-.08-.28-1.97-.91-4.43-.61-.06.01-.12-.02-.14-.08-.86-1.97-2.04-3.2-2.61-3.44-.08-.03-.13-.04-.17-.04-.02,0-.03,0-.04,0Z"/>
          <path class="cls-2" d="M60.57,54.15c-.87.23-1.77-.28-2.01-1.15-.12-.42-.06-.87.15-1.25.22-.38.57-.66.99-.78.43-.11.87-.06,1.25.15.38.22.66.57.78.99h0c.24.87-.27,1.78-1.15,2.03h-.01ZM59.79,51.22h-.01c-.36.1-.65.33-.84.66s-.23.7-.13,1.05c.2.73.96,1.17,1.69.97h.01c.74-.21,1.17-.97.97-1.71-.1-.36-.33-.65-.65-.84-.32-.18-.69-.23-1.04-.13Z"/>
          <rect class="cls-2" x="60.59" y="50.59" width="1.18" height=".26" transform="translate(-13.34 78.34) rotate(-60)"/>
          <rect class="cls-2" x="58.52" y="54.26" width="1.19" height=".26" transform="translate(-17.54 78.39) rotate(-60)"/>
          <rect class="cls-2" x="58.18" y="50.93" width=".26" height="1.18" transform="translate(-15.47 76.25) rotate(-60)"/>
          <rect class="cls-2" x="61.85" y="53" width=".26" height="1.18" transform="translate(-15.42 80.47) rotate(-60)"/>
        </g>
      </g>
    </g>
  </g>
  <g>
    <path class="cls-3" d="M113.24,85.63s-.01.08-.01.12c0,.05.01.09.01.13s-.01.08-.01.12c0,.05.01.09.01.13s-.01.08-.01.12c0,.05.01.09.01.13s-.01.08-.01.12c0,.05.01.09.01.13s-.01.08-.01.12c0,.05.01.09.01.13s-.01.08-.01.12c0,.05.01.09.01.13s-.01.08-.01.12c0,.05.01.09.01.13s-.01.08-.01.12c0,.05.01.09.01.13s-.01.08-.01.12c0,.05.01.09.01.13,0,2.84-.35,5.4-1.04,7.61-.72,2.33-1.78,4.34-3.13,5.95-1.42,1.69-3.14,2.98-5.12,3.83-1.9.81-3.98,1.22-6.17,1.22s-4.17-.38-6-1.13c-1.95-.8-3.63-2.03-5.01-3.67-.91-1.07-1.65-2.34-2.26-3.75-.61,1.31-1.33,2.49-2.18,3.5-1.42,1.69-3.14,2.98-5.12,3.83-1.9.81-3.97,1.22-6.17,1.22s-4.17-.38-6-1.13c-1.94-.8-3.63-2.03-5.01-3.67-.46-.54-.86-1.15-1.25-1.78h-.51c-.02,2.35-1.06,3.82-1.94,4.63-1.22,1.13-2.82,1.69-4.78,1.69s-3.58-.57-4.79-1.7c-.86-.82-1.89-2.28-1.92-4.62h-.24c-.08.87-.32,1.7-.73,2.48-.42.78-.96,1.46-1.61,2.04-.65.58-1.37,1.03-2.15,1.35-.84.34-1.7.51-2.55.51-.76,0-1.49-.13-2.18-.39-.6-.23-1.17-.56-1.67-.97-.24-.19-.46-.4-.66-.63-.14-.14-.31-.32-.51-.55-.14-.17-.31-.37-.5-.62l-1.27-1.54-.98,1.33c-.18.25-.33.45-.46.61l-.22.28c-.12.16-.22.28-.29.37-.11.13-.22.25-.33.36-.57.56-1.22,1-1.95,1.3-1.46.61-3.21.6-4.79-.05-.75-.3-1.43-.72-2.04-1.26-.63-.55-1.15-1.2-1.55-1.94-.49-.91-.74-1.9-.74-2.95,0-.03.01-.07.01-.1,0-.05-.01-.1-.01-.15,0-.03.01-.07.01-.1,0-.05-.01-.1-.01-.15,0-.03.01-.07.01-.1,0-.05-.01-.1-.01-.15,0-.03.01-.07.01-.1,0-.05-.01-.1-.01-.15,0-.03.01-.07.01-.1,0-.05-.01-.1-.01-.15,0-.03.01-.07.01-.1,0-.05-.01-.1-.01-.15,0-.03.01-.07.01-.1,0-.05-.01-.1-.01-.15,0-.03.01-.07.01-.1,0-.05-.01-.1-.01-.15,0-.03.01-.07.01-.1,0-.05-.01-.1-.01-.15,0-.03.01-.07.01-.1,0-.05-.01-.1-.01-.15,0-.68.12-1.35.35-1.97.17-.48.4-.92.67-1.34.23-.34.47-.66.74-.97.14-.16.28-.32.42-.49l1.56-1.79-1-1.15c-.21-.24-.4-.46-.58-.66-.25-.3-.48-.59-.68-.87-.31-.44-.56-.91-.75-1.4-.26-.65-.39-1.34-.39-2.05,0-.06.01-.11.01-.16,0-.03-.01-.06-.01-.09,0-.06.01-.11.01-.16,0-.03-.01-.06-.01-.09,0-.06.01-.11.01-.16,0-.03-.01-.06-.01-.09,0-.06.01-.11.01-.16,0-.03-.01-.06-.01-.09,0-.06.01-.11.01-.16,0-.03-.01-.06-.01-.09,0-.06.01-.11.01-.16,0-.03-.01-.06-.01-.09,0-.06.01-.11.01-.16,0-.03-.01-.06-.01-.09,0-.06.01-.11.01-.16,0-.03-.01-.06-.01-.09,0-.06.01-.11.01-.16,0-.03-.01-.06-.01-.09,0-.06.01-.11.01-.16,0-.03-.01-.06-.01-.09,0-1.09.26-2.13.77-3.07.42-.79.96-1.47,1.61-2.05.64-.57,1.36-1.02,2.15-1.34,1.55-.63,3.21-.67,4.64-.15.65.23,1.24.57,1.75,1.01.08.07.17.13.25.21.13.11.31.28.51.5.13.14.28.31.46.53l1.35,1.66,1.04-1.42c.11-.14.21-.28.3-.39.2-.25.37-.44.51-.58l.13.12s.05-.04.08-.07l-.14-.13c.59-.59,1.22-1.01,1.91-1.31.04-.02.07-.03.11-.05,1.07-.44,2.31-.55,3.53-.31.29-.6.68-1.16,1.17-1.65.49-.49,1.15-.99,2.14-1.62.79-.51,1.79-1.1,2.98-1.75.65-.35,1.21-.65,1.69-.9.59-.31,1.12-.56,1.61-.75.54-.22,1.07-.39,1.56-.51.62-.14,1.25-.22,1.86-.22,2.36,0,3.86,1,4.7,1.84.85.85,1.85,2.35,1.85,4.71v.87h.24c.5-.93,1.08-1.79,1.72-2.56,1.42-1.69,3.14-2.98,5.11-3.83,1.9-.82,3.98-1.23,6.19-1.23s4.17.38,5.99,1.14c1.94.8,3.62,2.03,5,3.67.9,1.07,1.65,2.34,2.26,3.75.61-1.3,1.33-2.48,2.19-3.5,1.42-1.69,3.14-2.98,5.11-3.83,1.9-.82,3.98-1.23,6.19-1.23s4.16.38,5.99,1.14c1.94.8,3.62,2.03,5,3.67,1.31,1.55,2.32,3.48,3,5.74.64,2.11.97,4.57.97,7.32,0,.04-.01.08-.01.12,0,.05.01.09.01.13Z"/>
    <g>
      <path class="cls-4" d="M109.23,85.5s0-.08,0-.12c0-2.37-.26-4.42-.79-6.16s-1.27-3.18-2.24-4.33c-.96-1.14-2.12-1.99-3.46-2.55-1.34-.55-2.83-.83-4.47-.83s-3.21.3-4.61.9c-1.4.6-2.61,1.51-3.63,2.73-1.02,1.22-1.82,2.74-2.39,4.57-.57,1.83-.85,3.96-.85,6.41,0,.04,0,.08,0,.13,0,.04,0,.08,0,.12s0,.08,0,.13c0,.04,0,.08,0,.12s0,.08,0,.13c0,.04,0,.08,0,.12s0,.08,0,.13c0,.04,0,.08,0,.12s0,.08,0,.13c0,.04,0,.08,0,.12s0,.08,0,.13c0,.04,0,.08,0,.12s0,.08,0,.13c0,.04,0,.08,0,.12s0,.08,0,.13c0,.04,0,.08,0,.12s0,.08,0,.13c0,.04,0,.08,0,.12s0,.08,0,.13c0,.04,0,.08,0,.12,0,2.37.26,4.42.79,6.16.53,1.74,1.27,3.18,2.24,4.33.96,1.14,2.12,1.99,3.47,2.55,1.35.56,2.84.83,4.48.83s3.19-.3,4.6-.9c1.41-.6,2.62-1.51,3.63-2.72s1.81-2.73,2.38-4.57c.57-1.83.85-3.97.85-6.42,0-.04,0-.08,0-.13,0-.04,0-.08,0-.12s0-.08,0-.13c0-.04,0-.08,0-.12s0-.08,0-.13c0-.04,0-.08,0-.12s0-.08,0-.13c0-.04,0-.08,0-.12s0-.08,0-.13c0-.04,0-.08,0-.12s0-.08,0-.13c0-.04,0-.08,0-.12s0-.08,0-.13c0-.04,0-.08,0-.12s0-.08,0-.13c0-.04,0-.08,0-.12s0-.08,0-.13c0-.04,0-.08,0-.12s0-.08,0-.13ZM102.05,93.55c-.52.79-1.13,1.36-1.82,1.71-.69.35-1.42.52-2.18.52s-1.49-.18-2.19-.53c-.7-.35-1.31-.93-1.84-1.73-.53-.8-.95-1.83-1.26-3.11-.24-.98-.39-2.13-.44-3.45.06-1.29.2-2.43.43-3.4.31-1.27.72-2.3,1.23-3.09.51-.79,1.12-1.36,1.81-1.71.69-.35,1.42-.52,2.18-.52s1.51.18,2.21.53c.7.35,1.31.93,1.84,1.73.53.8.95,1.83,1.26,3.11.24.98.39,2.13.44,3.44-.06,1.3-.2,2.43-.43,3.4-.31,1.27-.72,2.3-1.24,3.09Z"/>
      <path class="cls-4" d="M40.52,96.22c-.07-.19-.17-.38-.3-.56-.13-.19-.28-.38-.45-.56-.17-.19-.36-.39-.54-.62l-3.67-4.19,3.51-4c.16-.19.32-.36.47-.53.15-.17.28-.33.39-.5.11-.17.19-.34.26-.52s.1-.38.1-.59c0-.05-.01-.1-.02-.15,0-.04.02-.07.02-.1,0-.05-.01-.1-.02-.15,0-.04.02-.07.02-.1,0-.05-.01-.1-.02-.15,0-.04.02-.07.02-.1,0-.05-.01-.1-.02-.15,0-.04.02-.07.02-.1,0-.05-.01-.1-.02-.15,0-.04.02-.07.02-.1,0-.05-.01-.1-.02-.15,0-.04.02-.07.02-.1,0-.05-.01-.1-.02-.15,0-.04.02-.07.02-.1,0-.05-.01-.1-.02-.15,0-.04.02-.07.02-.1,0-.05-.01-.1-.02-.15,0-.04.02-.07.02-.1,0-.05-.01-.1-.02-.15,0-.04.02-.07.02-.1,0-.38-.09-.72-.26-1.04-.17-.32-.4-.6-.67-.84-.27-.24-.58-.43-.91-.56-.33-.13-.66-.2-.98-.2-.28,0-.54.05-.77.15-.23.1-.45.24-.63.43-.04.04-.08.08-.13.13-.05.05-.1.11-.17.2s-.15.19-.24.32c-.09.13-.21.29-.36.49l-3.72,5.05-4.21-5.11c-.17-.21-.32-.39-.43-.53-.11-.14-.21-.25-.29-.34s-.15-.15-.2-.2-.11-.09-.16-.13c-.16-.15-.35-.26-.57-.34s-.46-.12-.73-.12c-.33,0-.68.07-1.04.22-.36.15-.69.35-.99.62-.3.27-.55.58-.74.94-.19.36-.29.75-.29,1.18,0,.03.02.06.02.1,0,.05-.02.1-.02.15,0,.03.02.06.02.1,0,.05-.02.1-.02.15,0,.03.02.06.02.1,0,.05-.02.1-.02.15,0,.03.02.06.02.1,0,.05-.02.1-.02.15,0,.03.02.06.02.1,0,.05-.02.1-.02.15,0,.03.02.06.02.1,0,.05-.02.1-.02.15,0,.03.02.06.02.1,0,.05-.02.1-.02.15,0,.03.02.06.02.1,0,.05-.02.1-.02.15,0,.03.02.06.02.1,0,.05-.02.1-.02.15,0,.03.02.06.02.1,0,.05-.02.1-.02.15,0,.21.04.42.11.6.07.19.17.37.3.55s.27.37.44.56c.17.19.35.4.55.63l3.3,3.77-3.82,4.41c-.16.19-.31.37-.46.53-.15.17-.28.34-.39.51-.11.17-.2.35-.27.53-.07.18-.1.38-.1.59,0,.05.01.1.02.15,0,.04-.02.07-.02.1,0,.05.01.1.02.15,0,.04-.02.07-.02.1,0,.05.01.1.02.15,0,.04-.02.07-.02.1,0,.05.01.1.02.15,0,.04-.02.07-.02.1,0,.05.01.1.02.15,0,.04-.02.07-.02.1,0,.05.01.1.02.15,0,.04-.02.07-.02.1,0,.05.01.1.02.15,0,.04-.02.07-.02.1,0,.05.01.1.02.15,0,.04-.02.07-.02.1,0,.05.01.1.02.15,0,.04-.02.07-.02.1,0,.05.01.1.02.15,0,.04-.02.07-.02.1,0,.38.09.72.26,1.04s.4.6.67.84c.27.24.58.43.9.56.33.13.65.2.97.2.28,0,.54-.05.78-.15.24-.1.46-.24.64-.43.04-.04.08-.08.12-.13s.09-.11.16-.2c.07-.09.15-.19.25-.32.1-.13.22-.29.37-.49l4.02-5.5,4.57,5.57c.17.21.32.39.43.52.11.13.21.24.29.32.08.08.14.15.19.2s.1.1.15.14c.17.15.37.26.6.35.23.09.47.13.74.13.33,0,.68-.07,1.04-.22.36-.15.69-.35.99-.62.3-.27.55-.58.74-.94.19-.36.29-.76.29-1.19,0-.03-.02-.06-.02-.1,0-.05.02-.1.02-.15,0-.03-.02-.06-.02-.1,0-.05.02-.1.02-.15,0-.03-.02-.06-.02-.1,0-.05.02-.1.02-.15,0-.03-.02-.06-.02-.1,0-.05.02-.1.02-.15,0-.03-.02-.06-.02-.1,0-.05.02-.1.02-.15,0-.03-.02-.06-.02-.1,0-.05.02-.1.02-.15,0-.03-.02-.06-.02-.1,0-.05.02-.1.02-.15,0-.03-.02-.06-.02-.1,0-.05.02-.1.02-.15,0-.03-.02-.06-.02-.1,0-.05.02-.1.02-.15,0-.03-.02-.06-.02-.1,0-.05.02-.1.02-.15,0-.21-.04-.42-.11-.6Z"/>
      <path class="cls-4" d="M51.73,71.71c-.31,0-.62.04-.92.11-.31.07-.65.18-1.01.33-.37.15-.78.34-1.25.58-.46.24-1,.53-1.62.86-1.12.62-2.04,1.15-2.75,1.61-.71.46-1.2.82-1.47,1.08-.4.4-.6.88-.6,1.45,0,.05,0,.09.01.13,0,.04-.01.08-.01.12,0,.05,0,.09.01.13,0,.04-.01.08-.01.12,0,.05,0,.09.01.13,0,.04-.01.08-.01.12,0,.05,0,.09.01.13,0,.04-.01.08-.01.12,0,.05,0,.09.01.13,0,.04-.01.08-.01.12,0,.05,0,.09.01.13,0,.04-.01.08-.01.12,0,.05,0,.09.01.13,0,.04-.01.08-.01.12,0,.05,0,.09.01.13,0,.04-.01.08-.01.12,0,.05,0,.09.01.13,0,.04-.01.08-.01.12,0,.05,0,.09.01.13,0,.04-.01.08-.01.12,0,.27.04.52.13.75s.21.44.38.62c.17.18.37.32.6.43.23.11.49.16.77.16.13,0,.27,0,.4-.03.13-.02.28-.06.43-.11.15-.05.33-.12.52-.2s.42-.18.69-.3l2.79-1.26v19.53c0,.78.22,1.37.66,1.79.44.42,1.12.62,2.05.62s1.61-.21,2.06-.62c.45-.42.67-1.01.67-1.79v-25.56c0-.8-.22-1.43-.67-1.88-.45-.45-1.07-.67-1.88-.67Z"/>
      <path class="cls-4" d="M81.71,79.22c-.53-1.74-1.27-3.18-2.24-4.33-.96-1.14-2.12-1.99-3.46-2.55-1.34-.55-2.83-.83-4.47-.83s-3.21.3-4.61.9c-1.4.6-2.61,1.51-3.63,2.73-1.02,1.22-1.82,2.74-2.39,4.57-.57,1.83-.85,3.96-.85,6.41,0,.04,0,.08,0,.13,0,.04,0,.08,0,.12s0,.08,0,.13c0,.04,0,.08,0,.12s0,.08,0,.13c0,.04,0,.08,0,.12s0,.08,0,.13c0,.04,0,.08,0,.12s0,.08,0,.13c0,.04,0,.08,0,.12s0,.08,0,.13c0,.04,0,.08,0,.12s0,.08,0,.13c0,.04,0,.08,0,.12s0,.08,0,.13c0,.04,0,.08,0,.12s0,.08,0,.13c0,.04,0,.08,0,.12s0,.08,0,.13c0,.04,0,.08,0,.12,0,2.37.26,4.42.79,6.16.53,1.74,1.27,3.18,2.24,4.33.96,1.14,2.12,1.99,3.47,2.55,1.35.56,2.84.83,4.48.83s3.19-.3,4.6-.9c1.41-.6,2.62-1.51,3.63-2.72s1.81-2.73,2.38-4.57c.57-1.83.85-3.97.85-6.42,0-.04,0-.08,0-.13,0-.04,0-.08,0-.12s0-.08,0-.13c0-.04,0-.08,0-.12s0-.08,0-.13c0-.04,0-.08,0-.12s0-.08,0-.13c0-.04,0-.08,0-.12s0-.08,0-.13c0-.04,0-.08,0-.12s0-.08,0-.13c0-.04,0-.08,0-.12s0-.08,0-.13c0-.04,0-.08,0-.12s0-.08,0-.13c0-.04,0-.08,0-.12s0-.08,0-.13c0-.04,0-.08,0-.12s0-.08,0-.13c0-.04,0-.08,0-.12,0-2.37-.26-4.42-.79-6.16ZM75.31,93.55c-.52.79-1.13,1.36-1.82,1.71-.69.35-1.42.52-2.18.52s-1.49-.18-2.19-.53c-.7-.35-1.31-.93-1.84-1.73-.53-.8-.95-1.83-1.26-3.11-.24-.98-.39-2.13-.44-3.45.06-1.29.2-2.43.43-3.4.31-1.27.72-2.3,1.23-3.09.51-.79,1.12-1.36,1.81-1.71.69-.35,1.42-.52,2.18-.52s1.51.18,2.21.53c.7.35,1.31.93,1.84,1.73.53.8.95,1.83,1.26,3.11.24.98.39,2.13.44,3.44-.06,1.3-.2,2.43-.43,3.4-.31,1.27-.72,2.3-1.24,3.09Z"/>
    </g>
    <g>
      <path class="cls-1" d="M23.17,84.29c-.2-.23-.38-.44-.55-.63-.17-.19-.31-.38-.44-.56s-.23-.36-.3-.55c-.07-.19-.11-.39-.11-.6,0-.43.1-.82.29-1.18.19-.36.44-.67.74-.94.3-.27.63-.47.99-.62.36-.15.71-.22,1.04-.22.27,0,.51.04.73.12s.41.19.57.34c.05.04.11.08.16.13s.12.11.2.2.18.2.29.34c.11.14.26.32.43.53l4.21,5.11,3.72-5.05c.15-.2.27-.36.36-.49.09-.13.17-.23.24-.32s.12-.15.17-.2c.05-.05.09-.09.13-.13.19-.19.4-.33.63-.43.23-.1.49-.15.77-.15.32,0,.65.07.98.2.33.13.64.32.91.56.27.24.5.52.67.84.17.32.26.67.26,1.04,0,.21-.03.41-.1.59s-.15.35-.26.52c-.11.17-.24.33-.39.5-.15.17-.31.34-.47.53l-4.6,5.25,4.76,5.44c.19.23.37.43.54.62.17.19.32.38.45.56.13.19.23.38.3.56.07.19.11.39.11.6,0,.43-.1.82-.29,1.19-.19.36-.44.68-.74.94-.3.27-.63.48-.99.62-.36.15-.71.22-1.04.22-.27,0-.52-.04-.74-.13-.23-.09-.43-.2-.6-.35-.05-.04-.1-.09-.15-.14s-.11-.12-.19-.2c-.08-.08-.18-.19-.29-.32-.11-.13-.26-.31-.43-.52l-4.57-5.57-4.02,5.5c-.15.2-.27.37-.37.49-.1.13-.18.23-.25.32-.07.09-.12.15-.16.2s-.08.09-.12.13c-.19.19-.4.33-.64.43-.24.1-.5.15-.78.15-.32,0-.65-.07-.97-.2-.33-.13-.63-.32-.9-.56-.27-.24-.5-.52-.67-.84s-.26-.67-.26-1.04c0-.21.03-.41.1-.59.07-.18.16-.36.27-.53.11-.17.24-.34.39-.51.15-.17.3-.34.46-.53l4.91-5.67-4.39-5.01Z"/>
      <path class="cls-1" d="M46.05,79.06c-.27.12-.5.22-.69.3s-.37.15-.52.2c-.15.05-.3.09-.43.11-.13.02-.27.03-.4.03-.28,0-.54-.05-.77-.16-.23-.11-.43-.25-.6-.43-.17-.18-.29-.39-.38-.62s-.13-.49-.13-.75c0-.56.2-1.04.6-1.45.27-.27.76-.63,1.47-1.08.71-.45,1.63-.99,2.75-1.61.62-.33,1.15-.62,1.62-.86.46-.24.88-.43,1.25-.58.37-.15.71-.26,1.01-.33.31-.07.62-.11.92-.11.8,0,1.43.22,1.88.67.45.45.67,1.07.67,1.88v23.06c0,.78-.22,1.37-.67,1.79-.45.42-1.13.62-2.06.62s-1.61-.21-2.05-.62c-.44-.42-.66-1.01-.66-1.79v-19.53l-2.79,1.26Z"/>
      <path class="cls-1" d="M60.06,86.12c0-2.45.28-4.59.85-6.41.57-1.83,1.36-3.35,2.39-4.57,1.02-1.22,2.23-2.13,3.63-2.73,1.4-.6,2.93-.9,4.61-.9s3.12.28,4.47.83c1.34.56,2.5,1.41,3.46,2.55.96,1.14,1.71,2.59,2.24,4.33s.79,3.79.79,6.16-.28,4.59-.85,6.42c-.57,1.83-1.36,3.36-2.38,4.57s-2.23,2.12-3.63,2.72c-1.41.6-2.94.9-4.6.9s-3.12-.28-4.48-.83c-1.35-.55-2.51-1.41-3.47-2.55-.96-1.14-1.71-2.59-2.24-4.33-.53-1.74-.79-3.79-.79-6.16ZM65.56,85.72c0,1.85.16,3.41.47,4.69.31,1.28.74,2.31,1.26,3.11.53.8,1.14,1.37,1.84,1.73.7.35,1.43.53,2.19.53s1.49-.17,2.18-.52c.69-.35,1.29-.92,1.82-1.71.52-.79.94-1.82,1.24-3.09s.46-2.82.46-4.66-.16-3.41-.47-4.69c-.31-1.28-.74-2.31-1.26-3.11-.53-.8-1.14-1.37-1.84-1.73-.7-.35-1.43-.53-2.21-.53s-1.49.17-2.18.52c-.69.35-1.29.92-1.81,1.71-.52.79-.93,1.82-1.23,3.09-.31,1.27-.46,2.82-.46,4.66Z"/>
      <path class="cls-1" d="M86.8,86.12c0-2.45.28-4.59.85-6.41.57-1.83,1.36-3.35,2.39-4.57,1.02-1.22,2.23-2.13,3.63-2.73,1.4-.6,2.93-.9,4.61-.9s3.12.28,4.47.83c1.34.56,2.5,1.41,3.46,2.55.96,1.14,1.71,2.59,2.24,4.33s.79,3.79.79,6.16-.28,4.59-.85,6.42c-.57,1.83-1.36,3.36-2.38,4.57s-2.23,2.12-3.63,2.72c-1.41.6-2.94.9-4.6.9s-3.12-.28-4.48-.83c-1.35-.55-2.51-1.41-3.47-2.55-.96-1.14-1.71-2.59-2.24-4.33-.53-1.74-.79-3.79-.79-6.16ZM92.3,85.72c0,1.85.16,3.41.47,4.69.31,1.28.74,2.31,1.26,3.11.53.8,1.14,1.37,1.84,1.73.7.35,1.43.53,2.19.53s1.49-.17,2.18-.52c.69-.35,1.29-.92,1.82-1.71.52-.79.94-1.82,1.24-3.09s.46-2.82.46-4.66-.16-3.41-.47-4.69c-.31-1.28-.74-2.31-1.26-3.11-.53-.8-1.14-1.37-1.84-1.73-.7-.35-1.43-.53-2.21-.53s-1.49.17-2.18.52c-.69.35-1.29.92-1.81,1.71-.52.79-.93,1.82-1.23,3.09-.31,1.27-.46,2.82-.46,4.66Z"/>
    </g>
  </g>
</svg>