<?xml version="1.0" encoding="UTF-8"?>
<svg id="Icon" xmlns="http://www.w3.org/2000/svg" viewBox="0 0 120 120">
  <defs>
    <style>
      .cls-1 {
        fill: #ffa9c2;
      }

      .cls-2 {
        fill: #a152db;
      }

      .cls-3 {
        fill: #7a1859;
      }

      .cls-4 {
        fill: #f47aa0;
      }

      .cls-5 {
        fill: #3d1170;
      }

      .cls-6 {
        fill: #ffe277;
      }

      .cls-7 {
        fill: #8942c5;
      }
    </style>
  </defs>
  <g>
    <path class="cls-5" d="M70.45,67.01c-.13,1.67-1.29,3.08-2.9,3.53-.44.13-.89.26-1.33.39-1.58.49-3.14,1.04-4.68,1.66-.53.22-1.05.44-1.57.67-.15.06-.3.13-.44.19-1.09.49-2.17,1.01-3.23,1.57-.36.18-.71.37-1.07.57-.7.39-1.4.79-2.09,1.21-1.39.84-2.76,1.73-4.09,2.68-.42.3-.83.6-1.24.91-.57.43-1.13.86-1.68,1.31-.68.55-1.35,1.11-2.01,1.69-.6.53-1.18,1.06-1.76,1.61,0,0-.01.01-.02.01-.13.13-.27.26-.4.41.05.01.1.03.15.05,3.27,1.2,9.1,4.1,11.49,10.01.63,1.53,1.26,3.73.83,5.62-.02.1-.04.19-.07.28-.08.27-.18.54-.3.78-.06.14-.14.28-.21.4-.05.08-.1.15-.15.22-.1.15-.21.29-.33.43-.74.85-1.78,1.39-2.97,1.51-1.38.14-2.77.22-4.16.22-2.77,0-5.55-.29-8.28-.87-2.3-.49-5.19-1.29-7.65-3.27-.38.7-.74,1.42-1.09,2.14-.5,1.05-.98,2.11-1.42,3.18-.15.36-.3.72-.43,1.08-.28.7-.54,1.41-.78,2.13-.01.01-.01.02-.01.04-.12.37-.24.73-.36,1.1-.13.39-.27.83-.43,1.28-.32.91-.73,1.9-1.32,2.83-.2.32-.42.62-.66.92-.13.15-.25.3-.39.44-.4.43-.86.83-1.38,1.17-.17.13-.34.24-.53.34-.3.16-.61.3-.92.43-.93.36-1.93.54-2.98.54-.78,0-1.59-.1-2.44-.3-.42-.09-.85-.22-1.29-.37-.43-.15-.88-.32-1.33-.52-.88-.37-1.69-.81-2.41-1.3-.24-.15-.48-.32-.7-.49-2.57-1.97-3.35-4.21-3.55-5.75-.45-3.17,1.26-5.87,2.09-7.17,2.46-3.91,5.2-7.66,8.21-11.22-1.59-1.07-2.87-2.46-3.7-4.03-1.04-1.98-1.45-4.39-1.18-6.96.21-2,.77-3.83,1.27-5.45.35-1.1,1.15-2.01,2.21-2.47,1.06-.47,2.27-.46,3.31.03l.48.22c2.43,1.14,5.46,2.54,7.6,4.93.56.63,1.06,1.33,1.49,2.09,3.56-3.08,7.34-5.92,11.3-8.48,6.7-4.36,13.87-7.9,21.29-10.53.99-.35,2.08-.3,3.03.14l4.88,2.27c1.52.71,2.44,2.29,2.3,3.95Z"/>
    <path class="cls-7" d="M25.38,89.36c.12-1.6.13-3.23-.17-4.8s-.95-3.11-2.02-4.31c-1.72-1.91-4.51-3.13-6.81-4.2-.47,1.53-.95,3.08-1.12,4.68s0,3.27.74,4.69c.89,1.69,2.53,2.88,4.3,3.59s3.68.97,5.57,1.2l-.49-.84Z"/>
    <path class="cls-2" d="M66.46,66.69c-.48.13-.95.28-1.42.42-6.56,2.01-12.74,5.14-18.32,9.12-.43.31-.86.63-1.29.94-10.7,8.03-18.98,19.32-23.05,32.08-.57,1.79-1.2,3.78-2.85,4.7-1.64.89-3.68.37-5.4-.38-.79-.34-1.59-.78-2.29-1.31-1.04-.79-1.85-1.8-2.01-3.08-.23-1.6.63-3.15,1.5-4.52,7.57-12.05,17.85-22.37,29.79-30.12,6.39-4.15,13.26-7.57,20.45-10.11l3.11,1.44,1.78.83Z"/>
    <path class="cls-7" d="M65.04,67.11c-6.56,2.01-12.74,5.14-18.32,9.12-.43.31-.86.63-1.29.94-.6-.33-1.18-.71-1.75-1.08-.84-.54-1.68-1.11-2.56-1.56,6.39-4.15,13.26-7.57,20.45-10.11l3.11,1.44c.2.4.35.82.36,1.24Z"/>
    <path class="cls-7" d="M46.72,76.23c-11.32,8.09-20.11,19.76-24.34,33.02-.56,1.79-1.2,3.79-2.85,4.7-1.63.9-3.68.37-5.4-.38-.79-.34-1.59-.78-2.29-1.31,1.44-.27,2.84-1.16,3.83-2.3,1.51-1.73,2.32-3.95,3.23-6.07,5.08-11.92,14.26-22.04,25.62-28.27l2.2.6Z"/>
    <path class="cls-2" d="M50.5,100.27c-.08.26-.24.44-.52.47-3.74.39-7.54.19-11.22-.58-2.28-.48-4.58-1.22-6.32-2.78-2.11-1.89-3.01-5.27-2.83-8.02.01-.15.02-.31.07-.45.02-.06.05-.13.08-.18.36-.55,1.56-.59,2.14-.65,1-.09,2.01-.12,3.02-.06,1.98.11,3.93.51,5.79,1.2,3.78,1.39,7.62,3.94,9.17,7.76.23.57.89,2.41.63,3.29Z"/>
    <path class="cls-7" d="M50.5,100.27c-.08.26-.24.44-.52.47-3.74.39-7.54.19-11.22-.58-2.28-.48-4.58-1.22-6.32-2.78-2.11-1.89-3.01-5.27-2.83-8.02.01-.15.02-.31.07-.45,7.38,2.88,14.4,6.71,20.82,11.36Z"/>
  </g>
  <g>
    <path class="cls-3" d="M118.83,46.06c0,.49-.01.97-.03,1.45-.16,3.14-.45,8.98-5.32,11.69-.68.38-1.39.63-2.12.78.57,2.21.69,4.46.33,6.61-1.01,5.97-5.38,11.09-13.01,15.22-2.94,1.59-5.63,2.39-8.03,2.39-1.96,0-3.74-.53-5.32-1.6-.12-.08-.24-.17-.35-.25-.15.24-.3.47-.45.69,0,.01-.01.01-.01.01-.31.45-.64.87-.99,1.26-.7.79-1.49,1.47-2.35,2.03l-.02.02c-.14.08-.27.17-.41.24-.04.03-.09.06-.13.08-.01.01-.02.02-.03.02-.15.09-.3.17-.46.25-.18.09-.35.17-.53.25-.18.08-.35.15-.53.22-.04.02-.08.04-.12.05-.14.06-.27.11-.41.15-.47.17-.94.3-1.42.41-.1.02-.2.04-.31.06-.31.07-.62.13-.92.18-.36.06-.71.11-1.06.14-.09,0-.17.01-.25.02l-.42.03c-.76.06-1.5.07-2.19.07-.46,0-.9-.01-1.32-.01l-1.02-.02c-.06,0-.12,0-.18-.01-1.14-.03-2.29-.08-3.43-.18-.32-.03-.63-.06-.94-.09-.37-.04-.75-.09-1.12-.14-.37-.05-.74-.11-1.11-.17-1.48-.25-2.92-.61-4.3-1.15-.35-.13-.69-.27-1.02-.42-.34-.16-.67-.32-1-.49-.16-.09-.32-.18-.48-.27-.45-.24-.88-.52-1.3-.82-.04-.04-.08-.07-.12-.09-.15-.11-.3-.23-.45-.35-.15-.11-.3-.23-.45-.36-.29-.24-.58-.5-.86-.78-2.99-2.94-4.4-6.86-4.69-10.8-.78.12-1.57.18-2.36.18-.34,0-.68-.01-1.02-.03-4.34-.29-8.6-2.52-12.31-6.47-1.01-1.07-1.94-2.21-2.74-3.39-.06-.09-.11-.17-.17-.26-2.16-3.19-3.52-6.62-4.04-10.19-.85-5.79.7-11.78,4.13-16.01.97-1.19,2.08-2.26,3.34-3.22-.11-.11-.2-.23-.3-.35-1.45-1.88-1.76-4-1.87-5.44-.03-.47-.05-.95-.05-1.42,0-.79.05-1.58.15-2.37.03-.3.08-.6.13-.9.04-.23.08-.45.13-.68.11-.53.24-1.06.39-1.58.07-.26.15-.53.24-.79.55-1.72,1.34-3.39,2.34-4.95,3.1-4.91,7.98-8.41,13.37-9.56,5.2-1.12,10.86-.21,15.96,2.41.87-1.98,2.42-3.71,5.08-4.75,2.05-.79,4.38-1.03,7.12-.72,6.3.7,12.65,3.93,18.36,9.34,2.49,2.35,5.8,6,6.32,10.87.91.19,1.8.43,2.69.73,5.92,1.99,10.67,6.26,13.35,12.01,1.54,3.3,2.36,7.04,2.4,10.89.01.11.01.22.01.33Z"/>
    <path class="cls-1" d="M72.34,60.16c5.31,2.47,9.58,7.09,11.61,12.57.88,2.38,1.51,5.13,3.62,6.56,2.69,1.82,6.34.55,9.2-1,5.02-2.72,10.02-6.73,10.97-12.36.77-4.56-1.39-9.22-4.59-12.55-3.2-3.33-7.35-5.56-11.45-7.7-1.87-.98-3.85-1.97-5.96-1.91-2.72.07-5.05,1.86-7.18,3.56-1.91,1.53-3.85,3.1-5.18,5.16s-1.96,4.72-1.03,6.98"/>
    <path class="cls-4" d="M62.8,50.67c-3.77,4.16-7.62,8.46-9.57,13.78-1.95,5.31-1.54,11.95,2.45,15.88,3.84,3.78,9.71,4.09,15.03,4.18,2.84.05,5.87.05,8.27-1.52,2.98-1.94,4.19-5.76,4.72-9.33,1.19-8.11-.12-16.58-3.69-23.92"/>
    <path class="cls-1" d="M78.99,83c-2.41,1.56-5.43,1.56-8.28,1.52-.34,0-.67-.01-1.01-.02-5.04-.13-10.42-.63-14.02-4.17-3.99-3.93-4.39-10.56-2.45-15.88,1.95-5.31,5.81-9.62,9.57-13.78l13.15-.71,4.06-.22c3.57,7.33,4.88,15.81,3.69,23.92-.52,3.58-1.74,7.39-4.71,9.34Z"/>
    <path class="cls-4" d="M83.69,61.8c-.25,8.04-3.41,18.63-10.6,22.7,2.09-.07,4.15-.38,5.9-1.51,2.97-1.94,4.19-5.75,4.71-9.34.58-3.92.56-7.93,0-11.85Z"/>
    <path class="cls-1" d="M99.42,51.86c.22.11.43.22.64.34,2.74,1.44,8.37,5.24,11.47,3.51,2.87-1.6,3.12-5.46,3.27-8.38.18-3.69-.45-7.43-2.01-10.79-4.7-10.07-16.57-13.72-26.33-8.56-4.54,2.4-8.07,6.9-8.68,11.99-.28,2.31.15,4.74,1.02,6.88.39.96.64,1.81,1.58,2.26,1.11.53,2.62.47,3.81.34,1.6-.17,3.17-.58,4.77-.66,3.67-.18,7.18,1.37,10.46,3.07Z"/>
    <path class="cls-4" d="M80.86,47.64c.62.2,1.27.32,1.85.41.9.14,1.81.21,2.72.3-1.47-.33-2.99-.57-4.57-.71Z"/>
    <path class="cls-4" d="M112.83,48.58c-4.18,3.91-10.4,2.79-15.43,1.58-1.27-.31-2.49-.53-3.69-.72,1.96.58,3.87,1.47,5.71,2.42.22.11.43.22.64.34,2.74,1.44,8.37,5.24,11.47,3.51,2.87-1.6,3.12-5.46,3.27-8.38.02-.42.03-.84.03-1.25-.54.92-1.2,1.76-2,2.51Z"/>
    <path class="cls-1" d="M92.48,31.39c-3.08,2.83-7.76,6.37-12.13,5.3-4.79-1.17-9.36-4.06-11.47-8.5-1.29-2.7-1.59-5.73-1.81-8.7-.31-4.31-2.27-11.12,2.95-13.15,1.64-.64,3.47-.68,5.23-.48,6.14.69,11.64,4.09,16.06,8.27,2.55,2.42,4.93,5.37,5.13,8.82.19,3.18-1.57,6.24-3.96,8.44Z"/>
    <path class="cls-4" d="M96.44,23.46c-.17.41-.35.82-.57,1.22-2.41,4.45-6.79,7.11-11.41,9.09-2.15.92-4.41,1.61-6.72,2.07.86.33,1.73.63,2.62.85,4.37,1.07,9.04-2.47,12.13-5.3,2.26-2.08,3.93-4.93,3.95-7.93Z"/>
    <path class="cls-1" d="M77.64,33.84l-13.59,8.92c-6.72-5.26-14.75-8.87-23.15-10.42-1.84-.34-3.89-.69-5.05-2.17-.71-.93-.94-2.13-1.03-3.28-.27-3.6.77-7.2,2.71-10.23,2.44-3.87,6.34-6.84,10.85-7.8,6.93-1.49,14.32,1.48,19.39,6.45,3.28,3.22,5.68,7.16,7.45,11.4.98,2.31,1.77,4.71,2.42,7.13Z"/>
    <path class="cls-4" d="M53.54,30.08c-5.75-.6-11.98-1.15-15.98-5.91-.93-1.1-1.55-2.26-1.94-3.46-.65,1.99-.95,4.09-.8,6.19.09,1.15.31,2.35,1.03,3.28,1.16,1.47,3.21,1.83,5.05,2.17,8.4,1.55,16.42,5.16,23.15,10.42l6.16-4.04c-4.44-4.57-9.84-7.92-16.67-8.63Z"/>
    <path class="cls-1" d="M69.08,50.44c-.17.13-.35.27-.56.41-1.33.85-2.89,1.17-4.27,1.91-3.06,1.64-4.79,5.06-6.6,8.12-.17.28-.35.57-.54.86-1.15,1.76-2.56,3.28-4.17,4.43-2.26,1.65-4.93,2.56-7.88,2.37-3.75-.25-7.07-2.47-9.65-5.22-.85-.9-1.65-1.87-2.36-2.91-1.8-2.6-3.09-5.58-3.56-8.77-.65-4.47.4-9.36,3.29-12.91,2.91-3.59,7.3-5.49,11.63-6.63,2.42-.64,4.96-1.06,7.47-1.16,4.89-.19,9.7.83,13.43,3.88.91,2.39,1.82,4.79,2.73,7.18.27.71.66,1.47,1.04,2.25.52,1.07,1.02,2.18,1.13,3.22.02.16.03.31.03.46,0,.13,0,.25-.02.37,0,.06,0,.12-.01.18-.01.08-.03.16-.05.24-.02.06-.04.13-.06.21-.16.54-.48,1.05-1.03,1.52Z"/>
    <path class="cls-4" d="M58.88,56.92c-5.62,3.07-11.41,6.19-17.49,5.78-3,.08-5.94-.62-8.34-2.29.71,1.04,1.5,2.01,2.36,2.91,2.58,2.74,5.9,4.97,9.65,5.22,2.95.19,5.62-.72,7.88-2.37,3.05-2.38,4.74-5.72,7.23-8.61.65-.76,1.34-1.47,2.06-2.16-1.13.45-2.25.93-3.34,1.53Z"/>
    <path class="cls-6" d="M87.61,43.24c-.02.65-.09,1.31-.21,1.98-.33,1.77-1.04,3.53-2.07,5.02-.02.04-.05.09-.09.12-1.23,1.75-2.89,3.13-4.92,3.79-4.06,1.33-8.72.66-12.26-1.7-3.5-2.33-5.98-6.46-7.1-10.46-.51-1.82-.7-3.74-.5-5.61.12-1.12.37-2.23.79-3.27,1.12-2.8,3.45-5.17,6.34-6,1.11-.33,2.28-.44,3.43-.41,1.74.04,3.49.44,5.15,1.09,2.93,1.14,5.59,3.06,7.49,5.19,1.65,1.88,2.9,4.16,3.5,6.58.32,1.21.47,2.46.44,3.7Z"/>
  </g>
</svg>