<?xml version="1.0" encoding="UTF-8"?>
<svg id="Icon" xmlns="http://www.w3.org/2000/svg" viewBox="0 0 120 120">
  <defs>
    <style>
      .cls-1 {
        fill: #dd2a39;
      }

      .cls-2 {
        fill: #fff;
      }

      .cls-3 {
        fill: #f43f3f;
      }

      .cls-4 {
        fill: #666;
      }

      .cls-5 {
        fill: #333;
      }

      .cls-6 {
        fill: #b51933;
      }

      .cls-7 {
        fill: #ff7d63;
      }

      .cls-8 {
        fill: gray;
      }

      .cls-9 {
        fill: #7a1839;
      }
    </style>
  </defs>
  <path class="cls-8" d="M112,60c0,28.72-23.28,52-52,52-16.7,0-31.56-7.88-41.08-20.13-6.84-8.8-10.91-19.86-10.91-31.88,0-28.71,23.28-52,52-52,1.68,0,3.34.08,4.98.24,26.39,2.5,47.02,24.73,47.02,51.76Z"/>
  <path class="cls-4" d="M103.22,60c0,23.87-19.35,43.22-43.22,43.22-13.88,0-26.23-6.55-34.14-16.73-5.68-7.32-9.07-16.51-9.07-26.49,0-23.86,19.35-43.21,43.21-43.21,1.4,0,2.78.07,4.14.2,21.93,2.08,39.08,20.55,39.08,43.02Z"/>
  <path class="cls-2" d="M99.75,60c0,21.95-17.79,39.75-39.75,39.75-12.76,0-24.12-6.02-31.4-15.38-5.23-6.73-8.34-15.18-8.34-24.36,0-21.95,17.79-39.74,39.74-39.74,1.28,0,2.55.06,3.81.18,20.17,1.91,35.94,18.9,35.94,39.56Z"/>
  <path class="cls-2" d="M60,20.25v39.75l-20.14,34.26c-4.35-2.55-8.17-5.93-11.26-9.9-5.23-6.73-8.34-15.18-8.34-24.36,0-21.95,17.79-39.75,39.74-39.75Z"/>
  <g>
    <g>
      <rect class="cls-4" x="92.24" y="76.41" width="2.05" height="5.6" rx="1.03" ry="1.03" transform="translate(-21.96 120.38) rotate(-60)"/>
      <rect class="cls-4" x="25.71" y="37.99" width="2.05" height="5.6" rx="1.03" ry="1.03" transform="translate(-21.96 43.55) rotate(-60)"/>
    </g>
    <g>
      <rect class="cls-4" x="78.18" y="90.47" width="2.05" height="5.6" rx="1.03" ry="1.03" transform="translate(-36.02 52.1) rotate(-30)"/>
      <rect class="cls-4" x="39.77" y="23.93" width="2.05" height="5.6" rx="1.03" ry="1.03" transform="translate(-7.9 23.98) rotate(-30)"/>
    </g>
    <g>
      <rect class="cls-4" x="58.97" y="95.61" width="2.05" height="5.6" rx="1.03" ry="1.03"/>
      <rect class="cls-4" x="58.97" y="18.78" width="2.05" height="5.6" rx="1.03" ry="1.03"/>
    </g>
    <g>
      <rect class="cls-4" x="37.99" y="92.24" width="5.6" height="2.05" rx="1.03" ry="1.03" transform="translate(-60.38 81.96) rotate(-60)"/>
      <rect class="cls-4" x="76.41" y="25.71" width="5.6" height="2.05" rx="1.03" ry="1.03" transform="translate(16.45 81.96) rotate(-60)"/>
    </g>
    <g>
      <rect class="cls-4" x="23.93" y="78.18" width="5.6" height="2.05" rx="1.03" ry="1.03" transform="translate(-36.02 23.98) rotate(-30)"/>
      <rect class="cls-4" x="90.47" y="39.77" width="5.6" height="2.05" rx="1.03" ry="1.03" transform="translate(-7.9 52.1) rotate(-30)"/>
    </g>
    <g>
      <rect class="cls-4" x="18.78" y="58.97" width="5.6" height="2.05" rx="1.03" ry="1.03"/>
      <rect class="cls-4" x="95.61" y="58.97" width="5.6" height="2.05" rx="1.03" ry="1.03"/>
    </g>
  </g>
  <path class="cls-5" d="M60,114c-29.77,0-54-24.22-54-54S30.22,6,60,6s54,24.22,54,54-24.22,54-54,54ZM60,10c-27.57,0-50,22.43-50,50s22.43,50,50,50,50-22.43,50-50S87.57,10,60,10Z"/>
  <path class="cls-5" d="M56.35,60l1.65-33.37c.17-2.51,3.82-2.51,4,0,0,0,1.65,33.37,1.65,33.37.06,5.06-7.36,5.07-7.3,0h0Z"/>
  <path class="cls-4" d="M63.23,61.7l-12.05,19.4c-1.31,2.08-4.51.39-3.54-1.86,0,0,9.13-20.93,9.13-20.93.81-1.85,2.96-2.7,4.82-1.89,2.03.87,2.82,3.42,1.64,5.28h0Z"/>
  <path class="cls-5" d="M65.3,60c0,2.93-2.37,5.3-5.3,5.3-1.7,0-3.22-.8-4.19-2.05-.7-.9-1.11-2.02-1.11-3.25,0-2.93,2.37-5.3,5.3-5.3.17,0,.34,0,.51.02,2.69.26,4.79,2.52,4.79,5.27Z"/>
  <path class="cls-2" d="M62.66,60c0,1.47-1.19,2.66-2.66,2.66-.86,0-1.62-.4-2.1-1.03-.35-.45-.56-1.02-.56-1.63,0-1.47,1.19-2.66,2.66-2.66.09,0,.17,0,.26.01,1.35.13,2.41,1.27,2.41,2.65Z"/>
  <g>
    <path class="cls-9" d="M116,84.83v5.77c0,.07-.02.14-.02.2-.02.6-.11,1.21-.3,1.8-.97,3.01-3.91,5.03-7.3,5.03h-1.21v11.13c0,4.41-3.84,8-8.55,8h-16.26c-4.71,0-8.55-3.59-8.55-8v-11.13h-1.64c-3.4,0-6.33-2.02-7.3-5.03-.19-.59-.28-1.2-.3-1.8-.01-.06-.03-.13-.03-.2v-.09s0-.02,0-.03v-5.62s.01-.02.01-.03c0-2.13,1.04-4.16,2.92-5.52l18.11-13.06c1.47-1.06,3.26-1.54,5.03-1.47h.09c.09,0,.17.02.26.03.26.02.53.05.79.1.15.02.3.06.44.1.23.05.46.11.68.18.21.07.4.16.6.24.16.07.33.13.48.21.32.16.63.35.92.56.04.02.07.03.1.05l18.1,13.06c.24.17.45.36.66.55,1.07.97,1.78,2.18,2.08,3.49.12.49.19.98.19,1.48Z"/>
    <g>
      <path class="cls-1" d="M87.91,75.23l-18.1,13.06c-2.55,1.84-1,5.34,2.36,5.34h36.2c3.36,0,4.91-3.51,2.36-5.34l-18.1-13.06c-1.36-.98-3.36-.98-4.72,0Z"/>
      <rect class="cls-1" x="68.54" y="84.86" width="9.27" height="5.74"/>
      <path class="cls-6" d="M108.37,93.63h-17.88v-19.12c.76.04,1.52.28,2.14.73l18.11,13.06c2.54,1.83,1,5.34-2.36,5.34Z"/>
      <rect class="cls-6" x="102.73" y="84.86" width="9.27" height="5.74"/>
      <path class="cls-1" d="M98.62,112.76h-16.27c-2.51,0-4.54-1.79-4.54-4v-15.13h25.35v15.13c0,2.21-2.03,4-4.54,4Z"/>
      <path class="cls-6" d="M98.62,112.76h-8.13v-19.13h12.68v15.13c0,2.21-2.03,4-4.54,4Z"/>
      <path class="cls-7" d="M87.91,69.5l-18.1,13.06c-2.55,1.84-1,5.34,2.36,5.34h36.2c3.36,0,4.91-3.51,2.36-5.34l-18.1-13.06c-1.36-.98-3.36-.98-4.72,0Z"/>
      <path class="cls-3" d="M108.37,87.9h-17.88v-19.12c.76.04,1.52.28,2.14.73l18.11,13.06c2.54,1.83,1,5.34-2.36,5.34Z"/>
      <path class="cls-7" d="M98.62,107.03h-16.27c-2.51,0-4.54-1.79-4.54-4v-15.13h25.35v15.13c0,2.21-2.03,4-4.54,4Z"/>
      <path class="cls-3" d="M98.62,107.03h-8.13v-19.13h12.68v15.13c0,2.21-2.03,4-4.54,4Z"/>
    </g>
  </g>
</svg>