<?xml version="1.0" encoding="UTF-8"?>
<svg id="Icon" xmlns="http://www.w3.org/2000/svg" viewBox="0 0 120 120">
  <defs>
    <style>
      .cls-1 {
        fill: #fff;
      }

      .cls-2 {
        fill: #dfedf2;
      }

      .cls-3 {
        fill: #788696;
      }

      .cls-4 {
        fill: #333;
      }

      .cls-5 {
        fill: #a8b6c1;
      }
    </style>
  </defs>
  <path class="cls-4" d="M100.69,14.86v7.77c0,2.26-1.28,4.23-3.15,5.23v75.6c0,4.61-3.19,8.23-7.27,8.23H29.73c-4.08,0-7.27-3.62-7.27-8.23V28.26c-2.36-.79-4.07-3.01-4.07-5.63v-7.77c0-3.27,2.66-5.93,5.93-5.93h70.43c3.28,0,5.94,2.66,5.94,5.93Z"/>
  <path class="cls-1" d="M90.27,107.69H29.73c-1.81,0-3.27-1.89-3.27-4.23V15.84h67.08v87.62c0,2.34-1.47,4.23-3.27,4.23Z"/>
  <path class="cls-2" d="M90.27,15.84H29.73c-1.81,0-3.27.25-3.27.56v11.63h67.08v-11.63c0-.31-1.47-.56-3.27-.56Z"/>
  <path class="cls-3" d="M64.27,84.13h-8.54c-1.54,0-2.79,1.25-2.79,2.79v20.77h14.12v-20.77c0-1.54-1.25-2.79-2.79-2.79Z"/>
  <rect class="cls-1" x="22.39" y="12.93" width="74.3" height="11.63" rx="1.93" ry="1.93"/>
  <rect class="cls-3" x="37.42" y="35.25" width="8.61" height="8.61"/>
  <rect class="cls-3" x="55.7" y="35.25" width="8.61" height="8.61"/>
  <rect class="cls-5" x="73.97" y="35.25" width="8.61" height="8.61"/>
  <rect class="cls-5" x="37.42" y="50.78" width="8.61" height="8.61"/>
  <rect class="cls-5" x="55.7" y="50.78" width="8.61" height="8.61"/>
  <rect class="cls-3" x="73.97" y="50.78" width="8.61" height="8.61"/>
  <rect class="cls-3" x="37.42" y="66.32" width="8.61" height="8.61"/>
  <rect class="cls-5" x="55.7" y="66.32" width="8.61" height="8.61"/>
  <rect class="cls-3" x="73.97" y="66.32" width="8.61" height="8.61"/>
</svg>