<?xml version="1.0" encoding="UTF-8"?>
<svg id="Icon" xmlns="http://www.w3.org/2000/svg" viewBox="0 0 120 120">
  <defs>
    <style>
      .cls-1 {
        fill: #e1fcc5;
      }

      .cls-2 {
        fill: #12993f;
      }

      .cls-3 {
        fill: #1cb829;
      }

      .cls-4 {
        fill: #34d434;
      }

      .cls-5 {
        fill: #086d3b;
      }

      .cls-6 {
        fill: #05542a;
      }
    </style>
  </defs>
  <g>
    <path class="cls-6" d="M114.07,35.71c.02.29.02.58-.02.87l-1.38,46.54c-.06,2.16-1.84,3.88-3.99,3.88h-.12l-2.32-.07-1.18,7.07c-.32,1.95-2.02,3.34-3.94,3.34-.22,0-.44-.02-.66-.06l-4.31-.71-3.66,9.98c-.37.99-1.11,1.8-2.08,2.25-.53.24-1.1.37-1.68.37-.46,0-.93-.08-1.38-.25L13.8,81.9c-2.08-.76-3.14-3.06-2.38-5.13l2.01-5.48L4.33,32.31c-.24-1.03-.07-2.12.49-3.02.56-.9,1.46-1.54,2.49-1.78L83.62,9.68c.26-.06.53-.09.79-.1.1,0,.19.01.29.02.16,0,.33.01.49.03.1.02.2.06.3.08.14.04.29.07.43.12.1.04.19.09.28.13.14.07.28.13.41.2.08.06.16.12.25.18.12.09.24.18.35.28.08.07.15.15.22.23.1.11.21.21.3.33.07.09.12.19.18.29.08.12.15.24.22.37.05.11.09.23.13.35.04.11.09.21.12.32l1.95,7,9.18-.96c.1-.01.2,0,.3,0,.16,0,.31-.01.47,0,.08.01.17.03.25.04.18.03.36.06.53.11.06.02.12.05.19.07.18.06.36.13.53.22.05.03.1.07.16.1.16.1.32.2.47.31.06.05.11.1.16.15.14.12.27.24.39.38.06.07.11.15.16.22.1.13.19.26.28.4.05.1.09.21.14.31.06.13.12.26.17.4.04.12.07.25.09.38.03.11.07.22.08.33l1.25,8.9,5.08.15c1.06.03,2.06.48,2.79,1.26.73.77,1.12,1.8,1.09,2.86l-.02.57Z"/>
    <g>
      <rect class="cls-4" x="36.23" y="29.95" width="48" height="78.36" transform="translate(-25.43 101.83) rotate(-69.83)"/>
      <rect class="cls-2" x="40.23" y="33.95" width="40" height="70.36" transform="translate(-25.43 101.83) rotate(-69.83)"/>
      <path class="cls-4" d="M27.51,67.76l6.9-18.77c3.11,1.14,6.56-.45,7.7-3.56l47.27,17.37c-1.14,3.11.45,6.56,3.56,7.7l-6.9,18.77c-3.11-1.14-6.56.45-7.7,3.56l-47.27-17.37c1.14-3.11-.45-6.56-3.56-7.7Z"/>
      <path class="cls-2" d="M42.8,59.46c-.13,0-.25.02-.35.02s-.18,0-.26,0-.14,0-.2-.02-.12-.03-.18-.05c-.12-.04-.22-.11-.31-.19s-.15-.18-.19-.28-.07-.21-.07-.33.02-.23.06-.34c.09-.24.25-.42.49-.53.16-.07.42-.15.8-.23s.86-.17,1.44-.26c.32-.05.59-.09.83-.12s.45-.05.63-.05.34,0,.49.02.28.05.41.1c.35.13.58.32.7.59s.12.57,0,.91l-3.64,9.92c-.12.33-.31.55-.57.66s-.59.09-.98-.06-.66-.34-.78-.59-.13-.54,0-.87l3.08-8.4-1.4.1Z"/>
      <path class="cls-2" d="M47.71,64.71c.39-1.05.85-1.93,1.38-2.62s1.12-1.22,1.75-1.59,1.3-.56,1.99-.6,1.4.08,2.12.34,1.3.61,1.79,1.06.85,1,1.09,1.64.33,1.38.28,2.21-.26,1.76-.63,2.78-.85,1.93-1.38,2.63-1.12,1.23-1.74,1.59-1.29.56-1.99.6-1.41-.08-2.12-.34-1.3-.61-1.79-1.07-.86-1-1.09-1.64-.33-1.38-.28-2.21.26-1.76.63-2.78ZM50.14,65.41c-.29.79-.47,1.49-.54,2.09s-.05,1.11.05,1.54.27.77.52,1.03.53.45.86.57.67.16,1.02.12.7-.19,1.05-.45.69-.63,1.02-1.13.64-1.14.93-1.93.47-1.49.54-2.09.05-1.11-.05-1.54-.27-.77-.52-1.03-.53-.45-.87-.58-.67-.16-1.02-.12-.7.19-1.05.45-.69.64-1.02,1.13-.64,1.14-.93,1.93Z"/>
      <path class="cls-2" d="M59.2,68.93c.39-1.05.85-1.93,1.38-2.62s1.12-1.22,1.75-1.59,1.3-.56,1.99-.6,1.4.08,2.12.34,1.3.61,1.79,1.06.85,1,1.09,1.64.33,1.38.28,2.21-.26,1.76-.63,2.78c-.39,1.05-.85,1.93-1.38,2.63s-1.12,1.23-1.74,1.59-1.29.56-1.99.6-1.41-.08-2.12-.34-1.3-.61-1.79-1.07-.86-1-1.09-1.64-.33-1.38-.28-2.21.26-1.76.63-2.78ZM61.63,69.63c-.29.79-.47,1.49-.54,2.09s-.05,1.11.05,1.54.27.77.52,1.03.53.45.86.57.67.16,1.02.12.7-.19,1.05-.45.69-.63,1.02-1.13.64-1.14.93-1.93.47-1.49.54-2.09.05-1.11-.05-1.54-.27-.77-.52-1.03-.53-.45-.87-.58-.67-.16-1.02-.12-.7.19-1.05.45-.69.64-1.02,1.13-.64,1.14-.93,1.93Z"/>
      <path class="cls-2" d="M70.7,73.16c.39-1.05.85-1.93,1.38-2.62s1.12-1.22,1.75-1.59,1.3-.56,1.99-.6,1.4.08,2.12.34,1.3.61,1.79,1.06.85,1,1.09,1.64.33,1.38.28,2.21-.26,1.76-.63,2.78-.85,1.93-1.38,2.63-1.12,1.23-1.74,1.59-1.29.56-1.99.6-1.41-.08-2.12-.34-1.3-.61-1.79-1.07-.86-1-1.09-1.64-.33-1.38-.28-2.21.26-1.76.63-2.78ZM73.13,73.85c-.29.79-.47,1.49-.54,2.09s-.05,1.11.05,1.54.27.77.52,1.03.53.45.86.57.67.16,1.02.12.7-.19,1.05-.45.69-.63,1.02-1.13.64-1.14.93-1.93.47-1.49.54-2.09.05-1.11-.05-1.54-.27-.77-.52-1.03-.53-.45-.87-.58-.67-.16-1.02-.12-.7.19-1.05.45-.69.64-1.02,1.13-.64,1.14-.93,1.93Z"/>
    </g>
    <g>
      <polygon class="cls-5" points="93.03 93.46 23.82 80.44 31.73 34.09 109.02 46.99 93.03 93.46"/>
      <rect class="cls-4" x="42.42" y="24.03" width="48" height="78.36" transform="translate(-6.87 118.32) rotate(-80.52)"/>
      <rect class="cls-2" x="46.42" y="28.03" width="40" height="70.36" transform="translate(-6.87 118.32) rotate(-80.52)"/>
      <path class="cls-4" d="M34.02,67.94l3.29-19.73c3.27.55,6.36-1.66,6.91-4.93l49.68,8.29c-.55,3.27,1.66,6.36,4.93,6.91l-3.29,19.73c-3.27-.55-6.36,1.66-6.91,4.93l-49.68-8.29c.55-3.27-1.66-6.36-4.93-6.91Z"/>
      <path class="cls-2" d="M47.5,56.95c-.13.03-.24.06-.34.08s-.18.04-.25.05-.14.02-.2.02-.12,0-.18-.02c-.13-.02-.24-.06-.34-.13s-.18-.15-.24-.24-.1-.2-.13-.31-.02-.23,0-.35c.04-.25.17-.46.38-.61.14-.1.39-.23.74-.38s.81-.32,1.36-.52c.3-.1.57-.19.8-.27s.43-.13.61-.17.34-.06.48-.07.29,0,.43.02c.36.06.63.21.8.45s.22.54.16.9l-1.74,10.42c-.06.35-.2.6-.44.76s-.56.2-.98.13-.71-.21-.88-.44-.22-.51-.16-.86l1.47-8.82-1.36.36Z"/>
      <path class="cls-2" d="M53.3,61.2c.18-1.11.47-2.05.87-2.83s.87-1.41,1.42-1.88,1.17-.79,1.85-.96,1.39-.19,2.15-.06,1.39.36,1.96.71,1.02.82,1.37,1.41.58,1.3.68,2.12.07,1.77-.11,2.84-.47,2.05-.87,2.84-.87,1.41-1.42,1.88-1.17.79-1.85.95-1.4.19-2.15.06-1.39-.36-1.96-.71-1.03-.82-1.38-1.41-.58-1.3-.68-2.12-.07-1.77.11-2.84ZM55.81,61.43c-.14.83-.19,1.55-.14,2.15s.16,1.1.34,1.5.41.71.7.92.6.35.95.41.69.03,1.02-.07.65-.32.95-.63.56-.75.8-1.3.42-1.24.56-2.07.19-1.55.14-2.15-.16-1.1-.34-1.5-.41-.71-.7-.92-.61-.35-.96-.41-.69-.03-1.02.07-.65.32-.94.63-.56.75-.79,1.3-.42,1.24-.56,2.07Z"/>
      <path class="cls-2" d="M65.38,63.21c.18-1.11.47-2.05.87-2.83s.87-1.41,1.42-1.88,1.17-.79,1.85-.96,1.39-.19,2.15-.06,1.39.36,1.96.71,1.02.82,1.37,1.41.58,1.3.68,2.12.07,1.77-.11,2.84c-.18,1.11-.47,2.05-.87,2.84s-.87,1.41-1.42,1.88-1.17.79-1.85.95-1.4.19-2.15.06-1.39-.36-1.96-.71-1.03-.82-1.38-1.41-.58-1.3-.68-2.12-.07-1.77.11-2.84ZM67.89,63.45c-.14.83-.19,1.55-.14,2.15s.16,1.1.34,1.5.41.71.7.92.6.35.95.41.69.03,1.02-.07.65-.32.95-.63.56-.75.8-1.3.42-1.24.56-2.07.19-1.55.14-2.15-.16-1.1-.34-1.5-.41-.71-.7-.92-.61-.35-.96-.41-.69-.03-1.02.07-.65.32-.94.63-.56.75-.79,1.3-.42,1.24-.56,2.07Z"/>
      <path class="cls-2" d="M77.46,65.23c.18-1.11.47-2.05.87-2.83s.87-1.41,1.42-1.88,1.17-.79,1.85-.96,1.39-.19,2.15-.06,1.39.36,1.96.71,1.02.82,1.37,1.41.58,1.3.68,2.12.07,1.77-.11,2.84-.47,2.05-.87,2.84-.87,1.41-1.42,1.88-1.17.79-1.85.95-1.4.19-2.15.06-1.39-.36-1.96-.71-1.03-.82-1.38-1.41-.58-1.3-.68-2.12-.07-1.77.11-2.84ZM79.97,65.46c-.14.83-.19,1.55-.14,2.15s.16,1.1.34,1.5.41.71.7.92.6.35.95.41.69.03,1.02-.07.65-.32.95-.63.56-.75.8-1.3.42-1.24.56-2.07.19-1.55.14-2.15-.16-1.1-.34-1.5-.41-.71-.7-.92-.61-.35-.96-.41-.69-.03-1.02.07-.65.32-.94.63-.56.75-.79,1.3-.42,1.24-.56,2.07Z"/>
    </g>
    <g>
      <polygon class="cls-5" points="102.59 84.52 30.35 80.69 31.76 33.71 110.09 36.02 102.59 84.52"/>
      <rect class="cls-4" x="46.22" y="18.67" width="48" height="78.36" transform="translate(10.32 126.34) rotate(-88.31)"/>
      <rect class="cls-2" x="50.22" y="22.67" width="40" height="70.36" transform="translate(10.32 126.34) rotate(-88.31)"/>
      <path class="cls-4" d="M38.76,66.93l.59-19.99c3.31.1,6.08-2.51,6.17-5.82l50.34,1.48c-.1,3.31,2.51,6.08,5.82,6.17l-.59,19.99c-3.31-.1-6.08,2.51-6.17,5.82l-50.34-1.48c.1-3.31-2.51-6.08-5.82-6.17Z"/>
      <path class="cls-2" d="M50.62,54.21c-.12.05-.23.09-.32.13s-.17.06-.24.08-.14.04-.2.04-.12.01-.18,0c-.13,0-.25-.03-.35-.08s-.2-.12-.27-.21-.13-.18-.17-.29-.05-.22-.05-.35c0-.26.11-.48.3-.65.13-.12.35-.28.69-.48s.76-.43,1.28-.7c.29-.14.54-.27.75-.37s.41-.19.58-.25.33-.11.47-.14.28-.04.42-.04c.37.01.65.12.85.33s.29.5.28.87l-.31,10.56c-.01.36-.12.63-.33.81s-.53.27-.95.26-.73-.12-.93-.31-.29-.47-.28-.83l.26-8.94-1.29.54Z"/>
      <path class="cls-2" d="M56.94,57.63c.03-1.12.19-2.1.48-2.93s.67-1.51,1.16-2.06,1.05-.94,1.7-1.2,1.36-.37,2.12-.35,1.43.17,2.03.44,1.13.68,1.55,1.21.75,1.21.97,2.01.31,1.75.28,2.83-.19,2.1-.48,2.93-.67,1.52-1.15,2.06-1.05.94-1.7,1.2-1.36.37-2.12.35-1.43-.17-2.04-.44-1.13-.68-1.56-1.21-.75-1.21-.97-2.01-.31-1.75-.28-2.83ZM59.47,57.52c-.02.85.03,1.56.15,2.15s.31,1.07.54,1.44.5.64.82.82.65.26.99.27.68-.06,1-.21.61-.4.85-.76.45-.82.61-1.4.25-1.29.27-2.13-.03-1.56-.15-2.15-.31-1.07-.54-1.44-.5-.64-.82-.82-.65-.26-1-.27-.68.06-1,.21-.6.4-.85.76-.45.82-.61,1.4-.25,1.29-.27,2.13Z"/>
      <path class="cls-2" d="M69.18,57.99c.03-1.12.19-2.1.48-2.93s.67-1.51,1.16-2.06,1.05-.94,1.7-1.2,1.36-.37,2.12-.35,1.43.17,2.03.44,1.13.68,1.55,1.21.75,1.21.97,2.01.31,1.75.28,2.83-.19,2.1-.48,2.93-.67,1.52-1.15,2.06-1.05.94-1.7,1.2-1.36.37-2.12.35-1.43-.17-2.04-.44-1.13-.68-1.56-1.21-.75-1.21-.97-2.01-.31-1.75-.28-2.83ZM71.71,57.88c-.02.85.03,1.56.15,2.15s.31,1.07.54,1.44.5.64.82.82.65.26.99.27.68-.06,1-.21.61-.4.85-.76.45-.82.61-1.4.25-1.29.27-2.13-.03-1.56-.15-2.15-.31-1.07-.54-1.44-.5-.64-.82-.82-.65-.26-1-.27-.68.06-1,.21-.6.4-.85.76-.45.82-.61,1.4-.25,1.29-.27,2.13Z"/>
      <path class="cls-2" d="M81.43,58.35c.03-1.12.19-2.1.48-2.93s.67-1.51,1.16-2.06,1.05-.94,1.7-1.2,1.36-.37,2.12-.35,1.43.17,2.03.44,1.13.68,1.55,1.21.75,1.21.97,2.01.31,1.75.28,2.83-.19,2.1-.48,2.93-.67,1.52-1.15,2.06-1.05.94-1.7,1.2-1.36.37-2.12.35-1.43-.17-2.04-.44-1.13-.68-1.56-1.21-.75-1.21-.97-2.01-.31-1.75-.28-2.83ZM83.95,58.25c-.02.85.03,1.56.15,2.15s.31,1.07.54,1.44.5.64.82.82.65.26.99.27.68-.06,1-.21.61-.4.85-.76.45-.82.61-1.4.25-1.29.27-2.13-.03-1.56-.15-2.15-.31-1.07-.54-1.44-.5-.64-.82-.82-.65-.26-1-.27-.68.06-1,.21-.6.4-.85.76-.45.82-.61,1.4-.25,1.29-.27,2.13Z"/>
    </g>
    <g>
      <polygon class="cls-5" points="106.91 72.27 26.97 78.41 23.98 32.67 99.92 22.53 106.91 72.27"/>
      <rect class="cls-4" x="24.26" y="26.47" width="78.36" height="48" transform="translate(-4.9 6.86) rotate(-5.96)"/>
      <rect class="cls-2" x="28.26" y="30.47" width="70.36" height="40" transform="translate(-4.9 6.86) rotate(-5.96)"/>
      <path class="cls-4" d="M33.47,63.65l-2.08-19.89c3.3-.34,5.69-3.29,5.34-6.59l50.09-5.23c.34,3.3,3.29,5.69,6.59,5.34l2.08,19.89c-3.3.34-5.69,3.29-5.34,6.59l-50.09,5.23c-.34-3.3-3.29-5.69-6.59-5.34Z"/>
      <path class="cls-2" d="M43.54,49.46c-.12.07-.22.12-.3.17s-.16.08-.23.12-.13.06-.19.07-.12.03-.18.03c-.13.01-.25,0-.36-.04s-.21-.09-.29-.17-.15-.16-.2-.27-.08-.21-.1-.34c-.03-.26.04-.49.21-.69.11-.13.31-.32.62-.56s.69-.53,1.18-.86c.26-.18.5-.34.7-.47s.38-.24.54-.32.31-.15.45-.2.28-.08.42-.09c.37-.04.66.03.89.22s.36.46.4.82l1.1,10.51c.04.35-.04.64-.22.85s-.49.34-.91.38-.74-.02-.96-.19-.35-.43-.39-.78l-.93-8.9-1.21.71Z"/>
      <path class="cls-2" d="M50.26,52.02c-.12-1.12-.09-2.1.08-2.96s.46-1.59.87-2.19.92-1.08,1.53-1.42,1.29-.55,2.06-.63,1.44-.02,2.07.17,1.21.52,1.7,1,.9,1.1,1.23,1.86.54,1.69.65,2.77.09,2.1-.08,2.97-.46,1.59-.87,2.19-.91,1.07-1.53,1.41-1.3.55-2.05.63-1.44.02-2.08-.17-1.21-.52-1.7-1-.9-1.1-1.23-1.86-.54-1.69-.65-2.77ZM52.74,51.57c.09.84.23,1.55.44,2.11s.45,1.02.72,1.36.59.57.92.7.67.17,1.02.14.67-.15.97-.34.55-.48.75-.86.34-.87.42-1.47.08-1.31-.01-2.14-.23-1.55-.44-2.11-.45-1.02-.72-1.36-.59-.57-.92-.7-.68-.17-1.03-.14-.67.15-.97.34-.54.48-.74.86-.34.87-.42,1.47-.08,1.31.01,2.14Z"/>
      <path class="cls-2" d="M62.44,50.74c-.12-1.12-.09-2.1.08-2.96s.46-1.59.87-2.19.92-1.08,1.53-1.42,1.29-.55,2.06-.63,1.44-.02,2.07.17,1.21.52,1.7,1,.9,1.1,1.23,1.86.54,1.69.65,2.77.09,2.1-.08,2.97-.46,1.59-.87,2.19-.91,1.07-1.53,1.41-1.3.55-2.05.63-1.44.02-2.08-.17-1.21-.52-1.7-1-.9-1.1-1.23-1.86-.54-1.69-.65-2.77ZM64.93,50.3c.09.84.23,1.55.44,2.11s.45,1.02.72,1.36.59.57.92.7.67.17,1.02.14.67-.15.97-.34.55-.48.75-.86.34-.87.42-1.47.08-1.31-.01-2.14-.23-1.55-.44-2.11-.45-1.02-.72-1.36-.59-.57-.92-.7-.68-.17-1.03-.14-.67.15-.97.34-.54.48-.74.86-.34.87-.42,1.47-.08,1.31.01,2.14Z"/>
      <path class="cls-2" d="M74.62,49.47c-.12-1.12-.09-2.1.08-2.96s.46-1.59.87-2.19.92-1.08,1.53-1.42,1.29-.55,2.06-.63,1.44-.02,2.07.17,1.21.52,1.7,1,.9,1.1,1.23,1.86.54,1.69.65,2.77.09,2.1-.08,2.97-.46,1.59-.87,2.19-.91,1.07-1.53,1.41-1.3.55-2.05.63-1.44.02-2.08-.17-1.21-.52-1.7-1-.9-1.1-1.23-1.86-.54-1.69-.65-2.77ZM77.11,49.03c.09.84.23,1.55.44,2.11s.45,1.02.72,1.36.59.57.92.7.67.17,1.02.14.67-.15.97-.34.55-.48.75-.86.34-.87.42-1.47.08-1.31-.01-2.14-.23-1.55-.44-2.11-.45-1.02-.72-1.36-.59-.57-.92-.7-.68-.17-1.03-.14-.67.15-.97.34-.54.48-.74.86-.34.87-.42,1.47-.08,1.31.01,2.14Z"/>
    </g>
    <polygon class="cls-5" points="97.86 61.64 19.14 78.14 8.22 31.4 84.53 13.58 97.86 61.64"/>
    <g>
      <rect class="cls-4" x="12.65" y="21.86" width="78.36" height="48" transform="translate(-9.07 12.99) rotate(-13.15)"/>
      <rect class="cls-2" x="16.65" y="25.86" width="70.36" height="40" transform="translate(-9.07 12.99) rotate(-13.15)"/>
      <path class="cls-4" d="M23.75,62.69l-4.55-19.48c3.23-.75,5.23-3.98,4.48-7.21l49.04-11.46c.75,3.23,3.98,5.23,7.21,4.48l4.55,19.48c-3.23.75-5.23,3.98-4.48,7.21l-49.04,11.46c-.75-3.23-3.98-5.23-7.21-4.48Z"/>
      <path class="cls-2" d="M31.96,47.35c-.11.08-.2.15-.28.21s-.15.1-.21.14-.12.07-.18.09-.12.04-.18.06c-.13.03-.25.03-.36,0s-.22-.07-.31-.13-.17-.14-.23-.24-.11-.2-.14-.32c-.06-.25-.02-.49.12-.71.09-.15.27-.36.54-.64s.62-.61,1.06-1c.24-.21.45-.4.63-.55s.35-.29.49-.39.29-.19.42-.25.26-.11.4-.15c.36-.08.66-.05.91.1s.41.41.5.77l2.4,10.29c.08.35.04.64-.11.87s-.44.4-.85.49-.74.07-.98-.06-.4-.38-.48-.73l-2.04-8.71-1.11.85Z"/>
      <path class="cls-2" d="M38.94,49.05c-.26-1.09-.35-2.08-.29-2.95s.26-1.64.59-2.29.78-1.18,1.34-1.6,1.21-.71,1.96-.88,1.42-.2,2.08-.09,1.26.37,1.81.78,1.03.98,1.45,1.7.75,1.61,1,2.67.35,2.08.29,2.95-.26,1.64-.59,2.28-.77,1.18-1.34,1.59-1.22.71-1.96.88-1.42.2-2.08.09-1.27-.37-1.81-.78-1.03-.98-1.45-1.7-.75-1.61-1-2.67ZM41.36,48.29c.19.82.43,1.5.7,2.04s.57.96.89,1.26.65.49,1,.58.69.09,1.03,0,.65-.23.92-.46.48-.54.63-.95.23-.91.23-1.51-.09-1.31-.28-2.13-.43-1.5-.7-2.04-.57-.96-.89-1.26-.65-.49-1-.58-.69-.09-1.04,0-.65.23-.92.46-.48.54-.63.95-.22.91-.23,1.51.09,1.31.28,2.13Z"/>
      <path class="cls-2" d="M50.87,46.26c-.26-1.09-.35-2.08-.29-2.95s.26-1.64.59-2.29.78-1.18,1.34-1.6,1.21-.71,1.96-.88,1.42-.2,2.08-.09,1.26.37,1.81.78,1.03.98,1.45,1.7.75,1.61,1,2.67.35,2.08.29,2.95-.26,1.64-.59,2.28-.77,1.18-1.34,1.59-1.22.71-1.96.88-1.42.2-2.08.09-1.27-.37-1.81-.78-1.03-.98-1.45-1.7-.75-1.61-1-2.67ZM53.28,45.51c.19.82.43,1.5.7,2.04s.57.96.89,1.26.65.49,1,.58.69.09,1.03,0,.65-.23.92-.46.48-.54.63-.95.23-.91.23-1.51-.09-1.31-.28-2.13-.43-1.5-.7-2.04-.57-.96-.89-1.26-.65-.49-1-.58-.69-.09-1.04,0-.65.23-.92.46-.48.54-.63.95-.22.91-.23,1.51.09,1.31.28,2.13Z"/>
      <path class="cls-2" d="M62.8,43.47c-.26-1.09-.35-2.08-.29-2.95s.26-1.64.59-2.29.78-1.18,1.34-1.6,1.21-.71,1.96-.88,1.42-.2,2.08-.09,1.26.37,1.81.78,1.03.98,1.45,1.7.75,1.61,1,2.67.35,2.08.29,2.95-.26,1.64-.59,2.28-.77,1.18-1.34,1.59-1.22.71-1.96.88-1.42.2-2.08.09-1.27-.37-1.81-.78-1.03-.98-1.45-1.7-.75-1.61-1-2.67ZM65.21,42.72c.19.82.43,1.5.7,2.04s.57.96.89,1.26.65.49,1,.58.69.09,1.03,0,.65-.23.92-.46.48-.54.63-.95.23-.91.23-1.51-.09-1.31-.28-2.13-.43-1.5-.7-2.04-.57-.96-.89-1.26-.65-.49-1-.58-.69-.09-1.04,0-.65.23-.92.46-.48.54-.63.95-.22.91-.23,1.51.09,1.31.28,2.13Z"/>
    </g>
  </g>
  <g>
    <path class="cls-6" d="M55.1,101.71s0,.08,0,.12c0,.04,0,.09,0,.13s0,.08,0,.12c0,.04,0,.09,0,.13s0,.08,0,.12c0,.04,0,.09,0,.13s0,.08,0,.12c0,.04,0,.09,0,.13s0,.08,0,.12c0,.04,0,.09,0,.13s0,.08,0,.12c0,.04,0,.09,0,.13s0,.08,0,.12c0,.04,0,.09,0,.13s0,.08,0,.12c0,.04,0,.09,0,.13s0,.08,0,.12c0,.04,0,.09,0,.13,0,1.07-.26,2.08-.77,3.01-.41.74-.94,1.4-1.59,1.96-.63.54-1.35.97-2.14,1.27-.81.3-1.65.45-2.49.45-.92,0-1.79-.18-2.59-.54-.72-.33-1.38-.78-1.95-1.36-.25-.25-.47-.5-.67-.74-.14-.17-.31-.4-.5-.66l-.17-.22c-.37.76-.85,1.33-1.28,1.74-1.22,1.14-2.83,1.72-4.8,1.72s-3.59-.58-4.8-1.72c-.59-.55-1.25-1.42-1.63-2.64-.33.39-.68.76-1.07,1.1-1.28,1.15-2.86,2.04-4.68,2.65-1.71.57-3.65.85-5.78.85-1.03,0-2-.06-2.88-.19-.86-.12-1.66-.29-2.36-.5-.82-.24-1.51-.52-2.12-.85-.69-.38-1.25-.79-1.72-1.25-.57-.57-1.02-1.22-1.35-1.91-.37-.81-.56-1.71-.56-2.69,0-.04,0-.08.01-.12-.01-.04-.01-.08-.01-.13,0-.04,0-.08.01-.12-.01-.04-.01-.08-.01-.13,0-.04,0-.08.01-.12-.01-.04-.01-.08-.01-.13,0-.04,0-.08.01-.12-.01-.04-.01-.08-.01-.13,0-.04,0-.08.01-.12-.01-.04-.01-.08-.01-.13,0-.04,0-.08.01-.12-.01-.04-.01-.08-.01-.13,0-.04,0-.08.01-.12-.01-.04-.01-.08-.01-.13,0-.04,0-.08.01-.12-.01-.04-.01-.08-.01-.13,0-.04,0-.08.01-.12-.01-.04-.01-.08-.01-.13,0-.04,0-.08.01-.12-.01-.04-.01-.08-.01-.13,0-2.06.9-3.4,1.65-4.15.43-.43.92-.77,1.46-1.03-.09-.08-.17-.17-.25-.25-.72-.78-1.56-2.18-1.47-4.37v-.05c0-.07-.01-.13,0-.2v-.05c0-.07-.01-.13,0-.2v-.05c0-.07-.01-.13,0-.2v-.05c0-.07-.01-.13,0-.2v-.05c0-.07-.01-.13,0-.2v-.05c0-.07-.01-.13,0-.2v-.05c0-.07-.01-.13,0-.2v-.05c0-.07-.01-.13,0-.2v-.05c0-.07-.01-.13,0-.2v-.05c0-.07-.01-.13,0-.2l.52-10.38c.08-2.19,1.06-3.57,1.86-4.33.79-.75,2.2-1.64,4.43-1.64h10.55c1.54,0,2.96.56,4.04,1.56.38-.85.89-1.48,1.36-1.92,1.21-1.14,2.83-1.72,4.8-1.72s3.58.58,4.8,1.72c.88.82,1.93,2.31,1.93,4.68v5.21l.2-.22c.14-.15.28-.29.4-.41l.1-.1c.59-.55,1.25-.98,1.97-1.28,1.54-.64,3.42-.63,5.05.05.77.32,1.46.76,2.05,1.31.61.56,1.1,1.22,1.47,1.96.44.88.66,1.8.66,2.74,0,.04-.01.08-.01.13,0,.04.01.08.01.12s-.01.08-.01.13c0,.04.01.08.01.12s-.01.08-.01.13c0,.04.01.08.01.12s-.01.08-.01.13c0,.04.01.08.01.12s-.01.08-.01.13c0,.04.01.08.01.12s-.01.08-.01.13c0,.04.01.08.01.12s-.01.08-.01.13c0,.04.01.08.01.12s-.01.08-.01.13c0,.04.01.08.01.12s-.01.08-.01.13c0,.04.01.08.01.12s-.01.08-.01.13c0,.04.01.08.01.12,0,.83-.18,1.65-.53,2.45-.33.74-.82,1.44-1.5,2.12l-1.52,1.47,2.24,2.78c.4.46.77,1.04,1.05,1.65.39.83.58,1.71.58,2.62,0,.04,0,.08,0,.12,0,.04,0,.09,0,.13Z"/>
    <g>
      <path class="cls-3" d="M51.09,101.58s.01-.08.01-.12c0-.33-.07-.65-.2-.93-.13-.29-.32-.57-.54-.83l-4.53-5.61,4.09-3.97c.32-.32.55-.62.67-.91.13-.29.19-.57.19-.83,0-.04-.01-.08-.01-.12,0-.04.01-.09.01-.13s-.01-.08-.01-.12c0-.04.01-.09.01-.13s-.01-.08-.01-.12c0-.04.01-.09.01-.13s-.01-.08-.01-.12c0-.04.01-.09.01-.13s-.01-.08-.01-.12c0-.04.01-.09.01-.13s-.01-.08-.01-.12c0-.04.01-.09.01-.13s-.01-.08-.01-.12c0-.04.01-.09.01-.13s-.01-.08-.01-.12c0-.04.01-.09.01-.13s-.01-.08-.01-.12c0-.04.01-.09.01-.13s-.01-.08-.01-.12c0-.04.01-.09.01-.13,0-.32-.08-.63-.23-.94-.15-.31-.36-.58-.61-.81s-.55-.42-.88-.56c-.33-.14-.68-.21-1.04-.21s-.66.06-.93.17-.53.28-.75.49c-.11.11-.22.23-.35.36-.13.13-.29.3-.47.5l-6.62,7.26v-15.51c0-.76-.22-1.35-.67-1.78-.45-.42-1.13-.63-2.06-.63s-1.61.21-2.06.63-.67,1.01-.67,1.78v27.57c0,.76.22,1.36.67,1.78.45.42,1.13.63,2.06.63s1.61-.21,2.06-.63.67-1.01.67-1.78v-8.24l6.74,9.04c.15.2.28.37.39.51.11.14.24.28.39.43.23.23.48.41.76.53.28.13.59.19.94.19s.72-.07,1.07-.2.67-.32.95-.56c.28-.24.51-.52.69-.85s.27-.69.27-1.07c0-.05-.01-.09-.01-.13,0-.04.01-.08.01-.12,0-.05-.01-.09-.01-.13,0-.04.01-.08.01-.12,0-.05-.01-.09-.01-.13,0-.04.01-.08.01-.12,0-.05-.01-.09-.01-.13,0-.04.01-.08.01-.12,0-.05-.01-.09-.01-.13,0-.04.01-.08.01-.12,0-.05-.01-.09-.01-.13,0-.04.01-.08.01-.12,0-.05-.01-.09-.01-.13,0-.04.01-.08.01-.12,0-.05-.01-.09-.01-.13,0-.04.01-.08.01-.12,0-.05-.01-.09-.01-.13,0-.04.01-.08.01-.12,0-.05-.01-.09-.01-.13Z"/>
      <path class="cls-3" d="M28.03,92c-.42-1.04-1.09-1.94-2.01-2.71s-2.1-1.39-3.54-1.86c-1.41-.46-3.11-.73-5.1-.81l.16-3.39h8.41c.58,0,1.04-.18,1.39-.55.35-.37.52-.93.52-1.68,0-.04,0-.08,0-.12,0-.04,0-.08,0-.13s0-.08,0-.12c0-.04,0-.08,0-.13s0-.08,0-.12c0-.04,0-.08,0-.13s0-.08,0-.12c0-.04,0-.08,0-.13s0-.08,0-.12c0-.04,0-.08,0-.13s0-.08,0-.12c0-.04,0-.08,0-.13s0-.08,0-.12c0-.04,0-.08,0-.13s0-.08,0-.12c0-.04,0-.08,0-.13s0-.08,0-.12c0-.04,0-.08,0-.13s0-.08,0-.12c0-.04,0-.08,0-.13,0-.74-.17-1.29-.52-1.66-.35-.37-.81-.55-1.39-.55h-10.55c-.74,0-1.3.18-1.68.54-.38.36-.59.9-.61,1.63l-.52,10.34c0,.06,0,.11,0,.17v.08c0,.06,0,.11,0,.17v.08c0,.06,0,.11,0,.17v.08c0,.06,0,.11,0,.17v.08c0,.06,0,.11,0,.17v.08c0,.06,0,.11,0,.17v.08c0,.06,0,.11,0,.17v.08c0,.06,0,.11,0,.17v.08c0,.06,0,.11,0,.17v.08c0,.06,0,.11,0,.17v.08c-.03.67.11,1.17.42,1.51.31.33.8.5,1.49.5,1.54,0,2.85.13,3.93.38s1.97.61,2.66,1.05c.69.45,1.19.98,1.5,1.6.13.25.22.52.3.79-.05.18-.08.37-.15.54-.21.54-.53,1.01-.95,1.4s-.94.69-1.56.9-1.32.32-2.11.32-1.47-.06-2-.18c-.53-.12-.98-.25-1.37-.39-.38-.14-.71-.27-.98-.39s-.56-.18-.85-.18c-.51,0-.92.16-1.24.48-.32.32-.48.76-.48,1.33,0,.04,0,.08.01.12,0,.05-.01.09-.01.13,0,.04,0,.08.01.12,0,.05-.01.09-.01.13,0,.04,0,.08.01.12,0,.05-.01.09-.01.13,0,.04,0,.08.01.12,0,.05-.01.09-.01.13,0,.04,0,.08.01.12,0,.05-.01.09-.01.13,0,.04,0,.08.01.12,0,.05-.01.09-.01.13,0,.04,0,.08.01.12,0,.05-.01.09-.01.13,0,.04,0,.08.01.12,0,.05-.01.09-.01.13,0,.04,0,.08.01.12,0,.05-.01.09-.01.13,0,.04,0,.08.01.12,0,.05-.01.09-.01.13,0,.39.06.72.19.99.13.27.31.53.55.77.19.19.46.38.81.57.35.19.79.37,1.32.52.52.15,1.13.28,1.82.38.69.1,1.46.15,2.3.15,1.7,0,3.21-.22,4.51-.65,1.31-.44,2.4-1.05,3.29-1.84.88-.79,1.55-1.73,2-2.83s.67-2.31.67-3.63c0-.04,0-.08,0-.12,0-.04,0-.08,0-.13s0-.08,0-.12c0-.04,0-.08,0-.13s0-.08,0-.12c0-.04,0-.08,0-.13s0-.08,0-.12c0-.04,0-.08,0-.13s0-.08,0-.12c0-.04,0-.08,0-.13s0-.08,0-.12c0-.04,0-.08,0-.13s0-.08,0-.12c0-.04,0-.08,0-.13s0-.08,0-.12c0-.04,0-.08,0-.13s0-.08,0-.12c0-.04,0-.08,0-.13s0-.08,0-.12c0-.04,0-.08,0-.13,0-1.22-.21-2.35-.63-3.38Z"/>
    </g>
    <g>
      <path class="cls-1" d="M17.26,86.61c2.04.08,3.78.35,5.22.82,1.44.47,2.62,1.09,3.54,1.86s1.59,1.67,2.01,2.71c.42,1.04.63,2.17.63,3.38,0,1.32-.22,2.54-.67,3.63s-1.12,2.04-2,2.83c-.88.79-1.98,1.4-3.29,1.84-1.31.43-2.81.65-4.51.65-.84,0-1.61-.05-2.3-.15-.69-.1-1.3-.23-1.82-.38-.52-.15-.96-.33-1.32-.52-.36-.19-.63-.38-.81-.57-.24-.24-.42-.5-.55-.77-.13-.27-.19-.6-.19-.99,0-.56.16-1,.48-1.33.32-.32.74-.48,1.24-.48.29,0,.58.06.85.18s.6.25.98.39c.38.14.84.27,1.37.39.53.12,1.19.18,2,.18s1.49-.11,2.11-.32,1.13-.52,1.56-.9.74-.85.95-1.4.32-1.15.32-1.82c0-.72-.16-1.39-.47-2.01s-.82-1.15-1.5-1.6c-.69-.45-1.58-.8-2.66-1.05s-2.4-.38-3.93-.38c-.68,0-1.18-.17-1.49-.5-.31-.33-.45-.84-.42-1.51l.52-10.34c.03-.72.23-1.26.61-1.63.38-.36.94-.54,1.68-.54h10.55c.58,0,1.04.18,1.39.55.35.37.52.92.52,1.66s-.17,1.31-.52,1.68c-.35.37-.81.55-1.39.55h-8.41l-.28,5.88Z"/>
      <path class="cls-1" d="M45.5,84.86c.19-.2.34-.37.47-.5.13-.13.24-.25.35-.36.23-.21.48-.38.75-.49s.58-.17.93-.17.71.07,1.04.21c.33.14.63.33.88.56s.46.5.61.81c.15.31.23.62.23.94,0,.27-.06.55-.19.83-.13.29-.35.59-.67.91l-5.22,5.07,5.66,7.02c.23.27.41.54.54.83.13.29.2.6.2.93,0,.39-.09.75-.27,1.07s-.41.61-.69.85c-.28.24-.6.43-.95.56s-.71.2-1.07.2-.66-.06-.94-.19c-.28-.13-.54-.3-.76-.53-.15-.15-.28-.29-.39-.43-.11-.14-.24-.31-.39-.51l-6.74-9.04v8.24c0,.76-.22,1.36-.67,1.78s-1.13.63-2.06.63-1.61-.21-2.06-.63c-.45-.42-.67-1.01-.67-1.78v-25.07c0-.76.22-1.35.67-1.78s1.13-.63,2.06-.63,1.61.21,2.06.63c.45.42.67,1.01.67,1.78v15.51l6.62-7.26Z"/>
    </g>
  </g>
</svg>