<?xml version="1.0" encoding="UTF-8"?>
<svg id="Icon" xmlns="http://www.w3.org/2000/svg" viewBox="0 0 120 120">
  <defs>
    <style>
      .cls-1 {
        fill: #3288d6;
      }

      .cls-2 {
        fill: #4d4d4d;
      }

      .cls-3 {
        fill: #fff;
      }

      .cls-4 {
        fill: #dfedf2;
      }

      .cls-5 {
        fill: #333;
      }

      .cls-6 {
        fill: #47acea;
      }
    </style>
  </defs>
  <path class="cls-5" d="M103.58,28.42v40.57c3.16.76,5.52,3.61,5.52,7v7.43c0,3.97-3.23,7.21-7.21,7.21h-9.24l5.57,15.95c.69,1.98.38,4.19-.84,5.9-1.21,1.71-3.19,2.73-5.29,2.73h-4.37c-2.76,0-5.22-1.75-6.13-4.35l-7.06-20.23h-29.06l-7.07,20.23c-.9,2.6-3.36,4.35-6.12,4.35h-4.37c-2.1,0-4.08-1.02-5.29-2.73-1.22-1.71-1.53-3.92-.84-5.9l5.57-15.95h-9.24c-3.98,0-7.21-3.24-7.21-7.21v-7.43c0-3.39,2.36-6.24,5.52-7V28.42c-3.16-.76-5.52-3.61-5.52-7v-7.43c0-3.97,3.23-7.2,7.21-7.2h83.78c3.98,0,7.21,3.23,7.21,7.2v7.43c0,3.39-2.36,6.24-5.52,7Z"/>
  <g>
    <path class="cls-2" d="M53.2,56.37h-9.64l-18,51.53c-.57,1.62.64,3.31,2.35,3.31h4.37c1.06,0,2-.67,2.35-1.67l18.57-53.17Z"/>
    <path class="cls-2" d="M66.8,56.37h9.64l18,51.53c.57,1.62-.64,3.31-2.35,3.31h-4.37c-1.06,0-2-.67-2.35-1.67l-18.57-53.17Z"/>
    <rect class="cls-3" x="20.42" y="16.87" width="79.17" height="58.65"/>
    <rect class="cls-4" x="20.42" y="16.87" width="79.17" height="11.39"/>
    <rect class="cls-1" x="14.9" y="10.78" width="90.2" height="13.84" rx="3.21" ry="3.21"/>
    <rect class="cls-6" x="14.9" y="10.78" width="90.2" height="10.23" rx="3.21" ry="3.21"/>
    <rect class="cls-1" x="14.9" y="72.78" width="90.2" height="13.84" rx="3.21" ry="3.21"/>
    <rect class="cls-6" x="14.9" y="72.78" width="90.2" height="10.23" rx="3.21" ry="3.21"/>
    <g>
      <path d="M37.82,38.24c-.04-.17-.07-.3-.08-.36s-.02-.13-.02-.19c0-.15.04-.29.11-.41s.16-.22.27-.3.23-.14.37-.18.28-.06.41-.06c.15,0,.28.02.4.07s.21.11.29.18c.1.1.16.21.2.33s.08.27.12.43l1.44,6.04c.05.21.09.41.12.59.03.18.06.34.09.49.03.17.05.32.06.46h.03c.02-.13.04-.28.07-.45.03-.14.05-.3.09-.49s.08-.39.13-.6l1.42-5.87c.1-.43.27-.74.52-.92.24-.18.56-.26.96-.26s.72.09.96.26.42.48.52.92l1.4,5.85c.05.2.09.4.13.59.04.19.07.35.1.5.03.17.06.33.08.48h.03c.03-.16.05-.32.08-.49.03-.15.05-.31.09-.5.03-.18.07-.37.12-.57l1.35-6.03c.04-.17.08-.32.12-.44s.1-.24.18-.32.19-.15.31-.2.25-.07.39-.07c.13,0,.26.02.39.06s.25.1.35.17.19.17.26.28.1.24.1.38c0,.03,0,.05,0,.08s0,.06-.02.1-.02.09-.03.15-.03.13-.05.21l-1.99,7.89c-.06.21-.12.4-.19.57s-.16.3-.27.41c-.13.13-.3.23-.5.3s-.44.1-.72.1-.51-.03-.7-.1-.35-.16-.48-.3c-.11-.11-.2-.25-.26-.41s-.12-.35-.18-.57l-1.37-5.64c-.04-.17-.08-.35-.11-.53s-.06-.34-.09-.48c-.03-.17-.05-.33-.08-.48h-.03c-.02.15-.04.31-.07.48-.03.14-.05.3-.09.48s-.07.35-.11.53l-1.37,5.63c-.06.21-.12.4-.18.57s-.15.3-.26.41c-.13.13-.29.23-.48.3s-.42.1-.71.1-.51-.03-.71-.1-.37-.16-.5-.3c-.11-.11-.2-.25-.27-.41s-.13-.35-.19-.57l-1.98-7.81Z"/>
      <path d="M52.93,42.24c0-.87.13-1.66.38-2.35s.6-1.28,1.06-1.76,1-.85,1.64-1.1,1.35-.38,2.12-.38,1.44.12,2.05.36,1.14.59,1.58,1.05.77,1.01,1.01,1.67.36,1.4.36,2.22c0,.87-.13,1.66-.38,2.35s-.6,1.28-1.06,1.76-1,.85-1.64,1.1-1.34.38-2.12.38-1.44-.12-2.05-.36-1.14-.59-1.58-1.04-.78-1.01-1.02-1.66-.36-1.4-.36-2.22ZM55.12,42.08c0,.61.08,1.15.23,1.62s.36.86.62,1.18.57.56.93.72.73.24,1.14.24.78-.08,1.13-.24.66-.39.92-.71.47-.7.61-1.17.22-1,.22-1.61-.08-1.16-.23-1.63-.36-.86-.62-1.18-.58-.55-.93-.71-.73-.24-1.14-.24-.78.08-1.13.24-.66.39-.92.71-.47.7-.62,1.17-.23,1-.23,1.62Z"/>
      <path d="M67.19,46.48c0,.3-.09.53-.26.7s-.44.25-.79.25-.63-.08-.8-.25-.25-.4-.25-.7v-8.7c0-.31.08-.55.25-.72s.41-.26.72-.26h2.25c.72,0,1.34.07,1.87.22s.96.36,1.3.62.59.59.75.95.24.77.24,1.2c0,.36-.05.7-.15,1s-.25.58-.43.83-.41.46-.67.64-.55.32-.87.43l1.98,3.04c.09.13.15.25.19.35s.06.2.06.31c0,.15-.03.28-.1.41s-.16.24-.27.33-.24.17-.39.22-.29.08-.44.08-.28-.02-.39-.07-.21-.11-.29-.2c-.03-.03-.06-.06-.09-.09s-.05-.06-.08-.1-.05-.07-.07-.12-.05-.09-.08-.14l-2.13-3.6h-1.06v3.34ZM68.27,41.52c.34,0,.64-.04.9-.12s.47-.18.64-.32.29-.3.38-.5.12-.41.12-.64-.04-.44-.12-.62-.2-.35-.36-.48-.38-.23-.65-.3-.59-.11-.97-.11h-1.02v3.08h1.08Z"/>
      <path d="M80.14,37.33c.06-.07.11-.13.15-.18s.09-.09.13-.13c.08-.08.18-.15.29-.2s.23-.08.37-.08.28.03.42.08.26.13.36.22.19.2.25.32.1.25.1.39c0,.11-.02.21-.06.31s-.11.2-.2.31l-3.12,3.46,3.12,3.8s.08.1.12.15.08.12.11.18.06.13.08.2.03.14.03.22c0,.15-.03.29-.1.42s-.16.25-.27.35-.24.18-.38.24-.29.09-.44.09c-.14,0-.26-.02-.38-.07s-.21-.11-.3-.2c-.05-.05-.09-.1-.14-.15s-.1-.13-.18-.22l-3.51-4.47v4.15c0,.3-.09.53-.26.7s-.44.25-.81.25-.63-.08-.81-.25-.26-.4-.26-.7v-8.79c0-.3.09-.53.26-.7s.44-.25.81-.25.64.08.81.25.26.4.26.7v3.98l3.55-4.34Z"/>
      <path d="M40.66,55.48c0-.44.08-.86.25-1.24.16-.38.41-.71.73-.99.32-.28.73-.5,1.21-.65s1.04-.23,1.67-.23c.32,0,.61.02.87.06.26.04.49.09.7.15.2.06.38.14.53.22.15.08.26.16.34.24.11.11.19.22.23.33s.06.23.06.36c0,.24-.07.42-.21.54-.14.13-.31.19-.53.19-.13,0-.25-.02-.36-.07s-.25-.1-.4-.15c-.15-.06-.33-.11-.54-.15-.21-.05-.47-.07-.78-.07-.28,0-.52.03-.73.09-.2.06-.38.14-.51.25-.14.11-.24.24-.3.39-.06.15-.1.31-.1.49,0,.26.07.47.21.64.14.17.32.32.55.44.23.12.49.23.78.33.29.1.59.2.89.31s.6.24.89.39.55.34.78.57.41.5.55.83c.14.33.21.72.21,1.19s-.09.91-.26,1.31c-.17.4-.43.75-.76,1.04-.34.29-.76.52-1.27.68s-1.1.25-1.77.25c-.36,0-.68-.02-.97-.07-.29-.04-.54-.1-.76-.16s-.41-.14-.56-.22-.26-.16-.34-.24c-.11-.11-.18-.21-.23-.32s-.07-.24-.07-.38c0-.24.07-.43.21-.56s.31-.2.53-.2c.13,0,.25.03.36.08s.25.11.42.16.36.11.6.16.54.08.91.08c.31,0,.58-.03.81-.1s.42-.16.56-.28.26-.26.33-.43.11-.35.11-.55c0-.28-.07-.5-.21-.69s-.32-.34-.55-.47-.49-.25-.78-.35-.59-.21-.89-.33-.6-.24-.89-.39-.55-.32-.78-.54-.41-.49-.55-.8-.21-.69-.21-1.13Z"/>
      <path d="M51.81,62.19c0,.3-.09.53-.26.7s-.44.25-.81.25-.63-.08-.81-.25-.26-.4-.26-.7v-8.79c0-.3.09-.53.26-.7s.44-.25.81-.25.64.08.81.25.26.4.26.7v3.43h4.25v-3.43c0-.3.09-.53.26-.7s.44-.25.81-.25.62.08.8.25.26.4.26.7v8.79c0,.3-.09.53-.26.7s-.44.25-.81.25-.64-.08-.81-.25-.26-.4-.26-.7v-3.63h-4.25v3.63Z"/>
      <path d="M60.16,57.94c0-.87.13-1.66.38-2.35s.6-1.28,1.06-1.76,1-.85,1.64-1.1,1.35-.38,2.12-.38,1.44.12,2.05.36,1.14.59,1.58,1.05.77,1.01,1.01,1.67.36,1.4.36,2.22c0,.87-.13,1.66-.38,2.35s-.6,1.28-1.06,1.76-1,.85-1.64,1.1-1.34.38-2.12.38-1.44-.12-2.05-.36-1.14-.59-1.58-1.04-.78-1.01-1.02-1.66-.36-1.4-.36-2.22ZM62.35,57.78c0,.61.08,1.15.23,1.62s.36.86.62,1.18.57.56.93.72.73.24,1.14.24.78-.08,1.13-.24.66-.39.92-.71.47-.7.61-1.17.22-1,.22-1.61-.08-1.16-.23-1.63-.36-.86-.62-1.18-.58-.55-.93-.71-.73-.24-1.14-.24-.78.08-1.13.24-.66.39-.92.71-.47.7-.62,1.17-.23,1-.23,1.62Z"/>
      <path d="M74.44,62.19c0,.3-.09.53-.26.7s-.44.25-.81.25-.64-.08-.81-.25-.25-.4-.25-.7v-8.7c0-.31.08-.55.25-.72s.41-.26.72-.26h2.22c.68,0,1.27.08,1.77.23s.92.38,1.25.66.58.62.74,1.02.25.84.25,1.32c0,.54-.09,1.02-.26,1.46s-.44.81-.79,1.11-.78.54-1.31.71-1.13.25-1.83.25h-.9v2.91ZM75.46,57.67c.61,0,1.08-.16,1.41-.48s.5-.76.5-1.31-.16-.99-.48-1.28-.81-.45-1.49-.45h-.96v3.53h1.01Z"/>
    </g>
  </g>
</svg>