<?xml version="1.0" encoding="UTF-8"?>
<svg id="Icon" xmlns="http://www.w3.org/2000/svg" viewBox="0 0 120 120">
  <defs>
    <style>
      .cls-1 {
        fill: #e1fcc5;
      }

      .cls-2 {
        fill: #12993f;
      }

      .cls-3 {
        fill: #1cb829;
      }

      .cls-4 {
        fill: #34d434;
      }

      .cls-5 {
        fill: #086d3b;
      }

      .cls-6 {
        fill: #05542a;
      }
    </style>
  </defs>
  <g>
    <path class="cls-6" d="M114.94,57.2v17.43s-.01.08-.02.12c0,.17-.02.34-.04.51-.01.07-.02.13-.04.19-.04.21-.09.41-.17.61-.01.02-.01.03-.02.05-.08.2-.17.38-.28.56-.03.05-.07.11-.1.16-.09.13-.18.26-.29.38-.04.05-.08.1-.12.15-.14.14-.28.27-.43.39-.01.02-.03.03-.05.05-.17.13-.35.24-.54.35-.06.03-.12.05-.18.08-.14.07-.29.13-.44.18-.06.02-.13.05-.19.07-.22.06-.44.11-.66.13l-2.05.22v14.55s-.01.08-.01.12c0,.17-.02.34-.05.51-.01.06-.02.13-.03.19-.04.21-.1.41-.17.61-.01.02-.01.03-.02.05-.08.19-.17.38-.28.56-.03.05-.07.11-.11.16-.08.13-.18.26-.28.38-.04.05-.08.1-.13.15-.13.14-.27.27-.42.39-.02.02-.03.03-.05.05-.17.13-.35.24-.54.34-.06.04-.12.06-.18.09-.14.07-.29.13-.44.18-.07.02-.13.05-.2.06-.21.07-.43.11-.65.14l-43.22,4.71c-.14.02-.28.03-.43.03-.27,0-.53-.03-.79-.09h-.05c-.07-.02-.13-.05-.2-.07-.17-.04-.34-.09-.5-.16-.03-.01-.07-.02-.1-.04-.06-.02-.11-.06-.17-.09-.15-.08-.29-.16-.43-.25-.04-.03-.09-.05-.13-.08-.05-.04-.08-.08-.13-.11-.05-.05-.12-.09-.17-.13-.06-.06-.11-.13-.16-.19-.06-.05-.13-.1-.18-.16l-13.15-15s-.05-.07-.08-.1l-23.22,2.53c-.14.02-.29.02-.43.02-.27,0-.53-.03-.79-.08-.02,0-.04,0-.05-.01-.07-.01-.13-.04-.2-.06-.17-.04-.34-.1-.5-.16-.04-.02-.07-.02-.11-.04-.06-.03-.11-.07-.17-.1-.14-.07-.28-.15-.42-.25-.04-.03-.09-.04-.14-.08-.04-.03-.08-.07-.12-.11-.06-.04-.12-.08-.17-.13-.07-.05-.11-.12-.17-.18-.05-.06-.12-.1-.17-.16l-13.15-15c-.15-.17-.27-.35-.39-.53-.03-.06-.06-.11-.09-.17-.08-.14-.15-.28-.21-.43-.02-.06-.05-.12-.07-.18-.06-.18-.12-.37-.15-.55-.01-.03-.02-.05-.02-.07-.04-.22-.06-.43-.06-.65,0-.02-.01-.04-.01-.06v-17.43s.01-.1.02-.16c0-.11.01-.23.02-.35.01-.08.03-.16.04-.24.02-.11.05-.22.08-.32.02-.09.05-.17.08-.25.01-.04.02-.09.04-.13.02-.06.05-.11.08-.17.03-.08.06-.15.1-.23.06-.1.11-.19.17-.29.05-.06.09-.13.13-.2.07-.09.15-.18.22-.27.05-.05.1-.11.15-.17.09-.09.18-.17.28-.26.05-.04.09-.08.14-.12.15-.12.31-.22.48-.32.03-.02.07-.03.11-.05.13-.07.27-.14.41-.2.02,0,.03,0,.05-.02.05-.02.11-.02.16-.04.12-.04.23-.08.35-.1.08-.02.17-.04.25-.05.07-.01.14-.03.21-.04l6.27-.68v-14.61s0-.11,0-.16c0-.12.01-.23.03-.35.01-.08.02-.16.04-.24.02-.11.04-.22.07-.33.03-.08.05-.16.08-.24.01-.05.02-.09.04-.13.02-.06.05-.11.08-.17.03-.08.07-.16.11-.23.05-.1.11-.19.17-.29.04-.07.08-.13.13-.2.06-.09.14-.18.21-.27.05-.05.1-.11.15-.17.09-.09.19-.17.28-.26.05-.04.1-.08.15-.12.15-.12.3-.22.47-.32.04-.02.07-.03.11-.05.14-.07.27-.14.42-.2.01,0,.02-.01.04-.02.05-.02.11-.03.16-.04.12-.04.24-.08.36-.11.08-.02.16-.03.24-.04.07-.01.14-.03.21-.04l14.79-1.61v-.27c0-.06.01-.11.01-.16,0-.12.01-.23.03-.35.01-.08.02-.16.04-.24.02-.11.04-.22.07-.33.03-.08.05-.16.08-.24.01-.05.02-.09.04-.13.02-.06.05-.11.08-.17.03-.08.07-.16.11-.23.05-.1.11-.19.16-.29.05-.07.09-.13.14-.2.06-.09.14-.18.21-.27.05-.06.1-.11.15-.17.09-.09.19-.17.28-.26.05-.04.1-.08.15-.12.15-.12.3-.23.47-.32.04-.02.07-.03.11-.05.14-.07.27-.14.42-.2.01,0,.02-.01.04-.02.05-.02.11-.03.16-.04.12-.04.23-.08.35-.11.09-.02.17-.03.25-.04.07-.01.14-.03.21-.04l43.22-4.71c1.3-.15,2.58.36,3.44,1.34l13.15,15c.06.07.1.14.16.21.03.04.07.09.1.13.14.21.26.42.37.63.01.04.03.08.04.12.09.2.15.41.2.61.01.05.03.1.04.15.05.24.07.49.08.73v1.36c1.21-.05,2.38.44,3.18,1.35l13.15,15.01c.06.06.11.13.16.2.04.05.07.09.11.14.14.2.26.41.36.63.02.04.03.08.05.12.08.2.15.4.2.61.01.05.02.1.03.15.05.24.08.48.08.73,0,.02.01.03.01.05Z"/>
    <g>
      <polygon class="cls-2" points="75.26 60.2 32.05 64.91 18.9 49.91 62.11 45.19 75.26 60.2"/>
      <polygon class="cls-4" points="75.26 42.77 32.05 47.48 18.9 32.48 62.11 27.76 75.26 42.77"/>
      <polygon class="cls-2" points="32.75 46.04 21.79 33.53 61.41 29.21 72.37 41.71 32.75 46.04"/>
      <path class="cls-4" d="M31.81,42.71l-5.48-6.25c1.49-.16,1.96-1.13,1.06-2.17l30.61-3.34c.91,1.04,2.85,1.74,4.34,1.58l5.48,6.25c-1.49.16-1.96,1.13-1.06,2.17l-30.61,3.34c-.91-1.04-2.85-1.74-4.34-1.58Z"/>
      <g>
        <path class="cls-2" d="M37.37,37.63s-.08.04-.11.06-.06.03-.08.04-.05.02-.08.03-.05.01-.08.01c-.06,0-.12,0-.18,0s-.12-.03-.18-.05-.11-.05-.16-.08-.09-.07-.12-.1c-.07-.08-.09-.15-.06-.22.02-.04.08-.11.17-.19s.21-.18.37-.29c.08-.06.16-.12.22-.16s.13-.08.18-.11.11-.05.17-.07.11-.03.18-.04c.17-.02.32,0,.47.05s.27.14.37.25l2.89,3.3c.1.11.13.2.09.27s-.16.11-.35.14-.36,0-.5-.04-.26-.13-.36-.24l-2.45-2.8-.42.24Z"/>
        <path class="cls-2" d="M41.15,38.33c-.31-.35-.52-.66-.63-.94s-.14-.51-.08-.71.19-.35.41-.47.49-.2.84-.23.68-.03,1.03.02.69.14,1.03.29.68.33,1,.57.64.53.94.86.52.66.63.94.14.51.08.71-.19.35-.41.47-.49.2-.83.23-.68.03-1.03-.02-.69-.14-1.04-.29-.68-.33-1-.57-.64-.53-.94-.86ZM42.23,38.15c.23.26.46.48.69.66s.44.31.65.42.41.17.6.21.36.04.52.03.29-.06.38-.12.15-.16.16-.29-.04-.28-.13-.47-.26-.41-.49-.68-.46-.48-.69-.66-.44-.31-.65-.42-.41-.17-.6-.21-.36-.04-.52-.03-.29.06-.38.12-.15.16-.16.28.04.28.13.47.26.41.49.68Z"/>
        <path class="cls-2" d="M46.66,37.73c-.31-.35-.52-.66-.63-.94s-.14-.51-.08-.71.19-.35.41-.47.49-.2.84-.23.68-.03,1.03.02.69.14,1.03.29.68.33,1,.57.64.53.94.86.52.66.63.94.14.51.08.71-.19.35-.41.47-.49.2-.83.23-.68.03-1.03-.02-.69-.14-1.04-.29-.68-.33-1-.57-.64-.53-.94-.86ZM47.75,37.55c.23.26.46.48.69.66s.44.31.65.42.41.17.6.21.36.04.52.03.29-.06.38-.12.15-.16.16-.29-.04-.28-.13-.47-.26-.41-.49-.68-.46-.48-.69-.66-.44-.31-.65-.42-.41-.17-.6-.21-.36-.04-.52-.03-.29.06-.38.12-.15.16-.16.28.04.28.13.47.26.41.49.68Z"/>
        <path class="cls-2" d="M52.18,37.12c-.31-.35-.52-.66-.63-.94s-.14-.51-.08-.71.19-.35.41-.47.49-.2.84-.23.68-.03,1.03.02.69.14,1.03.29.68.33,1,.57.64.53.94.86.52.66.63.94.14.51.08.71-.19.35-.41.47-.49.2-.83.23-.68.03-1.03-.02-.69-.14-1.04-.29-.68-.33-1-.57-.64-.53-.94-.86ZM53.26,36.94c.23.26.46.48.69.66s.44.31.65.42.41.17.6.21.36.04.52.03.29-.06.38-.12.15-.16.16-.29-.04-.28-.13-.47-.26-.41-.49-.68-.46-.48-.69-.66-.44-.31-.65-.42-.41-.17-.6-.21-.36-.04-.52-.03-.29.06-.38.12-.15.16-.16.28.04.28.13.47.26.41.49.68Z"/>
      </g>
      <polygon class="cls-3" points="32.05 47.48 32.05 64.91 18.9 49.91 18.9 32.48 32.05 47.48"/>
      <polygon class="cls-2" points="32.05 47.48 32.05 64.91 75.26 60.2 75.26 42.77 32.05 47.48"/>
      <g>
        <polygon class="cls-5" points="32.05 48.69 32.05 49.13 75.26 44.42 75.26 43.97 32.05 48.69"/>
        <polygon class="cls-5" points="32.05 50.54 32.05 50.99 75.26 46.27 75.26 45.83 32.05 50.54"/>
        <polygon class="cls-5" points="32.05 52.39 32.05 52.84 75.26 48.13 75.26 47.68 32.05 52.39"/>
        <polygon class="cls-5" points="32.05 54.25 32.05 54.69 75.26 49.98 75.26 49.53 32.05 54.25"/>
        <polygon class="cls-5" points="32.05 56.1 32.05 56.55 75.26 51.83 75.26 51.38 32.05 56.1"/>
        <polygon class="cls-5" points="32.05 57.95 32.05 58.4 75.26 53.68 75.26 53.24 32.05 57.95"/>
        <polygon class="cls-5" points="32.05 59.81 32.05 60.25 75.26 55.54 75.26 55.09 32.05 59.81"/>
        <polygon class="cls-5" points="32.05 61.66 32.05 62.1 75.26 57.39 75.26 56.94 32.05 61.66"/>
        <polygon class="cls-5" points="32.05 63.51 32.05 63.96 75.26 59.24 75.26 58.8 32.05 63.51"/>
      </g>
      <g>
        <polygon class="cls-2" points="32.05 48.69 32.05 49.13 18.9 34.31 18.9 33.87 32.05 48.69"/>
        <polygon class="cls-2" points="32.05 50.54 32.05 50.99 18.9 36.17 18.9 35.72 32.05 50.54"/>
        <polygon class="cls-2" points="32.05 52.39 32.05 52.84 18.9 38.02 18.9 37.57 32.05 52.39"/>
        <polygon class="cls-2" points="32.05 54.25 32.05 54.69 18.9 39.87 18.9 39.43 32.05 54.25"/>
        <polygon class="cls-2" points="32.05 56.1 32.05 56.55 18.9 41.72 18.9 41.28 32.05 56.1"/>
        <polygon class="cls-2" points="32.05 57.95 32.05 58.4 18.9 43.58 18.9 43.13 32.05 57.95"/>
        <polygon class="cls-2" points="32.05 59.81 32.05 60.25 18.9 45.43 18.9 44.98 32.05 59.81"/>
        <polygon class="cls-2" points="32.05 61.66 32.05 62.1 18.9 47.28 18.9 46.84 32.05 61.66"/>
        <polygon class="cls-2" points="32.05 63.51 32.05 63.96 18.9 49.13 18.9 48.69 32.05 63.51"/>
      </g>
    </g>
    <g>
      <polygon class="cls-2" points="110.94 74.63 67.72 79.35 54.57 64.34 97.78 59.63 110.94 74.63"/>
      <polygon class="cls-4" points="110.94 57.2 67.72 61.92 54.57 46.91 97.78 42.2 110.94 57.2"/>
      <polygon class="cls-2" points="68.43 60.47 57.47 47.97 97.08 43.65 108.04 56.15 68.43 60.47"/>
      <path class="cls-4" d="M67.49,57.15l-5.48-6.25c1.49-.16,1.96-1.13,1.06-2.17l30.61-3.34c.91,1.04,2.85,1.74,4.34,1.58l5.48,6.25c-1.49.16-1.96,1.13-1.06,2.17l-30.61,3.34c-.91-1.04-2.85-1.74-4.34-1.58Z"/>
      <g>
        <path class="cls-2" d="M73.05,52.07s-.08.04-.11.06-.06.03-.08.04-.05.02-.08.03-.05.01-.08.01c-.06,0-.12,0-.18,0s-.12-.03-.18-.05-.11-.05-.16-.08-.09-.07-.12-.1c-.07-.08-.09-.15-.06-.22.02-.04.08-.11.17-.19s.21-.18.37-.29c.08-.06.16-.12.22-.16s.13-.08.18-.11.11-.05.17-.07.11-.03.18-.04c.17-.02.32,0,.47.05s.27.14.37.25l2.89,3.3c.1.11.13.2.09.27s-.16.11-.35.14-.36,0-.5-.04-.26-.13-.36-.24l-2.45-2.8-.42.24Z"/>
        <path class="cls-2" d="M76.82,52.76c-.31-.35-.52-.66-.63-.94s-.14-.51-.08-.71.19-.35.41-.47.49-.2.84-.23.68-.03,1.03.02.69.14,1.03.29.68.33,1,.57.64.53.94.86.52.66.63.94.14.51.08.71-.19.35-.41.47-.49.2-.83.23-.68.03-1.03-.02-.69-.14-1.04-.29-.68-.33-1-.57-.64-.53-.94-.86ZM77.91,52.58c.23.26.46.48.69.66s.44.31.65.42.41.17.6.21.36.04.52.03.29-.06.38-.12.15-.16.16-.29-.04-.28-.13-.47-.26-.41-.49-.68-.46-.48-.69-.66-.44-.31-.65-.42-.41-.17-.6-.21-.36-.04-.52-.03-.29.06-.38.12-.15.16-.16.28.04.28.13.47.26.41.49.68Z"/>
        <path class="cls-2" d="M82.34,52.16c-.31-.35-.52-.66-.63-.94s-.14-.51-.08-.71.19-.35.41-.47.49-.2.84-.23.68-.03,1.03.02.69.14,1.03.29.68.33,1,.57.64.53.94.86.52.66.63.94.14.51.08.71-.19.35-.41.47-.49.2-.83.23-.68.03-1.03-.02-.69-.14-1.04-.29-.68-.33-1-.57-.64-.53-.94-.86ZM83.42,51.98c.23.26.46.48.69.66s.44.31.65.42.41.17.6.21.36.04.52.03.29-.06.38-.12.15-.16.16-.29-.04-.28-.13-.47-.26-.41-.49-.68-.46-.48-.69-.66-.44-.31-.65-.42-.41-.17-.6-.21-.36-.04-.52-.03-.29.06-.38.12-.15.16-.16.28.04.28.13.47.26.41.49.68Z"/>
        <path class="cls-2" d="M87.85,51.56c-.31-.35-.52-.66-.63-.94s-.14-.51-.08-.71.19-.35.41-.47.49-.2.84-.23.68-.03,1.03.02.69.14,1.03.29.68.33,1,.57.64.53.94.86.52.66.63.94.14.51.08.71-.19.35-.41.47-.49.2-.83.23-.68.03-1.03-.02-.69-.14-1.04-.29-.68-.33-1-.57-.64-.53-.94-.86ZM88.93,51.38c.23.26.46.48.69.66s.44.31.65.42.41.17.6.21.36.04.52.03.29-.06.38-.12.15-.16.16-.29-.04-.28-.13-.47-.26-.41-.49-.68-.46-.48-.69-.66-.44-.31-.65-.42-.41-.17-.6-.21-.36-.04-.52-.03-.29.06-.38.12-.15.16-.16.28.04.28.13.47.26.41.49.68Z"/>
      </g>
      <polygon class="cls-3" points="67.72 61.92 67.72 79.35 54.57 64.34 54.57 46.91 67.72 61.92"/>
      <polygon class="cls-2" points="67.72 61.92 67.72 79.35 110.94 74.63 110.94 57.2 67.72 61.92"/>
      <g>
        <polygon class="cls-5" points="67.72 63.13 67.72 63.57 110.94 58.86 110.94 58.41 67.72 63.13"/>
        <polygon class="cls-5" points="67.72 64.98 67.72 65.42 110.94 60.71 110.94 60.26 67.72 64.98"/>
        <polygon class="cls-5" points="67.72 66.83 67.72 67.28 110.94 62.56 110.94 62.12 67.72 66.83"/>
        <polygon class="cls-5" points="67.72 68.68 67.72 69.13 110.94 64.41 110.94 63.97 67.72 68.68"/>
        <polygon class="cls-5" points="67.72 70.54 67.72 70.98 110.94 66.27 110.94 65.82 67.72 70.54"/>
        <polygon class="cls-5" points="67.72 72.39 67.72 72.83 110.94 68.12 110.94 67.67 67.72 72.39"/>
        <polygon class="cls-5" points="67.72 74.24 67.72 74.69 110.94 69.97 110.94 69.53 67.72 74.24"/>
        <polygon class="cls-5" points="67.72 76.09 67.72 76.54 110.94 71.82 110.94 71.38 67.72 76.09"/>
        <polygon class="cls-5" points="67.72 77.95 67.72 78.39 110.94 73.68 110.94 73.23 67.72 77.95"/>
      </g>
      <g>
        <polygon class="cls-2" points="67.72 63.13 67.72 63.57 54.57 48.75 54.57 48.3 67.72 63.13"/>
        <polygon class="cls-2" points="67.72 64.98 67.72 65.42 54.57 50.6 54.57 50.16 67.72 64.98"/>
        <polygon class="cls-2" points="67.72 66.83 67.72 67.28 54.57 52.45 54.57 52.01 67.72 66.83"/>
        <polygon class="cls-2" points="67.72 68.68 67.72 69.13 54.57 54.31 54.57 53.86 67.72 68.68"/>
        <polygon class="cls-2" points="67.72 70.54 67.72 70.98 54.57 56.16 54.57 55.71 67.72 70.54"/>
        <polygon class="cls-2" points="67.72 72.39 67.72 72.83 54.57 58.01 54.57 57.57 67.72 72.39"/>
        <polygon class="cls-2" points="67.72 74.24 67.72 74.69 54.57 59.87 54.57 59.42 67.72 74.24"/>
        <polygon class="cls-2" points="67.72 76.09 67.72 76.54 54.57 61.72 54.57 61.27 67.72 76.09"/>
        <polygon class="cls-2" points="67.72 77.95 67.72 78.39 54.57 63.57 54.57 63.13 67.72 77.95"/>
      </g>
    </g>
    <g>
      <polygon class="cls-2" points="65.43 79.47 22.22 84.18 9.06 69.18 52.28 64.46 65.43 79.47"/>
      <polygon class="cls-4" points="65.43 62.04 22.22 66.75 9.06 51.75 52.28 47.03 65.43 62.04"/>
      <polygon class="cls-2" points="22.92 65.31 11.96 52.8 51.57 48.48 62.53 60.99 22.92 65.31"/>
      <path class="cls-4" d="M21.98,61.99l-5.48-6.25c1.49-.16,1.96-1.13,1.06-2.17l30.61-3.34c.91,1.04,2.85,1.74,4.34,1.58l5.48,6.25c-1.49.16-1.96,1.13-1.06,2.17l-30.61,3.34c-.91-1.04-2.85-1.74-4.34-1.58Z"/>
      <g>
        <path class="cls-2" d="M27.54,56.9s-.08.04-.11.06-.06.03-.08.04-.05.02-.08.03-.05.01-.08.01c-.06,0-.12,0-.18,0s-.12-.03-.18-.05-.11-.05-.16-.08-.09-.07-.12-.1c-.07-.08-.09-.15-.06-.22.02-.04.08-.11.17-.19s.21-.18.37-.29c.08-.06.16-.12.22-.16s.13-.08.18-.11.11-.05.17-.07.11-.03.18-.04c.17-.02.32,0,.47.05s.27.14.37.25l2.89,3.3c.1.11.13.2.09.27s-.16.11-.35.14-.36,0-.5-.04-.26-.13-.36-.24l-2.45-2.8-.42.24Z"/>
        <path class="cls-2" d="M31.32,57.6c-.31-.35-.52-.66-.63-.94s-.14-.51-.08-.71.19-.35.41-.47.49-.2.84-.23.68-.03,1.03.02.69.14,1.03.29.68.33,1,.57.64.53.94.86.52.66.63.94.14.51.08.71-.19.35-.41.47-.49.2-.83.23-.68.03-1.03-.02-.69-.14-1.04-.29-.68-.33-1-.57-.64-.53-.94-.86ZM32.4,57.42c.23.26.46.48.69.66s.44.31.65.42.41.17.6.21.36.04.52.03.29-.06.38-.12.15-.16.16-.29-.04-.28-.13-.47-.26-.41-.49-.68-.46-.48-.69-.66-.44-.31-.65-.42-.41-.17-.6-.21-.36-.04-.52-.03-.29.06-.38.12-.15.16-.16.28.04.28.13.47.26.41.49.68Z"/>
        <path class="cls-2" d="M36.83,57c-.31-.35-.52-.66-.63-.94s-.14-.51-.08-.71.19-.35.41-.47.49-.2.84-.23.68-.03,1.03.02.69.14,1.03.29.68.33,1,.57.64.53.94.86.52.66.63.94.14.51.08.71-.19.35-.41.47-.49.2-.83.23-.68.03-1.03-.02-.69-.14-1.04-.29-.68-.33-1-.57-.64-.53-.94-.86ZM37.91,56.82c.23.26.46.48.69.66s.44.31.65.42.41.17.6.21.36.04.52.03.29-.06.38-.12.15-.16.16-.29-.04-.28-.13-.47-.26-.41-.49-.68-.46-.48-.69-.66-.44-.31-.65-.42-.41-.17-.6-.21-.36-.04-.52-.03-.29.06-.38.12-.15.16-.16.28.04.28.13.47.26.41.49.68Z"/>
        <path class="cls-2" d="M42.34,56.4c-.31-.35-.52-.66-.63-.94s-.14-.51-.08-.71.19-.35.41-.47.49-.2.84-.23.68-.03,1.03.02.69.14,1.03.29.68.33,1,.57.64.53.94.86.52.66.63.94.14.51.08.71-.19.35-.41.47-.49.2-.83.23-.68.03-1.03-.02-.69-.14-1.04-.29-.68-.33-1-.57-.64-.53-.94-.86ZM43.43,56.22c.23.26.46.48.69.66s.44.31.65.42.41.17.6.21.36.04.52.03.29-.06.38-.12.15-.16.16-.29-.04-.28-.13-.47-.26-.41-.49-.68-.46-.48-.69-.66-.44-.31-.65-.42-.41-.17-.6-.21-.36-.04-.52-.03-.29.06-.38.12-.15.16-.16.28.04.28.13.47.26.41.49.68Z"/>
      </g>
      <polygon class="cls-3" points="22.22 66.75 22.22 84.18 9.06 69.18 9.06 51.75 22.22 66.75"/>
      <polygon class="cls-2" points="22.22 66.75 22.22 84.18 65.43 79.47 65.43 62.04 22.22 66.75"/>
      <g>
        <polygon class="cls-5" points="22.22 67.96 22.22 68.41 65.43 63.69 65.43 63.25 22.22 67.96"/>
        <polygon class="cls-5" points="22.22 69.81 22.22 70.26 65.43 65.54 65.43 65.1 22.22 69.81"/>
        <polygon class="cls-5" points="22.22 71.67 22.22 72.11 65.43 67.4 65.43 66.95 22.22 71.67"/>
        <polygon class="cls-5" points="22.22 73.52 22.22 73.96 65.43 69.25 65.43 68.8 22.22 73.52"/>
        <polygon class="cls-5" points="22.22 75.37 22.22 75.82 65.43 71.1 65.43 70.66 22.22 75.37"/>
        <polygon class="cls-5" points="22.22 77.22 22.22 77.67 65.43 72.95 65.43 72.51 22.22 77.22"/>
        <polygon class="cls-5" points="22.22 79.08 22.22 79.52 65.43 74.81 65.43 74.36 22.22 79.08"/>
        <polygon class="cls-5" points="22.22 80.93 22.22 81.38 65.43 76.66 65.43 76.21 22.22 80.93"/>
        <polygon class="cls-5" points="22.22 82.78 22.22 83.23 65.43 78.51 65.43 78.07 22.22 82.78"/>
      </g>
      <g>
        <polygon class="cls-2" points="22.22 67.96 22.22 68.41 9.06 53.59 9.06 53.14 22.22 67.96"/>
        <polygon class="cls-2" points="22.22 69.81 22.22 70.26 9.06 55.44 9.06 54.99 22.22 69.81"/>
        <polygon class="cls-2" points="22.22 71.67 22.22 72.11 9.06 57.29 9.06 56.85 22.22 71.67"/>
        <polygon class="cls-2" points="22.22 73.52 22.22 73.96 9.06 59.14 9.06 58.7 22.22 73.52"/>
        <polygon class="cls-2" points="22.22 75.37 22.22 75.82 9.06 61 9.06 60.55 22.22 75.37"/>
        <polygon class="cls-2" points="22.22 77.22 22.22 77.67 9.06 62.85 9.06 62.4 22.22 77.22"/>
        <polygon class="cls-2" points="22.22 79.08 22.22 79.52 9.06 64.7 9.06 64.26 22.22 79.08"/>
        <polygon class="cls-2" points="22.22 80.93 22.22 81.38 9.06 66.55 9.06 66.11 22.22 80.93"/>
        <polygon class="cls-2" points="22.22 82.78 22.22 83.23 9.06 68.41 9.06 67.96 22.22 82.78"/>
      </g>
    </g>
    <g>
      <polygon class="cls-2" points="105.32 93.38 62.11 98.1 48.96 83.09 92.17 78.38 105.32 93.38"/>
      <polygon class="cls-4" points="105.32 75.95 62.11 80.67 48.96 65.66 92.17 60.95 105.32 75.95"/>
      <polygon class="cls-2" points="62.81 79.22 51.85 66.72 91.47 62.39 102.43 74.9 62.81 79.22"/>
      <path class="cls-4" d="M61.88,75.9l-5.48-6.25c1.49-.16,1.96-1.13,1.06-2.17l30.61-3.34c.91,1.04,2.85,1.74,4.34,1.58l5.48,6.25c-1.49.16-1.96,1.13-1.06,2.17l-30.61,3.34c-.91-1.04-2.85-1.74-4.34-1.58Z"/>
      <g>
        <path class="cls-2" d="M67.43,70.82s-.08.04-.11.06-.06.03-.08.04-.05.02-.08.03-.05.01-.08.01c-.06,0-.12,0-.18,0s-.12-.03-.18-.05-.11-.05-.16-.08-.09-.07-.12-.1c-.07-.08-.09-.15-.06-.22.02-.04.08-.11.17-.19s.21-.18.37-.29c.08-.06.16-.12.22-.16s.13-.08.18-.11.11-.05.17-.07.11-.03.18-.04c.17-.02.32,0,.47.05s.27.14.37.25l2.89,3.3c.1.11.13.2.09.27s-.16.11-.35.14-.36,0-.5-.04-.26-.13-.36-.24l-2.45-2.8-.42.24Z"/>
        <path class="cls-2" d="M71.21,71.51c-.31-.35-.52-.66-.63-.94s-.14-.51-.08-.71.19-.35.41-.47.49-.2.84-.23.68-.03,1.03.02.69.14,1.03.29.68.33,1,.57.64.53.94.86.52.66.63.94.14.51.08.71-.19.35-.41.47-.49.2-.83.23-.68.03-1.03-.02-.69-.14-1.04-.29-.68-.33-1-.57-.64-.53-.94-.86ZM72.29,71.33c.23.26.46.48.69.66s.44.31.65.42.41.17.6.21.36.04.52.03.29-.06.38-.12.15-.16.16-.29-.04-.28-.13-.47-.26-.41-.49-.68-.46-.48-.69-.66-.44-.31-.65-.42-.41-.17-.6-.21-.36-.04-.52-.03-.29.06-.38.12-.15.16-.16.28.04.28.13.47.26.41.49.68Z"/>
        <path class="cls-2" d="M76.72,70.91c-.31-.35-.52-.66-.63-.94s-.14-.51-.08-.71.19-.35.41-.47.49-.2.84-.23.68-.03,1.03.02.69.14,1.03.29.68.33,1,.57.64.53.94.86.52.66.63.94.14.51.08.71-.19.35-.41.47-.49.2-.83.23-.68.03-1.03-.02-.69-.14-1.04-.29-.68-.33-1-.57-.64-.53-.94-.86ZM77.81,70.73c.23.26.46.48.69.66s.44.31.65.42.41.17.6.21.36.04.52.03.29-.06.38-.12.15-.16.16-.29-.04-.28-.13-.47-.26-.41-.49-.68-.46-.48-.69-.66-.44-.31-.65-.42-.41-.17-.6-.21-.36-.04-.52-.03-.29.06-.38.12-.15.16-.16.28.04.28.13.47.26.41.49.68Z"/>
        <path class="cls-2" d="M82.24,70.31c-.31-.35-.52-.66-.63-.94s-.14-.51-.08-.71.19-.35.41-.47.49-.2.84-.23.68-.03,1.03.02.69.14,1.03.29.68.33,1,.57.64.53.94.86.52.66.63.94.14.51.08.71-.19.35-.41.47-.49.2-.83.23-.68.03-1.03-.02-.69-.14-1.04-.29-.68-.33-1-.57-.64-.53-.94-.86ZM83.32,70.13c.23.26.46.48.69.66s.44.31.65.42.41.17.6.21.36.04.52.03.29-.06.38-.12.15-.16.16-.29-.04-.28-.13-.47-.26-.41-.49-.68-.46-.48-.69-.66-.44-.31-.65-.42-.41-.17-.6-.21-.36-.04-.52-.03-.29.06-.38.12-.15.16-.16.28.04.28.13.47.26.41.49.68Z"/>
      </g>
      <polygon class="cls-3" points="62.11 80.67 62.11 98.1 48.96 83.09 48.96 65.66 62.11 80.67"/>
      <polygon class="cls-2" points="62.11 80.67 62.11 98.1 105.32 93.38 105.32 75.95 62.11 80.67"/>
      <g>
        <polygon class="cls-5" points="62.11 81.87 62.11 82.32 105.32 77.6 105.32 77.16 62.11 81.87"/>
        <polygon class="cls-5" points="62.11 83.73 62.11 84.17 105.32 79.46 105.32 79.01 62.11 83.73"/>
        <polygon class="cls-5" points="62.11 85.58 62.11 86.03 105.32 81.31 105.32 80.86 62.11 85.58"/>
        <polygon class="cls-5" points="62.11 87.43 62.11 87.88 105.32 83.16 105.32 82.72 62.11 87.43"/>
        <polygon class="cls-5" points="62.11 89.28 62.11 89.73 105.32 85.02 105.32 84.57 62.11 89.28"/>
        <polygon class="cls-5" points="62.11 91.14 62.11 91.58 105.32 86.87 105.32 86.42 62.11 91.14"/>
        <polygon class="cls-5" points="62.11 92.99 62.11 93.44 105.32 88.72 105.32 88.28 62.11 92.99"/>
        <polygon class="cls-5" points="62.11 94.84 62.11 95.29 105.32 90.57 105.32 90.13 62.11 94.84"/>
        <polygon class="cls-5" points="62.11 96.7 62.11 97.14 105.32 92.43 105.32 91.98 62.11 96.7"/>
      </g>
      <g>
        <polygon class="cls-2" points="62.11 81.87 62.11 82.32 48.96 67.5 48.96 67.05 62.11 81.87"/>
        <polygon class="cls-2" points="62.11 83.73 62.11 84.17 48.96 69.35 48.96 68.91 62.11 83.73"/>
        <polygon class="cls-2" points="62.11 85.58 62.11 86.03 48.96 71.2 48.96 70.76 62.11 85.58"/>
        <polygon class="cls-2" points="62.11 87.43 62.11 87.88 48.96 73.06 48.96 72.61 62.11 87.43"/>
        <polygon class="cls-2" points="62.11 89.28 62.11 89.73 48.96 74.91 48.96 74.46 62.11 89.28"/>
        <polygon class="cls-2" points="62.11 91.14 62.11 91.58 48.96 76.76 48.96 76.32 62.11 91.14"/>
        <polygon class="cls-2" points="62.11 92.99 62.11 93.44 48.96 78.61 48.96 78.17 62.11 92.99"/>
        <polygon class="cls-2" points="62.11 94.84 62.11 95.29 48.96 80.47 48.96 80.02 62.11 94.84"/>
        <polygon class="cls-2" points="62.11 96.7 62.11 97.14 48.96 82.32 48.96 81.87 62.11 96.7"/>
      </g>
    </g>
    <g>
      <polygon class="cls-2" points="93.61 54.34 50.4 59.05 37.25 44.05 80.46 39.33 93.61 54.34"/>
      <polygon class="cls-4" points="93.61 36.91 50.4 41.62 37.25 26.62 80.46 21.9 93.61 36.91"/>
      <polygon class="cls-2" points="51.1 40.18 40.14 27.67 79.75 23.35 90.71 35.85 51.1 40.18"/>
      <path class="cls-4" d="M50.16,36.85l-5.48-6.25c1.49-.16,1.96-1.13,1.06-2.17l30.61-3.34c.91,1.04,2.85,1.74,4.34,1.58l5.48,6.25c-1.49.16-1.96,1.13-1.06,2.17l-30.61,3.34c-.91-1.04-2.85-1.74-4.34-1.58Z"/>
      <g>
        <path class="cls-2" d="M55.72,31.77s-.08.04-.11.06-.06.03-.08.04-.05.02-.08.03-.05.01-.08.01c-.06,0-.12,0-.18,0s-.12-.03-.18-.05-.11-.05-.16-.08-.09-.07-.12-.1c-.07-.08-.09-.15-.06-.22.02-.04.08-.11.17-.19s.21-.18.37-.29c.08-.06.16-.12.22-.16s.13-.08.18-.11.11-.05.17-.07.11-.03.18-.04c.17-.02.32,0,.47.05s.27.14.37.25l2.89,3.3c.1.11.13.2.09.27s-.16.11-.35.14-.36,0-.5-.04-.26-.13-.36-.24l-2.45-2.8-.42.24Z"/>
        <path class="cls-2" d="M59.5,32.47c-.31-.35-.52-.66-.63-.94s-.14-.51-.08-.71.19-.35.41-.47.49-.2.84-.23.68-.03,1.03.02.69.14,1.03.29.68.33,1,.57.64.53.94.86.52.66.63.94.14.51.08.71-.19.35-.41.47-.49.2-.83.23-.68.03-1.03-.02-.69-.14-1.04-.29-.68-.33-1-.57-.64-.53-.94-.86ZM60.58,32.29c.23.26.46.48.69.66s.44.31.65.42.41.17.6.21.36.04.52.03.29-.06.38-.12.15-.16.16-.29-.04-.28-.13-.47-.26-.41-.49-.68-.46-.48-.69-.66-.44-.31-.65-.42-.41-.17-.6-.21-.36-.04-.52-.03-.29.06-.38.12-.15.16-.16.28.04.28.13.47.26.41.49.68Z"/>
        <path class="cls-2" d="M65.01,31.87c-.31-.35-.52-.66-.63-.94s-.14-.51-.08-.71.19-.35.41-.47.49-.2.84-.23.68-.03,1.03.02.69.14,1.03.29.68.33,1,.57.64.53.94.86.52.66.63.94.14.51.08.71-.19.35-.41.47-.49.2-.83.23-.68.03-1.03-.02-.69-.14-1.04-.29-.68-.33-1-.57-.64-.53-.94-.86ZM66.1,31.68c.23.26.46.48.69.66s.44.31.65.42.41.17.6.21.36.04.52.03.29-.06.38-.12.15-.16.16-.29-.04-.28-.13-.47-.26-.41-.49-.68-.46-.48-.69-.66-.44-.31-.65-.42-.41-.17-.6-.21-.36-.04-.52-.03-.29.06-.38.12-.15.16-.16.28.04.28.13.47.26.41.49.68Z"/>
        <path class="cls-2" d="M70.52,31.26c-.31-.35-.52-.66-.63-.94s-.14-.51-.08-.71.19-.35.41-.47.49-.2.84-.23.68-.03,1.03.02.69.14,1.03.29.68.33,1,.57.64.53.94.86.52.66.63.94.14.51.08.71-.19.35-.41.47-.49.2-.83.23-.68.03-1.03-.02-.69-.14-1.04-.29-.68-.33-1-.57-.64-.53-.94-.86ZM71.61,31.08c.23.26.46.48.69.66s.44.31.65.42.41.17.6.21.36.04.52.03.29-.06.38-.12.15-.16.16-.29-.04-.28-.13-.47-.26-.41-.49-.68-.46-.48-.69-.66-.44-.31-.65-.42-.41-.17-.6-.21-.36-.04-.52-.03-.29.06-.38.12-.15.16-.16.28.04.28.13.47.26.41.49.68Z"/>
      </g>
      <polygon class="cls-3" points="50.4 41.62 50.4 59.05 37.25 44.05 37.25 26.62 50.4 41.62"/>
      <polygon class="cls-2" points="50.4 41.62 50.4 59.05 93.61 54.34 93.61 36.91 50.4 41.62"/>
      <g>
        <polygon class="cls-5" points="50.4 42.83 50.4 43.27 93.61 38.56 93.61 38.11 50.4 42.83"/>
        <polygon class="cls-5" points="50.4 44.68 50.4 45.13 93.61 40.41 93.61 39.97 50.4 44.68"/>
        <polygon class="cls-5" points="50.4 46.53 50.4 46.98 93.61 42.26 93.61 41.82 50.4 46.53"/>
        <polygon class="cls-5" points="50.4 48.39 50.4 48.83 93.61 44.12 93.61 43.67 50.4 48.39"/>
        <polygon class="cls-5" points="50.4 50.24 50.4 50.69 93.61 45.97 93.61 45.52 50.4 50.24"/>
        <polygon class="cls-5" points="50.4 52.09 50.4 52.54 93.61 47.82 93.61 47.38 50.4 52.09"/>
        <polygon class="cls-5" points="50.4 53.95 50.4 54.39 93.61 49.68 93.61 49.23 50.4 53.95"/>
        <polygon class="cls-5" points="50.4 55.8 50.4 56.24 93.61 51.53 93.61 51.08 50.4 55.8"/>
        <polygon class="cls-5" points="50.4 57.65 50.4 58.1 93.61 53.38 93.61 52.94 50.4 57.65"/>
      </g>
      <g>
        <polygon class="cls-2" points="50.4 42.83 50.4 43.27 37.25 28.45 37.25 28.01 50.4 42.83"/>
        <polygon class="cls-2" points="50.4 44.68 50.4 45.13 37.25 30.31 37.25 29.86 50.4 44.68"/>
        <polygon class="cls-2" points="50.4 46.53 50.4 46.98 37.25 32.16 37.25 31.71 50.4 46.53"/>
        <polygon class="cls-2" points="50.4 48.39 50.4 48.83 37.25 34.01 37.25 33.57 50.4 48.39"/>
        <polygon class="cls-2" points="50.4 50.24 50.4 50.69 37.25 35.86 37.25 35.42 50.4 50.24"/>
        <polygon class="cls-2" points="50.4 52.09 50.4 52.54 37.25 37.72 37.25 37.27 50.4 52.09"/>
        <polygon class="cls-2" points="50.4 53.95 50.4 54.39 37.25 39.57 37.25 39.12 50.4 53.95"/>
        <polygon class="cls-2" points="50.4 55.8 50.4 56.24 37.25 41.42 37.25 40.98 50.4 55.8"/>
        <polygon class="cls-2" points="50.4 57.65 50.4 58.1 37.25 43.27 37.25 42.83 50.4 57.65"/>
      </g>
    </g>
  </g>
  <g>
    <path class="cls-6" d="M81.83,101.58s.01-.08.01-.12c0-.91-.19-1.79-.58-2.62-.28-.61-.66-1.19-1.05-1.65l-2.24-2.78,1.51-1.47c.68-.68,1.18-1.38,1.5-2.12.36-.8.54-1.62.54-2.45,0-.04-.01-.08-.01-.12,0-.05.01-.09.01-.13s-.01-.08-.01-.12c0-.05.01-.09.01-.13s-.01-.08-.01-.12c0-.05.01-.09.01-.13s-.01-.08-.01-.12c0-.05.01-.09.01-.13s-.01-.08-.01-.12c0-.05.01-.09.01-.13s-.01-.08-.01-.12c0-.05.01-.09.01-.13s-.01-.08-.01-.12c0-.05.01-.09.01-.13s-.01-.08-.01-.12c0-.05.01-.09.01-.13s-.01-.08-.01-.12c0-.05.01-.09.01-.13s-.01-.08-.01-.12c0-.05.01-.09.01-.13,0-.94-.22-1.86-.66-2.74-.37-.74-.86-1.4-1.47-1.96-.6-.55-1.28-.99-2.05-1.31-1.63-.68-3.51-.69-5.05-.05-.73.3-1.39.73-1.97,1.28-.03.03-.07.06-.1.1-.13.12-.26.26-.4.41l-.21.22v-5.21c0-2.37-1.05-3.86-1.93-4.68-1.21-1.14-2.82-1.72-4.8-1.72s-3.58.58-4.79,1.72c-.88.82-1.94,2.31-1.94,4.69v1.54c-.33-.52-.68-1.02-1.07-1.48-1.37-1.64-3.05-2.87-4.99-3.67-1.83-.76-3.84-1.14-5.99-1.14s-4.29.42-6.19,1.23c-1.97.85-3.69,2.14-5.11,3.83-.34.4-.66.83-.96,1.27-.07-2.05-.9-3.36-1.6-4.1-1.1-1.17-2.62-1.81-4.29-1.81h-10.55c-2.23,0-3.64.89-4.43,1.64-.8.76-1.78,2.14-1.86,4.33l-.52,10.38c-.01.07,0,.13,0,.2v.05c-.01.07,0,.13,0,.2v.05c-.01.07,0,.13,0,.2v.05c-.01.07,0,.13,0,.2v.05c-.01.07,0,.13,0,.2v.05c-.01.07,0,.13,0,.2v.05c-.01.07,0,.13,0,.2v.05c-.01.07,0,.13,0,.2v.05c-.01.07,0,.13,0,.2v.05c-.01.07,0,.13,0,.2v.05c-.09,2.19.75,3.59,1.47,4.37.08.08.16.17.25.25-.54.26-1.03.6-1.46,1.03-.75.75-1.65,2.09-1.65,4.15,0,.05,0,.09.01.13-.01.04-.01.08-.01.12,0,.05,0,.09.01.13-.01.04-.01.08-.01.12,0,.05,0,.09.01.13-.01.04-.01.08-.01.12,0,.05,0,.09.01.13-.01.04-.01.08-.01.12,0,.05,0,.09.01.13-.01.04-.01.08-.01.12,0,.05,0,.09.01.13-.01.04-.01.08-.01.12,0,.05,0,.09.01.13-.01.04-.01.08-.01.12,0,.05,0,.09.01.13-.01.04-.01.08-.01.12,0,.05,0,.09.01.13-.01.04-.01.08-.01.12,0,.05,0,.09.01.13-.01.04-.01.08-.01.12,0,.98.19,1.88.56,2.69.33.69.78,1.34,1.35,1.91.47.46,1.03.87,1.72,1.25.61.33,1.3.61,2.12.85.7.21,1.5.38,2.36.5.88.13,1.85.19,2.88.19,2.13,0,4.07-.28,5.78-.85,1.82-.61,3.4-1.5,4.68-2.65,1.06-.94,1.91-2.05,2.56-3.28.42.71.87,1.39,1.38,2,1.38,1.64,3.06,2.87,5.01,3.67,1.83.75,3.84,1.13,5.99,1.13s4.28-.41,6.18-1.22c1.98-.85,3.7-2.14,5.12-3.83.46-.55.87-1.16,1.26-1.8v.18c0,2.38,1.06,3.87,1.94,4.69,1.21,1.14,2.82,1.72,4.79,1.72s3.59-.58,4.8-1.72c.44-.41.92-.98,1.29-1.74l.16.22c.2.26.37.49.5.66.2.24.43.49.68.74.57.58,1.22,1.03,1.94,1.36.81.36,1.68.54,2.6.54.84,0,1.68-.15,2.48-.45.79-.3,1.51-.73,2.15-1.27.64-.56,1.18-1.22,1.59-1.96.51-.93.77-1.94.77-3.01,0-.04-.01-.09-.01-.13s.01-.08.01-.12-.01-.09-.01-.13.01-.08.01-.12-.01-.09-.01-.13.01-.08.01-.12-.01-.09-.01-.13.01-.08.01-.12-.01-.09-.01-.13.01-.08.01-.12-.01-.09-.01-.13.01-.08.01-.12-.01-.09-.01-.13.01-.08.01-.12-.01-.09-.01-.13.01-.08.01-.12-.01-.09-.01-.13.01-.08.01-.12-.01-.09-.01-.13ZM28.87,86.49s-.01-.01-.02-.02c.01,0,.02-.01.02-.01v.03Z"/>
    <g>
      <path class="cls-3" d="M77.82,101.58s.01-.08.01-.12c0-.33-.07-.65-.2-.93-.13-.29-.32-.57-.54-.83l-4.53-5.61,4.09-3.97c.32-.32.55-.62.67-.91.13-.29.19-.57.19-.83,0-.04-.01-.08-.01-.12,0-.04.01-.09.01-.13s-.01-.08-.01-.12c0-.04.01-.09.01-.13s-.01-.08-.01-.12c0-.04.01-.09.01-.13s-.01-.08-.01-.12c0-.04.01-.09.01-.13s-.01-.08-.01-.12c0-.04.01-.09.01-.13s-.01-.08-.01-.12c0-.04.01-.09.01-.13s-.01-.08-.01-.12c0-.04.01-.09.01-.13s-.01-.08-.01-.12c0-.04.01-.09.01-.13s-.01-.08-.01-.12c0-.04.01-.09.01-.13s-.01-.08-.01-.12c0-.04.01-.09.01-.13,0-.32-.08-.63-.23-.94-.15-.31-.36-.58-.61-.81s-.55-.42-.88-.56c-.33-.14-.68-.21-1.04-.21s-.66.06-.93.17-.53.28-.75.49c-.11.11-.22.23-.35.36-.13.13-.29.3-.47.5l-6.62,7.26v-15.51c0-.76-.22-1.35-.67-1.78-.45-.42-1.13-.63-2.06-.63s-1.61.21-2.06.63-.67,1.01-.67,1.78v27.57c0,.76.22,1.36.67,1.78.45.42,1.13.63,2.06.63s1.61-.21,2.06-.63.67-1.01.67-1.78v-8.24l6.74,9.04c.15.2.28.37.39.51.11.14.24.28.39.43.23.23.48.41.76.53.28.13.59.19.94.19s.72-.07,1.07-.2.67-.32.95-.56c.28-.24.51-.52.69-.85s.27-.69.27-1.07c0-.05-.01-.09-.01-.13,0-.04.01-.08.01-.12,0-.05-.01-.09-.01-.13,0-.04.01-.08.01-.12,0-.05-.01-.09-.01-.13,0-.04.01-.08.01-.12,0-.05-.01-.09-.01-.13,0-.04.01-.08.01-.12,0-.05-.01-.09-.01-.13,0-.04.01-.08.01-.12,0-.05-.01-.09-.01-.13,0-.04.01-.08.01-.12,0-.05-.01-.09-.01-.13,0-.04.01-.08.01-.12,0-.05-.01-.09-.01-.13,0-.04.01-.08.01-.12,0-.05-.01-.09-.01-.13,0-.04.01-.08.01-.12,0-.05-.01-.09-.01-.13Z"/>
      <path class="cls-3" d="M28.03,92c-.42-1.04-1.09-1.94-2.01-2.71s-2.1-1.39-3.54-1.86c-1.41-.46-3.11-.73-5.1-.81l.16-3.39h8.41c.58,0,1.04-.18,1.39-.55.35-.37.52-.93.52-1.68,0-.04,0-.08,0-.12,0-.04,0-.08,0-.13s0-.08,0-.12c0-.04,0-.08,0-.13s0-.08,0-.12c0-.04,0-.08,0-.13s0-.08,0-.12c0-.04,0-.08,0-.13s0-.08,0-.12c0-.04,0-.08,0-.13s0-.08,0-.12c0-.04,0-.08,0-.13s0-.08,0-.12c0-.04,0-.08,0-.13s0-.08,0-.12c0-.04,0-.08,0-.13s0-.08,0-.12c0-.04,0-.08,0-.13s0-.08,0-.12c0-.04,0-.08,0-.13,0-.74-.17-1.29-.52-1.66-.35-.37-.81-.55-1.39-.55h-10.55c-.74,0-1.3.18-1.68.54-.38.36-.59.9-.61,1.63l-.52,10.34c0,.06,0,.11,0,.17v.08c0,.06,0,.11,0,.17v.08c0,.06,0,.11,0,.17v.08c0,.06,0,.11,0,.17v.08c0,.06,0,.11,0,.17v.08c0,.06,0,.11,0,.17v.08c0,.06,0,.11,0,.17v.08c0,.06,0,.11,0,.17v.08c0,.06,0,.11,0,.17v.08c0,.06,0,.11,0,.17v.08c-.03.67.11,1.17.42,1.51.31.33.8.5,1.49.5,1.54,0,2.85.13,3.93.38s1.97.61,2.66,1.05c.69.45,1.19.98,1.5,1.6.13.25.22.52.3.79-.05.18-.08.37-.15.54-.21.54-.53,1.01-.95,1.4s-.94.69-1.56.9-1.32.32-2.11.32-1.47-.06-2-.18c-.53-.12-.98-.25-1.37-.39-.38-.14-.71-.27-.98-.39s-.56-.18-.85-.18c-.51,0-.92.16-1.24.48-.32.32-.48.76-.48,1.33,0,.04,0,.08.01.12,0,.05-.01.09-.01.13,0,.04,0,.08.01.12,0,.05-.01.09-.01.13,0,.04,0,.08.01.12,0,.05-.01.09-.01.13,0,.04,0,.08.01.12,0,.05-.01.09-.01.13,0,.04,0,.08.01.12,0,.05-.01.09-.01.13,0,.04,0,.08.01.12,0,.05-.01.09-.01.13,0,.04,0,.08.01.12,0,.05-.01.09-.01.13,0,.04,0,.08.01.12,0,.05-.01.09-.01.13,0,.04,0,.08.01.12,0,.05-.01.09-.01.13,0,.04,0,.08.01.12,0,.05-.01.09-.01.13,0,.39.06.72.19.99.13.27.31.53.55.77.19.19.46.38.81.57.35.19.79.37,1.32.52.52.15,1.13.28,1.82.38.69.1,1.46.15,2.3.15,1.7,0,3.21-.22,4.51-.65,1.31-.44,2.4-1.05,3.29-1.84.88-.79,1.55-1.73,2-2.83s.67-2.31.67-3.63c0-.04,0-.08,0-.12,0-.04,0-.08,0-.13s0-.08,0-.12c0-.04,0-.08,0-.13s0-.08,0-.12c0-.04,0-.08,0-.13s0-.08,0-.12c0-.04,0-.08,0-.13s0-.08,0-.12c0-.04,0-.08,0-.13s0-.08,0-.12c0-.04,0-.08,0-.13s0-.08,0-.12c0-.04,0-.08,0-.13s0-.08,0-.12c0-.04,0-.08,0-.13s0-.08,0-.12c0-.04,0-.08,0-.13s0-.08,0-.12c0-.04,0-.08,0-.13,0-1.22-.21-2.35-.63-3.38Z"/>
      <path class="cls-3" d="M54.26,83.58c-.53-1.74-1.27-3.18-2.24-4.33-.96-1.14-2.12-1.99-3.46-2.55-1.34-.55-2.83-.83-4.47-.83s-3.21.3-4.61.9c-1.4.6-2.61,1.51-3.63,2.73-1.02,1.22-1.82,2.74-2.39,4.57-.57,1.83-.85,3.96-.85,6.41,0,.04,0,.08,0,.13,0,.04,0,.08,0,.12s0,.08,0,.13c0,.04,0,.08,0,.12s0,.08,0,.13c0,.04,0,.08,0,.12s0,.08,0,.13c0,.04,0,.08,0,.12s0,.08,0,.13c0,.04,0,.08,0,.12s0,.08,0,.13c0,.04,0,.08,0,.12s0,.08,0,.13c0,.04,0,.08,0,.12s0,.08,0,.13c0,.04,0,.08,0,.12s0,.08,0,.13c0,.04,0,.08,0,.12s0,.08,0,.13c0,.04,0,.08,0,.12,0,2.37.26,4.42.79,6.16.53,1.74,1.27,3.18,2.24,4.33.96,1.14,2.12,1.99,3.47,2.55,1.35.56,2.84.83,4.48.83s3.19-.3,4.6-.9c1.41-.6,2.62-1.51,3.63-2.72s1.81-2.73,2.38-4.57c.57-1.83.85-3.97.85-6.42,0-.04,0-.08,0-.13,0-.04,0-.08,0-.12s0-.08,0-.13c0-.04,0-.08,0-.12s0-.08,0-.13c0-.04,0-.08,0-.12s0-.08,0-.13c0-.04,0-.08,0-.12s0-.08,0-.13c0-.04,0-.08,0-.12s0-.08,0-.13c0-.04,0-.08,0-.12s0-.08,0-.13c0-.04,0-.08,0-.12s0-.08,0-.13c0-.04,0-.08,0-.12s0-.08,0-.13c0-.04,0-.08,0-.12s0-.08,0-.13c0-.04,0-.08,0-.12,0-2.37-.26-4.42-.79-6.16ZM47.87,97.91c-.52.79-1.13,1.36-1.82,1.71-.69.35-1.42.52-2.18.52s-1.49-.18-2.19-.53c-.7-.35-1.31-.93-1.84-1.73-.53-.8-.95-1.83-1.26-3.11-.24-.98-.39-2.13-.44-3.45.06-1.29.2-2.43.43-3.4.31-1.27.72-2.3,1.23-3.09.51-.79,1.12-1.36,1.81-1.71.69-.35,1.42-.52,2.18-.52s1.51.18,2.21.53c.7.35,1.31.93,1.84,1.73.53.8.95,1.83,1.26,3.11.24.98.39,2.13.44,3.44-.06,1.3-.2,2.43-.43,3.4-.31,1.27-.72,2.3-1.24,3.09Z"/>
    </g>
    <g>
      <path class="cls-1" d="M17.26,86.61c2.04.08,3.78.35,5.22.82,1.44.47,2.62,1.09,3.54,1.86s1.59,1.67,2.01,2.71c.42,1.04.63,2.17.63,3.38,0,1.32-.22,2.54-.67,3.63s-1.12,2.04-2,2.83c-.88.79-1.98,1.4-3.29,1.84-1.31.43-2.81.65-4.51.65-.84,0-1.61-.05-2.3-.15-.69-.1-1.3-.23-1.82-.38-.52-.15-.96-.33-1.32-.52-.36-.19-.63-.38-.81-.57-.24-.24-.42-.5-.55-.77-.13-.27-.19-.6-.19-.99,0-.56.16-1,.48-1.33.32-.32.74-.48,1.24-.48.29,0,.58.06.85.18s.6.25.98.39c.38.14.84.27,1.37.39.53.12,1.19.18,2,.18s1.49-.11,2.11-.32,1.13-.52,1.56-.9.74-.85.95-1.4.32-1.15.32-1.82c0-.72-.16-1.39-.47-2.01s-.82-1.15-1.5-1.6c-.69-.45-1.58-.8-2.66-1.05s-2.4-.38-3.93-.38c-.68,0-1.18-.17-1.49-.5-.31-.33-.45-.84-.42-1.51l.52-10.34c.03-.72.23-1.26.61-1.63.38-.36.94-.54,1.68-.54h10.55c.58,0,1.04.18,1.39.55.35.37.52.92.52,1.66s-.17,1.31-.52,1.68c-.35.37-.81.55-1.39.55h-8.41l-.28,5.88Z"/>
      <path class="cls-1" d="M32.62,90.49c0-2.45.28-4.59.85-6.41.57-1.83,1.36-3.35,2.39-4.57,1.02-1.22,2.23-2.13,3.63-2.73,1.4-.6,2.93-.9,4.61-.9s3.12.28,4.47.83c1.34.56,2.5,1.41,3.46,2.55.96,1.14,1.71,2.59,2.24,4.33s.79,3.79.79,6.16-.28,4.59-.85,6.42c-.57,1.83-1.36,3.36-2.38,4.57s-2.23,2.12-3.63,2.72c-1.41.6-2.94.9-4.6.9s-3.12-.28-4.48-.83c-1.35-.55-2.51-1.41-3.47-2.55-.96-1.14-1.71-2.59-2.24-4.33-.53-1.74-.79-3.79-.79-6.16ZM38.12,90.08c0,1.85.16,3.41.47,4.69.31,1.28.74,2.31,1.26,3.11.53.8,1.14,1.37,1.84,1.73.7.35,1.43.53,2.19.53s1.49-.17,2.18-.52c.69-.35,1.29-.92,1.82-1.71.52-.79.94-1.82,1.24-3.09s.46-2.82.46-4.66-.16-3.41-.47-4.69c-.31-1.28-.74-2.31-1.26-3.11-.53-.8-1.14-1.37-1.84-1.73-.7-.35-1.43-.53-2.21-.53s-1.49.17-2.18.52c-.69.35-1.29.92-1.81,1.71-.52.79-.93,1.82-1.23,3.09-.31,1.27-.46,2.82-.46,4.66Z"/>
      <path class="cls-1" d="M72.24,84.86c.19-.2.34-.37.47-.5.13-.13.24-.25.35-.36.23-.21.48-.38.75-.49s.58-.17.93-.17.71.07,1.04.21c.33.14.63.33.88.56s.46.5.61.81c.15.31.23.62.23.94,0,.27-.06.55-.19.83-.13.29-.35.59-.67.91l-5.22,5.07,5.66,7.02c.23.27.41.54.54.83.13.29.2.6.2.93,0,.39-.09.75-.27,1.07s-.41.61-.69.85c-.28.24-.6.43-.95.56s-.71.2-1.07.2-.66-.06-.94-.19c-.28-.13-.54-.3-.76-.53-.15-.15-.28-.29-.39-.43-.11-.14-.24-.31-.39-.51l-6.74-9.04v8.24c0,.76-.22,1.36-.67,1.78s-1.13.63-2.06.63-1.61-.21-2.06-.63c-.45-.42-.67-1.01-.67-1.78v-25.07c0-.76.22-1.35.67-1.78s1.13-.63,2.06-.63,1.61.21,2.06.63c.45.42.67,1.01.67,1.78v15.51l6.62-7.26Z"/>
    </g>
  </g>
</svg>