<?xml version="1.0" encoding="UTF-8"?>
<svg id="Icon" xmlns="http://www.w3.org/2000/svg" viewBox="0 0 120 120">
  <defs>
    <style>
      .cls-1 {
        fill: #ffa9c2;
      }

      .cls-2 {
        fill: #fff;
      }

      .cls-3 {
        fill: #ea9939;
      }

      .cls-4 {
        fill: #d87625;
      }

      .cls-5 {
        fill: #f47aa0;
      }

      .cls-6 {
        fill: #aa5217;
      }

      .cls-7 {
        fill: #6d3108;
      }

      .cls-8 {
        fill: #ffe277;
      }

      .cls-9 {
        fill: #ffd2e1;
      }
    </style>
  </defs>
  <path class="cls-7" d="M104.42,22.24v75.51c0,6.62-5.38,12-12,12H27.58c-6.61,0-12-5.38-12-12V22.24c0-6.62,5.39-12,12-12h64.84c6.62,0,12,5.38,12,12Z"/>
  <g>
    <rect class="cls-4" x="19.58" y="18.42" width="80.84" height="87.33" rx="8" ry="8"/>
    <rect class="cls-8" x="19.58" y="14.24" width="80.84" height="87.33" rx="8" ry="8"/>
    <rect class="cls-3" x="19.58" y="16.66" width="80.84" height="84.92" rx="8" ry="8"/>
    <rect class="cls-5" x="30.91" y="28.42" width="58.18" height="61.95" rx="4" ry="4"/>
    <path class="cls-1" d="M79.97,46.1c0-6.34-5.14-11.48-11.48-11.48s-11.48,5.14-11.48,11.48c0,3.98,2.03,7.49,5.1,9.55-3.08,7.49-5.1,20.25-5.1,34.73h22.96c0-14.48-2.03-27.24-5.1-34.73,3.08-2.06,5.1-5.56,5.1-9.55Z"/>
    <path class="cls-9" d="M59.67,49.58c0-5.84-4.74-10.58-10.58-10.58s-10.58,4.74-10.58,10.58c0,3.67,1.87,6.9,4.7,8.8-2.84,6.9-4.7,18.66-4.7,32h21.16c0-13.34-1.87-25.1-4.7-32,2.84-1.9,4.7-5.13,4.7-8.8Z"/>
    <path class="cls-2" d="M66.36,64.57c0-3.7-3-6.69-6.69-6.69s-6.69,3-6.69,6.69c0,2.32,1.18,4.36,2.97,5.56-1.79,4.37-2.97,11.8-2.97,20.24h13.38c0-8.44-1.18-15.88-2.97-20.24,1.79-1.2,2.97-3.24,2.97-5.56Z"/>
    <path class="cls-6" d="M85.09,90.87h-50.18c-2.48,0-4.5-2.02-4.5-4.5v-53.95c0-2.48,2.02-4.5,4.5-4.5h50.18c2.48,0,4.5,2.02,4.5,4.5v53.95c0,2.48-2.02,4.5-4.5,4.5ZM34.91,28.92c-1.93,0-3.5,1.57-3.5,3.5v53.95c0,1.93,1.57,3.5,3.5,3.5h50.18c1.93,0,3.5-1.57,3.5-3.5v-53.95c0-1.93-1.57-3.5-3.5-3.5h-50.18Z"/>
  </g>
</svg>