<?xml version="1.0" encoding="UTF-8"?>
<svg id="Icon" xmlns="http://www.w3.org/2000/svg" viewBox="0 0 120 120">
  <defs>
    <style>
      .cls-1 {
        fill: #fff;
      }

      .cls-2 {
        fill: #dfedf2;
      }

      .cls-3 {
        fill: #666;
      }

      .cls-4 {
        fill: #333;
      }

      .cls-5 {
        fill: gray;
      }
    </style>
  </defs>
  <path class="cls-4" d="M109.93,59.99c0,12.3-4.42,23.57-11.78,32.29-5.13,6.08-11.69,10.92-19.15,14-5.86,2.41-12.27,3.75-19,3.75s-13.16-1.34-19.02-3.75c-7.47-3.1-14.03-7.94-19.15-14.01-7.34-8.72-11.78-19.99-11.78-32.27,0-1.22.04-2.44.13-3.65.6-8.29,3.21-16.02,7.37-22.71,6.79-10.96,17.68-19.09,30.54-22.24,3.81-.93,7.79-1.42,11.89-1.42s8.07.49,11.86,1.42c12.87,3.14,23.77,11.28,30.57,22.24,4.14,6.69,6.76,14.42,7.36,22.71.09,1.21.13,2.43.13,3.65Z"/>
  <path class="cls-4" d="M114.08,59.99c0,12.79-4.53,25.21-12.76,34.96-5.59,6.63-12.76,11.87-20.73,15.16-6.55,2.7-13.47,4.07-20.58,4.07s-14.05-1.37-20.6-4.07c-8-3.31-15.17-8.56-20.74-15.17-8.22-9.77-12.75-22.18-12.75-34.95,0-1.32.05-2.65.14-3.95.63-8.69,3.39-17.2,7.99-24.6,7.52-12.14,19.26-20.69,33.08-24.08,8.38-2.05,17.37-2.05,25.73,0,13.8,3.37,25.56,11.92,33.11,24.08,4.59,7.41,7.34,15.92,7.97,24.6.09,1.3.14,2.63.14,3.95Z"/>
  <path class="cls-1" d="M109.93,59.97c0-1.41-.06-2.8-.18-4.18l-5.5,7.57-4-5.5-6.45-8.88v-17.77l8.91,2.89c-6.86-11.3-18.08-19.67-31.32-22.76l5.51,7.58-6.46,2.1-10.44,3.4-10.44-3.4-6.46-2.1,5.51-7.58c-13.24,3.09-24.46,11.45-31.32,22.76l8.9-2.89v6.79s0,10.98,0,10.98l-10.45,14.38-5.5-7.57c-.12,1.38-.18,2.77-.18,4.18,0,12.47,4.58,23.89,12.14,32.64v-9.36s6.45,2.1,6.45,2.1l4.26,1.38,6.17,2.01h.01l6.45,8.89,3.99,5.5-8.92,2.89c5.95,2.51,12.5,3.9,19.37,3.9s13.42-1.39,19.37-3.9l-8.92-2.89,3.99-5.5,6.45-8.89,10.44-3.39,6.46-2.1v9.36c7.56-8.75,12.14-20.16,12.14-32.63ZM49.56,74.36l-6.46-19.87,6.46-4.69,10.44-7.59,16.9,12.28h0l-6.46,19.87h0s-20.89,0-20.89,0Z"/>
  <path class="cls-2" d="M109.93,59.97c0,27.58-22.36,49.94-49.92,49.94-15.79,0-29.86-7.33-39.01-18.75,4.65,1.37,9.58,2.11,14.68,2.11,28.63,0,51.84-23.2,51.84-51.84,0-10.02-2.83-19.36-7.76-27.3,17.75,7.65,30.17,25.3,30.17,45.85Z"/>
  <path class="cls-5" d="M102.44,33.63l-8.46-2.73-16.82-12.23-5.29-7.28c-3.79-.93-7.78-1.42-11.86-1.42s-8.08.49-11.89,1.42l-5.28,7.28-16.82,12.23-8.45,2.73c-4.16,6.69-6.77,14.42-7.37,22.71l5.22,7.2,6.43,19.76v8.97c5.12,6.08,11.67,10.92,19.15,14.01l8.62-2.81h20.78l8.62,2.81c7.46-3.08,14.01-7.92,19.15-14v-8.97l6.43-19.77,5.22-7.2c-.6-8.29-3.21-16.02-7.36-22.71ZM60.36,24.69l16.49-5.35,16.6,12.05v17.33l-16.47,5.35-14.67-10.64-1.95-1.41v-17.33ZM26.56,31.39l16.6-12.05,16.47,5.35v17.33l-8.3,6.02-8.3,6.03-16.47-5.35v-17.33ZM33.04,86.38l-10.55-3.42-6.34-19.52,7.21-9.93,2.98-4.09,16.47,5.35,6.34,19.52-10.19,14-5.92-1.92ZM70.26,102.75h-20.51l-10.18-14.01,9.55-13.16.63-.86h20.51l1.12,1.54,9.07,12.47-10.19,14.01ZM97.52,82.94l-16.47,5.35-10.19-14,.93-2.86,5.41-16.66,16.49-5.35,9.78,13.46.39.55-6.34,19.51Z"/>
  <path class="cls-3" d="M109.77,55.96c-.04-.49-.09-.99-.15-1.48-.04-.48-.1-.96-.17-1.44-.06-.39-.12-.79-.19-1.18-.16-1.05-.36-2.09-.6-3.11-.15-.6-.29-1.19-.45-1.77-.16-.6-.32-1.18-.51-1.76-.17-.6-.36-1.18-.57-1.74-1.21-3.47-2.78-6.76-4.7-9.84h-.03s-8.43-2.73-8.43-2.73l-9.45-6.86c.15.39.29.79.42,1.19l8.49,6.16v17.33l-6.79,2.21c-.04.28-.1.55-.15.81l7.17-2.33,9.78,13.46.39.55-6.34,19.51-16.47,5.35-7.97-10.95c-.19.17-.35.35-.52.52l7.89,10.86-10.19,14.01h-20.51l-7.21-9.93c-2.24.31-4.52.45-6.85.45-4.8,0-9.44-.65-13.84-1.88v.87c5.12,6.08,11.67,10.92,19.15,14.01l.17-.06,8.45-2.75h20.78l8.46,2.76.16.04c7.46-3.08,14.01-7.92,19.15-14v-8.97l6.43-19.77,5.22-7.2c-.01-.12-.01-.25-.03-.38Z"/>
</svg>