<?xml version="1.0" encoding="UTF-8"?>
<svg id="Layer_1" xmlns="http://www.w3.org/2000/svg" viewBox="0 0 24 24">
  <defs>
    <style>
      .cls-1 {
        fill: #12993f;
      }

      .cls-2 {
        fill: #1cb829;
      }

      .cls-3 {
        fill: #fff;
        opacity: 0;
      }

      .cls-4 {
        fill: #34d434;
      }

      .cls-5 {
        fill: #54f445;
      }

      .cls-6 {
        fill: #05542a;
      }
    </style>
  </defs>
  <rect class="cls-3" y="0" width="24" height="24"/>
  <g>
    <g>
      <path class="cls-6" d="M19.11,15.3H4.89c-1.46,0-2.71-.89-3.19-2.26-.47-1.34-.07-2.8,1.02-3.71l7.11-5.93c1.26-1.05,3.08-1.05,4.34,0l7.11,5.93c1.09.91,1.5,2.37,1.02,3.71-.48,1.37-1.74,2.26-3.19,2.26ZM6.55,11.3h10.91l-5.45-4.55-5.45,4.55ZM12.32,6.49s0,0,0,0t0,0ZM11.07,4.94h0,0Z"/>
      <path class="cls-6" d="M7.11,13.93h-3.64c-1.08,0-1.96-.9-1.96-2v-2.61c0-1.1.88-2,1.96-2h3.64c1.08,0,1.96.9,1.96,2v2.61c0,1.1-.88,2-1.96,2Z"/>
      <path class="cls-6" d="M19.11,15.3h-7.02c-1.08,0-1.96-.9-1.96-2V4.61c0-.55.22-1.08.62-1.46s.92-.58,1.46-.54c.72.04,1.42.32,1.97.78l7.11,5.93c1.09.91,1.49,2.37,1.02,3.71-.48,1.38-1.74,2.27-3.2,2.27ZM18.8,12.42h0,0ZM14.05,11.3h3.4l-3.4-2.84v2.84ZM11.68,6.49s0,0,0,0h0Z"/>
      <path class="cls-6" d="M20.54,13.93h-3.64c-1.08,0-1.96-.9-1.96-2v-2.61c0-1.1.88-2,1.96-2h3.64c1.08,0,1.96.9,1.96,2v2.61c0,1.1-.88,2-1.96,2Z"/>
      <path class="cls-6" d="M15.28,24h-6.39c-2.07,0-3.75-1.71-3.75-3.82v-6.88c0-1.1.88-2,1.96-2h9.96c1.08,0,1.96.9,1.96,2v6.88c0,2.1-1.68,3.82-3.75,3.82ZM9.07,20h6.03v-4.7h-6.03v4.7Z"/>
      <path class="cls-6" d="M15.28,24h-3.19c-1.08,0-1.96-.9-1.96-2v-8.7c0-1.1.88-2,1.96-2h4.98c1.08,0,1.96.9,1.96,2v6.88c0,2.1-1.68,3.82-3.75,3.82ZM14.05,20h1.05v-4.7h-1.05v4.7Z"/>
      <path class="cls-6" d="M19.11,12.7H4.89c-1.46,0-2.71-.89-3.19-2.26-.47-1.34-.07-2.8,1.02-3.71L9.83.79h0c1.26-1.05,3.08-1.05,4.34,0l7.11,5.93c1.09.91,1.5,2.37,1.02,3.71-.48,1.37-1.74,2.26-3.19,2.26ZM6.55,8.7h10.91l-5.45-4.55-5.45,4.55Z"/>
      <path class="cls-6" d="M19.11,12.7h-7.02c-1.08,0-1.96-.9-1.96-2V2c0-.55.22-1.08.62-1.46S11.66-.03,12.2,0c.72.04,1.42.32,1.97.78l7.11,5.93c1.09.91,1.49,2.37,1.02,3.71-.48,1.38-1.74,2.27-3.2,2.27ZM18.8,9.82h0,0ZM14.05,8.7h3.4l-3.4-2.84v2.84ZM11.68,3.88s0,0,0,0h0Z"/>
      <path class="cls-6" d="M15.28,21.39h-6.39c-2.07,0-3.75-1.71-3.75-3.82v-6.88c0-1.1.88-2,1.96-2h9.96c1.08,0,1.96.9,1.96,2v6.88c0,2.1-1.68,3.82-3.75,3.82ZM9.07,17.39h6.03v-4.7h-6.03v4.7Z"/>
      <path class="cls-6" d="M15.28,21.39h-3.19c-1.08,0-1.96-.9-1.96-2v-8.7c0-1.1.88-2,1.96-2h4.98c1.08,0,1.96.9,1.96,2v6.88c0,2.1-1.68,3.82-3.75,3.82ZM14.05,17.39h1.05v-4.7h-1.05v4.7Z"/>
    </g>
    <g>
      <path class="cls-2" d="M11.07,4.94l-7.11,5.93c-1,.84-.39,2.43.93,2.43h14.22c1.32,0,1.93-1.59.93-2.43l-7.11-5.93c-.53-.44-1.32-.44-1.85,0Z"/>
      <rect class="cls-2" x="3.46" y="9.32" width="3.64" height="2.61"/>
      <path class="cls-1" d="M19.11,13.3h-7.02V4.61c.3.02.6.13.84.33l7.11,5.94c1,.83.39,2.43-.93,2.43Z"/>
      <rect class="cls-1" x="16.89" y="9.32" width="3.64" height="2.61"/>
      <path class="cls-2" d="M15.28,22h-6.39c-.99,0-1.78-.81-1.78-1.82v-6.88h9.96v6.88c0,1-.8,1.82-1.78,1.82Z"/>
      <path class="cls-1" d="M15.28,22h-3.19v-8.7h4.98v6.88c0,1-.8,1.82-1.78,1.82Z"/>
      <path class="cls-5" d="M11.07,2.33l-7.11,5.93c-1,.84-.39,2.43.93,2.43h14.22c1.32,0,1.93-1.59.93-2.43l-7.11-5.93c-.53-.44-1.32-.44-1.85,0Z"/>
      <path class="cls-4" d="M19.11,10.7h-7.02V2c.3.02.6.13.84.33l7.11,5.94c1,.83.39,2.43-.93,2.43Z"/>
      <path class="cls-5" d="M15.28,19.39h-6.39c-.99,0-1.78-.81-1.78-1.82v-6.88h9.96v6.88c0,1-.8,1.82-1.78,1.82Z"/>
      <path class="cls-4" d="M15.28,19.39h-3.19v-8.7h4.98v6.88c0,1-.8,1.82-1.78,1.82Z"/>
    </g>
  </g>
</svg>