<?xml version="1.0" encoding="UTF-8"?>
<svg id="Icon" xmlns="http://www.w3.org/2000/svg" viewBox="0 0 120 120">
  <defs>
    <style>
      .cls-1 {
        fill: #ffa9c2;
      }

      .cls-2 {
        fill: #12993f;
      }

      .cls-3 {
        fill: #1cb829;
      }

      .cls-4 {
        fill: #7a1859;
      }

      .cls-5 {
        fill: #f47aa0;
      }

      .cls-6 {
        fill: #dd4a8c;
      }

      .cls-7 {
        fill: #34d434;
      }

      .cls-8 {
        fill: #54f445;
      }

      .cls-9 {
        fill: #05542a;
      }
    </style>
  </defs>
  <g>
    <path class="cls-4" d="M113.24,62.46c1.37,2.85,1.33,6.25.13,9.3-.71,1.8-1.81,3.49-3.28,4.87-.27.24-.54.48-.83.71-3.62,2.9-7.98,3.64-11.51,3.62-.99.9-2.1,1.66-3.28,2.27-1.41,1.79-3.33,3.21-5.36,4.29-2.03,1.08-4.17,1.81-6.02,2.21-.89.19-1.76.32-2.59.39-.44.04-.88.05-1.32.05s-.86-.02-1.28-.05c-1.31,1.31-2.82,2.34-4.5,2.99-1.64.64-3.25.86-4.67,1.05-.96.14-1.87.26-2.6.5-2.06.65-3.72,2.68-3.96,4.83l-.03.3c-.06.68-.16,1.7-.63,2.78-.92,2.07-2.9,3.38-5,3.38-.27,0-.55-.02-.82-.07-1.04-.17-3.56-.97-4.53-4.58-1.21-4.53-.51-9.42,1.92-13.42.49-.82,1.01-1.53,1.51-2.22.71-.98,1.33-1.82,1.61-2.6.28-.79.2-1.76-.21-2.61-.12-.27-.21-.36-1.04-.94-.42-.29-.94-.65-1.49-1.12l-.74-.64c-1.28-1.09-2.38-2.04-3.63-2.77-.13-.08-.26-.14-.38-.21l-.07.03c-.49.24-.97.53-1.48.84-1.58.94-3.54,2.12-6.32,2.33-2.22.17-4.46-.24-6.5-1.16-.05-.03-.11-.05-.16-.07-.23-.11-.46-.23-.69-.36-.11-.06-.22-.11-.33-.17-.19-.11-.37-.23-.55-.35-.14-.09-.28-.17-.42-.27-4.46,1.59-9.27,1.58-13.3-.09-4.79-1.99-8.7-6.51-9.74-11.25-.43-1.96-.43-4.05,0-6.04-1.39-.93-2.58-2.17-3.5-3.65-1.94-3.12-2.47-7.01-1.47-10.66,1-3.62,3.48-6.73,6.7-8.59-.03-2.38.39-4.57.4-4.61,1.48-4.93,6.29-8.55,11.49-9.15,1.11-3.32,3.25-6.31,6.08-8.38,2.73-2,6.11-3.14,9.54-3.24,1.68-.05,3.08.46,4.21.86.26.09.62.22.89.29.26-.27.57-.68.85-1.06.27-.36.54-.72.82-1.06,2.73-3.32,6.74-5.43,11.01-5.81,4.29-.36,8.59,1.04,11.84,3.83l.25.22.12-.09c3.45-2.36,8.03-3,12-1.69.02.01.04.01.06.02.01,0,.02,0,.03.01h.03c.24.08.47.17.69.26,2.89,1.18,5.28,3.33,6.79,6,1.54-.08,2.88.04,3.36.09,2.26.26,7.51.87,10.49,5.31,1.19,1.79,1.81,3.89,1.85,6.01,3.59,1.08,6.72,3.67,8.29,7.12,1.6,3.54,1.44,7.7-.2,11.15.11.12.22.22.32.32.11.1.19.19.25.24,2.09,1.85,2.74,3.93,3.13,5.9.88,4.55.01,9.31-2.41,13.08l-.22.34c-.03.06-.08.12-.12.19.02.05.05.09.07.14.16.28.31.57.45.86Z"/>
    <g>
      <path class="cls-6" d="M45.85,69.23c.29.4,2.09.72,2.61.94.92.4,1.81.85,2.67,1.36,1.83,1.08,3.32,2.44,4.93,3.81,1.38,1.17,2.69,1.6,3.55,3.37s1.03,3.86.37,5.7c-.74,2.05-2.33,3.67-3.46,5.53-1.85,3.06-2.39,6.87-1.47,10.32.19.72.57,1.55,1.31,1.67.64.11,1.24-.4,1.51-.99s.27-1.26.34-1.9c.41-3.72,3.16-7.07,6.73-8.2,2.29-.73,4.79-.6,7.03-1.46,2.86-1.11,4.92-3.76,5.9-6.66,1.88-5.58,1.25-14.32-3.14-18.64-2.8-2.76-6.69-4.24-10.59-4.71-3.91-.48-7.87-.03-11.75.62-2.13.35-4.36.82-6.01,2.21s-1.8,5.29-.52,7.04Z"/>
      <path class="cls-6" d="M82.24,85.82c3.42-.74,7.31-2.64,9.24-5.24,2.07-2.78.12-8.27-1.41-10.91-1.84-3.17-4.97-5.59-8.52-6.51-2.48-.64-5.27-.59-7.8-.68-2.89-.1-5.81.49-8.44,1.7-1.15.53-2.31,1.25-2.85,2.39-.75,1.58-.08,3.5.95,4.92s2.41,2.58,3.32,4.07c.94,1.55,1.34,3.37,2.19,4.96,2.09,3.91,6.84,5.95,11.26,5.6.65-.05,1.34-.16,2.05-.31Z"/>
      <path class="cls-1" d="M109.64,64.19c1.63,3.38.08,7.69-2.86,10.02-2.93,2.34-6.91,2.98-10.65,2.69-1.95,2.32-4.85,3.8-7.86,4.05-3.98.32-6.9-1.65-10.01-3.79-3.03-2.07-5.49-5.28-5.82-8.94-6.01,2.98-13.62,2.43-19.14-1.38-1.85,2.12-4.01,3.16-6.45,4.39-2.13,1.06-3.73,2.56-6.31,2.75-2.14.16-4.33-.46-6.09-1.69-.57-.39-1.08-.85-1.55-1.35-3.82,1.97-8.49,2.52-12.47.87-3.37-1.4-6.57-4.79-7.36-8.41-.43-1.95-.26-4.02.46-5.88.21-.51.44-1,.72-1.46-5.09-.99-7.52-6.34-6.21-11.09.96-3.47,3.89-6.35,7.4-7.24-.85,0-.47-5.38-.33-5.86,1.3-4.33,6.57-7.1,10.87-6.24.33-3.63,2.29-7.08,5.24-9.24,2.1-1.54,4.68-2.39,7.29-2.46,2.38-.06,4.73,2.19,6.92.74,1.19-.78,1.93-2.07,2.83-3.18,2.03-2.47,5.08-4.08,8.27-4.36,3.19-.27,6.46.79,8.89,2.88.84.72,1.7,1.62,2.8,1.59.92-.02,1.67-.67,2.42-1.19,2.48-1.7,5.77-2.14,8.61-1.16.16.05.32.11.47.18,2.94,1.2,5.2,3.93,5.81,7.04-.16-.85,4.81-.75,5.37-.69,2.87.33,5.89,1,7.61,3.57,1.41,2.12,1.57,5.01.39,7.27,3.82-.47,7.83,1.78,9.43,5.29,1.59,3.52.63,8.02-2.26,10.58.68-.61,3.12,2.04,3.61,2.46,1.16,1.03,1.56,2.13,1.87,3.69.67,3.45.04,7.17-1.86,10.14-.51.79-1.12,1.61-1.15,2.56-.03,1.03.65,1.93,1.09,2.86Z"/>
      <path class="cls-5" d="M109.64,64.19c1.63,3.38.08,7.69-2.86,10.02-2.93,2.34-6.91,2.98-10.65,2.69-1.95,2.32-4.85,3.8-7.86,4.05-3.98.32-6.9-1.65-10.01-3.79-3.03-2.07-5.49-5.28-5.82-8.94-6.01,2.98-13.62,2.43-19.14-1.38-1.85,2.12-4.01,3.16-6.45,4.39-2.13,1.06-3.73,2.56-6.31,2.75-2.14.16-4.33-.46-6.09-1.69.84.59,4.87-1.69,5.74-2.16,1.86-1.01,3.45-2.5,4.57-4.3,1.55-2.5,2.16-5.57,1.67-8.47.17,1,5.65,1.33,6.47,1.33,2.37.02,4.74-.45,6.92-1.38,4.02-1.72,7.08-5.16,6.04-9.87,5.47,1.33,11.84.33,15.6-3.87,3.75-4.19,3.47-11.83-1.37-14.69,3.13-.03,5.8-3.31,5.2-6.38-.61-3.07-4.33-5.09-7.24-3.92,2.18-2.52,2.66-6.36,1.21-9.34.16.05.32.11.47.18,2.94,1.2,5.2,3.93,5.81,7.04-.16-.85,4.81-.75,5.37-.69,2.87.33,5.89,1,7.61,3.57,1.41,2.12,1.57,5.01.39,7.27,3.82-.47,7.83,1.78,9.43,5.29,1.59,3.52.63,8.02-2.26,10.58.68-.61,3.12,2.04,3.61,2.46,1.16,1.03,1.56,2.13,1.87,3.69.67,3.45.04,7.17-1.86,10.14-.51.79-1.12,1.61-1.15,2.56-.03,1.03.65,1.93,1.09,2.86Z"/>
      <path class="cls-6" d="M51.55,59.37c-.84,0-1.71-.07-2.6-.22-.27-.05-.45-.31-.41-.58.05-.27.3-.46.58-.41,3.26.57,6.24-.13,8.98-.98,1.59-.5,3.25-1.13,4.62-2.45,1.92-1.85,2.99-4.52,2.87-7.14h0c-.01-.28.2-.51.48-.52.14-.02.28.05.37.14.62.17,3.52.18,4.14.15,1.51-.08,3-.33,4.44-.75,1.89-.55,4.52-1.72,6.31-4.14.39-.53.73-1.11,1.02-1.73.12-.25.41-.36.66-.24.25.12.36.41.24.66-.31.68-.69,1.32-1.12,1.9-1.54,2.09-3.91,3.65-6.83,4.5-1.51.44-3.08.71-4.66.79-.03,0-2.62.09-4.03-.12-.06,2.68-1.22,5.33-3.18,7.22-1.52,1.46-3.31,2.15-5.02,2.69-2.13.66-4.4,1.24-6.85,1.24ZM66.59,47.52s0,0,0,0h0s0,0,0,0Z"/>
      <path class="cls-5" d="M39.75,55.13c-.13,0-.26-.05-.36-.15-2.07-2.13-2.04-6.29-.83-9.08.13-.3.24-.55.21-.72-.06-.33-.65-.51-1.13-.66-1.93-.6-3.43-1.95-4.19-3.71-.74-1.73-.69-3.7.15-5.41.74-1.5,1.99-2.91,3.71-4.19.32-.24,2.43-1.78,3.87-2.29-1.26-1.96-1.63-4.36-1.02-6.7.68-2.6,2.47-4.67,4.89-5.66.26-.11.55.02.65.27.1.25-.02.55-.27.65-2.13.88-3.7,2.7-4.31,4.99-.6,2.29-.13,4.65,1.29,6.47.17.22.13.53-.08.7-.15.11-.33.14-.49.07-.68.15-3.37,1.87-3.94,2.29-1.6,1.19-2.74,2.48-3.41,3.83-.71,1.44-.75,3.11-.12,4.57.64,1.49,1.91,2.63,3.49,3.13.76.24,1.71.53,1.88,1.45.09.48-.1.91-.25,1.26-1.11,2.54-1.17,6.2.61,8.03.19.2.19.51-.01.71-.1.09-.22.14-.35.14Z"/>
      <path class="cls-6" d="M85.07,25.48s-.08,0-.12-.01c-.27-.06-.43-.33-.37-.6.39-1.62-.17-3.47-1.38-4.61-1.21-1.14-3.09-1.58-4.69-1.09-.22.06-.45-.02-.57-.21-.12-.19-.09-.44.06-.61,1.57-1.66,2.2-4.16,1.61-6.37-.07-.27.09-.54.35-.61.27-.07.54.09.61.36.56,2.1.15,4.43-1.02,6.25,1.56-.09,3.17.47,4.33,1.55,1.49,1.4,2.14,3.58,1.67,5.57-.05.23-.26.38-.49.38Z"/>
      <path class="cls-6" d="M84.09,37.55s-.05,0-.07,0c-.27-.04-.46-.29-.42-.57.16-1.1.1-2.25-.2-3.33-.07-.27.08-.54.35-.61.26-.07.54.08.61.35.33,1.21.41,2.5.22,3.74-.04.25-.25.43-.49.43Z"/>
      <path class="cls-5" d="M20.8,56.98c-1.49,0-2.97-.44-4.2-1.31-.23-.16-.28-.47-.12-.7.16-.22.47-.28.7-.12,1.9,1.35,4.65,1.48,6.68.34,2.03-1.15,3.32-3.58,3.14-5.9-.01-.18.07-.35.21-.45.15-.1.33-.12.49-.04,1.3.6,2.86.58,4.15-.04,1.29-.62,2.27-1.83,2.61-3.23.07-.27.34-.43.6-.37.27.07.43.34.37.6-.41,1.68-1.59,3.13-3.15,3.89-1.33.64-2.88.75-4.28.32-.09,2.48-1.5,4.85-3.66,6.08-1.08.62-2.32.92-3.55.92Z"/>
      <path class="cls-6" d="M82.02,60.42c-1.87,0-3.74-.55-5.27-1.6-1.42-.97-2.45-2.3-2.9-3.73-.52-1.65-.25-3.46.71-4.73.17-.22.48-.26.7-.1.22.17.26.48.1.7-.77,1.01-.98,2.47-.55,3.82.39,1.22,1.28,2.36,2.52,3.21,2.03,1.4,4.76,1.8,7.11,1.06,2.35-.74,4.35-2.64,5.22-4.95.05-.15.17-.26.32-.3.15-.05.31-.02.44.08,3.15,2.3,7.82,2.44,11.1.34,3.28-2.1,5.1-6.4,4.33-10.22-.05-.27.12-.53.39-.59.27-.06.54.12.59.39.86,4.28-1.1,8.91-4.77,11.26-3.5,2.24-8.22,2.21-11.71-.02-1.07,2.33-3.17,4.2-5.61,4.97-.87.28-1.79.41-2.71.41Z"/>
      <path class="cls-6" d="M99.37,75.75c-1.23,0-2.47-.29-3.57-.86-1.97-1.03-3.43-2.94-3.94-5.1-2.61,1.41-6.04,1.06-8.27-.94-2.42-2.16-3.08-5.95-1.54-8.8.13-.24.43-.33.68-.2.24.13.33.43.2.68-1.31,2.42-.73,5.75,1.32,7.58,2.05,1.83,5.43,2.04,7.68.46.14-.1.33-.12.49-.05.16.07.27.22.29.39.28,2.14,1.64,4.08,3.55,5.08s4.29,1,6.2,0c.25-.13.55-.03.67.21.13.25.03.55-.21.67-1.1.57-2.33.85-3.55.85Z"/>
      <path class="cls-6" d="M86.1,47.08c-.21,0-.41-.13-.48-.34-.64-1.97-.31-4.26.87-5.96,1.06-1.52,2.78-2.57,4.61-2.84-.62-2.04-.34-4.35.77-6.17,1.23-2.01,3.45-3.39,5.79-3.6.29-.02.52.18.54.45.02.28-.18.52-.45.54-2.04.18-3.96,1.38-5.03,3.13-1.06,1.75-1.25,4.01-.48,5.9.06.15.05.32-.04.46-.09.14-.24.22-.4.23-1.77.08-3.49,1.02-4.5,2.48-1.01,1.45-1.29,3.4-.74,5.08.09.26-.06.54-.32.63-.05.02-.1.02-.16.02Z"/>
      <path class="cls-5" d="M53.16,42.84c-.26,0-.48-.21-.5-.47-.02-.28.19-.51.47-.53,2.49-.15,4.51-.67,6.19-1.59,1.98-1.09,3.41-2.79,3.94-4.66.59-2.07-.01-4.31-1.48-5.58-.13-.11-.2-.29-.17-.46.03-.17.15-.32.31-.38,1.49-.58,3.37-1.42,4.77-2.79,1.4-1.37,2.12-3.14,1.94-4.75-.2-1.77-1.65-3.26-3.24-3.33-.22,0-.41-.16-.46-.37-.06-.21.03-.44.22-.55,1.24-.78,2.11-2.17,2.28-3.62.03-.27.27-.48.55-.44.27.03.47.28.44.55-.16,1.4-.83,2.7-1.84,3.66,1.58.57,2.84,2.14,3.05,3.99.22,1.91-.62,3.99-2.24,5.57-1.31,1.28-2.96,2.12-4.4,2.72,1.35,1.56,1.84,3.89,1.23,6.05-.6,2.13-2.22,4.04-4.42,5.26-1.81,1-3.97,1.56-6.61,1.71,0,0-.02,0-.03,0Z"/>
      <path class="cls-5" d="M42.28,65.72c-.26,0-.48-.2-.5-.47-.09-1.46-1.03-2.88-2.35-3.52-1.31-.65-3.01-.53-4.22.29-.48.32-1.28.86-1.98.36-.35-.24-.47-.63-.56-.92-.56-1.78-1.81-3.29-3.42-4.17-1.61-.88-3.56-1.1-5.33-.62-.26.07-.54-.08-.61-.35-.07-.27.08-.54.35-.61,2.02-.55,4.23-.29,6.07.71,1.84,1,3.25,2.72,3.89,4.72.06.19.12.38.19.43.15.1.62-.22.85-.37,1.52-1.03,3.57-1.17,5.22-.36,1.65.81,2.79,2.52,2.9,4.36.02.28-.19.51-.47.53-.01,0-.02,0-.03,0Z"/>
      <path class="cls-5" d="M31.77,41.5c-.69,0-1.34-.1-1.94-.29-1.4-.46-2.51-1.48-2.96-2.72-.39-1.08-.23-2.3.36-3.2-1.7-.45-3.11-1.61-3.66-3.08-.38-1.01-.3-2.21.2-3.22.45-.9,1.18-1.54,2.05-1.8.26-.08.54.07.62.34.08.26-.07.54-.34.62-.61.18-1.12.64-1.44,1.29-.38.77-.44,1.68-.16,2.43.52,1.38,2.02,2.43,3.75,2.61.2.02.37.16.43.36.06.2-.01.41-.17.53-.76.59-1.07,1.79-.7,2.8.35.96,1.22,1.75,2.33,2.11.97.32,2.15.33,3.39.02.27-.06.54.1.6.37.07.27-.1.54-.37.6-.69.17-1.36.25-2,.25Z"/>
    </g>
  </g>
  <g>
    <path class="cls-9" d="M116,84.83v5.77c0,.07-.02.14-.02.2-.02.6-.11,1.21-.3,1.8-.97,3.01-3.91,5.03-7.3,5.03h-1.21v11.13c0,4.41-3.84,8-8.55,8h-16.26c-4.71,0-8.55-3.59-8.55-8v-11.13h-1.64c-3.4,0-6.33-2.02-7.3-5.03-.19-.59-.28-1.2-.3-1.8-.01-.06-.03-.13-.03-.2v-.09s0-.02,0-.03v-5.62s.01-.02.01-.03c0-2.13,1.04-4.16,2.92-5.52l18.11-13.06c1.47-1.06,3.26-1.54,5.03-1.47h.09c.09,0,.17.02.26.03.26.02.53.05.79.1.15.02.3.06.44.1.23.05.46.11.68.18.21.07.4.16.6.24.16.07.33.13.48.21.32.16.63.35.92.56.04.02.07.03.1.05l18.1,13.06c.24.17.45.36.66.55,1.07.97,1.78,2.18,2.08,3.49.12.49.19.98.19,1.48Z"/>
    <path class="cls-3" d="M87.91,75.23l-18.1,13.06c-2.55,1.84-1,5.34,2.36,5.34h36.2c3.36,0,4.91-3.51,2.36-5.34l-18.1-13.06c-1.36-.98-3.36-.98-4.72,0Z"/>
    <rect class="cls-3" x="68.54" y="84.86" width="9.27" height="5.74"/>
    <path class="cls-2" d="M108.37,93.63h-17.88v-19.12c.76.04,1.52.28,2.14.73l18.11,13.06c2.54,1.83,1,5.34-2.36,5.34Z"/>
    <rect class="cls-2" x="102.73" y="84.86" width="9.27" height="5.74"/>
    <path class="cls-3" d="M98.62,112.76h-16.27c-2.51,0-4.54-1.79-4.54-4v-15.13h25.35v15.13c0,2.21-2.03,4-4.54,4Z"/>
    <path class="cls-2" d="M98.62,112.76h-8.13v-19.13h12.68v15.13c0,2.21-2.03,4-4.54,4Z"/>
    <path class="cls-8" d="M87.91,69.5l-18.1,13.06c-2.55,1.84-1,5.34,2.36,5.34h36.2c3.36,0,4.91-3.51,2.36-5.34l-18.1-13.06c-1.36-.98-3.36-.98-4.72,0Z"/>
    <path class="cls-7" d="M108.37,87.9h-17.88v-19.12c.76.04,1.52.28,2.14.73l18.11,13.06c2.54,1.83,1,5.34-2.36,5.34Z"/>
    <path class="cls-8" d="M98.62,107.03h-16.27c-2.51,0-4.54-1.79-4.54-4v-15.13h25.35v15.13c0,2.21-2.03,4-4.54,4Z"/>
    <path class="cls-7" d="M98.62,107.03h-8.13v-19.13h12.68v15.13c0,2.21-2.03,4-4.54,4Z"/>
  </g>
</svg>