<?xml version="1.0" encoding="UTF-8"?>
<svg id="Layer_1" xmlns="http://www.w3.org/2000/svg" viewBox="0 0 48 48">
  <defs>
    <style>
      .cls-1 {
        fill: #a152db;
      }

      .cls-2 {
        fill: #f8d7ff;
      }

      .cls-3 {
        fill: #fff;
        opacity: 0;
      }

      .cls-4 {
        fill: #3d1170;
      }

      .cls-5 {
        fill: #8942c5;
      }

      .cls-6 {
        fill: #efa7fc;
      }

      .cls-7 {
        fill: #d27cf2;
      }
    </style>
  </defs>
  <rect class="cls-3" width="48" height="48"/>
  <g>
    <g>
      <path class="cls-4" d="M27.51,48h-7.03c-3.04,0-5.51-2.47-5.51-5.51v-6.78h-6.78c-3.04,0-5.51-2.47-5.51-5.51v-7.03c0-3.04,2.47-5.51,5.51-5.51h6.78v-6.78c0-3.04,2.47-5.51,5.51-5.51h7.03c3.04,0,5.51,2.47,5.51,5.51v6.78h6.78c3.04,0,5.51,2.47,5.51,5.51v7.03c0,3.04-2.47,5.51-5.51,5.51h-6.78v6.78c0,3.04-2.47,5.51-5.51,5.51ZM8.19,21.65c-.83,0-1.51.68-1.51,1.51v7.03c0,.83.68,1.51,1.51,1.51h10.78v10.78c0,.83.68,1.51,1.51,1.51h7.03c.83,0,1.51-.68,1.51-1.51v-10.78h10.78c.83,0,1.51-.68,1.51-1.51v-7.03c0-.83-.68-1.51-1.51-1.51h-10.78v-10.78c0-.83-.68-1.51-1.51-1.51h-7.03c-.83,0-1.51.68-1.51,1.51v10.78h-10.78Z"/>
      <path class="cls-4" d="M27.51,48h-5.51V5.35h5.51c3.04,0,5.51,2.47,5.51,5.51v6.79h6.79c3.04,0,5.51,2.47,5.51,5.51v7.03c0,3.04-2.47,5.51-5.51,5.51h-6.79v6.79c0,3.04-2.47,5.51-5.51,5.51ZM26,44h1.51c.83,0,1.51-.68,1.51-1.51v-10.79h10.79c.83,0,1.51-.68,1.51-1.51v-7.03c0-.83-.68-1.51-1.51-1.51h-10.79v-10.79c0-.83-.68-1.51-1.51-1.51h-1.51v34.65Z"/>
      <path class="cls-4" d="M27.51,42.65h-7.03c-3.04,0-5.51-2.47-5.51-5.51v-6.79h-6.79c-3.04,0-5.51-2.47-5.51-5.51v-7.03c0-3.04,2.47-5.51,5.51-5.51h6.79v-6.79c0-3.04,2.47-5.51,5.51-5.51h7.03c3.04,0,5.51,2.47,5.51,5.51v6.79h6.79c3.04,0,5.51,2.47,5.51,5.51v7.03c0,3.04-2.47,5.51-5.51,5.51h-6.79v6.79c0,3.04-2.47,5.51-5.51,5.51ZM8.19,16.3c-.83,0-1.51.68-1.51,1.51v7.03c0,.83.68,1.51,1.51,1.51h10.79v10.79c0,.83.68,1.51,1.51,1.51h7.03c.83,0,1.51-.68,1.51-1.51v-10.79h10.79c.83,0,1.51-.68,1.51-1.51v-7.03c0-.83-.68-1.51-1.51-1.51h-10.79V5.51c0-.83-.68-1.51-1.51-1.51h-7.03c-.83,0-1.51.68-1.51,1.51v10.79h-10.79Z"/>
      <path class="cls-4" d="M26,23.33H2.67v-5.51c0-3.04,2.47-5.51,5.51-5.51h6.79v-6.79c0-3.04,2.47-5.51,5.51-5.51h5.51v23.33ZM6.67,19.33h15.33V4h-1.51c-.83,0-1.51.68-1.51,1.51v10.79h-10.79c-.83,0-1.51.68-1.51,1.51v1.51Z"/>
      <path class="cls-4" d="M27.51,42.65h-5.51v-23.33h23.33v5.51c0,3.04-2.47,5.51-5.51,5.51h-6.79v6.79c0,3.04-2.47,5.51-5.51,5.51ZM26,38.65h1.51c.83,0,1.51-.68,1.51-1.51v-10.79h10.79c.83,0,1.51-.68,1.51-1.51v-1.51h-15.33v15.33Z"/>
    </g>
    <g>
      <path class="cls-1" d="M43.33,23.16v7.03c0,1.94-1.57,3.51-3.51,3.51h-8.78v8.78c0,1.94-1.57,3.51-3.51,3.51h-7.03c-1.94,0-3.51-1.57-3.51-3.51v-8.78h-8.78c-1.94,0-3.51-1.57-3.51-3.51v-7.03c0-1.94,1.57-3.51,3.51-3.51h8.78v-8.78c0-1.94,1.57-3.51,3.51-3.51h7.03c1.94,0,3.51,1.57,3.51,3.51v8.78h8.78c1.94,0,3.51,1.57,3.51,3.51Z"/>
      <path class="cls-5" d="M43.33,23.16v7.03c0,1.94-1.57,3.51-3.51,3.51h-8.79v8.79c0,1.94-1.57,3.51-3.51,3.51h-3.51V7.35h3.51c1.94,0,3.51,1.57,3.51,3.51v8.79h8.79c1.94,0,3.51,1.57,3.51,3.51Z"/>
      <path class="cls-6" d="M43.33,17.81v7.03c0,1.94-1.57,3.51-3.51,3.51h-8.79v8.79c0,1.94-1.57,3.51-3.51,3.51h-7.03c-1.94,0-3.51-1.57-3.51-3.51v-8.79h-8.79c-1.94,0-3.51-1.57-3.51-3.51v-7.03c0-1.94,1.57-3.51,3.51-3.51h8.79V5.51c0-1.94,1.57-3.51,3.51-3.51h7.03c1.94,0,3.51,1.57,3.51,3.51v8.79h8.79c1.94,0,3.51,1.57,3.51,3.51Z"/>
      <path class="cls-2" d="M24,2v19.33H4.67v-3.51c0-1.94,1.57-3.51,3.51-3.51h8.79V5.51c0-1.94,1.57-3.51,3.51-3.51h3.51Z"/>
      <path class="cls-7" d="M43.33,21.33v3.51c0,1.94-1.57,3.51-3.51,3.51h-8.79v8.79c0,1.94-1.57,3.51-3.51,3.51h-3.51v-19.33h19.33Z"/>
    </g>
  </g>
</svg>