<?xml version="1.0" encoding="UTF-8"?>
<svg id="Icon" xmlns="http://www.w3.org/2000/svg" viewBox="0 0 120 120">
  <defs>
    <style>
      .cls-1 {
        fill: #13437c;
      }

      .cls-2 {
        fill: #3288d6;
      }

      .cls-3 {
        fill: #dfedf2;
      }

      .cls-4 {
        fill: #ffe277;
      }

      .cls-5 {
        fill: #47acea;
      }

      .cls-6 {
        fill: #a8b6c1;
      }

      .cls-7 {
        fill: #1f5999;
      }
    </style>
  </defs>
  <path class="cls-1" d="M117.55,96.37c0,1.93-1.38,3.59-3.28,3.94l-9.67,1.76c-.77.15-1.39.76-1.54,1.54l-1.76,9.67c-.35,1.9-2.01,3.28-3.94,3.28s-3.59-1.38-3.93-3.28l-1.77-9.67c-.14-.78-.76-1.39-1.54-1.54l-9.67-1.76c-.53-.1-1.01-.31-1.44-.59H29.25c-7.57,0-13.73-6.15-13.73-13.72v-42.59c0-.53.04-1.06.1-1.58l-9.6-1.79c-1.89-.35-3.27-2-3.27-3.93s1.38-3.58,3.27-3.93l18.52-3.44c1.53-.28,2.75-1.5,3.03-3.03l3.44-18.52c.35-1.9,2.01-3.27,3.94-3.27s3.58,1.37,3.93,3.27l2.45,13.18c1.31-1.66,3.33-2.73,5.61-2.73h27.55c3.94,0,7.14,3.2,7.14,7.14v4.9h10.55c7.57,0,13.73,6.16,13.73,13.73v42.59c0,1.67-.31,3.27-.86,4.75l9.22,1.69c1.9.34,3.28,2,3.28,3.93Z"/>
  <g>
    <g>
      <path class="cls-5" d="M74.49,21.64h-27.56c-1.74,0-3.15,1.41-3.15,3.15v13.07c0,.68.22,1.32.59,1.83.57.79,1.5,1.31,2.55,1.31h27.56c1.05,0,1.98-.52,2.55-1.31.08-.11.16-.24.22-.36.23-.44.36-.94.36-1.47v-13.07c0-1.74-1.4-3.15-3.14-3.15ZM69.63,34.7h-17.83v-5.69h17.83v5.69Z"/>
      <polygon class="cls-2" points="77.64 31.16 77.64 41.06 43.8 41.06 43.8 31.16 51.8 31.16 51.8 36.09 69.63 36.09 69.63 31.16 77.64 31.16"/>
    </g>
    <rect class="cls-2" x="19.52" y="33.68" width="82.39" height="62.04" rx="9.73" ry="9.73"/>
    <rect class="cls-5" x="19.52" y="33.68" width="82.39" height="53.05" rx="9.73" ry="9.73"/>
    <rect class="cls-5" x="19.52" y="38.61" width="82.39" height="48.13" rx="9.73" ry="9.73"/>
    <path class="cls-7" d="M60.72,66.25h-2.53c-.12,0-.24-.01-.36-.04l-36.31-7.46c-.97-.2-1.59-1.15-1.39-2.11.2-.97,1.14-1.6,2.11-1.39l36.13,7.43h2.35c.99,0,1.79.8,1.79,1.79s-.8,1.79-1.79,1.79Z"/>
    <path class="cls-7" d="M63.27,66.25h-2.55c-.99,0-1.79-.8-1.79-1.79s.8-1.79,1.79-1.79h2.37l36.1-7.43c.97-.2,1.92.42,2.12,1.39.2.97-.43,1.92-1.39,2.12l-36.28,7.46c-.12.02-.24.04-.36.04Z"/>
    <path class="cls-6" d="M65.29,63.63v4.78c0,1.37-1.1,2.47-2.46,2.47h-4.23c-1.36,0-2.46-1.1-2.46-2.47v-4.78c0-1.36,1.1-2.46,2.46-2.46h4.23c1.37,0,2.46,1.1,2.46,2.46Z"/>
    <path class="cls-3" d="M65.29,61.19v2.75c0,1.15-1.1,2.08-2.46,2.08h-4.23c-1.36,0-2.46-.93-2.46-2.08v-2.75c0-1.15,1.1-2.08,2.46-2.08h4.23c1.37,0,2.46.93,2.46,2.08Z"/>
    <path class="cls-1" d="M62.83,72.67h-4.23c-2.35,0-4.26-1.91-4.26-4.26v-7.13c0-2.35,1.91-4.26,4.26-4.26h4.23c2.35,0,4.26,1.91,4.26,4.26v7.13c0,2.35-1.91,4.26-4.26,4.26ZM58.6,60.6c-.37,0-.67.3-.67.67v7.13c0,.37.3.68.67.68h4.23c.38,0,.67-.3.67-.68v-7.13c0-.37-.3-.67-.67-.67h-4.23Z"/>
    <path class="cls-4" d="M97.36,80.18l1.77,9.67c.44,2.42,2.33,4.31,4.75,4.75l9.67,1.77-9.67,1.77c-2.42.44-4.31,2.33-4.75,4.75l-1.77,9.67-1.77-9.67c-.44-2.42-2.33-4.31-4.75-4.75l-9.67-1.77,9.67-1.77c2.42-.44,4.31-2.33,4.75-4.75l1.77-9.67Z"/>
    <path class="cls-4" d="M34.95,7.92l3.44,18.52c.59,3.17,3.06,5.64,6.23,6.23l18.52,3.44-18.52,3.44c-3.17.59-5.64,3.06-6.23,6.23l-3.44,18.52-3.44-18.52c-.59-3.17-3.06-5.64-6.23-6.23l-18.52-3.44,18.52-3.44c3.17-.59,5.64-3.06,6.23-6.23l3.44-18.52Z"/>
  </g>
</svg>