<?xml version="1.0" encoding="UTF-8"?>
<svg id="Icon" xmlns="http://www.w3.org/2000/svg" viewBox="0 0 120 120">
  <defs>
    <style>
      .cls-1 {
        fill: #f43f3f;
      }

      .cls-2 {
        fill: #ffe277;
      }

      .cls-3 {
        fill: #7a1839;
      }
    </style>
  </defs>
  <path class="cls-3" d="M117.12,61.98c0,1.94-.76,3.77-2.13,5.15l-2.95,2.94c-1.27,1.27-2.94,2.01-4.72,2.1v31.29c0,4.54-3.69,8.23-8.23,8.23H20.91c-4.54,0-8.23-3.69-8.23-8.23v-31.29c-1.78-.09-3.45-.83-4.72-2.1l-2.95-2.94c-1.37-1.38-2.13-3.2-2.13-5.15s.76-3.77,2.13-5.15L51.43,10.42c4.73-4.72,12.41-4.72,17.14,0l46.42,46.41c1.37,1.38,2.13,3.21,2.13,5.15Z"/>
  <path class="cls-2" d="M99.09,107.69H20.91c-2.34,0-4.23-1.89-4.23-4.23v-44.28L60,15.84l43.32,43.33v44.28c0,2.34-1.89,4.23-4.23,4.23Z"/>
  <path class="cls-1" d="M112.16,64.3l-2.94,2.94c-1.28,1.28-3.35,1.28-4.63,0L62.14,24.79c-1.18-1.18-3.09-1.18-4.27,0L15.42,67.23c-1.28,1.28-3.35,1.28-4.63,0l-2.94-2.94c-1.28-1.28-1.28-3.36,0-4.64L54.26,13.25c3.17-3.17,8.31-3.17,11.48,0l46.42,46.41c1.28,1.28,1.28,3.36,0,4.64Z"/>
  <path class="cls-1" d="M66.79,70.19h-13.59c-2.45,0-4.44,1.99-4.44,4.44v33.06h22.46v-33.06c0-2.45-1.99-4.44-4.44-4.44Z"/>
  <circle class="cls-2" cx="66.19" cy="89.79" r="2.48"/>
</svg>