<?xml version="1.0" encoding="UTF-8"?>
<svg id="Layer_1" xmlns="http://www.w3.org/2000/svg" viewBox="0 0 120 120">
  <defs>
    <style>
      .cls-1 {
        fill: none;
        stroke: #6d3108;
        stroke-width: 8px;
      }

      .cls-2 {
        fill: #dfedf2;
      }

      .cls-3 {
        fill: #ea9939;
      }

      .cls-4 {
        fill: #d87625;
      }

      .cls-5 {
        fill: #f4b545;
        opacity: 0;
      }

      .cls-6 {
        fill: #aa5217;
      }

      .cls-7 {
        fill: #a8b6c1;
      }
    </style>
  </defs>
  <rect class="cls-5" width="120" height="120"/>
  <g>
    <g>
      <path class="cls-1" d="M77.18,13.28h-34.36c-2.17,0-3.92,1.75-3.92,3.92v16.29c0,.85.27,1.64.74,2.28.71.99,1.87,1.64,3.18,1.64h34.36c1.31,0,2.48-.65,3.18-1.64.1-.14.2-.3.28-.45.29-.55.45-1.17.45-1.83v-16.29c0-2.17-1.75-3.92-3.92-3.92ZM71.12,29.58h-22.23v-7.1h22.23v7.1Z"/>
      <polygon class="cls-1" points="81.1 25.15 81.1 37.51 38.9 37.51 38.9 25.15 48.88 25.15 48.88 31.3 71.12 31.3 71.12 25.15 81.1 25.15"/>
      <rect class="cls-1" x="8.63" y="29.36" width="102.74" height="77.36" rx="12.13" ry="12.13"/>
      <rect class="cls-1" x="8.63" y="29.36" width="102.74" height="66.15" rx="12.13" ry="12.13"/>
      <rect class="cls-1" x="8.63" y="35.5" width="102.74" height="60.01" rx="12.13" ry="12.13"/>
      <path class="cls-1" d="M60,69.87h-3.16c-.15,0-.29-.01-.43-.04l-45.27-9.31c-1.16-.24-1.9-1.37-1.67-2.53.24-1.16,1.37-1.91,2.53-1.67l45.06,9.26h2.94c1.18,0,2.14.96,2.14,2.14s-.96,2.14-2.14,2.14Z"/>
      <path class="cls-1" d="M63.18,69.87h-3.19c-1.18,0-2.14-.96-2.14-2.14s.96-2.14,2.14-2.14h2.97l45.03-9.26c1.16-.24,2.29.51,2.53,1.66s-.51,2.29-1.66,2.53l-45.24,9.31c-.14.03-.29.04-.43.04Z"/>
      <rect class="cls-1" x="54.29" y="63.62" width="11.42" height="12.11" rx="3.07" ry="3.07"/>
      <path class="cls-1" d="M65.71,63.66v3.43c0,1.43-1.37,2.6-3.07,2.6h-5.27c-1.7,0-3.07-1.16-3.07-2.6v-3.43c0-1.43,1.38-2.6,3.07-2.6h5.27c1.7,0,3.07,1.16,3.07,2.6Z"/>
      <path class="cls-1" d="M62.64,77.88h-5.27c-2.87,0-5.21-2.34-5.21-5.22v-8.9c0-2.87,2.34-5.21,5.21-5.21h5.27c2.87,0,5.21,2.34,5.21,5.21v8.9c0,2.88-2.34,5.22-5.21,5.22ZM57.36,62.83c-.51,0-.93.42-.93.93v8.9c0,.52.42.94.93.94h5.27c.51,0,.93-.42.93-.94v-8.9c0-.51-.42-.93-.93-.93h-5.27Z"/>
    </g>
    <g>
      <path class="cls-4" d="M77.18,13.28h-34.36c-2.17,0-3.92,1.75-3.92,3.92v16.29c0,.85.27,1.64.74,2.28.71.99,1.87,1.64,3.18,1.64h34.36c1.31,0,2.48-.65,3.18-1.64.1-.14.2-.3.28-.45.29-.55.45-1.17.45-1.83v-16.29c0-2.17-1.75-3.92-3.92-3.92ZM71.12,29.58h-22.23v-7.1h22.23v7.1Z"/>
      <polygon class="cls-6" points="81.1 25.15 81.1 37.51 38.9 37.51 38.9 25.15 48.88 25.15 48.88 31.3 71.12 31.3 71.12 25.15 81.1 25.15"/>
      <rect class="cls-6" x="8.63" y="29.36" width="102.74" height="77.36" rx="12.13" ry="12.13"/>
      <rect class="cls-3" x="8.63" y="29.36" width="102.74" height="66.15" rx="12.13" ry="12.13"/>
      <rect class="cls-4" x="8.63" y="35.5" width="102.74" height="60.01" rx="12.13" ry="12.13"/>
      <path class="cls-6" d="M60,69.87h-3.16c-.15,0-.29-.01-.43-.04l-45.27-9.31c-1.16-.24-1.9-1.37-1.67-2.53.24-1.16,1.37-1.91,2.53-1.67l45.06,9.26h2.94c1.18,0,2.14.96,2.14,2.14s-.96,2.14-2.14,2.14Z"/>
      <path class="cls-6" d="M63.18,69.87h-3.19c-1.18,0-2.14-.96-2.14-2.14s.96-2.14,2.14-2.14h2.97l45.03-9.26c1.16-.24,2.29.51,2.53,1.66s-.51,2.29-1.66,2.53l-45.24,9.31c-.14.03-.29.04-.43.04Z"/>
      <rect class="cls-7" x="54.29" y="63.62" width="11.42" height="12.11" rx="3.07" ry="3.07"/>
      <path class="cls-2" d="M65.71,63.66v3.43c0,1.43-1.37,2.6-3.07,2.6h-5.27c-1.7,0-3.07-1.16-3.07-2.6v-3.43c0-1.43,1.38-2.6,3.07-2.6h5.27c1.7,0,3.07,1.16,3.07,2.6Z"/>
      <path class="cls-6" d="M62.64,77.88h-5.27c-2.87,0-5.21-2.34-5.21-5.22v-8.9c0-2.87,2.34-5.21,5.21-5.21h5.27c2.87,0,5.21,2.34,5.21,5.21v8.9c0,2.88-2.34,5.22-5.21,5.22ZM57.36,62.83c-.51,0-.93.42-.93.93v8.9c0,.52.42.94.93.94h5.27c.51,0,.93-.42.93-.94v-8.9c0-.51-.42-.93-.93-.93h-5.27Z"/>
    </g>
  </g>
</svg>