<?xml version="1.0" encoding="UTF-8"?>
<svg id="Icon" xmlns="http://www.w3.org/2000/svg" viewBox="0 0 120 120">
  <defs>
    <style>
      .cls-1 {
        fill: #dd2a39;
      }

      .cls-2 {
        fill: #1cb829;
      }

      .cls-3 {
        fill: #fff;
      }

      .cls-4 {
        fill: #dfedf2;
      }

      .cls-5 {
        fill: #f43f3f;
      }

      .cls-6 {
        fill: #333;
      }

      .cls-7 {
        fill: #54f445;
      }
    </style>
  </defs>
  <g>
    <path class="cls-6" d="M104.94,40.49v63.48c0,5.52-4.48,10-10,10h-12.37c-2.9,0-5.5-1.25-7.33-3.22-1.83,1.97-4.43,3.22-7.33,3.22h-12.38c-2.98,0-5.65-1.32-7.48-3.39-1.83,2.07-4.51,3.39-7.49,3.39h-12.37c-5.51,0-10-4.48-10-10v-33.15c0-5.51,4.49-10,10-10h12.37c1.81,0,3.51.49,4.97,1.34v-5.97c0-5.51,4.49-10,10-10h12.38c1.68,0,3.27.43,4.66,1.17v-6.87c0-5.52,4.49-10,10-10h12.37c5.52,0,10,4.48,10,10Z"/>
    <g>
      <rect class="cls-2" x="76.57" y="34.48" width="24.37" height="75.49" rx="6" ry="6"/>
      <rect class="cls-7" x="76.57" y="34.48" width="24.37" height="68.63" rx="6" ry="6"/>
      <rect class="cls-2" x="22.19" y="71.29" width="24.37" height="38.68" rx="6" ry="6"/>
      <rect class="cls-7" x="22.19" y="64.82" width="24.37" height="38.29" rx="6" ry="6"/>
      <rect class="cls-1" x="49.53" y="50.19" width="24.37" height="59.78" rx="6" ry="6"/>
      <rect class="cls-5" x="49.53" y="50.19" width="24.37" height="52.92" rx="6" ry="6"/>
    </g>
  </g>
  <g>
    <path class="cls-6" d="M114.46,14.39v3.08s-.01.07-.01.11c-.01.38-.03.75-.09,1.1l-3.39,21.7c-.67,4.34-4.77,7.33-9.12,6.67-3.93-.61-6.74-3.99-6.77-7.84,0-.03-.01-.06-.01-.1v-2.36l-26.82,21.38c-1.68,1.34-3.88,1.95-6.01,1.67-2.13-.27-4.1-1.42-5.39-3.15l-10-13.43-28.84,25.64c-1.47,1.3-3.35,2.02-5.32,2.02-2.28,0-4.46-.98-5.98-2.69-1.26-1.42-1.96-3.21-2.01-5.1h0v-2.59h0v-.07h0c-.01-.25-.01-.49.01-.73.12-2.13,1.07-4.09,2.67-5.51l35.36-31.43c1.66-1.48,3.89-2.21,6.11-1.99,2.24.23,4.28,1.39,5.62,3.18l10.28,13.8,16.42-13.09c-2.64-1.27-4.48-3.94-4.55-7.04,0-.02-.01-.04-.01-.06v-3.04c0-.06.02-.11.02-.17.2-4.23,3.7-7.62,7.98-7.62h21.85c.12,0,.26.01.39.02.31.02.61.05.9.1.14.02.28.04.42.07.42.09.86.23,1.29.4.17.07.31.13.44.2.19.09.39.18.58.3.09.05.23.14.34.21.11.08.22.15.32.23.27.19.53.4.77.63.11.11.21.2.3.29.31.32.59.66.83,1.01.01.01.01.02.02.02.01.02.02.04.03.05s0,.02.02.03c.27.41.46.77.65,1.18.04.1.1.24.15.38.13.36.23.67.31,1,.05.19.08.33.1.47.01.05.01.1.02.15.07.3.12.61.12.92Z"/>
    <g>
      <path class="cls-4" d="M110.46,17.44s0-.01,0-.02c0-.24-.03-.47-.07-.69-.01-.08-.03-.15-.05-.23-.04-.16-.09-.32-.15-.47-.03-.07-.05-.15-.08-.22-.09-.21-.2-.41-.32-.59,0-.01-.01-.02-.02-.03-.13-.18-.27-.36-.43-.52-.05-.05-.1-.1-.16-.15-.12-.11-.24-.21-.38-.31-.07-.05-.13-.1-.2-.14-.04-.03-.08-.06-.13-.09-.1-.06-.21-.1-.31-.15-.06-.03-.13-.07-.19-.09-.22-.09-.44-.16-.66-.21-.05-.01-.11-.01-.16-.02-.19-.03-.38-.05-.57-.06-.04,0-.07-.01-.11-.01h-21.85c-2.21,0-4,1.79-4,4s1.79,4,4,4h10.41l-31.02,24.73-12.75-17.11c-.67-.9-1.69-1.48-2.8-1.59-1.12-.11-2.23.25-3.06.99L10.04,59.89c-1.65,1.47-1.8,4-.33,5.65.79.89,1.89,1.34,2.99,1.34.95,0,1.89-.33,2.66-1.01l32.1-28.54,12.61,16.93c.65.87,1.62,1.44,2.69,1.58,1.08.14,2.16-.16,3.01-.84l35.16-28.03-1.8,11.56c-.34,2.18,1.15,4.23,3.33,4.57,2.19.33,4.23-1.15,4.57-3.34l3.39-21.7c.03-.21.05-.41.05-.61,0,0,0,0,0,0Z"/>
      <rect class="cls-4" x="109.18" y="14.39" width="1.27" height="3.08"/>
      <rect class="cls-4" x="99.07" y="36.03" width="1.88" height="3.09"/>
      <rect class="cls-4" x="80.61" y="14.52" width="2.57" height="3.03"/>
      <rect class="cls-4" x="8.7" y="60.43" width="1.99" height="2.66"/>
      <path class="cls-3" d="M110.46,14.73s0-.01,0-.02c0-.24-.03-.47-.07-.69-.01-.08-.03-.15-.05-.23-.04-.16-.09-.32-.15-.47-.03-.07-.05-.15-.08-.22-.09-.21-.2-.41-.32-.59,0-.01-.01-.02-.02-.03-.13-.18-.27-.36-.43-.52-.05-.05-.1-.1-.16-.15-.12-.11-.24-.21-.38-.31-.07-.05-.13-.1-.2-.14-.04-.03-.08-.06-.13-.09-.1-.06-.21-.1-.31-.15-.06-.03-.13-.07-.19-.09-.22-.09-.44-.16-.66-.21-.05-.01-.11-.01-.16-.02-.19-.03-.38-.05-.57-.06-.04,0-.07-.01-.11-.01h-21.85c-2.21,0-4,1.79-4,4s1.79,4,4,4h10.41l-31.02,24.73-12.75-17.11c-.67-.9-1.69-1.48-2.8-1.59-1.12-.11-2.23.25-3.06.99L10.04,57.18c-1.65,1.47-1.8,4-.33,5.65.79.89,1.89,1.34,2.99,1.34.95,0,1.89-.33,2.66-1.01l32.1-28.54,12.61,16.93c.65.87,1.62,1.44,2.69,1.58,1.08.14,2.16-.16,3.01-.84l35.16-28.03-1.8,11.56c-.34,2.18,1.15,4.23,3.33,4.57,2.19.33,4.23-1.15,4.57-3.34l3.39-21.7c.03-.21.05-.41.05-.61,0,0,0,0,0,0Z"/>
    </g>
  </g>
</svg>