<?xml version="1.0" encoding="UTF-8"?>
<svg id="Icon" xmlns="http://www.w3.org/2000/svg" viewBox="0 0 120 120">
  <defs>
    <style>
      .cls-1 {
        fill: #ffa9c2;
      }

      .cls-2 {
        fill: #fff;
      }

      .cls-3 {
        fill: #f47aa0;
      }

      .cls-4 {
        fill: #231f20;
      }

      .cls-5 {
        fill: #b52880;
      }

      .cls-6 {
        fill: #a8b6c1;
      }
    </style>
  </defs>
  <path class="cls-4" d="M115.63,40.36c-.62-.87-1.57-1.46-2.63-1.62L18.77,23.8c-2.16-.34-4.2,1.12-4.57,3.27l-9.57,55.45c-.18,1.05.07,2.14.69,3.01.62.87,1.57,1.46,2.63,1.62l94.24,14.95c.21.03.42.05.63.05,1.91,0,3.6-1.38,3.94-3.32l9.57-55.45c.18-1.05-.07-2.14-.69-3.01Z"/>
  <path class="cls-4" d="M44.7,60.53c-.03.45-.05.9-.03,1.37.06,1.72.48,3.42,1.26,5.13.02.04.04.09.06.13.13.28.27.55.42.83.04.08.08.15.12.23.15.27.31.53.48.8.05.09.1.18.16.26.17.26.35.53.54.79.06.09.12.18.18.27,0,0,0,0,.01.01,0,.01.02.02.03.04.04.05.07.09.11.14.06.08.12.16.18.24.12.16.25.32.37.47.56.71,1.12,1.41,1.72,2.11.04.05.08.11.12.17.05.07.09.13.14.2,0,0,0,.01.01.02,0,0,0,0,0,0,0,.01.01.02.02.03,1.68,2.38,3.48,3.06,4.97,3.06,1.18,0,2.17-.42,2.76-.75.66-.37,1.34-.73,2.03-1.08.16-.09.33-.17.49-.26,1.14-.6,2.3-1.23,3.44-1.94.37-.23.74-.47,1.11-.72.34-.23.65-.47.96-.71.02-.02.04-.03.06-.05,0,0,0,0,0,0,.05-.04.08-.07.13-.11,2.19-1.76,3.59-3.72,4.27-5.95.02-.08.04-.17.06-.25l7.27-3.01,17.11,30.88-77.68-12.32c7.45-8.33,15.84-15.78,24.98-22.21l2.14,2.17Z"/>
  <path class="cls-4" d="M69.21,57.06c-.19-.2-.39-.39-.6-.58-1.5-1.34-3.67-2.42-5.98-2.29-.33.01-.64.05-.94.1-.03,0-.07.01-.1.02-.26.05-.52.1-.76.17-.08.02-.15.05-.23.07-.19.06-.38.13-.56.2-.09.04-.18.08-.27.12-.09.04-.19.08-.28.12-.23-.33-.49-.66-.77-.97-1.43-1.59-3.49-2.8-6.48-2.37-.11.02-.21.02-.32.04-.15.03-.29.07-.44.1-1.07.25-2.04.67-2.9,1.26l-19.26-19.49,69.85,11.08-29.97,12.41Z"/>
  <path class="cls-4" d="M20.73,36.26l16.14,16.33c-8.04,5.76-15.51,12.29-22.31,19.47l6.18-35.8Z"/>
  <polygon class="cls-4" points="100.79 86.36 85.59 58.93 107.06 50.04 100.79 86.36"/>
  <g>
    <polygon class="cls-2" points="102.82 98.14 8.57 83.2 18.14 27.75 112.38 42.69 102.82 98.14"/>
    <path class="cls-6" d="M56.42,67.69c-.26,0-.52-.1-.71-.3L19.14,30.39c-.39-.39-.38-1.03,0-1.41.39-.39,1.03-.38,1.41,0l36.09,36.53,53.86-22.31c.51-.21,1.09.03,1.31.54.21.51-.03,1.1-.54,1.31l-54.48,22.57c-.12.05-.25.08-.38.08Z"/>
    <path class="cls-1" d="M66.99,64.12c-.61,2.04-2.17,3.51-3.87,4.69-2.09,1.44-4.5,2.55-6.73,3.79-1.57.87-2.19-.8-3.03-1.81-.68-.81-1.37-1.62-2-2.48-.07-.08-.14-.17-.2-.26-1.34-1.85-2.41-3.95-2.49-6.28-.09-2.74.96-5.59,3.95-6.13,3.43-.61,4.4,3.18,5.51,5.52.49-.44.97-.94,1.47-1.39.9-.83,1.89-1.53,3.2-1.58,1.32-.06,2.91.83,3.71,1.86.84,1.1.86,2.81.48,4.07Z"/>
    <path class="cls-3" d="M66.99,64.12c-.61,2.04-2.17,3.51-3.87,4.69-2.09,1.44-4.5,2.55-6.73,3.79-1.57.87-2.19-.8-3.03-1.81-.68-.81-1.37-1.62-2-2.48.01-.14.03-.27.05-.41.64,1.32,2.38,1.81,3.82,1.47,1.43-.35,2.61-1.33,3.71-2.31,1.06-.96,2.14-2.03,2.47-3.41.34-1.39-.41-3.13-1.82-3.34v-.54c.91-.83,1.9-1.53,3.21-1.58,1.32-.06,2.91.83,3.71,1.86.84,1.1.86,2.81.48,4.07Z"/>
    <path class="cls-5" d="M55.57,73.85c-1.25,0-2.05-1.13-2.53-1.82-.14-.21-.29-.41-.44-.59-.8-.95-1.55-1.85-2.24-2.8-1.73-2.39-2.61-4.63-2.68-6.84-.13-3.86,1.7-6.59,4.77-7.14h0c3.59-.64,5.07,2.55,6.03,4.8,1.12-1.08,2.4-2.18,4.28-2.27,1.77-.07,3.64,1.08,4.54,2.26,1.14,1.48,1.06,3.6.65,4.97-.59,1.96-1.94,3.62-4.26,5.22-1.5,1.04-3.14,1.9-4.73,2.73-.7.37-1.4.73-2.08,1.11-.49.27-.92.38-1.31.38ZM52.8,56.62h0c-3.04.54-3.16,4.05-3.12,5.11.06,1.8.81,3.68,2.3,5.73.65.89,1.38,1.77,2.09,2.61.25.3.43.55.61.81.77,1.1.87,1.04,1.24.84.69-.39,1.41-.76,2.12-1.13,1.54-.81,3.13-1.64,4.52-2.6,1.92-1.33,3.03-2.65,3.48-4.15.29-.95.31-2.35-.32-3.17-.65-.84-1.96-1.53-2.87-1.48-1.29.06-2.26,1-3.28,2-.25.25-.5.49-.76.72l-1,.91-.58-1.22c-.17-.36-.34-.76-.52-1.17-1.08-2.53-1.94-4.15-3.92-3.8Z"/>
    <path class="cls-6" d="M100.05,94.29c-.35,0-.69-.19-.88-.52l-20.09-36.26c-.27-.48-.09-1.09.39-1.36.48-.27,1.09-.09,1.36.39l20.09,36.26c.27.48.09,1.09-.39,1.36-.15.08-.32.12-.48.12Z"/>
    <path class="cls-6" d="M12.51,81.27c-.23,0-.46-.08-.65-.24-.42-.36-.47-.99-.11-1.41,8.71-10.15,18.73-19.11,29.78-26.65.46-.31,1.08-.19,1.39.26.31.46.19,1.08-.26,1.39-10.91,7.44-20.8,16.28-29.39,26.3-.2.23-.48.35-.76.35Z"/>
  </g>
</svg>