<?xml version="1.0" encoding="UTF-8"?>
<svg id="Icon" xmlns="http://www.w3.org/2000/svg" viewBox="0 0 120 120">
  <defs>
    <style>
      .cls-1 {
        fill: #dd2a39;
      }

      .cls-2 {
        fill: #f43f3f;
      }

      .cls-3 {
        fill: #ffc4b0;
      }

      .cls-4 {
        fill: #7a1839;
      }
    </style>
  </defs>
  <g>
    <path class="cls-4" d="M61.2,45.71l-10.68,18.86,8.06,3.3c2.04.83,3.02,3.16,2.19,5.21l-4.17,10.21s0,.02-.01.03l-.54,1.33-.24.58,4.4,13.28c.19.58.24,1.19.16,1.78h0c-.02.16-.06.31-.09.45l-.03.15c-.04.12-.09.23-.13.34-.03.07-.05.15-.09.22-.04.09-.1.18-.15.27-.04.09-.09.17-.14.25-.05.08-.12.15-.17.23-.07.08-.13.17-.2.25-.06.07-.14.13-.2.19-.08.08-.15.16-.24.23,0,0,0,.01-.02.02h-.01c-.27.22-.43.33-.43.33-.09.05-.18.09-.27.14-.09.05-.17.1-.26.14-.02.01-.04.02-.06.03-.54.23-1.11.36-1.69.36-.22,0-.44-.02-.65-.05-.21-.04-.42-.09-.63-.16-.11-.04-2.83-.99-6.97-2.85l-.79-.37c-.6-.27-1.18-.54-1.79-.84h-.02c-.19-.1-.41-.2-.63-.31l-.23-.11c-.19-.1-.31-.15-.43-.21-.04-.02-.07-.04-.11-.05l-.89-.45s-.04-.02-.06-.03c-.79-.4-1.62-.83-2.48-1.28l-2.6-1.43c-.59-.34-1.15-.67-1.72-1.01-.45-.26-.89-.52-1.32-.78-.66-.4-1.31-.8-1.94-1.21-.74-.47-1.47-.95-2.19-1.43-2.42-1.62-4.72-3.32-6.86-5.06-.09-.08-.17-.15-.25-.22-.05-.03-.1-.07-.14-.11-.48-.39-.93-.78-1.39-1.17-.08-.08-.17-.15-.25-.22-.01,0-.01-.01-.02-.02-1.05-.91-2.06-1.84-3.02-2.78-.48-.47-.95-.95-1.41-1.42l-.97-1.03s-.05-.05-.08-.08l-.21-.23c-.14-.16-.28-.32-.42-.48-.02-.02-.05-.05-.07-.07l-.03-.03s0-.01,0-.02c-.21-.23-.46-.52-.71-.81-.2-.23-.41-.48-.61-.73l-.3-.36c-.09-.11-.16-.2-.24-.3-.18-.22-.35-.43-.51-.65-.07-.09-.15-.19-.22-.28-.1-.13-.2-.27-.3-.4l-.57-.75s-.04-.06-.06-.09c-.07-.09-.13-.18-.19-.27-.15-.2-.29-.4-.42-.59-.07-.11-.15-.22-.22-.33-.72-1.05-1.39-2.12-2.01-3.2l-.24-.43-.13-.23c-.61-1.1-1.18-2.25-1.69-3.41-.66-1.49-1.22-2.99-1.68-4.51-.06-.2-.11-.4-.17-.6-.09-.3-.18-.61-.26-.91-.07-.27-.13-.53-.19-.8-.06-.24-.12-.48-.18-.73-.06-.26-.1-.52-.15-.79-.05-.25-.11-.5-.15-.75-.04-.24-.08-.49-.12-.73-.04-.27-.08-.54-.12-.81-.03-.24-.05-.48-.08-.71-.03-.27-.06-.53-.09-.79,0-.05,0-.11,0-.15-.06-.65-.1-1.3-.12-1.97,0-.13,0-.28,0-.42-.01-.09-.01-.18-.01-.26v-.67c0-.4.01-.78.02-1.16.01-2.99.7-6.32,1.12-8.11.1-.41.19-.75.25-.97,2.12-8.09,7.26-14.49,14.45-18.01,5.57-2.74,11.89-3.45,17.8-2,.38.09.78.2,1.18.32,3.29.97,6.44,2.67,9.11,4.92l.17.14c1.22,1.02,2.88,2.41,3.87,4.27,1,1.85,1.1,3.74,1.17,5.12l.09,1.47,6.82,4.45c1.77,1.15,2.34,3.48,1.3,5.32Z"/>
    <path class="cls-4" d="M106.4,73.18c-8.14,10.57-19.79,18.36-28.49,23.19-5.63,3.12-10.04,5-11.46,5.58-.49.2-1,.3-1.51.3-.72,0-1.43-.19-2.05-.56-1.08-.65-1.8-1.76-1.93-3.02l-.06-.53-1.61-15.11c-.1-.96.14-1.92.69-2.71l1.76-2.53,4.53-6.53-7.66-8.25c-.28-.25-.5-.5-.69-.74l-.29-.31c-.12-.12-.21-.26-.3-.4-.06-.08-.13-.15-.18-.24-.09-.13-.14-.27-.21-.41-.04-.1-.1-.19-.14-.29-.05-.14-.07-.29-.11-.44-.03-.1-.06-.2-.08-.31-.03-.16-.02-.31-.03-.47-.01-.1-.02-.2-.02-.3.01-.17.04-.33.06-.5.02-.08.02-.17.04-.26.04-.19.11-.37.18-.55.02-.06.04-.12.06-.18.09-.2.21-.4.33-.59.03-.03.04-.06.06-.09.12-.17.27-.33.42-.49.04-.04.07-.08.11-.12,0,0,0-.01.01-.01l2.79-2.62,10.47-9.81-2.62-3.83c-.22-.32-.4-.65-.57-.98-.02-.03-.03-.06-.05-.09-.31-.64-.56-1.3-.71-1.99-.52-2-.53-4.12-.28-5.79.28-1.86.98-3.45,1.86-4.8.3-.54.64-1.05,1.05-1.51.19-.2.38-.38.56-.58.26-.28.51-.54.77-.79.03-.04.07-.07.11-.11.45-.44.91-.84,1.33-1.2h.01c.23-.2.46-.39.69-.57.47-.36.93-.7,1.4-1.02,1.2-.83,2.47-1.55,3.78-2.15.52-.23,1.02-.45,1.53-.65.55-.21,1.08-.39,1.62-.56.76-.23,1.57-.44,2.39-.62.56-.11,1.1-.21,1.65-.28,3.07-.44,6.18-.32,9.23.37.22.04.38.08.53.12.12.03.25.06.38.09.66.17,1.2.33,1.72.51.25.09.5.17.75.27.26.1.58.21.9.35.1.04.2.08.3.13.04.01.08.03.13.05.09.04.16.07.24.11.12.05.23.1.34.15.25.12.51.24.77.37.18.1.36.19.55.29.21.11.42.22.64.34.21.12.46.27.71.43.17.1.4.24.62.38.06.04.11.08.17.12.3.21.6.4.88.61l.03.03c.18.12.41.29.64.48.18.13.36.27.53.41l.08.07s.08.07.12.1c.05.04.1.08.15.13h.02c.23.21.45.4.66.59.03.03.07.07.1.1.1.09.2.18.3.28l.12.1c.5.49.98.99,1.47,1.54h.01c.13.15.25.31.38.46.1.11.2.22.29.34.02.02.05.05.07.08l.1.13c.06.08.12.15.18.23.05.07.12.15.17.22.22.29.4.54.58.79.03.04.05.07.08.11.03.04.05.08.08.12.14.2.3.43.45.66.02.04.05.09.08.13l.03.04s.05.08.05.09c.06.09.12.19.18.28l.11.19s.01.01.01.02c.01,0,.01.01.01.01.23.37.45.77.67,1.18.11.19.19.36.28.54.04.07.08.14.12.22.3.61.6,1.26.89,1.99.04.1.1.24.16.39,0,.03.02.06.03.09.01.02.01.03.02.05s.02.04.02.07h0c.03.09.06.17.09.26.03.07.05.12.07.18.03.07.05.14.07.2.07.19.13.37.19.55.02.05.03.08.04.13.12.33.25.77.37,1.2.19.67.63,2.32,1,4.33.05.32.11.65.16.99,0,.02,0,.05,0,.07.05.29.09.6.13.91.01.02.01.04.01.06l.02.14s0,.02.01.04h0c.11,1.02.17,1.79.18,2.49.53,10.94-3.6,20.41-9.7,28.32Z"/>
  </g>
  <g>
    <path class="cls-2" d="M56.41,99.77c-.11.09-.18.14-.18.14,0,0-2.62-.91-6.64-2.72-.25-.12-.52-.24-.79-.36-.54-.25-1.11-.51-1.69-.79-.29-.14-.58-.28-.88-.43-.15-.08-.3-.15-.46-.22-.3-.15-.61-.31-.93-.46-.79-.4-1.6-.81-2.43-1.26-.33-.18-.66-.36-1-.54-.34-.19-.68-.38-1.02-.57-.17-.09-.34-.19-.52-.29-1.56-.88-3.16-1.84-4.78-2.87-2.89-1.83-5.84-3.91-8.67-6.22-.11-.09-.23-.19-.34-.28-.01,0-.02-.02-.03-.02-1.99-1.65-3.94-3.42-5.76-5.31-.32-.34-.63-.67-.95-1.01-.23-.26-.47-.51-.71-.79-.23-.25-.45-.51-.68-.77-.3-.35-.59-.71-.89-1.06-.29-.36-.58-.73-.86-1.1-.28-.37-.56-.74-.84-1.11-.27-.37-.53-.75-.79-1.14-.66-.96-1.27-1.93-1.84-2.93-.11-.2-.23-.4-.34-.61-.56-1.01-1.07-2.05-1.54-3.1-1.51-3.41-2.52-7.06-2.87-10.96v-.03c-.05-.58-.09-1.16-.11-1.76,0-.15-.01-.3-.01-.44,0-.05,0-.09,0-.14,0-.21,0-.43,0-.65,0-.36,0-.72.02-1.09,0-2.71.71-6.15,1.24-8.12,1.94-7.37,6.64-12.64,12.35-15.44,4.68-2.3,10.04-2.94,15.08-1.71.33.08.66.17.99.27,2.82.83,5.44,2.26,7.69,4.15,1.07.9,2.43,2,3.1,3.24s.64,2.58.72,3.9c.06,1.01.12,2.03.19,3.04l8.51,5.55-12.91,22.81,12.26,5.02-4.18,10.24-1.34,3.27,4.86,14.68Z"/>
    <path class="cls-1" d="M51.55,85.08l4.86,14.68c-.12.09-.18.14-.18.14,0,0-2.62-.91-6.64-2.72-.26-.11-.52-.24-.79-.36-.55-.25-1.11-.51-1.69-.79-.29-.14-.59-.28-.89-.43-.15-.07-.3-.15-.46-.22-.31-.15-.62-.31-.93-.46-.79-.39-1.6-.81-2.43-1.26-.33-.18-.67-.36-1-.54-.34-.19-.68-.38-1.02-.56-.17-.09-.34-.19-.52-.29-1.56-.88-3.16-1.84-4.78-2.87-2.89-1.84-5.83-3.91-8.67-6.22-.12-.1-.23-.19-.34-.29-.01,0-.02-.01-.03-.02-2-1.65-3.94-3.42-5.76-5.3-.32-.34-.64-.67-.95-1.01-.47-.51-.93-1.04-1.39-1.57-.3-.35-.59-.71-.89-1.06-.29-.36-.58-.73-.86-1.1-.28-.36-.56-.74-.84-1.11-.27-.38-.53-.76-.8-1.14-.65-.96-1.27-1.93-1.84-2.93-.11-.2-.23-.4-.34-.61-.56-1.01-1.07-2.05-1.54-3.11-1.51-3.41-2.52-7.06-2.87-10.95,1.78,5.96,5.56,11.07,10.16,14.95.71.6,1.44,1.17,2.19,1.72,6.3,4.6,13.64,7.27,20.92,9.72,3.78,1.27,7.72,2.49,11.65,2.45l-1.34,3.28Z"/>
    <path class="cls-3" d="M11.58,53.67c.24,7.81,2.97,15.41,7.04,22.08-.23-.25-.45-.51-.68-.77-.3-.35-.59-.71-.89-1.06-.29-.36-.58-.73-.86-1.1-.28-.37-.56-.74-.84-1.11-.27-.37-.53-.75-.79-1.14-.66-.96-1.27-1.93-1.84-2.93-.11-.2-.23-.4-.34-.61-.56-1.01-1.07-2.05-1.54-3.1-1.51-3.41-2.52-7.06-2.87-10.96v-.03c-.05-.58-.09-1.16-.11-1.76,0-.15-.01-.3-.01-.44,0-.05,0-.09,0-.14,0-.21,0-.43,0-.65,0-.36,0-.72.02-1.09,0-2.71.71-6.15,1.24-8.12,1.94-7.37,6.64-12.64,12.35-15.44,4.68-2.3,10.04-2.94,15.08-1.71-6.52.15-12.96,3.27-17.38,8.15-5.32,5.88-7.82,14.01-7.58,21.94Z"/>
    <path class="cls-2" d="M64.94,98.26l-1.67-15.65,1.97-2.84,6.15-8.86-10.01-10.78-.83-.89,15.77-14.78-4.56-6.66c-.7-1.02-.98-2.31-.8-3.56l.61-4.13c.14-.95.55-1.84,1.17-2.53.75-.83,1.54-1.6,2.36-2.28.2-.17.39-.33.59-.48.39-.31.79-.6,1.2-.88,1.02-.7,2.08-1.3,3.17-1.8.44-.2.87-.39,1.32-.56.44-.17.89-.32,1.34-.46.67-.21,1.35-.38,2.04-.53.46-.09.92-.18,1.38-.24,2.61-.37,5.25-.26,7.81.31.15.03.31.07.46.11.13.03.26.06.4.1.46.12.92.25,1.37.41.2.06.39.13.58.2.25.09.51.18.75.29.04.02.08.03.12.05.1.03.21.08.31.13.16.07.32.14.47.21.56.26,1.12.54,1.67.85.2.11.39.22.58.34.19.11.38.23.57.35.29.19.58.38.85.59.2.14.4.29.59.44.22.17.43.34.64.51.22.19.44.37.66.57.17.15.33.31.5.46.42.41.83.83,1.23,1.28.2.23.4.46.59.7.14.18.29.36.42.54.19.25.38.5.56.77.15.22.31.44.45.67.03.04.05.08.08.12.1.17.21.33.31.5.21.34.4.69.59,1.04.11.21.22.41.32.62.28.55.53,1.12.77,1.71.06.15.12.3.18.46.04.09.07.17.1.26.05.12.1.23.13.36.07.18.13.36.19.54.12.36.23.72.33,1.08.35,1.23.77,3.02,1.06,4.85.06.37.11.73.16,1.09.08.74.14,1.46.16,2.14,1.64,32.59-43.71,51.83-47.17,53.25Z"/>
    <path class="cls-3" d="M97.53,21.75l-1.42.15c-3-.04-6.02-.07-8.96.57-2.93.65-5.82,2.03-7.84,4.44-2.17,2.58-2.9,6.07-2.59,9.48.33,3.64,2.61,6.14,4.52,9.07-3.95,2.98-7.9,5.97-11.86,8.95-1.98,1.49-3.95,2.98-5.93,4.47-.46.35-1.46,1.4-2.11,1.23-.1-.03-.75-.92-.8-.87,0,0,15.77-14.78,15.77-14.78,0,0-4.55-6.66-4.56-6.66-1.05-1.54-1.23-4.18-.96-6,.41-2.77,2.22-4.78,4.3-6.52.2-.17.39-.33.59-.48.39-.31.79-.6,1.2-.88,1.02-.7,2.08-1.3,3.17-1.8.44-.2.87-.39,1.32-.56.44-.17.89-.32,1.34-.46.67-.21,1.35-.38,2.04-.53.46-.09.92-.18,1.38-.24,2.61-.37,5.25-.26,7.81.31.15.03.31.07.46.11.13.03.26.06.4.1.46.12.92.25,1.37.41.2.06.39.13.58.2.25.09.51.18.75.29Z"/>
    <path class="cls-1" d="M64.94,98.25l-1.67-15.65,1.97-2.84c1.15.3,2.32.49,3.51.53,4.9.16,9.55-2.2,13.86-4.74,6.65-3.93,13.12-8.55,17.96-14.88,4.84-6.34,7.93-14.62,7.02-22.8-.74-6.67-4.54-13.06-9.94-16.08.1.03.2.08.31.13.16.07.32.14.47.22.56.25,1.12.54,1.67.85.2.11.39.22.58.34.19.11.38.23.56.35.29.19.57.38.85.59.2.14.4.29.59.44.22.16.43.34.64.51.22.19.44.37.66.57.17.15.33.31.5.47.42.41.83.83,1.22,1.28.19.21.37.43.55.64.16.2.32.39.47.6.19.25.38.5.56.77.15.22.31.44.46.67.02.04.05.08.08.12.1.16.21.33.31.5.21.34.4.69.59,1.04.11.2.21.41.32.62.28.55.53,1.12.77,1.71.06.15.12.31.18.46.03.09.07.17.1.26.05.12.09.24.13.36.07.18.13.36.19.54.12.35.23.72.33,1.08.35,1.23.78,3.02,1.06,4.85.06.36.11.73.15,1.1.08.74.14,1.46.16,2.13,1.64,32.59-43.71,51.84-47.17,53.25Z"/>
    <path class="cls-3" d="M17.02,33.42c-2.08,2.28-3.31,5.33-3.39,8.42-.03,1.34.16,2.74.89,3.87,1.3,2.01,4.07,2.67,6.39,2.07s4.24-2.19,5.89-3.92c1.46-1.53,2.79-3.23,3.56-5.2s.95-4.23.14-6.18c-2.57-6.14-10.24-2.62-13.48.94Z"/>
  </g>
</svg>