<?xml version="1.0" encoding="UTF-8"?>
<svg id="Layer_1" xmlns="http://www.w3.org/2000/svg" viewBox="0 0 120 120">
  <defs>
    <style>
      .cls-1 {
        fill: #1cb829;
      }

      .cls-2 {
        fill: #fff;
      }

      .cls-3 {
        fill: none;
        stroke: #05542a;
        stroke-linecap: round;
        stroke-linejoin: round;
        stroke-width: 8px;
      }

      .cls-4 {
        opacity: 0;
      }

      .cls-5 {
        fill: #34d434;
      }

      .cls-6 {
        fill: #54f445;
      }
    </style>
  </defs>
  <g class="cls-4">
    <rect class="cls-2" width="120" height="120"/>
  </g>
  <g>
    <g>
      <path class="cls-3" d="M30.07,67.4c-4.68-2.16-8.96-5.15-12.43-8.95-2.96-3.24-5.29-7.06-6.78-11.18,0-.6-.53-1.17-.73-1.71-.31-.86-.43-1.84-.63-2.72-.42-1.84-.84-3.69-1.26-5.53-.29-1.28-.54-2.75.26-3.79.83-1.07,2.4-1.16,3.76-1.14,8.07.14,16.12.95,24.05,2.42,6.24,1.16,12.51,2.76,17.94,6.04,1.36.82,2.65,1.75,3.86,2.76,4.34,3.63,7.69,8.42,9.66,13.72.97,2.59,1.75,5.45,1.88,8.23s-2.42,4.5-4.9,4.86c-2.47.36-5.1.56-7.62.84-6.05.68-12.22.5-18.18-.84-3.05-.69-6.05-1.69-8.89-3Z"/>
      <path class="cls-3" d="M68.49,68.3c-2.57-1.35-5.16-2.6-7.67-3.83-8.91-4.35-17.5-9.1-26.08-14.07-8.66-5.02-17.57-9.43-26.62-13.68.04.19.08.39.12.57.42,1.84.84,3.69,1.26,5.53.2.89.32,1.87.63,2.72.2.54.73,1.11.73,1.71,1.49,4.12,3.82,7.95,6.78,11.18,3.47,3.8,7.75,6.79,12.43,8.95,2.84,1.31,5.84,2.32,8.89,3,5.95,1.34,12.12,1.52,18.18.84,2.52-.28,5.15-.48,7.62-.84,1.45-.21,2.9-.93,3.85-2.02-.04-.03-.08-.06-.12-.09Z"/>
      <path class="cls-3" d="M105.74,10.28c-.79.18-1.56.39-2.23.53-2.96.61-5.88,1.37-8.76,2.28-10.9,3.47-21.39,8.96-29.09,17.57-2.51,2.81-4.7,5.91-6.46,9.24-5.3,10.01-6.57,23.08-6.6,34.22-.03,8.7,1,17.4,3.09,25.84.95,3.85,2.54,8.12,6.23,9.6,3.21,1.28,6.82-.05,9.97-1.48,1.34-.61,2.7-1.26,3.72-2.32s1.62-2.63,1.15-4.03c-.5-1.47-1.98-2.32-3.27-3.18-4.25-2.85-7.45-7.23-8.86-12.14-1.03-3.6-1.1-7.47-.24-11.11.91-3.85,1.65-5.59,5.88-6.09,11.38-1.33,21.17-7.95,28.03-16.9,3.71-4.85,6.61-10.31,8.71-16.03,2.54-6.9,4.62-14.13,5.02-21.52.08-1.46,0-3.16-1.15-4.07-1.38-1.09-3.33-.83-5.12-.42Z"/>
      <path class="cls-3" d="M110.87,10.69c-.3-.24-.64-.4-.99-.53-15.64,13.08-33.53,26.78-41.29,46.17-2.12,5.29-3.74,11.48-3.84,17.55.81-2.87,1.85-4.24,5.51-4.67,11.38-1.33,21.17-7.95,28.03-16.9,3.71-4.85,6.61-10.31,8.71-16.03,2.54-6.9,4.62-14.13,5.02-21.52.08-1.46,0-3.16-1.15-4.07Z"/>
    </g>
    <g>
      <path class="cls-5" d="M30.07,67.4c-4.68-2.16-8.96-5.15-12.43-8.95-2.96-3.24-5.29-7.06-6.78-11.18,0-.6-.53-1.17-.73-1.71-.31-.86-.43-1.84-.63-2.72-.42-1.84-.84-3.69-1.26-5.53-.29-1.28-.54-2.75.26-3.79.83-1.07,2.4-1.16,3.76-1.14,8.07.14,16.12.95,24.05,2.42,6.24,1.16,12.51,2.76,17.94,6.04,1.36.82,2.65,1.75,3.86,2.76,4.34,3.63,7.69,8.42,9.66,13.72.97,2.59,1.75,5.45,1.88,8.23s-2.42,4.5-4.9,4.86c-2.47.36-5.1.56-7.62.84-6.05.68-12.22.5-18.18-.84-3.05-.69-6.05-1.69-8.89-3Z"/>
      <path class="cls-1" d="M68.49,68.3c-2.57-1.35-5.16-2.6-7.67-3.83-8.91-4.35-17.5-9.1-26.08-14.07-8.66-5.02-17.57-9.43-26.62-13.68.04.19.08.39.12.57.42,1.84.84,3.69,1.26,5.53.2.89.32,1.87.63,2.72.2.54.73,1.11.73,1.71,1.49,4.12,3.82,7.95,6.78,11.18,3.47,3.8,7.75,6.79,12.43,8.95,2.84,1.31,5.84,2.32,8.89,3,5.95,1.34,12.12,1.52,18.18.84,2.52-.28,5.15-.48,7.62-.84,1.45-.21,2.9-.93,3.85-2.02-.04-.03-.08-.06-.12-.09Z"/>
      <path class="cls-6" d="M105.74,10.28c-.79.18-1.56.39-2.23.53-2.96.61-5.88,1.37-8.76,2.28-10.9,3.47-21.39,8.96-29.09,17.57-2.51,2.81-4.7,5.91-6.46,9.24-5.3,10.01-6.57,23.08-6.6,34.22-.03,8.7,1,17.4,3.09,25.84.95,3.85,2.54,8.12,6.23,9.6,3.21,1.28,6.82-.05,9.97-1.48,1.34-.61,2.7-1.26,3.72-2.32s1.62-2.63,1.15-4.03c-.5-1.47-1.98-2.32-3.27-3.18-4.25-2.85-7.45-7.23-8.86-12.14-1.03-3.6-1.1-7.47-.24-11.11.91-3.85,1.65-5.59,5.88-6.09,11.38-1.33,21.17-7.95,28.03-16.9,3.71-4.85,6.61-10.31,8.71-16.03,2.54-6.9,4.62-14.13,5.02-21.52.08-1.46,0-3.16-1.15-4.07-1.38-1.09-3.33-.83-5.12-.42Z"/>
      <path class="cls-5" d="M110.87,10.69c-.3-.24-.64-.4-.99-.53-15.64,13.08-33.53,26.78-41.29,46.17-2.12,5.29-3.74,11.48-3.84,17.55.81-2.87,1.85-4.24,5.51-4.67,11.38-1.33,21.17-7.95,28.03-16.9,3.71-4.85,6.61-10.31,8.71-16.03,2.54-6.9,4.62-14.13,5.02-21.52.08-1.46,0-3.16-1.15-4.07Z"/>
    </g>
  </g>
</svg>