<?xml version="1.0" encoding="UTF-8"?>
<svg id="Icon" xmlns="http://www.w3.org/2000/svg" viewBox="0 0 120 120">
  <defs>
    <style>
      .cls-1 {
        fill: #13437c;
      }

      .cls-2 {
        fill: #3288d6;
      }

      .cls-3 {
        fill: #fff;
      }

      .cls-4 {
        fill: #dfedf2;
      }

      .cls-5 {
        fill: #47acea;
      }
    </style>
  </defs>
  <path class="cls-1" d="M117.32,35.79l-5.34,55.88h0s-.29,2.96-.29,2.96c-.3,3.19-1.83,6.07-4.3,8.11-2.17,1.79-4.84,2.75-7.62,2.75-.39,0-.77-.02-1.16-.06l-85.12-8.14c-3.19-.3-6.07-1.83-8.11-4.3-1.79-2.17-2.75-4.83-2.75-7.61,0-.39.02-.78.06-1.17l5.34-55.88h0s.28-2.95.28-2.95c.3-3.19,1.83-6.07,4.31-8.12,2.47-2.04,5.59-2.99,8.78-2.69l85.11,8.14c3.19.3,6.07,1.83,8.11,4.3,2.05,2.48,3,5.59,2.7,8.78Z"/>
  <g>
    <rect class="cls-2" x="23.79" y="10.72" width="72.13" height="101.5" rx="8" ry="8" transform="translate(-7.03 115.21) rotate(-84.54)"/>
    <rect class="cls-5" x="24.07" y="7.77" width="72.13" height="101.5" rx="8" ry="8" transform="translate(-3.84 112.82) rotate(-84.54)"/>
    <rect class="cls-4" x="30.01" y="13.7" width="60.27" height="89.64" rx="4" ry="4" transform="translate(-3.84 112.82) rotate(-84.54)"/>
    <rect class="cls-3" x="31.13" y="14.94" width="57.78" height="89.64" rx="4" ry="4" transform="translate(-5.18 113.83) rotate(-84.54)"/>
    <g>
      <path d="M22.37,51.71c-.28-.03-.5-.14-.65-.33-.15-.19-.2-.47-.17-.83s.14-.62.32-.78c.18-.16.42-.22.7-.2l8.63.83c.29.03.5.13.65.33.15.19.21.47.17.83s-.14.62-.32.78-.41.22-.7.2l-2.99-.28-.94,9.85c-.04.37-.17.65-.41.83-.24.18-.58.25-1.03.21-.45-.04-.77-.18-.97-.4-.2-.22-.28-.52-.24-.89l.94-9.85-2.99-.29Z"/>
      <path d="M35.33,62.89c-.04.37-.17.65-.4.83-.23.18-.57.25-1.01.21-.45-.04-.77-.18-.96-.4-.19-.22-.27-.52-.23-.89l1.03-10.77c.04-.38.17-.67.4-.86.23-.19.54-.27.92-.23l2.79.27c.89.08,1.65.25,2.29.5.63.25,1.14.55,1.53.93s.66.8.82,1.27c.16.47.21.98.16,1.52-.04.45-.15.86-.31,1.22-.16.37-.37.69-.63.97-.26.28-.56.52-.9.71s-.72.33-1.12.43l2.09,4c.09.17.16.33.19.45.03.12.05.25.03.39-.02.18-.08.35-.18.5-.1.15-.23.27-.38.38s-.32.18-.51.23c-.19.05-.37.06-.55.05s-.34-.06-.47-.14c-.13-.07-.24-.17-.33-.28-.03-.04-.07-.08-.1-.12-.03-.04-.06-.09-.08-.13-.02-.05-.05-.1-.08-.15-.03-.05-.06-.11-.09-.18l-2.21-4.7-1.31-.12-.4,4.14ZM37.26,56.87c.42.04.8.03,1.12-.04.32-.06.6-.17.83-.32.23-.15.4-.34.52-.57.12-.23.2-.49.23-.77.03-.29,0-.55-.07-.79-.07-.24-.21-.45-.39-.63-.19-.18-.45-.33-.77-.45-.32-.12-.72-.2-1.18-.25l-1.26-.12-.36,3.82,1.34.13Z"/>
      <path d="M45.76,63.87c-.09.21-.17.39-.25.54s-.17.26-.27.34c-.1.08-.22.14-.36.18-.14.04-.31.05-.49.04-.16-.02-.33-.06-.48-.12-.16-.07-.3-.15-.42-.26-.12-.11-.22-.23-.29-.38-.07-.15-.1-.31-.08-.49,0-.1.03-.2.07-.3.04-.1.1-.25.19-.45l4.24-9.26c.07-.15.14-.28.2-.4.06-.12.13-.23.19-.32.07-.1.13-.18.2-.26s.14-.15.23-.22c.18-.15.4-.25.65-.32.25-.06.56-.07.92-.04.36.03.66.11.89.21.24.11.43.25.58.43.07.08.13.17.18.26.05.09.1.19.15.29.05.11.09.22.13.35.04.13.08.27.12.43l2.44,9.85c.06.22.09.39.1.49.01.1.01.2,0,.29-.02.2-.08.36-.18.5-.1.14-.23.25-.38.33-.15.09-.31.15-.49.18s-.35.04-.51.03c-.18-.02-.35-.06-.49-.13-.14-.07-.26-.16-.35-.27-.09-.1-.15-.23-.2-.37-.05-.15-.1-.33-.14-.55l-.49-2.03-4.8-.46-.82,1.9ZM50.95,60.35l-.89-3.86c-.06-.27-.12-.52-.17-.75-.05-.23-.09-.44-.12-.62-.04-.21-.08-.4-.11-.59h-.04c-.06.17-.13.36-.21.55-.07.17-.15.37-.23.59-.08.22-.18.45-.29.7l-1.54,3.63,3.59.34Z"/>
      <path d="M57.6,54.04c.04-.37.17-.65.41-.83.23-.18.58-.25,1.03-.21.46.04.78.18.98.4s.28.52.24.89l-1.04,10.88c-.04.37-.17.65-.41.83-.24.18-.58.25-1.04.21-.45-.04-.77-.18-.97-.4-.2-.22-.28-.52-.24-.89l1.04-10.88Z"/>
      <path d="M63.31,55.23c.06-.61.25-1.05.58-1.31.33-.27.8-.37,1.42-.31.29.03.52.08.72.16.19.08.36.19.51.33.15.13.28.3.39.48.11.19.22.4.34.63l3.46,7.07c.12.25.23.5.33.74s.18.46.25.65c.09.22.17.43.24.64h.05c0-.24,0-.48,0-.73,0-.22,0-.46.01-.74,0-.28.02-.57.05-.87l.52-6.64c.02-.32.14-.57.36-.74s.54-.24.93-.2c.4.04.69.16.87.37.18.21.25.47.22.8l-.99,10.35c-.06.61-.25,1.05-.58,1.32-.33.27-.8.37-1.43.31-.28-.03-.52-.08-.72-.16-.2-.08-.37-.19-.52-.33-.15-.13-.28-.3-.39-.48-.11-.19-.22-.4-.34-.63l-3.45-7.06c-.12-.25-.23-.5-.34-.75-.1-.24-.19-.46-.26-.65-.09-.22-.17-.43-.24-.64l-.04.02c0,.22,0,.46,0,.72,0,.22,0,.47-.02.75-.01.28-.02.57-.04.87l-.52,6.64c-.02.32-.14.57-.36.74-.22.17-.54.24-.93.2s-.69-.16-.87-.37c-.18-.2-.25-.47-.22-.8l.99-10.36Z"/>
      <path d="M79.39,66.13l4.46.43c.27.03.48.13.62.32.15.19.2.45.17.8-.03.34-.14.59-.32.75s-.4.22-.67.19l-5.91-.56c-.39-.04-.67-.17-.86-.4-.19-.23-.27-.54-.23-.92l1.02-10.67c.04-.38.17-.67.4-.86.23-.19.54-.27.92-.23l5.86.56c.28.03.49.13.64.32.14.19.2.45.17.79-.03.34-.14.59-.31.75-.18.16-.41.23-.69.2l-4.41-.42-.32,3.33,3.77.36c.27.03.47.13.62.32.14.19.2.45.17.78-.03.33-.14.57-.31.73-.18.15-.4.22-.66.19l-3.77-.36-.35,3.61Z"/>
      <path d="M89.69,67.12l4.46.43c.27.03.48.13.63.32.15.19.2.45.17.8-.03.34-.14.59-.32.75-.18.16-.4.22-.67.19l-5.9-.56c-.39-.04-.67-.17-.86-.4-.19-.23-.27-.54-.23-.92l1.02-10.67c.04-.38.17-.67.4-.86.23-.19.54-.27.92-.23l5.86.56c.28.03.49.13.64.32.15.19.2.45.17.79-.03.34-.14.59-.31.75-.18.16-.41.22-.68.2l-4.42-.42-.32,3.33,3.77.36c.27.02.47.13.62.32.14.19.2.45.17.78-.03.33-.14.57-.31.73-.18.15-.4.22-.67.19l-3.77-.36-.35,3.61Z"/>
    </g>
  </g>
</svg>