<?xml version="1.0" encoding="UTF-8"?>
<svg id="Icon" xmlns="http://www.w3.org/2000/svg" viewBox="0 0 120 120">
  <defs>
    <style>
      .cls-1 {
        fill: #fff;
      }

      .cls-2 {
        fill: #dfedf2;
      }

      .cls-3 {
        fill: #aa5217;
      }

      .cls-4 {
        fill: #333;
      }

      .cls-5 {
        fill: #6d3108;
      }
    </style>
  </defs>
  <path class="cls-4" d="M116,60.21c-2.87,4.69-8.06,7.88-14.24,8.75-1.28.18-2.57.27-3.97.27-1.64,0-3.22-.13-4.73-.3-2.85,2.31-6.14,4.19-9.93,5.36-2.64,11.61-12.28,32.34-33.95,32.34-8.56,0-15.1-2.76-20.08-6.8-1.79.23-3.67.42-5.65.42-1.39,0-2.69-.09-3.96-.27-6.19-.88-11.38-4.07-14.25-8.75-4.03-6.59-2.64-15.24,3.17-19.69,1.76-1.35,3.84-2.24,6.05-2.65,0-.1-.01-.2-.01-.3,0-9.31,16.58-12.67,29.37-13.38-3.26-7.08-4.38-14.04-4.44-17.33,0-.11-.01-.21-.01-.3,0-10.69,21.83-13.54,34.73-13.54s34.74,2.85,34.74,13.54c0,.15-.01.32-.02.48,0,.12,0,.23-.01.36,1.44.49,2.81,1.18,4.02,2.11,5.81,4.45,7.21,13.09,3.17,19.68Z"/>
  <g>
    <g>
      <path class="cls-2" d="M97.79,65.23c1.12,0,2.26-.07,3.41-.23,4.99-.71,9.15-3.22,11.39-6.88,2.93-4.78,1.95-11.25-2.19-14.42-2.56-1.96-6.08-2.58-9.42-1.67-2.62.71-5.08,2.33-7.13,4.67l5.11,6.2c.86-2.14,2.55-3.13,4.02-3.54,1.04-.28,2.14-.14,2.8.37,1.06.81,1.22,2.95.33,4.41-1.04,1.7-3.28,2.94-5.98,3.33-2.91.41-6.13-.08-9.24-.56l-1.16,7.51c2.5.39,5.23.81,8.06.81Z"/>
      <path class="cls-1" d="M104.84,37.58c0,5.27-6.84,34.03-30.73,34.03-25.85,0-30.73-28.76-30.73-34.03s13.76-9.54,30.73-9.54,30.73,4.27,30.73,9.54Z"/>
      <path class="cls-2" d="M101.28,37.58c0,4.74-4.9,28.53-21.29,33.22,9.14-6.96,11.94-29.25,11.94-33.94,0-3.29-2.76-6.2-7.04-8.04,9.65,1.47,16.4,4.84,16.4,8.76Z"/>
      <path class="cls-2" d="M104.84,37.58c0,1.43-1.01,2.79-2.84,4-4.89,3.28-15.54,5.55-27.9,5.55s-22.81-2.23-27.75-5.46c-1.91-1.24-2.97-2.62-2.97-4.09,0-5.26,13.76-9.54,30.73-9.54s30.74,4.28,30.74,9.54Z"/>
      <g>
        <path class="cls-5" d="M102.01,41.58c-3.92,2.63-11.57,4.62-20.84,5.29-2.27.17-4.63.26-7.06.26-.65,0-1.28,0-1.91-.02-1.19-.02-2.35-.07-3.49-.13-6.95-.38-13.08-1.49-17.58-3.07-1.92-.67-3.53-1.43-4.78-2.24,2.7-1.81,7.16-3.32,12.7-4.3,4.48-.79,9.66-1.24,15.18-1.24,2.52,0,4.97.09,7.31.28,1.12.09,2.2.19,3.27.3,2.59.29,5.03.7,7.24,1.19,4.25.94,7.69,2.21,9.95,3.7Z"/>
        <path class="cls-3" d="M81.55,36.39l-12.84,10.59c-6.95-.38-13.08-1.49-17.58-3.07l7.92-6.55c4.48-.79,9.66-1.24,15.18-1.24,2.52,0,4.97.09,7.31.28Z"/>
        <path class="cls-3" d="M92.06,37.88l-10.89,8.99c-2.27.17-4.63.26-7.06.26-.65,0-1.28,0-1.91-.02l12.62-10.41c2.59.29,5.03.7,7.24,1.19Z"/>
      </g>
    </g>
    <g>
      <path class="cls-1" d="M23.45,96.25c-1.12,0-2.26-.07-3.41-.23-4.99-.71-9.15-3.22-11.39-6.88-2.93-4.78-1.95-11.25,2.19-14.42,2.56-1.96,6.08-2.58,9.42-1.67,2.62.71,5.08,2.33,7.13,4.67l-5.11,6.2c-.86-2.14-2.55-3.13-4.02-3.54-1.04-.28-2.14-.14-2.8.37-1.06.81-1.22,2.95-.33,4.41,1.04,1.7,3.28,2.94,5.98,3.33,2.91.41,6.13-.08,9.24-.56l1.16,7.51c-2.5.39-5.23.81-8.06.81Z"/>
      <path class="cls-1" d="M79.92,68.6c0,5.27-6.84,34.03-30.73,34.03-25.85,0-30.73-28.76-30.73-34.03s13.76-9.54,30.73-9.54,30.73,4.27,30.73,9.54Z"/>
      <path class="cls-2" d="M76.36,68.59c0,4.74-4.9,28.53-21.29,33.22,9.14-6.96,11.94-29.25,11.94-33.94,0-3.29-2.76-6.2-7.04-8.04,9.65,1.47,16.4,4.84,16.4,8.76Z"/>
      <path class="cls-2" d="M79.92,68.59c0,1.43-1.01,2.79-2.84,4-4.89,3.28-15.54,5.55-27.9,5.55s-22.81-2.23-27.75-5.46c-1.91-1.24-2.97-2.62-2.97-4.09,0-5.26,13.76-9.54,30.73-9.54s30.74,4.28,30.74,9.54Z"/>
      <path class="cls-5" d="M77.08,72.59c-3.92,2.63-11.57,4.62-20.84,5.29-2.27.17-4.63.26-7.06.26-.65,0-1.28,0-1.91-.02-1.19-.02-2.35-.07-3.49-.13-6.95-.38-13.08-1.49-17.58-3.07-1.92-.67-3.53-1.43-4.78-2.24,2.7-1.81,7.16-3.32,12.7-4.3,4.48-.79,9.66-1.24,15.18-1.24,2.52,0,4.97.09,7.31.28,1.12.09,2.2.19,3.27.3,2.59.29,5.03.7,7.24,1.19,4.25.94,7.69,2.21,9.95,3.7Z"/>
      <path class="cls-3" d="M56.62,67.41l-12.84,10.59c-6.95-.38-13.08-1.49-17.58-3.07l7.92-6.55c4.48-.79,9.66-1.24,15.18-1.24,2.52,0,4.97.09,7.31.28Z"/>
      <path class="cls-3" d="M67.13,68.9l-10.89,8.99c-2.27.17-4.63.26-7.06.26-.65,0-1.28,0-1.91-.02l12.62-10.41c2.59.29,5.03.7,7.24,1.19Z"/>
    </g>
  </g>
</svg>