<?xml version="1.0" encoding="UTF-8"?>
<svg id="Icon" xmlns="http://www.w3.org/2000/svg" viewBox="0 0 120 120">
  <defs>
    <style>
      .cls-1 {
        fill: #dd2a39;
      }

      .cls-2 {
        fill: #a152db;
      }

      .cls-3 {
        fill: #fff;
      }

      .cls-4 {
        fill: #dfedf2;
      }

      .cls-5 {
        fill: #f43f3f;
      }

      .cls-6 {
        fill: #ff7d63;
      }

      .cls-7 {
        fill: #7a1839;
      }
    </style>
  </defs>
  <path class="cls-7" d="M108.76,103.6c-1.2,1.52-2.92,2.5-4.84,2.73l-3.65.45.66,4.2c.23,1.44-.35,2.9-1.51,3.79-1.16.89-2.71,1.08-4.05.49l-8.51-3.75-7.46,5.77c-.71.55-1.58.84-2.45.84-.51,0-1.03-.1-1.52-.3-1.32-.54-2.25-1.75-2.44-3.16l-.6-4.45-37.05,4.55c-.58.07-1.16.1-1.74.1-3.12,0-6.13-1.03-8.63-2.98-2.67-2.09-4.46-5.01-5.11-8.31-.05-.18-.1-.35-.12-.54l-.07-.5h0v-.02l-.31-2.55h0s-.52-4.21-.52-4.21h0s-7.81-63.61-7.81-63.61h0v-.03l-.45-3.6c-.94-7.69,4.55-14.72,12.24-15.67L91.4,4.42c3.98-.5,7.61,2.35,8.09,6.32l.45,3.61.69,5.61.57,4.7.35,2.81,7.93,64.54.46,3.78.3,2.45c.24,1.93-.29,3.83-1.48,5.36Z"/>
  <g>
    <rect class="cls-5" x="18.82" y="22.72" width="82.42" height="75.08" transform="translate(-6.9 7.77) rotate(-7)"/>
    <path class="cls-1" d="M104.22,81.99l-71.82,8.82c-5.51.68-9.44,5.7-8.76,11.21h0c.68,5.51,5.7,9.44,11.21,8.76l68.58-8.42c1.79-.22,3.06-1.85,2.84-3.63l-2.06-16.73Z"/>
    <path class="cls-1" d="M103.39,75.23l-71.82,8.82c-5.51.68-9.44,5.7-8.76,11.21l.52,4.2c.39,3.2,3.3,5.47,6.5,5.08l72.78-8.94c1.79-.22,3.06-1.85,2.84-3.63l-2.06-16.73Z"/>
    <path class="cls-6" d="M91.89,8.39L23.31,16.81c-5.51.68-9.44,5.7-8.76,11.21h0c.68,5.51,5.7,9.44,11.21,8.76l71.82-8.82-2.06-16.73c-.22-1.79-1.85-3.06-3.63-2.84Z"/>
    <path class="cls-5" d="M92.34,12L23.76,20.42c-5.51.68-9.44,5.7-8.76,11.21h0c.68,5.51,5.7,9.44,11.21,8.76l71.82-8.82-2.06-16.73c-.22-1.79-1.85-3.06-3.63-2.84Z"/>
    <path class="cls-3" d="M100.65,78.56l-68.29,8.39c-3.66.45-6.26,3.78-5.81,7.44l.83,6.73c.45,3.66,3.78,6.26,7.44,5.81l68.29-8.39-2.45-19.97Z"/>
    <rect class="cls-1" x="101.86" y="78.3" width="3.13" height="20.12" transform="translate(-10 13.27) rotate(-7)"/>
    <path class="cls-4" d="M59.14,97.33l43.16-5.3.21,1.68-43.16,5.3c-.46.06-.89-.27-.94-.74h0c-.06-.46.27-.89.74-.94Z"/>
    <rect class="cls-4" x="44.96" y="98.65" width="7.1" height="1.7" rx=".85" ry=".85" transform="translate(-11.77 6.66) rotate(-7)"/>
    <path class="cls-4" d="M26.59,94.74l43.16-5.3c.46-.06.89.27.94.74h0c.06.46-.27.89-.74.94l-43.16,5.3-.21-1.68Z"/>
    <path class="cls-4" d="M78.47,83.45l22.44-2.76.21,1.68-22.44,2.76c-.46.06-.89-.27-.94-.74h0c-.06-.46.27-.89.74-.94Z"/>
    <g>
      <path d="M34.92,47.92c-.08-.63-.03-1.22.13-1.78.16-.56.45-1.07.86-1.52s.94-.82,1.59-1.12c.65-.3,1.42-.51,2.31-.62.45-.05.86-.08,1.23-.07s.71.04,1.01.09c.3.05.56.12.78.21.22.09.39.18.52.28.18.14.3.28.37.42.07.14.12.31.14.5.04.33-.03.6-.2.8-.17.2-.41.32-.71.36-.18.02-.35.01-.52-.03-.17-.05-.37-.09-.59-.15-.22-.05-.48-.09-.79-.12-.3-.03-.67-.02-1.1.04-.4.05-.73.13-1.01.25-.28.12-.5.26-.68.44-.17.18-.29.37-.35.59-.06.22-.08.45-.05.7.04.36.18.65.4.86.22.22.51.39.85.52s.73.24,1.16.33.86.18,1.31.29c.44.11.88.24,1.32.4.44.16.84.38,1.2.66.36.28.67.64.92,1.07.25.44.42.98.5,1.63s.04,1.3-.13,1.89c-.17.59-.47,1.12-.89,1.59-.42.47-.98.86-1.66,1.18-.68.32-1.5.53-2.44.65-.5.06-.96.09-1.38.08-.41-.01-.78-.04-1.1-.1-.32-.06-.59-.13-.82-.22-.23-.09-.4-.18-.52-.27-.17-.13-.3-.27-.38-.41-.08-.14-.14-.32-.16-.53-.04-.34.02-.61.19-.82s.41-.33.71-.37c.18-.02.36,0,.52.04.17.05.38.11.62.16.24.06.53.1.87.13.34.03.77.01,1.29-.05.44-.05.81-.15,1.12-.29.31-.14.56-.3.74-.5.19-.19.32-.42.39-.67.07-.25.1-.51.06-.79-.05-.39-.18-.7-.41-.93-.23-.23-.51-.42-.85-.57-.34-.15-.73-.27-1.15-.36-.43-.09-.86-.19-1.31-.3-.45-.11-.89-.24-1.32-.39-.43-.15-.83-.36-1.19-.63-.36-.27-.66-.61-.91-1.03-.25-.41-.41-.93-.49-1.56Z"/>
      <path d="M55.15,41.95c.07-.11.13-.2.18-.28.05-.08.1-.15.15-.21.1-.13.22-.24.37-.33.14-.09.31-.15.51-.18s.4-.01.61.04c.2.05.39.13.55.24s.3.25.41.4c.11.16.18.33.2.53.02.15.01.3-.03.45-.04.15-.11.3-.23.47l-3.79,5.4,5.04,4.8c.07.06.13.12.2.19.07.07.13.15.18.23s.1.17.14.26.07.19.08.3c.03.21,0,.41-.07.61s-.18.37-.32.53c-.14.16-.31.29-.5.4-.19.11-.39.17-.6.2-.19.02-.38.01-.55-.04-.17-.05-.32-.12-.45-.22-.07-.06-.15-.12-.22-.19-.07-.07-.17-.17-.29-.28l-5.71-5.68.72,5.83c.05.42-.03.77-.25,1.03-.22.26-.58.42-1.1.49s-.9,0-1.17-.21c-.27-.2-.43-.51-.49-.93l-1.52-12.34c-.05-.42.03-.77.25-1.02.22-.26.58-.42,1.09-.48s.91,0,1.18.2c.27.2.43.51.49.93l.69,5.59,4.24-6.72Z"/>
      <path d="M60.37,41.83c-.05-.42.03-.77.25-1.02.22-.26.58-.42,1.09-.48s.91,0,1.18.2c.27.2.43.51.49.93l1.52,12.34c.05.42-.03.77-.25,1.02-.22.26-.58.42-1.1.49s-.9,0-1.17-.21c-.27-.2-.43-.51-.49-.93l-1.52-12.34Z"/>
      <path d="M76.09,51.25c.32-.04.59.03.81.2.22.17.35.47.4.88s0,.72-.17.94c-.16.22-.41.35-.74.39l-6.43.79c-.44.05-.79-.02-1.06-.24-.27-.21-.43-.53-.48-.96l-1.5-12.23c-.05-.42.03-.77.25-1.02.22-.26.58-.42,1.09-.48s.91,0,1.18.2c.27.2.43.51.49.93l1.37,11.18,4.79-.59Z"/>
      <path d="M86.94,49.92c.32-.04.59.03.81.2.22.17.35.47.4.88s0,.72-.17.94c-.16.22-.41.35-.74.39l-6.43.79c-.44.05-.79-.02-1.06-.24-.27-.21-.43-.53-.48-.96l-1.5-12.23c-.05-.42.03-.77.25-1.02.22-.26.58-.42,1.09-.48s.91,0,1.18.2c.27.2.43.51.49.93l1.37,11.18,4.79-.59Z"/>
    </g>
    <polyline class="cls-2" points="74.55 96.29 76.95 114.12 86.3 106.89 96.98 111.6 94.21 94.08"/>
  </g>
</svg>