<?xml version="1.0" encoding="UTF-8"?>
<svg id="Icon" xmlns="http://www.w3.org/2000/svg" viewBox="0 0 120 120">
  <defs>
    <style>
      .cls-1 {
        fill: #fff;
      }

      .cls-2 {
        fill: #ea9939;
      }

      .cls-3 {
        fill: #f4b545;
      }

      .cls-4 {
        fill: #f43f3f;
      }

      .cls-5 {
        fill: #ffe277;
      }

      .cls-6 {
        fill: #7a1839;
      }
    </style>
  </defs>
  <path class="cls-6" d="M117.12,63.43c0,1.94-.76,3.77-2.13,5.15l-2.95,2.94c-1.31,1.31-3,2-4.72,2.1v31.29c0,4.54-3.69,8.23-8.23,8.23H20.91c-4.54,0-8.23-3.69-8.23-8.23v-31.29c-1.72-.1-3.41-.79-4.72-2.1l-2.95-2.94c-1.37-1.38-2.13-3.21-2.13-5.15s.76-3.77,2.13-5.15L51.43,11.88c4.73-4.72,12.41-4.72,17.14,0l3.61,3.61c4.51-5.36,11.23-8.63,18.57-8.63,4.64,0,9.15,1.32,13.05,3.8,1.38.89,2.68,1.92,3.86,3.06.75.72,1.45,1.5,2.09,2.31,1.96,2.45,3.4,5.22,4.3,8.25.13.44.24.88.34,1.31.09.36.16.7.22,1.04.11.55.19,1.13.26,1.71l.02.15c.02.18.04.38.05.57.06.62.09,1.35.09,2.08v5.01s-.01.06-.01.09c0,.11.01.23.01.34,0,4.92-1.46,9.66-4.24,13.71-.41.6-.85,1.17-1.31,1.73-.09.1-.17.21-.26.32-.03.03-.06.06-.09.1l5.86,5.85c1.37,1.38,2.13,3.21,2.13,5.15Z"/>
  <g>
    <path class="cls-1" d="M99.09,109.14H20.91c-2.34,0-4.23-1.89-4.23-4.23v-44.28L60,17.3l43.32,43.33v44.28c0,2.34-1.89,4.23-4.23,4.23Z"/>
    <path class="cls-4" d="M112.16,65.75l-2.94,2.94c-1.28,1.28-3.35,1.28-4.63,0L62.14,26.24c-1.18-1.18-3.09-1.18-4.27,0L15.42,68.69c-1.28,1.28-3.35,1.28-4.63,0l-2.94-2.94c-1.28-1.28-1.28-3.36,0-4.64L54.26,14.7c3.17-3.17,8.31-3.17,11.48,0l46.42,46.41c1.28,1.28,1.28,3.36,0,4.64Z"/>
    <path class="cls-4" d="M66.18,71.65h-13.59c-2.45,0-4.44,1.99-4.44,4.44v33.06h22.46v-33.06c0-2.45-1.99-4.44-4.44-4.44Z"/>
    <circle class="cls-1" cx="65.58" cy="91.24" r="2.48"/>
    <g>
      <path class="cls-3" d="M111.03,36.58c0,4.25-1.31,8.19-3.54,11.44-3.65,5.33-9.79,8.83-16.74,8.83-.29,0-.57,0-.86-.02-10.8-.45-19.42-9.35-19.42-20.26s9.08-20.27,20.28-20.27,20.28,9.08,20.28,20.27Z"/>
      <path class="cls-2" d="M107.49,35.08v12.94c-.76,1.12-1.63,2.15-2.6,3.09-2.09,2.03-4.61,3.62-7.42,4.6-2.1.74-4.36,1.14-6.72,1.14-.29,0-.57,0-.86-.02v-21.76h17.6Z"/>
      <rect class="cls-3" x="70.48" y="31.13" width="40.55" height="5.01"/>
      <path class="cls-5" d="M111.03,31.13c0,1-.07,1.97-.21,2.93h0c-1.42,9.81-9.86,17.35-20.07,17.35-5.23,0-10-1.99-13.6-5.24h0c-1.17-1.06-2.21-2.25-3.11-3.55-.11-.16-.21-.31-.31-.48-.26-.4-.51-.81-.74-1.23-.14-.26-.28-.52-.41-.78-.17-.34-.33-.68-.47-1.02-1-2.34-1.58-4.91-1.63-7.6,0-.12,0-.25,0-.37,0-.75.04-1.49.12-2.23.15-1.39.44-2.74.86-4.03,2.64-8.14,10.28-14.02,19.29-14.02,4.01,0,7.74,1.16,10.89,3.17,1.16.74,2.25,1.6,3.23,2.56.62.6,1.2,1.24,1.74,1.92,1.61,2.02,2.84,4.35,3.59,6.89.11.36.2.72.29,1.09.07.29.13.57.18.86.09.47.16.94.21,1.42.02.19.04.38.06.57.05.59.08,1.18.08,1.79Z"/>
      <path class="cls-2" d="M105.21,31.13c0,.42-.02.84-.05,1.25-.63,7.4-6.84,13.2-14.4,13.2s-13.76-5.8-14.4-13.2c-.04-.41-.05-.83-.05-1.25,0-7.98,6.47-14.45,14.45-14.45s14.45,6.47,14.45,14.45Z"/>
      <path class="cls-3" d="M105.15,32.39c-.63,7.4-6.84,13.2-14.4,13.2s-13.76-5.8-14.4-13.2c.63-7.4,6.84-13.2,14.4-13.2s13.76,5.8,14.4,13.2Z"/>
      <g>
        <path class="cls-2" d="M97.94,35.52c0,1.4-.46,2.49-1.38,3.26-.92.77-2.22,1.18-3.91,1.22v.93c0,.41-.1.69-.29.84-.19.16-.54.24-1.05.24h-1.56c-.42,0-.72-.09-.89-.26-.17-.17-.26-.45-.26-.82v-.93h-2.47c-.41,0-.69-.09-.87-.26-.17-.17-.26-.45-.26-.82v-12.54c0-.37.09-.65.26-.83s.46-.27.87-.27h2.47v-.95c0-.38.09-.65.26-.84.17-.18.47-.27.89-.27h1.73c.42,0,.72.09.9.27.18.18.27.46.27.84v.95c3.26.07,4.9,1.48,4.9,4.22,0,.66-.15,1.26-.46,1.77-.3.52-.71.89-1.23,1.11,1.39.45,2.08,1.49,2.08,3.14Z"/>
        <rect class="cls-2" x="95.87" y="32.97" width="2.08" height="2.55"/>
        <rect class="cls-2" x="95.48" y="26.95" width="2.08" height="2.55"/>
        <path class="cls-5" d="M97.75,32.01c-.24-.74-.71-1.28-1.41-1.62-.15-.07-.31-.14-.48-.19.52-.22.93-.58,1.23-1.11.31-.52.46-1.11.46-1.77,0-1.76-.67-2.97-2.02-3.63-.52-.25-1.14-.43-1.87-.52-.32-.04-.65-.07-1.01-.07v-.95c0-.38-.09-.65-.27-.83-.18-.18-.48-.27-.9-.27h-1.73c-.42,0-.72.09-.89.27-.17.18-.26.46-.26.83v.95h-2.47c-.41,0-.69.09-.87.27-.17.18-.26.46-.26.83v12.54c0,.38.09.65.26.82.17.17.46.26.87.26h2.47v.93c0,.38.09.65.26.82.17.17.47.26.89.26h1.56c.5,0,.86-.08,1.05-.24.19-.16.29-.44.29-.85v-.93c1.69-.04,2.99-.45,3.91-1.22.61-.51,1.02-1.17,1.22-1.96.05-.19.09-.39.11-.6.03-.23.04-.46.04-.7,0-.5-.06-.94-.19-1.33ZM92.05,31.76c.14,0,.27.01.4.03.29.05.54.16.73.33.27.25.41.62.41,1.11,0,.1,0,.19-.02.28-.04.31-.16.56-.36.77-.25.27-.61.4-1.07.4h-2.75v-2.92h2.66ZM89.39,28.85v-2.62h2.38c.47,0,.83.1,1.06.31.23.2.35.53.35,1,0,.43-.12.76-.37.98-.25.23-.59.34-1.04.34h-2.38Z"/>
      </g>
    </g>
  </g>
</svg>