<?xml version="1.0" encoding="UTF-8"?>
<svg id="Icon" xmlns="http://www.w3.org/2000/svg" viewBox="0 0 120 120">
  <defs>
    <style>
      .cls-1 {
        fill: #fff;
      }

      .cls-2 {
        fill: #dfedf2;
      }

      .cls-3 {
        fill: #666;
      }

      .cls-4 {
        fill: #333;
      }

      .cls-5 {
        fill: gray;
      }
    </style>
  </defs>
  <path class="cls-4" d="M115.76,103.62c-1.39,2.01-3.53,3.17-5.85,3.17H10.09c-2.32,0-4.45-1.16-5.85-3.17-1.66-2.4-2.06-5.73-1.02-8.48l.39-1.03,11.21-29.69V21.2c0-4.41,3.59-8,8-8h74.36c4.41,0,8,3.59,8,8v43.22l11.21,29.69.39,1.03c1.04,2.75.64,6.08-1.02,8.48Z"/>
  <g>
    <path class="cls-5" d="M101.18,66.64H18.82V21.2c0-2.21,1.79-4,4-4h74.37c2.21,0,4,1.79,4,4v45.44Z"/>
    <rect class="cls-2" x="24.07" y="22.1" width="71.86" height="39.66"/>
    <g>
      <path class="cls-3" d="M109.91,102.79H10.09c-2.73,0-4.11-3.64-3.13-6.23l11.5-30.46h83.08l11.5,30.46c.98,2.6-.41,6.23-3.13,6.23Z"/>
      <path class="cls-5" d="M109.88,99.69H10.12c-2.4,0-3.62-1.89-2.77-4.16l11.47-30.37h82.37l11.47,30.37c.86,2.27-.37,4.16-2.77,4.16Z"/>
      <polygon class="cls-3" points="101.9 67.06 18.1 67.06 18.82 65.15 101.18 65.15 101.9 67.06"/>
      <path class="cls-3" d="M97.93,76.28H22.07c-.5,0-.83-.25-.72-.57s.58-.56,1.08-.56h75.15c.5,0,.98.25,1.08.56s-.22.57-.72.57Z"/>
      <path class="cls-3" d="M99.65,81.73H20.35c-.52,0-.86-.28-.75-.62s.62-.61,1.14-.61h78.52c.52,0,1.03.27,1.14.61s-.22.62-.75.62Z"/>
      <path class="cls-3" d="M101.53,87.7H18.47c-.55,0-.9-.3-.77-.68s.66-.67,1.2-.67h82.21c.54,0,1.08.3,1.2.67s-.22.68-.77.68Z"/>
      <path class="cls-3" d="M103.48,93.87H16.52c-.58,0-.93-.33-.8-.74l7.22-22.36c.09-.29.55-.52,1.03-.52h72.06c.48,0,.94.23,1.03.52l7.22,22.36c.13.41-.22.74-.8.74ZM18.02,92.39h83.97l-6.5-21.1H24.52l-6.5,21.1Z"/>
      <path class="cls-3" d="M27.97,93.87c-.58,0-.96-.33-.86-.74l5.37-22.36c.07-.29.51-.52.99-.52s.81.23.75.52l-5.03,22.36c-.09.41-.63.74-1.21.74Z"/>
      <path class="cls-3" d="M40.71,93.87c-.58,0-.99-.33-.93-.74l3.3-22.36c.04-.29.46-.52.94-.52s.83.23.79.52l-2.96,22.36c-.05.41-.56.74-1.14.74Z"/>
      <path class="cls-3" d="M53.46,93.87c-.58,0-1.02-.33-1-.74l1.23-22.36c.02-.29.41-.52.89-.52s.85.23.84.52l-.89,22.36c-.02.41-.5.74-1.07.74Z"/>
      <path class="cls-3" d="M66.2,93.87c-.58,0-1.05-.33-1.07-.74l-.84-22.36c-.01-.29.37-.52.84-.52s.87.23.89.52l1.17,22.36c.02.41-.43.74-1,.74Z"/>
      <path class="cls-3" d="M78.95,93.87c-.58,0-1.08-.33-1.14-.74l-2.91-22.36c-.04-.29.32-.52.79-.52s.9.23.94.52l3.24,22.36c.06.41-.36.74-.93.74Z"/>
      <path class="cls-3" d="M91.69,93.87c-.58,0-1.11-.33-1.21-.74l-4.97-22.36c-.06-.29.27-.52.75-.52s.92.23.98.52l5.31,22.36c.1.41-.29.74-.86.74Z"/>
    </g>
    <polygon class="cls-1" points="82.16 22.1 42.5 61.76 24.07 61.76 24.07 42.54 44.52 22.1 82.16 22.1"/>
    <polygon class="cls-1" points="95.93 24.56 95.93 33.01 67.19 61.76 58.73 61.76 95.93 24.56"/>
  </g>
</svg>