<?xml version="1.0" encoding="UTF-8"?>
<svg id="Icon" xmlns="http://www.w3.org/2000/svg" viewBox="0 0 120 120">
  <defs>
    <style>
      .cls-1 {
        fill: #dd2a39;
      }

      .cls-2 {
        fill: #4d4d4d;
      }

      .cls-3 {
        fill: #fff;
      }

      .cls-4 {
        fill: #dfedf2;
      }

      .cls-5 {
        fill: #f43f3f;
      }

      .cls-6 {
        fill: #666;
      }

      .cls-7 {
        fill: #ffc4b0;
      }

      .cls-8 {
        fill: #b51933;
      }

      .cls-9 {
        fill: gray;
      }

      .cls-10 {
        fill: #7a1839;
      }

      .cls-11 {
        fill: #e6e6e6;
      }
    </style>
  </defs>
  <path class="cls-10" d="M116.82,58.78v14.34c0,4.68-3.81,8.48-8.49,8.48h-1.49c-2.63,6.03-8.64,10.26-15.62,10.26s-12.99-4.23-15.62-10.26h-28.49c-2.63,6.03-8.64,10.26-15.62,10.26s-12.99-4.23-15.62-10.26h-4.2c-4.68,0-8.49-3.8-8.49-8.48v-9.32c0-.17,0-.34.01-.51.01-.08.01-.16.02-.24.15-2.49,1.01-4.83,2.5-6.81.14-.19.28-.36.42-.53,2.01-2.41,4.84-3.96,7.95-4.39l7.14-.97c1.62-.21,3.02-.39,3.85-1.04.78-.62,1.52-1.56,2.3-2.55l1.02-1.31c1.73-2.21,3.51-4.49,5.6-6.58,5.06-5.06,11.39-8.5,18.28-9.96,2.46-.52,4.98-.78,7.5-.78h20.21c.82,0,1.65.05,2.47.14,7.56.82,14.16,5.36,17.64,12.14l3.86,7.53.41.69c.04.06.07.13.11.2.14.27.32.51.52.73.17.09.35.14.55.14h2.2c2.26,0,4.32.82,5.92,2.19,1.15.86,2.03,2.07,2.5,3.48.3.76.51,1.58.6,2.43v.05s.01.02.01.04c.03.25.05.57.05.89Z"/>
  <g>
    <path class="cls-5" d="M112.82,58.78v14.34c0,2.48-2.01,4.48-4.48,4.48H11.67c-2.48,0-4.48-2.01-4.48-4.48v-9.32c0-.11,0-.23,0-.34,0-.06,0-.13.01-.19.1-1.72.72-3.31,1.71-4.62.09-.12.19-.25.29-.37,1.33-1.59,3.23-2.69,5.42-2.99.76-.1,1.52-.21,2.28-.31l4.26-.58c2.25-.31,4.54-.49,6.38-1.95,1.15-.91,2.06-2.07,2.97-3.21,2.02-2.56,3.99-5.22,6.3-7.53,4.45-4.45,10.12-7.57,16.28-8.87,2.19-.46,4.44-.7,6.68-.7h20.21c.68,0,1.36.04,2.03.11,6.17.67,11.65,4.4,14.52,9.99l4.46,8.68c.88,1.71,2.64,2.78,4.55,2.78h2.2c2.64,0,4.8,2.01,5.05,4.57.02.16.03.33.03.5Z"/>
    <path class="cls-5" d="M10.36,75.73c-1.44,0-2.61-1.17-2.61-2.61,0,0,.98-11.25,1.77-12.31.07-.09,1.03-1.24,1.11-1.33,1.08-1.29,2.58-2.11,4.24-2.34l8.92-1.22c2.23-.3,4.26-1.4,5.74-3.11l7.17-8.28c5.81-6.7,14.22-10.54,23.07-10.54h21.8c.61,0,1.22.03,1.82.1,5.61.61,10.49,3.97,13.06,8.99l4.46,7.56c1.21,2.34,3.59,3.8,6.22,3.8h2.2c1.65,0,3.02,1.24,3.18,2.88.01.11.02.21.02.32v15.46c0,1.44-1.17,2.61-2.61,2.61H10.36Z"/>
    <path class="cls-11" d="M64.88,38.35v11.31c0,1.36-1.11,2.47-2.47,2.47h-23.14c-2,0-3.08-2.36-1.77-3.87l2.14-2.48c2.63-3.03,5.82-5.44,9.36-7.12,3.8-1.81,7.99-2.77,12.29-2.77h1.1c1.36,0,2.47,1.1,2.47,2.47Z"/>
    <path class="cls-3" d="M64.88,38.35v2.36l-7.7,11.42h-17.24l9.08-13.47c3.8-1.81,7.99-2.77,12.29-2.77h1.1c1.36,0,2.47,1.1,2.47,2.47Z"/>
    <path class="cls-11" d="M93.01,52.13h-21.68c-1.36,0-2.47-1.11-2.47-2.47v-11.31c0-1.36,1.1-2.47,2.47-2.47h8.1c1.69,0,3.33.28,4.87.81,3.56,1.23,6.56,3.78,8.34,7.25l.29.57,2.16,4.21c.8,1.56-.33,3.41-2.08,3.41Z"/>
    <path class="cls-3" d="M92.94,44.52l-5.13,7.61h-13.9l10.4-15.43c3.56,1.23,6.56,3.78,8.34,7.25l.29.57Z"/>
    <path class="cls-3" d="M16.99,61l-1.61,1.89c-.31.36-.77.58-1.26.58h-6.94c0-.06,0-.13.01-.19.1-1.72.72-3.31,1.71-4.62.09-.12.19-.25.29-.37h6.54c1.41,0,2.17,1.65,1.25,2.72Z"/>
    <path class="cls-7" d="M112.82,58.78v4.68h-5.86c-.49,0-.96-.22-1.28-.59l-1.55-1.81c-.6-.69-.49-1.63.03-2.22.3-.34.73-.56,1.26-.56h7.38c.02.16.03.33.03.5Z"/>
    <path class="cls-1" d="M112.82,70.11v3.02c0,2.48-2.01,4.48-4.48,4.48H11.67c-2.48,0-4.48-2.01-4.48-4.48v-2.25c.86.86,2.57,2.21,4.85,2.21h93.73c1.91,0,3.77-.6,5.31-1.72l1.74-1.26Z"/>
    <path class="cls-8" d="M53.04,55.29h-24.99c-.23,0-.41-.19-.41-.41s.19-.41.41-.41h24.99c.23,0,.41.19.41.41s-.19.41-.41.41Z"/>
    <path class="cls-8" d="M101.45,55.14h-45.82c-.23,0-.41-.19-.41-.41s.19-.41.41-.41h45.82c.23,0,.41.19.41.41s-.19.41-.41.41Z"/>
    <path class="cls-8" d="M91.22,62.23c-.23,0-.41-.19-.41-.41v-4.87c0-.23.19-.41.41-.41s.41.19.41.41v4.87c0,.23-.19.41-.41.41Z"/>
    <path class="cls-8" d="M34.66,62.28c-.23,0-.41-.19-.41-.41v-6.81c0-.23.19-.41.41-.41s.41.19.41.41v6.81c0,.23-.19.41-.41.41Z"/>
    <circle class="cls-6" cx="31.49" cy="74.83" r="13.03"/>
    <ellipse class="cls-9" cx="30.28" cy="73.09" rx="11.82" ry="11.3"/>
    <g>
      <circle class="cls-4" cx="31.49" cy="74.83" r="6.17"/>
      <circle class="cls-3" cx="32.22" cy="75.56" r="5.1"/>
      <path class="cls-2" d="M31.49,81.42c-3.63,0-6.59-2.96-6.59-6.59s2.96-6.59,6.59-6.59,6.59,2.96,6.59,6.59-2.96,6.59-6.59,6.59ZM31.49,69.07c-3.17,0-5.76,2.58-5.76,5.76s2.58,5.76,5.76,5.76,5.76-2.58,5.76-5.76-2.58-5.76-5.76-5.76Z"/>
    </g>
    <circle class="cls-6" cx="91.22" cy="74.83" r="13.03"/>
    <ellipse class="cls-9" cx="90.01" cy="73.09" rx="11.82" ry="11.3"/>
    <g>
      <circle class="cls-4" cx="91.22" cy="74.83" r="6.17"/>
      <circle class="cls-3" cx="91.95" cy="75.56" r="5.1"/>
      <path class="cls-2" d="M91.22,81.42c-3.63,0-6.59-2.96-6.59-6.59s2.96-6.59,6.59-6.59,6.59,2.96,6.59,6.59-2.96,6.59-6.59,6.59ZM91.22,69.07c-3.17,0-5.76,2.58-5.76,5.76s2.58,5.76,5.76,5.76,5.76-2.58,5.76-5.76-2.58-5.76-5.76-5.76Z"/>
    </g>
    <path class="cls-8" d="M66.38,72.19c-.23,0-.41-.19-.41-.41v-14.83c0-.23.19-.41.41-.41s.41.19.41.41v14.83c0,.23-.19.41-.41.41Z"/>
    <g>
      <path class="cls-5" d="M42.32,53.02c0,3.51-.12,6.36-3.63,6.36-1.9,0-3.61-.84-4.77-2.16-.99-1.12-1.59-2.59-1.59-4.2,0-3.51,2.85-6.36,6.36-6.36,1.52,0,2.41.53,2.92,1.43.67,1.17.71,2.94.71,4.93Z"/>
      <path class="cls-7" d="M41.61,48.09c-2.12-.5-4.49.08-6.08,1.59-1.9,1.8-2.55,4.79-1.57,7.21l-.04.32c-.99-1.12-1.59-2.59-1.59-4.2,0-3.51,2.85-6.36,6.36-6.36,1.52,0,2.41.53,2.92,1.43Z"/>
      <path class="cls-1" d="M33.48,56.66c1.15,1.64,3.05,2.72,5.21,2.72,3.01,0,3.53-2.1,3.61-4.91-2.53,1.95-5.81,3.05-8.82,2.19Z"/>
      <path class="cls-10" d="M38.69,59.85c-3.77,0-6.83-3.07-6.83-6.83s3.07-6.83,6.83-6.83c4.11,0,4.11,3.63,4.11,6.83s0,6.83-4.11,6.83ZM38.69,47.14c-3.24,0-5.88,2.64-5.88,5.88s2.64,5.88,5.88,5.88c2.84,0,3.15-1.88,3.15-5.88s-.31-5.88-3.15-5.88Z"/>
      <path class="cls-7" d="M34.18,51.28c.07.52.47.99.98,1.09.38.07.77-.06,1.11-.24.52-.28.97-.71,1.19-1.26.36-.91-.26-2.5-1.47-2.11-.38.12-.83.61-1.12.87-.45.42-.78,1.01-.68,1.65Z"/>
    </g>
    <path class="cls-8" d="M58.25,60.29h1.23c1.45,0,2.62-1.17,2.62-2.62h0s-6.48,0-6.48,0h0c0,1.45,1.17,2.62,2.62,2.62Z"/>
    <path class="cls-8" d="M82.29,60.29h1.23c1.45,0,2.62-1.17,2.62-2.62h0s-6.48,0-6.48,0h0c0,1.45,1.17,2.62,2.62,2.62Z"/>
  </g>
</svg>