<?xml version="1.0" encoding="UTF-8"?>
<svg id="Icon" xmlns="http://www.w3.org/2000/svg" viewBox="0 0 120 120">
  <defs>
    <style>
      .cls-1 {
        fill: #dd2a39;
      }

      .cls-2 {
        fill: #fff8d9;
      }

      .cls-3 {
        fill: #f4b545;
      }

      .cls-4 {
        fill: #f43f3f;
      }

      .cls-5 {
        fill: #ffeda8;
      }

      .cls-6 {
        fill: #ffe277;
      }

      .cls-7 {
        fill: #ffc4b0;
      }

      .cls-8 {
        fill: #7a1839;
      }
    </style>
  </defs>
  <path class="cls-8" d="M101.01,98.46c0,2.15-.83,4.26-2.41,6.13,0,0,0,0,0,.01-.28.33-.6.66-.94.99-4.39,4.22-13.2,7.36-24.4,8.77-1.72.21-3.5.39-5.33.52-2.54.19-5.2.28-7.92.28-4.45,0-8.81-.26-12.96-.77-5.8-.72-11.15-1.93-15.45-3.51-2.19-.8-4.14-1.71-5.79-2.7-.05-.03-.1-.06-.16-.09-.13-.08-.25-.17-.38-.25-.18-.12-.37-.23-.54-.35-.15-.1-.28-.2-.42-.3-.16-.11-.32-.22-.47-.34-.14-.1-.26-.21-.39-.31-.14-.11-.28-.22-.41-.33-.13-.11-.24-.22-.36-.32-.12-.11-.24-.22-.35-.33-.11-.11-.22-.22-.32-.33l-.31-.31c-.1-.12-.19-.23-.29-.34-.08-.11-.17-.21-.25-.31-.09-.11-.17-.23-.26-.34-.07-.1-.15-.2-.22-.3-.08-.11-.14-.23-.21-.34-.07-.1-.13-.19-.19-.29-.07-.12-.12-.23-.19-.34-.05-.1-.1-.19-.15-.29-.06-.11-.1-.22-.15-.33-.04-.09-.09-.19-.13-.28-.04-.11-.08-.22-.12-.33-.03-.09-.07-.18-.1-.27-.04-.11-.06-.21-.09-.32-.03-.08-.06-.17-.08-.26-.03-.11-.05-.22-.07-.33-.02-.07-.04-.16-.06-.23-.02-.12-.03-.24-.05-.35-.01-.07-.02-.13-.03-.2-.01-.12-.02-.23-.03-.35-.01-.06-.01-.11-.02-.17-.01-.17-.01-.33-.01-.49,0-1.05.28-2.29.92-4.14.31-.9.72-1.95,1.21-3.15.4-.96.86-2.02,1.38-3.19.3-.66.61-1.34.94-2.07.24-.52.49-1.06.75-1.61,2-4.25,4.58-9.46,7.66-15.48,1.12-2.18,2.31-4.5,3.56-6.89.64-1.22,1.29-2.46,1.96-3.73,3.22-6.12,6.86-12.95,10.56-19.76-.63-.41-1.19-.92-1.66-1.52-.5-.65-.88-1.38-1.11-2.14-.04-.02-.06-.05-.09-.07-.19-.13-.37-.27-.55-.42-.07-.06-.13-.12-.2-.19-.13-.12-.26-.25-.39-.39-.06-.07-.13-.15-.19-.22-.12-.15-.24-.3-.35-.46-.05-.07-.1-.14-.15-.22-.15-.24-.29-.48-.41-.74-.52-1.09-.74-2.25-.66-3.39-.77-1.11-1.21-2.46-1.21-3.9,0-1.03.22-2.01.63-2.89-.12-.51-.18-1.04-.18-1.59,0-1.94.79-3.69,2.1-4.93.22-1.73,1.1-3.3,2.5-4.42.5-.4,1.05-.73,1.63-.97.62-1.14,1.57-2.1,2.77-2.74.96-.51,2.01-.78,3.06-.8,1.19-1.01,2.73-1.6,4.38-1.6.79,0,1.56.14,2.28.4.7-.24,1.45-.37,2.22-.37.23,0,.47.01.69.04.08.01.15.02.23.03.15.02.3.04.45.07.09.02.17.04.25.06.14.03.28.07.41.11.09.03.17.06.25.09.14.04.27.1.4.15.07.03.15.06.22.1.15.07.3.15.44.23.05.03.1.05.15.08.19.11.37.23.54.36.06.04.1.08.15.12.1.08.2.15.3.23,1.86.08,3.61.92,4.85,2.33.36.4.66.83.9,1.3,1.29.56,2.41,1.52,3.15,2.77.5.85.8,1.76.91,2.69,1.26,1.23,2.02,2.96,2.02,4.85,0,.58-.07,1.14-.22,1.69.39.86.6,1.81.6,2.8,0,1.45-.46,2.82-1.27,3.95.07,1.17-.17,2.36-.73,3.47-.56,1.1-1.38,1.99-2.35,2.62-.46,1.39-1.36,2.6-2.6,3.46.67,1.24,1.38,2.54,2.1,3.89l.15.27c1.18,2.19,2.41,4.47,3.66,6.83,1.59,2.98,3.24,6.08,4.87,9.19h0c1.26,2.4,2.51,4.81,3.73,7.17,2.08,4.02,4.02,7.83,5.74,11.31,1.33,2.68,2.53,5.16,3.57,7.4,4.71,10.03,5.1,12.45,5.1,13.93Z"/>
  <g>
    <path class="cls-6" d="M97.01,98.46c0,1.23-.51,2.42-1.47,3.55-3.79,4.47-14.52,7.92-27.91,8.88-2.46.18-5.01.27-7.63.27-4.38,0-8.57-.26-12.47-.74-5.6-.69-10.58-1.83-14.56-3.29-1.96-.72-3.68-1.52-5.12-2.38h0c-3.09-1.86-4.85-4-4.85-6.29,0-.57.25-1.54.7-2.83.8-2.3,2.25-5.64,4.12-9.63,2.11-4.48,4.74-9.77,7.6-15.36,1.77-3.46,3.63-7.03,5.5-10.57,3.72-7.09,7.47-14.08,10.66-19.96,4.89-9.04,8.43-15.43,8.43-15.43,0,0,1.33,2.39,3.46,6.31,1.4,2.55,3.15,5.75,5.1,9.36.68,1.25,1.39,2.56,2.11,3.91,1.22,2.26,2.5,4.63,3.8,7.08,1.59,2.98,3.23,6.07,4.86,9.17,1.25,2.39,2.5,4.79,3.72,7.15,2.02,3.9,3.95,7.7,5.71,11.25,1.29,2.6,2.48,5.06,3.53,7.31,2.87,6.12,4.72,10.67,4.72,12.24Z"/>
    <path class="cls-3" d="M95.54,102.01c-3.79,4.47-14.52,7.92-27.91,8.88-2.07-16.87-7.63-70.22-7.63-70.22l4.36-2.63,31.18,63.97Z"/>
    <path class="cls-2" d="M26,97.66c-.17,1.82-2.11,2.25,1.84,7.08-3.09-1.85-4.85-3.99-4.85-6.28,0-.57.25-1.54.7-2.83.8-2.3,2.25-5.64,4.12-9.63,2.11-4.48,4.74-9.77,7.6-15.36,1.77-3.46,3.63-7.03,5.5-10.57,3.72-7.09,7.47-14.08,10.66-19.96,4.89-9.04,8.43-15.43,8.43-15.43,0,0,1.33,2.39,3.46,6.31l-8.99,9.22s-28.31,55.63-28.47,57.45Z"/>
    <path class="cls-3" d="M68.56,40.35c-.13-.04-.27-.08-.4-.14-.12,1.81-1.62,2.95-3.17,2.95-.78,0-1.57-.29-2.21-.9-.58,1.21-1.73,1.81-2.88,1.81s-2.32-.63-2.9-1.86c-.62.61-1.4.88-2.16.88-1.58,0-3.08-1.18-3.19-3.01-.03.01-.05.02-.08.03,4.89-9.04,8.43-15.43,8.43-15.43,0,0,3.61,6.51,8.56,15.67Z"/>
    <path class="cls-5" d="M73.17,27.6c1.47,1.86.09,4.58-2.28,4.49.09.29.13.56.13.83,0,1.9-1.97,3.36-3.88,2.54-.11,1.58-1.42,2.58-2.78,2.58-.68,0-1.37-.25-1.93-.79-.51,1.06-1.51,1.59-2.52,1.59s-2.03-.55-2.53-1.63c-.55.53-1.23.77-1.89.77-1.38,0-2.7-1.03-2.79-2.63-.36.15-.72.22-1.07.22-1.71,0-3.15-1.65-2.68-3.46.01-.06.03-.12.05-.18h-.06c-2.33,0-3.63-2.71-2.16-4.53-1.2-.44-1.82-1.53-1.82-2.62,0-.93.45-1.87,1.4-2.41-.66-.57-.95-1.32-.95-2.07,0-1.28.88-2.54,2.37-2.76-.23-.43-.33-.87-.33-1.29,0-1.67,1.55-3.12,3.39-2.71-.01-.12-.02-.23-.02-.34,0-2.16,2.46-3.54,4.33-2.29.35-1.33,1.52-2.07,2.7-2.07.85,0,1.7.38,2.26,1.19.57-.79,1.41-1.16,2.24-1.16,1.19,0,2.38.76,2.71,2.12.18-.12.36-.21.55-.27.31-.12.64-.18.95-.18,1.57,0,3,1.36,2.77,3.13.2-.04.39-.06.58-.06,2.03,0,3.46,2.21,2.42,4.11,1.47.24,2.33,1.49,2.33,2.76,0,.76-.31,1.53-.98,2.1.92.55,1.36,1.47,1.36,2.39,0,1.1-.64,2.2-1.87,2.63Z"/>
    <path class="cls-2" d="M66.38,21.43c1.55,1.97.09,4.85-2.41,4.76.09.3.13.6.13.88,0,2.01-2.09,3.55-4.11,2.69-.11,1.67-1.5,2.73-2.94,2.73-.72,0-1.45-.26-2.05-.84-.53,1.12-1.59,1.68-2.66,1.68s-2.15-.57-2.67-1.72c-.22.21-.47.38-.72.5.01-.06.03-.12.05-.18h-.06c-2.33,0-3.63-2.71-2.16-4.53-1.2-.44-1.82-1.53-1.82-2.62,0-.93.45-1.87,1.4-2.41-.66-.57-.95-1.32-.95-2.07,0-1.28.88-2.54,2.37-2.76-.23-.43-.33-.87-.33-1.29,0-1.67,1.55-3.12,3.39-2.71-.01-.12-.02-.23-.02-.34,0-2.16,2.46-3.54,4.33-2.29.35-1.33,1.52-2.07,2.7-2.07.85,0,1.7.38,2.26,1.19.57-.79,1.41-1.16,2.24-1.16,1.19,0,2.38.76,2.71,2.12.18-.12.36-.21.55-.27-.03.09-.07.17-.12.26,1.55.25,2.47,1.57,2.47,2.92,0,.8-.33,1.62-1.05,2.22.98.58,1.45,1.56,1.45,2.53,0,1.17-.68,2.33-1.98,2.78Z"/>
    <path class="cls-4" d="M74.47,51.34c-.91.61-1.83,1.21-2.75,1.8-3.2,2.04-6.46,3.99-9.8,5.81-7.08,3.88-14.44,7.26-22.01,10.07-1.49.57-2.99,1.11-4.5,1.62,1.77-3.46,3.63-7.03,5.5-10.57,1.49-.6,2.98-1.23,4.45-1.88,5.36-2.34,10.58-4.99,15.65-7.91,2.43-1.4,4.83-2.86,7.18-4.39.83-.53,1.66-1.08,2.48-1.63,1.22,2.26,2.5,4.63,3.8,7.08Z"/>
    <path class="cls-4" d="M83.05,67.66c-1.06.73-2.14,1.44-3.21,2.14-5.11,3.35-10.37,6.47-15.76,9.35-11.72,6.29-24.05,11.46-36.75,15.38-1.21.38-2.42.75-3.64,1.1.8-2.3,2.25-5.64,4.12-9.63,1.47-.48,2.93-.98,4.39-1.5,10.69-3.76,21.06-8.44,30.96-13.96,4.49-2.49,8.87-5.16,13.15-7.98,1.01-.68,2.02-1.36,3.02-2.05,1.25,2.39,2.5,4.79,3.72,7.15Z"/>
    <path class="cls-4" d="M92.29,86.22c-1.1.78-2.21,1.55-3.32,2.31-7.17,4.89-14.66,9.34-22.39,13.29-6.2,3.19-12.57,6.06-19.05,8.6-5.6-.69-10.58-1.83-14.56-3.29,11.26-3.63,22.21-8.27,32.66-13.83,6.83-3.63,13.44-7.65,19.8-12.04,1.12-.77,2.23-1.56,3.33-2.35,1.29,2.6,2.48,5.06,3.53,7.31Z"/>
    <path class="cls-1" d="M71.72,53.14c-3.2,2.04-6.46,3.99-9.8,5.81-.34-3.19-.64-6.13-.91-8.67,2.43-1.4,4.83-2.86,7.18-4.39l3.53,7.25Z"/>
    <path class="cls-1" d="M79.84,69.8c-5.11,3.35-10.37,6.47-15.76,9.35-.31-2.88-.62-5.78-.92-8.61,4.49-2.49,8.87-5.16,13.15-7.98l3.53,7.24Z"/>
    <path class="cls-1" d="M88.97,88.53c-7.17,4.89-14.66,9.34-22.39,13.29-.3-2.62-.62-5.49-.95-8.52,6.83-3.63,13.44-7.65,19.8-12.04l3.54,7.27Z"/>
    <path class="cls-7" d="M32.2,84.5c-2.05,4.14-3.76,7.67-4.87,10.03-1.21.38-2.42.75-3.64,1.1.8-2.3,2.25-5.64,4.12-9.63,1.47-.48,2.93-.98,4.39-1.5Z"/>
    <path class="cls-7" d="M45.36,58.19c-1.74,3.45-3.6,7.14-5.45,10.83-1.49.57-2.99,1.11-4.5,1.62,1.77-3.46,3.63-7.03,5.5-10.57,1.49-.6,2.98-1.23,4.45-1.88Z"/>
  </g>
</svg>