<?xml version="1.0" encoding="UTF-8"?>
<svg id="Icon" xmlns="http://www.w3.org/2000/svg" viewBox="0 0 120 120">
  <defs>
    <style>
      .cls-1 {
        fill: #fff8d9;
      }

      .cls-2 {
        fill: #aa5217;
      }

      .cls-3 {
        fill: #6d3108;
      }

      .cls-4 {
        fill: #ffe277;
      }

      .cls-5 {
        fill: #6d3108;
      }
    </style>
  </defs>
  <path class="cls-3" d="M114.81,39.42c.01.7,0,1.4-.04,2.1-.02.52-.06,1.05-.13,1.57-.08.79-.2,1.57-.35,2.35-.05.24-.1.47-.14.7-.08.34-.16.68-.25,1.02-.11.45-.24.9-.38,1.35-.06.21-.12.41-.19.61-.02.05-.03.1-.05.14-.1.29-.2.57-.31.84-.12.32-.25.63-.37.94-.07.17-.14.34-.2.5-.31.78-.54,1.43-.61,2.08-.13,1.23-.06,2.63.23,4.55.08.49.15.99.22,1.48.5,3.38.79,6.31.6,9.58,0,.05-.01.1-.01.14-.06,2.79-.44,5.64-1.14,8.52-.1.43-.2.85-.31,1.27-.11.42-.23.83-.35,1.24-.95,3.18-2.24,6.24-3.84,9.12-3.71,6.66-9.22,12.38-15.94,16.54-4.77,2.96-10.06,5.16-15.73,6.55-4.07,1.01-8.79,1.63-13.74,1.63-10.99,0-23.12-3.07-31.87-11.83-.4-.4-.79-.8-1.16-1.22-.05-.05-.1-.1-.15-.16-3.03-3.32-5.78-7.43-7.7-11.5-.93-1.96-1.58-3.86-2.21-5.7-.97-2.82-1.8-5.26-3.47-7.52-1.01-1.35-2.2-2.55-3.46-3.81-2.36-2.36-5.04-5.05-6.63-9.16-2.32-5.98-2.28-12.85.13-17.93,1.91-4.04,5.72-6.03,8.42-7.18,3.16-1.34,6.13-1.2,8.75-1.07h.05c-.54-2.87-1.65-10.89,1.46-16.95,2.82-5.48,9.18-8.74,15.47-7.94,5.91.76,10.72,5.06,12.9,7.36,1.83-5.64,6.19-12.57,12.98-14.84,3.29-1.1,6.48-.93,9.74.51,3.98,1.74,7.45,4.84,9.74,8.71,1.43,2.38,2.16,4.9,2.7,7.27,4.44-3.19,9.73-4.49,14.59-3.4.05.01.1.03.15.04h.07c8.76,2.07,11.56,14.23,12.03,16.64.17.92.3,1.84.39,2.77.06.7.1,1.39.11,2.09Z"/>
  <g>
    <path class="cls-1" d="M107.79,60.29c1.7,6.12,1.26,12.79-.59,18.96-.88,2.92-2.07,5.74-3.5,8.32-3.46,6.21-8.53,11.35-14.55,15.09-4.49,2.78-9.45,4.81-14.57,6.07-13.94,3.44-31.32,1.38-41.82-9.14-3.24-3.24-6.27-7.6-8.23-11.76-2.24-4.73-2.83-9.5-6.08-13.89-3.19-4.31-7.53-6.76-9.57-12.03-1.75-4.5-2.1-10.32.01-14.78,1.23-2.59,3.82-4.13,6.37-5.21,2.9-1.23,5.77-.74,8.84-.69.53.01,1.08.01,1.55-.23.69-.34,1.05-1.13,1.12-1.88.07-.77-.12-1.52-.26-2.28-.91-4.43-1.13-10.63,1.01-14.79,2.1-4.08,6.95-6.37,11.4-5.8,4.26.55,8.5,3.77,11.24,6.95.86,1.01,1.91,2.2,3.21,2.03.77-.11,1.39-.7,1.76-1.37.37-.67.55-1.43.76-2.17,1.49-5.28,5.29-11.29,10.69-13.09,2.4-.8,4.53-.66,6.86.37,3.3,1.45,6.08,4,7.92,7.09,2,3.36,2.36,7.16,3.26,10.89.1.41.24.86.61,1.04.56.26,1.15-.27,1.58-.73,3.56-3.95,9.07-6.66,14.4-5.46.04.01.1.02.14.03,5.22,1.23,8.12,8.74,9.05,13.51.97,5.09.3,10.48-1.91,15.16-.65,1.36-1.42,2.69-1.63,4.17-.26,1.91.44,3.79.94,5.63Z"/>
    <path class="cls-4" d="M108.29,60.22c.43,2.94.74,5.74.56,8.78-.2,3.5-.64,6.88-1.65,10.26-.88,2.92-2.07,5.74-3.5,8.32-3.46,6.21-8.53,11.35-14.55,15.09-4.49,2.78-9.45,4.81-14.57,6.07-13.94,3.44-31.32,1.38-41.82-9.14-2.91-2.91-5.27-6.38-6.93-10.16,5.9,3.42,13.55,3.9,19.61.68,4.69-2.49,8.3-6.81,13.25-8.7,5.51-2.12,11.65-.91,17.55-.9,5.9,0,12.73-2,14.81-7.52,1.34-3.58.26-7.59.71-11.38,1-8.28,8.88-13.98,11.82-21.78,2.23-5.91,1.3-12.91-2.39-18.04.04.01.1.02.14.03,5.22,1.23,8.12,8.74,9.05,13.51.8,4.16.49,8.51-.85,12.53-.61,1.83-1.51,3.37-1.72,5.34-.2,1.86-.03,3.74.26,5.58.07.49.15.97.22,1.45Z"/>
    <path class="cls-2" d="M45.51,46.94c-3.45.62-6.86-1.88-9.04-4.89-.05-.08-.1-.14-.15-.22-1.92-2.73-3.2-5.98-3.4-9.33-.25-4.25,1.46-11.62,6.73-10.8,1.24.2,2.4.82,3.47,1.55.05.03.11.08.16.11,4.26,2.96,8.11,7.93,8.39,13.43.23,4.43-1.65,9.33-6.15,10.14Z"/>
    <path class="cls-2" d="M77.8,29.91c-.59,3.32-2.42,6.47-5.23,8.31-1.54,1.01-3.51,1.6-5.21.92-1.51-.6-2.49-2.05-3.24-3.48-.48-.91-.91-1.85-1.27-2.81-.92-2.46-1.4-5.08-1.19-7.7.36-4.36,4.59-13.08,10.15-10.87.14.05.3.11.44.19,2.16,1.07,3.49,3.3,4.37,5.54,1.23,3.14,1.78,6.59,1.19,9.91Z"/>
    <path class="cls-2" d="M35.33,68.68c-1.82,1.82-4.7,2.11-7.23,1.66-3.32-.59-6.4-2.33-8.69-4.81-.89-.96-1.66-2.06-2.28-3.23-1.64-3.14-3.25-10.21-.25-13.17,2.62-2.57,8.28-1.09,11.44.44h.01c.27.14.54.27.77.41,4.22,2.38,7.24,6.74,7.98,11.52.39,2.53.07,5.39-1.75,7.18Z"/>
    <path class="cls-2" d="M104.01,40.75c-.58,3.21-1.59,6.46-3.78,8.88-2.19,2.41-5.79,3.78-8.81,2.56-2.89-1.15-4.48-4.25-4.89-7.39-.07-.48-.1-.96-.11-1.43-.11-4.92,2.16-9.78,5.8-13.05,2.54-2.27,5.73-3.15,8.26-1.85,1.22.61,2.28,1.73,3.04,3.44,1.23,2.74,1.03,5.89.49,8.85Z"/>
    <path class="cls-2" d="M98.47,74.34c-1.84,5.87-5.55,9.14-11.81,9.33-3.14.09-6.27-.44-9.42-.5-6.32-.1-12.66,1.78-17.89,5.32-3.34,2.28-6.62,5.63-10.76,6.26-3.79.57-8.03-.97-10.54-3.83-2.72-3.11-3.14-8.11-1.7-12.09.34-.93.79-1.82,1.34-2.59,2.45-3.54,6.83-4.93,9.66-8.08,3.74-4.19,1.93-9.49,3.3-14.44,1.84-6.74,11.73-11.54,17.68-7.12,2.09,1.57,3.59,3.77,5.16,5.86,1.55,2.1,3.28,4.18,5.63,5.34,3.09,1.54,6.84,1.28,10.34,1.54,2.56.19,4.99.65,6.92,2.3.07.05.12.1.16.15,3.3,2.99,3.27,8.28,1.95,12.55Z"/>
    <path class="cls-5" d="M103.95,40.45c-.58,3.21-1.59,6.46-3.78,8.88-2.19,2.41-5.79,3.78-8.81,2.56-2.89-1.15-4.48-4.25-4.89-7.39,1.09,1.64,3.16,2.53,5.15,2.5,2.16-.03,4.22-1,5.95-2.3,3.01-2.27,5.26-5.73,5.44-9.49.13-2.56-.84-5.2-2.58-7.04,1.22.61,2.28,1.73,3.04,3.44,1.23,2.74,1.03,5.89.49,8.85Z"/>
    <path class="cls-5" d="M77.8,29.91c-.59,3.32-2.42,6.47-5.23,8.31-1.54,1.01-3.51,1.6-5.21.92-1.51-.6-2.49-2.05-3.24-3.48-.48-.91-.91-1.85-1.27-2.81l.07.04c.6,1.96,2.84,3.14,4.88,2.92,2.05-.22,3.83-1.6,4.97-3.32,1.14-1.71,1.7-3.74,2.11-5.76.46-2.26.76-4.59.35-6.85-.39-2.22-1.54-4.39-3.43-5.61.14.05.3.11.44.19,2.16,1.07,3.49,3.3,4.37,5.54,1.23,3.14,1.78,6.59,1.19,9.91Z"/>
    <path class="cls-5" d="M45.51,46.94c-3.45.62-6.86-1.88-9.04-4.89-.05-.08-.1-.14-.15-.22,1.46,1.06,3.45,1.31,5.19.81,1.96-.58,3.58-2.04,4.65-3.78,1.91-3.11,2.08-7.15.69-10.51-.81-1.97-2.12-3.7-3.73-5.09.05.03.11.08.16.11,4.26,2.96,8.11,7.93,8.39,13.43.23,4.43-1.65,9.33-6.15,10.14Z"/>
    <path class="cls-5" d="M35.33,68.68c-1.82,1.82-4.7,2.11-7.23,1.66-3.32-.59-6.4-2.33-8.69-4.81,1.63.95,3.48,1.54,5.38,1.57,2.19.02,4.41-.76,5.98-2.29,2.33-2.24,2.97-5.9,2.03-9-.76-2.49-2.41-4.62-4.46-6.23.27.13.54.26.77.39,4.22,2.38,7.24,6.74,7.98,11.52.39,2.53.07,5.39-1.75,7.18Z"/>
    <path class="cls-5" d="M96.52,61.79c-.04-.05-.1-.1-.16-.15-1.93-1.65-4.36-2.11-6.92-2.3,2.82,1.38,5.04,4.06,5.59,7.16.82,4.68-2.22,9.71-6.74,11.16-4.45,1.41-9.21-.42-13.87-.53-5.12-.12-10.11,1.89-14.41,4.66-3.14,2.03-6.04,4.48-9.42,6.1-3.37,1.61-7.47,2.3-10.82.62-2.74-1.37-4.53-4.72-3.95-7.59,0,0-.02,0-.03-.01-.67,3.53-.02,7.42,2.24,10.01,2.52,2.86,6.76,4.4,10.54,3.83,4.14-.64,7.42-3.99,10.76-6.26,5.23-3.54,11.57-5.42,17.89-5.32,3.14.07,6.27.59,9.42.5,6.26-.19,9.97-3.46,11.81-9.33,1.32-4.27,1.35-9.56-1.95-12.55Z"/>
  </g>
</svg>