<?xml version="1.0" encoding="UTF-8"?>
<svg id="Layer_1" xmlns="http://www.w3.org/2000/svg" viewBox="0 0 480 480">
  <defs>
    <style>
      .cls-1 {
        fill: #fff;
      }
    </style>
  </defs>
  <path class="cls-1" d="M136.13,287.33v-10.9h0c0-.1,0-.19,0-.29,0-2.35-.26-4.41-.77-6.2-.58-2.06-1.5-3.75-2.77-5.06-2.35-2.45-5.53-3.67-9.54-3.67h-59.37V122.85c0-5.24-1.51-9.28-4.53-12.13-3.03-2.84-7.74-4.26-14.14-4.26s-10.99,1.42-14.01,4.26c-3.03,2.85-4.53,6.89-4.53,12.13v162.49c0,2.07.22,3.95.67,5.67.69,2.71,1.93,4.97,3.73,6.79,2.94,2.98,7.12,4.46,12.54,4.46h79.64c4.09,0,7.29-1.22,9.6-3.67s3.47-6.2,3.47-11.27Z"/>
  <path class="cls-1" d="M226.36,298c3.03,2.84,7.69,4.26,14.01,4.26s10.89-1.42,14-4.26c3.11-2.84,4.67-6.89,4.67-12.13v-60.52h50.16c3.74,0,6.73-1.2,9-3.6,2.28-2.4,3.41-5.95,3.41-10.66v-6.78h0c-.02-2.55-.37-4.77-1.07-6.65-.56-1.52-1.34-2.8-2.33-3.88-2.27-2.45-5.26-3.67-9-3.67h-50.16v-43.54h60.7c3.92,0,6.98-1.22,9.21-3.67,2.22-2.44,3.33-6.07,3.33-10.86v-5.37h-.04c.02-.4.04-.8.04-1.21,0-4.8-1.11-8.4-3.33-10.8-2.23-2.4-5.29-3.6-9.21-3.6h-80.98c-5.43,0-9.6,1.49-12.54,4.46-2.93,2.98-4.4,7.13-4.4,12.47v157.88c0,2.04.23,3.92.69,5.6.72,2.63,2,4.81,3.84,6.54Z"/>
  <path class="cls-1" d="M453.53,280.35c0-4.8-1.13-8.42-3.4-10.86s-5.32-3.67-9.14-3.67h-62.7v-43.14h52.97c3.73,0,6.73-1.2,9-3.6s3.4-5.91,3.4-10.54v-6.78h-.02c0-.24.02-.48.02-.73,0-4.7-1.13-8.26-3.4-10.66-.28-.3-.58-.58-.87-.83-2.15-1.84-4.86-2.76-8.13-2.76h-52.97v-39.27h62.04c3.91,0,7-1.22,9.27-3.67,2.27-2.45,3.41-6.07,3.41-10.86v-6.78h-.02c0-.24.02-.48.02-.73,0-4.8-1.14-8.4-3.41-10.8-2.27-2.4-5.36-3.6-9.27-3.6h-82.31c-5.43,0-9.6,1.49-12.54,4.46-2.93,2.98-4.4,7.13-4.4,12.47v157.34c0,5.33,1.47,9.48,4.4,12.47,2.94,2.98,7.12,4.46,12.54,4.46h82.97c3.82,0,6.88-1.2,9.14-3.6s3.4-6,3.4-10.8v-6.78h-.02c0-.25.02-.48.02-.73Z"/>
  <path class="cls-1" d="M172.19,182.79c-10.26,0-18.61,8.34-18.61,18.6s8.35,18.59,18.61,18.59,18.61-8.34,18.61-18.59-8.34-18.6-18.61-18.6Z"/>
  <path class="cls-1" d="M204.41,204.3c0-31.87-7.98-60.16-16.42-78.03-5.89-12.44-12-19.82-15.8-19.82-4.65,0-12.74,11.03-19.66,28.83-6.87,17.69-12.57,42.09-12.57,69.02,0,15.81,1.97,30.76,4.98,43.97,1.45,6.35,3.14,12.31,4.98,17.77,7.37,22.04,17.03,36.11,22.27,36.11,6.22,0,18.6-19.73,26.07-49.05,1.61-6.32,2.99-13.08,4.04-20.18,1.34-9.05,2.11-18.66,2.11-28.62ZM172.19,224.05c-12.5,0-22.68-10.17-22.68-22.66s10.18-22.67,22.68-22.67,22.69,10.17,22.69,22.67-10.18,22.66-22.69,22.66Z"/>
  <rect class="cls-1" x="112.3" y="320.59" width="9.47" height="52.24"/>
  <polygon class="cls-1" points="165.61 356.2 165.15 356.2 140.54 320.59 132.06 320.59 132.06 372.83 141.53 372.83 141.53 337.25 141.97 337.25 166.6 372.83 175.03 372.83 175.03 320.59 165.61 320.59 165.61 356.2"/>
  <path class="cls-1" d="M218.37,330.5c2.2-1.42,4.71-2.13,7.56-2.13,1.6,0,3.09.22,4.48.65,1.39.43,2.62,1.08,3.71,1.93,1.09.85,2,1.88,2.73,3.1.73,1.22,1.23,2.61,1.51,4.17h9.55c-.39-2.91-1.22-5.5-2.49-7.77-1.27-2.27-2.88-4.19-4.84-5.76-1.96-1.57-4.19-2.77-6.69-3.58-2.5-.82-5.21-1.22-8.12-1.22-4.56,0-8.65,1.06-12.25,3.19-3.61,2.13-6.46,5.19-8.55,9.2-2.09,4-3.14,8.82-3.14,14.45s1.04,10.42,3.11,14.44c2.08,4.01,4.92,7.08,8.53,9.21,3.61,2.13,7.71,3.19,12.3,3.19,3.11,0,5.95-.46,8.5-1.39,2.55-.93,4.78-2.22,6.69-3.88,1.91-1.66,3.45-3.57,4.63-5.75,1.18-2.18,1.95-4.51,2.31-6.99l-9.55-.05c-.29,1.53-.81,2.89-1.57,4.08-.76,1.19-1.68,2.19-2.78,3.01-1.1.82-2.33,1.43-3.7,1.85-1.37.42-2.84.63-4.4.63-2.82,0-5.33-.69-7.52-2.08-2.19-1.39-3.91-3.44-5.16-6.17-1.25-2.73-1.88-6.09-1.88-10.09s.62-7.26,1.86-9.99c1.24-2.73,2.96-4.8,5.16-6.22Z"/>
  <polygon class="cls-1" points="254.32 328.52 270.48 328.52 270.48 372.83 279.87 372.83 279.87 328.52 296.03 328.52 296.03 320.59 254.32 320.59 254.32 328.52"/>
  <path class="cls-1" d="M333.68,351.7c2.76-1.33,4.85-3.23,6.27-5.69,1.42-2.46,2.13-5.36,2.13-8.71s-.7-6.25-2.11-8.76c-1.4-2.51-3.47-4.46-6.2-5.85-2.73-1.39-6.11-2.09-10.12-2.09h-19.61v52.24h9.47v-19.13h9.64l10.27,19.13h10.57l-11.31-20.69c.34-.14.68-.28,1-.44ZM313.52,328.5h8.68c2.36,0,4.3.34,5.79,1.03,1.5.69,2.61,1.69,3.34,3.01.73,1.32,1.1,2.9,1.1,4.76s-.36,3.41-1.08,4.68c-.72,1.27-1.83,2.23-3.33,2.88-1.5.65-3.42.98-5.77.98h-8.73v-17.35Z"/>
  <polygon class="cls-1" points="360.28 320.59 350.81 320.59 350.81 372.83 383.31 372.83 383.31 364.9 360.28 364.9 360.28 320.59"/>
</svg>