<?xml version="1.0" encoding="UTF-8"?>
<svg id="Layer_1" xmlns="http://www.w3.org/2000/svg" viewBox="0 0 480 480">
  <defs>
    <style>
      .cls-1 {
        fill: #ffa9c2;
      }

      .cls-2 {
        fill: #3288d6;
      }

      .cls-3 {
        fill: #fff;
      }

      .cls-4 {
        fill: #dfedf2;
      }

      .cls-5 {
        fill: #fff8d9;
      }

      .cls-6 {
        fill: #f4b545;
      }

      .cls-7 {
        fill: #f8d7ff;
      }

      .cls-8 {
        fill: #f47aa0;
      }

      .cls-9 {
        fill: #79cdf6;
      }

      .cls-10 {
        fill: #ffe277;
      }

      .cls-11 {
        fill: #333;
      }

      .cls-12 {
        fill: #8942c5;
      }

      .cls-13 {
        fill: #dd4a8c;
      }

      .cls-14 {
        fill: #d27cf2;
      }

      .cls-15 {
        opacity: .5;
      }
    </style>
  </defs>
  <path class="cls-11" d="M469.99,280.89c0,.07,0,.13,0,.2v6.78c0,9.12-2.66,16.56-7.9,22.1-5.41,5.73-12.71,8.75-21.12,8.75h-64.34c.07.62.12,1.23.12,1.87v27.85h6.55c9.1,0,16.47,7.37,16.47,16.46v7.93c0,9.09-7.37,16.46-16.47,16.46h-32.49c-1.17,0-2.31-.12-3.42-.35-1.1.23-2.24.35-3.4.35h-10.56c-3.66,0-7.14-1.21-9.96-3.34-2.77,2.1-6.22,3.34-9.96,3.34h-9.48c-4.78,0-9.07-2.05-12.08-5.31-3.01,3.26-7.3,5.31-12.09,5.31h-9.4c-7.37,0-13.61-4.84-15.71-11.51-.94,1.02-1.93,2-2.99,2.91-3.43,2.99-7.42,5.32-11.87,6.94-4.35,1.58-9.1,2.38-14.12,2.38-7.56,0-14.51-1.84-20.68-5.47-5.62-3.32-10.19-7.92-13.6-13.72v2.02c0,9.09-7.38,16.46-16.47,16.46h-8.42c-4.85,0-9.43-2.13-12.54-5.78-3.01,3.54-7.51,5.78-12.53,5.78h-9.47c-1.8,0-3.52-.3-5.15-.83-1.61.53-3.34.83-5.14.83h-9.47c-9.1,0-16.47-7.36-16.47-16.46v-52.24c0-.63.04-1.25.12-1.87h-52.54c-12.42,0-20.05-5.09-24.27-9.36-3.85-3.92-6.52-8.7-7.95-14.23-.8-3.04-1.2-6.34-1.2-9.79V122.85c0-12.37,5.28-19.94,9.71-24.11,6.18-5.81,14.69-8.74,25.3-8.74s19.25,2.93,25.42,8.72c4.45,4.19,9.73,11.76,9.73,24.13v121.92h42.89c1.55,0,3.01.11,4.39.29-1.42-7.35-2.47-14.75-3.12-22.17-.03-.35-.07-.71-.1-1.05-.32-3.86-.54-7.71-.65-11.56-.06-1.99-.08-3.98-.08-5.97,0-34.55,8.57-61.8,13.69-74.97,3.77-9.71,8.1-18.2,12.52-24.54,2.55-3.66,10.3-14.79,22.5-14.79,6.22,0,11.92,2.72,17.35,8.38.11.12.21.22.32.34.21.21.41.44.61.67.14.15.27.3.4.44,4.13,4.71,8.09,11.14,12.01,19.41.17.36.35.74.53,1.14.44.95.91,2.01,1.41,3.16.11.24.21.48.31.72.06.14.12.27.17.41.06.14.12.27.17.41.72-10.47,5.19-17.19,9-21.07,4.25-4.3,11.88-9.39,24.3-9.39h80.97c8.23,0,14.1,2.8,18.08,5.92,4.52-3.18,11.05-5.92,20.18-5.92h82.31c10.72,0,17.47,4.76,21.25,8.75,5.25,5.55,7.91,12.98,7.91,22.09,0,.18,0,.35-.02.53,0,.07.02.13.02.2v6.78c0,9.04-2.63,16.46-7.79,22.04-3.58,3.86-9.84,8.41-19.64,8.89v8.35c2.94,1.12,5.65,2.72,8.05,4.78.03.03.07.07.11.09.76.67,1.44,1.32,2.08,2,5.18,5.49,7.84,12.88,7.84,21.9,0,.17-.02.33-.02.49,0,.08.02.16.02.24v6.78c0,11.14-4.3,18.03-7.9,21.84-2.91,3.08-6.34,5.36-10.19,6.83v12.18c8.02.25,14.98,3.32,20.17,8.92,5.16,5.58,7.78,12.99,7.78,22.04,0,.18,0,.36,0,.53Z"/>
  <rect class="cls-13" x="130.75" y="276.43" width="5.37" height="10.9"/>
  <path class="cls-13" d="M135.36,281.13c-.58-2.06-1.5-3.75-2.77-5.06-2.35-2.45-5.53-3.67-9.54-3.67h-59.37v-138.37c0-5.24-1.51-9.28-4.53-12.13-3.03-2.84-7.74-4.26-14.14-4.26s-10.99,1.42-14.01,4.26c-3.03,2.85-4.53,6.89-4.53,12.13v151.3c0,2.07.22,3.95.67,5.67.69,2.71,1.93,4.97,3.73,6.79,2.94,2.98,7.12,4.46,12.54,4.46h79.64c4.09,0,7.29-1.22,9.6-3.67,2.31-2.45,3.47-6.2,3.47-11.27,0-2.35-.26-4.41-.77-6.2Z"/>
  <rect class="cls-2" x="316.25" y="204.31" width="5.37" height="6.78"/>
  <rect class="cls-2" x="326.92" y="126.67" width="5.37" height="5.37"/>
  <path class="cls-2" d="M319.75,146.57c3.92,0,6.98-1.22,9.21-3.67,2.22-2.44,3.33-6.07,3.33-10.86s-1.11-8.4-3.33-10.8c-2.23-2.4-5.29-3.6-9.21-3.6h-80.98c-5.43,0-9.6,1.49-12.54,4.46-2.93,2.98-4.4,7.13-4.4,12.47v151.3c0,2.04.23,3.92.69,5.6.72,2.63,2,4.81,3.84,6.54,3.03,2.84,7.69,4.26,14.01,4.26s10.89-1.42,14-4.26c3.11-2.84,4.67-6.89,4.67-12.13v-60.52h50.16c3.74,0,6.73-1.2,9-3.6,2.28-2.4,3.41-5.95,3.41-10.66,0-2.64-.36-4.92-1.08-6.85-.56-1.52-1.34-2.8-2.33-3.88-2.27-2.45-5.26-3.67-9-3.67h-50.16v-50.13h60.7Z"/>
  <path class="cls-12" d="M450.13,277c-2.27-2.45-5.32-3.67-9.14-3.67h-62.7v-50.65h52.97c3.73,0,6.73-1.2,9-3.6,2.27-2.4,3.4-5.91,3.4-10.54s-1.13-8.26-3.4-10.66c-.28-.3-.58-.58-.87-.83-2.15-1.84-4.86-2.76-8.13-2.76h-52.97v-46.79h62.04c3.91,0,7-1.22,9.27-3.67,2.27-2.45,3.41-6.07,3.41-10.86s-1.14-8.4-3.41-10.8-5.36-3.6-9.27-3.6h-82.31c-5.43,0-9.6,1.49-12.54,4.46-2.93,2.98-4.4,7.13-4.4,12.47v149.83c0,5.33,1.47,9.48,4.4,12.47,2.94,2.98,7.12,4.46,12.54,4.46h82.97c3.82,0,6.88-1.2,9.14-3.6,2.27-2.4,3.4-6,3.4-10.8s-1.13-8.42-3.4-10.86Z"/>
  <rect class="cls-12" x="447.63" y="126.19" width="5.37" height="6.78"/>
  <rect class="cls-12" x="438.28" y="201.76" width="5.37" height="6.78"/>
  <rect class="cls-12" x="448.15" y="281.08" width="5.37" height="6.78"/>
  <path class="cls-8" d="M135.36,269.94c-.58-2.06-1.5-3.75-2.77-5.06-2.35-2.45-5.53-3.67-9.54-3.67h-59.37V122.85c0-5.24-1.51-9.28-4.53-12.13-3.03-2.84-7.74-4.26-14.14-4.26s-10.99,1.42-14.01,4.26c-3.03,2.85-4.53,6.89-4.53,12.13v151.3c0,2.07.22,3.95.67,5.67.69,2.71,1.93,4.97,3.73,6.79,2.94,2.98,7.12,4.46,12.54,4.46h79.64c4.09,0,7.29-1.22,9.6-3.67,2.31-2.45,3.47-6.2,3.47-11.27,0-2.35-.26-4.41-.77-6.2Z"/>
  <path class="cls-9" d="M319.75,139.99c3.92,0,6.98-1.22,9.21-3.67,2.22-2.44,3.33-6.07,3.33-10.86s-1.11-8.4-3.33-10.8c-2.23-2.4-5.29-3.6-9.21-3.6h-80.98c-5.43,0-9.6,1.49-12.54,4.46-2.93,2.98-4.4,7.13-4.4,12.47v151.3c0,2.04.23,3.92.69,5.6.72,2.63,2,4.81,3.84,6.54,3.03,2.84,7.69,4.26,14.01,4.26s10.89-1.42,14-4.26c3.11-2.84,4.67-6.89,4.67-12.13v-60.52h50.16c3.74,0,6.73-1.2,9-3.6,2.28-2.4,3.41-5.95,3.41-10.66,0-2.64-.36-4.92-1.08-6.85-.56-1.52-1.34-2.8-2.33-3.88-2.27-2.45-5.26-3.67-9-3.67h-50.16v-50.13h60.7Z"/>
  <path class="cls-14" d="M450.13,269.49c-2.27-2.45-5.32-3.67-9.14-3.67h-62.7v-50.65h52.97c3.73,0,6.73-1.2,9-3.6,2.27-2.4,3.4-5.91,3.4-10.54s-1.13-8.26-3.4-10.66c-.28-.3-.58-.58-.87-.83-2.15-1.84-4.86-2.76-8.13-2.76h-52.97v-46.79h62.04c3.91,0,7-1.22,9.27-3.67,2.27-2.45,3.41-6.07,3.41-10.86s-1.14-8.4-3.41-10.8-5.36-3.6-9.27-3.6h-82.31c-5.43,0-9.6,1.49-12.54,4.46-2.93,2.98-4.4,7.13-4.4,12.47v149.83c0,5.33,1.47,9.48,4.4,12.47,2.94,2.98,7.12,4.46,12.54,4.46h82.97c3.82,0,6.88-1.2,9.14-3.6s3.4-6,3.4-10.8-1.13-8.42-3.4-10.86Z"/>
  <path class="cls-10" d="M204.41,204.3c0,9.96-.78,19.57-2.11,28.62-1.05,7.1-2.43,13.87-4.04,20.18-7.47,29.32-19.85,49.05-26.07,49.05-5.24,0-14.9-14.07-22.27-36.1-1.83-5.46-3.52-11.42-4.98-17.77-3.02-13.22-4.98-28.16-4.98-43.97,0-26.93,5.71-51.33,12.57-69.01,6.92-17.8,15.01-28.83,19.66-28.83,3.8,0,9.91,7.38,15.8,19.82,8.44,17.87,16.42,46.16,16.42,78.02Z"/>
  <path class="cls-5" d="M198.26,253.1c-7.47,29.32-19.85,49.05-26.07,49.05-5.24,0-14.9-14.07-22.27-36.1l48.34-12.95Z"/>
  <path class="cls-5" d="M204.41,204.3c0,9.96-.78,19.57-2.11,28.62l-57.36,15.36c-3.02-13.22-4.98-28.16-4.98-43.97,0-26.93,5.71-51.33,12.57-69.01,12.19-3.09,24.27-6.16,35.46-9.01,8.44,17.87,16.42,46.16,16.42,78.02Z"/>
  <path class="cls-6" d="M204.42,204.3c0,54.05-22.97,97.85-32.22,97.85V106.46c9.25,0,32.22,43.79,32.22,97.84Z"/>
  <ellipse class="cls-10" cx="172.19" cy="201.39" rx="20.65" ry="20.63"/>
  <path class="cls-6" d="M172.19,224.05c-12.51,0-22.68-10.17-22.68-22.67s10.18-22.66,22.68-22.66,22.68,10.17,22.68,22.66-10.18,22.67-22.68,22.67ZM172.19,182.79c-10.26,0-18.61,8.34-18.61,18.6s8.35,18.6,18.61,18.6,18.61-8.34,18.61-18.6-8.35-18.6-18.61-18.6Z"/>
  <g>
    <path class="cls-4" d="M121.77,320.59v52.24h-9.47v-52.24h9.47Z"/>
    <path class="cls-4" d="M175.03,320.59v52.24h-8.42l-24.63-35.58h-.43v35.58h-9.47v-52.24h8.48l24.61,35.61h.46v-35.61h9.42Z"/>
    <path class="cls-4" d="M247.91,338.22h-9.55c-.27-1.56-.78-2.95-1.51-4.17-.73-1.21-1.64-2.25-2.73-3.1-1.09-.85-2.33-1.49-3.71-1.93-1.39-.43-2.88-.65-4.48-.65-2.84,0-5.36.71-7.56,2.13s-3.91,3.49-5.16,6.22c-1.24,2.73-1.86,6.06-1.86,9.99s.63,7.36,1.88,10.09c1.25,2.73,2.97,4.79,5.16,6.17,2.19,1.39,4.69,2.08,7.52,2.08,1.57,0,3.03-.21,4.4-.63,1.37-.42,2.6-1.03,3.7-1.85s2.02-1.82,2.78-3.01c.76-1.19,1.28-2.55,1.57-4.08l9.55.05c-.36,2.48-1.13,4.81-2.31,6.99s-2.73,4.09-4.63,5.75c-1.91,1.66-4.14,2.95-6.69,3.88-2.55.93-5.39,1.39-8.5,1.39-4.59,0-8.7-1.06-12.3-3.19-3.61-2.13-6.45-5.19-8.53-9.21-2.08-4.01-3.11-8.83-3.11-14.44s1.05-10.45,3.14-14.45,4.94-7.07,8.55-9.2c3.61-2.13,7.69-3.19,12.25-3.19,2.91,0,5.62.41,8.12,1.22s4.73,2.01,6.69,3.58c1.96,1.57,3.57,3.49,4.84,5.76,1.27,2.27,2.1,4.86,2.49,7.77Z"/>
    <path class="cls-4" d="M254.32,328.52v-7.93h41.71v7.93h-16.16v44.31h-9.39v-44.31h-16.16Z"/>
    <path class="cls-4" d="M304.04,372.83v-52.24h19.61c4.02,0,7.39.7,10.12,2.09,2.73,1.39,4.8,3.35,6.2,5.85s2.11,5.43,2.11,8.76-.71,6.25-2.13,8.71c-1.42,2.46-3.51,4.35-6.27,5.69-2.76,1.34-6.14,2-10.16,2h-13.96v-7.86h12.69c2.35,0,4.27-.33,5.77-.98,1.5-.65,2.61-1.62,3.33-2.88.72-1.27,1.08-2.83,1.08-4.68s-.37-3.44-1.1-4.76c-.73-1.32-1.85-2.32-3.34-3.01-1.5-.69-3.43-1.03-5.79-1.03h-8.68v44.33h-9.47ZM331.05,349.16l12.94,23.67h-10.57l-12.71-23.67h10.34Z"/>
    <path class="cls-4" d="M350.81,372.83v-52.24h9.47v44.31h23.03v7.93h-32.5Z"/>
  </g>
  <path class="cls-1" d="M96.6,261.22l-69.46,18.6c-.45-1.72-.67-3.6-.67-5.67v-105.89l37.22-9.97v102.93h32.91Z"/>
  <g class="cls-15">
    <path class="cls-4" d="M328.96,114.66c2.22,2.4,3.33,6,3.33,10.8s-1.11,8.43-3.33,10.86c-2.23,2.45-5.29,3.67-9.21,3.67h-60.7v50.13h50.16c3.74,0,6.73,1.22,9,3.67,1,1.07,1.78,2.36,2.33,3.88l-98.72,26.43v-96.1c0-5.34,1.47-9.48,4.4-12.47,2.94-2.98,7.12-4.46,12.54-4.46h80.98c3.92,0,6.98,1.2,9.21,3.6Z"/>
  </g>
  <g class="cls-15">
    <path class="cls-7" d="M453,125.46c0,4.8-1.14,8.42-3.41,10.86-2.27,2.45-5.36,3.67-9.27,3.67h-62.04v46.79h.11l-37.32,9.99v-68.77c0-5.34,1.47-9.48,4.4-12.47,2.94-2.98,7.12-4.46,12.54-4.46h82.31c3.91,0,7,1.2,9.27,3.6s3.41,6,3.41,10.8Z"/>
  </g>
  <path class="cls-1" d="M135.36,269.94c.51,1.79.77,3.85.77,6.2,0,5.07-1.15,8.82-3.47,11.27-2.31,2.45-5.51,3.67-9.6,3.67H56.42l78.94-21.13Z"/>
  <g class="cls-15">
    <path class="cls-4" d="M221.83,243.18l37.22-9.97v41.89l-36.53,9.78c-.46-1.68-.69-3.55-.69-5.6v-36.1Z"/>
  </g>
  <g class="cls-15">
    <path class="cls-7" d="M443.66,201.03c0,4.63-1.13,8.14-3.4,10.54-2.27,2.4-5.27,3.6-9,3.6h-52.97v32.61l-37.22,9.96v-41.88l98.31-26.32c.3.26.6.54.87.83,2.27,2.4,3.4,5.96,3.4,10.66Z"/>
  </g>
  <path class="cls-3" d="M242.9,112.07s.08-.08.12-.08c.07,0,.02.03-.12.08Z"/>
</svg>