<?xml version="1.0" encoding="UTF-8"?>
<svg id="Expanded" xmlns="http://www.w3.org/2000/svg" xmlns:xlink="http://www.w3.org/1999/xlink" viewBox="0 0 500 700">
  <defs>
    <style>
      .cls-1 {
        fill: #13437c;
      }

      .cls-2 {
        fill: #3288d6;
      }

      .cls-3 {
        fill: #a152db;
      }

      .cls-4 {
        fill: #f4f8f9;
      }

      .cls-5 {
        fill: #fff;
      }

      .cls-6 {
        fill: #dfedf2;
      }

      .cls-7 {
        fill: #ea9939;
      }

      .cls-8 {
        fill: #d87625;
      }

      .cls-9 {
        fill: #fff8d9;
      }

      .cls-10 {
        fill: #f4b545;
      }

      .cls-11 {
        fill: none;
      }

      .cls-12 {
        fill: #f8d7ff;
      }

      .cls-13 {
        fill: #f47aa0;
      }

      .cls-14 {
        fill: #231f20;
      }

      .cls-15 {
        fill: #3d1170;
      }

      .cls-16 {
        fill: #6d3108;
      }

      .cls-17 {
        fill: #79cdf6;
      }

      .cls-18 {
        fill: #7a1859;
      }

      .cls-19 {
        fill: #ffe277;
      }

      .cls-20 {
        fill: #333;
      }

      .cls-21 {
        fill: #47acea;
      }

      .cls-22 {
        fill: #8942c5;
      }

      .cls-23 {
        fill: #dd4a8c;
      }

      .cls-24 {
        fill: #efa7fc;
      }

      .cls-25 {
        fill: #95d8ef;
        opacity: 0;
      }

      .cls-26 {
        fill: #a8b6c1;
      }

      .cls-27 {
        fill: #d27cf2;
      }

      .cls-28 {
        clip-path: url(#clippath);
      }

      .cls-29 {
        fill: #1f5999;
      }

      .cls-30 {
        fill: #ffd2e1;
      }
    </style>
    <clipPath id="clippath">
      <rect class="cls-11" x="-36" y="68" width="572" height="468" rx="32" ry="32" transform="translate(552 52) rotate(90)"/>
    </clipPath>
  </defs>
  <g>
    <g>
      <path class="cls-4" d="M48,699.5c-26.19,0-47.5-21.31-47.5-47.5V48C.5,21.81,21.81.5,48,.5h404c8.33,0,16.53,2.19,23.71,6.33,14.67,8.47,23.79,24.24,23.79,41.17v604c0,26.19-21.31,47.5-47.5,47.5H48Z"/>
      <path class="cls-20" d="M452,1c8.25,0,16.36,2.17,23.46,6.27,14.52,8.38,23.54,23.98,23.54,40.73v604c0,25.92-21.08,47-47,47H48c-25.92,0-47-21.08-47-47V48C1,22.08,22.08,1,48,1h404M452,0H48C21.49,0,0,21.49,0,48v604c0,26.51,21.49,48,48,48h404c26.51,0,48-21.49,48-48V48c0-17.79-9.67-33.31-24.04-41.6-7.05-4.07-15.23-6.4-23.96-6.4h0Z"/>
    </g>
    <path class="cls-5" d="M500,48v374.52L0,539.11V117.39L475.96,6.4c14.37,8.29,24.04,23.81,24.04,41.6Z"/>
    <path class="cls-5" d="M500,459.42v140.57l-428.9,100.01h-23.1c-26.51,0-48-21.49-48-48v-75.99l500-116.59Z"/>
    <path class="cls-20" d="M452,1c25.92,0,47,21.08,47,47v604c0,25.92-21.08,47-47,47H48c-25.92,0-47-21.08-47-47V48C1,22.08,22.08,1,48,1h404M452,0H48C21.49,0,0,21.49,0,48v604c0,26.51,21.49,48,48,48h404c26.51,0,48-21.49,48-48V48c0-26.51-21.49-48-48-48h0Z"/>
    <g>
      <rect class="cls-5" x="15" y="15" width="470" height="574" rx="33" ry="33"/>
      <path class="cls-20" d="M452,16c17.67,0,32,14.33,32,32v508c0,17.67-14.33,32-32,32H48c-17.67,0-32-14.33-32-32V48c0-17.67,14.33-32,32-32h404M452,14H48c-18.75,0-34,15.25-34,34v508c0,18.75,15.25,34,34,34h404c18.75,0,34-15.25,34-34V48c0-18.75-15.25-34-34-34h0Z"/>
    </g>
  </g>
  <g class="cls-28">
    <rect class="cls-17" x="4.44" y="25.8" width="840.42" height="378.25" transform="translate(453.33 -260.16) rotate(66.61)"/>
    <rect class="cls-19" x="99.71" y="-180.21" width="432.23" height="440.93" transform="translate(228.52 -265.92) rotate(66.82)"/>
    <rect class="cls-27" x="-320.52" y="190.55" width="840.42" height="329.87" transform="translate(386.38 122.86) rotate(66.61)"/>
    <rect class="cls-13" x="-197.97" y="4.02" width="432.23" height="328.73" transform="translate(165.49 84.88) rotate(66.61)"/>
    <g>
      <g id="_x3C_Radial_Repeat_x3E_">
        <rect class="cls-5" x="332.87" y="305.63" width="1" height="347.74" transform="translate(-163.5 172.62) rotate(-23.49)"/>
      </g>
      <g id="_x3C_Radial_Repeat_x3E_-2" data-name="_x3C_Radial_Repeat_x3E_">
        <rect class="cls-5" x="296.47" y="317.36" width="1" height="347.74" transform="translate(-97.4 74.13) rotate(-12.24)"/>
      </g>
      <g id="_x3C_Radial_Repeat_x3E_-3" data-name="_x3C_Radial_Repeat_x3E_">
        <rect class="cls-5" x="258.48" y="321.76" width="1" height="347.74" transform="translate(-8.53 4.55) rotate(-.99)"/>
      </g>
      <g id="_x3C_Radial_Repeat_x3E_-4" data-name="_x3C_Radial_Repeat_x3E_">
        <rect class="cls-5" x="47" y="492.03" width="347.74" height="1" transform="translate(-303.07 622.37) rotate(-79.77)"/>
      </g>
      <g id="_x3C_Radial_Repeat_x3E_-5" data-name="_x3C_Radial_Repeat_x3E_">
        <rect class="cls-5" x="10.22" y="481.56" width="347.74" height="1" transform="translate(-331.9 476.84) rotate(-68.52)"/>
      </g>
      <g id="_x3C_Radial_Repeat_x3E_-6" data-name="_x3C_Radial_Repeat_x3E_">
        <rect class="cls-5" x="-23.82" y="464.11" width="347.74" height="1" transform="translate(-321.86 339.4) rotate(-57.24)"/>
      </g>
      <g id="_x3C_Radial_Repeat_x3E_-7" data-name="_x3C_Radial_Repeat_x3E_">
        <rect class="cls-5" x="-53.79" y="440.36" width="347.74" height="1" transform="translate(-280.5 221.06) rotate(-46.01)"/>
      </g>
      <g id="_x3C_Radial_Repeat_x3E_-8" data-name="_x3C_Radial_Repeat_x3E_">
        <rect class="cls-5" x="-78.55" y="411.22" width="347.74" height="1" transform="translate(-217.81 127.91) rotate(-34.78)"/>
      </g>
      <g id="_x3C_Radial_Repeat_x3E_-9" data-name="_x3C_Radial_Repeat_x3E_">
        <rect class="cls-5" x="-97.15" y="377.81" width="347.74" height="1" transform="translate(-144.41 61.91) rotate(-23.49)"/>
      </g>
      <g id="_x3C_Radial_Repeat_x3E_-10" data-name="_x3C_Radial_Repeat_x3E_">
        <rect class="cls-5" x="-108.88" y="341.41" width="347.74" height="1" transform="translate(-70.96 21.53) rotate(-12.23)"/>
      </g>
      <g id="_x3C_Radial_Repeat_x3E_-11" data-name="_x3C_Radial_Repeat_x3E_">
        <rect class="cls-5" x="-113.28" y="303.42" width="347.74" height="1" transform="translate(-5.33 1.11) rotate(-1.01)"/>
      </g>
      <g id="_x3C_Radial_Repeat_x3E_-12" data-name="_x3C_Radial_Repeat_x3E_">
        <rect class="cls-5" x="63.18" y="91.94" width="1" height="347.74" transform="translate(-209.22 281.13) rotate(-79.74)"/>
      </g>
      <g id="_x3C_Radial_Repeat_x3E_-13" data-name="_x3C_Radial_Repeat_x3E_">
        <rect class="cls-5" x="73.65" y="55.16" width="1" height="347.74" transform="translate(-166.11 214.05) rotate(-68.49)"/>
      </g>
      <g id="_x3C_Radial_Repeat_x3E_-14" data-name="_x3C_Radial_Repeat_x3E_">
        <rect class="cls-5" x="91.1" y="21.13" width="1" height="347.74" transform="translate(-121.95 166.51) rotate(-57.24)"/>
      </g>
      <g id="_x3C_Radial_Repeat_x3E_-15" data-name="_x3C_Radial_Repeat_x3E_">
        <rect class="cls-5" x="114.85" y="-8.84" width="1" height="347.74" transform="translate(-83.48 133.33) rotate(-45.99)"/>
      </g>
      <g id="_x3C_Radial_Repeat_x3E_-16" data-name="_x3C_Radial_Repeat_x3E_">
        <rect class="cls-5" x="143.99" y="-33.61" width="1" height="347.74" transform="translate(-54.17 107.34) rotate(-34.74)"/>
      </g>
      <g id="_x3C_Radial_Repeat_x3E_-17" data-name="_x3C_Radial_Repeat_x3E_">
        <rect class="cls-5" x="177.4" y="-52.21" width="1" height="347.74" transform="translate(-33.75 80.99) rotate(-23.49)"/>
      </g>
      <g id="_x3C_Radial_Repeat_x3E_-18" data-name="_x3C_Radial_Repeat_x3E_">
        <rect class="cls-5" x="213.8" y="-63.94" width="1" height="347.74" transform="translate(-18.44 47.94) rotate(-12.24)"/>
      </g>
      <g id="_x3C_Radial_Repeat_x3E_-19" data-name="_x3C_Radial_Repeat_x3E_">
        <rect class="cls-5" x="251.79" y="-68.34" width="1" height="347.74" transform="translate(-1.79 4.38) rotate(-.99)"/>
      </g>
      <g id="_x3C_Radial_Repeat_x3E_-20" data-name="_x3C_Radial_Repeat_x3E_">
        <rect class="cls-5" x="116.54" y="108.13" width="347.74" height="1" transform="translate(131.91 375.11) rotate(-79.77)"/>
      </g>
      <g id="_x3C_Radial_Repeat_x3E_-21" data-name="_x3C_Radial_Repeat_x3E_">
        <rect class="cls-5" x="153.32" y="118.6" width="347.74" height="1" transform="translate(96.55 379.95) rotate(-68.52)"/>
      </g>
      <g id="_x3C_Radial_Repeat_x3E_-22" data-name="_x3C_Radial_Repeat_x3E_">
        <rect class="cls-5" x="187.35" y="136.05" width="347.74" height="1" transform="translate(50.93 366.43) rotate(-57.24)"/>
      </g>
      <g id="_x3C_Radial_Repeat_x3E_-23" data-name="_x3C_Radial_Repeat_x3E_">
        <rect class="cls-5" x="217.32" y="159.8" width="347.74" height="1" transform="translate(4.17 330.4) rotate(-46.01)"/>
      </g>
      <g id="_x3C_Radial_Repeat_x3E_-24" data-name="_x3C_Radial_Repeat_x3E_">
        <rect class="cls-5" x="242.08" y="188.94" width="347.74" height="1" transform="translate(-33.75 271.09) rotate(-34.78)"/>
      </g>
      <g id="_x3C_Radial_Repeat_x3E_-25" data-name="_x3C_Radial_Repeat_x3E_">
        <rect class="cls-5" x="260.68" y="222.35" width="347.74" height="1" transform="translate(-52.81 191.63) rotate(-23.49)"/>
      </g>
      <g id="_x3C_Radial_Repeat_x3E_-26" data-name="_x3C_Radial_Repeat_x3E_">
        <rect class="cls-5" x="272.41" y="258.75" width="347.74" height="1" transform="translate(-44.79 100.43) rotate(-12.23)"/>
      </g>
      <g id="_x3C_Radial_Repeat_x3E_-27" data-name="_x3C_Radial_Repeat_x3E_">
        <rect class="cls-5" x="276.81" y="296.73" width="347.74" height="1" transform="translate(-5.15 7.97) rotate(-1.01)"/>
      </g>
      <g id="_x3C_Radial_Repeat_x3E_-28" data-name="_x3C_Radial_Repeat_x3E_">
        <rect class="cls-5" x="447.09" y="161.48" width="1" height="347.74" transform="translate(37.88 716.05) rotate(-79.74)"/>
      </g>
      <g id="_x3C_Radial_Repeat_x3E_-29" data-name="_x3C_Radial_Repeat_x3E_">
        <rect class="cls-5" x="436.61" y="198.26" width="1" height="347.74" transform="translate(-69.37 642.36) rotate(-68.49)"/>
      </g>
      <g id="_x3C_Radial_Repeat_x3E_-30" data-name="_x3C_Radial_Repeat_x3E_">
        <rect class="cls-5" x="419.17" y="232.29" width="1" height="347.74" transform="translate(-148.98 539.3) rotate(-57.24)"/>
      </g>
      <g id="_x3C_Radial_Repeat_x3E_-31" data-name="_x3C_Radial_Repeat_x3E_">
        <rect class="cls-5" x="395.42" y="262.26" width="1" height="347.74" transform="translate(-192.83 417.87) rotate(-45.99)"/>
      </g>
      <g id="_x3C_Radial_Repeat_x3E_-32" data-name="_x3C_Radial_Repeat_x3E_">
        <rect class="cls-5" x="366.28" y="287.03" width="1" height="347.74" transform="translate(-197.27 291.17) rotate(-34.74)"/>
      </g>
    </g>
    <g>
      <path class="cls-13" d="M136.85,272s-81.89-39.94-80.43-94.72c.06-2.36.28-4.75.67-7.17.59-4.68,2.65-10.45,4.05-13.75,13.23-31.19,57.24-33.78,75.72-5.43,11.01-16.89,31.07-22.79,48.28-18.22,11.7,3.09,22.09,11.03,27.44,23.65,1.4,3.3,3.47,9.07,4.05,13.75,9.34,58.44-79.76,101.89-79.76,101.89Z"/>
      <path class="cls-23" d="M136.85,272s-81.89-39.94-80.43-94.72c2.37,12.49,10.03,23.77,19.57,32.32,10.83,9.72,24.02,16.38,37.15,22.64,8.86,4.22,18.26,8.4,28.04,7.68,9.28-.68,17.63-5.69,25.3-10.97,11.84-8.14,23.21-17.43,31.2-29.37,8-11.95,12.32-26.92,9.13-40.93-2.61-11.43-10.94-21.77-21.69-25.94,11.7,3.09,22.09,11.03,27.44,23.65,1.4,3.3,3.47,9.07,4.05,13.75,9.34,58.44-79.76,101.89-79.76,101.89Z"/>
      <path class="cls-30" d="M104.24,134.83c-17.96,9.85-30.7,28.65-33.2,48.98-2.49,20.33,5.33,41.66,20.38,55.55-20.24-12.31-33.89-34.83-35.46-58.46-.56-8.46.38-17.14,3.82-24.89,3.98-8.97,11.34-16.39,20.27-20.46,8.93-4.07,19.36-4.75,28.74-1.88"/>
      <path class="cls-18" d="M136.85,274c-.3,0-.6-.07-.88-.2-.23-.11-22.75-11.19-43.81-29.31-28.17-24.25-40.98-50.08-37.05-74.69.56-4.53,2.53-10.32,4.18-14.21,6.33-14.93,20.01-24.71,36.59-26.18,16.1-1.42,31.54,5.44,40.97,18.04,9.43-12.6,24.87-19.46,40.96-18.04,16.59,1.47,30.27,11.26,36.6,26.18,1.65,3.89,3.62,9.68,4.19,14.28,3.93,24.55-8.89,50.38-37.06,74.62-21.06,18.13-43.59,29.2-43.81,29.31-.28.13-.58.2-.88.2ZM100.07,133.21c-1.27,0-2.55.06-3.84.17-15.09,1.33-27.52,10.22-33.26,23.76-1.54,3.64-3.38,9.02-3.9,13.21-8.52,53.3,68.62,94.7,77.78,99.4,9.16-4.71,86.3-46.1,77.79-99.33-.53-4.26-2.37-9.64-3.91-13.28-5.74-13.54-18.18-22.42-33.27-23.76-15.62-1.38-30.54,5.76-38.94,18.64-.37.57-1,.91-1.68.91h0c-.68,0-1.31-.34-1.68-.91-7.71-11.82-20.91-18.81-35.1-18.81Z"/>
      <path class="cls-30" d="M80.39,149.73c-5.35,4.48-8.84,11.13-9.49,18.08-.38,4.07.22,8.32,2.32,11.83,3.73,6.23,11.78,9.02,18.96,7.89,7.18-1.13,13.47-5.59,18.32-11,3.38-3.77,6.23-8.15,7.44-13.07,1.21-4.92.6-10.43-2.38-14.52-7.78-10.68-26.66-6.33-35.16.79Z"/>
    </g>
    <g>
      <path class="cls-10" d="M452.17,129.81c0,14.88-4.58,28.7-12.4,40.12-12.8,18.7-34.31,30.96-58.68,30.96-1.01,0-2.01-.02-3.01-.06-37.86-1.58-68.07-32.77-68.07-71.02s31.82-71.07,71.08-71.07,71.08,31.82,71.08,71.07Z"/>
      <polygon class="cls-7" points="370.24 200.06 370.24 153.02 360.91 153.02 360.91 197.98 370.24 200.06"/>
      <path class="cls-7" d="M439.77,124.56v45.37c-2.67,3.91-5.73,7.53-9.11,10.82-7.32,7.13-16.17,12.69-26.01,16.14-7.37,2.59-15.3,4-23.55,4-1.01,0-2.01-.02-3.01-.06v-76.26h61.69Z"/>
      <path class="cls-8" d="M430.66,145.49v35.25c-7.32,7.13-16.17,12.69-26.01,16.14v-51.4h26.01Z"/>
      <rect class="cls-10" x="310.03" y="110.72" width="142.14" height="17.58"/>
      <path class="cls-19" d="M452.17,110.72c0,3.49-.25,6.91-.74,10.26-4.97,34.39-34.57,60.81-70.34,60.81-18.35,0-35.08-6.96-47.69-18.38-4.09-3.7-7.75-7.88-10.89-12.44-.38-.55-.74-1.1-1.11-1.67-.92-1.41-1.78-2.85-2.59-4.33-.5-.9-.97-1.81-1.43-2.74-.58-1.18-1.14-2.38-1.66-3.59-3.51-8.2-5.53-17.2-5.7-26.65,0-.43-.01-.86-.01-1.29,0-7.65,1.21-15.02,3.45-21.93,9.23-28.53,36.02-49.15,67.63-49.15,14.05,0,27.14,4.08,38.17,11.12,6.64,4.24,12.55,9.55,17.44,15.7,5.65,7.08,9.96,15.26,12.58,24.18.37,1.26.71,2.54,1.01,3.83.24,1,.45,2.01.64,3.02.31,1.64.56,3.3.75,4.99.08.66.15,1.32.21,1.99.19,2.06.28,4.15.28,6.27Z"/>
      <path class="cls-9" d="M449.89,92.81c-2.68-6.57-6.29-12.68-10.65-18.15-5.12-6.43-11.29-11.98-18.24-16.41-11.53-7.36-25.22-11.62-39.91-11.62-31.1,0-57.73,19.09-68.8,46.19.35-1.36.74-2.7,1.17-4.02,9.23-28.53,36.02-49.15,67.63-49.15,14.05,0,27.14,4.08,38.17,11.12,6.64,4.24,12.55,9.55,17.44,15.7,5.65,7.08,9.96,15.26,12.58,24.18.21.72.42,1.45.6,2.18Z"/>
      <path class="cls-9" d="M449.29,90.63l-133.57,48.02c-3.51-8.2-5.53-17.2-5.7-26.65l126.68-45.55c5.65,7.08,9.96,15.26,12.58,24.18Z"/>
      <path class="cls-9" d="M451.89,104.45l-129.39,46.53c-.38-.55-.74-1.1-1.11-1.67-.92-1.41-1.78-2.85-2.59-4.33l132.13-47.51c.31,1.64.56,3.3.75,4.99.08.66.15,1.32.21,1.99Z"/>
      <path class="cls-7" d="M431.75,110.72c0,1.48-.06,2.95-.19,4.39-2.22,25.93-23.97,46.28-50.47,46.28s-48.25-20.34-50.47-46.28c-.13-1.44-.19-2.91-.19-4.39,0-27.98,22.68-50.66,50.66-50.66s50.66,22.68,50.66,50.66Z"/>
      <path class="cls-16" d="M381.09,202.89c-40.3,0-73.08-32.78-73.08-73.08,0-.52,0-1.04.02-1.56v-16.08c-.01-.46-.02-.96-.02-1.46,0-40.3,32.78-73.08,73.08-73.08s73.08,32.78,73.08,73.08v17.58c0,.08,0,.16-.01.24,0,.42.01.85.01,1.28,0,40.3-32.78,73.08-73.08,73.08ZM381.09,41.64c-38.09,0-69.08,30.99-69.08,69.08,0,.47,0,.95.02,1.42v16.16c0,.53-.02,1.02-.02,1.52,0,38.09,30.99,69.08,69.08,69.08s69.08-30.99,69.08-69.08c0-.49,0-.98-.02-1.48,0-.11,0-.21.02-.32v-17.3c0-38.09-30.99-69.08-69.08-69.08Z"/>
      <path class="cls-8" d="M379.07,182.68c-9.89,0-19.85-2.16-28.77-6.32-11.65-5.43-21.83-14.4-28.68-25.28-.29-.47-.15-1.08.31-1.38.47-.29,1.08-.15,1.38.31,6.65,10.55,16.53,19.26,27.83,24.53,11.3,5.27,24.33,7.23,36.68,5.54.54-.08,1.05.31,1.13.85s-.31,1.05-.85,1.13c-2.98.41-6.01.61-9.03.61Z"/>
      <path class="cls-8" d="M395.13,181.29c-.43,0-.83-.28-.96-.72-.16-.53.15-1.09.68-1.24l7.54-2.23c.53-.16,1.09.15,1.24.68s-.15,1.09-.68,1.24l-7.54,2.23c-.09.03-.19.04-.28.04Z"/>
      <path class="cls-10" d="M431.56,115.11c-2.22,25.93-23.97,46.28-50.47,46.28s-48.25-20.34-50.47-46.28c2.22-25.93,23.97-46.27,50.47-46.27s48.25,20.34,50.47,46.27Z"/>
      <g>
        <path class="cls-7" d="M374.47,147.96c-.61-.61-.91-1.57-.91-2.89v-3.27h-8.66c-1.42,0-2.43-.3-3.04-.91-.61-.61-.91-1.57-.91-2.89v-43.97c0-1.32.3-2.29.91-2.92.61-.63,1.62-.95,3.04-.95h8.66v-3.34c0-1.32.3-2.29.91-2.92.61-.63,1.65-.95,3.11-.95h6.08c1.47,0,2.52.32,3.15.95.63.63.95,1.61.95,2.92v3.34c11.44.25,17.16,5.19,17.16,14.81,0,2.33-.53,4.4-1.6,6.23-1.06,1.82-2.51,3.11-4.33,3.87,4.86,1.57,7.29,5.24,7.29,11.01,0,4.91-1.61,8.72-4.82,11.43-3.22,2.71-7.78,4.14-13.71,4.29v3.27c0,1.42-.34,2.4-1.02,2.96-.68.56-1.91.84-3.68.84h-5.47c-1.47,0-2.51-.3-3.11-.91ZM384.64,110.37c1.57,0,2.78-.39,3.64-1.18.86-.78,1.29-1.94,1.29-3.46,0-1.62-.41-2.78-1.22-3.49-.81-.71-2.05-1.06-3.72-1.06h-8.35v9.19h8.35ZM385.94,130.8c1.62,0,2.87-.47,3.76-1.41.89-.94,1.33-2.16,1.33-3.68,0-1.72-.48-3.01-1.44-3.87-.96-.86-2.28-1.29-3.95-1.29h-9.34v10.25h9.64Z"/>
        <rect class="cls-7" x="399.01" y="117.16" width="7.27" height="8.94"/>
        <rect class="cls-7" x="397.65" y="96.05" width="7.27" height="8.94"/>
        <g>
          <path class="cls-19" d="M405.61,113.77c-.84-2.58-2.49-4.47-4.93-5.66-.53-.26-1.08-.48-1.68-.67,1.82-.76,3.26-2.05,4.33-3.88,1.06-1.82,1.6-3.9,1.6-6.23,0-8.57-4.54-13.42-13.62-14.55-1.11-.15-2.29-.23-3.54-.26v-3.34c0-1.32-.32-2.29-.95-2.92-.63-.63-1.68-.95-3.15-.95h-6.08c-1.47,0-2.51.32-3.11.95-.61.63-.92,1.6-.92,2.92v3.34h-8.66c-1.42,0-2.43.32-3.04.95-.61.63-.91,1.61-.91,2.93v43.97c0,1.31.3,2.27.91,2.88s1.62.91,3.04.91h8.66v3.27c0,1.31.31,2.27.92,2.88.6.61,1.64.91,3.11.91h5.47c1.77,0,3-.28,3.68-.83.68-.56,1.03-1.54,1.03-2.96v-3.27c5.92-.15,10.49-1.58,13.71-4.29,2.65-2.24,4.21-5.23,4.66-8.97.1-.79.15-1.61.15-2.46,0-1.75-.22-3.31-.67-4.67ZM388.29,101.55c-.87.79-2.08,1.18-3.65,1.18h-8.36v-9.19h8.36c1.67,0,2.91.35,3.72,1.06.81.7,1.22,1.87,1.22,3.49,0,1.52-.43,2.67-1.29,3.45ZM390.95,119.05c-.15,1.08-.57,1.97-1.26,2.7-.89.94-2.14,1.4-3.76,1.4h-9.64v-10.25h9.34c.49,0,.95.04,1.38.12,1.03.17,1.88.57,2.56,1.17.96.87,1.44,2.15,1.44,3.88,0,.34-.03.67-.07.98Z"/>
          <path class="cls-9" d="M391.3,82.78l-30.35,10.91v28.7l15.34-5.52v-3.97h9.34c.49,0,.95.04,1.38.12l13.66-4.91c-.53-.26-1.08-.48-1.68-.67,1.82-.76,3.26-2.05,4.33-3.88,1.06-1.82,1.6-3.9,1.6-6.23,0-8.57-4.54-13.42-13.62-14.55ZM388.29,101.55c-.87.79-2.08,1.18-3.65,1.18h-8.36v-9.19h8.36c1.67,0,2.91.35,3.72,1.06.81.7,1.22,1.87,1.22,3.49,0,1.52-.43,2.67-1.29,3.45Z"/>
          <path class="cls-9" d="M406.28,118.44c0,.85-.05,1.67-.15,2.46l-36.87,13.26h-4.36c-1.42,0-2.43-.3-3.04-.91s-.91-1.57-.91-2.88v-.54l18.58-6.68,11.42-4.11,14.66-5.27c.45,1.36.67,2.92.67,4.67Z"/>
        </g>
      </g>
    </g>
    <g>
      <g>
        <path class="cls-15" d="M139.19,566.61h-26.18c-9.42,0-17.09-7.67-17.09-17.09v-28.73h-28.73c-9.42,0-17.09-7.67-17.09-17.09v-26.18c0-9.42,7.67-17.09,17.09-17.09h28.73v-28.73c0-9.42,7.67-17.09,17.09-17.09h26.18c9.42,0,17.09,7.67,17.09,17.09v28.73h28.73c9.42,0,17.09,7.67,17.09,17.09v26.18c0,9.42-7.67,17.09-17.09,17.09h-28.73v28.73c0,9.42-7.67,17.09-17.09,17.09ZM67.19,468.43c-5.01,0-9.09,4.08-9.09,9.09v26.18c0,5.01,4.08,9.09,9.09,9.09h36.73v36.73c0,5.01,4.08,9.09,9.09,9.09h26.18c5.01,0,9.09-4.08,9.09-9.09v-36.73h36.73c5.01,0,9.09-4.08,9.09-9.09v-26.18c0-5.01-4.08-9.09-9.09-9.09h-36.73v-36.73c0-5.01-4.08-9.09-9.09-9.09h-26.18c-5.01,0-9.09,4.08-9.09,9.09v36.73h-36.73Z"/>
        <path class="cls-15" d="M139.19,566.61h-17.09v-152h17.09c9.42,0,17.09,7.67,17.09,17.09v28.73h28.73c9.42,0,17.09,7.67,17.09,17.09v26.18c0,9.42-7.67,17.09-17.09,17.09h-28.73v28.73c0,9.42-7.67,17.09-17.09,17.09ZM130.1,558.61h9.09c5.01,0,9.09-4.08,9.09-9.09v-36.73h36.73c5.01,0,9.09-4.08,9.09-9.09v-26.18c0-5.01-4.08-9.09-9.09-9.09h-36.73v-36.73c0-5.01-4.08-9.09-9.09-9.09h-9.09v136Z"/>
        <path class="cls-15" d="M139.19,546.69h-26.18c-9.42,0-17.09-7.67-17.09-17.09v-28.73h-28.73c-9.42,0-17.09-7.67-17.09-17.09v-26.18c0-9.42,7.67-17.09,17.09-17.09h28.73v-28.73c0-9.42,7.67-17.09,17.09-17.09h26.18c9.42,0,17.09,7.67,17.09,17.09v28.73h28.73c9.42,0,17.09,7.67,17.09,17.09v26.18c0,9.42-7.67,17.09-17.09,17.09h-28.73v28.73c0,9.42-7.67,17.09-17.09,17.09ZM67.19,448.51c-5.01,0-9.09,4.08-9.09,9.09v26.18c0,5.01,4.08,9.09,9.09,9.09h36.73v36.73c0,5.01,4.08,9.09,9.09,9.09h26.18c5.01,0,9.09-4.08,9.09-9.09v-36.73h36.73c5.01,0,9.09-4.08,9.09-9.09v-26.18c0-5.01-4.08-9.09-9.09-9.09h-36.73v-36.73c0-5.01-4.08-9.09-9.09-9.09h-26.18c-5.01,0-9.09,4.08-9.09,9.09v36.73h-36.73Z"/>
        <path class="cls-15" d="M130.1,474.69H50.1v-17.09c0-9.42,7.67-17.09,17.09-17.09h28.73v-28.73c0-9.42,7.67-17.09,17.09-17.09h17.09v80ZM58.1,466.69h64v-64h-9.09c-5.01,0-9.09,4.08-9.09,9.09v36.73h-36.73c-5.01,0-9.09,4.08-9.09,9.09v9.09Z"/>
        <path class="cls-15" d="M139.19,546.69h-17.09v-80h80v17.09c0,9.42-7.67,17.09-17.09,17.09h-28.73v28.73c0,9.42-7.67,17.09-17.09,17.09ZM130.1,538.69h9.09c5.01,0,9.09-4.08,9.09-9.09v-36.73h36.73c5.01,0,9.09-4.08,9.09-9.09v-9.09h-64v64Z"/>
      </g>
      <g>
        <path class="cls-3" d="M198.1,477.52v26.18c0,7.23-5.86,13.09-13.09,13.09h-32.73v32.73c0,7.23-5.86,13.09-13.09,13.09h-26.18c-7.23,0-13.09-5.86-13.09-13.09v-32.73h-32.73c-7.23,0-13.09-5.86-13.09-13.09v-26.18c0-7.23,5.86-13.09,13.09-13.09h32.73v-32.73c0-7.23,5.86-13.09,13.09-13.09h26.18c7.23,0,13.09,5.86,13.09,13.09v32.73h32.73c7.23,0,13.09,5.86,13.09,13.09Z"/>
        <path class="cls-22" d="M198.1,477.52v26.18c0,7.23-5.86,13.09-13.09,13.09h-32.73v32.73c0,7.23-5.86,13.09-13.09,13.09h-13.09v-144h13.09c7.23,0,13.09,5.86,13.09,13.09v32.73h32.73c7.23,0,13.09,5.86,13.09,13.09Z"/>
        <path class="cls-24" d="M198.1,457.6v26.18c0,7.23-5.86,13.09-13.09,13.09h-32.73v32.73c0,7.23-5.86,13.09-13.09,13.09h-26.18c-7.23,0-13.09-5.86-13.09-13.09v-32.73h-32.73c-7.23,0-13.09-5.86-13.09-13.09v-26.18c0-7.23,5.86-13.09,13.09-13.09h32.73v-32.73c0-7.23,5.86-13.09,13.09-13.09h26.18c7.23,0,13.09,5.86,13.09,13.09v32.73h32.73c7.23,0,13.09,5.86,13.09,13.09Z"/>
        <path class="cls-12" d="M126.1,398.69v72H54.1v-13.09c0-7.23,5.86-13.09,13.09-13.09h32.73v-32.73c0-7.23,5.86-13.09,13.09-13.09h13.09Z"/>
        <path class="cls-27" d="M198.1,470.69v13.09c0,7.23-5.86,13.09-13.09,13.09h-32.73v32.73c0,7.23-5.86,13.09-13.09,13.09h-13.09v-72h72Z"/>
      </g>
    </g>
    <g>
      <path class="cls-6" d="M387.64,365.06h-51.77c-3.73,0-6.75,3.02-6.75,6.75v28.53c0,1.47.47,2.83,1.27,3.93,1.22,1.7,3.22,2.82,5.48,2.82h51.77c2.26,0,4.26-1.11,5.48-2.82.18-.24.35-.51.48-.78.5-.94.78-2.01.78-3.15v-28.53c0-3.73-3.02-6.75-6.75-6.75ZM380.9,393.6h-38.27v-15.04h38.27v15.04Z"/>
      <path class="cls-21" d="M387.64,369.24h-51.77c-3.73,0-6.75,3.02-6.75,6.75v24.36c0,1.47.47,2.83,1.27,3.93,1.22,1.7,3.22,2.82,5.48,2.82h51.77c2.26,0,4.26-1.11,5.48-2.82.18-.24.35-.51.48-.78.5-.94.78-2.01.78-3.15v-24.36c0-3.73-3.02-6.75-6.75-6.75ZM342.62,378.56h38.27v15.04h-38.27v-15.04Z"/>
      <polygon class="cls-2" points="393.61 383.01 393.61 404.27 329.13 404.27 329.13 383.01 342.62 383.01 342.62 393.6 380.9 393.6 380.9 383.01 393.61 383.01"/>
      <path class="cls-1" d="M387.64,409.09h-51.77c-4.82,0-8.75-3.92-8.75-8.75v-28.53c0-4.82,3.92-8.75,8.75-8.75h51.77c4.82,0,8.75,3.92,8.75,8.75v28.53c0,4.82-3.92,8.75-8.75,8.75ZM335.88,367.06c-2.62,0-4.75,2.13-4.75,4.75v28.53c0,2.62,2.13,4.75,4.75,4.75h51.77c2.62,0,4.75-2.13,4.75-4.75v-28.53c0-2.62-2.13-4.75-4.75-4.75h-51.77ZM382.9,395.6h-42.27v-19.04h42.27v19.04ZM344.62,391.6h34.27v-11.04h-34.27v11.04Z"/>
      <rect class="cls-2" x="273.35" y="389.79" width="176.83" height="133.15" rx="20.88" ry="20.88"/>
      <rect class="cls-6" x="273.35" y="389.79" width="176.83" height="113.86" rx="20.88" ry="20.88"/>
      <rect class="cls-21" x="273.35" y="396.68" width="176.83" height="106.97" rx="20.88" ry="20.88"/>
      <path class="cls-2" d="M274.22,441.16c0,.53,76.53,21.56,76.53,21.56v-7.41l-76.53-16.45v2.3Z"/>
      <path class="cls-2" d="M449.02,441.16c0,.53-79.53,21.56-79.53,21.56v-7.41l79.53-16.45v2.3Z"/>
      <path class="cls-1" d="M429.29,524.94h-135.06c-12.62,0-22.88-10.27-22.88-22.88v-91.38c0-12.62,10.27-22.88,22.88-22.88h135.06c12.62,0,22.88,10.27,22.88,22.88v91.38c0,12.62-10.27,22.88-22.88,22.88ZM294.23,391.79c-10.41,0-18.88,8.47-18.88,18.88v91.38c0,10.41,8.47,18.88,18.88,18.88h135.06c10.41,0,18.88-8.47,18.88-18.88v-91.38c0-10.41-8.47-18.88-18.88-18.88h-135.06Z"/>
      <path class="cls-29" d="M361.76,456.84h-5.43c-.07,0-.14,0-.2-.02l-77.92-16.02c-.54-.11-.89-.64-.78-1.18.11-.54.64-.89,1.18-.78l77.82,16h5.33c.55,0,1,.45,1,1s-.45,1-1,1Z"/>
      <path class="cls-29" d="M367.24,456.84h-5.48c-.55,0-1-.45-1-1s.45-1,1-1h5.38l77.77-16c.54-.11,1.07.24,1.18.78s-.24,1.07-.78,1.18l-77.87,16.02c-.07.01-.13.02-.2.02Z"/>
      <rect class="cls-5" x="351.93" y="443.71" width="19.66" height="25.9" rx="5.29" ry="5.29"/>
      <rect class="cls-26" x="351.93" y="448.77" width="19.66" height="20.84" rx="5.29" ry="5.29"/>
      <rect class="cls-6" x="351.93" y="448.77" width="19.66" height="16" rx="5.29" ry="5.29"/>
      <path class="cls-1" d="M366.3,471.61h-9.08c-4.02,0-7.29-3.27-7.29-7.29v-15.32c0-4.02,3.27-7.29,7.29-7.29h9.08c4.02,0,7.29,3.27,7.29,7.29v15.32c0,4.02-3.27,7.29-7.29,7.29ZM357.22,445.71c-1.81,0-3.29,1.48-3.29,3.29v15.32c0,1.81,1.48,3.29,3.29,3.29h9.08c1.81,0,3.29-1.48,3.29-3.29v-15.32c0-1.81-1.48-3.29-3.29-3.29h-9.08Z"/>
      <path class="cls-29" d="M367.55,456.32h-11.58c-.55,0-1-.45-1-1s.45-1,1-1h11.58c.55,0,1,.45,1,1s-.45,1-1,1Z"/>
      <g>
        <path class="cls-2" d="M280.42,434.77c-.06,0-.13,0-.19-.02-1.76-.34-2.81-.55-2.94-.57-.54-.11-.89-.63-.79-1.17.11-.54.64-.9,1.17-.79.13.03,1.18.23,2.94.57.54.11.9.63.79,1.17-.09.48-.51.81-.98.81Z"/>
        <path class="cls-2" d="M338.57,446.03c-.06,0-.13,0-.19-.02l-5.82-1.13c-.54-.1-.9-.63-.79-1.17s.63-.9,1.17-.79l5.82,1.13c.54.1.9.63.79,1.17-.09.48-.51.81-.98.81ZM326.94,443.78c-.06,0-.13,0-.19-.02l-5.81-1.13c-.54-.1-.9-.63-.79-1.17s.63-.9,1.17-.79l5.82,1.13c.54.11.9.63.79,1.17-.09.48-.51.81-.98.81ZM315.31,441.53c-.06,0-.13,0-.19-.02l-5.82-1.13c-.54-.1-.9-.63-.79-1.17.11-.54.63-.9,1.17-.79l5.82,1.13c.54.1.9.63.79,1.17-.09.48-.51.81-.98.81ZM303.68,439.28c-.06,0-.13,0-.19-.02l-5.81-1.13c-.54-.1-.9-.63-.79-1.17.1-.54.63-.9,1.17-.79l5.82,1.13c.54.11.9.63.79,1.17-.09.48-.51.81-.98.81ZM292.05,437.02c-.06,0-.13,0-.19-.02l-5.82-1.13c-.54-.11-.9-.63-.79-1.17.11-.54.63-.9,1.17-.79l5.82,1.13c.54.1.9.63.79,1.17-.09.48-.51.81-.98.81Z"/>
        <path class="cls-2" d="M347.28,447.72c-.06,0-.13,0-.19-.02l-2.94-.57c-.54-.1-.9-.63-.79-1.17.11-.54.63-.9,1.17-.79l2.94.57c.54.1.9.63.79,1.17-.09.48-.51.81-.98.81Z"/>
      </g>
      <path class="cls-2" d="M375.97,447.72c-.47,0-.89-.33-.98-.81-.11-.54.24-1.07.79-1.18l5.89-1.17c.54-.11,1.07.24,1.18.79.11.54-.24,1.07-.79,1.18l-5.89,1.17c-.07.01-.13.02-.2.02ZM387.74,445.38c-.47,0-.89-.33-.98-.81-.11-.54.24-1.07.79-1.18l5.89-1.17c.54-.11,1.07.24,1.18.79.11.54-.24,1.07-.79,1.18l-5.89,1.17c-.07.01-.13.02-.2.02ZM399.51,443.04c-.47,0-.89-.33-.98-.81-.11-.54.24-1.07.79-1.18l5.89-1.17c.54-.11,1.07.24,1.18.79.11.54-.24,1.07-.79,1.18l-5.89,1.17c-.07.01-.13.02-.2.02ZM411.29,440.71c-.47,0-.89-.33-.98-.81-.11-.54.24-1.07.79-1.18l5.89-1.17c.54-.11,1.07.24,1.18.79.11.54-.24,1.07-.79,1.18l-5.89,1.17c-.07.01-.13.02-.2.02ZM423.06,438.37c-.47,0-.89-.33-.98-.81-.11-.54.24-1.07.79-1.18l5.89-1.17c.54-.11,1.07.24,1.18.79.11.54-.24,1.07-.79,1.18l-5.89,1.17c-.07.01-.13.02-.2.02ZM434.83,436.04c-.47,0-.89-.33-.98-.81-.11-.54.24-1.07.79-1.18l5.89-1.17c.54-.11,1.07.24,1.18.79.11.54-.24,1.07-.79,1.18l-5.89,1.17c-.07.01-.13.02-.2.02Z"/>
      <path class="cls-2" d="M433.17,496.21h-2.88c-.55,0-1-.45-1-1s.45-1,1-1h2.88c.92,0,1.82-.18,2.66-.52.51-.21,1.1.03,1.31.54.21.51-.03,1.09-.54,1.31-1.09.45-2.24.67-3.42.67ZM424.29,496.21h-6c-.55,0-1-.45-1-1s.45-1,1-1h6c.55,0,1,.45,1,1s-.45,1-1,1ZM412.29,496.21h-6c-.55,0-1-.45-1-1s.45-1,1-1h6c.55,0,1,.45,1,1s-.45,1-1,1ZM400.29,496.21h-6c-.55,0-1-.45-1-1s.45-1,1-1h6c.55,0,1,.45,1,1s-.45,1-1,1ZM388.29,496.21h-6c-.55,0-1-.45-1-1s.45-1,1-1h6c.55,0,1,.45,1,1s-.45,1-1,1ZM376.29,496.21h-6c-.55,0-1-.45-1-1s.45-1,1-1h6c.55,0,1,.45,1,1s-.45,1-1,1ZM364.29,496.21h-6c-.55,0-1-.45-1-1s.45-1,1-1h6c.55,0,1,.45,1,1s-.45,1-1,1ZM352.29,496.21h-6c-.55,0-1-.45-1-1s.45-1,1-1h6c.55,0,1,.45,1,1s-.45,1-1,1ZM340.29,496.21h-6c-.55,0-1-.45-1-1s.45-1,1-1h6c.55,0,1,.45,1,1s-.45,1-1,1ZM328.29,496.21h-6c-.55,0-1-.45-1-1s.45-1,1-1h6c.55,0,1,.45,1,1s-.45,1-1,1ZM316.29,496.21h-6c-.55,0-1-.45-1-1s.45-1,1-1h6c.55,0,1,.45,1,1s-.45,1-1,1ZM304.29,496.21h-6c-.55,0-1-.45-1-1s.45-1,1-1h6c.55,0,1,.45,1,1s-.45,1-1,1ZM292.29,496.21h-2.06c-1.49,0-2.96-.37-4.26-1.07-.49-.26-.67-.87-.41-1.35.26-.49.87-.67,1.35-.41,1.01.54,2.15.83,3.31.83h2.06c.55,0,1,.45,1,1s-.45,1-1,1ZM440.44,491.55c-.14,0-.28-.03-.42-.09-.5-.23-.72-.82-.49-1.33.42-.92.63-1.89.63-2.91v-2.57c0-.55.45-1,1-1s1,.45,1,1v2.57c0,1.31-.27,2.57-.81,3.74-.17.37-.53.58-.91.58ZM282.67,490.79c-.42,0-.81-.26-.95-.68-.31-.93-.47-1.9-.47-2.88v-3.39c0-.55.45-1,1-1s1,.45,1,1v3.39c0,.77.12,1.52.37,2.24.18.52-.1,1.09-.63,1.27-.11.04-.21.05-.32.05ZM441.16,479.66c-.55,0-1-.45-1-1v-6c0-.55.45-1,1-1s1,.45,1,1v6c0,.55-.45,1-1,1ZM282.25,478.83c-.55,0-1-.45-1-1v-6c0-.55.45-1,1-1s1,.45,1,1v6c0,.55-.45,1-1,1ZM441.16,467.66c-.55,0-1-.45-1-1v-6c0-.55.45-1,1-1s1,.45,1,1v6c0,.55-.45,1-1,1ZM282.25,466.83c-.55,0-1-.45-1-1v-6c0-.55.45-1,1-1s1,.45,1,1v6c0,.55-.45,1-1,1ZM441.16,455.66c-.55,0-1-.45-1-1v-6c0-.55.45-1,1-1s1,.45,1,1v6c0,.55-.45,1-1,1ZM282.25,454.83c-.55,0-1-.45-1-1v-6c0-.55.45-1,1-1s1,.45,1,1v6c0,.55-.45,1-1,1Z"/>
    </g>
    <g>
      <g>
        <g>
          <path class="cls-14" d="M207.19,339.57c-.25,0-.51-.02-.77-.07-28.03-5.48-45.25-18.62-49.38-28.5-1.48-3.54-1.36-6.9.33-9.44.38-.57.85-1.14,1.39-1.72,8.7-9,46.46-24.3,88.25-28.82,1.25-.14,2.49.33,3.35,1.24.86.92,1.24,2.19,1.02,3.43l-3.57,20.3c-.13.75-.47,1.44-.98,2l-36.68,40.29c-.77.84-1.84,1.31-2.96,1.31ZM242.57,279.6c-36.84,4.87-70.9,18.39-78.03,25.76-.27.29-.44.5-.52.63-.05.11-.12.93.68,2.53,3.2,6.35,16.72,17.44,41.06,22.67l34.37-37.75,2.44-13.85Z"/>
          <path class="cls-14" d="M207.19,339.57c-.25,0-.51-.02-.77-.07-28.03-5.48-45.25-18.62-49.38-28.5-1.48-3.54-1.36-6.9.33-9.44.38-.57.85-1.14,1.39-1.72.67-.71,1.58-1.15,2.55-1.24l82.21-7.3c1.64-.15,3.2.73,3.94,2.21.73,1.48.48,3.25-.63,4.47l-36.68,40.29c-.77.84-1.84,1.31-2.96,1.31ZM164,306.39c.03.4.19,1.11.7,2.13,3.2,6.35,16.72,17.44,41.06,22.67l28.25-31.02-70.01,6.21Z"/>
          <path class="cls-14" d="M192.78,407.37s-.07,0-.11,0c-.73-.02-1.37-.13-1.98-.34-1.52-.49-3.58-1.73-4.89-4.89-3.82-9.19.15-34.53,17.86-68.45.16-.3.36-.59.59-.84l36.66-40.27c.98-1.07,2.46-1.53,3.87-1.2,1.15.27,2.11,1.03,2.64,2.06l23.36,41.59c.81,1.43.65,3.21-.39,4.49-29.43,36.05-67.79,67.84-77.62,67.84ZM210.52,337.86c-17.9,34.44-19.62,57.35-17.29,61.4,7.16-2.07,39.99-27.43,69.24-62.69l-19.38-34.5-32.58,35.79Z"/>
          <path class="cls-14" d="M192.78,407.37s-.07,0-.11,0c-.75-.02-1.41-.14-2.03-.35-1.08-.37-1.95-1.19-2.39-2.24-.44-1.05-.41-2.25.09-3.28l51.94-107.94c.65-1.34,1.99-2.22,3.48-2.26,1.49-.04,2.88.74,3.61,2.04l23.43,41.71c.81,1.43.65,3.21-.39,4.49-29.43,36.05-67.79,67.84-77.62,67.84ZM244.15,303.95l-44.06,91.58c12.91-8.54,38.81-30.53,62.39-58.96l-18.33-32.62Z"/>
          <path class="cls-14" d="M243.71,299.42c-.49,0-.99-.09-1.46-.28-1.14-.45-2.01-1.39-2.37-2.56l-.08-.28c-.19-.62-.22-1.27-.1-1.91l3.8-20.04c.11-.69.4-1.36.85-1.92,29.43-36.04,67.8-67.84,77.62-67.84.04,0,.07,0,.1,0,.47.02.91.07,1.32.16.47.09.84.22,1.08.31,1.66.68,2.99,1.9,3.92,3.58,5.69,10.25-1.59,39.52-17.31,69.62-.5.96-1.37,1.68-2.41,1.98l-62.94,18.62c-.62.36-1.32.55-2.02.55ZM251.19,276.72l-2.45,12.92,56.03-16.57c16.85-32.79,19.23-55.21,16.72-60.35-7.31,2.16-40.81,28.1-70.3,63.99ZM307.53,276.42h0,0ZM321.96,212.63s0,0,0,0c0,0,0,0,0,0Z"/>
          <path class="cls-14" d="M243.71,299.42c-.49,0-.99-.09-1.46-.28-1.14-.45-2.01-1.39-2.37-2.56l-.08-.28c-.41-1.35-.08-2.82.87-3.86l78.96-86.46c.91-.99,2.25-1.46,3.58-1.25.55.09.98.24,1.26.34,1.5.61,3.47,1.98,4.67,5.24,3.47,9.45-.7,34.74-18.06,67.96-.5.96-1.37,1.68-2.41,1.98l-62.94,18.62c-.62.36-1.32.55-2.02.55ZM322.17,215.07l-66.13,72.41,48.72-14.41c15.22-29.61,18.4-50.54,17.41-58ZM307.53,276.42h0,0Z"/>
          <path class="cls-14" d="M267.3,340.99c-1.43,0-2.76-.76-3.48-2.02l-23.69-41.71c-1.09-1.91-.42-4.34,1.48-5.44.27-.16.58-.29.88-.38l63.92-18.85c.62-.18,1.27-.21,1.9-.09,28.04,5.48,45.25,18.62,49.39,28.5,1.48,3.54,1.36,6.89-.33,9.43,0,0,0,.01-.01.02-.33.5-.7.95-1.11,1.4-9.04,10-49.7,24.92-88.52,29.12-.14.02-.29.02-.43.02ZM249.58,297.68l19.9,35.03c39.81-4.77,74.81-19.56,80.88-26.27.16-.17.26-.3.36-.44.06-.15.12-.98-.7-2.59-3.29-6.45-17.23-17.78-42.28-22.89l-58.16,17.15ZM354.04,308.21h0,0Z"/>
          <path class="cls-14" d="M267.3,340.99c-1.43,0-2.76-.76-3.48-2.03l-23.68-41.72c-.75-1.32-.69-2.94.16-4.2s2.33-1.93,3.82-1.74l109.69,13.86c1.48.19,2.73,1.18,3.25,2.58s.22,2.97-.78,4.07c-9.07,10.04-49.73,24.96-88.55,29.16-.14.02-.29.02-.43.02ZM251.04,300.24l18.43,32.48c31.14-3.73,59.33-13.59,73.04-20.92l-91.47-11.56Z"/>
          <path class="cls-14" d="M243.62,299.27c-.6,0-1.2-.13-1.76-.41-1.6-.78-2.48-2.53-2.18-4.28l.92-5.26c.14-.78.5-1.51,1.06-2.08l76.98-80.17c1.52-1.58,4.02-1.65,5.62-.15,1.6,1.5,1.7,4,.22,5.62l-77.9,85.42c-.78.85-1.86,1.3-2.96,1.3Z"/>
          <path class="cls-14" d="M197.1,396.5c-.56,0-1.13-.12-1.68-.37-1.98-.92-2.87-3.26-1.98-5.26l39.93-89.85c.18-.41.43-.78.73-1.1l6.6-7.08c1.35-1.45,3.55-1.69,5.18-.58,1.63,1.11,2.21,3.25,1.35,5.03l-46.53,96.93c-.69,1.43-2.12,2.27-3.61,2.27Z"/>
          <path class="cls-14" d="M166.98,306.11c-2,0-3.72-1.49-3.97-3.51-.26-2.14,1.22-4.11,3.35-4.44l77.56-12.1c1.28-.2,2.57.23,3.47,1.15.9.92,1.31,2.22,1.09,3.49l-.92,5.26c-.31,1.78-1.78,3.14-3.58,3.3l-76.64,6.84c-.12.01-.24.02-.36.02Z"/>
          <path class="cls-14" d="M346.93,311.91c-.16,0-.33,0-.49-.03l-103.3-12.65c-1.88-.23-3.34-1.75-3.5-3.64-.16-1.89,1.04-3.63,2.85-4.17l12.18-3.59c.6-.18,1.22-.21,1.83-.1l91.12,16.24c2.13.38,3.58,2.39,3.25,4.53-.3,1.98-2,3.41-3.95,3.41Z"/>
        </g>
        <g>
          <path class="cls-14" d="M234.29,311.83c-.14,0-.27,0-.41,0-4.68-.11-8.24-2.06-10.03-5.5-2.1-4.02-1.26-9.4,2.29-14.75,5.79-8.72,17.29-15.37,26.14-15.18,4.68.11,8.24,2.06,10.03,5.5,2.1,4.02,1.26,9.4-2.29,14.75-5.7,8.59-16.92,15.18-25.73,15.18ZM251.85,284.39c-6.17,0-14.82,5.26-19.04,11.61-2.06,3.1-2.42,5.56-1.86,6.63.53,1.02,2.37,1.18,3.13,1.19.08,0,.17,0,.25,0,6.17,0,14.82-5.26,19.04-11.61,2.06-3.1,2.42-5.56,1.86-6.63-.53-1.02-2.37-1.18-3.13-1.19-.08,0-.17,0-.25,0Z"/>
          <path class="cls-14" d="M236.22,306.85c-.11,0-.21,0-.32,0-3.78-.09-6.8-1.77-8.28-4.6-1.72-3.31-1.09-7.65,1.74-11.91,4.43-6.67,13.25-11.79,20.1-11.61,3.78.09,6.8,1.77,8.28,4.6,1.72,3.31,1.09,7.65-1.74,11.91h0c-4.36,6.57-12.99,11.62-19.78,11.62ZM249.11,286.72c-4.14,0-10.21,3.72-13.08,8.04-1.55,2.33-1.4,3.63-1.31,3.79.05.05.45.28,1.38.3,4.13.12,10.33-3.66,13.24-8.04h0c1.55-2.33,1.4-3.63,1.31-3.79-.05-.05-.45-.28-1.38-.3-.05,0-.11,0-.16,0ZM252.67,293.02h0,0Z"/>
          <path class="cls-14" d="M238.97,296.66c-.06,0-.12,0-.18,0-2.38-.06-4.32-1.19-5.32-3.1-1.09-2.09-.8-4.68.8-7.1,2.21-3.32,6.37-5.68,9.88-5.59,2.38.06,4.32,1.19,5.32,3.1,1.09,2.09.8,4.68-.8,7.1,0,0,0,0,0,0-2.17,3.26-6.22,5.59-9.69,5.59ZM245.32,288.86h0,0Z"/>
          <path class="cls-14" d="M228.63,308.93c-1.21,0-2.39-.55-3.17-1.56-3.04-3.95-2.55-9.79,1.33-15.64,5.57-8.38,16.63-14.76,25.14-14.59,5.36.13,9.28,2.83,10.48,7.24.5,1.85-.37,3.79-2.09,4.63-1.71.85-3.79.36-4.95-1.16-.39-.51-1.4-.83-2.71-.87-5.89-.14-14.23,4.9-18.28,11.01-1.82,2.75-2.17,4.83-1.89,5.85.51,1.84-.36,3.79-2.07,4.64-.57.28-1.18.42-1.79.42Z"/>
          <path class="cls-14" d="M234.29,311.83c-.14,0-.27,0-.41,0-4.68-.11-8.24-2.06-10.03-5.5-2.1-4.02-1.26-9.4,2.29-14.75,5.79-8.72,17.29-15.37,26.14-15.18,4.68.11,8.24,2.06,10.03,5.5,2.1,4.02,1.26,9.4-2.29,14.75-5.7,8.59-16.92,15.18-25.73,15.18ZM251.85,284.39c-6.17,0-14.82,5.26-19.04,11.61-2.06,3.1-2.42,5.56-1.86,6.63.53,1.02,2.37,1.18,3.13,1.19.08,0,.17,0,.25,0,6.17,0,14.82-5.26,19.04-11.61,2.06-3.1,2.42-5.56,1.86-6.63-.53-1.02-2.37-1.18-3.13-1.19-.08,0-.17,0-.25,0Z"/>
        </g>
      </g>
      <g>
        <g>
          <path class="cls-13" d="M207.19,335.57c-34.52-6.75-50.87-25.2-46.49-31.81.25-.38.58-.77.96-1.18,8.07-8.35,45.71-23.26,85.78-27.6l-3.57,20.3-36.68,40.29Z"/>
          <path class="cls-23" d="M207.19,335.57c-34.52-6.75-50.87-25.2-46.49-31.81.25-.38.58-.77.96-1.18l82.21-7.3-36.68,40.29Z"/>
          <path class="cls-27" d="M267.3,337c-31.49,38.57-68,66.54-74.53,66.37-.29,0-.57-.05-.83-.14-6.96-2.17-4.27-30.26,15.27-67.68l36.66-40.27h0s23.43,41.72,23.43,41.72Z"/>
          <path class="cls-3" d="M267.3,337c-31.49,38.57-68,66.54-74.53,66.37-.29,0-.57-.05-.83-.14l51.94-107.94,23.43,41.71Z"/>
          <path class="cls-19" d="M307.53,276.42l-63.39,18.75-.43.25-.08-.28,3.82-20.16h0c31.49-38.57,67.99-66.54,74.53-66.38.22,0,.42.03.61.08.16.03.3.07.45.13.73.3,1.36.9,1.86,1.79,3.99,7.18-.15,32.89-17.36,65.82Z"/>
          <path class="cls-10" d="M307.53,276.42l-63.39,18.75-.43.25-.08-.28,78.96-86.46c.16.03.3.07.45.13,6.68,2.7,3.84,30.6-15.5,67.61Z"/>
          <path class="cls-17" d="M354.04,308.21c-.2.3-.43.6-.72.91-7.51,8.3-45.53,23.49-86.02,27.86l-23.69-41.71h.02s63.92-18.86,63.92-18.86c34.52,6.75,50.87,25.2,46.49,31.8Z"/>
          <path class="cls-21" d="M353.32,309.13c-7.51,8.3-45.53,23.49-86.02,27.86l-23.68-41.72,109.69,13.86Z"/>
          <polygon class="cls-9" points="244.54 290.01 243.63 295.27 321.52 209.84 244.54 290.01"/>
          <polygon class="cls-12" points="237.04 302.64 243.64 295.56 197.11 392.49 237.04 302.64"/>
          <polygon class="cls-30" points="166.98 302.11 244.54 290.01 243.63 295.27 166.98 302.11"/>
          <polygon class="cls-6" points="243.63 295.27 255.8 291.68 346.92 307.91 243.63 295.27"/>
        </g>
        <g>
          <path class="cls-26" d="M256.69,294.43c-5.03,7.57-15.2,13.57-22.72,13.39-7.52-.18-9.53-6.46-4.5-14.04,5.03-7.57,15.2-13.57,22.72-13.39,7.52.18,9.53,6.46,4.5,14.04Z"/>
          <path class="cls-6" d="M252.67,293.02c-3.69,5.56-11.15,9.96-16.67,9.83s-6.99-4.74-3.3-10.3c3.69-5.56,11.15-9.96,16.67-9.83s6.99,4.74,3.3,10.3Z"/>
          <path class="cls-5" d="M245.32,288.86c-1.43,2.15-4.31,3.85-6.45,3.8-2.13-.05-2.71-1.83-1.28-3.98,1.43-2.15,4.31-3.85,6.45-3.8,2.13.05,2.71,1.83,1.28,3.98Z"/>
          <path class="cls-5" d="M258.54,285.43c-1.13-1.48-3.09-2.37-5.8-2.44-7.18-.17-16.9,5.56-21.71,12.8-2.33,3.51-3.07,6.72-2.41,9.13-1.88-2.44-1.5-6.47,1.49-10.98,4.81-7.24,14.53-12.97,21.71-12.8,3.7.09,6.02,1.72,6.71,4.29Z"/>
          <path class="cls-20" d="M234.31,309.83c-.13,0-.25,0-.38,0-3.92-.09-6.87-1.66-8.31-4.42-1.75-3.36-.95-7.99,2.19-12.72,5.45-8.21,16.15-14.5,24.43-14.29,3.92.09,6.87,1.66,8.31,4.42,1.75,3.36.95,8-2.19,12.72-5.37,8.08-15.85,14.29-24.05,14.29ZM251.86,282.39c-6.76,0-16.18,5.66-20.72,12.5-2.28,3.43-3.01,6.67-1.97,8.66.94,1.8,3.16,2.23,4.85,2.27,6.77.19,16.4-5.56,21-12.5,2.28-3.43,3.01-6.67,1.97-8.66-.94-1.8-3.16-2.23-4.85-2.27-.09,0-.19,0-.28,0Z"/>
        </g>
      </g>
    </g>
  </g>
  <g>
    <path class="cls-20" d="M127.62,635.35c-.47,0-.84-.14-1.11-.43-.27-.29-.41-.73-.41-1.32s.14-1.03.41-1.32c.27-.29.64-.43,1.11-.43h14.2c.47,0,.84.14,1.11.43.27.29.41.73.41,1.32s-.14,1.03-.41,1.32c-.27.29-.64.43-1.11.43h-4.92v16.22c0,.62-.18,1.09-.53,1.42-.36.33-.9.5-1.65.5s-1.29-.17-1.65-.5c-.36-.33-.53-.81-.53-1.42v-16.22h-4.92Z"/>
    <path class="cls-20" d="M145.45,632.1c0-.59.17-1.05.52-1.38.35-.33.88-.49,1.6-.49s1.25.16,1.6.49c.35.33.52.79.52,1.38v4.7c0,.41-.01.8-.03,1.18-.02.38-.06.79-.11,1.23h.05c.3-.38.67-.71,1.11-1,.19-.12.4-.25.63-.37.23-.12.49-.23.78-.33.29-.1.6-.18.93-.23.33-.06.7-.09,1.09-.09.92,0,1.74.14,2.48.42.74.28,1.37.7,1.89,1.25.52.55.92,1.23,1.2,2.04.28.81.41,1.74.41,2.79v7.92c0,.59-.17,1.05-.52,1.38-.35.33-.88.49-1.6.49s-1.25-.16-1.6-.49c-.35-.33-.52-.79-.52-1.38v-7.42c0-.63-.07-1.18-.2-1.64-.13-.46-.32-.83-.56-1.12-.25-.29-.54-.5-.9-.64-.35-.13-.76-.2-1.2-.2-.28,0-.54.03-.78.1-.24.07-.47.15-.68.26-.21.1-.41.23-.58.37s-.33.28-.46.41c-.33.34-.61.72-.83,1.14v8.75c0,.59-.17,1.05-.52,1.38-.35.33-.88.49-1.6.49s-1.25-.16-1.6-.49c-.35-.33-.52-.79-.52-1.38v-19.52Z"/>
    <path class="cls-20" d="M167.84,646.32v.03c.06.65.21,1.22.44,1.72.23.5.53.92.91,1.27.38.34.84.6,1.37.78.53.18,1.12.27,1.78.27.54,0,1.01-.04,1.4-.11.39-.07.73-.15,1.02-.24.29-.09.55-.17.77-.24.22-.07.43-.11.63-.11s.38.04.53.11c.16.07.29.17.4.29.11.12.19.26.25.41.06.16.09.32.09.5,0,.26-.04.49-.12.68-.08.19-.22.38-.41.57-.16.16-.39.32-.69.49-.3.17-.67.33-1.12.47-.44.14-.96.26-1.55.35-.59.09-1.24.14-1.96.14-1.24,0-2.35-.18-3.34-.54-.99-.36-1.83-.88-2.52-1.55s-1.21-1.48-1.58-2.44c-.37-.95-.55-2.02-.55-3.21,0-1.38.2-2.62.59-3.71.39-1.09.93-2.01,1.63-2.76.7-.75,1.53-1.32,2.51-1.72.97-.4,2.04-.59,3.21-.59,1,0,1.91.16,2.72.47s1.5.76,2.08,1.35c.57.59,1.02,1.3,1.33,2.15s.47,1.8.47,2.88c0,.78-.18,1.36-.54,1.73s-.87.56-1.54.56h-8.22ZM174.19,643.6c-.14-1.17-.45-2.03-.95-2.58-.5-.55-1.2-.83-2.1-.83-.38,0-.73.07-1.08.2-.34.13-.66.33-.95.61-.29.28-.53.63-.74,1.05-.21.43-.37.94-.48,1.55h6.3Z"/>
    <path class="cls-20" d="M190.31,633.84c0-.62.17-1.11.52-1.46.34-.35.83-.52,1.47-.52h4.64c1.44,0,2.67.14,3.69.41,1.02.27,1.86.65,2.51,1.12.65.48,1.12,1.05,1.42,1.7s.45,1.37.45,2.14c0,.58-.08,1.12-.24,1.62-.16.5-.39.95-.69,1.35-.3.4-.66.75-1.08,1.05s-.9.53-1.43.71v.05c.63.12,1.21.3,1.73.57.52.27.96.6,1.33,1.01.36.41.65.88.84,1.41.2.54.3,1.13.3,1.79,0,.95-.18,1.82-.54,2.62-.36.8-.91,1.5-1.66,2.09-.75.59-1.69,1.05-2.84,1.38-1.15.33-2.52.5-4.1.5h-4.33c-.64,0-1.12-.17-1.47-.52-.34-.35-.52-.84-.52-1.46v-17.56ZM196.69,640.71c.69,0,1.28-.07,1.78-.22.5-.15.9-.35,1.22-.6.32-.25.56-.56.71-.91.16-.35.24-.74.24-1.16s-.07-.79-.21-1.12c-.14-.33-.37-.62-.68-.86-.31-.24-.72-.42-1.21-.55-.5-.13-1.09-.2-1.79-.2h-2.16v5.62h2.12ZM196.84,650.15c.79,0,1.47-.08,2.04-.23.57-.16,1.03-.38,1.4-.66.36-.28.63-.61.8-1,.17-.38.26-.81.26-1.27s-.08-.88-.24-1.25c-.16-.38-.42-.7-.77-.96-.35-.27-.82-.47-1.39-.62-.57-.15-1.27-.22-2.09-.22h-2.27v6.2h2.27Z"/>
    <path class="cls-20" d="M218.39,643.23c0-.5-.06-.92-.17-1.28-.12-.35-.3-.64-.55-.86-.26-.22-.59-.39-1.02-.5-.42-.11-.94-.16-1.54-.16-.65,0-1.2.05-1.65.14s-.85.2-1.18.32c-.33.12-.62.23-.87.32-.25.09-.48.14-.7.14-.38,0-.69-.12-.93-.36-.25-.24-.37-.59-.37-1.05,0-.24.04-.45.11-.62.07-.18.2-.35.38-.53.17-.17.43-.34.8-.53.37-.19.82-.36,1.34-.52.53-.16,1.13-.29,1.8-.39.68-.1,1.41-.16,2.2-.16,2.18,0,3.81.47,4.91,1.41,1.09.94,1.64,2.32,1.64,4.12v5.11c0,.71.03,1.28.09,1.72.06.44.12.8.18,1.09.06.29.12.53.18.73.06.19.09.4.09.62s-.04.42-.12.61c-.08.19-.2.35-.36.49s-.35.25-.59.33-.5.12-.8.12c-.32,0-.61-.05-.87-.15-.26-.1-.48-.24-.67-.41-.19-.18-.35-.39-.48-.63-.13-.24-.24-.51-.32-.8h-.05c-.32.41-.71.77-1.17,1.08-.4.27-.89.52-1.49.73-.6.22-1.3.33-2.12.33-.87,0-1.64-.12-2.32-.37-.68-.25-1.26-.58-1.73-1.02-.47-.43-.84-.95-1.09-1.54s-.38-1.24-.38-1.94c0-.75.17-1.41.5-1.99.33-.57.8-1.05,1.41-1.43.6-.38,1.33-.67,2.19-.86.85-.19,1.81-.29,2.86-.29.44,0,.83.02,1.18.05.35.03.65.06.9.09.29.04.55.09.78.14v-1.29ZM218.39,647.26c-.21-.05-.44-.1-.69-.14-.22-.04-.47-.08-.77-.11-.29-.03-.62-.05-.98-.05-1.04,0-1.82.15-2.32.44-.51.29-.76.72-.76,1.28,0,.27.05.52.16.75.1.23.25.43.45.59.2.17.44.3.73.4.29.1.63.15,1.02.15.5,0,.95-.09,1.34-.27.39-.18.72-.37.99-.58.31-.25.59-.53.83-.84v-1.62Z"/>
    <path class="cls-20" d="M227.05,632.1c0-.59.17-1.05.52-1.38.35-.33.88-.49,1.6-.49s1.25.16,1.6.49c.35.33.52.79.52,1.38v16.08c0,.41.03.75.08,1.02.05.27.13.48.23.64.1.16.22.27.35.33.13.06.29.09.45.09.15,0,.28,0,.39-.02.11-.02.23-.02.34-.02.13,0,.27.03.39.08.12.05.23.13.33.23.09.1.17.23.23.38.06.15.09.33.09.52,0,.3-.04.56-.13.77-.09.21-.21.39-.37.55-.1.1-.23.2-.38.3-.15.09-.32.18-.52.26s-.45.14-.73.19-.6.07-.97.07c-1.32,0-2.33-.35-3.01-1.05-.68-.7-1.02-1.77-1.02-3.2v-17.2Z"/>
    <path class="cls-20" d="M245.56,643.23c0-.5-.06-.92-.17-1.28-.12-.35-.3-.64-.55-.86-.26-.22-.59-.39-1.02-.5-.42-.11-.94-.16-1.54-.16-.65,0-1.2.05-1.65.14s-.85.2-1.18.32c-.33.12-.62.23-.87.32-.25.09-.48.14-.7.14-.38,0-.69-.12-.93-.36-.25-.24-.37-.59-.37-1.05,0-.24.04-.45.11-.62.07-.18.2-.35.38-.53.17-.17.43-.34.8-.53.37-.19.82-.36,1.34-.52.53-.16,1.13-.29,1.8-.39.68-.1,1.41-.16,2.2-.16,2.18,0,3.81.47,4.91,1.41,1.09.94,1.64,2.32,1.64,4.12v5.11c0,.71.03,1.28.09,1.72.06.44.12.8.18,1.09.06.29.12.53.18.73.06.19.09.4.09.62s-.04.42-.12.61c-.08.19-.2.35-.36.49s-.35.25-.59.33-.5.12-.8.12c-.32,0-.61-.05-.87-.15-.26-.1-.48-.24-.67-.41-.19-.18-.35-.39-.48-.63-.13-.24-.24-.51-.32-.8h-.05c-.32.41-.71.77-1.17,1.08-.4.27-.89.52-1.49.73-.6.22-1.3.33-2.12.33-.87,0-1.64-.12-2.32-.37-.68-.25-1.26-.58-1.73-1.02-.47-.43-.84-.95-1.09-1.54s-.38-1.24-.38-1.94c0-.75.17-1.41.5-1.99.33-.57.8-1.05,1.41-1.43.6-.38,1.33-.67,2.19-.86.85-.19,1.81-.29,2.86-.29.44,0,.83.02,1.18.05.35.03.65.06.9.09.29.04.55.09.78.14v-1.29ZM245.56,647.26c-.21-.05-.44-.1-.69-.14-.22-.04-.47-.08-.77-.11-.29-.03-.62-.05-.98-.05-1.04,0-1.82.15-2.32.44-.51.29-.76.72-.76,1.28,0,.27.05.52.16.75.1.23.25.43.45.59.2.17.44.3.73.4.29.1.63.15,1.02.15.5,0,.95-.09,1.34-.27.39-.18.72-.37.99-.58.31-.25.59-.53.83-.84v-1.62Z"/>
    <path class="cls-20" d="M254.28,639.1c0-.57.15-1.01.45-1.31s.74-.45,1.31-.45c.28,0,.53.03.74.1.21.07.4.17.55.3.16.13.28.29.38.48s.16.4.19.62l.12.8h.06c.3-.46.68-.86,1.14-1.22.2-.16.42-.31.67-.45.25-.15.53-.28.84-.39.31-.11.65-.21,1.02-.27.37-.07.77-.1,1.21-.1.92,0,1.74.14,2.48.42.74.28,1.37.7,1.89,1.25.52.55.92,1.23,1.2,2.04.28.81.41,1.74.41,2.79v7.92c0,.59-.17,1.05-.52,1.38-.35.33-.88.49-1.6.49s-1.25-.16-1.6-.49c-.35-.33-.52-.79-.52-1.38v-7.42c0-.63-.07-1.18-.2-1.64-.13-.46-.32-.83-.56-1.12-.25-.29-.54-.5-.9-.64-.35-.13-.76-.2-1.2-.2-.28,0-.54.03-.78.1-.24.07-.47.15-.68.26-.21.1-.41.23-.58.37s-.33.28-.46.41c-.33.34-.61.72-.83,1.14v8.75c0,.59-.17,1.05-.52,1.38-.35.33-.88.49-1.6.49s-1.25-.16-1.6-.49c-.35-.33-.52-.79-.52-1.38v-12.52Z"/>
    <path class="cls-20" d="M272.44,646.04c0-1.36.2-2.59.6-3.69.4-1.09.97-2.02,1.7-2.79s1.61-1.35,2.63-1.76c1.02-.41,2.15-.61,3.39-.61.48,0,.91.03,1.3.1.38.07.73.15,1.02.25.3.1.55.21.75.34s.36.25.48.38c.19.18.33.37.41.59.09.21.13.48.13.79,0,.21-.03.4-.1.58-.07.18-.16.33-.27.46-.12.13-.26.23-.42.3-.17.07-.35.11-.55.11-.21,0-.4-.03-.57-.09s-.36-.13-.56-.21-.44-.15-.71-.22c-.27-.07-.6-.1-.98-.1-.54,0-1.05.11-1.53.33-.48.22-.9.54-1.25.97-.35.43-.63.96-.84,1.6s-.3,1.38-.3,2.23c0,.77.1,1.45.31,2.05.21.59.49,1.09.86,1.5.36.41.8.72,1.31.93.51.21,1.07.32,1.67.32.41,0,.75-.03,1.02-.09.28-.06.52-.13.72-.2.2-.07.38-.14.55-.2.16-.06.33-.09.49-.09.19,0,.36.04.52.11.16.07.29.17.39.3.1.12.18.27.24.43.06.16.09.33.09.51,0,.27-.05.51-.14.72-.09.21-.23.41-.41.59-.16.16-.36.31-.62.46-.26.15-.56.28-.92.4s-.77.21-1.24.28c-.47.07-.99.11-1.56.11-1.16,0-2.2-.18-3.14-.54s-1.74-.87-2.4-1.54c-.66-.67-1.17-1.47-1.53-2.41-.36-.94-.54-2-.54-3.16Z"/>
    <path class="cls-20" d="M291.23,646.32v.03c.06.65.21,1.22.44,1.72.23.5.53.92.91,1.27.38.34.84.6,1.37.78.53.18,1.12.27,1.78.27.54,0,1.01-.04,1.4-.11.39-.07.73-.15,1.02-.24.29-.09.55-.17.77-.24.22-.07.43-.11.63-.11s.38.04.53.11c.16.07.29.17.4.29.11.12.19.26.25.41.06.16.09.32.09.5,0,.26-.04.49-.12.68-.08.19-.22.38-.41.57-.16.16-.39.32-.69.49-.3.17-.67.33-1.12.47-.44.14-.96.26-1.55.35-.59.09-1.24.14-1.96.14-1.24,0-2.35-.18-3.34-.54-.99-.36-1.83-.88-2.52-1.55s-1.21-1.48-1.58-2.44c-.37-.95-.55-2.02-.55-3.21,0-1.38.2-2.62.59-3.71.39-1.09.93-2.01,1.63-2.76.7-.75,1.53-1.32,2.51-1.72.97-.4,2.04-.59,3.21-.59,1,0,1.91.16,2.72.47s1.5.76,2.08,1.35c.57.59,1.02,1.3,1.33,2.15s.47,1.8.47,2.88c0,.78-.18,1.36-.54,1.73s-.87.56-1.54.56h-8.22ZM297.58,643.6c-.14-1.17-.45-2.03-.95-2.58-.5-.55-1.2-.83-2.1-.83-.38,0-.73.07-1.08.2-.34.13-.66.33-.95.61-.29.28-.53.63-.74,1.05-.21.43-.37.94-.48,1.55h6.3Z"/>
    <path class="cls-20" d="M315.17,632.1c0-.59.17-1.05.52-1.38.35-.33.88-.49,1.6-.49s1.25.16,1.6.49c.35.33.52.79.52,1.38v19.67c0,.57-.15,1.01-.45,1.31-.3.3-.74.45-1.31.45-.28,0-.53-.03-.74-.1-.21-.07-.4-.17-.55-.3-.15-.13-.27-.29-.37-.48s-.16-.4-.2-.64l-.14-.78h-.05c-.31.46-.7.87-1.16,1.22-.4.3-.9.58-1.51.84s-1.34.38-2.2.38c-.98,0-1.87-.16-2.67-.49-.8-.33-1.49-.82-2.06-1.47-.57-.65-1.02-1.46-1.33-2.44-.31-.97-.47-2.11-.47-3.41s.2-2.59.59-3.66c.4-1.08.97-1.99,1.73-2.73.75-.74,1.68-1.31,2.79-1.7,1.1-.39,2.37-.59,3.8-.59.3,0,.58.01.83.04.25.03.46.05.64.09.21.04.4.08.58.12l.05-.02c-.03-.53-.05-1.09-.05-1.69v-3.62ZM315.17,640.95c-.18-.09-.39-.18-.62-.25-.21-.06-.46-.12-.77-.17-.3-.05-.65-.08-1.05-.08-.62,0-1.19.11-1.7.32-.51.21-.95.53-1.32.96-.37.43-.66.96-.86,1.59-.2.64-.3,1.38-.3,2.23s.08,1.6.23,2.2c.16.6.38,1.09.66,1.46.29.38.63.65,1.03.82.4.17.85.26,1.34.26.28,0,.54-.03.79-.09.24-.06.47-.15.68-.26.21-.11.4-.23.57-.37.17-.13.33-.28.48-.42.33-.33.61-.71.84-1.14v-7.06Z"/>
    <path class="cls-20" d="M343.83,649.88c.47,0,.84.14,1.12.43.28.29.41.73.41,1.32s-.14,1.03-.41,1.32c-.27.29-.65.43-1.12.43h-9.33c-.64,0-1.12-.17-1.47-.52-.34-.35-.52-.84-.52-1.46v-17.73c0-.61.18-1.09.53-1.42.35-.33.9-.5,1.64-.5s1.3.17,1.66.5c.35.33.53.81.53,1.42v16.22h6.95Z"/>
    <path class="cls-20" d="M347.55,632.8c0-.34.06-.66.19-.96s.3-.55.52-.77c.22-.22.49-.39.81-.52.32-.12.67-.19,1.05-.19.36,0,.7.06,1.01.19.31.12.57.29.8.51.22.21.4.46.52.75.12.29.19.6.19.93s-.06.66-.19.96-.3.55-.53.77c-.23.22-.5.39-.81.52s-.66.19-1.05.19-.7-.06-1.01-.19c-.31-.12-.57-.29-.8-.51-.22-.21-.4-.46-.52-.75-.12-.29-.19-.6-.19-.93ZM347.97,639.26c0-.59.17-1.05.52-1.38.35-.33.88-.49,1.6-.49s1.25.16,1.6.49c.35.33.52.79.52,1.38v12.36c0,.59-.17,1.05-.52,1.38-.35.33-.88.49-1.6.49s-1.25-.16-1.6-.49c-.35-.33-.52-.79-.52-1.38v-12.36Z"/>
    <path class="cls-20" d="M356.28,640.66c-.42,0-.75-.13-1.01-.41-.26-.27-.38-.67-.38-1.19s.13-.9.38-1.17c.25-.27.59-.41,1.01-.41h1.23v-1.34c0-.95.14-1.8.41-2.55.28-.75.67-1.4,1.19-1.92.52-.53,1.14-.93,1.88-1.2.73-.28,1.56-.41,2.48-.41.69,0,1.25.08,1.7.23.44.16.77.34.98.55.17.17.29.35.38.55.08.2.12.46.12.78,0,.23-.03.43-.09.61-.06.18-.15.33-.26.45s-.24.22-.38.28c-.15.06-.3.09-.47.09-.12,0-.25-.02-.36-.05-.12-.03-.24-.07-.37-.11-.13-.04-.28-.08-.44-.11-.16-.03-.36-.05-.59-.05-.65,0-1.13.21-1.45.64-.32.43-.48,1.12-.48,2.06v1.5h2.12c.42,0,.75.14,1.01.41.25.27.38.66.38,1.17s-.13.92-.38,1.19c-.26.27-.59.41-1.01.41h-2.12v10.95c0,.59-.17,1.05-.52,1.38-.35.33-.88.49-1.6.49s-1.25-.16-1.6-.49c-.35-.33-.52-.79-.52-1.38v-10.95h-1.23Z"/>
    <path class="cls-20" d="M370.77,646.32v.03c.06.65.21,1.22.44,1.72.23.5.53.92.91,1.27.38.34.84.6,1.37.78.53.18,1.12.27,1.78.27.54,0,1.01-.04,1.4-.11.39-.07.73-.15,1.02-.24.29-.09.55-.17.77-.24.22-.07.43-.11.63-.11s.38.04.53.11c.16.07.29.17.4.29.11.12.19.26.25.41.06.16.09.32.09.5,0,.26-.04.49-.12.68-.08.19-.22.38-.41.57-.16.16-.39.32-.69.49-.3.17-.67.33-1.12.47-.44.14-.96.26-1.55.35-.59.09-1.24.14-1.96.14-1.24,0-2.35-.18-3.34-.54-.99-.36-1.83-.88-2.52-1.55s-1.21-1.48-1.58-2.44c-.37-.95-.55-2.02-.55-3.21,0-1.38.2-2.62.59-3.71.39-1.09.93-2.01,1.63-2.76.7-.75,1.53-1.32,2.51-1.72.97-.4,2.04-.59,3.21-.59,1,0,1.91.16,2.72.47s1.5.76,2.08,1.35c.57.59,1.02,1.3,1.33,2.15s.47,1.8.47,2.88c0,.78-.18,1.36-.54,1.73s-.87.56-1.54.56h-8.22ZM377.11,643.6c-.14-1.17-.45-2.03-.95-2.58-.5-.55-1.2-.83-2.1-.83-.38,0-.73.07-1.08.2-.34.13-.66.33-.95.61-.29.28-.53.63-.74,1.05-.21.43-.37.94-.48,1.55h6.3Z"/>
  </g>
  <rect class="cls-25" x="388.15" y="588" width="42.56" height="112"/>
</svg>