<?xml version="1.0" encoding="UTF-8"?>
<svg id="Expanded" xmlns="http://www.w3.org/2000/svg" xmlns:xlink="http://www.w3.org/1999/xlink" viewBox="0 0 500 700">
  <defs>
    <style>
      .cls-1 {
        fill: #13437c;
      }

      .cls-2 {
        fill: #3288d6;
      }

      .cls-3 {
        fill: #4d4d4d;
      }

      .cls-4 {
        fill: #fff;
      }

      .cls-5 {
        fill: #dfedf2;
      }

      .cls-6 {
        fill: #fff8d9;
      }

      .cls-7 {
        fill: #f4b545;
      }

      .cls-8 {
        fill: none;
      }

      .cls-9 {
        clip-path: url(#clippath-1);
      }

      .cls-10 {
        fill: #e9f1f4;
      }

      .cls-11 {
        fill: #6d3108;
      }

      .cls-12 {
        fill: #ffe277;
      }

      .cls-13 {
        fill: #333;
      }

      .cls-14 {
        fill: #47acea;
      }

      .cls-15 {
        fill: #999;
      }

      .cls-16 {
        fill: gray;
      }

      .cls-17 {
        fill: #a8b6c1;
      }

      .cls-18 {
        clip-path: url(#clippath);
      }

      .cls-19 {
        fill: #1f5999;
      }
    </style>
    <clipPath id="clippath">
      <rect class="cls-8" x="664" y="68" width="572" height="468" rx="32" ry="32" transform="translate(1252 -648) rotate(90)"/>
    </clipPath>
    <clipPath id="clippath-1">
      <rect class="cls-8" x="-36" y="68" width="572" height="468" rx="32" ry="32" transform="translate(552 52) rotate(90)"/>
    </clipPath>
  </defs>
  <g>
    <g>
      <path class="cls-10" d="M48,699.5c-26.19,0-47.5-21.31-47.5-47.5V48C.5,21.81,21.81.5,48,.5h404c8.33,0,16.53,2.19,23.71,6.33,14.67,8.47,23.79,24.24,23.79,41.17v604c0,26.19-21.31,47.5-47.5,47.5H48Z"/>
      <path class="cls-13" d="M452,1c8.25,0,16.36,2.17,23.46,6.27,14.52,8.38,23.54,23.98,23.54,40.73v604c0,25.92-21.08,47-47,47H48c-25.92,0-47-21.08-47-47V48C1,22.08,22.08,1,48,1h404M452,0H48C21.49,0,0,21.49,0,48v604c0,26.51,21.49,48,48,48h404c26.51,0,48-21.49,48-48V48c0-17.79-9.67-33.31-24.04-41.6-7.05-4.07-15.23-6.4-23.96-6.4h0Z"/>
    </g>
    <path class="cls-4" d="M500,48v374.52L0,539.11V117.39L475.96,6.4c14.37,8.29,24.04,23.81,24.04,41.6Z"/>
    <path class="cls-4" d="M500,459.42v140.57l-428.9,100.01h-23.1c-26.51,0-48-21.49-48-48v-75.99l500-116.59Z"/>
    <path class="cls-13" d="M452,1c25.92,0,47,21.08,47,47v604c0,25.92-21.08,47-47,47H48c-25.92,0-47-21.08-47-47V48C1,22.08,22.08,1,48,1h404M452,0H48C21.49,0,0,21.49,0,48v604c0,26.51,21.49,48,48,48h404c26.51,0,48-21.49,48-48V48c0-26.51-21.49-48-48-48h0Z"/>
    <g>
      <rect class="cls-4" x="15" y="15" width="470" height="574" rx="33" ry="33"/>
      <path class="cls-13" d="M452,16c17.67,0,32,14.33,32,32v508c0,17.67-14.33,32-32,32H48c-17.67,0-32-14.33-32-32V48c0-17.67,14.33-32,32-32h404M452,14H48c-18.75,0-34,15.25-34,34v508c0,18.75,15.25,34,34,34h404c18.75,0,34-15.25,34-34V48c0-18.75-15.25-34-34-34h0Z"/>
    </g>
  </g>
  <g class="cls-18">
    <g>
      <g id="_x3C_Radial_Repeat_x3E_">
        <rect class="cls-4" x="392.27" y="395.29" width="526.72" height="1" transform="translate(-89.09 574.39) rotate(-44.6)"/>
      </g>
      <g id="_x3C_Radial_Repeat_x3E_-2" data-name="_x3C_Radial_Repeat_x3E_">
        <rect class="cls-4" x="362.39" y="359.83" width="526.72" height="1" transform="translate(-92.76 432.09) rotate(-35.64)"/>
      </g>
      <g id="_x3C_Radial_Repeat_x3E_-3" data-name="_x3C_Radial_Repeat_x3E_">
        <rect class="cls-4" x="338.43" y="320.14" width="526.72" height="1" transform="translate(-79.88 303.87) rotate(-26.64)"/>
      </g>
      <g id="_x3C_Radial_Repeat_x3E_-4" data-name="_x3C_Radial_Repeat_x3E_">
        <rect class="cls-4" x="320.97" y="277.18" width="526.72" height="1" transform="translate(-56.64 189.92) rotate(-17.62)"/>
      </g>
      <g id="_x3C_Radial_Repeat_x3E_-5" data-name="_x3C_Radial_Repeat_x3E_">
        <rect class="cls-4" x="310.45" y="232.03" width="526.72" height="1" transform="translate(-28.45 88.97) rotate(-8.65)"/>
      </g>
      <g id="_x3C_Radial_Repeat_x3E_-6" data-name="_x3C_Radial_Repeat_x3E_">
        <rect class="cls-4" x="569.98" y="-77.08" width="1" height="526.72" transform="translate(380.48 755.53) rotate(-89.63)"/>
      </g>
      <g id="_x3C_Radial_Repeat_x3E_-7" data-name="_x3C_Radial_Repeat_x3E_">
        <rect class="cls-4" x="573.93" y="-123.28" width="1" height="526.72" transform="translate(342.65 684.02) rotate(-80.63)"/>
      </g>
      <g id="_x3C_Radial_Repeat_x3E_-8" data-name="_x3C_Radial_Repeat_x3E_">
        <rect class="cls-4" x="585.05" y="-168.29" width="1" height="526.72" transform="translate(310.75 620.8) rotate(-71.63)"/>
      </g>
      <g id="_x3C_Radial_Repeat_x3E_-9" data-name="_x3C_Radial_Repeat_x3E_">
        <rect class="cls-4" x="603.08" y="-211.01" width="1" height="526.72" transform="translate(279.57 564.27) rotate(-62.63)"/>
      </g>
      <g id="_x3C_Radial_Repeat_x3E_-10" data-name="_x3C_Radial_Repeat_x3E_">
        <rect class="cls-4" x="627.57" y="-250.38" width="1" height="526.72" transform="translate(245.14 510.98) rotate(-53.63)"/>
      </g>
      <g id="_x3C_Radial_Repeat_x3E_-11" data-name="_x3C_Radial_Repeat_x3E_">
        <rect class="cls-4" x="657.92" y="-285.43" width="1" height="526.72" transform="translate(205.32 456.16) rotate(-44.63)"/>
      </g>
    </g>
  </g>
  <g class="cls-9">
    <rect class="cls-3" x="-60.7" y="37.79" width="621.4" height="508.42" rx="32" ry="32" transform="translate(542 42) rotate(90)"/>
    <g>
      <path class="cls-4" d="M499.38,334.15l-8.33,11.83h-150.7c3.94-8.62,10.45-15.14,19.48-18.01,9.04-2.87,19.27-1.74,27.46,3.03-3.22-6.56-.07-14.97,5.79-19.33,7.18-5.35,17.19-3.72,25.95-1.85-3.62-7.52-3.36-16.62.01-24.24,3.38-7.63,9.68-13.78,17.06-17.66,7.61-4,16.42-5.69,24.97-4.78,2.58.27,5.13.79,7.6,1.54,12.34,3.65,23.05,12.73,28.94,24.25,7.08,13.83,7.39,30.73,1.77,45.22Z"/>
      <path class="cls-5" d="M499.38,334.15l-8.33,11.83h-76.81c2.59-.96,5.21-1.7,6.3-2.43,6.46-4.29,11.01-11.35,12.24-19.01,7.21.74,14.65.61,21.49-1.78,6.84-2.39,13.05-7.29,15.79-13.99,2.74-6.71,1.38-15.23-4.14-19.92,5.66-.5,9.75-6.53,9.39-12.2-.31-4.69-3.02-8.9-6.64-11.97,12.34,3.65,23.05,12.73,28.94,24.25,7.08,13.83,7.39,30.73,1.77,45.22Z"/>
      <path class="cls-4" d="M285.26,325.63H1.26l6.93-36.63c8.99,2.23,17.97,4.46,26.95,6.68-4.8-8.44-8.28-18.01-7.53-27.7.75-9.68,6.48-19.38,15.59-22.75s21.03,1.57,23.34,11c-6.92-24.77,4.03-53.59,25.94-67.06,21.91-13.46,52.96-9.99,70.97,8.36,8.4,8.56,13.48,19.98,14.98,31.85,1.37,10.75-.2,21.87-4.88,31.56,7.38-9.35,19.74-14.79,31.77-14.16,14.92.78,28.74,10.04,36.64,22.71,7.9,12.68,10.21,28.37,8.09,43.16,13.03-1.81,25.89,3.7,35.21,12.98Z"/>
      <path class="cls-4" d="M498.02,188.59l-5.24,29.66h-84.17c1.57-6.01,6.45-12,12.27-14.18,5.82-2.17,12.68-1.34,17.81,2.17-2.31-8.75,1.91-18.46,9.15-23.89,5.23-3.93,11.75-5.78,18.34-5.89,2.52-.05,5.05.16,7.52.61,8.9,1.63,17.08,6.09,24.32,11.52Z"/>
      <path class="cls-5" d="M285.26,325.63H66.19c2.59-1.21,5.04-2.72,7.29-4.5,9.41-7.47,14.9-19.61,14.32-31.6,11.59,2.86,24.18,4.87,35.17.23,11-4.64,18.9-18.34,13.35-28.91,17.24.57,34.25-10.62,40.57-26.67.62-1.57,1.13-3.17,1.54-4.8,1.37,10.75-.2,21.87-4.88,31.56,7.38-9.35,19.74-14.79,31.77-14.16,14.92.78,28.74,10.04,36.64,22.71,7.9,12.68,10.21,28.37,8.09,43.16,13.03-1.81,25.89,3.7,35.21,12.98Z"/>
      <path class="cls-5" d="M498.02,188.59l-5.24,29.66h-52.74c9.79-3,18.35-10.05,22.88-19.25,3.42-6.93,4.48-14.92,3.26-22.54,2.52-.05,5.05.16,7.52.61,8.9,1.63,17.08,6.09,24.32,11.52Z"/>
      <path class="cls-15" d="M406.24,265.04h-118.06v-1h116.72c-3.11-10.05-10.14-18.28-19.86-23.24-9.71-4.95-21.63-5.71-31.88-2.03l-1.29.46.69-1.19c3.7-6.37,2.3-15.2-3.19-20.11s-14.42-5.32-20.34-.94l-.66.49-.13-.81c-2.44-15.33-14.02-28.79-28.81-33.49-14.8-4.7-32.02-.38-42.85,10.74l-.72-.7c11.09-11.38,28.72-15.8,43.87-10.99,14.9,4.73,26.61,18.13,29.36,33.5,6.27-4.16,15.31-3.57,20.94,1.46,5.51,4.93,7.14,13.58,3.98,20.23,10.23-3.3,21.91-2.4,31.48,2.49,10.18,5.19,17.48,13.89,20.56,24.49l.19.64Z"/>
      <path class="cls-15" d="M323.6,73.07h-114.51l.41-.74c4.45-8,12.17-13.77,21.17-15.84,8.67-1.99,18.16-.26,25.59,4.63.36-10.11,7.25-19.83,17.4-24.41,9.15-4.12,20.63-4.12,31.51,0,8.79,3.33,17.4,9.23,26.32,18.06l-.7.71c-8.82-8.72-17.32-14.56-25.97-17.83-10.63-4.02-21.84-4.03-30.75-.01-9.95,4.49-16.87,14.53-16.83,24.43v.97s-.79-.56-.79-.56c-7.31-5.13-16.86-6.99-25.57-5-8.45,1.94-15.73,7.24-20.1,14.61h112.79v1Z"/>
      <path class="cls-15" d="M141.23,166.54H10.98v-1h129.14c-.87-6.93-6.07-13.51-12.82-16.13-6.86-2.66-15.12-1.12-20.56,3.83l-.91.83.07-1.22c.72-12.54-6.18-25.04-17.17-31.1-10.99-6.07-25.25-5.25-35.47,2.04l-.77.55-.02-.95c-.18-10.76-4.7-21.24-12.42-28.75-7.71-7.51-18.32-11.73-29.08-11.64v-1c11.04-.09,21.87,4.23,29.77,11.92,7.68,7.48,12.27,17.83,12.69,28.52,10.47-7.02,24.72-7.68,35.77-1.58,10.99,6.06,18,18.36,17.73,30.88,5.7-4.6,13.87-5.92,20.71-3.27,7.27,2.82,12.82,10.02,13.51,17.51l.05.55Z"/>
      <path class="cls-15" d="M49.01,430.34l-.03-4.46h1.46c4.87-7.5,12.52-13.42,20.5-15.75,8.92-2.6,18.68-1.64,26.92,2.63,1.39-14.38,11.64-27.85,25.18-32.92,13.52-5.07,30.08-1.68,40.58,8.22,3.03-9.23,9.66-17.05,18.27-21.56,8.86-4.63,19.39-5.54,28.91-2.47l-.31.95c-9.26-2.98-19.52-2.1-28.14,2.41-8.62,4.51-15.19,12.43-18.02,21.74l-.24.79-.59-.58c-10.2-10.07-26.69-13.59-40.11-8.56-13.42,5.03-23.53,18.53-24.6,32.82l-.06.77-.68-.37c-8.14-4.45-17.93-5.51-26.83-2.91-7.57,2.21-14.83,7.75-19.58,14.79h138.92v1H50.98c-.37.58-.72,1.18-1.05,1.78l-.92,1.68Z"/>
      <path class="cls-4" d="M197.63,107.62c-.42.2-1.29.06-1.76.08-.28.01-.56.01-.84.01H36.95c6.7-12.56,25.33-17.38,36.99-9.21.98-7.44,2.1-14.95,4.95-21.89,2.85-6.94,7.62-13.35,14.31-16.78,9.55-4.89,21.55-2.8,30.69,2.83,5.23,3.22,9.7,7.42,13.74,12.07,3.03,3.48,5.8,7.22,8.48,10.97,1.8-8.95,12.21-15.06,20.9-12.29,8.68,2.77,13.61,13.81,9.88,22.14,3.91-2.25,9-2.31,12.97-.18,2.03,1.09,3.73,2.74,4.95,4.69.68,1.1,1.09,2.3,1.66,3.46.5,1,.98,2.05,1.32,3.12.11.36.25.78-.17.98Z"/>
      <path class="cls-5" d="M197.63,107.62c-.42.2-1.29.06-1.76.08-.28.01-.56.01-.84.01h-86.02c.44-.4.86-.81,1.27-1.24,5.32-5.57,8.25-13.34,7.96-21.04,5.52,2.51,12.62.86,16.47-3.83,1.61-1.96,2.59-4.36,2.92-6.87,2.7,3.1,5.19,6.41,7.6,9.74.21,1.81.91,3.56,2.01,5.01,1.99,2.66,5.12,4.33,8.39,4.92,6.33,1.12,13.33-2.14,16.08-7.94,1.5-3.16,1.55-6.94.35-10.22,5.36,4.56,7.77,12.77,4.84,19.3,3.91-2.25,9-2.31,12.97-.18,2.03,1.09,3.73,2.74,4.95,4.69.68,1.1,1.09,2.3,1.66,3.46.5,1,.98,2.05,1.32,3.12.11.36.25.78-.17.98Z"/>
    </g>
    <g>
      <path class="cls-15" d="M551.71-44.09c-.65,34.85-1.3,69.69-1.95,104.54-10.77-2.4-21.68-4.18-32.65-5.31-16.15-1.69-32.44-1.99-48.64-.9-10.24.69-22.54,3.57-25.58,13.36-2.45,7.92,2.67,15.99,4.31,24.12,2.9,14.37-5.97,29.37-18.65,36.72-12.69,7.36-28.28,8.13-42.72,5.63-14.45-2.49-28.17-8-42.09-12.61-13.92-4.61-28.47-8.38-43.08-7.22-11.98.96-25.38,7.18-27.61,18.99-1.88,9.98,4.86,18.96,12.27,26.4,1.16,1.16,2.34,2.29,3.51,3.38l-5.6-.98-22.93-4.03-24.23-4.25c-3.75.11-7.51.23-11.26.34,8.31-28.9,29.75-53.74,57.12-66.2,12.4-5.65,27.12-9.88,33.49-21.92,4.4-8.32,3.55-18.27,4.34-27.65,2.02-23.78,16.4-44,33.53-59.59,10.49-9.54,23.57-15.79,36.87-20.72,51.5-19.09,109.57-19.84,161.55-2.1Z"/>
      <path class="cls-16" d="M517.11,55.14c-16.15-1.69-32.44-1.99-48.64-.9-10.24.69-22.54,3.57-25.58,13.36-2.45,7.92,2.67,15.99,4.31,24.12,2.9,14.37-5.97,29.37-18.65,36.72-12.69,7.36-28.28,8.13-42.72,5.63-14.45-2.49-28.17-8-42.09-12.61-13.92-4.61-28.47-8.38-43.08-7.22-11.98.96-25.38,7.18-27.61,18.99-1.88,9.98,4.86,18.96,12.27,26.4-.73.77-1.43,1.57-2.09,2.4-2.66,3.3-4.83,6.98-6.37,10.94l-16.56-14.97-7.44-6.72c2.88-20.6,13.31-42.3,32.85-49.44,15.21-5.55,32.18-1,47.13,5.22,14.95,6.21,29.62,14.19,45.74,15.64,12.54,1.14,27.01-3.15,32.26-14.6,5.43-11.85-1.11-25.5-7.67-36.77-6.55-11.27-13.51-24.53-8.81-36.69,4.75-12.33,19.64-17.59,32.85-17.5,13.21.09,26.26,3.95,39.45,3.2,13.19-.74,27.64-8.18,29.99-21.18,5.9,15.71,11.79,31.41,17.68,47.12,1.06,2.84,2.13,5.85,2.78,8.86Z"/>
      <path class="cls-13" d="M295.13,166.14l-59.2-10.39-13.79.41.76-2.63c8.49-29.52,30.25-54.74,58.21-67.47,2.19-1,4.49-1.97,6.71-2.9,10.29-4.34,20.92-8.83,25.84-18.13,3.14-5.94,3.43-12.78,3.73-20.03.09-2.25.19-4.58.38-6.86,1.8-21.13,13.61-42.19,34.18-60.9,11.99-10.91,27.16-17.27,37.52-21.12,52.27-19.38,110.12-20.13,162.89-2.12l1.38.47-2.02,108.45-2.39-.53c-10.7-2.39-21.61-4.16-32.42-5.27-16-1.67-32.24-1.97-48.3-.89-9.36.63-21.09,3.22-23.8,11.96-1.48,4.78.23,9.82,2.03,15.16.88,2.59,1.78,5.26,2.33,7.97,2.88,14.26-5.37,30.59-19.61,38.85-14.81,8.59-32.14,7.94-44.06,5.87-11.31-1.95-22.27-5.75-32.88-9.44-3.11-1.08-6.33-2.2-9.5-3.25-12.63-4.18-27.53-8.29-42.29-7.12-11.38.91-23.78,6.64-25.8,17.37-1.41,7.47,2.21,15.06,11.72,24.62,1.06,1.06,2.19,2.15,3.46,3.33l4.93,4.6ZM236.21,151.75l46.59,8.18c-6.35-6.57-13.78-16.16-11.72-27.06,2.42-12.8,16.52-19.58,29.42-20.61,15.48-1.23,30.86,3.01,43.87,7.32,3.19,1.06,6.43,2.18,9.55,3.26,10.45,3.63,21.26,7.38,32.25,9.27,11.27,1.95,27.6,2.6,41.38-5.39,12.8-7.42,20.24-21.97,17.69-34.59-.5-2.46-1.36-5.01-2.2-7.48-1.93-5.7-3.93-11.6-2.06-17.63,2.68-8.63,12.14-13.74,27.36-14.76,16.28-1.1,32.76-.79,48.98.91,10.16,1.05,20.4,2.67,30.49,4.83l1.88-100.64c-51.53-17.23-107.87-16.34-158.83,2.55-15.97,5.92-27.48,12.38-36.22,20.32-19.8,18.02-31.18,38.18-32.88,58.28-.18,2.19-.28,4.48-.37,6.69-.31,7.37-.63,14.99-4.19,21.73-5.59,10.57-16.89,15.34-27.83,19.95-2.19.93-4.46,1.88-6.6,2.86-26.08,11.87-46.55,35.03-55.23,62.3l8.68-.26Z"/>
    </g>
    <path class="cls-4" d="M189.56,420.02h120.88l-18.93-259.39c-.61-8.3-7.52-14.73-15.85-14.73h-51.34c-8.33,0-15.24,6.43-15.85,14.73l-18.93,259.39Z"/>
    <polygon class="cls-5" points="307.53 404.25 250 404.25 250 172.46 291.49 172.46 307.53 404.25"/>
    <g>
      <path class="cls-6" d="M292.65,181.77h-85.31l1.15-20.44c.6-8.3,7.52-14.73,15.84-14.73h51.34c8.32,0,15.24,6.43,15.84,14.73l1.14,20.44Z"/>
      <path class="cls-12" d="M292.65,181.77h-78.73l1.06-20.44c.55-8.3,6.94-14.73,14.62-14.73h47.38c7.68,0,14.06,6.43,14.62,14.73l1.05,20.44Z"/>
      <path class="cls-7" d="M283.37,181.77h-32.09v-35.17h18.92c6.45,0,11.82,6.43,12.29,14.73l.88,20.44Z"/>
      <polygon class="cls-6" points="238.78 181.95 221.3 181.95 223.09 146.6 240.57 146.6 238.78 181.95"/>
    </g>
    <path class="cls-13" d="M310.44,422.02h-120.88c-.56,0-1.09-.23-1.46-.64-.38-.41-.57-.95-.53-1.51l18.93-259.39c.68-9.3,8.51-16.59,17.84-16.59h51.34c9.33,0,17.16,7.29,17.84,16.59l18.93,259.39c.04.55-.15,1.1-.53,1.51-.38.41-.91.64-1.46.64ZM191.71,418.02h116.57l-18.77-257.24c-.53-7.22-6.61-12.88-13.85-12.88h-51.34c-7.24,0-13.32,5.66-13.85,12.88l-18.77,257.24Z"/>
    <path class="cls-11" d="M207,183.04s-.1,0-.15,0c-1.1-.08-1.93-1.04-1.85-2.14l1.49-20.41c.68-9.3,8.51-16.59,17.84-16.59h51.34c9.33,0,17.16,7.29,17.84,16.59l1.49,20.41c.08,1.1-.75,2.06-1.85,2.14-1.1.09-2.06-.75-2.14-1.85l-1.49-20.41c-.53-7.22-6.61-12.88-13.85-12.88h-51.34c-7.24,0-13.32,5.66-13.85,12.88l-1.49,20.41c-.08,1.05-.95,1.85-1.99,1.85Z"/>
    <rect class="cls-2" x="15.77" y="404.85" width="480.88" height="129.1"/>
    <path class="cls-19" d="M407.44,528.12c-.29,0-.58-.13-.78-.37l-93.67-115.61c-.35-.43-.28-1.06.15-1.41.43-.35,1.06-.28,1.41.15l93.67,115.61c.35.43.28,1.06-.15,1.41-.19.15-.41.22-.63.22Z"/>
    <path class="cls-19" d="M441.37,528.12c-.29,0-.58-.13-.78-.37l-93.67-115.61c-.35-.43-.28-1.06.15-1.41.43-.35,1.06-.28,1.41.15l93.67,115.61c.35.43.28,1.06-.15,1.41-.19.15-.41.22-.63.22Z"/>
    <path class="cls-19" d="M475.3,528.12c-.29,0-.58-.13-.78-.37l-93.67-115.61c-.35-.43-.28-1.06.15-1.41.43-.35,1.06-.28,1.41.15l93.67,115.61c.35.43.28,1.06-.15,1.41-.19.15-.41.22-.63.22Z"/>
    <path class="cls-19" d="M509.22,528.12c-.29,0-.58-.13-.78-.37l-93.67-115.61c-.35-.43-.28-1.06.15-1.41.43-.35,1.06-.28,1.41.15l93.67,115.61c.35.43.28,1.06-.15,1.41-.19.15-.41.22-.63.22Z"/>
    <path class="cls-19" d="M543.15,528.12c-.29,0-.58-.13-.78-.37l-93.67-115.61c-.35-.43-.28-1.06.15-1.41.43-.35,1.06-.28,1.41.15l93.67,115.61c.35.43.28,1.06-.15,1.41-.19.15-.41.22-.63.22Z"/>
    <path class="cls-19" d="M577.08,528.12c-.29,0-.58-.13-.78-.37l-93.67-115.61c-.35-.43-.28-1.06.15-1.41.43-.35,1.06-.28,1.41.15l93.67,115.61c.35.43.28,1.06-.15,1.41-.19.15-.41.22-.63.22Z"/>
    <path class="cls-19" d="M93.62,528.12c-.22,0-.44-.07-.63-.22-.43-.35-.5-.98-.15-1.41l93.67-115.61c.35-.43.98-.5,1.41-.15.43.35.5.98.15,1.41l-93.67,115.61c-.2.24-.49.37-.78.37Z"/>
    <path class="cls-19" d="M56.59,528.12c-.22,0-.44-.07-.63-.22-.43-.35-.5-.98-.15-1.41l93.67-115.61c.35-.43.98-.5,1.41-.15.43.35.5.98.15,1.41l-93.67,115.61c-.2.24-.49.37-.78.37Z"/>
    <path class="cls-19" d="M19.56,528.12c-.22,0-.44-.07-.63-.22-.43-.35-.5-.98-.15-1.41l93.67-115.61c.35-.43.98-.5,1.41-.15.43.35.5.98.15,1.41l-93.67,115.61c-.2.24-.49.37-.78.37Z"/>
    <path class="cls-19" d="M-17.47,528.12c-.22,0-.44-.07-.63-.22-.43-.35-.5-.98-.15-1.41l93.67-115.61c.35-.43.98-.5,1.41-.15.43.35.5.98.15,1.41l-93.67,115.61c-.2.24-.49.37-.78.37Z"/>
    <path class="cls-19" d="M-54.5,528.12c-.22,0-.44-.07-.63-.22-.43-.35-.5-.98-.15-1.41l93.67-115.61c.35-.43.98-.5,1.41-.15.43.35.5.98.15,1.41l-93.67,115.61c-.2.24-.49.37-.78.37Z"/>
    <rect class="cls-19" x="17.34" y="522.85" width="480.88" height="67.34"/>
    <rect class="cls-2" x="15.77" y="553.64" width="480.88" height="36.29"/>
    <rect class="cls-14" x="15.77" y="405.46" width="480.88" height="12.68"/>
    <polygon class="cls-5" points="366.34 534.55 133.66 534.55 250.1 405.46 366.34 534.55"/>
    <polygon class="cls-4" points="342.97 534.55 157.03 534.55 250.08 431.38 342.97 534.55"/>
    <rect class="cls-17" x="143.8" y="521.8" width="211.73" height="11.28"/>
    <path class="cls-1" d="M496.65,536.55H15.77c-1.1,0-2-.9-2-2v-129.1c0-1.1.9-2,2-2h480.88c1.1,0,2,.9,2,2v129.1c0,1.1-.9,2-2,2ZM17.77,532.55h476.88v-125.1H17.77v125.1Z"/>
    <g>
      <path class="cls-12" d="M410.81,471.98c-.07.05-.33.23-.73.55-3.74,2.92-19.93,17.1-11.79,38.27.68,1.77,1.19,3.43,1.53,5,3.12,13.86-5.64,20.26-11.06,22.83-2.08.99-4.37,1.47-6.67,1.47h-11.64c-4.68,0-9.12-2.06-12.13-5.64l-108.32-127-108.32,127c-3.02,3.58-7.45,5.64-12.13,5.64h-11.64c-2.31,0-4.59-.48-6.67-1.47-4.26-2.03-10.61-6.43-11.59-14.98-.22-1.96-.16-4.14.26-6.56.35-1.94.93-4.03,1.8-6.29,9.01-23.44-11.8-38.31-12.52-38.82.85.2,23.24,5.66,33.49,23.27,2.21,3.81,3.86,8.18,4.6,13.19.32,2.16,3.07,2.91,4.49,1.24l.33-.37,88.35-101.45s29.55-34.58,29.55-67.82c0,.75.02,1.51.05,2.26,1.27,32.53,29.49,65.56,29.49,65.56l88.69,101.82c.83.98,2.13,1.13,3.12.64.69-.34,1.24-.99,1.37-1.88,4.17-28.2,37.06-36.22,38.09-36.46Z"/>
      <path class="cls-6" d="M250.05,342.3l-.05,52.62s-70.41,95.1-92.56,108.31c-14.64,8.74-22.02,7.75-25.34,6.08l88.35-101.45s29.55-34.58,29.55-67.82c0,.75.02,1.51.05,2.26Z"/>
      <path class="cls-7" d="M388.76,538.63c-2.08.99-4.37,1.47-6.67,1.47h-11.64c-4.68,0-9.12-2.06-12.13-5.64l-108.32-127-108.32,127c-3.02,3.58-7.45,5.64-12.13,5.64h-11.64c-2.31,0-4.59-.48-6.67-1.47-4.26-2.03-10.61-6.43-11.59-14.98,1.19-1.57,1.96-2.54,1.96-2.54,0,0,11.76,11.76,26.69,8.6,14.92-3.17,121.7-134.79,121.7-134.79,0,0,112.59,132.07,117.57,133.43,4.97,1.36,26.07,10.67,32.25-12.53v-.02c3.12,13.86-5.64,20.26-11.06,22.83Z"/>
      <path class="cls-6" d="M110.62,486.92c1.16,10.97-2.94,22.37-10.71,30.17.35-1.94.93-4.03,1.8-6.29,9.01-23.44-11.8-38.31-12.52-38.82.85.2,23.24,5.66,33.49,23.27-3.45-3.51-7.56-6.36-12.06-8.33Z"/>
      <path class="cls-6" d="M410.81,471.98c-.07.05-.33.23-.73.55-6.61,2.98-12.5,7.56-16.98,13.27-5.82,7.41-9.23,16.68-9.61,26.09-.05,1.25-.11,2.65-1.05,3.48-1.34,1.2-3.46.38-4.99-.56-2.15-1.33-4.19-2.83-6.1-4.49.69-.34,1.24-.99,1.37-1.88,4.17-28.2,37.06-36.22,38.09-36.46Z"/>
    </g>
    <path class="cls-13" d="M357.59,536.46h-215.46c-1.1,0-2-.9-2-2s.9-2,2-2h215.46c1.1,0,2,.9,2,2s-.9,2-2,2Z"/>
    <path class="cls-11" d="M284.81,182.51h-71.26c-.55,0-1-.45-1-1s.45-1,1-1h71.26c.55,0,1,.45,1,1s-.45,1-1,1Z"/>
    <path class="cls-11" d="M382.09,542.1h-11.64c-5.28,0-10.25-2.31-13.65-6.35l-106.79-125.21-106.8,125.22c-3.39,4.02-8.37,6.34-13.64,6.34h-11.64c-2.63,0-5.23-.58-7.53-1.66-5.65-2.68-17.99-10.99-10.54-30.36,8.48-22.06-10.97-35.89-11.81-36.47-.79-.55-1.08-1.58-.69-2.45.39-.88,1.34-1.35,2.28-1.14,1.44.33,35.25,8.47,39.63,38.13.03.21.16.35.38.42.14.04.4.07.61-.18l88.7-101.84c.28-.33,29.05-34.41,29.05-66.51,0-1.1.9-2,2-2s2,.9,2,2c0,32.13,28.77,66.18,29.07,66.52l88.68,101.81c.23.27.49.24.63.2.22-.06.34-.2.38-.42,4.38-29.66,38.19-37.8,39.63-38.13.94-.21,1.89.26,2.28,1.14.39.88.1,1.91-.69,2.45-.83.58-20.29,14.41-11.81,36.47,7.45,19.37-4.89,27.68-10.54,30.36-2.3,1.09-4.9,1.66-7.53,1.66ZM250,405.46c.59,0,1.14.26,1.52.7l108.32,127.01c2.65,3.14,6.51,4.93,10.6,4.93h11.64c2.04,0,4.05-.44,5.82-1.28,7.04-3.34,14.24-10.44,8.52-25.31-6-15.61.55-27.71,6.39-34.65-9.94,4.27-25.44,13.74-28.12,31.87-.26,1.77-1.5,3.18-3.23,3.68-1.76.5-3.58-.05-4.76-1.43l-88.67-101.81c-1.04-1.22-21.49-25.42-28.04-53.03-6.55,27.6-27,51.81-28.02,53.01l-88.7,101.84c-1.16,1.37-2.99,1.92-4.74,1.42-1.73-.5-2.97-1.9-3.23-3.68-2.69-18.17-18.19-27.63-28.13-31.88,5.84,6.93,12.42,19.04,6.41,34.66-5.72,14.87,1.48,21.97,8.52,25.31,1.76.84,3.77,1.28,5.82,1.28h11.64c4.09,0,7.96-1.8,10.59-4.93l108.33-127.01c.38-.45.94-.7,1.52-.7Z"/>
    <g>
      <path class="cls-19" d="M494.52,606.32c-.31,0-.62-.15-.82-.42l-42.46-60c-.32-.45-.21-1.07.24-1.39.45-.32,1.08-.21,1.39.24l42.46,60c.32.45.21,1.07-.24,1.39-.18.12-.38.18-.58.18Z"/>
      <path class="cls-19" d="M453.77,606.53c-.34,0-.67-.17-.86-.48l-35.38-58.82c-.28-.47-.13-1.09.34-1.37.48-.28,1.09-.13,1.37.34l35.38,58.82c.28.47.13,1.09-.34,1.37-.16.1-.34.14-.51.14Z"/>
      <path class="cls-19" d="M413.01,606.74c-.37,0-.72-.21-.9-.56l-28.31-57.65c-.24-.5-.04-1.1.46-1.34.5-.25,1.09-.04,1.34.46l28.31,57.65c.24.5.04,1.1-.46,1.34-.14.07-.29.1-.44.1Z"/>
      <path class="cls-19" d="M372.26,606.95c-.4,0-.79-.25-.94-.65l-21.23-56.47c-.19-.52.07-1.09.58-1.29.52-.19,1.09.07,1.29.58l21.23,56.47c.19.52-.07,1.09-.58,1.29-.12.04-.23.06-.35.06Z"/>
      <path class="cls-19" d="M331.51,607.17c-.45,0-.85-.3-.97-.75l-14.15-55.3c-.14-.54.19-1.08.72-1.22.53-.14,1.08.19,1.22.72l14.15,55.3c.14.54-.19,1.08-.72,1.22-.08.02-.17.03-.25.03Z"/>
      <path class="cls-19" d="M290.75,607.38c-.49,0-.92-.37-.99-.87l-7.08-54.12c-.07-.55.31-1.05.86-1.12.55-.07,1.05.31,1.12.86l7.08,54.12c.07.55-.31,1.05-.86,1.12-.04,0-.09,0-.13,0Z"/>
      <path class="cls-19" d="M250,607.59c-.55,0-1-.45-1-1v-52.95c0-.55.45-1,1-1s1,.45,1,1v52.95c0,.55-.45,1-1,1Z"/>
    </g>
    <g>
      <path class="cls-19" d="M5.48,606.32c-.2,0-.4-.06-.58-.18-.45-.32-.56-.94-.24-1.39l42.46-60c.32-.45.94-.56,1.39-.24.45.32.56.94.24,1.39l-42.46,60c-.19.28-.5.42-.82.42Z"/>
      <path class="cls-19" d="M46.23,606.53c-.18,0-.35-.05-.51-.14-.47-.28-.63-.9-.34-1.37l35.38-58.82c.28-.47.9-.63,1.37-.34.47.28.63.9.34,1.37l-35.38,58.82c-.19.31-.52.48-.86.48Z"/>
      <path class="cls-19" d="M86.99,606.74c-.15,0-.3-.03-.44-.1-.5-.24-.7-.84-.46-1.34l28.31-57.65c.24-.5.84-.7,1.34-.46.5.24.7.84.46,1.34l-28.31,57.65c-.17.35-.53.56-.9.56Z"/>
      <path class="cls-19" d="M127.74,606.95c-.12,0-.24-.02-.35-.06-.52-.19-.78-.77-.58-1.29l21.23-56.47c.19-.52.77-.78,1.29-.58.52.19.78.77.58,1.29l-21.23,56.47c-.15.4-.53.65-.94.65Z"/>
      <path class="cls-19" d="M168.49,607.17c-.08,0-.17,0-.25-.03-.54-.14-.86-.68-.72-1.22l14.15-55.3c.14-.53.68-.86,1.22-.72.54.14.86.68.72,1.22l-14.15,55.3c-.12.45-.52.75-.97.75Z"/>
      <path class="cls-19" d="M209.25,607.38s-.09,0-.13,0c-.55-.07-.93-.57-.86-1.12l7.08-54.12c.07-.55.57-.94,1.12-.86.55.07.93.57.86,1.12l-7.08,54.12c-.07.5-.5.87-.99.87Z"/>
      <path class="cls-19" d="M250,607.59c-.55,0-1-.45-1-1v-52.95c0-.55.45-1,1-1s1,.45,1,1v52.95c0,.55-.45,1-1,1Z"/>
    </g>
  </g>
  <g>
    <path class="cls-13" d="M151.81,644.88c-.46,0-.81-.15-1.06-.44-.25-.29-.38-.69-.38-1.2s.12-.9.38-1.19c.25-.29.6-.44,1.06-.44h5.23c.59,0,1.05.16,1.36.47s.47.77.47,1.36v6.38c0,.51-.07.93-.21,1.25-.14.32-.36.62-.66.88-.21.18-.5.37-.88.57s-.84.39-1.39.57c-.55.18-1.2.32-1.94.44-.74.11-1.57.17-2.48.17-1.7,0-3.22-.24-4.56-.72s-2.48-1.17-3.41-2.08c-.93-.91-1.64-2.01-2.13-3.31-.5-1.3-.74-2.78-.74-4.42,0-1.75.26-3.34.79-4.77.53-1.43,1.29-2.65,2.3-3.66,1-1.01,2.23-1.79,3.69-2.34,1.45-.55,3.11-.83,4.96-.83.77,0,1.48.06,2.12.17.64.12,1.21.26,1.7.43.49.17.9.36,1.24.55.34.2.59.38.76.55.22.22.38.44.47.66.09.22.14.5.14.82,0,.24-.04.45-.12.64s-.18.35-.31.48c-.13.14-.29.24-.48.31-.19.07-.39.11-.61.11-.26,0-.52-.06-.79-.2-.27-.13-.59-.28-.98-.44-.39-.16-.86-.31-1.42-.44-.56-.13-1.27-.2-2.12-.2-1.02,0-1.95.16-2.8.49s-1.57.82-2.17,1.46c-.6.65-1.07,1.44-1.4,2.39-.33.95-.49,2.05-.49,3.3s.16,2.37.49,3.33c.33.96.79,1.76,1.4,2.41.6.65,1.34,1.13,2.2,1.46s1.83.49,2.9.49c.49,0,.91-.03,1.27-.08.35-.05.65-.11.89-.17.27-.07.5-.16.69-.25v-4.98h-2.95Z"/>
    <path class="cls-13" d="M162.23,645.71c0-1.33.19-2.53.58-3.59.38-1.06.94-1.95,1.66-2.69.72-.73,1.6-1.29,2.63-1.68,1.03-.38,2.19-.58,3.48-.58,1.2,0,2.28.19,3.26.57.97.38,1.81.92,2.51,1.62.7.7,1.24,1.54,1.62,2.52.38.98.57,2.08.57,3.27,0,1.33-.19,2.53-.58,3.59-.39,1.06-.94,1.95-1.66,2.69-.72.73-1.59,1.29-2.62,1.68-1.03.38-2.19.58-3.48.58-1.2,0-2.29-.19-3.27-.57-.98-.38-1.82-.92-2.52-1.62-.7-.7-1.24-1.54-1.62-2.52-.38-.98-.57-2.07-.57-3.28ZM166.56,645.4c0,.83.1,1.56.3,2.19s.48,1.15.83,1.57c.35.42.76.74,1.23.95.47.21.97.32,1.52.32s1.03-.1,1.49-.31c.46-.21.87-.52,1.21-.93.34-.41.61-.93.8-1.55.19-.62.29-1.35.29-2.18s-.1-1.55-.3-2.17-.48-1.15-.83-1.57c-.35-.42-.76-.74-1.23-.95-.47-.21-.97-.32-1.5-.32s-1.04.1-1.51.31c-.46.21-.87.52-1.21.93-.34.41-.61.93-.8,1.55-.19.62-.29,1.34-.29,2.16Z"/>
    <path class="cls-13" d="M182.17,639.1c0-.57.15-1.01.45-1.31s.74-.45,1.31-.45c.28,0,.53.03.74.1.21.07.4.17.55.3.16.13.28.29.38.48s.16.4.19.62l.12.8h.06c.3-.46.68-.86,1.14-1.22.2-.16.42-.31.67-.45.25-.15.53-.28.84-.39.31-.11.65-.21,1.02-.27.37-.07.77-.1,1.21-.1.92,0,1.74.14,2.48.42.74.28,1.37.7,1.89,1.25.52.55.92,1.23,1.2,2.04.28.81.41,1.74.41,2.79v7.92c0,.59-.17,1.05-.52,1.38-.35.33-.88.49-1.6.49s-1.25-.16-1.6-.49c-.35-.33-.52-.79-.52-1.38v-7.42c0-.63-.07-1.18-.2-1.64-.13-.46-.32-.83-.56-1.12-.25-.29-.54-.5-.9-.64-.35-.13-.76-.2-1.2-.2-.28,0-.54.03-.78.1-.24.07-.47.15-.68.26-.21.1-.41.23-.58.37s-.33.28-.46.41c-.33.34-.61.72-.83,1.14v8.75c0,.59-.17,1.05-.52,1.38-.35.33-.88.49-1.6.49s-1.25-.16-1.6-.49c-.35-.33-.52-.79-.52-1.38v-12.52Z"/>
    <path class="cls-13" d="M204.56,646.32v.03c.06.65.21,1.22.44,1.72.23.5.53.92.91,1.27.38.34.84.6,1.37.78.53.18,1.12.27,1.78.27.54,0,1.01-.04,1.4-.11.39-.07.73-.15,1.02-.24.29-.09.55-.17.77-.24.22-.07.43-.11.63-.11s.38.04.53.11c.16.07.29.17.4.29.11.12.19.26.25.41.06.16.09.32.09.5,0,.26-.04.49-.12.68-.08.19-.22.38-.41.57-.16.16-.39.32-.69.49-.3.17-.67.33-1.12.47-.44.14-.96.26-1.55.35-.59.09-1.24.14-1.96.14-1.24,0-2.35-.18-3.34-.54-.99-.36-1.83-.88-2.52-1.55s-1.21-1.48-1.58-2.44c-.37-.95-.55-2.02-.55-3.21,0-1.38.2-2.62.59-3.71.39-1.09.93-2.01,1.63-2.76.7-.75,1.53-1.32,2.51-1.72.97-.4,2.04-.59,3.21-.59,1,0,1.91.16,2.72.47s1.5.76,2.08,1.35c.57.59,1.02,1.3,1.33,2.15s.47,1.8.47,2.88c0,.78-.18,1.36-.54,1.73s-.87.56-1.54.56h-8.22ZM210.91,643.6c-.14-1.17-.45-2.03-.95-2.58-.5-.55-1.2-.83-2.1-.83-.38,0-.73.07-1.08.2-.34.13-.66.33-.95.61-.29.28-.53.63-.74,1.05-.21.43-.37.94-.48,1.55h6.3Z"/>
    <path class="cls-13" d="M226.3,635.35c-.47,0-.84-.14-1.11-.43-.27-.29-.41-.73-.41-1.32s.14-1.03.41-1.32c.27-.29.64-.43,1.11-.43h14.2c.47,0,.84.14,1.11.43.27.29.41.73.41,1.32s-.14,1.03-.41,1.32c-.27.29-.64.43-1.11.43h-4.92v16.22c0,.62-.18,1.09-.53,1.42-.36.33-.9.5-1.65.5s-1.29-.17-1.65-.5c-.36-.33-.53-.81-.53-1.42v-16.22h-4.92Z"/>
    <path class="cls-13" d="M241.59,645.71c0-1.33.19-2.53.58-3.59.38-1.06.94-1.95,1.66-2.69.72-.73,1.6-1.29,2.63-1.68,1.03-.38,2.19-.58,3.48-.58,1.2,0,2.28.19,3.26.57.97.38,1.81.92,2.51,1.62.7.7,1.24,1.54,1.62,2.52.38.98.57,2.08.57,3.27,0,1.33-.19,2.53-.58,3.59-.39,1.06-.94,1.95-1.66,2.69s-1.59,1.29-2.62,1.68-2.19.58-3.48.58c-1.2,0-2.29-.19-3.27-.57-.98-.38-1.82-.92-2.52-1.62-.7-.7-1.24-1.54-1.62-2.52-.38-.98-.57-2.07-.57-3.28ZM245.92,645.4c0,.83.1,1.56.3,2.19s.48,1.15.83,1.57c.35.42.76.74,1.23.95.47.21.97.32,1.52.32s1.03-.1,1.49-.31c.46-.21.87-.52,1.21-.93.34-.41.61-.93.8-1.55.19-.62.29-1.35.29-2.18s-.1-1.55-.3-2.17-.48-1.15-.83-1.57c-.35-.42-.76-.74-1.23-.95-.47-.21-.97-.32-1.5-.32s-1.04.1-1.51.31c-.46.21-.87.52-1.21.93-.34.41-.61.93-.8,1.55-.19.62-.29,1.34-.29,2.16Z"/>
    <path class="cls-13" d="M260.55,645.71c0-1.33.19-2.53.58-3.59.38-1.06.94-1.95,1.66-2.69.72-.73,1.6-1.29,2.63-1.68,1.03-.38,2.19-.58,3.48-.58,1.2,0,2.28.19,3.26.57.97.38,1.81.92,2.51,1.62.7.7,1.24,1.54,1.62,2.52.38.98.57,2.08.57,3.27,0,1.33-.19,2.53-.58,3.59-.39,1.06-.94,1.95-1.66,2.69s-1.59,1.29-2.62,1.68-2.19.58-3.48.58c-1.2,0-2.29-.19-3.27-.57-.98-.38-1.82-.92-2.52-1.62-.7-.7-1.24-1.54-1.62-2.52-.38-.98-.57-2.07-.57-3.28ZM264.88,645.4c0,.83.1,1.56.3,2.19s.48,1.15.83,1.57c.35.42.76.74,1.23.95.47.21.97.32,1.52.32s1.03-.1,1.49-.31c.46-.21.87-.52,1.21-.93.34-.41.61-.93.8-1.55.19-.62.29-1.35.29-2.18s-.1-1.55-.3-2.17-.48-1.15-.83-1.57c-.35-.42-.76-.74-1.23-.95-.47-.21-.97-.32-1.5-.32s-1.04.1-1.51.31c-.46.21-.87.52-1.21.93-.34.41-.61.93-.8,1.55-.19.62-.29,1.34-.29,2.16Z"/>
    <path class="cls-13" d="M288.12,637.9c0-.91.17-1.75.5-2.52.33-.78.83-1.45,1.49-2.02.66-.57,1.48-1.01,2.46-1.33.98-.32,2.12-.48,3.41-.48.65,0,1.24.04,1.77.12.53.08,1.01.18,1.42.31s.77.28,1.07.44c.3.17.53.33.7.49.23.23.38.45.46.66.08.21.12.46.12.74,0,.48-.14.85-.42,1.11-.28.26-.64.39-1.08.39-.26,0-.51-.05-.74-.14s-.51-.2-.81-.31c-.31-.11-.68-.22-1.1-.31s-.95-.14-1.58-.14c-.57,0-1.07.06-1.49.18-.42.12-.76.29-1.04.51-.28.22-.48.48-.61.79-.13.3-.2.63-.2.99,0,.52.14.96.42,1.3.28.35.66.65,1.13.9.47.25,1,.47,1.6.67.59.2,1.2.41,1.82.64.62.23,1.22.5,1.82.8.59.31,1.13.69,1.6,1.16.47.46.84,1.03,1.13,1.7.28.67.42,1.47.42,2.42s-.17,1.86-.52,2.68c-.35.82-.87,1.52-1.56,2.12-.69.59-1.55,1.06-2.58,1.39s-2.23.5-3.6.5c-.73,0-1.39-.04-1.98-.13-.59-.09-1.11-.2-1.56-.34-.45-.13-.83-.29-1.13-.45-.31-.17-.54-.33-.7-.48-.22-.22-.38-.44-.47-.66-.09-.22-.14-.48-.14-.78,0-.49.14-.87.42-1.13.28-.27.64-.4,1.08-.4.26,0,.51.05.74.16.23.1.52.22.85.34.33.12.74.23,1.23.34.48.1,1.1.16,1.85.16.63,0,1.18-.07,1.65-.21.46-.14.85-.33,1.15-.58.3-.24.53-.54.68-.88.15-.34.23-.72.23-1.12,0-.56-.14-1.03-.42-1.4-.28-.37-.65-.69-1.12-.96-.46-.27-.99-.51-1.59-.72-.59-.21-1.2-.43-1.82-.66-.62-.23-1.23-.5-1.82-.79-.59-.29-1.12-.66-1.59-1.11-.46-.45-.84-.99-1.12-1.62-.28-.63-.42-1.41-.42-2.31Z"/>
    <path class="cls-13" d="M305.22,645.71c0-1.33.19-2.53.58-3.59.38-1.06.94-1.95,1.66-2.69.72-.73,1.6-1.29,2.63-1.68,1.03-.38,2.19-.58,3.48-.58,1.2,0,2.28.19,3.26.57.97.38,1.81.92,2.51,1.62.7.7,1.24,1.54,1.62,2.52.38.98.57,2.08.57,3.27,0,1.33-.19,2.53-.58,3.59-.39,1.06-.94,1.95-1.66,2.69s-1.59,1.29-2.62,1.68-2.19.58-3.48.58c-1.2,0-2.29-.19-3.27-.57-.98-.38-1.82-.92-2.52-1.62-.7-.7-1.24-1.54-1.62-2.52-.38-.98-.57-2.07-.57-3.28ZM309.55,645.4c0,.83.1,1.56.3,2.19s.48,1.15.83,1.57c.35.42.76.74,1.23.95.47.21.97.32,1.52.32s1.03-.1,1.49-.31c.46-.21.87-.52,1.21-.93.34-.41.61-.93.8-1.55.19-.62.29-1.35.29-2.18s-.1-1.55-.3-2.17-.48-1.15-.83-1.57c-.35-.42-.76-.74-1.23-.95-.47-.21-.97-.32-1.5-.32s-1.04.1-1.51.31c-.46.21-.87.52-1.21.93-.34.41-.61.93-.8,1.55-.19.62-.29,1.34-.29,2.16Z"/>
    <path class="cls-13" d="M324.17,645.71c0-1.33.19-2.53.58-3.59.38-1.06.94-1.95,1.66-2.69.72-.73,1.6-1.29,2.63-1.68,1.03-.38,2.19-.58,3.48-.58,1.2,0,2.28.19,3.26.57.97.38,1.81.92,2.51,1.62.7.7,1.24,1.54,1.62,2.52.38.98.57,2.08.57,3.27,0,1.33-.19,2.53-.58,3.59-.39,1.06-.94,1.95-1.66,2.69s-1.59,1.29-2.62,1.68-2.19.58-3.48.58c-1.2,0-2.29-.19-3.27-.57-.98-.38-1.82-.92-2.52-1.62-.7-.7-1.24-1.54-1.62-2.52-.38-.98-.57-2.07-.57-3.28ZM328.5,645.4c0,.83.1,1.56.3,2.19s.48,1.15.83,1.57c.35.42.76.74,1.23.95.47.21.97.32,1.52.32s1.03-.1,1.49-.31c.46-.21.87-.52,1.21-.93.34-.41.61-.93.8-1.55.19-.62.29-1.35.29-2.18s-.1-1.55-.3-2.17-.48-1.15-.83-1.57c-.35-.42-.76-.74-1.23-.95-.47-.21-.97-.32-1.5-.32s-1.04.1-1.51.31c-.46.21-.87.52-1.21.93-.34.41-.61.93-.8,1.55-.19.62-.29,1.34-.29,2.16Z"/>
    <path class="cls-13" d="M344.11,639.1c0-.57.15-1.01.45-1.31.3-.3.74-.45,1.31-.45.28,0,.53.03.74.1.21.07.4.17.55.3.16.13.28.29.38.48s.16.4.19.62l.12.8h.06c.3-.46.68-.86,1.14-1.22.2-.16.42-.31.67-.45.25-.15.53-.28.84-.39.31-.11.65-.21,1.02-.27.37-.07.77-.1,1.21-.1.92,0,1.74.14,2.48.42.74.28,1.37.7,1.89,1.25.52.55.92,1.23,1.2,2.04.28.81.41,1.74.41,2.79v7.92c0,.59-.17,1.05-.52,1.38-.35.33-.88.49-1.6.49s-1.25-.16-1.6-.49c-.35-.33-.52-.79-.52-1.38v-7.42c0-.63-.07-1.18-.2-1.64-.13-.46-.32-.83-.56-1.12-.25-.29-.54-.5-.9-.64-.35-.13-.76-.2-1.2-.2-.28,0-.54.03-.78.1-.24.07-.47.15-.68.26-.21.1-.41.23-.58.37s-.33.28-.46.41c-.33.34-.61.72-.83,1.14v8.75c0,.59-.17,1.05-.52,1.38-.35.33-.88.49-1.6.49s-1.25-.16-1.6-.49c-.35-.33-.52-.79-.52-1.38v-12.52Z"/>
  </g>
</svg>