<?xml version="1.0" encoding="UTF-8"?>
<svg id="Expanded" xmlns="http://www.w3.org/2000/svg" xmlns:xlink="http://www.w3.org/1999/xlink" viewBox="0 0 500 700">
  <defs>
    <style>
      .cls-1 {
        fill: #13437c;
      }

      .cls-2 {
        fill: #3288d6;
      }

      .cls-3 {
        fill: #4d4d4d;
      }

      .cls-4 {
        fill: #fff;
      }

      .cls-5 {
        fill: #d87625;
      }

      .cls-6 {
        fill: #fff8d9;
      }

      .cls-7 {
        fill: #f4b545;
      }

      .cls-8 {
        fill: none;
      }

      .cls-9 {
        clip-path: url(#clippath-1);
      }

      .cls-10 {
        fill: #e9f1f4;
      }

      .cls-11 {
        fill: #6d3108;
      }

      .cls-12 {
        fill: #79cdf6;
      }

      .cls-13 {
        fill: #ffe277;
      }

      .cls-14 {
        fill: #333;
      }

      .cls-15 {
        fill: #47acea;
      }

      .cls-16 {
        fill: #999;
      }

      .cls-17 {
        fill: gray;
      }
    </style>
    <clipPath id="clippath">
      <rect class="cls-8" x="-736" y="968" width="572" height="468" rx="32" ry="32" transform="translate(752 1652) rotate(90)"/>
    </clipPath>
    <clipPath id="clippath-1">
      <rect class="cls-8" x="-36" y="68" width="572" height="468" rx="32" ry="32" transform="translate(552 52) rotate(90)"/>
    </clipPath>
  </defs>
  <g>
    <g>
      <path class="cls-10" d="M48,699.5c-26.19,0-47.5-21.31-47.5-47.5V48C.5,21.81,21.81.5,48,.5h404c8.33,0,16.53,2.19,23.71,6.33,14.67,8.47,23.79,24.24,23.79,41.17v604c0,26.19-21.31,47.5-47.5,47.5H48Z"/>
      <path class="cls-14" d="M452,1c8.25,0,16.36,2.17,23.46,6.27,14.52,8.38,23.54,23.98,23.54,40.73v604c0,25.92-21.08,47-47,47H48c-25.92,0-47-21.08-47-47V48C1,22.08,22.08,1,48,1h404M452,0H48C21.49,0,0,21.49,0,48v604c0,26.51,21.49,48,48,48h404c26.51,0,48-21.49,48-48V48c0-17.79-9.67-33.31-24.04-41.6-7.05-4.07-15.23-6.4-23.96-6.4h0Z"/>
    </g>
    <path class="cls-4" d="M500,48v374.52L0,539.11V117.39L475.96,6.4c14.37,8.29,24.04,23.81,24.04,41.6Z"/>
    <path class="cls-4" d="M500,459.42v140.57l-428.9,100.01h-23.1c-26.51,0-48-21.49-48-48v-75.99l500-116.59Z"/>
    <path class="cls-14" d="M452,1c25.92,0,47,21.08,47,47v604c0,25.92-21.08,47-47,47H48c-25.92,0-47-21.08-47-47V48C1,22.08,22.08,1,48,1h404M452,0H48C21.49,0,0,21.49,0,48v604c0,26.51,21.49,48,48,48h404c26.51,0,48-21.49,48-48V48c0-26.51-21.49-48-48-48h0Z"/>
    <g>
      <rect class="cls-4" x="15" y="15" width="470" height="574" rx="33" ry="33"/>
      <path class="cls-14" d="M452,16c17.67,0,32,14.33,32,32v508c0,17.67-14.33,32-32,32H48c-17.67,0-32-14.33-32-32V48c0-17.67,14.33-32,32-32h404M452,14H48c-18.75,0-34,15.25-34,34v508c0,18.75,15.25,34,34,34h404c18.75,0,34-15.25,34-34V48c0-18.75-15.25-34-34-34h0Z"/>
    </g>
  </g>
  <g class="cls-9">
    <rect class="cls-3" x="4.41" y="0" width="491.18" height="606.01"/>
    <path class="cls-17" d="M56.11,606.04l-.46-.89c24.23-12.45,38.86-42.06,34.02-68.87-.56-3.11-1.37-6.27-2.14-9.32-1.81-7.1-3.68-14.44-2.66-21.8,1.71-12.2,11.93-23.52,26.05-28.83,12.8-4.82,27.2-4.85,39.91-4.89v1c-13.24.03-26.93.07-39.56,4.82-13.78,5.19-23.76,16.19-25.41,28.03-1,7.16.85,14.41,2.63,21.42.78,3.07,1.59,6.25,2.16,9.39,4.91,27.23-9.94,57.29-34.55,69.94Z"/>
    <path class="cls-17" d="M29.61,504.5c-10.23,0-20.52-5.17-26.53-13.44l.81-.59c6.09,8.37,16.73,13.48,27.06,13,10.34-.48,20.45-6.54,25.75-15.44,1.97-3.32,3.35-7.03,4.68-10.62,1.29-3.5,2.63-7.11,4.53-10.41,8.99-15.58,28.91-21.02,44.67-19.51,17.24,1.66,33.44,10.03,47.74,17.41l-.46.89c-14.22-7.34-30.33-15.67-47.38-17.31-15.44-1.48-34.95,3.82-43.71,19.01-1.86,3.22-3.18,6.79-4.46,10.25-1.35,3.63-2.74,7.39-4.76,10.79-5.46,9.18-15.89,15.43-26.56,15.93-.46.02-.93.03-1.39.03Z"/>
    <path class="cls-17" d="M163.09,410.02c-15.81,0-35.72-1.3-52.54-10.29-26.85-14.35-41.48-48.56-33.29-77.88,1.32-4.72,3.17-9.33,4.95-13.8,2.06-5.14,4.19-10.46,5.49-15.92,2.86-11.95.62-22.78-5.99-28.98-5.23-4.91-13.61-7.11-23.01-6.04-5.55.63-11.04,2.22-16.35,3.76-2.56.74-5.21,1.51-7.83,2.16-22.06,5.47-45.72,3.57-66.62-5.35l.39-.92c20.7,8.84,44.14,10.72,65.99,5.3,2.61-.65,5.25-1.41,7.8-2.15,5.35-1.55,10.88-3.15,16.52-3.79,5.69-.65,16.35-.69,23.8,6.3,6.87,6.44,9.22,17.64,6.28,29.94-1.32,5.53-3.46,10.88-5.54,16.06-1.78,4.44-3.62,9.03-4.92,13.7-8.06,28.89,6.34,62.6,32.8,76.73,17.15,9.16,37.61,10.25,53.52,10.17v1c-.47,0-.96,0-1.44,0Z"/>
    <path class="cls-17" d="M495.66,582.25c-9.85,0-19.7-1.89-28.79-5.64-17.18-7.1-31.09-20.64-38.16-37.16-1.34-3.13-2.46-6.41-3.54-9.58-2.21-6.46-4.49-13.14-8.69-18.67-7.39-9.72-20.73-15.61-35.69-15.76-11.59-.11-23.81,2.82-39.5,9.51l-.39-.92c10.65-4.54,24.8-9.74,39.91-9.59,15.27.15,28.9,6.19,36.48,16.15,4.3,5.66,6.61,12.42,8.84,18.95,1.08,3.16,2.19,6.42,3.52,9.51,6.97,16.28,20.68,29.63,37.62,36.62,16.95,7,36.57,7.42,53.83,1.14l.34.94c-8.23,2.99-17,4.49-25.76,4.49Z"/>
    <path class="cls-17" d="M280.93,390.69l-.96-.29c9.84-32.41,41.57-56.5,75.43-57.28,17.12-.38,34.04,4.68,50.42,9.59,19.24,5.76,39.14,11.73,58.99,8.54,27.11-4.35,50.27-27.12,55.06-54.15l.98.17c-4.87,27.44-28.38,50.55-55.89,54.96-20.08,3.22-40.08-2.77-59.43-8.57-16.3-4.88-33.2-9.93-50.11-9.55-33.45.76-64.78,24.55-74.5,56.57Z"/>
    <path class="cls-17" d="M339.28,482.77l-.93-.36c5.2-13.44,15.59-24.83,28.5-31.24,12.92-6.41,28.27-7.8,42.12-3.82,5.77,1.66,11.3,4.22,16.64,6.7,5.27,2.44,10.71,4.97,16.35,6.6,19.04,5.53,40.77.43,55.36-12.98l.68.74c-14.85,13.64-36.95,18.83-56.32,13.2-5.71-1.66-11.19-4.2-16.49-6.66-5.31-2.46-10.81-5.01-16.5-6.65-13.62-3.92-28.71-2.55-41.4,3.75-12.69,6.3-22.9,17.49-28.02,30.71Z"/>
    <path class="cls-17" d="M169.71,371.23c-15.51,0-31.09-7.51-40.54-19.81-10.26-13.36-13.22-32.23-7.52-48.08,3.88-10.81,11.29-19.89,18.45-28.68,3.16-3.88,6.43-7.89,9.35-11.99,4.41-6.19,17.99-27.76,7.76-45.44-9.26-16.02-31.84-17.12-41.11-16.84-4.27.12-8.64.47-12.87.81-11.39.91-23.18,1.84-34.26-1.43-19.62-5.8-34.13-25.61-33.74-46.07.08-4.13.71-8.29,1.31-12.32.87-5.8,1.78-11.8,1-17.65-1.23-9.32-6.76-17.8-14.8-22.68-8.03-4.88-18.11-5.89-26.95-2.69l-.34-.94c9.12-3.3,19.52-2.26,27.8,2.77,8.29,5.04,14,13.79,15.27,23.4.79,5.99-.12,12.06-1.01,17.93-.6,3.99-1.22,8.12-1.3,12.19-.38,20.02,13.82,39.41,33.03,45.09,10.91,3.23,22.6,2.3,33.9,1.4,4.24-.34,8.63-.69,12.92-.81,9.46-.28,32.47.86,42.01,17.34,10.52,18.19-3.32,40.21-7.82,46.52-2.94,4.13-6.22,8.15-9.39,12.04-7.11,8.72-14.46,17.74-18.28,28.38-5.58,15.54-2.69,34.04,7.37,47.14,10.06,13.09,27.21,20.65,43.65,19.26l.08,1c-1.33.11-2.66.17-3.99.17Z"/>
    <path class="cls-17" d="M289.23,392.2c-5.13-9.14-11.19-21.22-12.45-33.7-1.3-12.79,2.75-24.72,11.39-33.57,14.78-15.13,41.46-21.31,65.32-25.92,2.06-.4,4.13-.79,6.2-1.19,16.61-3.17,33.79-6.45,49.39-11.92,13.88-4.87,32.29-13.68,41.21-27.99,8.28-13.27,5.15-28.89-7.61-37.98-3.28-2.34-7.22-4.32-11.03-6.24-5.92-2.98-12.04-6.06-15.81-10.55-2.83-3.37-4.11-7.41-3.69-11.69.52-5.35,3.71-10.74,8.74-14.78,7.93-6.38,20.44-10.45,35.22-11.47,13.19-.91,26.46.54,39.29,1.94l-.11.99c-12.78-1.4-26-2.84-39.11-1.94-14.58,1.01-26.89,5-34.67,11.25-4.82,3.88-7.88,9.02-8.37,14.1-.39,4,.81,7.79,3.46,10.95,3.64,4.33,9.67,7.36,15.5,10.3,3.84,1.93,7.82,3.93,11.16,6.32,13.21,9.41,16.45,25.58,7.88,39.32-9.08,14.56-27.7,23.48-41.73,28.4-15.67,5.5-32.88,8.78-49.53,11.96-2.07.39-4.13.79-6.2,1.19-23.71,4.58-50.22,10.71-64.79,25.63-8.43,8.64-12.38,20.28-11.11,32.77,1.25,12.29,7.25,24.26,12.33,33.31l-.87.49Z"/>
    <g>
      <path class="cls-16" d="M438.26-2.06c-3.6,20.62-11.48,40.3-23,56.79-17.28,24.75-42.59,42.12-69.96,48.01-10.62,2.29-21.62,2.93-31.72,7.32-10.09,4.4-19.48,13.72-20.7,25.89-2.74,27.41,26.53,26.19,42.21,31.09,10.75,3.35,21.67,9.37,27.14,20.38,15.47,31.13-18.31,61.07-42.04,65.99-6.91,1.43-13.91,1.87-20.94,2.05-5.38.14-10.78.13-16.15.29-12.39.37-25.08,1.76-36.25,7.83-11.18,6.06-20.7,17.61-22.29,31.54-.89,7.8,1.31,16.05,5.66,22.15,4.59,6.45,11.37,7.19,15.45,13.5-1.31-.35-2.62-.57-3.95-.69-9.84-.91-20.23,3.66-29.64.03-10.84-4.18-16.68-18.77-14.88-31.59,1.8-12.81,9.71-23.63,19.02-31.17,9.31-7.55,20.08-12.4,30.45-17.88,7.86-4.15,15.84-8.99,20.93-16.93,12.2-19.02,1.62-34.18-13.86-44.43-11.63-7.69-26.03-12.61-35.63-14.31-2.39-.42-4.79-.79-7.2-1.1-21.28-2.8-43.08-1.98-63.58-8.92-10.53-3.56-22.25-12.38-20.91-24.74,1.54-14.18,18.41-18.91,24.38-31.49,4.09-8.6,2.16-19.6-2.62-27.74-4.78-8.13-11.99-13.97-19.1-19.5-22.47-17.48-45.69-33.71-69.55-48.62,1.1.69,39.8-27.32,44.74-29.68,16.48-7.9,33.88-13.36,51.6-16.22,35.96-5.83,70.78,2.15,105.93,9.56,1.1.24,2.2.47,3.31.7,12.27,2.53,24.63,4.39,37.03,5.58,18.35,1.77,36.81,2.05,55.22.78,13.26-.92,24.07-3.76,36.51-7.74,14.74-4.72,31.39-5.51,46.54-8.12.41,10.51-.32,21.07-2.12,31.39Z"/>
      <path class="cls-17" d="M438.26-2.06c-3.6,20.62-11.48,40.3-23,56.79-17.28,24.75-42.59,42.12-69.96,48.01-10.62,2.29-21.62,2.93-31.72,7.32-10.09,4.4-19.48,13.72-20.7,25.89-2.74,27.41,26.53,26.19,42.21,31.09,10.75,3.35,21.67,9.37,27.14,20.38,15.47,31.13-18.31,61.07-42.04,65.99-6.91,1.43-13.91,1.87-20.94,2.05-5.38.14-10.78.13-16.15.29-12.39.37-25.08,1.76-36.25,7.83-11.18,6.06-20.7,17.61-22.29,31.54-.89,7.8,1.31,16.05,5.66,22.15,4.59,6.45,11.37,7.19,15.45,13.5-1.31-.35-2.62-.57-3.95-.69l-25.53-18.11c-3.71-21.75,11.98-42.32,29.75-51.57,17.77-9.25,37.83-10.94,56.42-17.8,7.82-2.89,15.81-7.1,20.31-14.9,7.04-12.22,2.78-29.49-6.37-39.77-9.14-10.27-21.9-15.09-34.3-19.03-12.4-3.94-25.27-7.48-35.73-16.01-10.45-8.52-18.01-23.53-14.66-37.62,3.43-14.46,16.83-23.03,29.78-26.1,12.94-3.06,26.48-2.28,39.24-6.19,28.4-8.71,48.84-42.89,45.45-76,24.29-7.45,49.3-13.53,74.42-11.78,5.95.42,11.92,1.32,17.78,2.74Z"/>
      <path class="cls-17" d="M290.71,5.62c1.94,19.05-8.82,37.33-22.56,48.55-13.74,11.21-30.24,16.99-46.01,23.99-15.76,7-31.69,15.95-41.79,31.35-5.84,8.91-9.43,20.84-5.87,31.18,2.88,8.38,9.91,14.12,17.3,17.39,7.4,3.27,15.35,4.51,23.03,6.8,14.3,4.27,27.68,12.34,38.91,23.23-11.63-7.69-26.03-12.61-35.63-14.31-2.39-.42-4.79-.79-7.2-1.1-1.65-.37-3.31-.71-4.98-1-14.22-2.45-30.34-2.69-40.28-14.45-9.7-11.47-9.34-30.63-2.13-44.25,7.21-13.61,19.8-22.46,32.74-28.58,12.94-6.11,26.64-10.01,39.38-16.62,12.75-6.61,24.88-16.54,30.83-30.91,5.37-12.97,5.08-28.19,1.79-42.01-1.6-6.73-3.86-13.21-6.46-19.53,1.1.24,2.2.47,3.31.7,12.27,2.53,24.63,4.39,37.03,5.58l-11.4,23.99Z"/>
      <path class="cls-14" d="M250.16,334.05l-5.02-1.34c-1.17-.31-2.35-.52-3.61-.63-3.74-.35-7.54.14-11.58.66-6.14.79-12.5,1.6-18.6-.75-12.39-4.77-17.94-20.9-16.15-33.73,1.68-11.97,8.69-23.5,19.74-32.45,7.66-6.21,16.32-10.65,24.7-14.95,2.03-1.04,4.06-2.08,6.08-3.15,7.15-3.78,15.19-8.46,20.18-16.25,12.24-19.08-.46-33.2-13.28-41.68-11.93-7.89-26.24-12.48-34.87-14.01-2.36-.42-4.75-.78-7.11-1.09-6.71-.88-13.6-1.41-20.27-1.93-14.49-1.12-29.47-2.27-43.7-7.08-12.08-4.09-23.65-13.97-22.26-26.85.96-8.84,7.25-14.25,13.34-19.48,4.34-3.73,8.83-7.59,11.23-12.64,3.44-7.24,2.44-17.39-2.54-25.87-4.48-7.62-11.08-13.08-18.6-18.94-22.28-17.33-45.6-33.63-69.3-48.45-.03-.02-.06-.04-.09-.06l2.12-3.39c-.63-.39-1.27-.3-1.46-.22,1.72-.63,13.88-9.05,22.76-15.19,11.89-8.23,19.27-13.3,21.52-14.38,16.63-7.97,34.18-13.49,52.15-16.4,34.77-5.63,68.99,1.61,102.09,8.61l4.57.96c1.11.24,2.2.47,3.3.7,12.17,2.51,24.55,4.37,36.81,5.55,18.29,1.76,36.76,2.02,54.9.78,12.88-.89,23.33-3.59,36.03-7.65,10.13-3.24,21.14-4.66,31.79-6.04,4.99-.64,10.15-1.31,15.03-2.15l2.25-.39.09,2.28c.42,10.57-.31,21.28-2.15,31.81h0c-3.68,21.1-11.75,41.02-23.33,57.6-17.49,25.06-43.43,42.85-71.18,48.82-3.28.71-6.62,1.26-9.86,1.8-7.55,1.26-14.68,2.44-21.48,5.4-8.63,3.76-18.29,12.11-19.51,24.26-2.01,20.09,14.2,23.31,29.87,26.43,3.96.79,7.69,1.53,10.95,2.55,13.9,4.33,23.43,11.53,28.34,21.4,5.55,11.18,5.48,23.27-.21,34.97-8.85,18.19-28.44,30.81-43.22,33.87-7.56,1.56-15.01,1.93-21.3,2.09-2.57.07-5.15.1-7.72.13-2.76.03-5.62.07-8.42.15-11.18.33-24.13,1.49-35.36,7.58-11.73,6.36-19.87,17.86-21.26,30.01-.82,7.2,1.16,14.96,5.3,20.77,2.04,2.87,4.58,4.49,7.26,6.21,2.92,1.87,5.94,3.8,8.24,7.36l2.82,4.36ZM63.53,11.85c22.83,14.4,45.27,30.16,66.76,46.88,7.57,5.88,14.76,11.85,19.59,20.06,5.64,9.59,6.7,21.21,2.71,29.61-2.76,5.81-7.58,9.96-12.23,13.96-5.75,4.95-11.18,9.62-11.97,16.88-1.15,10.67,9,19.05,19.56,22.63,13.76,4.65,28.48,5.79,42.72,6.88,6.72.52,13.67,1.05,20.48,1.95,2.41.31,4.87.69,7.29,1.11,9.01,1.6,23.94,6.39,36.38,14.61,20.23,13.39,25.36,30.15,14.44,47.18-5.51,8.6-14.08,13.61-21.68,17.62-2.03,1.07-4.07,2.12-6.12,3.17-8.2,4.2-16.67,8.55-24.01,14.5-5.94,4.81-16.22,15.1-18.3,29.9-1.77,12.66,4.34,25.87,13.62,29.44,5.17,1.99,10.75,1.27,16.66.52,3.56-.46,7.21-.92,10.87-.78-1.06-.82-2.2-1.55-3.36-2.29-2.89-1.85-5.87-3.76-8.36-7.26-4.69-6.59-6.94-15.39-6.01-23.54,1.53-13.43,10.47-26.1,23.32-33.07,11.97-6.49,25.5-7.72,37.15-8.07,2.83-.08,5.71-.12,8.49-.15,2.56-.03,5.12-.06,7.67-.13,6.11-.15,13.34-.51,20.59-2.01,13.48-2.79,32.24-14.85,40.43-31.71,5.13-10.54,5.2-21.41.22-31.44-4.4-8.85-13.13-15.37-25.95-19.36-3.05-.95-6.69-1.68-10.54-2.44-14.95-2.98-35.43-7.05-33.07-30.75,1.39-13.86,12.22-23.31,21.89-27.53,7.25-3.15,14.96-4.44,22.42-5.68,3.19-.53,6.49-1.08,9.68-1.77,26.77-5.76,51.82-22.96,68.74-47.2,11.25-16.1,19.09-35.47,22.67-55.99h0c1.67-9.51,2.39-19.15,2.17-28.7-4.26.68-8.66,1.25-12.93,1.8-10.47,1.35-21.3,2.75-31.08,5.88-12.99,4.15-23.7,6.91-36.98,7.83-18.35,1.26-37.05,1-55.55-.79-12.4-1.19-24.92-3.07-37.24-5.61-1.12-.23-2.23-.47-3.33-.71l-4.55-.96c-32.74-6.93-66.6-14.09-100.62-8.58-17.59,2.85-34.77,8.25-51.06,16.05-2.12,1.02-12.13,7.95-20.97,14.06-11.26,7.79-17.26,11.91-20.62,13.98Z"/>
    </g>
    <g>
      <path class="cls-7" d="M352.25,359.21c0-3.24-2.63-5.86-5.86-5.86h-46.36v52.23h26.91v-28.95h19.45c3.24,0,5.86-2.63,5.86-5.86v-11.55Z"/>
      <path class="cls-5" d="M352.25,366.09c0-3.24-2.63-5.86-5.86-5.86h-46.36v45.35h26.91v-28.95h19.45c3.24,0,5.86-2.63,5.86-5.86v-4.67Z"/>
      <path class="cls-11" d="M326.94,407.57h-26.91c-1.1,0-2-.9-2-2v-52.23c0-1.1.9-2,2-2h46.36c4.34,0,7.86,3.53,7.86,7.86v11.55c0,4.34-3.53,7.86-7.86,7.86h-17.45v26.95c0,1.1-.9,2-2,2ZM302.02,403.57h22.91v-26.95c0-1.1.9-2,2-2h19.45c2.13,0,3.86-1.73,3.86-3.86v-11.55c0-2.13-1.73-3.86-3.86-3.86h-44.36v48.23Z"/>
      <circle class="cls-6" cx="289.8" cy="308.16" r="41.64"/>
      <circle class="cls-13" cx="293.61" cy="311.98" r="37.83"/>
      <circle class="cls-7" cx="289.8" cy="308.16" r="19.69"/>
      <path class="cls-11" d="M289.8,351.8c-24.06,0-43.64-19.58-43.64-43.64s19.58-43.64,43.64-43.64,43.64,19.58,43.64,43.64-19.58,43.64-43.64,43.64ZM289.8,268.52c-21.86,0-39.64,17.78-39.64,39.64s17.78,39.64,39.64,39.64,39.64-17.78,39.64-39.64-17.78-39.64-39.64-39.64Z"/>
      <path class="cls-6" d="M176.63,288.21h100.88c12.67,0,22.96,10.29,22.96,22.96v79.59h-146.81v-79.59c0-12.67,10.29-22.96,22.96-22.96Z"/>
      <path class="cls-7" d="M178.66,295.73h104.24c9.7,0,17.57,7.87,17.57,17.57v77.46h-139.39v-77.46c0-9.7,7.87-17.57,17.57-17.57Z"/>
      <path class="cls-13" d="M178.66,295.73h98.3c9.7,0,17.57,7.87,17.57,17.57v77.46h-133.44v-77.46c0-9.7,7.87-17.57,17.57-17.57Z"/>
      <rect class="cls-6" x="174.61" y="292.74" width="25.88" height="92.08"/>
      <rect class="cls-6" x="212.49" y="292.74" width="3.59" height="92.08"/>
      <path class="cls-11" d="M300.47,392.76h-146.81c-1.1,0-2-.9-2-2v-79.59c0-13.76,11.2-24.96,24.96-24.96h100.88c13.76,0,24.96,11.2,24.96,24.96v79.59c0,1.1-.9,2-2,2ZM155.66,388.76h142.81v-77.59c0-11.56-9.4-20.96-20.96-20.96h-100.88c-11.56,0-20.96,9.4-20.96,20.96v77.59Z"/>
      <path class="cls-12" d="M144.53,418.11h210.93v169.37c0,4.03-3.27,7.3-7.3,7.3h-196.34c-4.03,0-7.3-3.27-7.3-7.3v-169.37h0Z"/>
      <path class="cls-15" d="M237.83,418.11h116.35v169.37c0,4.03-3.27,7.3-7.3,7.3h-101.76c-4.03,0-7.3-3.27-7.3-7.3v-169.37h0Z"/>
      <path class="cls-4" d="M171.72,418.11h18.6v169.37c0,4.03-3.27,7.3-7.3,7.3h-4.01c-4.03,0-7.3-3.27-7.3-7.3v-169.37h0Z"/>
      <path class="cls-2" d="M288.8,418.11h46.13v169.37c0,4.03-3.27,7.3-7.3,7.3h-31.54c-4.03,0-7.3-3.27-7.3-7.3v-169.37h0Z"/>
      <path class="cls-1" d="M348.17,596.77h-196.34c-5.12,0-9.29-4.17-9.29-9.3v-169.37c0-1.1.9-2,2-2h210.93c1.1,0,2,.9,2,2v169.37c0,5.13-4.17,9.3-9.29,9.3ZM146.53,420.11v167.37c0,2.92,2.38,5.3,5.29,5.3h196.34c2.92,0,5.29-2.38,5.29-5.3v-167.37h-206.93Z"/>
      <path class="cls-6" d="M151.83,386.26h196.34c4.03,0,7.3,3.27,7.3,7.3v24.56h-210.93v-24.56c0-4.03,3.27-7.3,7.3-7.3Z"/>
      <path class="cls-13" d="M155.36,393.1h195.97c2.28,0,4.14,1.85,4.14,4.14v20.87h-204.24v-20.87c0-2.28,1.85-4.14,4.14-4.14Z"/>
      <rect class="cls-7" x="305.1" y="392.99" width="38.43" height="24.44"/>
      <rect class="cls-6" x="167.44" y="392.99" width="28.93" height="24.44"/>
      <rect class="cls-6" x="203.55" y="392.99" width="4.76" height="24.44"/>
      <path class="cls-11" d="M355.47,420.11h-210.93c-1.1,0-2-.9-2-2v-24.56c0-5.13,4.17-9.3,9.29-9.3h196.34c5.12,0,9.29,4.17,9.29,9.3v24.56c0,1.1-.9,2-2,2ZM146.53,416.11h206.93v-22.56c0-2.92-2.38-5.3-5.29-5.3h-196.34c-2.92,0-5.29,2.38-5.29,5.3v22.56Z"/>
      <rect class="cls-7" x="255.51" y="361.56" width="25.47" height="13.02"/>
    </g>
  </g>
  <g>
    <path class="cls-14" d="M192.86,633.84c0-.62.17-1.11.52-1.46.34-.35.83-.52,1.47-.52h4.64c1.44,0,2.67.14,3.69.41,1.02.27,1.86.65,2.51,1.12.65.48,1.12,1.05,1.42,1.7s.45,1.37.45,2.14c0,.58-.08,1.12-.24,1.62-.16.5-.39.95-.69,1.35-.3.4-.66.75-1.08,1.05s-.9.53-1.43.71v.05c.63.12,1.21.3,1.73.57.52.27.96.6,1.33,1.01.36.41.65.88.84,1.41.2.54.3,1.13.3,1.79,0,.95-.18,1.82-.54,2.62-.36.8-.91,1.5-1.66,2.09-.75.59-1.69,1.05-2.84,1.38-1.15.33-2.52.5-4.1.5h-4.33c-.64,0-1.12-.17-1.47-.52-.34-.35-.52-.84-.52-1.46v-17.56ZM199.24,640.71c.69,0,1.28-.07,1.78-.22.5-.15.9-.35,1.22-.6.32-.25.56-.56.71-.91.16-.35.24-.74.24-1.16s-.07-.79-.21-1.12c-.14-.33-.37-.62-.68-.86-.31-.24-.72-.42-1.21-.55-.5-.13-1.09-.2-1.79-.2h-2.16v5.62h2.12ZM199.39,650.15c.79,0,1.47-.08,2.04-.23.57-.16,1.03-.38,1.4-.66.36-.28.63-.61.8-1,.17-.38.26-.81.26-1.27s-.08-.88-.24-1.25c-.16-.38-.42-.7-.77-.96-.35-.27-.82-.47-1.39-.62-.57-.15-1.27-.22-2.09-.22h-2.27v6.2h2.27Z"/>
    <path class="cls-14" d="M211.94,639.26c0-.59.17-1.05.52-1.38s.88-.49,1.61-.49,1.25.16,1.6.49c.35.33.52.79.52,1.38v7.42c0,1.27.25,2.19.74,2.76.49.57,1.17.85,2.04.85.28,0,.54-.03.78-.09.24-.06.46-.15.67-.26.21-.11.4-.23.57-.37.17-.13.33-.28.48-.42.32-.33.6-.71.83-1.14v-8.75c0-.59.17-1.05.52-1.38.35-.33.88-.49,1.6-.49s1.27.16,1.61.49.52.79.52,1.38v12.52c0,.57-.15,1.01-.45,1.31-.3.3-.74.45-1.31.45-.28,0-.53-.03-.74-.1-.21-.07-.4-.17-.55-.3-.15-.13-.27-.29-.37-.48s-.16-.4-.2-.64l-.12-.78h-.06c-.3.46-.68.87-1.14,1.22-.2.16-.42.31-.67.45-.25.15-.53.28-.84.39s-.65.21-1.02.27c-.37.07-.77.1-1.21.1-.91,0-1.72-.14-2.45-.42-.72-.28-1.34-.7-1.86-1.25-.52-.55-.91-1.23-1.19-2.04-.28-.81-.41-1.74-.41-2.79v-7.92Z"/>
    <path class="cls-14" d="M231.14,639.1c0-.57.15-1.01.45-1.31s.74-.45,1.31-.45c.28,0,.53.03.74.1.21.07.4.17.55.3.15.13.27.29.37.48.09.19.16.41.2.65l.2,1.14h.05c.2-.41.43-.78.69-1.13.26-.35.55-.65.88-.9.32-.25.67-.45,1.04-.59.37-.14.76-.21,1.16-.21.59,0,1.05.16,1.38.48.32.32.48.82.48,1.5,0,.79-.15,1.4-.45,1.84-.3.43-.66.65-1.08.65-.12,0-.22-.01-.31-.04-.09-.03-.19-.05-.27-.08-.09-.03-.18-.05-.27-.08-.09-.03-.2-.04-.33-.04-.25,0-.5.07-.74.2-.25.13-.47.3-.69.51-.21.21-.41.45-.6.71s-.35.54-.5.82v7.97c0,.59-.17,1.05-.52,1.38-.35.33-.88.49-1.6.49s-1.25-.16-1.6-.49c-.35-.33-.52-.79-.52-1.38v-12.52Z"/>
    <path class="cls-14" d="M243.06,639.1c0-.57.15-1.01.45-1.31s.74-.45,1.31-.45c.28,0,.53.03.74.1.21.07.4.17.55.3.16.13.28.29.38.48s.16.4.19.62l.12.8h.06c.3-.46.68-.86,1.14-1.22.2-.16.42-.31.67-.45.25-.15.53-.28.84-.39.31-.11.65-.21,1.02-.27.37-.07.77-.1,1.21-.1.92,0,1.74.14,2.48.42.74.28,1.37.7,1.89,1.25.52.55.92,1.23,1.2,2.04.28.81.41,1.74.41,2.79v7.92c0,.59-.17,1.05-.52,1.38-.35.33-.88.49-1.6.49s-1.25-.16-1.6-.49c-.35-.33-.52-.79-.52-1.38v-7.42c0-.63-.07-1.18-.2-1.64-.13-.46-.32-.83-.56-1.12-.25-.29-.54-.5-.9-.64-.35-.13-.76-.2-1.2-.2-.28,0-.54.03-.78.1-.24.07-.47.15-.68.26-.21.1-.41.23-.58.37s-.33.28-.46.41c-.33.34-.61.72-.83,1.14v8.75c0,.59-.17,1.05-.52,1.38-.35.33-.88.49-1.6.49s-1.25-.16-1.6-.49c-.35-.33-.52-.79-.52-1.38v-12.52Z"/>
    <path class="cls-14" d="M261.22,645.71c0-1.33.19-2.53.58-3.59.38-1.06.94-1.95,1.66-2.69.72-.73,1.6-1.29,2.63-1.68,1.03-.38,2.19-.58,3.48-.58,1.2,0,2.28.19,3.26.57.97.38,1.81.92,2.51,1.62.7.7,1.24,1.54,1.62,2.52.38.98.57,2.08.57,3.27,0,1.33-.19,2.53-.58,3.59-.39,1.06-.94,1.95-1.66,2.69s-1.59,1.29-2.62,1.68-2.19.58-3.48.58c-1.2,0-2.29-.19-3.27-.57-.98-.38-1.82-.92-2.52-1.62-.7-.7-1.24-1.54-1.62-2.52-.38-.98-.57-2.07-.57-3.28ZM265.55,645.4c0,.83.1,1.56.3,2.19s.48,1.15.83,1.57c.35.42.76.74,1.23.95.47.21.97.32,1.52.32s1.03-.1,1.49-.31c.46-.21.87-.52,1.21-.93.34-.41.61-.93.8-1.55.19-.62.29-1.35.29-2.18s-.1-1.55-.3-2.17-.48-1.15-.83-1.57c-.35-.42-.76-.74-1.23-.95-.47-.21-.97-.32-1.5-.32s-1.04.1-1.51.31c-.46.21-.87.52-1.21.93-.34.41-.61.93-.8,1.55-.19.62-.29,1.34-.29,2.16Z"/>
    <path class="cls-14" d="M281.03,639.26c0-.59.17-1.05.52-1.38s.88-.49,1.61-.49,1.25.16,1.6.49c.35.33.52.79.52,1.38v7.42c0,1.27.25,2.19.74,2.76.49.57,1.17.85,2.04.85.28,0,.54-.03.78-.09.24-.06.46-.15.67-.26.21-.11.4-.23.57-.37.17-.13.33-.28.48-.42.32-.33.6-.71.83-1.14v-8.75c0-.59.17-1.05.52-1.38.35-.33.88-.49,1.6-.49s1.27.16,1.61.49.52.79.52,1.38v12.52c0,.57-.15,1.01-.45,1.31-.3.3-.74.45-1.31.45-.28,0-.53-.03-.74-.1-.21-.07-.4-.17-.55-.3-.15-.13-.27-.29-.37-.48s-.16-.4-.2-.64l-.12-.78h-.06c-.3.46-.68.87-1.14,1.22-.2.16-.42.31-.67.45-.25.15-.53.28-.84.39s-.65.21-1.02.27c-.37.07-.77.1-1.21.1-.91,0-1.72-.14-2.45-.42-.72-.28-1.34-.7-1.86-1.25-.52-.55-.91-1.23-1.19-2.04-.28-.81-.41-1.74-.41-2.79v-7.92Z"/>
    <path class="cls-14" d="M299.67,640.66c-.42,0-.75-.13-1.01-.41-.26-.27-.38-.67-.38-1.19s.13-.9.38-1.17c.25-.27.59-.41,1.01-.41h1.38l.5-2.64c.11-.59.33-1.03.65-1.31.32-.28.74-.42,1.27-.42s.96.15,1.25.45c.29.3.44.73.44,1.29v2.64h2.64c.42,0,.75.14,1.01.41.25.27.38.66.38,1.17s-.13.92-.38,1.19c-.26.27-.59.41-1.01.41h-2.64v7.52c0,.74.12,1.27.38,1.58s.63.47,1.16.47c.19,0,.35,0,.49-.03.14-.02.27-.05.38-.08.11-.03.22-.06.31-.08.09-.02.19-.03.3-.03.17,0,.32.03.46.09s.26.15.36.26c.1.11.18.24.23.4.06.16.09.33.09.52,0,.29-.05.54-.14.74s-.23.39-.41.57c-.1.1-.25.21-.43.33-.18.12-.41.22-.67.31s-.58.17-.93.23c-.35.06-.76.09-1.2.09-1.58,0-2.75-.38-3.5-1.13-.75-.75-1.12-1.91-1.12-3.46v-8.3h-1.23Z"/>
  </g>
</svg>