<?xml version="1.0" encoding="UTF-8"?>
<svg id="Expanded" xmlns="http://www.w3.org/2000/svg" xmlns:xlink="http://www.w3.org/1999/xlink" viewBox="0 0 500 700">
  <defs>
    <style>
      .cls-1 {
        fill: #ffa9c2;
      }

      .cls-2 {
        fill: #3d1170;
      }

      .cls-3 {
        fill: #3288d6;
      }

      .cls-4 {
        fill: #a152db;
      }

      .cls-5 {
        fill: #fff;
      }

      .cls-6 {
        fill: #7a1859;
      }

      .cls-7 {
        fill: #fff8d9;
      }

      .cls-8 {
        fill: #f4b545;
      }

      .cls-9 {
        fill: none;
      }

      .cls-10 {
        fill: #f47aa0;
      }

      .cls-11 {
        clip-path: url(#clippath-1);
      }

      .cls-12 {
        fill: #e9f1f4;
      }

      .cls-13 {
        fill: #6d3108;
      }

      .cls-14 {
        fill: #666;
      }

      .cls-15 {
        fill: #b52880;
      }

      .cls-16 {
        fill: #79cdf6;
      }

      .cls-17 {
        fill: #ffe277;
      }

      .cls-18 {
        fill: #333;
      }

      .cls-19 {
        fill: #47acea;
      }

      .cls-20 {
        fill: #6129a3;
      }

      .cls-21 {
        fill: #8942c5;
      }

      .cls-22 {
        fill: #dd4a8c;
      }

      .cls-23 {
        fill: #d27cf2;
      }

      .cls-24 {
        clip-path: url(#clippath);
      }
    </style>
    <clipPath id="clippath">
      <rect class="cls-9" x="664" y="68" width="572" height="468" rx="32" ry="32" transform="translate(1252 -648) rotate(90)"/>
    </clipPath>
    <clipPath id="clippath-1">
      <rect class="cls-9" x="-36" y="68" width="572" height="468" rx="32" ry="32" transform="translate(552 52) rotate(90)"/>
    </clipPath>
  </defs>
  <g>
    <g>
      <path class="cls-12" d="M48,699.5c-26.19,0-47.5-21.31-47.5-47.5V48C.5,21.81,21.81.5,48,.5h404c8.33,0,16.53,2.19,23.71,6.33,14.67,8.47,23.79,24.24,23.79,41.17v604c0,26.19-21.31,47.5-47.5,47.5H48Z"/>
      <path class="cls-18" d="M452,1c8.25,0,16.36,2.17,23.46,6.27,14.52,8.38,23.54,23.98,23.54,40.73v604c0,25.92-21.08,47-47,47H48c-25.92,0-47-21.08-47-47V48C1,22.08,22.08,1,48,1h404M452,0H48C21.49,0,0,21.49,0,48v604c0,26.51,21.49,48,48,48h404c26.51,0,48-21.49,48-48V48c0-17.79-9.67-33.31-24.04-41.6-7.05-4.07-15.23-6.4-23.96-6.4h0Z"/>
    </g>
    <path class="cls-5" d="M500,48v374.52L0,539.11V117.39L475.96,6.4c14.37,8.29,24.04,23.81,24.04,41.6Z"/>
    <path class="cls-5" d="M500,459.42v140.57l-428.9,100.01h-23.1c-26.51,0-48-21.49-48-48v-75.99l500-116.59Z"/>
    <path class="cls-18" d="M452,1c25.92,0,47,21.08,47,47v604c0,25.92-21.08,47-47,47H48c-25.92,0-47-21.08-47-47V48C1,22.08,22.08,1,48,1h404M452,0H48C21.49,0,0,21.49,0,48v604c0,26.51,21.49,48,48,48h404c26.51,0,48-21.49,48-48V48c0-26.51-21.49-48-48-48h0Z"/>
    <g>
      <rect class="cls-5" x="15" y="15" width="470" height="574" rx="33" ry="33"/>
      <path class="cls-18" d="M452,16c17.67,0,32,14.33,32,32v508c0,17.67-14.33,32-32,32H48c-17.67,0-32-14.33-32-32V48c0-17.67,14.33-32,32-32h404M452,14H48c-18.75,0-34,15.25-34,34v508c0,18.75,15.25,34,34,34h404c18.75,0,34-15.25,34-34V48c0-18.75-15.25-34-34-34h0Z"/>
    </g>
  </g>
  <g class="cls-24">
    <ellipse class="cls-14" cx="950" cy="225.27" rx="514.62" ry="285.73"/>
    <g>
      <g id="_x3C_Radial_Repeat_x3E_">
        <rect class="cls-5" x="491.71" y="293.38" width="440.48" height="1" transform="translate(-51.08 188.85) rotate(-14.59)"/>
      </g>
      <g id="_x3C_Radial_Repeat_x3E_-2" data-name="_x3C_Radial_Repeat_x3E_">
        <polygon class="cls-5" points="924.17 231.51 483.69 228.48 483.7 227.48 924.17 230.51 924.17 231.51"/>
      </g>
    </g>
  </g>
  <g class="cls-11">
    <rect class="cls-3" x="-12.02" y="-40.81" width="527.89" height="664.02"/>
    <circle class="cls-19" cx="174.33" cy="190.05" r="345.29"/>
    <circle class="cls-16" cx="176.44" cy="190.05" r="123.15"/>
    <g>
      <g id="_x3C_Radial_Repeat_x3E_-3" data-name="_x3C_Radial_Repeat_x3E_">
        <rect class="cls-5" x="-99.38" y="483.22" width="526.72" height="1" transform="translate(-320.85 644.4) rotate(-89.61)"/>
      </g>
      <g id="_x3C_Radial_Repeat_x3E_-4" data-name="_x3C_Radial_Repeat_x3E_">
        <rect class="cls-5" x="-145.57" y="479.28" width="526.72" height="1" transform="translate(-374.78 517.72) rotate(-80.61)"/>
      </g>
      <g id="_x3C_Radial_Repeat_x3E_-5" data-name="_x3C_Radial_Repeat_x3E_">
        <rect class="cls-5" x="-190.58" y="468.15" width="526.72" height="1" transform="translate(-394.92 389.92) rotate(-71.62)"/>
      </g>
      <g id="_x3C_Radial_Repeat_x3E_-6" data-name="_x3C_Radial_Repeat_x3E_">
        <rect class="cls-5" x="-233.3" y="450.12" width="526.72" height="1" transform="translate(-383.88 270) rotate(-62.61)"/>
      </g>
      <g id="_x3C_Radial_Repeat_x3E_-7" data-name="_x3C_Radial_Repeat_x3E_">
        <rect class="cls-5" x="-272.67" y="425.64" width="526.72" height="1" transform="translate(-346.96 165.99) rotate(-53.64)"/>
      </g>
      <g id="_x3C_Radial_Repeat_x3E_-8" data-name="_x3C_Radial_Repeat_x3E_">
        <rect class="cls-5" x="-307.73" y="395.29" width="526.72" height="1" transform="translate(-290.71 82.84) rotate(-44.6)"/>
      </g>
      <g id="_x3C_Radial_Repeat_x3E_-9" data-name="_x3C_Radial_Repeat_x3E_">
        <rect class="cls-5" x="-337.61" y="359.83" width="526.72" height="1" transform="translate(-223.86 24.23) rotate(-35.64)"/>
      </g>
      <g id="_x3C_Radial_Repeat_x3E_-10" data-name="_x3C_Radial_Repeat_x3E_">
        <rect class="cls-5" x="-361.57" y="320.14" width="526.72" height="1" transform="translate(-154.19 -10) rotate(-26.64)"/>
      </g>
      <g id="_x3C_Radial_Repeat_x3E_-11" data-name="_x3C_Radial_Repeat_x3E_">
        <rect class="cls-5" x="-379.03" y="277.18" width="526.72" height="1" transform="translate(-89.49 -21.99) rotate(-17.62)"/>
      </g>
      <g id="_x3C_Radial_Repeat_x3E_-12" data-name="_x3C_Radial_Repeat_x3E_">
        <rect class="cls-5" x="-389.55" y="232.03" width="526.72" height="1" transform="translate(-36.42 -16.34) rotate(-8.65)"/>
      </g>
      <g id="_x3C_Radial_Repeat_x3E_-13" data-name="_x3C_Radial_Repeat_x3E_">
        <rect class="cls-5" x="-130.02" y="-77.08" width="1" height="526.72" transform="translate(-314.95 55.55) rotate(-89.63)"/>
      </g>
      <g id="_x3C_Radial_Repeat_x3E_-14" data-name="_x3C_Radial_Repeat_x3E_">
        <rect class="cls-5" x="-126.07" y="-123.28" width="1" height="526.72" transform="translate(-243.33 -6.63) rotate(-80.63)"/>
      </g>
      <g id="_x3C_Radial_Repeat_x3E_-15" data-name="_x3C_Radial_Repeat_x3E_">
        <rect class="cls-5" x="-114.95" y="-168.29" width="1" height="526.72" transform="translate(-168.59 -43.51) rotate(-71.63)"/>
      </g>
      <g id="_x3C_Radial_Repeat_x3E_-16" data-name="_x3C_Radial_Repeat_x3E_">
        <rect class="cls-5" x="-96.92" y="-211.01" width="1" height="526.72" transform="translate(-98.58 -57.34) rotate(-62.63)"/>
      </g>
      <g id="_x3C_Radial_Repeat_x3E_-17" data-name="_x3C_Radial_Repeat_x3E_">
        <rect class="cls-5" x="-72.43" y="-250.38" width="1" height="526.72" transform="translate(-39.72 -52.63) rotate(-53.63)"/>
      </g>
      <g id="_x3C_Radial_Repeat_x3E_-18" data-name="_x3C_Radial_Repeat_x3E_">
        <rect class="cls-5" x="-42.08" y="-285.43" width="1" height="526.72" transform="translate(3.52 -35.57) rotate(-44.63)"/>
      </g>
      <g id="_x3C_Radial_Repeat_x3E_-19" data-name="_x3C_Radial_Repeat_x3E_">
        <rect class="cls-5" x="-6.63" y="-315.31" width="1" height="526.72" transform="translate(29.11 -13.29) rotate(-35.63)"/>
      </g>
      <g id="_x3C_Radial_Repeat_x3E_-20" data-name="_x3C_Radial_Repeat_x3E_">
        <rect class="cls-5" x="33.07" y="-339.27" width="1" height="526.72" transform="translate(37.58 6.99) rotate(-26.63)"/>
      </g>
      <g id="_x3C_Radial_Repeat_x3E_-21" data-name="_x3C_Radial_Repeat_x3E_">
        <rect class="cls-5" x="76.02" y="-356.73" width="1" height="526.72" transform="translate(31.87 18.79) rotate(-17.63)"/>
      </g>
      <g id="_x3C_Radial_Repeat_x3E_-22" data-name="_x3C_Radial_Repeat_x3E_">
        <rect class="cls-5" x="121.18" y="-367.25" width="1" height="526.72" transform="translate(16.96 17.07) rotate(-8.63)"/>
      </g>
      <g id="_x3C_Radial_Repeat_x3E_-23" data-name="_x3C_Radial_Repeat_x3E_">
        <rect class="cls-5" x="-95.43" y="-107.72" width="526.72" height="1" transform="translate(274 61.43) rotate(-89.61)"/>
      </g>
      <g id="_x3C_Radial_Repeat_x3E_-24" data-name="_x3C_Radial_Repeat_x3E_">
        <rect class="cls-5" x="-49.23" y="-103.78" width="526.72" height="1" transform="translate(281.09 124.83) rotate(-80.61)"/>
      </g>
      <g id="_x3C_Radial_Repeat_x3E_-25" data-name="_x3C_Radial_Repeat_x3E_">
        <rect class="cls-5" x="-4.22" y="-92.65" width="526.72" height="1" transform="translate(264.87 182.82) rotate(-71.62)"/>
      </g>
      <g id="_x3C_Radial_Repeat_x3E_-26" data-name="_x3C_Radial_Repeat_x3E_">
        <rect class="cls-5" x="38.5" y="-74.62" width="526.72" height="1" transform="translate(228.93 228.02) rotate(-62.63)"/>
      </g>
      <g id="_x3C_Radial_Repeat_x3E_-27" data-name="_x3C_Radial_Repeat_x3E_">
        <rect class="cls-5" x="77.87" y="-50.13" width="526.72" height="1" transform="translate(178.81 254.53) rotate(-53.62)"/>
      </g>
      <g id="_x3C_Radial_Repeat_x3E_-28" data-name="_x3C_Radial_Repeat_x3E_">
        <rect class="cls-5" x="112.92" y="-19.79" width="526.72" height="1" transform="translate(122.11 258.85) rotate(-44.64)"/>
      </g>
      <g id="_x3C_Radial_Repeat_x3E_-29" data-name="_x3C_Radial_Repeat_x3E_">
        <rect class="cls-5" x="142.8" y="15.67" width="526.72" height="1" transform="translate(66.56 239.55) rotate(-35.62)"/>
      </g>
      <g id="_x3C_Radial_Repeat_x3E_-30" data-name="_x3C_Radial_Repeat_x3E_">
        <rect class="cls-5" x="166.76" y="55.37" width="526.72" height="1" transform="translate(20.49 198.43) rotate(-26.59)"/>
      </g>
      <g id="_x3C_Radial_Repeat_x3E_-31" data-name="_x3C_Radial_Repeat_x3E_">
        <rect class="cls-5" x="184.22" y="98.32" width="526.72" height="1" transform="translate(-8.91 140.13) rotate(-17.62)"/>
      </g>
      <g id="_x3C_Radial_Repeat_x3E_-32" data-name="_x3C_Radial_Repeat_x3E_">
        <rect class="cls-5" x="194.74" y="143.48" width="526.72" height="1" transform="translate(-16.45 70.56) rotate(-8.65)"/>
      </g>
      <g id="_x3C_Radial_Repeat_x3E_-33" data-name="_x3C_Radial_Repeat_x3E_">
        <rect class="cls-5" x="460.93" y="-73.14" width="1" height="526.72" transform="translate(268.2 650.4) rotate(-89.63)"/>
      </g>
      <g id="_x3C_Radial_Repeat_x3E_-34" data-name="_x3C_Radial_Repeat_x3E_">
        <rect class="cls-5" x="456.98" y="-26.94" width="1" height="526.72" transform="translate(149.7 649.28) rotate(-80.63)"/>
      </g>
      <g id="_x3C_Radial_Repeat_x3E_-35" data-name="_x3C_Radial_Repeat_x3E_">
        <rect class="cls-5" x="445.86" y="18.07" width="1" height="526.72" transform="translate(38.57 616.32) rotate(-71.63)"/>
      </g>
      <g id="_x3C_Radial_Repeat_x3E_-36" data-name="_x3C_Radial_Repeat_x3E_">
        <rect class="cls-5" x="427.83" y="60.79" width="1" height="526.72" transform="translate(-56.47 555.47) rotate(-62.63)"/>
      </g>
      <g id="_x3C_Radial_Repeat_x3E_-37" data-name="_x3C_Radial_Repeat_x3E_">
        <rect class="cls-5" x="403.34" y="100.16" width="1" height="526.72" transform="translate(-128.35 473.09) rotate(-53.63)"/>
      </g>
      <g id="_x3C_Radial_Repeat_x3E_-38" data-name="_x3C_Radial_Repeat_x3E_">
        <rect class="cls-5" x="372.99" y="135.22" width="1" height="526.72" transform="translate(-172.32 377.27) rotate(-44.63)"/>
      </g>
      <g id="_x3C_Radial_Repeat_x3E_-39" data-name="_x3C_Radial_Repeat_x3E_">
        <rect class="cls-5" x="337.54" y="165.09" width="1" height="526.72" transform="translate(-186.3 277.09) rotate(-35.63)"/>
      </g>
      <g id="_x3C_Radial_Repeat_x3E_-40" data-name="_x3C_Radial_Repeat_x3E_">
        <rect class="cls-5" x="297.84" y="189.06" width="1" height="526.72" transform="translate(-171.12 181.68) rotate(-26.63)"/>
      </g>
      <g id="_x3C_Radial_Repeat_x3E_-41" data-name="_x3C_Radial_Repeat_x3E_">
        <rect class="cls-5" x="254.89" y="206.51" width="1" height="526.72" transform="translate(-130.29 99.39) rotate(-17.63)"/>
      </g>
      <g id="_x3C_Radial_Repeat_x3E_-42" data-name="_x3C_Radial_Repeat_x3E_">
        <rect class="cls-5" x="209.73" y="217.04" width="1" height="526.72" transform="translate(-69.67 36.96) rotate(-8.63)"/>
      </g>
    </g>
    <circle class="cls-5" cx="176.44" cy="190.05" r="75.08"/>
    <g>
      <path class="cls-21" d="M286.57,499.44c-15.37-18.44-38.71-28.82-62.34-33.06-23.63-4.24-47.87-2.93-71.84-1.6-1.41,25.57,11.17,51.47,32.13,66.18,20.96,14.71,49.6,17.72,73.16,7.7,9.84-4.18,18.94-10.66,24.79-19.6"/>
      <path class="cls-4" d="M152.88,465.16s40.11,44.04,123.38,52.27l7.42-21.42s-15.08-22.43-59.45-29.63c-44.37-7.19-71.35-1.22-71.35-1.22Z"/>
      <path class="cls-20" d="M271.14,519.06s-.09,0-.13,0c-43.45-5.8-85.87-24.51-119.45-52.68-.42-.35-.48-.99-.12-1.41.36-.42.99-.48,1.41-.12,33.29,27.93,75.35,46.48,118.43,52.23.55.07.93.58.86,1.12-.07.5-.5.87-.99.87Z"/>
      <path class="cls-20" d="M253.28,515.46c-.46,0-.88-.32-.98-.79-3.17-14.74-7.5-29.36-12.89-43.45-.2-.52.06-1.09.58-1.29.52-.2,1.09.06,1.29.58,5.42,14.18,9.79,28.9,12.98,43.74.12.54-.23,1.07-.77,1.19-.07.02-.14.02-.21.02Z"/>
      <path class="cls-20" d="M173.09,521.85c-.48,0-.9-.34-.98-.83-.09-.54.27-1.06.81-1.16,17.37-3,34.58-7.57,51.16-13.56.52-.19,1.09.08,1.28.6.19.52-.08,1.09-.6,1.28-16.69,6.03-34.01,10.63-51.5,13.65-.06,0-.12.01-.17.01Z"/>
      <path class="cls-20" d="M198.8,497c-.43,0-.82-.27-.95-.7l-9.92-31.63c-.17-.53.13-1.09.66-1.25.53-.17,1.09.13,1.25.65l9.92,31.63c.17.53-.13,1.09-.66,1.25-.1.03-.2.05-.3.05Z"/>
      <path class="cls-21" d="M357.65,439.58c30.6-15.9,66.38-18.46,100.84-17.04-3.99,28.51-8.43,58.19-24.86,81.82-14.99,21.57-39.59,36.18-65.7,39.04-17.72,1.94-55.72-.89-63.34-21.25-6.67-17.82,10.27-44.67,21.19-57.37,8.88-10.32,19.8-18.93,31.87-25.2Z"/>
      <path class="cls-4" d="M345.79,496.57c14.84-6.07,31.57-14.29,44.98-23.21,12.08-8.04,22.3-14.89,33.6-23.98,10.56-8.49,24.5-17.29,34.11-26.84-33.29-1.08-71.35,1.72-100.84,17.04-12.08,6.27-23,14.88-31.87,25.2-8.81,10.24-21.52,29.68-22.62,46.16,14.64-3.85,28.63-8.64,42.64-14.37Z"/>
      <path class="cls-23" d="M323.95,480.19s41.94-52.92,132.67-55.92c0,0-89.89-10.92-133.3,43.48l.63,12.44Z"/>
      <path class="cls-20" d="M316.69,509.28c-.41,0-.8-.26-.94-.67-.18-.52.09-1.09.61-1.28,51.94-18.36,100.76-47.86,141.19-85.29.4-.38,1.04-.35,1.41.05.38.4.35,1.04-.05,1.41-40.62,37.61-89.69,67.25-141.88,85.71-.11.04-.22.06-.33.06Z"/>
      <path class="cls-20" d="M404.94,531.9c-.09,0-.18-.01-.27-.04-27.82-7.66-56.86-18.91-76.32-27-.51-.21-.75-.8-.54-1.31.21-.51.8-.75,1.31-.54,19.41,8.07,48.36,19.28,76.08,26.92.53.15.84.7.7,1.23-.12.44-.52.73-.96.73Z"/>
      <path class="cls-20" d="M371.15,485.36c-.08,0-.16,0-.24-.03-.54-.13-.86-.67-.73-1.21l13.63-55.13c.13-.54.67-.86,1.21-.73.54.13.86.67.73,1.21l-13.63,55.13c-.11.46-.52.76-.97.76Z"/>
      <path class="cls-20" d="M450.93,464.26s-.09,0-.13,0l-36.52-4.92c-.55-.07-.93-.58-.86-1.12.07-.55.56-.93,1.12-.86l36.52,4.92c.55.07.93.58.86,1.12-.07.5-.5.87-.99.87Z"/>
      <path class="cls-2" d="M228.4,546.49c-15.97,0-31.98-4.74-45.04-13.9-21.48-15.07-34.42-41.73-32.97-67.93.06-1.02.87-1.83,1.89-1.89,23.75-1.31,48.32-2.68,72.3,1.63,26.84,4.81,49.4,16.8,63.53,33.75.71.85.59,2.11-.26,2.82-.85.71-2.11.59-2.82-.26-13.53-16.23-35.25-27.73-61.16-32.37-22.92-4.11-46.6-2.94-69.57-1.67-.7,24.27,11.47,48.7,31.35,62.65,20.37,14.29,48.33,17.24,71.23,7.49,10.48-4.46,18.75-10.98,23.9-18.85.6-.92,1.84-1.18,2.77-.58.92.6,1.18,1.84.58,2.77-5.59,8.54-14.47,15.57-25.68,20.34-9.47,4.03-19.75,6-30.06,6Z"/>
      <path class="cls-2" d="M357.8,545.88c-18.38,0-47.98-4.04-55.09-23.03-7.07-18.88,10.22-46.2,21.55-59.37,8.96-10.41,20.18-19.29,32.47-25.67h0c34.3-17.82,74.55-18.39,101.84-17.26.56.02,1.09.28,1.45.72.36.43.52,1,.44,1.56-3.82,27.26-8.15,58.15-25.2,82.68-15.33,22.06-40.42,36.96-67.13,39.88-2.62.29-6.19.49-10.34.49ZM358.57,441.35c-11.84,6.15-22.66,14.7-31.28,24.73-10.02,11.64-27.26,38.2-20.83,55.36,7.24,19.35,44.39,21.81,61.25,19.96,25.57-2.79,49.6-17.07,64.27-38.19,16.06-23.11,20.53-52.5,24.22-78.77-26.76-.98-65.08,0-97.63,16.9h0Z"/>
      <path class="cls-21" d="M323.13,470.19c-4.76,55.25-30.26,108.46-70.35,146.77l-19.04-1.13-30.15-1.8c43.82-33.98,74.68-84.28,85.09-138.74,3.22-16.81,4.48-33.97,3.85-51.07-1.39-38.3-12.23-76.28-31.72-109.29l18.07-1.37c32.96,44.6,49,101.39,44.25,156.63Z"/>
      <path class="cls-4" d="M233.74,615.83l-15.49-.92-14.66-.88c43.82-33.98,74.68-84.28,85.09-138.74,2.41-12.63,3.73-25.45,3.97-38.29.08-4.26.04-8.52-.12-12.78,9.05,5.28,15.41,5.01,15.41,5.01,5.38,95.4-52.46,164.25-74.2,186.6Z"/>
      <path class="cls-23" d="M218.28,614.9h-.03s-14.66-.87-14.66-.87c43.82-33.98,74.68-84.28,85.09-138.74,2.41-12.63,3.73-25.45,3.97-38.29l1.68.67s21.22,77.76-76.05,177.23Z"/>
      <path class="cls-2" d="M252.78,618.96s-.08,0-.12,0l-49.18-2.93c-.83-.05-1.54-.61-1.79-1.41-.25-.8.03-1.66.69-2.17,43.31-33.58,74.06-83.71,84.35-137.54,10.3-53.83.22-111.77-27.64-158.96-.35-.59-.37-1.33-.05-1.94.32-.61.93-1.02,1.62-1.07l18.07-1.37c.69-.05,1.35.25,1.76.81,33.14,44.85,49.41,102.43,44.63,157.99-4.78,55.56-30.64,109.52-70.96,148.04-.37.36-.87.55-1.38.55ZM208.93,612.34l43.09,2.57c39.26-37.82,64.44-90.58,69.11-144.89,4.67-54.24-11.08-110.44-43.21-154.38l-13.79,1.04c27.12,47.51,36.79,105.25,26.51,158.98-10.15,53.05-39.82,102.58-81.72,136.68Z"/>
      <path class="cls-10" d="M308.16,126.37c33.33,10.02,38.65,43.24,24.85,56.66-30.63,29.78-49.01,75.01-64.71,69.34-35.77-12.9-47.47-63.27-35.67-90.85s39.11-46.09,75.53-35.15Z"/>
      <path class="cls-1" d="M237.76,153.21c11.38-15.46,31.71-22.92,50.84-21.31,19.13,1.6,36.94,11.37,50.89,24.56-6.92-15.3-20.86-27.24-37.04-31.73s-34.28-1.45-48.1,8.09"/>
      <path class="cls-22" d="M236.73,204.76c10.32,2.62,21.9-.43,29.59-7.79,1.21,4.33,4.31,8.1,8.33,10.12s8.89,2.27,13.09.66c-4.66,5.64-7.77,12.55-8.9,19.77-7.41.75-14.88-.15-22.32-.42-7.44-.27-15.14.15-21.88,3.31"/>
      <path class="cls-6" d="M271.16,254.88c-1.17,0-2.35-.2-3.53-.63-14.78-5.33-26.97-17.56-34.3-34.42-8.52-19.58-9.51-42.78-2.53-59.1,13.96-32.63,43.82-46.53,77.95-36.27,16.9,5.08,28.68,16.54,32.32,31.44,2.69,11.02.14,21.97-6.65,28.57-12.42,12.08-22.78,26.68-31.91,39.56-12.48,17.6-21.89,30.86-31.34,30.86ZM287.16,125.09c-26.72,0-44.39,17.8-52.69,37.21-6.47,15.12-5.45,37.6,2.52,55.94,6.89,15.84,18.25,27.3,31.99,32.25.66.24,1.33.35,2.03.35,7.56,0,17.21-13.6,28.22-29.13,9.23-13.02,19.7-27.78,32.39-40.11,5.78-5.62,7.91-15.1,5.55-24.75-3.29-13.49-14.08-23.9-29.58-28.56-7.3-2.2-14.12-3.19-20.42-3.19Z"/>
      <path class="cls-10" d="M220.9,262.78c-9.5,9.37-34.18-10.08-64.29-25.52-7.55-3.87-15.43-7.49-23.51-10.34-5.69-2-10.49-6.56-13.6-12.59-6.8-13.2-5.48-33.43,12.42-49.26,28.48-25.2,60.46-20.36,83.31.27,3.26,2.95,6.27,6.55,8.95,10.64,3.35,5.11,6.17,10.98,8.31,17.27,7.83,23,6.56,51.63-11.59,69.53Z"/>
      <path class="cls-1" d="M224.18,175.98c-12.94-7.61-27.16-13.56-42.11-14.98-15.04-1.42-30.92,2.11-42.57,11.73-11.64,9.61-18.23,25.77-14.48,40.4l-5.52,1.2c-6.8-13.2-5.48-33.43,12.42-49.26,28.48-25.2,60.46-20.36,83.31.27,3.26,2.95,6.27,6.55,8.95,10.64Z"/>
      <path class="cls-22" d="M171.87,223.34c7.13,3.29,15.63,3.47,22.9.48,7.26-2.99,13.17-9.11,15.92-16.47,3.69,3.81,9.51,5.41,14.64,4.02,5.12-1.39,9.34-5.71,10.6-10.86,3.15,8.5,6.33,17.1,7.32,26.11,1,9.01-.39,18.61-5.68,25.97-6.65,9.25-19.37,13.64-30.31,10.46"/>
      <path class="cls-6" d="M214.32,267.27c-8.65,0-20.92-7.06-36.34-15.91-13.69-7.87-29.21-16.79-45.55-22.55-8.94-3.15-15.84-12.02-18.01-23.15-2.94-15.05,2.96-30.39,16.17-42.09h0c26.68-23.61,59.63-23.5,85.97.28,13.18,11.9,21.99,33.38,22.46,54.73.41,18.38-5.53,34.59-16.72,45.62-2.16,2.13-4.84,3.07-7.99,3.07ZM173.09,150.02c-12.77,0-26.45,4.69-39.84,16.55h0c-12.13,10.73-17.56,24.7-14.9,38.32,1.9,9.75,7.81,17.47,15.41,20.15,16.69,5.88,32.37,14.9,46.21,22.85,18.03,10.36,33.6,19.31,39.52,13.46,10.4-10.26,15.91-25.42,15.53-42.69-.44-19.99-8.94-40.83-21.14-51.85-10.7-9.66-25.05-16.8-40.8-16.8Z"/>
      <path class="cls-10" d="M435.96,196.89c3.41,15.53-.83,32.12-55.62,44.15-54.79,12.03-102.52,56.07-108.58,28.47-6.06-27.6,21.27-93.62,76.06-105.65,54.79-12.03,85.01,18.79,88.14,33.03Z"/>
      <path class="cls-1" d="M310.96,184.01c19.41-13.55,44.26-19.05,67.57-14.95,23.31,4.09,44.8,17.73,58.43,37.08-1.69-12.65-9.5-24.02-19.82-31.52-10.32-7.5-22.96-11.36-35.66-12.63-19.25-1.93-39.05,1.96-56.15,11.03"/>
      <path class="cls-22" d="M286.36,211.34c11.2,3.37,24.12.17,32.45-8.04-2.35,6.47,1.36,13.9,6.94,17.91,5.59,4.01,12.62,5.33,19.43,6.3,15.83,2.24,31.99,3.09,47.8.71,15.81-2.38,31.33-8.12,43.86-18.05-7.2,13.62-22.72,22.61-37.57,26.71-19.23,5.31-38.01,1.78-56.58,9.06-19.44-11.57-39.94-21.36-61.15-29.22"/>
      <path class="cls-6" d="M282.26,280.46c-2.25,0-4.26-.39-6.02-1.25-3.26-1.59-5.43-4.71-6.43-9.27-3.32-15.11,2.89-39.27,15.45-60.12,8.88-14.75,28.76-40.58,62.13-47.91,30.61-6.72,52.14.02,64.82,6.86,15.38,8.29,23.99,19.89,25.7,27.7h0c3.52,16.03-.51,34.1-57.14,46.54-22.09,4.85-43.48,15.18-60.67,23.48-16.28,7.86-28.96,13.98-37.85,13.98ZM371.67,163.17c-7.22,0-15.03.81-23.42,2.65-31.9,7.01-51.01,31.87-59.56,46.06-12.07,20.04-18.08,43.03-14.97,57.2.74,3.35,2.13,5.49,4.27,6.53,6.99,3.39,22.46-4.08,40.38-12.74,17.38-8.39,39-18.83,61.55-23.78,53.04-11.65,57.34-26.96,54.09-41.77-2.53-11.5-24.1-34.16-62.34-34.16Z"/>
      <path class="cls-22" d="M440.11,295.01c1.25,34.78-21.14,67.73-53.71,41.81-53.15-42.29-101.53-22.17-101.07-38.86,1.05-38.03,52.66-65.36,87.68-63.1,35.93,2.32,65.73,22.14,67.1,60.14Z"/>
      <path class="cls-10" d="M325.47,287.17c2.33,0,5.03-1.23,7.5-1.14,21.13.76,38.89,13.19,50.73,30.5,4.53,6.63,8.45,14.32,15.6,17.98,10.35,5.3,23.67-.53,30.32-10.08,11.56-16.6,9.67-38.58,1.89-56.19-7.04-15.95-27.12-27.58-43.45-30.91-14.1-2.87-28.69-1.01-42.88,1.37-7.88,1.32-16.34,3.13-21.68,9.07-7.38,8.21-5.99,20.78-4.14,31.67.48,2.84,2,7.28,5.44,7.69.22.03.45.04.68.04Z"/>
      <path class="cls-1" d="M394.5,248.82c19.26,7.91,35.65,22.63,45.57,40.94-1.28-15.59-9.81-30.2-22-39.99-12.19-9.8-27.8-14.94-43.42-15.61-3.09,0-6.17.07-9.26.25-5.33.3-10.72.72-15.97,1.76-1.92.38-3.88.83-5.63,1.71-3.36,1.68-7.32,2.55-10.91,3.72.29,1.56.76,3.37,2.23,3.97,1.09.45,2.32.04,3.43-.33,11.38-3.79,23.77-3.94,35.54-2.1,7,1.09,13.87,2.99,20.43,5.68Z"/>
      <path class="cls-6" d="M408.73,348.13c-6.44,0-14.36-2.41-23.57-9.74-31.32-24.92-60.47-27.8-79.76-29.7-12.94-1.28-22.3-2.2-22.06-10.77.38-13.96,7.33-27.48,20.07-39.11,18.34-16.73,47.02-27.39,69.73-25.93,41.26,2.66,67.69,26.44,68.97,62.07h0c.83,23.11-8.05,43.4-22.09,50.49-2.99,1.51-6.78,2.7-11.3,2.7ZM368.85,236.74c-20.99,0-46.21,9.94-62.74,25.02-11.93,10.88-18.42,23.42-18.77,36.27-.12,4.45,4.69,5.32,18.46,6.68,18.56,1.83,49.61,4.9,81.86,30.56,11.08,8.82,21.66,11.1,30.57,6.6,12.48-6.29,20.66-25.53,19.89-46.77h0c-1.43-39.92-34.64-56.25-65.23-58.22-1.33-.09-2.67-.13-4.04-.13Z"/>
      <path class="cls-10" d="M46.18,283.28c3.41,15.53,14.19,28.82,68.83,16.83,54.64-12,116.28,8.02,110.22-19.58-6.06-27.6-58.43-76.12-113.07-64.12s-69.11,52.64-65.98,66.87Z"/>
      <path class="cls-1" d="M163.34,221.96c-12.85-4.61-27.02-5.1-40.36-2.2-13.34,2.9-25.86,9.1-36.78,17.29-9.49,7.12-17.91,15.83-23.79,26.14s-9.13,22.26-8.24,34.09c-7.92-4.66-11.48-14.75-10.39-23.88s6.07-17.35,11.95-24.41c20.62-24.77,54.19-38.11,86.18-34.23"/>
      <path class="cls-22" d="M189.41,240.42c1.12-.57,2.4-1.36,2.46-2.62.06-1.31-1.24-2.22-2.38-2.87-3.85-2.17-7.7-4.35-11.55-6.52-.21,4.5-2.1,8.91-5.22,12.17-2.56,2.67-5.92,4.55-9.53,5.35-2.02.45-3.72.16-5.72-.28-1.69-.37-4.1-.68-5.57-1.6,2.87,1.8,6.12,4.37,5.66,7.73-.28,2.03-1.9,3.6-3.57,4.78-4.77,3.36-10.79,4.9-16.59,4.23,5.01,1.17,8.95,5.94,9.14,11.08s-3.38,10.19-8.29,11.73c5.53-1.59,11.51,2.22,16.33-.92,2.18-1.42,3.42-3.87,4.65-6.17,7.42-13.9,16.1-29,30.17-36.09Z"/>
      <path class="cls-6" d="M79.59,306.75c-7.6,0-13.88-.95-18.91-2.86-11.62-4.4-14.89-13.09-16.45-20.18h0c-1.71-7.81,1.23-21.94,11.68-35.9,8.62-11.51,25.3-26.65,55.83-33.35,33.27-7.31,62.09,7.83,76.3,17.51,20.1,13.68,35.83,33.03,39.15,48.13,1,4.57.35,8.31-1.95,11.12-6.14,7.49-22.45,7.19-45.04,6.78-19.03-.35-42.72-.78-64.75,4.06-14.24,3.13-26.13,4.69-35.85,4.69ZM48.13,282.85c2.02,9.18,6.19,14.35,13.96,17.29,10.73,4.06,27.9,3.41,52.49-1.99,22.49-4.94,46.44-4.5,65.68-4.15,19.84.36,36.97.67,41.88-5.32,1.51-1.84,1.88-4.37,1.14-7.73-3.11-14.18-18.18-32.54-37.49-45.68-13.68-9.31-41.38-23.9-73.2-16.91-52.69,11.57-67.46,50.82-64.46,64.49h0Z"/>
      <path class="cls-10" d="M73.07,375.61c13.44,32.11,47.57,52.64,66.29,15.46,30.54-60.66,82.9-62.67,75.49-77.63-16.88-34.09-75.2-37.28-106.05-20.56-31.66,17.16-50.41,47.64-35.73,82.72Z"/>
      <path class="cls-1" d="M130.16,287.48c-20.22,6.87-37.36,22.35-46.25,41.77-8.89,19.42-9.39,42.51-1.36,62.3-11-11.11-15.03-25.93-14.53-41.55s6.9-31.65,18.59-42.03c7.85-6.98,16.05-11.83,25.49-16.43"/>
      <path class="cls-22" d="M181.38,274.42l-42.49,8.41c2.1,3.5,3.09,8.98,1.68,12.88-.8,2.2-2.04,4.32-3.36,6.25-.49.71-3.53,5.34-4.4,5.17,7.02,1.43,12.11,7.13,14.41,13.75,1.46,4.23,1.91,8.74,2.08,13.21.77,20.37-5.11,40.07-11.22,59.28.47-.81.96-1.62,1.48-2.41,3.19-4.87,6.38-9.73,9.57-14.6,2.3-3.51,3.02-7.05,4.32-10.95,1.2-3.62,2.69-7.15,4.42-10.56,3.47-6.81,7.94-13.1,13.2-18.64,6.36-6.7,13.9-12.3,22.21-16.35-12.03-11.31-16.84-29.69-11.89-45.44Z"/>
      <path class="cls-6" d="M113.34,412.99c-.31,0-.61,0-.91-.02-15.72-.55-32.28-15.25-41.21-36.59-13.76-32.88.27-65.55,36.62-85.25,20.01-10.85,50.51-13.18,74.18-5.67,16.45,5.22,28.42,14.59,34.61,27.1,3.81,7.68-4.3,12.44-15.52,19.02-16.72,9.81-41.98,24.64-59.98,60.39-8.67,17.22-19.74,21.02-27.8,21.02ZM152.04,285.06c-15.34,0-30.67,3.29-42.29,9.58-26.95,14.61-50.26,43.35-34.83,80.19h0c8.21,19.61,23.69,33.65,37.66,34.14,10,.37,18.63-6.15,25-18.8,18.53-36.81,45.44-52.6,61.52-62.04,11.93-7,15.93-9.81,13.96-13.8-5.7-11.52-16.85-20.18-32.24-25.06-8.92-2.83-18.85-4.21-28.78-4.21Z"/>
      <path class="cls-22" d="M184.12,433.08c16.68,7.48,78.71,10.84,79.74-31.05,1.52-61.51,3.22-78.41-26.22-92.55-13.76-6.61-67.58,9.2-83.36,48.01-15.78,38.82.03,62.22,29.84,75.58Z"/>
      <path class="cls-10" d="M148.32,377.99c-1.18,13.24,4.02,26.9,13.69,36.01,9.67,9.11,23.62,13.48,36.76,11.52,16.73-2.5,30.85-14.62,39.52-29.14,8.67-14.53,12.64-31.33,15.77-47.95,1.29-6.86,2.47-13.83,2.05-20.8s-2.57-14.04-7.22-19.25c-7.97-8.94-21.79-10.59-33.26-7.14-11.47,3.45-21.14,11.08-30.45,18.62-8.15,6.6-16.32,13.31-22.91,21.47-6.59,8.15-11.58,17.95-12.37,28.4"/>
      <path class="cls-6" d="M212.47,439.64c-12.25,0-23.37-2.13-29.17-4.73h0c-16.34-7.33-27.44-17.16-33.01-29.24-6.26-13.57-5.54-30.04,2.14-48.93,11.13-27.4,38.73-40.54,50.08-44.92,14.79-5.71,29.26-7.38,36-4.14,29.41,14.13,28.98,31.05,27.54,87.12l-.18,7.29c-.31,12.47-5.72,22.11-16.1,28.64-10.43,6.57-24.48,8.9-37.3,8.9ZM184.94,431.26c11.63,5.22,44.27,7.69,62.69-3.91,9.17-5.78,13.96-14.31,14.23-25.36l.18-7.29c1.42-55.49,1.8-70.4-25.27-83.41-4.67-2.25-16.94-1.87-32.82,4.27-10.86,4.19-37.27,16.75-47.81,42.7-13.71,33.72-4.01,58.29,28.8,73.01h0Z"/>
      <path class="cls-22" d="M362.12,394c-12.01,13.78-66.92,42.82-85.41,5.22-27.15-55.21-35.78-69.85-14.97-95.02,9.73-11.77,65.22-19.96,95.8,8.67,30.59,28.63,26.04,56.51,4.58,81.13Z"/>
      <path class="cls-10" d="M250.27,322.17c8.94-16.47,28.04-25.11,46.63-27.47,13.83-1.76,28.27-.6,41,5.08,12.73,5.69,23.6,16.21,28.05,29.43,5.63,16.71.06,36.27-12.64,48.5s-31.64,17.13-48.98,13.96c-17.34-3.17-32.89-13.93-43.2-28.24-8.73-12.12-18-28.13-10.87-41.26Z"/>
      <path class="cls-6" d="M307.4,419.74c-1.99,0-3.95-.12-5.88-.37-12.16-1.59-21.11-8.07-26.62-19.26l-3.22-6.54c-24.8-50.31-32.28-65.49-11.49-90.64,4.76-5.76,18.59-10.31,34.42-11.32,12.14-.78,42.71-.4,64.3,19.81,14.89,13.94,22.44,28.58,22.44,43.53,0,13.29-5.96,26.88-17.72,40.38h0c-7.86,9.01-33.56,24.42-56.22,24.42ZM301.33,295.39c-2.5,0-4.69.09-6.46.2-16.99,1.09-28.29,5.88-31.59,9.88-19.14,23.16-12.54,36.54,12,86.32l3.22,6.54c4.88,9.92,12.8,15.66,23.54,17.06,21.59,2.82,50.19-13.1,58.57-22.71h0c23.63-27.11,22.14-53.48-4.44-78.36-17.33-16.22-40.96-18.94-54.84-18.94Z"/>
      <path class="cls-8" d="M256.36,322.77c-50.6,11.12-96.54-2.25-102.6-29.85-.39-1.76-.61-3.54-.66-5.32-.23-8.07,2.91-16.34,8.76-24.21,13.09-17.67,39.78-33.37,72.55-40.56,26.31-5.78,51.37-4.94,70.2,1.08,10.97,3.5,19.83,8.77,25.61,15.5h0c3.39,3.95,5.7,8.39,6.78,13.27,6.06,27.6-30.04,58.98-80.64,70.09Z"/>
      <path class="cls-17" d="M247.33,297.12c-42.03,9.23-80.18-1.87-85.22-24.8-.64-2.94-.71-5.93-.25-8.93,13.09-17.67,39.78-33.37,72.55-40.56,26.31-5.78,51.37-4.94,70.2,1.08,5.04,4.14,8.44,9.19,9.71,14.99,5.03,22.93-24.96,48.99-66.99,58.22Z"/>
      <path class="cls-7" d="M330.22,239.41h0s-29.5-26.26-98.2-7.56c-68.7,18.71-78.91,55.75-78.91,55.75h-.01c-.23-8.07,2.91-16.34,8.76-24.21,13.09-17.67,39.78-33.37,72.55-40.56,26.31-5.78,51.37-4.94,70.2,1.08,10.97,3.5,19.83,8.77,25.61,15.5Z"/>
      <path class="cls-15" d="M387.66,264.6c-.19,0-.38-.05-.55-.17-14.35-9.6-32.76-12.25-49.24-7.1-.53.16-1.09-.13-1.25-.66-.17-.53.13-1.09.66-1.25,17.05-5.33,36.1-2.58,50.95,7.35.46.31.58.93.28,1.39-.19.29-.51.44-.83.44Z"/>
      <path class="cls-15" d="M359.36,278.47c-.22,0-.45-.07-.63-.23-6.19-5.09-14.32-7.89-22.36-7.7,0,0-.02,0-.03,0-.54,0-.99-.43-1-.98-.01-.55.42-1.01.97-1.02,8.48-.22,17.12,2.76,23.68,8.16.43.35.49.98.14,1.41-.2.24-.48.36-.77.36Z"/>
      <path class="cls-15" d="M113.88,267.65c-.39,0-.75-.22-.92-.6-.22-.51,0-1.1.51-1.32,15.79-6.92,33.76-8.69,50.61-4.98.54.12.88.65.76,1.19-.12.54-.66.88-1.19.76-16.43-3.62-33.97-1.89-49.38,4.86-.13.06-.27.08-.4.08Z"/>
      <path class="cls-15" d="M170.39,253.77c-.19,0-.39-.06-.56-.17-6.29-4.3-13.14-7.72-20.36-10.15-.52-.18-.8-.74-.63-1.27.18-.52.74-.81,1.27-.63,7.4,2.5,14.41,5.99,20.85,10.4.46.31.57.93.26,1.39-.19.28-.51.44-.83.44Z"/>
      <path class="cls-15" d="M300.45,223.07c-.19,0-.38-.05-.55-.17-.46-.3-.59-.92-.29-1.39,6.37-9.67,15.68-17.62,26.22-22.41.5-.23,1.1,0,1.32.5.23.5,0,1.1-.5,1.32-10.2,4.63-19.22,12.33-25.38,21.69-.19.29-.51.45-.84.45Z"/>
      <path class="cls-15" d="M261.94,219.21s-.08,0-.12,0c-.55-.06-.94-.56-.88-1.11,1.28-10.98,4.92-21.83,10.51-31.37.28-.48.89-.64,1.37-.36s.64.89.36,1.37c-5.46,9.3-9,19.88-10.25,30.59-.06.51-.49.88-.99.88Z"/>
      <path class="cls-15" d="M223.11,227.01c-.38,0-.75-.22-.91-.59-4.14-9.23-10.35-17.63-17.98-24.27-.42-.36-.46-.99-.1-1.41.37-.42,1-.46,1.41-.1,7.84,6.84,14.23,15.47,18.49,24.96.23.5,0,1.1-.5,1.32-.13.06-.27.09-.41.09Z"/>
      <path class="cls-15" d="M317.48,229.9c-.2,0-.41-.06-.58-.19-.45-.32-.55-.95-.23-1.4,3.94-5.48,9.14-10.12,15.03-13.42.48-.27,1.09-.1,1.36.39s.1,1.09-.38,1.36c-5.64,3.15-10.61,7.59-14.39,12.84-.2.27-.5.42-.81.42Z"/>
      <path class="cls-15" d="M334.72,333.94c-.33,0-.66-.17-.85-.47-7.72-12.3-19.52-21.72-33.22-26.53-.52-.18-.8-.75-.61-1.27.18-.52.75-.8,1.27-.61,14.13,4.96,26.29,14.68,34.25,27.36.29.47.15,1.08-.32,1.38-.17.1-.35.15-.53.15Z"/>
      <path class="cls-15" d="M290.61,335.23c-.28,0-.56-.12-.76-.35-4.7-5.47-8.59-11.58-11.57-18.15-.23-.5,0-1.1.5-1.32.5-.23,1.1,0,1.32.5,2.9,6.4,6.69,12.34,11.27,17.67.36.42.31,1.05-.11,1.41-.19.16-.42.24-.65.24Z"/>
      <path class="cls-15" d="M183.2,360.83s-.09,0-.13,0c-.55-.07-.93-.58-.86-1.12,1.79-13.18,8.57-25.75,18.62-34.47.42-.36,1.05-.32,1.41.1.36.42.32,1.05-.1,1.41-9.68,8.41-16.22,20.52-17.95,33.23-.07.5-.5.87-.99.87Z"/>
      <path class="cls-15" d="M213.74,355.01h-.02c-.55,0-.99-.46-.98-1.02.15-9.3,1.88-18.43,5.15-27.14.2-.52.77-.78,1.29-.58.52.19.78.77.58,1.29-3.19,8.49-4.88,17.4-5.02,26.47,0,.55-.46.98-1,.98Z"/>
      <path class="cls-15" d="M133.3,337.57c-.16,0-.32-.04-.47-.12-.49-.26-.67-.86-.41-1.35,6.44-12.12,16.76-22.16,29.05-28.27.5-.25,1.09-.04,1.34.45s.04,1.09-.45,1.34c-11.92,5.92-21.93,15.66-28.18,27.42-.18.34-.53.53-.88.53Z"/>
      <path class="cls-15" d="M128.08,311.67c-.27,0-.54-.11-.73-.32-.38-.41-.35-1.04.05-1.41,7.65-7.08,17.56-11.64,27.92-12.85.55-.06,1.04.33,1.11.88.06.55-.33,1.04-.88,1.11-9.93,1.16-19.45,5.54-26.79,12.33-.19.18-.44.27-.68.27Z"/>
      <path class="cls-13" d="M221.32,328.7c-12.04,0-23.41-1.47-33.53-4.42-20.11-5.85-32.89-16.84-35.99-30.94-3.1-14.1,3.91-29.43,19.72-43.17,15.48-13.45,37.66-23.86,62.45-29.31,24.79-5.44,49.29-5.29,68.99.44,20.11,5.85,32.89,16.84,35.99,30.94h0c3.1,14.1-3.91,29.43-19.72,43.17-15.48,13.45-37.66,23.86-62.45,29.31-12.06,2.65-24.06,3.97-35.46,3.97ZM269.45,220.9c-11.11,0-22.82,1.29-34.61,3.88-24.15,5.3-45.7,15.4-60.69,28.42-14.65,12.74-21.2,26.69-18.43,39.29,2.77,12.6,14.56,22.53,33.2,27.95,19.06,5.55,42.86,5.68,67.01.38s45.7-15.4,60.69-28.42c14.65-12.74,21.2-26.69,18.43-39.29h0c-2.77-12.6-14.56-22.53-33.2-27.95-9.75-2.84-20.75-4.26-32.4-4.26Z"/>
      <path class="cls-15" d="M338.23,213.87c-.4,0-.78-.25-.93-.64-.2-.52.06-1.09.58-1.29l4.35-1.66c.52-.2,1.09.06,1.29.58.2.52-.06,1.09-.58,1.29l-4.35,1.66c-.12.04-.24.07-.36.07Z"/>
      <path class="cls-15" d="M142.4,241.62c-.1,0-.21-.02-.31-.05l-5.13-1.7c-.52-.17-.81-.74-.63-1.26.17-.52.74-.81,1.26-.63l5.13,1.7c.52.17.81.74.63,1.26-.14.42-.53.69-.95.69Z"/>
      <path class="cls-15" d="M128.79,346.01c-.16,0-.32-.04-.47-.12-.49-.26-.67-.87-.41-1.35l2.32-4.32c.26-.49.87-.67,1.35-.41.49.26.67.87.41,1.35l-2.32,4.32c-.18.34-.53.53-.88.53Z"/>
      <path class="cls-15" d="M213.83,366.03c-.52,0-.96-.41-1-.94l-.2-3.22c-.03-.55.38-1.03.94-1.06.55-.03,1.03.39,1.06.94l.2,3.22c.03.55-.38,1.03-.94,1.06-.02,0-.04,0-.06,0Z"/>
      <path class="cls-15" d="M368.37,284.1c-.19,0-.39-.06-.56-.17l-3.05-2.09c-.46-.31-.57-.93-.26-1.39.31-.46.94-.57,1.39-.26l3.05,2.09c.46.31.57.93.26,1.39-.19.28-.51.44-.83.44Z"/>
    </g>
  </g>
  <g>
    <path class="cls-18" d="M122.94,635.35c-.47,0-.84-.14-1.11-.43-.27-.29-.41-.73-.41-1.32s.14-1.03.41-1.32c.27-.29.64-.43,1.11-.43h14.2c.47,0,.84.14,1.11.43.27.29.41.73.41,1.32s-.14,1.03-.41,1.32c-.27.29-.64.43-1.11.43h-4.92v16.22c0,.62-.18,1.09-.53,1.42-.36.33-.9.5-1.65.5s-1.29-.17-1.65-.5c-.36-.33-.53-.81-.53-1.42v-16.22h-4.92Z"/>
    <path class="cls-18" d="M141.02,632.1c0-.59.17-1.05.52-1.38.35-.33.88-.49,1.6-.49s1.25.16,1.6.49c.35.33.52.79.52,1.38v4.7c0,.41-.01.8-.03,1.18-.02.38-.06.79-.11,1.23h.05c.3-.38.67-.71,1.11-1,.19-.12.4-.25.63-.37.23-.12.49-.23.78-.33.29-.1.6-.18.93-.23.33-.06.7-.09,1.09-.09.92,0,1.74.14,2.48.42.74.28,1.37.7,1.89,1.25.52.55.92,1.23,1.2,2.04.28.81.41,1.74.41,2.79v7.92c0,.59-.17,1.05-.52,1.38-.35.33-.88.49-1.6.49s-1.25-.16-1.6-.49c-.35-.33-.52-.79-.52-1.38v-7.42c0-.63-.07-1.18-.2-1.64-.13-.46-.32-.83-.56-1.12-.25-.29-.54-.5-.9-.64-.35-.13-.76-.2-1.2-.2-.28,0-.54.03-.78.1-.24.07-.47.15-.68.26-.21.1-.41.23-.58.37s-.33.28-.46.41c-.33.34-.61.72-.83,1.14v8.75c0,.59-.17,1.05-.52,1.38-.35.33-.88.49-1.6.49s-1.25-.16-1.6-.49c-.35-.33-.52-.79-.52-1.38v-19.52Z"/>
    <path class="cls-18" d="M163.41,646.32v.03c.06.65.21,1.22.44,1.72.23.5.53.92.91,1.27.38.34.84.6,1.37.78.53.18,1.12.27,1.78.27.54,0,1.01-.04,1.4-.11.39-.07.73-.15,1.02-.24.29-.09.55-.17.77-.24.22-.07.43-.11.63-.11s.38.04.53.11c.16.07.29.17.4.29.11.12.19.26.25.41.06.16.09.32.09.5,0,.26-.04.49-.12.68-.08.19-.22.38-.41.57-.16.16-.39.32-.69.49-.3.17-.67.33-1.12.47-.44.14-.96.26-1.55.35-.59.09-1.24.14-1.96.14-1.24,0-2.35-.18-3.34-.54-.99-.36-1.83-.88-2.52-1.55s-1.21-1.48-1.58-2.44c-.37-.95-.55-2.02-.55-3.21,0-1.38.2-2.62.59-3.71.39-1.09.93-2.01,1.63-2.76.7-.75,1.53-1.32,2.51-1.72.97-.4,2.04-.59,3.21-.59,1,0,1.91.16,2.72.47s1.5.76,2.08,1.35c.57.59,1.02,1.3,1.33,2.15s.47,1.8.47,2.88c0,.78-.18,1.36-.54,1.73s-.87.56-1.54.56h-8.22ZM169.75,643.6c-.14-1.17-.45-2.03-.95-2.58-.5-.55-1.2-.83-2.1-.83-.38,0-.73.07-1.08.2-.34.13-.66.33-.95.61-.29.28-.53.63-.74,1.05-.21.43-.37.94-.48,1.55h6.3Z"/>
    <path class="cls-18" d="M197.19,649.88c.47,0,.84.14,1.12.43.28.29.41.73.41,1.32s-.14,1.03-.41,1.32c-.27.29-.65.43-1.12.43h-9.33c-.64,0-1.12-.17-1.47-.52-.34-.35-.52-.84-.52-1.46v-17.73c0-.61.18-1.09.53-1.42.35-.33.9-.5,1.64-.5s1.3.17,1.66.5c.35.33.53.81.53,1.42v16.22h6.95Z"/>
    <path class="cls-18" d="M210.17,643.23c0-.5-.06-.92-.17-1.28-.12-.35-.3-.64-.55-.86-.26-.22-.59-.39-1.02-.5-.42-.11-.94-.16-1.54-.16-.65,0-1.2.05-1.65.14s-.85.2-1.18.32c-.33.12-.62.23-.87.32-.25.09-.48.14-.7.14-.38,0-.69-.12-.93-.36-.25-.24-.37-.59-.37-1.05,0-.24.04-.45.11-.62.07-.18.2-.35.38-.53.17-.17.43-.34.8-.53.37-.19.82-.36,1.34-.52.53-.16,1.13-.29,1.8-.39.68-.1,1.41-.16,2.2-.16,2.18,0,3.81.47,4.91,1.41,1.09.94,1.64,2.32,1.64,4.12v5.11c0,.71.03,1.28.09,1.72.06.44.12.8.18,1.09.06.29.12.53.18.73.06.19.09.4.09.62s-.04.42-.12.61c-.08.19-.2.35-.36.49s-.35.25-.59.33-.5.12-.8.12c-.32,0-.61-.05-.87-.15-.26-.1-.48-.24-.67-.41-.19-.18-.35-.39-.48-.63-.13-.24-.24-.51-.32-.8h-.05c-.32.41-.71.77-1.17,1.08-.4.27-.89.52-1.49.73-.6.22-1.3.33-2.12.33-.87,0-1.64-.12-2.32-.37-.68-.25-1.26-.58-1.73-1.02-.47-.43-.84-.95-1.09-1.54s-.38-1.24-.38-1.94c0-.75.17-1.41.5-1.99.33-.57.8-1.05,1.41-1.43.6-.38,1.33-.67,2.19-.86.85-.19,1.81-.29,2.86-.29.44,0,.83.02,1.18.05.35.03.65.06.9.09.29.04.55.09.78.14v-1.29ZM210.17,647.26c-.21-.05-.44-.1-.69-.14-.22-.04-.47-.08-.77-.11-.29-.03-.62-.05-.98-.05-1.04,0-1.82.15-2.32.44-.51.29-.76.72-.76,1.28,0,.27.05.52.16.75.1.23.25.43.45.59.2.17.44.3.73.4.29.1.63.15,1.02.15.5,0,.95-.09,1.34-.27.39-.18.72-.37.99-.58.31-.25.59-.53.83-.84v-1.62Z"/>
    <path class="cls-18" d="M218.33,640.66c-.42,0-.75-.13-1.01-.41-.26-.27-.38-.67-.38-1.19s.13-.9.38-1.17c.25-.27.59-.41,1.01-.41h1.38l.5-2.64c.11-.59.33-1.03.65-1.31.32-.28.74-.42,1.27-.42s.96.15,1.25.45c.29.3.44.73.44,1.29v2.64h2.64c.42,0,.75.14,1.01.41.25.27.38.66.38,1.17s-.13.92-.38,1.19c-.26.27-.59.41-1.01.41h-2.64v7.52c0,.74.12,1.27.38,1.58s.63.47,1.16.47c.19,0,.35,0,.49-.03.14-.02.27-.05.38-.08.11-.03.22-.06.31-.08.09-.02.19-.03.3-.03.17,0,.32.03.46.09s.26.15.36.26c.1.11.18.24.23.4.06.16.09.33.09.52,0,.29-.05.54-.14.74s-.23.39-.41.57c-.1.1-.25.21-.43.33-.18.12-.41.22-.67.31s-.58.17-.93.23c-.35.06-.76.09-1.2.09-1.58,0-2.75-.38-3.5-1.13-.75-.75-1.12-1.91-1.12-3.46v-8.3h-1.23Z"/>
    <path class="cls-18" d="M233.86,646.32v.03c.06.65.21,1.22.44,1.72.23.5.53.92.91,1.27.38.34.84.6,1.37.78.53.18,1.12.27,1.78.27.54,0,1.01-.04,1.4-.11.39-.07.73-.15,1.02-.24.29-.09.55-.17.77-.24.22-.07.43-.11.63-.11s.38.04.53.11c.16.07.29.17.4.29.11.12.19.26.25.41.06.16.09.32.09.5,0,.26-.04.49-.12.68-.08.19-.22.38-.41.57-.16.16-.39.32-.69.49-.3.17-.67.33-1.12.47-.44.14-.96.26-1.55.35-.59.09-1.24.14-1.96.14-1.24,0-2.35-.18-3.34-.54-.99-.36-1.83-.88-2.52-1.55s-1.21-1.48-1.58-2.44c-.37-.95-.55-2.02-.55-3.21,0-1.38.2-2.62.59-3.71.39-1.09.93-2.01,1.63-2.76.7-.75,1.53-1.32,2.51-1.72.97-.4,2.04-.59,3.21-.59,1,0,1.91.16,2.72.47s1.5.76,2.08,1.35c.57.59,1.02,1.3,1.33,2.15s.47,1.8.47,2.88c0,.78-.18,1.36-.54,1.73s-.87.56-1.54.56h-8.22ZM240.2,643.6c-.14-1.17-.45-2.03-.95-2.58-.5-.55-1.2-.83-2.1-.83-.38,0-.73.07-1.08.2-.34.13-.66.33-.95.61-.29.28-.53.63-.74,1.05-.21.43-.37.94-.48,1.55h6.3Z"/>
    <path class="cls-18" d="M256.33,633.84c0-.62.17-1.11.52-1.46.34-.35.83-.52,1.47-.52h4.64c1.44,0,2.67.14,3.69.41,1.02.27,1.86.65,2.51,1.12.65.48,1.12,1.05,1.42,1.7s.45,1.37.45,2.14c0,.58-.08,1.12-.24,1.62-.16.5-.39.95-.69,1.35-.3.4-.66.75-1.08,1.05s-.9.53-1.43.71v.05c.63.12,1.21.3,1.73.57.52.27.96.6,1.33,1.01.36.41.65.88.84,1.41.2.54.3,1.13.3,1.79,0,.95-.18,1.82-.54,2.62-.36.8-.91,1.5-1.66,2.09-.75.59-1.69,1.05-2.84,1.38-1.15.33-2.52.5-4.1.5h-4.33c-.64,0-1.12-.17-1.47-.52-.34-.35-.52-.84-.52-1.46v-17.56ZM262.71,640.71c.69,0,1.28-.07,1.78-.22.5-.15.9-.35,1.22-.6.32-.25.56-.56.71-.91.16-.35.24-.74.24-1.16s-.07-.79-.21-1.12c-.14-.33-.37-.62-.68-.86-.31-.24-.72-.42-1.21-.55-.5-.13-1.09-.2-1.79-.2h-2.16v5.62h2.12ZM262.86,650.15c.79,0,1.47-.08,2.04-.23.57-.16,1.03-.38,1.4-.66.36-.28.63-.61.8-1,.17-.38.26-.81.26-1.27s-.08-.88-.24-1.25c-.16-.38-.42-.7-.77-.96-.35-.27-.82-.47-1.39-.62-.57-.15-1.27-.22-2.09-.22h-2.27v6.2h2.27Z"/>
    <path class="cls-18" d="M275.47,632.1c0-.59.17-1.05.52-1.38.35-.33.88-.49,1.6-.49s1.25.16,1.6.49c.35.33.52.79.52,1.38v16.08c0,.41.03.75.08,1.02.05.27.13.48.23.64.1.16.22.27.35.33.13.06.29.09.45.09.15,0,.28,0,.39-.02.11-.02.23-.02.34-.02.13,0,.27.03.39.08.12.05.23.13.33.23.09.1.17.23.23.38.06.15.09.33.09.52,0,.3-.04.56-.13.77-.09.21-.21.39-.37.55-.1.1-.23.2-.38.3-.15.09-.32.18-.52.26s-.45.14-.73.19-.6.07-.97.07c-1.32,0-2.33-.35-3.01-1.05-.68-.7-1.02-1.77-1.02-3.2v-17.2Z"/>
    <path class="cls-18" d="M284.06,645.71c0-1.33.19-2.53.58-3.59.38-1.06.94-1.95,1.66-2.69.72-.73,1.6-1.29,2.63-1.68,1.03-.38,2.19-.58,3.48-.58,1.2,0,2.28.19,3.26.57.97.38,1.81.92,2.51,1.62.7.7,1.24,1.54,1.62,2.52.38.98.57,2.08.57,3.27,0,1.33-.19,2.53-.58,3.59-.39,1.06-.94,1.95-1.66,2.69s-1.59,1.29-2.62,1.68-2.19.58-3.48.58c-1.2,0-2.29-.19-3.27-.57-.98-.38-1.82-.92-2.52-1.62-.7-.7-1.24-1.54-1.62-2.52-.38-.98-.57-2.07-.57-3.28ZM288.39,645.4c0,.83.1,1.56.3,2.19s.48,1.15.83,1.57c.35.42.76.74,1.23.95.47.21.97.32,1.52.32s1.03-.1,1.49-.31c.46-.21.87-.52,1.21-.93.34-.41.61-.93.8-1.55.19-.62.29-1.35.29-2.18s-.1-1.55-.3-2.17-.48-1.15-.83-1.57c-.35-.42-.76-.74-1.23-.95-.47-.21-.97-.32-1.5-.32s-1.04.1-1.51.31c-.46.21-.87.52-1.21.93-.34.41-.61.93-.8,1.55-.19.62-.29,1.34-.29,2.16Z"/>
    <path class="cls-18" d="M303.02,645.71c0-1.33.19-2.53.58-3.59.38-1.06.94-1.95,1.66-2.69.72-.73,1.6-1.29,2.63-1.68,1.03-.38,2.19-.58,3.48-.58,1.2,0,2.28.19,3.26.57.97.38,1.81.92,2.51,1.62.7.7,1.24,1.54,1.62,2.52.38.98.57,2.08.57,3.27,0,1.33-.19,2.53-.58,3.59-.39,1.06-.94,1.95-1.66,2.69s-1.59,1.29-2.62,1.68-2.19.58-3.48.58c-1.2,0-2.29-.19-3.27-.57-.98-.38-1.82-.92-2.52-1.62-.7-.7-1.24-1.54-1.62-2.52-.38-.98-.57-2.07-.57-3.28ZM307.34,645.4c0,.83.1,1.56.3,2.19s.48,1.15.83,1.57c.35.42.76.74,1.23.95.47.21.97.32,1.52.32s1.03-.1,1.49-.31c.46-.21.87-.52,1.21-.93.34-.41.61-.93.8-1.55.19-.62.29-1.35.29-2.18s-.1-1.55-.3-2.17-.48-1.15-.83-1.57c-.35-.42-.76-.74-1.23-.95-.47-.21-.97-.32-1.5-.32s-1.04.1-1.51.31c-.46.21-.87.52-1.21.93-.34.41-.61.93-.8,1.55-.19.62-.29,1.34-.29,2.16Z"/>
    <path class="cls-18" d="M322.95,639.1c0-.57.15-1.01.45-1.31s.74-.45,1.31-.45c.28,0,.53.03.74.1.21.07.4.17.55.3.16.13.28.29.38.48s.16.4.19.62l.12.8h.06c.3-.46.68-.86,1.12-1.22.19-.16.4-.31.65-.45.24-.15.52-.28.82-.39.3-.11.63-.21.99-.27.36-.07.75-.1,1.18-.1,1.2,0,2.21.24,3.05.72.83.48,1.48,1.15,1.95,2,.34-.5.77-.95,1.27-1.36.22-.17.46-.33.73-.49.27-.16.56-.31.89-.44.33-.13.68-.23,1.07-.31.38-.08.8-.12,1.25-.12.88,0,1.69.14,2.41.42.72.28,1.34.7,1.85,1.25.51.55.9,1.23,1.18,2.04.28.81.41,1.74.41,2.79v7.92c0,.59-.17,1.05-.52,1.38-.35.33-.88.49-1.6.49s-1.25-.16-1.6-.49c-.35-.33-.52-.79-.52-1.38v-7.42c0-.63-.06-1.18-.19-1.64-.12-.46-.31-.83-.55-1.12-.24-.29-.53-.5-.87-.64-.34-.13-.72-.2-1.13-.2-.27,0-.52.03-.76.1-.23.07-.45.16-.66.27s-.39.24-.56.38c-.17.15-.33.29-.46.44-.32.34-.6.73-.83,1.17,0,.12,0,.31.02.58.02.27.02.57.02.89v7.2c0,.59-.17,1.05-.52,1.38s-.88.49-1.59.49-1.25-.16-1.6-.49c-.35-.33-.52-.79-.52-1.38v-7.42c0-.63-.07-1.18-.2-1.64-.13-.46-.31-.83-.55-1.12-.23-.29-.52-.5-.87-.64-.34-.13-.72-.2-1.14-.2-.26,0-.51.03-.74.1-.23.07-.45.15-.65.26-.2.1-.38.23-.55.37-.17.14-.32.28-.45.41-.32.34-.59.72-.81,1.14v8.75c0,.59-.17,1.05-.52,1.38-.35.33-.88.49-1.6.49s-1.25-.16-1.6-.49c-.35-.33-.52-.79-.52-1.38v-12.52Z"/>
    <path class="cls-18" d="M355.31,646.32v.03c.06.65.21,1.22.44,1.72.23.5.53.92.91,1.27.38.34.84.6,1.37.78.53.18,1.12.27,1.78.27.54,0,1.01-.04,1.4-.11.39-.07.73-.15,1.02-.24.29-.09.55-.17.77-.24.22-.07.43-.11.63-.11s.38.04.53.11c.16.07.29.17.4.29.11.12.19.26.25.41.06.16.09.32.09.5,0,.26-.04.49-.12.68-.08.19-.22.38-.41.57-.16.16-.39.32-.69.49-.3.17-.67.33-1.12.47-.44.14-.96.26-1.55.35-.59.09-1.24.14-1.96.14-1.24,0-2.35-.18-3.34-.54-.99-.36-1.83-.88-2.52-1.55s-1.21-1.48-1.58-2.44c-.37-.95-.55-2.02-.55-3.21,0-1.38.2-2.62.59-3.71.39-1.09.93-2.01,1.63-2.76.7-.75,1.53-1.32,2.51-1.72.97-.4,2.04-.59,3.21-.59,1,0,1.91.16,2.72.47s1.5.76,2.08,1.35c.57.59,1.02,1.3,1.33,2.15s.47,1.8.47,2.88c0,.78-.18,1.36-.54,1.73s-.87.56-1.54.56h-8.22ZM361.66,643.6c-.14-1.17-.45-2.03-.95-2.58-.5-.55-1.2-.83-2.1-.83-.38,0-.73.07-1.08.2-.34.13-.66.33-.95.61-.29.28-.53.63-.74,1.05-.21.43-.37.94-.48,1.55h6.3Z"/>
    <path class="cls-18" d="M369.28,639.1c0-.57.15-1.01.45-1.31s.74-.45,1.31-.45c.28,0,.53.03.74.1.21.07.4.17.55.3.15.13.27.29.37.48.09.19.16.41.2.65l.2,1.14h.05c.2-.41.43-.78.69-1.13.26-.35.55-.65.88-.9.32-.25.67-.45,1.04-.59.37-.14.76-.21,1.16-.21.59,0,1.05.16,1.38.48.32.32.48.82.48,1.5,0,.79-.15,1.4-.45,1.84-.3.43-.66.65-1.08.65-.12,0-.22-.01-.31-.04-.09-.03-.19-.05-.27-.08-.09-.03-.18-.05-.27-.08-.09-.03-.2-.04-.33-.04-.25,0-.5.07-.74.2-.25.13-.47.3-.69.51-.21.21-.41.45-.6.71s-.35.54-.5.82v7.97c0,.59-.17,1.05-.52,1.38-.35.33-.88.49-1.6.49s-1.25-.16-1.6-.49c-.35-.33-.52-.79-.52-1.38v-12.52Z"/>
  </g>
</svg>