<?xml version="1.0" encoding="UTF-8"?>
<svg id="Expanded" xmlns="http://www.w3.org/2000/svg" xmlns:xlink="http://www.w3.org/1999/xlink" viewBox="0 0 500 700">
  <defs>
    <style>
      .cls-1 {
        fill: #13437c;
      }

      .cls-2 {
        fill: #3288d6;
      }

      .cls-3 {
        fill: #fff;
      }

      .cls-4 {
        fill: #dfedf2;
      }

      .cls-5 {
        fill: #d87625;
      }

      .cls-6 {
        fill: #fff8d9;
      }

      .cls-7 {
        fill: none;
      }

      .cls-8 {
        clip-path: url(#clippath-1);
      }

      .cls-9 {
        fill: #e9f1f4;
      }

      .cls-10 {
        fill: #6d3108;
      }

      .cls-11 {
        fill: #79cdf6;
      }

      .cls-12 {
        fill: #ffe277;
      }

      .cls-13 {
        fill: #333;
      }

      .cls-14 {
        fill: #47acea;
      }

      .cls-15 {
        clip-path: url(#clippath-2);
      }

      .cls-16 {
        fill: #a8b6c1;
      }

      .cls-17 {
        clip-path: url(#clippath);
      }

      .cls-18 {
        fill: #1f5999;
      }

      .cls-19 {
        opacity: .5;
      }
    </style>
    <clipPath id="clippath">
      <rect class="cls-7" x="664" y="68" width="572" height="468" rx="32" ry="32" transform="translate(1252 -648) rotate(90)"/>
    </clipPath>
    <clipPath id="clippath-1">
      <rect class="cls-7" x="-736" y="68" width="572" height="468" rx="32" ry="32" transform="translate(-148 752) rotate(90)"/>
    </clipPath>
    <clipPath id="clippath-2">
      <rect class="cls-3" x="-36" y="68" width="572" height="468" rx="32" ry="32" transform="translate(552 52) rotate(90)"/>
    </clipPath>
  </defs>
  <g>
    <g>
      <path class="cls-9" d="M48,699.5c-26.19,0-47.5-21.31-47.5-47.5V48C.5,21.81,21.81.5,48,.5h404c8.33,0,16.53,2.19,23.71,6.33,14.67,8.47,23.79,24.24,23.79,41.17v604c0,26.19-21.31,47.5-47.5,47.5H48Z"/>
      <path class="cls-13" d="M452,1c8.25,0,16.36,2.17,23.46,6.27,14.52,8.38,23.54,23.98,23.54,40.73v604c0,25.92-21.08,47-47,47H48c-25.92,0-47-21.08-47-47V48C1,22.08,22.08,1,48,1h404M452,0H48C21.49,0,0,21.49,0,48v604c0,26.51,21.49,48,48,48h404c26.51,0,48-21.49,48-48V48c0-17.79-9.67-33.31-24.04-41.6-7.05-4.07-15.23-6.4-23.96-6.4h0Z"/>
    </g>
    <path class="cls-3" d="M500,48v374.52L0,539.11V117.39L475.96,6.4c14.37,8.29,24.04,23.81,24.04,41.6Z"/>
    <path class="cls-3" d="M500,459.42v140.57l-428.9,100.01h-23.1c-26.51,0-48-21.49-48-48v-75.99l500-116.59Z"/>
    <path class="cls-13" d="M452,1c25.92,0,47,21.08,47,47v604c0,25.92-21.08,47-47,47H48c-25.92,0-47-21.08-47-47V48C1,22.08,22.08,1,48,1h404M452,0H48C21.49,0,0,21.49,0,48v604c0,26.51,21.49,48,48,48h404c26.51,0,48-21.49,48-48V48c0-26.51-21.49-48-48-48h0Z"/>
    <g>
      <rect class="cls-3" x="15" y="15" width="470" height="574" rx="33" ry="33"/>
      <path class="cls-13" d="M452,16c17.67,0,32,14.33,32,32v508c0,17.67-14.33,32-32,32H48c-17.67,0-32-14.33-32-32V48c0-17.67,14.33-32,32-32h404M452,14H48c-18.75,0-34,15.25-34,34v508c0,18.75,15.25,34,34,34h404c18.75,0,34-15.25,34-34V48c0-18.75-15.25-34-34-34h0Z"/>
    </g>
  </g>
  <g class="cls-17">
    <ellipse class="cls-5" cx="950" cy="438.51" rx="450.58" ry="100.28"/>
    <g>
      <g id="_x3C_Radial_Repeat_x3E_">
        <rect class="cls-6" x="490.38" y="57.98" width="434.34" height="1" transform="translate(-.39 112) rotate(-9.05)"/>
      </g>
      <g id="_x3C_Radial_Repeat_x3E_-2" data-name="_x3C_Radial_Repeat_x3E_">
        <rect class="cls-6" x="487.37" y="19.58" width="434.34" height="1"/>
      </g>
      <g id="_x3C_Radial_Repeat_x3E_-3" data-name="_x3C_Radial_Repeat_x3E_">
        <rect class="cls-6" x="707.07" y="-235.49" width="1" height="434.34" transform="translate(615.49 683.48) rotate(-81.04)"/>
      </g>
    </g>
  </g>
  <g class="cls-8">
    <rect class="cls-11" x="-695.56" y="25.8" width="840.42" height="378.25" transform="translate(31.23 382.31) rotate(66.61)"/>
  </g>
  <g>
    <path class="cls-13" d="M137.55,635.35c-.47,0-.84-.14-1.11-.43-.27-.29-.41-.73-.41-1.32s.14-1.03.41-1.32c.27-.29.64-.43,1.11-.43h14.2c.47,0,.84.14,1.11.43.27.29.41.73.41,1.32s-.14,1.03-.41,1.32c-.27.29-.64.43-1.11.43h-4.92v16.22c0,.62-.18,1.09-.53,1.42-.36.33-.9.5-1.65.5s-1.29-.17-1.65-.5c-.36-.33-.53-.81-.53-1.42v-16.22h-4.92Z"/>
    <path class="cls-13" d="M155.62,632.1c0-.59.17-1.05.52-1.38.35-.33.88-.49,1.6-.49s1.25.16,1.6.49c.35.33.52.79.52,1.38v4.7c0,.41-.01.8-.03,1.18-.02.38-.06.79-.11,1.23h.05c.3-.38.67-.71,1.11-1,.19-.12.4-.25.63-.37.23-.12.49-.23.78-.33.29-.1.6-.18.93-.23.33-.06.7-.09,1.09-.09.92,0,1.74.14,2.48.42.74.28,1.37.7,1.89,1.25.52.55.92,1.23,1.2,2.04.28.81.41,1.74.41,2.79v7.92c0,.59-.17,1.05-.52,1.38-.35.33-.88.49-1.6.49s-1.25-.16-1.6-.49c-.35-.33-.52-.79-.52-1.38v-7.42c0-.63-.07-1.18-.2-1.64-.13-.46-.32-.83-.56-1.12-.25-.29-.54-.5-.9-.64-.35-.13-.76-.2-1.2-.2-.28,0-.54.03-.78.1-.24.07-.47.15-.68.26-.21.1-.41.23-.58.37s-.33.28-.46.41c-.33.34-.61.72-.83,1.14v8.75c0,.59-.17,1.05-.52,1.38-.35.33-.88.49-1.6.49s-1.25-.16-1.6-.49c-.35-.33-.52-.79-.52-1.38v-19.52Z"/>
    <path class="cls-13" d="M178.02,646.32v.03c.06.65.21,1.22.44,1.72.23.5.53.92.91,1.27.38.34.84.6,1.37.78.53.18,1.12.27,1.78.27.54,0,1.01-.04,1.4-.11.39-.07.73-.15,1.02-.24.29-.09.55-.17.77-.24.22-.07.43-.11.63-.11s.38.04.53.11c.16.07.29.17.4.29.11.12.19.26.25.41.06.16.09.32.09.5,0,.26-.04.49-.12.68-.08.19-.22.38-.41.57-.16.16-.39.32-.69.49-.3.17-.67.33-1.12.47-.44.14-.96.26-1.55.35-.59.09-1.24.14-1.96.14-1.24,0-2.35-.18-3.34-.54-.99-.36-1.83-.88-2.52-1.55s-1.21-1.48-1.58-2.44c-.37-.95-.55-2.02-.55-3.21,0-1.38.2-2.62.59-3.71.39-1.09.93-2.01,1.63-2.76.7-.75,1.53-1.32,2.51-1.72.97-.4,2.04-.59,3.21-.59,1,0,1.91.16,2.72.47s1.5.76,2.08,1.35c.57.59,1.02,1.3,1.33,2.15s.47,1.8.47,2.88c0,.78-.18,1.36-.54,1.73s-.87.56-1.54.56h-8.22ZM184.36,643.6c-.14-1.17-.45-2.03-.95-2.58-.5-.55-1.2-.83-2.1-.83-.38,0-.73.07-1.08.2-.34.13-.66.33-.95.61-.29.28-.53.63-.74,1.05-.21.43-.37.94-.48,1.55h6.3Z"/>
    <path class="cls-13" d="M199.06,634.77c-.08-.35-.14-.6-.16-.74-.03-.14-.04-.27-.04-.38,0-.31.07-.59.22-.84.15-.24.33-.45.55-.62.22-.17.48-.29.76-.38.28-.08.56-.12.84-.12.3,0,.57.05.81.14.24.09.44.22.59.38.2.2.34.42.41.68.08.26.16.55.24.88l2.94,12.31c.09.43.17.83.24,1.2.07.37.13.7.18.99.05.34.09.66.12.94h.06c.04-.27.09-.58.14-.92.05-.28.11-.61.18-.99.07-.38.16-.79.27-1.23l2.9-11.97c.21-.88.56-1.51,1.05-1.87.49-.36,1.15-.54,1.96-.54s1.47.18,1.96.54c.49.36.85.99,1.05,1.88l2.86,11.92c.09.42.18.82.26,1.2.08.38.14.72.2,1.02.06.34.12.67.17.98h.06c.05-.32.1-.66.16-1,.05-.3.11-.64.18-1.02s.15-.76.24-1.16l2.76-12.28c.08-.34.16-.65.23-.91.07-.26.2-.48.38-.66s.39-.31.63-.4c.24-.09.51-.13.8-.13.27,0,.54.04.8.12s.5.2.72.35c.21.16.39.35.52.57.13.22.2.48.2.77,0,.05,0,.11,0,.16,0,.06-.02.13-.03.21-.02.08-.04.19-.06.3-.03.12-.06.26-.1.43l-4.06,16.08c-.11.44-.24.82-.38,1.16-.14.33-.33.62-.55.84-.27.27-.61.47-1.02.6s-.9.2-1.47.2-1.04-.07-1.42-.2-.71-.33-.98-.6c-.23-.23-.41-.51-.53-.84-.12-.33-.25-.72-.36-1.16l-2.8-11.48c-.08-.35-.16-.71-.23-1.07-.07-.36-.13-.68-.18-.98-.05-.34-.1-.67-.16-.97h-.06c-.04.31-.09.64-.14.98-.05.29-.11.62-.18.97-.07.35-.14.71-.23,1.08l-2.79,11.47c-.11.44-.23.82-.36,1.16-.12.33-.3.62-.53.84-.27.27-.6.47-.98.6-.38.13-.86.2-1.44.2s-1.05-.07-1.45-.2-.74-.33-1.02-.6c-.23-.23-.41-.51-.55-.84-.14-.33-.27-.72-.38-1.16l-4.04-15.92Z"/>
    <path class="cls-13" d="M229.14,645.71c0-1.33.19-2.53.58-3.59.38-1.06.94-1.95,1.66-2.69.72-.73,1.6-1.29,2.63-1.68,1.03-.38,2.19-.58,3.48-.58,1.2,0,2.28.19,3.26.57.97.38,1.81.92,2.51,1.62.7.7,1.24,1.54,1.62,2.52.38.98.57,2.08.57,3.27,0,1.33-.19,2.53-.58,3.59-.39,1.06-.94,1.95-1.66,2.69s-1.59,1.29-2.62,1.68-2.19.58-3.48.58c-1.2,0-2.29-.19-3.27-.57-.98-.38-1.82-.92-2.52-1.62-.7-.7-1.24-1.54-1.62-2.52-.38-.98-.57-2.07-.57-3.28ZM233.47,645.4c0,.83.1,1.56.3,2.19s.48,1.15.83,1.57c.35.42.76.74,1.23.95.47.21.97.32,1.52.32s1.03-.1,1.49-.31c.46-.21.87-.52,1.21-.93.34-.41.61-.93.8-1.55.19-.62.29-1.35.29-2.18s-.1-1.55-.3-2.17-.48-1.15-.83-1.57c-.35-.42-.76-.74-1.23-.95-.47-.21-.97-.32-1.5-.32s-1.04.1-1.51.31c-.46.21-.87.52-1.21.93-.34.41-.61.93-.8,1.55-.19.62-.29,1.34-.29,2.16Z"/>
    <path class="cls-13" d="M249.08,639.1c0-.57.15-1.01.45-1.31s.74-.45,1.31-.45c.28,0,.53.03.74.1.21.07.4.17.55.3.15.13.27.29.37.48.09.19.16.41.2.65l.2,1.14h.05c.2-.41.43-.78.69-1.13.26-.35.55-.65.88-.9.32-.25.67-.45,1.04-.59.37-.14.76-.21,1.16-.21.59,0,1.05.16,1.38.48.32.32.48.82.48,1.5,0,.79-.15,1.4-.45,1.84-.3.43-.66.65-1.08.65-.12,0-.22-.01-.31-.04-.09-.03-.19-.05-.27-.08-.09-.03-.18-.05-.27-.08-.09-.03-.2-.04-.33-.04-.25,0-.5.07-.74.2-.25.13-.47.3-.69.51-.21.21-.41.45-.6.71s-.35.54-.5.82v7.97c0,.59-.17,1.05-.52,1.38-.35.33-.88.49-1.6.49s-1.25-.16-1.6-.49c-.35-.33-.52-.79-.52-1.38v-12.52Z"/>
    <path class="cls-13" d="M270.41,638.52c.15-.16.27-.29.37-.39.1-.1.19-.2.27-.28.18-.17.37-.29.59-.38.21-.09.46-.13.73-.13s.55.05.81.16c.26.11.49.26.69.44.2.18.36.39.48.63.12.24.18.48.18.73,0,.21-.05.42-.15.65-.1.22-.27.46-.52.71l-4.06,3.95,4.41,5.46c.18.21.32.42.42.65.1.22.16.47.16.73,0,.3-.07.58-.21.84-.14.26-.32.48-.54.66s-.47.33-.74.44c-.28.1-.55.16-.84.16s-.52-.05-.73-.15c-.22-.1-.42-.24-.59-.41-.12-.12-.22-.23-.3-.34-.09-.11-.19-.24-.3-.4l-5.25-7.04v6.41c0,.59-.17,1.06-.52,1.38-.35.33-.88.49-1.6.49s-1.25-.16-1.6-.49c-.35-.33-.52-.79-.52-1.38v-19.52c0-.59.17-1.05.52-1.38.35-.33.88-.49,1.6-.49s1.25.16,1.6.49c.35.33.52.79.52,1.38v12.07l5.16-5.65Z"/>
    <path class="cls-13" d="M286.69,643.23c0-.5-.06-.92-.17-1.28-.12-.35-.3-.64-.55-.86-.26-.22-.59-.39-1.02-.5-.42-.11-.94-.16-1.54-.16-.65,0-1.2.05-1.65.14s-.85.2-1.18.32c-.33.12-.62.23-.87.32-.25.09-.48.14-.7.14-.38,0-.69-.12-.93-.36-.25-.24-.37-.59-.37-1.05,0-.24.04-.45.11-.62.07-.18.2-.35.38-.53.17-.17.43-.34.8-.53.37-.19.82-.36,1.34-.52.53-.16,1.13-.29,1.8-.39.68-.1,1.41-.16,2.2-.16,2.18,0,3.81.47,4.91,1.41,1.09.94,1.64,2.32,1.64,4.12v5.11c0,.71.03,1.28.09,1.72.06.44.12.8.18,1.09.06.29.12.53.18.73.06.19.09.4.09.62s-.04.42-.12.61c-.08.19-.2.35-.36.49s-.35.25-.59.33-.5.12-.8.12c-.32,0-.61-.05-.87-.15-.26-.1-.48-.24-.67-.41-.19-.18-.35-.39-.48-.63-.13-.24-.24-.51-.32-.8h-.05c-.32.41-.71.77-1.17,1.08-.4.27-.89.52-1.49.73-.6.22-1.3.33-2.12.33-.87,0-1.64-.12-2.32-.37-.68-.25-1.26-.58-1.73-1.02-.47-.43-.84-.95-1.09-1.54s-.38-1.24-.38-1.94c0-.75.17-1.41.5-1.99.33-.57.8-1.05,1.41-1.43.6-.38,1.33-.67,2.19-.86.85-.19,1.81-.29,2.86-.29.44,0,.83.02,1.18.05.35.03.65.06.9.09.29.04.55.09.78.14v-1.29ZM286.69,647.26c-.21-.05-.44-.1-.69-.14-.22-.04-.47-.08-.77-.11-.29-.03-.62-.05-.98-.05-1.04,0-1.82.15-2.32.44-.51.29-.76.72-.76,1.28,0,.27.05.52.16.75.1.23.25.43.45.59.2.17.44.3.73.4.29.1.63.15,1.02.15.5,0,.95-.09,1.34-.27.39-.18.72-.37.99-.58.31-.25.59-.53.83-.84v-1.62Z"/>
    <path class="cls-13" d="M295.41,632.1c0-.59.17-1.05.52-1.38.35-.33.88-.49,1.6-.49s1.25.16,1.6.49c.35.33.52.79.52,1.38v4.7c0,.41-.01.8-.03,1.18-.02.38-.06.79-.11,1.23h.05c.3-.38.67-.71,1.11-1,.19-.12.4-.25.63-.37.23-.12.49-.23.78-.33.29-.1.6-.18.93-.23.33-.06.7-.09,1.09-.09.92,0,1.74.14,2.48.42.74.28,1.37.7,1.89,1.25.52.55.92,1.23,1.2,2.04.28.81.41,1.74.41,2.79v7.92c0,.59-.17,1.05-.52,1.38-.35.33-.88.49-1.6.49s-1.25-.16-1.6-.49c-.35-.33-.52-.79-.52-1.38v-7.42c0-.63-.07-1.18-.2-1.64-.13-.46-.32-.83-.56-1.12-.25-.29-.54-.5-.9-.64-.35-.13-.76-.2-1.2-.2-.28,0-.54.03-.78.1-.24.07-.47.15-.68.26-.21.1-.41.23-.58.37s-.33.28-.46.41c-.33.34-.61.72-.83,1.14v8.75c0,.59-.17,1.05-.52,1.38-.35.33-.88.49-1.6.49s-1.25-.16-1.6-.49c-.35-.33-.52-.79-.52-1.38v-19.52Z"/>
    <path class="cls-13" d="M313.56,645.71c0-1.33.19-2.53.58-3.59.38-1.06.94-1.95,1.66-2.69.72-.73,1.6-1.29,2.63-1.68,1.03-.38,2.19-.58,3.48-.58,1.2,0,2.28.19,3.26.57.97.38,1.81.92,2.51,1.62.7.7,1.24,1.54,1.62,2.52.38.98.57,2.08.57,3.27,0,1.33-.19,2.53-.58,3.59-.39,1.06-.94,1.95-1.66,2.69s-1.59,1.29-2.62,1.68-2.19.58-3.48.58c-1.2,0-2.29-.19-3.27-.57-.98-.38-1.82-.92-2.52-1.62-.7-.7-1.24-1.54-1.62-2.52-.38-.98-.57-2.07-.57-3.28ZM317.89,645.4c0,.83.1,1.56.3,2.19s.48,1.15.83,1.57c.35.42.76.74,1.23.95.47.21.97.32,1.52.32s1.03-.1,1.49-.31c.46-.21.87-.52,1.21-.93.34-.41.61-.93.8-1.55.19-.62.29-1.35.29-2.18s-.1-1.55-.3-2.17-.48-1.15-.83-1.57c-.35-.42-.76-.74-1.23-.95-.47-.21-.97-.32-1.5-.32s-1.04.1-1.51.31c-.46.21-.87.52-1.21.93-.34.41-.61.93-.8,1.55-.19.62-.29,1.34-.29,2.16Z"/>
    <path class="cls-13" d="M333.44,632.1c0-.59.17-1.05.52-1.38.35-.33.88-.49,1.6-.49s1.25.16,1.6.49c.35.33.52.79.52,1.38v16.08c0,.41.03.75.08,1.02.05.27.13.48.23.64.1.16.22.27.35.33.13.06.29.09.45.09.15,0,.28,0,.39-.02.11-.02.23-.02.34-.02.13,0,.27.03.39.08.12.05.23.13.33.23.09.1.17.23.23.38.06.15.09.33.09.52,0,.3-.04.56-.13.77-.09.21-.21.39-.37.55-.1.1-.23.2-.38.3-.15.09-.32.18-.52.26s-.45.14-.73.19-.6.07-.97.07c-1.32,0-2.33-.35-3.01-1.05-.68-.7-1.02-1.77-1.02-3.2v-17.2Z"/>
    <path class="cls-13" d="M342.66,632.8c0-.34.06-.66.19-.96s.3-.55.52-.77c.22-.22.49-.39.81-.52.32-.12.67-.19,1.05-.19.36,0,.7.06,1.01.19.31.12.57.29.8.51.22.21.4.46.52.75.12.29.19.6.19.93s-.06.66-.19.96-.3.55-.53.77c-.23.22-.5.39-.81.52s-.66.19-1.05.19-.7-.06-1.01-.19c-.31-.12-.57-.29-.8-.51-.22-.21-.4-.46-.52-.75-.12-.29-.19-.6-.19-.93ZM343.08,639.26c0-.59.17-1.05.52-1.38.35-.33.88-.49,1.6-.49s1.25.16,1.6.49c.35.33.52.79.52,1.38v12.36c0,.59-.17,1.05-.52,1.38-.35.33-.88.49-1.6.49s-1.25-.16-1.6-.49c-.35-.33-.52-.79-.52-1.38v-12.36Z"/>
    <path class="cls-13" d="M350.92,646.04c0-1.36.2-2.59.6-3.69.4-1.09.97-2.02,1.7-2.79s1.61-1.35,2.63-1.76c1.02-.41,2.15-.61,3.39-.61.48,0,.91.03,1.3.1.38.07.73.15,1.02.25.3.1.55.21.75.34s.36.25.48.38c.19.18.33.37.41.59.09.21.13.48.13.79,0,.21-.03.4-.1.58-.07.18-.16.33-.27.46-.12.13-.26.23-.42.3-.17.07-.35.11-.55.11-.21,0-.4-.03-.57-.09s-.36-.13-.56-.21-.44-.15-.71-.22c-.27-.07-.6-.1-.98-.1-.54,0-1.05.11-1.53.33-.48.22-.9.54-1.25.97-.35.43-.63.96-.84,1.6s-.3,1.38-.3,2.23c0,.77.1,1.45.31,2.05.21.59.49,1.09.86,1.5.36.41.8.72,1.31.93.51.21,1.07.32,1.67.32.41,0,.75-.03,1.02-.09.28-.06.52-.13.72-.2.2-.07.38-.14.55-.2.16-.06.33-.09.49-.09.19,0,.36.04.52.11.16.07.29.17.39.3.1.12.18.27.24.43.06.16.09.33.09.51,0,.27-.05.51-.14.72-.09.21-.23.41-.41.59-.16.16-.36.31-.62.46-.26.15-.56.28-.92.4s-.77.21-1.24.28c-.47.07-.99.11-1.56.11-1.16,0-2.2-.18-3.14-.54s-1.74-.87-2.4-1.54c-.66-.67-1.17-1.47-1.53-2.41-.36-.94-.54-2-.54-3.16Z"/>
  </g>
  <g>
    <rect class="cls-3" x="-36" y="68" width="572" height="468" rx="32" ry="32" transform="translate(552 52) rotate(90)"/>
    <g class="cls-15">
      <rect class="cls-2" x="4.41" y="-1.98" width="491.18" height="606.01"/>
      <g>
        <path class="cls-11" d="M287.77,373.32l-.85-.53c1.43-2.32,143.5-233.22,161.43-328.66l.98.18c-17.97,95.62-160.13,326.68-161.56,329Z"/>
        <path class="cls-11" d="M333.95,241.42l-.83-.55c53.18-80.32,94.81-212.53,95.23-213.86l.95.3c-.41,1.33-42.09,133.68-95.35,214.11Z"/>
        <path class="cls-11" d="M353.71,142.66l-.88-.48c.55-1,55.29-100.49,54.82-126.55l1-.02c.47,26.33-52.68,122.95-54.95,127.06Z"/>
        <path class="cls-11" d="M362.11,67.34l-.8-.6c12.63-16.84,21.69-36.61,26.2-57.16l.98.21c-4.54,20.7-13.66,40.6-26.37,57.55Z"/>
        <rect class="cls-11" x="272.06" y="436.98" width="1" height="168.77"/>
        <rect class="cls-11" x="305.5" y="388.8" width="1" height="216.95"/>
        <rect class="cls-11" x="338.94" y="334" width="1" height="271.75"/>
        <rect class="cls-11" x="372.38" y="346.27" width="1" height="259.47"/>
        <rect class="cls-11" x="405.82" y="296.29" width="1" height="309.45"/>
        <rect class="cls-11" x="439.26" y="298.92" width="1" height="306.82"/>
        <rect class="cls-11" x="472.7" y="302" width="1" height="303.74"/>
        <rect class="cls-11" x="203.31" y="398.77" width="1" height="206.97"/>
        <rect class="cls-11" x="169.87" y="349.27" width="1" height="256.48"/>
        <rect class="cls-11" x="136.43" y="291.37" width="1" height="314.37"/>
        <rect class="cls-11" x="102.99" y="230.69" width="1" height="375.06"/>
        <rect class="cls-11" x="69.55" y="158.02" width="1" height="447.72"/>
        <rect class="cls-11" x="69.55" y="6.12" width="1" height="28.07"/>
        <rect class="cls-11" x="36.11" y="13.89" width="1" height="591.85"/>
        <rect class="cls-11" x="405.82" y="216.11" width="1" height="72.76"/>
        <rect class="cls-11" x="439.26" y="142.42" width="1" height="126.96"/>
        <rect class="cls-11" x="439.26" y="13.89" width="1" height="24.47"/>
        <rect class="cls-11" x="472.7" y="15.61" width="1" height="246.36"/>
      </g>
      <g>
        <path class="cls-14" d="M222.72,375.55c-.36-.48-36.58-49.16-75.22-114.01C111.82,201.68,66.72,115.39,54.44,44.31l.99-.17c12.25,70.93,57.29,157.09,92.92,216.88,38.62,64.8,74.81,113.45,75.17,113.93l-.8.6Z"/>
        <path class="cls-14" d="M182.62,260.54C111.18,170.87,74.84,28.7,74.48,27.28l.97-.24c.36,1.42,36.65,143.39,107.96,232.88l-.78.62Z"/>
        <path class="cls-14" d="M165.55,184.68c-.58-1.03-57.85-103.53-70.43-168.97l.98-.19c12.55,65.29,69.74,167.64,70.32,168.67l-.87.49Z"/>
        <path class="cls-14" d="M149.66,96.32c-12.78-17.05-29.94-66.32-34.38-86.52l.98-.21c4.42,20.13,21.5,69.2,34.2,86.14l-.8.6Z"/>
      </g>
      <g class="cls-19">
        <path class="cls-18" d="M369.25,341.96s66.45,8.16,119.22-6.72v18.83s-76.45,1.17-119.55-9.31l.32-2.81Z"/>
      </g>
      <g class="cls-19">
        <path class="cls-18" d="M229.62,499.19c-5.51,32.75-7.87,66.1-7.03,99.37,4.47.67,8.73-2.87,10.67-7.2s2.08-9.29,2.18-14.09c.37-17.69.75-35.39,1.12-53.08.22-10.24,1.2-20.61,1.07-30.81-.12-8.96,4.03-19.05,7.95-26.99.68-1.38,1.41-2.77,1.66-4.29s-.04-3.22-1.16-4.28c-5.41-5.12-9.64,11.98-10.54,14.92-2.65,8.63-4.4,17.54-5.9,26.47Z"/>
      </g>
      <g class="cls-19">
        <path class="cls-18" d="M40.95,73.04l-27.12,14.48s115.48,263.61,231.65,374.87c0,0-163.09-226.33-204.54-389.35Z"/>
      </g>
      <g class="cls-19">
        <path class="cls-18" d="M253.12,463.83S473.07,174.14,487.77,78.94l-20.1-11.86c-38.87,164.49-214.55,396.75-214.55,396.75Z"/>
      </g>
      <path class="cls-3" d="M147.04,5.04s-18.71,139.62,105.79,436.84c0,0,129.54-257.64,109.39-445.48"/>
      <path class="cls-4" d="M324.75,77.49c-9.84,10.25-19.68,20.51-29.53,30.76-2.25,2.35-4.67,5.13-4.4,8.37.76,9.28,6.35,19.3,9.4,28.07,3.74,10.75,7.26,21.59,10.55,32.49,6.97,23.07,15.58,47.91,16.87,71.99,1.1,20.66-11.25,42.31-20.48,60.05-7.57-69.78-22.33-138.77-43.98-205.54,20.9-13.58,34.74-37.46,36.13-62.34"/>
      <path class="cls-4" d="M155.48,135.31c9.97-23.32,19.36-42.39,41.06-55.52,3.28-1.98,6.93-4.15,8.06-7.81.8-2.57.15-5.35-.5-7.96-4.46-17.91-8.91-35.82-13.37-53.72-.39-1.57-.83-3.23-1.99-4.37-1.33-1.31-3.32-1.64-5.16-1.9-17.69-2.53-44.07-20.69-37.22,43.21"/>
      <path class="cls-16" d="M148.55,68.39c9.52-11.67,20.56-21.94,34.08-28.47,4.57-2.21,9.23-4.28,13.91-6.29-1.94-7.78-3.87-15.57-5.81-23.35-.39-1.57-.83-3.23-1.99-4.37-1.33-1.31-3.32-1.64-5.16-1.9-17.69-2.53-44.07-20.69-37.22,43.21l2.19,21.17Z"/>
      <path class="cls-4" d="M355.29,135.31c-10.49-23.09-20.31-41.94-42.3-54.58-4.15-2.39-8.29-4.73-12.41-7.21,9.03-19.43,11.97-41.63,16.65-62.4.36-1.58.76-3.25,1.89-4.41,1.3-1.34,3.28-1.71,5.12-2.02,17.63-2.93,43.6-21.68,38.19,42.35"/>
      <path class="cls-16" d="M360.71,68.25c-9.78-11.45-21.05-21.47-34.71-27.69-4.62-2.11-9.32-4.07-14.05-5.97,1.76-7.82,3.52-15.65,5.28-23.47.36-1.58.76-3.25,1.89-4.41,1.3-1.34,3.28-1.71,5.12-2.02,17.63-2.93,43.6-21.68,38.19,42.35l-1.71,21.21Z"/>
      <path class="cls-11" d="M186.12,263.12s21.19-128.97,40.68-154.25l47.41-1.05s37.95,82.23,41.63,187.07l-23.83,62.33-39.95,87.52-41.98-106.29-23.98-75.32Z"/>
      <path class="cls-4" d="M193.37,282.5s17.59-138.26,36-164.04l-10.37-3s-26.03,82.65-32.37,149.39l6.75,17.65Z"/>
      <path class="cls-14" d="M237.73,118.23c-6.46,17.68-10.72,36.25-12.66,55.18-.21,2-.38,4.03.04,6.03s1.52,3.98,3.31,5.01c2.24,1.29,5.1.82,7.15-.56,2.05-1.38,3.43-3.52,4.66-5.66,10.13-17.69,12.85-39.75,7.4-60.16"/>
      <path class="cls-14" d="M274.22,107.81l-19.73,1.53c4.95,14.81,9.06,29.21,12.02,44.47,10.36,53.5,15.72,107.54,15.55,161.84-.07,20.45.36,40.84.98,61.25l8.99-19.69,23.83-62.33c-3.69-104.84-41.63-187.07-41.63-187.07Z"/>
      <g>
        <path class="cls-11" d="M307.05,67.65c-6.44,12.11-15.57,26.66-22.02,38.77-1.3,2.45-2.69,4.99-4.64,6.91-.7.7-1.48,1.31-2.35,1.81-2.9,1.65-6.39,1.76-9.73,1.84-6.71.14-13.43.28-20.14.42-5.39.11-10.77.22-16.16.34-4.09.08-8.42.11-12.03-1.72-.34-.16-.67-.35-.99-.55-3.87-2.45-5.9-6.89-7.73-11.08-6.31-14.47-10.89-23.42-17.2-37.88l50.47-53.8,9.39-1.87.36-.07,52.77,56.88Z"/>
        <path class="cls-14" d="M307.05,67.65c-6.44,12.11-15.57,26.66-22.02,38.77-1.77,3.34-3.71,6.85-6.99,8.72-2.9,1.65-6.39,1.76-9.73,1.84-6.71.14-13.43.28-20.14.42l-4.47-2.11c5.34,1.56,11.17-1.6,14.36-6.16,3.19-4.55,4.3-10.21,5.17-15.7,2.58-16.33,3.71-33.03,1.37-49.39-1.65-11.56-5.11-22.98-10.68-33.2l.36-.07,52.77,56.88Z"/>
        <path class="cls-4" d="M202.27,60.38c6.21,20.11,14.45,39.59,24.56,58.05-4.65-.1-8.92-2.85-11.94-6.39s-4.96-7.85-6.87-12.09c-5.08-11.28-10.16-22.57-15.24-33.85"/>
        <path class="cls-2" d="M190.98,70.58c17.05-12.79,34.1-25.57,51.15-38.36,3.02-2.27,6.36-4.64,10.14-4.56,3.4.08,6.39,2.14,9.15,4.13,14.35,10.31,28.71,20.62,43.06,30.93-8.53-19.73-21.15-37.69-36.84-52.39-4-3.75-8.81-7.51-14.28-7.13-3.72.26-7.01,2.41-10.11,4.49-6.96,4.68-13.92,9.37-20.88,14.05-8.47,5.7-17.01,11.45-24.21,18.7-7.2,7.24-13.07,16.16-15.04,26.19"/>
        <path class="cls-2" d="M280.39,113.33c-.7.7-1.48,1.31-2.35,1.81-2.9,1.65-6.39,1.76-9.73,1.84-6.71.14-13.43.28-20.14.42-5.39.11-10.77.22-16.16.34-4.09.08-8.42.11-12.03-1.72,17.05-6.3,35.83-7.88,53.69-4.45,2.26.44,4.54.97,6.72,1.76Z"/>
      </g>
      <path class="cls-2" d="M226.08,170.14s-.1,0-.15-.01c-.55-.08-.92-.59-.84-1.13,2.61-17.84,7-35.5,13.04-52.5.18-.52.76-.79,1.28-.61.52.19.79.76.61,1.28-6,16.87-10.35,34.4-12.95,52.12-.07.5-.5.85-.99.85Z"/>
      <path class="cls-2" d="M264.99,150.29c-.52,0-.96-.4-1-.92-.83-10.75-3.37-21.25-7.55-31.19-.21-.51.02-1.1.53-1.31.51-.21,1.1.02,1.31.53,4.27,10.14,6.86,20.84,7.7,31.81.04.55-.37,1.03-.92,1.07-.03,0-.05,0-.08,0Z"/>
      <path class="cls-1" d="M229.57,119.77c-3.79,0-8.04-.34-11.64-2.62-4.53-2.86-6.73-7.91-8.5-11.97-3.14-7.21-5.9-13.15-8.57-18.89-2.68-5.77-5.45-11.73-8.62-18.99-.44-1.01.02-2.19,1.03-2.63,1.01-.44,2.19.02,2.63,1.03,3.15,7.21,5.91,13.15,8.58,18.9,2.68,5.76,5.45,11.72,8.61,18.98,1.91,4.37,3.75,8.15,6.97,10.19,3.4,2.15,8.12,2.05,11.91,1.97l36.3-.76c2.93-.06,6.25-.13,8.78-1.57,2.67-1.52,4.33-4.36,6.22-7.92,3.24-6.09,7.21-12.88,11.05-19.46,3.82-6.54,7.77-13.3,10.97-19.32.52-.98,1.73-1.34,2.71-.83.98.52,1.35,1.73.83,2.71-3.24,6.09-7.21,12.88-11.05,19.46-3.82,6.54-7.77,13.3-10.97,19.32-1.73,3.25-3.88,7.3-7.77,9.52-3.41,1.94-7.44,2.03-10.68,2.1l-36.3.76c-.8.02-1.63.03-2.49.03Z"/>
      <path class="cls-1" d="M236.67,608.73h-4v-78.59c0-24.44,4.32-48.47,12.49-69.52,5.77-14.86,13.05-31.2,21.49-50.11,37.74-84.64,94.78-212.54,94.78-399.03h4c0,187.33-57.25,315.71-95.13,400.65-8.41,18.86-15.68,35.16-21.41,49.93-7.99,20.58-12.22,44.12-12.22,68.07v78.59Z"/>
      <path class="cls-1" d="M250.75,447.78c-.27-.59-27.12-59.52-53.61-141.77-24.46-75.95-53.62-187.92-53.62-290.01h4c0,101.55,29.05,213.06,53.42,288.73,26.42,82.05,53.19,140.8,53.46,141.39l-3.64,1.67Z"/>
      <path class="cls-1" d="M243.47,477.94l-3.13-2.49c.43-.55,44-55.43,93.62-133.93,45.57-72.11,105.65-179.39,133.7-281.76l-61.45-47.57,2.45-3.16,63.56,49.21-.35,1.29c-28.03,103.26-88.64,211.53-134.55,284.18-49.72,78.68-93.41,133.7-93.84,134.25Z"/>
      <path class="cls-1" d="M245.44,462.58c-.39-.51-39.88-51.85-85.46-126.9C117.91,266.39,61.86,162.13,33.84,58.89l-.36-1.34L100.74,8.98l2.34,3.24L38.06,59.17c28.02,102.34,83.56,205.63,125.31,274.39,45.47,74.87,84.84,126.06,85.23,126.57l-3.17,2.44Z"/>
      <path class="cls-6" d="M494.38,273.28c-8.31-4.71-16.62-9.42-24.93-14.14-2.35-1.33-4.82-2.7-7.51-2.77-3.02-.09-5.81,1.45-8.43,2.96-19.04,10.97-37.63,22.74-55.69,35.26,0,0,27.94,5.96,86.18,5.96l10.38-27.27Z"/>
      <path class="cls-12" d="M461.22,291.18c-20.89,3.34-42.1,5.03-63.2,3.28-.06.04-.13.09-.19.13,0,0,27.94,5.96,86.18,5.96l6.31-16.58c-9.52,3.14-19.17,5.62-29.1,7.21Z"/>
      <path class="cls-10" d="M397.83,296.59c-.63,0-1.26-.3-1.65-.86-.63-.91-.4-2.15.5-2.78,18.03-12.5,36.81-24.4,55.83-35.35,2.44-1.4,5.79-3.32,9.48-3.22,3.26.09,6.13,1.72,8.44,3.03l24.93,14.14c.96.54,1.3,1.77.75,2.73-.54.96-1.77,1.3-2.73.75l-24.93-14.14c-2.02-1.15-4.32-2.45-6.58-2.51-2.37-.06-4.75,1.18-7.37,2.69-18.92,10.9-37.6,22.73-55.54,35.17-.35.24-.74.36-1.14.36Z"/>
      <path class="cls-1" d="M491.74,356.08c-94.11,0-122.29-9.04-123.45-9.42l-1.37-.46v-58.77l2.51.67c.4.11,40.98,10.59,123.29,10.59v4c-71.42,0-111.74-7.88-121.81-10.13v50.69c6.66,1.75,38.71,8.83,120.81,8.83v4Z"/>
      <path class="cls-1" d="M186.12,265.12c-.09,0-.19,0-.29-.02-1.09-.16-1.85-1.17-1.7-2.26,7.94-55.32,14.65-95.33,34.71-145.43.41-1.03,1.58-1.52,2.6-1.11,1.03.41,1.52,1.57,1.11,2.6-19.9,49.68-26.57,89.47-34.47,144.51-.14,1-1,1.72-1.98,1.72Z"/>
      <path class="cls-1" d="M316.75,294.25c-.98,0-1.83-.72-1.98-1.72-8.92-62.17-19.8-126.24-38.79-173.64-.41-1.03.09-2.19,1.11-2.6,1.03-.41,2.19.09,2.6,1.11,19.15,47.79,30.08,112.14,39.03,174.56.16,1.09-.6,2.11-1.7,2.26-.1.01-.19.02-.29.02Z"/>
      <g class="cls-19">
        <path class="cls-18" d="M506.29,316.11c-.72,108.13-40.41,215.59-110.14,298.24,35.45.45,70.91.91,106.36,1.36"/>
      </g>
      <g class="cls-19">
        <path class="cls-18" d="M0,316.11c.72,108.13,40.41,215.59,110.14,298.24-35.45.45-70.91.91-106.36,1.36"/>
      </g>
      <path class="cls-3" d="M145.93,13.87c6.24,14.56,12.49,29.11,18.73,43.67,1.72,4,3.47,8.07,6.26,11.34s6.81,5.69,10.98,5.37c4.84-.37,8.71-4.16,12.16-7.74,18.72-19.44,37.44-38.88,56.16-58.31"/>
      <path class="cls-4" d="M168.25,65c2.34,2.51,6.35,2.83,9.58,1.65,3.22-1.18,5.83-3.58,8.29-5.98,11.28-11.04,21.23-23.43,29.59-36.82,2.64-4.22,5.3-8.73,9.63-11.2,6.39-3.65,14.37-1.82,21.47.11-16.82,17.21-33.64,34.43-50.46,51.64-3.42,3.5-7.01,7.11-11.62,8.72-4.62,1.61-10.56.55-13.01-3.69"/>
      <path class="cls-3" d="M354.07,13.87c-6.24,14.56-12.49,29.11-18.73,43.67-1.72,4-3.47,8.07-6.26,11.34s-6.81,5.69-10.98,5.37c-4.84-.37-8.71-4.16-12.16-7.74-18.72-19.44-37.44-38.88-56.16-58.31"/>
      <path class="cls-4" d="M311.56,71.28c1.73.94,3.98.24,5.4-1.13s2.18-3.26,2.86-5.1c5.21-13.99,8.42-28.73,9.49-43.62.24-3.33.61-7.12,3.29-9.11,1.55-1.15,3.57-1.42,5.49-1.65,5.86-.7,11.72-1.41,17.58-2.11-7.11,16.71-14.23,33.43-21.34,50.14-1.76,4.13-3.57,8.35-6.59,11.68s-7.53,5.65-11.95,4.88"/>
      <path class="cls-13" d="M181.19,76.28c-4.15,0-8.5-2.23-11.79-6.1-3-3.53-4.9-7.95-6.57-11.85l-18.73-43.67,3.68-1.58,18.73,43.67c1.64,3.82,3.33,7.76,5.94,10.84,2.69,3.17,6.16,4.91,9.3,4.67,3.99-.31,7.42-3.55,10.87-7.13L248.78,6.81l2.88,2.77-56.16,58.31c-4.01,4.16-8.05,7.93-13.44,8.35-.29.02-.58.03-.87.03Z"/>
      <path class="cls-13" d="M318.81,76.28c-.29,0-.58-.01-.87-.03-5.39-.41-9.44-4.19-13.44-8.35l-56.16-58.31,2.88-2.77,56.16,58.31c3.45,3.58,6.88,6.83,10.87,7.13,3.14.24,6.61-1.51,9.3-4.67,2.61-3.07,4.31-7.02,5.94-10.84l18.73-43.67,3.68,1.58-18.73,43.67c-1.67,3.9-3.57,8.32-6.57,11.85-3.29,3.87-7.63,6.1-11.79,6.1Z"/>
    </g>
  </g>
</svg>