<?xml version="1.0" encoding="UTF-8"?>
<svg id="Expanded" xmlns="http://www.w3.org/2000/svg" xmlns:xlink="http://www.w3.org/1999/xlink" viewBox="0 0 500 700">
  <defs>
    <style>
      .cls-1 {
        fill: #a152db;
      }

      .cls-2 {
        fill: #4d4d4d;
      }

      .cls-3 {
        fill: #fff;
      }

      .cls-4 {
        fill: #ea9939;
      }

      .cls-5 {
        fill: #d87625;
      }

      .cls-6 {
        fill: #fff8d9;
      }

      .cls-7 {
        fill: #f4b545;
      }

      .cls-8 {
        fill: none;
      }

      .cls-9 {
        clip-path: url(#clippath-1);
      }

      .cls-10 {
        fill: #404040;
      }

      .cls-11 {
        fill: #e9f1f4;
      }

      .cls-12 {
        fill: #6d3108;
      }

      .cls-13 {
        fill: #666;
      }

      .cls-14 {
        clip-path: url(#clippath-3);
      }

      .cls-15 {
        fill: #ffe277;
      }

      .cls-16 {
        fill: #333;
      }

      .cls-17 {
        fill: #999;
      }

      .cls-18 {
        clip-path: url(#clippath-2);
      }

      .cls-19 {
        fill: #efa7fc;
      }

      .cls-20 {
        fill: #d27cf2;
      }
    </style>
    <clipPath id="clippath">
      <rect class="cls-8" x="664" y="968" width="572" height="468" rx="32" ry="32" transform="translate(2152 252) rotate(90)"/>
    </clipPath>
    <clipPath id="clippath-1">
      <rect class="cls-8" x="-36" y="968" width="572" height="468" rx="32" ry="32" transform="translate(1452 952) rotate(90)"/>
    </clipPath>
    <clipPath id="clippath-2">
      <rect class="cls-8" x="-36" y="68" width="572" height="468" rx="32" ry="32" transform="translate(552 52) rotate(90)"/>
    </clipPath>
    <clipPath id="clippath-3">
      <rect class="cls-8" x="-736" y="68" width="572" height="468" rx="32" ry="32" transform="translate(-148 752) rotate(90)"/>
    </clipPath>
  </defs>
  <g>
    <g>
      <path class="cls-11" d="M48,699.5c-26.19,0-47.5-21.31-47.5-47.5V48C.5,21.81,21.81.5,48,.5h404c8.33,0,16.53,2.19,23.71,6.33,14.67,8.47,23.79,24.24,23.79,41.17v604c0,26.19-21.31,47.5-47.5,47.5H48Z"/>
      <path class="cls-16" d="M452,1c8.25,0,16.36,2.17,23.46,6.27,14.52,8.38,23.54,23.98,23.54,40.73v604c0,25.92-21.08,47-47,47H48c-25.92,0-47-21.08-47-47V48C1,22.08,22.08,1,48,1h404M452,0H48C21.49,0,0,21.49,0,48v604c0,26.51,21.49,48,48,48h404c26.51,0,48-21.49,48-48V48c0-17.79-9.67-33.31-24.04-41.6-7.05-4.07-15.23-6.4-23.96-6.4h0Z"/>
    </g>
    <path class="cls-3" d="M500,48v374.52L0,539.11V117.39L475.96,6.4c14.37,8.29,24.04,23.81,24.04,41.6Z"/>
    <path class="cls-3" d="M500,459.42v140.57l-428.9,100.01h-23.1c-26.51,0-48-21.49-48-48v-75.99l500-116.59Z"/>
    <path class="cls-16" d="M452,1c25.92,0,47,21.08,47,47v604c0,25.92-21.08,47-47,47H48c-25.92,0-47-21.08-47-47V48C1,22.08,22.08,1,48,1h404M452,0H48C21.49,0,0,21.49,0,48v604c0,26.51,21.49,48,48,48h404c26.51,0,48-21.49,48-48V48c0-26.51-21.49-48-48-48h0Z"/>
    <g>
      <rect class="cls-3" x="15" y="15" width="470" height="574" rx="33" ry="33"/>
      <path class="cls-16" d="M452,16c17.67,0,32,14.33,32,32v508c0,17.67-14.33,32-32,32H48c-17.67,0-32-14.33-32-32V48c0-17.67,14.33-32,32-32h404M452,14H48c-18.75,0-34,15.25-34,34v508c0,18.75,15.25,34,34,34h404c18.75,0,34-15.25,34-34V48c0-18.75-15.25-34-34-34h0Z"/>
    </g>
  </g>
  <g class="cls-9">
    <g>
      <g id="_x3C_Radial_Repeat_x3E_">
        <rect class="cls-3" x="-42.08" y="614.57" width="1" height="526.72" transform="translate(-628.71 223.89) rotate(-44.63)"/>
      </g>
      <g id="_x3C_Radial_Repeat_x3E_-2" data-name="_x3C_Radial_Repeat_x3E_">
        <rect class="cls-3" x="-6.63" y="584.69" width="1" height="526.72" transform="translate(-495.13 155.15) rotate(-35.63)"/>
      </g>
      <g id="_x3C_Radial_Repeat_x3E_-3" data-name="_x3C_Radial_Repeat_x3E_">
        <rect class="cls-3" x="33.07" y="560.73" width="1" height="526.72" transform="translate(-365.76 102.44) rotate(-26.63)"/>
      </g>
      <g id="_x3C_Radial_Repeat_x3E_-4" data-name="_x3C_Radial_Repeat_x3E_">
        <rect class="cls-3" x="76.02" y="543.27" width="1" height="526.72" transform="translate(-240.66 61.04) rotate(-17.63)"/>
      </g>
      <g id="_x3C_Radial_Repeat_x3E_-5" data-name="_x3C_Radial_Repeat_x3E_">
        <rect class="cls-3" x="121.18" y="532.75" width="1" height="526.72" transform="translate(-118.02 27.25) rotate(-8.63)"/>
      </g>
      <g id="_x3C_Radial_Repeat_x3E_-6" data-name="_x3C_Radial_Repeat_x3E_">
        <rect class="cls-3" x="-95.43" y="792.28" width="526.72" height="1" transform="translate(-625.98 955.28) rotate(-89.61)"/>
      </g>
      <g id="_x3C_Radial_Repeat_x3E_-7" data-name="_x3C_Radial_Repeat_x3E_">
        <rect class="cls-3" x="-49.23" y="796.22" width="526.72" height="1" transform="translate(-606.86 878.01) rotate(-80.61)"/>
      </g>
      <g id="_x3C_Radial_Repeat_x3E_-8" data-name="_x3C_Radial_Repeat_x3E_">
        <rect class="cls-3" x="-4.22" y="807.35" width="526.72" height="1" transform="translate(-589.21 799.01) rotate(-71.62)"/>
      </g>
      <g id="_x3C_Radial_Repeat_x3E_-9" data-name="_x3C_Radial_Repeat_x3E_">
        <rect class="cls-3" x="38.5" y="825.38" width="526.72" height="1" transform="translate(-570.35 714.33) rotate(-62.63)"/>
      </g>
      <g id="_x3C_Radial_Repeat_x3E_-10" data-name="_x3C_Radial_Repeat_x3E_">
        <rect class="cls-3" x="77.87" y="849.87" width="526.72" height="1" transform="translate(-545.81 620.74) rotate(-53.62)"/>
      </g>
      <g id="_x3C_Radial_Repeat_x3E_-11" data-name="_x3C_Radial_Repeat_x3E_">
        <rect class="cls-3" x="112.92" y="880.21" width="526.72" height="1" transform="translate(-510.32 518.51) rotate(-44.64)"/>
      </g>
    </g>
  </g>
  <g class="cls-18">
    <rect class="cls-1" x="4.41" y="16" width="491.18" height="606.01"/>
    <path class="cls-20" d="M35.09,322.59h-7.31c-2.29,0-4.15-1.86-4.15-4.15v-8.63h-8.63c-2.29,0-4.15-1.86-4.15-4.15v-7.31c0-2.29,1.86-4.15,4.15-4.15h8.63v-8.63c0-2.29,1.86-4.15,4.15-4.15h7.31c2.29,0,4.15,1.86,4.15,4.15v8.63h8.63c2.29,0,4.15,1.86,4.15,4.15v7.31c0,2.29-1.86,4.15-4.15,4.15h-8.63v8.63c0,2.29-1.86,4.15-4.15,4.15ZM15,295.19c-1.74,0-3.15,1.41-3.15,3.15v7.31c0,1.74,1.41,3.15,3.15,3.15h9.63v9.63c0,1.74,1.42,3.15,3.15,3.15h7.31c1.74,0,3.15-1.41,3.15-3.15v-9.63h9.63c1.74,0,3.15-1.41,3.15-3.15v-7.31c0-1.74-1.41-3.15-3.15-3.15h-9.63v-9.63c0-1.74-1.42-3.15-3.15-3.15h-7.31c-1.74,0-3.15,1.41-3.15,3.15v9.63h-9.63Z"/>
    <path class="cls-20" d="M250.95,492.75h-5.74c-1.86,0-3.37-1.51-3.37-3.37v-6.67h-6.67c-1.86,0-3.37-1.51-3.37-3.37v-5.74c0-1.86,1.51-3.37,3.37-3.37h6.67v-6.67c0-1.86,1.51-3.37,3.37-3.37h5.74c1.86,0,3.37,1.51,3.37,3.37v6.67h6.67c1.86,0,3.37,1.51,3.37,3.37v5.74c0,1.86-1.51,3.37-3.37,3.37h-6.67v6.67c0,1.86-1.51,3.37-3.37,3.37ZM235.18,471.24c-1.31,0-2.37,1.06-2.37,2.37v5.74c0,1.31,1.06,2.37,2.37,2.37h7.67v7.67c0,1.31,1.06,2.37,2.37,2.37h5.74c1.31,0,2.37-1.06,2.37-2.37v-7.67h7.67c1.31,0,2.37-1.06,2.37-2.37v-5.74c0-1.31-1.06-2.37-2.37-2.37h-7.67v-7.67c0-1.31-1.06-2.37-2.37-2.37h-5.74c-1.31,0-2.37,1.06-2.37,2.37v7.67h-7.67Z"/>
    <path class="cls-20" d="M163.75,420.25h-13.97c-4.13,0-7.48-3.36-7.48-7.48v-16.96h-16.96c-4.13,0-7.48-3.36-7.48-7.48v-13.97c0-4.13,3.36-7.48,7.48-7.48h16.96v-16.96c0-4.13,3.36-7.48,7.48-7.48h13.97c4.13,0,7.48,3.36,7.48,7.48v16.96h16.96c4.13,0,7.48,3.36,7.48,7.48v13.97c0,4.13-3.36,7.48-7.48,7.48h-16.96v16.96c0,4.13-3.36,7.48-7.48,7.48ZM125.34,367.88c-3.58,0-6.48,2.91-6.48,6.48v13.97c0,3.57,2.91,6.48,6.48,6.48h17.96v17.96c0,3.57,2.91,6.48,6.48,6.48h13.97c3.57,0,6.48-2.91,6.48-6.48v-17.96h17.96c3.58,0,6.48-2.91,6.48-6.48v-13.97c0-3.57-2.91-6.48-6.48-6.48h-17.96v-17.96c0-3.57-2.91-6.48-6.48-6.48h-13.97c-3.57,0-6.48,2.91-6.48,6.48v17.96h-17.96Z"/>
    <path class="cls-20" d="M443.48,123.46h-13.97c-4.13,0-7.48-3.36-7.48-7.48v-16.96h-16.96c-4.13,0-7.48-3.36-7.48-7.48v-13.97c0-4.13,3.36-7.48,7.48-7.48h16.96v-16.96c0-4.13,3.36-7.48,7.48-7.48h13.97c4.13,0,7.48,3.36,7.48,7.48v16.96h16.96c4.13,0,7.48,3.36,7.48,7.48v13.97c0,4.13-3.36,7.48-7.48,7.48h-16.96v16.96c0,4.13-3.36,7.48-7.48,7.48ZM405.08,71.08c-3.57,0-6.48,2.91-6.48,6.48v13.97c0,3.58,2.91,6.48,6.48,6.48h17.96v17.96c0,3.57,2.91,6.48,6.48,6.48h13.97c3.58,0,6.48-2.91,6.48-6.48v-17.96h17.96c3.58,0,6.48-2.91,6.48-6.48v-13.97c0-3.57-2.91-6.48-6.48-6.48h-17.96v-17.96c0-3.58-2.91-6.48-6.48-6.48h-13.97c-3.58,0-6.48,2.91-6.48,6.48v17.96h-17.96Z"/>
    <path class="cls-20" d="M168.01,77.31h-13.97c-4.13,0-7.48-3.36-7.48-7.48v-16.96h-16.96c-4.13,0-7.48-3.36-7.48-7.48v-13.97c0-4.13,3.36-7.48,7.48-7.48h16.96V6.98c0-4.13,3.36-7.48,7.48-7.48h13.97c4.13,0,7.48,3.36,7.48,7.48v16.96h16.96c4.13,0,7.48,3.36,7.48,7.48v13.97c0,4.13-3.36,7.48-7.48,7.48h-16.96v16.96c0,4.13-3.36,7.48-7.48,7.48ZM129.6,24.94c-3.57,0-6.48,2.91-6.48,6.48v13.97c0,3.57,2.91,6.48,6.48,6.48h17.96v17.96c0,3.57,2.91,6.48,6.48,6.48h13.97c3.58,0,6.48-2.91,6.48-6.48v-17.96h17.96c3.57,0,6.48-2.91,6.48-6.48v-13.97c0-3.57-2.91-6.48-6.48-6.48h-17.96V6.98c0-3.57-2.91-6.48-6.48-6.48h-13.97c-3.58,0-6.48,2.91-6.48,6.48v17.96h-17.96Z"/>
    <path class="cls-20" d="M380.58,253.09h-22.49c-6.48,0-11.75-5.27-11.75-11.75v-27.62h-27.62c-6.48,0-11.75-5.27-11.75-11.75v-22.49c0-6.48,5.27-11.75,11.75-11.75h27.62v-27.62c0-6.48,5.27-11.75,11.75-11.75h22.49c6.48,0,11.75,5.27,11.75,11.75v27.62h27.62c6.48,0,11.75,5.27,11.75,11.75v22.49c0,6.48-5.27,11.75-11.75,11.75h-27.62v27.62c0,6.48-5.27,11.75-11.75,11.75ZM318.73,168.74c-5.93,0-10.75,4.82-10.75,10.75v22.49c0,5.93,4.82,10.75,10.75,10.75h28.62v28.62c0,5.93,4.82,10.75,10.75,10.75h22.49c5.93,0,10.75-4.82,10.75-10.75v-28.62h28.62c5.93,0,10.75-4.82,10.75-10.75v-22.49c0-5.93-4.82-10.75-10.75-10.75h-28.62v-28.62c0-5.93-4.82-10.75-10.75-10.75h-22.49c-5.93,0-10.75,4.82-10.75,10.75v28.62h-28.62Z"/>
    <path class="cls-20" d="M455.55,162.26v12.33c0,3.41-2.76,6.17-6.17,6.17h-15.42v15.42c0,3.41-2.76,6.17-6.17,6.17h-12.33c-3.41,0-6.17-2.76-6.17-6.17v-15.42h-15.42c-3.41,0-6.17-2.76-6.17-6.17v-12.33c0-3.41,2.76-6.17,6.17-6.17h15.42v-15.42c0-3.41,2.76-6.17,6.17-6.17h12.33c3.41,0,6.17,2.76,6.17,6.17v15.42h15.42c3.41,0,6.17,2.76,6.17,6.17Z"/>
    <path class="cls-20" d="M320.48,117.44h-29.87c-8.51,0-15.44-6.92-15.44-15.44v-36.84h-36.84c-8.51,0-15.44-6.92-15.44-15.44v-29.87c0-8.51,6.92-15.44,15.44-15.44h36.84v-36.84c0-8.51,6.92-15.44,15.44-15.44h29.87c8.51,0,15.44,6.92,15.44,15.44V4.42h36.84c8.51,0,15.44,6.92,15.44,15.44v29.87c0,8.51-6.92,15.44-15.44,15.44h-36.84v36.84c0,8.51-6.92,15.44-15.44,15.44ZM238.33,5.42c-7.96,0-14.44,6.48-14.44,14.44v29.87c0,7.96,6.48,14.44,14.44,14.44h37.84v37.84c0,7.96,6.48,14.44,14.44,14.44h29.87c7.96,0,14.44-6.48,14.44-14.44v-37.84h37.84c7.96,0,14.44-6.48,14.44-14.44v-29.87c0-7.96-6.48-14.44-14.44-14.44h-37.84v-37.84c0-7.96-6.48-14.44-14.44-14.44h-29.87c-7.96,0-14.44,6.48-14.44,14.44V5.42h-37.84Z"/>
    <path class="cls-20" d="M260.91,554.65h-29.87c-8.51,0-15.44-6.92-15.44-15.44v-36.84h-36.84c-8.51,0-15.44-6.92-15.44-15.44v-29.87c0-8.51,6.92-15.44,15.44-15.44h36.84v-36.84c0-8.51,6.92-15.44,15.44-15.44h29.87c8.51,0,15.44,6.92,15.44,15.44v36.84h36.84c8.51,0,15.44,6.92,15.44,15.44v29.87c0,8.51-6.92,15.44-15.44,15.44h-36.84v36.84c0,8.51-6.92,15.44-15.44,15.44ZM178.75,442.62c-7.96,0-14.44,6.48-14.44,14.44v29.87c0,7.96,6.48,14.44,14.44,14.44h37.84v37.84c0,7.96,6.48,14.44,14.44,14.44h29.87c7.96,0,14.44-6.48,14.44-14.44v-37.84h37.84c7.96,0,14.44-6.48,14.44-14.44v-29.87c0-7.96-6.48-14.44-14.44-14.44h-37.84v-37.84c0-7.96-6.48-14.44-14.44-14.44h-29.87c-7.96,0-14.44,6.48-14.44,14.44v37.84h-37.84Z"/>
    <path class="cls-20" d="M73.1,181.57h-22.49c-6.48,0-11.75-5.27-11.75-11.75v-27.62H11.25c-6.48,0-11.75-5.27-11.75-11.75v-22.49c0-6.48,5.27-11.75,11.75-11.75h27.62v-27.62c0-6.48,5.27-11.75,11.75-11.75h22.49c6.48,0,11.75,5.27,11.75,11.75v27.62h27.62c6.48,0,11.75,5.27,11.75,11.75v22.49c0,6.48-5.27,11.75-11.75,11.75h-27.62v27.62c0,6.48-5.27,11.75-11.75,11.75ZM11.25,97.22c-5.93,0-10.75,4.82-10.75,10.75v22.49c0,5.93,4.82,10.75,10.75,10.75h28.62v28.62c0,5.93,4.82,10.75,10.75,10.75h22.49c5.93,0,10.75-4.82,10.75-10.75v-28.62h28.62c5.93,0,10.75-4.82,10.75-10.75v-22.49c0-5.93-4.82-10.75-10.75-10.75h-28.62v-28.62c0-5.93-4.82-10.75-10.75-10.75h-22.49c-5.93,0-10.75,4.82-10.75,10.75v28.62H11.25Z"/>
    <path class="cls-20" d="M237.09,165.86v7.31c0,2.02-1.63,3.65-3.65,3.65h-9.13v9.13c0,2.02-1.63,3.65-3.65,3.65h-7.31c-2.02,0-3.65-1.63-3.65-3.65v-9.13h-9.13c-2.02,0-3.65-1.63-3.65-3.65v-7.31c0-2.02,1.63-3.65,3.65-3.65h9.13v-9.13c0-2.02,1.63-3.65,3.65-3.65h7.31c2.02,0,3.65,1.63,3.65,3.65v9.13h9.13c2.02,0,3.65,1.63,3.65,3.65Z"/>
    <path class="cls-19" d="M428.8,550.01h-20.96c-6.05,0-10.98-4.93-10.98-10.98v-25.7h-25.7c-6.05,0-10.98-4.93-10.98-10.98v-20.96c0-6.05,4.93-10.98,10.98-10.98h25.7v-25.7c0-6.05,4.93-10.98,10.98-10.98h20.96c6.05,0,10.98,4.93,10.98,10.98v25.7h25.7c6.05,0,10.98,4.93,10.98,10.98v20.96c0,6.05-4.93,10.98-10.98,10.98h-25.7v25.7c0,6.05-4.93,10.98-10.98,10.98ZM371.16,471.42c-5.5,0-9.98,4.48-9.98,9.98v20.96c0,5.5,4.48,9.98,9.98,9.98h26.7v26.7c0,5.5,4.48,9.98,9.98,9.98h20.96c5.5,0,9.98-4.48,9.98-9.98v-26.7h26.7c5.5,0,9.98-4.48,9.98-9.98v-20.96c0-5.5-4.48-9.98-9.98-9.98h-26.7v-26.7c0-5.5-4.48-9.98-9.98-9.98h-20.96c-5.5,0-9.98,4.48-9.98,9.98v26.7h-26.7Z"/>
    <path class="cls-19" d="M385.27,553.68v12.51c0,3.46-2.8,6.26-6.26,6.26h-15.64v15.64c0,3.46-2.8,6.26-6.26,6.26h-12.51c-3.46,0-6.26-2.8-6.26-6.26v-15.64h-15.64c-3.46,0-6.26-2.8-6.26-6.26v-12.51c0-3.46,2.8-6.26,6.26-6.26h15.64v-15.64c0-3.46,2.8-6.26,6.26-6.26h12.51c3.46,0,6.26,2.8,6.26,6.26v15.64h15.64c3.46,0,6.26,2.8,6.26,6.26Z"/>
    <g>
      <path class="cls-13" d="M177.21,309.53c-24.96,13.02-52.67,10.2-77.95.78-23.25-8.67-46.02-23.55-58.71-47.89-9.63-18.48-12.1-38.73-8.37-57.36,4.37-21.94,17.33-41.64,37.26-53.57,1.33-.8,2.7-1.56,4.09-2.29,24.97-13.01,55.69-9.57,80.96-.15,23.25,8.67,43.02,22.93,55.7,47.26,21.74,41.71,6.98,92.4-32.98,113.22Z"/>
      <path class="cls-17" d="M101.34,164.54l-23.25,55.13-45.91-14.61c4.37-21.94,17.33-41.64,37.26-53.57,14.73,6.2,30.71,12.84,31.9,13.05Z"/>
      <path class="cls-17" d="M43.25,248.3c-2.96-14.49-4.3-30.29-.91-44.82,3.06-13.14,9.69-26.38,18.02-36.97,7.13-9.05,16.77-15.29,27.22-19.89,5.5-2.43,11.08-4.3,16.7-5.71-10.68.73-21.14,3.29-30.76,8.31-39.95,20.83-54.72,71.52-32.98,113.22,4.18,8.03,9.47,15.02,15.5,21.1-6.08-10.96-10.3-22.97-12.8-35.23Z"/>
      <ellipse class="cls-2" cx="137.85" cy="234.02" rx="81.58" ry="85.15" transform="translate(-92.57 90.23) rotate(-27.53)"/>
      <path class="cls-16" d="M140.14,320.39c-13,0-26.89-2.74-41.58-8.21-27.87-10.39-48.54-27.28-59.78-48.83-10.75-20.63-13.17-44.04-6.79-65.92,6.38-21.91,20.81-39.67,40.62-50,30.21-15.75,64.71-6.92,82.59-.25,26.43,9.85,45,25.63,56.77,48.21h0c10.75,20.63,13.17,44.04,6.79,65.92-6.38,21.91-20.81,39.67-40.62,50-11.62,6.06-24.32,9.09-38,9.09ZM110.79,142.61c-11.92,0-24.5,2.2-36.33,8.37-18.84,9.82-32.55,26.71-38.63,47.57-6.08,20.89-3.78,43.24,6.5,62.95,10.77,20.66,30.7,36.89,57.63,46.93,29.03,10.82,54.71,10.6,76.33-.67,18.84-9.82,32.55-26.71,38.63-47.57,6.08-20.89,3.78-43.24-6.5-62.95h0c-11.29-21.67-29.16-36.82-54.63-46.31-10.17-3.79-25.9-8.32-43-8.32Z"/>
      <ellipse class="cls-13" cx="137.85" cy="234.02" rx="22.89" ry="23.89" transform="translate(-92.57 90.23) rotate(-27.53)"/>
      <path class="cls-17" d="M55.66,226.62c-.55,0-.99-.44-1-.99,0-.49,0-49.65,49.23-70.77.51-.22,1.1.02,1.31.52.22.51-.02,1.1-.52,1.31-47.99,20.58-48.03,68.43-48.02,68.91,0,.55-.44,1-.99,1.01,0,0,0,0-.01,0Z"/>
      <path class="cls-17" d="M111.75,154.1c-.44,0-.84-.29-.96-.73-.15-.53.16-1.08.69-1.23l4.15-1.17c.53-.15,1.08.16,1.23.69.15.53-.16,1.08-.69,1.23l-4.15,1.17c-.09.03-.18.04-.27.04Z"/>
    </g>
    <g>
      <g>
        <path class="cls-12" d="M333.21,515.1c-1.6,0-3.23-.13-4.91-.41-13.78-2.29-28.94-8.21-46.36-18.09l-3.9-2.21,75.72-104.1c3.45-17.53,13.9-32.22,24.01-46.44,9.49-13.34,18.45-25.95,22.2-40.74,3.1-12.24,2.34-24.86,1.53-38.21-.64-10.63-1.31-21.63.15-32.47,1.01-7.48,3.17-14.93,6.43-22.15,9.49-21,27.85-39.34,50.38-50.33,15.01-7.32,31.41-10.09,46.19-7.8,6.36.99,12.63,2.95,18.64,5.85,19.83,9.56,35.65,28.6,42.3,50.94,7.6,25.48,4.44,55.29-8.9,83.92h0c-11.5,24.69-29.13,48.66-49.64,67.48-5.46,5.01-9.93,12.41-14.25,19.56-2.49,4.12-5.07,8.38-7.82,12.16-8.35,11.45-17.4,22.58-26.89,33.1-7.8,8.64-16.05,17.02-24.52,24.93-20.77,19.41-43.53,36.6-67.65,51.09-1.6.96-3.19,1.96-4.78,2.96-8.59,5.4-17.44,10.96-27.92,10.96ZM289.8,491.83c14.93,8.11,27.99,13.01,39.8,14.98,9.7,1.61,18.23-3.75,27.27-9.43,1.63-1.02,3.26-2.05,4.91-3.04,23.64-14.21,45.95-31.06,66.31-50.08,8.31-7.75,16.39-15.98,24.04-24.45,9.31-10.31,18.18-21.23,26.37-32.45,2.55-3.5,4.92-7.42,7.43-11.58,4.62-7.64,9.39-15.53,15.7-21.32,19.75-18.13,36.73-41.2,47.8-64.96,12.51-26.86,15.52-54.65,8.48-78.26-6.02-20.22-20.26-37.42-38.1-46.02-5.3-2.55-10.81-4.28-16.39-5.15-13.18-2.05-27.9.47-41.45,7.08-20.88,10.19-37.87,27.11-46.6,46.43-2.93,6.51-4.88,13.22-5.79,19.93-1.35,10.07-.71,20.67-.09,30.92.81,13.38,1.65,27.22-1.76,40.66-4.12,16.24-13.94,30.05-23.43,43.4-10.23,14.38-19.88,27.97-22.83,44.15l-.16.9-71.49,98.28Z"/>
        <path class="cls-12" d="M360.08,426.97c-7.1,0-13.4-2.01-18.34-6.04-8.33-6.8-12.11-18.15-11.57-34.71,1.5-45.3,24.77-98.68,66.35-113.04,10.09-3.49,20.32-2.93,29.59,1.6,10.01,4.9,17.66,13.87,21.53,25.25h0c4.78,14.07,3.99,31.11-2.3,49.28-10.11,29.19-31.37,54.59-58.32,69.68-9.48,5.31-18.74,7.98-26.93,7.98ZM409.59,278.93c-3.45,0-6.96.6-10.46,1.81-38.17,13.18-59.56,63.17-60.97,105.74-.46,13.9,2.36,23.14,8.63,28.25,11.88,9.69,30.8.37,36.31-2.72,25.27-14.14,45.2-37.95,54.67-65.31,3.98-11.49,7.6-28.46,2.29-44.09h0c-3.13-9.22-9.5-16.74-17.47-20.64-4.13-2.02-8.52-3.04-13-3.04Z"/>
        <path class="cls-12" d="M385.76,399.29c-1.53,0-3.04-.28-4.49-.93-3.45-1.54-6.28-5.07-9.01-8.48-1.39-1.74-2.71-3.38-3.81-4.37-10.09-9.03-21.4-15.58-32.69-18.93l-3.48-1.03.69-3.56c3.84-19.83,11.05-38.26,20.85-53.3,11.58-17.78,25.95-29.73,42.7-35.52,19-6.56,41.14,2.97,48.35,20.82.84,2.09,1.6,4.21,2.25,6.32h0c5.41,17.54,3.74,34.99-4.83,50.46-9.2,16.62-23.93,29.04-38.47,39.98-4.23,3.18-11.34,8.54-18.06,8.54ZM341.54,360.05c11.32,3.93,22.16,10.48,32.25,19.51,1.6,1.43,3.12,3.33,4.72,5.33,1.94,2.42,4.34,5.43,6.02,6.17,3.5,1.56,11.72-4.62,14.42-6.65,13.9-10.46,27.88-22.21,36.35-37.51,7.48-13.52,8.93-28.81,4.18-44.23-.58-1.89-1.26-3.8-2.02-5.68-5.67-14.03-23.21-21.47-38.32-16.25-32.22,11.13-50.68,47.61-57.6,79.31Z"/>
        <path class="cls-12" d="M326.35,511.43c-11.23,0-23.07-2.96-34.42-8.73-15.77-8.01-28.61-20.2-38.03-29.92-22.6-23.34-41.77-49.91-56.96-78.99-11.4-21.78-20.41-44.73-26.79-68.18-2.31-8.53-3.87-17.48.4-25.2,5.57-10.07,16.62-11.78,27.32-13.44,4.92-.76,10-1.55,14.22-3.17,2.95-1.14,5.24-2.58,7.01-4.41l3.73-3.86,2.63,4.68c15.48,27.57,39.36,51.23,67.25,66.63,4.24,2.34,8.64,4.53,13.08,6.49,4.65,2.06,9.54,3.98,14.26,5.84,12.57,4.94,25.57,10.04,36.54,18.66,23.08,18.14,33.11,50.36,24.42,78.39l-4.88,19.76c-3.82,15.87-18.15,29.45-35.64,33.77-4.54,1.12-9.29,1.67-14.14,1.67ZM220.88,288.25c-1.75,1.16-3.71,2.16-5.91,3.01-5.02,1.93-10.54,2.78-15.87,3.61-9.59,1.49-17.87,2.77-21.54,9.4-2.89,5.22-1.55,12.32.32,19.23,6.22,22.9,15.02,45.3,26.15,66.57,14.84,28.4,33.55,54.35,55.62,77.13,8.99,9.28,21.2,20.89,35.91,28.36,14.55,7.39,29.83,9.67,43.02,6.42,14.67-3.62,26.64-14.84,29.79-27.9l4.98-20.13c7.67-24.57-1.46-53.94-21.69-69.83-10.04-7.89-21.93-12.56-34.52-17.5-4.8-1.89-9.77-3.84-14.58-5.97-4.65-2.06-9.26-4.35-13.7-6.81-28.2-15.56-51.62-38.18-67.98-65.59Z"/>
        <path class="cls-12" d="M179.58,336.55l-59.46-69.44c-4.74-5.53-11.24-13.11-12.14-22.5-1.09-11.28,5.78-20.75,12.9-29.49,1.82-2.23,3.75-4.33,5.62-6.36,1.34-1.46,2.73-2.97,4.03-4.48,1.16-1.35,1.92-2.84,2.8-4.55.8-1.55,1.7-3.32,3-5.09,5.23-7.15,14.38-11.92,24.48-12.75,11.74-.97,23.13,2.81,33.18,6.15l31.45,10.44c3.49,1.16,7.1,2.36,10.67,3.84,3.02,1.27,5.63,2.59,7.99,4.05,9.26,5.73,16.36,15.49,19.48,26.78,2.62,9.48,1.16,18.01-.25,26.26-.34,2-.7,4.07-.99,6.14h0c-2.3,16.18-8.55,32.58-18.08,47.43-5.1,7.97-11.06,15.35-17.7,21.93l-1.15,1.14-45.81.51ZM164.65,189.73c-1.06,0-2.13.04-3.19.13-7.7.63-14.86,4.28-18.68,9.5-.93,1.27-1.61,2.6-2.33,4.02-.97,1.89-2.07,4.04-3.85,6.12-1.39,1.61-2.82,3.17-4.21,4.68-1.87,2.03-3.64,3.96-5.31,6.01-6.07,7.45-11.94,15.41-11.14,23.67.61,6.35,5,11.94,10.25,18.06l57.03,66.6,38.82-.43c5.77-5.88,10.97-12.4,15.46-19.42,8.92-13.89,14.76-29.19,16.9-44.24.31-2.18.67-4.31,1.03-6.36,1.38-8.06,2.57-15.02.43-22.78-2.59-9.37-8.41-17.42-15.98-22.1-2-1.24-4.24-2.37-6.87-3.47-3.28-1.36-6.75-2.52-10.1-3.63l-31.45-10.44c-8.75-2.91-17.77-5.9-26.81-5.9Z"/>
        <path class="cls-12" d="M394.82,466.37l-2.69-7.53c22.58-8.06,45.94-16.4,66.81-28.73,22.95-13.55,40.14-30.76,49.71-49.77,5.84-11.61,9.24-24.6,9.81-37.58.47-10.58-1.68-18.2-6.38-22.65-7.79-7.38-21.25-5.29-33.38-2.27l-1.93-7.76c14.24-3.55,30.23-5.82,40.82,4.22,6.46,6.12,9.44,15.81,8.86,28.81-.62,14.1-4.31,28.22-10.65,40.83-10.26,20.38-28.51,38.73-52.79,53.06-21.53,12.71-45.24,21.18-68.18,29.37Z"/>
        <path class="cls-12" d="M455.08,273.73c-10.42,0-20.64-2.52-29.4-7.54-6.71-3.85-12.1-8.88-15.59-14.56-4.33-7.03-6.32-16.03-5.59-25.33.39-5.03,1.55-10.32,3.44-15.7l.13-.32c9.49-20.99,27.85-39.34,50.38-50.33,15.01-7.32,31.41-10.09,46.19-7.8,6.36.99,12.63,2.95,18.64,5.85l1.57.76.52,1.66c.94,3.02,1.64,6.38,2.16,10.27,2.67,20.12.39,39.47-6.61,55.96-7.84,18.5-21.96,33.51-38.74,41.19-8.61,3.94-17.92,5.89-27.09,5.89ZM415.44,213.42c-1.63,4.68-2.62,9.22-2.96,13.51-.6,7.62.98,14.91,4.43,20.51,2.79,4.54,7.2,8.62,12.75,11.81,14.26,8.16,33.11,8.67,49.19,1.31,14.98-6.85,27.63-20.35,34.7-37.03h0c6.44-15.18,8.53-33.09,6.05-51.79-.36-2.71-.81-5.11-1.38-7.27-4.8-2.15-9.77-3.63-14.79-4.41-13.18-2.05-27.9.47-41.45,7.08-20.83,10.16-37.78,27.02-46.53,46.27Z"/>
        <path class="cls-12" d="M243,314.9l-2.29-.1c-10.75-.46-22.24-5.57-31.54-14.04-3.64-3.32-6.62-7.03-9.5-10.62-1.36-1.7-2.77-3.45-4.21-5.11-3.14-3.62-6.16-7.43-8.97-11.32l-.82-1.13c-2.3-3.13-4.67-6.37-5.59-10.92-1.74-8.6-.1-17.79,4.49-25.23.65-1.05,1.29-2.11,1.93-3.16,3.06-5.04,6.23-10.25,10.23-15.03,5.01-5.98,10.48-10.58,16.28-13.7,3.81-2.05,6.73-2.4,10.44-2.67,1.67-.12,3.45.04,5.17.2,1.79.16,3.82.35,4.89.08l1.29-.32,1.31.5c3.01,1.26,5.62,2.59,7.98,4.05,9.26,5.73,16.36,15.49,19.48,26.78,2.62,9.48,1.16,18.01-.25,26.26-.34,2-.7,4.07-.99,6.14h0c-2.3,16.18-8.55,32.58-18.08,47.43l-1.24,1.93ZM224.68,209.83c-.23,0-.46,0-.66.02-3.22.24-4.87.47-7.23,1.74-4.89,2.63-9.58,6.6-13.94,11.79-3.61,4.31-6.49,9.04-9.53,14.04-.65,1.07-1.3,2.14-1.96,3.21-3.54,5.73-4.8,12.81-3.45,19.44.57,2.83,2.17,5.01,4.2,7.78.28.39.57.78.86,1.17,2.67,3.7,5.54,7.32,8.53,10.76,1.54,1.77,3,3.59,4.41,5.35,2.81,3.5,5.47,6.81,8.65,9.71,7.26,6.61,15.96,10.83,24.21,11.78,8.2-13.35,13.59-27.89,15.63-42.22h0c.31-2.18.67-4.31,1.03-6.36,1.38-8.06,2.57-15.02.43-22.78-2.59-9.37-8.41-17.42-15.98-22.1-1.72-1.06-3.63-2.06-5.8-3.01-2.04.26-4.14.07-6.19-.12-1.12-.1-2.28-.21-3.21-.21Z"/>
        <path class="cls-12" d="M288.86,353.84c-.98-.54-1.95-1.09-2.92-1.65l-5.37-3.03q-46.72-26.36-64.56-24.49c-2.15.22-4.54.47-7.26.71l-.56.06c-5.44.56-8.61-1.33-9.38-5.62-.68-3.81,2.24-5.92,3.49-6.82.19-.14.38-.27.55-.41l4.68-3.87c1.03-.85,2-1.66,2.65-2.51.46-.6.72-1.22.7-1.65-.03-.88-1.13-2.23-2.1-3.42l-.21-.25c-4.29-5.31-4.52-10.98-.6-14.8.79-.76,1.82-1.27,4.7-2.63,1.73-.82,5.34-2.52,6.14-3.25-.56.52-1.26,2.25-.33,3.92l6.98-3.92c14.98,26.68,37.83,49.71,64.57,65.11l2.71,1.53-3.9,6.99ZM225.95,315.95c6.23,0,11.5,1.28,20.42,5.5-9.72-9.99-18.27-21.11-25.46-33.14-1.29.7-2.88,1.47-4.81,2.39-.92.43-2.13,1.01-2.69,1.31-.72,1.09.86,3.21,1.39,3.86l.2.24c1.58,1.94,3.74,4.61,3.88,8.15.09,2.33-.71,4.68-2.33,6.8-1.21,1.59-2.65,2.78-3.92,3.83l-2.88,2.38c1.98-.19,3.78-.37,5.43-.55,4.23-.44,7.63-.77,10.77-.77Z"/>
        <path class="cls-12" d="M193.22,238.66l-7.37-3.11c5.94-14.07,17.28-25.84,31.11-32.31l3.39,7.25c-12.06,5.64-21.95,15.92-27.13,28.18Z"/>
        <rect class="cls-12" x="181.87" y="242.18" width="6.28" height="8" transform="translate(-98.39 366.67) rotate(-76.11)"/>
        <path class="cls-12" d="M141.41,234.23l-7.37-3.11c7.83-18.55,21.41-34.87,38.24-45.94l4.4,6.68c-15.52,10.21-28.04,25.26-35.26,42.37Z"/>
        <path class="cls-12" d="M171.15,231.68l-7.18-3.52c6.88-14.04,17.28-26.21,30.07-35.19l4.6,6.55c-11.69,8.21-21.2,19.33-27.49,32.17Z"/>
        <path class="cls-12" d="M354.9,433.12c-15.64,0-31.37-3.8-45.08-11.09-19.39-10.32-35.25-27.91-43.5-48.27l7.41-3c7.56,18.65,22.08,34.76,39.84,44.21,17.76,9.45,39.24,12.49,58.93,8.35l1.65,7.83c-6.3,1.33-12.77,1.98-19.26,1.98Z"/>
        <rect class="cls-12" x="260.43" y="358.04" width="8" height="7.84" transform="translate(-127.9 145.13) rotate(-24.92)"/>
        <path class="cls-12" d="M422.4,373.98l-4.07-6.89c13.49-7.98,23.14-22.58,25.18-38.12,2.04-15.54-3.5-32.14-14.47-43.34l5.71-5.6c12.65,12.91,19.04,32.06,16.68,49.98s-13.49,34.76-29.04,43.96Z"/>
        <rect class="cls-12" x="411.28" y="372.62" width="5.72" height="8" transform="translate(-137.28 280.26) rotate(-32.37)"/>
        <path class="cls-12" d="M385.07,439.56l-8-.02c.04-13.85-3.91-27.82-11.12-39.33-7.19-11.47-17.73-20.67-29.68-25.91l3.21-7.33c13.4,5.88,25.21,16.18,33.24,28.99,8.01,12.77,12.39,28.26,12.35,43.6Z"/>
        <rect class="cls-12" x="375.38" y="443.29" width="7.48" height="8" transform="translate(-154.48 690.32) rotate(-74.2)"/>
        <path class="cls-12" d="M438.08,446.92l-5.45-5.86c22.67-21.09,43.51-44.39,61.95-69.26l6.43,4.77c-18.73,25.26-39.9,48.93-62.93,70.35Z"/>
        <path class="cls-12" d="M445.4,272.31c-11.01,0-21.75-4.45-29.52-12.26-7.88-7.91-12.29-18.85-12.12-30.01l8,.12c-.14,8.89,3.52,17.95,9.79,24.25,6.27,6.3,15.31,10.01,24.2,9.91l.09,8c-.15,0-.29,0-.44,0Z"/>
        <path class="cls-12" d="M231.93,283.36c-3.56-11.42-12.84-20.85-24.2-24.6l-13.25-4.38,13.56-3.3c7.48-1.82,13.35-9,13.65-16.7l7.9-.74c.98,4.24,3.31,8.38,6.58,11.64,2.29,2.29,4.37,3.76,6.73,4.78,1.3.56,2.66,1,4.04,1.32.14.03.37.09.64.16.47.12,1.88.49,2.38.5,0,0-.94-.02-1.91.76l5.06,6.19c-.57.46-1.17.92-1.78,1.38-1.39,1.05-2.83,2.14-3.6,3.23-1.59,2.27-3,4.34-4.13,6.61l-.23.47c-3.63,7.24-3.93,9.59-3.78,10.35l-7.65,2.34ZM218.49,254.87c6.52,3.76,12.11,9.14,16.14,15.49.51-1.1,1.05-2.2,1.59-3.27l.23-.45c1.37-2.75,3.03-5.18,4.74-7.62.2-.28.4-.55.62-.81-.7-.24-1.39-.51-2.07-.81-3.28-1.42-6.21-3.47-9.21-6.46-1.54-1.54-2.91-3.2-4.1-4.95-1.96,3.49-4.69,6.56-7.93,8.89Z"/>
      </g>
      <g>
        <path class="cls-7" d="M553.06,291.18c-11.34,24.35-28.94,48.07-48.72,66.22-9.16,8.4-15.19,22.14-22.6,32.31-8.3,11.38-17.19,22.32-26.63,32.77-7.74,8.57-15.84,16.81-24.28,24.69-20.48,19.14-42.95,36.15-66.98,50.59-11.25,6.77-21.81,15.16-34.9,12.99-15.71-2.61-31.31-9.83-45.04-17.62l73.61-101.2c5.97-32.8,38.12-55.5,46.32-87.82,5.85-23.07-1.4-47.55,1.77-71.14.99-7.31,3.1-14.36,6.11-21.04,9.52-21.07,28.03-38.4,48.49-48.38,13.52-6.6,28.95-9.75,43.82-7.44,6.13.95,12,2.84,17.52,5.5,19.19,9.25,34.04,27.79,40.2,48.48,7.94,26.64,3.04,55.9-8.69,81.09Z"/>
        <path class="cls-7" d="M443.85,301.32c-6.66-19.58-25.85-31.33-46.02-24.36-41.84,14.45-62.32,68.84-63.66,109.39-.38,11.43,1.24,24.25,10.1,31.48,11.23,9.16,28.15,4.75,40.79-2.33,26.18-14.65,46.68-39.15,56.5-67.5,5.19-15,7.4-31.66,2.3-46.69Z"/>
        <path class="cls-15" d="M443.3,301.49c-.62-2.01-1.33-4.01-2.14-6-6.7-16.59-27-24.17-43.33-18.53-34.1,11.78-54.01,50.08-60.93,85.8,12.75,3.78,24.36,10.95,34.22,19.78,3.55,3.18,7.64,10.33,11.78,12.18,5.69,2.54,14.38-4.04,18.52-7.16,14.44-10.87,28.62-22.91,37.38-38.72,8.38-15.13,9.4-31.44,4.5-47.34Z"/>
        <path class="cls-15" d="M377.17,455.14l-.51,2.06-4.4,17.82c-3.69,15.32-17.41,27.07-32.72,30.85-15.3,3.77-31.74.4-45.79-6.74-14.06-7.14-26-17.82-36.97-29.14-22.4-23.13-41.38-49.53-56.29-78.06-11.21-21.42-20.13-44.04-26.47-67.38-1.99-7.33-3.64-15.56.04-22.21,7.01-12.67,25.93-9.61,39.47-14.81,3.19-1.23,6.08-2.91,8.45-5.36,16.01,28.52,40.18,52.37,68.81,68.17,4.36,2.41,8.83,4.63,13.39,6.65,16.94,7.51,35.38,12.53,49.95,23.98,21.65,17.01,31.24,47.89,23.04,74.17Z"/>
        <path class="cls-15" d="M258.36,264.98c-2.29,16.1-8.55,31.9-17.49,45.83-4.96,7.75-10.76,14.92-17.15,21.25l-42.32.47c-19.41-22.67-38.83-45.35-58.24-68.02-5.11-5.96-10.45-12.46-11.2-20.28-.96-9.94,5.7-18.83,12.02-26.58,3.05-3.74,6.45-7.12,9.58-10.76,2.69-3.14,3.53-6.53,5.99-9.89,4.91-6.72,13.44-10.46,21.58-11.13,10.76-.89,21.35,2.56,31.59,5.96,10.48,3.48,20.97,6.96,31.45,10.44,3.49,1.16,7,2.33,10.39,3.74,2.57,1.08,5.06,2.3,7.42,3.76,8.81,5.45,14.99,14.53,17.73,24.44,2.98,10.79.15,20.22-1.35,30.77Z"/>
        <path class="cls-7" d="M393.47,462.6c23.1-8.25,46.37-16.58,67.49-29.05,21.13-12.47,40.22-29.5,51.25-51.41,6.12-12.15,9.63-25.61,10.23-39.21.41-9.22-.92-19.38-7.62-25.73-9.42-8.93-24.5-6.38-37.1-3.25"/>
        <path class="cls-15" d="M517.23,225.09c-7.14,16.85-20.08,31.5-36.72,39.11-16.64,7.61-36.96,7.61-52.84-1.48-5.65-3.24-10.76-7.63-14.17-13.18-4.17-6.77-5.63-14.99-5.01-22.92.39-5.02,1.56-9.94,3.23-14.69,9.52-21.07,28.03-38.4,48.49-48.38,13.52-6.6,28.95-9.75,43.82-7.44,6.13.95,12,2.84,17.52,5.5.97,3.12,1.59,6.41,2.01,9.6,2.41,18.14.82,37.03-6.33,53.88Z"/>
        <path class="cls-7" d="M258.36,264.98c-2.29,16.1-8.55,31.9-17.49,45.83-10.62-.45-21.03-5.73-29.01-13-5.11-4.65-8.89-10.22-13.38-15.39-3.08-3.55-6-7.23-8.75-11.04-2.46-3.41-4.89-6.34-5.74-10.5-1.54-7.58-.09-15.75,3.97-22.33,3.73-6.05,7.21-12.21,11.83-17.72,4.24-5.07,9.26-9.6,15.1-12.75,3.09-1.66,5.41-1.96,8.84-2.21,3.2-.23,7.78.91,10.75.17l.08-.02c2.57,1.08,5.06,2.3,7.42,3.76,8.81,5.45,14.99,14.53,17.73,24.44,2.98,10.79.15,20.22-1.35,30.77Z"/>
        <path class="cls-7" d="M290.79,350.34c-62.07-34.97-54.17-31.42-82.39-28.93-2.15.19-5.09.82-5.65-2.29-.3-1.67,1.49-2.48,2.65-3.44,1.56-1.29,3.12-2.58,4.68-3.87,1.18-.97,2.36-1.96,3.29-3.17s1.57-2.7,1.51-4.23c-.09-2.32-1.73-4.23-3.19-6.03-2.18-2.69-3.86-6.56-.92-9.42,1.03-1,12.1-5.22,11.21-6.79,16.01,28.52,40.18,52.37,68.81,68.17Z"/>
        <path class="cls-5" d="M189.54,238.11c-.13,0-.26-.03-.39-.08-.51-.22-.75-.8-.53-1.31,5.66-13.39,16.45-24.6,29.62-30.77.5-.23,1.09-.02,1.33.48.23.5.02,1.1-.48,1.33-12.73,5.95-23.16,16.79-28.63,29.73-.16.38-.53.61-.92.61Z"/>
        <path class="cls-5" d="M184.26,250.23c-.08,0-.16,0-.24-.03-.54-.13-.86-.67-.73-1.21l1.51-6.1c.13-.54.68-.86,1.21-.73.54.13.86.67.73,1.21l-1.51,6.1c-.11.46-.52.76-.97.76Z"/>
        <path class="cls-4" d="M137.73,233.67c-.13,0-.26-.03-.39-.08-.51-.21-.75-.8-.53-1.31,7.6-18.01,20.79-33.85,37.12-44.6.46-.3,1.08-.18,1.38.29.3.46.18,1.08-.29,1.39-16.01,10.53-28.92,26.06-36.38,43.71-.16.38-.53.61-.92.61Z"/>
        <path class="cls-4" d="M167.55,230.92c-.15,0-.3-.03-.44-.1-.5-.24-.7-.84-.46-1.34,6.66-13.59,16.72-25.36,29.1-34.06.45-.32,1.08-.21,1.39.24.32.45.21,1.08-.24,1.39-12.11,8.5-21.95,20.02-28.46,33.3-.17.35-.53.56-.9.56Z"/>
        <path class="cls-4" d="M354.89,430.12c-15.15,0-30.38-3.68-43.66-10.74-18.78-9.99-34.14-27.03-42.13-46.75-.21-.51.04-1.09.55-1.3.51-.21,1.1.04,1.3.55,7.82,19.29,22.84,35.96,41.21,45.74,18.37,9.78,40.59,12.92,60.96,8.63.54-.12,1.07.23,1.18.77.11.54-.23,1.07-.77,1.18-6.1,1.29-12.37,1.92-18.65,1.92Z"/>
        <path class="cls-4" d="M266.08,366.51c-.38,0-.74-.21-.91-.58l-3.3-7.11c-.23-.5-.01-1.1.49-1.33.5-.23,1.09-.02,1.33.49l3.3,7.11c.23.5.01,1.1-.49,1.33-.14.06-.28.09-.42.09Z"/>
        <path class="cls-5" d="M420.36,371.54c-.34,0-.67-.18-.86-.49-.28-.48-.12-1.09.35-1.37,14.26-8.43,24.47-23.88,26.63-40.31,2.16-16.43-3.7-33.99-15.3-45.83-.39-.39-.38-1.03.01-1.41.4-.39,1.03-.38,1.41.01,12.02,12.27,18.09,30.46,15.85,47.49-2.24,17.03-12.81,33.03-27.6,41.77-.16.09-.33.14-.51.14Z"/>
        <path class="cls-5" d="M411.73,379.15c-.33,0-.66-.16-.85-.46-.3-.47-.16-1.08.31-1.38l4.83-3.06c.47-.29,1.08-.16,1.38.31.3.47.16,1.08-.31,1.38l-4.83,3.06c-.17.1-.35.16-.53.16Z"/>
        <path class="cls-5" d="M381.07,440.55h0c-.55,0-1-.45-1-1,.04-14.41-4.07-28.95-11.58-40.93-7.5-11.97-18.52-21.59-31.01-27.07-.51-.22-.74-.81-.51-1.32.22-.51.81-.74,1.32-.51,12.86,5.64,24.19,15.53,31.91,27.84,7.71,12.3,11.93,27.22,11.89,42,0,.55-.45,1-1,1Z"/>
        <path class="cls-5" d="M378.1,451.89c-.09,0-.18-.01-.27-.04-.53-.15-.84-.7-.69-1.23l2.04-7.2c.15-.53.71-.84,1.23-.69.53.15.84.7.69,1.23l-2.04,7.2c-.12.44-.53.73-.96.73Z"/>
        <path class="cls-5" d="M435.35,444.99c-.27,0-.54-.11-.73-.32-.38-.4-.35-1.04.05-1.41,22.8-21.21,43.77-44.65,62.32-69.67.33-.44.96-.54,1.4-.21.44.33.54.96.21,1.4-18.62,25.11-39.67,48.64-62.56,69.94-.19.18-.44.27-.68.27Z"/>
        <path class="cls-5" d="M445.4,269.31c-10.22,0-20.18-4.13-27.39-11.38-7.31-7.34-11.41-17.49-11.25-27.85,0-.55.46-.98,1-.98h.02c.55,0,.99.46.98,1.02-.15,9.68,3.84,19.55,10.67,26.41,6.83,6.86,16.69,10.89,26.36,10.79h.01c.55,0,.99.44,1,.99,0,.55-.44,1-.99,1.01-.14,0-.27,0-.41,0Z"/>
        <path class="cls-5" d="M225.7,234.53c-.37,9.43-7.53,18.2-16.71,20.43,12.54,4.15,22.82,14.6,26.76,27.21-1.06-3.39,2.79-10.78,4.27-13.74,1.26-2.53,2.82-4.81,4.44-7.12,1.52-2.16,4.07-3.74,6.12-5.42-.6.49-3.79-.46-4.53-.62-1.62-.37-3.21-.89-4.74-1.55-3.12-1.35-5.58-3.24-7.97-5.62-3.72-3.71-6.47-8.44-7.65-13.57Z"/>
      </g>
    </g>
    <ellipse class="cls-13" cx="227.69" cy="257.86" rx="22.89" ry="23.89" transform="translate(-93.41 134.45) rotate(-27.53)"/>
    <path class="cls-16" d="M228.53,283.55c-2.68,0-5.38-.44-8.02-1.34-6.41-2.17-11.7-6.73-14.89-12.85-3.19-6.12-3.9-13.07-2.01-19.56,1.9-6.53,6.2-11.82,12.11-14.9,5.91-3.08,12.71-3.58,19.15-1.4,6.41,2.17,11.7,6.73,14.89,12.85,3.19,6.12,3.9,13.07,2.01,19.56-1.9,6.53-6.2,11.82-12.11,14.9-3.49,1.82-7.28,2.73-11.13,2.74ZM226.86,236.17c-3.22,0-6.38.76-9.29,2.28-4.93,2.57-8.53,7-10.12,12.47-1.6,5.5-.99,11.4,1.72,16.6,2.71,5.2,7.19,9.07,12.62,10.91,5.4,1.83,11.09,1.42,16.02-1.16,4.93-2.57,8.53-7,10.12-12.47,1.6-5.5.99-11.4-1.72-16.6h0c-2.71-5.2-7.19-9.07-12.62-10.91-2.22-.75-4.49-1.12-6.73-1.12Z"/>
    <path class="cls-13" d="M295.48,305.24c-8.66,0-17.18-4.9-21.59-13.37-3.01-5.77-3.69-12.33-1.9-18.45,1.79-6.13,5.82-11.1,11.37-13.99,5.54-2.89,11.93-3.35,17.98-1.31,6.04,2.04,11.03,6.35,14.04,12.12,3.01,5.77,3.68,12.33,1.9,18.45-1.79,6.13-5.82,11.1-11.37,13.99-3.32,1.73-6.88,2.55-10.43,2.55ZM293.8,257.87c-3.45,0-6.86.82-9.98,2.45-5.3,2.76-9.16,7.52-10.87,13.38-1.71,5.88-1.06,12.16,1.83,17.71,5.96,11.44,19.72,16.1,30.67,10.39,5.3-2.76,9.16-7.52,10.87-13.38,1.71-5.88,1.06-12.16-1.83-17.71h0c-2.89-5.54-7.67-9.68-13.47-11.64-2.38-.8-4.81-1.2-7.22-1.2Z"/>
    <g>
      <path class="cls-13" d="M359.6,370.25c-24.97,13.01-52.68,10.2-77.96.77-13.8-5.15-27.44-12.48-38.9-22.69-7.83-6.98-14.65-15.31-19.81-25.19-9.06-17.38-11.78-36.32-8.97-54.01,3.15-19.92,13.3-38.24,29.28-50.97,3.88-3.1,8.11-5.86,12.67-8.24,18.96-9.88,41.22-10.28,61.91-5.77,6.57,1.43,12.97,3.35,19.06,5.62,23.24,8.67,43.01,22.92,55.7,47.26,21.73,41.7,6.97,92.39-32.98,113.22Z"/>
      <path class="cls-17" d="M216.52,280.63c8.53,2.83,17.07,5.67,25.6,8.5.91.3,1.87.64,2.5,1.37.72.84.85,2.03.95,3.13.34,3.88.67,7.77,1.01,11.65-9.58-4.78-19.66-8.54-30.03-11.2"/>
      <path class="cls-17" d="M283.79,232.39c-10.75,14.89-21.49,29.77-32.23,44.66-1,1.38-2.07,2.82-3.63,3.48-2.12.89-4.53.12-6.69-.66-9.19-3.34-18.29-6.92-27.28-10.74,3.15-19.92,13.3-38.24,29.28-50.97,13.52,4.74,27.03,9.49,40.55,14.23Z"/>
      <path class="cls-17" d="M317.82,204.15c-20.7.09-41.81,1.67-59.61,11.87-21.73,12.44-35.32,36.86-37.26,61.82-1.94,24.97,6.93,50.09,21.83,70.22l-.04.27c-7.83-6.98-14.65-15.31-19.81-25.19-21.74-41.71-6.97-92.4,32.98-113.22,18.96-9.88,41.22-10.28,61.91-5.77Z"/>
      <ellipse class="cls-2" cx="320.23" cy="294.74" rx="81.58" ry="85.15" transform="translate(-99.98 181.41) rotate(-27.53)"/>
      <path class="cls-10" d="M359.6,370.25c-32.21,16.78-70.96,9.04-96.15-16.44,16.61,1.48,33.66-1.57,49.34-9.74,44.67-23.29,61.56-79.49,38.37-126.39,17.07,7.68,31.93,21.16,41.42,39.35,21.73,41.7,6.97,92.39-32.98,113.22Z"/>
      <g>
        <path class="cls-13" d="M337.79,328.41c-17.82,9.29-40.12,1.74-49.82-16.85-4.8-9.22-5.61-19.42-3.02-28.5,2.45-8.65,7.98-16.28,16.05-21.04.55-.34,1.11-.65,1.68-.95,17.82-9.29,40.12-1.74,49.81,16.85,9.7,18.6,3.11,41.2-14.7,50.49Z"/>
        <path class="cls-17" d="M289.19,284.33c3.17,1.42,6.47,2.55,9.69,3.84.27-.35.48-.77.69-1.16,3.47-6.81,8.99-12.55,15.62-16.34-1.79-.7-3.57-1.42-5.35-2.15-3.72-1.54-7.34-3.39-11.01-5.09-6.66,4.63-11.33,11.32-13.64,18.85,1.32.72,2.64,1.45,4,2.06Z"/>
        <path class="cls-13" d="M297.13,323.16s9.1,8.82,26.39,12.78c17.29,3.96,16.3-21.9,15.09-22.12-1.21-.22-16.99-5.04-19.07-4.49-2.08.55-22.41,13.84-22.41,13.84Z"/>
        <path class="cls-13" d="M325.91,257.78s22.75,4.8,30.92,16.05-23.18,9.31-23.18,9.31l-13.42-20.29,5.67-5.08Z"/>
        <path class="cls-2" d="M348.23,332.97c-12.3,6.41-26.73,4.81-37.69-2.92-4.91-3.47-9.13-8.17-12.13-13.93-9.69-18.6-3.11-41.2,14.71-50.49,16.04-8.36,35.71-3.08,46.53,11.62,1.22,1.63,2.31,3.38,3.28,5.24,9.7,18.59,3.11,41.2-14.7,50.48Z"/>
        <path class="cls-10" d="M348.23,332.97c-12.3,6.41-26.73,4.81-37.69-2.92,13.61,1.75,28.1-2.9,37.71-12.77,10.09-10.36,14.28-25.92,11.4-40.03,1.22,1.63,2.31,3.38,3.28,5.24,9.7,18.59,3.11,41.2-14.7,50.48Z"/>
        <path class="cls-17" d="M294.53,305.72c-.46,0-.87-.31-.97-.78-.06-.28-5.97-27.95,21.21-41.21.5-.24,1.1-.04,1.34.46.24.5.04,1.09-.46,1.34-25.73,12.56-20.38,37.9-20.13,38.97.12.54-.22,1.07-.76,1.19-.07.02-.15.02-.22.02Z"/>
      </g>
      <path class="cls-16" d="M331.95,337.94c-2.88,0-5.77-.34-8.62-1.02-17.39-3.98-26.51-12.67-26.89-13.04,0,0-.01-.01-.02-.02-3.83-3.32-6.97-7.3-9.33-11.84-9.93-19.06-3.15-42.31,15.13-51.84,7.33-3.82,15.55-4.99,23.79-3.39.04,0,.08,0,.11.02l.39.09c1.08.22,2.17.5,3.23.82,7.74,2.13,21.7,6.99,27.91,15.54,2.41,2.6,4.51,5.57,6.18,8.78h0c9.93,19.06,3.15,42.31-15.13,51.84-5.17,2.7-10.92,4.08-16.74,4.08ZM297.88,322.49c.75.7,9.74,8.78,25.87,12.48,8.2,1.96,16.71.93,24.02-2.88,17.3-9.02,23.7-31.06,14.28-49.14h0c-1.59-3.05-3.58-5.87-5.92-8.4-.03-.03-.05-.06-.08-.1-6.09-8.39-20.81-13.16-26.86-14.82-1.03-.31-2.06-.57-3.1-.79l-.3-.07s-.05,0-.07-.01c-7.81-1.54-15.62-.44-22.57,3.19-17.3,9.02-23.71,31.06-14.28,49.14,2.26,4.34,5.27,8.15,8.93,11.31.03.03.06.06.09.09Z"/>
      <path class="cls-16" d="M322.52,381.11c-13,0-26.89-2.74-41.58-8.21-27.87-10.39-48.54-27.28-59.78-48.83-10.75-20.63-13.17-44.04-6.79-65.92,6.38-21.91,20.81-39.67,40.62-50,30.21-15.75,64.71-6.92,82.59-.25,26.43,9.85,45,25.62,56.78,48.21h0c22.21,42.61,7.04,94.61-33.83,115.92-11.62,6.06-24.32,9.09-38,9.09ZM293.17,203.32c-11.91,0-24.5,2.2-36.33,8.37-18.83,9.82-32.55,26.71-38.63,47.57-6.08,20.89-3.78,43.24,6.5,62.95,10.77,20.66,30.7,36.89,57.63,46.93,29.03,10.82,54.71,10.6,76.33-.67,38.91-20.28,53.33-69.86,32.13-110.52-11.29-21.67-29.16-36.82-54.63-46.31-10.17-3.79-25.9-8.32-43-8.32Z"/>
      <path class="cls-17" d="M243.19,320.64c-.42,0-.81-.27-.95-.69-7.3-22.11-6.61-40.49,2.32-61.47,6.39-15.02,19.1-34.69,43.34-43.05.52-.18,1.09.1,1.27.62.18.52-.1,1.09-.62,1.27-23.54,8.12-35.91,27.29-42.15,41.94-8.72,20.49-9.4,38.45-2.26,60.06.17.52-.11,1.09-.64,1.26-.1.03-.21.05-.31.05Z"/>
      <path class="cls-17" d="M246.29,329.69c-.39,0-.77-.24-.93-.62l-1.68-4.14c-.21-.51.04-1.1.55-1.3.51-.21,1.09.04,1.3.55l1.68,4.14c.21.51-.04,1.09-.55,1.3-.12.05-.25.07-.38.07Z"/>
    </g>
    <path class="cls-19" d="M315.33,116.88v16.73c0,4.62-3.74,8.36-8.36,8.36h-20.91v20.91c0,4.62-3.74,8.36-8.36,8.36h-16.73c-4.62,0-8.36-3.74-8.36-8.36v-20.91h-20.91c-4.62,0-8.36-3.74-8.36-8.36v-16.73c0-4.62,3.74-8.36,8.36-8.36h20.91v-20.91c0-4.62,3.74-8.36,8.36-8.36h16.73c4.62,0,8.36,3.74,8.36,8.36v20.91h20.91c4.62,0,8.36,3.74,8.36,8.36Z"/>
    <path class="cls-20" d="M196.72,498.03v11.93c0,3.3-2.67,5.96-5.96,5.96h-14.91v14.91c0,3.3-2.67,5.96-5.96,5.96h-11.93c-3.3,0-5.96-2.67-5.96-5.96v-14.91h-14.91c-3.3,0-5.96-2.67-5.96-5.96v-11.93c0-3.3,2.67-5.96,5.96-5.96h14.91v-14.91c0-3.3,2.67-5.96,5.96-5.96h11.93c3.3,0,5.96,2.67,5.96,5.96v14.91h14.91c3.3,0,5.96,2.67,5.96,5.96Z"/>
    <path class="cls-19" d="M155.15,405v30.46c0,8.41-6.82,15.23-15.23,15.23h-38.08v38.08c0,8.41-6.82,15.23-15.23,15.23h-30.46c-8.41,0-15.23-6.82-15.23-15.23v-38.08H2.84c-8.41,0-15.23-6.82-15.23-15.23v-30.46c0-8.41,6.82-15.23,15.23-15.23h38.08v-38.08c0-8.41,6.82-15.23,15.23-15.23h30.46c8.41,0,15.23,6.82,15.23,15.23v38.08h38.08c8.41,0,15.23,6.82,15.23,15.23Z"/>
    <path class="cls-19" d="M143.87,45.04v7.31c0,2.02-1.63,3.65-3.65,3.65h-9.13v9.13c0,2.02-1.63,3.65-3.65,3.65h-7.31c-2.02,0-3.65-1.63-3.65-3.65v-9.13h-9.13c-2.02,0-3.65-1.63-3.65-3.65v-7.31c0-2.02,1.63-3.65,3.65-3.65h9.13v-9.13c0-2.02,1.63-3.65,3.65-3.65h7.31c2.02,0,3.65,1.63,3.65,3.65v9.13h9.13c2.02,0,3.65,1.63,3.65,3.65Z"/>
    <path class="cls-20" d="M464.77,45.76v4.98c0,1.38-1.11,2.49-2.49,2.49h-6.23v6.23c0,1.38-1.11,2.49-2.49,2.49h-4.98c-1.38,0-2.49-1.11-2.49-2.49v-6.23h-6.23c-1.38,0-2.49-1.11-2.49-2.49v-4.98c0-1.38,1.11-2.49,2.49-2.49h6.23v-6.23c0-1.38,1.11-2.49,2.49-2.49h4.98c1.38,0,2.49,1.11,2.49,2.49v6.23h6.23c1.38,0,2.49,1.11,2.49,2.49Z"/>
    <path class="cls-20" d="M106.91,559.27h-7.31c-2.29,0-4.15-1.86-4.15-4.15v-8.63h-8.63c-2.29,0-4.15-1.86-4.15-4.15v-7.31c0-2.29,1.86-4.15,4.15-4.15h8.63v-8.63c0-2.29,1.86-4.15,4.15-4.15h7.31c2.29,0,4.15,1.86,4.15,4.15v8.63h8.63c2.29,0,4.15,1.86,4.15,4.15v7.31c0,2.29-1.86,4.15-4.15,4.15h-8.63v8.63c0,2.29-1.86,4.15-4.15,4.15ZM86.82,531.87c-1.74,0-3.15,1.41-3.15,3.15v7.31c0,1.74,1.41,3.15,3.15,3.15h9.63v9.63c0,1.74,1.42,3.15,3.15,3.15h7.31c1.74,0,3.15-1.41,3.15-3.15v-9.63h9.63c1.74,0,3.15-1.41,3.15-3.15v-7.31c0-1.74-1.42-3.15-3.15-3.15h-9.63v-9.63c0-1.74-1.42-3.15-3.15-3.15h-7.31c-1.74,0-3.15,1.41-3.15,3.15v9.63h-9.63Z"/>
  </g>
  <g class="cls-14">
    <ellipse class="cls-5" cx="-450" cy="438.51" rx="450.58" ry="100.28"/>
    <g>
      <g id="_x3C_Radial_Repeat_x3E_-12" data-name="_x3C_Radial_Repeat_x3E_">
        <rect class="cls-6" x="-424.73" y="-18.69" width="434.34" height="1" transform="translate(.28 -32.87) rotate(-9.05)"/>
      </g>
      <g id="_x3C_Radial_Repeat_x3E_-13" data-name="_x3C_Radial_Repeat_x3E_">
        <rect class="cls-6" x="-421.71" y="19.71" width="434.34" height="1"/>
      </g>
      <g id="_x3C_Radial_Repeat_x3E_-14" data-name="_x3C_Radial_Repeat_x3E_">
        <rect class="cls-6" x="-208.07" y="-158.57" width="1" height="434.34" transform="translate(-233.14 -155.56) rotate(-81.04)"/>
      </g>
    </g>
  </g>
  <g>
    <path class="cls-16" d="M135.45,651.57c0,.62-.18,1.09-.53,1.42-.35.33-.91.5-1.66.5s-1.29-.17-1.64-.5c-.35-.33-.53-.81-.53-1.42v-17.91c0-.61.18-1.09.53-1.42.35-.33.9-.5,1.64-.5s1.3.17,1.66.5c.35.33.53.81.53,1.42v6.98h8.66v-6.98c0-.61.18-1.09.53-1.42.35-.33.91-.5,1.66-.5s1.27.17,1.63.5c.36.33.54.81.54,1.42v17.91c0,.62-.18,1.09-.53,1.42-.35.33-.9.5-1.64.5s-1.3-.17-1.66-.5c-.35-.33-.53-.81-.53-1.42v-7.41h-8.66v7.41Z"/>
    <path class="cls-16" d="M156.59,646.32v.03c.06.65.21,1.22.44,1.72.23.5.53.92.91,1.27.38.34.84.6,1.37.78.53.18,1.12.27,1.78.27.54,0,1.01-.04,1.4-.11.39-.07.73-.15,1.02-.24.29-.09.55-.17.77-.24.22-.07.43-.11.63-.11s.38.04.53.11c.16.07.29.17.4.29.11.12.19.26.25.41.06.16.09.32.09.5,0,.26-.04.49-.12.68-.08.19-.22.38-.41.57-.16.16-.39.32-.69.49-.3.17-.67.33-1.12.47-.44.14-.96.26-1.55.35-.59.09-1.24.14-1.96.14-1.24,0-2.35-.18-3.34-.54-.99-.36-1.83-.88-2.52-1.55s-1.21-1.48-1.58-2.44c-.37-.95-.55-2.02-.55-3.21,0-1.38.2-2.62.59-3.71.39-1.09.93-2.01,1.63-2.76.7-.75,1.53-1.32,2.51-1.72.97-.4,2.04-.59,3.21-.59,1,0,1.91.16,2.72.47s1.5.76,2.08,1.35c.57.59,1.02,1.3,1.33,2.15s.47,1.8.47,2.88c0,.78-.18,1.36-.54,1.73s-.87.56-1.54.56h-8.22ZM162.94,643.6c-.14-1.17-.45-2.03-.95-2.58-.5-.55-1.2-.83-2.1-.83-.38,0-.73.07-1.08.2-.34.13-.66.33-.95.61-.29.28-.53.63-.74,1.05-.21.43-.37.94-.48,1.55h6.3Z"/>
    <path class="cls-16" d="M179.38,643.23c0-.5-.06-.92-.17-1.28-.12-.35-.3-.64-.55-.86-.26-.22-.59-.39-1.02-.5-.42-.11-.94-.16-1.54-.16-.65,0-1.2.05-1.65.14s-.85.2-1.18.32c-.33.12-.62.23-.87.32-.25.09-.48.14-.7.14-.38,0-.69-.12-.93-.36-.25-.24-.37-.59-.37-1.05,0-.24.04-.45.11-.62.07-.18.2-.35.38-.53.17-.17.43-.34.8-.53.37-.19.82-.36,1.34-.52.53-.16,1.13-.29,1.8-.39.68-.1,1.41-.16,2.2-.16,2.18,0,3.81.47,4.91,1.41,1.09.94,1.64,2.32,1.64,4.12v5.11c0,.71.03,1.28.09,1.72.06.44.12.8.18,1.09.06.29.12.53.18.73.06.19.09.4.09.62s-.04.42-.12.61c-.08.19-.2.35-.36.49s-.35.25-.59.33-.5.12-.8.12c-.32,0-.61-.05-.87-.15-.26-.1-.48-.24-.67-.41-.19-.18-.35-.39-.48-.63-.13-.24-.24-.51-.32-.8h-.05c-.32.41-.71.77-1.17,1.08-.4.27-.89.52-1.49.73-.6.22-1.3.33-2.12.33-.87,0-1.64-.12-2.32-.37-.68-.25-1.26-.58-1.73-1.02-.47-.43-.84-.95-1.09-1.54s-.38-1.24-.38-1.94c0-.75.17-1.41.5-1.99.33-.57.8-1.05,1.41-1.43.6-.38,1.33-.67,2.19-.86.85-.19,1.81-.29,2.86-.29.44,0,.83.02,1.18.05.35.03.65.06.9.09.29.04.55.09.78.14v-1.29ZM179.38,647.26c-.21-.05-.44-.1-.69-.14-.22-.04-.47-.08-.77-.11-.29-.03-.62-.05-.98-.05-1.04,0-1.82.15-2.32.44-.51.29-.76.72-.76,1.28,0,.27.05.52.16.75.1.23.25.43.45.59.2.17.44.3.73.4.29.1.63.15,1.02.15.5,0,.95-.09,1.34-.27.39-.18.72-.37.99-.58.31-.25.59-.53.83-.84v-1.62Z"/>
    <path class="cls-16" d="M188.03,632.1c0-.59.17-1.05.52-1.38.35-.33.88-.49,1.6-.49s1.25.16,1.6.49c.35.33.52.79.52,1.38v16.08c0,.41.03.75.08,1.02.05.27.13.48.23.64.1.16.22.27.35.33.13.06.29.09.45.09.15,0,.28,0,.39-.02.11-.02.23-.02.34-.02.13,0,.27.03.39.08.12.05.23.13.33.23.09.1.17.23.23.38.06.15.09.33.09.52,0,.3-.04.56-.13.77-.09.21-.21.39-.37.55-.1.1-.23.2-.38.3-.15.09-.32.18-.52.26s-.45.14-.73.19-.6.07-.97.07c-1.32,0-2.33-.35-3.01-1.05-.68-.7-1.02-1.77-1.02-3.2v-17.2Z"/>
    <path class="cls-16" d="M197.05,640.66c-.42,0-.75-.13-1.01-.41-.26-.27-.38-.67-.38-1.19s.13-.9.38-1.17c.25-.27.59-.41,1.01-.41h1.38l.5-2.64c.11-.59.33-1.03.65-1.31.32-.28.74-.42,1.27-.42s.96.15,1.25.45c.29.3.44.73.44,1.29v2.64h2.64c.42,0,.75.14,1.01.41.25.27.38.66.38,1.17s-.13.92-.38,1.19c-.26.27-.59.41-1.01.41h-2.64v7.52c0,.74.12,1.27.38,1.58s.63.47,1.16.47c.19,0,.35,0,.49-.03.14-.02.27-.05.38-.08.11-.03.22-.06.31-.08.09-.02.19-.03.3-.03.17,0,.32.03.46.09s.26.15.36.26c.1.11.18.24.23.4.06.16.09.33.09.52,0,.29-.05.54-.14.74s-.23.39-.41.57c-.1.1-.25.21-.43.33-.18.12-.41.22-.67.31s-.58.17-.93.23c-.35.06-.76.09-1.2.09-1.58,0-2.75-.38-3.5-1.13-.75-.75-1.12-1.91-1.12-3.46v-8.3h-1.23Z"/>
    <path class="cls-16" d="M209.39,632.1c0-.59.17-1.05.52-1.38.35-.33.88-.49,1.6-.49s1.25.16,1.6.49c.35.33.52.79.52,1.38v4.7c0,.41-.01.8-.03,1.18-.02.38-.06.79-.11,1.23h.05c.3-.38.67-.71,1.11-1,.19-.12.4-.25.63-.37.23-.12.49-.23.78-.33.29-.1.6-.18.93-.23.33-.06.7-.09,1.09-.09.92,0,1.74.14,2.48.42.74.28,1.37.7,1.89,1.25.52.55.92,1.23,1.2,2.04.28.81.41,1.74.41,2.79v7.92c0,.59-.17,1.05-.52,1.38-.35.33-.88.49-1.6.49s-1.25-.16-1.6-.49c-.35-.33-.52-.79-.52-1.38v-7.42c0-.63-.07-1.18-.2-1.64-.13-.46-.32-.83-.56-1.12-.25-.29-.54-.5-.9-.64-.35-.13-.76-.2-1.2-.2-.28,0-.54.03-.78.1-.24.07-.47.15-.68.26-.21.1-.41.23-.58.37s-.33.28-.46.41c-.33.34-.61.72-.83,1.14v8.75c0,.59-.17,1.05-.52,1.38-.35.33-.88.49-1.6.49s-1.25-.16-1.6-.49c-.35-.33-.52-.79-.52-1.38v-19.52Z"/>
    <path class="cls-16" d="M236.33,632.8c0-.34.06-.66.19-.96s.3-.55.52-.77c.22-.22.49-.39.81-.52.32-.12.67-.19,1.05-.19.36,0,.7.06,1.01.19.31.12.57.29.8.51.22.21.4.46.52.75.12.29.19.6.19.93s-.06.66-.19.96-.3.55-.53.77c-.23.22-.5.39-.81.52s-.66.19-1.05.19-.7-.06-1.01-.19c-.31-.12-.57-.29-.8-.51-.22-.21-.4-.46-.52-.75-.12-.29-.19-.6-.19-.93ZM236.75,639.26c0-.59.17-1.05.52-1.38.35-.33.88-.49,1.6-.49s1.25.16,1.6.49c.35.33.52.79.52,1.38v12.36c0,.59-.17,1.05-.52,1.38-.35.33-.88.49-1.6.49s-1.25-.16-1.6-.49c-.35-.33-.52-.79-.52-1.38v-12.36Z"/>
    <path class="cls-16" d="M244.8,642.16c0-.7.14-1.35.41-1.96.28-.61.69-1.13,1.25-1.58.56-.44,1.25-.79,2.08-1.05.83-.25,1.8-.38,2.91-.38.57,0,1.09.03,1.55.1.46.07.86.15,1.2.26.34.1.62.22.86.35.23.13.41.26.54.38.19.19.32.38.39.59.07.2.11.44.11.71,0,.2-.03.38-.1.55-.07.17-.16.31-.27.42s-.26.21-.42.27c-.17.07-.34.1-.53.1-.21,0-.42-.03-.65-.1-.22-.07-.47-.14-.75-.23-.28-.08-.59-.16-.93-.23-.34-.07-.74-.1-1.19-.1-.42,0-.77.04-1.06.11-.29.07-.53.17-.72.3s-.32.27-.41.44c-.08.17-.12.35-.12.55,0,.33.11.61.34.82.23.21.53.4.9.56.37.16.79.31,1.27.45.47.14.96.29,1.45.46.49.17.98.36,1.45.59.47.22.9.51,1.27.86.37.35.67.77.9,1.27.23.5.34,1.09.34,1.79s-.15,1.41-.44,2.05c-.29.64-.73,1.19-1.3,1.66s-1.31.84-2.19,1.11c-.88.27-1.9.41-3.07.41-.67,0-1.25-.03-1.75-.1-.5-.07-.94-.16-1.3-.27-.37-.11-.67-.23-.91-.38-.24-.14-.43-.28-.58-.43-.17-.17-.29-.35-.38-.55-.08-.2-.12-.45-.12-.75,0-.41.12-.74.37-.99.24-.25.56-.38.96-.38.2,0,.41.04.64.12.23.08.5.16.8.26.31.09.66.18,1.05.26.4.08.87.12,1.42.12.47,0,.87-.04,1.21-.12.34-.08.61-.2.82-.34.21-.14.36-.31.46-.51.1-.2.15-.41.15-.64,0-.34-.11-.63-.34-.86-.22-.23-.52-.43-.9-.59-.38-.17-.8-.32-1.27-.46-.47-.14-.96-.3-1.45-.47-.49-.17-.97-.37-1.45-.59-.47-.22-.9-.5-1.27-.84-.38-.34-.67-.75-.9-1.23-.22-.48-.34-1.07-.34-1.76Z"/>
    <path class="cls-16" d="M267.53,634.77c-.08-.35-.14-.6-.16-.74-.03-.14-.04-.27-.04-.38,0-.31.07-.59.22-.84.15-.24.33-.45.55-.62.22-.17.48-.29.76-.38.28-.08.56-.12.84-.12.3,0,.57.05.81.14.24.09.44.22.59.38.2.2.34.42.41.68.08.26.16.55.24.88l2.94,12.31c.09.43.17.83.24,1.2.07.37.13.7.18.99.05.34.09.66.12.94h.06c.04-.27.09-.58.14-.92.05-.28.11-.61.18-.99.07-.38.16-.79.27-1.23l2.9-11.97c.21-.88.56-1.51,1.05-1.87.49-.36,1.15-.54,1.96-.54s1.47.18,1.96.54c.49.36.85.99,1.05,1.88l2.86,11.92c.09.42.18.82.26,1.2.08.38.14.72.2,1.02.06.34.12.67.17.98h.06c.05-.32.1-.66.16-1,.05-.3.11-.64.18-1.02s.15-.76.24-1.16l2.76-12.28c.08-.34.16-.65.23-.91.07-.26.2-.48.38-.66s.39-.31.63-.4c.24-.09.51-.13.8-.13.27,0,.54.04.8.12s.5.2.72.35c.21.16.39.35.52.57.13.22.2.48.2.77,0,.05,0,.11,0,.16,0,.06-.02.13-.03.21-.02.08-.04.19-.06.3-.03.12-.06.26-.1.43l-4.06,16.08c-.11.44-.24.82-.38,1.16-.14.33-.33.62-.55.84-.27.27-.61.47-1.02.6s-.9.2-1.47.2-1.04-.07-1.42-.2-.71-.33-.98-.6c-.23-.23-.41-.51-.53-.84-.12-.33-.25-.72-.36-1.16l-2.8-11.48c-.08-.35-.16-.71-.23-1.07-.07-.36-.13-.68-.18-.98-.05-.34-.1-.67-.16-.97h-.06c-.04.31-.09.64-.14.98-.05.29-.11.62-.18.97-.07.35-.14.71-.23,1.08l-2.79,11.47c-.11.44-.23.82-.36,1.16-.12.33-.3.62-.53.84-.27.27-.6.47-.98.6-.38.13-.86.2-1.44.2s-1.05-.07-1.45-.2-.74-.33-1.02-.6c-.23-.23-.41-.51-.55-.84-.14-.33-.27-.72-.38-1.16l-4.04-15.92Z"/>
    <path class="cls-16" d="M301.84,646.32v.03c.06.65.21,1.22.44,1.72.23.5.53.92.91,1.27.38.34.84.6,1.37.78.53.18,1.12.27,1.78.27.54,0,1.01-.04,1.4-.11.39-.07.73-.15,1.02-.24.29-.09.55-.17.77-.24.22-.07.43-.11.63-.11s.38.04.53.11c.16.07.29.17.4.29.11.12.19.26.25.41.06.16.09.32.09.5,0,.26-.04.49-.12.68-.08.19-.22.38-.41.57-.16.16-.39.32-.69.49-.3.17-.67.33-1.12.47-.44.14-.96.26-1.55.35-.59.09-1.24.14-1.96.14-1.24,0-2.35-.18-3.34-.54-.99-.36-1.83-.88-2.52-1.55s-1.21-1.48-1.58-2.44c-.37-.95-.55-2.02-.55-3.21,0-1.38.2-2.62.59-3.71.39-1.09.93-2.01,1.63-2.76.7-.75,1.53-1.32,2.51-1.72.97-.4,2.04-.59,3.21-.59,1,0,1.91.16,2.72.47s1.5.76,2.08,1.35c.57.59,1.02,1.3,1.33,2.15s.47,1.8.47,2.88c0,.78-.18,1.36-.54,1.73s-.87.56-1.54.56h-8.22ZM308.19,643.6c-.14-1.17-.45-2.03-.95-2.58-.5-.55-1.2-.83-2.1-.83-.38,0-.73.07-1.08.2-.34.13-.66.33-.95.61-.29.28-.53.63-.74,1.05-.21.43-.37.94-.48,1.55h6.3Z"/>
    <path class="cls-16" d="M324.62,643.23c0-.5-.06-.92-.17-1.28-.12-.35-.3-.64-.55-.86-.26-.22-.59-.39-1.02-.5-.42-.11-.94-.16-1.54-.16-.65,0-1.2.05-1.65.14s-.85.2-1.18.32c-.33.12-.62.23-.87.32-.25.09-.48.14-.7.14-.38,0-.69-.12-.93-.36-.25-.24-.37-.59-.37-1.05,0-.24.04-.45.11-.62.07-.18.2-.35.38-.53.17-.17.43-.34.8-.53.37-.19.82-.36,1.34-.52.53-.16,1.13-.29,1.8-.39.68-.1,1.41-.16,2.2-.16,2.18,0,3.81.47,4.91,1.41,1.09.94,1.64,2.32,1.64,4.12v5.11c0,.71.03,1.28.09,1.72.06.44.12.8.18,1.09.06.29.12.53.18.73.06.19.09.4.09.62s-.04.42-.12.61c-.08.19-.2.35-.36.49s-.35.25-.59.33-.5.12-.8.12c-.32,0-.61-.05-.87-.15-.26-.1-.48-.24-.67-.41-.19-.18-.35-.39-.48-.63-.13-.24-.24-.51-.32-.8h-.05c-.32.41-.71.77-1.17,1.08-.4.27-.89.52-1.49.73-.6.22-1.3.33-2.12.33-.87,0-1.64-.12-2.32-.37-.68-.25-1.26-.58-1.73-1.02-.47-.43-.84-.95-1.09-1.54s-.38-1.24-.38-1.94c0-.75.17-1.41.5-1.99.33-.57.8-1.05,1.41-1.43.6-.38,1.33-.67,2.19-.86.85-.19,1.81-.29,2.86-.29.44,0,.83.02,1.18.05.35.03.65.06.9.09.29.04.55.09.78.14v-1.29ZM324.62,647.26c-.21-.05-.44-.1-.69-.14-.22-.04-.47-.08-.77-.11-.29-.03-.62-.05-.98-.05-1.04,0-1.82.15-2.32.44-.51.29-.76.72-.76,1.28,0,.27.05.52.16.75.1.23.25.43.45.59.2.17.44.3.73.4.29.1.63.15,1.02.15.5,0,.95-.09,1.34-.27.39-.18.72-.37.99-.58.31-.25.59-.53.83-.84v-1.62Z"/>
    <path class="cls-16" d="M333.28,632.1c0-.59.17-1.05.52-1.38.35-.33.88-.49,1.6-.49s1.25.16,1.6.49c.35.33.52.79.52,1.38v16.08c0,.41.03.75.08,1.02.05.27.13.48.23.64.1.16.22.27.35.33.13.06.29.09.45.09.15,0,.28,0,.39-.02.11-.02.23-.02.34-.02.13,0,.27.03.39.08.12.05.23.13.33.23.09.1.17.23.23.38.06.15.09.33.09.52,0,.3-.04.56-.13.77-.09.21-.21.39-.37.55-.1.1-.23.2-.38.3-.15.09-.32.18-.52.26s-.45.14-.73.19-.6.07-.97.07c-1.32,0-2.33-.35-3.01-1.05-.68-.7-1.02-1.77-1.02-3.2v-17.2Z"/>
    <path class="cls-16" d="M342.3,640.66c-.42,0-.75-.13-1.01-.41-.26-.27-.38-.67-.38-1.19s.13-.9.38-1.17c.25-.27.59-.41,1.01-.41h1.38l.5-2.64c.11-.59.33-1.03.65-1.31.32-.28.74-.42,1.27-.42s.96.15,1.25.45c.29.3.44.73.44,1.29v2.64h2.64c.42,0,.75.14,1.01.41.25.27.38.66.38,1.17s-.13.92-.38,1.19c-.26.27-.59.41-1.01.41h-2.64v7.52c0,.74.12,1.27.38,1.58s.63.47,1.16.47c.19,0,.35,0,.49-.03.14-.02.27-.05.38-.08.11-.03.22-.06.31-.08.09-.02.19-.03.3-.03.17,0,.32.03.46.09s.26.15.36.26c.1.11.18.24.23.4.06.16.09.33.09.52,0,.29-.05.54-.14.74s-.23.39-.41.57c-.1.1-.25.21-.43.33-.18.12-.41.22-.67.31s-.58.17-.93.23c-.35.06-.76.09-1.2.09-1.58,0-2.75-.38-3.5-1.13-.75-.75-1.12-1.91-1.12-3.46v-8.3h-1.23Z"/>
    <path class="cls-16" d="M354.64,632.1c0-.59.17-1.05.52-1.38.35-.33.88-.49,1.6-.49s1.25.16,1.6.49c.35.33.52.79.52,1.38v4.7c0,.41-.01.8-.03,1.18-.02.38-.06.79-.11,1.23h.05c.3-.38.67-.71,1.11-1,.19-.12.4-.25.63-.37.23-.12.49-.23.78-.33.29-.1.6-.18.93-.23.33-.06.7-.09,1.09-.09.92,0,1.74.14,2.48.42.74.28,1.37.7,1.89,1.25.52.55.92,1.23,1.2,2.04.28.81.41,1.74.41,2.79v7.92c0,.59-.17,1.05-.52,1.38-.35.33-.88.49-1.6.49s-1.25-.16-1.6-.49c-.35-.33-.52-.79-.52-1.38v-7.42c0-.63-.07-1.18-.2-1.64-.13-.46-.32-.83-.56-1.12-.25-.29-.54-.5-.9-.64-.35-.13-.76-.2-1.2-.2-.28,0-.54.03-.78.1-.24.07-.47.15-.68.26-.21.1-.41.23-.58.37s-.33.28-.46.41c-.33.34-.61.72-.83,1.14v8.75c0,.59-.17,1.05-.52,1.38-.35.33-.88.49-1.6.49s-1.25-.16-1.6-.49c-.35-.33-.52-.79-.52-1.38v-19.52Z"/>
  </g>
</svg>