<?xml version="1.0" encoding="UTF-8"?>
<svg xmlns="http://www.w3.org/2000/svg" version="1.1" xmlns:xlink="http://www.w3.org/1999/xlink" viewBox="0 0 500 700">
  <defs>
    <style>
      .cls-1 {
        fill: #a152db;
      }

      .cls-2 {
        fill: #4d4d4d;
      }

      .cls-3 {
        fill: #fff;
      }

      .cls-4 {
        fill: #dfedf2;
      }

      .cls-5 {
        fill: #ea9939;
      }

      .cls-6 {
        fill: #d87625;
      }

      .cls-7 {
        fill: #fff8d9;
      }

      .cls-8 {
        fill: #f4b545;
      }

      .cls-9 {
        fill: none;
      }

      .cls-10 {
        fill: #f47aa0;
      }

      .cls-11 {
        fill: #aa5217;
      }

      .cls-12 {
        fill: #231f20;
      }

      .cls-13 {
        fill: #e9f1f4;
      }

      .cls-14 {
        fill: #666;
      }

      .cls-15 {
        fill: #788696;
      }

      .cls-16 {
        fill: #79cdf6;
      }

      .cls-17 {
        fill: #ffe277;
      }

      .cls-18 {
        fill: #333;
      }

      .cls-19 {
        fill: #47acea;
      }

      .cls-20 {
        fill: #8942c5;
      }

      .cls-21 {
        fill: #dd4a8c;
      }

      .cls-22 {
        fill: #6d3108;
      }

      .cls-23 {
        fill: #a8b6c1;
      }

      .cls-24 {
        clip-path: url(#clippath);
      }

      .cls-25 {
        opacity: .5;
      }
    </style>
    <clipPath id="clippath">
      <rect class="cls-9" x="16" y="16" width="468" height="572" rx="32" ry="32"/>
    </clipPath>
  </defs>
  <!-- Generator: Adobe Illustrator 28.7.5, SVG Export Plug-In . SVG Version: 1.2.0 Build 176)  -->
  <g>
    <g id="Expanded">
      <g>
        <g>
          <path class="cls-13" d="M48,699.5c-26.2,0-47.5-21.3-47.5-47.5V48C.5,21.8,21.8.5,48,.5h404c8.3,0,16.5,2.2,23.7,6.3,14.7,8.5,23.8,24.2,23.8,41.2v604c0,26.2-21.3,47.5-47.5,47.5H48Z"/>
          <path class="cls-18" d="M452,1c8.2,0,16.4,2.2,23.5,6.3,14.5,8.4,23.5,24,23.5,40.7v604c0,25.9-21.1,47-47,47H48c-25.9,0-47-21.1-47-47V48C1,22.1,22.1,1,48,1h404M452,0H48C21.5,0,0,21.5,0,48v604c0,26.5,21.5,48,48,48h404c26.5,0,48-21.5,48-48V48c0-17.8-9.7-33.3-24-41.6-7-4.1-15.2-6.4-24-6.4h0Z"/>
        </g>
        <path class="cls-3" d="M500,48v374.5L0,539.1V117.4L476,6.4c14.4,8.3,24,23.8,24,41.6Z"/>
        <path class="cls-3" d="M500,459.4v140.6l-428.9,100h-23.1c-26.5,0-48-21.5-48-48v-76l500-116.6Z"/>
        <path class="cls-18" d="M452,1c25.9,0,47,21.1,47,47v604c0,25.9-21.1,47-47,47H48c-25.9,0-47-21.1-47-47V48C1,22.1,22.1,1,48,1h404M452,0H48C21.5,0,0,21.5,0,48v604c0,26.5,21.5,48,48,48h404c26.5,0,48-21.5,48-48V48c0-26.5-21.5-48-48-48h0Z"/>
        <g>
          <rect class="cls-3" x="15" y="15" width="470" height="574" rx="33" ry="33"/>
          <path class="cls-18" d="M452,16c17.7,0,32,14.3,32,32v508c0,17.7-14.3,32-32,32H48c-17.7,0-32-14.3-32-32V48c0-17.7,14.3-32,32-32h404M452,14H48c-18.8,0-34,15.2-34,34v508c0,18.8,15.2,34,34,34h404c18.8,0,34-15.2,34-34V48c0-18.8-15.2-34-34-34h0Z"/>
        </g>
      </g>
      <g>
        <path class="cls-18" d="M154.2,637.9c0-.9.2-1.8.5-2.5.3-.8.8-1.5,1.5-2s1.5-1,2.5-1.3c1-.3,2.1-.5,3.4-.5s1.2,0,1.8.1,1,.2,1.4.3.8.3,1.1.4c.3.2.5.3.7.5.2.2.4.5.5.7,0,.2.1.5.1.7,0,.5-.1.8-.4,1.1s-.6.4-1.1.4-.5,0-.7-.1-.5-.2-.8-.3c-.3-.1-.7-.2-1.1-.3s-.9-.1-1.6-.1-1.1,0-1.5.2-.8.3-1,.5c-.3.2-.5.5-.6.8-.1.3-.2.6-.2,1,0,.5.1,1,.4,1.3.3.3.7.7,1.1.9s1,.5,1.6.7c.6.2,1.2.4,1.8.6.6.2,1.2.5,1.8.8.6.3,1.1.7,1.6,1.2.5.5.8,1,1.1,1.7.3.7.4,1.5.4,2.4s-.2,1.9-.5,2.7-.9,1.5-1.6,2.1c-.7.6-1.6,1.1-2.6,1.4s-2.2.5-3.6.5-1.4,0-2-.1-1.1-.2-1.6-.3c-.4-.1-.8-.3-1.1-.5-.3-.2-.5-.3-.7-.5-.2-.2-.4-.4-.5-.7s-.1-.5-.1-.8c0-.5.1-.9.4-1.1s.6-.4,1.1-.4.5,0,.7.2c.2,0,.5.2.9.3.3.1.7.2,1.2.3.5,0,1.1.2,1.9.2s1.2,0,1.6-.2c.5-.1.9-.3,1.1-.6.3-.2.5-.5.7-.9s.2-.7.2-1.1-.1-1-.4-1.4-.6-.7-1.1-1c-.5-.3-1-.5-1.6-.7-.6-.2-1.2-.4-1.8-.7-.6-.2-1.2-.5-1.8-.8-.6-.3-1.1-.7-1.6-1.1-.5-.5-.8-1-1.1-1.6s-.4-1.4-.4-2.3h0Z"/>
        <path class="cls-18" d="M171.6,640.7c-.4,0-.8-.1-1-.4-.3-.3-.4-.7-.4-1.2s.1-.9.4-1.2c.2-.3.6-.4,1-.4h1.4l.5-2.6c.1-.6.3-1,.6-1.3.3-.3.7-.4,1.3-.4s1,.2,1.2.5.4.7.4,1.3v2.6h2.6c.4,0,.8.1,1,.4.2.3.4.7.4,1.2s-.1.9-.4,1.2c-.3.3-.6.4-1,.4h-2.6v7.5c0,.7.1,1.3.4,1.6s.6.5,1.2.5.4,0,.5,0c.1,0,.3,0,.4,0s.2,0,.3,0,.2,0,.3,0c.2,0,.3,0,.5,0s.3.2.4.3.2.2.2.4c0,.2,0,.3,0,.5,0,.3,0,.5-.1.7s-.2.4-.4.6c-.1,0-.2.2-.4.3s-.4.2-.7.3-.6.2-.9.2c-.4,0-.8,0-1.2,0-1.6,0-2.8-.4-3.5-1.1s-1.1-1.9-1.1-3.5v-8.3h-1.3Z"/>
        <path class="cls-18" d="M183.5,632.8c0-.3,0-.7.2-1s.3-.5.5-.8c.2-.2.5-.4.8-.5.3-.1.7-.2,1.1-.2s.7,0,1,.2c.3.1.6.3.8.5.2.2.4.5.5.8.1.3.2.6.2.9s0,.7-.2,1-.3.5-.5.8c-.2.2-.5.4-.8.5s-.7.2-1.1.2-.7,0-1-.2c-.3-.1-.6-.3-.8-.5-.2-.2-.4-.5-.5-.8-.1-.3-.2-.6-.2-.9h0ZM183.9,639.3c0-.6.2-1,.5-1.4s.9-.5,1.6-.5,1.2.2,1.6.5.5.8.5,1.4v12.4c0,.6-.2,1-.5,1.4s-.9.5-1.6.5-1.2-.2-1.6-.5-.5-.8-.5-1.4v-12.4Z"/>
        <path class="cls-18" d="M192.7,632.1c0-.6.2-1,.5-1.4s.9-.5,1.6-.5,1.2.2,1.6.5.5.8.5,1.4v16.1c0,.4,0,.8,0,1s.1.5.2.6c.1.2.2.3.4.3s.3,0,.4,0,.3,0,.4,0,.2,0,.3,0,.3,0,.4,0,.2.1.3.2c0,0,.2.2.2.4s0,.3,0,.5c0,.3,0,.6-.1.8,0,.2-.2.4-.4.5-.1,0-.2.2-.4.3-.1,0-.3.2-.5.3s-.4.1-.7.2-.6,0-1,0c-1.3,0-2.3-.3-3-1s-1-1.8-1-3.2v-17.2h0Z"/>
        <path class="cls-18" d="M202.3,632.1c0-.6.2-1,.5-1.4s.9-.5,1.6-.5,1.2.2,1.6.5.5.8.5,1.4v16.1c0,.4,0,.8,0,1s.1.5.2.6c.1.2.2.3.4.3s.3,0,.4,0,.3,0,.4,0,.2,0,.3,0,.3,0,.4,0,.2.1.3.2c0,0,.2.2.2.4s0,.3,0,.5c0,.3,0,.6-.1.8,0,.2-.2.4-.4.5-.1,0-.2.2-.4.3-.1,0-.3.2-.5.3s-.4.1-.7.2-.6,0-1,0c-1.3,0-2.3-.3-3-1s-1-1.8-1-3.2v-17.2h0Z"/>
        <path class="cls-18" d="M219.6,637.9c0-.9.2-1.8.5-2.5.3-.8.8-1.5,1.5-2s1.5-1,2.5-1.3c1-.3,2.1-.5,3.4-.5s1.2,0,1.8.1,1,.2,1.4.3.8.3,1.1.4c.3.2.5.3.7.5.2.2.4.5.5.7,0,.2.1.5.1.7,0,.5-.1.8-.4,1.1s-.6.4-1.1.4-.5,0-.7-.1-.5-.2-.8-.3c-.3-.1-.7-.2-1.1-.3s-.9-.1-1.6-.1-1.1,0-1.5.2-.8.3-1,.5c-.3.2-.5.5-.6.8-.1.3-.2.6-.2,1,0,.5.1,1,.4,1.3.3.3.7.7,1.1.9s1,.5,1.6.7c.6.2,1.2.4,1.8.6.6.2,1.2.5,1.8.8.6.3,1.1.7,1.6,1.2.5.5.8,1,1.1,1.7.3.7.4,1.5.4,2.4s-.2,1.9-.5,2.7-.9,1.5-1.6,2.1c-.7.6-1.6,1.1-2.6,1.4s-2.2.5-3.6.5-1.4,0-2-.1-1.1-.2-1.6-.3c-.4-.1-.8-.3-1.1-.5-.3-.2-.5-.3-.7-.5-.2-.2-.4-.4-.5-.7s-.1-.5-.1-.8c0-.5.1-.9.4-1.1s.6-.4,1.1-.4.5,0,.7.2c.2,0,.5.2.9.3.3.1.7.2,1.2.3.5,0,1.1.2,1.9.2s1.2,0,1.6-.2c.5-.1.9-.3,1.1-.6.3-.2.5-.5.7-.9s.2-.7.2-1.1-.1-1-.4-1.4-.6-.7-1.1-1c-.5-.3-1-.5-1.6-.7-.6-.2-1.2-.4-1.8-.7-.6-.2-1.2-.5-1.8-.8-.6-.3-1.1-.7-1.6-1.1-.5-.5-.8-1-1.1-1.6s-.4-1.4-.4-2.3h0Z"/>
        <path class="cls-18" d="M237,640.7c-.4,0-.8-.1-1-.4-.3-.3-.4-.7-.4-1.2s.1-.9.4-1.2c.2-.3.6-.4,1-.4h1.4l.5-2.6c.1-.6.3-1,.6-1.3.3-.3.7-.4,1.3-.4s1,.2,1.2.5.4.7.4,1.3v2.6h2.6c.4,0,.8.1,1,.4.2.3.4.7.4,1.2s-.1.9-.4,1.2c-.3.3-.6.4-1,.4h-2.6v7.5c0,.7.1,1.3.4,1.6s.6.5,1.2.5.4,0,.5,0c.1,0,.3,0,.4,0s.2,0,.3,0,.2,0,.3,0c.2,0,.3,0,.5,0s.3.2.4.3.2.2.2.4c0,.2,0,.3,0,.5,0,.3,0,.5-.1.7s-.2.4-.4.6c-.1,0-.2.2-.4.3s-.4.2-.7.3-.6.2-.9.2c-.4,0-.8,0-1.2,0-1.6,0-2.8-.4-3.5-1.1s-1.1-1.9-1.1-3.5v-8.3h-1.3Z"/>
        <path class="cls-18" d="M258.2,643.2c0-.5,0-.9-.2-1.3-.1-.3-.3-.6-.5-.9-.3-.2-.6-.4-1-.5-.4-.1-.9-.2-1.5-.2s-1.2,0-1.6.1-.9.2-1.2.3c-.3.1-.6.2-.9.3s-.5.1-.7.1c-.4,0-.7-.1-.9-.4-.2-.2-.4-.6-.4-1s0-.5.1-.6c0-.2.2-.3.4-.5.2-.2.4-.3.8-.5.4-.2.8-.4,1.3-.5.5-.2,1.1-.3,1.8-.4.7,0,1.4-.2,2.2-.2,2.2,0,3.8.5,4.9,1.4,1.1.9,1.6,2.3,1.6,4.1v5.1c0,.7,0,1.3,0,1.7,0,.4.1.8.2,1.1,0,.3.1.5.2.7,0,.2,0,.4,0,.6s0,.4-.1.6-.2.3-.4.5-.4.2-.6.3-.5.1-.8.1-.6,0-.9-.2c-.3,0-.5-.2-.7-.4-.2-.2-.4-.4-.5-.6s-.2-.5-.3-.8h0c-.3.4-.7.8-1.2,1.1-.4.3-.9.5-1.5.7-.6.2-1.3.3-2.1.3s-1.6-.1-2.3-.4c-.7-.2-1.3-.6-1.7-1-.5-.4-.8-1-1.1-1.5s-.4-1.2-.4-1.9.2-1.4.5-2c.3-.6.8-1,1.4-1.4.6-.4,1.3-.7,2.2-.9.9-.2,1.8-.3,2.9-.3s.8,0,1.2,0c.4,0,.6,0,.9,0,.3,0,.5,0,.8.1v-1.3h0ZM258.2,647.3c-.2,0-.4,0-.7-.1-.2,0-.5,0-.8-.1-.3,0-.6,0-1,0-1,0-1.8.2-2.3.4-.5.3-.8.7-.8,1.3s0,.5.2.8c.1.2.2.4.4.6.2.2.4.3.7.4.3,0,.6.2,1,.2s.9,0,1.3-.3.7-.4,1-.6c.3-.2.6-.5.8-.8v-1.6h0Z"/>
        <path class="cls-18" d="M266.9,639.1c0-.6.1-1,.5-1.3s.7-.5,1.3-.5.5,0,.7,0c.2,0,.4.2.5.3.2.1.3.3.4.5s.2.4.2.6v.8h.2c.3-.5.7-.9,1.1-1.2.2-.2.4-.3.7-.5.2-.2.5-.3.8-.4s.6-.2,1-.3c.4,0,.8,0,1.2,0,.9,0,1.7.1,2.5.4.7.3,1.4.7,1.9,1.2.5.5.9,1.2,1.2,2s.4,1.7.4,2.8v7.9c0,.6-.2,1-.5,1.4-.4.3-.9.5-1.6.5s-1.2-.2-1.6-.5-.5-.8-.5-1.4v-7.4c0-.6,0-1.2-.2-1.6s-.3-.8-.6-1.1c-.2-.3-.5-.5-.9-.6-.4-.1-.8-.2-1.2-.2s-.5,0-.8,0c-.2,0-.5.2-.7.3-.2,0-.4.2-.6.4s-.3.3-.5.4c-.3.3-.6.7-.8,1.1v8.8c0,.6-.2,1-.5,1.4-.4.3-.9.5-1.6.5s-1.2-.2-1.6-.5-.5-.8-.5-1.4v-12.5h0Z"/>
        <path class="cls-18" d="M296,632.1c0-.6.2-1,.5-1.4.4-.3.9-.5,1.6-.5s1.2.2,1.6.5.5.8.5,1.4v19.7c0,.6-.1,1-.5,1.3-.3.3-.7.5-1.3.5s-.5,0-.7,0c-.2,0-.4-.2-.5-.3s-.3-.3-.4-.5-.2-.4-.2-.6v-.8h-.2c-.3.5-.7.9-1.2,1.2-.4.3-.9.6-1.5.8s-1.3.4-2.2.4-1.9-.2-2.7-.5c-.8-.3-1.5-.8-2.1-1.5-.6-.7-1-1.5-1.3-2.4-.3-1-.5-2.1-.5-3.4s.2-2.6.6-3.7c.4-1.1,1-2,1.7-2.7.8-.7,1.7-1.3,2.8-1.7,1.1-.4,2.4-.6,3.8-.6s.6,0,.8,0c.2,0,.5,0,.6,0,.2,0,.4,0,.6.1h0c0-.6,0-1.1,0-1.7v-3.6h0ZM296,641c-.2,0-.4-.2-.6-.2-.2,0-.5-.1-.8-.2-.3,0-.6,0-1,0-.6,0-1.2.1-1.7.3s-1,.5-1.3,1-.7,1-.9,1.6c-.2.6-.3,1.4-.3,2.2s0,1.6.2,2.2c.2.6.4,1.1.7,1.5.3.4.6.7,1,.8s.9.3,1.3.3.5,0,.8,0c.2,0,.5-.2.7-.3s.4-.2.6-.4c.2-.1.3-.3.5-.4.3-.3.6-.7.8-1.1v-7.1h0Z"/>
        <path class="cls-18" d="M304.5,632.8c0-.3,0-.7.2-1s.3-.5.5-.8c.2-.2.5-.4.8-.5.3-.1.7-.2,1-.2s.7,0,1,.2c.3.1.6.3.8.5.2.2.4.5.5.8s.2.6.2.9,0,.7-.2,1-.3.5-.5.8c-.2.2-.5.4-.8.5s-.7.2-1,.2-.7,0-1-.2c-.3-.1-.6-.3-.8-.5-.2-.2-.4-.5-.5-.8s-.2-.6-.2-.9h0ZM304.9,639.3c0-.6.2-1,.5-1.4.4-.3.9-.5,1.6-.5s1.2.2,1.6.5.5.8.5,1.4v12.4c0,.6-.2,1-.5,1.4-.4.3-.9.5-1.6.5s-1.2-.2-1.6-.5-.5-.8-.5-1.4v-12.4Z"/>
        <path class="cls-18" d="M313.7,639.1c0-.6.1-1,.5-1.3s.7-.5,1.3-.5.5,0,.7,0c.2,0,.4.2.5.3.2.1.3.3.4.5s.2.4.2.6v.8h.2c.3-.5.7-.9,1.1-1.2.2-.2.4-.3.7-.5.2-.2.5-.3.8-.4s.6-.2,1-.3c.4,0,.8,0,1.2,0,.9,0,1.7.1,2.5.4.7.3,1.4.7,1.9,1.2.5.5.9,1.2,1.2,2s.4,1.7.4,2.8v7.9c0,.6-.2,1-.5,1.4-.4.3-.9.5-1.6.5s-1.2-.2-1.6-.5-.5-.8-.5-1.4v-7.4c0-.6,0-1.2-.2-1.6s-.3-.8-.6-1.1c-.2-.3-.5-.5-.9-.6-.4-.1-.8-.2-1.2-.2s-.5,0-.8,0c-.2,0-.5.2-.7.3-.2,0-.4.2-.6.4s-.3.3-.5.4c-.3.3-.6.7-.8,1.1v8.8c0,.6-.2,1-.5,1.4-.4.3-.9.5-1.6.5s-1.2-.2-1.6-.5-.5-.8-.5-1.4v-12.5h0Z"/>
        <path class="cls-18" d="M344.5,639c.5.5.9,1,1.1,1.6s.4,1.2.4,1.9-.1,1.6-.5,2.3c-.3.7-.8,1.3-1.4,1.8s-1.3.9-2.2,1.2c-.9.3-1.9.4-3,.4s-.7,0-1,0c-.3,0-.6,0-.9-.2-.1.1-.2.2-.3.4,0,.1-.2.2-.2.4,0,.2-.1.3-.1.5s0,.4.1.6c0,.2.2.3.4.4.2.1.5.2.8.3.4,0,.8,0,1.3,0h1.9c1.1,0,2,0,2.8.3s1.4.5,1.9.9.9.9,1.1,1.4.4,1.2.4,1.8-.2,1.6-.5,2.3-.9,1.3-1.6,1.9-1.6,1-2.7,1.3c-1.1.3-2.3.5-3.7.5s-2.4-.1-3.4-.4c-.9-.2-1.7-.6-2.3-1s-1-.9-1.3-1.5-.4-1.2-.4-1.8.1-1.3.4-1.8c.2-.5.5-.9.9-1.2.4-.4.8-.7,1.2-1-.4-.3-.6-.7-.8-1.1-.2-.4-.3-.9-.3-1.3s0-.9.2-1.2.4-.7.6-.9c.2-.3.5-.6.8-.8-.6-.5-1.1-1.1-1.5-1.8s-.5-1.4-.5-2.2.1-1.6.5-2.3c.3-.7.8-1.3,1.4-1.8.6-.5,1.3-.9,2.2-1.2.9-.3,1.9-.4,3-.4s.9,0,1.3,0c.4,0,.8.2,1.2.3l1.8-2.2c.3-.3.5-.6.7-.7.2-.1.5-.2.8-.2s.4,0,.6.1c.2,0,.4.2.5.3s.3.3.4.5c.1.2.1.4.1.6s0,.5-.2.7c-.2.2-.4.5-.7.8l-1.5,1.4h0ZM338.7,653.8c-.4,0-.7,0-1,0-.3,0-.6,0-1-.2-.2.2-.4.4-.6.6-.1.2-.3.4-.4.7s-.2.6-.2.9,0,.6.2.9c.1.3.3.5.6.7s.6.4,1.1.5,1,.2,1.5.2,1.3,0,1.8-.2.9-.3,1.3-.5c.3-.2.6-.5.8-.8.2-.3.2-.6.2-1s0-.5-.1-.8c-.1-.2-.3-.4-.5-.6-.2-.2-.5-.3-.9-.4-.4,0-.8-.1-1.3-.1h-1.6,0ZM336.4,642.8c0,.4,0,.8.2,1.1.1.3.3.6.5.8s.5.4.9.5c.4.1.7.2,1.2.2s.8,0,1.2-.2c.3-.1.6-.3.9-.5.2-.2.4-.5.5-.8.1-.3.2-.7.2-1.1s0-.8-.2-1.1c-.1-.3-.3-.6-.5-.8-.2-.2-.5-.4-.9-.5s-.8-.2-1.2-.2-.8,0-1.2.2-.6.3-.9.5c-.2.2-.4.5-.5.8-.1.3-.2.7-.2,1.1h0Z"/>
      </g>
      <g class="cls-24">
        <g>
          <circle class="cls-20" cx="250" cy="290" r="362.7"/>
          <circle class="cls-1" cx="250" cy="290" r="277.8"/>
          <circle class="cls-10" cx="250" cy="290" r="211.6"/>
          <circle class="cls-8" cx="250" cy="290" r="140.2"/>
          <circle class="cls-17" cx="250" cy="290" r="80.8"/>
          <circle class="cls-7" cx="250" cy="290" r="55.5"/>
          <g class="cls-25">
            <g id="_x3C_Radial_Repeat_x3E_-4">
              <rect class="cls-7" x="249.4" y="323.7" width="1" height="434.3"/>
            </g>
            <g id="_x3C_Radial_Repeat_x3E_-5">
              <rect class="cls-7" x="-5.6" y="537.3" width="434.3" height="1" transform="translate(-352.7 662.8) rotate(-81)"/>
            </g>
            <g id="_x3C_Radial_Repeat_x3E_-6">
              <rect class="cls-7" x="-43.1" y="528.3" width="434.3" height="1" transform="translate(-382.6 531.3) rotate(-72)"/>
            </g>
            <g id="_x3C_Radial_Repeat_x3E_-7">
              <rect class="cls-7" x="-78.7" y="513.6" width="434.3" height="1" transform="translate(-382.5 404.4) rotate(-63)"/>
            </g>
            <g id="_x3C_Radial_Repeat_x3E_-8">
              <rect class="cls-7" x="-111.5" y="493.5" width="434.3" height="1" transform="translate(-356 289) rotate(-54)"/>
            </g>
            <g id="_x3C_Radial_Repeat_x3E_-9">
              <rect class="cls-7" x="-140.8" y="468.4" width="434.3" height="1" transform="translate(-309.2 191.4) rotate(-45)"/>
            </g>
            <g id="_x3C_Radial_Repeat_x3E_-10">
              <rect class="cls-7" x="-165.8" y="439.1" width="434.3" height="1" transform="translate(-248.7 114.3) rotate(-36)"/>
            </g>
            <g id="_x3C_Radial_Repeat_x3E_-11">
              <rect class="cls-7" x="-185.9" y="406.3" width="434.3" height="1" transform="translate(-181.7 58.8) rotate(-27.1)"/>
            </g>
            <g id="_x3C_Radial_Repeat_x3E_-12">
              <rect class="cls-7" x="-200.7" y="370.7" width="434.3" height="1" transform="translate(-114.4 23.5) rotate(-18.1)"/>
            </g>
            <g id="_x3C_Radial_Repeat_x3E_-13">
              <rect class="cls-7" x="-209.6" y="333.3" width="434.3" height="1" transform="translate(-52 5.3) rotate(-9)"/>
            </g>
            <g id="_x3C_Radial_Repeat_x3E_-14">
              <rect class="cls-7" x="-212.6" y="294.9" width="434.3" height="1"/>
            </g>
            <g id="_x3C_Radial_Repeat_x3E_-15">
              <rect class="cls-7" x="7.1" y="39.8" width="1" height="434.3" transform="translate(-247.4 224.4) rotate(-81)"/>
            </g>
            <g id="_x3C_Radial_Repeat_x3E_-16">
              <rect class="cls-7" x="16.1" y="2.4" width="1" height="434.3" transform="translate(-197.4 167.6) rotate(-72)"/>
            </g>
            <g id="_x3C_Radial_Repeat_x3E_-17">
              <rect class="cls-7" x="30.8" y="-33.2" width="1" height="434.3" transform="translate(-146.8 128.5) rotate(-63)"/>
            </g>
            <g id="_x3C_Radial_Repeat_x3E_-18">
              <rect class="cls-7" x="51" y="-66.1" width="1" height="434.3" transform="translate(-101.1 104) rotate(-54)"/>
            </g>
            <g id="_x3C_Radial_Repeat_x3E_-19">
              <rect class="cls-7" x="76" y="-95.4" width="1" height="434.3" transform="translate(-63.8 89.9) rotate(-45)"/>
            </g>
            <g id="_x3C_Radial_Repeat_x3E_-20">
              <rect class="cls-7" x="105.3" y="-120.4" width="1" height="434.3" transform="translate(-36.7 80.8) rotate(-36)"/>
            </g>
            <g id="_x3C_Radial_Repeat_x3E_-21">
              <rect class="cls-7" x="138.1" y="-140.5" width="1" height="434.3" transform="translate(-19.7 71.4) rotate(-27)"/>
            </g>
            <g id="_x3C_Radial_Repeat_x3E_-22">
              <rect class="cls-7" x="173.7" y="-155.2" width="1" height="434.3" transform="translate(-10.6 57) rotate(-18)"/>
            </g>
            <g id="_x3C_Radial_Repeat_x3E_-23">
              <rect class="cls-7" x="211.2" y="-164.2" width="1" height="434.3" transform="translate(-5.7 33.9) rotate(-9)"/>
            </g>
            <g id="_x3C_Radial_Repeat_x3E_-24">
              <rect class="cls-7" x="249.6" y="-167.2" width="1" height="434.3"/>
            </g>
            <g id="_x3C_Radial_Repeat_x3E_-25">
              <rect class="cls-7" x="71.3" y="52.5" width="434.3" height="1" transform="translate(191.3 329.7) rotate(-81.1)"/>
            </g>
            <g id="_x3C_Radial_Repeat_x3E_-26">
              <rect class="cls-7" x="108.7" y="61.5" width="434.3" height="1" transform="translate(166.4 352.9) rotate(-72)"/>
            </g>
            <g id="_x3C_Radial_Repeat_x3E_-27">
              <rect class="cls-7" x="144.3" y="76.3" width="434.3" height="1" transform="translate(129.1 364.1) rotate(-63)"/>
            </g>
            <g id="_x3C_Radial_Repeat_x3E_-28">
              <rect class="cls-7" x="177.1" y="96.4" width="434.3" height="1" transform="translate(84.3 359.1) rotate(-54)"/>
            </g>
            <g id="_x3C_Radial_Repeat_x3E_-29">
              <rect class="cls-7" x="206.4" y="121.4" width="434.3" height="1" transform="translate(37.9 335.2) rotate(-45)"/>
            </g>
            <g id="_x3C_Radial_Repeat_x3E_-30">
              <rect class="cls-7" x="231.4" y="150.7" width="434.3" height="1" transform="translate(-3.1 292.7) rotate(-36)"/>
            </g>
            <g id="_x3C_Radial_Repeat_x3E_-31">
              <rect class="cls-7" x="251.6" y="183.5" width="434.3" height="1" transform="translate(-32.4 233.5) rotate(-27.1)"/>
            </g>
            <g id="_x3C_Radial_Repeat_x3E_-32">
              <rect class="cls-7" x="266.3" y="219.1" width="434.3" height="1" transform="translate(-44.3 160.9) rotate(-18.1)"/>
            </g>
            <g id="_x3C_Radial_Repeat_x3E_-33">
              <rect class="cls-7" x="275.3" y="256.6" width="434.3" height="1" transform="translate(-34.1 80.1) rotate(-9)"/>
            </g>
            <g id="_x3C_Radial_Repeat_x3E_-34">
              <rect class="cls-7" x="278.3" y="295" width="434.3" height="1"/>
            </g>
            <g id="_x3C_Radial_Repeat_x3E_-35">
              <rect class="cls-7" x="491.9" y="116.7" width="1" height="434.3" transform="translate(85.9 768.3) rotate(-81)"/>
            </g>
            <g id="_x3C_Radial_Repeat_x3E_-36">
              <rect class="cls-7" x="482.9" y="154.2" width="1" height="434.3" transform="translate(-18.9 716.7) rotate(-72)"/>
            </g>
            <g id="_x3C_Radial_Repeat_x3E_-37">
              <rect class="cls-7" x="468.2" y="189.8" width="1" height="434.3" transform="translate(-106.5 640.2) rotate(-63)"/>
            </g>
            <g id="_x3C_Radial_Repeat_x3E_-38">
              <rect class="cls-7" x="448" y="222.6" width="1" height="434.3" transform="translate(-170.8 544.6) rotate(-54)"/>
            </g>
            <g id="_x3C_Radial_Repeat_x3E_-39">
              <rect class="cls-7" x="423" y="251.9" width="1" height="434.3" transform="translate(-207.6 437.3) rotate(-45)"/>
            </g>
            <g id="_x3C_Radial_Repeat_x3E_-40">
              <rect class="cls-7" x="393.7" y="276.9" width="1" height="434.3" transform="translate(-215.2 326.5) rotate(-36)"/>
            </g>
            <g id="_x3C_Radial_Repeat_x3E_-41">
              <rect class="cls-7" x="360.9" y="297" width="1" height="434.3" transform="translate(-194.2 220.5) rotate(-27)"/>
            </g>
            <g id="_x3C_Radial_Repeat_x3E_-42">
              <rect class="cls-7" x="325.3" y="311.7" width="1" height="434.3" transform="translate(-147.8 126.9) rotate(-18)"/>
            </g>
            <g id="_x3C_Radial_Repeat_x3E_-43">
              <rect class="cls-7" x="287.8" y="320.7" width="1" height="434.3" transform="translate(-80.9 52) rotate(-9)"/>
            </g>
          </g>
          <rect class="cls-11" x="-20.2" y="283" width="540.3" height="317"/>
          <rect class="cls-11" x="-20.2" y="283" width="540.3" height="54.3"/>
          <rect class="cls-6" x="-20.2" y="283" width="540.3" height="86.5"/>
          <rect class="cls-5" x="-20.2" y="283" width="540.3" height="5.9"/>
          <polygon class="cls-22" points="339.4 519.1 452.3 739.9 612.9 734.4 393.9 499.1 339.4 519.1"/>
          <g>
            <path class="cls-12" d="M477.4-119.9c-.8,1.6-2.5,2.4-4.1,2.2.4,1.6.6,3.2.6,4.9V-41.7c0,19.4-4.5,38.9-12.9,56.4l-36.8,76.1c-6,12.3-9.1,26.1-9.1,39.8v161.8c1.8,2.6,2.9,5.7,2.9,9v26.8c0,3.5-1.2,6.9-3.3,9.6l-16.9,21.7c-2.9,3.7-7.1,5.8-11.8,6v91.4c2.9,2.1,5,5.3,5.5,9l6.7,47c.5,3.8-.6,7.7-3.1,10.7-2.5,2.9-6.2,4.6-10.1,4.6h-34c-3.9,0-7.6-1.7-10.1-4.6-2.5-2.9-3.7-6.8-3.1-10.7l6.7-47c.5-3.7,2.6-6.9,5.5-9v-91.5c-4.3-.4-8.3-2.5-11-5.9l-1.8-2.3h0l-15.1-19.4c-2.1-2.7-3.3-6.1-3.3-9.6v-26.8c0-4.1,1.6-7.9,4.2-10.6v-160.1c0-13.9-3.2-27.8-9.2-40.2l-36.8-76.1c-8.4-17.3-12.8-36.7-12.8-56v-71.1c0-6.5,3.5-12.4,8.9-15.6.3-.4.6-.8,1-1.2,3.6-3.9,8.7-6.1,13.9-6.1s2.7.1,3.9.4l4.6,1c1.9.4,3.2,2.1,3.1,3.9,0,1.9-1.4,3.5-3.2,3.9l-.8.2c3.5,3.5,5.5,8.3,5.5,13.4V-41.7c0,13.7,3.2,27.5,9.1,39.8l36.8,76.1c8.5,17.5,12.9,37,12.9,56.4v9.8c2-.5,4.1-.9,6.2-1h1c1.1-.1,2.2.3,3,1h0c2.9.2,5.5.8,7.7,1.7v-11.6c0-19.3,4.4-38.6,12.8-56L427.6-1.4c4.5-9.4,7.5-19.5,8.6-29.9.4-3.5.6-6.9.6-10.4v-71.1c0-5.2,2.2-9.8,5.7-13.1,3.2-3,7.5-4.9,12.3-5,.7-.2,1.3-.4,2-.6,1.3-.3,2.7-.4,4-.4,4.3,0,8.4,1.4,11.8,4.1l3.7,2.9c1.5,1.2,1.9,3.2,1.1,4.9Z"/>
            <path class="cls-4" d="M355,130.7v179.2c0,3.7-1.4,7-3.8,9.6-.2.2-.4.4-.6.6-2.5,2.4-5.9,3.9-9.7,3.9-7.8,0-14.1-6.3-14.1-14.1v-179.2c0-14.5-3.3-29-9.6-42l-36.8-76.1c-8.1-16.8-12.4-35.6-12.4-54.2v-71.1c0-6.2,4-11.4,9.6-13.3,1.4-.5,2.9-.7,4.5-.7s1.2,0,1.8.1c6.9.9,12.2,6.8,12.2,13.9V-41.7c0,14.5,3.3,29,9.6,42l36.8,76.1c8.1,16.8,12.4,35.6,12.4,54.2Z"/>
            <path class="cls-3" d="M355,130.7v179.2c0,3.7-1.4,7-3.8,9.6-.5.2-1.1.3-1.6.4-.9.2-1.9.3-2.9.3-7.8,0-14-6.3-14-14.1V126.9c0-14.5-3.3-29-9.6-42l-36.8-76.1c-8.1-16.8-12.4-35.6-12.4-54.2v-71.1c0-3.7,1.4-7.1,3.8-9.6,2.6-2.8,6.2-4.5,10.3-4.5s1.9.1,2.9.3c-2.6.5-5,1.8-6.8,3.6,6.9.9,12.2,6.8,12.2,13.9V-41.7c0,14.5,3.3,29,9.6,42l36.8,76.1c8.1,16.8,12.4,35.6,12.4,54.2h0Z"/>
            <path class="cls-4" d="M355,130.7v179.2c0,3.7-1.4,7-3.8,9.6-.2.2-.4.4-.6.6-.4,0-.7-.1-1-.2-6.4-1.3-11.2-7-11.2-13.8V126.9c0-14.5-3.3-29-9.6-42l-36.8-76.1c-8.1-16.8-12.4-35.6-12.4-54.2v-71.1c0-4,1.7-7.6,4.4-10.2,6.9.9,12.2,6.8,12.2,13.9V-41.7c0,14.5,3.3,29,9.6,42l36.8,76.1c8.1,16.8,12.4,35.6,12.4,54.2Z"/>
            <path class="cls-4" d="M396,324c7.8,0,14-6.3,14-14v-179.3c0-14.5,3.3-29,9.6-42l36.8-76.1c8.1-16.8,12.4-35.6,12.4-54.2v-71.1c0-7.8-6.3-14.1-14-14.1s-14,6.3-14,14.1V-41.7c0,14.5-3.3,29-9.6,42l-36.8,76.1c-8.1,16.8-12.4,35.6-12.4,54.2v179.3c0,7.8,6.3,14,14,14Z"/>
            <path class="cls-4" d="M468.9-112.8V-41.7c0,18.7-4.3,37.4-12.4,54.2l-36.8,76.1c-6.3,13-9.6,27.5-9.6,42v179.2c0,6.7-4.8,12.4-11.1,13.7-.1,0-.2,0-.3,0-.9.2-1.7.2-2.6.2-7.8,0-14.1-6.3-14.1-14.1v-179.2c0-18.7,4.3-37.4,12.4-54.2L431.2.3c6.3-13,9.6-27.5,9.6-42v-71.1c0-7.8,6.3-14.1,14-14.1s2,.1,3,.3c2,.4,3.9,1.3,5.5,2.5,3.4,2.6,5.6,6.6,5.6,11.2h0Z"/>
            <path class="cls-3" d="M468.9-112.8V-41.7c0,18.7-4.3,37.4-12.4,54.2l-36.8,76.1c-6.3,13-9.6,27.5-9.6,42v179.2c0,6.7-4.8,12.4-11.1,13.7-.2,0-.4,0-.6-.1-6-1.6-10.5-7.1-10.5-13.6v-179.2c0-18.7,4.3-37.4,12.4-54.2L437.1.3c6.3-13,9.6-27.5,9.6-42v-71.1c0-6.8,4.8-12.4,11.1-13.7,1-.2,2-.3,3-.3,3.3,0,6.3,1.1,8.7,3-1.1-.3-2.3-.4-3.6-.4s-1.8,0-2.6.2c3.4,2.6,5.6,6.6,5.6,11.2h0Z"/>
            <path class="cls-4" d="M468.9-112.8V-41.7c0,18.7-4.3,37.4-12.4,54.2l-36.8,76.1c-6.3,13-9.6,27.5-9.6,42v179.2c0,6.7-4.8,12.4-11.1,13.7-.1,0-.2,0-.3,0,0,0-.2-.1-.3-.2-3.2-2.6-5.3-6.6-5.3-11v-179.2c0-18.7,4.3-37.4,12.4-54.2L442.3,2.9c6.3-13,9.6-27.5,9.6-42v-71.1c0-6.9,4.9-12.6,11.4-13.8,3.4,2.6,5.6,6.6,5.6,11.2Z"/>
            <path class="cls-4" d="M382,151.8v169.4h-28.1v-169.4c0-2.4,2.1-4.4,5.4-5.8,2-.8,4.5-1.4,7.2-1.5.5,0,.9,0,1.4,0,7.8,0,14,3.3,14,7.3Z"/>
            <path class="cls-3" d="M366.5,144.5v147.6h-7.2v-146.1c2-.8,4.5-1.4,7.2-1.5h0Z"/>
            <rect class="cls-4" x="353.9" y="350.6" width="28.1" height="169.5"/>
            <rect class="cls-3" x="359.2" y="350.6" width="7.2" height="169.5"/>
            <rect class="cls-23" x="353.9" y="350.6" width="28.1" height="26.6"/>
            <path class="cls-8" d="M384.9,524.3h-9.6c0-.8,0-1.6,0-2.4l-1.8-63.4h4.8c4.7,0,8.6,3.4,9.3,8.1l6.7,47c.8,5.7-3.6,10.7-9.3,10.7h0Z"/>
            <path class="cls-17" d="M375.3,524.3h-24.4c-5.7,0-10.1-5.1-9.3-10.7l6.7-47c.7-4.6,4.6-8.1,9.3-8.1h15.8l1.8,63.4c0,.8,0,1.6,0,2.4Z"/>
            <rect class="cls-23" x="326.9" y="280" width="83.1" height="30"/>
            <path class="cls-8" d="M413.9,301.4v26.8c0,2.6-.9,5.1-2.5,7.1l-16.9,21.7c-2.2,2.8-5.6,4.5-9.1,4.5h-34.3c-3.6,0-6.9-1.6-9.1-4.5l-1.8-2.3-15.1-19.4c-1.6-2-2.4-4.5-2.4-7.1v-26.8c0-6.4,5.2-11.6,11.6-11.6h68.1c1,0,2.1.1,3,.4,4.9,1.3,8.6,5.8,8.6,11.2h0Z"/>
            <path class="cls-17" d="M405.4,290.2v28.3c0,2.8-.9,5.5-2.7,7.8l-18.4,23.6c-2.4,3.1-6.1,4.9-10,4.9h-34.1l-15.1-19.4c-1.6-2-2.4-4.5-2.4-7.1v-26.8c0-6.4,5.2-11.6,11.6-11.6h68.1c1,0,2.1.1,3,.4h0Z"/>
            <path class="cls-23" d="M382.4,273.7c-1.1,0-2-.9-2-2v-114.7c0-1.1.9-2,2-2s2,.9,2,2v114.7c0,1.1-.9,2-2,2Z"/>
            <path class="cls-23" d="M352.8,275.1c-1.1,0-2-.9-2-2v-83.4c0-.4,0-.9-.1-1.3,0-.4,0-.9-.1-1.3-.1-1.1.7-2.1,1.8-2.2,1.1-.1,2.1.7,2.2,1.8,0,.5,0,.9.1,1.4,0,.4,0,.9.1,1.3v83.6c0,1.1-.9,2-2,2h0Z"/>
            <path class="cls-23" d="M353.4,177.8c-1.1,0-2-.9-2-2v-14.6c0-1.1.9-2,2-2s2,.9,2,2v14.6c0,1.1-.9,2-2,2Z"/>
          </g>
          <polygon class="cls-22" points="69.5 383.7 32.9 622.9 330 617.4 262.3 433.4 69.5 383.7"/>
          <g>
            <path class="cls-12" d="M267.8,475.3c0,.5,0,1,0,1.5-.1,4.4-.4,8.4-.7,11.7,0,0,0,0,0,0,0,.7-.1,1.4-.2,2.1,0,.5,0,.9-.1,1.3,0,.2,0,.4,0,.6,0,.4,0,.8-.1,1.1h0c0,.5-.1,1-.2,1.4,0,.5-.1,1-.2,1.4,0,.1,0,.2,0,.4,0,0,0,.1,0,.2,0,.2,0,.5,0,.7,0,.5-.1.8-.1,1,0,0,0,0,0,0,0,0,0,0,0,0,0,.4-.5,3.1-2.3,7-.1.3-.2.5-.4.8-1,2.1-2.4,4.6-4.4,7.3-7.4,10.1-22.3,22.9-52.4,30-1,.2-2,.5-3,.7-2,.4-4.1.8-6.2,1.2-1.6.3-3.3.6-5.1.8-.5,0-1,.2-1.5.2-.7,0-1.3.2-2,.3-.6,0-1.2.2-1.8.2-.6,0-1.2.2-1.9.2-.6,0-1.2.1-1.8.2-3.1.3-6.2.6-9.5.8-.8,0-1.6.1-2.4.2-2,.1-3.9.2-6,.3-.8,0-1.5,0-2.3,0-.8,0-1.5,0-2.3,0-.8,0-1.5,0-2.3,0-1.6,0-3.2,0-4.8,0-39.1,0-65.5-9-78.7-26.8-13.5-18.3-7.4-38.7-7.2-39.6,1.3-4.4,1.4-9.5,1.5-14,0-.9,0-1.8,0-2.6,0-1.4,0-2.7,0-4,.3-13.8.7-31-.8-46.1-.3-3.4-.9-6.8-1.4-10.3-1.9-12-3.8-24.4,1.9-36,5.3-10.7,10.1-22,14.8-32.9.1-.3.2-.5.3-.8-1.2-.6-2.3-1.3-3.5-2.1-5.1-3.7-8.3-9-8.9-14.6-.4-4.6.9-8.9,2.3-12.5l.4-1.2c.5-1.2.9-2.4,1.2-3.5,2.3-7.1,2.5-15.1.6-22.6-.5-1.9-1.7-4.2-2.9-6.6-2.5-4.7-5.3-10.1-4.2-15.8,1.5-7.6,8.4-11,14.5-11.3l-7.1-229.4c-.2-4.7-.4-11.9,3.4-17.2,4.2-5.8,11.4-6.8,15.7-7.4l91-12.3s0,0,0,0l7.6-1c7.8-1,28.5-3.9,35.1,16.5,1.7,5.1,2.1,10.4,2.1,15.6s-.1,5.9-.3,8.7l-7.7,154.4c-.8,15.3-1.5,30.7-2.3,46-.2,4.7,0,9.6.4,14.8.2,4,.5,8,.5,12.1,6.2.8,10.5,4,12.3,9.2,2,6.1-.7,11.6-3.1,16.5-1.1,2.2-2.1,4.4-2.7,6.4-1.3,4.9-.7,10.1,0,15.6.8,6.4,1.6,13.1-.7,19.6h0c-2.3,6.7-7.7,11.1-12.1,14.2-2.2,1.6-4.5,3.1-6.9,4.5,1,2.5,1.9,5,2.8,7.5,2.8,7.7,5.4,15,9.5,21.7l29.2,48.3c7.9,13.1,16.1,26.6,16.2,43.9.1,1.4.3,2.8.4,4.2.1,1.3.2,2.6.2,4,0,.4,0,.7,0,1.1,0,.5,0,1,0,1.4.1,3.6.1,7.1,0,10.4h0Z"/>
            <path class="cls-16" d="M88.3,260c-2.5-81.2-5-162.4-7.5-243.7-.2-5.1-.2-10.7,2.7-14.7,3-4.2,8.2-5.1,13-5.7,32.9-4.4,65.8-8.9,98.7-13.3,12.3-1.7,25.8-1.4,30.8,13.8,2.4,7.2,2,15.1,1.6,22.8-2.2,44.3-4.4,88.6-6.6,132.9-1.1,22.5-2.2,45-3.4,67.5-.8,16.1,4.5,34.6-4,49.1-6.3,10.8-18.2,15.1-29.1,18.7-23.2,7.5-49.1,14.8-70.5,2"/>
            <path class="cls-19" d="M225.9-3.6c-4.9-15.2-18.5-15.4-30.8-13.8l-7.6,1c-.3,34.9-1.6,69.7-2.5,104.6-.4,17.5-.8,35-.8,52.5,0,15.7,1.2,31.4,1,47.1-.2,13.7-1.1,29.3-8.3,41.4-6,10.1-16.1,16.5-27,20.4-19.8,7.2-41.1,8.1-61.8,4.8,0,1.9.1,3.8.2,5.7l25.6,29.4c21.3,12.8,47.3,5.5,70.5-2,11-3.6,22.9-7.9,29.1-18.7,8.5-14.6,3.2-33,4-49.1,1.1-22.5,2.2-45,3.4-67.5,2.2-44.3,4.4-88.6,6.6-132.9.4-7.7.7-15.6-1.6-22.8h0Z"/>
            <path class="cls-21" d="M84.4,326l3.2-20.1c1,6.8-.6,13.6-3.2,20.1Z"/>
            <path class="cls-14" d="M263.5,482.7c-.5,9.3-1.5,15.5-1.5,15.5,0,0-7.4,47-108.2,47s-82-61.2-82-61.2c1.4-4.7,1.6-10,1.7-15.1,0-2.2,0-4.5,0-6.6.3-15.1.7-31.6-.8-46.6-1.4-14.7-6.7-30.4.1-44.2,8-16.2,14.7-33.2,22-49.7,2.2-5,4.5-10.1,8.4-13.9,9.6-9.3,21.2-5.6,32.8-7.3,12-1.7,23.1-2.2,35.2.7,10.4,2.4,18.3,5,24.8,14.2.6.8,1.1,1.6,1.6,2.5,9.1,14.4,11.7,31.6,20.4,46,9.4,15.5,18.8,31.1,28.2,46.6,8.3,13.7,16.7,26.8,16.7,43.7,1,10.3.9,20.4.5,28.3h0Z"/>
            <path class="cls-2" d="M263.5,482.7c-3.1,2-6.5,3.7-10.1,3.7-5,0-9.6-2.8-13.8-5.6-12.1-8.1-24.7-16.5-32.4-28.9-5.5-8.8-8.1-19.1-10.4-29.2-6.5-29.5-10.4-59.5-11.5-89.7l12.4-15c9.1,14.4,11.7,31.6,20.4,46,9.4,15.5,18.8,31.1,28.2,46.6,8.3,13.7,16.6,26.8,16.6,43.7,1,10.3.9,20.4.5,28.3h0Z"/>
            <path class="cls-2" d="M84.8,495.9c7.6-8.9,15.2-17.9,20.9-28.1,10.3-18.5,13.6-40.1,13.5-61.3s-3.4-42.1-5.6-63.2c-.3-2.8-.6-5.7.4-8.4s3.5-4.9,6.3-4.6c4,.5,5.6,5.3,6.3,9.3,2.7,15.9,5,31.9,6.7,47.9,2.7,25.2,4.1,51.4-4.1,75.4-6.7,19.5-19.4,36.5-32.6,52.4"/>
            <path class="cls-14" d="M96.4,316.6c28.3,15.7,62.9,19.7,94.1,10.9,6.2-1.8,13.3-5.4,13.6-11.8.2-4.6-3.3-8.5-7.1-11.1-12.5-8.8-28.8-9.6-44-9.7-10,0-20.1,0-29.7,2.8s-18.8,8.5-23.5,17.2"/>
            <path class="cls-18" d="M97.2,481.4l-1.7-1.1c7.9-11.7,16.8-24.9,20.2-40.6,2.7-12.2,1.9-25,1.2-37.4l-3.7-61.4h2c0-.1,3.7,61.3,3.7,61.3.8,12.5,1.5,25.5-1.2,38-3.5,16.1-12.6,29.5-20.5,41.3h0Z"/>
            <path class="cls-18" d="M237.6,472.1c-13.9-10.2-29.8-21.9-37.7-38.9-4.6-9.9-6.2-20.7-7.7-31.1l-8.8-61.1,2-.3,8.8,61.1c1.5,10.3,3,21,7.5,30.6,7.7,16.6,23.3,28,37.1,38.1l-1.2,1.6h0Z"/>
            <path class="cls-3" d="M262,498.2s-6.4,40.7-88.4,46.4c-6.2.4-12.7.7-19.8.7-100.8,0-82-61.2-82-61.2,1.4-4.7,1.6-10,1.7-15.1,5.8,7.5,13.6,13.4,22.2,18,15.3-21.4,40-35.9,66.1-38.6,3.6-.4,7.2-.5,10.8-.5,22.5.4,44.9,9.1,61.6,24.2,1.4,1.2,2.7,2.5,3.9,3.8,1.2,1.3,2.5,2.6,3.4,4.1,2.1-1.6,4.2-3.2,6.1-5,5.2-4.7,9.7-10.1,13-16.4.7-1.4,1.6-2.8,2.5-4.1,2.3,22.5-1.1,43.8-1.1,43.8h0Z"/>
            <path class="cls-4" d="M262,498.2s-6.4,40.7-88.4,46.4c1.9-14.9.7-30.2-3.5-44.6l.7-1.8c7.3,4.1,16.4,1.5,24.1-1.8,14.2-6.1,27.5-14.4,39.3-24.4,1.4,1.2,2.7,2.5,3.9,3.8,1.2,1.3,2.5,2.6,3.4,4.1,2.1-1.6,4.2-3.2,6.1-5,5.2-4.7,9.7-10.1,13-16.4.7-1.4,1.6-2.8,2.5-4.1,2.3,22.5-1.1,43.8-1.1,43.8h0Z"/>
            <path class="cls-4" d="M247.5,474.9c-.3.3-.2,1.3-.5,1.7-.4.6-1.5,1.1-2.1,1.6-5.4,4-11.1,7.5-17,10.5-3,1.5-6,2.9-9.1,4.1-2.6,1-5,2.5-7.7,3.1-14,3.1-28.7,3.1-43,2.9,8.2-6.5,13.3-16.9,13.4-27.4,0-8.7-3.3-17.3-9.1-23.8,24.3.4,48.5,10.5,65.5,28,1.2,1.3,2.5,2.6,3.4,4.1,2.1-1.6,4.2-3.2,6.1-5h0Z"/>
            <g>
              <path class="cls-3" d="M196.1,358.9c0,1.5-.6,2.9-1.7,3.9-.6.5-1.3.7-2,.8-1.5,0-3.3-.5-4.7-.9-2-.5-4.1-1-6.1-1.5-4.1-1-8.1-2-12.2-2.9-8.2-1.8-16.4-3.5-24.6-4.9-1.1-.2-3.1.8-4.1,1-1.5.4-3,.8-4.6,1.2-2.9.8-5.9,1.7-8.8,2.6-2.9.9-5.8,1.9-8.7,2.9-2.2.8-5.2,2.5-7.4.9-.9-.6-1.4-1.6-1.8-2.6-.1-.3-.2-.6-.3-.9-.2-1.1-.3-2.3.2-3.3.7-1.8,2.9-2.4,4.6-3,2.5-.9,5-1.7,7.5-2.5-2.5-.3-5-.7-7.5-1-1.9-.2-4.2-.1-5.2-2.1-.6-1.3-.5-2.8-.1-4.1.3-1.2.8-2.4,1.7-3.2,1.8-1.7,4.8-.5,6.9-.3,3,.4,6.1.8,9.1,1.2,6.1.9,12.3,1.8,18.4,2.9,6.6-1.6,13.3-3,20-4.1,1.4-.2,2.8-.5,4.2-.7,4.1-.6,8.2-1.2,12.4-1.7,2.6-.3,7.6-1.5,9.6,1.1.6.8.7,1.9.7,2.9,0,.8,0,1.7-.1,2.5s-.6,1.6-1.2,2.1c-1,.8-2.9.8-4.1.9-1.8.2-3.5.4-5.2.6-1.8.2-3.6.5-5.5.7-1.3.2-3.7,1-5,.7,4.5,1,9.1,2.1,13.6,3.2,2.3.6,4.6,1.2,6.9,1.7,1.6.4,3.1.6,4.1,1.9,0,.1.2.2.2.3.7,1,1.1,2.3,1,3.6Z"/>
              <path class="cls-4" d="M196.1,358.9c0,1.5-.6,2.9-1.7,3.9-.6.5-1.3.7-2,.8-1.5,0-3.3-.5-4.7-.9-2-.5-4.1-1-6.1-1.5-4.1-1-8.1-2-12.2-2.9-8.2-1.8-16.4-3.5-24.6-4.9-1.1-.2-3.1.8-4.1,1-1.5.4-3,.8-4.6,1.2-2.9.8-5.9,1.7-8.8,2.6-2.9.9-5.8,1.9-8.7,2.9-2.2.8-5.2,2.5-7.4.9-.9-.6-1.4-1.6-1.8-2.6.5,0,.9,0,1.4-.2,2.3-.4,4.5-1.5,6.7-2.5,15.2-7.2,30.9-13.3,47-17.7,1.4-.2,2.8-.5,4.2-.7,4.1-.6,8.2-1.2,12.4-1.7,2.6-.3,7.6-1.5,9.6,1.1.6.8.7,1.9.7,2.9,0,.8,0,1.7-.1,2.5s-.6,1.6-1.2,2.1c-1,.8-2.9.8-4.1.9-1.8.2-3.5.4-5.2.6-1.8.2-3.6.5-5.5.7-1.3.2-3.7,1-5,.7,4.5,1,9.1,2.1,13.6,3.2,2.3.6,4.6,1.2,6.9,1.7,1.6.4,3.1.6,4.1,1.9,0,.1.2.2.2.3.7,1,1.1,2.3,1,3.6h0Z"/>
            </g>
            <path class="cls-4" d="M224.5,312.7c-1.9,5.4-6.2,9.2-10.6,12.3-17.2,12.1-37.6,18-57.9,19.1-5.5.3-11,.2-16.5-.1-14.8-.9-29.6-3.9-44-8-4.3-1.2-8.6-2.6-12.3-5.3-3.7-2.7-6.8-6.9-7.2-11.8-.3-3.7.8-7.2,2.1-10.7.6-1.6,1.2-3.2,1.7-4.9,2.6-7.9,2.7-16.7.6-24.8-1.6-6.4-8.4-13.8-7.1-20.6,1.2-5.7,6.8-8.2,11.7-8.1,4.2.1,8.1,1.8,12.1,3.2,13.1,4.7,26.6,6.8,40.3,7.2,24.8.8,50.1-4.1,74.6-9.1,7.1-1.5,16.5-1.5,19,5.9,2.3,7-3.9,13.5-5.8,20.6-3.2,11.6,3.2,23.9-.6,35h0Z"/>
            <path class="cls-23" d="M224.5,312.7c-1.9,5.4-6.2,9.2-10.6,12.3-17.2,12.1-37.6,18-57.9,19.1-5.5.3-11,.2-16.5-.1,2.4-.4,4.8-1,7-2,5.8-2.5,10.8-7.9,11.3-14.2.9-10.6-10.4-19-10.8-29.7-.2-7.4,4.9-14.3,3.9-21.7-1-7.2-7.4-12.2-13.7-16.2,24.8.8,50.1-4.1,74.6-9.1,7.1-1.5,16.5-1.5,19,5.9,2.3,7-3.9,13.5-5.8,20.6-3.2,11.6,3.2,23.9-.6,35h0Z"/>
            <path class="cls-15" d="M174.2,500.5c-6.1,0-12.1-.2-17.8-.6-12.3-.7-26.8-1.9-40.9-5.5-14.8-3.8-27.3-9.9-37.1-18-.4-.4-.5-1-.1-1.4.3-.4,1-.5,1.4-.1,9.6,8,21.8,13.9,36.4,17.6,13.9,3.6,28.3,4.8,40.6,5.5,16.4.9,35.5,1.2,53.5-3.3,19.1-4.8,34.7-14.8,44.1-28.1.3-.5.9-.6,1.4-.2s.6.9.2,1.4c-9.7,13.7-25.7,24-45.3,28.9-12,3-24.5,3.9-36.3,3.9h0Z"/>
            <path class="cls-15" d="M144.1,344.8c-17.4,0-34.8-2.9-51.4-8.6-.5-.2-.8-.8-.6-1.3s.8-.8,1.3-.6c33.8,11.6,70.9,11.2,104.4-1,.5-.2,1.1,0,1.3.6.2.5,0,1.1-.6,1.3-17.5,6.4-35.9,9.6-54.3,9.6h0Z"/>
            <g>
              <path class="cls-3" d="M220.7,448.7c-.3,1.1-1.1,2.2-2.1,2.8-1.6.9-3.7,0-5.3-.4-2.2-.6-4.5-1.3-6.8-2-4.5-1.3-9.1-2.5-13.6-3.6-9.2-2.3-18.4-4.3-27.8-6-10.2,2-20.4,4.4-30.4,7.3-4.9,1.4-9.8,2.9-14.7,4.6-2.5.8-4.9,1.7-7.4,2.6-1.6.6-3.6,1.4-5.2.2-.9-.7-1.4-1.7-1.8-2.7,0-.1,0-.2-.2-.3-.4-.8-.7-1.7-.6-2.5.3-3,3.4-3.8,5.7-4.6,3-1.1,6.1-2.1,9.2-3.1,6.2-2,12.4-3.9,18.7-5.5-5.6-.7-11.1-1.4-16.7-1.9-2.7-.3-5.5-.5-8.2-.7-1.9-.1-4.6.2-5.6-1.9-.4-1-.4-2.1-.3-3.1,0-1.1.2-2.2.7-3.1,1.1-2.2,3.1-2,5.2-1.9,2.5.2,5,.4,7.5.6,5,.5,10,1,15,1.6,5,.6,9.9,1.3,14.9,2,2.5.4,4.9.8,7.4,1.2,1.8.3,4.9,1.5,6.7,1.2,8.7-1.6,17.4-2.9,26.2-4,8.2-.9,16.7-2.1,24.9-2,.5,0,1,0,1.4.2.7.4,1,1.2,1.2,2,0,.3.1.5.1.8.1,1,.1,2,0,2.9,0,.9-.3,1.8-.9,2.4,0,0-.1.1-.2.1-1,.9-3.2,1.3-4.5,1.5-2.2.4-4.7.3-6.9.5-4.5.3-9,.8-13.4,1.3,1-.1,2.5.6,3.5.9,1.3.3,2.5.6,3.8,1,2.4.6,4.8,1.3,7.2,1.9,4.4,1.2,15.2,2.6,13.1,9.7h0Z"/>
              <path class="cls-3" d="M220.7,448.7c-.3,1.1-1.1,2.2-2.1,2.8-1.6.9-3.7,0-5.3-.4-2.2-.6-4.5-1.3-6.8-2-4.5-1.3-9.1-2.5-13.6-3.6-9.2-2.3-18.4-4.3-27.8-6-10.2,2-20.4,4.4-30.4,7.3-4.9,1.4-9.8,2.9-14.7,4.6-2.5.8-4.9,1.7-7.4,2.6-1.6.6-3.6,1.4-5.2.2-.9-.7-1.4-1.7-1.8-2.7,0-.1,0-.2-.2-.3-.4-.8-.7-1.7-.6-2.5.3-3,3.4-3.8,5.7-4.6,3-1.1,6.1-2.1,9.2-3.1,6.2-2,12.4-3.9,18.7-5.5-5.6-.7-11.1-1.4-16.7-1.9-2.7-.3-5.5-.5-8.2-.7-1.9-.1-4.6.2-5.6-1.9-.4-1-.4-2.1-.3-3.1,0-1.1.2-2.2.7-3.1,1.1-2.2,3.1-2,5.2-1.9,2.5.2,5,.4,7.5.6,5,.5,10,1,15,1.6,5,.6,9.9,1.3,14.9,2,2.5.4,4.9.8,7.4,1.2,1.8.3,4.9,1.5,6.7,1.2,8.7-1.6,17.4-2.9,26.2-4,8.2-.9,16.7-2.1,24.9-2,.5,0,1,0,1.4.2.7.4,1,1.2,1.2,2,0,.3.1.5.1.8.1,1,.1,2,0,2.9,0,.9-.3,1.8-.9,2.4,0,0-.1.1-.2.1-1,.9-3.2,1.3-4.5,1.5-2.2.4-4.7.3-6.9.5-4.5.3-9,.8-13.4,1.3,1-.1,2.5.6,3.5.9,1.3.3,2.5.6,3.8,1,2.4.6,4.8,1.3,7.2,1.9,4.4,1.2,15.2,2.6,13.1,9.7h0Z"/>
              <path class="cls-4" d="M220.7,448.7c-.3,1.1-1.1,2.2-2.1,2.8-1.6.9-3.7,0-5.3-.4-2.2-.6-4.5-1.3-6.8-2-4.5-1.3-9.1-2.5-13.6-3.6-9.2-2.3-18.4-4.3-27.8-6-10.2,2-20.4,4.4-30.4,7.3-4.9,1.4-9.8,2.9-14.7,4.6-2.5.8-4.9,1.7-7.4,2.6-1.6.6-3.6,1.4-5.2.2-.9-.7-1.4-1.7-1.8-2.7,0-.1,0-.2-.2-.3,5.2.2,10.3-1.3,15.3-2.9,13.3-4.1,26.6-8.6,40.2-11.7,6.4-1.5,12.9-3,19.4-3.5,7.1-.6,14.1-1.3,21.2-2.2,5.6-.7,13.2-.4,17.5-4.4.1,1,.1,2,0,2.9,0,.9-.3,1.8-.9,2.4,0,0-.1.1-.2.1-1,.9-3.2,1.3-4.5,1.5-2.2.4-4.7.3-6.9.5-4.5.3-9,.8-13.4,1.3,1-.1,2.5.6,3.5.9,1.3.3,2.5.6,3.8,1,2.4.6,4.8,1.3,7.2,1.9,4.4,1.2,15.2,2.6,13.1,9.7h0Z"/>
            </g>
            <g>
              <path class="cls-3" d="M211.5,402.6c0,.7,0,1.4,0,2s0,1.4-.3,2c-.5.9-1.4,1.2-2.4,1.3-1.1.1-2.3,0-3.1.1-2.5.2-5.1,0-7.6,0,1.2,0,2.9,1.1,4.1,1.5,1.2.4,2.5.6,3.7,1.2.9.5,1.7,1.2,2.1,2.2.3.9.2,1.9,0,2.9-.4,1.6-1.2,3.2-2.7,4-1.5.7-3.1.2-4.6-.4-1.1-.5-2.2-.6-3.4-.9-3.3-1-6.6-2.3-9.9-3.3-6.7-2-13.4-3.8-20.2-5.2-3.5.4-6.9.8-10.4,1.3-7.7,1.1-15.3,2.5-22.8,4.2s-7.6,1.8-11.3,2.8c-2.7.7-6.8,2.9-9.4,1.2-.9-.6-1.5-1.4-1.9-2.4-.2-.4-.3-.9-.4-1.4-.2-1-.2-2.1.2-3.1.6-1.6,2.1-2,3.6-2.5,1.9-.5,3.9-1.1,5.9-1.6s3.9-1,5.9-1.5c1.6-.4,3.7-1.3,5.3-1.3-3.9-.1-7.8-.2-11.7-.1-2.7,0-7.6,1.3-9.1-1.8-1.1-2.3-.8-6.5,1.8-7.6,1.3-.5,3-.5,4.4-.6,4.8-.3,9.8-.1,14.6,0,7.8.3,15.5,1,23.2,2,4.2.6,8.5,1.3,12.7,2.1,1.5.3,3.7-.4,5.2-.5,1.8-.2,3.5-.3,5.2-.4,3.5-.2,7-.5,10.5-.6,3.6-.1,7.2-.2,10.8-.2,1.5,0,3.1.2,4.6,0,1.5-.1,2.9-.1,4.4.2.7.1,1.4.3,1.9.8,1,.8,1.2,2.3,1.2,3.6h0Z"/>
              <path class="cls-4" d="M211.5,402.6c0,.7,0,1.4,0,2s0,1.4-.3,2c-.5.9-1.4,1.2-2.4,1.3-1.1.1-2.3,0-3.1.1-2.5.2-5.1,0-7.6,0,1.2,0,2.9,1.1,4.1,1.5,1.2.4,2.5.6,3.7,1.2.9.5,1.7,1.2,2.1,2.2.3.9.2,1.9,0,2.9-.4,1.6-1.2,3.2-2.7,4-1.5.7-3.1.2-4.6-.4-1.1-.5-2.2-.6-3.4-.9-3.3-1-6.6-2.3-9.9-3.3-6.7-2-13.4-3.8-20.2-5.2-3.5.4-6.9.8-10.4,1.3-7.7,1.1-15.3,2.5-22.8,4.2s-7.6,1.8-11.3,2.8c-2.7.7-6.8,2.9-9.4,1.2-.9-.6-1.5-1.4-1.9-2.4,3.7.9,7.6-.3,11.3-1.4,23.3-6.8,47.7-10,71.9-9.5,3.6,0,7.2.2,10.7-.5,2.3-.5,4.6-1.5,6.4-3h0Z"/>
            </g>
            <g>
              <path class="cls-3" d="M187.4,377.5c3,.8,5.9,1.6,8.9,2.5,1.1.3,2.1.8,3.2,1.1.5.1.9.2,1.4.4.5.2.9.5,1.2,1,.5.8.5,1.9.3,2.8-.3,1.8-1.1,3.5-2.5,4.6-2.5,1.8-6-.3-8.6-1-3.6-1.1-7.3-2.1-10.9-3s-7.3-1.8-11-2.6c-1.9-.4-3.8-.8-5.7-1.2-1.4-.3-3.8-1.3-5.2-1-7.9,1.4-15.7,3.1-23.5,5.1-3.9,1-7.7,2.1-11.6,3.3-3.1,1-6.3,2.1-9.5,2.6-1.1.2-2.2,0-3.1-.6-.5-.4-.8-.8-1.1-1.3-.1-.2-.2-.5-.3-.8-.5-1.4-.6-3,.1-4.3,1.7-2.9,6.4-3.8,9.3-4.7,4-1.2,7.9-2.4,11.9-3.5-1.2.3-3.5-.4-4.8-.5-1.6-.1-3.2-.3-4.8-.4-2.8-.2-6.2,0-8.9-.8-1-.4-2-1.1-2.3-2.2-.2-.7-.1-1.5,0-2.2.2-1.3.4-2.6,1.1-3.7,1.9-2.8,7.5-1.4,10.3-1.1,4.2.3,8.4.7,12.6,1.2,4.2.5,8.4,1,12.6,1.6,2.1.3,4.2.6,6.3,1,1.6.3,4.2,1.3,5.8,1,6.7-1.1,13.5-2.1,20.3-2.8,3.5-.3,6.9-.6,10.4-.9,3.1-.2,6.7-.9,9.8-.5,1,.1,1.9.5,2.6,1.1.9.9,1.1,2.2,1.2,3.5,0,.4,0,.9,0,1.3,0,1.3-.1,2.8-1.2,3.6-.9.6-2,.4-3,.5-1.2,0-2.4.2-3.6.2-1.4,0-2.7.1-4.1.2-1,0-2.6.5-3.6.2h0Z"/>
              <path class="cls-4" d="M187.4,377.5c3,.8,5.9,1.6,8.9,2.5,1.1.3,2.1.8,3.2,1.1.5.1.9.2,1.4.4.5.2.9.5,1.2,1,.5.8.5,1.9.3,2.8-.3,1.8-1.1,3.5-2.5,4.6-2.5,1.8-6-.3-8.6-1-3.6-1.1-7.3-2.1-10.9-3s-7.3-1.8-11-2.6c-1.9-.4-3.8-.8-5.7-1.2-1.4-.3-3.8-1.3-5.2-1-7.9,1.4-15.7,3.1-23.5,5.1-3.9,1-7.7,2.1-11.6,3.3-3.1,1-6.3,2.1-9.5,2.6-1.1.2-2.2,0-3.1-.6-.5-.4-.8-.8-1.1-1.3,15.7-5.1,31.8-9,48-11.9,9.7-1.7,19.5-3,29.3-3.4,3.6-.1,7.2-.2,10.7-1.1,1.8-.5,3.5-1.3,5-2.4,0,.4,0,.9,0,1.3,0,1.3-.1,2.8-1.2,3.6-.9.6-2,.4-3,.5-1.2,0-2.4.2-3.6.2-1.4,0-2.7.1-4.1.2-1,0-2.6.5-3.6.2h0Z"/>
            </g>
            <path class="cls-15" d="M148.1,260.8c-18.7,0-37.5-2.7-55.3-8-.5-.2-.8-.7-.7-1.2s.7-.8,1.2-.7c35.5,10.7,74.6,10.6,110.1-.2.5-.2,1.1.1,1.2.7s-.1,1.1-.7,1.2c-18.1,5.5-37,8.2-56,8.2Z"/>
          </g>
        </g>
      </g>
    </g>
  </g>
</svg>