<?xml version="1.0" encoding="UTF-8"?>
<svg id="Expanded" xmlns="http://www.w3.org/2000/svg" xmlns:xlink="http://www.w3.org/1999/xlink" viewBox="0 0 500 700">
  <defs>
    <style>
      .cls-1 {
        fill: #ffa9c2;
      }

      .cls-2 {
        fill: #fff;
      }

      .cls-3 {
        fill: #7a1859;
      }

      .cls-4 {
        fill: #fff8d9;
      }

      .cls-5 {
        fill: #f4b545;
      }

      .cls-6 {
        fill: none;
      }

      .cls-7 {
        fill: #f47aa0;
      }

      .cls-8 {
        fill: #aa5217;
      }

      .cls-9 {
        fill: #e9f1f4;
      }

      .cls-10 {
        fill: #6d3108;
      }

      .cls-11 {
        fill: #b52880;
      }

      .cls-12 {
        fill: #ffe277;
      }

      .cls-13 {
        fill: #333;
      }

      .cls-14 {
        fill: #dd4a8c;
      }

      .cls-15 {
        clip-path: url(#clippath);
      }

      .cls-16 {
        fill: #ffd2e1;
      }
    </style>
    <clipPath id="clippath">
      <rect class="cls-6" x="-36" y="68" width="572" height="468" rx="32" ry="32" transform="translate(552 52) rotate(90)"/>
    </clipPath>
  </defs>
  <g>
    <g>
      <path class="cls-9" d="M48,699.5c-26.19,0-47.5-21.31-47.5-47.5V48C.5,21.81,21.81.5,48,.5h404c8.33,0,16.53,2.19,23.71,6.33,14.67,8.47,23.79,24.24,23.79,41.17v604c0,26.19-21.31,47.5-47.5,47.5H48Z"/>
      <path class="cls-13" d="M452,1c8.25,0,16.36,2.17,23.46,6.27,14.52,8.38,23.54,23.98,23.54,40.73v604c0,25.92-21.08,47-47,47H48c-25.92,0-47-21.08-47-47V48C1,22.08,22.08,1,48,1h404M452,0H48C21.49,0,0,21.49,0,48v604c0,26.51,21.49,48,48,48h404c26.51,0,48-21.49,48-48V48c0-17.79-9.67-33.31-24.04-41.6-7.05-4.07-15.23-6.4-23.96-6.4h0Z"/>
    </g>
    <path class="cls-2" d="M500,48v374.52L0,539.11V117.39L475.96,6.4c14.37,8.29,24.04,23.81,24.04,41.6Z"/>
    <path class="cls-2" d="M500,459.42v140.57l-428.9,100.01h-23.1c-26.51,0-48-21.49-48-48v-75.99l500-116.59Z"/>
    <path class="cls-13" d="M452,1c25.92,0,47,21.08,47,47v604c0,25.92-21.08,47-47,47H48c-25.92,0-47-21.08-47-47V48C1,22.08,22.08,1,48,1h404M452,0H48C21.49,0,0,21.49,0,48v604c0,26.51,21.49,48,48,48h404c26.51,0,48-21.49,48-48V48c0-26.51-21.49-48-48-48h0Z"/>
    <g>
      <rect class="cls-2" x="15" y="15" width="470" height="574" rx="33" ry="33"/>
      <path class="cls-13" d="M452,16c17.67,0,32,14.33,32,32v508c0,17.67-14.33,32-32,32H48c-17.67,0-32-14.33-32-32V48c0-17.67,14.33-32,32-32h404M452,14H48c-18.75,0-34,15.25-34,34v508c0,18.75,15.25,34,34,34h404c18.75,0,34-15.25,34-34V48c0-18.75-15.25-34-34-34h0Z"/>
    </g>
  </g>
  <g class="cls-15">
    <rect class="cls-1" x="0" y="-35.4" width="508.32" height="656.13"/>
    <path class="cls-7" d="M-9.5,468.11c-2.17,0-4.33-.05-6.49-.16l.05-1c60.23,3.05,119.19-35.76,140.19-92.31,4.43-11.94,7.42-24.87,10.31-37.37,5.81-25.13,11.81-51.11,29.83-69.62,13.11-13.47,30.88-21.03,48.07-28.34,4.39-1.87,8.94-3.8,13.31-5.8,27.61-12.6,43.98-28.44,48.63-47.07,4.79-19.16-3.2-38.63-10.93-57.47-7.98-19.46-16.24-39.58-10.39-59.38,4.27-14.46,16.34-27.4,33.11-35.5,15.06-7.27,31.71-10.16,47.82-12.95L484.11-4.91l.17.99-150.08,26.05c-16.04,2.78-32.63,5.66-47.56,12.87-16.52,7.97-28.4,20.69-32.59,34.88-5.75,19.46,2.44,39.42,10.35,58.72,7.79,18.98,15.84,38.61,10.97,58.09-4.73,18.95-21.28,35.01-49.19,47.74-4.39,2-8.94,3.94-13.34,5.81-17.09,7.28-34.77,14.8-47.74,28.12-17.83,18.31-23.8,44.15-29.58,69.14-2.9,12.54-5.89,25.5-10.35,37.5-10.15,27.34-29.99,51.78-55.87,68.82-23.97,15.78-51.71,24.3-78.81,24.3Z"/>
    <path class="cls-7" d="M320.85,604.79l-.42-.91c30.15-13.98,61.33-28.43,85.23-52.53,26.14-26.37,37.52-62.13,29-91.09-3.9-13.24-11.64-25.09-19.13-36.56-2.59-3.97-5.27-8.07-7.76-12.18-12.51-20.67-16.61-38.13-12.54-53.38,4.64-17.39,19.21-29.25,33.31-40.72,3.97-3.23,8.08-6.58,11.87-9.97,31.6-28.34,49.47-72.25,46.65-114.6l1-.07c2.84,42.65-15.16,86.87-46.98,115.41-3.8,3.41-7.92,6.76-11.9,10-13.97,11.37-28.41,23.13-32.97,40.2-4,14.98.07,32.19,12.43,52.61,2.48,4.09,5.15,8.19,7.74,12.15,7.53,11.52,15.32,23.44,19.25,36.82,4.49,15.25,3.75,32.28-2.13,49.24-5.41,15.59-14.78,30.4-27.11,42.84-24.02,24.23-56.69,39.38-85.52,52.73Z"/>
    <path class="cls-7" d="M-43.79,182.81l-.98-.19c4.42-22.3,21-41.96,42.23-50.08,7.18-2.75,15-4.34,22.56-5.88,13.78-2.81,26.79-5.46,36.7-14.46,8.68-7.89,14.08-20.26,16.52-37.82.58-4.19,1.01-8.5,1.42-12.66.97-9.76,1.97-19.85,5.03-29.34,3.95-12.25,13.46-26.49,28.31-29.73l.21.98c-14.43,3.16-23.71,17.08-27.57,29.06-3.03,9.39-4.02,19.42-4.99,29.13-.41,4.17-.84,8.49-1.43,12.7-2.47,17.8-7.98,30.37-16.83,38.42-10.11,9.19-23.87,11.99-37.17,14.7-7.52,1.53-15.3,3.12-22.41,5.84-20.92,8-37.25,27.37-41.61,49.34Z"/>
    <path class="cls-7" d="M7.36,419.98c-2.35,0-4.71-.12-7.06-.36l.1-.99c33.98,3.53,68.43-19.31,78.4-52.01,1.66-5.46,2.71-11.2,3.73-16.75,1.33-7.28,2.71-14.81,5.49-21.81,9.11-22.96,31.81-36.82,49.24-44.4,9.66-4.2,19.82-7.59,29.64-10.88,11.23-3.75,22.85-7.63,33.73-12.73,24.03-11.25,40.38-27.69,46.03-46.28,6.9-22.71-1.81-46.22-10.23-68.96-8.12-21.92-16.51-44.59-11.33-66.94,4.6-19.85,18.75-34.13,29.8-42.62,14.05-10.79,30.4-18.19,46.21-25.35l.41.91c-15.76,7.14-32.05,14.51-46.01,25.23-10.93,8.39-24.9,22.49-29.44,42.05-5.11,22.06,3.23,44.58,11.29,66.37,8.48,22.9,17.24,46.57,10.24,69.6-5.73,18.87-22.26,35.52-46.56,46.9-10.94,5.12-22.58,9.01-33.84,12.77-9.8,3.27-19.94,6.66-29.56,10.84-17.26,7.51-39.72,21.21-48.71,43.85-2.74,6.91-4.11,14.39-5.43,21.62-1.02,5.58-2.08,11.35-3.76,16.86-9.41,30.87-40.35,53.07-72.4,53.07Z"/>
    <path class="cls-7" d="M359.93,611.55l-.06-1c33.98-2.13,66.13-21.5,83.89-50.54,17.76-29.05,20.36-66.49,6.77-97.71-3.67-8.44-8.5-16.48-13.17-24.26-3.44-5.74-7-11.67-10.09-17.74-8.91-17.52-11.68-33.22-8.23-46.64,4.11-15.97,17.02-28.1,26.38-35.84,3.03-2.51,6.19-4.97,9.25-7.36,8.58-6.7,17.45-13.62,24.41-22.15,10.83-13.29,14.68-28.71,10.29-41.25l.94-.33c4.5,12.87.59,28.65-10.46,42.21-7.02,8.61-15.94,15.57-24.57,22.3-3.05,2.38-6.21,4.84-9.23,7.34-9.25,7.65-22.01,19.62-26.05,35.31-3.39,13.18-.64,28.64,8.15,45.94,3.07,6.03,6.62,11.95,10.05,17.67,4.69,7.81,9.53,15.88,13.23,24.38,13.72,31.51,11.1,69.31-6.83,98.63-17.93,29.32-50.38,48.87-84.68,51.02Z"/>
    <path class="cls-16" d="M262.49,6.37c-19.66,1.88-39.61,3.84-58,11.02-18.39,7.19-35.35,20.42-42.45,38.84-6.95,18.05-3.66,38.4,1.98,56.89,5.64,18.5,13.57,36.5,15.84,55.7,2.27,19.2-2.34,40.69-17.52,52.67-11.99,9.46-28.21,11.33-43.47,11.35-15.27.02-30.86-1.42-45.54,2.75-21.29,6.05-37.92,23.38-48.17,42.99-10.25,19.61-15,41.56-19.63,63.19-14.37-31.76-25.25-65.1-32.39-99.23-5.24-25.07-7.71-53.67,7.96-73.93,12.08-15.62,32.37-22.51,51.93-25.25,19.55-2.74,39.6-2.2,58.78-6.86,19.19-4.66,38.32-15.96,45.32-34.43,4.96-13.09,3.12-27.62,3.76-41.6,2.28-50.24,41.25-96.54,90.36-107.38"/>
    <path class="cls-2" d="M-25.67,291.61l-.98-.18c4.96-26.96,21.71-51.86,44.81-66.62,15.07-9.62,32.48-15.06,49.32-20.31,6.3-1.96,12.81-4,19.1-6.22,29.4-10.38,48.03-24.37,56.94-42.75,7.92-16.36,7.43-35.15,6.96-53.32-.24-9.32-.5-18.96.37-28.24,3.15-33.92,21.98-65.42,50.36-84.26l.55.83c-28.13,18.68-46.79,49.9-49.91,83.52-.86,9.23-.61,18.83-.36,28.12.48,18.29.97,37.21-7.06,53.78-9.03,18.64-27.84,32.79-57.5,43.26-6.31,2.23-12.83,4.26-19.14,6.23-16.77,5.23-34.12,10.64-49.08,20.2-22.87,14.61-39.46,39.27-44.37,65.96Z"/>
    <path class="cls-16" d="M512.83,20.61c-24.07,19.63-54.93,30.76-85.99,31.01-21.49.17-42.79-4.67-64.28-4.35-24.63.37-43.51,9.83-60.74,26.75-14.94,14.68-22.6,41.06-9.58,59.24,19.35,27.03,67.56,19.87,84.66,48.37,7.18,11.96,6.3,27.73-.37,39.98-6.67,12.25-18.46,21.17-31.37,26.46-27.11,11.11-57.72,7.14-86.79,3.54-29.08-3.6-60.1-6.35-86.3,6.76-26.2,13.11-43.44,48.29-27.39,72.8,12.51,19.11,39.68,24.94,51.08,44.73,13.54,23.49-3.39,54.84-27.44,67.38-24.04,12.55-52.44,12.04-79.52,13.44-27.08,1.41-56.32,6.11-75.09,25.69-20.4,21.28-22.53,53.74-22.13,83.21.33,24.84,2.29,51.51,17.81,70.91,12.92,16.15,33.57,24.6,54.1,27.04,20.54,2.44,41.29-.47,61.77-3.38,35.82-5.08,71.87-10.22,106.2-21.61s67.23-29.52,90.87-56.91c39.1-45.31,47.36-114.8,19.96-168.01-7.48-14.53-17.31-27.82-24.02-42.72-6.72-14.9-10.11-32.36-4.03-47.54,8.56-21.36,32.69-31.7,55.1-36.94,22.41-5.24,46.62-8.11,64.57-22.53,15.37-12.35,23.98-32.63,22.18-52.27-1.8-19.63-13.94-38.02-31.3-47.37-12.16-6.55-26.1-8.7-39.51-12.01-13.41-3.31-27.18-8.3-36.14-18.81-8.96-10.51-11.06-27.92-1.23-37.62,7.51-7.4,19.52-8.26,29.69-5.47,10.17,2.79,19.19,8.6,28.68,13.19,44.6,21.57,101.76,13.82,139.02-18.83"/>
    <path class="cls-2" d="M14.22,582.38l-.18-.98c38.74-7.06,78.79-14.37,115.89-29.59,28.92-11.87,68.42-34.14,92.39-72.86,22.99-37.13,27.83-82.93,32.11-123.33l.99.11c-4.29,40.51-9.15,86.43-32.25,123.75-24.12,38.95-63.81,61.34-92.86,73.26-37.19,15.26-77.3,22.58-116.09,29.65Z"/>
    <path class="cls-2" d="M237.55,630.91l-.66-.76c43.96-38.14,68.57-97.88,64.24-155.92-1.18-15.84-4.42-31.7-7.55-47.04-2.88-14.13-5.86-28.75-7.24-43.35-3.19-33.77,4.96-64.49,22.94-86.51,6.49-7.95,16.22-12.3,25.62-16.5,3.41-1.52,6.93-3.1,10.17-4.8,12.51-6.57,26.76-14.99,37.54-27.56,14.42-16.81,18.97-38.43,11.6-55.08-7.59-17.16-25.37-26.39-42.56-35.33l-1.74-.91c-16.55-8.62-36.08-21.03-40.21-40.68-2.06-9.77.15-19.84,6.37-29.12,8.33-12.42,22.96-21.87,38.18-24.66,22.17-4.07,44.69,1.77,66.47,7.42,3.2.83,6.39,1.66,9.57,2.45,22.67,5.66,51.67,10.55,74.89-2.1l.48.88c-23.52,12.81-52.77,7.9-75.61,2.19-3.18-.8-6.38-1.62-9.58-2.45-21.67-5.62-44.08-11.44-66.03-7.41-14.96,2.75-29.34,12.04-37.53,24.24-6.07,9.05-8.22,18.85-6.22,28.36,4.05,19.24,23.34,31.48,39.7,40l1.74.91c17.35,9.01,35.28,18.33,43.01,35.81,7.52,17,2.91,39.04-11.76,56.14-10.89,12.7-25.24,21.18-37.83,27.79-3.27,1.72-6.81,3.3-10.23,4.83-9.3,4.16-18.91,8.45-25.25,16.22-17.82,21.82-25.88,52.28-22.72,85.79,1.37,14.54,4.35,29.13,7.23,43.24,3.13,15.37,6.38,31.26,7.56,47.17,4.36,58.34-20.39,118.41-64.58,156.75Z"/>
    <g>
      <path class="cls-7" d="M273.76,454.03c-3.52,37.23-29.55,59.28-77.3,36.16-24.19-11.72-32.81-33.35-33.88-56.31-1.94-41.36,20.58-87.07,20.58-87.07l37.37-15.81c39.13,37.19,56.64,87.15,53.23,123.03Z"/>
      <path class="cls-1" d="M273.76,454.03c-3.52,37.23-29.55,59.28-77.3,36.16-24.19-11.72-32.81-33.35-33.88-56.31,1.61,16.46,11.22,31.87,25.05,40.94,13.87,9.08,31.65,11.76,47.7,7.62,15.8-4.07,29.75-14.59,38.43-28.41Z"/>
      <path class="cls-14" d="M174.14,397.7c14.52-3.86,29.61-4.4,44.4-1.88,13.48,2.3,25.93,7.62,38.5,12.77,4.27,1.75,8.66,3.56,13.04,5.51-7.13-28.09-23.57-58.42-49.55-83.11l-37.37,15.81s-11.94,24.23-17.68,53.37c2.85-.92,5.76-1.71,8.66-2.48Z"/>
      <path class="cls-11" d="M248.44,367.95l-14.63-33.82-24.41,14.42,13.87-4.45s35.03,67.18,24.33,86.26c-10.7,19.08-23.54-9.8-23.54-9.8,0,0-8.6,20.42-24.95,1.02-16.35-19.4,10.29-73.03,10.29-73.03l-9.24,5.46s-29.23,38.9-18.26,75.73c11.14,37.43,37.35,26.14,42.05,18.7,0,0,17.5,25.74,31.74,8.47,14.23-17.27-7.24-88.96-7.24-88.96Z"/>
      <path class="cls-14" d="M248.91,412.18c1.18,7.55,1.03,14.01-1.31,18.18-10.7,19.08-23.54-9.8-23.54-9.8,0,0-8.6,20.42-24.95,1.02-3.77-4.47-5.25-10.76-5.3-17.79-4.67.07-9.38.19-13.97.92-.86,8.13-.45,16.63,2.05,25.03,11.14,37.43,37.35,26.14,42.05,18.7,0,0,17.5,25.74,31.74,8.47,5.92-7.18,5.66-23.76,3.34-40.69-3.33-1.44-6.7-2.81-10.12-4.04Z"/>
      <path class="cls-3" d="M231.72,501.71c-9.67,0-21.57-2.67-36.13-9.73-15.05-7.29-25.4-18.91-30.78-34.54-15.59-45.38,15.23-108.84,16.56-111.52l.33-.67,39.26-16.61.95.9c24.31,23.1,42.06,52.77,49.98,83.54,7.45,28.92,5.22,54.91-6.12,71.29-5.28,7.63-15.62,17.33-34.04,17.33ZM184.64,348.36c-3.27,6.94-30.27,66.4-16.04,107.79,5.01,14.59,14.68,25.43,28.73,32.24,29.36,14.22,52.5,11.99,65.14-6.28,21.25-30.7,7.57-100.57-42.38-148.75l-35.46,15Z"/>
      <path class="cls-7" d="M299.84,434.21c-28.91-19.58-55.79-52.44-74.31-102.71l14.25-21.18s73.97-33.12,145.84,3.43c17.64,8.97,35.16,22.14,51.42,41.02,62.45,72.54-47.18,140.42-137.2,79.44Z"/>
      <path class="cls-1" d="M299.84,434.21h.24c16.91,5.23,34.43,9.15,52.13,8.98,17.71-.16,35.71-4.64,50.11-14.94,14.4-10.31,24.77-26.86,25.39-44.56.51-14.59-5.46-28.81-13.99-40.66-7.92-11-17.97-20.25-28.1-29.28,17.64,8.97,35.16,22.14,51.42,41.02,62.45,72.54-47.18,140.42-137.2,79.44Z"/>
      <path class="cls-14" d="M279.39,327.11c6.83-12.29,16.42-22.14,29.16-28.24,1.75-.84,3.52-1.58,5.3-2.28-42.21-.52-74.07,13.73-74.07,13.73l-14.26,21.18c10.18,27.64,22.9,50.01,37.08,67.81-.71-24.68,4.99-50.98,16.78-72.2Z"/>
      <path class="cls-11" d="M392.81,358.42c-.37-4.93-3.14-9.37-6.36-13.13-13.11-15.34-34.43-22.19-53.41-27.02-19.25-4.9-39.25-6.83-59.08-5.64-8.33.5-16.62,1.54-24.81,3.15l-12.06,15.73c12.06,26.57,30.05,50.43,52.26,69.35,7.81,6.66,16.21,12.75,25.56,17,9.34,4.25,19.71,6.59,29.93,5.56,9.67-.98,19.47-5.45,24.54-13.74,5.07-8.29,3.78-20.63-4.29-26.04,6.49-1.97,13.11-4,18.58-8.01,5.47-4.01,9.65-10.43,9.14-17.19ZM334.9,360.67c-4.65,2.76-10.25,3.32-15.64,3.63,4.33,4.06,8.94,8.87,8.88,14.8-.08,7.01-7.22,12.37-14.22,12.76-7,.39-13.66-2.93-19.57-6.71-22.68-14.51-39.9-37.36-47.59-63.17l5.18-.67c5.42-.1,10.92-1.71,16.38-2.11,5.6-.41,11.22-.4,16.82.02,10.94.83,21.77,3.23,32.01,7.18,5.15,1.99,10.2,4.38,14.55,7.78,4.33,3.38,9.31,8.81,10.11,14.47.68,4.83-2.97,9.68-6.9,12.02Z"/>
      <path class="cls-14" d="M392.81,358.42c-.37-4.93-3.14-9.37-6.36-13.13-13.11-15.34-34.43-22.19-53.41-27.02-7.55-1.92-15.22-3.38-22.95-4.38-2.56,2.61-4.94,5.32-7.16,8.12,4.82,1.15,9.57,2.6,14.2,4.39,5.15,1.99,10.2,4.38,14.55,7.78,4.33,3.38,9.31,8.81,10.11,14.47.68,4.83-2.97,9.68-6.9,12.02-4.65,2.76-10.25,3.32-15.64,3.63,4.33,4.06,8.94,8.87,8.88,14.8-.08,7.01-7.22,12.37-14.22,12.76-7,.39-13.66-2.93-19.57-6.71-5.18-3.31-10.05-7.07-14.61-11.19-1.07,5.14-1.9,10.36-2.52,15.62,3.89,3.92,7.94,7.68,12.15,11.26,7.81,6.66,16.21,12.75,25.56,17,9.34,4.25,19.71,6.59,29.93,5.56,9.67-.98,19.47-5.45,24.54-13.74,5.07-8.29,3.78-20.63-4.29-26.04,6.49-1.97,13.11-4,18.58-8.01,5.47-4.01,9.65-10.43,9.14-17.19Z"/>
      <path class="cls-3" d="M373.84,459.87c-2.05,0-4.11-.05-6.18-.16-27.82-1.43-55.05-12.16-78.73-31.04-27.94-22.27-49.91-54.73-65.29-96.48l-.35-.96,15.15-22.51.52-.23c.29-.13,29.5-13.02,68.46-13.88,22.9-.51,44.68,3.17,64.71,10.92,25.04,9.7,47.39,25.82,66.43,47.93,18.97,22.03,23.84,45.54,13.72,66.19-12,24.49-43.04,40.21-78.43,40.21ZM227.76,331.77c27.77,74.55,80.09,120.86,140.11,123.95,36.34,1.87,68.82-13.33,80.81-37.81,9.37-19.13,4.7-41.08-13.16-61.82-42.12-48.91-92.86-58.25-128.01-57.47-35.35.78-62.38,11.62-66.4,13.31l-13.36,19.84Z"/>
      <path class="cls-7" d="M210.82,319.95l-21.78,34.24s-52.56,15.76-93.82,4.78c-20.57-5.48-38.34-17.61-45.37-41.65-16.26-55.6,16.3-76.74,59-68.89,34.09,6.27,74.66,31.04,101.97,71.52Z"/>
      <path class="cls-1" d="M95.22,358.97c-20.57-5.48-38.34-17.61-45.37-41.65-16.26-55.6,16.3-76.74,59-68.89l.47,1.16c-8.67.26-17.41,1.25-25.53,4.28-8.13,3.02-15.63,8.23-20.26,15.56-4.53,7.19-6.02,15.93-5.98,24.43.13,26.24,15.06,51.86,37.67,65.11Z"/>
      <path class="cls-14" d="M118.61,250.69c4.63,5.13,8.24,11.41,11.61,17.28,6.7,11.67,12.21,24.48,15.55,37.53,3.74,14.6,4.05,29.54,2.88,44.49-.31,3.98-.73,7.95-1.24,11.9,23.41-2.25,41.63-7.71,41.63-7.71l21.78-34.23c-24.75-36.68-60.37-60.45-92.21-69.26Z"/>
      <path class="cls-11" d="M117.95,326.08c-16.43-19.34,5.14-24.44,5.14-24.44,0,0-26.35-17.44-5.76-24.84,20.59-7.39,81.04,38.29,81.04,38.29l-6.69,12.94,18.26-21.69-30.93-20.03s-67.14-33.06-86.53-21.88c-19.39,11.18,3.1,32.7,3.1,32.7-8.12,3.4-23.6,27.38,11.47,44.57,34.51,16.92,77.71-5.46,77.71-5.46l6.92-8.21s-57.3,17.39-73.73-1.95Z"/>
      <path class="cls-14" d="M144.54,335.18c-10.99-.27-21.09-2.62-26.59-9.1-16.43-19.34,5.14-24.44,5.14-24.44,0,0-26.35-17.44-5.76-24.84,1.81-.65,3.94-.88,6.31-.78-2.78-4.47-5.77-8.85-9.18-12.84-9.14-1.57-17.08-1.57-21.97,1.25-19.39,11.18,3.1,32.7,3.1,32.7-8.12,3.4-23.6,27.38,11.47,44.57,12.45,6.1,26.04,7.09,38.31,5.86-.15-4.14-.41-8.27-.82-12.38Z"/>
      <path class="cls-3" d="M128.51,364.93c-17.69,0-36.33-2.68-51.61-10.98-14.53-7.89-24.27-20.03-28.97-36.07-13.19-45.11,6.32-61.93,19.12-67.95,18.04-8.47,44.03-6.37,71.32,5.77,29.03,12.91,55.35,35.33,74.1,63.13l.73,1.09-22.89,35.97-.71.21c-1.82.55-30,8.83-61.1,8.83ZM92.22,248.87c-8.8,0-16.78,1.54-23.47,4.68-20.11,9.44-26.14,31.89-16.99,63.2,4.38,14.99,13.48,26.32,27.04,33.68,38.48,20.9,101.58,4.11,108.95,2.04l20.67-32.48c-31.46-45.9-80.56-71.12-116.2-71.12Z"/>
      <path class="cls-7" d="M234.15,303.78l-23.06,10.95c-55.9-30.68-85.66-69.43-97.72-106.68-29.64-91.52,47.47-174.04,106.11-105.94,4.06,4.71,7.75,9.45,11.11,14.19,64.89,91.79,3.56,187.48,3.56,187.48Z"/>
      <path class="cls-1" d="M230.59,116.3c-11.27-13.55-28.36-22.1-45.96-22.96-18.08-.88-36.4,6.37-48.98,19.39-12.12,12.56-18.63,29.69-21.27,46.94-2.45,15.97-1.85,32.22-1.01,48.38-29.64-91.52,47.47-174.04,106.11-105.94,4.06,4.71,7.75,9.45,11.11,14.19Z"/>
      <path class="cls-14" d="M207.75,249.17c-17.38,5.24-35.41,4.44-52.92.3-8.9-2.1-18.12-4.82-26.28-9.01-.05-.02-.09-.05-.14-.08,16.35,26.58,42.88,52.51,82.68,74.36l23.07-10.95s26.42-41.22,26.23-95.5c-12.54,18.9-29.87,34.03-52.63,40.89Z"/>
      <path class="cls-11" d="M240.14,210.37c-1.96-19.48-5.57-41.58-18.79-56.83-3.24-3.74-7.22-7.14-12.04-8.24-6.61-1.51-13.58,1.68-18.36,6.49s-7.77,11.06-10.68,17.18c-4.15-8.79-16.16-11.89-25.11-8.11-8.95,3.78-14.82,12.81-17.23,22.23-2.54,9.95-1.76,20.55,1.05,30.42s7.59,19.08,13.01,27.8c15.41,24.78,36.34,46.1,60.82,61.98l17.34-9.59c2.8-7.86,5.07-15.9,6.79-24.06,4.11-19.43,5.18-39.5,3.19-59.27ZM232.09,257.61c-.41,5.6-1.24,11.16-2.48,16.64-1.21,5.34-3.62,10.54-4.52,15.89l-1.43,5.02c-24.38-11.43-44.42-31.85-55.4-56.44-2.86-6.4-5.16-13.48-3.73-20.35,1.43-6.87,7.78-13.13,14.73-12.17,5.88.81,9.95,6.1,13.32,10.98,1.11-5.29,2.49-10.75,5.91-14.93,2.9-3.54,8.23-6.43,12.91-5.04,5.48,1.63,10.11,7.36,12.81,12.14,2.71,4.81,4.33,10.16,5.53,15.54,2.39,10.71,3.16,21.78,2.35,32.72Z"/>
      <path class="cls-14" d="M151.42,240.38c6.16,1.13,12.4,1.85,18.65,2.19-.63-1.27-1.25-2.55-1.82-3.84-2.86-6.4-5.16-13.48-3.73-20.35,1.43-6.87,7.78-13.13,14.73-12.17,5.88.81,9.95,6.1,13.32,10.98,1.11-5.29,2.49-10.75,5.91-14.93,2.9-3.54,8.23-6.43,12.91-5.04,5.48,1.63,10.11,7.36,12.81,12.14,2.71,4.81,4.33,10.16,5.53,15.54.45,2.04.83,4.1,1.17,6.16,3.49-1.85,6.87-3.9,10.14-6.09-.12-4.87-.42-9.74-.91-14.59-1.96-19.48-5.57-41.58-18.79-56.83-3.24-3.74-7.22-7.14-12.04-8.24-6.61-1.51-13.58,1.68-18.36,6.49s-7.77,11.06-10.68,17.18c-4.15-8.79-16.16-11.89-25.11-8.11-8.95,3.78-14.82,12.81-17.23,22.23-2.54,9.95-1.76,20.55,1.05,30.42,2.71,9.52,7.26,18.42,12.44,26.86Z"/>
      <path class="cls-3" d="M211.02,316.98l-.9-.49c-39-21.41-67.84-47.95-85.71-78.88-15.15-26.22-21.73-54.74-19.01-82.46,3.7-37.79,24.67-69.02,52.17-77.73,21.93-6.94,44.45,1.37,63.42,23.39,19.04,22.11,31.67,46.61,37.54,72.81,4.7,20.96,5.1,43.03,1.2,65.61-6.64,38.39-23.72,65.37-23.89,65.64l-.31.48-24.51,11.64ZM172.69,79.04c-4.64,0-9.29.72-13.91,2.18-25.99,8.23-45.84,38.09-49.39,74.31-5.86,59.82,32.17,118.43,101.77,156.96l21.61-10.26c2.27-3.73,17.05-28.96,23.05-63.83,5.95-34.61,4.22-86.12-37.85-134.98-13.8-16.02-29.49-24.37-45.27-24.37Z"/>
      <path class="cls-10" d="M341.93,265.35c-1.3,0-2.58-.27-3.74-.84-2.12-1.03-3.69-3.12-4.2-5.58-.46-2.22.06-4.39,1.4-5.95.72-.84,1.98-.93,2.82-.21.84.72.93,1.98.21,2.82-.53.62-.72,1.54-.52,2.53.25,1.22,1.05,2.31,2.03,2.79,2.04.99,4.94.24,6.72-1.76,1.39-1.55,2.01-3.78,1.72-6.13-.29-2.35-1.44-4.36-3.16-5.53-3.07-2.08-7.59-2.05-13.8.09-9.88,3.4-19.19,8.9-26.93,15.91-.82.74-2.08.68-2.82-.14-.74-.82-.68-2.08.14-2.82,8.14-7.37,17.93-13.15,28.31-16.73,7.49-2.58,13.16-2.45,17.35.38,2.68,1.81,4.46,4.85,4.89,8.35.43,3.49-.56,6.88-2.71,9.28-2.04,2.27-4.93,3.52-7.72,3.52Z"/>
      <path class="cls-10" d="M292.79,251.97c-.58,0-1.15-.25-1.55-.73-.7-.85-.57-2.11.28-2.81,8.08-6.62,14.9-15.01,19.73-24.27,3.04-5.83,3.74-10.29,2.13-13.64-.9-1.87-2.72-3.31-4.99-3.95-2.28-.63-4.58-.34-6.32.8-2.24,1.47-3.42,4.22-2.74,6.39.33,1.04,1.29,2,2.46,2.43.95.35,1.89.3,2.58-.13.93-.59,2.17-.31,2.76.62s.31,2.17-.62,2.76c-1.75,1.1-3.97,1.29-6.09.51-2.36-.87-4.19-2.73-4.9-4.98-1.22-3.88.62-8.47,4.36-10.93,2.7-1.77,6.19-2.25,9.58-1.31,3.39.94,6.13,3.16,7.53,6.07,2.18,4.56,1.46,10.19-2.2,17.21-5.08,9.74-12.25,18.56-20.75,25.52-.37.3-.82.45-1.27.45Z"/>
      <g>
        <path class="cls-12" d="M297.28,286.32c-4.97,4.28-11.27,6-17.3,5.29-2.78-.32-5.35,1.68-5.75,4.45-1.09,7.58-6.98,16.87-20.74,28.73-11.57,9.96-112.08,82.85-120.4,73.18-.76-.88-.73-2.4-.04-4.47.38-1.15.97-2.46,1.74-3.92,13.07-24.75,78.62-91.25,88.54-99.81,11.79-10.14,22.78-14.82,31.52-14.94,2.96-.04,5.24-2.48,5.22-5.45-.05-7.19,3.32-14.35,9.94-18.84,6.8-4.61,15.55-5,22.67-1.45,1.83.92,3.55,2.09,5.1,3.52.03.03.06.05.09.08,10.01,9.32,9.49,24.96-.59,33.63Z"/>
        <path class="cls-5" d="M297.28,286.32c-4.97,4.28-11.27,6-17.3,5.29-2.78-.32-5.35,1.68-5.75,4.45-1.09,7.58-6.98,16.87-20.74,28.73-11.57,9.96-112.08,82.85-120.4,73.18-.76-.88-.73-2.4-.04-4.47.33-.99,6.9-2.87,8.04-3.38,3.14-1.39,6.26-2.84,9.35-4.35,4.95-2.42,8.62-5.69,13.22-8.63,9.91-6.33,19.79-12.74,29.42-19.49,19.07-13.37,37.37-28.21,52.34-46.17,2.98-3.58,5.83-7.28,8.51-11.09,4.2-5.96,8.16-12.39,14.25-16.42,4.23-2.8,9.2-4.23,13.73-6.5,9.25-4.64,14.4-14.97,15.88-24.88.03.03.06.05.09.08,10.01,9.32,9.49,24.96-.59,33.63Z"/>
        <path class="cls-4" d="M272.66,253.05c3.29-3.78,9.01-5.61,13.84-5.98-5.61-.98-11.56.13-16.49,3.47-6.62,4.49-9.99,11.65-9.94,18.84.02,2.97-2.26,5.41-5.22,5.45-8.74.12-19.73,4.8-31.52,14.94-9.92,8.56-75.47,75.06-88.54,99.81,25.49-30.01,52.98-58.32,82.21-84.7,6.27-5.66,12.07-11.58,19.25-16.16,7.19-4.58,15.08-8.07,23.32-10.24,1.92-.51,4.01-1.04,5.22-2.6,1.24-1.59,1.22-3.78,1.35-5.79.37-5.83,2.45-11.61,5.93-16.31.18-.25.38-.49.58-.73Z"/>
        <path class="cls-4" d="M266.55,259.12c-.39,2.22.33,4.68,2.08,6.11,2.05,1.68,5.14,1.66,7.5.45,3.89-2,8.31-8.4,5.76-12.77-2.13-3.66-7.21-2.1-10.11-.42-2.51,1.45-4.7,3.68-5.23,6.63Z"/>
      </g>
      <path class="cls-10" d="M135.55,400.87c-2.1,0-3.22-.71-3.98-1.59-1.94-2.25-2.4-6.64,8.86-22.07,6.53-8.95,16.23-20.58,28.83-34.57,22.3-24.75,46.83-49.28,52.76-54.39,11.68-10.06,23.58-15.52,33.46-15.43.66,0,1.33-.26,1.82-.76.51-.52.79-1.25.77-1.99-.29-8.48,3.75-16.41,10.81-21.19,9.33-6.33,22.09-5.34,30.34,2.34h0c5.14,4.79,8.01,11.52,7.88,18.49-.13,6.97-3.24,13.58-8.52,18.12-5.3,4.57-12.33,6.65-19.28,5.71-.73-.1-1.44.09-2.01.53-.57.44-.94,1.09-1.03,1.82-1.09,8.96-8.12,18.9-21.48,30.41-5.93,5.1-33.83,25.73-61.62,44.1-15.7,10.38-28.64,18.25-38.46,23.38-10.29,5.38-15.91,7.08-19.16,7.08ZM255.2,276.82c-8.88,0-19.72,5.13-30.56,14.46-5.81,5-30.01,29.2-52.12,53.72-41.31,45.82-38.07,51.44-37.91,51.66.19.19,5.28,4.22,56.71-29.83,27.54-18.23,55.05-38.57,60.86-43.57,12.4-10.67,19.17-20.05,20.12-27.86.22-1.8,1.13-3.4,2.55-4.51,1.43-1.1,3.2-1.57,4.99-1.33,5.81.78,11.7-.95,16.13-4.77,4.42-3.81,7.02-9.33,7.13-15.17.11-5.91-2.23-11.41-6.6-15.48h0c-6.9-6.42-17.57-7.24-25.37-1.96-5.91,4.01-9.3,10.64-9.06,17.74.06,1.82-.63,3.62-1.9,4.92-1.24,1.27-2.89,1.97-4.65,1.97-.11,0-.22,0-.32,0Z"/>
      <path class="cls-8" d="M272.08,289.56c-.08,0-.16,0-.24-.03-5.97-1.47-10.64-6.75-11.36-12.85-.06-.55.33-1.05.88-1.11.55-.06,1.05.33,1.11.88.62,5.21,4.76,9.9,9.86,11.15.54.13.86.67.73,1.21-.11.46-.52.76-.97.76Z"/>
    </g>
  </g>
  <g>
    <path class="cls-13" d="M140.02,637.9c0-.91.17-1.75.5-2.52.33-.78.83-1.45,1.49-2.02.66-.57,1.48-1.01,2.46-1.33.98-.32,2.12-.48,3.41-.48.65,0,1.24.04,1.77.12.53.08,1.01.18,1.42.31s.77.28,1.07.44c.3.17.53.33.7.49.23.23.38.45.46.66.08.21.12.46.12.74,0,.48-.14.85-.42,1.11-.28.26-.64.39-1.08.39-.26,0-.51-.05-.74-.14s-.51-.2-.81-.31c-.31-.11-.68-.22-1.1-.31s-.95-.14-1.58-.14c-.57,0-1.07.06-1.49.18-.42.12-.76.29-1.04.51-.28.22-.48.48-.61.79-.13.3-.2.63-.2.99,0,.52.14.96.42,1.3.28.35.66.65,1.13.9.47.25,1,.47,1.6.67.59.2,1.2.41,1.82.64.62.23,1.22.5,1.82.8.59.31,1.13.69,1.6,1.16.47.46.84,1.03,1.13,1.7.28.67.42,1.47.42,2.42s-.17,1.86-.52,2.68c-.35.82-.87,1.52-1.56,2.12-.69.59-1.55,1.06-2.58,1.39s-2.23.5-3.6.5c-.73,0-1.39-.04-1.98-.13-.59-.09-1.11-.2-1.56-.34-.45-.13-.83-.29-1.13-.45-.31-.17-.54-.33-.7-.48-.22-.22-.38-.44-.47-.66s-.14-.48-.14-.78c0-.49.14-.87.42-1.13s.64-.4,1.08-.4c.26,0,.51.05.74.16.23.1.52.22.85.34.33.12.74.23,1.23.34.48.1,1.1.16,1.85.16.63,0,1.18-.07,1.65-.21.46-.14.85-.33,1.15-.58.3-.24.53-.54.68-.88.15-.34.23-.72.23-1.12,0-.56-.14-1.03-.42-1.4-.28-.37-.65-.69-1.12-.96-.46-.27-.99-.51-1.59-.72-.59-.21-1.2-.43-1.82-.66-.62-.23-1.23-.5-1.82-.79-.59-.29-1.12-.66-1.59-1.11-.46-.45-.84-.99-1.12-1.62-.28-.63-.42-1.41-.42-2.31Z"/>
    <path class="cls-13" d="M157.12,645.71c0-1.33.19-2.53.58-3.59.38-1.06.94-1.95,1.66-2.69.72-.73,1.6-1.29,2.63-1.68,1.03-.38,2.19-.58,3.48-.58,1.2,0,2.28.19,3.26.57.97.38,1.81.92,2.51,1.62.7.7,1.24,1.54,1.62,2.52.38.98.57,2.08.57,3.27,0,1.33-.19,2.53-.58,3.59-.39,1.06-.94,1.95-1.66,2.69s-1.59,1.29-2.62,1.68-2.19.58-3.48.58c-1.2,0-2.29-.19-3.27-.57-.98-.38-1.82-.92-2.52-1.62-.7-.7-1.24-1.54-1.62-2.52-.38-.98-.57-2.07-.57-3.28ZM161.45,645.4c0,.83.1,1.56.3,2.19s.48,1.15.83,1.57c.35.42.76.74,1.23.95.47.21.97.32,1.52.32s1.03-.1,1.49-.31c.46-.21.87-.52,1.21-.93.34-.41.61-.93.8-1.55.19-.62.29-1.35.29-2.18s-.1-1.55-.3-2.17c-.2-.62-.48-1.15-.83-1.57-.35-.42-.76-.74-1.23-.95-.47-.21-.97-.32-1.5-.32s-1.04.1-1.51.31c-.46.21-.87.52-1.21.93-.34.41-.61.93-.8,1.55-.19.62-.29,1.34-.29,2.16Z"/>
    <path class="cls-13" d="M176.07,646.04c0-1.36.2-2.59.6-3.69.4-1.09.97-2.02,1.7-2.79s1.61-1.35,2.63-1.76c1.02-.41,2.15-.61,3.39-.61.48,0,.91.03,1.3.1.38.07.73.15,1.02.25.3.1.55.21.75.34s.36.25.48.38c.19.18.33.37.41.59.09.21.13.48.13.79,0,.21-.03.4-.1.58-.07.18-.16.33-.27.46-.12.13-.26.23-.42.3-.17.07-.35.11-.55.11-.21,0-.4-.03-.57-.09s-.36-.13-.56-.21c-.2-.08-.44-.15-.71-.22-.27-.07-.6-.1-.98-.1-.54,0-1.05.11-1.53.33-.48.22-.9.54-1.25.97-.35.43-.63.96-.84,1.6s-.3,1.38-.3,2.23c0,.77.1,1.45.31,2.05.21.59.49,1.09.86,1.5.36.41.8.72,1.31.93.51.21,1.07.32,1.67.32.41,0,.75-.03,1.02-.09.28-.06.52-.13.72-.2.2-.07.38-.14.55-.2.16-.06.33-.09.49-.09.19,0,.36.04.52.11.16.07.29.17.39.3.1.12.18.27.24.43.06.16.09.33.09.51,0,.27-.05.51-.14.72-.09.21-.23.41-.41.59-.16.16-.36.31-.62.46-.26.15-.56.28-.92.4s-.77.21-1.24.28c-.47.07-.99.11-1.56.11-1.16,0-2.2-.18-3.14-.54s-1.74-.87-2.4-1.54c-.66-.67-1.17-1.47-1.53-2.41-.36-.94-.54-2-.54-3.16Z"/>
    <path class="cls-13" d="M191.32,632.8c0-.34.06-.66.19-.96s.3-.55.52-.77c.22-.22.49-.39.81-.52.32-.12.67-.19,1.05-.19.36,0,.7.06,1.01.19.31.12.57.29.8.51.22.21.4.46.52.75.12.29.19.6.19.93s-.06.66-.19.96-.3.55-.53.77c-.23.22-.5.39-.81.52s-.66.19-1.05.19-.7-.06-1.01-.19c-.31-.12-.57-.29-.8-.51-.22-.21-.4-.46-.52-.75-.12-.29-.19-.6-.19-.93ZM191.74,639.26c0-.59.17-1.05.52-1.38.35-.33.88-.49,1.6-.49s1.25.16,1.6.49c.35.33.52.79.52,1.38v12.36c0,.59-.17,1.05-.52,1.38-.35.33-.88.49-1.6.49s-1.25-.16-1.6-.49c-.35-.33-.52-.79-.52-1.38v-12.36Z"/>
    <path class="cls-13" d="M209.45,643.23c0-.5-.06-.92-.17-1.28-.12-.35-.3-.64-.55-.86-.26-.22-.59-.39-1.02-.5-.42-.11-.94-.16-1.54-.16-.65,0-1.2.05-1.65.14-.45.09-.85.2-1.18.32-.33.12-.62.23-.87.32-.25.09-.48.14-.7.14-.38,0-.69-.12-.93-.36-.25-.24-.37-.59-.37-1.05,0-.24.04-.45.11-.62.07-.18.2-.35.38-.53.17-.17.43-.34.8-.53.37-.19.82-.36,1.34-.52.53-.16,1.13-.29,1.8-.39.68-.1,1.41-.16,2.2-.16,2.18,0,3.81.47,4.91,1.41,1.09.94,1.64,2.32,1.64,4.12v5.11c0,.71.03,1.28.09,1.72.06.44.12.8.18,1.09.06.29.12.53.18.73.06.19.09.4.09.62s-.04.42-.12.61c-.08.19-.2.35-.36.49s-.35.25-.59.33-.5.12-.8.12c-.32,0-.61-.05-.87-.15-.26-.1-.48-.24-.67-.41-.19-.18-.35-.39-.48-.63-.13-.24-.24-.51-.32-.8h-.05c-.32.41-.71.77-1.17,1.08-.4.27-.89.52-1.49.73-.6.22-1.3.33-2.12.33-.87,0-1.64-.12-2.32-.37-.68-.25-1.26-.58-1.73-1.02-.47-.43-.84-.95-1.09-1.54s-.38-1.24-.38-1.94c0-.75.17-1.41.5-1.99.33-.57.8-1.05,1.41-1.43.6-.38,1.33-.67,2.19-.86.85-.19,1.81-.29,2.86-.29.44,0,.83.02,1.18.05.35.03.65.06.9.09.29.04.55.09.78.14v-1.29ZM209.45,647.26c-.21-.05-.44-.1-.69-.14-.22-.04-.47-.08-.77-.11-.29-.03-.62-.05-.98-.05-1.04,0-1.82.15-2.32.44-.51.29-.76.72-.76,1.28,0,.27.05.52.16.75.1.23.25.43.45.59.2.17.44.3.73.4.29.1.63.15,1.02.15.5,0,.95-.09,1.34-.27.39-.18.72-.37.99-.58.31-.25.59-.53.83-.84v-1.62Z"/>
    <path class="cls-13" d="M218.1,632.1c0-.59.17-1.05.52-1.38.35-.33.88-.49,1.6-.49s1.25.16,1.6.49c.35.33.52.79.52,1.38v16.08c0,.41.03.75.08,1.02.05.27.13.48.23.64.1.16.22.27.35.33.13.06.29.09.45.09.15,0,.28,0,.39-.02.11-.02.23-.02.34-.02.13,0,.27.03.39.08.12.05.23.13.33.23.09.1.17.23.23.38.06.15.09.33.09.52,0,.3-.04.56-.13.77-.09.21-.21.39-.37.55-.1.1-.23.2-.38.3-.15.09-.32.18-.52.26s-.45.14-.73.19-.6.07-.97.07c-1.32,0-2.33-.35-3.01-1.05-.68-.7-1.02-1.77-1.02-3.2v-17.2Z"/>
    <path class="cls-13" d="M236.24,633.84c0-.62.17-1.11.52-1.46.34-.35.83-.52,1.47-.52h4.64c1.44,0,2.67.14,3.69.41,1.02.27,1.86.65,2.51,1.12.65.48,1.12,1.05,1.42,1.7.3.66.45,1.37.45,2.14,0,.58-.08,1.12-.24,1.62-.16.5-.39.95-.69,1.35-.3.4-.66.75-1.08,1.05s-.9.53-1.43.71v.05c.63.12,1.21.3,1.73.57.52.27.96.6,1.33,1.01.36.41.65.88.84,1.41.2.54.3,1.13.3,1.79,0,.95-.18,1.82-.54,2.62-.36.8-.91,1.5-1.66,2.09-.75.59-1.69,1.05-2.84,1.38-1.15.33-2.52.5-4.1.5h-4.33c-.64,0-1.12-.17-1.47-.52-.34-.35-.52-.84-.52-1.46v-17.56ZM242.62,640.71c.69,0,1.28-.07,1.78-.22.5-.15.9-.35,1.22-.6.32-.25.56-.56.71-.91.16-.35.24-.74.24-1.16s-.07-.79-.21-1.12c-.14-.33-.37-.62-.68-.86-.31-.24-.72-.42-1.21-.55-.5-.13-1.09-.2-1.79-.2h-2.16v5.62h2.12ZM242.77,650.15c.79,0,1.47-.08,2.04-.23.57-.16,1.03-.38,1.4-.66.36-.28.63-.61.8-1,.17-.38.26-.81.26-1.27s-.08-.88-.24-1.25c-.16-.38-.42-.7-.77-.96-.35-.27-.82-.47-1.39-.62-.57-.15-1.27-.22-2.09-.22h-2.27v6.2h2.27Z"/>
    <path class="cls-13" d="M255.32,639.26c0-.59.17-1.05.52-1.38s.88-.49,1.61-.49,1.25.16,1.6.49c.35.33.52.79.52,1.38v7.42c0,1.27.25,2.19.74,2.76.49.57,1.17.85,2.04.85.28,0,.54-.03.78-.09.24-.06.46-.15.67-.26.21-.11.4-.23.57-.37.17-.13.33-.28.48-.42.32-.33.6-.71.83-1.14v-8.75c0-.59.17-1.05.52-1.38.35-.33.88-.49,1.6-.49s1.27.16,1.61.49.52.79.52,1.38v12.52c0,.57-.15,1.01-.45,1.31-.3.3-.74.45-1.31.45-.28,0-.53-.03-.74-.1-.21-.07-.4-.17-.55-.3-.15-.13-.27-.29-.37-.48s-.16-.4-.2-.64l-.12-.78h-.06c-.3.46-.68.87-1.14,1.22-.2.16-.42.31-.67.45-.25.15-.53.28-.84.39s-.65.21-1.02.27c-.37.07-.77.1-1.21.1-.91,0-1.72-.14-2.45-.42-.72-.28-1.34-.7-1.86-1.25-.52-.55-.91-1.23-1.19-2.04-.28-.81-.41-1.74-.41-2.79v-7.92Z"/>
    <path class="cls-13" d="M273.96,640.66c-.42,0-.75-.13-1.01-.41-.26-.27-.38-.67-.38-1.19s.13-.9.38-1.17c.25-.27.59-.41,1.01-.41h1.38l.5-2.64c.11-.59.33-1.03.65-1.31.32-.28.74-.42,1.27-.42s.96.15,1.25.45c.29.3.44.73.44,1.29v2.64h2.64c.42,0,.75.14,1.01.41.25.27.38.66.38,1.17s-.13.92-.38,1.19c-.26.27-.59.41-1.01.41h-2.64v7.52c0,.74.12,1.27.38,1.58s.63.47,1.16.47c.19,0,.35,0,.49-.03.14-.02.27-.05.38-.08.11-.03.22-.06.31-.08.09-.02.19-.03.3-.03.17,0,.32.03.46.09.14.06.26.15.36.26.1.11.18.24.23.4.06.16.09.33.09.52,0,.29-.05.54-.14.74s-.23.39-.41.57c-.1.1-.25.21-.43.33-.18.12-.41.22-.67.31-.27.09-.58.17-.93.23-.35.06-.76.09-1.2.09-1.58,0-2.75-.38-3.5-1.13-.75-.75-1.12-1.91-1.12-3.46v-8.3h-1.23Z"/>
    <path class="cls-13" d="M285.74,640.66c-.42,0-.75-.13-1.01-.41-.26-.27-.38-.67-.38-1.19s.13-.9.38-1.17c.25-.27.59-.41,1.01-.41h1.38l.5-2.64c.11-.59.33-1.03.65-1.31.32-.28.74-.42,1.27-.42s.96.15,1.25.45c.29.3.44.73.44,1.29v2.64h2.64c.42,0,.75.14,1.01.41.25.27.38.66.38,1.17s-.13.92-.38,1.19c-.26.27-.59.41-1.01.41h-2.64v7.52c0,.74.12,1.27.38,1.58s.63.47,1.16.47c.19,0,.35,0,.49-.03.14-.02.27-.05.38-.08.11-.03.22-.06.31-.08.09-.02.19-.03.3-.03.17,0,.32.03.46.09.14.06.26.15.36.26.1.11.18.24.23.4.06.16.09.33.09.52,0,.29-.05.54-.14.74s-.23.39-.41.57c-.1.1-.25.21-.43.33-.18.12-.41.22-.67.31s-.58.17-.93.23c-.35.06-.76.09-1.2.09-1.58,0-2.75-.38-3.5-1.13-.75-.75-1.12-1.91-1.12-3.46v-8.3h-1.23Z"/>
    <path class="cls-13" d="M301.27,646.32v.03c.06.65.21,1.22.44,1.72.23.5.53.92.91,1.27.38.34.84.6,1.37.78.53.18,1.12.27,1.78.27.54,0,1.01-.04,1.4-.11.39-.07.73-.15,1.02-.24.29-.09.55-.17.77-.24.22-.07.43-.11.63-.11s.38.04.53.11c.16.07.29.17.4.29.11.12.19.26.25.41.06.16.09.32.09.5,0,.26-.04.49-.12.68-.08.19-.22.38-.41.57-.16.16-.39.32-.69.49-.3.17-.67.33-1.12.47-.44.14-.96.26-1.55.35-.59.09-1.24.14-1.96.14-1.24,0-2.35-.18-3.34-.54-.99-.36-1.83-.88-2.52-1.55s-1.21-1.48-1.58-2.44c-.37-.95-.55-2.02-.55-3.21,0-1.38.2-2.62.59-3.71.39-1.09.93-2.01,1.63-2.76.7-.75,1.53-1.32,2.51-1.72.97-.4,2.04-.59,3.21-.59,1,0,1.91.16,2.72.47s1.5.76,2.08,1.35c.57.59,1.02,1.3,1.33,2.15s.47,1.8.47,2.88c0,.78-.18,1.36-.54,1.73s-.87.56-1.54.56h-8.22ZM307.62,643.6c-.14-1.17-.45-2.03-.95-2.58-.5-.55-1.2-.83-2.1-.83-.38,0-.73.07-1.08.2-.34.13-.66.33-.95.61-.29.28-.53.63-.74,1.05-.21.43-.37.94-.48,1.55h6.3Z"/>
    <path class="cls-13" d="M315.24,639.1c0-.57.15-1.01.45-1.31s.74-.45,1.31-.45c.28,0,.53.03.74.1.21.07.4.17.55.3.15.13.27.29.37.48.09.19.16.41.2.65l.2,1.14h.05c.2-.41.43-.78.69-1.13.26-.35.55-.65.88-.9.32-.25.67-.45,1.04-.59.37-.14.76-.21,1.16-.21.59,0,1.05.16,1.38.48.32.32.48.82.48,1.5,0,.79-.15,1.4-.45,1.84-.3.43-.66.65-1.08.65-.12,0-.22-.01-.31-.04-.09-.03-.19-.05-.27-.08-.09-.03-.18-.05-.27-.08-.09-.03-.2-.04-.33-.04-.25,0-.5.07-.74.2-.25.13-.47.3-.69.51-.21.21-.41.45-.6.71s-.35.54-.5.82v7.97c0,.59-.17,1.05-.52,1.38-.35.33-.88.49-1.6.49s-1.25-.16-1.6-.49c-.35-.33-.52-.79-.52-1.38v-12.52Z"/>
    <path class="cls-13" d="M326.87,640.66c-.42,0-.75-.13-1.01-.41-.26-.27-.38-.67-.38-1.19s.13-.9.38-1.17c.25-.27.59-.41,1.01-.41h1.23v-.89c0-1,.16-1.91.49-2.72s.83-1.5,1.49-2.08c.67-.57,1.51-1.01,2.53-1.32,1.02-.31,2.22-.46,3.61-.46.76,0,1.44.04,2.05.11.6.07,1.13.17,1.57.29.44.12.81.26,1.12.41.3.16.53.31.69.47.24.24.4.48.48.73.08.25.12.54.12.9v15.25c0,.41.03.75.08,1.02.05.27.12.48.22.64s.21.27.34.33c.13.06.29.09.47.09.13,0,.26,0,.38-.02.12-.02.24-.02.35-.02.13,0,.27.03.39.08.12.05.23.13.33.23.09.1.17.23.23.38.06.15.09.33.09.52,0,.3-.05.56-.14.77-.09.21-.22.39-.38.55-.09.1-.21.2-.36.3-.15.09-.32.18-.53.26-.21.08-.45.14-.73.19-.28.05-.6.07-.96.07-1.32,0-2.33-.35-3.01-1.05-.68-.7-1.02-1.77-1.02-3.2v-15.77c-.16-.06-.34-.11-.56-.16-.19-.04-.43-.08-.72-.12-.29-.04-.63-.05-1.02-.05-1.15,0-2,.26-2.55.79-.55.53-.83,1.31-.83,2.35v1.14h1.94c.42,0,.75.14,1.01.41.25.27.38.66.38,1.17s-.13.92-.38,1.19c-.26.27-.59.41-1.01.41h-1.91v10.95c0,.59-.17,1.05-.52,1.38-.35.33-.88.49-1.6.49s-1.25-.16-1.6-.49c-.35-.33-.52-.79-.52-1.38v-10.95h-1.23Z"/>
    <path class="cls-13" d="M346.12,640.57c-.14-.36-.22-.63-.26-.8-.04-.17-.05-.33-.05-.48,0-.31.07-.59.22-.83.15-.24.33-.44.56-.61.23-.17.48-.29.76-.38.28-.09.55-.13.82-.13.3,0,.55.05.76.14.2.09.38.22.52.38.15.15.26.32.34.53.08.21.18.5.3.86l2.75,8.23c.1.3.2.6.28.89.08.29.15.55.2.78.06.27.12.53.17.77h.06c.06-.24.12-.49.19-.77.05-.23.12-.49.2-.78.08-.29.17-.59.27-.89l2.71-8.33c.1-.31.2-.58.28-.79.08-.21.19-.39.33-.54.15-.16.33-.28.54-.36.21-.08.47-.12.76-.12.26,0,.52.04.79.12.27.08.51.19.72.34.21.15.39.34.52.56.13.22.2.48.2.77,0,.15-.02.3-.05.45-.04.16-.11.4-.23.72l-4.05,10.94c-.64,1.71-1.29,3.17-1.97,4.4-.68,1.22-1.4,2.23-2.17,3.01-.77.78-1.61,1.36-2.51,1.73-.9.37-1.89.55-2.98.55-.55,0-1.03-.07-1.43-.2-.4-.13-.72-.32-.95-.55-.34-.34-.52-.78-.52-1.3,0-.44.13-.78.39-1.04.26-.26.61-.38,1.06-.38.15,0,.28,0,.4.02.12,0,.23.02.34.04s.22.03.34.04c.11,0,.24.02.39.02.42,0,.81-.07,1.18-.22.37-.15.71-.36,1.04-.64.32-.28.63-.63.91-1.05s.56-.91.82-1.47l-4.96-13.62Z"/>
  </g>
</svg>