<?xml version="1.0" encoding="UTF-8"?>
<svg id="Expanded" xmlns="http://www.w3.org/2000/svg" xmlns:xlink="http://www.w3.org/1999/xlink" viewBox="0 0 500 700">
  <defs>
    <style>
      .cls-1 {
        fill: #ffa9c2;
      }

      .cls-2 {
        fill: #3d1170;
      }

      .cls-3 {
        fill: #3288d6;
      }

      .cls-4 {
        fill: #a152db;
      }

      .cls-5 {
        fill: #4d4d4d;
      }

      .cls-6 {
        fill: #fff;
      }

      .cls-7 {
        fill: #ea9939;
      }

      .cls-8 {
        fill: #d87625;
      }

      .cls-9 {
        fill: none;
      }

      .cls-10 {
        fill: #f47aa0;
      }

      .cls-11 {
        fill: #e9f1f4;
      }

      .cls-12 {
        fill: #666;
      }

      .cls-13 {
        fill: #79cdf6;
      }

      .cls-14 {
        fill: #7a1859;
      }

      .cls-15 {
        fill: #ffe277;
      }

      .cls-16 {
        fill: #333;
      }

      .cls-17 {
        fill: #47acea;
      }

      .cls-18 {
        fill: #8942c5;
      }

      .cls-19 {
        fill: #dd4a8c;
      }

      .cls-20 {
        fill: #6d3108;
      }

      .cls-21 {
        fill: #d27cf2;
      }

      .cls-22 {
        clip-path: url(#clippath);
      }

      .cls-23 {
        fill: #1f5999;
      }

      .cls-24 {
        fill: #ffd2e1;
      }

      .cls-25 {
        fill: #e6e6e6;
      }
    </style>
    <clipPath id="clippath">
      <rect class="cls-9" x="-36" y="68" width="572" height="468" rx="32" ry="32" transform="translate(552 52) rotate(90)"/>
    </clipPath>
  </defs>
  <g>
    <g>
      <path class="cls-11" d="M48,699.5c-26.19,0-47.5-21.31-47.5-47.5V48C.5,21.81,21.81.5,48,.5h404c8.33,0,16.53,2.19,23.71,6.33,14.67,8.47,23.79,24.24,23.79,41.17v604c0,26.19-21.31,47.5-47.5,47.5H48Z"/>
      <path class="cls-16" d="M452,1c8.25,0,16.36,2.17,23.46,6.27,14.52,8.38,23.54,23.98,23.54,40.73v604c0,25.92-21.08,47-47,47H48c-25.92,0-47-21.08-47-47V48C1,22.08,22.08,1,48,1h404M452,0H48C21.49,0,0,21.49,0,48v604c0,26.51,21.49,48,48,48h404c26.51,0,48-21.49,48-48V48c0-17.79-9.67-33.31-24.04-41.6-7.05-4.07-15.23-6.4-23.96-6.4h0Z"/>
    </g>
    <path class="cls-6" d="M500,48v374.52L0,539.11V117.39L475.96,6.4c14.37,8.29,24.04,23.81,24.04,41.6Z"/>
    <path class="cls-6" d="M500,459.42v140.57l-428.9,100.01h-23.1c-26.51,0-48-21.49-48-48v-75.99l500-116.59Z"/>
    <path class="cls-16" d="M452,1c25.92,0,47,21.08,47,47v604c0,25.92-21.08,47-47,47H48c-25.92,0-47-21.08-47-47V48C1,22.08,22.08,1,48,1h404M452,0H48C21.49,0,0,21.49,0,48v604c0,26.51,21.49,48,48,48h404c26.51,0,48-21.49,48-48V48c0-26.51-21.49-48-48-48h0Z"/>
    <g>
      <rect class="cls-6" x="15" y="15" width="470" height="574" rx="33" ry="33"/>
      <path class="cls-16" d="M452,16c17.67,0,32,14.33,32,32v508c0,17.67-14.33,32-32,32H48c-17.67,0-32-14.33-32-32V48c0-17.67,14.33-32,32-32h404M452,14H48c-18.75,0-34,15.25-34,34v508c0,18.75,15.25,34,34,34h404c18.75,0,34-15.25,34-34V48c0-18.75-15.25-34-34-34h0Z"/>
    </g>
  </g>
  <g class="cls-22">
    <rect class="cls-10" x="4.41" y="16" width="491.18" height="606.01"/>
    <rect class="cls-19" x="10.53" y="250.47" width="482.36" height="39.03"/>
    <rect class="cls-19" x="10.53" y="464.97" width="482.36" height="39.03"/>
    <rect class="cls-1" x="-8.06" y="172.78" width="532.67" height="75.68"/>
    <ellipse class="cls-10" cx="355.6" cy="200.92" rx="72.45" ry="13.55"/>
    <rect class="cls-10" x="-8.06" y="228.63" width="532.67" height="19.84"/>
    <path class="cls-14" d="M524.61,250.47H-8.06c-1.1,0-2-.9-2-2v-75.68c0-1.1.9-2,2-2h532.67c1.1,0,2,.9,2,2v75.68c0,1.1-.9,2-2,2ZM-6.06,246.47h528.67v-71.68H-6.06v71.68Z"/>
    <rect class="cls-10" x="53.22" y="187.09" width="186.36" height="25.97" rx="7.63" ry="7.63"/>
    <rect class="cls-1" x="-8.06" y="394.15" width="532.67" height="75.68"/>
    <ellipse class="cls-10" cx="352.16" cy="422.69" rx="75.89" ry="15.3"/>
    <rect class="cls-10" x="72.44" y="410.22" width="147.93" height="25.97" rx="7.63" ry="7.63"/>
    <rect class="cls-10" x="-8.06" y="450" width="532.67" height="19.84"/>
    <path class="cls-14" d="M524.61,471.83H-8.06c-1.1,0-2-.9-2-2v-75.68c0-1.1.9-2,2-2h532.67c1.1,0,2,.9,2,2v75.68c0,1.1-.9,2-2,2ZM-6.06,467.83h528.67v-71.68H-6.06v71.68Z"/>
    <g>
      <rect class="cls-8" x="79.36" y="279.27" width="136.3" height="146.74" rx="13.05" ry="13.05"/>
      <rect class="cls-7" x="79.36" y="279.27" width="130.6" height="139.74" rx="13.05" ry="13.05"/>
      <path class="cls-15" d="M80.36,411.47s2.67-107.1,5.29-121.1c.11-.6,2.9-5.81,6.49-5.96,16.48-.67,110.96-3.82,110.96-3.82,0,0-110.48-.64-114.51-.64s-6.97,3.26-8.23,6.85c-1.26,3.59,0,124.67,0,124.67Z"/>
      <path class="cls-20" d="M202.61,428.01h-110.2c-8.3,0-15.05-6.75-15.05-15.05v-120.64c0-8.3,6.75-15.05,15.05-15.05h110.2c8.3,0,15.05,6.75,15.05,15.05v120.64c0,8.3-6.75,15.05-15.05,15.05ZM92.41,281.27c-6.09,0-11.05,4.96-11.05,11.05v120.64c0,6.09,4.96,11.05,11.05,11.05h110.2c6.09,0,11.05-4.96,11.05-11.05v-120.64c0-6.09-4.96-11.05-11.05-11.05h-110.2Z"/>
      <path class="cls-10" d="M178.45,297.95h-78.82c-.65,0-1.18.53-1.18,1.18v107.03c0,.65.53,1.18,1.18,1.18h78.82c.65,0,18.12-.53,18.12-1.18v-107.03c0-.65-17.47-1.18-18.12-1.18Z"/>
      <path class="cls-1" d="M177.43,336.48c0-10.02-8.13-18.15-18.15-18.15s-18.15,8.13-18.15,18.15c0,6.29,3.2,11.83,8.07,15.09-4.86,11.84-8.07,32.01-8.07,54.9h36.3c0-22.89-3.2-43.06-8.07-54.9,4.86-3.26,8.07-8.8,8.07-15.09Z"/>
      <path class="cls-24" d="M145.34,341.98c0-9.24-7.49-16.72-16.72-16.72s-16.72,7.49-16.72,16.72c0,5.8,2.95,10.9,7.43,13.9-4.48,10.91-7.43,29.5-7.43,50.59h33.45c0-21.09-2.95-39.68-7.43-50.59,4.48-3,7.43-8.11,7.43-13.9Z"/>
      <path class="cls-6" d="M155.92,365.68c0-5.84-4.74-10.58-10.58-10.58s-10.58,4.74-10.58,10.58c0,3.67,1.87,6.9,4.7,8.79-2.84,6.9-4.7,18.66-4.7,32h21.16c0-13.34-1.87-25.1-4.7-32,2.83-1.9,4.7-5.13,4.7-8.79Z"/>
      <path class="cls-20" d="M178.45,408.34h-78.82c-1.2,0-2.18-.98-2.18-2.18v-107.03c0-1.2.98-2.18,2.18-2.18h78.82c.32,0,4.82.13,9.35.35,9.77.47,9.77.73,9.77,1.83v107.03c0,1.1,0,1.37-9.77,1.83-4.53.22-9.03.35-9.35.35ZM99.63,298.95c-.1,0-.18.08-.18.18v107.03c0,.1.08.18.18.18h78.82c1.06,0,14.1-.44,17.12-.91v-105.58c-3.02-.47-16.06-.91-17.12-.91h-78.82ZM196.08,299.96h0,0Z"/>
    </g>
    <g>
      <path class="cls-4" d="M422.19,392.94v13.8c0,3.18-2.58,5.76-5.76,5.76h-128.77c-3.18,0-5.76-2.58-5.76-5.76v-14.42c0-4.74,1.92-9.04,5.03-12.15,3.11-3.1,7.4-5.03,12.15-5.03,2.36,0,4.5-1.39,5.46-3.54l6.43-14.44c4.7-10.53,15.15-17.32,26.68-17.32h25.64c10.26,0,19.76,5.39,25.04,14.18l10.94,18.22c1.08,1.8,3.03,2.9,5.13,2.9,9.83,0,17.8,7.97,17.8,17.8Z"/>
      <path class="cls-21" d="M354.66,340.86c-6.61.34-13.31.69-19.68,2.53-6.42,1.86-11.52,5.21-15.72,10.33s-7.76,11.23-10.12,17.61c-.17.45-.33.9-.48,1.35-.66,1.94-1.3,4.01-2.84,5.36-1.61,1.41-3.87,1.74-6,1.92-5.62.48-10.09,2.82-13.55,7.34-3.14,4.1-4.85,9.49-3.56,14.61l-.81-2.35v-7.26c0-4.74,1.92-9.04,5.03-12.15,3.11-3.1,7.4-5.03,12.15-5.03,2.36,0,4.5-1.39,5.46-3.54l6.43-14.44c4.7-10.53,15.15-17.32,26.68-17.32h14.57c.82.34,1.63.68,2.44,1.03Z"/>
      <path class="cls-18" d="M313.78,394.25c-.55,0-1-.45-1-1v-15.24c0-.55.45-1,1-1s1,.45,1,1v15.24c0,.55-.45,1-1,1Z"/>
      <path class="cls-18" d="M422.19,392.94v13.8c0,3.18-2.58,5.76-5.76,5.76h-28.79c6.01-17.99,2.53-39.01-9.29-53.9-5.8-7.28-13.28-13.04-20.71-18.64l.03-.12h5.62c10.26,0,19.76,5.39,25.04,14.18l10.94,18.22c1.08,1.8,3.03,2.9,5.13,2.9,9.83,0,17.8,7.97,17.8,17.8Z"/>
      <path class="cls-25" d="M386.17,376.17h-27.99c-1.78,0-3.21-1.44-3.21-3.21v-22.52c0-1.54,1.25-2.8,2.8-2.8h7.17c1.2,0,2.39.12,3.54.35,4.65.91,8.84,3.61,11.58,7.61l1.16,2.05,7.61,13.51c1.47,2.13-.06,5.03-2.64,5.03Z"/>
      <path class="cls-25" d="M347.16,350.43v22.52c0,1.77-1.44,3.21-3.21,3.21h-27.17c-2.59,0-4.11-2.9-2.65-5.03l.04-.06,7.9-15.49c3.42-4.98,9.08-7.95,15.12-7.95h7.17c1.55,0,2.81,1.26,2.81,2.8Z"/>
      <path class="cls-13" d="M427.37,408.02c0,1.7-.69,3.23-1.8,4.34-1.11,1.11-2.65,1.8-4.35,1.8h-138.37c-2.46,0-4.59-1.45-5.56-3.55-.38-.79-.58-1.66-.58-2.59,0-1.69.69-3.23,1.8-4.34,1.11-1.11,2.64-1.8,4.34-1.8h138.37c1.42,0,2.73.49,3.78,1.3,1.44,1.12,2.37,2.87,2.37,4.84Z"/>
      <path class="cls-3" d="M427.37,408.02c0,1.7-.69,3.23-1.8,4.34-1.11,1.11-2.65,1.8-4.35,1.8h-138.37c-2.46,0-4.59-1.45-5.56-3.55-.13-.48-.19-.96-.19-1.49,42.54-.49,85.09-.97,127.62-1.47,6.27-.07,13.3-.48,17.47-5.16l2.82.69c1.44,1.12,2.37,2.87,2.37,4.84Z"/>
      <path class="cls-2" d="M416.18,402.89h-128.6c-.55,0-1-.45-1-1s.45-1,1-1h128.6c.55,0,1,.45,1,1s-.45,1-1,1Z"/>
      <path class="cls-2" d="M421.23,416.16h-138.38c-4.49,0-8.14-3.65-8.14-8.14,0-2.17.85-4.22,2.38-5.75.81-.81,1.76-1.42,2.8-1.83v-8.14c0-5.12,1.99-9.93,5.61-13.55,3.62-3.62,8.44-5.61,13.56-5.61,1.56,0,2.99-.93,3.63-2.37l6.44-14.44c5-11.24,16.19-18.5,28.5-18.5h25.64c10.9,0,21.15,5.8,26.75,15.15l10.94,18.22c.72,1.2,2.02,1.94,3.41,1.94,10.92,0,19.8,8.88,19.8,19.8v7.51c3.05,1.19,5.18,4.2,5.18,7.58,0,2.17-.85,4.22-2.38,5.75-1.54,1.54-3.58,2.38-5.75,2.38ZM337.64,341.84c-10.73,0-20.48,6.33-24.84,16.13l-6.44,14.44c-1.29,2.88-4.14,4.74-7.29,4.74-4.06,0-7.87,1.58-10.73,4.44-2.86,2.86-4.44,6.67-4.44,10.72v9.66c0,.99-.72,1.83-1.7,1.98-.87.13-1.66.53-2.28,1.15-.78.78-1.21,1.82-1.21,2.93,0,2.28,1.86,4.14,4.14,4.14h138.38c1.1,0,2.14-.43,2.93-1.21.78-.78,1.21-1.82,1.21-2.93,0-2.02-1.5-3.77-3.49-4.08-.98-.15-1.7-.99-1.7-1.98v-9.03c0-8.71-7.09-15.8-15.8-15.8-2.79,0-5.41-1.49-6.84-3.88l-10.94-18.22c-4.88-8.15-13.82-13.2-23.32-13.2h-25.64Z"/>
      <circle class="cls-5" cx="313.07" cy="410.06" r="16.26"/>
      <circle class="cls-6" cx="313.07" cy="410.06" r="6.87"/>
      <circle class="cls-5" cx="391.89" cy="410.06" r="16.26"/>
      <circle class="cls-6" cx="391.89" cy="410.06" r="7.29"/>
      <path class="cls-16" d="M313.07,428.32c-10.07,0-18.26-8.19-18.26-18.26s8.19-18.26,18.26-18.26,18.26,8.19,18.26,18.26-8.19,18.26-18.26,18.26ZM313.07,395.8c-7.86,0-14.26,6.4-14.26,14.26s6.4,14.26,14.26,14.26,14.26-6.4,14.26-14.26-6.4-14.26-14.26-14.26Z"/>
      <path class="cls-16" d="M391.89,428.32c-10.07,0-18.26-8.19-18.26-18.26s8.19-18.26,18.26-18.26,18.26,8.19,18.26,18.26-8.19,18.26-18.26,18.26ZM391.89,395.8c-7.86,0-14.26,6.4-14.26,14.26s6.4,14.26,14.26,14.26,14.26-6.4,14.26-14.26-6.4-14.26-14.26-14.26Z"/>
      <ellipse class="cls-13" cx="412.42" cy="389.26" rx="4.93" ry="6.46"/>
      <path class="cls-6" d="M381.21,357.64c-6.45,6.17-12.9,12.35-19.35,18.53h-3.68c-1.78,0-3.21-1.44-3.21-3.21v-13.14c4.5-3.95,9-7.89,13.51-11.84,4.65.91,8.84,3.61,11.58,7.61l1.16,2.05Z"/>
      <path class="cls-6" d="M347.16,350.43v12.14c-6.44,4.53-12.87,9.06-19.3,13.6h-11.07c-2.59,0-4.11-2.9-2.65-5.03l.04-.06c9.02-7.56,17.83-15.38,26.4-23.44h3.78c1.55,0,2.81,1.26,2.81,2.8Z"/>
      <path class="cls-18" d="M350.6,400.01h0c-.55,0-1-.45-1-1l.1-20.52c0-.55.45-.95,1-1,.55,0,1,.45,1,1l-.1,20.52c0,.55-.45,1-1,1Z"/>
    </g>
    <g>
      <circle class="cls-7" cx="391.16" cy="78.57" r="19.29"/>
      <circle class="cls-15" cx="391.16" cy="78.57" r="9.08"/>
      <circle class="cls-7" cx="325.12" cy="78.57" r="19.29"/>
      <circle class="cls-15" cx="325.12" cy="78.57" r="9.08"/>
      <path class="cls-7" d="M415.93,131.37c3.71,7.93,2.32,16.42-3.1,18.95-5.42,2.53-28.42,8.87-33.44-1.88-5.56-11.89,14.59-24.32,20.01-26.86,5.42-2.53,12.82,1.84,16.53,9.78Z"/>
      <path class="cls-7" d="M298.03,131.37c-3.71,7.93-2.32,16.42,3.1,18.95,5.42,2.53,28.42,8.87,33.44-1.88,5.56-11.89-14.59-24.32-20.01-26.86-5.42-2.53-12.82,1.84-16.53,9.78Z"/>
      <path class="cls-7" d="M394.17,162.83c0,27.06-16.83,32.25-37.6,32.25s-37.6-5.19-37.6-32.25,16.83-49,37.6-49,37.6,21.94,37.6,49Z"/>
      <path class="cls-15" d="M376.34,156.45c0,14.23-8.85,16.96-19.77,16.96s-19.77-2.73-19.77-16.96,8.85-25.76,19.77-25.76,19.77,11.53,19.77,25.76Z"/>
      <path class="cls-8" d="M327.18,130.48s5.47,14.33,29.23,14.33,29.79-13.77,29.79-13.77l-59.02-.57Z"/>
      <ellipse class="cls-7" cx="356.57" cy="103.63" rx="43.76" ry="36.19"/>
      <ellipse class="cls-15" cx="356.57" cy="111.76" rx="16.21" ry="13.41"/>
      <ellipse class="cls-5" cx="340.96" cy="94.75" rx="5.74" ry="6.31"/>
      <ellipse class="cls-5" cx="373.62" cy="94.75" rx="5.74" ry="6.31"/>
      <ellipse class="cls-6" cx="371.99" cy="92.72" rx="2.08" ry="2.29"/>
      <ellipse class="cls-6" cx="339.58" cy="92.72" rx="2.08" ry="2.29"/>
      <ellipse class="cls-5" cx="356.57" cy="105.8" rx="5.74" ry="4.75"/>
      <path class="cls-7" d="M369.99,179.84c-3.62,16.55-1.9,19.22,28.71,24.78,9.49,1.72,17.46-11.09,17.46-24.78s-7.82-24.78-17.46-24.78-25.27,9.06-28.71,24.78Z"/>
      <ellipse class="cls-15" cx="400.45" cy="182.05" rx="17.57" ry="10.42" transform="translate(178.66 561.94) rotate(-84.17)"/>
      <path class="cls-7" d="M340.78,179.84c3.62,16.55,1.9,19.22-28.71,24.78-9.49,1.72-17.46-11.09-17.46-24.78s7.82-24.78,17.46-24.78,25.27,9.06,28.71,24.78Z"/>
      <ellipse class="cls-15" cx="310.32" cy="182.05" rx="10.42" ry="17.57" transform="translate(-16.89 32.47) rotate(-5.83)"/>
      <path class="cls-20" d="M310.34,206.78c-2.9,0-5.75-1.11-8.32-3.26-5.72-4.77-9.41-14.07-9.41-23.68,0-12.02,5.79-22.22,13.73-25.59-2.54-.71-4.67-1.48-6.04-2.11-3.24-1.51-5.41-4.69-6.1-8.94-.65-3.97.07-8.47,2.03-12.67,1.96-4.2,4.95-7.64,8.42-9.69,3.55-2.1,7.21-2.53,10.36-1.23-2.74-4.97-4.19-10.43-4.19-15.96,0-2.82.37-5.63,1.1-8.37-5.09-4.03-8.09-10.17-8.09-16.7,0-11.74,9.55-21.29,21.29-21.29,7.32,0,14.07,3.74,17.96,9.86,4.37-1.12,8.9-1.69,13.48-1.69,5.58,0,11.01.82,16.17,2.45,3.78-6.5,10.83-10.62,18.42-10.62,11.74,0,21.29,9.55,21.29,21.29,0,7.67-4.19,14.77-10.8,18.53.45,2.16.67,4.36.67,6.54,0,5.78-1.56,11.4-4.48,16.49.26-.13.49-.24.7-.34,6.52-3.05,14.95,1.67,19.19,10.74,4.24,9.07,2.45,18.57-4.07,21.61-1.46.68-4.42,1.75-8.09,2.65,7.35,3.83,12.58,13.62,12.58,25.05,0,9.61-3.7,18.91-9.41,23.68-3.19,2.67-6.79,3.72-10.41,3.07-4.62-.84-8.5-1.58-12.42-2.48-3.45-.79-7.1-1.68-10.61-3.18-1.39-.59-2.58-1.37-3.73-2.13-1.93-1.26-3.59-2.35-5.71-2.23-.98.06-1.96.13-2.94.2-2.06.15-4.2.31-6.36.31-1.57,0-3.11-.12-4.6-.23-3.37-.26-6.55-.51-9.6.65-1.18.45-2.29,1.06-3.48,1.71-.62.34-1.25.69-1.89,1.01-3.17,1.6-6.64,2.54-9.65,3.29-4.91,1.23-9.86,2.16-14.92,3.08-.7.13-1.39.19-2.08.19ZM312.07,157.06c-8.53,0-15.46,10.22-15.46,22.78,0,8.35,3.21,16.63,7.98,20.61,2.28,1.91,4.68,2.65,7.13,2.2,4.99-.91,9.87-1.82,14.66-3.02,2.8-.7,6.03-1.57,8.82-2.98.6-.3,1.18-.62,1.77-.94,1.25-.69,2.54-1.4,3.98-1.94,3.89-1.47,7.67-1.18,11.33-.9,1.42.11,2.88.22,4.3.22,2.01,0,4.07-.15,6.06-.3,1-.07,2.01-.15,3.01-.2,3.43-.2,5.92,1.44,8.12,2.88,1.05.69,2.05,1.34,3.11,1.79,3.2,1.37,6.67,2.21,9.93,2.96,3.85.88,7.68,1.62,12.24,2.44,2.45.44,4.84-.3,7.13-2.2,4.77-3.98,7.98-12.26,7.98-20.61,0-12.56-6.94-22.78-15.46-22.78-1.35,0-2.85.2-4.44.6-.56.14-1.15.03-1.63-.3-.47-.33-.78-.85-.85-1.42-.05-.4-.1-.81-.15-1.21-.08-.56.09-1.13.46-1.56s.91-.69,1.47-.7c7.79-.17,15.9-2.8,18.41-3.97,4.34-2.03,5.32-9.49,2.14-16.3-3.18-6.8-9.53-10.84-13.87-8.81-2.78,1.3-8.56,4.79-13.1,9.09-.38.36-.86.55-1.39.55-.86,0-1.66-.02-2.26-.91s-.38-2.11.5-2.74c9.11-6.51,14.33-15.9,14.33-25.76,0-2.37-.31-4.76-.91-7.1-.24-.93.22-1.9,1.09-2.31,6.04-2.84,9.95-8.99,9.95-15.66,0-9.54-7.76-17.29-17.29-17.29-6.65,0-12.79,3.89-15.64,9.91-.44.93-1.51,1.37-2.47,1.03-5.22-1.84-10.76-2.77-16.48-2.77-4.74,0-9.41.65-13.88,1.95-.91.26-1.87-.14-2.32-.98-3.02-5.64-8.87-9.14-15.25-9.14-9.54,0-17.29,7.76-17.29,17.29,0,5.7,2.81,11.04,7.53,14.27.73.5,1.04,1.41.78,2.25-.88,2.78-1.32,5.66-1.32,8.55,0,7.89,3.2,15.31,9.26,21.45.73.74.77,1.92.09,2.7-.68.79-1.84.93-2.69.32-3.18-2.29-6.17-3.96-7.76-4.71-2.01-.94-4.51-.63-7.04.87-2.78,1.64-5.21,4.46-6.83,7.94-1.62,3.48-2.23,7.15-1.71,10.33.48,2.91,1.84,5.03,3.85,5.96,2.35,1.1,10.06,3.62,17.63,3.95.56.02,1.08.28,1.45.71.36.43.52.99.45,1.55-.08.63-.16,1.27-.22,1.91-.06.61-.4,1.16-.91,1.49-.52.33-1.15.4-1.73.2-2.36-.82-4.63-1.25-6.58-1.25ZM385.16,131.02h0,0Z"/>
      <path class="cls-8" d="M335.77,166.15c-.19,0-.38-.05-.55-.16-4.31-2.82-8.96-5.1-13.82-6.77-.52-.18-.8-.75-.62-1.27s.75-.8,1.27-.62c5.02,1.73,9.82,4.08,14.26,6.99.46.3.59.92.29,1.38-.19.29-.51.45-.84.45Z"/>
      <path class="cls-8" d="M378.11,164.28c-.34,0-.67-.17-.86-.48-.29-.47-.13-1.09.34-1.37,4.05-2.45,8.47-4.11,13.13-4.92.54-.09,1.06.27,1.16.81.09.54-.27,1.06-.81,1.16-4.36.76-8.66,2.37-12.44,4.66-.16.1-.34.15-.52.15Z"/>
      <path class="cls-8" d="M397.18,92.09c-.37,0-.72-.2-.9-.55-3.95-7.9-10.56-14.26-18.6-17.91-.5-.23-.73-.82-.5-1.32.23-.5.82-.73,1.32-.5,8.46,3.84,15.41,10.53,19.57,18.84.25.49.05,1.09-.45,1.34-.14.07-.3.11-.45.11Z"/>
      <path class="cls-8" d="M317.16,89.43c-.16,0-.32-.04-.47-.12-.49-.26-.67-.87-.41-1.35,4.22-7.87,11.49-14.04,19.94-16.92.52-.18,1.09.1,1.27.62.18.52-.1,1.09-.62,1.27-7.98,2.72-14.84,8.54-18.83,15.97-.18.34-.53.53-.88.53Z"/>
      <path class="cls-8" d="M408.98,147.62c-.19,0-.37-.05-.54-.16-3.5-2.25-6.27-5.61-7.81-9.47-1.54-3.86-1.84-8.21-.85-12.25.13-.54.68-.86,1.21-.73.54.13.86.67.73,1.21-.89,3.64-.62,7.55.77,11.03,1.39,3.48,3.88,6.51,7.04,8.53.46.3.6.92.3,1.38-.19.3-.51.46-.84.46Z"/>
      <path class="cls-8" d="M304.82,146.81c-.43,0-.83-.28-.96-.72-.16-.53.15-1.09.68-1.24,3.39-1,6.38-3.47,7.99-6.61,1.61-3.14,1.87-7.01.7-10.35-.18-.52.09-1.09.61-1.27.52-.18,1.09.09,1.28.61,1.35,3.84,1.05,8.3-.81,11.92-1.86,3.62-5.3,6.47-9.2,7.62-.09.03-.19.04-.28.04Z"/>
    </g>
    <g>
      <rect class="cls-17" x="86.87" y="85.36" width="127.74" height="25.13" rx="7.21" ry="7.21"/>
      <rect class="cls-13" x="86.87" y="85.36" width="127.74" height="14.42" rx="7.21" ry="7.21"/>
      <path class="cls-23" d="M207.4,112.49h-113.32c-5.08,0-9.21-4.13-9.21-9.21v-10.71c0-5.08,4.13-9.21,9.21-9.21h113.32c5.08,0,9.21,4.13,9.21,9.21v10.71c0,5.08-4.13,9.21-9.21,9.21ZM94.08,87.36c-2.87,0-5.21,2.34-5.21,5.21v10.71c0,2.87,2.34,5.21,5.21,5.21h113.32c2.87,0,5.21-2.34,5.21-5.21v-10.71c0-2.87-2.34-5.21-5.21-5.21h-113.32Z"/>
      <rect class="cls-5" x="78.1" y="110.49" width="145.29" height="39.9" rx="7.21" ry="7.21"/>
      <rect class="cls-12" x="78.1" y="110.49" width="145.29" height="19.95" rx="7.21" ry="7.21"/>
      <path class="cls-16" d="M216.18,152.4H85.31c-5.08,0-9.21-4.13-9.21-9.21v-25.48c0-5.08,4.13-9.21,9.21-9.21h130.87c5.08,0,9.21,4.13,9.21,9.21v25.48c0,5.08-4.13,9.21-9.21,9.21ZM85.31,112.49c-2.87,0-5.21,2.34-5.21,5.21v25.48c0,2.87,2.34,5.21,5.21,5.21h130.87c2.87,0,5.21-2.34,5.21-5.21v-25.48c0-2.87-2.34-5.21-5.21-5.21H85.31Z"/>
      <path class="cls-18" d="M77.9,150.4h144.37c5.08,0,9.21,4.13,9.21,9.21v30.27c0,6.87-5.57,12.44-12.44,12.44H77.9c-6.87,0-12.44-5.57-12.44-12.44v-27.04c0-6.87,5.57-12.44,12.44-12.44Z"/>
      <path class="cls-4" d="M77.9,150.4h144.37c5.08,0,9.21,4.13,9.21,9.21v6.92c0,6.87-5.57,12.44-12.44,12.44H77.9c-6.87,0-12.44-5.57-12.44-12.44v-3.69c0-6.87,5.57-12.44,12.44-12.44Z"/>
      <path class="cls-4" d="M77.9,150.4h144.37c5.08,0,9.21,4.13,9.21,9.21v6.92c0,6.87-5.57,12.44-12.44,12.44H77.9c-6.87,0-12.44-5.57-12.44-12.44v-3.69c0-6.87,5.57-12.44,12.44-12.44Z"/>
      <path class="cls-4" d="M231.48,163.11v5.67c0,5.63-5.57,10.2-12.45,10.2H77.9c-6.88,0-12.45-4.56-12.45-10.2v-3.01c0-5.63,5.57-10.19,12.45-10.19h144.37c5.08,0,9.21,3.37,9.21,7.53Z"/>
      <rect class="cls-6" x="88.27" y="150.4" width="12.91" height="50.89"/>
      <rect class="cls-25" x="88.27" y="178.97" width="12.91" height="22.31"/>
      <rect class="cls-6" x="193.89" y="150.4" width="12.91" height="50.89"/>
      <rect class="cls-25" x="193.89" y="178.97" width="12.91" height="22.31"/>
      <path class="cls-2" d="M219.03,204.32H77.9c-7.96,0-14.44-6.48-14.44-14.44v-27.04c0-7.96,6.48-14.44,14.44-14.44h144.37c6.18,0,11.21,5.03,11.21,11.21v30.27c0,7.96-6.48,14.44-14.44,14.44ZM77.9,152.4c-5.76,0-10.44,4.68-10.44,10.44v27.04c0,5.76,4.68,10.44,10.44,10.44h141.14c5.76,0,10.44-4.68,10.44-10.44v-30.27c0-3.97-3.23-7.21-7.21-7.21H77.9Z"/>
    </g>
    <path class="cls-19" d="M248.97,229.02H35.51c-.55,0-1-.45-1-1s.45-1,1-1h213.46c.55,0,1,.45,1,1s-.45,1-1,1Z"/>
    <path class="cls-19" d="M22.32,229.27h-8.47c-.55,0-1-.45-1-1s.45-1,1-1h8.39c.55,0,1.04.45,1.04,1s-.41,1-.96,1Z"/>
    <path class="cls-19" d="M490.15,228.8h-108.23c-.55,0-1-.45-1-1s.45-1,1-1h108.23c.55,0,1,.45,1,1s-.45,1-1,1Z"/>
    <path class="cls-19" d="M455.82,450.37h-200.87c-.55,0-1-.45-1-1s.45-1,1-1h200.87c.55,0,1,.45,1,1s-.45,1-1,1Z"/>
    <path class="cls-19" d="M240.52,450.27h-25.97c-.55,0-1-.45-1-1s.45-1,1-1h25.97c.55,0,1,.45,1,1s-.45,1-1,1Z"/>
    <path class="cls-19" d="M12.26,450.69c-.45,0-.86-.3-.97-.76-.13-.54.19-1.08.73-1.21l2.51-.63c.08-.02.16-.03.24-.03h114.17c.55,0,1,.45,1,1s-.45,1-1,1H14.9l-2.4.6c-.08.02-.16.03-.24.03Z"/>
  </g>
  <g>
    <path class="cls-16" d="M172.59,651.57c0,.62-.18,1.09-.55,1.42-.37.33-.91.5-1.64.5s-1.29-.17-1.64-.5c-.36-.33-.53-.81-.53-1.42v-17.73c0-.62.17-1.11.52-1.46.34-.35.83-.52,1.47-.52h9.48c.46,0,.82.14,1.08.42.26.28.39.7.39,1.27s-.13.99-.39,1.27c-.26.29-.62.43-1.08.43h-7.11v5.88h5.88c.44,0,.79.14,1.05.43.27.29.4.71.4,1.26s-.13.97-.4,1.25-.62.42-1.05.42h-5.88v7.09Z"/>
    <path class="cls-16" d="M192.61,643.23c0-.5-.06-.92-.17-1.28-.12-.35-.3-.64-.55-.86-.26-.22-.59-.39-1.02-.5-.42-.11-.94-.16-1.54-.16-.65,0-1.2.05-1.65.14s-.85.2-1.18.32c-.33.12-.62.23-.87.32-.25.09-.48.14-.7.14-.37,0-.69-.12-.93-.36-.25-.24-.37-.59-.37-1.05,0-.24.04-.45.11-.62.07-.18.2-.35.38-.53.17-.17.43-.34.8-.53.37-.19.82-.36,1.34-.52.53-.16,1.13-.29,1.8-.39.68-.1,1.41-.16,2.2-.16,2.18,0,3.81.47,4.91,1.41,1.09.94,1.64,2.32,1.64,4.12v5.11c0,.71.03,1.28.09,1.72.06.44.12.8.18,1.09.06.29.12.53.18.73.06.19.09.4.09.62s-.04.42-.12.61c-.08.19-.2.35-.36.49s-.35.25-.59.33-.5.12-.8.12c-.32,0-.61-.05-.87-.15-.26-.1-.48-.24-.67-.41-.19-.18-.36-.39-.48-.63-.13-.24-.24-.51-.32-.8h-.05c-.32.41-.71.77-1.17,1.08-.4.27-.89.52-1.49.73-.6.22-1.3.33-2.12.33-.87,0-1.64-.12-2.32-.37-.68-.25-1.26-.58-1.73-1.02-.47-.43-.84-.95-1.09-1.54s-.38-1.24-.38-1.94c0-.75.17-1.41.5-1.99.33-.57.8-1.05,1.41-1.43.6-.38,1.33-.67,2.19-.86.85-.19,1.81-.29,2.86-.29.44,0,.83.02,1.18.05.35.03.65.06.9.09.29.04.55.09.78.14v-1.29ZM192.61,647.26c-.21-.05-.44-.1-.69-.14-.22-.04-.47-.08-.77-.11-.29-.03-.62-.05-.98-.05-1.04,0-1.82.15-2.32.44-.51.29-.76.72-.76,1.28,0,.27.05.52.16.75.1.23.25.43.45.59.2.17.44.3.73.4.29.1.63.15,1.02.15.5,0,.95-.09,1.34-.27.39-.18.72-.37.99-.58.31-.25.59-.53.83-.84v-1.62Z"/>
    <path class="cls-16" d="M201.33,639.1c0-.57.15-1.01.45-1.31.3-.3.74-.45,1.31-.45.28,0,.53.03.74.1.21.07.4.17.55.3.16.13.28.29.38.48s.16.4.19.62l.12.8h.06c.3-.46.68-.86,1.12-1.22.19-.16.4-.31.65-.45.24-.15.52-.28.82-.39.3-.11.63-.21.99-.27.36-.07.75-.1,1.18-.1,1.2,0,2.21.24,3.05.72.83.48,1.48,1.15,1.95,2,.34-.5.77-.95,1.27-1.36.22-.17.46-.33.73-.49.27-.16.56-.31.89-.44.33-.13.68-.23,1.07-.31.38-.08.8-.12,1.25-.12.88,0,1.69.14,2.41.42.72.28,1.34.7,1.85,1.25.51.55.9,1.23,1.18,2.04.28.81.41,1.74.41,2.79v7.92c0,.59-.18,1.05-.52,1.38-.35.33-.88.49-1.6.49s-1.25-.16-1.6-.49c-.35-.33-.52-.79-.52-1.38v-7.42c0-.63-.06-1.18-.19-1.64-.12-.46-.31-.83-.55-1.12-.24-.29-.53-.5-.87-.64-.34-.13-.72-.2-1.13-.2-.27,0-.52.03-.76.1-.23.07-.45.16-.66.27s-.39.24-.56.38c-.17.15-.33.29-.46.44-.32.34-.6.73-.83,1.17,0,.12,0,.31.02.58.02.27.02.57.02.89v7.2c0,.59-.17,1.05-.52,1.38s-.88.49-1.59.49-1.25-.16-1.6-.49c-.35-.33-.52-.79-.52-1.38v-7.42c0-.63-.07-1.18-.2-1.64-.13-.46-.31-.83-.55-1.12-.23-.29-.52-.5-.87-.64-.34-.13-.72-.2-1.14-.2-.26,0-.51.03-.74.1-.23.07-.45.15-.65.26-.2.1-.38.23-.55.37-.17.14-.32.28-.45.41-.32.34-.59.72-.81,1.14v8.75c0,.59-.18,1.05-.52,1.38-.35.33-.88.49-1.6.49s-1.25-.16-1.6-.49c-.35-.33-.52-.79-.52-1.38v-12.52Z"/>
    <path class="cls-16" d="M230.02,632.8c0-.34.06-.66.19-.96s.3-.55.52-.77c.22-.22.49-.39.81-.52.32-.12.67-.19,1.05-.19.36,0,.7.06,1.01.19.31.12.57.29.8.51.22.21.4.46.52.75.12.29.19.6.19.93s-.06.66-.19.96-.3.55-.53.77c-.23.22-.5.39-.81.52s-.66.19-1.05.19-.7-.06-1.01-.19c-.31-.12-.57-.29-.8-.51-.22-.21-.4-.46-.52-.75-.12-.29-.19-.6-.19-.93ZM230.44,639.26c0-.59.17-1.05.52-1.38.35-.33.88-.49,1.6-.49s1.25.16,1.6.49c.35.33.52.79.52,1.38v12.36c0,.59-.18,1.05-.52,1.38-.35.33-.88.49-1.6.49s-1.25-.16-1.6-.49c-.35-.33-.52-.79-.52-1.38v-12.36Z"/>
    <path class="cls-16" d="M239.2,632.1c0-.59.17-1.05.52-1.38.35-.33.88-.49,1.6-.49s1.25.16,1.6.49c.35.33.52.79.52,1.38v16.08c0,.41.03.75.08,1.02.05.27.13.48.23.64.1.16.21.27.35.33.13.06.29.09.45.09.14,0,.28,0,.39-.02.11-.02.23-.02.34-.02.13,0,.27.03.39.08.12.05.23.13.33.23.09.1.17.23.23.38.06.15.09.33.09.52,0,.3-.04.56-.13.77-.09.21-.21.39-.37.55-.11.1-.23.2-.38.3-.15.09-.32.18-.52.26s-.45.14-.73.19-.61.07-.97.07c-1.32,0-2.33-.35-3.01-1.05-.68-.7-1.02-1.77-1.02-3.2v-17.2Z"/>
    <path class="cls-16" d="M247.33,640.57c-.14-.36-.22-.63-.26-.8-.04-.17-.05-.33-.05-.48,0-.31.07-.59.22-.83.14-.24.33-.44.56-.61.23-.17.48-.29.76-.38.28-.09.55-.13.82-.13.3,0,.55.05.76.14s.38.22.52.38c.14.15.26.32.34.53.08.21.18.5.3.86l2.75,8.23c.1.3.2.6.28.89.08.29.15.55.2.78.06.27.12.53.17.77h.06c.06-.24.12-.49.19-.77.05-.23.12-.49.2-.78.08-.29.17-.59.27-.89l2.71-8.33c.1-.31.2-.58.28-.79.08-.21.19-.39.33-.54.15-.16.33-.28.54-.36.21-.08.47-.12.76-.12.26,0,.52.04.79.12s.51.19.72.34c.21.15.39.34.53.56.13.22.2.48.2.77,0,.15-.02.3-.05.45-.04.16-.11.4-.23.72l-4.05,10.94c-.64,1.71-1.29,3.17-1.97,4.4-.68,1.22-1.4,2.23-2.17,3.01-.77.78-1.61,1.36-2.51,1.73-.9.37-1.89.55-2.98.55-.55,0-1.03-.07-1.43-.2-.4-.13-.72-.32-.95-.55-.34-.34-.52-.78-.52-1.3,0-.44.13-.78.39-1.04.26-.26.61-.38,1.06-.38.15,0,.28,0,.4.02.12,0,.23.02.34.04s.22.03.34.04c.11,0,.24.02.39.02.42,0,.81-.07,1.18-.22s.71-.36,1.04-.64c.32-.28.63-.63.91-1.05.29-.42.56-.91.82-1.47l-4.96-13.62Z"/>
    <path class="cls-16" d="M278.06,651.57c0,.62-.18,1.09-.55,1.42-.37.33-.91.5-1.64.5s-1.29-.17-1.64-.5c-.36-.33-.53-.81-.53-1.42v-17.73c0-.62.17-1.11.52-1.46.34-.35.83-.52,1.47-.52h9.48c.46,0,.82.14,1.08.42.26.28.39.7.39,1.27s-.13.99-.39,1.27c-.26.29-.62.43-1.08.43h-7.11v5.88h5.87c.44,0,.79.14,1.05.43.27.29.4.71.4,1.26s-.13.97-.4,1.25-.62.42-1.05.42h-5.87v7.09Z"/>
    <path class="cls-16" d="M289,632.8c0-.34.06-.66.19-.96s.3-.55.52-.77c.22-.22.49-.39.81-.52.32-.12.67-.19,1.05-.19.36,0,.7.06,1.01.19.31.12.57.29.8.51.22.21.4.46.52.75.12.29.19.6.19.93s-.06.66-.19.96-.3.55-.53.77c-.23.22-.5.39-.81.52-.31.12-.66.19-1.05.19s-.7-.06-1.01-.19c-.31-.12-.57-.29-.8-.51-.22-.21-.4-.46-.52-.75-.12-.29-.19-.6-.19-.93ZM289.42,639.26c0-.59.17-1.05.52-1.38.35-.33.88-.49,1.6-.49s1.25.16,1.6.49c.35.33.52.79.52,1.38v12.36c0,.59-.18,1.05-.52,1.38-.35.33-.88.49-1.6.49s-1.25-.16-1.6-.49c-.35-.33-.52-.79-.52-1.38v-12.36Z"/>
    <path class="cls-16" d="M298.25,639.1c0-.57.15-1.01.45-1.31.3-.3.74-.45,1.31-.45.28,0,.53.03.74.1.21.07.39.17.55.3.15.13.27.29.37.48.09.19.16.41.2.65l.2,1.14h.05c.2-.41.43-.78.69-1.13.26-.35.55-.65.87-.9.32-.25.67-.45,1.04-.59.37-.14.76-.21,1.16-.21.59,0,1.05.16,1.38.48.32.32.48.82.48,1.5,0,.79-.15,1.4-.45,1.84-.3.43-.66.65-1.08.65-.12,0-.22-.01-.31-.04-.09-.03-.19-.05-.27-.08-.09-.03-.18-.05-.27-.08-.09-.03-.2-.04-.33-.04-.25,0-.5.07-.74.2-.25.13-.47.3-.69.51-.21.21-.41.45-.6.71-.19.27-.36.54-.5.82v7.97c0,.59-.18,1.05-.52,1.38-.35.33-.88.49-1.6.49s-1.25-.16-1.6-.49c-.35-.33-.52-.79-.52-1.38v-12.52Z"/>
    <path class="cls-16" d="M309.39,642.16c0-.7.14-1.35.41-1.96.28-.61.69-1.13,1.25-1.58.56-.44,1.25-.79,2.08-1.05.83-.25,1.8-.38,2.91-.38.57,0,1.09.03,1.55.1.46.07.86.15,1.2.26.34.1.62.22.86.35.23.13.41.26.54.38.19.19.32.38.39.59.07.2.11.44.11.71,0,.2-.04.38-.1.55-.07.17-.16.31-.27.42-.12.12-.26.21-.42.27-.17.07-.34.1-.53.1-.21,0-.43-.03-.65-.1-.22-.07-.47-.14-.75-.23-.28-.08-.59-.16-.93-.23-.34-.07-.74-.1-1.19-.1-.42,0-.77.04-1.06.11-.29.07-.53.17-.72.3-.19.12-.32.27-.41.44-.08.17-.12.35-.12.55,0,.33.11.61.34.82.23.21.53.4.9.56.37.16.79.31,1.27.45.47.14.96.29,1.45.46.49.17.98.36,1.45.59.47.22.89.51,1.27.86.37.35.67.77.9,1.27.23.5.34,1.09.34,1.79s-.15,1.41-.44,2.05c-.29.64-.73,1.19-1.3,1.66s-1.31.84-2.19,1.11c-.88.27-1.9.41-3.07.41-.67,0-1.25-.03-1.75-.1-.5-.07-.94-.16-1.3-.27-.37-.11-.68-.23-.91-.38-.24-.14-.43-.28-.58-.43-.17-.17-.29-.35-.38-.55-.08-.2-.12-.45-.12-.75,0-.41.12-.74.37-.99.24-.25.56-.38.96-.38.2,0,.41.04.64.12.23.08.5.16.8.26.31.09.66.18,1.05.26.39.08.87.12,1.42.12.47,0,.87-.04,1.21-.12.34-.08.61-.2.82-.34.21-.14.36-.31.46-.51.1-.2.15-.41.15-.64,0-.34-.11-.63-.34-.86-.22-.23-.52-.43-.9-.59-.37-.17-.8-.32-1.27-.46-.47-.14-.96-.3-1.45-.47-.49-.17-.97-.37-1.45-.59-.47-.22-.9-.5-1.27-.84-.38-.34-.68-.75-.9-1.23-.22-.48-.34-1.07-.34-1.76Z"/>
    <path class="cls-16" d="M324.3,640.66c-.42,0-.75-.13-1.01-.41-.26-.27-.38-.67-.38-1.19s.13-.9.38-1.17c.25-.27.59-.41,1.01-.41h1.38l.5-2.64c.11-.59.33-1.03.65-1.31.32-.28.74-.42,1.27-.42s.96.15,1.25.45c.29.3.44.73.44,1.29v2.64h2.64c.42,0,.75.14,1.01.41.25.27.38.66.38,1.17s-.13.92-.38,1.19c-.26.27-.59.41-1.01.41h-2.64v7.52c0,.74.12,1.27.38,1.58s.63.47,1.16.47c.19,0,.35,0,.49-.03.14-.02.27-.05.38-.08.11-.03.22-.06.31-.08.09-.02.19-.03.3-.03.17,0,.32.03.46.09s.26.15.36.26c.1.11.18.24.23.4.06.16.09.33.09.52,0,.29-.05.54-.14.74s-.23.39-.41.57c-.11.1-.25.21-.43.33-.18.12-.41.22-.67.31s-.58.17-.93.23c-.36.06-.76.09-1.2.09-1.58,0-2.75-.38-3.5-1.13-.75-.75-1.12-1.91-1.12-3.46v-8.3h-1.23Z"/>
  </g>
</svg>