<?xml version="1.0" encoding="UTF-8"?>
<svg id="Expanded" xmlns="http://www.w3.org/2000/svg" xmlns:xlink="http://www.w3.org/1999/xlink" viewBox="0 0 500 700">
  <defs>
    <style>
      .cls-1 {
        fill: #3288d6;
      }

      .cls-2 {
        fill: #a152db;
      }

      .cls-3 {
        fill: #fff;
      }

      .cls-4 {
        fill: #dfedf2;
      }

      .cls-5 {
        fill: #ea9939;
      }

      .cls-6 {
        fill: #d87625;
      }

      .cls-7 {
        fill: none;
      }

      .cls-8 {
        fill: #f47aa0;
      }

      .cls-9 {
        fill: #231f20;
      }

      .cls-10 {
        fill: #e9f1f4;
      }

      .cls-11 {
        fill: #6d3108;
      }

      .cls-12 {
        fill: #b52880;
      }

      .cls-13 {
        fill: #79cdf6;
      }

      .cls-14 {
        fill: #ffe277;
      }

      .cls-15 {
        fill: #333;
      }

      .cls-16 {
        fill: #47acea;
      }

      .cls-17 {
        fill: #8942c5;
      }

      .cls-18 {
        fill: #dd4a8c;
      }

      .cls-19 {
        fill: #a8b6c1;
      }

      .cls-20 {
        fill: #d27cf2;
      }

      .cls-21 {
        clip-path: url(#clippath);
      }
    </style>
    <clipPath id="clippath">
      <rect class="cls-7" x="-36" y="68" width="572" height="468" rx="32" ry="32" transform="translate(552 52) rotate(90)"/>
    </clipPath>
  </defs>
  <g>
    <g>
      <path class="cls-10" d="M48,699.5c-26.19,0-47.5-21.31-47.5-47.5V48C.5,21.81,21.81.5,48,.5h404c8.33,0,16.53,2.19,23.71,6.33,14.67,8.47,23.79,24.24,23.79,41.17v604c0,26.19-21.31,47.5-47.5,47.5H48Z"/>
      <path class="cls-15" d="M452,1c8.25,0,16.36,2.17,23.46,6.27,14.52,8.38,23.54,23.98,23.54,40.73v604c0,25.92-21.08,47-47,47H48c-25.92,0-47-21.08-47-47V48C1,22.08,22.08,1,48,1h404M452,0H48C21.49,0,0,21.49,0,48v604c0,26.51,21.49,48,48,48h404c26.51,0,48-21.49,48-48V48c0-17.79-9.67-33.31-24.04-41.6C468.91,2.33,460.73,0,452,0h0Z"/>
    </g>
    <path class="cls-3" d="M500,48v374.52L0,539.11V117.39L475.96,6.4c14.37,8.29,24.04,23.81,24.04,41.6Z"/>
    <path class="cls-3" d="M500,459.42v140.57l-428.9,100.01h-23.1C21.49,700,0,678.51,0,652v-75.99l500-116.59Z"/>
    <path class="cls-15" d="M452,1c25.92,0,47,21.08,47,47v604c0,25.92-21.08,47-47,47H48c-25.92,0-47-21.08-47-47V48C1,22.08,22.08,1,48,1h404M452,0H48C21.49,0,0,21.49,0,48v604c0,26.51,21.49,48,48,48h404c26.51,0,48-21.49,48-48V48c0-26.51-21.49-48-48-48h0Z"/>
    <g>
      <rect class="cls-3" x="15" y="15" width="470" height="574" rx="33" ry="33"/>
      <path class="cls-15" d="M452,16c17.67,0,32,14.33,32,32v508c0,17.67-14.33,32-32,32H48c-17.67,0-32-14.33-32-32V48c0-17.67,14.33-32,32-32h404M452,14H48c-18.75,0-34,15.25-34,34v508c0,18.75,15.25,34,34,34h404c18.75,0,34-15.25,34-34V48c0-18.75-15.25-34-34-34h0Z"/>
    </g>
  </g>
  <g>
    <path class="cls-15" d="M167.27,633.66c0-.61.18-1.09.54-1.42.36-.33.91-.5,1.65-.5s1.29.17,1.64.5c.35.33.53.81.53,1.42v16.91c0,.96-.05,1.8-.14,2.52s-.23,1.35-.41,1.91c-.18.55-.4,1.04-.67,1.45-.27.42-.58.8-.92,1.14-.59.59-1.25,1.04-1.95,1.34-.71.3-1.39.45-2.05.45s-1.11-.15-1.43-.45c-.32-.3-.48-.68-.48-1.15,0-.34.07-.63.22-.87.15-.23.37-.43.66-.59.42-.23.8-.47,1.14-.72s.64-.55.89-.91c.25-.35.44-.79.58-1.3.13-.51.2-1.14.2-1.89v-17.86Z"/>
    <path class="cls-15" d="M176.38,639.26c0-.59.17-1.05.52-1.38s.88-.49,1.61-.49,1.25.16,1.6.49c.35.33.52.79.52,1.38v7.42c0,1.27.25,2.19.74,2.76.49.57,1.17.85,2.04.85.28,0,.54-.03.78-.09.24-.06.46-.15.67-.26.21-.11.4-.23.57-.37.17-.13.33-.28.48-.42.32-.33.6-.71.83-1.14v-8.75c0-.59.17-1.05.52-1.38.35-.33.88-.49,1.6-.49s1.27.16,1.61.49.52.79.52,1.38v12.52c0,.57-.15,1.01-.45,1.31-.3.3-.74.45-1.31.45-.28,0-.53-.03-.74-.1-.21-.07-.4-.17-.55-.3-.15-.13-.27-.29-.37-.48s-.16-.4-.2-.64l-.12-.78h-.06c-.3.46-.68.87-1.14,1.22-.2.16-.42.31-.67.45-.25.15-.53.28-.84.39s-.65.21-1.02.27c-.37.07-.77.1-1.21.1-.91,0-1.72-.14-2.45-.42-.72-.28-1.34-.7-1.86-1.25-.52-.55-.91-1.23-1.19-2.04-.28-.81-.41-1.74-.41-2.79v-7.92Z"/>
    <path class="cls-15" d="M194.8,642.16c0-.7.14-1.35.41-1.96.28-.61.69-1.13,1.25-1.58.56-.44,1.25-.79,2.08-1.05.83-.25,1.8-.38,2.91-.38.57,0,1.09.03,1.55.1.46.07.86.15,1.2.26.34.1.62.22.86.35.23.13.41.26.54.38.19.19.32.38.39.59.07.2.11.44.11.71,0,.2-.03.38-.1.55-.07.17-.16.31-.27.42s-.26.21-.42.27c-.17.07-.34.1-.53.1-.21,0-.42-.03-.65-.1-.22-.07-.47-.14-.75-.23-.28-.08-.59-.16-.93-.23-.34-.07-.74-.1-1.19-.1-.42,0-.77.04-1.06.11-.29.07-.53.17-.72.3s-.32.27-.41.44c-.08.17-.12.35-.12.55,0,.33.11.61.34.82.23.21.53.4.9.56.37.16.79.31,1.27.45.47.14.96.29,1.45.46.49.17.98.36,1.45.59.47.22.9.51,1.27.86.37.35.67.77.9,1.27.23.5.34,1.09.34,1.79s-.15,1.41-.44,2.05c-.29.64-.73,1.19-1.3,1.66s-1.31.84-2.19,1.11c-.88.27-1.9.41-3.07.41-.67,0-1.25-.03-1.75-.1-.5-.07-.94-.16-1.3-.27-.37-.11-.67-.23-.91-.38-.24-.14-.43-.28-.58-.43-.17-.17-.29-.35-.38-.55-.08-.2-.12-.45-.12-.75,0-.41.12-.74.37-.99.24-.25.56-.38.96-.38.2,0,.41.04.64.12.23.08.5.16.8.26.31.09.66.18,1.05.26.4.08.87.12,1.42.12.47,0,.87-.04,1.21-.12.34-.08.61-.2.82-.34.21-.14.36-.31.46-.51.1-.2.15-.41.15-.64,0-.34-.11-.63-.34-.86-.22-.23-.52-.43-.9-.59-.38-.17-.8-.32-1.27-.46-.47-.14-.96-.3-1.45-.47-.49-.17-.97-.37-1.45-.59-.47-.22-.9-.5-1.27-.84-.38-.34-.67-.75-.9-1.23-.22-.48-.34-1.07-.34-1.76Z"/>
    <path class="cls-15" d="M209.71,640.66c-.42,0-.75-.13-1.01-.41-.26-.27-.38-.67-.38-1.19s.13-.9.38-1.17c.25-.27.59-.41,1.01-.41h1.38l.5-2.64c.11-.59.33-1.03.65-1.31.32-.28.74-.42,1.27-.42s.96.15,1.25.45c.29.3.44.73.44,1.29v2.64h2.64c.42,0,.75.14,1.01.41.25.27.38.66.38,1.17s-.13.92-.38,1.19c-.26.27-.59.41-1.01.41h-2.64v7.52c0,.74.12,1.27.38,1.58s.63.47,1.16.47c.19,0,.35,0,.49-.03.14-.02.27-.05.38-.08.11-.03.22-.06.31-.08.09-.02.19-.03.3-.03.17,0,.32.03.46.09s.26.15.36.26c.1.11.18.24.23.4.06.16.09.33.09.52,0,.29-.05.54-.14.74s-.23.39-.41.57c-.1.1-.25.21-.43.33-.18.12-.41.22-.67.31s-.58.17-.93.23c-.35.06-.76.09-1.2.09-1.58,0-2.75-.38-3.5-1.13-.75-.75-1.12-1.91-1.12-3.46v-8.3h-1.23Z"/>
    <path class="cls-15" d="M234.91,651.57c0,.62-.18,1.09-.53,1.42-.35.33-.91.5-1.66.5s-1.29-.17-1.64-.5c-.35-.33-.53-.81-.53-1.42v-17.91c0-.61.18-1.09.53-1.42.35-.33.9-.5,1.64-.5s1.3.17,1.66.5c.35.33.53.81.53,1.42v6.98h8.66v-6.98c0-.61.18-1.09.53-1.42.35-.33.91-.5,1.66-.5s1.27.17,1.63.5c.36.33.54.81.54,1.42v17.91c0,.62-.18,1.09-.53,1.42-.35.33-.9.5-1.64.5s-1.3-.17-1.66-.5c-.35-.33-.53-.81-.53-1.42v-7.41h-8.66v7.41Z"/>
    <path class="cls-15" d="M252.68,639.26c0-.59.17-1.05.52-1.38s.88-.49,1.61-.49,1.25.16,1.6.49c.35.33.52.79.52,1.38v7.42c0,1.27.25,2.19.74,2.76.49.57,1.17.85,2.04.85.28,0,.54-.03.78-.09.24-.06.46-.15.67-.26.21-.11.4-.23.57-.37.17-.13.33-.28.48-.42.32-.33.6-.71.83-1.14v-8.75c0-.59.17-1.05.52-1.38.35-.33.88-.49,1.6-.49s1.27.16,1.61.49.52.79.52,1.38v12.52c0,.57-.15,1.01-.45,1.31-.3.3-.74.45-1.31.45-.28,0-.53-.03-.74-.1-.21-.07-.4-.17-.55-.3-.15-.13-.27-.29-.37-.48s-.16-.4-.2-.64l-.12-.78h-.06c-.3.46-.68.87-1.14,1.22-.2.16-.42.31-.67.45-.25.15-.53.28-.84.39s-.65.21-1.02.27c-.37.07-.77.1-1.21.1-.91,0-1.72-.14-2.45-.42-.72-.28-1.34-.7-1.86-1.25-.52-.55-.91-1.23-1.19-2.04-.28-.81-.41-1.74-.41-2.79v-7.92Z"/>
    <path class="cls-15" d="M271.88,639.1c0-.57.15-1.01.45-1.31s.74-.45,1.31-.45c.28,0,.53.03.74.1.21.07.4.17.55.3.16.13.28.29.38.48s.16.4.19.62l.12.8h.06c.3-.46.68-.86,1.12-1.22.19-.16.4-.31.65-.45.24-.15.52-.28.82-.39.3-.11.63-.21.99-.27.36-.07.75-.1,1.18-.1,1.2,0,2.21.24,3.05.72.83.48,1.48,1.15,1.95,2,.34-.5.77-.95,1.27-1.36.22-.17.46-.33.73-.49.27-.16.56-.31.89-.44.33-.13.68-.23,1.07-.31.38-.08.8-.12,1.25-.12.88,0,1.69.14,2.41.42.72.28,1.34.7,1.85,1.25.51.55.9,1.23,1.18,2.04.28.81.41,1.74.41,2.79v7.92c0,.59-.17,1.05-.52,1.38-.35.33-.88.49-1.6.49s-1.25-.16-1.6-.49c-.35-.33-.52-.79-.52-1.38v-7.42c0-.63-.06-1.18-.19-1.64-.12-.46-.31-.83-.55-1.12-.24-.29-.53-.5-.87-.64-.34-.13-.72-.2-1.13-.2-.27,0-.52.03-.76.1-.23.07-.45.16-.66.27s-.39.24-.56.38c-.17.15-.33.29-.46.44-.32.34-.6.73-.83,1.17,0,.12,0,.31.02.58.02.27.02.57.02.89v7.2c0,.59-.17,1.05-.52,1.38s-.88.49-1.59.49-1.25-.16-1.6-.49c-.35-.33-.52-.79-.52-1.38v-7.42c0-.63-.07-1.18-.2-1.64-.13-.46-.31-.83-.55-1.12-.23-.29-.52-.5-.87-.64-.34-.13-.72-.2-1.14-.2-.26,0-.51.03-.74.1-.23.07-.45.15-.65.26-.2.1-.38.23-.55.37-.17.14-.32.28-.45.41-.32.34-.59.72-.81,1.14v8.75c0,.59-.17,1.05-.52,1.38-.35.33-.88.49-1.6.49s-1.25-.16-1.6-.49c-.35-.33-.52-.79-.52-1.38v-12.52Z"/>
    <path class="cls-15" d="M309.87,643.23c0-.5-.06-.92-.17-1.28-.12-.35-.3-.64-.55-.86-.26-.22-.59-.39-1.02-.5-.42-.11-.94-.16-1.54-.16-.65,0-1.2.05-1.65.14s-.85.2-1.18.32c-.33.12-.62.23-.87.32-.25.09-.48.14-.7.14-.38,0-.69-.12-.93-.36-.25-.24-.37-.59-.37-1.05,0-.24.04-.45.11-.62.07-.18.2-.35.38-.53.17-.17.43-.34.8-.53.37-.19.82-.36,1.34-.52.53-.16,1.13-.29,1.8-.39.68-.1,1.41-.16,2.2-.16,2.18,0,3.81.47,4.91,1.41,1.09.94,1.64,2.32,1.64,4.12v5.11c0,.71.03,1.28.09,1.72.06.44.12.8.18,1.09.06.29.12.53.18.73.06.19.09.4.09.62s-.04.42-.12.61c-.08.19-.2.35-.36.49s-.35.25-.59.33-.5.12-.8.12c-.32,0-.61-.05-.87-.15-.26-.1-.48-.24-.67-.41-.19-.18-.35-.39-.48-.63-.13-.24-.24-.51-.32-.8h-.05c-.32.41-.71.77-1.17,1.08-.4.27-.89.52-1.49.73-.6.22-1.3.33-2.12.33-.87,0-1.64-.12-2.32-.37-.68-.25-1.26-.58-1.73-1.02-.47-.43-.84-.95-1.09-1.54s-.38-1.24-.38-1.94c0-.75.17-1.41.5-1.99.33-.57.8-1.05,1.41-1.43.6-.38,1.33-.67,2.19-.86.85-.19,1.81-.29,2.86-.29.44,0,.83.02,1.18.05.35.03.65.06.9.09.29.04.55.09.78.14v-1.29ZM309.87,647.26c-.21-.05-.44-.1-.69-.14-.22-.04-.47-.08-.77-.11-.29-.03-.62-.05-.98-.05-1.04,0-1.82.15-2.32.44-.51.29-.76.72-.76,1.28,0,.27.05.52.16.75.1.23.25.43.45.59.2.17.44.3.73.4.29.1.63.15,1.02.15.5,0,.95-.09,1.34-.27.39-.18.72-.37.99-.58.31-.25.59-.53.83-.84v-1.62Z"/>
    <path class="cls-15" d="M318.59,639.1c0-.57.15-1.01.45-1.31s.74-.45,1.31-.45c.28,0,.53.03.74.1.21.07.4.17.55.3.16.13.28.29.38.48s.16.4.19.62l.12.8h.06c.3-.46.68-.86,1.14-1.22.2-.16.42-.31.67-.45.25-.15.53-.28.84-.39.31-.11.65-.21,1.02-.27.37-.07.77-.1,1.21-.1.92,0,1.74.14,2.48.42.74.28,1.37.7,1.89,1.25.52.55.92,1.23,1.2,2.04.28.81.41,1.74.41,2.79v7.92c0,.59-.17,1.05-.52,1.38-.35.33-.88.49-1.6.49s-1.25-.16-1.6-.49c-.35-.33-.52-.79-.52-1.38v-7.42c0-.63-.07-1.18-.2-1.64-.13-.46-.32-.83-.56-1.12-.25-.29-.54-.5-.9-.64-.35-.13-.76-.2-1.2-.2-.28,0-.54.03-.78.1-.24.07-.47.15-.68.26-.21.1-.41.23-.58.37s-.33.28-.46.41c-.33.34-.61.72-.83,1.14v8.75c0,.59-.17,1.05-.52,1.38-.35.33-.88.49-1.6.49s-1.25-.16-1.6-.49c-.35-.33-.52-.79-.52-1.38v-12.52Z"/>
  </g>
  <g class="cls-21">
    <rect class="cls-1" x="-78.81" y="32.97" width="657.62" height="538.05" rx="32" ry="32" transform="translate(552 52) rotate(90)"/>
    <circle class="cls-16" cx="86.82" cy="193.84" r="177.84"/>
    <circle class="cls-13" cx="86.82" cy="193.84" r="107.13"/>
    <circle class="cls-4" cx="86.82" cy="193.84" r="54.16"/>
    <g>
      <g id="_x3C_Radial_Repeat_x3E_">
        <rect class="cls-4" x="-73.71" y="343.44" width="268.32" height=".62" transform="translate(-288.52 349.78) rotate(-81.02)"/>
      </g>
      <g id="_x3C_Radial_Repeat_x3E_-2" data-name="_x3C_Radial_Repeat_x3E_">
        <rect class="cls-4" x="-118.82" y="328.77" width="268.32" height=".62" transform="translate(-284.92 193.52) rotate(-63.03)"/>
      </g>
      <g id="_x3C_Radial_Repeat_x3E_-3" data-name="_x3C_Radial_Repeat_x3E_">
        <rect class="cls-4" x="-157.2" y="300.88" width="268.32" height=".62" transform="translate(-219.72 71.92) rotate(-45)"/>
      </g>
      <g id="_x3C_Radial_Repeat_x3E_-4" data-name="_x3C_Radial_Repeat_x3E_">
        <rect class="cls-4" x="-185.07" y="262.49" width="268.32" height=".62" transform="translate(-125.15 5.61) rotate(-27.07)"/>
      </g>
      <g id="_x3C_Radial_Repeat_x3E_-5" data-name="_x3C_Radial_Repeat_x3E_">
        <rect class="cls-4" x="-199.72" y="217.36" width="268.32" height=".62" transform="translate(-34.8 -7.57) rotate(-8.98)"/>
      </g>
      <g id="_x3C_Radial_Repeat_x3E_-6" data-name="_x3C_Radial_Repeat_x3E_">
        <rect class="cls-4" x="-65.86" y="36.07" width=".62" height="268.32" transform="translate(-223.5 78.97) rotate(-81.04)"/>
      </g>
      <g id="_x3C_Radial_Repeat_x3E_-7" data-name="_x3C_Radial_Repeat_x3E_">
        <rect class="cls-4" x="-51.19" y="-9.04" width=".62" height="268.32" transform="translate(-139.34 23.05) rotate(-63.04)"/>
      </g>
      <g id="_x3C_Radial_Repeat_x3E_-8" data-name="_x3C_Radial_Repeat_x3E_">
        <rect class="cls-4" x="-23.29" y="-47.41" width=".62" height="268.32" transform="translate(-68.13 9.19) rotate(-45.04)"/>
      </g>
      <g id="_x3C_Radial_Repeat_x3E_-9" data-name="_x3C_Radial_Repeat_x3E_">
        <rect class="cls-4" x="15.09" y="-75.29" width=".62" height="268.32" transform="translate(-25.08 13.44) rotate(-27.04)"/>
      </g>
      <g id="_x3C_Radial_Repeat_x3E_-10" data-name="_x3C_Radial_Repeat_x3E_">
        <rect class="cls-4" x="60.22" y="-89.94" width=".62" height="268.32" transform="translate(-6.2 10.06) rotate(-9.04)"/>
      </g>
      <g id="_x3C_Radial_Repeat_x3E_-11" data-name="_x3C_Radial_Repeat_x3E_">
        <rect class="cls-4" x="-26.19" y="43.92" width="268.32" height=".62" transform="translate(47.51 144.03) rotate(-81.07)"/>
      </g>
      <g id="_x3C_Radial_Repeat_x3E_-12" data-name="_x3C_Radial_Repeat_x3E_">
        <rect class="cls-4" x="18.93" y="58.59" width="268.32" height=".62" transform="translate(31.17 168.63) rotate(-63.03)"/>
      </g>
      <g id="_x3C_Radial_Repeat_x3E_-13" data-name="_x3C_Radial_Repeat_x3E_">
        <rect class="cls-4" x="57.3" y="86.49" width="268.32" height=".62" transform="translate(-5.3 160.8) rotate(-45)"/>
      </g>
      <g id="_x3C_Radial_Repeat_x3E_-14" data-name="_x3C_Radial_Repeat_x3E_">
        <rect class="cls-4" x="85.17" y="124.88" width="268.32" height=".62" transform="translate(-32.94 113.51) rotate(-27.07)"/>
      </g>
      <g id="_x3C_Radial_Repeat_x3E_-15" data-name="_x3C_Radial_Repeat_x3E_">
        <rect class="cls-4" x="99.82" y="170" width="268.32" height=".62" transform="translate(-23.75 38.67) rotate(-8.99)"/>
      </g>
      <g id="_x3C_Radial_Repeat_x3E_-16" data-name="_x3C_Radial_Repeat_x3E_">
        <rect class="cls-4" x="233.66" y="83.59" width=".62" height="268.32" transform="translate(-17.56 414.96) rotate(-81.04)"/>
      </g>
      <g id="_x3C_Radial_Repeat_x3E_-17" data-name="_x3C_Radial_Repeat_x3E_">
        <rect class="cls-4" x="218.99" y="128.71" width=".62" height="268.32" transform="translate(-114.42 339.17) rotate(-63.04)"/>
      </g>
      <g id="_x3C_Radial_Repeat_x3E_-18" data-name="_x3C_Radial_Repeat_x3E_">
        <rect class="cls-4" x="191.09" y="167.08" width=".62" height="268.32" transform="translate(-157 223.83) rotate(-45.04)"/>
      </g>
      <g id="_x3C_Radial_Repeat_x3E_-19" data-name="_x3C_Radial_Repeat_x3E_">
        <rect class="cls-4" x="152.71" y="194.96" width=".62" height="268.32" transform="translate(-132.9 105.55) rotate(-27.04)"/>
      </g>
      <g id="_x3C_Radial_Repeat_x3E_-20" data-name="_x3C_Radial_Repeat_x3E_">
        <rect class="cls-4" x="107.58" y="209.6" width=".62" height="268.32" transform="translate(-52.68 21.23) rotate(-9.04)"/>
      </g>
    </g>
    <rect class="cls-4" x="3.44" y="11.56" width="347.48" height="60.14"/>
    <rect class="cls-19" x="3.44" y="54.85" width="347.48" height="16.85"/>
    <g>
      <path class="cls-11" d="M318.23,233.86v17.5c0,2.21-1.79,4-4,4h-172.14v163.26c0,2.21-1.79,4-4,4h-17.5c-2.21,0-4-1.79-4-4v-163.26H16c-2.21,0-4-1.79-4-4v-17.5c0-2.21,1.79-4,4-4h100.59v-120.04H16c-2.21,0-4-1.79-4-4v-29.28c0-2.21,1.79-4,4-4h281.95c2.21,0,4,1.79,4,4v29.28c0,2.21-1.79,4-4,4h-155.86v120.04h172.14c2.21,0,4,1.79,4,4Z"/>
      <g>
        <rect class="cls-5" x="16" y="233.86" width="298.23" height="17.5"/>
        <rect class="cls-6" x="16" y="243.67" width="298.23" height="7.69"/>
        <rect class="cls-5" x="16" y="76.54" width="281.95" height="29.28"/>
        <rect class="cls-6" x="16" y="98.13" width="281.95" height="7.69"/>
        <rect class="cls-5" x="120.59" y="96.03" width="17.5" height="322.59"/>
        <rect class="cls-6" x="130.4" y="98.13" width="7.69" height="320.5"/>
      </g>
    </g>
    <g>
      <rect class="cls-8" x="277.39" y="-23.59" width="250.3" height="453.66"/>
      <path class="cls-18" d="M463.12-21.07c.13,52.02.25,104.03.38,156.05.09,35.98.17,71.98-1.38,107.93-.48,11.14-.96,22.99,4.6,32.66s19.69,15.23,28.2,8.01c6.18-5.24,6.77-14.4,6.89-22.5,1.45-98.71,2.9-197.42,4.35-296.12"/>
      <path class="cls-18" d="M421.88,393.4c.86,4.17,1.6,8.34,1.38,12.65-.28,5.71-2.63,11.61-7.39,14.78-4.82,3.21-11.04,3.07-16.82,2.74-16.18-.94-32.31-2.56-48.35-4.84-3.84-.55-8.02-1.32-10.53-4.28-3-3.55-2.44-8.86-1.07-13.31,4.81-15.63,16.94-27.71,28.15-39.62,9.88-10.49,19.15-21.67,23.34-35.7,4.17-13.95,3.21-29.58,3.93-44.1,2.73-55.01,1.43-110.85-.02-165.94-.7-26.37-1.75-52.72-3.15-79.06-.59-11.11-.8-21.1-4.38-31.45-3.27-9.47-6.47-19.11-8.86-28.87h36.23c.12,0,.73,55.33.77,58.43.58,44.19,1.16,88.37,1.74,132.56.61,46.83,1.23,93.66,1.84,140.49.23,17.51.46,35.02.69,52.53.08,6.07.16,12.14.24,18.22.07,5.06,1.25,9.9,2.25,14.76Z"/>
      <path class="cls-18" d="M319.03.05c-6.03,127.85-12.06,255.71-18.08,383.56,24.85-6.81,42.55-34.85,37.24-60.06V0"/>
      <path class="cls-12" d="M339.32,242.04c-.55,0-1-.45-1-1V16.32c0-.55.45-1,1-1s1,.45,1,1v224.73c0,.55-.45,1-1,1Z"/>
      <path class="cls-12" d="M415.47,406.53c-.55,0-1-.45-1-1V122.46c0-.55.45-1,1-1s1,.45,1,1v283.07c0,.55-.45,1-1,1Z"/>
      <path class="cls-12" d="M338.26,272.16c-.55,0-1-.45-1-1v-19.4c0-.55.45-1,1-1s1,.45,1,1v19.4c0,.55-.45,1-1,1Z"/>
      <path class="cls-12" d="M277.39,323.21c-1.1,0-2-.9-2-2V2.2c0-1.1.9-2,2-2s2,.9,2,2v319.01c0,1.1-.9,2-2,2Z"/>
    </g>
    <path class="cls-5" d="M16,488.62h365.91v99.38H47.79c-17.55,0-31.79-14.25-31.79-31.79v-67.58h0Z"/>
    <rect class="cls-6" x="16" y="488.62" width="365.91" height="39.79"/>
    <g>
      <path class="cls-11" d="M520.48,240.52v347.48c0,2.21-1.79,4-4,4h-134.57c-2.21,0-4-1.79-4-4V240.52c0-11.95,9.72-21.67,21.67-21.67h99.22c11.96,0,21.68,9.72,21.68,21.67Z"/>
      <g>
        <path class="cls-14" d="M381.91,588h134.57V240.52c0-9.76-7.91-17.67-17.67-17.67h-99.22c-9.76,0-17.67,7.91-17.67,17.67v347.48Z"/>
        <path class="cls-5" d="M381.91,588h134.57V247.08c0-9.76-7.91-17.67-17.67-17.67h-99.22c-9.76,0-17.67,7.91-17.67,17.67v340.92Z"/>
      </g>
    </g>
    <g>
      <path class="cls-9" d="M380.42,396.96v89.8c0,12.43-10.11,22.55-22.55,22.55h-204.62c-2.63,3.44-6.79,5.66-11.45,5.66h-59.65c-4.66,0-8.82-2.22-11.46-5.66H2.4c-2.21,0-4-1.79-4-4v-114.36c0-2.21,1.79-4,4-4h68.29c2.64-3.44,6.8-5.66,11.46-5.66h59.65c4.66,0,8.82,2.22,11.45,5.66h13.76c-1.72-2.95-2.94-6.07-3.57-9.23-.02-.04-.03-.08-.03-.12t-.01-.02c-.16-.86-.29-1.71-.37-2.56-.07-.73-.11-1.46-.12-2.2-.01-.73,0-1.45.06-2.18.04-.63.11-1.26.2-1.88,2.81-19.27,21.67-34.02,57.67-45.07,32.8-10.07,59.63-14.34,84.46-13.46,23.06.81,40.04,5.91,51.9,15.6.08.06.15.13.23.2,3.55,2.92,6.62,6.29,9.14,10.02,5.56,8.25,9.51,18.66,10.58,27.86,1.07,9.07-.61,17.05-4.84,23.06-.03.05-.07.09-.1.14,4.67.85,8.21,4.94,8.21,9.84Z"/>
      <path class="cls-4" d="M2.4,390.95h359.25c8.16,0,14.78,6.62,14.78,14.78v81.03c0,10.24-8.31,18.55-18.55,18.55H2.4v-114.36Z"/>
      <path class="cls-3" d="M2.4,390.95h368.01c3.32,0,6.02,2.69,6.02,6.02v17.52c0,5.41-4.38,9.79-9.79,9.79H2.4v-33.33Z"/>
      <rect class="cls-2" x="2.4" y="390.95" width="138.62" height="114.36"/>
      <rect class="cls-17" x="62.65" y="390.95" width="78.37" height="114.36"/>
      <rect class="cls-17" x="2.4" y="423.8" width="138.62" height="81.5"/>
      <rect class="cls-20" x="71.71" y="385.29" width="80.53" height="125.68" rx="10.44" ry="10.44"/>
      <path class="cls-2" d="M71.71,424.28h80.53v76.25c0,5.76-4.67,10.44-10.44,10.44h-59.66c-5.76,0-10.44-4.67-10.44-10.44v-76.25Z"/>
      <path class="cls-4" d="M369.04,384.68c-4.45,6.32-11.43,10.5-18.76,12.93-8.94,2.94-18.13,4.43-27.48,5.27-24.77,2.22-49.68,3-74.55,2.32-12.43-.33-24.86-1.03-37.25-2.1-10.62-.91-22.06-1.25-31.02-7.78-6.11-4.44-11.18-11.06-12.65-18.5-.47-2.42-.57-4.93-.2-7.47,3.46-23.73,35.41-35.85,54.88-41.83,26.93-8.26,55.02-14.28,83.15-13.28,17.09.6,36.21,3.84,49.51,14.7,3.24,2.64,6.14,5.74,8.58,9.36,4.61,6.84,8.82,16.55,9.93,26.08.86,7.34-.11,14.57-4.14,20.3Z"/>
      <path class="cls-3" d="M360.02,373.9c-4.35,6.18-11.18,10.27-18.36,12.66-8.76,2.87-17.76,4.33-26.91,5.16-24.26,2.18-48.65,2.93-73,2.27-12.18-.33-24.34-1.01-36.48-2.05-10.39-.9-21.6-1.23-30.38-7.62-2.84-2.07-5.45-4.62-7.56-7.5-.47-2.42-.57-4.93-.2-7.47,3.46-23.73,35.41-35.85,54.88-41.83,26.93-8.26,55.02-14.28,83.15-13.28,17.09.6,36.21,3.84,49.51,14.7,4.4,6.68,8.35,15.97,9.42,25.08.84,7.19-.12,14.27-4.07,19.88Z"/>
    </g>
  </g>
</svg>