<?xml version="1.0" encoding="UTF-8"?>
<svg id="Expanded" xmlns="http://www.w3.org/2000/svg" xmlns:xlink="http://www.w3.org/1999/xlink" viewBox="0 0 500 700">
  <defs>
    <style>
      .cls-1 {
        fill: #ffa9c2;
      }

      .cls-2 {
        fill: #fff;
      }

      .cls-3 {
        fill: #ea9939;
      }

      .cls-4 {
        fill: #d87625;
      }

      .cls-5 {
        fill: #7a1859;
      }

      .cls-6 {
        fill: #fff8d9;
      }

      .cls-7 {
        fill: #f4b545;
      }

      .cls-8 {
        fill: none;
      }

      .cls-9 {
        fill: #f47aa0;
      }

      .cls-10 {
        fill: #aa5217;
      }

      .cls-11 {
        fill: #e9f1f4;
      }

      .cls-12 {
        fill: #6d3108;
      }

      .cls-13 {
        fill: #79cdf6;
      }

      .cls-14 {
        fill: #4f94e0;
      }

      .cls-15 {
        fill: #ffe277;
      }

      .cls-16 {
        fill: #333;
      }

      .cls-17 {
        fill: #dd4a8c;
      }

      .cls-18 {
        fill: #3268b7;
      }

      .cls-19 {
        clip-path: url(#clippath);
      }
    </style>
    <clipPath id="clippath">
      <rect class="cls-8" x="-36" y="68" width="572" height="468" rx="32" ry="32" transform="translate(552 52) rotate(90)"/>
    </clipPath>
  </defs>
  <g>
    <g>
      <path class="cls-11" d="M48,699.5c-26.19,0-47.5-21.31-47.5-47.5V48C.5,21.81,21.81.5,48,.5h404c8.33,0,16.53,2.19,23.71,6.33,14.67,8.47,23.79,24.24,23.79,41.17v604c0,26.19-21.31,47.5-47.5,47.5H48Z"/>
      <path class="cls-16" d="M452,1c8.25,0,16.36,2.17,23.46,6.27,14.52,8.38,23.54,23.98,23.54,40.73v604c0,25.92-21.08,47-47,47H48c-25.92,0-47-21.08-47-47V48C1,22.08,22.08,1,48,1h404M452,0H48C21.49,0,0,21.49,0,48v604c0,26.51,21.49,48,48,48h404c26.51,0,48-21.49,48-48V48c0-17.79-9.67-33.31-24.04-41.6-7.05-4.07-15.23-6.4-23.96-6.4h0Z"/>
    </g>
    <path class="cls-2" d="M500,48v374.52L0,539.11V117.39L475.96,6.4c14.37,8.29,24.04,23.81,24.04,41.6Z"/>
    <path class="cls-2" d="M500,459.42v140.57l-428.9,100.01h-23.1c-26.51,0-48-21.49-48-48v-75.99l500-116.59Z"/>
    <path class="cls-16" d="M452,1c25.92,0,47,21.08,47,47v604c0,25.92-21.08,47-47,47H48c-25.92,0-47-21.08-47-47V48C1,22.08,22.08,1,48,1h404M452,0H48C21.49,0,0,21.49,0,48v604c0,26.51,21.49,48,48,48h404c26.51,0,48-21.49,48-48V48c0-26.51-21.49-48-48-48h0Z"/>
    <g>
      <rect class="cls-2" x="15" y="15" width="470" height="574" rx="33" ry="33"/>
      <path class="cls-16" d="M452,16c17.67,0,32,14.33,32,32v508c0,17.67-14.33,32-32,32H48c-17.67,0-32-14.33-32-32V48c0-17.67,14.33-32,32-32h404M452,14H48c-18.75,0-34,15.25-34,34v508c0,18.75,15.25,34,34,34h404c18.75,0,34-15.25,34-34V48c0-18.75-15.25-34-34-34h0Z"/>
    </g>
  </g>
  <g class="cls-19">
    <rect class="cls-18" x="0" y="-30" width="491.18" height="606.01"/>
    <circle class="cls-14" cx="249.09" cy="272" r="270.93"/>
    <circle class="cls-13" cx="249.09" cy="272" r="163.8"/>
    <g>
      <g id="_x3C_Radial_Repeat_x3E_">
        <rect class="cls-13" x="91.64" y="389.41" width="312.55" height="1" transform="translate(-143.68 635.15) rotate(-89.61)"/>
      </g>
      <g id="_x3C_Radial_Repeat_x3E_-2" data-name="_x3C_Radial_Repeat_x3E_">
        <rect class="cls-13" x="64.23" y="387.07" width="312.55" height="1" transform="translate(-197.84 541.89) rotate(-80.61)"/>
      </g>
      <g id="_x3C_Radial_Repeat_x3E_-3" data-name="_x3C_Radial_Repeat_x3E_">
        <rect class="cls-13" x="37.52" y="380.47" width="312.55" height="1" transform="translate(-228.85 444.73) rotate(-71.62)"/>
      </g>
      <g id="_x3C_Radial_Repeat_x3E_-4" data-name="_x3C_Radial_Repeat_x3E_">
        <rect class="cls-13" x="12.17" y="369.77" width="312.55" height="1" transform="translate(-237.81 349.48) rotate(-62.61)"/>
      </g>
      <g id="_x3C_Radial_Repeat_x3E_-5" data-name="_x3C_Radial_Repeat_x3E_">
        <rect class="cls-13" x="-11.19" y="355.24" width="312.55" height="1" transform="translate(-227.38 261.56) rotate(-53.62)"/>
      </g>
      <g id="_x3C_Radial_Repeat_x3E_-6" data-name="_x3C_Radial_Repeat_x3E_">
        <rect class="cls-13" x="-32" y="337.23" width="312.55" height="1" transform="translate(-201.36 184.54) rotate(-44.6)"/>
      </g>
      <g id="_x3C_Radial_Repeat_x3E_-7" data-name="_x3C_Radial_Repeat_x3E_">
        <rect class="cls-13" x="-49.72" y="316.19" width="312.55" height="1" transform="translate(-164.49 121.29) rotate(-35.62)"/>
      </g>
      <g id="_x3C_Radial_Repeat_x3E_-8" data-name="_x3C_Radial_Repeat_x3E_">
        <rect class="cls-13" x="-63.94" y="292.63" width="312.55" height="1" transform="translate(-121.64 72.52) rotate(-26.64)"/>
      </g>
      <g id="_x3C_Radial_Repeat_x3E_-9" data-name="_x3C_Radial_Repeat_x3E_">
        <rect class="cls-13" x="-74.3" y="267.15" width="312.55" height="1" transform="translate(-77.18 37.37) rotate(-17.62)"/>
      </g>
      <g id="_x3C_Radial_Repeat_x3E_-10" data-name="_x3C_Radial_Repeat_x3E_">
        <rect class="cls-13" x="-80.55" y="240.35" width="312.55" height="1" transform="translate(-35.37 14.13) rotate(-8.65)"/>
      </g>
      <g id="_x3C_Radial_Repeat_x3E_-11" data-name="_x3C_Radial_Repeat_x3E_">
        <rect class="cls-13" x="73.25" y="57.13" width="1" height="312.55" transform="translate(-140.13 285.76) rotate(-89.63)"/>
      </g>
      <g id="_x3C_Radial_Repeat_x3E_-12" data-name="_x3C_Radial_Repeat_x3E_">
        <rect class="cls-13" x="75.6" y="29.72" width="1" height="312.55" transform="translate(-119.81 230.78) rotate(-80.63)"/>
      </g>
      <g id="_x3C_Radial_Repeat_x3E_-13" data-name="_x3C_Radial_Repeat_x3E_">
        <rect class="cls-13" x="82.2" y="3.01" width="1" height="312.55" transform="translate(-94.53 187.55) rotate(-71.63)"/>
      </g>
      <g id="_x3C_Radial_Repeat_x3E_-14" data-name="_x3C_Radial_Repeat_x3E_">
        <rect class="cls-13" x="92.89" y="-22.34" width="1" height="312.55" transform="translate(-68.49 155.29) rotate(-62.63)"/>
      </g>
      <g id="_x3C_Radial_Repeat_x3E_-15" data-name="_x3C_Radial_Repeat_x3E_">
        <rect class="cls-13" x="107.43" y="-45.7" width="1" height="312.55" transform="translate(-45.11 131.9) rotate(-53.63)"/>
      </g>
      <g id="_x3C_Radial_Repeat_x3E_-16" data-name="_x3C_Radial_Repeat_x3E_">
        <rect class="cls-13" x="125.43" y="-66.5" width="1" height="312.55" transform="translate(-26.76 114.35) rotate(-44.63)"/>
      </g>
      <g id="_x3C_Radial_Repeat_x3E_-17" data-name="_x3C_Radial_Repeat_x3E_">
        <rect class="cls-13" x="146.47" y="-84.23" width="1" height="312.55" transform="translate(-14.46 99.09) rotate(-35.63)"/>
      </g>
      <g id="_x3C_Radial_Repeat_x3E_-18" data-name="_x3C_Radial_Repeat_x3E_">
        <rect class="cls-13" x="170.03" y="-98.45" width="1" height="312.55" transform="translate(-7.83 82.56) rotate(-26.63)"/>
      </g>
      <g id="_x3C_Radial_Repeat_x3E_-19" data-name="_x3C_Radial_Repeat_x3E_">
        <rect class="cls-13" x="195.52" y="-108.81" width="1" height="312.55" transform="translate(-5.17 61.58) rotate(-17.63)"/>
      </g>
      <g id="_x3C_Radial_Repeat_x3E_-20" data-name="_x3C_Radial_Repeat_x3E_">
        <rect class="cls-13" x="222.31" y="-115.05" width="1" height="312.55" transform="translate(-3.66 33.88) rotate(-8.63)"/>
      </g>
      <g id="_x3C_Radial_Repeat_x3E_-21" data-name="_x3C_Radial_Repeat_x3E_">
        <rect class="cls-13" x="93.98" y="38.75" width="312.55" height="1" transform="translate(209.3 289.23) rotate(-89.61)"/>
      </g>
      <g id="_x3C_Radial_Repeat_x3E_-22" data-name="_x3C_Radial_Repeat_x3E_">
        <rect class="cls-13" x="121.39" y="41.09" width="312.55" height="1" transform="translate(191.34 308.75) rotate(-80.61)"/>
      </g>
      <g id="_x3C_Radial_Repeat_x3E_-23" data-name="_x3C_Radial_Repeat_x3E_">
        <rect class="cls-13" x="148.1" y="47.69" width="312.55" height="1" transform="translate(162.66 321.84) rotate(-71.62)"/>
      </g>
      <g id="_x3C_Radial_Repeat_x3E_-24" data-name="_x3C_Radial_Repeat_x3E_">
        <rect class="cls-13" x="173.45" y="58.39" width="312.55" height="1" transform="translate(125.75 324.56) rotate(-62.61)"/>
      </g>
      <g id="_x3C_Radial_Repeat_x3E_-25" data-name="_x3C_Radial_Repeat_x3E_">
        <rect class="cls-13" x="196.81" y="72.92" width="312.55" height="1" transform="translate(84.63 314.23) rotate(-53.64)"/>
      </g>
      <g id="_x3C_Radial_Repeat_x3E_-26" data-name="_x3C_Radial_Repeat_x3E_">
        <rect class="cls-13" x="217.62" y="90.93" width="312.55" height="1" transform="translate(43.49 288.88) rotate(-44.6)"/>
      </g>
      <g id="_x3C_Radial_Repeat_x3E_-27" data-name="_x3C_Radial_Repeat_x3E_">
        <rect class="cls-13" x="235.34" y="111.97" width="312.55" height="1" transform="translate(7.76 249.1) rotate(-35.62)"/>
      </g>
      <g id="_x3C_Radial_Repeat_x3E_-28" data-name="_x3C_Radial_Repeat_x3E_">
        <rect class="cls-13" x="249.56" y="135.52" width="312.55" height="1" transform="translate(-17.91 196.41) rotate(-26.64)"/>
      </g>
      <g id="_x3C_Radial_Repeat_x3E_-29" data-name="_x3C_Radial_Repeat_x3E_">
        <rect class="cls-13" x="259.92" y="161.01" width="312.55" height="1" transform="translate(-29.36 133.57) rotate(-17.62)"/>
      </g>
      <g id="_x3C_Radial_Repeat_x3E_-30" data-name="_x3C_Radial_Repeat_x3E_">
        <rect class="cls-13" x="266.17" y="187.8" width="312.55" height="1" transform="translate(-23.52 65.7) rotate(-8.65)"/>
      </g>
      <g id="_x3C_Radial_Repeat_x3E_-31" data-name="_x3C_Radial_Repeat_x3E_">
        <rect class="cls-13" x="423.92" y="59.47" width="1" height="312.55" transform="translate(205.9 638.75) rotate(-89.63)"/>
      </g>
      <g id="_x3C_Radial_Repeat_x3E_-32" data-name="_x3C_Radial_Repeat_x3E_">
        <rect class="cls-13" x="421.58" y="86.89" width="1" height="312.55" transform="translate(113.41 619.99) rotate(-80.63)"/>
      </g>
      <g id="_x3C_Radial_Repeat_x3E_-33" data-name="_x3C_Radial_Repeat_x3E_">
        <rect class="cls-13" x="414.97" y="113.6" width="1" height="312.55" transform="translate(28.4 579.09) rotate(-71.63)"/>
      </g>
      <g id="_x3C_Radial_Repeat_x3E_-34" data-name="_x3C_Radial_Repeat_x3E_">
        <rect class="cls-13" x="404.28" y="138.94" width="1" height="312.55" transform="translate(-43.5 518.93) rotate(-62.63)"/>
      </g>
      <g id="_x3C_Radial_Repeat_x3E_-35" data-name="_x3C_Radial_Repeat_x3E_">
        <rect class="cls-13" x="389.74" y="162.31" width="1" height="312.55" transform="translate(-97.7 443.85) rotate(-53.63)"/>
      </g>
      <g id="_x3C_Radial_Repeat_x3E_-36" data-name="_x3C_Radial_Repeat_x3E_">
        <rect class="cls-13" x="371.74" y="183.11" width="1" height="312.55" transform="translate(-131.09 359.33) rotate(-44.63)"/>
      </g>
      <g id="_x3C_Radial_Repeat_x3E_-37" data-name="_x3C_Radial_Repeat_x3E_">
        <rect class="cls-13" x="350.7" y="200.84" width="1" height="312.55" transform="translate(-142.28 271.41) rotate(-35.63)"/>
      </g>
      <g id="_x3C_Radial_Repeat_x3E_-38" data-name="_x3C_Radial_Repeat_x3E_">
        <rect class="cls-13" x="327.14" y="215.06" width="1" height="312.55" transform="translate(-131.67 186.22) rotate(-26.63)"/>
      </g>
      <g id="_x3C_Radial_Repeat_x3E_-39" data-name="_x3C_Radial_Repeat_x3E_">
        <rect class="cls-13" x="301.65" y="225.41" width="1" height="312.55" transform="translate(-101.39 109.41) rotate(-17.63)"/>
      </g>
      <g id="_x3C_Radial_Repeat_x3E_-40" data-name="_x3C_Radial_Repeat_x3E_">
        <rect class="cls-13" x="274.86" y="231.66" width="1" height="312.55" transform="translate(-55.07 45.69) rotate(-8.63)"/>
      </g>
    </g>
    <g>
      <path class="cls-17" d="M532.77,502.36c0,85.21-127.01,154.29-283.68,154.29S-34.6,587.57-34.6,502.36c0-24.59,10.58-47.85,29.41-68.48,18.81-20.63,45.87-38.64,78.83-52.76,48.28-20.69,109.21-33.04,175.45-33.04s127.16,12.35,175.44,33.04c32.96,14.12,60.02,32.13,78.83,52.76,18.83,20.63,29.41,43.89,29.41,68.48Z"/>
      <path class="cls-9" d="M503.36,433.88c-5.31,56.42-117.12,101.48-254.27,101.48S.12,490.3-5.19,433.88c18.81-20.63,45.87-38.64,78.83-52.76,48.28-20.69,109.21-33.04,175.45-33.04s127.16,12.35,175.44,33.04c32.96,14.12,60.02,32.13,78.83,52.76Z"/>
      <path class="cls-1" d="M429.69,398.99c0,41.43-80.86,75.01-180.6,75.01s-180.61-33.58-180.61-75.01c0-6.16,1.79-12.15,5.16-17.87,48.28-20.69,109.21-33.04,175.45-33.04s127.16,12.35,175.44,33.04c3.37,5.72,5.16,11.71,5.16,17.87Z"/>
    </g>
    <rect class="cls-9" x="113.16" y="374.64" width="271.54" height="39.36" rx="12.62" ry="12.62"/>
    <path class="cls-5" d="M249.09,658.65c-76.1,0-147.68-16.13-201.55-45.43-54.25-29.51-84.13-68.88-84.13-110.85s29.88-81.35,84.13-110.85c53.87-29.3,125.45-45.43,201.55-45.43s147.68,16.13,201.55,45.43c54.25,29.51,84.13,68.88,84.13,110.85s-29.88,81.35-84.13,110.85c-53.87,29.3-125.45,45.43-201.55,45.43ZM249.09,350.08c-155.32,0-281.69,68.31-281.69,152.29s126.36,152.29,281.69,152.29,281.69-68.31,281.69-152.29-126.36-152.29-281.69-152.29Z"/>
    <g>
      <path class="cls-7" d="M391.22,290.69l-9.88,56.04-8.28,46.93c-1.06,6.01-6.87,10.45-13.7,10.45h-220.55c-6.83,0-12.64-4.44-13.7-10.45l-8.28-46.93-9.88-56.04h284.27Z"/>
      <path class="cls-15" d="M391.22,290.69l-9.88,52.37-3.6,19.04-2.47,13.11-2.21,11.7c-1.06,5.62-6.87,9.77-13.7,9.77h-220.55c-6.83,0-12.64-4.15-13.7-9.77l-2.21-11.7-2.47-13.11-3.6-19.04-9.88-52.37h284.27Z"/>
      <polygon class="cls-6" points="377.74 362.1 375.27 375.21 122.9 375.21 120.43 362.1 377.74 362.1"/>
      <polygon class="cls-7" points="391.22 290.69 381.34 346.73 116.83 346.73 106.95 290.69 391.22 290.69"/>
      <path class="cls-4" d="M369.83,290.69l-6.44,36.54-3.46,19.6-5.53,31.33c-.9,5.11-5.84,8.88-11.64,8.88h-187.35c-5.8,0-10.74-3.77-11.64-8.88l-5.53-31.33-3.46-19.6-6.44-36.54h241.49Z"/>
      <polygon class="cls-10" points="369.83 290.69 363.39 327.23 134.78 327.23 128.34 290.69 369.83 290.69"/>
      <path class="cls-12" d="M359.36,406.11h-220.54c-7.85,0-14.44-5.09-15.68-12.11l-18.16-102.96c-.1-.58.06-1.18.44-1.63.38-.45.94-.71,1.53-.71h284.27c.59,0,1.15.26,1.53.71.38.45.54,1.05.44,1.63l-18.16,102.96c-1.24,7.01-7.83,12.11-15.68,12.11ZM109.33,292.69l17.74,100.62c.9,5.1,5.84,8.8,11.74,8.8h220.54c5.81,0,10.85-3.78,11.74-8.8l17.74-100.62H109.33Z"/>
      <path class="cls-15" d="M386.58,265.17H111.59l10.39-26.65.58-1.48,9.51-24.38,3.34-8.57c2.5-6.42,5.73-12.19,9.51-17.18,5.51-7.28,12.22-12.91,19.61-16.49,4.42-2.15,9.08-3.56,13.88-4.14,1.7-.21,3.42-.32,5.15-.32h131.05c6.61,0,13.05,1.55,19.03,4.46,7.39,3.58,14.1,9.21,19.61,16.49,3.78,4.99,7.01,10.76,9.51,17.18l3.34,8.57,9.51,24.38,10.97,28.13Z"/>
      <path class="cls-6" d="M189.95,166.45c.47-.02.95-.03,1.43-.02,7.01.12,4.84.1-1.43.02Z"/>
      <path class="cls-6" d="M366.1,212.66h-234.03l3.34-8.57c2.5-6.42,5.73-12.19,9.51-17.18h208.33c3.78,4.99,7.01,10.76,9.51,17.18l3.34,8.57Z"/>
      <path class="cls-6" d="M333.64,170.42h-169.11c5.98-2.91,12.41-4.46,19.03-4.46h131.05c6.61,0,13.05,1.55,19.03,4.46Z"/>
      <polygon class="cls-7" points="386.58 265.17 111.59 265.17 122.56 237.04 375.61 237.04 386.58 265.17"/>
      <path class="cls-3" d="M361.39,265.17h-224.61l22.64-61.08c8.66-23.37,26.39-38.14,45.77-38.14h87.78c19.39,0,37.11,14.77,45.77,38.14l22.64,61.08Z"/>
      <path class="cls-4" d="M361.39,265.17h-224.61l22.64-61.08c5.85-15.78,15.84-27.64,27.67-33.67,5.69-2.9,11.81-4.46,18.11-4.46h87.78c6.29,0,12.41,1.56,18.1,4.46,11.83,6.03,21.82,17.89,27.67,33.67l22.64,61.08Z"/>
      <path class="cls-3" d="M311.08,170.42h-123.99c5.69-2.9,11.81-4.46,18.11-4.46h87.78c6.29,0,12.41,1.56,18.1,4.46Z"/>
      <path class="cls-12" d="M386.58,267.17H111.59c-.66,0-1.28-.33-1.65-.87s-.45-1.24-.21-1.85l23.82-61.08c9.48-24.31,28.65-39.41,50.02-39.41h131.04c21.37,0,40.54,15.1,50.02,39.41l23.82,61.08c.24.62.16,1.31-.21,1.85s-.99.87-1.65.87ZM114.52,263.17h269.13l-22.76-58.35c-8.87-22.74-26.61-36.86-46.29-36.86h-131.04c-19.68,0-37.42,14.13-46.29,36.86l-22.76,58.35Z"/>
      <rect class="cls-7" x="100.54" y="263.22" width="297.09" height="54.67" rx="9.29" ry="9.29"/>
      <rect class="cls-15" x="100.54" y="263.22" width="297.09" height="45.74" rx="9.29" ry="9.29"/>
      <rect class="cls-6" x="101.82" y="292.06" width="295.81" height="6.29"/>
      <path class="cls-6" d="M104.95,264.29h288.36c2.39,0,4.33,1.94,4.33,4.33v1.96H101.82v-3.16c0-1.73,1.4-3.13,3.13-3.13Z"/>
      <path class="cls-12" d="M388.34,319.89H109.83c-6.23,0-11.29-5.06-11.29-11.29v-36.09c0-6.23,5.06-11.29,11.29-11.29h278.51c6.23,0,11.29,5.06,11.29,11.29v36.09c0,6.23-5.06,11.29-11.29,11.29ZM109.83,265.22c-4.02,0-7.29,3.27-7.29,7.29v36.09c0,4.02,3.27,7.29,7.29,7.29h278.51c4.02,0,7.29-3.27,7.29-7.29v-36.09c0-4.02-3.27-7.29-7.29-7.29H109.83Z"/>
      <path class="cls-12" d="M146.14,241.38c-.13,0-.25-.02-.38-.07-.51-.21-.76-.79-.55-1.3l17.18-42.1c1.88-4.61,3.83-9.38,6.7-13.62,3.26-4.83,7.33-8.25,11.76-9.89.52-.19,1.09.07,1.29.59.19.52-.07,1.09-.59,1.29-5.1,1.9-8.69,6.01-10.8,9.14-2.75,4.07-4.66,8.74-6.5,13.26l-17.18,42.1c-.16.39-.53.62-.93.62Z"/>
      <path class="cls-12" d="M142.87,249.95c-.13,0-.27-.03-.4-.08-.51-.22-.74-.81-.52-1.32l1.49-3.44c.22-.51.81-.74,1.32-.52s.74.81.52,1.32l-1.49,3.44c-.16.38-.53.6-.92.6Z"/>
      <path class="cls-12" d="M360.74,262.67c-.4,0-.77-.24-.93-.63l-19.37-49c-.2-.51.05-1.09.56-1.3.52-.2,1.09.05,1.3.56l19.37,49c.2.51-.05,1.09-.56,1.3-.12.05-.25.07-.37.07Z"/>
      <path class="cls-12" d="M323.42,181.14c-.25,0-.51-.1-.7-.29-7.03-6.95-15.83-11.83-25.45-14.12-.54-.13-.87-.67-.74-1.2s.67-.87,1.2-.74c9.97,2.37,19.1,7.44,26.39,14.64.39.39.4,1.02,0,1.41-.2.2-.45.3-.71.3Z"/>
      <path class="cls-12" d="M267.08,388.04h0l-114.35-1.01c-4.71-.04-8.73-3.43-9.57-8.06l-9.35-51.56c-.1-.54.26-1.06.81-1.16.54-.1,1.06.26,1.16.81l9.35,51.56c.67,3.69,3.87,6.39,7.62,6.42l114.35,1.01c.55,0,1,.46.99,1.01,0,.55-.45.99-1,.99Z"/>
      <path class="cls-12" d="M273.35,388.22c-.53,0-.98-.42-1-.96-.02-.55.41-1.02.96-1.04l4.94-.19c.55-.04,1.02.41,1.04.96.02.55-.41,1.02-.96,1.04l-4.94.19s-.03,0-.04,0Z"/>
      <path class="cls-12" d="M343.08,388.22h-20.64c-.55,0-1-.45-1-1s.45-1,1-1h20.64c4.96,0,9.2-3.54,10.09-8.42l7.89-43.16c.1-.54.62-.9,1.16-.8.54.1.9.62.8,1.16l-7.89,43.16c-1.06,5.83-6.14,10.06-12.06,10.06Z"/>
      <path class="cls-12" d="M363.45,329.29c-.05,0-.1,0-.16-.01-.55-.09-.92-.6-.83-1.14l1.41-8.89c.09-.55.6-.92,1.15-.83.55.09.92.6.83,1.15l-1.41,8.89c-.08.49-.5.84-.99.84Z"/>
      <path class="cls-10" d="M391.54,292.21H114.9l-7.96-.42c-.55-.03-.98-.5-.95-1.05.03-.55.5-.97,1.05-.95l7.91.42h276.59c.55,0,1,.45,1,1s-.45,1-1,1Z"/>
      <g>
        <path class="cls-7" d="M216.09,292.06h65.99v45.38c0,5.13-4.16,9.29-9.29,9.29h-47.41c-5.13,0-9.29-4.16-9.29-9.29v-45.38h0Z"/>
        <path class="cls-15" d="M216.09,292.06h65.99v33.94c0,5.13-4.16,9.29-9.29,9.29h-47.41c-5.13,0-9.29-4.16-9.29-9.29v-33.94h0Z"/>
        <rect class="cls-6" x="217.35" y="293.72" width="64.16" height="6.29"/>
        <path class="cls-12" d="M272.79,348.73h-47.41c-6.23,0-11.29-5.06-11.29-11.29v-45.38c0-1.1.9-2,2-2h65.99c1.1,0,2,.9,2,2v45.38c0,6.23-5.06,11.29-11.29,11.29ZM218.09,294.06v43.38c0,4.02,3.27,7.29,7.29,7.29h47.41c4.02,0,7.29-3.27,7.29-7.29v-43.38h-61.99Z"/>
        <circle class="cls-12" cx="249.09" cy="321.35" r="8.18"/>
        <rect class="cls-12" x="244.65" y="303.57" width="8.86" height="17.78" rx="1.45" ry="1.45"/>
      </g>
      <path class="cls-10" d="M320.5,189.54h-145.36c-.55,0-1-.45-1-1s.45-1,1-1h145.36c.55,0,1,.45,1,1s-.45,1-1,1Z"/>
      <path class="cls-10" d="M329.98,212.42h-114.86c-.55,0-1-.45-1-1s.45-1,1-1h114.86c.55,0,1,.45,1,1s-.45,1-1,1Z"/>
      <path class="cls-10" d="M201.07,212.42h-9.07c-.55,0-1-.45-1-1s.45-1,1-1h9.07c.55,0,1,.45,1,1s-.45,1-1,1Z"/>
      <path class="cls-10" d="M248.95,238.2h-93.49c-.55,0-1-.45-1-1s.45-1,1-1h93.49c.55,0,1,.45,1,1s-.45,1-1,1Z"/>
      <path class="cls-10" d="M264.86,237.63h-8.26c-.55,0-1-.45-1-1s.45-1,1-1h8.26c.55,0,1,.45,1,1s-.45,1-1,1Z"/>
      <path class="cls-10" d="M345.84,238.2h-47.88c-.55,0-1-.45-1-1s.45-1,1-1h47.88c.55,0,1,.45,1,1s-.45,1-1,1Z"/>
      <path class="cls-10" d="M287.32,367.33h-140.83c-.55,0-1-.45-1-1s.45-1,1-1h140.83c.55,0,1,.45,1,1s-.45,1-1,1Z"/>
      <path class="cls-10" d="M303.89,366.43h-8.8c-.55,0-1-.45-1-1s.45-1,1-1h8.8c.55,0,1,.45,1,1s-.45,1-1,1Z"/>
      <path class="cls-10" d="M356.63,340.65h-66.39c-.55,0-1-.45-1-1s.45-1,1-1h66.39c.55,0,1,.45,1,1s-.45,1-1,1Z"/>
      <path class="cls-10" d="M191.64,339.35h-50.77c-.55,0-1-.45-1-1s.45-1,1-1h50.77c.55,0,1,.45,1,1s-.45,1-1,1Z"/>
    </g>
  </g>
  <g>
    <path class="cls-16" d="M158.09,649.88c.47,0,.84.14,1.12.43.28.29.41.73.41,1.32s-.14,1.03-.41,1.32c-.27.29-.65.43-1.12.43h-9.33c-.64,0-1.12-.17-1.47-.52-.34-.35-.52-.84-.52-1.46v-17.73c0-.61.18-1.09.53-1.42.35-.33.9-.5,1.64-.5s1.3.17,1.66.5c.35.33.53.81.53,1.42v16.22h6.95Z"/>
    <path class="cls-16" d="M165.26,646.32v.03c.06.65.21,1.22.44,1.72.23.5.53.92.91,1.27.38.34.84.6,1.37.78.53.18,1.12.27,1.78.27.54,0,1.01-.04,1.4-.11.39-.07.73-.15,1.02-.24.29-.09.55-.17.77-.24.22-.07.43-.11.63-.11s.38.04.53.11c.16.07.29.17.4.29.11.12.19.26.25.41.06.16.09.32.09.5,0,.26-.04.49-.12.68-.08.19-.22.38-.41.57-.16.16-.39.32-.69.49-.3.17-.67.33-1.12.47-.44.14-.96.26-1.55.35-.59.09-1.24.14-1.96.14-1.24,0-2.35-.18-3.34-.54-.99-.36-1.83-.88-2.52-1.55s-1.21-1.48-1.58-2.44c-.37-.95-.55-2.02-.55-3.21,0-1.38.2-2.62.59-3.71.39-1.09.93-2.01,1.63-2.76.7-.75,1.53-1.32,2.51-1.72.97-.4,2.04-.59,3.21-.59,1,0,1.91.16,2.72.47s1.5.76,2.08,1.35c.57.59,1.02,1.3,1.33,2.15s.47,1.8.47,2.88c0,.78-.18,1.36-.54,1.73s-.87.56-1.54.56h-8.22ZM171.6,643.6c-.14-1.17-.45-2.03-.95-2.58-.5-.55-1.2-.83-2.1-.83-.38,0-.73.07-1.08.2-.34.13-.66.33-.95.61-.29.28-.53.63-.74,1.05-.21.43-.37.94-.48,1.55h6.3Z"/>
    <path class="cls-16" d="M190.85,639.01c.5.47.88,1.01,1.14,1.61.26.6.39,1.25.39,1.92,0,.84-.15,1.62-.46,2.34-.31.72-.76,1.34-1.35,1.85s-1.33.92-2.2,1.21c-.88.29-1.88.44-3.02.44-.34,0-.67-.02-.99-.05-.32-.04-.62-.1-.9-.18-.12.12-.24.23-.34.36-.08.12-.16.25-.23.39-.07.15-.1.31-.1.48,0,.21.04.4.12.56.08.17.23.31.43.42.2.12.48.2.84.27.35.06.8.09,1.34.09h1.94c1.06,0,1.98.1,2.76.31.78.21,1.42.51,1.92.9.5.39.88.86,1.12,1.41.24.55.37,1.16.37,1.85,0,.8-.18,1.56-.55,2.27-.37.71-.91,1.34-1.62,1.87s-1.62.95-2.69,1.27c-1.07.31-2.31.47-3.72.47-1.31,0-2.44-.12-3.37-.38-.93-.25-1.69-.59-2.28-1.02-.59-.43-1.02-.92-1.3-1.49-.28-.57-.41-1.17-.41-1.8,0-.69.13-1.28.38-1.77.25-.5.54-.91.85-1.24.35-.38.77-.7,1.23-.95-.37-.32-.64-.69-.84-1.1-.19-.41-.29-.86-.29-1.35,0-.46.08-.87.25-1.23.17-.36.35-.68.56-.94.24-.3.52-.57.83-.81-.65-.5-1.14-1.09-1.48-1.76-.34-.67-.51-1.4-.51-2.18,0-.84.15-1.62.46-2.34.31-.71.76-1.33,1.35-1.85.59-.52,1.33-.93,2.2-1.22.88-.29,1.88-.44,3.03-.44.47,0,.91.03,1.34.1.42.07.83.16,1.21.29l1.78-2.18c.28-.35.53-.59.74-.72.21-.14.47-.2.76-.2.22,0,.43.04.64.13.21.09.39.21.55.35s.28.32.38.53c.1.2.15.42.15.63,0,.27-.08.51-.24.73-.16.21-.4.47-.73.78l-1.47,1.38ZM185.09,653.76c-.37,0-.71-.02-1.02-.05-.32-.03-.63-.08-.95-.16-.22.18-.41.38-.58.59-.15.19-.28.42-.4.7-.12.28-.18.59-.18.93,0,.32.07.62.2.91.13.28.34.52.62.73s.64.36,1.07.48c.43.12.95.18,1.55.18.7,0,1.3-.07,1.81-.2.51-.13.93-.31,1.27-.53.33-.22.58-.48.75-.78.17-.3.25-.61.25-.95,0-.28-.05-.53-.15-.76-.1-.22-.26-.42-.48-.59-.22-.17-.51-.29-.86-.38-.35-.09-.79-.13-1.3-.13h-1.62ZM182.76,642.76c0,.41.06.78.2,1.11.13.33.31.62.55.85.24.23.53.41.88.54.35.12.74.19,1.18.19s.83-.06,1.16-.19c.34-.12.63-.3.87-.53.24-.23.42-.5.55-.83.12-.32.19-.68.19-1.08s-.07-.77-.2-1.1c-.13-.33-.32-.61-.55-.84-.24-.23-.54-.42-.89-.55-.35-.13-.75-.2-1.19-.2s-.81.06-1.16.19-.63.3-.87.53c-.23.23-.41.51-.54.83-.12.32-.19.68-.19,1.08Z"/>
    <path class="cls-16" d="M205.1,643.23c0-.5-.06-.92-.17-1.28-.12-.35-.3-.64-.55-.86-.26-.22-.59-.39-1.02-.5-.42-.11-.94-.16-1.54-.16-.65,0-1.2.05-1.65.14s-.85.2-1.18.32c-.33.12-.62.23-.87.32-.25.09-.48.14-.7.14-.38,0-.69-.12-.93-.36-.25-.24-.37-.59-.37-1.05,0-.24.04-.45.11-.62.07-.18.2-.35.38-.53.17-.17.43-.34.8-.53.37-.19.82-.36,1.34-.52.53-.16,1.13-.29,1.8-.39.68-.1,1.41-.16,2.2-.16,2.18,0,3.81.47,4.91,1.41,1.09.94,1.64,2.32,1.64,4.12v5.11c0,.71.03,1.28.09,1.72.06.44.12.8.18,1.09.06.29.12.53.18.73.06.19.09.4.09.62s-.04.42-.12.61c-.08.19-.2.35-.36.49s-.35.25-.59.33-.5.12-.8.12c-.32,0-.61-.05-.87-.15-.26-.1-.48-.24-.67-.41-.19-.18-.35-.39-.48-.63-.13-.24-.24-.51-.32-.8h-.05c-.32.41-.71.77-1.17,1.08-.4.27-.89.52-1.49.73-.6.22-1.3.33-2.12.33-.87,0-1.64-.12-2.32-.37-.68-.25-1.26-.58-1.73-1.02-.47-.43-.84-.95-1.09-1.54s-.38-1.24-.38-1.94c0-.75.17-1.41.5-1.99.33-.57.8-1.05,1.41-1.43.6-.38,1.33-.67,2.19-.86.85-.19,1.81-.29,2.86-.29.44,0,.83.02,1.18.05.35.03.65.06.9.09.29.04.55.09.78.14v-1.29ZM205.1,647.26c-.21-.05-.44-.1-.69-.14-.22-.04-.47-.08-.77-.11-.29-.03-.62-.05-.98-.05-1.04,0-1.82.15-2.32.44-.51.29-.76.72-.76,1.28,0,.27.05.52.16.75.1.23.25.43.45.59.2.17.44.3.73.4.29.1.63.15,1.02.15.5,0,.95-.09,1.34-.27.39-.18.72-.37.99-.58.31-.25.59-.53.83-.84v-1.62Z"/>
    <path class="cls-16" d="M212.84,646.04c0-1.36.2-2.59.6-3.69.4-1.09.97-2.02,1.7-2.79s1.61-1.35,2.63-1.76c1.02-.41,2.15-.61,3.39-.61.48,0,.91.03,1.3.1.38.07.73.15,1.02.25.3.1.55.21.75.34s.36.25.48.38c.19.18.33.37.41.59.09.21.13.48.13.79,0,.21-.03.4-.1.58-.07.18-.16.33-.27.46-.12.13-.26.23-.42.3-.17.07-.35.11-.55.11-.21,0-.4-.03-.57-.09s-.36-.13-.56-.21-.44-.15-.71-.22c-.27-.07-.6-.1-.98-.1-.54,0-1.05.11-1.53.33-.48.22-.9.54-1.25.97-.35.43-.63.96-.84,1.6s-.3,1.38-.3,2.23c0,.77.1,1.45.31,2.05.21.59.49,1.09.86,1.5.36.41.8.72,1.31.93.51.21,1.07.32,1.67.32.41,0,.75-.03,1.02-.09.28-.06.52-.13.72-.2.2-.07.38-.14.55-.2.16-.06.33-.09.49-.09.19,0,.36.04.52.11.16.07.29.17.39.3.1.12.18.27.24.43.06.16.09.33.09.51,0,.27-.05.51-.14.72-.09.21-.23.41-.41.59-.16.16-.36.31-.62.46-.26.15-.56.28-.92.4s-.77.21-1.24.28c-.47.07-.99.11-1.56.11-1.16,0-2.2-.18-3.14-.54s-1.74-.87-2.4-1.54c-.66-.67-1.17-1.47-1.53-2.41-.36-.94-.54-2-.54-3.16Z"/>
    <path class="cls-16" d="M227.15,640.57c-.14-.36-.22-.63-.26-.8-.04-.17-.05-.33-.05-.48,0-.31.07-.59.22-.83.15-.24.33-.44.56-.61.23-.17.48-.29.76-.38.28-.09.55-.13.82-.13.3,0,.55.05.76.14.2.09.38.22.52.38.15.15.26.32.34.53.08.21.18.5.3.86l2.75,8.23c.1.3.2.6.28.89.08.29.15.55.2.78.06.27.12.53.17.77h.06c.06-.24.12-.49.19-.77.05-.23.12-.49.2-.78.08-.29.17-.59.27-.89l2.71-8.33c.1-.31.2-.58.28-.79.08-.21.19-.39.33-.54.15-.16.33-.28.54-.36.21-.08.47-.12.76-.12.26,0,.52.04.79.12.27.08.51.19.72.34.21.15.39.34.52.56.13.22.2.48.2.77,0,.15-.02.3-.05.45-.04.16-.11.4-.23.72l-4.05,10.94c-.64,1.71-1.29,3.17-1.97,4.4-.68,1.22-1.4,2.23-2.17,3.01s-1.61,1.36-2.51,1.73c-.9.37-1.89.55-2.98.55-.55,0-1.03-.07-1.43-.2-.4-.13-.72-.32-.95-.55-.34-.34-.52-.78-.52-1.3,0-.44.13-.78.39-1.04.26-.26.61-.38,1.06-.38.15,0,.28,0,.4.02.12,0,.23.02.34.04s.22.03.34.04c.11,0,.24.02.39.02.42,0,.81-.07,1.18-.22.37-.15.71-.36,1.04-.64.32-.28.63-.63.91-1.05s.56-.91.82-1.47l-4.96-13.62Z"/>
    <path class="cls-16" d="M253.52,633.84c0-.62.17-1.11.52-1.46.34-.35.83-.52,1.47-.52h4.64c1.44,0,2.67.14,3.69.41,1.02.27,1.86.65,2.51,1.12.65.48,1.12,1.05,1.42,1.7s.45,1.37.45,2.14c0,.58-.08,1.12-.24,1.62-.16.5-.39.95-.69,1.35-.3.4-.66.75-1.08,1.05s-.9.53-1.43.71v.05c.63.12,1.21.3,1.73.57.52.27.96.6,1.33,1.01.36.41.65.88.84,1.41.2.54.3,1.13.3,1.79,0,.95-.18,1.82-.54,2.62-.36.8-.91,1.5-1.66,2.09-.75.59-1.69,1.05-2.84,1.38-1.15.33-2.52.5-4.1.5h-4.33c-.64,0-1.12-.17-1.47-.52-.34-.35-.52-.84-.52-1.46v-17.56ZM259.9,640.71c.69,0,1.28-.07,1.78-.22.5-.15.9-.35,1.22-.6.32-.25.56-.56.71-.91.16-.35.24-.74.24-1.16s-.07-.79-.21-1.12c-.14-.33-.37-.62-.68-.86-.31-.24-.72-.42-1.21-.55-.5-.13-1.09-.2-1.79-.2h-2.16v5.62h2.12ZM260.05,650.15c.79,0,1.47-.08,2.04-.23.57-.16,1.03-.38,1.4-.66.36-.28.63-.61.8-1,.17-.38.26-.81.26-1.27s-.08-.88-.24-1.25c-.16-.38-.42-.7-.77-.96-.35-.27-.82-.47-1.39-.62-.57-.15-1.27-.22-2.09-.22h-2.27v6.2h2.27Z"/>
    <path class="cls-16" d="M272.6,639.26c0-.59.17-1.05.52-1.38s.88-.49,1.61-.49,1.25.16,1.6.49c.35.33.52.79.52,1.38v7.42c0,1.27.25,2.19.74,2.76.49.57,1.17.85,2.04.85.28,0,.54-.03.78-.09.24-.06.46-.15.67-.26.21-.11.4-.23.57-.37.17-.13.33-.28.48-.42.32-.33.6-.71.83-1.14v-8.75c0-.59.17-1.05.52-1.38.35-.33.88-.49,1.6-.49s1.27.16,1.61.49.52.79.52,1.38v12.52c0,.57-.15,1.01-.45,1.31-.3.3-.74.45-1.31.45-.28,0-.53-.03-.74-.1-.21-.07-.4-.17-.55-.3-.15-.13-.27-.29-.37-.48s-.16-.4-.2-.64l-.12-.78h-.06c-.3.46-.68.87-1.14,1.22-.2.16-.42.31-.67.45-.25.15-.53.28-.84.39s-.65.21-1.02.27c-.37.07-.77.1-1.21.1-.91,0-1.72-.14-2.45-.42-.72-.28-1.34-.7-1.86-1.25-.52-.55-.91-1.23-1.19-2.04-.28-.81-.41-1.74-.41-2.79v-7.92Z"/>
    <path class="cls-16" d="M291.38,632.8c0-.34.06-.66.19-.96s.3-.55.52-.77c.22-.22.49-.39.81-.52.32-.12.67-.19,1.05-.19.36,0,.7.06,1.01.19.31.12.57.29.8.51.22.21.4.46.52.75.12.29.19.6.19.93s-.06.66-.19.96-.3.55-.53.77c-.23.22-.5.39-.81.52s-.66.19-1.05.19-.7-.06-1.01-.19c-.31-.12-.57-.29-.8-.51-.22-.21-.4-.46-.52-.75-.12-.29-.19-.6-.19-.93ZM291.8,639.26c0-.59.17-1.05.52-1.38.35-.33.88-.49,1.6-.49s1.25.16,1.6.49c.35.33.52.79.52,1.38v12.36c0,.59-.17,1.05-.52,1.38-.35.33-.88.49-1.6.49s-1.25-.16-1.6-.49c-.35-.33-.52-.79-.52-1.38v-12.36Z"/>
    <path class="cls-16" d="M300.57,632.1c0-.59.17-1.05.52-1.38.35-.33.88-.49,1.6-.49s1.25.16,1.6.49c.35.33.52.79.52,1.38v16.08c0,.41.03.75.08,1.02.05.27.13.48.23.64.1.16.22.27.35.33.13.06.29.09.45.09.15,0,.28,0,.39-.02.11-.02.23-.02.34-.02.13,0,.27.03.39.08.12.05.23.13.33.23.09.1.17.23.23.38.06.15.09.33.09.52,0,.3-.04.56-.13.77-.09.21-.21.39-.37.55-.1.1-.23.2-.38.3-.15.09-.32.18-.52.26s-.45.14-.73.19-.6.07-.97.07c-1.32,0-2.33-.35-3.01-1.05-.68-.7-1.02-1.77-1.02-3.2v-17.2Z"/>
    <path class="cls-16" d="M320.12,632.1c0-.59.17-1.05.52-1.38.35-.33.88-.49,1.6-.49s1.25.16,1.6.49c.35.33.52.79.52,1.38v19.67c0,.57-.15,1.01-.45,1.31-.3.3-.74.45-1.31.45-.28,0-.53-.03-.74-.1-.21-.07-.4-.17-.55-.3-.15-.13-.27-.29-.37-.48s-.16-.4-.2-.64l-.14-.78h-.05c-.31.46-.7.87-1.16,1.22-.4.3-.9.58-1.51.84s-1.34.38-2.2.38c-.98,0-1.87-.16-2.67-.49-.8-.33-1.49-.82-2.06-1.47-.57-.65-1.02-1.46-1.33-2.44-.31-.97-.47-2.11-.47-3.41s.2-2.59.59-3.66c.4-1.08.97-1.99,1.73-2.73.75-.74,1.68-1.31,2.79-1.7,1.1-.39,2.37-.59,3.8-.59.3,0,.58.01.83.04.25.03.46.05.64.09.21.04.4.08.58.12l.05-.02c-.03-.53-.05-1.09-.05-1.69v-3.62ZM320.12,640.95c-.18-.09-.39-.18-.62-.25-.21-.06-.46-.12-.77-.17-.3-.05-.65-.08-1.05-.08-.62,0-1.19.11-1.7.32-.51.21-.95.53-1.32.96-.37.43-.66.96-.86,1.59-.2.64-.3,1.38-.3,2.23s.08,1.6.23,2.2c.16.6.38,1.09.66,1.46.29.38.63.65,1.03.82.4.17.85.26,1.34.26.28,0,.54-.03.79-.09.24-.06.47-.15.68-.26.21-.11.4-.23.57-.37.17-.13.33-.28.48-.42.33-.33.61-.71.84-1.14v-7.06Z"/>
    <path class="cls-16" d="M332.21,646.32v.03c.06.65.21,1.22.44,1.72.23.5.53.92.91,1.27.38.34.84.6,1.37.78.53.18,1.12.27,1.78.27.54,0,1.01-.04,1.4-.11.39-.07.73-.15,1.02-.24.29-.09.55-.17.77-.24.22-.07.43-.11.63-.11s.38.04.53.11c.16.07.29.17.4.29.11.12.19.26.25.41.06.16.09.32.09.5,0,.26-.04.49-.12.68-.08.19-.22.38-.41.57-.16.16-.39.32-.69.49-.3.17-.67.33-1.12.47-.44.14-.96.26-1.55.35-.59.09-1.24.14-1.96.14-1.24,0-2.35-.18-3.34-.54-.99-.36-1.83-.88-2.52-1.55s-1.21-1.48-1.58-2.44c-.37-.95-.55-2.02-.55-3.21,0-1.38.2-2.62.59-3.71.39-1.09.93-2.01,1.63-2.76.7-.75,1.53-1.32,2.51-1.72.97-.4,2.04-.59,3.21-.59,1,0,1.91.16,2.72.47s1.5.76,2.08,1.35c.57.59,1.02,1.3,1.33,2.15s.47,1.8.47,2.88c0,.78-.18,1.36-.54,1.73s-.87.56-1.54.56h-8.22ZM338.55,643.6c-.14-1.17-.45-2.03-.95-2.58-.5-.55-1.2-.83-2.1-.83-.38,0-.73.07-1.08.2-.34.13-.66.33-.95.61-.29.28-.53.63-.74,1.05-.21.43-.37.94-.48,1.55h6.3Z"/>
    <path class="cls-16" d="M346.18,639.1c0-.57.15-1.01.45-1.31s.74-.45,1.31-.45c.28,0,.53.03.74.1.21.07.4.17.55.3.15.13.27.29.37.48.09.19.16.41.2.65l.2,1.14h.05c.2-.41.43-.78.69-1.13.26-.35.55-.65.88-.9.32-.25.67-.45,1.04-.59.37-.14.76-.21,1.16-.21.59,0,1.05.16,1.38.48.32.32.48.82.48,1.5,0,.79-.15,1.4-.45,1.84-.3.43-.66.65-1.08.65-.12,0-.22-.01-.31-.04-.09-.03-.19-.05-.27-.08-.09-.03-.18-.05-.27-.08-.09-.03-.2-.04-.33-.04-.25,0-.5.07-.74.2-.25.13-.47.3-.69.51-.21.21-.41.45-.6.71s-.35.54-.5.82v7.97c0,.59-.17,1.05-.52,1.38-.35.33-.88.49-1.6.49s-1.25-.16-1.6-.49c-.35-.33-.52-.79-.52-1.38v-12.52Z"/>
  </g>
</svg>