<?xml version="1.0" encoding="UTF-8"?>
<svg xmlns="http://www.w3.org/2000/svg" xmlns:xlink="http://www.w3.org/1999/xlink" viewBox="0 0 500 700">
  <defs>
    <style>
      .cls-1 {
        fill: #dd2a39;
      }

      .cls-2 {
        fill: #4d4d4d;
      }

      .cls-3 {
        fill: #fff;
      }

      .cls-4 {
        fill: #ea9939;
      }

      .cls-5 {
        fill: #d87625;
      }

      .cls-6 {
        fill: #f4b545;
      }

      .cls-7 {
        fill: none;
      }

      .cls-8 {
        fill: #aa5217;
      }

      .cls-9 {
        fill: #404040;
      }

      .cls-10 {
        fill: #f43f3f;
      }

      .cls-11 {
        fill: #e9f1f4;
      }

      .cls-12 {
        fill: #6d3108;
      }

      .cls-13 {
        fill: #666;
      }

      .cls-14 {
        fill: #ffe277;
      }

      .cls-15 {
        fill: #333;
      }

      .cls-16 {
        fill: #999;
      }

      .cls-17 {
        fill: #b51933;
      }

      .cls-18 {
        fill: #ff7d63;
      }

      .cls-19 {
        clip-path: url(#clippath);
      }
    </style>
    <clipPath id="clippath">
      <rect class="cls-7" x="-36" y="68" width="572" height="468" rx="32" ry="32" transform="translate(552 52) rotate(90)"/>
    </clipPath>
  </defs>
  <g id="BG">
    <g>
      <g>
        <path class="cls-11" d="M48,699.5c-26.19,0-47.5-21.31-47.5-47.5V48C.5,21.81,21.81.5,48,.5h404c8.33,0,16.53,2.19,23.71,6.33,14.67,8.46,23.79,24.24,23.79,41.17v604c0,26.19-21.31,47.5-47.5,47.5H48Z"/>
        <path class="cls-15" d="M452,1c8.25,0,16.36,2.17,23.46,6.27,14.52,8.38,23.54,23.98,23.54,40.73v604c0,25.92-21.08,47-47,47H48c-25.92,0-47-21.08-47-47V48C1,22.08,22.08,1,48,1h404M452,0H48C21.49,0,0,21.49,0,48v604c0,26.51,21.49,48,48,48h404c26.51,0,48-21.49,48-48V48c0-17.79-9.67-33.31-24.04-41.6-7.05-4.07-15.23-6.4-23.96-6.4h0Z"/>
      </g>
      <path class="cls-3" d="M500,48v374.52L0,539.11V117.39L475.96,6.4c14.37,8.29,24.04,23.81,24.04,41.6Z"/>
      <path class="cls-3" d="M500,459.42v140.57l-428.9,100.01h-23.1c-26.51,0-48-21.49-48-48v-75.99l500-116.59Z"/>
      <path class="cls-15" d="M452,1c25.92,0,47,21.08,47,47v604c0,25.92-21.08,47-47,47H48c-25.92,0-47-21.08-47-47V48C1,22.08,22.08,1,48,1h404M452,0H48C21.49,0,0,21.49,0,48v604c0,26.51,21.49,48,48,48h404c26.51,0,48-21.49,48-48V48c0-26.51-21.49-48-48-48h0Z"/>
      <g>
        <rect class="cls-3" x="15" y="15" width="470" height="574" rx="33" ry="33"/>
        <path class="cls-15" d="M452,16c17.67,0,32,14.33,32,32v508c0,17.67-14.33,32-32,32H48c-17.67,0-32-14.33-32-32V48c0-17.67,14.33-32,32-32h404M452,14H48c-18.75,0-34,15.25-34,34v508c0,18.75,15.25,34,34,34h404c18.75,0,34-15.25,34-34V48c0-18.75-15.25-34-34-34h0Z"/>
      </g>
    </g>
  </g>
  <g id="Expanded">
    <g>
      <path class="cls-15" d="M178.59,633.66c0-.61.18-1.09.53-1.42.35-.33.9-.5,1.64-.5s1.3.17,1.66.5c.35.33.53.81.53,1.42v17.91c0,.62-.18,1.09-.53,1.42-.35.33-.91.5-1.66.5s-1.29-.17-1.64-.5c-.35-.33-.53-.81-.53-1.42v-17.91Z"/>
      <path class="cls-15" d="M187.81,639.1c0-.57.15-1.01.45-1.31s.74-.45,1.31-.45c.28,0,.53.03.74.1.21.07.4.17.55.3.16.13.28.29.38.48s.16.4.19.62l.12.8h.06c.3-.46.68-.86,1.14-1.22.2-.16.42-.31.67-.45.25-.15.53-.28.84-.39.31-.11.65-.21,1.02-.27.37-.07.77-.1,1.21-.1.92,0,1.74.14,2.48.42.74.28,1.37.7,1.89,1.25.52.55.92,1.23,1.2,2.04.28.81.41,1.74.41,2.79v7.92c0,.59-.17,1.05-.52,1.38-.35.33-.88.49-1.6.49s-1.25-.16-1.6-.49c-.35-.33-.52-.79-.52-1.38v-7.42c0-.63-.07-1.18-.2-1.64-.13-.46-.32-.83-.56-1.12-.25-.29-.54-.5-.9-.64-.35-.13-.76-.2-1.2-.2-.28,0-.54.03-.78.1-.24.07-.47.15-.68.26-.21.1-.41.23-.58.37s-.33.28-.46.41c-.33.34-.61.72-.83,1.14v8.75c0,.59-.17,1.05-.52,1.38-.35.33-.88.49-1.6.49s-1.25-.16-1.6-.49c-.35-.33-.52-.79-.52-1.38v-12.52Z"/>
      <path class="cls-15" d="M214.61,640.66c-.42,0-.75-.13-1.01-.41-.26-.27-.38-.67-.38-1.19s.13-.9.38-1.17c.25-.27.59-.41,1.01-.41h1.38l.5-2.64c.11-.59.33-1.03.65-1.31.32-.28.74-.42,1.27-.42s.96.15,1.25.45c.29.3.44.73.44,1.29v2.64h2.64c.42,0,.75.14,1.01.41.25.27.38.66.38,1.17s-.13.92-.38,1.19c-.26.27-.59.41-1.01.41h-2.64v7.52c0,.74.12,1.27.38,1.58s.63.47,1.16.47c.19,0,.35,0,.49-.03.14-.02.27-.05.38-.08.11-.03.22-.06.31-.08.09-.02.19-.03.3-.03.17,0,.32.03.46.09s.26.15.36.26c.1.11.18.24.23.4.06.16.09.33.09.52,0,.29-.05.54-.14.74s-.23.39-.41.57c-.1.1-.25.21-.43.33-.18.12-.41.22-.67.31s-.58.17-.93.23c-.35.06-.76.09-1.2.09-1.58,0-2.75-.38-3.5-1.13-.75-.75-1.12-1.91-1.12-3.46v-8.3h-1.23Z"/>
      <path class="cls-15" d="M226.95,632.1c0-.59.17-1.05.52-1.38.35-.33.88-.49,1.6-.49s1.25.16,1.6.49c.35.33.52.79.52,1.38v4.7c0,.41-.01.8-.03,1.18-.02.38-.06.79-.11,1.23h.05c.3-.38.67-.71,1.11-1,.19-.12.4-.25.63-.37.23-.12.49-.23.78-.33.29-.1.6-.18.93-.23.33-.06.7-.09,1.09-.09.92,0,1.74.14,2.48.42.74.28,1.37.7,1.89,1.25.52.55.92,1.23,1.2,2.04.28.81.41,1.74.41,2.79v7.92c0,.59-.17,1.05-.52,1.38-.35.33-.88.49-1.6.49s-1.25-.16-1.6-.49c-.35-.33-.52-.79-.52-1.38v-7.42c0-.63-.07-1.18-.2-1.64-.13-.46-.32-.83-.56-1.12-.25-.29-.54-.5-.9-.64-.35-.13-.76-.2-1.2-.2-.28,0-.54.03-.78.1-.24.07-.47.15-.68.26-.21.1-.41.23-.58.37s-.33.28-.46.41c-.33.34-.61.72-.83,1.14v8.75c0,.59-.17,1.05-.52,1.38-.35.33-.88.49-1.6.49s-1.25-.16-1.6-.49c-.35-.33-.52-.79-.52-1.38v-19.52Z"/>
      <path class="cls-15" d="M249.34,646.32v.03c.06.65.21,1.22.44,1.72.23.5.53.92.91,1.27.38.34.84.6,1.37.78.53.18,1.12.27,1.78.27.54,0,1.01-.04,1.4-.11.39-.07.73-.15,1.02-.24.29-.09.55-.17.77-.24.22-.07.43-.11.63-.11s.38.04.53.11c.16.07.29.17.4.29.11.12.19.26.25.41.06.16.09.32.09.5,0,.26-.04.49-.12.68-.08.19-.22.38-.41.57-.16.16-.39.32-.69.49-.3.17-.67.33-1.12.47-.44.14-.96.26-1.55.35-.59.09-1.24.14-1.96.14-1.24,0-2.35-.18-3.34-.54-.99-.36-1.83-.88-2.52-1.55s-1.21-1.48-1.58-2.44c-.37-.95-.55-2.02-.55-3.21,0-1.38.2-2.62.59-3.71.39-1.09.93-2.01,1.63-2.76.7-.75,1.53-1.32,2.51-1.72.97-.4,2.04-.59,3.21-.59,1,0,1.91.16,2.72.47s1.5.76,2.08,1.35c.57.59,1.02,1.3,1.33,2.15s.47,1.8.47,2.88c0,.78-.18,1.36-.54,1.73s-.87.56-1.54.56h-8.22ZM255.69,643.6c-.14-1.17-.45-2.03-.95-2.58-.5-.55-1.2-.83-2.1-.83-.38,0-.73.07-1.08.2-.34.13-.66.33-.95.61-.29.28-.53.63-.74,1.05-.21.43-.37.94-.48,1.55h6.3Z"/>
      <path class="cls-15" d="M276.09,651.57c0,.62-.17,1.09-.52,1.42-.35.33-.89.5-1.62.5s-1.28-.17-1.62-.5c-.34-.33-.52-.81-.52-1.42v-17.73c0-.62.17-1.11.52-1.46.34-.35.83-.52,1.47-.52h4.59c1.47,0,2.74.15,3.8.45,1.07.3,1.95.73,2.64,1.27.69.55,1.2,1.2,1.53,1.95s.49,1.57.49,2.45c0,.74-.1,1.42-.31,2.05-.21.62-.5,1.19-.88,1.69s-.83.93-1.36,1.3c-.53.37-1.12.66-1.77.88l4.03,6.2c.18.27.3.51.38.7.08.2.12.41.12.62,0,.3-.07.58-.21.84-.14.26-.33.48-.55.67-.23.19-.49.34-.79.45s-.6.16-.9.16-.57-.05-.79-.15c-.22-.1-.42-.23-.59-.4-.06-.06-.12-.12-.18-.19-.06-.06-.11-.13-.16-.2-.05-.07-.1-.15-.15-.23-.05-.08-.11-.18-.17-.28l-4.34-7.33h-2.16v6.81ZM278.3,641.45c.7,0,1.31-.08,1.83-.23.52-.16.95-.38,1.3-.66s.6-.62.77-1.02c.17-.4.25-.83.25-1.3s-.08-.89-.23-1.27c-.16-.38-.4-.7-.74-.97-.34-.27-.78-.47-1.32-.62-.54-.15-1.2-.22-1.97-.22h-2.08v6.28h2.2Z"/>
      <path class="cls-15" d="M293.5,646.32v.03c.06.65.21,1.22.44,1.72.23.5.53.92.91,1.27.38.34.84.6,1.37.78.53.18,1.12.27,1.78.27.54,0,1.01-.04,1.4-.11.39-.07.73-.15,1.02-.24.29-.09.55-.17.77-.24.22-.07.43-.11.63-.11s.38.04.53.11c.16.07.29.17.4.29.11.12.19.26.25.41.06.16.09.32.09.5,0,.26-.04.49-.12.68-.08.19-.22.38-.41.57-.16.16-.39.32-.69.49-.3.17-.67.33-1.12.47-.44.14-.96.26-1.55.35-.59.09-1.24.14-1.96.14-1.24,0-2.35-.18-3.34-.54-.99-.36-1.83-.88-2.52-1.55s-1.21-1.48-1.58-2.44c-.37-.95-.55-2.02-.55-3.21,0-1.38.2-2.62.59-3.71.39-1.09.93-2.01,1.63-2.76.7-.75,1.53-1.32,2.51-1.72.97-.4,2.04-.59,3.21-.59,1,0,1.91.16,2.72.47s1.5.76,2.08,1.35c.57.59,1.02,1.3,1.33,2.15s.47,1.8.47,2.88c0,.78-.18,1.36-.54,1.73s-.87.56-1.54.56h-8.22ZM299.84,643.6c-.14-1.17-.45-2.03-.95-2.58-.5-.55-1.2-.83-2.1-.83-.38,0-.73.07-1.08.2-.34.13-.66.33-.95.61-.29.28-.53.63-.74,1.05-.21.43-.37.94-.48,1.55h6.3Z"/>
      <path class="cls-15" d="M317.44,632.1c0-.59.17-1.05.52-1.38.35-.33.88-.49,1.6-.49s1.25.16,1.6.49c.35.33.52.79.52,1.38v19.67c0,.57-.15,1.01-.45,1.31-.3.3-.74.45-1.31.45-.28,0-.53-.03-.74-.1-.21-.07-.4-.17-.55-.3-.15-.13-.27-.29-.37-.48s-.16-.4-.2-.64l-.14-.78h-.05c-.31.46-.7.87-1.16,1.22-.4.3-.9.58-1.51.84s-1.34.38-2.2.38c-.98,0-1.87-.16-2.67-.49-.8-.33-1.49-.82-2.06-1.47-.57-.65-1.02-1.46-1.33-2.44-.31-.97-.47-2.11-.47-3.41s.2-2.59.59-3.66c.4-1.08.97-1.99,1.73-2.73.75-.74,1.68-1.31,2.79-1.7,1.1-.39,2.37-.59,3.8-.59.3,0,.58.01.83.04.25.03.46.05.64.09.21.04.4.08.58.12l.05-.02c-.03-.53-.05-1.09-.05-1.69v-3.62ZM317.44,640.95c-.18-.09-.39-.18-.62-.25-.21-.06-.46-.12-.77-.17-.3-.05-.65-.08-1.05-.08-.62,0-1.19.11-1.7.32-.51.21-.95.53-1.32.96-.37.43-.66.96-.86,1.59-.2.64-.3,1.38-.3,2.23s.08,1.6.23,2.2c.16.6.38,1.09.66,1.46.29.38.63.65,1.03.82.4.17.85.26,1.34.26.28,0,.54-.03.79-.09.24-.06.47-.15.68-.26.21-.11.4-.23.57-.37.17-.13.33-.28.48-.42.33-.33.61-.71.84-1.14v-7.06Z"/>
    </g>
    <g class="cls-19">
      <rect class="cls-10" x="-35.58" y="6.4" width="571.17" height="467.78"/>
      <circle class="cls-18" cx="250" cy="259.1" r="173.1"/>
      <rect class="cls-1" x="-35.58" y="302" width="571.17" height="163.17"/>
      <polygon class="cls-17" points="551.84 472.27 -51.84 472.27 62.96 332.47 437.04 332.47 551.84 472.27"/>
      <rect class="cls-2" x="5.71" y="481.74" width="494.78" height="128.06"/>
      <rect class="cls-9" x="5.71" y="481.74" width="494.78" height="44.72"/>
      <g>
        <g>
          <path class="cls-12" d="M443.62,335.84c-1.3,2.61-4,4.32-7.41,4.73-.09,0-.17.02-.26.03-2.01.2-4.18-.05-6.27-.73-9.16-2.97-15.86-3.57-22.4-2-3.5.84-6.87,2.01-10.13,3.15-6.34,2.22-12.88,4.5-20.71,4.5-.45,0-.9,0-1.35-.02-6.62-.22-13.09-1.48-19.69-2.85l-1.27-.27c-4.74-.99-9.64-2.02-14.45-2.61-11.08-1.34-22.28-1.77-33.29-1.27l-.47.02c-3.07.15-6.54.31-9.99-.76-4.76-1.49-8.32-5.18-9.07-9.4-.94-5.28,2.39-9.4,4.82-12.4l.48-.6c5.89-7.36,9.6-17.23,11.01-29.32,1.02-8.75.87-17.79.73-26.54-.2-12.52-.41-25.43,2.69-38.21.2-.86.43-1.71.66-2.56,1.94-6.91,4.68-12.82,8.15-17.59,2.43-3.3,5.19-6.06,8.23-8.2,2.25-1.59,4.74-2.92,7.45-3.98-1-1.02-1.68-2.13-2.2-3.12-.33-.63-.73-1.27-1.16-1.94-.28-.44-.56-.88-.84-1.35-1-1.64-1.77-3.33-2.51-4.95-.57-1.26-1.11-2.44-1.72-3.54l-7.82-14c-.75-1.36-2.02-3.64-1.86-6.39.29-5.16,5.11-8.09,9.49-8.22,2.21-.06,4.32.33,6.17.68.94.18,1.83.34,2.68.45.83.1,1.59.13,2.24.07,1.12-.09,1.97-.4,2.58-.94.52-.46,1.07-1.23,1.66-2.05,1.01-1.41,2.15-3,3.92-4.19,1.21-.8,2.51-1.3,3.88-1.5,4.52-.69,8.81,1.95,12.04,4.33,2.99,2.2,5.1,3.18,6.3,2.91.18-.04.34-.1.5-.21.76-.49,1.68-1.88,2.48-3.11,1.71-2.61,4.06-6.18,8.41-6.41.75-.04,1.48.03,2.19.2,2.43.57,4.26,2.24,5.73,3.58.56.51,1.08.99,1.55,1.33,1.3.95,2.94,1.23,4.38.74l.19-.07c.69-.26,1.47-.74,2.29-1.25.84-.51,1.79-1.1,2.84-1.58,3.7-1.69,7.43-1.3,9.99,1.03,2.26,2.04,3.33,5.52,2.81,9.09h0c-.41,2.71-1.57,4.94-2.76,6.95-7.45,12.52-18.72,21.1-28.66,28.67-1.16.89-2.31,1.58-3.43,2.25-.77.46-1.5.9-2.17,1.37-.34.23-.64.45-.93.66,2.09.43,4.15.88,6.21,1.33l1.89.41c3.18.69,6.32,1.87,9.34,3.49,3,1.63,5.88,3.7,8.55,6.17,1.49,1.38,2.86,2.84,4.09,4.33,5.2,6.27,7.69,13.1,10.1,19.72,1.07,2.94,2.18,5.99,3.52,8.91,3.78,8.31,8.96,15.53,14.44,23.17l2.02,2.81c5.19,7.29,11.22,17.03,11.84,27.88.3,5.32-.74,10.5-1.75,15.51-1.73,8.63-3.23,16.09,2,22.88.24.32.46.61.65.9.15.22.33.49.48.77,2.59,4.31,1.67,7.55.9,9.11Z"/>
          <path class="cls-6" d="M435.57,336.61s0,0-.02,0c-1.4.14-3-.03-4.64-.56-8.29-2.69-16.14-4.1-24.57-2.09-10.89,2.62-19.49,7.92-31.13,7.53-6.41-.21-12.7-1.46-19.01-2.77-5.32-1.11-10.64-2.27-16.04-2.93-11.3-1.37-22.68-1.81-33.96-1.3-3.04.14-6.16.35-9.09-.57-2.96-.92-5.77-3.24-6.31-6.28-.67-3.75,2.17-6.92,4.48-9.79,7.01-8.76,10.54-19.99,11.86-31.36,2.6-22.31-2.14-44.8,3.96-66.7,1.62-5.8,4.03-11.51,7.53-16.3,2.05-2.8,4.46-5.29,7.3-7.29,6.87-4.86,15.68-6.55,24.31-6.31,8.81.25,17.74,2.33,26.35,4.2,5.94,1.29,11.47,4.48,16.02,8.68,1.33,1.24,2.58,2.56,3.72,3.94,7.02,8.47,8.71,18.22,13.07,27.75,4.42,9.72,10.64,17.96,16.85,26.65,5.54,7.78,10.57,16.46,11.1,25.78.79,13.74-8.67,27.94,1.07,40.6.18.23.35.46.49.68.13.19.25.37.35.56,2.74,4.52.31,7.47-3.69,7.87Z"/>
          <path class="cls-4" d="M435.57,336.61s0,0-.02,0c-1.4.14-3-.03-4.64-.56-8.29-2.69-16.14-4.1-24.57-2.09-10.89,2.62-19.49,7.92-31.13,7.53-6.41-.21-12.7-1.46-19.01-2.77-5.32-1.11-10.64-2.27-16.04-2.93-11.3-1.37-22.68-1.81-33.96-1.3-3.04.14-6.16.35-9.09-.57-2.96-.92-5.77-3.24-6.31-6.28-.67-3.75,2.17-6.92,4.48-9.79,7.01-8.76,10.54-19.99,11.86-31.36,2.6-22.31-2.14-44.8,3.96-66.7,1.62-5.8,4.03-11.51,7.53-16.3.25.4.49.81.74,1.21,8.71,14.63,19.48,28.96,25.22,44.95,4.2,11.69,8.25,24.14,17.52,32.43,9.28,8.3,27.73,12.61,38.95,5.25,5.2-3.4,6.66-14.13,7.41-19.82,1.03-7.81.62-15.77-.83-23.5-2.71-14.42-8.8-27.94-15.03-41.25,1.33,1.24,2.58,2.56,3.72,3.94,7.02,8.47,8.71,18.22,13.07,27.75,4.42,9.72,10.64,17.96,16.85,26.65,5.54,7.78,10.57,16.46,11.1,25.78.79,13.74-8.67,27.94,1.07,40.6.18.23.35.46.49.68.13.19.25.37.35.56,2.54,4.23.07,6.73-3.69,7.87Z"/>
          <path class="cls-6" d="M403.33,147.96c-.3,2.02-1.24,3.81-2.24,5.49-6.95,11.7-17.43,19.76-27.65,27.54-1.75,1.33-3.7,2.28-5.46,3.51-1.44.99-2.54,1.97-3.98,2.66-.53.26-1.09.47-1.74.63-2.48.61-5.05.6-7.6.58-4.24-.03-8.47-.07-12.7-.09-2.03-.02-4.12-.04-6.01-.8-1.77-.7-2.69-1.89-3.53-3.51-.63-1.21-1.39-2.28-2.12-3.5-1.62-2.67-2.64-5.65-4.16-8.38-2.6-4.67-5.21-9.33-7.81-14-.72-1.28-1.46-2.68-1.37-4.21.16-2.91,3.12-4.39,5.61-4.46,2.77-.07,5.49.77,8.25,1.1,1,.12,2.04.17,3.05.09,1.78-.15,3.49-.69,4.9-1.93,1.93-1.7,3.06-4.51,5.16-5.92.72-.48,1.47-.76,2.25-.87,3.02-.45,6.35,1.59,9.08,3.6,2.88,2.12,6.39,4.3,9.55,3.6.61-.13,1.21-.38,1.79-.75,3.52-2.26,4.92-8.68,8.94-8.9.35-.02.7.02,1.04.1,2.16.5,3.91,2.82,5.87,4.25,2.35,1.72,5.35,2.2,8.02,1.3.12-.04.24-.09.35-.13,1.87-.72,3.51-2.08,5.35-2.92,1.84-.84,4.08-1.07,5.64.35,1.38,1.25,1.84,3.54,1.54,5.55Z"/>
          <path class="cls-4" d="M403.33,147.96c-.3,2.02-1.24,3.81-2.24,5.49-6.95,11.7-17.43,19.76-27.65,27.54-1.75,1.33-3.7,2.28-5.46,3.51-1.44.99-2.54,1.97-3.98,2.66.1-.14.2-.27.3-.4,10.44-12.7,19.25-26.73,26.15-41.64.12-.04.24-.09.35-.13,1.87-.72,3.51-2.08,5.35-2.92,1.84-.84,4.08-1.07,5.64.35,1.38,1.25,1.84,3.54,1.54,5.55Z"/>
          <path class="cls-4" d="M376.57,139.57c-1.56,5.48-4.02,10.68-6.45,15.85-1.84,3.91-3.98,7.74-5.74,11.62-.34.75-1.22,1.47-1.91,1.03-.55-.35-.52-1.16-.41-1.81.9-5.68,1.51-11.51,2.75-17.14.61-.13,1.21-.38,1.79-.75,3.52-2.26,4.92-8.68,8.94-8.9.35-.02.7.02,1.04.1Z"/>
          <path class="cls-4" d="M345.59,172.27c-.07.8-.14,1.62-.51,2.33-.38.7-1.14,1.27-1.93,1.17-1.07-.14-1.64-1.31-2.01-2.32-2.74-7.5-5.17-15.1-7.26-22.81,1.78-.15,3.49-.69,4.9-1.93,1.93-1.7,3.06-4.51,5.16-5.92.72-.48,1.47-.76,2.25-.87.11,10.11.18,20.25-.59,30.34Z"/>
          <path class="cls-5" d="M393.24,291.94c-.52,0-.96-.4-1-.93-.04-.55.38-1.03.93-1.07,3.47-.25,6.94-2.52,9.27-6.07,2.21-3.36,3.26-7.39,4.06-11.25,2.03-9.75,3.72-22.33-1.27-33.23-.23-.5,0-1.1.49-1.33.5-.23,1.1,0,1.33.49,5.24,11.42,3.5,24.42,1.41,34.47-.84,4.05-1.95,8.29-4.35,11.94-2.68,4.08-6.71,6.68-10.8,6.97-.02,0-.05,0-.07,0Z"/>
        </g>
        <g>
          <path class="cls-12" d="M385.79,183.71c-.18,1.51-.86,2.93-1.96,4.11.22.54.37,1.08.4,1.6.48,6.55-7.23,8.22-9.76,8.77l-.41.09c-.25.05-.48.1-.68.15-3.68.86-7.42,1.47-11.19,1.84-.28,4.81-.32,9.67-.35,14.44-.02,2.12-.03,4.23-.07,6.34-.03,1.97-.09,5.63-2.76,8.2-2.2,2.12-5.06,2.45-7.02,2.51-.2,0-.4,0-.61,0-1.69,0-3.92-.25-5.84-1.68-3.19-2.38-2.67-5.73-2.47-7,.11-.69.18-1.45.26-2.27.07-.67.14-1.35.22-2.01-.46.1-.92.14-1.36.14-1.95,0-3.62-.82-4.48-1.24-1.06-.52-3.27-1.6-4.18-4.08-1.12-3.02.51-5.65,1.2-6.77l4.5-7.28c-.58-.09-1.16-.19-1.74-.29-1.97-.36-3.95-.79-5.88-1.29-1.74-.44-4.22-1.07-5.91-2.67-1.96-1.86-2.68-4.54-1.88-6.98.03-.12.08-.23.12-.34-1.13-1.84-1.33-4.11-.45-5.97,1.27-2.69,4.48-4.8,9.71-2.66,2.03.82,3.96,1.47,5.92,1.97,4.26,1.09,8.65,1.67,13.06,1.72,4.56.07,9.09-.44,13.51-1.48,2.31-.55,4.61-1.25,6.83-2.09.24-.09.86-.42,1.31-.66,2.27-1.22,5.08-2.74,7.91-1.76,2.68.92,4.38,3.71,4.05,6.63Z"/>
          <path class="cls-5" d="M373.62,194.28c-.44.09-.83.18-1.15.25-7.47,1.74-15.18,2.44-22.84,2.1-3.83-.17-7.65-.6-11.42-1.28-1.88-.34-3.76-.75-5.61-1.23-1.26-.32-3.19-.8-4.14-1.7-.77-.73-1.18-1.8-.84-2.83.34-1.05,1.49-1.78,2.59-1.65-.9-.4-1.82-.82-2.49-1.53s-1.03-1.79-.62-2.67c.88-1.87,3.24-1.21,4.58-.66,2.11.86,4.24,1.58,6.44,2.15,4.59,1.18,9.3,1.79,14.01,1.85,4.86.06,9.73-.47,14.48-1.59,2.48-.58,4.93-1.33,7.32-2.23,1.63-.61,4.84-2.96,6.51-2.39.95.33,1.48,1.41,1.37,2.39s-.77,1.84-1.57,2.44-1.75.96-2.68,1.32c.94-.36,2.63,1.98,2.68,2.71.22,2.96-3.98,4-6.62,4.57Z"/>
          <path class="cls-5" d="M350.94,193.21l-3.42,26.06c-.19,1.48-.29,3.02-.5,4.44-.19,1.24-.25,2.31.91,3.18,1.1.82,2.56.92,3.93.88,1.57-.05,3.25-.3,4.38-1.39,1.38-1.33,1.5-3.47,1.54-5.39.16-9.36-.08-18.84,1.05-28.14"/>
          <path class="cls-5" d="M346.42,195.57c-2.76,4.47-5.53,8.93-8.29,13.4-.62,1-1.26,2.18-.85,3.28.34.92,1.3,1.44,2.18,1.87,1.18.58,2.56,1.16,3.75.62,1.23-.55,1.69-2.02,2.12-3.3,1.51-4.57,4.24-8.73,7.83-11.94,1.16-1.04,1.54-2,1.28-3.53-.26-1.48-1.73-2.43-3.15-2.93-1.23-.43-2.61-.67-3.8-.15s-2.01,2.02-1.42,3.17"/>
          <path class="cls-8" d="M353.79,192.23c-6.77,0-13.54-1.09-19.97-3.27-.43-.15-.66-.61-.52-1.04.15-.43.61-.66,1.04-.52,12.1,4.1,25.47,4.24,37.65.4.43-.14.9.1,1.03.54.14.43-.1.9-.54,1.03-6.04,1.91-12.38,2.86-18.71,2.86Z"/>
        </g>
        <g>
          <path class="cls-12" d="M214.67,276.97c.07,12.03-2.16,29.42-13.12,43.98-6.19,8.23-14.8,14.5-24.23,17.64-5.57,1.85-10.99,1.89-16.23,1.92-4.69.03-9.11.06-13.35,1.39-5.6,1.77-10.57,2.47-15.12,2.98-4.35.47-8.72.71-13.07.71-7.9,0-15.76-.79-23.49-2.36-1.3-.26-2.61-.55-3.93-.84-7.65-1.67-14.88-3.25-21.26-.92-.28.1-.57.22-.87.33-2.77,1.06-6.95,2.67-10.77.2-4.2-2.72-4.5-8.44-2.35-12.39,1.16-2.15,2.8-3.75,4.25-5.16.55-.54,1.07-1.05,1.54-1.56,5.28-5.78,6.19-14.6,6.38-23.28l.05-2.19c.1-5.6.22-11.39,1.46-17,.79-3.59,1.96-6.72,3.57-9.56,3.09-5.44,7.64-9.44,12.04-13.3,3.41-2.99,6.63-5.82,9.06-9.18,4.15-5.71,5.96-12.85,7.87-20.41,2.17-8.54,4.41-17.38,10.3-24.55,7.79-9.48,19.74-13.32,29.66-15.52-.24-.1-.49-.2-.73-.32-.57-.27-1.16-.59-1.74-.94h-.01s-.01-.01-.02-.01c-3.3-1.97-6.2-4.69-8.8-7.25-.38-.37-.75-.74-1.11-1.1-.58-.57-1.15-1.14-1.71-1.68l-.97-.94c-3.98-3.84-8.94-8.62-10.5-14.89-.96-3.82-.12-7.16,2.31-9.17,1.51-1.25,3.21-1.62,4.46-1.88l.4-.09c.29-.07.46-.11.56-.15.12-.34.2-1.09.26-1.6.16-1.34.35-3,1.23-4.61,1.25-2.28,3.57-3.91,6.55-4.59h.01s.01-.01.01-.01h.02c1.76-.42,3.69-.48,5.41-.17,2.35.41,4.4,1.4,6.21,2.28.62.3,1.23.6,1.87.87,1.7.74,2.79.85,3.41.81.32-.02.57-.08.77-.18.56-.26,1.21-.92,1.89-1.61,1.14-1.16,2.55-2.6,4.62-3.43,1.13-.45,2.31-.67,3.55-.67,1.06,0,2.16.17,3.29.5t.02,0c1.52.44,3.14,1.21,4.79,2.29.39.24.76.5,1.14.75,1.63,1.09,3.16,2.13,4.53,2.28h.02c.06,0,.13,0,.19,0,1.89.09,4.19-1.48,6.41-3,.33-.23.66-.45,1-.68,5.52-3.7,10.95-4.33,14.91-1.74,3.09,2.02,4.82,5.84,4.51,9.99h0c-.25,3.16-1.57,5.94-2.79,8.3-5.28,10.28-11.79,19.78-18.09,28.97-.85,1.24-2.09,3.06-4.08,4.29,10.01,4.22,16.49,12.44,20.18,18.7,4.77,8.08,7.51,16.95,9.9,25.34,3.97,13.95,7.65,28.97,7.73,44.4Z"/>
          <path class="cls-6" d="M210.67,276.99c.08,14.71-3.47,29.81-12.31,41.55-5.6,7.44-13.46,13.3-22.3,16.25-9.78,3.26-19.74.23-29.51,3.29-4.86,1.53-9.23,2.25-14.36,2.81-11.76,1.29-23.73.77-35.33-1.59-9.09-1.85-18.66-4.78-27.36-1.6-2.66.98-5.71,2.47-8.09.93-2.21-1.43-2.27-4.81-1.01-7.13,1.26-2.32,3.44-3.98,5.23-5.93,6.2-6.78,7.23-16.71,7.43-25.89.14-6.13.1-12.49,1.42-18.41.65-2.95,1.64-5.8,3.14-8.46,5.03-8.84,14.9-13.86,20.86-22.1,9.52-13.12,7.72-32.25,18.02-44.77,6.95-8.45,18.06-12.17,28.76-14.44,8.25-1.75,17.01-2.86,25.13-.92,1.41.34,2.79.77,4.16,1.3,8.16,3.18,14.61,9.83,19.05,17.37,4.45,7.54,7.1,15.99,9.51,24.41,4.02,14.15,7.5,28.62,7.57,43.32Z"/>
          <path class="cls-4" d="M210.67,276.99c.08,14.71-3.47,29.81-12.31,41.55-5.6,7.44-13.46,13.3-22.3,16.25-9.78,3.26-19.74.23-29.51,3.29-4.86,1.53-9.23,2.25-14.36,2.81-11.76,1.29-23.73.77-35.33-1.59-9.09-1.85-18.66-4.78-27.36-1.6-2.66.98-5.71,2.47-8.09.93-2.21-1.43-2.27-4.81-1.01-7.13,1.26-2.32,3.44-3.98,5.23-5.93,6.2-6.78,7.23-16.71,7.43-25.89.14-6.13.1-12.49,1.42-18.41.38,7.83,3.91,15.3,9.1,21.1,5.68,6.34,12.13,10.67,20.84,10.35,3.6-.13,7.28-1.2,9.92-3.64,2.74-2.53,4.11-6.28,6.82-8.84,3.19-3.02,7.72-3.99,11.88-5.4,12.44-4.23,22.93-13.68,28.72-25.44,3.1-6.29,5.62-12.83,8.65-19.2,3.41-7.18,6.82-14.43,8.81-22.16.59-2.3,1.06-4.63,1.36-6.99,1.42-11.03-2.07-23.57-10.2-30.48,1.41.34,2.79.77,4.16,1.3,8.16,3.18,14.61,9.83,19.05,17.37,4.45,7.54,7.1,15.99,9.51,24.41,4.02,14.15,7.5,28.62,7.57,43.32Z"/>
          <path class="cls-6" d="M197.83,146.67c-.19,2.39-1.25,4.63-2.35,6.77-5.12,9.97-11.48,19.27-17.83,28.53-.9,1.32-1.86,2.68-3.31,3.4-1.18.58-2.53.65-3.84.69-4.57.16-9.27.24-13.81-.24-3.98-.41-8.95-.05-12.59-1.84-.49-.24-.98-.5-1.46-.79-4.08-2.43-7.6-6.27-10.9-9.47-4.04-3.93-8.99-8.32-10.39-13.93-.44-1.78-.45-3.93.98-5.12.87-.72,2.06-.9,3.19-1.15.81-.18,1.59-.41,2.22-.91,2.23-1.77,1.23-5.17,2.46-7.44.76-1.38,2.29-2.23,3.96-2.61,1.3-.3,2.67-.34,3.82-.13,2.56.44,4.81,1.86,7.2,2.89,1.64.71,3.49,1.23,5.24,1.13.79-.05,1.56-.22,2.29-.58,2.42-1.16,3.75-3.93,6.24-4.92,1.37-.54,2.81-.46,4.23-.04,1.33.39,2.62,1.07,3.76,1.81,2.37,1.54,4.72,3.42,7.56,3.66.1,0,.19.02.29,0,3.63.18,6.81-2.32,9.84-4.35,3.11-2.08,7.36-3.76,10.49-1.71,2.05,1.33,2.9,3.94,2.72,6.34Z"/>
          <path class="cls-4" d="M174.79,146.4c-2.39,7.19-4.78,14.39-7.18,21.57-.49,1.47-1.5,3.28-3.02,2.99-1.44-.26-1.81-2.12-1.85-3.58-.26-8.82-.12-17.65.44-26.46,1.33.39,2.62,1.07,3.76,1.81,2.37,1.54,4.72,3.42,7.56,3.66.1,0,.19.02.29,0Z"/>
          <path class="cls-4" d="M150.42,146.45c-.06,7.07-.12,14.13-.18,21.2,0,.69-.04,1.46-.54,1.95-.53.52-1.42.5-2.07.15-.65-.35-1.12-.96-1.56-1.56-5.61-7.65-9.68-16.42-11.91-25.63,1.3-.3,2.67-.34,3.82-.13,2.56.44,4.81,1.86,7.2,2.89,1.64.71,3.49,1.23,5.24,1.13Z"/>
          <path class="cls-4" d="M142.63,183.2c-4.08-2.43-7.6-6.27-10.9-9.47-4.04-3.93-8.99-8.32-10.39-13.93-.44-1.78-.45-3.93.98-5.12.87-.72,2.06-.9,3.19-1.15,3.25,11.06,9.16,21.33,17.11,29.67Z"/>
          <path class="cls-5" d="M101.95,313.79c-4.76,0-9.5-1.74-13.11-4.83-.42-.36-.47-.99-.11-1.41.36-.42.99-.47,1.41-.11,3.43,2.94,7.99,4.51,12.51,4.34,4.51-.18,8.93-2.12,12.12-5.32.98-.99,1.84-2.07,2.76-3.22,1.08-1.36,2.19-2.76,3.52-3.98,3.62-3.31,8.34-4.82,12.9-6.28,4.53-1.45,8.81-2.82,12.1-5.8.41-.37,1.04-.34,1.41.07.37.41.34,1.04-.07,1.41-3.61,3.26-8.3,4.77-12.84,6.22-4.56,1.46-8.87,2.84-12.16,5.85-1.21,1.11-2.22,2.39-3.3,3.75-.91,1.14-1.84,2.33-2.91,3.4-3.54,3.55-8.44,5.71-13.46,5.91-.26.01-.51.02-.77.02Z"/>
          <path class="cls-5" d="M85.51,305.4c-.17,0-.35-.05-.51-.14-1.23-.73-2.22-1.86-2.79-3.18-.22-.51.01-1.1.52-1.31.51-.22,1.09.01,1.31.52.4.93,1.11,1.74,1.98,2.26.47.28.63.9.35,1.37-.19.31-.52.49-.86.49Z"/>
        </g>
        <g>
          <path class="cls-12" d="M349.02,361.93c-.15.22-.28.44-.45.64-.89,1.09-2,2-3.28,2.71-2.13,1.18-4.74,1.81-7.66,1.82h-.06c-2.13,0-4.13-.3-6.06-.58-1.07-.16-2.08-.31-3.07-.41-.41-.04-.82-.06-1.23-.07h-.02c-.07,0-.15-.01-.22-.01-.38-.01-.75,0-1.12.02-.11,0-.23,0-.34.01-.37.02-.73.05-1.1.09-.11.01-.22.02-.34.04-.36.04-.72.1-1.08.16-.11.02-.23.03-.35.06-.34.06-.69.13-1.04.21-.14.03-.28.06-.41.09-.32.07-.64.15-.95.23-.2.05-.4.1-.6.16-.24.06-.48.13-.72.19-.34.1-.68.2-1.03.3-.05.01-.1.03-.15.04-.48.14-.96.29-1.46.44-1.11.33-2.24.67-3.41.99-1.1.31-2.24.59-3.43.83-1.23.25-2.48.53-3.73.82-1.22.28-2.44.57-3.64.85-1.62.39-3.27.78-4.94,1.15-2.09.47-4.19.91-6.33,1.27-6.53,1.09-13.14,1.85-19.8,2.29-4.46.29-8.95.45-13.45.45s-9.28-.16-13.93-.47c-2.33-.16-4.65-.29-6.97-.42-.93-.05-1.86-.11-2.79-.16-7.59-.44-15.35-1.02-23.03-2.68-1.65-.36-3.3-.74-4.94-1.21-1.38-.39-2.76-.84-4.13-1.32-.17-.03-.34-.07-.51-.12-2.83-.88-5.78-1.42-8.76-1.6-.63-.04-1.33-.01-2.07.01-.91.02-1.85.05-2.86-.01l-.44-.03c-1.14-.08-2.04-.14-2.91.01-.77.14-1.58.36-2.44.6-1.21.33-2.58.7-4.05.89-3.86.47-7.33-.64-9.53-3.07-2.39-2.66-3.03-6.69-1.71-10.79.45-1.39.98-2.64,1.5-3.85.71-1.67,1.39-3.24,1.66-4.83.32-1.89-.07-4.38-.44-6.79-.16-1.05-.32-2.09-.43-3.08-.49-4.4-1-8.95-.53-13.62.5-5.03,2.16-10.19,5.05-15.75.93-1.77,1.74-3.58,2.61-5.5,1.27-2.8,2.58-5.71,4.26-8.52.1-.17.22-.32.35-.47.36-.79.73-1.57,1.09-2.36,1.9-4.16,4.05-9.12,5.54-14.34.35-1.2.65-2.43.94-3.61.78-3.16,1.58-6.42,3.31-9.74,1.93-3.73,3.41-7.61,4.98-11.71,2.25-5.9,4.58-11.99,8.35-17.64,6.5-9.75,15.24-16.53,24.62-19.08.43-.12.88-.16,1.32-.13l20.27,1.37c-2.75-1.36-5.56-3.1-8.48-5.25-.32-.24-.67-.48-1.03-.73-1.72-1.2-3.66-2.56-5.02-4.47-1-1.38-1.82-2.86-2.61-4.29-.42-.76-.84-1.52-1.28-2.24l-16.72-27.52c-.89-1.46-2.22-3.65-2.25-6.32-.03-2.26.89-4.42,2.59-6.07,1.99-1.94,4.89-3.03,7.73-2.93,4.07.16,7.49,2.25,10.24,3.93.26.15.48.29.72.43l.3.18c1.76,1.05,3.62,2.02,5.28,2.03,1.73,0,3.73-1.04,5.81-2.16.45-.24.91-.49,1.36-.72,2.12-1.09,4.05-1.76,5.9-2.07.72-.25,1.48-.35,2.25-.25.07.01.13.04.21.05,1.66.03,3.21.39,4.63,1.09,2,.99,3.41,2.47,4.65,3.78.89.94,1.81,1.91,2.47,2.1.03.01.06.01.08.02.71.16,1.97-.55,3.31-1.29,1.83-1.01,4.12-2.28,6.89-2.38,1.75-.07,3.5.33,5.33,1.21,1.61.79,2.98,1.8,4.31,2.79,1.64,1.21,3.19,2.36,4.49,2.51h.16c1.28.09,2.92-.74,4.64-1.62.85-.42,1.72-.87,2.65-1.26,3.18-1.34,6.9-1.42,9.72-.2,2.16.93,3.72,2.54,4.5,4.65,1.11,3.04.38,6.32-2.17,9.76h0c-3.89,5.25-9.09,8.9-14.12,12.42-1.42.99-2.89,2.02-4.28,3.05-3.75,2.8-6.4,5.37-8.31,8.1-1.09,1.54-1.91,3.12-2.44,4.68-.05.16-.13.38-.22.62-.04.11-.09.24-.13.37-.01.03-.03.06-.04.1.67,1.36.73,2.74.21,4.14-.66,1.76-1.97,2.81-2.9,3.45-1.1.78-2.29,1.43-3.55,1.99l9.33.63c.08,0,.16,0,.24.02,7.13.92,14.01,4.92,19.6,11.35.5.57.99,1.16,1.47,1.77,4.97,6.37,8.05,13.77,10.77,20.8,1.59,4.09,3.05,8.27,4.46,12.3,1.08,3.11,2.2,6.33,3.36,9.44.81,2.17,1.46,4.35,2.09,6.45.83,2.76,1.62,5.38,2.72,7.87.06.14.11.29.17.43.19.4.39.81.58,1.22.95,1.96,2.01,3.93,3.13,5.99.58,1.08,1.17,2.17,1.75,3.26t0,.02c1,1.9,1.96,3.83,2.81,5.81.08.17.15.34.23.51.09.22.18.44.27.66.01.02.02.05.03.08.03.07.06.14.08.21.11.26.21.53.32.79v.02c.08.2.14.39.22.59.08.23.16.46.24.69s.15.46.23.69c0,.04.03.08.04.12.05.16.09.31.14.47.14.46.27.92.4,1.39.02.09.04.18.07.26,0,.04.02.07.02.11.01.03.02.06.02.08.07.29.14.57.2.86.04.16.07.32.11.49.05.28.11.57.16.86.04.21.07.43.1.65.06.38.11.77.16,1.16.03.3.06.6.09.91.01.18.03.36.04.54.02.37.03.75.04,1.12.01.12.01.24.01.35,0,.1.01.19.01.29,0,.42-.01.86-.04,1.29v.14c-.08,1.38-.14,2.62-.16,3.76,0,.05-.01.11-.01.16v.08c-.05,3.52.3,6.18,2.01,9.68.15.3.31.64.49.99.09.17.17.34.26.52,4.63,9.24,9.14,19.55,4.94,25.67Z"/>
          <path class="cls-14" d="M308.38,177.09c-4.56,6.15-11.43,10.06-17.57,14.63-3.44,2.56-6.72,5.47-9.2,9-1.24,1.76-2.26,3.66-2.95,5.7-.19.58-.58,1.47-.71,2.25-.05.31-.07.58-.02.82.14.78.96,1.04.58,2.04-.25.67-.82,1.15-1.41,1.55-5.54,3.92-13.18,4.1-19.8,1.91-4.5-1.48-8.65-3.95-12.47-6.77-1.69-1.24-3.96-2.6-5.18-4.31-1.39-1.93-2.48-4.26-3.73-6.3-5.57-9.17-11.15-18.34-16.72-27.51-.81-1.34-1.65-2.76-1.67-4.3-.04-2.99,3.18-5.06,6.17-4.95,2.98.12,5.72,1.77,8.31,3.34.35.21.69.42,1.04.63,2.28,1.36,4.71,2.57,7.29,2.6,3.29.03,6.17-1.84,9.05-3.33,1.56-.81,3.32-1.51,5.07-1.75,1.48-.2,2.95-.07,4.31.6,3.09,1.53,4.77,5.5,8.12,6.22h.02c3.96.84,7.16-3.43,11.18-3.58,1.23-.05,2.36.29,3.45.81,3.36,1.64,6.3,5.24,10.08,5.67.12.01.24.02.36.02,3.25.2,6.11-1.93,9.1-3.19,3.1-1.31,7.71-1.08,8.9,2.16.76,2.07-.35,4.27-1.63,6Z"/>
          <path class="cls-6" d="M308.38,177.09c-4.56,6.15-11.43,10.06-17.57,14.63-3.44,2.56-6.72,5.47-9.2,9-1.24,1.76-2.26,3.66-2.95,5.7-.19.58-.58,1.47-.71,2.25-.23.03-.47,0-.69-.1-.76-.38-.78-1.43-.66-2.25,1.73-12.66,7.16-24.67,15.41-34.2,3.25.2,6.11-1.93,9.1-3.19,3.1-1.31,7.71-1.08,8.9,2.16.76,2.07-.35,4.27-1.63,6Z"/>
          <path class="cls-4" d="M279.91,193.04c-.09,0-.19-.01-.28-.04-.51-.15-.79-.69-.64-1.2,2.2-7.24,6.17-13.86,11.5-19.15.38-.37.98-.37,1.36,0,.37.38.37.98,0,1.36-5.1,5.07-8.91,11.41-11.01,18.35-.13.41-.51.68-.92.68Z"/>
          <path class="cls-6" d="M281.56,166.43c-.57,1.81-1.63,3.42-2.67,4.99-4.29,6.45-8.58,12.89-12.86,19.34-.34.51-.74,1.06-1.35,1.14-.72.1-1.39-.54-1.6-1.25-.2-.7-.07-1.44.07-2.15,1.27-6.42,2.53-12.87,3.8-19.3,3.96.84,7.16-3.44,11.18-3.58,1.23-.05,2.36.29,3.45.81Z"/>
          <path class="cls-6" d="M254.48,162.38c-.06.71-.14,1.41-.23,2.12-1.08,9-1.86,18.03-2.64,27.07-.05.56-.1,1.13-.35,1.62s-.74.9-1.3.88c-.8-.03-1.34-.84-1.73-1.55-2.6-4.72-5.2-9.44-7.8-14.17-1.13-2.05-2.51-3.8-3.7-5.81-1.36-2.29-2.72-4.58-4.08-6.87l.41-.83c2.28,1.36,4.71,2.57,7.29,2.6,3.29.03,6.17-1.84,9.05-3.33,1.56-.81,3.32-1.51,5.07-1.75Z"/>
          <path class="cls-4" d="M251.99,189.01s-.08,0-.12,0c-.53-.07-.9-.54-.83-1.07l3.1-24.88c.07-.53.54-.9,1.07-.83.53.07.9.54.83,1.07l-3.1,24.88c-.06.48-.47.84-.95.84Z"/>
          <path class="cls-14" d="M345.49,360.03c-1.84,2.23-4.94,3.06-7.87,3.07-2.94.01-5.86-.69-8.8-.97-7.5-.72-13.2,2.43-20.18,3.84-6.18,1.27-12.26,3.01-18.5,4.06-15.2,2.55-30.76,3.28-46.26,2.23-12.39-.84-24.84-.9-36.9-4.32-1.9-.54-3.78-1.16-5.66-1.88-9.06-3.49-18.92-7.35-24.04-16.06-.73-1.23-1.37-2.51-1.92-3.83-3.62-8.72-3.1-18.55-.65-27.45,2.45-8.9,6.71-17.12,10.51-25.49,2.2-4.83,4.27-9.76,5.75-14.89,1.27-4.44,1.83-8.54,3.95-12.62,4.91-9.48,7.1-19.95,13.11-28.98,5.35-8.02,12.97-14.88,22.34-17.44l19.41,1.31,35.06,2.37c7.31.94,13.84,5.72,18.43,11.61,4.59,5.89,7.51,12.86,10.2,19.78,2.79,7.18,5.12,14.5,7.8,21.7,1.86,4.96,2.86,10.13,5.09,15.01,4.33,9.49,11.66,18.82,11.11,29.63-.31,6.08-.54,10.09,2.24,15.78,2.42,4.96,9.86,18.53,5.75,23.52Z"/>
          <path class="cls-6" d="M179.18,333.29c.1,7.02,2.47,14.01,6.46,19.91,2.03,3,4.48,5.72,7.27,8.02,2.84,2.34,6.23,3.73,9.53,5.3-3.15-.98-6.42-1.58-9.71-1.77-1.63-.1-3.29.1-4.91,0-1.47-.09-2.81-.22-4.3.04-2.13.37-4.15,1.19-6.29,1.46s-4.58-.14-6.06-1.78c-1.65-1.83-1.61-4.61-.88-6.88,1.02-3.16,2.72-5.9,3.29-9.24.58-3.45-.45-7.47-.84-10.98-.47-4.25-.95-8.54-.52-12.77.51-5.04,2.3-9.84,4.62-14.31,2.37-4.55,4.1-9.38,6.75-13.81-1.23,6.17-2.22,12.39-2.97,18.64-.72,5.96-1.61,12.18-1.44,18.19Z"/>
          <path class="cls-6" d="M345.49,360.02c-1.84,2.24-4.94,3.07-7.87,3.08-2.95,0-5.86-.69-8.8-.97-4.81-.46-8.87.66-13.01,1.9-2.32.69-4.66,1.43-7.17,1.94-6.18,1.26-12.25,3.01-18.5,4.06-15.2,2.54-30.76,3.28-46.25,2.22-12.39-.84-24.85-.9-36.9-4.32,12.81,1.61,25.79,2.86,38.29.42,13.89-2.7,27.35-10.81,32.67-23.87,2.28-5.6,3.14-11.67,5.75-17.15,2.06-4.32,5.46-7.34,7.22-11.92.67-1.74,1.35-3.5,2.02-5.24,1.19-3.09,2.38-6.19,2.98-9.46,1.19-6.49-.02-13.32-2.37-19.61-2.51-6.72-6.41-16.23-11.32-21.51-2.31-2.49-5.27-4.27-7.87-6.46-3.8-3.21-6-8.08-9.12-11.97-3.91-4.86-8.44-9.14-13.01-13.38l-2.42-7.15,35.06,2.37c7.31.94,13.83,5.72,18.43,11.61,4.59,5.88,7.51,12.86,10.2,19.78,2.79,7.18,5.12,14.5,7.8,21.7,1.86,4.96,2.86,10.13,5.09,15.01,2.11,4.62,4.92,9.19,7.19,13.93,2.4,4.99,4.2,10.15,3.92,15.7-.31,6.07-.54,10.09,2.24,15.78,2.42,4.96,9.87,18.53,5.75,23.51Z"/>
          <path class="cls-8" d="M254.42,295.99c-.59-1.65-1.4-3.11-2.45-4.38-1.05-1.27-2.29-2.38-3.71-3.32-1.42-.94-2.87-1.81-4.36-2.61-.62-.33-1.21-.61-1.81-.93.59-4.72,1.3-9.42,2.14-14.1.51.16,1,.32,1.42.5,1,.44,1.87.88,2.6,1.31.73.43,1.38.82,1.96,1.16.58.35,1.19.57,1.84.68,1.1.19,2.06,0,2.88-.55.82-.55,1.33-1.41,1.55-2.58.13-.71.15-1.35.05-1.92-.1-.57-.37-1.2-.82-1.88-.32-.49-.78-1-1.38-1.54-.6-.54-1.32-1.06-2.14-1.57-.83-.51-1.76-.98-2.8-1.42-1.04-.44-2.17-.83-3.38-1.15.62-2.9,1.3-5.79,2.02-8.67.32-1.27.24-2.3-.24-3.09-.49-.79-1.32-1.35-2.51-1.67-1.19-.32-2.18-.24-2.97.23-.79.47-1.35,1.36-1.68,2.67-.78,3.12-1.51,6.26-2.18,9.4-2.4-.05-4.56.24-6.49.89-1.93.65-3.62,1.6-5.04,2.84-1.42,1.25-2.59,2.76-3.5,4.55-.91,1.78-1.52,3.76-1.85,5.9-.37,2.46-.3,4.61.2,6.44.49,1.83,1.27,3.41,2.3,4.75,1.03,1.33,2.27,2.48,3.69,3.46,1.43.97,2.89,1.84,4.4,2.62.47.24.93.46,1.4.7-.5,5.47-.83,10.95-1,16.44-1.04-.1-2-.23-2.78-.44-1.22-.32-2.26-.68-3.1-1.06-.85-.38-1.58-.73-2.2-1.05-.62-.32-1.25-.49-1.91-.52-1.09-.04-2.02.3-2.77,1.04-.75.74-1.15,1.82-1.18,3.23-.02.88.09,1.64.32,2.27.24.63.64,1.28,1.21,1.94.38.44.94.9,1.67,1.37.74.47,1.63.89,2.68,1.26,1.05.37,2.24.68,3.57.94,1.33.26,2.78.39,4.37.41.01,2.36.05,4.71.12,7.07.02.72.05,1.45.08,2.17.05,1.35.43,2.34,1.12,2.98.69.64,1.65.92,2.88.85,1.23-.07,2.15-.45,2.78-1.14.62-.69.9-1.68.85-2.99-.12-3.18-.19-6.37-.2-9.55,2.4-.47,4.52-1.21,6.34-2.21,1.82-1,3.35-2.18,4.6-3.57,1.24-1.38,2.2-2.94,2.87-4.67.67-1.74,1.06-3.61,1.19-5.64.14-2.27-.07-4.22-.66-5.88ZM233.24,278.43c-.59-1-.78-2.16-.58-3.47.14-.92.44-1.76.88-2.5.44-.74,1.03-1.32,1.78-1.76.37-.22.8-.4,1.26-.54-.6,3.42-1.14,6.84-1.61,10.28-.69-.63-1.3-1.29-1.73-2.02ZM243.34,305.37c-.4.84-.99,1.56-1.77,2.15-.4.3-.85.56-1.35.79.13-3.87.35-7.74.65-11.6.92.7,1.71,1.46,2.28,2.32.66.98.94,2.16.87,3.53-.06,1.03-.29,1.96-.68,2.81Z"/>
          <path class="cls-4" d="M279.35,342.2c-.07,0-.14,0-.21-.02-.52-.11-.84-.62-.73-1.14,1.6-7.29,5.16-14.04,8.3-20l.08-.16c3.24-6.14,6.59-12.5,8.19-19.32,1.79-7.64,1-14.9-2.22-20.46-.27-.46-.11-1.04.35-1.31.46-.26,1.04-.11,1.31.35,3.47,5.98,4.33,13.75,2.43,21.86-1.65,7.06-5.06,13.52-8.36,19.77l-.08.16c-3.08,5.85-6.58,12.48-8.12,19.52-.1.45-.49.75-.94.75Z"/>
          <path class="cls-4" d="M274.4,351.39c-.18,0-.36-.05-.52-.16-.44-.29-.57-.88-.28-1.33l2.95-4.53c.29-.44.89-.57,1.33-.28.44.29.57.88.28,1.33l-2.95,4.53c-.18.28-.49.44-.8.44Z"/>
          <path class="cls-4" d="M345.49,360.02c-1.84,2.24-4.94,3.07-7.87,3.08-2.95,0-5.86-.69-8.8-.97-4.81-.46-8.87.66-13.01,1.9,5.53-8.87,10.63-18.01,14.07-27.86,3.47-9.95,5.15-20.78,3.7-31.14,2.4,4.99,4.2,10.15,3.92,15.7-.31,6.07-.54,10.09,2.24,15.78,2.42,4.96,9.87,18.53,5.75,23.51Z"/>
        </g>
        <g>
          <path class="cls-12" d="M299.92,268.7c-1.85,4.29-6.86,4.51-8.5,4.59-.54.02-1.17.05-1.84.05-2.43,0-5.52-.36-8.03-2.54-4.13-3.59-2.87-7.79-2.19-10.05.17-.56.33-1.08.39-1.5.07-.42.11-.86.14-1.31-1.28,1.53-3.16,2.57-5.37,2.96-.8.14-1.57.19-2.31.19-.95,0-1.84-.08-2.67-.15-1.1-.1-2.61-.24-4.11-.93-2.24-1.01-3.78-2.95-4.11-5.17-.27-1.77.28-3.22.62-4.08.49-1.29,1.02-2.58,1.56-3.88,1.18-2.85,2.3-5.54,2.96-8.22.55-2.25.95-4.65,1.3-6.89-1.16.06-2.33.11-3.5.11-5.62,0-11.34-.7-16.92-1.5-6.04-.87-11.86-1.97-16.6-5.93-2.86-2.38-4.55-5.39-4.76-8.45-.25-3.64,1.17-5.73,2.4-6.85.42-.38.87-.7,1.36-.96.03-.25.07-.49.13-.74.49-2.21,1.83-4.02,3.76-5.08,3.69-2.01,8.04-.67,9.29-.21,1.54.57,2.88,1.29,4.18,1.99.42.23.84.45,1.26.67,8.02,4.15,17.5,5.25,26.02,3.04l.37-.1c1.47-.38,3.29-.86,5.38-.54,3.28.51,5.84,3.05,6.18,6.04,1.25.68,2.29,1.67,2.97,2.91.99,1.83,1.08,4.04.34,6.04.43.95.7,1.91.91,2.67.06.23.11.44.17.59.63,1.82,1.22,3.76,1.76,5.79.89,3.36,1.65,6.98,2.38,11.38.89,5.34,2.39,10.52,3.98,16,.36,1.27.73,2.53,1.09,3.81.38,1.32,1.07,3.79.01,6.25Z"/>
          <path class="cls-5" d="M285.34,221.8c-.77,1.05-1.92,1.74-3.08,2.34-10.29,5.19-22.73,3.95-34.35,2.28-5.14-.74-10.57-1.67-14.61-5.04-1.73-1.44-3.18-3.44-3.33-5.65-.25-3.6,1.91-4.76,4.36-4.35-.53-.94-.79-2.03-.56-3.05.79-3.57,5.05-3.42,7.77-2.41,1.74.64,3.34,1.61,5,2.46,8.89,4.6,19.39,5.82,28.85,3.36,1.35-.35,2.74-.77,4.12-.56,1.4.22,2.81,1.32,2.83,2.73.02.91-.55,1.72-1.28,2.23-.19.14-.4.26-.61.37.59-.15,1.2-.25,1.81-.24,1.36,0,2.83.6,3.49,1.81.64,1.18.34,2.67-.42,3.72Z"/>
          <path class="cls-5" d="M283.37,248.12c.26,3.71.9,8.08.33,11.74-.43,2.76-2.44,5.39.46,7.92,1.89,1.64,4.62,1.62,7.07,1.51,1.94-.09,4.25-.41,5.01-2.18.48-1.1.15-2.4-.19-3.58-1.91-6.74-4.03-13.38-5.17-20.25-.61-3.69-1.34-7.38-2.3-11.01-.49-1.85-1.04-3.68-1.67-5.49-.37-1.06-.85-3.87-2.08-4.25-.41-.13-.85-.09-1.28-.04-.95.1-1.93.23-2.76.7-1.97,1.13-1.1,2.76-.66,4.54.56,2.26,1.06,4.53,1.49,6.81.84,4.49,1.42,9.02,1.74,13.56Z"/>
          <path class="cls-5" d="M281.71,228.4c.33-.96.18-2.08-.39-2.95s-1.56-1.45-2.58-1.54c-.98-.08-1.93.27-2.84.62-1.26.48-2.88.65-3.27,1.96s-.46,2.92-.67,4.32c-.44,2.95-.9,5.91-1.61,8.8-1.05,4.28-3.1,8.46-4.67,12.57-.25.66-.51,1.35-.4,2.06.14.95.93,1.73,1.81,2.13s1.86.49,2.82.58c1.31.12,2.64.24,3.92.01s2.54-.84,3.25-1.92c1.32-2.02,1.06-5.4,1.31-7.75.71-6.54,1.79-12.94,2.54-19.48"/>
          <path class="cls-8" d="M262.95,221.14c-9.02,0-18-2.14-26.21-6.28-.47-.24-.66-.81-.42-1.29.24-.47.82-.66,1.29-.42,9.21,4.65,19.43,6.7,29.54,5.92.52-.04.99.35,1.03.88.04.53-.35.99-.88,1.03-1.45.11-2.89.17-4.34.17Z"/>
          <path class="cls-8" d="M271.42,220.38c-.49,0-.9-.37-.95-.86-.05-.53.33-1,.86-1.05l2.45-.24c.54-.05,1,.33,1.05.86.05.53-.33,1-.86,1.05l-2.45.24s-.06,0-.1,0Z"/>
        </g>
        <g>
          <path class="cls-12" d="M191.03,197.58c-1.36,1.58-3.16,2.31-4.91,2.86-4.19,1.33-8.69,2.13-13.12,2.66l1.46,9.54c.04.3.12.67.2,1.08.62,3.11,1.78,8.89-2.67,11.44-1.46.84-3.31,1.14-5.06,1.14s-3.32-.28-4.41-.63c-2.07-.65-3.68-1.99-4.53-3.76-.96-2-.69-3.98-.54-5.17l.22-1.59c.48-3.52.93-6.85.68-10.22-.02-.29-.03-.57-.05-.87-.1.01-.2.01-.3.01-7.5,0-14.83-.9-21.88-2.69-.69-.18-1.37-.36-2.04-.55-3.83-1.08-8.5-2.85-10.61-7.04-1.11-2.2-1.1-4.59.02-6.55.76-1.32,2.03-2.41,3.69-3.14v-.14c.05-1.96,1.04-3.85,2.65-5.05,2-1.51,4.8-2.03,7.67-1.43,1.43.29,2.6.81,3.64,1.26.56.25,1.08.48,1.55.63l.2.06c1.64.52,3.19,1.01,4.81,1.35,3.6.75,7.55,1.15,11.67,1.1,5.27-.03,10.86-.66,17.58-1.99,1.46-.29,3.18-.63,5.06-.4,3.04.36,5.48,2.22,6.2,4.73.21.71.27,1.44.2,2.16.86.52,1.59,1.11,2.15,1.7,2.57,2.73,2.77,6.82.47,9.5Z"/>
          <path class="cls-5" d="M135.16,196.98c.64.18,1.29.35,1.94.52,8.46,2.15,17.41,2.93,26.23,2.41,7.1-.42,14.91-1.16,21.59-3.28,1.16-.37,2.36-.82,3.08-1.66,1.04-1.21.75-2.98-.35-4.15-1.18-1.25-4.31-2.79-6.18-1.7.79-.46,1.59-.92,2.18-1.55s.95-1.46.73-2.24c-.3-1.04-1.57-1.72-2.84-1.87s-2.55.11-3.8.36c-6.01,1.19-12.16,2.03-18.34,2.07-4.21.02-8.43-.33-12.51-1.18-1.88-.39-3.59-.94-5.39-1.51-1.63-.52-3.07-1.43-4.8-1.79-1.53-.32-3.29-.16-4.47.71s-1.46,2.58-.34,3.5c.29.24.69.51.57.84-.08.23-.39.33-.66.41-.92.25-1.86.44-2.74.79s-1.68.87-2.1,1.59c-.49.85-.36,1.88.08,2.75,1.4,2.77,4.9,4.09,8.13,4.99Z"/>
          <path class="cls-5" d="M167.17,191.33c1.11,7.3,2.23,14.6,3.34,21.91.33,2.14,1.84,7.11-.5,8.45-1.54.88-4.64.68-6.28.16-.89-.28-1.72-.84-2.13-1.68-.43-.89-.31-1.93-.18-2.91.56-4.27,1.24-8.3.92-12.62-.29-4.01-.33-7.81-1.37-11.75"/>
          <path class="cls-8" d="M157.58,191.99c-7.81,0-15.7-1.17-23.12-3.45-.43-.13-.68-.59-.55-1.03.13-.43.6-.68,1.03-.54,9.28,2.85,19.29,3.92,28.96,3.11.46-.05.85.3.89.75.04.45-.3.85-.75.89-2.14.18-4.3.27-6.47.27Z"/>
          <path class="cls-8" d="M170.32,191.69s-.07,0-.1,0c-.45,0-.82-.38-.81-.83,0-.45.37-.81.82-.81.03,0,.06,0,.09,0,.97,0,1.97-.19,2.87-.54.42-.17.9.04,1.07.47s-.04.9-.47,1.07c-1.09.43-2.29.65-3.47.65Z"/>
        </g>
      </g>
      <g>
        <path class="cls-15" d="M496.46,450.35h-40.4V47.15h38.4c2.2,0,4-1.79,4-4v-6.06c.03-.22.06-.44.06-.67V3.75c0-2.21-1.79-4-4-4H5.48C3.27-.25,1.48,1.54,1.48,3.75v3.9c-.04.22-.07.44-.07.67v34.83c0,2.21,1.79,4,4,4h41.35v403.2H3.41c-2.21,0-4,1.79-4,4v44.9c0,2.21,1.79,4,4,4h493.05c2.21,0,4-1.79,4-4v-44.9c0-2.21-1.79-4-4-4ZM70.76,47.15h53.06v403.2h-53.06V47.15ZM200.88,450.35h-53.06V47.15h53.06v403.2ZM277.94,450.35h-53.06V47.15h53.06v403.2ZM355,450.35h-53.06V47.15h53.06v403.2ZM432.06,450.35h-53.06V47.15h53.06v403.2Z"/>
        <rect class="cls-13" x="3.41" y="454.35" width="493.04" height="20.89"/>
        <rect class="cls-2" x="3.41" y="477.79" width="493.04" height="21.46"/>
        <rect class="cls-9" x="3.41" y="491.79" width="493.04" height="7.46"/>
        <rect class="cls-16" x="3.41" y="475.24" width="493.04" height="2.55"/>
        <g>
          <rect class="cls-2" x="50.76" y="33.7" width="16" height="431.47"/>
          <rect class="cls-2" x="127.82" y="33.7" width="16" height="431.47"/>
          <rect class="cls-2" x="204.88" y="33.7" width="16" height="431.47"/>
          <rect class="cls-2" x="281.94" y="33.7" width="16" height="431.47"/>
          <rect class="cls-2" x="359" y="33.7" width="16" height="431.47"/>
          <rect class="cls-2" x="436.06" y="33.7" width="16" height="431.47"/>
          <ellipse class="cls-2" cx="289.94" cy="465.17" rx="8" ry="4"/>
          <ellipse class="cls-2" cx="367" cy="465.17" rx="8" ry="4"/>
          <ellipse class="cls-2" cx="444.06" cy="465.17" rx="8" ry="4"/>
          <ellipse class="cls-2" cx="58.76" cy="465.17" rx="8" ry="4"/>
          <ellipse class="cls-2" cx="135.82" cy="465.17" rx="8" ry="4"/>
          <ellipse class="cls-2" cx="212.88" cy="465.17" rx="8" ry="4"/>
        </g>
        <g>
          <rect class="cls-15" x="50.76" y="33.7" width="16" height="47.67"/>
          <rect class="cls-15" x="127.82" y="33.7" width="16" height="47.67"/>
          <rect class="cls-15" x="204.88" y="33.7" width="16" height="47.67"/>
          <rect class="cls-15" x="281.94" y="33.7" width="16" height="47.67"/>
          <rect class="cls-15" x="359" y="33.7" width="16" height="47.67"/>
          <rect class="cls-15" x="436.06" y="33.7" width="16" height="47.67"/>
          <ellipse class="cls-15" cx="289.94" cy="81.38" rx="8" ry="4"/>
          <ellipse class="cls-15" cx="367" cy="81.38" rx="8" ry="4"/>
          <ellipse class="cls-15" cx="444.06" cy="81.38" rx="8" ry="4"/>
          <ellipse class="cls-15" cx="58.76" cy="81.38" rx="8" ry="4"/>
          <ellipse class="cls-15" cx="135.82" cy="81.38" rx="8" ry="4"/>
          <ellipse class="cls-15" cx="212.88" cy="81.38" rx="8" ry="4"/>
        </g>
        <rect class="cls-2" x="5.41" y="8.32" width="489.04" height="34.83"/>
        <rect class="cls-15" x="5.48" y="3.75" width="489.04" height="32.67"/>
      </g>
    </g>
  </g>
</svg>