<?xml version="1.0" encoding="UTF-8"?>
<svg id="Expanded" xmlns="http://www.w3.org/2000/svg" xmlns:xlink="http://www.w3.org/1999/xlink" viewBox="0 0 500 700">
  <defs>
    <style>
      .cls-1 {
        fill: #8650dd;
      }

      .cls-2 {
        fill: #a152db;
      }

      .cls-3 {
        fill: #4d4d4d;
      }

      .cls-4 {
        fill: #fff;
      }

      .cls-5 {
        fill: #dfedf2;
      }

      .cls-6 {
        fill: #fff8d9;
      }

      .cls-7 {
        fill: #f4b545;
      }

      .cls-8 {
        fill: none;
      }

      .cls-9 {
        fill: #f47aa0;
      }

      .cls-10 {
        clip-path: url(#clippath-1);
      }

      .cls-11 {
        fill: #e9f1f4;
      }

      .cls-12 {
        fill: #666;
      }

      .cls-13 {
        fill: #79cdf6;
      }

      .cls-14 {
        fill: #ffe277;
      }

      .cls-15 {
        fill: #333;
      }

      .cls-16 {
        fill: #47acea;
      }

      .cls-17 {
        fill: #999;
      }

      .cls-18 {
        fill: #e54a81;
      }

      .cls-19 {
        clip-path: url(#clippath-2);
      }

      .cls-20 {
        fill: gray;
      }

      .cls-21 {
        fill: #95d8ef;
        opacity: 0;
      }

      .cls-22 {
        fill: #d27cf2;
      }

      .cls-23 {
        clip-path: url(#clippath);
      }

      .cls-24 {
        opacity: .5;
      }
    </style>
    <clipPath id="clippath">
      <rect class="cls-8" x="-36" y="68" width="572" height="468" rx="32" ry="32" transform="translate(552 52) rotate(90)"/>
    </clipPath>
    <clipPath id="clippath-1">
      <rect class="cls-8" x="-736" y="68" width="572" height="468" rx="32" ry="32" transform="translate(-148 752) rotate(90)"/>
    </clipPath>
    <clipPath id="clippath-2">
      <rect class="cls-8" x="664" y="68" width="572" height="468" rx="32" ry="32" transform="translate(1252 -648) rotate(90)"/>
    </clipPath>
  </defs>
  <g>
    <g>
      <path class="cls-11" d="M48,699.5c-26.19,0-47.5-21.31-47.5-47.5V48C.5,21.81,21.81.5,48,.5h404c8.33,0,16.53,2.19,23.71,6.33,14.67,8.47,23.79,24.24,23.79,41.17v604c0,26.19-21.31,47.5-47.5,47.5H48Z"/>
      <path class="cls-15" d="M452,1c8.25,0,16.36,2.17,23.46,6.27,14.52,8.38,23.54,23.98,23.54,40.73v604c0,25.92-21.08,47-47,47H48c-25.92,0-47-21.08-47-47V48C1,22.08,22.08,1,48,1h404M452,0H48C21.49,0,0,21.49,0,48v604c0,26.51,21.49,48,48,48h404c26.51,0,48-21.49,48-48V48c0-17.79-9.67-33.31-24.04-41.6-7.05-4.07-15.23-6.4-23.96-6.4h0Z"/>
    </g>
    <path class="cls-4" d="M500,48v374.52L0,539.11V117.39L475.96,6.4c14.37,8.29,24.04,23.81,24.04,41.6Z"/>
    <path class="cls-4" d="M500,459.42v140.57l-428.9,100.01h-23.1c-26.51,0-48-21.49-48-48v-75.99l500-116.59Z"/>
    <path class="cls-15" d="M452,1c25.92,0,47,21.08,47,47v604c0,25.92-21.08,47-47,47H48c-25.92,0-47-21.08-47-47V48C1,22.08,22.08,1,48,1h404M452,0H48C21.49,0,0,21.49,0,48v604c0,26.51,21.49,48,48,48h404c26.51,0,48-21.49,48-48V48c0-26.51-21.49-48-48-48h0Z"/>
    <g>
      <rect class="cls-4" x="15" y="15" width="470" height="574" rx="33" ry="33"/>
      <path class="cls-15" d="M452,16c17.67,0,32,14.33,32,32v508c0,17.67-14.33,32-32,32H48c-17.67,0-32-14.33-32-32V48c0-17.67,14.33-32,32-32h404M452,14H48c-18.75,0-34,15.25-34,34v508c0,18.75,15.25,34,34,34h404c18.75,0,34-15.25,34-34V48c0-18.75-15.25-34-34-34h0Z"/>
    </g>
  </g>
  <g class="cls-23">
    <rect class="cls-3" x="-74.07" y="68.14" width="648.14" height="530.29" rx="32" ry="32" transform="translate(583.29 83.28) rotate(90)"/>
    <ellipse class="cls-12" cx="250" cy="225.27" rx="514.62" ry="285.73"/>
    <ellipse class="cls-20" cx="250" cy="225.27" rx="233.31" ry="129.54"/>
    <ellipse class="cls-17" cx="250" cy="225.27" rx="143.98" ry="79.94"/>
    <g>
      <g id="_x3C_Radial_Repeat_x3E_">
        <rect class="cls-4" x="30.48" y="479.26" width="440.48" height="1" transform="translate(-230.74 727.19) rotate(-89.61)"/>
      </g>
      <g id="_x3C_Radial_Repeat_x3E_-2" data-name="_x3C_Radial_Repeat_x3E_">
        <rect class="cls-4" x="-33.78" y="470.34" width="440.48" height="1" transform="translate(-316.99 525.64) rotate(-74.61)"/>
      </g>
      <g id="_x3C_Radial_Repeat_x3E_-3" data-name="_x3C_Radial_Repeat_x3E_">
        <rect class="cls-4" x="-93.55" y="445.1" width="440.48" height="1" transform="translate(-321.81 329.62) rotate(-59.63)"/>
      </g>
      <g id="_x3C_Radial_Repeat_x3E_-4" data-name="_x3C_Radial_Repeat_x3E_">
        <rect class="cls-4" x="-144.74" y="405.24" width="440.49" height="1" transform="translate(-263.33 170.11) rotate(-44.64)"/>
      </g>
      <g id="_x3C_Radial_Repeat_x3E_-5" data-name="_x3C_Radial_Repeat_x3E_">
        <rect class="cls-4" x="-183.88" y="353.49" width="440.48" height="1" transform="translate(-170.21 64.23) rotate(-29.62)"/>
      </g>
      <g id="_x3C_Radial_Repeat_x3E_-6" data-name="_x3C_Radial_Repeat_x3E_">
        <rect class="cls-4" x="-208.29" y="293.38" width="440.48" height="1" transform="translate(-73.66 12.49) rotate(-14.59)"/>
      </g>
      <g id="_x3C_Radial_Repeat_x3E_-7" data-name="_x3C_Radial_Repeat_x3E_">
        <polygon class="cls-4" points="224.17 231.51 -216.31 228.48 -216.3 227.48 224.17 230.51 224.17 231.51"/>
      </g>
      <g id="_x3C_Radial_Repeat_x3E_-8" data-name="_x3C_Radial_Repeat_x3E_">
        <rect class="cls-4" x="12.35" y="-55.01" width="1" height="440.48" transform="translate(-149.87 133.76) rotate(-74.61)"/>
      </g>
      <g id="_x3C_Radial_Repeat_x3E_-9" data-name="_x3C_Radial_Repeat_x3E_">
        <rect class="cls-4" x="37.6" y="-114.77" width="1" height="440.48" transform="translate(-72.15 84.97) rotate(-59.61)"/>
      </g>
      <g id="_x3C_Radial_Repeat_x3E_-10" data-name="_x3C_Radial_Repeat_x3E_">
        <rect class="cls-4" x="77.45" y="-165.97" width="1" height="440.49" transform="translate(-15.66 70.37) rotate(-44.61)"/>
      </g>
      <g id="_x3C_Radial_Repeat_x3E_-11" data-name="_x3C_Radial_Repeat_x3E_">
        <rect class="cls-4" x="129.2" y="-205.1" width="1" height="440.48" transform="translate(9.45 66.05) rotate(-29.61)"/>
      </g>
      <g id="_x3C_Radial_Repeat_x3E_-12" data-name="_x3C_Radial_Repeat_x3E_">
        <rect class="cls-4" x="189.31" y="-229.51" width="1" height="440.48" transform="translate(8.47 47.57) rotate(-14.61)"/>
      </g>
      <g id="_x3C_Radial_Repeat_x3E_-13" data-name="_x3C_Radial_Repeat_x3E_">
        <rect class="cls-4" x="33.95" y="-17.79" width="440.48" height="1" transform="translate(269.75 237.02) rotate(-89.61)"/>
      </g>
      <g id="_x3C_Radial_Repeat_x3E_-14" data-name="_x3C_Radial_Repeat_x3E_">
        <rect class="cls-4" x="98.22" y="-8.87" width="440.48" height="1" transform="translate(242 300.89) rotate(-74.61)"/>
      </g>
      <g id="_x3C_Radial_Repeat_x3E_-15" data-name="_x3C_Radial_Repeat_x3E_">
        <rect class="cls-4" x="157.98" y="16.37" width="440.48" height="1" transform="translate(172.45 334.67) rotate(-59.63)"/>
      </g>
      <g id="_x3C_Radial_Repeat_x3E_-16" data-name="_x3C_Radial_Repeat_x3E_">
        <rect class="cls-4" x="209.18" y="56.23" width="440.49" height="1" transform="translate(84.03 318.12) rotate(-44.64)"/>
      </g>
      <g id="_x3C_Radial_Repeat_x3E_-17" data-name="_x3C_Radial_Repeat_x3E_">
        <rect class="cls-4" x="248.31" y="107.98" width="440.48" height="1" transform="translate(7.62 245.76) rotate(-29.62)"/>
      </g>
      <g id="_x3C_Radial_Repeat_x3E_-18" data-name="_x3C_Radial_Repeat_x3E_">
        <rect class="cls-4" x="272.72" y="168.09" width="440.48" height="1" transform="translate(-26.57 129.64) rotate(-14.59)"/>
      </g>
      <g id="_x3C_Radial_Repeat_x3E_-19" data-name="_x3C_Radial_Repeat_x3E_">
        <polygon class="cls-4" points="721.22 234.99 280.74 231.96 280.75 230.96 721.22 233.99 721.22 234.99"/>
      </g>
      <g id="_x3C_Radial_Repeat_x3E_-20" data-name="_x3C_Radial_Repeat_x3E_">
        <rect class="cls-4" x="491.56" y="76.99" width="1" height="440.48" transform="translate(74.87 692.74) rotate(-74.61)"/>
      </g>
      <g id="_x3C_Radial_Repeat_x3E_-21" data-name="_x3C_Radial_Repeat_x3E_">
        <rect class="cls-4" x="466.32" y="136.76" width="1" height="440.48" transform="translate(-77.3 579.04) rotate(-59.61)"/>
      </g>
      <g id="_x3C_Radial_Repeat_x3E_-22" data-name="_x3C_Radial_Repeat_x3E_">
        <rect class="cls-4" x="426.46" y="187.95" width="1" height="440.48" transform="translate(-163.66 417.4) rotate(-44.61)"/>
      </g>
      <g id="_x3C_Radial_Repeat_x3E_-23" data-name="_x3C_Radial_Repeat_x3E_">
        <rect class="cls-4" x="374.72" y="227.09" width="1" height="440.48" transform="translate(-172.01 243.77) rotate(-29.61)"/>
      </g>
      <g id="_x3C_Radial_Repeat_x3E_-24" data-name="_x3C_Radial_Repeat_x3E_">
        <rect class="cls-4" x="314.6" y="251.5" width="1" height="440.48" transform="translate(-108.78 94.7) rotate(-14.61)"/>
      </g>
    </g>
    <g>
      <g>
        <path class="cls-4" d="M430.22,308.54c2.07,1.78,1.94,4.99,1.48,7.68-3.01,17.76-10.27,35.06-24.9,46.23-8.58,6.55-18.97,10.63-29.67,11.87.44.54.88,1.09,1.31,1.65,4.28,5.38,8.66,11.32,12.91,16.58,1.3,1.6,2.68,3.4,2.65,5.47-.06,3.36-3.62,5.45-6.77,6.58-18.9,6.81-42.74,2.84-59.14-8.8-8.23,3.74-17.5,5.22-26.47,4.11-11.68-1.44-23.33-6.77-30.63-16-23.98-30.37-4.61-65.09,5.14-76.61,9.77-11.51,24.22-18,38.72-22.17,30.67-8.8,58.08-21.69,81.06-44.48,8-7.94,16.27-15.5,24.6-23.11.54-.5,1.12-1,1.74-1.42.91-.62,1.9-1.05,2.98-.95,2.48.23,3.79,3,4.49,5.4,8.13,27.87-2.16,58.25-20.85,79.63-.74.85-1.49,1.68-2.26,2.5t-.02.02c-5.19,5.56-11.05,10.51-17.42,14.7,11.44-2.61,23.01-5.28,34.01-9.32,1.35-.49,2.89-.81,4.3-.66,1.01.1,1.96.43,2.74,1.1Z"/>
        <path class="cls-5" d="M312.42,357.78c2.54-4.25,8.63-5.62,13.08-3.44s7.06,7.28,6.96,12.23c-.09,4.95-2.6,9.66-6.14,13.12-3.54,3.46-8.05,5.78-12.7,7.48-11.81,4.31-24.99,4.8-37.09,1.37,6.49,6.73,15.75,10.43,25.07,11.09s18.7-1.56,27.23-5.37c8.71-3.88,17.2-10.12,19.92-19.25,2.48-8.34-.81-18.07-7.84-23.2-7.03-5.12-17.31-5.27-24.48-.35"/>
        <path class="cls-5" d="M394.79,286.19c-11.99,11.6-27.05,18.68-44.46,23.85-21.18,6.29-58.75,14.15-59.16,42.55-.09,6.27,3.17,12.88,8.96,15.3,1.92.8,4.42,1.01,5.84-.51.82-.88,1.08-2.12,1.39-3.27,2.48-9.33,9.73-16.81,18.06-21.69,10.42-6.1,22.34-8.44,33.69-12.13,10.78-3.5,21.46-7.5,31.03-13.67,2.17-1.4,4.28-2.9,6.31-4.49,12.71-9.97,23.39-24.1,29.67-38.97,3.95-9.36,7.46-19.08,8.21-29.22.5-6.75.06-15.66-3.6-21.62-1.16-1.89-2.95-3.52-5.38-2.43-2.74,1.23-2.29,4.82-2.65,7.33-1.98,14.06-6.61,27.74-13.54,40.14-4.12,7.38-8.94,13.58-14.38,18.85Z"/>
        <path class="cls-5" d="M342.35,382.9c13.42,12.33,32.47,18.26,50.52,15.75.06,1.72-.97,3.33-2.34,4.37s-3.04,1.59-4.69,2.07c-18.31,5.25-38.84,2.18-54.81-8.21-.59-.39-1.25-.9-1.23-1.61.01-.68.64-1.16,1.2-1.54,3.03-2.04,6.06-4.07,9.09-6.11"/>
        <path class="cls-5" d="M431.7,316.22c-3.01,17.76-10.27,35.06-24.9,46.23-8.58,6.55-18.97,10.63-29.67,11.87.44.54.88,1.09,1.31,1.65-10.35-.34-20.67-1.78-30.87-3.61,2.1-1.84,1.13-5.27-.14-7.76-1.27-2.5-2.64-5.63-.99-7.89,1.19-1.61,3.41-1.96,5.4-2.2,15.51-1.93,31.01-5.67,44.68-13.25,13.64-7.57,25.4-19.25,30.96-33.82,1.01.1,1.96.43,2.74,1.1,2.07,1.78,1.94,4.99,1.48,7.68Z"/>
        <g>
          <path class="cls-15" d="M307.45,402.26c-2.03,0-4.06-.12-6.07-.37-13.19-1.63-24.84-7.73-31.96-16.74-23.61-29.89-6.93-64.84,5.19-79.14,8.6-10.15,21.58-17.6,39.68-22.8,34.44-9.89,59.92-23.86,80.2-43.97,8.09-8.02,16.52-15.73,24.67-23.18,1.66-1.52,3.65-3.11,6.24-2.88,1.99.18,4.68,1.51,6.23,6.82,7.71,26.45-.43,57.68-21.25,81.5-11.68,13.36-26.37,23.17-42.48,28.38-1.06.34-2.18-.24-2.52-1.29-.34-1.05.24-2.18,1.29-2.52,15.42-4.98,29.5-14.39,40.7-27.21,19.93-22.81,27.76-52.6,20.42-77.75-.33-1.15-1.27-3.82-2.76-3.96-.97-.09-2.15.91-3.18,1.85-8.12,7.42-16.52,15.1-24.55,23.07-20.77,20.61-46.8,34.9-81.91,44.98-17.32,4.97-29.67,12.02-37.74,21.54-11.39,13.44-27.11,46.21-5.1,74.07,6.47,8.2,17.15,13.75,29.31,15.25,11.17,1.38,22.91-1.45,32.23-7.75,6.67-4.51,11.09-10.29,12.45-16.27,1.14-5.02-.1-10.59-3.4-15.29-3.3-4.7-8.13-7.75-13.23-8.37-5.11-.63-10.52,1.18-14.86,4.95s-6.88,8.88-6.97,14.02c-.02,1.1-.95,2-2.04,1.96-1.1-.02-1.98-.93-1.96-2.04.12-6.27,3.16-12.46,8.35-16.97s11.73-6.66,17.96-5.9c6.23.76,12.07,4.42,16.02,10.04,3.95,5.62,5.42,12.36,4.03,18.47-1.59,6.98-6.6,13.62-14.11,18.7-8.43,5.7-18.69,8.78-28.89,8.78Z"/>
          <path class="cls-15" d="M370.06,376.73c-3.81,0-7.61-.35-11.35-1.07-1.08-.21-1.8-1.26-1.59-2.34.21-1.08,1.26-1.8,2.34-1.59,15.96,3.06,33.21-1.01,46.12-10.87,12.59-9.62,20.72-24.75,24.15-44.97.51-3.01.24-4.92-.82-5.84-1.45-1.25-4.23-.37-5.05-.07-11.16,4.09-22.9,6.79-34.26,9.39-1.07.25-2.15-.43-2.4-1.5-.25-1.08.43-2.15,1.5-2.4,11.24-2.58,22.86-5.24,33.78-9.25,3.67-1.34,6.87-1.06,9.03.79,3.3,2.83,2.44,7.88,2.16,9.54-3.61,21.25-12.24,37.22-25.67,47.48-10.78,8.24-24.38,12.69-37.95,12.69Z"/>
          <path class="cls-15" d="M366.28,410.22c-13.6,0-27.16-4.22-38.25-12.3-.89-.65-1.09-1.9-.44-2.79.65-.89,1.9-1.09,2.79-.44,16,11.67,37.52,14.75,56.16,8.04,1.62-.58,5.4-2.22,5.44-4.73.02-1.34-1.03-2.74-2.2-4.19-2.36-2.91-4.79-6.08-7.14-9.14-2.34-3.05-4.76-6.2-7.09-9.08-.69-.86-.56-2.12.3-2.81.86-.69,2.12-.56,2.81.3,2.36,2.92,4.8,6.09,7.16,9.16,2.33,3.04,4.75,6.19,7.08,9.06,1.25,1.54,3.13,3.87,3.09,6.77-.06,3.57-2.93,6.56-8.09,8.42-6.96,2.51-14.3,3.73-21.63,3.73Z"/>
        </g>
      </g>
      <g>
        <path class="cls-4" d="M70.77,308.54c-2.07,1.78-1.94,4.99-1.48,7.68,3.01,17.76,10.27,35.06,24.9,46.23,8.58,6.55,18.97,10.63,29.67,11.87-.44.54-.88,1.09-1.31,1.65-4.28,5.38-8.66,11.32-12.91,16.58-1.3,1.6-2.68,3.4-2.65,5.47.06,3.36,3.62,5.45,6.77,6.58,18.9,6.81,42.74,2.84,59.14-8.8,8.23,3.74,17.5,5.22,26.47,4.11,11.68-1.44,23.33-6.77,30.63-16,23.98-30.37,4.61-65.09-5.14-76.61-9.77-11.51-24.22-18-38.72-22.17-30.67-8.8-58.08-21.69-81.06-44.48-8-7.94-16.27-15.5-24.6-23.11-.54-.5-1.12-1-1.74-1.42-.91-.62-1.9-1.05-2.98-.95-2.48.23-3.79,3-4.49,5.4-8.13,27.87,2.16,58.25,20.85,79.63.74.85,1.49,1.68,2.26,2.5t.02.02c5.19,5.56,11.05,10.51,17.42,14.7-11.44-2.61-23.01-5.28-34.01-9.32-1.35-.49-2.89-.81-4.3-.66-1.01.1-1.96.43-2.74,1.1Z"/>
        <path class="cls-5" d="M188.57,357.78c-2.54-4.25-8.63-5.62-13.08-3.44s-7.06,7.28-6.96,12.23c.09,4.95,2.6,9.66,6.14,13.12s8.05,5.78,12.7,7.48c11.81,4.31,24.99,4.8,37.09,1.37-6.49,6.73-15.75,10.43-25.07,11.09s-18.7-1.56-27.23-5.37c-8.71-3.88-17.2-10.12-19.92-19.25-2.48-8.34.81-18.07,7.84-23.2,7.03-5.12,17.31-5.27,24.48-.35"/>
        <path class="cls-5" d="M106.2,286.19c11.99,11.6,27.05,18.68,44.46,23.85,21.18,6.29,58.75,14.15,59.16,42.55.09,6.27-3.17,12.88-8.96,15.3-1.92.8-4.42,1.01-5.84-.51-.82-.88-1.08-2.12-1.39-3.27-2.48-9.33-9.73-16.81-18.06-21.69-10.42-6.1-22.34-8.44-33.69-12.13-10.78-3.5-21.46-7.5-31.03-13.67-2.17-1.4-4.28-2.9-6.31-4.49-12.71-9.97-23.39-24.1-29.67-38.97-3.95-9.36-7.46-19.08-8.21-29.22-.5-6.75-.06-15.66,3.6-21.62,1.16-1.89,2.95-3.52,5.38-2.43,2.74,1.23,2.29,4.82,2.65,7.33,1.98,14.06,6.61,27.74,13.54,40.14,4.12,7.38,8.94,13.58,14.38,18.85Z"/>
        <path class="cls-5" d="M158.64,382.9c-13.42,12.33-32.47,18.26-50.52,15.75-.06,1.72.97,3.33,2.34,4.37,1.37,1.04,3.04,1.59,4.69,2.07,18.31,5.25,38.84,2.18,54.81-8.21.59-.39,1.25-.9,1.23-1.61-.01-.68-.64-1.16-1.2-1.54-3.03-2.04-6.06-4.07-9.09-6.11"/>
        <path class="cls-5" d="M69.29,316.22c3.01,17.76,10.27,35.06,24.9,46.23,8.58,6.55,18.97,10.63,29.67,11.87-.44.54-.88,1.09-1.31,1.65,10.35-.34,20.67-1.78,30.87-3.61-2.1-1.84-1.13-5.27.14-7.76,1.27-2.5,2.64-5.63.99-7.89-1.19-1.61-3.41-1.96-5.4-2.2-15.51-1.93-31.01-5.67-44.68-13.25-13.64-7.57-25.4-19.25-30.96-33.82-1.01.1-1.96.43-2.74,1.1-2.07,1.78-1.94,4.99-1.48,7.68Z"/>
        <g>
          <path class="cls-15" d="M193.54,402.26c-10.2,0-20.46-3.08-28.89-8.78-7.51-5.08-12.52-11.72-14.11-18.7-1.39-6.12.07-12.85,4.03-18.47,3.95-5.62,9.79-9.28,16.02-10.04,6.23-.76,12.78,1.39,17.96,5.9,5.19,4.51,8.23,10.69,8.35,16.97.02,1.1-.86,2.02-1.96,2.04-1.06.03-2.02-.86-2.04-1.96-.09-5.14-2.64-10.25-6.97-14.02-4.33-3.77-9.75-5.57-14.86-4.95-5.11.62-9.93,3.67-13.23,8.37-3.3,4.7-4.54,10.27-3.4,15.29,1.36,5.98,5.79,11.76,12.45,16.27,9.32,6.3,21.06,9.13,32.23,7.75,12.15-1.5,22.83-7.06,29.3-15.25,22.01-27.86,6.29-60.64-5.1-74.07-8.07-9.52-20.41-16.57-37.74-21.54-35.11-10.08-61.14-24.37-81.91-44.98-8.03-7.96-16.43-15.64-24.56-23.07-1.03-.94-2.18-1.95-3.18-1.85-1.48.14-2.42,2.81-2.75,3.96-7.33,25.15.49,54.94,20.42,77.75,11.2,12.81,25.27,22.22,40.7,27.21,1.05.34,1.63,1.47,1.29,2.52-.34,1.05-1.46,1.63-2.52,1.29-16.11-5.21-30.8-15.02-42.48-28.38-20.82-23.82-28.96-55.05-21.25-81.5,1.55-5.31,4.24-6.64,6.23-6.82,2.8-.26,5.04,1.78,6.24,2.88,8.15,7.45,16.59,15.16,24.67,23.18,20.28,20.11,45.76,34.09,80.2,43.97,18.11,5.2,31.09,12.66,39.69,22.8,12.12,14.3,28.8,49.24,5.19,79.14-7.12,9.01-18.77,15.12-31.95,16.74-2.01.25-4.04.37-6.07.37Z"/>
          <path class="cls-15" d="M130.93,376.73c-13.57,0-27.17-4.45-37.95-12.69-13.42-10.26-22.06-26.23-25.67-47.48-.28-1.66-1.14-6.71,2.16-9.54,2.16-1.85,5.37-2.13,9.03-.79,10.92,4.01,22.54,6.67,33.78,9.25,1.08.25,1.75,1.32,1.5,2.4-.25,1.08-1.32,1.75-2.4,1.5-11.36-2.6-23.11-5.3-34.26-9.39-.82-.3-3.59-1.18-5.05.07-1.06.91-1.33,2.82-.82,5.84,3.43,20.22,11.56,35.35,24.15,44.97,12.92,9.87,30.16,13.93,46.12,10.87,1.09-.21,2.13.5,2.34,1.59.21,1.08-.5,2.13-1.59,2.34-3.74.72-7.54,1.07-11.35,1.07Z"/>
          <path class="cls-15" d="M134.71,410.22c-7.33,0-14.67-1.23-21.63-3.73-5.16-1.86-8.03-4.85-8.09-8.42-.05-2.9,1.84-5.23,3.09-6.77,2.33-2.87,4.74-6.02,7.08-9.06,2.36-3.07,4.79-6.24,7.16-9.16.7-.86,1.95-.99,2.81-.3.86.69.99,1.95.3,2.81-2.33,2.88-4.75,6.03-7.09,9.08-2.35,3.06-4.78,6.23-7.14,9.14-1.17,1.45-2.22,2.85-2.2,4.19.04,2.51,3.82,4.14,5.44,4.73,18.64,6.72,40.16,3.63,56.16-8.04.89-.65,2.14-.46,2.79.44.65.89.46,2.14-.44,2.79-11.09,8.08-24.65,12.3-38.25,12.3Z"/>
        </g>
      </g>
      <ellipse class="cls-14" cx="250" cy="225.74" rx="92.35" ry="41.2"/>
      <path class="cls-7" d="M182.1,223.44s0-29.4,67.9-30.75v7.83s-55.26,1.96-67.9,22.92Z"/>
      <path class="cls-13" d="M342.35,225.26h-92.35v-41.2c51.01,0,92.35,18.45,92.35,41.2Z"/>
      <path class="cls-16" d="M317.9,223.44s0-29.4-67.9-30.75v7.83s55.26,1.96,67.9,22.92Z"/>
      <path class="cls-9" d="M157.65,225.26s2.58-4.94,12.77-4.94,13.76,4.94,13.76,4.94h65.82v41.2c-51.01,0-92.35-18.45-92.35-41.2Z"/>
      <path class="cls-22" d="M342.35,225.26s-2.58-4.94-12.77-4.94-13.76,4.94-13.76,4.94h-65.82v41.2c51.01,0,92.35-18.45,92.35-41.2Z"/>
      <path class="cls-1" d="M340.68,223.44s-4,36.03-90.67,36.03v8.34s91-3.3,90.67-44.37Z"/>
      <path class="cls-2" d="M340.68,223.44s0,30.63-90.67,33.8v10.57s91-3.3,90.67-44.37Z"/>
      <path class="cls-18" d="M159.33,223.44s0,30.63,90.67,33.8v10.57s-91-3.3-90.67-44.37Z"/>
      <path class="cls-15" d="M250,268.47c-24.94,0-48.42-4.35-66.12-12.24-18.21-8.12-28.24-19.12-28.24-30.96s10.03-22.84,28.24-30.96c17.69-7.89,41.18-12.24,66.12-12.24s48.42,4.35,66.12,12.24c18.21,8.12,28.24,19.12,28.24,30.96s-10.03,22.84-28.24,30.96c-17.69,7.89-41.18,12.24-66.12,12.24ZM250,186.06c-24.39,0-47.3,4.22-64.49,11.9-16.68,7.44-25.87,17.14-25.87,27.31s9.19,19.87,25.87,27.31c17.19,7.67,40.09,11.9,64.49,11.9s47.3-4.22,64.49-11.9c16.68-7.44,25.87-17.14,25.87-27.31s-9.19-19.87-25.87-27.31c-17.19-7.67-40.09-11.9-64.49-11.9Z"/>
      <g>
        <ellipse class="cls-17" cx="250" cy="225.27" rx="65.89" ry="23.53"/>
        <path class="cls-15" d="M250,250.8c-38.07,0-67.89-11.22-67.89-25.53s29.82-25.53,67.89-25.53,67.89,11.22,67.89,25.53-29.82,25.53-67.89,25.53ZM250,203.73c-38.22,0-63.89,11.13-63.89,21.53s25.67,21.53,63.89,21.53,63.89-11.13,63.89-21.53-25.67-21.53-63.89-21.53Z"/>
      </g>
    </g>
  </g>
  <g class="cls-10">
    <g>
      <g id="_x3C_Radial_Repeat_x3E_-25" data-name="_x3C_Radial_Repeat_x3E_">
        <rect class="cls-4" x="-505.26" y="143.48" width="526.72" height="1" transform="translate(-24.41 -34.75) rotate(-8.65)"/>
      </g>
      <g id="_x3C_Radial_Repeat_x3E_-26" data-name="_x3C_Radial_Repeat_x3E_">
        <rect class="cls-4" x="-239.07" y="-73.14" width="1" height="526.72" transform="translate(-427.23 -49.59) rotate(-89.63)"/>
      </g>
      <g id="_x3C_Radial_Repeat_x3E_-27" data-name="_x3C_Radial_Repeat_x3E_">
        <rect class="cls-4" x="-243.02" y="-26.94" width="1" height="526.72" transform="translate(-436.28 -41.37) rotate(-80.63)"/>
      </g>
    </g>
  </g>
  <g>
    <path class="cls-15" d="M142.06,635.35c-.47,0-.84-.14-1.11-.43-.27-.29-.41-.73-.41-1.32s.14-1.03.41-1.32c.27-.29.64-.43,1.11-.43h14.2c.47,0,.84.14,1.11.43.27.29.41.73.41,1.32s-.14,1.03-.41,1.32c-.27.29-.64.43-1.11.43h-4.92v16.22c0,.62-.18,1.09-.53,1.42-.36.33-.9.5-1.65.5s-1.29-.17-1.65-.5c-.36-.33-.53-.81-.53-1.42v-16.22h-4.92Z"/>
    <path class="cls-15" d="M158.59,639.1c0-.57.15-1.01.45-1.31s.74-.45,1.31-.45c.28,0,.53.03.74.1.21.07.4.17.55.3.15.13.27.29.37.48.09.19.16.41.2.65l.2,1.14h.05c.2-.41.43-.78.69-1.13.26-.35.55-.65.88-.9.32-.25.67-.45,1.04-.59.37-.14.76-.21,1.16-.21.59,0,1.05.16,1.38.48.32.32.48.82.48,1.5,0,.79-.15,1.4-.45,1.84-.3.43-.66.65-1.08.65-.12,0-.22-.01-.31-.04-.09-.03-.19-.05-.27-.08-.09-.03-.18-.05-.27-.08-.09-.03-.2-.04-.33-.04-.25,0-.5.07-.74.2-.25.13-.47.3-.69.51-.21.21-.41.45-.6.71s-.35.54-.5.82v7.97c0,.59-.17,1.05-.52,1.38-.35.33-.88.49-1.6.49s-1.25-.16-1.6-.49c-.35-.33-.52-.79-.52-1.38v-12.52Z"/>
    <path class="cls-15" d="M179.33,643.23c0-.5-.06-.92-.17-1.28-.12-.35-.3-.64-.55-.86-.26-.22-.59-.39-1.02-.5-.42-.11-.94-.16-1.54-.16-.65,0-1.2.05-1.65.14s-.85.2-1.18.32c-.33.12-.62.23-.87.32-.25.09-.48.14-.7.14-.38,0-.69-.12-.93-.36-.25-.24-.37-.59-.37-1.05,0-.24.04-.45.11-.62.07-.18.2-.35.38-.53.17-.17.43-.34.8-.53.37-.19.82-.36,1.34-.52.53-.16,1.13-.29,1.8-.39.68-.1,1.41-.16,2.2-.16,2.18,0,3.81.47,4.91,1.41,1.09.94,1.64,2.32,1.64,4.12v5.11c0,.71.03,1.28.09,1.72.06.44.12.8.18,1.09.06.29.12.53.18.73.06.19.09.4.09.62s-.04.42-.12.61c-.08.19-.2.35-.36.49-.16.14-.35.25-.59.33s-.5.12-.8.12c-.32,0-.61-.05-.87-.15-.26-.1-.48-.24-.67-.41-.19-.18-.35-.39-.48-.63-.13-.24-.24-.51-.32-.8h-.05c-.32.41-.71.77-1.17,1.08-.4.27-.89.52-1.49.73-.6.22-1.3.33-2.12.33-.87,0-1.64-.12-2.32-.37-.68-.25-1.26-.58-1.73-1.02-.47-.43-.84-.95-1.09-1.54s-.38-1.24-.38-1.94c0-.75.17-1.41.5-1.99.33-.57.8-1.05,1.41-1.43.6-.38,1.33-.67,2.19-.86.85-.19,1.81-.29,2.86-.29.44,0,.83.02,1.18.05.35.03.65.06.9.09.29.04.55.09.78.14v-1.29ZM179.33,647.26c-.21-.05-.44-.1-.69-.14-.22-.04-.47-.08-.77-.11-.29-.03-.62-.05-.98-.05-1.04,0-1.82.15-2.32.44-.51.29-.76.72-.76,1.28,0,.27.05.52.16.75.1.23.25.43.45.59.2.17.44.3.73.4.29.1.63.15,1.02.15.5,0,.95-.09,1.34-.27.39-.18.72-.37.99-.58.31-.25.59-.53.83-.84v-1.62Z"/>
    <path class="cls-15" d="M199.67,639.01c.5.47.88,1.01,1.14,1.61.26.6.39,1.25.39,1.92,0,.84-.15,1.62-.46,2.34-.31.72-.76,1.34-1.35,1.85s-1.33.92-2.2,1.21c-.87.29-1.88.44-3.02.44-.34,0-.67-.02-.99-.05-.32-.04-.62-.1-.9-.18-.12.12-.24.23-.34.36-.08.12-.16.25-.23.39-.07.15-.1.31-.1.48,0,.21.04.4.12.56.08.17.23.31.43.42.2.12.48.2.84.27.35.06.8.09,1.34.09h1.94c1.06,0,1.98.1,2.76.31.78.21,1.42.51,1.92.9.5.39.88.86,1.12,1.41.24.55.37,1.16.37,1.85,0,.8-.18,1.56-.55,2.27-.37.71-.91,1.34-1.62,1.87-.72.53-1.62.95-2.69,1.27-1.07.31-2.31.47-3.72.47-1.31,0-2.44-.12-3.37-.38-.93-.25-1.69-.59-2.28-1.02-.59-.43-1.02-.92-1.3-1.49-.28-.57-.41-1.17-.41-1.8,0-.69.13-1.28.38-1.77.25-.5.54-.91.85-1.24.35-.38.77-.7,1.23-.95-.37-.32-.64-.69-.84-1.1-.19-.41-.29-.86-.29-1.35,0-.46.08-.87.25-1.23.17-.36.35-.68.56-.94.24-.3.52-.57.83-.81-.65-.5-1.14-1.09-1.48-1.76-.34-.67-.51-1.4-.51-2.18,0-.84.15-1.62.46-2.34.31-.71.76-1.33,1.35-1.85.59-.52,1.33-.93,2.2-1.22.88-.29,1.88-.44,3.03-.44.47,0,.91.03,1.34.1.42.07.83.16,1.21.29l1.78-2.18c.28-.35.53-.59.74-.72.21-.14.47-.2.76-.2.22,0,.43.04.64.13.21.09.39.21.55.35s.28.32.38.53c.1.2.15.42.15.63,0,.27-.08.51-.24.73-.16.21-.4.47-.73.78l-1.47,1.38ZM193.91,653.76c-.37,0-.71-.02-1.02-.05-.32-.03-.63-.08-.95-.16-.22.18-.41.38-.58.59-.15.19-.28.42-.4.7-.12.28-.18.59-.18.93,0,.32.07.62.2.91.13.28.34.52.62.73s.64.36,1.07.48c.43.12.95.18,1.55.18.7,0,1.3-.07,1.81-.2.51-.13.93-.31,1.27-.53.33-.22.58-.48.75-.78.17-.3.25-.61.25-.95,0-.28-.05-.53-.15-.76-.1-.22-.26-.42-.48-.59-.22-.17-.51-.29-.86-.38-.35-.09-.79-.13-1.3-.13h-1.62ZM191.58,642.76c0,.41.06.78.2,1.11.13.33.31.62.55.85.24.23.53.41.88.54.35.12.74.19,1.18.19s.83-.06,1.16-.19c.34-.12.63-.3.87-.53.24-.23.42-.5.55-.83.12-.32.19-.68.19-1.08s-.07-.77-.2-1.1c-.13-.33-.32-.61-.55-.84-.24-.23-.54-.42-.89-.55-.35-.13-.75-.2-1.19-.2s-.81.06-1.16.19-.63.3-.87.53c-.23.23-.41.51-.54.83-.12.32-.19.68-.19,1.08Z"/>
    <path class="cls-15" d="M204.62,632.8c0-.34.06-.66.19-.96s.3-.55.52-.77c.22-.22.49-.39.81-.52.32-.12.67-.19,1.05-.19.36,0,.7.06,1.01.19.31.12.57.29.8.51.22.21.4.46.52.75.12.29.19.6.19.93s-.06.66-.19.96-.3.55-.53.77c-.23.22-.5.39-.81.52-.31.12-.66.19-1.05.19s-.7-.06-1.01-.19c-.31-.12-.57-.29-.8-.51-.22-.21-.4-.46-.52-.75-.12-.29-.19-.6-.19-.93ZM205.05,639.26c0-.59.17-1.05.52-1.38.35-.33.88-.49,1.6-.49s1.25.16,1.6.49c.35.33.52.79.52,1.38v12.36c0,.59-.17,1.05-.52,1.38-.35.33-.88.49-1.6.49s-1.25-.16-1.6-.49c-.35-.33-.52-.79-.52-1.38v-12.36Z"/>
    <path class="cls-15" d="M212.89,646.04c0-1.36.2-2.59.6-3.69.4-1.09.97-2.02,1.7-2.79s1.61-1.35,2.63-1.76c1.02-.41,2.15-.61,3.39-.61.48,0,.91.03,1.3.1.38.07.73.15,1.02.25.3.1.55.21.75.34s.36.25.48.38c.19.18.33.37.41.59.09.21.13.48.13.79,0,.21-.03.4-.1.58-.07.18-.16.33-.27.46-.12.13-.26.23-.42.3-.17.07-.35.11-.55.11-.21,0-.4-.03-.57-.09s-.36-.13-.56-.21-.44-.15-.71-.22c-.27-.07-.6-.1-.98-.1-.54,0-1.05.11-1.53.33-.48.22-.9.54-1.25.97-.35.43-.63.96-.84,1.6s-.3,1.38-.3,2.23c0,.77.1,1.45.31,2.05.21.59.49,1.09.86,1.5.36.41.8.72,1.31.93.51.21,1.07.32,1.67.32.41,0,.75-.03,1.02-.09.28-.06.52-.13.72-.2.2-.07.38-.14.55-.2.16-.06.33-.09.49-.09.19,0,.36.04.52.11.16.07.29.17.39.3.1.12.18.27.24.43.06.16.09.33.09.51,0,.27-.05.51-.14.72-.09.21-.23.41-.41.59-.16.16-.36.31-.62.46-.26.15-.56.28-.92.4s-.77.21-1.24.28c-.47.07-.99.11-1.56.11-1.16,0-2.2-.18-3.14-.54s-1.74-.87-2.4-1.54c-.66-.67-1.17-1.47-1.53-2.41-.36-.94-.54-2-.54-3.16Z"/>
    <path class="cls-15" d="M239.48,651.54c-.12.37-.22.67-.33.91-.1.25-.23.45-.39.6-.15.15-.33.26-.56.35-.23.09-.5.13-.8.13-.27,0-.54-.04-.8-.12s-.51-.2-.73-.36-.4-.35-.53-.58c-.14-.23-.2-.49-.2-.78,0-.17.02-.33.07-.5.05-.17.13-.42.24-.77l5.47-15.77c.09-.25.18-.48.27-.68.08-.2.17-.39.27-.55.09-.17.19-.32.29-.45.1-.13.21-.27.34-.39.27-.27.61-.48,1.01-.62s.9-.21,1.49-.21,1.09.07,1.49.21c.4.14.74.35,1.01.62.12.12.24.26.34.39.1.14.2.29.29.45.09.17.18.35.27.55.08.2.17.43.27.68l5.51,15.69c.12.35.21.62.24.78.04.17.05.32.05.47,0,.32-.07.6-.22.84-.15.24-.33.44-.56.6-.23.16-.48.28-.77.37s-.56.12-.83.12c-.3,0-.57-.05-.81-.14-.24-.09-.44-.22-.61-.39-.16-.16-.28-.35-.38-.58-.1-.23-.21-.52-.32-.88l-1.11-3.23h-7.91l-1.04,3.22ZM247.4,644.99l-2.05-6.16c-.15-.43-.28-.83-.39-1.2-.11-.37-.21-.7-.3-.99-.1-.33-.19-.65-.27-.94h-.06c-.07.29-.16.6-.25.94-.08.29-.18.62-.28.99-.1.37-.22.77-.36,1.2l-1.95,6.16h5.91Z"/>
    <path class="cls-15" d="M256,646.04c0-1.36.2-2.59.6-3.69.4-1.09.97-2.02,1.7-2.79s1.61-1.35,2.63-1.76c1.02-.41,2.15-.61,3.39-.61.48,0,.91.03,1.3.1.38.07.73.15,1.02.25.3.1.55.21.75.34s.36.25.48.38c.19.18.33.37.41.59.09.21.13.48.13.79,0,.21-.03.4-.1.58-.07.18-.16.33-.27.46-.12.13-.26.23-.42.3-.17.07-.35.11-.55.11-.21,0-.4-.03-.57-.09s-.36-.13-.56-.21-.44-.15-.71-.22c-.27-.07-.6-.1-.98-.1-.54,0-1.05.11-1.53.33-.48.22-.9.54-1.25.97-.35.43-.63.96-.84,1.6s-.3,1.38-.3,2.23c0,.77.1,1.45.31,2.05.21.59.49,1.09.86,1.5.36.41.8.72,1.31.93.51.21,1.07.32,1.67.32.41,0,.75-.03,1.02-.09.28-.06.52-.13.72-.2.2-.07.38-.14.55-.2.16-.06.33-.09.49-.09.19,0,.36.04.52.11.16.07.29.17.39.3.1.12.18.27.24.43.06.16.09.33.09.51,0,.27-.05.51-.14.72-.09.21-.23.41-.41.59-.16.16-.36.31-.62.46-.26.15-.56.28-.92.4s-.77.21-1.24.28c-.47.07-.99.11-1.56.11-1.16,0-2.2-.18-3.14-.54s-1.74-.87-2.4-1.54c-.66-.67-1.17-1.47-1.53-2.41-.36-.94-.54-2-.54-3.16Z"/>
    <path class="cls-15" d="M270.62,646.04c0-1.36.2-2.59.6-3.69.4-1.09.97-2.02,1.7-2.79s1.61-1.35,2.63-1.76c1.02-.41,2.15-.61,3.39-.61.48,0,.91.03,1.3.1.38.07.73.15,1.02.25.3.1.55.21.75.34s.36.25.48.38c.19.18.33.37.41.59.09.21.13.48.13.79,0,.21-.03.4-.1.58-.07.18-.16.33-.27.46-.12.13-.26.23-.42.3-.17.07-.35.11-.55.11-.21,0-.4-.03-.57-.09s-.36-.13-.56-.21-.44-.15-.71-.22c-.27-.07-.6-.1-.98-.1-.54,0-1.05.11-1.53.33-.48.22-.9.54-1.25.97-.35.43-.63.96-.84,1.6s-.3,1.38-.3,2.23c0,.77.1,1.45.31,2.05.21.59.49,1.09.86,1.5.36.41.8.72,1.31.93.51.21,1.07.32,1.67.32.41,0,.75-.03,1.02-.09.28-.06.52-.13.72-.2.2-.07.38-.14.55-.2.16-.06.33-.09.49-.09.19,0,.36.04.52.11.16.07.29.17.39.3.1.12.18.27.24.43.06.16.09.33.09.51,0,.27-.05.51-.14.72-.09.21-.23.41-.41.59-.16.16-.36.31-.62.46-.26.15-.56.28-.92.4s-.77.21-1.24.28c-.47.07-.99.11-1.56.11-1.16,0-2.2-.18-3.14-.54s-1.74-.87-2.4-1.54c-.66-.67-1.17-1.47-1.53-2.41-.36-.94-.54-2-.54-3.16Z"/>
    <path class="cls-15" d="M285.88,632.8c0-.34.06-.66.19-.96s.3-.55.52-.77c.22-.22.49-.39.81-.52.32-.12.67-.19,1.05-.19.36,0,.7.06,1.01.19.31.12.57.29.8.51.22.21.4.46.52.75.12.29.19.6.19.93s-.06.66-.19.96-.3.55-.53.77c-.23.22-.5.39-.81.52-.31.12-.66.19-1.05.19s-.7-.06-1.01-.19c-.31-.12-.57-.29-.8-.51-.22-.21-.4-.46-.52-.75-.12-.29-.19-.6-.19-.93ZM286.3,639.26c0-.59.17-1.05.52-1.38.35-.33.88-.49,1.6-.49s1.25.16,1.6.49c.35.33.52.79.52,1.38v12.36c0,.59-.17,1.05-.52,1.38-.35.33-.88.49-1.6.49s-1.25-.16-1.6-.49c-.35-.33-.52-.79-.52-1.38v-12.36Z"/>
    <path class="cls-15" d="M305.09,632.1c0-.59.17-1.05.52-1.38.35-.33.88-.49,1.6-.49s1.25.16,1.6.49c.35.33.52.79.52,1.38v19.67c0,.57-.15,1.01-.45,1.31-.3.3-.74.45-1.31.45-.28,0-.53-.03-.74-.1-.21-.07-.4-.17-.55-.3-.15-.13-.27-.29-.37-.48s-.16-.4-.2-.64l-.14-.78h-.05c-.31.46-.7.87-1.16,1.22-.4.3-.9.58-1.51.84s-1.34.38-2.2.38c-.98,0-1.87-.16-2.67-.49-.8-.33-1.49-.82-2.06-1.47-.57-.65-1.02-1.46-1.33-2.44-.31-.97-.47-2.11-.47-3.41s.2-2.59.59-3.66c.4-1.08.97-1.99,1.73-2.73.75-.74,1.68-1.31,2.79-1.7,1.1-.39,2.37-.59,3.8-.59.3,0,.58.01.83.04.25.03.46.05.64.09.21.04.4.08.58.12l.05-.02c-.03-.53-.05-1.09-.05-1.69v-3.62ZM305.09,640.95c-.18-.09-.39-.18-.62-.25-.21-.06-.46-.12-.77-.17-.3-.05-.65-.08-1.05-.08-.62,0-1.19.11-1.7.32-.51.21-.95.53-1.32.96-.37.43-.66.96-.86,1.59-.2.64-.3,1.38-.3,2.23s.08,1.6.23,2.2c.16.6.38,1.09.66,1.46.29.38.63.65,1.03.82.4.17.85.26,1.34.26.28,0,.54-.03.79-.09.24-.06.47-.15.68-.26.21-.11.4-.23.57-.37.17-.13.33-.28.48-.42.33-.33.61-.71.84-1.14v-7.06Z"/>
    <path class="cls-15" d="M317.19,646.32v.03c.06.65.21,1.22.44,1.72.23.5.53.92.91,1.27.38.34.84.6,1.37.78.53.18,1.12.27,1.78.27.54,0,1.01-.04,1.4-.11.39-.07.73-.15,1.02-.24.29-.09.55-.17.77-.24.22-.07.43-.11.63-.11s.38.04.53.11c.16.07.29.17.4.29.11.12.19.26.25.41.06.16.09.32.09.5,0,.26-.04.49-.12.68-.08.19-.22.38-.41.57-.16.16-.39.32-.69.49-.3.17-.67.33-1.12.47-.44.14-.96.26-1.55.35-.59.09-1.24.14-1.96.14-1.24,0-2.35-.18-3.34-.54-.99-.36-1.83-.88-2.52-1.55s-1.21-1.48-1.58-2.44c-.37-.95-.55-2.02-.55-3.21,0-1.38.2-2.62.59-3.71.39-1.09.93-2.01,1.63-2.76.7-.75,1.53-1.32,2.51-1.72.97-.4,2.04-.59,3.21-.59,1,0,1.91.16,2.72.47s1.5.76,2.08,1.35c.57.59,1.02,1.3,1.33,2.15s.47,1.8.47,2.88c0,.78-.18,1.36-.54,1.73s-.87.56-1.54.56h-8.22ZM323.53,643.6c-.14-1.17-.45-2.03-.95-2.58-.5-.55-1.2-.83-2.1-.83-.38,0-.73.07-1.08.2-.34.13-.66.33-.95.61-.29.28-.53.63-.74,1.05-.21.43-.37.94-.48,1.55h6.3Z"/>
    <path class="cls-15" d="M331.16,639.1c0-.57.15-1.01.45-1.31s.74-.45,1.31-.45c.28,0,.53.03.74.1.21.07.4.17.55.3.16.13.28.29.38.48s.16.4.19.62l.12.8h.06c.3-.46.68-.86,1.14-1.22.2-.16.42-.31.67-.45.25-.15.53-.28.84-.39.31-.11.65-.21,1.02-.27.37-.07.77-.1,1.21-.1.92,0,1.74.14,2.48.42.74.28,1.37.7,1.89,1.25.52.55.92,1.23,1.2,2.04.28.81.41,1.74.41,2.79v7.92c0,.59-.17,1.05-.52,1.38-.35.33-.88.49-1.6.49s-1.25-.16-1.6-.49c-.35-.33-.52-.79-.52-1.38v-7.42c0-.63-.07-1.18-.2-1.64-.13-.46-.32-.83-.56-1.12-.25-.29-.54-.5-.9-.64-.35-.13-.76-.2-1.2-.2-.28,0-.54.03-.78.1-.24.07-.47.15-.68.26-.21.1-.41.23-.58.37s-.33.28-.46.41c-.33.34-.61.72-.83,1.14v8.75c0,.59-.17,1.05-.52,1.38-.35.33-.88.49-1.6.49s-1.25-.16-1.6-.49c-.35-.33-.52-.79-.52-1.38v-12.52Z"/>
    <path class="cls-15" d="M349.73,640.66c-.42,0-.75-.13-1.01-.41-.26-.27-.38-.67-.38-1.19s.13-.9.38-1.17c.25-.27.59-.41,1.01-.41h1.38l.5-2.64c.11-.59.33-1.03.65-1.31.32-.28.74-.42,1.27-.42s.96.15,1.25.45c.29.3.44.73.44,1.29v2.64h2.64c.42,0,.75.14,1.01.41.25.27.38.66.38,1.17s-.13.92-.38,1.19c-.26.27-.59.41-1.01.41h-2.64v7.52c0,.74.12,1.27.38,1.58s.63.47,1.16.47c.19,0,.35,0,.49-.03.14-.02.27-.05.38-.08.11-.03.22-.06.31-.08.09-.02.19-.03.3-.03.17,0,.32.03.46.09s.26.15.36.26c.1.11.18.24.23.4.06.16.09.33.09.52,0,.29-.05.54-.14.74s-.23.39-.41.57c-.1.1-.25.21-.43.33-.18.12-.41.22-.67.31s-.58.17-.93.23c-.35.06-.76.09-1.2.09-1.58,0-2.75-.38-3.5-1.13-.75-.75-1.12-1.91-1.12-3.46v-8.3h-1.23Z"/>
  </g>
  <rect class="cls-21" x="388.15" y="588" width="42.56" height="112"/>
  <g class="cls-19">
    <g class="cls-24">
      <g id="_x3C_Radial_Repeat_x3E_-28" data-name="_x3C_Radial_Repeat_x3E_">
        <rect class="cls-6" x="490.38" y="333.26" width="434.34" height="1" transform="translate(-43.44 114.59) rotate(-8.98)"/>
      </g>
      <g id="_x3C_Radial_Repeat_x3E_-29" data-name="_x3C_Radial_Repeat_x3E_">
        <rect class="cls-6" x="487.37" y="294.86" width="434.34" height="1"/>
      </g>
      <g id="_x3C_Radial_Repeat_x3E_-30" data-name="_x3C_Radial_Repeat_x3E_">
        <rect class="cls-6" x="707.07" y="39.79" width="1" height="434.34" transform="translate(343.57 915.89) rotate(-81.04)"/>
      </g>
    </g>
  </g>
</svg>