<?xml version="1.0" encoding="UTF-8"?>
<svg id="Expanded" xmlns="http://www.w3.org/2000/svg" xmlns:xlink="http://www.w3.org/1999/xlink" viewBox="0 0 500 700">
  <defs>
    <style>
      .cls-1 {
        fill: #fff;
      }

      .cls-2 {
        fill: #dfedf2;
      }

      .cls-3 {
        fill: #ea9939;
      }

      .cls-4 {
        fill: #d87625;
      }

      .cls-5 {
        fill: #fff8d9;
      }

      .cls-6 {
        fill: #f4b545;
      }

      .cls-7 {
        fill: none;
      }

      .cls-8 {
        fill: #aa5217;
      }

      .cls-9 {
        clip-path: url(#clippath-1);
      }

      .cls-10 {
        fill: #e9f1f4;
      }

      .cls-11 {
        fill: #6d3108;
      }

      .cls-12 {
        fill: #ffe277;
      }

      .cls-13 {
        fill: #333;
      }

      .cls-14 {
        fill: #a8b6c1;
      }

      .cls-15 {
        clip-path: url(#clippath);
      }
    </style>
    <clipPath id="clippath">
      <rect class="cls-7" x="664" y="968" width="572" height="468" rx="32" ry="32" transform="translate(2152 252) rotate(90)"/>
    </clipPath>
    <clipPath id="clippath-1">
      <rect class="cls-7" x="-36" y="68" width="572" height="468" rx="32" ry="32" transform="translate(552 52) rotate(90)"/>
    </clipPath>
  </defs>
  <g>
    <g>
      <path class="cls-10" d="M48,699.5c-26.19,0-47.5-21.31-47.5-47.5V48C.5,21.81,21.81.5,48,.5h404c8.33,0,16.53,2.19,23.71,6.33,14.67,8.47,23.79,24.24,23.79,41.17v604c0,26.19-21.31,47.5-47.5,47.5H48Z"/>
      <path class="cls-13" d="M452,1c8.25,0,16.36,2.17,23.46,6.27,14.52,8.38,23.54,23.98,23.54,40.73v604c0,25.92-21.08,47-47,47H48c-25.92,0-47-21.08-47-47V48C1,22.08,22.08,1,48,1h404M452,0H48C21.49,0,0,21.49,0,48v604c0,26.51,21.49,48,48,48h404c26.51,0,48-21.49,48-48V48c0-17.79-9.67-33.31-24.04-41.6-7.05-4.07-15.23-6.4-23.96-6.4h0Z"/>
    </g>
    <path class="cls-1" d="M500,48v374.52L0,539.11V117.39L475.96,6.4c14.37,8.29,24.04,23.81,24.04,41.6Z"/>
    <path class="cls-1" d="M500,459.42v140.57l-428.9,100.01h-23.1c-26.51,0-48-21.49-48-48v-75.99l500-116.59Z"/>
    <path class="cls-13" d="M452,1c25.92,0,47,21.08,47,47v604c0,25.92-21.08,47-47,47H48c-25.92,0-47-21.08-47-47V48C1,22.08,22.08,1,48,1h404M452,0H48C21.49,0,0,21.49,0,48v604c0,26.51,21.49,48,48,48h404c26.51,0,48-21.49,48-48V48c0-26.51-21.49-48-48-48h0Z"/>
    <g>
      <rect class="cls-1" x="15" y="15" width="470" height="574" rx="33" ry="33"/>
      <path class="cls-13" d="M452,16c17.67,0,32,14.33,32,32v508c0,17.67-14.33,32-32,32H48c-17.67,0-32-14.33-32-32V48c0-17.67,14.33-32,32-32h404M452,14H48c-18.75,0-34,15.25-34,34v508c0,18.75,15.25,34,34,34h404c18.75,0,34-15.25,34-34V48c0-18.75-15.25-34-34-34h0Z"/>
    </g>
  </g>
  <g class="cls-15">
    <g id="_x3C_Radial_Repeat_x3E_">
      <rect class="cls-1" x="657.92" y="614.57" width="1" height="526.72" transform="translate(-426.9 715.62) rotate(-44.63)"/>
    </g>
  </g>
  <g class="cls-9">
    <rect class="cls-4" x="4.41" y="16" width="491.18" height="606.01"/>
    <circle class="cls-3" cx="250" cy="16" r="265.22"/>
    <circle class="cls-6" cx="250" cy="16" r="158.2"/>
    <circle class="cls-12" cx="250" cy="16" r="81.64"/>
    <circle class="cls-5" cx="250" cy="16" r="46.18"/>
    <rect class="cls-8" x="4.41" y="414.16" width="491.18" height="207.85"/>
    <ellipse class="cls-4" cx="250" cy="438.51" rx="450.58" ry="100.28"/>
    <g>
      <g id="_x3C_Radial_Repeat_x3E_-2" data-name="_x3C_Radial_Repeat_x3E_">
        <rect class="cls-5" x="249.44" y="48.43" width="1" height="434.34"/>
      </g>
      <g id="_x3C_Radial_Repeat_x3E_-3" data-name="_x3C_Radial_Repeat_x3E_">
        <rect class="cls-5" x="-5.63" y="262.07" width="434.34" height="1" transform="translate(-80.68 430.79) rotate(-81.07)"/>
      </g>
      <g id="_x3C_Radial_Repeat_x3E_-4" data-name="_x3C_Radial_Repeat_x3E_">
        <rect class="cls-5" x="-43.08" y="253.07" width="434.34" height="1" transform="translate(-120.83 340.91) rotate(-72.03)"/>
      </g>
      <g id="_x3C_Radial_Repeat_x3E_-5" data-name="_x3C_Radial_Repeat_x3E_">
        <rect class="cls-5" x="-78.66" y="238.32" width="434.34" height="1" transform="translate(-137.15 254.1) rotate(-63.06)"/>
      </g>
      <g id="_x3C_Radial_Repeat_x3E_-6" data-name="_x3C_Radial_Repeat_x3E_">
        <rect class="cls-5" x="-111.5" y="218.19" width="434.34" height="1" transform="translate(-133.41 175.88) rotate(-54.06)"/>
      </g>
      <g id="_x3C_Radial_Repeat_x3E_-7" data-name="_x3C_Radial_Repeat_x3E_">
        <rect class="cls-5" x="-140.78" y="193.16" width="434.34" height="1" transform="translate(-114.62 110.87) rotate(-45.04)"/>
      </g>
      <g id="_x3C_Radial_Repeat_x3E_-8" data-name="_x3C_Radial_Repeat_x3E_">
        <rect class="cls-5" x="-165.79" y="163.87" width="434.34" height="1" transform="translate(-86.84 61.64) rotate(-36.02)"/>
      </g>
      <g id="_x3C_Radial_Repeat_x3E_-9" data-name="_x3C_Radial_Repeat_x3E_">
        <rect class="cls-5" x="-185.9" y="131.02" width="434.34" height="1" transform="translate(-56.42 28.63) rotate(-27.07)"/>
      </g>
      <g id="_x3C_Radial_Repeat_x3E_-10" data-name="_x3C_Radial_Repeat_x3E_">
        <rect class="cls-5" x="-200.64" y="95.43" width="434.34" height="1" transform="translate(-28.88 9.83) rotate(-18.03)"/>
      </g>
      <g id="_x3C_Radial_Repeat_x3E_-11" data-name="_x3C_Radial_Repeat_x3E_">
        <rect class="cls-5" x="-209.62" y="57.98" width="434.34" height="1" transform="translate(-9.1 1.92) rotate(-9.05)"/>
      </g>
      <g id="_x3C_Radial_Repeat_x3E_-12" data-name="_x3C_Radial_Repeat_x3E_">
        <rect class="cls-5" x="-212.63" y="19.58" width="434.34" height="1"/>
      </g>
      <g id="_x3C_Radial_Repeat_x3E_-13" data-name="_x3C_Radial_Repeat_x3E_">
        <rect class="cls-5" x="7.07" y="-235.49" width="1" height="434.34" transform="translate(24.49 -7.98) rotate(-81.04)"/>
      </g>
      <g id="_x3C_Radial_Repeat_x3E_-14" data-name="_x3C_Radial_Repeat_x3E_">
        <rect class="cls-5" x="16.07" y="-272.94" width="1" height="434.34" transform="translate(64.51 -22.81) rotate(-72.04)"/>
      </g>
      <g id="_x3C_Radial_Repeat_x3E_-15" data-name="_x3C_Radial_Repeat_x3E_">
        <rect class="cls-5" x="30.82" y="-308.52" width="1" height="434.34" transform="translate(98.54 -22.02) rotate(-63.04)"/>
      </g>
      <g id="_x3C_Radial_Repeat_x3E_-16" data-name="_x3C_Radial_Repeat_x3E_">
        <rect class="cls-5" x="50.96" y="-341.36" width="1" height="434.34" transform="translate(121.76 -9.61) rotate(-54.04)"/>
      </g>
      <g id="_x3C_Radial_Repeat_x3E_-17" data-name="_x3C_Radial_Repeat_x3E_">
        <rect class="cls-5" x="75.98" y="-370.64" width="1" height="434.34" transform="translate(131.04 9.09) rotate(-45.04)"/>
      </g>
      <g id="_x3C_Radial_Repeat_x3E_-18" data-name="_x3C_Radial_Repeat_x3E_">
        <rect class="cls-5" x="206.44" y="-153.88" width="434.34" height="1" transform="translate(232.81 254.75) rotate(-45.04)"/>
      </g>
      <g id="_x3C_Radial_Repeat_x3E_-19" data-name="_x3C_Radial_Repeat_x3E_">
        <rect class="cls-5" x="231.44" y="-124.58" width="434.34" height="1" transform="translate(158.73 240.09) rotate(-36.02)"/>
      </g>
      <g id="_x3C_Radial_Repeat_x3E_-20" data-name="_x3C_Radial_Repeat_x3E_">
        <rect class="cls-5" x="251.56" y="-91.74" width="434.34" height="1" transform="translate(92.85 203.29) rotate(-27.07)"/>
      </g>
      <g id="_x3C_Radial_Repeat_x3E_-21" data-name="_x3C_Radial_Repeat_x3E_">
        <rect class="cls-5" x="266.29" y="-56.15" width="434.34" height="1" transform="translate(40.96 146.89) rotate(-18.03)"/>
      </g>
      <g id="_x3C_Radial_Repeat_x3E_-22" data-name="_x3C_Radial_Repeat_x3E_">
        <rect class="cls-5" x="275.27" y="-18.69" width="434.34" height="1" transform="translate(8.99 77.22) rotate(-9.05)"/>
      </g>
      <g id="_x3C_Radial_Repeat_x3E_-23" data-name="_x3C_Radial_Repeat_x3E_">
        <rect class="cls-5" x="278.29" y="19.71" width="434.34" height="1"/>
      </g>
      <g id="_x3C_Radial_Repeat_x3E_-24" data-name="_x3C_Radial_Repeat_x3E_">
        <rect class="cls-5" x="491.93" y="-158.57" width="1" height="434.34" transform="translate(357.86 535.9) rotate(-81.04)"/>
      </g>
      <g id="_x3C_Radial_Repeat_x3E_-25" data-name="_x3C_Radial_Repeat_x3E_">
        <rect class="cls-5" x="482.93" y="-121.12" width="1" height="434.34" transform="translate(243 526.31) rotate(-72.04)"/>
      </g>
      <g id="_x3C_Radial_Repeat_x3E_-26" data-name="_x3C_Radial_Repeat_x3E_">
        <rect class="cls-5" x="468.18" y="-85.54" width="1" height="434.34" transform="translate(138.88 489.71) rotate(-63.04)"/>
      </g>
      <g id="_x3C_Radial_Repeat_x3E_-27" data-name="_x3C_Radial_Repeat_x3E_">
        <rect class="cls-5" x="448.04" y="-52.7" width="1" height="434.34" transform="translate(52.03 430.97) rotate(-54.04)"/>
      </g>
      <g id="_x3C_Radial_Repeat_x3E_-28" data-name="_x3C_Radial_Repeat_x3E_">
        <rect class="cls-5" x="423.02" y="-23.42" width="1" height="434.34" transform="translate(-12.84 356.54) rotate(-45.04)"/>
      </g>
      <g id="_x3C_Radial_Repeat_x3E_-29" data-name="_x3C_Radial_Repeat_x3E_">
        <rect class="cls-5" x="393.73" y="1.59" width="1" height="434.34" transform="translate(-53.25 273.83) rotate(-36.04)"/>
      </g>
      <g id="_x3C_Radial_Repeat_x3E_-30" data-name="_x3C_Radial_Repeat_x3E_">
        <rect class="cls-5" x="360.88" y="21.71" width="1" height="434.34" transform="translate(-69.1 190.41) rotate(-27.04)"/>
      </g>
      <g id="_x3C_Radial_Repeat_x3E_-31" data-name="_x3C_Radial_Repeat_x3E_">
        <rect class="cls-5" x="325.29" y="36.44" width="1" height="434.34" transform="translate(-62.53 113.37) rotate(-18.04)"/>
      </g>
      <g id="_x3C_Radial_Repeat_x3E_-32" data-name="_x3C_Radial_Repeat_x3E_">
        <rect class="cls-5" x="287.84" y="45.42" width="1" height="434.34" transform="translate(-37.69 48.58) rotate(-9.04)"/>
      </g>
    </g>
    <ellipse class="cls-3" cx="250" cy="438.51" rx="267.58" ry="59.55"/>
    <ellipse class="cls-6" cx="250" cy="438.51" rx="177.29" ry="39.46"/>
    <ellipse class="cls-8" cx="250" cy="438.51" rx="96.93" ry="24.48"/>
    <g>
      <g>
        <path class="cls-11" d="M320.81,356.62h-141.62c-2.19,0-3.97-1.76-4-3.94l-1.2-87.01c-.02-1.13.45-2.21,1.27-2.98l3.56-3.32c1.17-1.47,9.18-12.51,9.01-37.22-.08-11.96-4.77-19.71-10.2-28.69-5.22-8.63-12.33-20.4-10.15-34.6.01-.08.03-.16.04-.24l.02-.15s.01-.08.02-.13c.02-.13.05-.28.09-.45.78-4.39,2.48-8.84,5.04-13.15,7.92-13.37,23.94-22.44,47.61-26.98,15.44-2.97,29.12-3,29.69-3s14.25.03,29.69,3c23.66,4.53,39.68,13.61,47.61,26.98.48.81.96,1.68,1.47,2.67,0,.02.02.04.03.05,0,.01.01.02.02.03,1.04,2.07,1.89,4.17,2.52,6.26.02.07.04.15.06.22,4.93,16.39-3.13,29.71-9.02,39.45-5.44,9-10.13,16.75-10.21,28.71-.17,25.18,8.24,36.3,8.96,37.2l3.74,3.82c.75.76,1.16,1.79,1.14,2.85l-1.19,86.66c-.03,2.19-1.81,3.95-4,3.95ZM183.14,348.62h133.73l1.11-81.05-2.69-2.74s-.07-.07-.11-.11c-.46-.51-11.23-12.73-11.03-42.62.1-14.16,5.82-23.62,11.35-32.77,5.43-8.97,12.16-20.1,8.19-33.13-.02-.07-.04-.14-.06-.21,0,0,0,0,0,0-.5-1.61-1.16-3.25-1.97-4.86h0s0,0,0,0c-.44-.86-.85-1.6-1.25-2.28-6.7-11.31-20.91-19.11-42.23-23.2-14.71-2.83-27.64-2.86-28.19-2.86s-13.48.03-28.19,2.86c-21.32,4.08-35.53,11.89-42.23,23.2-2.07,3.48-3.43,7.03-4.06,10.57l-.1.6c-.02.11-.04.23-.06.34-1.61,11.22,4.33,21.04,9.11,28.95,5.56,9.19,11.28,18.65,11.38,32.81.19,27.93-9.16,40.39-11.04,42.6-.1.12-.21.23-.33.34l-2.46,2.29,1.12,81.29Z"/>
        <path class="cls-11" d="M315.97,200.37c-.34,0-.67-.04-1.01-.13-1-.26-1.99-.52-2.99-.77-16.11-4.08-33.58-8.01-52.14-9.12-18.73-1.11-36.95-1.83-53.8,1.52-5.71,1.14-11.14,3.24-16.88,5.46-1.19.46-2.38.92-3.57,1.37l-.78.3c-1.82.69-3.88-.03-4.87-1.71-.75-1.28-1.52-2.56-2.3-3.85-4.12-6.81-9.25-15.29-10.34-25.44-.15-1.35.4-2.68,1.46-3.54,1.06-.85,2.47-1.12,3.76-.69,19.03,6.25,40.35,9.73,63.38,10.33,13.76.36,28.48-.21,45-1.76,13.58-1.27,30.49-2.85,46.01-6.88l.59-.16c1.3-.34,2.69,0,3.69.91,1,.9,1.48,2.25,1.27,3.58-1.47,9.37-6.25,17.28-10.1,23.64-1,1.65-1.98,3.28-2.93,4.93-.73,1.26-2.06,2-3.47,2ZM254.64,182.05c1.88.1,3.77.21,5.67.32,19.27,1.15,37.92,5.37,53.63,9.35.04,0,.08.02.11.03.49-.81.98-1.63,1.47-2.45,2.68-4.44,5.63-9.31,7.49-14.67-13.08,2.89-26.58,4.31-41.37,5.69-9.53.89-18.48,1.46-27,1.73ZM176.57,173.4c1.82,5.83,5.01,11.11,7.91,15.9.21.34.41.68.62,1.02.39-.15.78-.3,1.17-.45,5.81-2.25,11.81-4.57,18.21-5.85,6.77-1.35,13.69-2.07,20.72-2.39-17.29-1.12-33.57-3.88-48.62-8.23Z"/>
        <path class="cls-11" d="M320.81,356.62h-141.63c-2.19,0-3.97-1.76-4-3.95l-1.19-87.01c-.02-1.13.45-2.21,1.27-2.98l3.56-3.31c.51-.65,2.22-2.97,3.99-7.23.42-1.02,1.25-1.81,2.28-2.2,1.03-.39,2.18-.33,3.17.15,4.99,2.43,10.49,4.04,15.68,5.41,15.42,4.07,31.07,4.62,45.71,4.59h.84c14.56-.02,29.62-.04,43.67-3.79,5.66-1.51,11.64-3.6,17.78-6.21.98-.42,2.09-.42,3.07-.02.99.4,1.77,1.18,2.18,2.17,1.86,4.47,3.61,6.74,3.91,7.1l3.75,3.83c.74.76,1.15,1.79,1.14,2.85l-1.19,86.66c-.03,2.19-1.81,3.95-4,3.95ZM183.13,348.62h133.74l1.11-81.05-2.69-2.75s-1.71-1.82-3.8-5.9c-5.23,2.08-10.35,3.79-15.25,5.1-15.06,4.03-30.65,4.05-45.73,4.06h-.84c-15.21.04-31.45-.55-47.76-4.86-4.37-1.15-8.95-2.47-13.43-4.29-1.7,3.28-3.16,5.15-3.67,5.75-.1.12-.22.24-.33.35l-2.46,2.29,1.11,81.29Z"/>
        <path class="cls-11" d="M307.99,343.62h-115.98c-2.19,0-3.98-1.76-4-3.96l-.76-68.08c-.01-1.06.4-2.09,1.15-2.85h0s.4-.42,1.04-1.26c3.55-4.69,11.81-18.52,11.7-45.29-.07-15.87-6.49-26.55-12.16-35.97-6.47-10.75-12.58-20.9-4.76-34.02,13.72-23.05,63.68-23.31,65.8-23.31s52.07.27,65.8,23.31c7.82,13.12,1.7,23.27-4.77,34.02-5.67,9.42-12.09,20.09-12.16,35.97-.12,26.13,7.89,40.03,11.34,44.8.86,1.18,1.42,1.77,1.42,1.77.72.75,1.13,1.78,1.12,2.82l-.76,68.08c-.02,2.19-1.81,3.96-4,3.96ZM195.97,335.62h108.07l.7-62.62c-.29-.36-.62-.79-.98-1.29,0,0,0,0,0-.01-3.91-5.4-13-21.03-12.87-49.53.08-18.08,7.41-30.27,13.31-40.06,6.64-11.04,9.87-17.2,4.75-25.8-9.47-15.9-45.75-19.4-58.93-19.41-13.18,0-49.46,3.51-58.92,19.41-5.13,8.6-1.9,14.76,4.75,25.8,5.9,9.79,13.23,21.98,13.31,40.06.12,29.21-9.28,44.81-13.33,50.16-.19.25-.37.48-.53.68l.7,62.62Z"/>
        <path class="cls-11" d="M203.41,343.62h-11.4c-2.19,0-3.98-1.76-4-3.96l-.76-68.08c-.01-1.06.4-2.09,1.15-2.85h0s.4-.42,1.04-1.26c.76-1,1.96-1.57,3.22-1.57,1.26.01,2.44.62,3.19,1.63,6.72,9.15,9.89,20.84,8.7,32.07-.17,1.59-.42,3.16-.66,4.67-.48,2.98-.93,5.79-.72,8.46.39,5.11,3.38,9.92,7.78,12.55,1.87,1.11,6.85,4.08,5.41,9.19-.76,2.71-3.06,4.04-4.17,4.68-2.25,1.3-4.51,2.61-6.76,3.92-.61.35-1.3.54-2.01.54ZM195.97,335.62h6.37c1.74-1.01,3.48-2.02,5.21-3.02-.2-.13-.44-.27-.71-.43-5.55-3.31-9.58-8.92-11.09-15.17l.21,18.62ZM195.4,284.74l.23,20.53c.11-.76.23-1.51.35-2.25.24-1.47.46-2.87.61-4.25.5-4.68.07-9.47-1.19-14.03Z"/>
        <path class="cls-11" d="M307.99,343.62h-21.46c-1.47,0-2.82-.8-3.52-2.09-.29-.54-.55-1.08-.81-1.62-1.34-2.82-2.69-5.63-4.02-8.45-.62-1.31-.48-2.85.36-4.03.84-1.18,2.25-1.81,3.7-1.65,4.44.5,8.69-3.19,10.58-7.08,2.33-4.8,2.44-10.62,2.22-16.19-.04-1.02-.09-2.04-.15-3.06-.27-5.31-.55-10.81.58-16.32,1.26-6.16,4.22-11.87,8.58-16.51.81-.87,1.97-1.33,3.16-1.26,1.19.07,2.28.67,2.98,1.63.87,1.19,1.42,1.77,1.42,1.78.72.75,1.13,1.78,1.11,2.82l-.76,68.08c-.02,2.19-1.81,3.96-4,3.96ZM289.02,335.62h15.01l.62-55.33c-.58,1.43-1.02,2.92-1.33,4.44-.93,4.52-.69,9.28-.43,14.31.05,1.05.11,2.1.15,3.15.27,6.61.09,13.61-3.02,20.01-2.61,5.35-7.19,9.29-12.22,10.86.41.85.81,1.71,1.22,2.56Z"/>
        <path class="cls-11" d="M301.66,361.75c-1.34,0-2.6-.67-3.35-1.81l-12.19-18.68c-.65-.99-.82-2.22-.48-3.36.35-1.13,1.18-2.05,2.27-2.51.82-.35,18.99-8.33,14.76-24.49-2.37-9.05-6.81-31.48,3.03-44.23,4.28-5.54,10.51-8.35,18.53-8.35,8.74,0,15.07,2.62,18.83,7.79,6.16,8.47,2.42,20.3,2.26,20.8-.36,1.11-1.18,2-2.25,2.45-1.07.45-2.29.41-3.33-.1-5.21-2.58-11.04-3.74-12.16-2.88h0s-.26.53,0,2.14c.33,2.05,1.62,5.51,3.11,9.52,4.75,12.74,11.93,31.98,3.29,46.58-5.36,9.06-16.04,14.8-31.73,17.08-.19.03-.39.04-.58.04ZM295.24,340.6l8.35,12.79c11.79-2.1,19.68-6.41,23.49-12.84,6.7-11.31.32-28.4-3.9-39.71-1.71-4.59-3.07-8.21-3.52-11.06-.89-5.56,1.23-8.43,3.17-9.85,4.2-3.09,10.9-1.61,15.68.12.26-2.85.06-6.52-1.95-9.27-2.17-2.97-6.32-4.47-12.34-4.47-5.48,0-9.47,1.71-12.19,5.24-6.27,8.12-4.95,24.6-1.62,37.31,4.09,15.63-6.5,26.55-15.17,31.72Z"/>
        <path class="cls-11" d="M198.33,361.75c-.19,0-.38-.01-.58-.04-15.69-2.28-26.36-8.03-31.73-17.08-8.65-14.6-1.46-33.85,3.29-46.58,1.5-4.01,2.79-7.46,3.11-9.52.26-1.65-.03-2.17-.03-2.17-1.09-.83-6.92.32-12.13,2.91-1.04.52-2.26.56-3.33.1-1.07-.45-1.9-1.35-2.25-2.45-.16-.5-3.9-12.33,2.26-20.8,3.76-5.17,10.09-7.79,18.83-7.79,8.02,0,14.25,2.81,18.53,8.35,9.84,12.74,5.39,35.17,3.03,44.23-4.23,16.17,13.99,24.15,14.76,24.49,1.09.46,1.92,1.39,2.26,2.52.34,1.13.17,2.36-.47,3.35l-12.19,18.68c-.75,1.14-2.01,1.81-3.35,1.81ZM170.84,278.14c2.33,0,4.55.49,6.33,1.79,1.93,1.42,4.05,4.28,3.17,9.85-.45,2.84-1.81,6.47-3.52,11.06-4.22,11.31-10.6,28.4-3.9,39.71,3.81,6.43,11.7,10.74,23.49,12.84l8.35-12.79c-8.67-5.17-19.26-16.09-15.17-31.72,3.33-12.72,4.65-29.2-1.62-37.31-2.72-3.52-6.71-5.24-12.19-5.24-6.03,0-10.19,1.51-12.36,4.49-1.99,2.73-2.18,6.4-1.93,9.24,2.76-1,6.16-1.91,9.35-1.91Z"/>
        <path class="cls-11" d="M324.12,367.8c-.51,0-1.03-.1-1.51-.3l-27.12-11.1c-1.74-.71-2.75-2.55-2.42-4.4.33-1.85,1.91-3.23,3.79-3.3,1.23-.05,2.61-.05,4.06-.05,3.48,0,7.8-.02,10.37-.71,5.07-1.34,8.29-4.06,10.45-8.81,2.31-5.08,3.14-10.98,2.34-16.62-1-7.08-4.45-12.84-8.52-19.1-5.91-9.07-6.25-19.54-.9-27.31,2.68-3.9,6.49-6.75,10.72-8.02,4.78-1.42,9.96-.7,13.88,1.92,6.05,4.06,8.37,12.41,5.29,19.01-2.09,4.48-6.41,7.57-11.16,8.45,1.35,2.56,3.24,5.01,5.21,7.55,1.97,2.55,4.02,5.19,5.66,8.13,3.85,6.85,5.1,14.75,3.63,22.84-2.2,12.18-10.48,24.13-21.61,31.19-.65.41-1.39.62-2.14.62ZM314.23,355.43l9.44,3.86c8.45-5.99,14.64-15.3,16.34-24.73h0c1.15-6.33.24-12.22-2.73-17.5-1.36-2.43-3.14-4.72-5.02-7.15-3.4-4.4-6.92-8.94-8.27-14.75-.08-.31-.16-.7-.24-1.11-.26-1.37.21-2.77,1.24-3.7,1.03-.93,2.47-1.27,3.8-.88,3.2.93,7.08-.83,8.49-3.84,1.41-3.02.27-7.13-2.49-8.99-1.93-1.29-4.66-1.64-7.13-.9-2.48.74-4.76,2.48-6.41,4.89-4.16,6.04-2.2,13.47,1.01,18.41,4.43,6.81,8.52,13.65,9.74,22.35,1.01,7.13-.05,14.61-2.98,21.05-3.03,6.67-7.88,10.92-14.79,12.98Z"/>
        <path class="cls-11" d="M324.12,367.8c-.51,0-1.03-.1-1.51-.3l-27.12-11.1c-1.74-.71-2.75-2.55-2.42-4.4.33-1.85,1.91-3.23,3.79-3.3,1.24-.05,2.63-.05,4.1-.05,3.46,0,7.78-.02,10.34-.7,5.07-1.35,8.29-4.06,10.45-8.81.04-.09.08-.19.12-.29.05-.14.11-.27.16-.41.82-1.94,3-2.91,4.99-2.23,4,1.38,9.22,1.25,14.7-.37,1.42-.42,2.95-.02,3.99,1.03s1.41,2.59.96,4c-3.28,10.44-10.9,20.27-20.4,26.3-.65.41-1.39.62-2.14.62ZM314.23,355.43l9.43,3.86c5.18-3.68,9.58-8.7,12.58-14.26-2.65.24-5.5.21-8.37-.34-3.05,5.38-7.54,8.91-13.65,10.73Z"/>
        <path class="cls-11" d="M175.88,367.8c-.75,0-1.49-.21-2.15-.62-9.71-6.17-17.4-16.21-20.57-26.88-2.88-9.62-1.99-19.01,2.59-27.16,1.65-2.94,3.69-5.57,5.66-8.12,1.97-2.55,3.87-5,5.22-7.55-4.75-.88-9.07-3.97-11.16-8.45-3.08-6.6-.76-14.96,5.29-19.01,3.92-2.63,9.1-3.34,13.87-1.92,4.24,1.27,8.04,4.12,10.73,8.03,5.35,7.77,5,18.23-.91,27.31-4.07,6.26-7.52,12.01-8.52,19.09-.8,5.65.03,11.55,2.34,16.63,2.16,4.75,5.38,7.47,10.44,8.81,2.58.69,6.9.7,10.38.71,1.45,0,2.83,0,4.06.05,1.88.07,3.46,1.44,3.79,3.3.33,1.85-.68,3.69-2.42,4.4l-27.12,11.1c-.49.2-1,.3-1.51.3ZM172.32,289.31c.97,0,1.92.35,2.67,1.02,1.03.92,1.51,2.3,1.28,3.66-.05.3-.12.6-.18.88-1.3,5.93-4.88,10.56-8.34,15.04-1.88,2.43-3.65,4.72-5.01,7.15-4.41,7.85-3.46,15.73-1.9,20.95,2.45,8.25,8.18,16.07,15.51,21.28l9.43-3.86c-6.92-2.06-11.76-6.32-14.79-12.98-2.93-6.44-3.99-13.92-2.98-21.06,1.22-8.69,5.3-15.53,9.74-22.34,3.22-4.94,5.17-12.37,1.02-18.41-1.66-2.41-3.94-4.15-6.42-4.9-2.46-.73-5.2-.39-7.12.9-2.76,1.85-3.9,5.97-2.49,8.99,1.4,3.01,5.3,4.77,8.49,3.84.37-.11.74-.16,1.12-.16Z"/>
        <path class="cls-11" d="M157,343.16c-.41,0-.81-.06-1.21-.19-1.26-.4-2.24-1.4-2.62-2.66-2.89-9.62-1.99-19.02,2.58-27.17,1.65-2.94,3.69-5.57,5.66-8.12,3.06-3.95,5.94-7.69,6.86-11.88.11-.52.33-1.01.64-1.45.09-.13.17-.25.25-.38,1.02-1.57,2.99-2.23,4.75-1.58,1.76.65,2.83,2.44,2.57,4.3-.87,6.3-3.75,11.94-6.45,16.63-.67,1.17-1.36,2.33-2.05,3.49-2.1,3.53-4.08,6.87-5.53,10.42-1.41,3.48-2.82,8.64-1.51,13.47.42,1.55-.12,3.21-1.39,4.2l-.09.07c-.71.56-1.58.85-2.47.85Z"/>
        <path class="cls-11" d="M175.88,367.8c-.75,0-1.49-.21-2.14-.62-10.15-6.44-17.97-16.95-20.93-28.12-.4-1.53.13-3.16,1.37-4.14,1.24-.99,2.94-1.16,4.34-.43,4.15,2.16,8.95,2.54,14.67,1.18,1.92-.46,3.89.56,4.63,2.39l.16.39c.09.23.18.46.29.69,2.16,4.75,5.38,7.46,10.45,8.81,2.56.68,6.88.69,10.34.7,1.47,0,2.86,0,4.1.05,1.88.07,3.46,1.44,3.79,3.3.33,1.85-.68,3.69-2.42,4.4l-27.12,11.1c-.49.2-1,.3-1.51.3ZM163.35,344.22c3,5.85,7.59,11.22,12.99,15.07l9.43-3.86c-6.34-1.89-10.93-5.62-13.99-11.35-2.94.44-5.76.49-8.44.14Z"/>
        <path class="cls-11" d="M308.83,358.02h-117.65c-1.26,0-2.45-.6-3.21-1.61s-.99-2.33-.62-3.54l1.97-6.56c.55-1.83,1.25-3.64,2.08-5.37,5.73-11.86,17.14-19.23,29.79-19.23h57.65c13.49,0,25.58,8.46,30.8,21.54.38.94.74,1.95,1.07,3.06l1.97,6.56c.36,1.21.13,2.52-.62,3.54s-1.94,1.61-3.21,1.61ZM196.55,350.02h106.91l-.42-1.41c-.26-.86-.53-1.63-.83-2.36-4.01-10.06-13.18-16.54-23.38-16.54h-57.65c-9.55,0-18.2,5.63-22.58,14.7-.65,1.35-1.2,2.77-1.63,4.2l-.42,1.41Z"/>
        <path class="cls-11" d="M199.7,340.16c-.76,0-1.53-.22-2.21-.67-1.84-1.22-2.34-3.7-1.12-5.54,3.24-4.88,8.75-8.53,15.51-10.27,5.69-1.47,11.39-1.5,16.91-1.54l46.14-.29c4.38-.03,8.91-.06,13.49,1.01,3.88.9,9.28,2.99,12.94,7.86,1.33,1.76.98,4.27-.79,5.6-1.76,1.33-4.27.98-5.6-.79-1.73-2.3-4.7-4.03-8.36-4.88-3.67-.85-7.72-.83-11.64-.8l-46.14.29c-5.03.03-10.23.06-14.96,1.28-4.84,1.25-8.69,3.72-10.84,6.95-.77,1.16-2.04,1.79-3.34,1.79Z"/>
        <path class="cls-11" d="M308.83,358.02h-117.65c-1.26,0-2.45-.6-3.21-1.61s-.99-2.33-.62-3.54l1.97-6.56c.55-1.83,1.25-3.64,2.08-5.37.83-1.73,2.77-2.62,4.62-2.14,20,5.22,41.11,5.84,61.53,6.43,14.29.42,32.07.93,47.06-4.28,2.01-.7,4.21.29,5.02,2.26.4.97.75,1.99,1.09,3.09l1.97,6.56c.36,1.21.13,2.52-.62,3.54s-1.94,1.61-3.21,1.61ZM302.32,350.02h1.13l-.09-.29c-.35.1-.7.2-1.05.29ZM196.55,350.02h14.6c-4.61-.69-9.21-1.56-13.78-2.63-.14.41-.27.81-.4,1.22l-.42,1.41Z"/>
        <path class="cls-11" d="M317.63,449.56c-2.18,0-4.39-.5-6.41-1.49-3.58-1.77-6.47-4.95-8.13-8.96-1.48-3.6-2-7.71-1.62-12.95.43-6.05,1.85-12.02,4.23-17.74.35-.85.64-1.75.94-2.71.38-1.21.77-2.46,1.35-3.77,1.1-2.5,1.75-4.59,2.04-6.59.45-3.13.05-6.44-1.11-9.33-.29-.72-.62-1.4-1-2.04-.75-1.27-1.69-2.36-2.78-3.25-.61-.5-1.25-.91-1.94-1.25-.7-.34-1.42-.58-2.14-.71h-102.09c-.3.05-.61.13-.93.22-.04.01-.08.03-.12.04-1.08.35-2.12.94-3.11,1.77-1.07.88-1.96,1.93-2.69,3.16-1.89,3.18-2.68,7.43-2.12,11.38.28,1.99.93,4.09,2.04,6.58.58,1.31.97,2.56,1.35,3.77.3.96.59,1.86.94,2.71,2.38,5.72,3.8,11.69,4.23,17.75.38,5.23-.14,9.34-1.62,12.94-1.66,4.01-4.55,7.19-8.12,8.96-4.12,2.03-9.03,1.99-12.83-.1-3.01-1.67-5.08-4.49-5.86-7.93-.98-4.38.2-9.29,3.08-12.8,1.16-1.41,2.57-2.58,4.14-3.45-.58-.87-1.16-1.74-1.74-2.59-3.45-5.13-7.03-10.44-9.89-16.1-.79-1.55-1.46-3.01-2.06-4.46-2.61-6.18-4.08-12.36-4.36-18.34-.38-8.26,1.65-16.28,5.57-21.99.36-.53.73-1.03,1.12-1.52,3.56-4.45,8.62-7.57,14.62-9,4.6-1.1,11.82-1.17,17.36-1,.23-.04.47-.07.71-.07h102.7c.25,0,.49.02.72.06,5.54-.16,12.75-.09,17.35,1,6,1.43,11.05,4.55,14.62,9.01.22.28.43.55.63.82,4.25,5.8,6.45,14.05,6.06,22.67h0c-.35,7.41-2.51,15.08-6.42,22.8,0,.01-.01.02-.02.04l-.03.05c-2.86,5.62-6.42,10.91-9.85,16.02-.58.86-1.16,1.72-1.74,2.59,1.57.87,2.98,2.04,4.14,3.45,2.16,2.63,3.4,6.14,3.42,9.62.02,4.81-2.3,8.97-6.2,11.12-1.93,1.07-4.15,1.6-6.41,1.6ZM193.52,356.7c-4.89,0-8.74.29-11.08.85-2.96.71-7.15,2.36-10.24,6.23-.27.34-.52.67-.76,1.02-2.96,4.32-4.48,10.55-4.18,17.11.24,5.03,1.5,10.29,3.75,15.63.53,1.29,1.12,2.56,1.81,3.92,2.65,5.22,6.08,10.32,9.4,15.25,1.56,2.32,3.17,4.72,4.7,7.12.75,1.19.83,2.68.2,3.94-.63,1.26-1.87,2.09-3.28,2.2-1.71.13-3.39,1-4.48,2.33-1.31,1.6-1.9,4.01-1.46,5.98.27,1.22.92,2.13,1.93,2.69,1.5.83,3.63.8,5.41-.07,1.81-.9,3.37-2.66,4.27-4.84.99-2.4,1.32-5.36,1.04-9.31-.37-5.2-1.59-10.33-3.63-15.24-.49-1.17-.84-2.3-1.19-3.38-.33-1.05-.64-2.03-1.04-2.93-1.41-3.19-2.25-5.95-2.64-8.69-.82-5.79.33-11.84,3.16-16.6,1.2-2.02,2.7-3.78,4.46-5.22,1.72-1.44,3.62-2.52,5.64-3.19.07-.03.14-.05.2-.07.88-.28,1.72-.47,2.58-.58.18-.02.36-.04.55-.04h102.7c.18,0,.36.01.54.04,1.65.23,3.27.73,4.83,1.49,1.24.61,2.4,1.36,3.46,2.23,1.81,1.47,3.37,3.27,4.6,5.35.6,1,1.12,2.07,1.56,3.17,1.67,4.16,2.24,8.93,1.6,13.43-.39,2.74-1.23,5.5-2.64,8.69-.4.9-.71,1.89-1.04,2.93-.34,1.09-.7,2.21-1.19,3.39-2.04,4.91-3.26,10.03-3.63,15.23-.28,3.96.05,6.92,1.04,9.32.9,2.18,2.46,3.94,4.28,4.84,1.77.88,3.9.9,5.41.06,1.8-1,2.07-2.99,2.06-4.08,0-1.65-.61-3.36-1.6-4.58-1.09-1.33-2.76-2.2-4.48-2.33-1.4-.1-2.65-.94-3.28-2.2-.63-1.26-.55-2.75.2-3.94,1.53-2.4,3.14-4.8,4.7-7.12,3.3-4.91,6.71-9.98,9.35-15.17,0-.02.02-.03.02-.05,0-.01.01-.02.02-.04,3.39-6.71,5.26-13.29,5.56-19.56h0c.31-6.73-1.37-13.29-4.49-17.54-.13-.18-.29-.39-.46-.6-3.08-3.85-7.26-5.51-10.22-6.21-3.1-.74-8.81-1.01-16.07-.76-.33,0-.66-.02-.98-.09h-101.06c-.31.07-.62.1-.94.09-1.76-.06-3.43-.09-4.99-.09ZM336.73,382.09h0,0Z"/>
        <path class="cls-11" d="M330.7,407.35c-.38,0-.77-.05-1.15-.17-2.08-.62-3.28-2.79-2.71-4.88,3.26-11.98,1.41-25.35-4.96-35.76-.62-1.01-.76-2.23-.38-3.35.37-1.12,1.22-2.02,2.32-2.45l6.18-2.45c1.69-.67,3.62-.11,4.7,1.35,4.23,5.76,6.42,14.02,6.03,22.64h0c-.35,7.41-2.51,15.08-6.42,22.8,0,0,0,0,0,.01-.67,1.4-2.09,2.27-3.6,2.27ZM336.73,382.09h0,0Z"/>
        <path class="cls-11" d="M167.33,403.09c-1.57,0-3.05-.93-3.69-2.45-2.62-6.21-4.09-12.39-4.37-18.37-.38-8.26,1.65-16.28,5.57-21.99.79-1.15,2.12-1.81,3.53-1.73,1.4.08,2.65.89,3.31,2.12l2.29,4.33c.59,1.11.62,2.44.08,3.58-2.67,5.64-3.99,12.45-3.84,19.68h0c.07,3.22.43,6.62,1.06,10.11.36,2.01-.84,3.96-2.8,4.55-.38.11-.76.17-1.14.17Z"/>
        <path class="cls-11" d="M164.92,373.23c-1.02,0-2.03-.39-2.79-1.13-1.09-1.06-1.49-2.65-1.02-4.1,1.15-3.55,2.78-6.65,4.84-9.22,3.56-4.45,8.62-7.57,14.62-9,4.62-1.11,11.85-1.17,17.39-1.01.22-.04.45-.06.68-.06h102.71c.24,0,.47.02.7.06,5.54-.16,12.76-.1,17.37,1.01,6,1.44,11.06,4.55,14.62,9.01,2,2.5,3.6,5.51,4.75,8.97.49,1.46.09,3.07-1.01,4.14-1.11,1.07-2.73,1.41-4.17.87-11.4-4.23-23.45-4.58-36.89-4.58h-57.71c-4.79,0-9.67-.07-14.39-.13-12.32-.17-25.05-.35-37.35.66h0c-7.76.64-14.83,2.08-21.01,4.28-.44.16-.89.23-1.34.23ZM186.95,364.73h0,0ZM193.52,356.69c-4.88,0-8.73.29-11.08.86-2.69.64-6.37,2.06-9.34,5.19,4.26-.94,8.78-1.61,13.52-2h0c12.68-1.04,25.61-.86,38.11-.69,4.69.06,9.55.13,14.28.13h57.71c10.57,0,20.35.21,29.87,2.25-2.91-2.91-6.44-4.26-9.03-4.88-3.1-.74-8.81-1.02-16.07-.77-.32.01-.65-.02-.96-.08h-101.11c-.3.06-.61.09-.92.08-1.76-.06-3.43-.09-4.99-.09Z"/>
        <path class="cls-11" d="M193.93,349.75c-.62,0-1.24-.14-1.83-.44-1.96-1.01-2.74-3.42-1.73-5.39l2.47-4.8c1.01-1.96,3.42-2.74,5.39-1.73,1.96,1.01,2.74,3.42,1.73,5.39l-2.47,4.8c-.71,1.38-2.11,2.17-3.56,2.17Z"/>
        <path class="cls-11" d="M307.64,381.63c-.9,0-1.79-.3-2.54-.91-.59-.48-1.23-.9-1.92-1.24-1.42-.7-2.29-2.17-2.22-3.74s1.05-2.97,2.51-3.56l.6-.24c1.37-.55,2.92-.3,4.05.65.83.69,1.64,1.47,2.42,2.29,1.45,1.54,1.45,3.93.01,5.47-.78.84-1.85,1.27-2.92,1.27Z"/>
        <path class="cls-11" d="M317.63,449.56c-2.18,0-4.39-.5-6.41-1.49-3.58-1.77-6.47-4.95-8.13-8.96-1.48-3.6-2-7.71-1.62-12.95.43-6.05,1.85-12.02,4.23-17.74.35-.85.64-1.75.94-2.71.38-1.21.77-2.46,1.35-3.77,1.1-2.5,1.75-4.59,2.04-6.59.45-3.13.05-6.44-1.11-9.33-.79-1.97.09-4.22,2.02-5.12,1.92-.9,4.21-.14,5.22,1.73,2.5,4.65,4.14,10.06,4.75,15.66.89,8.14-.12,16.89-3.17,27.53l-.19.64c-.59,2.02-1.14,3.93-1.15,5.68,0,1.52.5,2.87,1.28,3.44.95.69,2.86.48,4.36-.48.48-.31.96-.69,1.44-1.14,1.16-1.1,2.86-1.41,4.33-.78s2.43,2.07,2.43,3.67c.02,4.81-2.3,8.96-6.2,11.12-1.93,1.07-4.15,1.6-6.41,1.6ZM312.44,413.1c-1.48,3.94-2.44,8.01-2.87,12.13.1-.34.19-.67.29-.99l.18-.62c1.08-3.76,1.88-7.25,2.4-10.52Z"/>
        <path class="cls-11" d="M182.37,449.56c-2.26,0-4.48-.53-6.41-1.6-3.01-1.67-5.08-4.49-5.86-7.93-.4-1.77.44-3.58,2.04-4.42,1.6-.84,3.57-.5,4.8.83.63.69,1.92,1.03,2.79.75,1.68-.54,3.07-2.53,3.37-4.84.31-2.29-.22-4.94-1.66-8.33-.52-1.22-1.1-2.42-1.71-3.7-.96-2-1.96-4.07-2.75-6.3-2.83-7.96-2.56-16.99.75-24.76,2.52-5.91,6.86-11.17,12.23-14.82,1.77-1.2,4.17-.8,5.45.91,1.28,1.71.99,4.13-.66,5.49-1.04.86-1.94,1.91-2.66,3.13-1.89,3.18-2.68,7.43-2.12,11.38.28,1.99.93,4.09,2.04,6.58.58,1.31.97,2.56,1.35,3.77.3.96.59,1.86.94,2.71,2.38,5.72,3.8,11.69,4.23,17.75.38,5.24-.14,9.35-1.62,12.94-1.66,4.01-4.55,7.19-8.12,8.96-2.02,1-4.24,1.5-6.42,1.5ZM183.09,400.96c-.22,3.51.26,7.06,1.44,10.37.65,1.83,1.51,3.62,2.43,5.52.63,1.3,1.27,2.65,1.87,4.04.71,1.68,1.26,3.26,1.65,4.76-.45-4.83-1.64-9.58-3.54-14.16-.49-1.17-.84-2.3-1.19-3.38-.33-1.05-.64-2.03-1.04-2.93-.66-1.48-1.19-2.88-1.61-4.21Z"/>
        <path class="cls-11" d="M196.67,379.24c-1.25,0-2.46-.58-3.24-1.65-1.16-1.59-.99-3.79.4-5.18.29-.29.63-.54,1.01-.73h0s.02-.01.03-.02c.01,0,.02-.01.04-.02.55-.28,1.17-.43,1.8-.43h.01c1.64,0,3.11,1,3.71,2.51.61,1.52.23,3.25-.96,4.38-.4.38-.88.67-1.39.86-.46.17-.94.26-1.41.26Z"/>
        <path class="cls-11" d="M178.82,438.39c-1.57,0-3.09-.58-4.21-1.68-1.13-1.12-1.73-2.64-1.7-4.28.04-1.8.86-3.6,2.2-4.82h0c1.4-1.28,4.03-2.53,6.49-2.24,1.63.19,3.01,1,3.91,2.3.91,1.32,1.18,2.95.75,4.59-.64,2.44-2.79,4.6-4.57,5.47-.92.45-1.91.67-2.88.67ZM180.43,433.57h0ZM178.49,430.42c-.06.46.01,1.15.45,1.78.51.73,1.25,1.04,1.75,1.1.15-.2.22-.44.23-.72.01-.56-.24-1.14-.68-1.57-.43-.43-1.11-.74-1.75-.59ZM177.81,430.56h0,0Z"/>
        <path class="cls-11" d="M320.39,438.25c-1.56,0-3.13-.63-4.3-1.8-1.21-1.21-1.92-2.88-2-4.72h0c-.17-3.88,2.38-5.97,4.83-6.27,3.27-.39,6.49,2.07,7.18,5.5.59,2.94-1,5.92-3.69,6.92-.65.24-1.33.36-2.01.36ZM320.4,430.25c-.29,0-.57.06-.81.15-.79.3-1.55,1.09-1.34,2.13.15.76.95.95,1.58.89,1.45-.14,2.24-1.42,2.25-2.04,0-.11-.11-.35-.34-.59-.39-.39-.88-.53-1.33-.53ZM322.07,431.38h0,0Z"/>
        <path class="cls-11" d="M161.62,330.65c-1.74,0-3.43-.59-4.75-1.78-1.38-1.24-2.22-3.01-2.45-5.11-.28-2.58.38-5.17,1.87-7.3h0c1.31-1.88,4.54-4.91,8.31-4.32,3.95.62,6.32,4.38,5.76,9.15-.36,3.1-1.48,5.53-3.3,7.21-1.54,1.42-3.51,2.14-5.43,2.14ZM162.43,323.18h.01-.01ZM159.56,318.76h0,0Z"/>
        <path class="cls-11" d="M338.72,330.65c-1.92,0-3.89-.72-5.43-2.14-1.83-1.68-2.94-4.11-3.3-7.21-.56-4.77,1.81-8.53,5.76-9.15,3.77-.59,7,2.44,8.31,4.32,1.48,2.13,2.15,4.72,1.87,7.29-.23,2.1-1.08,3.87-2.45,5.11-1.31,1.19-3.01,1.77-4.75,1.77Z"/>
        <path class="cls-11" d="M343.94,339.27c-.12,0-.25,0-.37-.02-2.06-.19-3.64-1.92-3.63-4,.02-5.71-1.6-11.49-4.55-16.28-1.1-1.78-2.39-3.47-3.75-5.26-1.28-1.68-2.61-3.42-3.81-5.29-3.36-5.22-4.76-10.25-4.15-14.97.2-1.55,1.29-2.85,2.79-3.31,1.5-.46,3.13,0,4.17,1.17l.24.27c.44.5.75,1.1.9,1.75.96,4.11,3.8,7.78,6.81,11.67,1.97,2.55,4.02,5.19,5.66,8.13,3.85,6.85,5.1,14.75,3.63,22.84-.35,1.92-2.02,3.28-3.93,3.28Z"/>
        <path class="cls-11" d="M171.58,162.69c-.25,0-.5-.02-.75-.07-2.15-.41-3.57-2.48-3.19-4.63.8-4.48,2.5-8.94,5.06-13.24,7.92-13.37,23.94-22.44,47.61-26.98,15.44-2.97,29.12-3,29.69-3s14.25.03,29.69,3c23.66,4.53,39.68,13.61,47.61,26.98,0,0,0,0,0,0,.47.8.95,1.67,1.47,2.66,1,1.94.27,4.32-1.65,5.36s-4.31.35-5.39-1.55c-4.26-7.53-19.87-25.04-72.81-25.04-64.82,0-72.74,29.89-73.43,33.3-.38,1.9-2.05,3.21-3.92,3.21Z"/>
        <path class="cls-11" d="M171.51,163.05c-.23,0-.46-.02-.69-.06-2.17-.38-3.62-2.44-3.26-4.61.01-.06.02-.13.03-.19.02-.09.04-.19.06-.3.44-2.15,2.52-3.54,4.67-3.13,2.15.41,3.57,2.48,3.18,4.64l-.07.35c-.35,1.93-2.03,3.29-3.93,3.29Z"/>
        <path class="cls-11" d="M211.04,136.03c-.77,0-1.54-.03-2.31-.1-2.86-.24-4.92-1.32-6.11-3.2h0c-1.08-1.71-1.33-3.64-.7-5.45,1.28-3.68,5.53-5.44,9.41-6.8l.43-.15c2.5-.9,12.44-2.98,15.54,3.2,1.12,2.23.76,5.02-.9,7.12-1.17,1.47-2.71,2.31-3.91,2.87-3.59,1.66-7.51,2.52-11.45,2.52ZM209.38,128.46h.01-.01Z"/>
        <g>
          <path class="cls-11" d="M236.21,241.62c-2.74,0-5.42-1.36-6.87-3.76-1.04-1.72-1.4-3.83-1.08-6.25,0,0,0,0,0,0,.61-4.57,3.91-7.78,8.01-7.82,4.15-.04,7.5,3.14,8.19,7.72.57,3.76-1.32,7.55-4.59,9.23-1.16.6-2.42.88-3.67.88ZM236.21,233.76h0,0ZM236.18,233.62s.07,0,.09,0c.11-.06.35-.5.29-.9-.05-.32-.12-.54-.2-.7-.06.15-.13.37-.17.66h0c-.06.46-.05.76-.02.93Z"/>
          <path class="cls-11" d="M263.48,241.62c-2.74,0-5.42-1.36-6.87-3.76-1.04-1.72-1.4-3.83-1.07-6.25h0c.61-4.57,3.91-7.78,8.01-7.82.02,0,.05,0,.07,0,4.1,0,7.43,3.16,8.12,7.72.57,3.76-1.32,7.55-4.59,9.23-1.16.6-2.42.88-3.67.88ZM263.48,233.76h0,0ZM263.45,233.62s.07,0,.09,0c.11-.06.35-.5.29-.9-.05-.32-.12-.54-.2-.7-.06.15-.13.37-.17.66h0c-.06.46-.05.76-.02.93ZM259.51,232.15h0,0Z"/>
        </g>
        <g>
          <path class="cls-11" d="M236.21,172.87c-2.74,0-5.42-1.36-6.87-3.76-1.04-1.73-1.4-3.83-1.08-6.25,0,0,0,0,0,0,.61-4.57,3.91-7.78,8.01-7.82h.07c4.1,0,7.43,3.16,8.12,7.72.57,3.76-1.32,7.55-4.59,9.23-1.16.6-2.42.88-3.67.88ZM236.21,165.01h0,0ZM236.18,164.86s.07,0,.09,0c.11-.06.35-.5.29-.9-.05-.32-.12-.54-.2-.7-.06.15-.13.37-.17.66-.06.46-.05.76-.02.93Z"/>
          <path class="cls-11" d="M263.48,172.87c-2.74,0-5.42-1.36-6.87-3.76-1.04-1.73-1.4-3.83-1.07-6.25.61-4.57,3.91-7.78,8.01-7.82h.07c4.1,0,7.43,3.16,8.12,7.72.57,3.76-1.32,7.55-4.59,9.23-1.16.6-2.42.88-3.67.88ZM263.48,165.01h0,0ZM263.45,164.86s.07,0,.09,0c.11-.06.35-.5.29-.9-.05-.32-.12-.54-.2-.7-.06.15-.13.37-.17.66h0c-.06.46-.05.76-.02.93ZM259.51,163.4h0,0Z"/>
        </g>
        <g>
          <path class="cls-11" d="M236.21,310.38c-2.74,0-5.42-1.36-6.87-3.76-1.04-1.72-1.4-3.83-1.08-6.25,0,0,0,0,0,0,.61-4.57,3.91-7.78,8.01-7.82,4.15-.08,7.5,3.14,8.19,7.72.57,3.76-1.32,7.55-4.59,9.23-1.16.6-2.42.88-3.67.88ZM236.21,302.52h0,0ZM236.18,302.37s.07,0,.09,0c.11-.06.35-.5.29-.9-.05-.32-.12-.54-.2-.7-.06.15-.13.37-.17.66h0c-.06.46-.05.76-.02.93Z"/>
          <path class="cls-11" d="M263.48,310.38c-2.74,0-5.42-1.36-6.87-3.76-1.04-1.72-1.4-3.83-1.07-6.25h0c.61-4.57,3.91-7.78,8.01-7.82.02,0,.05,0,.07,0,4.1,0,7.43,3.16,8.12,7.72.57,3.76-1.32,7.55-4.59,9.23-1.16.6-2.42.88-3.67.88ZM263.48,302.52h0,0ZM263.45,302.37s.07,0,.09,0c.11-.06.35-.5.29-.9-.05-.32-.12-.54-.2-.7-.06.15-.13.37-.17.66h0c-.06.46-.05.76-.02.93ZM259.51,300.9h0,0Z"/>
        </g>
        <g>
          <path class="cls-11" d="M222.58,276c-2.74,0-5.42-1.36-6.87-3.76-1.04-1.72-1.4-3.83-1.08-6.25,0,0,0,0,0,0,.61-4.57,3.91-7.78,8.01-7.82,4.11-.06,7.5,3.14,8.19,7.72.57,3.76-1.32,7.55-4.59,9.23-1.16.6-2.42.88-3.67.88ZM222.58,268.14h0,0ZM222.54,267.99s.07,0,.09,0c.11-.06.35-.5.29-.9-.05-.32-.12-.54-.2-.7-.06.15-.13.37-.17.66-.06.46-.05.76-.02.93Z"/>
          <path class="cls-11" d="M249.85,276c-2.74,0-5.42-1.36-6.87-3.76-1.04-1.72-1.4-3.83-1.07-6.25h0c.61-4.57,3.91-7.78,8.01-7.82.02,0,.05,0,.07,0,4.1,0,7.43,3.16,8.12,7.72.57,3.76-1.32,7.55-4.59,9.23-1.16.6-2.42.88-3.67.88ZM249.85,268.14h0,0ZM249.81,267.99s.07,0,.09,0c.11-.06.35-.5.29-.9-.05-.32-.12-.54-.2-.7-.06.15-.13.37-.17.66h0c-.06.46-.05.76-.02.93ZM245.87,266.53h0,0Z"/>
          <path class="cls-11" d="M277.12,276c-2.74,0-5.42-1.36-6.87-3.76-1.04-1.72-1.4-3.83-1.07-6.25h0c.61-4.57,3.91-7.78,8.01-7.82.02,0,.05,0,.07,0,4.1,0,7.43,3.16,8.12,7.72.57,3.76-1.32,7.55-4.59,9.23-1.16.6-2.42.88-3.67.88ZM277.12,268.14h0,0ZM277.08,267.99s.07,0,.09,0c.11-.06.35-.5.29-.9-.05-.32-.12-.54-.2-.7-.06.15-.13.37-.17.66h0c-.06.46-.05.76-.02.93ZM273.14,266.53h0,0Z"/>
        </g>
        <g>
          <path class="cls-11" d="M222.58,207.25c-2.74,0-5.42-1.36-6.87-3.76-1.04-1.72-1.4-3.83-1.08-6.25,0,0,0,0,0,0,.61-4.57,3.91-7.78,8.01-7.82h.07c4.1,0,7.43,3.16,8.12,7.72.57,3.76-1.32,7.55-4.59,9.23-1.16.6-2.42.88-3.67.88ZM222.58,199.39h0,0ZM222.54,199.24s.07,0,.09,0c.11-.06.35-.5.29-.9-.05-.32-.12-.55-.2-.7-.06.15-.13.37-.17.66-.06.46-.05.76-.02.93Z"/>
          <path class="cls-11" d="M249.85,207.25c-2.74,0-5.42-1.36-6.87-3.76-1.04-1.72-1.4-3.83-1.07-6.25h0c.61-4.57,3.91-7.78,8.01-7.82h.07c4.1,0,7.43,3.16,8.12,7.72.57,3.76-1.32,7.55-4.59,9.23-1.16.6-2.42.88-3.67.88ZM249.85,199.39h0,0ZM249.81,199.24s.07,0,.09,0c.11-.06.35-.5.29-.9-.05-.32-.12-.54-.2-.7-.06.15-.13.37-.17.66h0c-.06.46-.05.76-.02.93ZM245.87,197.78h0,0Z"/>
          <path class="cls-11" d="M277.12,207.25c-2.74,0-5.42-1.36-6.87-3.76-1.04-1.72-1.4-3.83-1.07-6.25h0c.61-4.57,3.91-7.78,8.01-7.82h.07c4.1,0,7.43,3.16,8.12,7.72.57,3.76-1.32,7.55-4.59,9.23-1.16.6-2.42.88-3.67.88ZM277.12,199.39h0,0ZM277.08,199.24s.07,0,.09,0c.11-.06.35-.5.29-.9-.05-.32-.12-.54-.2-.7-.06.15-.13.37-.17.66h0c-.06.46-.05.76-.02.93ZM273.14,197.78h0,0Z"/>
        </g>
        <g>
          <path class="cls-11" d="M194.04,276.53c-1.41,0-2.78-.75-3.51-2.08-1.7-3.1-4.55-5.64-7.82-6.98-2.04-.84-3.02-3.17-2.19-5.22.84-2.04,3.17-3.02,5.22-2.19,5.01,2.05,9.2,5.79,11.8,10.54,1.06,1.94.35,4.37-1.59,5.43-.61.33-1.27.49-1.92.49Z"/>
          <path class="cls-11" d="M307.35,276.65c-.53,0-1.07-.11-1.59-.33-2.03-.88-2.96-3.24-2.08-5.26,1.78-4.09,4.66-7.58,8.34-10.1,1.82-1.25,4.31-.78,5.56,1.05,1.25,1.82.78,4.31-1.05,5.56-2.4,1.64-4.36,4.01-5.52,6.68-.65,1.51-2.13,2.41-3.67,2.41Z"/>
          <path class="cls-11" d="M293.06,357.07h-.02c-.76,0-76.16-.36-97.26-.36-19.74,0-26.46-14.25-27.25-21.79-.23-2.2,1.36-4.17,3.56-4.4,2.19-.23,4.15,1.35,4.4,3.54.18,1.52,2.26,14.65,19.3,14.65,21.12,0,96.53.35,97.29.36,2.21.01,3.99,1.81,3.98,4.02-.01,2.2-1.8,3.98-4,3.98Z"/>
          <path class="cls-11" d="M297.48,357.18c-2.36,0-4.07-.08-4.64-.11-2.21-.12-3.89-2.01-3.77-4.21.12-2.21,2.01-3.91,4.21-3.77,7.46.41,20.84-.25,25.01-3.79,5.45-4.61,8.67-16.31,4.6-27.9-1.38-3.95-3.43-7.64-5.41-11.22-4.35-7.84-8.84-15.96-5.19-25.57.79-2.07,3.1-3.1,5.16-2.32,2.07.78,3.1,3.09,2.32,5.16-2.22,5.85.34,10.97,4.71,18.85,2.14,3.87,4.36,7.86,5.96,12.45,4.82,13.74,1.88,29.16-6.98,36.65-5.96,5.04-18.91,5.78-25.98,5.78Z"/>
          <path class="cls-11" d="M317.91,282.69c-.92,0-1.85-.32-2.61-.97-1.67-1.44-1.86-3.97-.42-5.64l2.05-2.39c1.44-1.67,3.97-1.86,5.64-.42,1.67,1.44,1.86,3.97.42,5.64l-2.05,2.39c-.79.92-1.91,1.39-3.03,1.39Z"/>
          <path class="cls-11" d="M173.35,321.1c-.5,0-1-.09-1.49-.29-2.05-.83-3.04-3.16-2.21-5.21,1.46-3.61,3.39-6.9,5.26-10.08.66-1.13,1.33-2.26,1.97-3.4,1.99-3.55,4.07-7.78,4.43-12.19.33-4.06-1.04-7.81-3.57-9.77-1.74-1.36-2.06-3.87-.7-5.61,1.36-1.74,3.87-2.06,5.61-.7,4.63,3.6,7.17,10.01,6.63,16.73-.48,5.99-3.15,11.41-5.42,15.46-.67,1.19-1.36,2.37-2.05,3.54-1.8,3.06-3.5,5.95-4.73,9.01-.63,1.56-2.13,2.51-3.71,2.51Z"/>
          <path class="cls-11" d="M325.76,295.35c-1.53,0-2.99-.88-3.65-2.37-1.81-4.06-1.44-8.89.98-12.62,1.28-1.97,2.98-3.39,4.91-4.09,2.71-.99,5.75-.44,7.75,1.41,2.61,2.41,2.91,6.48.65,9.09-1.45,1.67-3.97,1.85-5.64.41-.62-.54-1.03-1.22-1.24-1.96-.67,1.38-.73,3.12-.11,4.51.9,2.02,0,4.38-2.02,5.28-.53.24-1.08.35-1.63.35ZM330.35,281.53h0s0,0,0,0Z"/>
          <path class="cls-11" d="M174.68,294.54c-.63,0-1.27-.15-1.87-.47-1.95-1.03-2.7-3.46-1.66-5.41.26-.49.38-1.05.38-1.63-.98,1.6-2.99,2.33-4.81,1.65-1.58-.59-2.85-1.87-3.5-3.5-.68-1.72-.62-3.64.17-5.26,1.27-2.6,4.16-4.17,7.2-3.9,2.17.19,4.28,1.29,5.93,3.09,3.26,3.56,3.96,9.02,1.7,13.29-.72,1.36-2.1,2.13-3.54,2.13Z"/>
          <path class="cls-11" d="M203.38,243.58c-.23,0-.47-.02-.7-.06-2.18-.38-3.63-2.46-3.24-4.64,3.47-19.61-.98-40.28-12.22-56.72-.36-.53-.73-1.05-1.1-1.58-2.2-3.14-4.69-6.7-5.76-10.98-1.25-5.01-.38-10.76,2.38-15.77,2.23-4.06,5.68-7.75,10.25-10.98,1.81-1.27,4.3-.85,5.58.96,1.27,1.8.85,4.3-.96,5.58-3.57,2.52-6.22,5.32-7.86,8.3-1.8,3.27-2.39,6.91-1.62,9.98.71,2.84,2.57,5.51,4.55,8.33.39.55.77,1.1,1.15,1.65,12.4,18.15,17.32,40.98,13.49,62.62-.34,1.94-2.03,3.3-3.93,3.3Z"/>
          <path class="cls-11" d="M201.97,250.26c-.38,0-.77-.06-1.16-.17-2.12-.64-3.31-2.87-2.68-4.98l.83-2.77c.64-2.11,2.87-3.31,4.98-2.68,2.12.64,3.31,2.87,2.68,4.98l-.83,2.77c-.52,1.73-2.11,2.85-3.83,2.85Z"/>
          <path class="cls-11" d="M303.52,149.03c-.52,0-1.06-.1-1.57-.32-22.77-9.73-47.78-13.17-72.33-9.95-2.19.29-4.2-1.26-4.49-3.45-.29-2.19,1.26-4.2,3.45-4.49,25.97-3.41,52.43.23,76.51,10.52,2.03.87,2.97,3.22,2.11,5.25-.65,1.52-2.13,2.43-3.68,2.43Z"/>
          <path class="cls-11" d="M305.54,190.95c-.86,0-1.73-.28-2.46-.85-1.74-1.36-2.05-3.87-.7-5.61,5.27-6.76,7.95-12.15,8.7-17.5.88-6.26-1.56-12.45-5.95-15.06-1.9-1.13-2.52-3.58-1.4-5.48,1.13-1.9,3.58-2.52,5.48-1.4,7.2,4.27,11.13,13.54,9.79,23.06-1.23,8.73-6.16,15.97-10.32,21.3-.79,1.01-1.97,1.54-3.16,1.54Z"/>
          <path class="cls-11" d="M301.63,198.81c-.58,0-1.17-.13-1.72-.39-1.99-.95-2.84-3.34-1.88-5.33l1.74-3.63c.95-1.99,3.34-2.84,5.33-1.88,1.99.95,2.84,3.34,1.88,5.33l-1.74,3.63c-.69,1.44-2.12,2.28-3.61,2.28Z"/>
          <path class="cls-11" d="M307.85,274.61c-1.24,0-2.46-.57-3.24-1.65-8-11.05-12.57-24.65-12.87-38.29-.05-2.21,1.7-4.04,3.91-4.08,2.22-.05,4.04,1.71,4.08,3.91.26,12.03,4.29,24.02,11.35,33.77,1.3,1.79.9,4.29-.89,5.59-.71.51-1.53.76-2.34.76Z"/>
        </g>
      </g>
      <g>
        <path class="cls-12" d="M318.15,262.03l3.85,3.93-1.19,86.66h-141.62l-1.2-87.01,3.76-3.5c1.16-1.37,10.27-13.04,10.09-39.99-.09-13.07-5.28-21.64-10.79-30.75-5.06-8.37-11.57-19.13-9.61-31.9h.01s.02-.15.06-.42c.02-.1.04-.22.07-.36.68-3.79,2.11-7.77,4.56-11.9,7.31-12.33,22.42-20.78,44.92-25.09,15.09-2.9,28.38-2.93,28.94-2.93s13.85.03,28.94,2.93c22.5,4.31,37.61,12.76,44.92,25.09.49.83.94,1.66,1.36,2.47.01.01.01.03.02.04.96,1.91,1.71,3.79,2.27,5.63h0s.02.05.02.08h0c4.49,14.74-2.94,27.04-8.58,36.36-5.51,9.11-10.7,17.68-10.79,30.75-.19,28.22,9.89,39.8,9.99,39.91Z"/>
        <path class="cls-6" d="M327.92,169.34c-15.21,3.95-31.02,5.53-46.64,6.99-15.11,1.41-30.3,2.17-45.48,1.77-21.96-.58-43.77-3.72-64.52-10.53,1,9.27,5.83,17.26,9.78,23.79.79,1.3,1.57,2.6,2.33,3.89.26-.1.52-.2.78-.3,6.94-2.63,13.79-5.56,21.09-7.01,17.75-3.53,36.85-2.65,54.82-1.59,18.05,1.07,35.4,4.8,52.88,9.23,1.01.25,2.01.51,3.02.78.96-1.67,1.96-3.33,2.97-5,3.72-6.15,8.22-13.6,9.57-22.19-.2.05-.4.11-.6.16Z"/>
        <path class="cls-6" d="M313.51,253.77c-5.99,2.55-12.12,4.74-18.31,6.4-14.83,3.97-30.31,3.91-45.54,3.93-15.9.02-31.3-.65-46.74-4.73-5.6-1.48-11.2-3.14-16.41-5.68-2.15,5.15-4.24,7.82-4.76,8.43l-3.76,3.5,1.19,87.01h141.63l1.19-86.66-3.85-3.94s-2.29-2.62-4.64-8.26Z"/>
        <path class="cls-1" d="M306.98,269.35c1.08,1.48,1.77,2.19,1.77,2.19l-.76,68.08h-115.98l-.76-68.08s.52-.53,1.36-1.63c3.51-4.64,12.64-19.41,12.52-47.73-.15-35.53-30.11-46.74-17.49-67.92,12.72-21.36,62.36-21.36,62.36-21.36,0,0,49.64,0,62.36,21.36,12.62,21.18-17.34,32.39-17.49,67.92-.12,27.27,8.35,41.98,12.11,47.17Z"/>
        <path class="cls-2" d="M212.5,333.4c-.3,1.07-1.35,1.74-2.32,2.3-2.25,1.3-4.51,2.61-6.77,3.92h-11.4l-.76-68.08s.52-.53,1.36-1.63c6.12,8.33,9.04,18.98,7.95,29.28-.49,4.62-1.75,9.22-1.39,13.86.49,6.37,4.23,12.4,9.72,15.68,1.83,1.09,4.19,2.62,3.61,4.67Z"/>
        <path class="cls-2" d="M308.75,271.54l-.76,68.08h-21.46c-.26-.48-.49-.96-.72-1.44-1.34-2.81-2.68-5.62-4.01-8.43,6.12.68,11.92-3.76,14.62-9.3,2.69-5.54,2.87-11.94,2.62-18.1-.25-6.15-.88-12.39.36-18.42,1.11-5.44,3.78-10.53,7.58-14.58,1.08,1.48,1.77,2.19,1.77,2.19Z"/>
        <path class="cls-1" d="M289.47,339.07s22.26-9.36,17.07-29.18-5.79-47.56,17.68-47.56c24.86,0,17.28,23.36,17.28,23.36,0,0-20.02-9.94-17.89,3.47s32.62,60.67-21.95,68.6l-12.2-18.68Z"/>
        <path class="cls-1" d="M210.53,339.07s-22.26-9.36-17.07-29.18,5.79-47.56-17.68-47.56c-24.86,0-17.28,23.36-17.28,23.36,0,0,20.02-9.94,17.89,3.47s-32.62,60.67,21.95,68.6l12.2-18.68Z"/>
        <path class="cls-12" d="M343.94,335.27c-2.08,11.52-10.05,22.33-19.82,28.53l-27.12-11.1c4.34-.16,11.12.23,15.32-.89,6.27-1.66,10.41-5.19,13.06-11.02,2.66-5.85,3.56-12.48,2.66-18.84-1.11-7.89-4.88-14.19-9.13-20.72-4.5-6.91-5.82-15.8-.96-22.86,2.06-3,5.07-5.41,8.57-6.46,3.49-1.04,7.47-.62,10.5,1.41,4.38,2.94,6.12,9.22,3.89,14-2.23,4.78-8.17,7.46-13.23,5.99.06.32.12.63.2.94,1.85,7.92,8.86,13.68,12.88,20.85,3.62,6.44,4.41,13.43,3.18,20.17Z"/>
        <path class="cls-6" d="M325.7,340c-.11.26-.21.53-.33.79-2.65,5.82-6.79,9.35-13.06,11.02-4.2,1.12-10.98.72-15.32.89l27.12,11.1c8.51-5.4,15.64-14.3,18.72-24.12-5.58,1.65-11.78,2.16-17.14.31Z"/>
        <path class="cls-12" d="M203,352.7l-27.12,11.1c-8.66-5.5-15.9-14.62-18.88-24.64-2.37-7.9-2.08-16.37,2.24-24.06,4.07-7.25,11.18-13.06,12.94-21.11.05-.22.1-.45.14-.68-5.06,1.47-11-1.21-13.23-5.99-2.23-4.78-.49-11.06,3.89-14,3.03-2.03,7.01-2.45,10.5-1.41,3.5,1.05,6.51,3.46,8.57,6.46,4.86,7.06,3.54,15.95-.96,22.86-4.25,6.53-8.02,12.83-9.13,20.72-.9,6.36,0,12.99,2.66,18.84,2.65,5.83,6.79,9.36,13.06,11.02,4.2,1.12,10.98.73,15.32.89Z"/>
        <path class="cls-5" d="M172.52,293.48c-.75,5.42-3.22,10.44-5.95,15.18-2.72,4.74-5.76,9.34-7.82,14.4-2.06,5.07-3.1,10.76-1.66,16.03l-.09.07c-2.37-7.9-2.08-16.37,2.24-24.06,4.07-7.25,11.18-13.06,12.94-21.11.12-.17.23-.34.34-.51Z"/>
        <path class="cls-6" d="M174.62,340.79c-.18-.41-.34-.82-.51-1.24-5.99,1.43-11.96,1.32-17.43-1.52,2.77,10.47,10.22,20.07,19.2,25.77l27.12-11.1c-4.34-.16-11.12.23-15.32-.89-6.27-1.67-10.41-5.2-13.06-11.02Z"/>
        <path class="cls-1" d="M308.83,354.02h-117.65l1.97-6.56c.5-1.67,1.13-3.27,1.86-4.79,4.97-10.29,15.01-16.96,26.18-16.96h57.65c11.9,0,22.52,7.58,27.08,19.02.36.89.68,1.8.96,2.73l1.97,6.56Z"/>
        <path class="cls-14" d="M199.7,337.16c-.19,0-.38-.05-.55-.17-.46-.31-.59-.93-.28-1.39,2.83-4.26,7.71-7.47,13.76-9.02,5.33-1.37,10.84-1.41,16.18-1.44l46.14-.29c4.21-.03,8.56-.05,12.8.93,3.4.79,8.11,2.6,11.23,6.74.33.44.24,1.07-.2,1.4-.44.33-1.07.24-1.4-.2-2.15-2.86-5.73-4.99-10.08-6-4.01-.93-8.24-.9-12.33-.88l-46.14.29c-5.21.03-10.6.07-15.69,1.38-5.56,1.43-10.03,4.34-12.59,8.19-.19.29-.51.45-.83.45Z"/>
        <path class="cls-2" d="M308.83,354.02h-117.65l1.97-6.56c.5-1.67,1.13-3.27,1.86-4.79,20.28,5.3,41.46,5.95,62.42,6.56,16.29.47,33.32.78,48.49-4.5.36.89.68,1.8.96,2.73l1.97,6.56Z"/>
        <path class="cls-12" d="M336.73,382.09c-.36,7.56-2.76,14.79-5.99,21.18-.01.03-.03.05-.04.08-4.02,7.9-9.5,15.16-14.25,22.63,2.8.21,5.49,1.61,7.27,3.78,1.6,1.95,2.5,4.56,2.51,7.1.01,3.05-1.25,6.01-4.13,7.6-2.77,1.53-6.28,1.42-9.12.02-2.83-1.4-4.99-3.98-6.2-6.9-1.44-3.49-1.6-7.37-1.33-11.13.4-5.67,1.75-11.25,3.93-16.49.89-2.13,1.33-4.3,2.26-6.4,1.08-2.44,1.96-4.98,2.34-7.64.55-3.85.04-7.91-1.36-11.39-.36-.91-.79-1.78-1.28-2.6-1.01-1.7-2.28-3.15-3.7-4.3-.84-.69-1.75-1.27-2.68-1.73-1.16-.57-2.37-.95-3.61-1.12h-102.7c-.65.09-1.29.24-1.93.44-.01.01-.03.01-.05.02-1.58.51-3.09,1.37-4.45,2.51-1.36,1.12-2.58,2.53-3.56,4.18-2.35,3.95-3.33,9.14-2.64,13.99.38,2.66,1.26,5.2,2.34,7.64.93,2.1,1.37,4.27,2.26,6.4,2.18,5.24,3.53,10.82,3.93,16.49.27,3.76.11,7.64-1.33,11.13-1.21,2.92-3.37,5.5-6.2,6.9-2.84,1.4-6.35,1.51-9.12-.02-2.14-1.19-3.4-3.13-3.89-5.31-.71-3.18.19-6.85,2.27-9.39,1.78-2.17,4.47-3.57,7.27-3.78-4.77-7.5-10.27-14.78-14.29-22.71-.69-1.36-1.34-2.75-1.93-4.18-2.23-5.29-3.78-11.04-4.06-17-.32-6.98,1.25-14.26,4.87-19.54.3-.44.61-.86.94-1.27,3.31-4.14,7.82-6.52,12.43-7.62,4.6-1.1,12.46-1.03,17.14-.87v-.09h102.7v.09c4.68-.16,12.54-.23,17.14.87,4.61,1.1,9.12,3.48,12.43,7.62.19.24.37.48.55.72,3.9,5.32,5.59,12.86,5.26,20.09Z"/>
        <path class="cls-5" d="M336.73,382.09c-.36,7.56-2.76,14.79-5.99,21.18-.01.03-.03.05-.04.08,3.53-12.97,1.62-27.41-5.41-38.9l6.18-2.45c3.9,5.32,5.59,12.86,5.26,20.09Z"/>
        <path class="cls-5" d="M166.21,388.36c.08,3.6.48,7.19,1.12,10.73-2.23-5.29-3.78-11.04-4.06-17-.32-6.98,1.25-14.26,4.87-19.54l2.29,4.33c-3.15,6.66-4.38,14.12-4.22,21.48Z"/>
        <path class="cls-6" d="M186.95,364.73c17.24-1.41,34.78-.54,52.07-.54h57.71c13.16,0,25.95.25,38.28,4.83-.96-2.88-2.31-5.52-4.08-7.73-3.31-4.14-7.83-6.52-12.43-7.62-4.6-1.1-12.46-1.03-17.14-.87v-.08h-102.71v.08c-4.68-.16-12.54-.23-17.14.87-4.6,1.1-9.12,3.47-12.43,7.62-1.82,2.26-3.19,4.99-4.15,7.95,6.96-2.49,14.39-3.88,22.03-4.5Z"/>
        <path class="cls-14" d="M193.93,346.75c-.15,0-.31-.04-.46-.11-.49-.25-.68-.86-.43-1.35l2.47-4.8c.25-.49.86-.68,1.35-.43.49.25.68.86.43,1.35l-2.47,4.8c-.18.34-.53.54-.89.54Z"/>
        <path class="cls-6" d="M307.64,377.63c-.84-.69-1.75-1.27-2.68-1.73l.6-.24c.74.62,1.43,1.28,2.08,1.97Z"/>
        <path class="cls-6" d="M326.23,436.86c.01,3.05-1.25,6.01-4.13,7.6-2.77,1.53-6.28,1.42-9.12.02-2.83-1.4-4.99-3.98-6.2-6.9-1.44-3.49-1.6-7.37-1.33-11.13.4-5.67,1.75-11.25,3.93-16.49.89-2.13,1.33-4.3,2.26-6.4,1.08-2.44,1.96-4.98,2.34-7.64.55-3.85.04-7.91-1.36-11.39,2.34,4.36,3.76,9.27,4.3,14.2.95,8.73-.62,17.55-3.04,25.99-.7,2.43-1.48,4.88-1.49,7.41-.01,2.53.88,5.2,2.93,6.69,2.54,1.84,6.21,1.35,8.86-.34.74-.47,1.42-1.02,2.05-1.62Z"/>
        <path class="cls-6" d="M194.55,426.45c.27,3.76.11,7.64-1.33,11.13-1.21,2.92-3.37,5.5-6.2,6.9-2.84,1.4-6.35,1.51-9.12-.02-2.14-1.19-3.4-3.13-3.89-5.31,1.66,1.8,4.54,2.62,6.95,1.85,3.41-1.09,5.65-4.57,6.12-8.12.48-3.54-.54-7.12-1.94-10.42-1.4-3.29-3.18-6.41-4.38-9.78-2.5-7.03-2.26-14.99.66-21.85,2.25-5.28,6.06-9.86,10.8-13.08-1.36,1.12-2.58,2.53-3.56,4.18-2.35,3.95-3.33,9.14-2.64,13.99.38,2.66,1.26,5.2,2.34,7.64.93,2.1,1.37,4.27,2.26,6.4,2.18,5.24,3.53,10.82,3.93,16.49Z"/>
        <path class="cls-6" d="M196.71,375.22h.01s-.03.01-.05.02c0-.01.03-.01.04-.02Z"/>
        <path class="cls-5" d="M177.81,430.56c-.92.83-1.26,2.43-.38,3.3.64.63,1.71.66,2.53.26,1.14-.55,3.23-2.82,2.28-4.19s-3.54-.18-4.42.63Z"/>
        <path class="cls-5" d="M318.08,431.56c.03.76.29,1.53.83,2.06s1.38.79,2.09.53c.91-.34,1.36-1.45,1.17-2.39-.51-2.56-4.24-3.51-4.09-.19Z"/>
        <path class="cls-5" d="M159.56,318.76c-.92,1.32-1.34,2.97-1.17,4.57.1.96.44,1.93,1.16,2.58,1.3,1.18,3.5.85,4.79-.34,1.29-1.19,1.84-2.99,2.04-4.74.21-1.77-.21-4.39-2.41-4.73-1.64-.26-3.55,1.42-4.41,2.66Z"/>
        <path class="cls-5" d="M340.77,318.76c.92,1.32,1.34,2.97,1.17,4.57-.1.96-.44,1.93-1.16,2.58-1.3,1.18-3.5.85-4.79-.34-1.29-1.19-1.84-2.99-2.04-4.74-.21-1.77.21-4.39,2.41-4.73,1.64-.26,3.55,1.42,4.41,2.66Z"/>
        <path class="cls-5" d="M343.94,335.27c.02-6.45-1.76-12.9-5.15-18.39-2.28-3.7-5.25-6.95-7.6-10.61-2.36-3.66-4.11-7.97-3.55-12.29l.24.27c1.85,7.92,8.86,13.68,12.88,20.85,3.62,6.44,4.41,13.43,3.18,20.17Z"/>
        <path class="cls-5" d="M323.86,146.79c.49.83.94,1.66,1.36,2.47-5.32-9.41-22.48-27.07-76.29-27.07-67.09,0-76.27,31.17-77.35,36.5.68-3.79,2.11-7.77,4.56-11.9,7.31-12.33,22.42-20.78,44.92-25.09,15.09-2.9,28.38-2.93,28.94-2.93s13.85.03,28.94,2.93c22.5,4.31,37.61,12.76,44.92,25.09Z"/>
        <path class="cls-5" d="M171.51,159.05c.02-.1.04-.22.07-.36-.02.12-.05.24-.07.36Z"/>
        <path class="cls-5" d="M206,130.59c.62.98,1.91,1.25,3.07,1.35,4,.34,8.09-.38,11.74-2.07.92-.43,1.83-.93,2.46-1.72s.91-1.93.46-2.84c-1.46-2.92-8.08-2.13-10.61-1.22-2.22.8-9.32,3.01-7.12,6.5Z"/>
        <g>
          <path class="cls-2" d="M232.24,232.15c-.17,1.24-.11,2.58.54,3.65,1.03,1.72,3.5,2.3,5.29,1.38s2.76-3.09,2.46-5.07c-.87-5.76-7.51-5.76-8.28.03Z"/>
          <path class="cls-2" d="M259.51,232.15c-.17,1.24-.11,2.58.54,3.65,1.03,1.72,3.5,2.3,5.29,1.38s2.76-3.09,2.46-5.07c-.87-5.76-7.51-5.76-8.28.03Z"/>
        </g>
        <g>
          <path class="cls-2" d="M232.24,163.4c-.17,1.24-.11,2.58.54,3.65,1.03,1.72,3.5,2.3,5.29,1.38,1.78-.91,2.76-3.09,2.46-5.07-.87-5.76-7.51-5.76-8.28.03Z"/>
          <path class="cls-2" d="M259.51,163.4c-.17,1.24-.11,2.58.54,3.65,1.03,1.72,3.5,2.3,5.29,1.38,1.78-.91,2.76-3.09,2.46-5.07-.87-5.76-7.51-5.76-8.28.03Z"/>
        </g>
        <g>
          <path class="cls-2" d="M232.24,300.9c-.17,1.24-.11,2.58.54,3.65,1.03,1.72,3.5,2.3,5.29,1.38,1.78-.91,2.76-3.09,2.46-5.07-.87-5.76-7.51-5.76-8.28.03Z"/>
          <path class="cls-2" d="M259.51,300.9c-.17,1.24-.11,2.58.54,3.65,1.03,1.72,3.5,2.3,5.29,1.38,1.78-.91,2.76-3.09,2.46-5.07-.87-5.76-7.51-5.76-8.28.03Z"/>
        </g>
        <g>
          <path class="cls-2" d="M218.6,266.53c-.17,1.24-.11,2.58.54,3.65,1.03,1.72,3.5,2.3,5.29,1.38s2.76-3.09,2.46-5.07c-.87-5.76-7.51-5.76-8.28.03Z"/>
          <path class="cls-2" d="M245.87,266.53c-.17,1.24-.11,2.58.54,3.65,1.03,1.72,3.5,2.3,5.29,1.38s2.76-3.09,2.46-5.07c-.87-5.76-7.51-5.76-8.28.03Z"/>
          <path class="cls-2" d="M273.14,266.53c-.17,1.24-.11,2.58.54,3.65,1.03,1.72,3.5,2.3,5.29,1.38s2.76-3.09,2.46-5.07c-.87-5.76-7.51-5.76-8.28.03Z"/>
        </g>
        <g>
          <path class="cls-2" d="M218.6,197.78c-.17,1.24-.11,2.58.54,3.65,1.03,1.72,3.5,2.3,5.29,1.38,1.78-.91,2.76-3.09,2.46-5.07-.87-5.76-7.51-5.76-8.28.03Z"/>
          <path class="cls-2" d="M245.87,197.78c-.17,1.24-.11,2.58.54,3.65,1.03,1.72,3.5,2.3,5.29,1.38,1.78-.91,2.76-3.09,2.46-5.07-.87-5.76-7.51-5.76-8.28.03Z"/>
          <path class="cls-2" d="M273.14,197.78c-.17,1.24-.11,2.58.54,3.65,1.03,1.72,3.5,2.3,5.29,1.38,1.78-.91,2.76-3.09,2.46-5.07-.87-5.76-7.51-5.76-8.28.03Z"/>
        </g>
        <g>
          <path class="cls-3" d="M194.04,273.53c-.35,0-.7-.19-.88-.52-2.05-3.75-5.36-6.7-9.31-8.32-.51-.21-.76-.79-.55-1.3.21-.51.8-.75,1.3-.55,4.38,1.79,8.04,5.06,10.31,9.21.27.48.09,1.09-.4,1.36-.15.08-.32.12-.48.12Z"/>
          <path class="cls-3" d="M307.36,273.65c-.13,0-.27-.03-.4-.08-.51-.22-.74-.81-.52-1.32,1.53-3.52,4.12-6.65,7.28-8.82.46-.31,1.08-.19,1.39.26.31.46.19,1.08-.26,1.39-2.86,1.96-5.2,4.78-6.58,7.96-.16.38-.53.6-.92.6Z"/>
          <path class="cls-3" d="M293.06,354.07h0c-.76,0-76.16-.36-97.27-.36s-24.25-18.91-24.27-19.1c-.06-.55.34-1.04.89-1.1.55-.06,1.04.34,1.1.89.08.71,2.12,17.31,22.28,17.31s96.52.35,97.28.36c.55,0,1,.45,1,1,0,.55-.45,1-1,1Z"/>
          <path class="cls-3" d="M297.38,354.17c-2.47,0-4.15-.09-4.38-.1-.55-.03-.97-.5-.94-1.05.03-.55.51-.97,1.05-.94.2.01,20.54,1.07,27.12-4.49,6.14-5.2,10.16-17.89,5.49-31.18-1.47-4.19-3.58-8-5.62-11.68-4.2-7.58-8.17-14.74-5.01-23.05.2-.52.78-.78,1.29-.58.52.2.78.77.58,1.29-2.83,7.44.75,13.9,4.89,21.37,2.08,3.76,4.23,7.64,5.76,11.99,4.35,12.41,1.73,26.75-6.09,33.37-5.23,4.43-17.52,5.06-24.14,5.06Z"/>
          <path class="cls-3" d="M317.91,279.69c-.23,0-.46-.08-.65-.24-.42-.36-.47-.99-.11-1.41l2.05-2.39c.36-.42.99-.47,1.41-.11.42.36.47.99.11,1.41l-2.05,2.39c-.2.23-.48.35-.76.35Z"/>
          <path class="cls-3" d="M173.35,318.1c-.12,0-.25-.02-.37-.07-.51-.21-.76-.79-.55-1.3,1.37-3.4,3.25-6.59,5.06-9.68.67-1.15,1.35-2.3,2-3.46,2.15-3.83,4.4-8.43,4.8-13.42.41-5.06-1.4-9.8-4.72-12.38-.44-.34-.51-.97-.17-1.4.34-.44.97-.51,1.4-.17,3.84,2.99,5.94,8.4,5.48,14.12-.43,5.41-2.93,10.45-5.05,14.24-.66,1.17-1.34,2.33-2.02,3.49-1.78,3.02-3.61,6.15-4.93,9.41-.16.39-.53.63-.93.63Z"/>
          <path class="cls-3" d="M325.76,292.35c-.38,0-.75-.22-.91-.59-1.38-3.09-1.08-6.92.76-9.76.92-1.42,2.1-2.43,3.41-2.9,1.67-.61,3.51-.3,4.7.79,1.41,1.3,1.6,3.55.42,4.91-.36.42-.99.46-1.41.1-.42-.36-.46-.99-.1-1.41.47-.54.34-1.58-.26-2.13-.63-.58-1.7-.73-2.66-.39-1.14.41-1.94,1.38-2.42,2.11-1.48,2.29-1.72,5.37-.61,7.86.23.5,0,1.1-.51,1.32-.13.06-.27.09-.41.09Z"/>
          <path class="cls-3" d="M174.68,291.54c-.16,0-.32-.04-.47-.12-.49-.26-.67-.86-.42-1.35,1.27-2.39.86-5.57-.97-7.57-.81-.88-1.76-1.41-2.69-1.49-.96-.09-1.91.38-2.26,1.11-.17.35-.18.81-.02,1.22.08.19.26.53.61.66.52.19.78.77.58,1.29-.19.52-.77.78-1.29.58-.8-.3-1.43-.94-1.77-1.8-.37-.92-.34-1.98.08-2.83.72-1.47,2.46-2.38,4.24-2.23,1.43.13,2.84.88,3.99,2.13,2.38,2.6,2.91,6.74,1.26,9.86-.18.34-.53.53-.88.53Z"/>
          <path class="cls-3" d="M203.37,240.58c-.06,0-.12,0-.18-.02-.54-.1-.91-.62-.81-1.16,3.6-20.37-1.02-41.85-12.7-58.93-.37-.54-.74-1.07-1.12-1.61-2.15-3.07-4.37-6.24-5.3-9.98-1.07-4.28-.3-9.24,2.1-13.6,2.01-3.65,5.16-7.01,9.35-9.97.45-.32,1.08-.21,1.39.24.32.45.21,1.08-.24,1.39-3.95,2.79-6.89,5.92-8.76,9.31-2.16,3.92-2.86,8.35-1.91,12.15.84,3.38,2.96,6.4,5,9.32.38.54.76,1.08,1.13,1.63,11.97,17.51,16.71,39.53,13.02,60.41-.09.48-.51.83-.98.83Z"/>
          <path class="cls-3" d="M201.97,247.26c-.1,0-.19-.01-.29-.04-.53-.16-.83-.72-.67-1.25l.83-2.77c.16-.53.72-.83,1.25-.67.53.16.83.72.67,1.25l-.83,2.77c-.13.43-.53.71-.96.71Z"/>
          <path class="cls-3" d="M303.52,146.03c-.13,0-.26-.03-.39-.08-23.26-9.94-48.82-13.45-73.9-10.16-.55.07-1.05-.31-1.12-.86-.07-.55.31-1.05.86-1.12,25.44-3.34,51.35.23,74.95,10.31.51.22.74.8.53,1.31-.16.38-.53.61-.92.61Z"/>
          <path class="cls-3" d="M305.54,187.95c-.22,0-.43-.07-.61-.21-.44-.34-.51-.97-.17-1.4,3.77-4.84,8.24-11.37,9.31-18.92,1.05-7.43-1.99-14.85-7.39-18.06-.47-.28-.63-.9-.35-1.37.28-.48.9-.63,1.37-.35,7.13,4.23,9.33,13.12,8.35,20.06-1.13,8.03-5.79,14.84-9.71,19.88-.2.25-.49.39-.79.39Z"/>
          <path class="cls-3" d="M301.64,195.81c-.14,0-.29-.03-.43-.1-.5-.24-.71-.83-.47-1.33l1.74-3.63c.24-.5.84-.71,1.33-.47.5.24.71.84.47,1.33l-1.74,3.63c-.17.36-.53.57-.9.57Z"/>
          <path class="cls-3" d="M307.85,271.61c-.31,0-.62-.14-.81-.41-7.65-10.56-12.02-23.56-12.3-36.59-.01-.55.43-1.01.98-1.02.58.03,1.01.43,1.02.98.27,12.63,4.5,25.23,11.92,35.46.32.45.22,1.07-.22,1.4-.18.13-.38.19-.59.19Z"/>
        </g>
      </g>
    </g>
  </g>
  <g>
    <path class="cls-13" d="M88.45,635.35c-.47,0-.84-.14-1.11-.43-.27-.29-.41-.73-.41-1.32s.14-1.03.41-1.32c.27-.29.64-.43,1.11-.43h14.2c.47,0,.84.14,1.11.43.27.29.41.73.41,1.32s-.14,1.03-.41,1.32c-.27.29-.64.43-1.11.43h-4.92v16.22c0,.62-.18,1.09-.53,1.42-.36.33-.9.5-1.65.5s-1.29-.17-1.65-.5c-.36-.33-.53-.81-.53-1.42v-16.22h-4.92Z"/>
    <path class="cls-13" d="M106.53,632.1c0-.59.17-1.05.52-1.38.35-.33.88-.49,1.6-.49s1.25.16,1.6.49c.35.33.52.79.52,1.38v4.7c0,.41-.01.8-.03,1.18-.02.38-.06.79-.11,1.23h.05c.3-.38.67-.71,1.11-1,.19-.12.4-.25.63-.37.23-.12.49-.23.78-.33.29-.1.6-.18.93-.23.33-.06.7-.09,1.09-.09.92,0,1.74.14,2.48.42.74.28,1.37.7,1.89,1.25.52.55.92,1.23,1.2,2.04.28.81.41,1.74.41,2.79v7.92c0,.59-.17,1.05-.52,1.38-.35.33-.88.49-1.6.49s-1.25-.16-1.6-.49c-.35-.33-.52-.79-.52-1.38v-7.42c0-.63-.07-1.18-.2-1.64-.13-.46-.32-.83-.56-1.12-.25-.29-.54-.5-.9-.64-.35-.13-.76-.2-1.2-.2-.28,0-.54.03-.78.1-.24.07-.47.15-.68.26-.21.1-.41.23-.58.37s-.33.28-.46.41c-.33.34-.61.72-.83,1.14v8.75c0,.59-.17,1.05-.52,1.38-.35.33-.88.49-1.6.49s-1.25-.16-1.6-.49c-.35-.33-.52-.79-.52-1.38v-19.52Z"/>
    <path class="cls-13" d="M128.92,646.32v.03c.06.65.21,1.22.44,1.72.23.5.53.92.91,1.27.38.34.84.6,1.37.78.53.18,1.12.27,1.78.27.54,0,1.01-.04,1.4-.11.39-.07.73-.15,1.02-.24.29-.09.55-.17.77-.24.22-.07.43-.11.63-.11s.38.04.53.11c.16.07.29.17.4.29.11.12.19.26.25.41.06.16.09.32.09.5,0,.26-.04.49-.12.68-.08.19-.22.38-.41.57-.16.16-.39.32-.69.49-.3.17-.67.33-1.12.47-.44.14-.96.26-1.55.35-.59.09-1.24.14-1.96.14-1.24,0-2.35-.18-3.34-.54-.99-.36-1.83-.88-2.52-1.55s-1.21-1.48-1.58-2.44c-.37-.95-.55-2.02-.55-3.21,0-1.38.2-2.62.59-3.71.39-1.09.93-2.01,1.63-2.76.7-.75,1.53-1.32,2.51-1.72.97-.4,2.04-.59,3.21-.59,1,0,1.91.16,2.72.47s1.5.76,2.08,1.35c.57.59,1.02,1.3,1.33,2.15s.47,1.8.47,2.88c0,.78-.18,1.36-.54,1.73s-.87.56-1.54.56h-8.22ZM135.27,643.6c-.14-1.17-.45-2.03-.95-2.58-.5-.55-1.2-.83-2.1-.83-.38,0-.73.07-1.08.2-.34.13-.66.33-.95.61-.29.28-.53.63-.74,1.05-.21.43-.37.94-.48,1.55h6.3Z"/>
    <path class="cls-13" d="M162.7,649.88c.47,0,.84.14,1.12.43.28.29.41.73.41,1.32s-.14,1.03-.41,1.32c-.27.29-.65.43-1.12.43h-9.33c-.64,0-1.12-.17-1.47-.52-.34-.35-.52-.84-.52-1.46v-17.73c0-.61.18-1.09.53-1.42.35-.33.9-.5,1.64-.5s1.3.17,1.66.5c.35.33.53.81.53,1.42v16.22h6.95Z"/>
    <path class="cls-13" d="M165.64,645.71c0-1.33.19-2.53.58-3.59.38-1.06.94-1.95,1.66-2.69.72-.73,1.6-1.29,2.63-1.68,1.03-.38,2.19-.58,3.48-.58,1.2,0,2.28.19,3.26.57.97.38,1.81.92,2.51,1.62.7.7,1.24,1.54,1.62,2.52.38.98.57,2.08.57,3.27,0,1.33-.19,2.53-.58,3.59-.39,1.06-.94,1.95-1.66,2.69s-1.59,1.29-2.62,1.68-2.19.58-3.48.58c-1.2,0-2.29-.19-3.27-.57-.98-.38-1.82-.92-2.52-1.62-.7-.7-1.24-1.54-1.62-2.52-.38-.98-.57-2.07-.57-3.28ZM169.97,645.4c0,.83.1,1.56.3,2.19s.48,1.15.83,1.57c.35.42.76.74,1.23.95.47.21.97.32,1.52.32s1.03-.1,1.49-.31c.46-.21.87-.52,1.21-.93.34-.41.61-.93.8-1.55.19-.62.29-1.35.29-2.18s-.1-1.55-.3-2.17-.48-1.15-.83-1.57c-.35-.42-.76-.74-1.23-.95-.47-.21-.97-.32-1.5-.32s-1.04.1-1.51.31c-.46.21-.87.52-1.21.93-.34.41-.61.93-.8,1.55-.19.62-.29,1.34-.29,2.16Z"/>
    <path class="cls-13" d="M185.58,639.1c0-.57.15-1.01.45-1.31s.74-.45,1.31-.45c.28,0,.53.03.74.1.21.07.4.17.55.3.16.13.28.29.38.48s.16.4.19.62l.12.8h.06c.3-.46.68-.86,1.14-1.22.2-.16.42-.31.67-.45.25-.15.53-.28.84-.39.31-.11.65-.21,1.02-.27.37-.07.77-.1,1.21-.1.92,0,1.74.14,2.48.42.74.28,1.37.7,1.89,1.25.52.55.92,1.23,1.2,2.04.28.81.41,1.74.41,2.79v7.92c0,.59-.17,1.05-.52,1.38-.35.33-.88.49-1.6.49s-1.25-.16-1.6-.49c-.35-.33-.52-.79-.52-1.38v-7.42c0-.63-.07-1.18-.2-1.64-.13-.46-.32-.83-.56-1.12-.25-.29-.54-.5-.9-.64-.35-.13-.76-.2-1.2-.2-.28,0-.54.03-.78.1-.24.07-.47.15-.68.26-.21.1-.41.23-.58.37s-.33.28-.46.41c-.33.34-.61.72-.83,1.14v8.75c0,.59-.17,1.05-.52,1.38-.35.33-.88.49-1.6.49s-1.25-.16-1.6-.49c-.35-.33-.52-.79-.52-1.38v-12.52Z"/>
    <path class="cls-13" d="M207.97,646.32v.03c.06.65.21,1.22.44,1.72.23.5.53.92.91,1.27.38.34.84.6,1.37.78.53.18,1.12.27,1.78.27.54,0,1.01-.04,1.4-.11.39-.07.73-.15,1.02-.24.29-.09.55-.17.77-.24.22-.07.43-.11.63-.11s.38.04.53.11c.16.07.29.17.4.29.11.12.19.26.25.41.06.16.09.32.09.5,0,.26-.04.49-.12.68-.08.19-.22.38-.41.57-.16.16-.39.32-.69.49-.3.17-.67.33-1.12.47-.44.14-.96.26-1.55.35-.59.09-1.24.14-1.96.14-1.24,0-2.35-.18-3.34-.54-.99-.36-1.83-.88-2.52-1.55s-1.21-1.48-1.58-2.44c-.37-.95-.55-2.02-.55-3.21,0-1.38.2-2.62.59-3.71.39-1.09.93-2.01,1.63-2.76.7-.75,1.53-1.32,2.51-1.72.97-.4,2.04-.59,3.21-.59,1,0,1.91.16,2.72.47s1.5.76,2.08,1.35c.57.59,1.02,1.3,1.33,2.15s.47,1.8.47,2.88c0,.78-.18,1.36-.54,1.73s-.87.56-1.54.56h-8.22ZM214.31,643.6c-.14-1.17-.45-2.03-.95-2.58-.5-.55-1.2-.83-2.1-.83-.38,0-.73.07-1.08.2-.34.13-.66.33-.95.61-.29.28-.53.63-.74,1.05-.21.43-.37.94-.48,1.55h6.3Z"/>
    <path class="cls-13" d="M221.88,632.1c0-.59.17-1.05.52-1.38.35-.33.88-.49,1.6-.49s1.25.16,1.6.49c.35.33.52.79.52,1.38v16.08c0,.41.03.75.08,1.02.05.27.13.48.23.64.1.16.22.27.35.33.13.06.29.09.45.09.15,0,.28,0,.39-.02.11-.02.23-.02.34-.02.13,0,.27.03.39.08.12.05.23.13.33.23.09.1.17.23.23.38.06.15.09.33.09.52,0,.3-.04.56-.13.77-.09.21-.21.39-.37.55-.1.1-.23.2-.38.3-.15.09-.32.18-.52.26s-.45.14-.73.19-.6.07-.97.07c-1.32,0-2.33-.35-3.01-1.05-.68-.7-1.02-1.77-1.02-3.2v-17.2Z"/>
    <path class="cls-13" d="M230,640.57c-.14-.36-.22-.63-.26-.8-.04-.17-.05-.33-.05-.48,0-.31.07-.59.22-.83.15-.24.33-.44.56-.61.23-.17.48-.29.76-.38.28-.09.55-.13.82-.13.3,0,.55.05.76.14.2.09.38.22.52.38.15.15.26.32.34.53.08.21.18.5.3.86l2.75,8.23c.1.3.2.6.28.89.08.29.15.55.2.78.06.27.12.53.17.77h.06c.06-.24.12-.49.19-.77.05-.23.12-.49.2-.78.08-.29.17-.59.27-.89l2.71-8.33c.1-.31.2-.58.28-.79.08-.21.19-.39.33-.54.15-.16.33-.28.54-.36.21-.08.47-.12.76-.12.26,0,.52.04.79.12.27.08.51.19.72.34.21.15.39.34.52.56.13.22.2.48.2.77,0,.15-.02.3-.05.45-.04.16-.11.4-.23.72l-4.05,10.94c-.64,1.71-1.29,3.17-1.97,4.4-.68,1.22-1.4,2.23-2.17,3.01s-1.61,1.36-2.51,1.73c-.9.37-1.89.55-2.98.55-.55,0-1.03-.07-1.43-.2-.4-.13-.72-.32-.95-.55-.34-.34-.52-.78-.52-1.3,0-.44.13-.78.39-1.04.26-.26.61-.38,1.06-.38.15,0,.28,0,.4.02.12,0,.23.02.34.04s.22.03.34.04c.11,0,.24.02.39.02.42,0,.81-.07,1.18-.22.37-.15.71-.36,1.04-.64.32-.28.63-.63.91-1.05s.56-.91.82-1.47l-4.96-13.62Z"/>
    <path class="cls-13" d="M257.34,634.71c.05-.5.15-.92.29-1.27.14-.35.33-.64.57-.88.25-.25.59-.45,1.01-.59.42-.15.94-.22,1.55-.22.52,0,.97.06,1.34.17.37.12.7.29.97.52.27.23.5.51.68.84.18.33.34.7.46,1.12l3.5,11.59c.11.39.22.76.31,1.12s.17.67.23.95c.07.32.14.62.2.91h.06c.06-.28.13-.58.2-.91.06-.27.14-.58.23-.94.09-.35.19-.72.3-1.11l3.52-11.59c.12-.43.28-.8.46-1.13.18-.33.41-.61.68-.84.27-.23.59-.4.96-.52.37-.11.82-.17,1.34-.17.59,0,1.09.07,1.5.21s.73.34.99.59c.25.25.44.55.58.9.14.35.23.77.28,1.27l1.72,16.2c.02.21.04.38.05.51,0,.13.02.25.02.37,0,.26-.06.5-.18.71-.12.21-.28.4-.48.55s-.44.28-.72.36c-.28.08-.58.12-.9.12s-.61-.05-.9-.15c-.29-.1-.52-.24-.7-.41-.21-.21-.34-.46-.4-.74-.06-.29-.1-.61-.13-.98l-1.04-11.77c-.04-.43-.07-.84-.08-1.23-.01-.39-.02-.74-.02-1.04,0-.35,0-.69.02-1h-.06l-4.38,14.56c-.15.47-.3.88-.45,1.22s-.34.62-.55.83c-.24.24-.52.41-.85.51s-.72.15-1.16.15-.85-.05-1.19-.15c-.33-.1-.62-.27-.86-.51-.21-.21-.39-.49-.54-.84-.15-.35-.3-.75-.45-1.21l-4.39-14.58h-.06c0,.31,0,.64-.02.98,0,.3-.03.65-.05,1.04-.02.39-.05.8-.08,1.24l-.96,11.78c-.03.37-.08.69-.13.98-.06.29-.2.54-.41.76-.18.18-.4.31-.66.41s-.55.14-.85.14-.57-.04-.84-.12-.5-.19-.7-.33c-.2-.14-.35-.31-.47-.52-.12-.21-.17-.44-.17-.7,0-.12,0-.25.02-.39.02-.13.03-.31.05-.53l1.72-16.23Z"/>
    <path class="cls-13" d="M284.95,632.8c0-.34.06-.66.19-.96s.3-.55.52-.77c.22-.22.49-.39.81-.52.32-.12.67-.19,1.05-.19.36,0,.7.06,1.01.19.31.12.57.29.8.51.22.21.4.46.52.75.12.29.19.6.19.93s-.06.66-.19.96-.3.55-.53.77c-.23.22-.5.39-.81.52s-.66.19-1.05.19-.7-.06-1.01-.19c-.31-.12-.57-.29-.8-.51-.22-.21-.4-.46-.52-.75-.12-.29-.19-.6-.19-.93ZM285.38,639.26c0-.59.17-1.05.52-1.38.35-.33.88-.49,1.6-.49s1.25.16,1.6.49c.35.33.52.79.52,1.38v12.36c0,.59-.17,1.05-.52,1.38-.35.33-.88.49-1.6.49s-1.25-.16-1.6-.49c-.35-.33-.52-.79-.52-1.38v-12.36Z"/>
    <path class="cls-13" d="M294.14,632.1c0-.59.17-1.05.52-1.38.35-.33.88-.49,1.6-.49s1.25.16,1.6.49c.35.33.52.79.52,1.38v16.08c0,.41.03.75.08,1.02.05.27.13.48.23.64.1.16.22.27.35.33.13.06.29.09.45.09.15,0,.28,0,.39-.02.11-.02.23-.02.34-.02.13,0,.27.03.39.08.12.05.23.13.33.23.09.1.17.23.23.38.06.15.09.33.09.52,0,.3-.04.56-.13.77-.09.21-.21.39-.37.55-.1.1-.23.2-.38.3-.15.09-.32.18-.52.26s-.45.14-.73.19-.6.07-.97.07c-1.32,0-2.33-.35-3.01-1.05-.68-.7-1.02-1.77-1.02-3.2v-17.2Z"/>
    <path class="cls-13" d="M303.72,632.1c0-.59.17-1.05.52-1.38.35-.33.88-.49,1.6-.49s1.25.16,1.6.49c.35.33.52.79.52,1.38v16.08c0,.41.03.75.08,1.02.05.27.13.48.23.64.1.16.22.27.35.33.13.06.29.09.45.09.15,0,.28,0,.39-.02.11-.02.23-.02.34-.02.13,0,.27.03.39.08.12.05.23.13.33.23.09.1.17.23.23.38.06.15.09.33.09.52,0,.3-.04.56-.13.77-.09.21-.21.39-.37.55-.1.1-.23.2-.38.3-.15.09-.32.18-.52.26s-.45.14-.73.19-.6.07-.97.07c-1.32,0-2.33-.35-3.01-1.05-.68-.7-1.02-1.77-1.02-3.2v-17.2Z"/>
    <path class="cls-13" d="M312.94,632.8c0-.34.06-.66.19-.96s.3-.55.52-.77c.22-.22.49-.39.81-.52.32-.12.67-.19,1.05-.19.36,0,.7.06,1.01.19.31.12.57.29.8.51.22.21.4.46.52.75.12.29.19.6.19.93s-.06.66-.19.96-.3.55-.53.77c-.23.22-.5.39-.81.52s-.66.19-1.05.19-.7-.06-1.01-.19c-.31-.12-.57-.29-.8-.51-.22-.21-.4-.46-.52-.75-.12-.29-.19-.6-.19-.93ZM313.36,639.26c0-.59.17-1.05.52-1.38.35-.33.88-.49,1.6-.49s1.25.16,1.6.49c.35.33.52.79.52,1.38v12.36c0,.59-.17,1.05-.52,1.38-.35.33-.88.49-1.6.49s-1.25-.16-1.6-.49c-.35-.33-.52-.79-.52-1.38v-12.36Z"/>
    <path class="cls-13" d="M321.2,645.71c0-1.33.19-2.53.58-3.59.38-1.06.94-1.95,1.66-2.69.72-.73,1.6-1.29,2.63-1.68,1.03-.38,2.19-.58,3.48-.58,1.2,0,2.28.19,3.26.57.97.38,1.81.92,2.51,1.62.7.7,1.24,1.54,1.62,2.52.38.98.57,2.08.57,3.27,0,1.33-.19,2.53-.58,3.59-.39,1.06-.94,1.95-1.66,2.69s-1.59,1.29-2.62,1.68-2.19.58-3.48.58c-1.2,0-2.29-.19-3.27-.57-.98-.38-1.82-.92-2.52-1.62-.7-.7-1.24-1.54-1.62-2.52-.38-.98-.57-2.07-.57-3.28ZM325.53,645.4c0,.83.1,1.56.3,2.19s.48,1.15.83,1.57c.35.42.76.74,1.23.95.47.21.97.32,1.52.32s1.03-.1,1.49-.31c.46-.21.87-.52,1.21-.93.34-.41.61-.93.8-1.55.19-.62.29-1.35.29-2.18s-.1-1.55-.3-2.17-.48-1.15-.83-1.57c-.35-.42-.76-.74-1.23-.95-.47-.21-.97-.32-1.5-.32s-1.04.1-1.51.31c-.46.21-.87.52-1.21.93-.34.41-.61.93-.8,1.55-.19.62-.29,1.34-.29,2.16Z"/>
    <path class="cls-13" d="M341.14,639.1c0-.57.15-1.01.45-1.31s.74-.45,1.31-.45c.28,0,.53.03.74.1.21.07.4.17.55.3.16.13.28.29.38.48s.16.4.19.62l.12.8h.06c.3-.46.68-.86,1.14-1.22.2-.16.42-.31.67-.45.25-.15.53-.28.84-.39.31-.11.65-.21,1.02-.27.37-.07.77-.1,1.21-.1.92,0,1.74.14,2.48.42.74.28,1.37.7,1.89,1.25.52.55.92,1.23,1.2,2.04.28.81.41,1.74.41,2.79v7.92c0,.59-.17,1.05-.52,1.38-.35.33-.88.49-1.6.49s-1.25-.16-1.6-.49c-.35-.33-.52-.79-.52-1.38v-7.42c0-.63-.07-1.18-.2-1.64-.13-.46-.32-.83-.56-1.12-.25-.29-.54-.5-.9-.64-.35-.13-.76-.2-1.2-.2-.28,0-.54.03-.78.1-.24.07-.47.15-.68.26-.21.1-.41.23-.58.37s-.33.28-.46.41c-.33.34-.61.72-.83,1.14v8.75c0,.59-.17,1.05-.52,1.38-.35.33-.88.49-1.6.49s-1.25-.16-1.6-.49c-.35-.33-.52-.79-.52-1.38v-12.52Z"/>
    <path class="cls-13" d="M369.16,643.23c0-.5-.06-.92-.17-1.28-.12-.35-.3-.64-.55-.86-.26-.22-.59-.39-1.02-.5-.42-.11-.94-.16-1.54-.16-.65,0-1.2.05-1.65.14s-.85.2-1.18.32c-.33.12-.62.23-.87.32-.25.09-.48.14-.7.14-.38,0-.69-.12-.93-.36-.25-.24-.37-.59-.37-1.05,0-.24.04-.45.11-.62.07-.18.2-.35.38-.53.17-.17.43-.34.8-.53.37-.19.82-.36,1.34-.52.53-.16,1.13-.29,1.8-.39.68-.1,1.41-.16,2.2-.16,2.18,0,3.81.47,4.91,1.41,1.09.94,1.64,2.32,1.64,4.12v5.11c0,.71.03,1.28.09,1.72.06.44.12.8.18,1.09.06.29.12.53.18.73.06.19.09.4.09.62s-.04.42-.12.61c-.08.19-.2.35-.36.49s-.35.25-.59.33-.5.12-.8.12c-.32,0-.61-.05-.87-.15-.26-.1-.48-.24-.67-.41-.19-.18-.35-.39-.48-.63-.13-.24-.24-.51-.32-.8h-.05c-.32.41-.71.77-1.17,1.08-.4.27-.89.52-1.49.73-.6.22-1.3.33-2.12.33-.87,0-1.64-.12-2.32-.37-.68-.25-1.26-.58-1.73-1.02-.47-.43-.84-.95-1.09-1.54s-.38-1.24-.38-1.94c0-.75.17-1.41.5-1.99.33-.57.8-1.05,1.41-1.43.6-.38,1.33-.67,2.19-.86.85-.19,1.81-.29,2.86-.29.44,0,.83.02,1.18.05.35.03.65.06.9.09.29.04.55.09.78.14v-1.29ZM369.16,647.26c-.21-.05-.44-.1-.69-.14-.22-.04-.47-.08-.77-.11-.29-.03-.62-.05-.98-.05-1.04,0-1.82.15-2.32.44-.51.29-.76.72-.76,1.28,0,.27.05.52.16.75.1.23.25.43.45.59.2.17.44.3.73.4.29.1.63.15,1.02.15.5,0,.95-.09,1.34-.27.39-.18.72-.37.99-.58.31-.25.59-.53.83-.84v-1.62Z"/>
    <path class="cls-13" d="M377.45,632.8c0-.34.06-.66.19-.96s.3-.55.52-.77c.22-.22.49-.39.81-.52.32-.12.67-.19,1.05-.19.36,0,.7.06,1.01.19.31.12.57.29.8.51.22.21.4.46.52.75.12.29.19.6.19.93s-.06.66-.19.96-.3.55-.53.77c-.23.22-.5.39-.81.52s-.66.19-1.05.19-.7-.06-1.01-.19c-.31-.12-.57-.29-.8-.51-.22-.21-.4-.46-.52-.75-.12-.29-.19-.6-.19-.93ZM377.88,639.26c0-.59.17-1.05.52-1.38.35-.33.88-.49,1.6-.49s1.25.16,1.6.49c.35.33.52.79.52,1.38v12.36c0,.59-.17,1.05-.52,1.38-.35.33-.88.49-1.6.49s-1.25-.16-1.6-.49c-.35-.33-.52-.79-.52-1.38v-12.36Z"/>
    <path class="cls-13" d="M386.7,639.1c0-.57.15-1.01.45-1.31s.74-.45,1.31-.45c.28,0,.53.03.74.1.21.07.4.17.55.3.15.13.27.29.37.48.09.19.16.41.2.65l.2,1.14h.05c.2-.41.43-.78.69-1.13.26-.35.55-.65.88-.9.32-.25.67-.45,1.04-.59.37-.14.76-.21,1.16-.21.59,0,1.05.16,1.38.48.32.32.48.82.48,1.5,0,.79-.15,1.4-.45,1.84-.3.43-.66.65-1.08.65-.12,0-.22-.01-.31-.04-.09-.03-.19-.05-.27-.08-.09-.03-.18-.05-.27-.08-.09-.03-.2-.04-.33-.04-.25,0-.5.07-.74.2-.25.13-.47.3-.69.51-.21.21-.41.45-.6.71s-.35.54-.5.82v7.97c0,.59-.17,1.05-.52,1.38-.35.33-.88.49-1.6.49s-1.25-.16-1.6-.49c-.35-.33-.52-.79-.52-1.38v-12.52Z"/>
    <path class="cls-13" d="M401.72,646.32v.03c.06.65.21,1.22.44,1.72.23.5.53.92.91,1.27.38.34.84.6,1.37.78.53.18,1.12.27,1.78.27.54,0,1.01-.04,1.4-.11.39-.07.73-.15,1.02-.24.29-.09.55-.17.77-.24.22-.07.43-.11.63-.11s.38.04.53.11c.16.07.29.17.4.29.11.12.19.26.25.41.06.16.09.32.09.5,0,.26-.04.49-.12.68-.08.19-.22.38-.41.57-.16.16-.39.32-.69.49-.3.17-.67.33-1.12.47-.44.14-.96.26-1.55.35-.59.09-1.24.14-1.96.14-1.24,0-2.35-.18-3.34-.54-.99-.36-1.83-.88-2.52-1.55s-1.21-1.48-1.58-2.44c-.37-.95-.55-2.02-.55-3.21,0-1.38.2-2.62.59-3.71.39-1.09.93-2.01,1.63-2.76.7-.75,1.53-1.32,2.51-1.72.97-.4,2.04-.59,3.21-.59,1,0,1.91.16,2.72.47s1.5.76,2.08,1.35c.57.59,1.02,1.3,1.33,2.15s.47,1.8.47,2.88c0,.78-.18,1.36-.54,1.73s-.87.56-1.54.56h-8.22ZM408.06,643.6c-.14-1.17-.45-2.03-.95-2.58-.5-.55-1.2-.83-2.1-.83-.38,0-.73.07-1.08.2-.34.13-.66.33-.95.61-.29.28-.53.63-.74,1.05-.21.43-.37.94-.48,1.55h6.3Z"/>
  </g>
</svg>