<?xml version="1.0" encoding="UTF-8"?>
<svg id="Expanded" xmlns="http://www.w3.org/2000/svg" xmlns:xlink="http://www.w3.org/1999/xlink" viewBox="0 0 500 700">
  <defs>
    <style>
      .cls-1 {
        fill: #13437c;
      }

      .cls-2 {
        fill: #3288d6;
      }

      .cls-3 {
        fill: #a152db;
      }

      .cls-4 {
        fill: #fff;
      }

      .cls-5 {
        fill: #dfedf2;
      }

      .cls-6 {
        fill: #ea9939;
      }

      .cls-7 {
        fill: #d87625;
      }

      .cls-8 {
        fill: #fff8d9;
      }

      .cls-9 {
        stroke: #fff;
        stroke-miterlimit: 10;
      }

      .cls-9, .cls-10 {
        fill: none;
      }

      .cls-11 {
        fill: #f4b545;
      }

      .cls-12 {
        fill: #f8d7ff;
      }

      .cls-13 {
        fill: #f47aa0;
      }

      .cls-14 {
        fill: #231f20;
      }

      .cls-15 {
        fill: #3d1170;
      }

      .cls-16 {
        fill: #e9f1f4;
      }

      .cls-17 {
        fill: #6d3108;
      }

      .cls-18 {
        fill: #666;
      }

      .cls-19 {
        fill: #79cdf6;
      }

      .cls-20 {
        opacity: 0;
      }

      .cls-21 {
        fill: #7a1859;
      }

      .cls-22 {
        fill: #ffe277;
      }

      .cls-23 {
        fill: #333;
      }

      .cls-24 {
        fill: #47acea;
      }

      .cls-25 {
        fill: #8942c5;
      }

      .cls-26 {
        fill: #dd4a8c;
      }

      .cls-27 {
        fill: #efa7fc;
      }

      .cls-28 {
        fill: #a8b6c1;
      }

      .cls-29 {
        fill: #d27cf2;
      }

      .cls-30 {
        clip-path: url(#clippath);
      }

      .cls-31 {
        fill: #1f5999;
      }

      .cls-32 {
        fill: #ffd2e1;
      }
    </style>
    <clipPath id="clippath">
      <rect class="cls-10" x="-84" y="116" width="668" height="468" rx="32" ry="32" transform="translate(600 100) rotate(90)"/>
    </clipPath>
  </defs>
  <g>
    <g>
      <path class="cls-16" d="M48,699.5c-26.19,0-47.5-21.31-47.5-47.5V48C.5,21.81,21.81.5,48,.5h404c8.33,0,16.53,2.19,23.71,6.33,14.67,8.47,23.79,24.24,23.79,41.17v604c0,26.19-21.31,47.5-47.5,47.5H48Z"/>
      <path class="cls-23" d="M452,1c8.25,0,16.36,2.17,23.46,6.27,14.52,8.38,23.54,23.98,23.54,40.73v604c0,25.92-21.08,47-47,47H48c-25.92,0-47-21.08-47-47V48C1,22.08,22.08,1,48,1h404M452,0H48C21.49,0,0,21.49,0,48v604c0,26.51,21.49,48,48,48h404c26.51,0,48-21.49,48-48V48c0-17.79-9.67-33.31-24.04-41.6-7.05-4.07-15.23-6.4-23.96-6.4h0Z"/>
    </g>
    <path class="cls-4" d="M500,48v374.52L0,539.11V117.39L475.96,6.4c14.37,8.29,24.04,23.81,24.04,41.6Z"/>
    <path class="cls-4" d="M500,459.42v140.57l-428.9,100.01h-23.1c-26.51,0-48-21.49-48-48v-75.99l500-116.59Z"/>
    <path class="cls-23" d="M452,1c25.92,0,47,21.08,47,47v604c0,25.92-21.08,47-47,47H48c-25.92,0-47-21.08-47-47V48C1,22.08,22.08,1,48,1h404M452,0H48C21.49,0,0,21.49,0,48v604c0,26.51,21.49,48,48,48h404c26.51,0,48-21.49,48-48V48c0-26.51-21.49-48-48-48h0Z"/>
    <g>
      <rect class="cls-4" x="15" y="15" width="470" height="670" rx="33" ry="33"/>
      <path class="cls-23" d="M452,16c17.67,0,32,14.33,32,32v604c0,17.67-14.33,32-32,32H48c-17.67,0-32-14.33-32-32V48c0-17.67,14.33-32,32-32h404M452,14H48c-18.75,0-34,15.25-34,34v604c0,18.75,15.25,34,34,34h404c18.75,0,34-15.25,34-34V48c0-18.75-15.25-34-34-34h0Z"/>
    </g>
  </g>
  <g class="cls-30">
    <g>
      <polygon class="cls-22" points="500 0 250 350 0 0 500 0"/>
      <polygon class="cls-13" points="250 350 0 700 0 0 250 350"/>
      <polygon class="cls-29" points="500 700 0 700 250 350 500 700"/>
      <polygon class="cls-19" points="500 0 500 700 250 350 500 0"/>
    </g>
    <g>
      <rect class="cls-4" x="249.5" y="-80.12" width="1" height="860.23" transform="translate(-156.87 210.5) rotate(-35.54)"/>
      <rect class="cls-4" x="249.5" y="-55.42" width="1" height="810.83" transform="translate(-142.45 173.97) rotate(-30.3)"/>
      <rect class="cls-4" x="249.5" y="-34.52" width="1" height="769.03" transform="translate(-122.44 134.85) rotate(-24.45)"/>
      <rect class="cls-4" x="249.5" y="-18.06" width="1" height="736.13" transform="translate(-95.9 94.36) rotate(-18)"/>
      <rect class="cls-4" x="249.5" y="-6.67" width="1" height="713.34" transform="translate(-62.38 54.34) rotate(-11.04)"/>
      <rect class="cls-4" x="249.5" y="-.84" width="1" height="701.68" transform="translate(-22.27 17.03) rotate(-3.74)"/>
      <rect class="cls-4" x="-100.84" y="349.5" width="701.68" height="1" transform="translate(-115.38 576.92) rotate(-86.31)"/>
      <rect class="cls-4" x="-106.67" y="349.5" width="713.34" height="1" transform="translate(-141.18 528.83) rotate(-79.03)"/>
      <rect class="cls-4" x="-118.06" y="349.5" width="736.12" height="1" transform="translate(-160.07 479.79) rotate(-72.03)"/>
      <rect class="cls-4" x="-134.52" y="349.5" width="769.03" height="1" transform="translate(-172.03 433) rotate(-65.59)"/>
      <rect class="cls-4" x="-155.42" y="349.5" width="810.83" height="1" transform="translate(-178.3 389.47) rotate(-59.73)"/>
      <rect class="cls-4" x="-180.12" y="349.5" width="860.23" height="1" transform="translate(-180.12 350.41) rotate(-54.52)"/>
    </g>
    <g>
      <rect class="cls-4" x="249.5" y="-80.12" width="1" height="860.23" transform="translate(-156.87 210.5) rotate(-35.54)"/>
      <rect class="cls-4" x="249.5" y="-30.11" width="1" height="760.21" transform="translate(-168.51 250.74) rotate(-41.12)"/>
      <rect class="cls-4" x="249.5" y="15.24" width="1" height="669.52" transform="translate(-177.63 303.83) rotate(-48.3)"/>
      <rect class="cls-4" x="249.5" y="53.77" width="1" height="592.46" transform="translate(-179.5 373.02) rotate(-57.53)"/>
      <rect class="cls-4" x="249.5" y="82.52" width="1" height="534.96" transform="translate(-166.14 458.76) rotate(-69.11)"/>
      <rect class="cls-4" x="249.5" y="98.12" width="1" height="503.75" transform="translate(-128.7 553.92) rotate(-82.76)"/>
      <rect class="cls-4" x="-1.88" y="349.5" width="503.75" height="1" transform="translate(-42.4 34.56) rotate(-7.29)"/>
      <rect class="cls-4" x="-17.48" y="349.5" width="534.96" height="1" transform="translate(-108.61 112.52) rotate(-20.95)"/>
      <rect class="cls-4" x="-46.23" y="349.5" width="592.46" height="1" transform="translate(-148.89 189.1) rotate(-32.49)"/>
      <rect class="cls-4" x="-84.76" y="349.5" width="669.52" height="1" transform="translate(-169.58 255.38) rotate(-41.75)"/>
      <rect class="cls-4" x="-130.11" y="349.5" width="760.21" height="1" transform="translate(-178.11 308.45) rotate(-48.92)"/>
      <rect class="cls-4" x="-180.12" y="349.5" width="860.23" height="1" transform="translate(-180.12 350.41) rotate(-54.52)"/>
    </g>
    <g>
      <circle class="cls-4" cx="250" cy="350" r="160"/>
      <path class="cls-23" d="M250,512c-89.33,0-162-72.67-162-162s72.67-162,162-162,162,72.67,162,162-72.67,162-162,162ZM250,192c-87.12,0-158,70.88-158,158s70.88,158,158,158,158-70.88,158-158-70.88-158-158-158Z"/>
    </g>
    <g>
      <circle class="cls-4" cx="250" cy="350" r="120"/>
      <path class="cls-18" d="M250,471c-66.72,0-121-54.28-121-121s54.28-121,121-121,121,54.28,121,121-54.28,121-121,121ZM250,231c-65.62,0-119,53.38-119,119s53.38,119,119,119,119-53.38,119-119-53.38-119-119-119Z"/>
    </g>
    <g>
      <circle class="cls-4" cx="391.79" cy="350" r="54"/>
      <path class="cls-23" d="M391.79,406c-30.88,0-56-25.12-56-56s25.12-56,56-56,56,25.12,56,56-25.12,56-56,56ZM391.79,298c-28.67,0-52,23.33-52,52s23.33,52,52,52,52-23.33,52-52-23.33-52-52-52Z"/>
    </g>
    <g>
      <circle class="cls-4" cx="250.01" cy="207.68" r="54"/>
      <path class="cls-23" d="M250.01,263.68c-30.88,0-56-25.12-56-56s25.12-56,56-56,56,25.12,56,56-25.12,56-56,56ZM250.01,155.68c-28.67,0-52,23.33-52,52s23.33,52,52,52,52-23.33,52-52-23.33-52-52-52Z"/>
    </g>
    <g>
      <circle class="cls-4" cx="107.69" cy="349.46" r="54"/>
      <path class="cls-23" d="M107.69,405.46c-30.88,0-56-25.12-56-56s25.12-56,56-56,56,25.12,56,56-25.12,56-56,56ZM107.69,297.46c-28.67,0-52,23.33-52,52s23.33,52,52,52,52-23.33,52-52-23.33-52-52-52Z"/>
    </g>
    <g>
      <circle class="cls-4" cx="249.47" cy="491.78" r="54"/>
      <path class="cls-23" d="M249.47,547.78c-30.88,0-56-25.12-56-56s25.12-56,56-56,56,25.12,56,56-25.12,56-56,56ZM249.47,439.78c-28.67,0-52,23.33-52,52s23.33,52,52,52,52-23.33,52-52-23.33-52-52-52Z"/>
    </g>
    <g>
      <g>
        <path class="cls-14" d="M250.95,451.76c-.68,0-1.3-.08-1.92-.23-11-2.5-27.55-33.1-33.13-70.28-.19-1.24.22-2.5,1.1-3.4l30.13-30.66c.75-.76,1.77-1.19,2.83-1.2h.02c1.06,0,2.08.42,2.83,1.17l30.66,30.13c.91.89,1.33,2.16,1.16,3.41-5.41,38.17-23.04,70.97-33.68,71.05h0ZM250.58,443.8h0ZM224.12,382.03c6,37.26,21.37,60.22,26.66,61.69,4.62-2.04,20.1-26.08,25.64-62.14l-26.38-25.92-25.92,26.37Z"/>
        <path class="cls-14" d="M250.95,451.76c-.68,0-1.3-.08-1.92-.23-1.78-.44-3.03-2.04-3.03-3.88v-97.64c0-1.61.97-3.07,2.45-3.69,1.49-.62,3.2-.29,4.35.84l30.67,30.14c.91.89,1.33,2.16,1.16,3.41-5.41,38.17-23.04,70.97-33.68,71.05h0ZM254,359.55v81.24c6.41-7.69,17.83-29.32,22.42-59.21l-22.42-22.03Z"/>
        <path class="cls-14" d="M250.01,354h0c-1.06,0-2.08-.42-2.83-1.17l-.27-.27-30.37-29.84c-.91-.89-1.34-2.17-1.17-3.42,2.5-17.6,7.77-35.21,14.83-49.57,3.93-7.99,11.61-21.41,18.84-21.47h0c.45,0,.87.03,1.28.1.43.06.78.15,1.02.22,1.47.43,2.96,1.24,4.45,2.41,9.97,7.86,23.28,34.29,28.3,67.78.19,1.24-.22,2.5-1.1,3.4l-30.16,30.69c-.75.75-1.77,1.17-2.83,1.17ZM223.58,318.42l26.38,25.92,25.91-26.37c-5.16-32.02-17.89-55.08-25.04-60.72-.82-.65-1.36-.89-1.61-.98-4.61,2.02-20.1,26.07-25.65,62.15ZM249.29,256.27s0,0,0,0c0,0,0,0,0,0ZM249.42,256.2"/>
        <path class="cls-14" d="M250.01,354h0c-1.06,0-2.08-.42-2.83-1.17l-.27-.27c-.75-.75-1.17-1.77-1.17-2.83v-97.43c0-1.14.48-2.22,1.33-2.98s1.98-1.12,3.11-.99c.49.05.9.16,1.16.23,11.01,3.17,27.14,32.77,32.75,70.19.19,1.24-.22,2.5-1.1,3.4l-30.16,30.69c-.75.75-1.77,1.17-2.83,1.17ZM253.74,260.15v80.35l22.14-22.53c-4.66-28.93-15.28-49.57-22.14-57.82Z"/>
        <path class="cls-14" d="M253.7,349.99h-7.95c-1.09,0-2.14-.45-2.89-1.24s-1.15-1.85-1.11-2.94l3.97-89.03c.1-2.14,1.86-3.82,4-3.82s3.9,1.68,4,3.82l3.97,89.03c.05,1.09-.35,2.15-1.11,2.94s-1.8,1.24-2.89,1.24Z"/>
        <path class="cls-14" d="M250,443.74c-2.14,0-3.9-1.68-4-3.81l-4.25-91.43c-.05-1.09.35-2.16,1.1-2.95.75-.79,1.8-1.24,2.89-1.24h7.95c1.09,0,2.13.44,2.88,1.23.75.79,1.16,1.84,1.11,2.93l-3.7,91.43c-.09,2.14-1.84,3.83-3.99,3.84h-.01Z"/>
        <path class="cls-14" d="M219.85,384.68c-.19,0-.37-.01-.56-.04-17.61-2.5-35.21-7.77-49.57-14.84-7.99-3.93-21.41-11.61-21.47-18.85,0-.76.1-1.51.31-2.27,3.18-11.04,32.78-27.17,70.2-32.79,1.24-.19,2.5.22,3.4,1.1l30.69,30.16c1.55,1.55,1.56,4.06.02,5.63l-30.15,30.69c-.76.77-1.79,1.2-2.85,1.2ZM156.28,350.77c2.01,4.61,26.05,20.1,62.15,25.66l25.92-26.39-26.38-25.92c-36.65,5.91-60,21.37-61.69,26.65ZM156.2,350.58"/>
        <path class="cls-14" d="M219.85,384.68c-.19,0-.37-.01-.56-.04-17.61-2.5-35.21-7.77-49.57-14.84-7.99-3.93-21.41-11.61-21.47-18.85,0-.76.1-1.51.31-2.27.47-1.75,2.05-2.96,3.86-2.96h97.33c1.06,0,2.08.42,2.83,1.17l.26.26c1.55,1.55,1.56,4.06.02,5.63l-30.15,30.69c-.76.77-1.79,1.2-2.85,1.2ZM158.89,353.73c7.39,6.35,29.21,18.03,59.53,22.7l22.3-22.7h-81.83Z"/>
        <path class="cls-14" d="M280.66,384.14c-1.04,0-2.05-.41-2.8-1.15l-30.66-30.13c-.76-.75-1.19-1.77-1.2-2.84s.42-2.09,1.17-2.85l30.13-30.65c.89-.91,2.16-1.33,3.41-1.16,17.6,2.5,35.21,7.77,49.57,14.83,7.99,3.93,21.41,11.61,21.47,18.84v.04c0,.66-.08,1.28-.23,1.89-2.5,11-33.1,27.56-70.28,33.12-.2.03-.4.04-.59.04ZM255.66,349.96l26.37,25.92c37.26-5.99,60.21-21.37,61.69-26.65-2.04-4.62-26.09-20.09-62.14-25.64l-25.92,26.38ZM343.8,349.42h0,0Z"/>
        <path class="cls-14" d="M280.66,384.14c-1.04,0-2.05-.41-2.8-1.15l-30.66-30.13c-.76-.75-1.19-1.77-1.2-2.84s.42-2.09,1.17-2.85c.75-.75,1.78-1.18,2.84-1.18h97.64c1.22,0,2.37.55,3.13,1.5.76.95,1.04,2.2.77,3.38-2.52,11.08-33.12,27.64-70.3,33.21-.2.03-.4.04-.59.04ZM259.77,354l22.26,21.88c29.02-4.67,49.37-15.03,57.64-21.88h-79.9Z"/>
        <path class="cls-14" d="M243.06,358.63c-2.12,0-3.88-1.66-3.99-3.8-.11-2.12,1.45-3.93,3.53-4.17-2.05-.24-3.61-2.02-3.53-4.12.08-2.21,1.98-3.91,4.14-3.85l92.13,3.32c2.14.08,3.84,1.83,3.86,3.97.01,2.14-1.66,3.92-3.8,4.02l-92.13,4.63c-.07,0-.14,0-.2,0Z"/>
        <path class="cls-14" d="M252,358.63c-.07,0-.13,0-.2,0l-92.13-4.63c-2.14-.11-3.81-1.88-3.8-4.02.02-2.14,1.71-3.89,3.86-3.97l92.13-3.32c2.2-.06,4.06,1.65,4.14,3.85.08,2.1-1.48,3.88-3.53,4.12,2.08.24,3.63,2.06,3.53,4.17-.11,2.14-1.88,3.8-3.99,3.8Z"/>
        <path class="cls-14" d="M250,378.22c-15.44,0-28.07-12.49-28.21-27.96-.07-7.54,2.81-14.65,8.09-20.02,5.28-5.38,12.34-8.37,19.88-8.44.08,0,.17,0,.25,0,15.44,0,28.07,12.49,28.21,27.96.07,7.54-2.81,14.65-8.09,20.02-5.28,5.38-12.34,8.37-19.88,8.44-.08,0-.17,0-.25,0ZM250,329.79c-.06,0-.12,0-.18,0-5.4.05-10.46,2.19-14.24,6.04-3.78,3.85-5.84,8.94-5.79,14.34.1,11.08,9.15,20.04,20.21,20.04.06,0,.12,0,.18,0,5.4-.05,10.46-2.19,14.24-6.04,3.78-3.85,5.84-8.94,5.79-14.34-.1-11.08-9.15-20.04-20.21-20.04Z"/>
        <path class="cls-14" d="M247.74,369.51c-11.92,0-21.66-9.64-21.77-21.58-.05-5.81,2.17-11.3,6.24-15.45,4.08-4.15,9.52-6.46,15.34-6.51.06,0,.13,0,.19,0,11.92,0,21.66,9.64,21.77,21.58.05,5.81-2.17,11.3-6.24,15.45-4.08,4.15-9.52,6.46-15.34,6.51-.06,0-.13,0-.19,0ZM247.74,333.97s-.08,0-.12,0c-3.68.03-7.12,1.49-9.7,4.12-2.58,2.62-3.98,6.09-3.95,9.77.07,7.55,6.23,13.65,13.77,13.65.04,0,.08,0,.12,0,3.68-.03,7.12-1.49,9.7-4.12,2.58-2.62,3.98-6.09,3.95-9.77-.07-7.55-6.23-13.65-13.77-13.65Z"/>
        <path class="cls-14" d="M240.86,351.74c-2.87,0-5.57-1.1-7.62-3.12-2.07-2.04-3.23-4.76-3.25-7.66s1.08-5.64,3.12-7.72,4.76-3.23,7.66-3.25c.03,0,.07,0,.1,0,2.87,0,5.57,1.1,7.62,3.12,2.07,2.04,3.23,4.76,3.25,7.66s-1.08,5.64-3.12,7.72-4.76,3.23-7.66,3.25c-.03,0-.07,0-.1,0ZM240.87,338s-.02,0-.03,0c-.77,0-1.49.31-2.02.86-.54.55-.83,1.27-.82,2.04,0,.77.31,1.49.86,2.02s1.23.81,2.04.82c.77,0,1.49-.31,2.02-.86.54-.55.83-1.27.82-2.04h0c0-.77-.31-1.49-.86-2.02-.54-.53-1.25-.82-2.01-.82Z"/>
        <path class="cls-14" d="M237.43,373.51c-.77,0-1.54-.22-2.22-.67-7.49-4.99-12.02-13.35-12.11-22.35-.13-14.97,11.94-27.25,26.91-27.38,7.43-.03,14.59,2.94,19.72,8.25,1.42,1.47,1.5,3.78.19,5.34s-3.59,1.89-5.29.76c-3.18-2.13-6.9-3.23-10.76-3.2-10.55.09-19.06,8.75-18.97,19.31.05,4.94,1.97,9.61,5.41,13.16,1.42,1.47,1.51,3.77.21,5.34-.79.94-1.92,1.44-3.08,1.44Z"/>
        <path class="cls-14" d="M250,378.22c-15.44,0-28.07-12.49-28.21-27.96-.07-7.54,2.81-14.65,8.09-20.02,5.28-5.38,12.34-8.37,19.88-8.44.08,0,.17,0,.25,0,15.44,0,28.07,12.49,28.21,27.96.07,7.54-2.81,14.65-8.09,20.02-5.28,5.38-12.34,8.37-19.88,8.44-.08,0-.17,0-.25,0ZM250,329.79c-.06,0-.12,0-.18,0-5.4.05-10.46,2.19-14.24,6.04-3.78,3.85-5.84,8.94-5.79,14.34.1,11.08,9.15,20.04,20.21,20.04.06,0,.12,0,.18,0,5.4-.05,10.46-2.19,14.24-6.04,3.78-3.85,5.84-8.94,5.79-14.34-.1-11.08-9.15-20.04-20.21-20.04Z"/>
        <path class="cls-14" d="M249.74,346.37h-5.27c-2.21,0-4-1.79-4-4s1.79-4,4-4h5.27c2.21,0,4,1.79,4,4s-1.79,4-4,4Z"/>
      </g>
      <g>
        <path class="cls-29" d="M280.67,380.15c-5.51,38.91-23.13,67.56-29.75,67.61-.3,0-.6-.03-.92-.11-8.39-1.91-24.53-29.59-30.14-66.99l30.13-30.66h.01s30.67,30.15,30.67,30.15Z"/>
        <path class="cls-3" d="M280.67,380.15c-5.51,38.91-23.13,67.56-29.75,67.61-.3,0-.6-.03-.92-.11v-97.64l30.67,30.14Z"/>
        <path class="cls-22" d="M280.14,319.34l-29.87,30.4-.26.26-.27-.27-30.4-29.87h-.01c5.52-38.91,23.13-67.56,29.75-67.62.22,0,.44.02.66.06.18.02.35.06.53.11.93.27,1.96.84,3.05,1.7,8.79,6.93,21.89,32.32,26.82,65.23Z"/>
        <path class="cls-11" d="M280.14,319.34l-29.87,30.4-.26.26-.27-.27v-97.43c.18.02.35.06.53.11,8.46,2.44,24.33,29.94,29.87,66.93Z"/>
        <polygon class="cls-8" points="245.75 345.99 253.7 345.99 249.73 256.96 245.75 345.99"/>
        <polygon class="cls-12" points="245.75 348.31 253.7 348.31 250 439.74 245.75 348.31"/>
        <path class="cls-13" d="M250,349.99l-30.15,30.69c-38.9-5.52-67.55-23.13-67.61-29.76,0-.38.06-.78.17-1.19,2.44-8.46,29.94-24.32,66.93-29.87l30.4,29.87.26.26Z"/>
        <path class="cls-26" d="M250,349.99l-30.15,30.69c-38.9-5.52-67.55-23.13-67.61-29.76,0-.38.06-.78.17-1.19h97.33l.26.26Z"/>
        <path class="cls-19" d="M347.76,349.08c0,.3-.03.6-.11.92-1.91,8.4-29.6,24.54-66.99,30.14l-30.66-30.13h.01s30.14-30.68,30.14-30.68c38.9,5.52,67.55,23.13,67.61,29.75Z"/>
        <path class="cls-24" d="M347.65,350c-1.91,8.4-29.6,24.54-66.99,30.14l-30.66-30.13h.01s97.64,0,97.64,0Z"/>
        <polyline class="cls-5" points="243.07 346.69 335.2 350 243.07 354.63"/>
        <polyline class="cls-32" points="252 346.69 159.87 350 252 354.63"/>
        <circle class="cls-28" cx="250" cy="350" r="24.21"/>
        <circle class="cls-5" cx="247.74" cy="347.74" r="17.77"/>
        <circle class="cls-4" cx="240.87" cy="340.87" r="6.87"/>
        <path class="cls-4" d="M266.85,334.14c-3.72-2.49-8.21-3.92-13.02-3.88-12.78.11-23.05,10.56-22.94,23.34.06,6.19,2.54,11.79,6.54,15.91-6.17-4.11-10.25-11.1-10.33-19.06-.11-12.78,10.16-23.23,22.94-23.34,6.59-.06,12.57,2.64,16.81,7.03Z"/>
        <path class="cls-23" d="M249.99,376.22c-6.91,0-13.43-2.66-18.36-7.52-4.99-4.91-7.78-11.47-7.84-18.47-.06-7,2.61-13.61,7.51-18.6,4.91-4.99,11.47-7.78,18.47-7.84.08,0,.16,0,.24,0,6.91,0,13.43,2.66,18.36,7.52,4.99,4.91,7.78,11.47,7.84,18.47.06,7-2.61,13.61-7.51,18.6-4.91,4.99-11.47,7.78-18.47,7.84-.08,0-.16,0-.24,0ZM250.01,327.79c-.07,0-.13,0-.2,0-5.93.05-11.49,2.41-15.65,6.64-4.16,4.23-6.42,9.83-6.37,15.76s2.41,11.49,6.64,15.65c4.23,4.16,9.85,6.42,15.76,6.37,5.93-.05,11.49-2.41,15.65-6.64,4.16-4.23,6.42-9.83,6.37-15.76s-2.41-11.49-6.64-15.65c-4.18-4.11-9.71-6.37-15.56-6.37Z"/>
      </g>
    </g>
    <g>
      <g class="cls-20">
        <rect class="cls-4" x="226.01" y="183.68" width="48" height="48"/>
      </g>
      <g>
        <path class="cls-11" d="M270.29,210.4c0,4.25-1.31,8.19-3.54,11.44-3.65,5.33-9.79,8.83-16.74,8.83-.29,0-.57,0-.86-.02-10.8-.45-19.42-9.35-19.42-20.26s9.08-20.27,20.28-20.27,20.28,9.08,20.28,20.27Z"/>
        <path class="cls-6" d="M266.75,208.9v12.94c-.76,1.12-1.63,2.15-2.6,3.09-2.09,2.03-4.61,3.62-7.42,4.6-2.1.74-4.36,1.14-6.72,1.14-.29,0-.57,0-.86-.02v-21.76h17.6Z"/>
        <path class="cls-7" d="M264.15,214.87v10.06c-2.09,2.03-4.61,3.62-7.42,4.6v-14.66h7.42Z"/>
        <rect class="cls-11" x="229.74" y="204.95" width="40.55" height="5.01"/>
        <path class="cls-22" d="M270.29,204.95c0,1-.07,1.97-.21,2.93h0c-1.42,9.81-9.86,17.35-20.07,17.35-5.23,0-10-1.99-13.6-5.24h0c-1.17-1.06-2.21-2.25-3.11-3.55-.11-.16-.21-.31-.31-.48-.26-.4-.51-.81-.74-1.23-.14-.26-.28-.52-.41-.78-.17-.34-.33-.68-.47-1.02-1-2.34-1.58-4.91-1.63-7.6,0-.12,0-.25,0-.37,0-.75.04-1.49.12-2.23.15-1.39.44-2.74.86-4.03,2.64-8.14,10.28-14.02,19.29-14.02,4.01,0,7.74,1.16,10.89,3.17,1.16.74,2.25,1.6,3.23,2.56.62.6,1.2,1.24,1.74,1.92,1.61,2.02,2.84,4.35,3.59,6.89.11.36.2.72.29,1.09.07.29.13.57.18.86.09.47.16.94.21,1.42.02.19.04.38.06.57.05.59.08,1.18.08,1.79Z"/>
        <path class="cls-8" d="M270.29,204.95c0,1-.07,1.97-.21,2.93h0s-33.67,12.11-33.67,12.11h0c-1.17-1.06-2.21-2.25-3.11-3.55-.11-.16-.21-.31-.31-.48-.26-.4-.51-.81-.74-1.23-.14-.26-.28-.52-.41-.78-.17-.34-.33-.68-.47-1.02-1-2.34-1.58-4.91-1.63-7.6,0-.12,0-.25,0-.37,0-.75.04-1.49.12-2.23l34.28-12.32c.62.6,1.2,1.24,1.74,1.92,1.61,2.02,2.84,4.35,3.59,6.89.11.36.2.72.29,1.09.07.29.13.57.18.86.09.47.16.94.21,1.42.02.19.04.38.06.57.05.59.08,1.18.08,1.79Z"/>
        <path class="cls-6" d="M264.46,204.95c0,.42-.02.84-.05,1.25-.63,7.4-6.84,13.2-14.4,13.2s-13.76-5.8-14.4-13.2c-.04-.41-.05-.83-.05-1.25,0-7.98,6.47-14.45,14.45-14.45s14.45,6.47,14.45,14.45Z"/>
        <path class="cls-17" d="M250.01,231.68c-11.73,0-21.28-9.54-21.28-21.28,0-.15,0-.3,0-.46v-4.99c0-11.73,9.54-21.28,21.27-21.28s21.28,9.54,21.28,21.28v5.01s0,.06,0,.09v.34c0,11.73-9.54,21.28-21.27,21.28ZM250.01,185.68c-10.63,0-19.28,8.65-19.28,19.28v.39s0,5.05,0,5.05c0,10.63,8.65,19.28,19.28,19.28s19.28-8.65,19.28-19.28v-.41s0-.08,0-.12v-4.91c0-10.63-8.65-19.28-19.28-19.28Z"/>
        <path class="cls-11" d="M264.41,206.21c-.63,7.4-6.84,13.2-14.4,13.2s-13.76-5.8-14.4-13.2c.63-7.4,6.84-13.2,14.4-13.2s13.76,5.8,14.4,13.2Z"/>
        <g>
          <path class="cls-6" d="M257.2,209.34c0,1.4-.46,2.49-1.38,3.26-.92.77-2.22,1.18-3.91,1.22v.93c0,.41-.1.69-.29.84-.19.16-.54.24-1.05.24h-1.56c-.42,0-.72-.09-.89-.26-.17-.17-.26-.45-.26-.82v-.93h-2.47c-.41,0-.69-.09-.87-.26-.17-.17-.26-.45-.26-.82v-12.54c0-.37.09-.65.26-.83s.46-.27.87-.27h2.47v-.95c0-.38.09-.65.26-.84.17-.18.47-.27.89-.27h1.73c.42,0,.72.09.9.27.18.18.27.46.27.84v.95c3.26.07,4.9,1.48,4.9,4.22,0,.66-.15,1.26-.46,1.77-.3.52-.71.89-1.23,1.11,1.39.45,2.08,1.49,2.08,3.14Z"/>
          <rect class="cls-6" x="255.12" y="206.79" width="2.08" height="2.55"/>
          <rect class="cls-6" x="254.73" y="200.77" width="2.08" height="2.55"/>
          <path class="cls-22" d="M257.01,205.83c-.24-.74-.71-1.28-1.41-1.62-.15-.07-.31-.14-.48-.19.52-.22.93-.58,1.23-1.11.31-.52.46-1.11.46-1.77,0-1.76-.67-2.97-2.02-3.63-.52-.25-1.14-.43-1.87-.52-.32-.04-.65-.07-1.01-.07v-.95c0-.38-.09-.65-.27-.83-.18-.18-.48-.27-.9-.27h-1.73c-.42,0-.72.09-.89.27-.17.18-.26.46-.26.83v.95h-2.47c-.41,0-.69.09-.87.27-.17.18-.26.46-.26.83v12.54c0,.38.09.65.26.82.17.17.46.26.87.26h2.47v.93c0,.38.09.65.26.82.17.17.47.26.89.26h1.56c.5,0,.86-.08,1.05-.24.19-.16.29-.44.29-.85v-.93c1.69-.04,2.99-.45,3.91-1.22.61-.51,1.02-1.17,1.22-1.96.05-.19.09-.39.11-.6.03-.23.04-.46.04-.7,0-.5-.06-.94-.19-1.33ZM251.31,205.58c.14,0,.27.01.4.03.29.05.54.16.73.33.27.25.41.62.41,1.11,0,.1,0,.19-.02.28-.04.31-.16.56-.36.77-.25.27-.61.4-1.07.4h-2.75v-2.92h2.66ZM248.64,202.67v-2.62h2.38c.47,0,.83.1,1.06.31.23.2.35.53.35,1,0,.43-.12.76-.37.98-.25.23-.59.34-1.04.34h-2.38Z"/>
          <path class="cls-8" d="M257.01,205.83c-.24-.74-.71-1.28-1.41-1.62-.15-.07-.31-.14-.48-.19.52-.22.93-.58,1.23-1.11.31-.52.46-1.11.46-1.77,0-1.76-.67-2.97-2.02-3.63l-10.53,3.35v9.71c0,.38.09.65.26.82.17.17.46.26.87.26h1.63l10.02-3.18c.05-.19.09-.39.11-.6.03-.23.04-.46.04-.7,0-.5-.06-.94-.19-1.33ZM248.64,200.05h2.38c.47,0,.83.1,1.06.31.23.2.35.53.35,1,0,.43-.12.76-.37.98-.25.23-.59.34-1.04.34h-2.38v-2.62ZM252.82,207.33c-.04.31-.16.56-.36.77-.25.27-.61.4-1.07.4h-2.75v-2.92h2.66c.14,0,.27.01.4.03.29.05.54.16.73.33.27.25.41.62.41,1.11,0,.1,0,.19-.02.28Z"/>
        </g>
      </g>
    </g>
    <g>
      <g class="cls-20">
        <rect class="cls-4" x="83.69" y="325.46" width="48" height="48"/>
      </g>
      <g>
        <path class="cls-13" d="M107.69,369.51s-23.32-11.37-22.91-26.98c.02-.67.08-1.35.19-2.04.17-1.33.76-2.98,1.15-3.92,3.77-8.88,16.3-9.62,21.57-1.55,3.14-4.81,8.85-6.49,13.75-5.19,3.33.88,6.29,3.14,7.81,6.74.4.94.99,2.58,1.15,3.92,2.66,16.64-22.72,29.02-22.72,29.02Z"/>
        <path class="cls-26" d="M107.69,369.51s-23.32-11.37-22.91-26.98c.68,3.56,2.86,6.77,5.57,9.21,3.09,2.77,6.84,4.66,10.58,6.45,2.52,1.2,5.2,2.39,7.99,2.19,2.64-.19,5.02-1.62,7.21-3.12,3.37-2.32,6.61-4.97,8.89-8.37,2.28-3.4,3.51-7.67,2.6-11.66-.74-3.26-3.12-6.2-6.18-7.39,3.33.88,6.29,3.14,7.81,6.74.4.94.99,2.58,1.15,3.92,2.66,16.64-22.72,29.02-22.72,29.02Z"/>
        <path class="cls-32" d="M98.4,330.44c-5.11,2.8-8.75,8.16-9.46,13.95-.71,5.79,1.52,11.86,5.8,15.82-5.76-3.51-9.65-9.92-10.1-16.65-.16-2.41.11-4.88,1.09-7.09,1.13-2.55,3.23-4.67,5.77-5.83s5.51-1.35,8.19-.54"/>
        <path class="cls-21" d="M107.69,370.51c-.15,0-.3-.03-.44-.1-1.06-.52-26.01-12.9-23.27-30.08.21-1.67.98-3.6,1.22-4.15,1.87-4.4,5.9-7.29,10.78-7.72,4.55-.41,8.91,1.44,11.71,4.87,2.8-3.43,7.16-5.27,11.71-4.87,4.89.43,8.92,3.32,10.78,7.72.23.55,1.01,2.48,1.22,4.18,2.74,17.15-22.21,29.52-23.27,30.04-.14.07-.29.1-.44.1ZM97.21,330.41c-.35,0-.7.02-1.05.05-4.14.37-7.54,2.8-9.12,6.51-.43,1.01-.94,2.5-1.08,3.65-2.33,14.59,18.42,26.05,21.73,27.77,3.31-1.73,24.06-13.2,21.73-27.74-.15-1.18-.66-2.67-1.08-3.68-1.57-3.71-4.98-6.14-9.12-6.51-4.29-.38-8.39,1.58-10.69,5.11-.18.28-.5.45-.84.45h0c-.34,0-.65-.17-.84-.45-2.11-3.24-5.74-5.16-9.64-5.16Z"/>
        <path class="cls-32" d="M91.6,334.69c-1.52,1.28-2.52,3.17-2.7,5.15-.11,1.16.06,2.37.66,3.37,1.06,1.77,3.36,2.57,5.4,2.25,2.04-.32,3.84-1.59,5.22-3.13.96-1.07,1.78-2.32,2.12-3.72.34-1.4.17-2.97-.68-4.14-2.22-3.04-7.59-1.8-10.01.22Z"/>
      </g>
    </g>
    <g>
      <g class="cls-20">
        <rect class="cls-4" x="225.47" y="467.78" width="48" height="48"/>
      </g>
      <g>
        <g>
          <path class="cls-15" d="M252.98,515.78h-7.03c-3.04,0-5.51-2.47-5.51-5.51v-6.78h-6.78c-3.04,0-5.51-2.47-5.51-5.51v-7.03c0-3.04,2.47-5.51,5.51-5.51h6.78v-6.78c0-3.04,2.47-5.51,5.51-5.51h7.03c3.04,0,5.51,2.47,5.51,5.51v6.78h6.78c3.04,0,5.51,2.47,5.51,5.51v7.03c0,3.04-2.47,5.51-5.51,5.51h-6.78v6.78c0,3.04-2.47,5.51-5.51,5.51ZM233.66,489.43c-.83,0-1.51.68-1.51,1.51v7.03c0,.83.68,1.51,1.51,1.51h10.78v10.78c0,.83.68,1.51,1.51,1.51h7.03c.83,0,1.51-.68,1.51-1.51v-10.78h10.78c.83,0,1.51-.68,1.51-1.51v-7.03c0-.83-.68-1.51-1.51-1.51h-10.78v-10.78c0-.83-.68-1.51-1.51-1.51h-7.03c-.83,0-1.51.68-1.51,1.51v10.78h-10.78Z"/>
          <path class="cls-15" d="M252.98,515.78h-5.51v-42.65h5.51c3.04,0,5.51,2.47,5.51,5.51v6.79h6.79c3.04,0,5.51,2.47,5.51,5.51v7.03c0,3.04-2.47,5.51-5.51,5.51h-6.79v6.79c0,3.04-2.47,5.51-5.51,5.51ZM251.47,511.78h1.51c.83,0,1.51-.68,1.51-1.51v-10.79h10.79c.83,0,1.51-.68,1.51-1.51v-7.03c0-.83-.68-1.51-1.51-1.51h-10.79v-10.79c0-.83-.68-1.51-1.51-1.51h-1.51v34.65Z"/>
          <path class="cls-15" d="M252.98,510.44h-7.03c-3.04,0-5.51-2.47-5.51-5.51v-6.79h-6.79c-3.04,0-5.51-2.47-5.51-5.51v-7.03c0-3.04,2.47-5.51,5.51-5.51h6.79v-6.79c0-3.04,2.47-5.51,5.51-5.51h7.03c3.04,0,5.51,2.47,5.51,5.51v6.79h6.79c3.04,0,5.51,2.47,5.51,5.51v7.03c0,3.04-2.47,5.51-5.51,5.51h-6.79v6.79c0,3.04-2.47,5.51-5.51,5.51ZM233.66,484.08c-.83,0-1.51.68-1.51,1.51v7.03c0,.83.68,1.51,1.51,1.51h10.79v10.79c0,.83.68,1.51,1.51,1.51h7.03c.83,0,1.51-.68,1.51-1.51v-10.79h10.79c.83,0,1.51-.68,1.51-1.51v-7.03c0-.83-.68-1.51-1.51-1.51h-10.79v-10.79c0-.83-.68-1.51-1.51-1.51h-7.03c-.83,0-1.51.68-1.51,1.51v10.79h-10.79Z"/>
          <path class="cls-15" d="M251.47,491.11h-23.33v-5.51c0-3.04,2.47-5.51,5.51-5.51h6.79v-6.79c0-3.04,2.47-5.51,5.51-5.51h5.51v23.33ZM232.14,487.11h15.33v-15.33h-1.51c-.83,0-1.51.68-1.51,1.51v10.79h-10.79c-.83,0-1.51.68-1.51,1.51v1.51Z"/>
          <path class="cls-15" d="M252.98,510.44h-5.51v-23.33h23.33v5.51c0,3.04-2.47,5.51-5.51,5.51h-6.79v6.79c0,3.04-2.47,5.51-5.51,5.51ZM251.47,506.44h1.51c.83,0,1.51-.68,1.51-1.51v-10.79h10.79c.83,0,1.51-.68,1.51-1.51v-1.51h-15.33v15.33Z"/>
        </g>
        <g>
          <path class="cls-3" d="M268.8,490.94v7.03c0,1.94-1.57,3.51-3.51,3.51h-8.78v8.78c0,1.94-1.57,3.51-3.51,3.51h-7.03c-1.94,0-3.51-1.57-3.51-3.51v-8.78h-8.78c-1.94,0-3.51-1.57-3.51-3.51v-7.03c0-1.94,1.57-3.51,3.51-3.51h8.78v-8.78c0-1.94,1.57-3.51,3.51-3.51h7.03c1.94,0,3.51,1.57,3.51,3.51v8.78h8.78c1.94,0,3.51,1.57,3.51,3.51Z"/>
          <path class="cls-25" d="M268.8,490.94v7.03c0,1.94-1.57,3.51-3.51,3.51h-8.79v8.79c0,1.94-1.57,3.51-3.51,3.51h-3.51v-38.65h3.51c1.94,0,3.51,1.57,3.51,3.51v8.79h8.79c1.94,0,3.51,1.57,3.51,3.51Z"/>
          <path class="cls-27" d="M268.8,485.6v7.03c0,1.94-1.57,3.51-3.51,3.51h-8.79v8.79c0,1.94-1.57,3.51-3.51,3.51h-7.03c-1.94,0-3.51-1.57-3.51-3.51v-8.79h-8.79c-1.94,0-3.51-1.57-3.51-3.51v-7.03c0-1.94,1.57-3.51,3.51-3.51h8.79v-8.79c0-1.94,1.57-3.51,3.51-3.51h7.03c1.94,0,3.51,1.57,3.51,3.51v8.79h8.79c1.94,0,3.51,1.57,3.51,3.51Z"/>
          <path class="cls-12" d="M249.47,469.78v19.33h-19.33v-3.51c0-1.94,1.57-3.51,3.51-3.51h8.79v-8.79c0-1.94,1.57-3.51,3.51-3.51h3.51Z"/>
          <path class="cls-29" d="M268.8,489.11v3.51c0,1.94-1.57,3.51-3.51,3.51h-8.79v8.79c0,1.94-1.57,3.51-3.51,3.51h-3.51v-19.33h19.33Z"/>
        </g>
      </g>
    </g>
    <g>
      <g class="cls-20">
        <rect class="cls-4" x="367.79" y="326" width="48" height="48"/>
      </g>
      <g>
        <g>
          <path class="cls-24" d="M399.48,328.98h-15.38c-.97,0-1.76.79-1.76,1.76v7.3c0,.38.12.74.33,1.02.32.44.84.73,1.43.73h15.38c.59,0,1.11-.29,1.43-.73.05-.06.09-.13.12-.2.13-.24.2-.52.2-.82v-7.3c0-.97-.78-1.76-1.75-1.76ZM396.77,336.28h-9.96v-3.18h9.96v3.18Z"/>
          <polygon class="cls-2" points="401.03 334.3 401.03 339.83 382.34 339.83 382.34 334.3 386.81 334.3 386.81 337.05 396.77 337.05 396.77 334.3 401.03 334.3"/>
          <path class="cls-1" d="M399.48,341.64h-15.38c-1.52,0-2.75-1.24-2.75-2.76v-8.38c0-1.52,1.24-2.75,2.75-2.75h15.38c1.52,0,2.76,1.24,2.76,2.75v8.38c0,1.52-1.24,2.76-2.76,2.76ZM384.1,329.75c-.42,0-.75.34-.75.75v8.38c0,.42.34.76.75.76h15.38c.42,0,.76-.34.76-.76v-8.38c0-.42-.34-.75-.76-.75h-15.38ZM397.77,338.13h-11.96v-5.91h11.96v5.91ZM387.81,336.13h7.96v-1.91h-7.96v1.91Z"/>
        </g>
        <rect class="cls-2" x="368.79" y="336.62" width="46" height="34.64" rx="5.43" ry="5.43"/>
        <rect class="cls-5" x="368.79" y="336.62" width="46" height="29.62" rx="5.43" ry="5.43"/>
        <rect class="cls-24" x="368.79" y="339.37" width="46" height="26.87" rx="5.43" ry="5.43"/>
        <path class="cls-31" d="M391.79,354.8h-1.41c-.07,0-.14,0-.2-.02l-20.27-4.17c-.54-.11-.89-.64-.78-1.18.11-.54.64-.89,1.18-.78l20.17,4.15h1.31c.55,0,1,.45,1,1s-.45,1-1,1Z"/>
        <path class="cls-31" d="M393.22,354.8h-1.43c-.55,0-1-.45-1-1s.45-1,1-1h1.32l20.16-4.15c.54-.11,1.07.24,1.18.78.11.54-.24,1.07-.78,1.18l-20.26,4.17c-.07.01-.13.02-.2.02Z"/>
        <path class="cls-28" d="M390.61,351.96h2.36c.76,0,1.38.62,1.38,1.38v2.67c0,.76-.62,1.38-1.38,1.38h-2.36c-.76,0-1.38-.62-1.38-1.38v-2.67c0-.76.62-1.38,1.38-1.38Z"/>
        <path class="cls-5" d="M394.35,351.97v1.54c0,.64-.61,1.16-1.38,1.16h-2.36c-.76,0-1.38-.52-1.38-1.16v-1.54c0-.64.62-1.16,1.38-1.16h2.36c.76,0,1.38.52,1.38,1.16Z"/>
        <path class="cls-1" d="M392.97,358.38h-2.36c-1.31,0-2.38-1.07-2.38-2.38v-3.98c0-1.31,1.07-2.38,2.38-2.38h2.36c1.31,0,2.38,1.07,2.38,2.38v3.98c0,1.31-1.07,2.38-2.38,2.38ZM390.61,351.65c-.21,0-.38.17-.38.38v3.98c0,.21.17.38.38.38h2.36c.21,0,.38-.17.38-.38v-3.98c0-.21-.17-.38-.38-.38h-2.36Z"/>
        <path class="cls-1" d="M409.36,372.25h-35.14c-3.55,0-6.43-2.89-6.43-6.43v-23.77c0-3.55,2.89-6.43,6.43-6.43h35.14c3.55,0,6.43,2.89,6.43,6.43v23.77c0,3.55-2.89,6.43-6.43,6.43ZM374.22,337.62c-2.44,0-4.43,1.99-4.43,4.43v23.77c0,2.44,1.99,4.43,4.43,4.43h35.14c2.44,0,4.43-1.99,4.43-4.43v-23.77c0-2.44-1.99-4.43-4.43-4.43h-35.14Z"/>
      </g>
    </g>
  </g>
  <rect class="cls-9" x="-76" y="124" width="652" height="452" rx="24" ry="24" transform="translate(600 100) rotate(90)"/>
</svg>