<?xml version="1.0" encoding="UTF-8"?>
<svg id="Layer_1" xmlns="http://www.w3.org/2000/svg" xmlns:xlink="http://www.w3.org/1999/xlink" viewBox="0 0 832 256">
  <defs>
    <style>
      .cls-1 {
        fill: #fff;
      }

      .cls-2 {
        fill: none;
      }

      .cls-3 {
        clip-path: url(#clippath-1);
      }

      .cls-4 {
        fill: #6d3108;
      }

      .cls-5 {
        fill: #ffe277;
      }

      .cls-6 {
        fill: #fff8d9;
        opacity: .5;
      }

      .cls-7 {
        clip-path: url(#clippath);
      }
    </style>
    <clipPath id="clippath">
      <rect class="cls-2" x="8" y="8" width="816" height="240" rx="35.91" ry="35.91"/>
    </clipPath>
    <clipPath id="clippath-1">
      <rect class="cls-2" x="8" y="464" width="816" height="240" rx="35.91" ry="35.91"/>
    </clipPath>
  </defs>
  <rect class="cls-1" width="832" height="256" rx="43.91" ry="43.91"/>
  <rect class="cls-5" x="8" y="8" width="816" height="240" rx="35.91" ry="35.91"/>
  <g class="cls-7">
    <rect class="cls-6" x="-111.4" y="-27.41" width="750.52" height="251.43" transform="translate(7.77 215.37) rotate(-45)"/>
    <rect class="cls-6" x="243.96" y="57.39" width="750.52" height="81.84" transform="translate(111.85 466.65) rotate(-45)"/>
  </g>
  <path class="cls-4" d="M788.09,12c17.6,0,31.91,14.31,31.91,31.91v168.18c0,17.6-14.31,31.91-31.91,31.91H43.91c-17.6,0-31.91-14.31-31.91-31.91V43.91c0-17.6,14.31-31.91,31.91-31.91h744.18ZM788.09,8H43.91c-19.83,0-35.91,16.08-35.91,35.91v168.18c0,19.83,16.08,35.91,35.91,35.91h744.18c19.83,0,35.91-16.08,35.91-35.91V43.91c0-19.83-16.08-35.91-35.91-35.91h0Z"/>
  <g class="cls-3">
    <rect class="cls-1" x="-111.4" y="428.59" width="750.52" height="251.43" transform="translate(-314.67 348.93) rotate(-45)"/>
  </g>
</svg>