<?xml version="1.0" encoding="UTF-8"?>
<svg id="Layer_1" xmlns="http://www.w3.org/2000/svg" xmlns:xlink="http://www.w3.org/1999/xlink" viewBox="0 0 832 575">
  <defs>
    <style>
      .cls-1 {
        fill: #f4f8f9;
      }

      .cls-2 {
        fill: #fff;
      }

      .cls-3 {
        fill: none;
      }

      .cls-4 {
        fill: #333;
      }

      .cls-5 {
        clip-path: url(#clippath);
      }
    </style>
    <clipPath id="clippath">
      <rect class="cls-3" x="8" y="8" width="816" height="559" rx="35.91" ry="35.91"/>
    </clipPath>
  </defs>
  <rect class="cls-1" x="8" y="8" width="816" height="559" rx="35.91" ry="35.91"/>
  <g class="cls-5">
    <rect class="cls-2" x="-207.86" y="123.74" width="969.42" height="251.43" transform="translate(-95.3 268.83) rotate(-45)"/>
    <rect class="cls-2" x="268.74" y="362.12" width="750.52" height="81.84" transform="translate(-96.36 573.42) rotate(-45)"/>
  </g>
  <path class="cls-4" d="M788.09,12c17.6,0,31.91,14.31,31.91,31.91v487.18c0,17.6-14.31,31.91-31.91,31.91H43.91c-17.6,0-31.91-14.31-31.91-31.91V43.91c0-17.6,14.31-31.91,31.91-31.91h744.18ZM788.09,8H43.91c-19.83,0-35.91,16.08-35.91,35.91v487.18c0,19.83,16.08,35.91,35.91,35.91h744.18c19.83,0,35.91-16.08,35.91-35.91V43.91c0-19.83-16.08-35.91-35.91-35.91h0Z"/>
</svg>