<?xml version="1.0" encoding="UTF-8"?>
<svg id="Layer_1" xmlns="http://www.w3.org/2000/svg" xmlns:xlink="http://www.w3.org/1999/xlink" viewBox="0 0 436 296">
  <defs>
    <style>
      .cls-1 {
        fill: #13437c;
      }

      .cls-2 {
        fill: #dfedf2;
      }

      .cls-3 {
        fill: #ea9939;
      }

      .cls-4 {
        fill: #fff;
        opacity: .5;
      }

      .cls-5 {
        fill: none;
      }

      .cls-6 {
        clip-path: url(#clippath-1);
      }

      .cls-7 {
        clip-path: url(#clippath);
      }
    </style>
    <clipPath id="clippath">
      <rect class="cls-5" x="8" y="8" width="420" height="280" rx="35.91" ry="35.91"/>
    </clipPath>
    <clipPath id="clippath-1">
      <rect class="cls-5" x="8" y="-424" width="816" height="240" rx="28" ry="28"/>
    </clipPath>
  </defs>
  <rect class="cls-2" x="8" y="8" width="420" height="280" rx="35.91" ry="35.91"/>
  <g class="cls-7">
    <rect class="cls-4" x="-121.66" y="10.23" width="518.09" height="173.56" transform="translate(-28.36 125.56) rotate(-45)"/>
    <rect class="cls-4" x="51.1" y="189.76" width="518.09" height="56.49" transform="translate(-63.31 283.16) rotate(-45)"/>
  </g>
  <path class="cls-1" d="M392.09,12c17.6,0,31.91,14.31,31.91,31.91v208.18c0,17.6-14.31,31.91-31.91,31.91H43.91c-17.6,0-31.91-14.31-31.91-31.91V43.91c0-17.6,14.31-31.91,31.91-31.91h348.18ZM392.09,8H43.91c-19.83,0-35.91,16.08-35.91,35.91v208.18c0,19.83,16.08,35.91,35.91,35.91h348.18c19.83,0,35.91-16.08,35.91-35.91V43.91c0-19.83-16.08-35.91-35.91-35.91h0Z"/>
  <g class="cls-6">
    <rect class="cls-3" x="-111.4" y="-459.41" width="750.52" height="251.43" transform="translate(313.24 88.84) rotate(-45)"/>
  </g>
</svg>