<?xml version="1.0" encoding="UTF-8"?>
<svg id="Expanded" xmlns="http://www.w3.org/2000/svg" viewBox="0 0 400 250">
  <defs>
    <style>
      .cls-1 {
        fill: #4d4d4d;
      }

      .cls-2 {
        fill: #ea9939;
      }

      .cls-3 {
        fill: #f4b545;
      }

      .cls-4 {
        fill: #666;
      }

      .cls-5 {
        fill: #ffe277;
      }

      .cls-6 {
        fill: #333;
      }

      .cls-7 {
        fill: gray;
      }
    </style>
  </defs>
  <path class="cls-6" d="M382.72,96.86c-1.96,9.57-31.28,13.87-38.18,17.51v28.5c4.32,3.25,5.04,10.1,1.56,14.15,4.75,13.04,5.33,26.4,5.63,43.12.19,4.67-2.29,12.51-13.43,12.36-10.15.21-13.73-6.6-13.42-12.36.3-16.72.87-30.07,5.62-43.11-3.51-4.04-2.69-11.05,1.57-14.17v-24.39l-33.21,10.94c-.55,1.4-5.37,71.41-7.2,69.79-3.94,7.63-12.1,11.82-19.68,15.1-41.41,17.76-153.8,17.92-165-19.76-.09-.15-5.79-64.97-5.84-65.14,0,0-75.94-24.99-75.94-24.99-11.42-3.29-11.46-20.82,0-24.13,39.14-12.95,126.94-41.73,166.79-54.9,7.77-7.85,118.56,35.68,128.59,37.05,0,0,54.22,17.85,54.22,17.85,6.85,2.08,10.45,9.98,7.92,16.58Z"/>
  <g>
    <g>
      <path class="cls-1" d="M289.07,193.89s-.01.08-.01.12c-1.61,15.6-41.37,27.88-89.07,27.88-.97,0-1.94,0-2.9-.02-46.38-.48-84.58-12.58-86.15-27.86,0-.04-.01-.08-.01-.12-.08-.84-.03-1.68.11-2.5.04-.29.11-.57.19-.85,3.81-14.35,40.11-25.85,85.86-26.31.96-.02,1.93-.02,2.9-.02,47.11,0,84.88,11.68,88.78,26.33.08.28.15.56.19.85.15.83.19,1.66.11,2.5Z"/>
      <polygon class="cls-1" points="295.59 121.07 289.07 194.01 110.93 194.01 104.41 121.07 295.59 121.07"/>
      <path class="cls-4" d="M289.07,190.54c-1.4,15.66-41.26,28.01-89.07,28.01s-87.67-12.34-89.07-28.01,38.41-29.67,89.07-29.67,90.51,13.5,89.07,29.67Z"/>
      <path class="cls-4" d="M295.59,117.59c-.11,1.18-.39,2.34-.85,3.48-6.41,16.34-46.89,28.71-94.75,28.71-.97,0-1.94,0-2.9-.02-46.58-.48-85.57-12.69-91.84-28.69-.46-1.14-.75-2.3-.85-3.48-1.63-18.31,39.6-33.69,92.68-34.24.96-.01,1.93-.01,2.9-.01,54.49,0,97.26,15.6,95.6,34.25Z"/>
      <polygon class="cls-4" points="295.59 117.59 295.28 121.07 289.07 190.54 110.93 190.54 104.72 121.07 104.41 117.59 295.59 117.59"/>
      <path class="cls-1" d="M295.59,117.59l-.31,3.48h.31l-6.52,72.94h-.01c-1.61,15.6-41.37,27.88-89.07,27.88-.97,0-1.94,0-2.9-.02V83.35c.96-.01,1.93-.01,2.9-.01,54.49,0,97.26,15.6,95.6,34.25Z"/>
    </g>
    <path class="cls-1" d="M373.54,100.61l-166.76,54.9c-4.4,1.45-9.15,1.45-13.55,0L26.46,100.61c-5.81-1.91-7.38-8.42-4.72-12.83.98-1.64,2.56-2.99,4.72-3.7L193.24,29.18c4.4-1.44,9.15-1.44,13.55,0l166.76,54.9c2.17.71,3.74,2.06,4.72,3.7,2.66,4.41,1.09,10.92-4.72,12.83Z"/>
    <path class="cls-4" d="M378.27,87.78c-1,1.63-2.57,2.97-4.73,3.68l-166.75,54.9c-4.4,1.45-9.15,1.45-13.55,0L26.46,91.46c-2.16-.71-3.73-2.05-4.73-3.68.99-1.64,2.56-2.99,4.73-3.7L193.24,29.18c4.4-1.44,9.15-1.44,13.55,0l166.75,54.9c2.17.71,3.74,2.06,4.73,3.7Z"/>
    <g>
      <path class="cls-5" d="M340.54,103.07v57.79c0,1.24-1.01,2.23-2.23,2.23s-2.23-.99-2.23-2.23v-55.8l-2.85-.32-130.72-14.74c-1.23-.13-2.11-1.24-1.97-2.47.13-1.23,1.24-2.11,2.47-1.97l135.54,15.29c.88.1,1.61.7,1.86,1.52.08.22.12.46.12.7Z"/>
      <path class="cls-3" d="M340.54,103.07v49.95c-1.44.11-2.95.22-4.47.33v-48.3l-2.85-.32,7.19-2.37c.08.22.12.46.12.7Z"/>
      <path class="cls-5" d="M347.73,200.14c0,6.68-4.22,8.36-9.42,8.36s-9.42-1.47-9.42-8.36c0-25.55,4.22-46.26,9.42-46.26s9.42,20.71,9.42,46.26Z"/>
      <path class="cls-3" d="M347.73,200.14c0,6.68-4.22,8.36-9.42,8.36s-5.2-54.61,0-54.61,9.42,20.71,9.42,46.26Z"/>
      <path class="cls-3" d="M345.03,200.14c0,6.68-3.01,8.36-6.72,8.36s-6.72-1.47-6.72-8.36c0-25.55,3.01-46.26,6.72-46.26s6.72,20.71,6.72,46.26Z"/>
      <path class="cls-2" d="M345.03,200.14c0,6.68-3.01,8.36-6.72,8.36s-3.71-54.61,0-54.61,6.72,20.71,6.72,46.26Z"/>
      <path class="cls-5" d="M344.34,200.14c0,6.68-2.7,8.36-6.03,8.36s-6.03-1.47-6.03-8.36c0-25.55,2.7-46.26,6.03-46.26s6.03,20.71,6.03,46.26Z"/>
      <path class="cls-3" d="M344.34,200.14c0,6.68-2.7,8.36-6.03,8.36s-3.33-54.61,0-54.61,6.03,20.71,6.03,46.26Z"/>
      <path class="cls-3" d="M341.06,200.14c0,6.68-1.24,8.36-2.76,8.36s-2.76-1.47-2.76-8.36c0-25.55,1.24-46.26,2.76-46.26s2.76,20.71,2.76,46.26Z"/>
      <path class="cls-2" d="M341.06,200.14c0,6.68-1.24,8.36-2.76,8.36s-1.53-54.61,0-54.61,2.76,20.71,2.76,46.26Z"/>
      <path class="cls-5" d="M340.2,200.14c0,6.68-.85,8.36-1.9,8.36s-1.9-1.47-1.9-8.36c0-25.55.85-46.26,1.9-46.26s1.9,20.71,1.9,46.26Z"/>
      <path class="cls-3" d="M344.34,150.72c0,3.33-2.7,6.03-6.03,6.03-3.14,0-5.71-2.38-6.01-5.43-.02-.2-.03-.4-.03-.6,0-3.34,2.7-6.04,6.04-6.04,1.23,0,2.37.37,3.32.99,1.63,1.08,2.71,2.94,2.71,5.05Z"/>
      <path class="cls-5" d="M342.18,148.06c0,3.03-2.46,5.47-5.48,5.47-1.8,0-3.41-.87-4.4-2.21-.02-.2-.03-.4-.03-.6,0-3.34,2.7-6.04,6.04-6.04,1.23,0,2.37.37,3.32.99.36.73.56,1.53.56,2.39Z"/>
    </g>
    <path class="cls-1" d="M217.13,87.78c0,2.98-7.67,5.39-17.13,5.39s-17.13-2.41-17.13-5.39,5.38-8.05,17.13-8.05,17.13,5.07,17.13,8.05Z"/>
    <path class="cls-6" d="M200.12,156.63c-5.71,0-10.8-1.64-16.16-3.37-1.45-.47-2.91-.94-4.41-1.38-25.2-7.5-51.6-16.47-71.78-23.44-.52-.18-.8-.75-.62-1.27.18-.52.75-.8,1.27-.62,20.17,6.97,46.54,15.93,71.7,23.42,1.52.45,3,.93,4.46,1.4,5.73,1.85,11.14,3.59,17.21,3.22,5.5-.33,10.9-2.04,16.12-3.69l70.7-22.32c.53-.17,1.09.12,1.25.65.17.53-.13,1.09-.65,1.25l-70.7,22.32c-5.33,1.68-10.85,3.42-16.6,3.77-.6.04-1.2.05-1.79.05Z"/>
    <path class="cls-6" d="M199.73,93.83c-4.4,0-8.81-.69-13.03-2.06-2.78-.91-4.31-2.23-4.68-4.04-.11-.54.24-1.07.78-1.18.54-.1,1.07.24,1.18.78.21,1.04,1.3,1.87,3.34,2.53,8.56,2.79,17.92,2.6,26.36-.53.97-.36,2.61-1.14,2.63-2.26,0-.55.45-.99,1-.99h.02c.55,0,.99.46.99,1.01-.02,1.21-.71,2.91-3.93,4.11-4.7,1.74-9.67,2.62-14.65,2.62Z"/>
    <path class="cls-6" d="M184.31,84.56c-.33,0-.65-.16-.84-.45-.3-.46-.17-1.08.29-1.38,9.4-6.13,22.21-6.41,31.88-.69.48.28.63.89.35,1.37-.28.48-.89.63-1.37.35-9.02-5.34-20.98-5.08-29.76.65-.17.11-.36.16-.55.16Z"/>
    <path class="cls-6" d="M334.94,113.05c-.55,0-1-.45-1-1l-.02-5.84c-9.43-.84-16.4-1.48-24.75-2.45l-97.48-11.3c-.55-.06-.94-.56-.88-1.11.06-.55.56-.94,1.11-.88l97.48,11.3c8.6,1,15.72,1.65,25.61,2.52.52.05.91.48.91.99l.02,6.75c0,.55-.45,1-1,1h0Z"/>
    <path class="cls-7" d="M373.54,84.08l-166.89-50.5c-3.99-1.21-8.25-1.21-12.25-.01L26.46,84.08,193.24,29.18c4.4-1.44,9.15-1.44,13.55,0l166.75,54.9Z"/>
  </g>
</svg>