<?xml version="1.0" encoding="UTF-8"?>
<svg id="Expanded" xmlns="http://www.w3.org/2000/svg" viewBox="0 0 400 250">
  <defs>
    <style>
      .cls-1 {
        fill: #fff;
      }

      .cls-2 {
        fill: #dfedf2;
      }

      .cls-3 {
        fill: #788696;
      }

      .cls-4 {
        fill: #333;
      }

      .cls-5 {
        fill: #a8b6c1;
      }
    </style>
  </defs>
  <path class="cls-1" d="M305.89,16.23v174.09c-16.98,16.97-26.49,26.48-43.46,43.46H125.79V16.23h180.1Z"/>
  <path class="cls-2" d="M305.89,81.13l-1.13,106.18-12.9-3.7-16.02-2.36s29.12-6.47,30.06-100.11Z"/>
  <path class="cls-2" d="M270.38,195.94s-1.2,11.12-3.76,17.79c-2.89,7.52-10.92,18.69-10.92,18.69l-129.92,1.36v-2.16c28.72-.91,123.8-14.08,144.6-35.67Z"/>
  <path class="cls-4" d="M245.17,235.78h-119.38c-1.1,0-2-.9-2-2V16.22c0-1.1.9-2,2-2h180.1c1.1,0,2,.9,2,2v163.59c0,7.31-2.85,14.17-8.01,19.34-8.71,8.7-15.68,15.67-23.83,23.83-8.13,8.13-19.38,12.8-30.88,12.8ZM127.79,231.78h117.38c10.44,0,20.66-4.24,28.05-11.62,8.15-8.15,15.13-15.13,23.83-23.83,4.41-4.41,6.84-10.27,6.84-16.51V18.22H127.79v213.55Z"/>
  <path class="cls-5" d="M259.38,226.92c-.24,0-.48-.09-.68-.26-.41-.37-.43-1.01-.06-1.41,14.74-16.02,11.62-43.02,11.59-43.29-.06-.46.21-.9.65-1.06.21-.08,5.15-1.81,16.9.73,7.45,1.62,13.42,3.59,13.48,3.61.52.17.81.74.63,1.26-.17.52-.74.8-1.26.63-.06-.02-5.93-1.96-13.27-3.55-8.67-1.88-13.35-1.34-15.04-1,.45,4.93,1.82,28.78-12.19,44.01-.2.21-.47.32-.74.32Z"/>
  <path class="cls-5" d="M200.88,106.54h-53.2c-.55,0-1-.45-1-1s.45-1,1-1h53.2c.55,0,1,.45,1,1s-.45,1-1,1Z"/>
  <path class="cls-5" d="M216.02,106.54h-7.38c-.55,0-1-.45-1-1s.45-1,1-1h7.38c.55,0,1,.45,1,1s-.45,1-1,1Z"/>
  <path class="cls-5" d="M249.03,123.24h-86.6c-.55,0-1-.45-1-1s.45-1,1-1h86.6c.55,0,1,.45,1,1s-.45,1-1,1Z"/>
  <path class="cls-5" d="M191.56,183.82h-34.56c-.55,0-1-.45-1-1s.45-1,1-1h34.56c.55,0,1,.45,1,1s-.45,1-1,1Z"/>
  <path class="cls-5" d="M185.34,194.69h-23.69c-.55,0-1-.45-1-1s.45-1,1-1h23.69c.55,0,1,.45,1,1s-.45,1-1,1Z"/>
  <path class="cls-2" d="M305.89,81.13l-1.13,106.18-12.9-3.7-16.02-2.36s29.12-6.47,30.06-100.11Z"/>
  <path class="cls-2" d="M270.38,195.94s-1.2,11.12-3.76,17.79c-2.89,7.52-10.92,18.69-10.92,18.69l-129.92,1.36v-2.16c28.72-.91,123.8-14.08,144.6-35.67Z"/>
  <path class="cls-4" d="M245.17,235.78h-119.38c-1.1,0-2-.9-2-2V16.22c0-1.1.9-2,2-2h180.1c1.1,0,2,.9,2,2v163.59c0,7.31-2.85,14.17-8.01,19.34-8.71,8.7-15.68,15.67-23.83,23.83-8.13,8.13-19.38,12.8-30.88,12.8ZM127.79,231.78h117.38c10.44,0,20.66-4.24,28.05-11.62,8.15-8.15,15.13-15.13,23.83-23.83,4.41-4.41,6.84-10.27,6.84-16.51V18.22H127.79v213.55Z"/>
  <path class="cls-5" d="M259.38,226.92c-.24,0-.48-.09-.68-.26-.41-.37-.43-1.01-.06-1.41,14.74-16.02,11.62-43.02,11.59-43.29-.06-.46.21-.9.65-1.06.21-.08,5.15-1.81,16.9.73,7.45,1.62,13.42,3.59,13.48,3.61.52.17.81.74.63,1.26-.17.52-.74.8-1.26.63-.06-.02-5.93-1.96-13.27-3.55-8.67-1.88-13.35-1.34-15.04-1,.45,4.93,1.82,28.78-12.19,44.01-.2.21-.47.32-.74.32Z"/>
  <path class="cls-5" d="M219.91,123.24h-53.2c-.55,0-1-.45-1-1s.45-1,1-1h53.2c.55,0,1,.45,1,1s-.45,1-1,1Z"/>
  <path class="cls-5" d="M235.05,123.24h-7.38c-.55,0-1-.45-1-1s.45-1,1-1h7.38c.55,0,1,.45,1,1s-.45,1-1,1Z"/>
  <path class="cls-5" d="M264.5,139.93h-86.6c-.55,0-1-.45-1-1s.45-1,1-1h86.6c.55,0,1,.45,1,1s-.45,1-1,1Z"/>
  <path class="cls-5" d="M244.93,183.82h-38.71c-.55,0-1-.45-1-1s.45-1,1-1h38.71c.55,0,1,.45,1,1s-.45,1-1,1Z"/>
  <path class="cls-5" d="M234.83,194.69h-41.28c-.55,0-1-.45-1-1s.45-1,1-1h41.28c.55,0,1,.45,1,1s-.45,1-1,1Z"/>
  <g>
    <path class="cls-4" d="M242.64,36.07v5.19c0,1.39-.88,2.58-2.1,3.06v50.89c0,2.71-1.84,4.83-4.19,4.83h-40.41c-2.35,0-4.19-2.12-4.19-4.83v-50.72c-1.54-.27-2.71-1.62-2.71-3.23v-5.19c0-1.81,1.47-3.29,3.29-3.29h47.02c1.81,0,3.29,1.48,3.29,3.29Z"/>
    <g>
      <path class="cls-1" d="M236.35,98.04h-40.41c-1.21,0-2.19-1.26-2.19-2.82v-58.49h44.78v58.49c0,1.56-.98,2.82-2.19,2.82Z"/>
      <path class="cls-2" d="M236.35,36.73h-40.41c-1.21,0-2.19.17-2.19.37v7.76h44.78v-7.76c0-.21-.98-.37-2.19-.37Z"/>
      <path class="cls-3" d="M219,82.31h-5.7c-1.03,0-1.86.83-1.86,1.86v13.87h9.42v-13.87c0-1.03-.83-1.86-1.86-1.86Z"/>
      <rect class="cls-1" x="191.04" y="34.78" width="49.6" height="7.76" rx="1.29" ry="1.29"/>
      <rect class="cls-3" x="201.07" y="49.68" width="5.75" height="5.75"/>
      <rect class="cls-3" x="213.27" y="49.68" width="5.75" height="5.75"/>
      <rect class="cls-5" x="225.47" y="49.68" width="5.75" height="5.75"/>
      <rect class="cls-5" x="201.07" y="60.05" width="5.75" height="5.75"/>
      <rect class="cls-5" x="213.27" y="60.05" width="5.75" height="5.75"/>
      <rect class="cls-3" x="225.47" y="60.05" width="5.75" height="5.75"/>
      <rect class="cls-3" x="201.07" y="70.42" width="5.75" height="5.75"/>
      <rect class="cls-5" x="213.27" y="70.42" width="5.75" height="5.75"/>
      <rect class="cls-3" x="225.47" y="70.42" width="5.75" height="5.75"/>
    </g>
  </g>
  <g>
    <path class="cls-4" d="M205.07,156.53h0c0,3.3-1.28,6.39-3.6,8.71l-47.51,47.51c-2.32,2.31-5.41,3.6-8.69,3.61h-.03c-3.29-.01-6.37-1.3-8.69-3.61l-82.43-82.43c-2.32-2.32-3.6-5.4-3.61-8.69.01-3.31,1.29-6.4,3.61-8.72l47.51-47.51c2.32-2.32,5.41-3.6,8.7-3.6h.01c2.88.01,5.6.99,7.79,2.79.31.25.62.53.91.82l82.42,82.42c2.32,2.32,3.6,5.41,3.61,8.7Z"/>
    <path class="cls-2" d="M198.64,162.41l-47.51,47.51c-1.62,1.62-3.75,2.43-5.88,2.44v-55.82h55.82c0,2.12-.81,4.25-2.43,5.87Z"/>
    <path class="cls-1" d="M145.25,156.54v55.82c-2.13,0-4.25-.81-5.88-2.44L56.95,127.49c-1.63-1.63-2.43-3.75-2.44-5.88,0-2.13.82-4.26,2.44-5.88l47.51-47.51c1.63-1.63,3.75-2.43,5.87-2.43,2.13,0,4.25.81,5.88,2.44l82.43,82.43c1.63,1.63,2.43,3.75,2.44,5.88h-55.82Z"/>
    <path class="cls-2" d="M145.25,212.36c-2.13,0-4.25-.81-5.88-2.44L56.95,127.49c-1.63-1.63-2.43-3.75-2.44-5.88h59.66s31.08,31.08,31.08,31.08v59.66Z"/>
    <path class="cls-1" d="M201.07,156.54h-59.66l-31.08-31.08v-59.66c2.13,0,4.25.81,5.88,2.44l82.43,82.43c1.63,1.63,2.43,3.75,2.44,5.88Z"/>
    <rect class="cls-1" x="90.38" y="77.05" width="74.83" height="124.04" rx="9.9" ry="9.9" transform="translate(-60.91 131.1) rotate(-45)"/>
    <path class="cls-2" d="M145.62,155.81l-.39-3.49c-.04-.3-.17-.58-.39-.8l-14.57-14.57.9-.9c.33-.33.33-.87,0-1.2l-1.6-1.6c.31-.96.49-1.95.53-2.95h0c.17-3.19-.97-6.44-3.41-8.88-2.55-2.55-5.98-3.68-9.3-3.39-2.64.23-5.22,1.36-7.24,3.38-3.91,3.91-4.48,9.88-1.71,14.39.47.77,1.04,1.49,1.71,2.16,3.2,3.2,7.79,4.16,11.83,2.87l1.6,1.6c.09.09.2.16.32.2.3.11.65.04.88-.2l.9-.9,2.72,2.72.15.15c.09.1.21.16.34.18l1.79.33c.29.05.51.29.54.58l.12,1.24c.02.17.1.32.22.43.09.08.21.14.34.16l1.3.18c.31.04.55.3.57.61l.08,1.36c0,.16.08.32.19.43l.64.64c.12.12.29.19.47.19h1.55c.36,0,.66.3.66.66v1.54c0,.18.06.34.19.47l3.88,3.88c.32.32.78.45,1.22.36l1.91-.39c.68-.14,1.15-.78,1.07-1.47ZM116.63,127.9c-1.06,1.06-2.78,1.06-3.84,0-.08-.08-.15-.17-.22-.25-.83-1.07-.76-2.61.22-3.59.55-.55,1.27-.81,1.99-.79.67.01,1.34.28,1.86.8,1.06,1.06,1.06,2.78,0,3.84Z"/>
    <path class="cls-5" d="M98.07,94.21l-13.57,13.57c-.86.86-2.25.86-3.11,0s-.86-2.25,0-3.11l13.57-13.57c.86-.86,2.25-.86,3.11,0,.43.43.64.99.64,1.56,0,.56-.21,1.13-.64,1.56Z"/>
  </g>
</svg>