<?xml version="1.0" encoding="UTF-8"?>
<svg id="Expanded" xmlns="http://www.w3.org/2000/svg" viewBox="0 0 400 250">
  <defs>
    <style>
      .cls-1 {
        fill: #fff;
      }

      .cls-2 {
        fill: #dfedf2;
      }

      .cls-3 {
        fill: #ea9939;
      }

      .cls-4 {
        fill: #d87625;
      }

      .cls-5 {
        fill: #f47aa0;
      }

      .cls-6 {
        fill: #6d3108;
      }

      .cls-7 {
        fill: #7a1859;
      }

      .cls-8 {
        fill: #999;
      }

      .cls-9 {
        fill: #ccc;
      }

      .cls-10 {
        fill: #dd4a8c;
      }

      .cls-11 {
        fill: #a8b6c1;
      }

      .cls-12 {
        fill: #ffd2e1;
      }
    </style>
  </defs>
  <g>
    <path class="cls-6" d="M322.88,19.49h0s-10.48,39.12-10.48,39.12c-.23.83-.52,1.59-.87,2.25-1.74,3.54-5.39,5.95-9.47,6.23-.27.02-.54.03-.8.03-3.8,0-7.29-1.85-9.46-5.05l-5.15-7.6-56.22,56.23c-1.72,1.7-3.98,2.63-6.37,2.63s-4.69-.96-6.36-2.63c-.23-.23-.45-.48-.66-.75-2.88-3.54-2.61-8.71.66-11.98l56.24-56.24-7.69-5.22c-.4-.26-.77-.56-1.12-.86-.05-.04-.09-.08-.14-.11-.33-.3-.63-.61-.92-.93l-.15-.18c-.28-.32-.54-.66-.78-1.01-.04-.06-.08-.12-.12-.18-.24-.37-.46-.75-.65-1.13-.02-.05-.04-.1-.06-.14-.2-.42-.38-.84-.52-1.27-.01-.01-.01-.03-.02-.04-.3-.91-.49-1.87-.55-2.85,0-.03-.01-.05-.01-.08-.02-.45-.02-.91.01-1.37v-.13s.01-.1.01-.14c.02-.2.05-.39.07-.58.01-.1.02-.2.04-.3.01-.03.01-.07.01-.1.59-3.51,2.68-6.42,5.65-8.1.78-.44,1.62-.79,2.49-1.04.08-.02.15-.04.22-.06l39.1-10.48c3.44-.92,7.02-.23,9.85,1.91.03.02.07.04.11.07,3.7,2.82,5.32,7.56,4.11,12.08Z"/>
    <g>
      <path class="cls-3" d="M297.71,37.75l-70.11,70.12c-.98.97-2.26,1.46-3.54,1.46s-2.56-.49-3.53-1.46c-.12-.12-.24-.25-.35-.39-1.59-1.96-1.48-4.85.35-6.68l70.11-70.12c1.96-1.95,5.12-1.95,7.07,0,.34.34.63.73.85,1.13,1.05,1.9.77,4.33-.85,5.94Z"/>
      <path class="cls-4" d="M297.71,37.75l-70.11,70.12c-.98.97-2.26,1.46-3.54,1.46s-2.56-.49-3.53-1.46c-.12-.12-.24-.25-.35-.39l78.38-75.67c1.05,1.9.77,4.33-.85,5.94Z"/>
      <path class="cls-8" d="M319.02,18.46l-10.48,39.11c-.14.51-.32,1-.55,1.44-2.44,4.93-9.58,5.69-12.88.82l-9.94-14.68c-.53-.79-1.21-1.47-2-2l-14.68-9.95c-5.32-3.59-3.94-11.77,2.26-13.43l39.1-10.48c2.42-.65,4.74-.05,6.48,1.29,2.27,1.73,3.53,4.73,2.69,7.88Z"/>
      <path class="cls-9" d="M316.33,10.58l-9.51,10.12-22.26,23.68c-.4-.47-.87-.88-1.39-1.23l-14.68-9.95c-2.42-1.63-3.45-4.22-3.28-6.7.12-1.64.76-3.24,1.88-4.5.92-1.03,2.14-1.83,3.66-2.23l39.1-10.48c2.42-.65,4.74-.05,6.48,1.29Z"/>
      <path class="cls-1" d="M316.33,10.58c-1.51-.41-35.1,31.26-35.1,31.26l3.33,2.54,31.77-33.8Z"/>
    </g>
  </g>
  <g>
    <path class="cls-5" d="M205.05,198.86s-81.89-39.94-80.43-94.72c.06-2.36.28-4.75.67-7.17.59-4.68,2.65-10.45,4.05-13.75,13.23-31.19,57.24-33.78,75.72-5.43,11.01-16.89,31.07-22.79,48.28-18.22,11.7,3.09,22.09,11.03,27.44,23.65,1.4,3.3,3.47,9.07,4.05,13.75,9.34,58.44-79.76,101.89-79.76,101.89Z"/>
    <path class="cls-10" d="M205.05,198.86s-81.89-39.94-80.43-94.72c2.37,12.49,10.03,23.77,19.57,32.32,10.83,9.72,24.02,16.38,37.15,22.64,8.86,4.22,18.26,8.4,28.04,7.68,9.28-.68,17.63-5.69,25.3-10.97,11.84-8.14,23.21-17.43,31.2-29.37,8-11.95,12.32-26.92,9.13-40.93-2.61-11.43-10.94-21.77-21.69-25.94,11.7,3.09,22.09,11.03,27.44,23.65,1.4,3.3,3.47,9.07,4.05,13.75,9.34,58.44-79.76,101.89-79.76,101.89Z"/>
    <path class="cls-12" d="M172.44,61.7c-17.96,9.85-30.7,28.65-33.2,48.98-2.49,20.33,5.33,41.66,20.38,55.55-20.24-12.31-33.89-34.83-35.46-58.46-.56-8.46.38-17.14,3.82-24.89,3.98-8.97,11.34-16.39,20.27-20.46,8.93-4.07,19.36-4.75,28.74-1.88"/>
    <path class="cls-7" d="M205.05,200.86c-.3,0-.6-.07-.88-.2-.23-.11-22.75-11.19-43.81-29.31-28.17-24.25-40.98-50.08-37.05-74.69.56-4.53,2.53-10.33,4.18-14.21,6.33-14.93,20.01-24.71,36.59-26.18,16.11-1.43,31.54,5.44,40.97,18.04,9.43-12.6,24.86-19.47,40.97-18.04,16.59,1.47,30.27,11.26,36.59,26.18,1.65,3.89,3.62,9.68,4.19,14.28,3.93,24.55-8.89,50.38-37.06,74.62-21.06,18.13-43.59,29.2-43.81,29.31-.28.13-.58.2-.88.2ZM168.27,60.08c-1.27,0-2.55.06-3.84.17-15.08,1.33-27.52,10.22-33.26,23.76-1.54,3.64-3.38,9.02-3.9,13.21-8.52,53.33,68.62,94.7,77.78,99.4,9.16-4.71,86.3-46.1,77.79-99.33-.53-4.26-2.37-9.64-3.91-13.28-5.74-13.54-18.18-22.42-33.27-23.76-15.62-1.39-30.54,5.76-38.94,18.64-.37.57-1,.91-1.68.91h0c-.68,0-1.31-.34-1.68-.91-7.7-11.82-20.91-18.81-35.1-18.81Z"/>
    <path class="cls-12" d="M148.58,76.6c-5.35,4.48-8.84,11.13-9.49,18.08-.38,4.07.22,8.32,2.32,11.83,3.73,6.23,11.78,9.02,18.96,7.89,7.18-1.13,13.47-5.59,18.32-11,3.38-3.77,6.23-8.15,7.44-13.07,1.21-4.92.6-10.43-2.38-14.52-7.78-10.68-26.66-6.33-35.16.79Z"/>
  </g>
  <g>
    <path class="cls-6" d="M196.75,140.36c0,.15-.01.31-.02.46,0,.11,0,.22-.01.33-.02.15-.04.3-.07.46-.01.11-.02.21-.05.32-.02.16-.07.31-.11.46-.02.1-.04.21-.07.31-.05.15-.11.3-.17.46-.03.1-.06.2-.1.3-.07.15-.15.3-.22.46-.04.09-.08.18-.13.27-.08.16-.18.31-.28.47-.05.08-.09.16-.14.23-.12.17-.24.33-.37.5-.05.06-.09.12-.13.18-.19.22-.38.43-.59.64h0s-33.64,33.64-33.64,33.64c.4.81.78,1.67,1.11,2.6,1.34,3.73,2.05,8.16,2.05,12.84,0,10.48-6.57,22.42-12.34,22.42-.68,0-1.34-.14-1.97-.39-2.31,6.32-6.4,11.86-10.39,11.86-.32,0-.64-.04-.95-.09-2.28,6.49-6.47,12.26-10.55,12.26-5.8,0-11.3-10.39-12.18-19.35h0v-.03h0c-.11-1.03-.16-2.03-.16-3.04,0-.11,0-.21.01-.32-1.34-.39-2.58-1.1-3.62-2.07-.07-.07-.15-.14-.22-.21-.1-.1-.22-.23-.34-.38-.02-.02-.04-.03-.06-.06-.69-.78-1.21-1.66-1.58-2.58-.33.01-.66.01-1,.01-10.47,0-22.42-6.57-22.42-12.34,0-4.26,5.83-8.7,13.11-10.91-.3-.65-.47-1.29-.47-1.91,0-4.06,5.29-8.28,12.08-10.58-.08-.36-.13-.71-.13-1.07,0-5.99,11.53-12.34,22.42-12.34,5.37,0,10.77.99,14.92,2.91l33.59-33.59c2.91-2.93,7.31-3.2,10.94-.67.06.05.13.09.19.14.44.32.86.68,1.27,1.08.07.08.15.16.22.24t.01.01s.01,0,.01.01l.06.06c.09.1.17.2.26.31.1.11.2.22.29.34.09.12.18.24.26.37.09.11.17.23.25.34.08.13.15.26.23.39.07.12.14.23.2.35.07.14.13.27.19.41.06.12.12.23.17.35.05.14.1.28.15.42.04.12.09.24.12.35.05.15.08.29.12.44.03.12.06.23.08.35.03.15.05.3.07.44.02.12.04.23.06.35.01.15.02.3.02.45,0,.11.02.23.02.34Z"/>
    <g>
      <path class="cls-1" d="M135.95,218.93c0,1.22-.09,2.4-.26,3.55-1.19,8.47-6.3,14.87-8.08,14.87-2.29,0-7.34-6.86-8.2-15.77-.09-.87-.14-1.75-.14-2.65,0-10.17,3.74-18.42,8.34-18.42,1.22,0,2.38.58,3.42,1.62,1.18,1.16,2.21,2.93,3.03,5.11,1.18,3.17,1.89,7.25,1.89,11.69Z"/>
      <path class="cls-1" d="M108.46,209.32c-10.17,0-18.42-6.32-18.42-8.34,0-2.51,8.25-8.34,18.42-8.34s18.42,3.73,18.42,8.34-8.25,8.34-18.42,8.34Z"/>
      <path class="cls-1" d="M123.1,197.61c-10.17,0-20.42-7.43-20.42-9.45,0-2.51,8.25-8.34,18.42-8.34s18.42,3.73,18.42,8.34-6.25,9.45-16.42,9.45Z"/>
      <path class="cls-1" d="M133.05,184.86c-10.17,0-18.42-6.32-18.42-8.34,0-2.51,8.25-8.34,18.42-8.34s18.42,3.73,18.42,8.34-8.25,8.34-18.42,8.34Z"/>
      <path class="cls-1" d="M147.45,206.76c0,1.05-.07,2.08-.2,3.09-1.06,8.71-6.33,15.33-8.14,15.33-.87,0-2.13-.99-3.42-2.7-2-2.66-4.03-7.07-4.69-12.25-.15-1.13-.23-2.28-.23-3.47,0-1.6.09-3.15.26-4.63.94-7.93,4.2-13.79,8.08-13.79,1.56,0,3.01.94,4.26,2.58.94,1.24,1.77,2.88,2.43,4.82,1.04,3.08,1.65,6.89,1.65,11.02Z"/>
      <path class="cls-1" d="M159.81,195.29c0,10.17-6.32,18.42-8.34,18.42-1.04,0-2.67-1.44-4.22-3.86-1.78-2.8-3.46-6.93-3.96-11.65-.1-.95-.16-1.92-.16-2.91,0-1.51.08-2.97.24-4.37.89-8.07,4.18-14.06,8.1-14.06,2.64,0,5,2.71,6.53,6.95,1.13,3.14,1.81,7.14,1.81,11.48Z"/>
      <path class="cls-2" d="M158,183.81l-12.2,11.93-2.51,2.46-9.23,9.04-3.06,2.99-11.59,11.35c-.09-.87-.14-1.75-.14-2.65,0-10.17,3.74-18.42,8.34-18.42,1.22,0,2.38.58,3.42,1.62.94-7.93,4.2-13.79,8.08-13.79,1.56,0,3.01.94,4.26,2.58.89-8.07,4.18-14.06,8.1-14.06,2.64,0,5,2.71,6.53,6.95Z"/>
      <path class="cls-11" d="M147.38,207.46h-.03c-.55-.01-.99-.47-.97-1.03.14-5.41-1.32-10.93-4.13-15.55-.29-.47-.14-1.09.34-1.37.47-.29,1.09-.14,1.37.34,3,4.95,4.57,10.86,4.42,16.64-.01.54-.46.97-1,.97Z"/>
      <path class="cls-11" d="M134.87,218.03c-.51,0-.95-.39-1-.92-.45-5.2-1.93-10.42-4.3-15.07-.25-.49-.05-1.09.44-1.34.49-.25,1.09-.05,1.34.44,2.48,4.88,4.05,10.35,4.51,15.81.05.55-.36,1.03-.91,1.08-.03,0-.06,0-.09,0Z"/>
      <path class="cls-11" d="M129.87,197.21c-.14,0-.28-.03-.41-.09-5.71-2.56-12.03-3.68-18.28-3.24-.55.04-1.03-.38-1.07-.93-.04-.55.38-1.03.93-1.07,6.57-.47,13.23.71,19.24,3.41.5.23.73.82.5,1.32-.17.37-.53.59-.91.59Z"/>
      <path class="cls-11" d="M138.76,185.54c-.17,0-.34-.04-.5-.13-4.24-2.44-9.05-3.98-13.92-4.45-.55-.05-.95-.54-.9-1.09.05-.55.54-.97,1.09-.9,5.15.49,10.25,2.12,14.73,4.71.48.28.64.89.37,1.37-.19.32-.52.5-.87.5Z"/>
      <path class="cls-3" d="M191.46,143.39l-70.12,70.11c-.97.98-2.25,1.47-3.53,1.47s-2.54-.48-3.52-1.46c0-.01-.02-.01-.02-.01-.05-.05-.11-.11-.15-.17-1.8-1.96-1.75-5,.15-6.9,0,0,.07-.07.21-.2l69.91-69.91c1.66-1.67,3.97-1.51,5.82-.22h0c.32.22.63.48.92.77.05.05.1.1.15.16,1.82,1.93,2.08,4.45.18,6.36Z"/>
      <path class="cls-4" d="M191.46,143.39l-70.12,70.11c-.97.98-2.25,1.47-3.53,1.47s-2.54-.48-3.52-1.46c0-.01-.02-.01-.02-.01-.05-.05-.11-.11-.15-.17l77.16-76.3c1.82,1.93,2.08,4.45.18,6.36Z"/>
    </g>
  </g>
</svg>