<?xml version="1.0" encoding="UTF-8"?>
<svg id="Expanded" xmlns="http://www.w3.org/2000/svg" viewBox="0 0 400 250">
  <defs>
    <style>
      .cls-1 {
        fill: #fff;
      }

      .cls-2 {
        fill: #ea9939;
      }

      .cls-3 {
        fill: #d87625;
      }

      .cls-4 {
        fill: #f4b545;
      }

      .cls-5 {
        fill: #f47aa0;
      }

      .cls-6 {
        fill: #aa5217;
      }

      .cls-7 {
        fill: #6d3108;
      }

      .cls-8 {
        fill: #666;
      }

      .cls-9 {
        fill: #79cdf6;
      }

      .cls-10 {
        fill: #ffe277;
      }

      .cls-11 {
        fill: #333;
      }

      .cls-12 {
        fill: #999;
      }

      .cls-13 {
        fill: gray;
      }

      .cls-14 {
        fill: #d27cf2;
      }
    </style>
  </defs>
  <g>
    <path class="cls-11" d="M341.3,20.95v6.97c0,7.13-5.39,13.03-12.31,13.84v131.48c0,9.08-7.38,16.46-16.46,16.46h-184.39c-9.07,0-16.46-7.38-16.46-16.46V41.76c-6.92-.81-12.31-6.71-12.31-13.84v-6.97c0-7.69,6.25-13.95,13.95-13.95h214.04c7.69,0,13.94,6.26,13.94,13.95Z"/>
    <rect class="cls-8" x="115.68" y="17.56" width="209.31" height="168.14" rx="12.46" ry="12.46"/>
    <rect class="cls-13" x="115.68" y="17.56" width="209.31" height="163.79" rx="12.46" ry="12.46"/>
    <rect class="cls-1" x="126.24" y="28.11" width="188.2" height="142.68" rx="2.46" ry="2.46"/>
    <rect class="cls-12" x="103.37" y="11" width="233.94" height="26.86" rx="9.95" ry="9.95"/>
    <rect class="cls-13" x="103.37" y="14.31" width="233.94" height="23.55" rx="9.95" ry="9.95"/>
    <rect class="cls-8" x="115.68" y="37.86" width="209.31" height="5.4"/>
    <g>
      <path class="cls-9" d="M269.8,118.54c-3.89,15.8-15.37,29.24-31.41,35.08l-17.24-47.04,48.65,11.96Z"/>
      <path class="cls-14" d="M238.39,153.62c-1.53.56-3.12,1.06-4.74,1.47-19.77,5.09-39.83-2.35-51.76-17.37-4.23-5.33-7.45-11.62-9.26-18.65-.22-.83-.41-1.66-.57-2.49l49.09-10.01,17.24,47.04Z"/>
      <path class="cls-5" d="M267.36,87.22l-46.21,19.36-49.09,10.01c-1.53-7.48-1.3-14.95.44-21.97,3.89-15.8,15.37-29.24,31.41-35.08,1.53-.57,3.12-1.06,4.74-1.48,19.77-5.09,39.83,2.36,51.76,17.37,2.8,3.53,5.16,7.48,6.95,11.79Z"/>
      <path class="cls-10" d="M269.8,118.54l-48.65-11.96,46.21-19.36c.93,2.19,1.7,4.48,2.31,6.86.21.83.41,1.66.57,2.49.23,1.13.42,2.25.57,3.37.86,6.35.47,12.64-1.01,18.6Z"/>
    </g>
  </g>
  <g>
    <path class="cls-11" d="M100.17,93.95l-4.65,1.77c-1.38.52-2.29,1.73-2.51,3.09l-12.58,4.78c-2.99,1.13-4.99,4.04-4.99,7.24v3.04c0,1.1.9,2,2,2s2-.9,2-2v-3.04c0-1.54.97-2.95,2.41-3.5l12.57-4.78c.71.57,1.59.91,2.52.91.47,0,.95-.08,1.42-.26l4.65-1.77c2.06-.79,3.1-3.09,2.32-5.16-.79-2.06-3.09-3.1-5.16-2.32Z"/>
    <path class="cls-11" d="M156.06,103.59l-12.58-4.78c-.22-1.36-1.13-2.57-2.51-3.09l-4.65-1.77c-2.07-.79-4.38.25-5.16,2.32-.78,2.07.25,4.38,2.32,5.16l4.65,1.77c.47.18.95.26,1.42.26.92,0,1.81-.33,2.52-.91l12.57,4.78c1.44.55,2.42,1.96,2.42,3.5v3.04c0,1.1.9,2,2,2s2-.9,2-2v-3.04c0-3.2-2.01-6.1-4.99-7.24Z"/>
  </g>
  <g>
    <path class="cls-7" d="M177.64,124.85l-4.79,28.23-1.78,11.07c-.82,5.12-4.97,8.83-9.87,8.83h-9.95l-4.95,42.7h1.82c6.21,0,11.25,5.05,11.25,11.26v10.76c0,2.21-1.79,4-4,4h-74.25c-2.21,0-4-1.79-4-4v-10.76c0-6.21,5.04-11.26,11.25-11.26h1.76l-.32-2.51c-.03-.28-.04-.56-.01-.83l-4.56-39.36h-9.95c-4.9,0-9.05-3.71-9.87-8.83l-1.8-11.14-4.77-28.16c-.15-.87-.19-1.76-.12-2.66.12-1.54.57-2.99,1.32-4.34,1.83-3.27,5.23-5.29,8.89-5.29h98.61c3.67,0,7.07,2.02,8.89,5.28.72,1.28,1.18,2.76,1.32,4.26v.04s0,.03.01.04c.06.91.02,1.8-.13,2.67Z"/>
    <g>
      <path class="cls-4" d="M173.7,124.18l-4.81,28.38c-.53,3.11-3.11,5.37-6.14,5.37h-89c-3.03,0-5.62-2.26-6.14-5.37l-4.81-28.38c-.1-.58-.12-1.15-.08-1.7.08-.97.38-1.88.83-2.69,1.07-1.91,3.06-3.23,5.39-3.23h98.62c2.33,0,4.32,1.31,5.39,3.23.45.8.74,1.72.83,2.68.04.56.02,1.13-.08,1.71Z"/>
      <path class="cls-2" d="M173.7,124.18l-4.81,28.38c-.53,3.11-3.11,5.37-6.14,5.37h-89c-3.03,0-5.62-2.26-6.14-5.37l-4.81-28.38c-.1-.58-.12-1.15-.08-1.7,1.16-1.35,2.85-2.21,4.76-2.21h101.54c1.91,0,3.59.85,4.76,2.2.04.56.02,1.13-.08,1.71Z"/>
      <path class="cls-3" d="M161.2,168.98h-85.91c-2.92,0-5.42-2.3-5.93-5.46l-4.64-28.91c-.65-4.05,2.18-7.76,5.93-7.76h95.2c3.74,0,6.57,3.71,5.93,7.76l-4.64,28.91c-.51,3.16-3.01,5.46-5.93,5.46Z"/>
      <path class="cls-4" d="M148.12,219.68h-59.76c-4.01,0-7.25,3.25-7.25,7.25v10.77h74.26v-10.77c0-4.01-3.25-7.25-7.25-7.25Z"/>
      <path class="cls-2" d="M148.12,223.3h-59.76c-4.01,0-7.25,3.25-7.25,7.25v7.16h74.26v-7.16c0-4.01-3.25-7.25-7.25-7.25Z"/>
      <rect class="cls-3" x="81.11" y="234.42" width="74.26" height="3.28"/>
      <path class="cls-2" d="M144.57,140.01h-52.66c-3.43,0-6.07,3.46-5.62,7.35l8.38,72.32h47.14l8.38-72.32c.45-3.89-2.19-7.35-5.62-7.35Z"/>
      <polygon class="cls-3" points="142.63 212.66 93.78 212.66 94.68 219.68 141.81 219.68 142.63 212.66"/>
      <path class="cls-6" d="M86.26,146.51c-.54,0-.99-.44-1-.98-.04-2.08,1.31-4.15,3.42-5.28,1.96-1.04,4.18-1.17,5.84-1.17,1.84,0,28.43.05,28.43.05v2s-26.59-.04-28.44-.05c-2.17-.02-3.67.28-4.89.93-1.19.64-2.39,1.96-2.36,3.48,0,.55-.43,1.01-.98,1.02h-.02Z"/>
      <path class="cls-6" d="M133.67,141.41h-4.07c-.55,0-1-.45-1-1s.45-1,1-1h4.07c.55,0,1,.45,1,1s-.45,1-1,1Z"/>
      <path class="cls-6" d="M148.59,164.69s-.06,0-.1,0c-.55-.05-.95-.54-.9-1.09l1.46-15.2c.17-1.73.35-3.68-.32-5.29-.53-1.26-1.33-2.04-3.7-2.04-.55,0-1-.45-1-1s.45-1,1-1c2.89,0,4.6,1.01,5.55,3.26.87,2.07.65,4.39.47,6.26l-1.46,15.2c-.05.52-.48.9-.99.9Z"/>
      <path class="cls-6" d="M138.51,219.75h-41.18c-.55,0-1-.45-1-1s.45-1,1-1h41.18c.55,0,1,.45,1,1s-.45,1-1,1Z"/>
    </g>
  </g>
</svg>