<?xml version="1.0" encoding="UTF-8"?>
<svg id="Expanded" xmlns="http://www.w3.org/2000/svg" viewBox="0 0 400 250">
  <defs>
    <style>
      .cls-1 {
        fill: #f43f3f;
      }

      .cls-2 {
        fill: #666;
      }

      .cls-3 {
        fill: #b51933;
      }

      .cls-4 {
        fill: gray;
      }

      .cls-5 {
        fill: #7a1839;
      }
    </style>
  </defs>
  <g>
    <g>
      <path class="cls-2" d="M111.32,43.94c.23,0,.42.07.56.21s.21.36.21.66-.07.52-.2.66-.32.21-.56.21h-4.66c-.32,0-.56-.09-.73-.26s-.26-.42-.26-.73v-8.87c0-.31.09-.54.27-.71s.45-.25.82-.25.65.08.83.25.27.4.27.71v8.11h3.48Z"/>
      <path class="cls-2" d="M114.85,44.77c-.06.18-.11.33-.16.46s-.12.22-.2.3c-.07.07-.17.13-.28.18s-.25.07-.4.07c-.14,0-.27-.02-.4-.06s-.25-.1-.36-.18-.2-.17-.27-.29-.1-.25-.1-.39c0-.08.01-.17.04-.25s.06-.21.12-.38l2.74-7.88c.05-.12.09-.24.13-.34.04-.1.09-.19.13-.28s.09-.16.14-.23c.05-.07.11-.13.17-.2.13-.14.3-.24.5-.31s.45-.11.75-.11.55.04.75.11c.2.07.37.17.5.31.06.06.12.13.17.2.05.07.1.14.14.23s.09.18.13.28c.04.1.09.21.13.34l2.75,7.84c.06.18.1.31.12.39s.03.16.03.23c0,.16-.04.3-.11.42s-.17.22-.28.3-.24.14-.38.18-.28.06-.41.06c-.15,0-.29-.02-.41-.07s-.22-.11-.3-.2c-.08-.08-.14-.17-.19-.29s-.1-.26-.16-.44l-.56-1.62h-3.95l-.52,1.61ZM118.81,41.5l-1.03-3.08c-.07-.21-.14-.41-.2-.6-.06-.18-.11-.35-.15-.5-.05-.17-.1-.32-.13-.47h-.03c-.04.15-.08.3-.12.47-.04.15-.09.31-.14.5-.05.18-.11.38-.18.6l-.97,3.08h2.95Z"/>
      <path class="cls-2" d="M123.3,37.95c0-.45.08-.87.25-1.26s.42-.72.75-1.01.74-.5,1.23-.66,1.06-.24,1.71-.24c.32,0,.62.02.88.06.27.04.5.09.71.16.21.06.39.14.54.22s.26.17.35.25c.12.11.19.23.23.33s.06.23.06.37c0,.24-.07.42-.21.55-.14.13-.32.2-.54.2-.13,0-.25-.02-.37-.07s-.25-.1-.41-.16-.34-.11-.55-.16-.48-.07-.79-.07c-.29,0-.54.03-.74.09-.21.06-.38.15-.52.25-.14.11-.24.24-.31.39-.07.15-.1.32-.1.5,0,.26.07.48.21.65.14.17.33.32.56.45s.5.24.8.34c.3.1.6.21.91.32s.61.25.91.4c.3.15.56.35.8.58.23.23.42.51.56.85.14.33.21.74.21,1.21s-.09.93-.26,1.34c-.17.41-.43.76-.78,1.06s-.77.53-1.29.7c-.52.17-1.12.25-1.8.25-.37,0-.69-.02-.99-.07-.29-.04-.55-.1-.78-.17-.22-.07-.41-.14-.57-.23-.15-.08-.27-.16-.35-.24-.11-.11-.19-.22-.24-.33s-.07-.24-.07-.39c0-.25.07-.43.21-.57s.32-.2.54-.2c.13,0,.25.03.37.08s.26.11.43.17.37.12.61.17.55.08.93.08c.32,0,.59-.04.82-.11s.42-.17.57-.29.26-.27.34-.44.11-.36.11-.56c0-.28-.07-.51-.21-.7s-.33-.34-.56-.48-.5-.25-.79-.36-.6-.21-.91-.33-.61-.25-.91-.39-.56-.33-.79-.55-.42-.5-.56-.81-.21-.7-.21-1.16Z"/>
      <path class="cls-2" d="M131.88,36.68c-.23,0-.42-.07-.55-.21s-.2-.36-.2-.66.07-.52.2-.66.32-.21.56-.21h7.1c.23,0,.42.07.56.21s.2.36.2.66-.07.52-.2.66-.32.21-.55.21h-2.46v8.11c0,.31-.09.54-.27.71s-.45.25-.82.25-.65-.08-.82-.25-.27-.4-.27-.71v-8.11h-2.46Z"/>
      <path class="cls-4" d="M111.08,71.96c.22,0,.4.07.54.22s.2.36.2.64-.07.5-.2.65-.31.22-.54.22h-5.34c-.36,0-.64-.1-.84-.29s-.3-.45-.3-.77c0-.21.04-.41.12-.59s.21-.36.39-.56l1.88-2.09c.4-.44.74-.82,1.02-1.14s.52-.62.7-.89.31-.53.4-.77.13-.5.13-.77c0-.47-.14-.83-.41-1.07s-.7-.37-1.28-.37c-.23,0-.43.02-.61.05s-.34.08-.48.12-.27.09-.39.12-.22.05-.33.05c-.19,0-.34-.06-.46-.18s-.18-.28-.18-.49c0-.23.08-.42.23-.58.09-.09.21-.18.38-.26s.36-.16.59-.23.5-.13.79-.17.62-.07.96-.07c.57,0,1.07.07,1.5.2s.78.32,1.06.55.49.53.63.86.21.71.21,1.12-.06.82-.18,1.18-.3.74-.55,1.11-.55.78-.93,1.2-.82.91-1.33,1.45l-1.45,1.53h4.03Z"/>
      <path class="cls-4" d="M115.48,72.28c.3,0,.56-.04.79-.12s.43-.2.59-.35.28-.33.37-.54.12-.43.12-.68-.04-.5-.13-.7-.24-.38-.45-.53-.5-.25-.86-.33-.82-.12-1.36-.12c-.1,0-.19-.01-.25-.03s-.12-.05-.17-.09c-.07-.07-.13-.16-.16-.28s-.05-.24-.05-.37.02-.25.05-.38.09-.22.16-.29c.04-.04.1-.07.16-.09s.15-.03.26-.03c.45,0,.83-.04,1.14-.12s.57-.19.77-.34.34-.32.43-.52.13-.42.13-.67c0-.42-.12-.74-.38-.97s-.65-.34-1.19-.34c-.23,0-.43.02-.6.05s-.33.08-.46.12-.26.08-.37.12-.21.05-.31.05c-.19,0-.35-.06-.47-.18s-.18-.28-.18-.49c0-.12.02-.23.06-.32s.1-.18.18-.26c.08-.08.2-.17.36-.25s.35-.16.57-.23.48-.13.76-.17.59-.06.93-.06c.55,0,1.02.06,1.43.19s.75.31,1.02.54.47.51.61.83.2.68.2,1.08c0,.29-.04.56-.12.81s-.2.48-.35.69-.33.4-.54.56-.43.3-.68.41v.02c.32.08.6.19.86.34s.47.33.65.55.31.47.41.76.14.61.14.96c0,.47-.09.91-.27,1.32s-.44.76-.78,1.06-.76.53-1.26.7-1.07.25-1.71.25c-.33,0-.62-.02-.89-.06s-.5-.09-.7-.15-.37-.13-.51-.2-.24-.15-.32-.22c-.09-.09-.17-.19-.21-.3s-.07-.23-.07-.38c0-.22.06-.39.19-.52s.29-.19.48-.19c.11,0,.22.02.33.07s.24.1.38.16.32.11.52.16.46.07.76.07Z"/>
      <path class="cls-4" d="M120.94,72.51c0-.2.04-.38.11-.55s.17-.31.29-.43.27-.22.43-.29.35-.11.55-.11.37.03.54.1.3.16.42.28.21.26.27.43.1.34.1.54-.03.38-.1.55-.16.31-.29.43-.27.21-.43.29-.35.11-.55.11-.38-.03-.54-.1-.3-.16-.42-.28-.21-.26-.28-.42-.1-.34-.1-.54Z"/>
      <path class="cls-4" d="M127.92,72.28c.3,0,.56-.04.79-.12s.43-.2.59-.35.28-.33.37-.54.12-.43.12-.68-.04-.5-.13-.7-.24-.38-.45-.53-.5-.25-.86-.33-.82-.12-1.36-.12c-.1,0-.19-.01-.25-.03s-.12-.05-.17-.09c-.07-.07-.13-.16-.16-.28s-.05-.24-.05-.37.02-.25.05-.38.09-.22.16-.29c.04-.04.1-.07.16-.09s.15-.03.26-.03c.45,0,.83-.04,1.14-.12s.57-.19.77-.34.34-.32.43-.52.13-.42.13-.67c0-.42-.12-.74-.38-.97s-.65-.34-1.19-.34c-.23,0-.43.02-.6.05s-.33.08-.46.12-.26.08-.37.12-.21.05-.31.05c-.19,0-.35-.06-.47-.18s-.18-.28-.18-.49c0-.12.02-.23.06-.32s.1-.18.18-.26c.08-.08.2-.17.36-.25s.35-.16.57-.23.48-.13.76-.17.59-.06.93-.06c.55,0,1.02.06,1.43.19s.75.31,1.02.54.47.51.61.83.2.68.2,1.08c0,.29-.04.56-.12.81s-.2.48-.35.69-.33.4-.54.56-.43.3-.68.41v.02c.32.08.6.19.86.34s.47.33.65.55.31.47.41.76.14.61.14.96c0,.47-.09.91-.27,1.32s-.44.76-.78,1.06-.76.53-1.26.7-1.07.25-1.71.25c-.33,0-.62-.02-.89-.06s-.5-.09-.7-.15-.37-.13-.51-.2-.24-.15-.32-.22c-.09-.09-.17-.19-.21-.3s-.07-.23-.07-.38c0-.22.06-.39.19-.52s.29-.19.48-.19c.11,0,.22.02.33.07s.24.1.38.16.32.11.52.16.46.07.76.07Z"/>
      <path class="cls-4" d="M133.46,64.69c-.23,0-.41-.07-.55-.22s-.2-.37-.2-.66.07-.52.2-.66.32-.22.55-.22h5.01c.19,0,.36.02.5.07s.25.11.34.2.15.19.2.3.06.25.06.39c0,.18-.02.36-.07.52s-.12.35-.21.55c-.35.73-.68,1.45-.98,2.15s-.58,1.38-.83,2.04-.48,1.29-.68,1.9-.38,1.19-.54,1.73c-.05.17-.1.31-.16.44s-.13.23-.21.31-.18.14-.29.18-.23.06-.37.06c-.15,0-.29-.02-.41-.06s-.23-.09-.32-.17-.16-.17-.21-.28-.07-.24-.07-.39c0-.11.01-.22.03-.33s.05-.23.09-.38c.12-.5.28-1.05.47-1.64s.4-1.2.64-1.84.49-1.29.77-1.96.57-1.35.87-2.04h-3.62Z"/>
      <path class="cls-4" d="M105.12,97.14c0-1.04.12-1.95.36-2.74s.58-1.46,1.02-2,.97-.95,1.6-1.22,1.32-.41,2.09-.41c.23,0,.44.01.62.04s.33.05.46.09.24.08.32.13.15.1.2.14c.07.07.13.15.16.24s.05.2.05.32c0,.23-.07.41-.2.54s-.29.19-.49.19c-.07,0-.14,0-.21-.01s-.15-.02-.23-.03-.17-.02-.28-.03-.23-.01-.37-.01c-.39,0-.75.06-1.08.18s-.62.31-.87.56-.46.58-.63.98-.29.88-.37,1.45c.16-.11.35-.21.56-.3.18-.08.41-.15.68-.21s.57-.1.92-.1c.5,0,.96.08,1.36.23s.74.37,1.02.64.49.62.64,1.02.22.85.22,1.35c0,.56-.09,1.07-.26,1.52s-.42.84-.75,1.16-.72.57-1.18.74-.99.26-1.57.26-1.14-.1-1.61-.29-.87-.48-1.2-.88-.57-.88-.75-1.47-.26-1.28-.26-2.07ZM108.9,96.54c-.27,0-.5.03-.7.1s-.38.14-.53.22c-.17.09-.33.2-.46.31,0,.58.05,1.06.14,1.45s.22.7.38.94.35.41.57.51.47.15.74.15c.23,0,.44-.04.62-.12s.35-.2.48-.36.24-.36.32-.6.11-.51.11-.82-.04-.55-.11-.77-.18-.41-.33-.56-.32-.27-.52-.34-.44-.12-.71-.12Z"/>
      <path class="cls-4" d="M114.05,92.69c-.23,0-.41-.07-.55-.22s-.2-.37-.2-.66.07-.52.2-.66.32-.22.55-.22h5.01c.19,0,.36.02.5.07s.25.11.34.2.15.19.2.3.06.25.06.39c0,.18-.02.36-.07.52s-.12.35-.21.55c-.35.73-.68,1.45-.98,2.15s-.58,1.38-.83,2.04-.48,1.29-.68,1.9-.38,1.19-.54,1.73c-.05.17-.1.31-.16.44s-.13.23-.21.31-.18.14-.29.18-.23.06-.37.06c-.15,0-.29-.02-.41-.06s-.23-.09-.32-.17-.16-.17-.21-.28-.07-.24-.07-.39c0-.11.01-.22.03-.33s.05-.23.09-.38c.12-.5.28-1.05.47-1.64s.4-1.2.64-1.84.49-1.29.77-1.96.57-1.35.87-2.04h-3.62Z"/>
      <path class="cls-4" d="M117.95,100.51c0-.2.04-.38.11-.55s.17-.31.29-.43.27-.22.43-.29.35-.11.55-.11.37.03.54.1.3.16.42.28.21.26.27.43.1.34.1.54-.03.38-.1.55-.16.31-.29.43-.27.21-.43.29-.35.11-.55.11-.38-.03-.54-.1-.3-.16-.42-.28-.21-.26-.28-.42-.1-.34-.1-.54Z"/>
      <path class="cls-4" d="M121.57,96.45c0-.95.11-1.79.33-2.5s.53-1.3.93-1.78.87-.83,1.41-1.06,1.14-.35,1.79-.35,1.21.11,1.74.32.97.55,1.35.99.67,1.01.87,1.68.31,1.48.31,2.4-.11,1.79-.33,2.5-.53,1.31-.93,1.78-.87.82-1.41,1.06-1.14.35-1.79.35-1.22-.11-1.74-.32-.98-.55-1.35-.99-.67-1.01-.87-1.68-.31-1.48-.31-2.4ZM123.71,96.29c0,.72.06,1.33.18,1.82s.29.9.49,1.21.44.53.71.67.55.21.85.21.58-.07.85-.2.5-.36.71-.66.36-.71.48-1.2.18-1.1.18-1.81-.06-1.33-.18-1.82-.29-.9-.49-1.21-.44-.53-.71-.67-.56-.21-.86-.21-.58.07-.85.2-.5.36-.7.66-.36.71-.48,1.2-.18,1.1-.18,1.81Z"/>
      <path class="cls-4" d="M131.83,99.04c0-.33.05-.64.16-.91.1-.27.25-.52.43-.75s.4-.44.64-.63c.25-.19.51-.37.8-.54-.25-.15-.48-.31-.7-.49s-.4-.38-.56-.59c-.16-.21-.28-.44-.37-.69s-.14-.52-.14-.81c0-.41.08-.79.23-1.14.15-.35.38-.66.69-.91.3-.26.68-.46,1.13-.61s.97-.22,1.56-.22c.54,0,1.02.07,1.43.2.41.13.76.32,1.04.55.28.23.49.51.63.82.14.31.21.64.21.99,0,.32-.05.6-.14.85-.09.25-.22.48-.38.69s-.35.4-.57.57c-.22.17-.46.34-.71.49.28.16.55.33.8.52.25.19.47.41.66.64.19.23.34.48.45.75.11.27.17.57.17.88,0,.46-.08.89-.24,1.27-.16.38-.4.71-.72.99-.32.27-.72.48-1.21.63s-1.05.22-1.71.22c-.59,0-1.11-.07-1.56-.21s-.82-.34-1.12-.59c-.3-.25-.52-.55-.67-.89-.15-.34-.23-.72-.23-1.12ZM133.88,98.85c0,.22.04.42.11.6s.18.33.32.46c.14.13.32.23.53.3s.45.11.73.11.51-.03.71-.1c.2-.07.37-.16.51-.29s.24-.28.31-.45.11-.37.11-.58-.05-.42-.14-.6-.22-.35-.38-.5c-.16-.15-.35-.3-.58-.43s-.47-.26-.73-.38c-.23.14-.44.27-.62.41s-.34.28-.47.43c-.13.15-.23.31-.3.47s-.11.35-.11.55ZM134.17,93.5c0,.2.04.38.11.54.07.16.17.3.3.44s.29.26.48.37.4.23.64.34c.2-.12.38-.24.54-.36s.29-.25.4-.38.19-.27.25-.43c.06-.15.09-.31.09-.49s-.03-.34-.09-.49c-.06-.15-.16-.28-.28-.39s-.27-.19-.45-.25-.38-.09-.61-.09-.41.03-.59.09-.32.14-.43.25c-.12.1-.21.23-.27.38-.06.15-.09.31-.09.48Z"/>
      <path class="cls-4" d="M106.17,126.85c-.42,0-.73-.1-.94-.3s-.31-.48-.31-.84c0-.09,0-.18.02-.27s.04-.17.07-.25.07-.17.12-.27.11-.2.19-.31l3.16-4.7c.14-.2.27-.38.41-.52s.28-.25.43-.34.31-.15.48-.18.36-.05.56-.05c.44,0,.77.1.99.29s.33.48.33.85v5.25h.96c.22,0,.39.07.52.21s.2.34.2.61-.07.48-.2.62-.3.21-.52.21h-.96v1.98c0,.31-.08.54-.24.69s-.42.23-.78.23-.6-.08-.76-.23-.25-.38-.25-.69v-1.98h-3.48ZM109.65,120.99l-2.8,4.21h2.8v-4.21Z"/>
      <path class="cls-4" d="M120.28,127.96c.22,0,.4.07.54.22s.2.36.2.64-.07.5-.2.65-.31.22-.54.22h-5.34c-.36,0-.64-.1-.84-.29s-.3-.45-.3-.77c0-.21.04-.41.12-.59s.21-.36.39-.56l1.88-2.09c.4-.44.74-.82,1.02-1.14s.52-.62.7-.89.31-.53.4-.77.13-.5.13-.77c0-.47-.14-.83-.41-1.07s-.7-.37-1.28-.37c-.23,0-.43.02-.61.05s-.34.08-.48.12-.27.09-.39.12-.22.05-.33.05c-.19,0-.34-.06-.46-.18s-.18-.28-.18-.49c0-.23.08-.42.23-.58.09-.09.21-.18.38-.26s.36-.16.59-.23.5-.13.79-.17.62-.07.96-.07c.57,0,1.07.07,1.5.2s.78.32,1.06.55.49.53.63.86.21.71.21,1.12-.06.82-.18,1.18-.3.74-.55,1.11-.55.78-.93,1.2-.82.91-1.33,1.45l-1.45,1.53h4.03Z"/>
      <path class="cls-4" d="M122.82,128.51c0-.2.04-.38.11-.55s.17-.31.29-.43.27-.22.43-.29.35-.11.55-.11.37.03.54.1.3.16.42.28.21.26.27.43.1.34.1.54-.03.38-.1.55-.16.31-.29.43-.27.21-.43.29-.35.11-.55.11-.38-.03-.54-.1-.3-.16-.42-.28-.21-.26-.28-.42-.1-.34-.1-.54Z"/>
      <path class="cls-4" d="M126.17,121.7c-.1.05-.19.09-.27.12s-.14.06-.2.08-.12.04-.17.04-.1.01-.16.01c-.11,0-.21-.02-.3-.06s-.17-.1-.23-.17-.11-.15-.15-.24-.05-.19-.05-.29c0-.22.08-.41.23-.56.1-.1.29-.25.57-.42s.63-.39,1.07-.62c.24-.13.45-.24.63-.34s.34-.17.48-.23.27-.1.39-.13.24-.04.36-.04c.31,0,.56.09.73.26s.26.42.26.73v8.98c0,.3-.09.53-.26.7s-.44.24-.8.24-.62-.08-.8-.24-.26-.39-.26-.7v-7.6l-1.09.49Z"/>
      <path class="cls-4" d="M131.49,127.04c0-.33.05-.64.16-.91.1-.27.25-.52.43-.75s.4-.44.64-.63c.25-.19.51-.37.8-.54-.25-.15-.48-.31-.7-.49s-.4-.38-.56-.59c-.16-.21-.28-.44-.37-.69s-.14-.52-.14-.81c0-.41.08-.79.23-1.14.15-.35.38-.66.69-.91.3-.26.68-.46,1.13-.61s.97-.22,1.56-.22c.54,0,1.02.07,1.43.2.41.13.76.32,1.04.55.28.23.49.51.63.82.14.31.21.64.21.99,0,.32-.05.6-.14.85-.09.25-.22.48-.38.69s-.35.4-.57.57c-.22.17-.46.34-.71.49.28.16.55.33.8.52.25.19.47.41.66.64.19.23.34.48.45.75.11.27.17.57.17.88,0,.46-.08.89-.24,1.27-.16.38-.4.71-.72.99-.32.27-.72.48-1.21.63s-1.05.22-1.71.22c-.59,0-1.11-.07-1.56-.21s-.82-.34-1.12-.59c-.3-.25-.52-.55-.67-.89-.15-.34-.23-.72-.23-1.12ZM133.53,126.85c0,.22.04.42.11.6s.18.33.32.46c.14.13.32.23.53.3s.45.11.73.11.51-.03.71-.1c.2-.07.37-.16.51-.29s.24-.28.31-.45.11-.37.11-.58-.05-.42-.14-.6-.22-.35-.38-.5c-.16-.15-.35-.3-.58-.43s-.47-.26-.73-.38c-.23.14-.44.27-.62.41s-.34.28-.47.43c-.13.15-.23.31-.3.47s-.11.35-.11.55ZM133.82,121.5c0,.2.04.38.11.54.07.16.17.3.3.44s.29.26.48.37.4.23.64.34c.2-.12.38-.24.54-.36s.29-.25.4-.38.19-.27.25-.43c.06-.15.09-.31.09-.49s-.03-.34-.09-.49c-.06-.15-.16-.28-.28-.39s-.27-.19-.45-.25-.38-.09-.61-.09-.41.03-.59.09-.32.14-.43.25c-.12.1-.21.23-.27.38-.06.15-.09.31-.09.48Z"/>
      <path class="cls-4" d="M109.41,156.28c.3,0,.56-.04.79-.12s.43-.2.59-.35.28-.33.37-.54.12-.43.12-.68-.04-.5-.13-.7-.24-.38-.45-.53-.5-.25-.86-.33-.82-.12-1.36-.12c-.1,0-.19-.01-.25-.03s-.12-.05-.17-.09c-.07-.07-.13-.16-.16-.28s-.05-.24-.05-.37.02-.25.05-.38.09-.22.16-.29c.04-.04.1-.07.16-.09s.15-.03.26-.03c.45,0,.83-.04,1.14-.12s.57-.19.77-.34.34-.32.43-.52.13-.42.13-.67c0-.42-.12-.74-.38-.97s-.65-.34-1.19-.34c-.23,0-.43.02-.6.05s-.33.08-.46.12-.26.08-.37.12-.21.05-.31.05c-.19,0-.35-.06-.47-.18s-.18-.28-.18-.49c0-.12.02-.23.06-.32s.1-.18.18-.26c.08-.08.2-.17.36-.25s.35-.16.57-.23.48-.13.76-.17.59-.06.93-.06c.55,0,1.02.06,1.43.19s.75.31,1.02.54.47.51.61.83.2.68.2,1.08c0,.29-.04.56-.12.81s-.2.48-.35.69-.33.4-.54.56-.43.3-.68.41v.02c.32.08.6.19.86.34s.47.33.65.55.31.47.41.76.14.61.14.96c0,.47-.09.91-.27,1.32s-.44.76-.78,1.06-.76.53-1.26.7-1.07.25-1.71.25c-.33,0-.62-.02-.89-.06s-.5-.09-.7-.15-.37-.13-.51-.2-.24-.15-.32-.22c-.09-.09-.17-.19-.21-.3s-.07-.23-.07-.38c0-.22.06-.39.19-.52s.29-.19.48-.19c.11,0,.22.02.33.07s.24.1.38.16.32.11.52.16.46.07.76.07Z"/>
      <path class="cls-4" d="M114.85,155.04c0-.33.05-.64.16-.91.1-.27.25-.52.43-.75s.4-.44.64-.63c.25-.19.51-.37.8-.54-.25-.15-.48-.31-.7-.49s-.4-.38-.56-.59c-.16-.21-.28-.44-.37-.69s-.14-.52-.14-.81c0-.41.08-.79.23-1.14.15-.35.38-.66.69-.91.3-.26.68-.46,1.13-.61s.97-.22,1.56-.22c.54,0,1.02.07,1.43.2.41.13.76.32,1.04.55.28.23.49.51.63.82.14.31.21.64.21.99,0,.32-.05.6-.14.85-.09.25-.22.48-.38.69s-.35.4-.57.57c-.22.17-.46.34-.71.49.28.16.55.33.8.52.25.19.47.41.66.64.19.23.34.48.45.75.11.27.17.57.17.88,0,.46-.08.89-.24,1.27-.16.38-.4.71-.72.99-.32.27-.72.48-1.21.63s-1.05.22-1.71.22c-.59,0-1.11-.07-1.56-.21s-.82-.34-1.12-.59c-.3-.25-.52-.55-.67-.89-.15-.34-.23-.72-.23-1.12ZM116.89,154.85c0,.22.04.42.11.6s.18.33.32.46c.14.13.32.23.53.3s.45.11.73.11.51-.03.71-.1c.2-.07.37-.16.51-.29s.24-.28.31-.45.11-.37.11-.58-.05-.42-.14-.6-.22-.35-.38-.5c-.16-.15-.35-.3-.58-.43s-.47-.26-.73-.38c-.23.14-.44.27-.62.41s-.34.28-.47.43c-.13.15-.23.31-.3.47s-.11.35-.11.55ZM117.18,149.5c0,.2.04.38.11.54.07.16.17.3.3.44s.29.26.48.37.4.23.64.34c.2-.12.38-.24.54-.36s.29-.25.4-.38.19-.27.25-.43c.06-.15.09-.31.09-.49s-.03-.34-.09-.49c-.06-.15-.16-.28-.28-.39s-.27-.19-.45-.25-.38-.09-.61-.09-.41.03-.59.09-.32.14-.43.25c-.12.1-.21.23-.27.38-.06.15-.09.31-.09.48Z"/>
      <path class="cls-4" d="M123.81,156.51c0-.2.04-.38.11-.55s.17-.31.29-.43.27-.22.43-.29.35-.11.55-.11.37.03.54.1.3.16.42.28.21.26.27.43.1.34.1.54-.03.38-.1.55-.16.31-.29.43-.27.21-.43.29-.35.11-.55.11-.38-.03-.54-.1-.3-.16-.42-.28-.21-.26-.28-.42-.1-.34-.1-.54Z"/>
      <path class="cls-4" d="M127.17,149.7c-.1.05-.19.09-.27.12s-.14.06-.2.08-.12.04-.17.04-.1.01-.16.01c-.11,0-.21-.02-.3-.06s-.17-.1-.23-.17-.11-.15-.15-.24-.05-.19-.05-.29c0-.22.08-.41.23-.56.1-.1.29-.25.57-.42s.63-.39,1.07-.62c.24-.13.45-.24.63-.34s.34-.17.48-.23.27-.1.39-.13.24-.04.36-.04c.31,0,.56.09.73.26s.26.42.26.73v8.98c0,.3-.09.53-.26.7s-.44.24-.8.24-.62-.08-.8-.24-.26-.39-.26-.7v-7.6l-1.09.49Z"/>
      <path class="cls-4" d="M133.36,149.7c-.1.05-.19.09-.27.12s-.14.06-.2.08-.12.04-.17.04-.1.01-.16.01c-.11,0-.21-.02-.3-.06s-.17-.1-.23-.17-.11-.15-.15-.24-.05-.19-.05-.29c0-.22.08-.41.23-.56.1-.1.29-.25.57-.42s.63-.39,1.07-.62c.24-.13.45-.24.63-.34s.34-.17.48-.23.27-.1.39-.13.24-.04.36-.04c.31,0,.56.09.73.26s.26.42.26.73v8.98c0,.3-.09.53-.26.7s-.44.24-.8.24-.62-.08-.8-.24-.26-.39-.26-.7v-7.6l-1.09.49Z"/>
      <path class="cls-4" d="M109.82,183.04c0-.33.05-.64.16-.91.1-.27.25-.52.43-.75s.4-.44.64-.63c.25-.19.51-.37.8-.54-.25-.15-.48-.31-.7-.49s-.4-.38-.56-.59c-.16-.21-.28-.44-.37-.69s-.14-.52-.14-.81c0-.41.08-.79.23-1.14.15-.35.38-.66.69-.91.3-.26.68-.46,1.13-.61s.97-.22,1.56-.22c.54,0,1.02.07,1.43.2.41.13.76.32,1.04.55.28.23.49.51.63.82.14.31.21.64.21.99,0,.32-.05.6-.14.85-.09.25-.22.48-.38.69s-.35.4-.57.57c-.22.17-.46.34-.71.49.28.16.55.33.8.52.25.19.47.41.66.64.19.23.34.48.45.75.11.27.17.57.17.88,0,.46-.08.89-.24,1.27-.16.38-.4.71-.72.99-.32.27-.72.48-1.21.63s-1.05.22-1.71.22c-.59,0-1.11-.07-1.56-.21s-.82-.34-1.12-.59c-.3-.25-.52-.55-.67-.89-.15-.34-.23-.72-.23-1.12ZM111.86,182.85c0,.22.04.42.11.6s.18.33.32.46c.14.13.32.23.53.3s.45.11.73.11.51-.03.71-.1c.2-.07.37-.16.51-.29s.24-.28.31-.45.11-.37.11-.58-.05-.42-.14-.6-.22-.35-.38-.5c-.16-.15-.35-.3-.58-.43s-.47-.26-.73-.38c-.23.14-.44.27-.62.41s-.34.28-.47.43c-.13.15-.23.31-.3.47s-.11.35-.11.55ZM112.15,177.5c0,.2.04.38.11.54.07.16.17.3.3.44s.29.26.48.37.4.23.64.34c.2-.12.38-.24.54-.36s.29-.25.4-.38.19-.27.25-.43c.06-.15.09-.31.09-.49s-.03-.34-.09-.49c-.06-.15-.16-.28-.28-.39s-.27-.19-.45-.25-.38-.09-.61-.09-.41.03-.59.09-.32.14-.43.25c-.12.1-.21.23-.27.38-.06.15-.09.31-.09.48Z"/>
      <path class="cls-4" d="M118.89,176.69c-.23,0-.41-.07-.55-.22s-.2-.37-.2-.66.07-.52.2-.66.32-.22.55-.22h5.01c.19,0,.36.02.5.07s.25.11.34.2.15.19.2.3.06.25.06.39c0,.18-.02.36-.07.52s-.12.35-.21.55c-.35.73-.68,1.45-.98,2.15s-.58,1.38-.83,2.04-.48,1.29-.68,1.9-.38,1.19-.54,1.73c-.05.17-.1.31-.16.44s-.13.23-.21.31-.18.14-.29.18-.23.06-.37.06c-.15,0-.29-.02-.41-.06s-.23-.09-.32-.17-.16-.17-.21-.28-.07-.24-.07-.39c0-.11.01-.22.03-.33s.05-.23.09-.38c.12-.5.28-1.05.47-1.64s.4-1.2.64-1.84.49-1.29.77-1.96.57-1.35.87-2.04h-3.62Z"/>
      <path class="cls-4" d="M122.79,184.51c0-.2.04-.38.11-.55s.17-.31.29-.43.27-.22.43-.29.35-.11.55-.11.37.03.54.1.3.16.42.28.21.26.27.43.1.34.1.54-.03.38-.1.55-.16.31-.29.43-.27.21-.43.29-.35.11-.55.11-.38-.03-.54-.1-.3-.16-.42-.28-.21-.26-.28-.42-.1-.34-.1-.54Z"/>
      <path class="cls-4" d="M127,183.04c0-.33.05-.64.16-.91.1-.27.25-.52.43-.75s.4-.44.64-.63c.25-.19.51-.37.8-.54-.25-.15-.48-.31-.7-.49s-.4-.38-.56-.59c-.16-.21-.28-.44-.37-.69s-.14-.52-.14-.81c0-.41.08-.79.23-1.14.15-.35.38-.66.69-.91.3-.26.68-.46,1.13-.61s.97-.22,1.56-.22c.54,0,1.02.07,1.43.2.41.13.76.32,1.04.55.28.23.49.51.63.82.14.31.21.64.21.99,0,.32-.05.6-.14.85-.09.25-.22.48-.38.69s-.35.4-.57.57c-.22.17-.46.34-.71.49.28.16.55.33.8.52.25.19.47.41.66.64.19.23.34.48.45.75.11.27.17.57.17.88,0,.46-.08.89-.24,1.27-.16.38-.4.71-.72.99-.32.27-.72.48-1.21.63s-1.05.22-1.71.22c-.59,0-1.11-.07-1.56-.21s-.82-.34-1.12-.59c-.3-.25-.52-.55-.67-.89-.15-.34-.23-.72-.23-1.12ZM129.05,182.85c0,.22.04.42.11.6s.18.33.32.46c.14.13.32.23.53.3s.45.11.73.11.51-.03.71-.1c.2-.07.37-.16.51-.29s.24-.28.31-.45.11-.37.11-.58-.05-.42-.14-.6-.22-.35-.38-.5c-.16-.15-.35-.3-.58-.43s-.47-.26-.73-.38c-.23.14-.44.27-.62.41s-.34.28-.47.43c-.13.15-.23.31-.3.47s-.11.35-.11.55ZM129.34,177.5c0,.2.04.38.11.54.07.16.17.3.3.44s.29.26.48.37.4.23.64.34c.2-.12.38-.24.54-.36s.29-.25.4-.38.19-.27.25-.43c.06-.15.09-.31.09-.49s-.03-.34-.09-.49c-.06-.15-.16-.28-.28-.39s-.27-.19-.45-.25-.38-.09-.61-.09-.41.03-.59.09-.32.14-.43.25c-.12.1-.21.23-.27.38-.06.15-.09.31-.09.48Z"/>
      <path class="cls-4" d="M106.6,212.28c.3,0,.56-.04.79-.12s.43-.2.59-.35.28-.33.37-.54.12-.43.12-.68-.04-.5-.13-.7-.24-.38-.45-.53-.5-.25-.86-.33-.82-.12-1.36-.12c-.1,0-.19-.01-.25-.03s-.12-.05-.17-.09c-.07-.07-.13-.16-.16-.28s-.05-.24-.05-.37.02-.25.05-.38.09-.22.16-.29c.04-.04.1-.07.16-.09s.15-.03.26-.03c.45,0,.83-.04,1.14-.12s.57-.19.77-.34.34-.32.43-.52.13-.42.13-.67c0-.42-.12-.74-.38-.97s-.65-.34-1.19-.34c-.23,0-.43.02-.6.05s-.33.08-.46.12-.26.08-.37.12-.21.05-.31.05c-.19,0-.35-.06-.47-.18s-.18-.28-.18-.49c0-.12.02-.23.06-.32s.1-.18.18-.26c.08-.08.2-.17.36-.25s.35-.16.57-.23.48-.13.76-.17.59-.06.93-.06c.55,0,1.02.06,1.43.19s.75.31,1.02.54.47.51.61.83.2.68.2,1.08c0,.29-.04.56-.12.81s-.2.48-.35.69-.33.4-.54.56-.43.3-.68.41v.02c.32.08.6.19.86.34s.47.33.65.55.31.47.41.76.14.61.14.96c0,.47-.09.91-.27,1.32s-.44.76-.78,1.06-.76.53-1.26.7-1.07.25-1.71.25c-.33,0-.62-.02-.89-.06s-.5-.09-.7-.15-.37-.13-.51-.2-.24-.15-.32-.22c-.09-.09-.17-.19-.21-.3s-.07-.23-.07-.38c0-.22.06-.39.19-.52s.29-.19.48-.19c.11,0,.22.02.33.07s.24.1.38.16.32.11.52.16.46.07.76.07Z"/>
      <path class="cls-4" d="M112.05,206.45c0-.56.09-1.07.26-1.52s.42-.84.75-1.16.72-.57,1.18-.74.99-.26,1.57-.26,1.14.1,1.61.29.87.48,1.2.88.57.88.75,1.47.26,1.28.26,2.07c0,1.04-.12,1.95-.36,2.75s-.59,1.46-1.05,2-1.02.94-1.69,1.22-1.42.41-2.27.41c-.24,0-.45-.01-.63-.03s-.33-.05-.46-.09-.23-.08-.32-.12-.15-.1-.2-.15c-.07-.07-.13-.15-.17-.24s-.06-.2-.06-.33c0-.23.07-.41.2-.54s.3-.18.5-.18c.07,0,.14,0,.21.01s.15.02.23.03.18.02.28.03.23.01.37.01c.55,0,1.02-.08,1.4-.23s.7-.37.96-.64.45-.61.59-1,.25-.82.31-1.29c-.16.11-.35.22-.56.31-.18.08-.41.15-.67.21s-.57.09-.91.09c-.51,0-.97-.07-1.37-.22s-.74-.36-1.02-.64-.49-.62-.64-1.02-.22-.85-.22-1.35ZM114.17,206.29c0,.29.04.55.11.77s.18.41.33.56.32.27.52.34.44.12.71.12.49-.03.7-.1.38-.14.54-.21c.17-.09.33-.2.46-.32,0-.59-.05-1.09-.14-1.48s-.23-.71-.39-.94-.36-.4-.58-.49-.46-.14-.71-.14c-.23,0-.44.04-.62.12s-.35.2-.48.36-.24.36-.32.59-.11.51-.11.82Z"/>
      <path class="cls-4" d="M119.74,212.51c0-.2.04-.38.11-.55s.17-.31.29-.43.27-.22.43-.29.35-.11.55-.11.37.03.54.1.3.16.42.28.21.26.27.43.1.34.1.54-.03.38-.1.55-.16.31-.29.43-.27.21-.43.29-.35.11-.55.11-.38-.03-.54-.1-.3-.16-.42-.28-.21-.26-.28-.42-.1-.34-.1-.54Z"/>
      <path class="cls-4" d="M123.35,208.45c0-.95.11-1.79.33-2.5s.53-1.3.93-1.78.87-.83,1.41-1.06,1.14-.35,1.79-.35,1.21.11,1.74.32.97.55,1.35.99.67,1.01.87,1.68.31,1.48.31,2.4-.11,1.79-.33,2.5-.53,1.31-.93,1.78-.87.82-1.41,1.06-1.14.35-1.79.35-1.22-.11-1.74-.32-.98-.55-1.35-.99-.67-1.01-.87-1.68-.31-1.48-.31-2.4ZM125.5,208.29c0,.72.06,1.33.18,1.82s.29.9.49,1.21.44.53.71.67.55.21.85.21.58-.07.85-.2.5-.36.71-.66.36-.71.48-1.2.18-1.1.18-1.81-.06-1.33-.18-1.82-.29-.9-.49-1.21-.44-.53-.71-.67-.56-.21-.86-.21-.58.07-.85.2-.5.36-.7.66-.36.71-.48,1.2-.18,1.1-.18,1.81Z"/>
      <path class="cls-4" d="M136.04,212.28c.3,0,.56-.04.79-.12s.43-.2.59-.35.28-.33.37-.54.12-.43.12-.68-.04-.5-.13-.7-.24-.38-.45-.53-.5-.25-.86-.33-.82-.12-1.36-.12c-.1,0-.19-.01-.25-.03s-.12-.05-.17-.09c-.07-.07-.13-.16-.16-.28s-.05-.24-.05-.37.02-.25.05-.38.09-.22.16-.29c.04-.04.1-.07.16-.09s.15-.03.26-.03c.45,0,.83-.04,1.14-.12s.57-.19.77-.34.34-.32.43-.52.13-.42.13-.67c0-.42-.12-.74-.38-.97s-.65-.34-1.19-.34c-.23,0-.43.02-.6.05s-.33.08-.46.12-.26.08-.37.12-.21.05-.31.05c-.19,0-.35-.06-.47-.18s-.18-.28-.18-.49c0-.12.02-.23.06-.32s.1-.18.18-.26c.08-.08.2-.17.36-.25s.35-.16.57-.23.48-.13.76-.17.59-.06.93-.06c.55,0,1.02.06,1.43.19s.75.31,1.02.54.47.51.61.83.2.68.2,1.08c0,.29-.04.56-.12.81s-.2.48-.35.69-.33.4-.54.56-.43.3-.68.41v.02c.32.08.6.19.86.34s.47.33.65.55.31.47.41.76.14.61.14.96c0,.47-.09.91-.27,1.32s-.44.76-.78,1.06-.76.53-1.26.7-1.07.25-1.71.25c-.33,0-.62-.02-.89-.06s-.5-.09-.7-.15-.37-.13-.51-.2-.24-.15-.32-.22c-.09-.09-.17-.19-.21-.3s-.07-.23-.07-.38c0-.22.06-.39.19-.52s.29-.19.48-.19c.11,0,.22.02.33.07s.24.1.38.16.32.11.52.16.46.07.76.07Z"/>
    </g>
    <g>
      <path class="cls-2" d="M269.75,37.92c0-.5.07-.94.21-1.33s.33-.71.58-.98.55-.47.89-.61.73-.21,1.14-.21.8.06,1.14.19.62.31.86.56.41.56.54.93.19.81.19,1.31-.07.94-.21,1.32-.34.71-.59.98-.55.47-.89.61-.73.21-1.14.21-.8-.06-1.13-.19-.62-.31-.85-.56-.41-.56-.54-.93-.19-.81-.19-1.31ZM271.43,37.84c0,.34.03.62.09.86s.14.42.25.56.22.24.35.3.27.09.41.09.28-.03.41-.09.25-.16.35-.3.18-.33.24-.55.09-.51.09-.85-.03-.62-.09-.86-.14-.42-.25-.56-.22-.25-.35-.31-.27-.09-.42-.09-.28.03-.41.09-.25.16-.34.3-.18.33-.24.56-.09.51-.09.85ZM278.92,35.16c.07-.12.15-.21.24-.29s.2-.11.34-.11c.09,0,.18.02.27.05s.17.08.24.14.13.13.18.21.07.17.07.26c0,.07-.01.13-.04.2s-.06.14-.11.21l-5.73,9.6c-.07.12-.15.21-.24.29s-.2.11-.34.11c-.09,0-.19-.02-.28-.05s-.17-.08-.24-.14-.13-.13-.17-.21-.07-.17-.07-.26c0-.07.01-.14.04-.2s.06-.14.11-.22l5.73-9.6ZM278,42.83c0-.5.07-.94.21-1.33s.33-.71.58-.98.55-.47.89-.61.73-.21,1.14-.21.8.06,1.14.19.62.31.86.56.41.56.54.93.19.81.19,1.31-.07.94-.21,1.32-.34.71-.59.98-.55.47-.89.61-.73.21-1.14.21-.8-.06-1.13-.19-.62-.31-.85-.56-.41-.56-.54-.93-.19-.81-.19-1.31ZM279.68,42.75c0,.34.03.62.09.86s.14.42.25.56.22.24.35.3.27.09.41.09.28-.03.41-.09.25-.16.35-.3.18-.33.24-.55.09-.51.09-.85-.03-.62-.09-.86-.14-.42-.25-.56-.22-.25-.35-.31-.27-.09-.42-.09-.28.03-.41.09-.25.16-.34.3-.18.33-.24.56-.09.51-.09.85Z"/>
      <path class="cls-4" d="M263.73,68.59c.22,0,.39.07.52.21s.19.34.19.61-.06.48-.19.62-.3.21-.52.21h-3.91c-.22,0-.39-.07-.52-.21s-.19-.35-.19-.62.06-.47.19-.61.3-.21.52-.21h3.91Z"/>
      <path class="cls-4" d="M267.29,70.85c-.42,0-.73-.1-.94-.3s-.31-.48-.31-.84c0-.09,0-.18.02-.27s.04-.17.07-.25.07-.17.12-.27.11-.2.19-.31l3.16-4.7c.14-.2.27-.38.41-.52s.28-.25.43-.34.31-.15.48-.18.36-.05.56-.05c.44,0,.77.1.99.29s.33.48.33.85v5.25h.96c.22,0,.39.07.52.21s.2.34.2.61-.07.48-.2.62-.3.21-.52.21h-.96v1.98c0,.31-.08.54-.24.69s-.42.23-.78.23-.6-.08-.76-.23-.25-.38-.25-.69v-1.98h-3.48ZM270.78,64.99l-2.8,4.21h2.8v-4.21Z"/>
      <path class="cls-4" d="M275.46,72.51c0-.2.04-.38.11-.55s.17-.31.29-.43.27-.22.43-.29.35-.11.55-.11.37.03.54.1.3.16.42.28.21.26.27.43.1.34.1.54-.03.38-.1.55-.16.31-.29.43-.27.21-.43.29-.35.11-.55.11-.38-.03-.54-.1-.3-.16-.42-.28-.21-.26-.28-.42-.1-.34-.1-.54Z"/>
      <path class="cls-4" d="M282.17,66.94c.79.03,1.47.14,2.03.32.56.18,1.02.42,1.38.72s.62.65.78,1.05c.16.4.25.84.25,1.32,0,.52-.09.99-.26,1.41s-.43.79-.78,1.1c-.34.31-.77.55-1.28.71-.51.17-1.09.25-1.76.25-.33,0-.63-.02-.9-.06s-.5-.09-.71-.15c-.2-.06-.37-.13-.51-.2-.14-.08-.24-.15-.32-.22-.09-.09-.17-.19-.22-.3s-.07-.24-.07-.39c0-.22.06-.39.19-.52s.29-.19.48-.19c.11,0,.23.02.33.07s.23.1.38.15.33.11.53.15.46.07.78.07.58-.04.82-.12.44-.2.61-.35.29-.33.37-.54.12-.45.12-.71c0-.28-.06-.54-.18-.78s-.32-.45-.59-.62-.61-.31-1.04-.41-.93-.15-1.53-.15c-.27,0-.46-.07-.58-.2s-.17-.33-.16-.59l.2-4.02c.01-.28.09-.49.24-.63.15-.14.37-.21.65-.21h4.11c.22,0,.4.07.54.21s.2.36.2.64-.07.51-.2.65-.32.21-.54.21h-3.27l-.11,2.29Z"/>
      <path class="cls-4" d="M290.43,72.28c.3,0,.56-.04.79-.12s.43-.2.59-.35.28-.33.37-.54.12-.43.12-.68-.04-.5-.13-.7-.24-.38-.45-.53-.5-.25-.86-.33-.82-.12-1.36-.12c-.1,0-.19-.01-.25-.03s-.12-.05-.17-.09c-.07-.07-.13-.16-.16-.28s-.05-.24-.05-.37.02-.25.05-.38.09-.22.16-.29c.04-.04.1-.07.16-.09s.15-.03.26-.03c.45,0,.83-.04,1.14-.12s.57-.19.77-.34.34-.32.43-.52.13-.42.13-.67c0-.42-.12-.74-.38-.97s-.65-.34-1.19-.34c-.23,0-.43.02-.6.05s-.33.08-.46.12-.26.08-.37.12-.21.05-.31.05c-.19,0-.35-.06-.47-.18s-.18-.28-.18-.49c0-.12.02-.23.06-.32s.1-.18.18-.26c.08-.08.2-.17.36-.25s.35-.16.57-.23.48-.13.76-.17.59-.06.93-.06c.55,0,1.02.06,1.43.19s.75.31,1.02.54.47.51.61.83.2.68.2,1.08c0,.29-.04.56-.12.81s-.2.48-.35.69-.33.4-.54.56-.43.3-.68.41v.02c.32.08.6.19.86.34s.47.33.65.55.31.47.41.76.14.61.14.96c0,.47-.09.91-.27,1.32s-.44.76-.78,1.06-.76.53-1.26.7-1.07.25-1.71.25c-.33,0-.62-.02-.89-.06s-.5-.09-.7-.15-.37-.13-.51-.2-.24-.15-.32-.22c-.09-.09-.17-.19-.21-.3s-.07-.23-.07-.38c0-.22.06-.39.19-.52s.29-.19.48-.19c.11,0,.22.02.33.07s.24.1.38.16.32.11.52.16.46.07.76.07Z"/>
      <path class="cls-4" d="M264.58,96.59c.22,0,.39.07.52.21s.19.34.19.61-.06.48-.19.62-.3.21-.52.21h-3.91c-.22,0-.39-.07-.52-.21s-.19-.35-.19-.62.06-.47.19-.61.3-.21.52-.21h3.91Z"/>
      <path class="cls-4" d="M269.3,100.28c.3,0,.56-.04.79-.12s.43-.2.59-.35.28-.33.37-.54.12-.43.12-.68-.04-.5-.13-.7-.24-.38-.45-.53-.5-.25-.86-.33-.82-.12-1.36-.12c-.1,0-.19-.01-.25-.03s-.12-.05-.17-.09c-.07-.07-.13-.16-.16-.28s-.05-.24-.05-.37.02-.25.05-.38.09-.22.16-.29c.04-.04.1-.07.16-.09s.15-.03.26-.03c.45,0,.83-.04,1.14-.12s.57-.19.77-.34.34-.32.43-.52.13-.42.13-.67c0-.42-.12-.74-.38-.97s-.65-.34-1.19-.34c-.23,0-.43.02-.6.05s-.33.08-.46.12-.26.08-.37.12-.21.05-.31.05c-.19,0-.35-.06-.47-.18s-.18-.28-.18-.49c0-.12.02-.23.06-.32s.1-.18.18-.26c.08-.08.2-.17.36-.25s.35-.16.57-.23.48-.13.76-.17.59-.06.93-.06c.55,0,1.02.06,1.43.19s.75.31,1.02.54.47.51.61.83.2.68.2,1.08c0,.29-.04.56-.12.81s-.2.48-.35.69-.33.4-.54.56-.43.3-.68.41v.02c.32.08.6.19.86.34s.47.33.65.55.31.47.41.76.14.61.14.96c0,.47-.09.91-.27,1.32s-.44.76-.78,1.06-.76.53-1.26.7-1.07.25-1.71.25c-.33,0-.62-.02-.89-.06s-.5-.09-.7-.15-.37-.13-.51-.2-.24-.15-.32-.22c-.09-.09-.17-.19-.21-.3s-.07-.23-.07-.38c0-.22.06-.39.19-.52s.29-.19.48-.19c.11,0,.22.02.33.07s.24.1.38.16.32.11.52.16.46.07.76.07Z"/>
      <path class="cls-4" d="M274.76,100.51c0-.2.04-.38.11-.55s.17-.31.29-.43.27-.22.43-.29.35-.11.55-.11.37.03.54.1.3.16.42.28.21.26.27.43.1.34.1.54-.03.38-.1.55-.16.31-.29.43-.27.21-.43.29-.35.11-.55.11-.38-.03-.54-.1-.3-.16-.42-.28-.21-.26-.28-.42-.1-.34-.1-.54Z"/>
      <path class="cls-4" d="M285.85,99.96c.22,0,.4.07.54.22s.2.36.2.64-.07.5-.2.65-.31.22-.54.22h-5.34c-.36,0-.64-.1-.84-.29s-.3-.45-.3-.77c0-.21.04-.41.12-.59s.21-.36.39-.56l1.88-2.09c.4-.44.74-.82,1.02-1.14s.52-.62.7-.89.31-.53.4-.77.13-.5.13-.77c0-.47-.14-.83-.41-1.07s-.7-.37-1.28-.37c-.23,0-.43.02-.61.05s-.34.08-.48.12-.27.09-.39.12-.22.05-.33.05c-.19,0-.34-.06-.46-.18s-.18-.28-.18-.49c0-.23.08-.42.23-.58.09-.09.21-.18.38-.26s.36-.16.59-.23.5-.13.79-.17.62-.07.96-.07c.57,0,1.07.07,1.5.2s.78.32,1.06.55.49.53.63.86.21.71.21,1.12-.06.82-.18,1.18-.3.74-.55,1.11-.55.78-.93,1.2-.82.91-1.33,1.45l-1.45,1.53h4.03Z"/>
      <path class="cls-4" d="M287.99,92.69c-.23,0-.41-.07-.55-.22s-.2-.37-.2-.66.07-.52.2-.66.32-.22.55-.22h5.01c.19,0,.36.02.5.07s.25.11.34.2.15.19.2.3.06.25.06.39c0,.18-.02.36-.07.52s-.12.35-.21.55c-.35.73-.68,1.45-.98,2.15s-.58,1.38-.83,2.04-.48,1.29-.68,1.9-.38,1.19-.54,1.73c-.05.17-.1.31-.16.44s-.13.23-.21.31-.18.14-.29.18-.23.06-.37.06c-.15,0-.29-.02-.41-.06s-.23-.09-.32-.17-.16-.17-.21-.28-.07-.24-.07-.39c0-.11.01-.22.03-.33s.05-.23.09-.38c.12-.5.28-1.05.47-1.64s.4-1.2.64-1.84.49-1.29.77-1.96.57-1.35.87-2.04h-3.62Z"/>
      <path class="cls-4" d="M263.39,124.59c.22,0,.39.07.52.21s.19.34.19.61-.06.48-.19.62-.3.21-.52.21h-3.91c-.22,0-.39-.07-.52-.21s-.19-.35-.19-.62.06-.47.19-.61.3-.21.52-.21h3.91Z"/>
      <path class="cls-4" d="M271.49,127.96c.22,0,.4.07.54.22s.2.36.2.64-.07.5-.2.65-.31.22-.54.22h-5.34c-.36,0-.64-.1-.84-.29s-.3-.45-.3-.77c0-.21.04-.41.12-.59s.21-.36.39-.56l1.88-2.09c.4-.44.74-.82,1.02-1.14s.52-.62.7-.89.31-.53.4-.77.13-.5.13-.77c0-.47-.14-.83-.41-1.07s-.7-.37-1.28-.37c-.23,0-.43.02-.61.05s-.34.08-.48.12-.27.09-.39.12-.22.05-.33.05c-.19,0-.34-.06-.46-.18s-.18-.28-.18-.49c0-.23.08-.42.23-.58.09-.09.21-.18.38-.26s.36-.16.59-.23.5-.13.79-.17.62-.07.96-.07c.57,0,1.07.07,1.5.2s.78.32,1.06.55.49.53.63.86.21.71.21,1.12-.06.82-.18,1.18-.3.74-.55,1.11-.55.78-.93,1.2-.82.91-1.33,1.45l-1.45,1.53h4.03Z"/>
      <path class="cls-4" d="M274.02,128.51c0-.2.04-.38.11-.55s.17-.31.29-.43.27-.22.43-.29.35-.11.55-.11.37.03.54.1.3.16.42.28.21.26.27.43.1.34.1.54-.03.38-.1.55-.16.31-.29.43-.27.21-.43.29-.35.11-.55.11-.38-.03-.54-.1-.3-.16-.42-.28-.21-.26-.28-.42-.1-.34-.1-.54Z"/>
      <path class="cls-4" d="M278.23,127.04c0-.33.05-.64.16-.91.1-.27.25-.52.43-.75s.4-.44.64-.63c.25-.19.51-.37.8-.54-.25-.15-.48-.31-.7-.49s-.4-.38-.56-.59c-.16-.21-.28-.44-.37-.69s-.14-.52-.14-.81c0-.41.08-.79.23-1.14.15-.35.38-.66.69-.91.3-.26.68-.46,1.13-.61s.97-.22,1.56-.22c.54,0,1.02.07,1.43.2.41.13.76.32,1.04.55.28.23.49.51.63.82.14.31.21.64.21.99,0,.32-.05.6-.14.85-.09.25-.22.48-.38.69s-.35.4-.57.57c-.22.17-.46.34-.71.49.28.16.55.33.8.52.25.19.47.41.66.64.19.23.34.48.45.75.11.27.17.57.17.88,0,.46-.08.89-.24,1.27-.16.38-.4.71-.72.99-.32.27-.72.48-1.21.63s-1.05.22-1.71.22c-.59,0-1.11-.07-1.56-.21s-.82-.34-1.12-.59c-.3-.25-.52-.55-.67-.89-.15-.34-.23-.72-.23-1.12ZM280.28,126.85c0,.22.04.42.11.6s.18.33.32.46c.14.13.32.23.53.3s.45.11.73.11.51-.03.71-.1c.2-.07.37-.16.51-.29s.24-.28.31-.45.11-.37.11-.58-.05-.42-.14-.6-.22-.35-.38-.5c-.16-.15-.35-.3-.58-.43s-.47-.26-.73-.38c-.23.14-.44.27-.62.41s-.34.28-.47.43c-.13.15-.23.31-.3.47s-.11.35-.11.55ZM280.57,121.5c0,.2.04.38.11.54.07.16.17.3.3.44s.29.26.48.37.4.23.64.34c.2-.12.38-.24.54-.36s.29-.25.4-.38.19-.27.25-.43c.06-.15.09-.31.09-.49s-.03-.34-.09-.49c-.06-.15-.16-.28-.28-.39s-.27-.19-.45-.25-.38-.09-.61-.09-.41.03-.59.09-.32.14-.43.25c-.12.1-.21.23-.27.38-.06.15-.09.31-.09.48Z"/>
      <path class="cls-4" d="M287.08,122.45c0-.56.09-1.07.26-1.52s.42-.84.75-1.16.72-.57,1.18-.74.99-.26,1.57-.26,1.14.1,1.61.29.87.48,1.2.88.57.88.75,1.47.26,1.28.26,2.07c0,1.04-.12,1.95-.36,2.75s-.59,1.46-1.05,2-1.02.94-1.69,1.22-1.42.41-2.27.41c-.24,0-.45-.01-.63-.03s-.33-.05-.46-.09-.23-.08-.32-.12-.15-.1-.2-.15c-.07-.07-.13-.15-.17-.24s-.06-.2-.06-.33c0-.23.07-.41.2-.54s.3-.18.5-.18c.07,0,.14,0,.21.01s.15.02.23.03.18.02.28.03.23.01.37.01c.55,0,1.02-.08,1.4-.23s.7-.37.96-.64.45-.61.59-1,.25-.82.31-1.29c-.16.11-.35.22-.56.31-.18.08-.41.15-.67.21s-.57.09-.91.09c-.51,0-.97-.07-1.37-.22s-.74-.36-1.02-.64-.49-.62-.64-1.02-.22-.85-.22-1.35ZM289.21,122.29c0,.29.04.55.11.77s.18.41.33.56.32.27.52.34.44.12.71.12.49-.03.7-.1.38-.14.54-.21c.17-.09.33-.2.46-.32,0-.59-.05-1.09-.14-1.48s-.23-.71-.39-.94-.36-.4-.58-.49-.46-.14-.71-.14c-.23,0-.44.04-.62.12s-.35.2-.48.36-.24.36-.32.59-.11.51-.11.82Z"/>
      <path class="cls-4" d="M263.77,152.59c.22,0,.39.07.52.21s.19.34.19.61-.06.48-.19.62-.3.21-.52.21h-3.91c-.22,0-.39-.07-.52-.21s-.19-.35-.19-.62.06-.47.19-.61.3-.21.52-.21h3.91Z"/>
      <path class="cls-4" d="M268.49,156.28c.3,0,.56-.04.79-.12s.43-.2.59-.35.28-.33.37-.54.12-.43.12-.68-.04-.5-.13-.7-.24-.38-.45-.53-.5-.25-.86-.33-.82-.12-1.36-.12c-.1,0-.19-.01-.25-.03s-.12-.05-.17-.09c-.07-.07-.13-.16-.16-.28s-.05-.24-.05-.37.02-.25.05-.38.09-.22.16-.29c.04-.04.1-.07.16-.09s.15-.03.26-.03c.45,0,.83-.04,1.14-.12s.57-.19.77-.34.34-.32.43-.52.13-.42.13-.67c0-.42-.12-.74-.38-.97s-.65-.34-1.19-.34c-.23,0-.43.02-.6.05s-.33.08-.46.12-.26.08-.37.12-.21.05-.31.05c-.19,0-.35-.06-.47-.18s-.18-.28-.18-.49c0-.12.02-.23.06-.32s.1-.18.18-.26c.08-.08.2-.17.36-.25s.35-.16.57-.23.48-.13.76-.17.59-.06.93-.06c.55,0,1.02.06,1.43.19s.75.31,1.02.54.47.51.61.83.2.68.2,1.08c0,.29-.04.56-.12.81s-.2.48-.35.69-.33.4-.54.56-.43.3-.68.41v.02c.32.08.6.19.86.34s.47.33.65.55.31.47.41.76.14.61.14.96c0,.47-.09.91-.27,1.32s-.44.76-.78,1.06-.76.53-1.26.7-1.07.25-1.71.25c-.33,0-.62-.02-.89-.06s-.5-.09-.7-.15-.37-.13-.51-.2-.24-.15-.32-.22c-.09-.09-.17-.19-.21-.3s-.07-.23-.07-.38c0-.22.06-.39.19-.52s.29-.19.48-.19c.11,0,.22.02.33.07s.24.1.38.16.32.11.52.16.46.07.76.07Z"/>
      <path class="cls-4" d="M273.95,156.51c0-.2.04-.38.11-.55s.17-.31.29-.43.27-.22.43-.29.35-.11.55-.11.37.03.54.1.3.16.42.28.21.26.27.43.1.34.1.54-.03.38-.1.55-.16.31-.29.43-.27.21-.43.29-.35.11-.55.11-.38-.03-.54-.1-.3-.16-.42-.28-.21-.26-.28-.42-.1-.34-.1-.54Z"/>
      <path class="cls-4" d="M277.57,152.45c0-.95.11-1.79.33-2.5s.53-1.3.93-1.78.87-.83,1.41-1.06,1.14-.35,1.79-.35,1.21.11,1.74.32.97.55,1.35.99.67,1.01.87,1.68.31,1.48.31,2.4-.11,1.79-.33,2.5-.53,1.31-.93,1.78-.87.82-1.41,1.06-1.14.35-1.79.35-1.22-.11-1.74-.32-.98-.55-1.35-.99-.67-1.01-.87-1.68-.31-1.48-.31-2.4ZM279.71,152.29c0,.72.06,1.33.18,1.82s.29.9.49,1.21.44.53.71.67.55.21.85.21.58-.07.85-.2.5-.36.71-.66.36-.71.48-1.2.18-1.1.18-1.81-.06-1.33-.18-1.82-.29-.9-.49-1.21-.44-.53-.71-.67-.56-.21-.86-.21-.58.07-.85.2-.5.36-.7.66-.36.71-.48,1.2-.18,1.1-.18,1.81Z"/>
      <path class="cls-4" d="M289.99,150.94c.79.03,1.47.14,2.03.32.56.18,1.02.42,1.38.72s.62.65.78,1.05c.16.4.25.84.25,1.32,0,.52-.09.99-.26,1.41s-.43.79-.78,1.1c-.34.31-.77.55-1.28.71-.51.17-1.09.25-1.76.25-.33,0-.63-.02-.9-.06s-.5-.09-.71-.15c-.2-.06-.37-.13-.51-.2-.14-.08-.24-.15-.32-.22-.09-.09-.17-.19-.22-.3s-.07-.24-.07-.39c0-.22.06-.39.19-.52s.29-.19.48-.19c.11,0,.23.02.33.07s.23.1.38.15.33.11.53.15.46.07.78.07.58-.04.82-.12.44-.2.61-.35.29-.33.37-.54.12-.45.12-.71c0-.28-.06-.54-.18-.78s-.32-.45-.59-.62-.61-.31-1.04-.41-.93-.15-1.53-.15c-.27,0-.46-.07-.58-.2s-.17-.33-.16-.59l.2-4.02c.01-.28.09-.49.24-.63.15-.14.37-.21.65-.21h4.11c.22,0,.4.07.54.21s.2.36.2.64-.07.51-.2.65-.32.21-.54.21h-3.27l-.11,2.29Z"/>
      <path class="cls-4" d="M263.53,180.59c.22,0,.39.07.52.21s.19.34.19.61-.06.48-.19.62-.3.21-.52.21h-3.91c-.22,0-.39-.07-.52-.21s-.19-.35-.19-.62.06-.47.19-.61.3-.21.52-.21h3.91Z"/>
      <path class="cls-4" d="M271.62,183.96c.22,0,.4.07.54.22s.2.36.2.64-.07.5-.2.65-.31.22-.54.22h-5.34c-.36,0-.64-.1-.84-.29s-.3-.45-.3-.77c0-.21.04-.41.12-.59s.21-.36.39-.56l1.88-2.09c.4-.44.74-.82,1.02-1.14s.52-.62.7-.89.31-.53.4-.77.13-.5.13-.77c0-.47-.14-.83-.41-1.07s-.7-.37-1.28-.37c-.23,0-.43.02-.61.05s-.34.08-.48.12-.27.09-.39.12-.22.05-.33.05c-.19,0-.34-.06-.46-.18s-.18-.28-.18-.49c0-.23.08-.42.23-.58.09-.09.21-.18.38-.26s.36-.16.59-.23.5-.13.79-.17.62-.07.96-.07c.57,0,1.07.07,1.5.2s.78.32,1.06.55.49.53.63.86.21.71.21,1.12-.06.82-.18,1.18-.3.74-.55,1.11-.55.78-.93,1.2-.82.91-1.33,1.45l-1.45,1.53h4.03Z"/>
      <path class="cls-4" d="M274.16,184.51c0-.2.04-.38.11-.55s.17-.31.29-.43.27-.22.43-.29.35-.11.55-.11.37.03.54.1.3.16.42.28.21.26.27.43.1.34.1.54-.03.38-.1.55-.16.31-.29.43-.27.21-.43.29-.35.11-.55.11-.38-.03-.54-.1-.3-.16-.42-.28-.21-.26-.28-.42-.1-.34-.1-.54Z"/>
      <path class="cls-4" d="M277.83,178.45c0-.56.09-1.07.26-1.52s.42-.84.75-1.16.72-.57,1.18-.74.99-.26,1.57-.26,1.14.1,1.61.29.87.48,1.2.88.57.88.75,1.47.26,1.28.26,2.07c0,1.04-.12,1.95-.36,2.75s-.59,1.46-1.05,2-1.02.94-1.69,1.22-1.42.41-2.27.41c-.24,0-.45-.01-.63-.03s-.33-.05-.46-.09-.23-.08-.32-.12-.15-.1-.2-.15c-.07-.07-.13-.15-.17-.24s-.06-.2-.06-.33c0-.23.07-.41.2-.54s.3-.18.5-.18c.07,0,.14,0,.21.01s.15.02.23.03.18.02.28.03.23.01.37.01c.55,0,1.02-.08,1.4-.23s.7-.37.96-.64.45-.61.59-1,.25-.82.31-1.29c-.16.11-.35.22-.56.31-.18.08-.41.15-.67.21s-.57.09-.91.09c-.51,0-.97-.07-1.37-.22s-.74-.36-1.02-.64-.49-.62-.64-1.02-.22-.85-.22-1.35ZM279.95,178.29c0,.29.04.55.11.77s.18.41.33.56.32.27.52.34.44.12.71.12.49-.03.7-.1.38-.14.54-.21c.17-.09.33-.2.46-.32,0-.59-.05-1.09-.14-1.48s-.23-.71-.39-.94-.36-.4-.58-.49-.46-.14-.71-.14c-.23,0-.44.04-.62.12s-.35.2-.48.36-.24.36-.32.59-.11.51-.11.82Z"/>
      <path class="cls-4" d="M287.09,181.14c0-1.04.12-1.95.36-2.74s.58-1.46,1.02-2,.97-.95,1.6-1.22,1.32-.41,2.09-.41c.23,0,.44.01.62.04s.33.05.46.09.24.08.32.13.15.1.2.14c.07.07.13.15.16.24s.05.2.05.32c0,.23-.07.41-.2.54s-.29.19-.49.19c-.07,0-.14,0-.21-.01s-.15-.02-.23-.03-.17-.02-.28-.03-.23-.01-.37-.01c-.39,0-.75.06-1.08.18s-.62.31-.87.56-.46.58-.63.98-.29.88-.37,1.45c.16-.11.35-.21.56-.3.18-.08.41-.15.68-.21s.57-.1.92-.1c.5,0,.96.08,1.36.23s.74.37,1.02.64.49.62.64,1.02.22.85.22,1.35c0,.56-.09,1.07-.26,1.52s-.42.84-.75,1.16-.72.57-1.18.74-.99.26-1.57.26-1.14-.1-1.61-.29-.87-.48-1.2-.88-.57-.88-.75-1.47-.26-1.28-.26-2.07ZM290.86,180.54c-.27,0-.5.03-.7.1s-.38.14-.53.22c-.17.09-.33.2-.46.31,0,.58.05,1.06.14,1.45s.22.7.38.94.35.41.57.51.47.15.74.15c.23,0,.44-.04.62-.12s.35-.2.48-.36.24-.36.32-.6.11-.51.11-.82-.04-.55-.11-.77-.18-.41-.33-.56-.32-.27-.52-.34-.44-.12-.71-.12Z"/>
      <path class="cls-4" d="M265.01,208.59c.22,0,.39.07.52.21s.19.34.19.61-.06.48-.19.62-.3.21-.52.21h-3.91c-.22,0-.39-.07-.52-.21s-.19-.35-.19-.62.06-.47.19-.61.3-.21.52-.21h3.91Z"/>
      <path class="cls-4" d="M269.73,212.28c.3,0,.56-.04.79-.12s.43-.2.59-.35.28-.33.37-.54.12-.43.12-.68-.04-.5-.13-.7-.24-.38-.45-.53-.5-.25-.86-.33-.82-.12-1.36-.12c-.1,0-.19-.01-.25-.03s-.12-.05-.17-.09c-.07-.07-.13-.16-.16-.28s-.05-.24-.05-.37.02-.25.05-.38.09-.22.16-.29c.04-.04.1-.07.16-.09s.15-.03.26-.03c.45,0,.83-.04,1.14-.12s.57-.19.77-.34.34-.32.43-.52.13-.42.13-.67c0-.42-.12-.74-.38-.97s-.65-.34-1.19-.34c-.23,0-.43.02-.6.05s-.33.08-.46.12-.26.08-.37.12-.21.05-.31.05c-.19,0-.35-.06-.47-.18s-.18-.28-.18-.49c0-.12.02-.23.06-.32s.1-.18.18-.26c.08-.08.2-.17.36-.25s.35-.16.57-.23.48-.13.76-.17.59-.06.93-.06c.55,0,1.02.06,1.43.19s.75.31,1.02.54.47.51.61.83.2.68.2,1.08c0,.29-.04.56-.12.81s-.2.48-.35.69-.33.4-.54.56-.43.3-.68.41v.02c.32.08.6.19.86.34s.47.33.65.55.31.47.41.76.14.61.14.96c0,.47-.09.91-.27,1.32s-.44.76-.78,1.06-.76.53-1.26.7-1.07.25-1.71.25c-.33,0-.62-.02-.89-.06s-.5-.09-.7-.15-.37-.13-.51-.2-.24-.15-.32-.22c-.09-.09-.17-.19-.21-.3s-.07-.23-.07-.38c0-.22.06-.39.19-.52s.29-.19.48-.19c.11,0,.22.02.33.07s.24.1.38.16.32.11.52.16.46.07.76.07Z"/>
      <path class="cls-4" d="M275.19,212.51c0-.2.04-.38.11-.55s.17-.31.29-.43.27-.22.43-.29.35-.11.55-.11.37.03.54.1.3.16.42.28.21.26.27.43.1.34.1.54-.03.38-.1.55-.16.31-.29.43-.27.21-.43.29-.35.11-.55.11-.38-.03-.54-.1-.3-.16-.42-.28-.21-.26-.28-.42-.1-.34-.1-.54Z"/>
      <path class="cls-4" d="M286.29,211.96c.22,0,.4.07.54.22s.2.36.2.64-.07.5-.2.65-.31.22-.54.22h-5.34c-.36,0-.64-.1-.84-.29s-.3-.45-.3-.77c0-.21.04-.41.12-.59s.21-.36.39-.56l1.88-2.09c.4-.44.74-.82,1.02-1.14s.52-.62.7-.89.31-.53.4-.77.13-.5.13-.77c0-.47-.14-.83-.41-1.07s-.7-.37-1.28-.37c-.23,0-.43.02-.61.05s-.34.08-.48.12-.27.09-.39.12-.22.05-.33.05c-.19,0-.34-.06-.46-.18s-.18-.28-.18-.49c0-.23.08-.42.23-.58.09-.09.21-.18.38-.26s.36-.16.59-.23.5-.13.79-.17.62-.07.96-.07c.57,0,1.07.07,1.5.2s.78.32,1.06.55.49.53.63.86.21.71.21,1.12-.06.82-.18,1.18-.3.74-.55,1.11-.55.78-.93,1.2-.82.91-1.33,1.45l-1.45,1.53h4.03Z"/>
      <path class="cls-4" d="M289.27,205.7c-.1.05-.19.09-.27.12s-.14.06-.2.08-.12.04-.17.04-.1.01-.16.01c-.11,0-.21-.02-.3-.06s-.17-.1-.23-.17-.11-.15-.15-.24-.05-.19-.05-.29c0-.22.08-.41.23-.56.1-.1.29-.25.57-.42s.63-.39,1.07-.62c.24-.13.45-.24.63-.34s.34-.17.48-.23.27-.1.39-.13.24-.04.36-.04c.31,0,.56.09.73.26s.26.42.26.73v8.98c0,.3-.09.53-.26.7s-.44.24-.8.24-.62-.08-.8-.24-.26-.39-.26-.7v-7.6l-1.09.49Z"/>
    </g>
    <g>
      <g>
        <path class="cls-2" d="M181.1,40.67c0-.91.13-1.73.38-2.46.25-.73.61-1.34,1.07-1.85s1.01-.9,1.65-1.17c.64-.27,1.34-.41,2.12-.41.33,0,.63.02.9.07.27.05.51.11.72.18.21.07.38.15.53.24.14.09.25.17.33.25.11.11.2.23.24.35s.07.25.07.41c0,.11-.02.22-.05.31-.04.09-.09.17-.16.24-.07.07-.15.12-.24.16-.09.04-.19.06-.3.06-.12,0-.24-.03-.35-.09-.11-.06-.24-.12-.39-.18-.15-.07-.33-.13-.55-.18-.21-.06-.48-.09-.8-.09-.4,0-.78.08-1.13.24-.35.16-.67.41-.93.73-.27.33-.48.73-.64,1.22s-.23,1.06-.23,1.71c0,.59.08,1.11.23,1.56.15.45.36.83.63,1.14.27.31.59.54.96.7.37.16.78.24,1.22.24.31,0,.58-.03.79-.08.22-.05.4-.11.56-.18s.29-.12.41-.18c.11-.05.23-.08.34-.08.09,0,.18.02.26.05.08.04.15.09.21.15.06.07.1.14.14.23.03.09.05.18.05.29,0,.14-.03.27-.07.38-.05.11-.13.22-.23.32-.09.09-.22.19-.39.29s-.36.19-.6.27-.51.15-.81.21c-.31.05-.65.08-1.03.08-.73,0-1.4-.12-2-.36-.6-.24-1.12-.58-1.55-1.03s-.76-.99-1-1.62c-.24-.64-.36-1.35-.36-2.15Z"/>
        <path class="cls-2" d="M193.15,44.79c0,.31-.09.54-.27.71-.18.17-.45.25-.83.25s-.64-.08-.82-.25c-.18-.17-.27-.4-.27-.71v-8.95c0-.31.09-.54.27-.71.18-.17.45-.25.82-.25s.65.08.83.25c.18.17.27.4.27.71v3.49h4.33v-3.49c0-.31.09-.54.27-.71.18-.17.45-.25.83-.25s.64.08.82.25.27.4.27.71v8.95c0,.31-.09.54-.27.71-.18.17-.45.25-.82.25s-.65-.08-.83-.25c-.18-.17-.27-.4-.27-.71v-3.7h-4.33v3.7Z"/>
        <path class="cls-2" d="M207.33,41.44c-.23,0-.41-.07-.53-.22s-.19-.35-.19-.6.06-.45.19-.59.3-.22.53-.22h2.62c.3,0,.52.08.68.23s.23.38.23.68v3.19c0,.25-.04.46-.11.62s-.18.31-.33.44c-.1.09-.25.18-.44.29s-.42.2-.7.29c-.28.09-.6.16-.97.22-.37.06-.78.09-1.24.09-.85,0-1.61-.12-2.28-.36s-1.24-.59-1.7-1.04c-.46-.45-.82-1-1.07-1.66-.25-.65-.37-1.39-.37-2.21,0-.88.13-1.67.39-2.38.26-.71.65-1.32,1.15-1.83.5-.5,1.12-.9,1.84-1.17s1.55-.41,2.48-.41c.38,0,.74.03,1.06.09s.6.13.85.21c.24.09.45.18.62.28.17.1.29.19.38.27.11.11.19.22.23.33s.07.25.07.41c0,.12-.02.23-.06.32s-.09.17-.16.24c-.07.07-.14.12-.24.16s-.2.05-.3.05c-.13,0-.26-.03-.39-.1s-.3-.14-.49-.22c-.19-.08-.43-.15-.71-.22s-.64-.1-1.06-.1c-.51,0-.98.08-1.4.25s-.78.41-1.09.73c-.3.32-.54.72-.7,1.2s-.25,1.02-.25,1.65.08,1.18.25,1.66.4.88.7,1.2c.3.32.67.57,1.1.73s.91.25,1.45.25c.24,0,.46-.01.63-.04.18-.03.33-.05.45-.09.13-.04.25-.08.34-.12v-2.49h-1.48Z"/>
        <path class="cls-4" d="M175.53,68.59c.22,0,.39.07.52.21.13.14.19.34.19.61s-.06.48-.19.62c-.13.14-.3.21-.52.21h-3.91c-.22,0-.39-.07-.52-.21-.13-.14-.19-.35-.19-.62s.06-.47.19-.61c.13-.14.3-.21.52-.21h3.91Z"/>
        <path class="cls-4" d="M178.42,65.7c-.1.05-.19.09-.27.12-.08.03-.14.06-.2.08-.06.02-.12.04-.17.04-.05,0-.1.01-.16.01-.11,0-.21-.02-.3-.06-.09-.04-.17-.1-.23-.17-.07-.07-.12-.15-.15-.24-.03-.09-.05-.19-.05-.29,0-.22.08-.41.23-.56.1-.1.29-.25.57-.42.28-.18.63-.39,1.07-.62.24-.13.45-.24.63-.34s.34-.17.48-.23c.14-.06.27-.1.39-.13.12-.03.24-.04.36-.04.31,0,.56.09.73.26.17.17.26.42.26.73v8.98c0,.3-.09.53-.26.7-.17.16-.44.24-.8.24s-.62-.08-.8-.24-.26-.39-.26-.7v-7.6l-1.09.49Z"/>
        <path class="cls-4" d="M183.61,72.51c0-.2.04-.38.11-.55s.17-.31.29-.43c.12-.12.27-.22.43-.29.17-.07.35-.11.55-.11s.37.03.54.1.3.16.42.28.21.26.27.43c.06.16.1.34.1.54s-.03.38-.1.55c-.07.17-.16.31-.29.43-.12.12-.27.21-.43.29-.17.07-.35.11-.55.11s-.38-.03-.54-.1c-.16-.07-.3-.16-.42-.28-.12-.12-.21-.26-.28-.42-.07-.16-.1-.34-.1-.54Z"/>
        <path class="cls-4" d="M187.23,68.45c0-.95.11-1.79.33-2.5.22-.71.53-1.3.93-1.78s.87-.83,1.41-1.06c.54-.23,1.14-.35,1.79-.35s1.21.11,1.74.32.97.55,1.35.99.67,1.01.87,1.68c.21.68.31,1.48.31,2.4s-.11,1.79-.33,2.5c-.22.71-.53,1.31-.93,1.78-.4.47-.87.82-1.41,1.06s-1.14.35-1.79.35-1.22-.11-1.74-.32c-.53-.22-.98-.55-1.35-.99s-.67-1.01-.87-1.68c-.21-.68-.31-1.48-.31-2.4ZM189.37,68.29c0,.72.06,1.33.18,1.82.12.5.29.9.49,1.21.21.31.44.53.71.67.27.14.55.21.85.21s.58-.07.85-.2c.27-.14.5-.36.71-.66s.36-.71.48-1.2c.12-.5.18-1.1.18-1.81s-.06-1.33-.18-1.82c-.12-.5-.29-.9-.49-1.21-.21-.31-.44-.53-.71-.67-.27-.14-.56-.21-.86-.21s-.58.07-.85.2c-.27.14-.5.36-.7.66-.2.31-.36.71-.48,1.2-.12.5-.18,1.1-.18,1.81Z"/>
        <path class="cls-4" d="M197.64,69.14c0-1.04.12-1.95.36-2.74.24-.79.58-1.46,1.02-2,.44-.54.97-.95,1.6-1.22s1.32-.41,2.09-.41c.23,0,.44.01.62.04s.33.05.46.09c.13.04.24.08.32.13s.15.1.2.14c.07.07.13.15.16.24.04.09.05.2.05.32,0,.23-.07.41-.2.54-.13.12-.29.19-.49.19-.07,0-.14,0-.21-.01s-.15-.02-.23-.03c-.08-.01-.17-.02-.28-.03-.11,0-.23-.01-.37-.01-.39,0-.75.06-1.08.18s-.62.31-.87.56-.46.58-.63.98c-.17.4-.29.88-.37,1.45.16-.11.35-.21.56-.3.18-.08.41-.15.68-.21.27-.07.57-.1.92-.1.5,0,.96.08,1.36.23.4.15.74.37,1.02.64.28.28.49.62.64,1.02s.22.85.22,1.35c0,.56-.09,1.07-.26,1.52s-.42.84-.75,1.16c-.33.32-.72.57-1.18.74-.46.17-.99.26-1.57.26s-1.14-.1-1.61-.29c-.47-.19-.87-.48-1.2-.88-.33-.39-.57-.88-.75-1.47s-.26-1.28-.26-2.07ZM201.41,68.54c-.27,0-.5.03-.7.1s-.38.14-.53.22c-.17.09-.33.2-.46.31,0,.58.05,1.06.14,1.45.09.39.22.7.38.94.16.24.35.41.57.51.22.1.47.15.74.15.23,0,.44-.04.62-.12s.35-.2.48-.36c.13-.16.24-.36.32-.6.08-.24.11-.51.11-.82s-.04-.55-.11-.77c-.08-.22-.19-.41-.33-.56-.14-.15-.32-.27-.52-.34-.21-.08-.44-.12-.71-.12Z"/>
        <path class="cls-4" d="M176.86,96.59c.22,0,.39.07.52.21.13.14.19.34.19.61s-.06.48-.19.62c-.13.14-.3.21-.52.21h-3.91c-.22,0-.39-.07-.52-.21-.13-.14-.19-.35-.19-.62s.06-.47.19-.61c.13-.14.3-.21.52-.21h3.91Z"/>
        <path class="cls-4" d="M184.95,99.96c.22,0,.4.07.54.22s.2.36.2.64-.07.5-.2.65-.31.22-.54.22h-5.34c-.36,0-.64-.1-.84-.29-.2-.19-.3-.45-.3-.77,0-.21.04-.41.12-.59.08-.18.21-.36.39-.56l1.88-2.09c.4-.44.74-.82,1.02-1.14.28-.33.52-.62.7-.89s.31-.53.4-.77.13-.5.13-.77c0-.47-.14-.83-.41-1.07-.27-.25-.7-.37-1.28-.37-.23,0-.43.02-.61.05-.18.04-.34.08-.48.12-.14.05-.27.09-.39.12-.12.04-.22.05-.33.05-.19,0-.34-.06-.46-.18-.12-.12-.18-.28-.18-.49,0-.23.08-.42.23-.58.09-.09.21-.18.38-.26s.36-.16.59-.23c.23-.07.49-.13.79-.17.29-.04.62-.07.96-.07.57,0,1.07.07,1.5.2.43.13.78.32,1.06.55s.49.53.63.86.21.71.21,1.12-.06.82-.18,1.18c-.12.36-.3.74-.55,1.11-.25.38-.55.78-.93,1.2s-.82.91-1.33,1.45l-1.45,1.53h4.03Z"/>
        <path class="cls-4" d="M187.48,100.51c0-.2.04-.38.11-.55s.17-.31.29-.43c.12-.12.27-.22.43-.29.17-.07.35-.11.55-.11s.37.03.54.1.3.16.42.28.21.26.27.43c.06.16.1.34.1.54s-.03.38-.1.55c-.07.17-.16.31-.29.43-.12.12-.27.21-.43.29-.17.07-.35.11-.55.11s-.38-.03-.54-.1c-.16-.07-.3-.16-.42-.28-.12-.12-.21-.26-.28-.42-.07-.16-.1-.34-.1-.54Z"/>
        <path class="cls-4" d="M190.84,93.7c-.1.05-.19.09-.27.12-.08.03-.14.06-.2.08-.06.02-.12.04-.17.04-.05,0-.1.01-.16.01-.11,0-.21-.02-.3-.06-.09-.04-.17-.1-.23-.17-.07-.07-.12-.15-.15-.24-.03-.09-.05-.19-.05-.29,0-.22.08-.41.23-.56.1-.1.29-.25.57-.42.28-.18.63-.39,1.07-.62.24-.13.45-.24.63-.34s.34-.17.48-.23c.14-.06.27-.1.39-.13.12-.03.24-.04.36-.04.31,0,.56.09.73.26.17.17.26.42.26.73v8.98c0,.3-.09.53-.26.7-.17.16-.44.24-.8.24s-.62-.08-.8-.24-.26-.39-.26-.7v-7.6l-1.09.49Z"/>
        <path class="cls-4" d="M196.16,94.45c0-.56.09-1.07.26-1.52s.42-.84.75-1.16c.33-.32.72-.57,1.18-.74.46-.17.99-.26,1.57-.26s1.13.1,1.61.29c.47.19.87.48,1.2.88.33.39.57.88.75,1.47s.26,1.28.26,2.07c0,1.04-.12,1.95-.36,2.75s-.59,1.46-1.05,2-1.03.94-1.69,1.22c-.67.28-1.42.41-2.27.41-.24,0-.45-.01-.63-.03s-.33-.05-.46-.09c-.13-.04-.23-.08-.32-.12-.08-.05-.15-.1-.2-.15-.07-.07-.13-.15-.17-.24s-.06-.2-.06-.33c0-.23.07-.41.2-.54s.3-.18.5-.18c.07,0,.14,0,.21.01s.15.02.23.03c.08.01.18.02.28.03.1,0,.23.01.37.01.55,0,1.02-.08,1.4-.23s.7-.37.96-.64c.25-.28.45-.61.59-1s.24-.82.31-1.29c-.16.11-.35.22-.56.31-.18.08-.41.15-.67.21s-.57.09-.91.09c-.51,0-.97-.07-1.37-.22-.4-.15-.74-.36-1.02-.64-.28-.28-.49-.62-.64-1.02s-.22-.85-.22-1.35ZM198.29,94.29c0,.29.04.55.11.77.08.22.18.41.33.56.14.15.32.27.52.34.21.08.44.12.71.12s.49-.03.7-.1c.21-.07.38-.14.54-.21.17-.09.33-.2.46-.32,0-.59-.05-1.09-.14-1.48-.1-.39-.23-.71-.39-.94s-.36-.4-.58-.49c-.22-.1-.46-.14-.71-.14-.23,0-.44.04-.62.12s-.35.2-.48.36c-.14.16-.24.36-.32.59-.08.24-.11.51-.11.82Z"/>
        <path class="cls-4" d="M176.55,124.59c.22,0,.39.07.52.21.13.14.19.34.19.61s-.06.48-.19.62c-.13.14-.3.21-.52.21h-3.91c-.22,0-.39-.07-.52-.21-.13-.14-.19-.35-.19-.62s.06-.47.19-.61c.13-.14.3-.21.52-.21h3.91Z"/>
        <path class="cls-4" d="M179.44,121.7c-.1.05-.19.09-.27.12-.08.03-.14.06-.2.08-.06.02-.12.04-.17.04-.05,0-.1.01-.16.01-.11,0-.21-.02-.3-.06-.09-.04-.17-.1-.23-.17-.07-.07-.12-.15-.15-.24-.03-.09-.05-.19-.05-.29,0-.22.08-.41.23-.56.1-.1.29-.25.57-.42.28-.18.63-.39,1.07-.62.24-.13.45-.24.63-.34s.34-.17.48-.23c.14-.06.27-.1.39-.13.12-.03.24-.04.36-.04.31,0,.56.09.73.26.17.17.26.42.26.73v8.98c0,.3-.09.53-.26.7-.17.16-.44.24-.8.24s-.62-.08-.8-.24-.26-.39-.26-.7v-7.6l-1.09.49Z"/>
        <path class="cls-4" d="M184.64,128.51c0-.2.04-.38.11-.55s.17-.31.29-.43c.12-.12.27-.22.43-.29.17-.07.35-.11.55-.11s.37.03.54.1.3.16.42.28.21.26.27.43c.06.16.1.34.1.54s-.03.38-.1.55c-.07.17-.16.31-.29.43-.12.12-.27.21-.43.29-.17.07-.35.11-.55.11s-.38-.03-.54-.1c-.16-.07-.3-.16-.42-.28-.12-.12-.21-.26-.28-.42-.07-.16-.1-.34-.1-.54Z"/>
        <path class="cls-4" d="M195.73,127.96c.22,0,.4.07.54.22s.2.36.2.64-.07.5-.2.65-.31.22-.54.22h-5.34c-.36,0-.64-.1-.84-.29-.2-.19-.3-.45-.3-.77,0-.21.04-.41.12-.59.08-.18.21-.36.39-.56l1.88-2.09c.4-.44.74-.82,1.02-1.14.28-.33.52-.62.7-.89s.31-.53.4-.77.13-.5.13-.77c0-.47-.14-.83-.41-1.07-.27-.25-.7-.37-1.28-.37-.23,0-.43.02-.61.05-.18.04-.34.08-.48.12-.14.05-.27.09-.39.12-.12.04-.22.05-.33.05-.19,0-.34-.06-.46-.18-.12-.12-.18-.28-.18-.49,0-.23.08-.42.23-.58.09-.09.21-.18.38-.26s.36-.16.59-.23c.23-.07.49-.13.79-.17.29-.04.62-.07.96-.07.57,0,1.07.07,1.5.2.43.13.78.32,1.06.55s.49.53.63.86.21.71.21,1.12-.06.82-.18,1.18c-.12.36-.3.74-.55,1.11-.25.38-.55.78-.93,1.2s-.82.91-1.33,1.45l-1.45,1.53h4.03Z"/>
        <path class="cls-4" d="M203.67,127.96c.22,0,.4.07.54.22s.2.36.2.64-.07.5-.2.65-.31.22-.54.22h-5.34c-.36,0-.64-.1-.84-.29-.2-.19-.3-.45-.3-.77,0-.21.04-.41.12-.59.08-.18.21-.36.39-.56l1.88-2.09c.4-.44.74-.82,1.02-1.14.28-.33.52-.62.7-.89s.31-.53.4-.77.13-.5.13-.77c0-.47-.14-.83-.41-1.07-.27-.25-.7-.37-1.28-.37-.23,0-.43.02-.61.05-.18.04-.34.08-.48.12-.14.05-.27.09-.39.12-.12.04-.22.05-.33.05-.19,0-.34-.06-.46-.18-.12-.12-.18-.28-.18-.49,0-.23.08-.42.23-.58.09-.09.21-.18.38-.26s.36-.16.59-.23c.23-.07.49-.13.79-.17.29-.04.62-.07.96-.07.57,0,1.07.07,1.5.2.43.13.78.32,1.06.55s.49.53.63.86.21.71.21,1.12-.06.82-.18,1.18c-.12.36-.3.74-.55,1.11-.25.38-.55.78-.93,1.2s-.82.91-1.33,1.45l-1.45,1.53h4.03Z"/>
        <path class="cls-4" d="M178.13,152.59c.22,0,.39.07.52.21.13.14.19.34.19.61s-.06.48-.19.62c-.13.14-.3.21-.52.21h-3.91c-.22,0-.39-.07-.52-.21-.13-.14-.19-.35-.19-.62s.06-.47.19-.61c.13-.14.3-.21.52-.21h3.91Z"/>
        <path class="cls-4" d="M181.02,149.7c-.1.05-.19.09-.27.12-.08.03-.14.06-.2.08-.06.02-.12.04-.17.04-.05,0-.1.01-.16.01-.11,0-.21-.02-.3-.06-.09-.04-.17-.1-.23-.17-.07-.07-.12-.15-.15-.24-.03-.09-.05-.19-.05-.29,0-.22.08-.41.23-.56.1-.1.29-.25.57-.42.28-.18.63-.39,1.07-.62.24-.13.45-.24.63-.34s.34-.17.48-.23c.14-.06.27-.1.39-.13.12-.03.24-.04.36-.04.31,0,.56.09.73.26.17.17.26.42.26.73v8.98c0,.3-.09.53-.26.7-.17.16-.44.24-.8.24s-.62-.08-.8-.24-.26-.39-.26-.7v-7.6l-1.09.49Z"/>
        <path class="cls-4" d="M186.22,156.51c0-.2.04-.38.11-.55s.17-.31.29-.43c.12-.12.27-.22.43-.29.17-.07.35-.11.55-.11s.37.03.54.1.3.16.42.28.21.26.27.43c.06.16.1.34.1.54s-.03.38-.1.55c-.07.17-.16.31-.29.43-.12.12-.27.21-.43.29-.17.07-.35.11-.55.11s-.38-.03-.54-.1c-.16-.07-.3-.16-.42-.28-.12-.12-.21-.26-.28-.42-.07-.16-.1-.34-.1-.54Z"/>
        <path class="cls-4" d="M189.58,149.7c-.1.05-.19.09-.27.12-.08.03-.14.06-.2.08-.06.02-.12.04-.17.04-.05,0-.1.01-.16.01-.11,0-.21-.02-.3-.06-.09-.04-.17-.1-.23-.17-.07-.07-.12-.15-.15-.24-.03-.09-.05-.19-.05-.29,0-.22.08-.41.23-.56.1-.1.29-.25.57-.42.28-.18.63-.39,1.07-.62.24-.13.45-.24.63-.34s.34-.17.48-.23c.14-.06.27-.1.39-.13.12-.03.24-.04.36-.04.31,0,.56.09.73.26.17.17.26.42.26.73v8.98c0,.3-.09.53-.26.7-.17.16-.44.24-.8.24s-.62-.08-.8-.24-.26-.39-.26-.7v-7.6l-1.09.49Z"/>
        <path class="cls-4" d="M195.03,153.14c0-1.04.12-1.95.36-2.74.24-.79.58-1.46,1.02-2,.44-.54.97-.95,1.6-1.22s1.32-.41,2.09-.41c.23,0,.44.01.62.04s.33.05.46.09c.13.04.24.08.32.13s.15.1.2.14c.07.07.13.15.16.24.04.09.05.2.05.32,0,.23-.07.41-.2.54-.13.12-.29.19-.49.19-.07,0-.14,0-.21-.01s-.15-.02-.23-.03c-.08-.01-.17-.02-.28-.03-.11,0-.23-.01-.37-.01-.39,0-.75.06-1.08.18s-.62.31-.87.56-.46.58-.63.98c-.17.4-.29.88-.37,1.45.16-.11.35-.21.56-.3.18-.08.41-.15.68-.21.27-.07.57-.1.92-.1.5,0,.96.08,1.36.23.4.15.74.37,1.02.64.28.28.49.62.64,1.02s.22.85.22,1.35c0,.56-.09,1.07-.26,1.52s-.42.84-.75,1.16c-.33.32-.72.57-1.18.74-.46.17-.99.26-1.57.26s-1.14-.1-1.61-.29c-.47-.19-.87-.48-1.2-.88-.33-.39-.57-.88-.75-1.47s-.26-1.28-.26-2.07ZM198.8,152.54c-.27,0-.5.03-.7.1s-.38.14-.53.22c-.17.09-.33.2-.46.31,0,.58.05,1.06.14,1.45.09.39.22.7.38.94.16.24.35.41.57.51.22.1.47.15.74.15.23,0,.44-.04.62-.12s.35-.2.48-.36c.13-.16.24-.36.32-.6.08-.24.11-.51.11-.82s-.04-.55-.11-.77c-.08-.22-.19-.41-.33-.56-.14-.15-.32-.27-.52-.34-.21-.08-.44-.12-.71-.12Z"/>
        <path class="cls-4" d="M174.1,180.59c.22,0,.39.07.52.21.13.14.19.34.19.61s-.06.48-.19.62c-.13.14-.3.21-.52.21h-3.91c-.22,0-.39-.07-.52-.21-.13-.14-.19-.35-.19-.62s.06-.47.19-.61c.13-.14.3-.21.52-.21h3.91Z"/>
        <path class="cls-4" d="M182.19,183.96c.22,0,.4.07.54.22s.2.36.2.64-.07.5-.2.65-.31.22-.54.22h-5.34c-.36,0-.64-.1-.84-.29-.2-.19-.3-.45-.3-.77,0-.21.04-.41.12-.59.08-.18.21-.36.39-.56l1.88-2.09c.4-.44.74-.82,1.02-1.14.28-.33.52-.62.7-.89s.31-.53.4-.77.13-.5.13-.77c0-.47-.14-.83-.41-1.07-.27-.25-.7-.37-1.28-.37-.23,0-.43.02-.61.05-.18.04-.34.08-.48.12-.14.05-.27.09-.39.12-.12.04-.22.05-.33.05-.19,0-.34-.06-.46-.18-.12-.12-.18-.28-.18-.49,0-.23.08-.42.23-.58.09-.09.21-.18.38-.26s.36-.16.59-.23c.23-.07.49-.13.79-.17.29-.04.62-.07.96-.07.57,0,1.07.07,1.5.2.43.13.78.32,1.06.55s.49.53.63.86.21.71.21,1.12-.06.82-.18,1.18c-.12.36-.3.74-.55,1.11-.25.38-.55.78-.93,1.2s-.82.91-1.33,1.45l-1.45,1.53h4.03Z"/>
        <path class="cls-4" d="M184.73,184.51c0-.2.04-.38.11-.55s.17-.31.29-.43c.12-.12.27-.22.43-.29.17-.07.35-.11.55-.11s.37.03.54.1.3.16.42.28.21.26.27.43c.06.16.1.34.1.54s-.03.38-.1.55c-.07.17-.16.31-.29.43-.12.12-.27.21-.43.29-.17.07-.35.11-.55.11s-.38-.03-.54-.1c-.16-.07-.3-.16-.42-.28-.12-.12-.21-.26-.28-.42-.07-.16-.1-.34-.1-.54Z"/>
        <path class="cls-4" d="M188.66,181.14c0-1.04.12-1.95.36-2.74.24-.79.58-1.46,1.02-2,.44-.54.97-.95,1.6-1.22s1.32-.41,2.09-.41c.23,0,.44.01.62.04s.33.05.46.09c.13.04.24.08.32.13s.15.1.2.14c.07.07.13.15.16.24.04.09.05.2.05.32,0,.23-.07.41-.2.54-.13.12-.29.19-.49.19-.07,0-.14,0-.21-.01s-.15-.02-.23-.03c-.08-.01-.17-.02-.28-.03-.11,0-.23-.01-.37-.01-.39,0-.75.06-1.08.18s-.62.31-.87.56-.46.58-.63.98c-.17.4-.29.88-.37,1.45.16-.11.35-.21.56-.3.18-.08.41-.15.68-.21.27-.07.57-.1.92-.1.5,0,.96.08,1.36.23.4.15.74.37,1.02.64.28.28.49.62.64,1.02s.22.85.22,1.35c0,.56-.09,1.07-.26,1.52s-.42.84-.75,1.16c-.33.32-.72.57-1.18.74-.46.17-.99.26-1.57.26s-1.14-.1-1.61-.29c-.47-.19-.87-.48-1.2-.88-.33-.39-.57-.88-.75-1.47s-.26-1.28-.26-2.07ZM192.43,180.54c-.27,0-.5.03-.7.1s-.38.14-.53.22c-.17.09-.33.2-.46.31,0,.58.05,1.06.14,1.45.09.39.22.7.38.94.16.24.35.41.57.51.22.1.47.15.74.15.23,0,.44-.04.62-.12s.35-.2.48-.36c.13-.16.24-.36.32-.6.08-.24.11-.51.11-.82s-.04-.55-.11-.77c-.08-.22-.19-.41-.33-.56-.14-.15-.32-.27-.52-.34-.21-.08-.44-.12-.71-.12Z"/>
        <path class="cls-4" d="M197.77,180.45c0-.95.11-1.79.33-2.5.22-.71.53-1.3.93-1.78s.87-.83,1.41-1.06c.54-.23,1.14-.35,1.79-.35s1.21.11,1.74.32.97.55,1.35.99.67,1.01.87,1.68c.21.68.31,1.48.31,2.4s-.11,1.79-.33,2.5c-.22.71-.53,1.31-.93,1.78-.4.47-.87.82-1.41,1.06s-1.14.35-1.79.35-1.22-.11-1.74-.32c-.53-.22-.98-.55-1.35-.99s-.67-1.01-.87-1.68c-.21-.68-.31-1.48-.31-2.4ZM199.91,180.29c0,.72.06,1.33.18,1.82.12.5.29.9.49,1.21.21.31.44.53.71.67.27.14.55.21.85.21s.58-.07.85-.2c.27-.14.5-.36.71-.66s.36-.71.48-1.2c.12-.5.18-1.1.18-1.81s-.06-1.33-.18-1.82c-.12-.5-.29-.9-.49-1.21-.21-.31-.44-.53-.71-.67-.27-.14-.56-.21-.86-.21s-.58.07-.85.2c-.27.14-.5.36-.7.66-.2.31-.36.71-.48,1.2-.12.5-.18,1.1-.18,1.81Z"/>
        <path class="cls-4" d="M176.53,208.59c.22,0,.39.07.52.21.13.14.19.34.19.61s-.06.48-.19.62c-.13.14-.3.21-.52.21h-3.91c-.22,0-.39-.07-.52-.21-.13-.14-.19-.35-.19-.62s.06-.47.19-.61c.13-.14.3-.21.52-.21h3.91Z"/>
        <path class="cls-4" d="M179.42,205.7c-.1.05-.19.09-.27.12-.08.03-.14.06-.2.08-.06.02-.12.04-.17.04-.05,0-.1.01-.16.01-.11,0-.21-.02-.3-.06-.09-.04-.17-.1-.23-.17-.07-.07-.12-.15-.15-.24-.03-.09-.05-.19-.05-.29,0-.22.08-.41.23-.56.1-.1.29-.25.57-.42.28-.18.63-.39,1.07-.62.24-.13.45-.24.63-.34s.34-.17.48-.23c.14-.06.27-.1.39-.13.12-.03.24-.04.36-.04.31,0,.56.09.73.26.17.17.26.42.26.73v8.98c0,.3-.09.53-.26.7-.17.16-.44.24-.8.24s-.62-.08-.8-.24-.26-.39-.26-.7v-7.6l-1.09.49Z"/>
        <path class="cls-4" d="M184.61,212.51c0-.2.04-.38.11-.55s.17-.31.29-.43c.12-.12.27-.22.43-.29.17-.07.35-.11.55-.11s.37.03.54.1.3.16.42.28.21.26.27.43c.06.16.1.34.1.54s-.03.38-.1.55c-.07.17-.16.31-.29.43-.12.12-.27.21-.43.29-.17.07-.35.11-.55.11s-.38-.03-.54-.1c-.16-.07-.3-.16-.42-.28-.12-.12-.21-.26-.28-.42-.07-.16-.1-.34-.1-.54Z"/>
        <path class="cls-4" d="M195.71,211.96c.22,0,.4.07.54.22s.2.36.2.64-.07.5-.2.65-.31.22-.54.22h-5.34c-.36,0-.64-.1-.84-.29-.2-.19-.3-.45-.3-.77,0-.21.04-.41.12-.59.08-.18.21-.36.39-.56l1.88-2.09c.4-.44.74-.82,1.02-1.14.28-.33.52-.62.7-.89s.31-.53.4-.77.13-.5.13-.77c0-.47-.14-.83-.41-1.07-.27-.25-.7-.37-1.28-.37-.23,0-.43.02-.61.05-.18.04-.34.08-.48.12-.14.05-.27.09-.39.12-.12.04-.22.05-.33.05-.19,0-.34-.06-.46-.18-.12-.12-.18-.28-.18-.49,0-.23.08-.42.23-.58.09-.09.21-.18.38-.26s.36-.16.59-.23c.23-.07.49-.13.79-.17.29-.04.62-.07.96-.07.57,0,1.07.07,1.5.2.43.13.78.32,1.06.55s.49.53.63.86.21.71.21,1.12-.06.82-.18,1.18c-.12.36-.3.74-.55,1.11-.25.38-.55.78-.93,1.2s-.82.91-1.33,1.45l-1.45,1.53h4.03Z"/>
        <path class="cls-4" d="M199.78,206.94c.79.03,1.47.14,2.03.32.56.18,1.02.42,1.38.72s.62.65.78,1.05c.17.4.25.84.25,1.32,0,.52-.09.99-.26,1.41-.17.43-.43.79-.78,1.1-.34.31-.77.55-1.28.71s-1.09.25-1.76.25c-.33,0-.63-.02-.9-.06s-.5-.09-.71-.15-.37-.13-.51-.2c-.14-.08-.24-.15-.32-.22-.09-.09-.17-.19-.21-.3s-.07-.24-.07-.39c0-.22.06-.39.19-.52s.29-.19.48-.19c.11,0,.22.02.33.07.11.05.23.1.38.15s.33.11.53.15c.21.05.46.07.78.07s.58-.04.82-.12c.24-.08.44-.2.61-.35s.29-.33.37-.54c.08-.21.12-.45.12-.71,0-.28-.06-.54-.18-.78-.12-.24-.32-.45-.59-.62-.27-.17-.61-.31-1.04-.41s-.93-.15-1.53-.15c-.27,0-.46-.07-.58-.2-.12-.13-.17-.33-.16-.59l.2-4.02c.01-.28.09-.49.24-.63.15-.14.37-.21.65-.21h4.11c.22,0,.4.07.54.21.13.14.2.36.2.64s-.07.51-.2.65-.32.21-.54.21h-3.27l-.11,2.29Z"/>
      </g>
      <path class="cls-1" d="M222.04,212.04l6.18-10.71c.78-1.35-.19-3.03-1.75-3.03h-12.37c-1.55,0-2.52,1.68-1.75,3.03l6.18,10.71c.78,1.35,2.72,1.35,3.5,0Z"/>
      <path class="cls-1" d="M222.04,184.2l6.18-10.71c.78-1.35-.19-3.03-1.75-3.03h-12.37c-1.55,0-2.52,1.68-1.75,3.03l6.18,10.71c.78,1.35,2.72,1.35,3.5,0Z"/>
      <path class="cls-1" d="M222.04,156.36l6.18-10.71c.78-1.35-.19-3.03-1.75-3.03h-12.37c-1.55,0-2.52,1.68-1.75,3.03l6.18,10.71c.78,1.35,2.72,1.35,3.5,0Z"/>
      <path class="cls-1" d="M222.04,128.52l6.18-10.71c.78-1.35-.19-3.03-1.75-3.03h-12.37c-1.55,0-2.52,1.68-1.75,3.03l6.18,10.71c.78,1.35,2.72,1.35,3.5,0Z"/>
      <path class="cls-1" d="M222.04,100.68l6.18-10.71c.78-1.35-.19-3.03-1.75-3.03h-12.37c-1.55,0-2.52,1.68-1.75,3.03l6.18,10.71c.78,1.35,2.72,1.35,3.5,0Z"/>
      <path class="cls-1" d="M222.04,72.84l6.18-10.71c.78-1.35-.19-3.03-1.75-3.03h-12.37c-1.55,0-2.52,1.68-1.75,3.03l6.18,10.71c.78,1.35,2.72,1.35,3.5,0Z"/>
    </g>
  </g>
  <g>
    <path class="cls-5" d="M351.96,168.2v50c0,.11-.01.21-.01.31-.01.14-.02.28-.02.41-.02.33-.04.66-.08.98,0,.11-.04.22-.05.33-.05.34-.11.68-.18,1.01-.02.11-.06.22-.08.33-.08.32-.17.64-.27.96-.05.15-.11.31-.17.46-.1.26-.19.52-.3.77-.09.23-.21.45-.32.67-.08.17-.17.35-.26.52-.15.27-.31.52-.48.79-.07.11-.14.23-.22.34-.18.27-.38.53-.58.78-.08.1-.16.21-.24.31-.2.23-.41.46-.63.69-.1.11-.2.22-.31.32-.07.08-.14.15-.21.22-.16.15-.34.29-.5.43-.1.08-.19.16-.28.24-.26.2-.52.4-.78.58-.1.07-.2.15-.3.21-.27.18-.55.35-.83.5-.11.07-.22.13-.33.19-.28.15-.56.28-.85.41-.12.06-.25.12-.37.17-.28.12-.57.22-.86.32-.14.05-.28.1-.42.14-.29.09-.58.16-.87.22-.15.04-.3.08-.46.12-.3.06-.61.1-.93.14-.14.02-.28.04-.42.06-.46.04-.92.07-1.39.07h-40c-7.52,0-13.65-5.96-13.97-13.41,0-.07-.02-.14-.02-.21v-.21c0-.06-.01-.11-.01-.17s.01-.12.01-.18v-9.41s.01-.05.01-.08c0-.11-.02-.22-.02-.33,0-7.16,5.41-13.08,12.36-13.9l-35.5-37.8-19.02,24.36c-2.75,3.54-7.08,5.54-11.58,5.38-4.51-.18-8.67-2.54-11.15-6.29l-41.53-63.1-13.4,8.34c-3.26,2.04-7.26,2.64-10.98,1.65-3.72-.98-6.9-3.48-8.73-6.86l-26.11-48.15-60.9,78.06c-4.75,6.09-13.56,7.18-19.65,2.43-2.95-2.3-4.82-5.61-5.28-9.32-.07-.53-.1-1.06-.1-1.58,0-.03-.01-.05-.01-.07v-9.81s.01-.03.01-.05c-.06-3.19.97-6.27,2.95-8.82L109.39,27.74c2.91-3.72,7.46-5.71,12.19-5.34,4.73.39,8.9,3.12,11.16,7.28l29.22,53.89,12.37-7.7c6.5-4.05,14.88-2.21,19.09,4.18l38.31,58.2,17.07-21.86c2.52-3.23,6.31-5.19,10.4-5.38,4.11-.17,8.05,1.43,10.84,4.41l53.92,57.42v-4.64c0-7.72,6.28-14,14-14s14,6.28,14,14Z"/>
    <g>
      <path class="cls-3" d="M337.96,228.2c-2.67,0-5.32-1.06-7.29-3.15l-70.14-74.69-21.89,28.05c-1.98,2.54-5.08,3.96-8.29,3.84-3.22-.13-6.18-1.8-7.95-4.49l-43.68-66.35-16.71,10.41c-2.34,1.46-5.18,1.88-7.84,1.18-2.66-.71-4.92-2.48-6.23-4.9l-29.03-53.53-64.66,82.88c-3.4,4.36-9.68,5.13-14.04,1.73-4.35-3.4-5.13-9.68-1.73-14.04L112.55,40.2c2.07-2.66,5.34-4.09,8.71-3.82,3.36.28,6.36,2.23,7.96,5.2l31.24,57.62,15.98-9.95c4.6-2.87,10.66-1.54,13.64,2.99l41.38,62.86,20.49-26.26c1.8-2.3,4.51-3.7,7.43-3.84,2.91-.12,5.75,1.01,7.75,3.14l78.13,83.2c3.78,4.03,3.58,10.35-.44,14.14-1.93,1.81-4.39,2.71-6.84,2.71Z"/>
      <rect class="cls-3" x="36.38" y="131.54" width="5.42" height="9.8"/>
      <path class="cls-3" d="M337.96,228.2h-40c-5.52,0-10-4.48-10-10s4.48-10,10-10h30v-30c0-5.52,4.48-10,10-10s10,4.48,10,10v40c0,5.52-4.48,10-10,10Z"/>
      <rect class="cls-3" x="287.97" y="208.61" width="2.98" height="9.97"/>
      <path class="cls-1" d="M337.96,218.2c-2.67,0-5.32-1.06-7.29-3.15l-70.14-74.69-21.89,28.05c-1.98,2.54-5.08,3.97-8.29,3.84-3.22-.13-6.18-1.8-7.95-4.49l-43.68-66.35-16.71,10.41c-2.34,1.46-5.18,1.88-7.84,1.18-2.66-.71-4.92-2.48-6.23-4.9l-29.03-53.53-64.66,82.88c-3.4,4.36-9.68,5.13-14.04,1.73-4.35-3.4-5.13-9.68-1.73-14.04L112.55,30.2c2.07-2.66,5.34-4.09,8.71-3.82,3.36.28,6.36,2.23,7.96,5.2l31.24,57.62,15.98-9.95c4.6-2.87,10.66-1.54,13.64,2.99l41.38,62.86,20.49-26.26c1.8-2.3,4.51-3.7,7.43-3.84,2.91-.12,5.75,1.01,7.75,3.14l78.13,83.2c3.78,4.03,3.58,10.35-.44,14.14-1.93,1.81-4.39,2.71-6.84,2.71Z"/>
      <path class="cls-1" d="M337.96,218.2h-40c-5.52,0-10-4.48-10-10s4.48-10,10-10h30v-30c0-5.52,4.48-10,10-10s10,4.48,10,10v40c0,5.52-4.48,10-10,10Z"/>
    </g>
  </g>
</svg>