<?xml version="1.0" encoding="UTF-8"?>
<svg id="Expanded" xmlns="http://www.w3.org/2000/svg" viewBox="0 0 400 250">
  <defs>
    <style>
      .cls-1 {
        fill: #fff;
      }

      .cls-2 {
        fill: #dfedf2;
      }

      .cls-3 {
        fill: #ea9939;
      }

      .cls-4 {
        fill: #fff8d9;
      }

      .cls-5 {
        fill: #f43f3f;
      }

      .cls-6 {
        fill: #6d3108;
      }

      .cls-7 {
        fill: #ffe277;
      }

      .cls-8 {
        fill: #333;
      }

      .cls-9 {
        fill: #a8b6c1;
      }

      .cls-10 {
        fill: #7a1839;
      }
    </style>
  </defs>
  <path class="cls-1" d="M305.89,16.23v174.09c-16.98,16.97-26.49,26.48-43.46,43.46H125.79V16.23h180.1Z"/>
  <path class="cls-2" d="M305.89,81.13l-1.13,106.18-12.9-3.7-16.02-2.36s29.12-6.47,30.06-100.11Z"/>
  <path class="cls-2" d="M270.38,195.94s-1.2,11.12-3.76,17.79c-2.89,7.52-10.92,18.69-10.92,18.69l-129.92,1.36v-2.16c28.72-.91,123.8-14.08,144.6-35.67Z"/>
  <path class="cls-8" d="M245.17,235.78h-119.38c-1.1,0-2-.9-2-2V16.22c0-1.1.9-2,2-2h180.1c1.1,0,2,.9,2,2v163.59c0,7.31-2.85,14.17-8.01,19.34-8.71,8.7-15.68,15.67-23.83,23.83-8.13,8.13-19.38,12.8-30.88,12.8ZM127.79,231.78h117.38c10.44,0,20.66-4.24,28.05-11.62,8.15-8.15,15.13-15.13,23.83-23.83,4.41-4.41,6.84-10.27,6.84-16.51V18.22H127.79v213.55Z"/>
  <path class="cls-9" d="M259.38,226.92c-.24,0-.48-.09-.68-.26-.41-.37-.43-1.01-.06-1.41,14.74-16.02,11.62-43.02,11.59-43.29-.06-.46.21-.9.65-1.06.21-.08,5.15-1.81,16.9.73,7.45,1.62,13.42,3.59,13.48,3.61.52.17.81.74.63,1.26-.17.52-.74.8-1.26.63-.06-.02-5.93-1.96-13.27-3.55-8.67-1.88-13.35-1.34-15.04-1,.45,4.93,1.82,28.78-12.19,44.01-.2.21-.47.32-.74.32Z"/>
  <path class="cls-9" d="M200.88,106.54h-53.2c-.55,0-1-.45-1-1s.45-1,1-1h53.2c.55,0,1,.45,1,1s-.45,1-1,1Z"/>
  <path class="cls-9" d="M216.02,106.54h-7.38c-.55,0-1-.45-1-1s.45-1,1-1h7.38c.55,0,1,.45,1,1s-.45,1-1,1Z"/>
  <path class="cls-9" d="M249.03,123.24h-86.6c-.55,0-1-.45-1-1s.45-1,1-1h86.6c.55,0,1,.45,1,1s-.45,1-1,1Z"/>
  <path class="cls-9" d="M191.56,183.82h-34.56c-.55,0-1-.45-1-1s.45-1,1-1h34.56c.55,0,1,.45,1,1s-.45,1-1,1Z"/>
  <path class="cls-9" d="M185.34,194.69h-23.69c-.55,0-1-.45-1-1s.45-1,1-1h23.69c.55,0,1,.45,1,1s-.45,1-1,1Z"/>
  <path class="cls-1" d="M305.89,16.23v174.09c-16.98,16.97-26.49,26.48-43.46,43.46H125.79V16.23h180.1Z"/>
  <path class="cls-2" d="M305.89,81.13l-1.13,106.18-12.9-3.7-16.02-2.36s29.12-6.47,30.06-100.11Z"/>
  <path class="cls-2" d="M270.38,195.94s-1.2,11.12-3.76,17.79c-2.89,7.52-10.92,18.69-10.92,18.69l-129.92,1.36v-2.16c28.72-.91,123.8-14.08,144.6-35.67Z"/>
  <path class="cls-8" d="M245.17,235.78h-119.38c-1.1,0-2-.9-2-2V16.22c0-1.1.9-2,2-2h180.1c1.1,0,2,.9,2,2v163.59c0,7.31-2.85,14.17-8.01,19.34-8.71,8.7-15.68,15.67-23.83,23.83-8.13,8.13-19.38,12.8-30.88,12.8ZM127.79,231.78h117.38c10.44,0,20.66-4.24,28.05-11.62,8.15-8.15,15.13-15.13,23.83-23.83,4.41-4.41,6.84-10.27,6.84-16.51V18.22H127.79v213.55Z"/>
  <path class="cls-9" d="M259.38,226.92c-.24,0-.48-.09-.68-.26-.41-.37-.43-1.01-.06-1.41,14.74-16.02,11.62-43.02,11.59-43.29-.06-.46.21-.9.65-1.06.21-.08,5.15-1.81,16.9.73,7.45,1.62,13.42,3.59,13.48,3.61.52.17.81.74.63,1.26-.17.52-.74.8-1.26.63-.06-.02-5.93-1.96-13.27-3.55-8.67-1.88-13.35-1.34-15.04-1,.45,4.93,1.82,28.78-12.19,44.01-.2.21-.47.32-.74.32Z"/>
  <path class="cls-9" d="M219.91,123.24h-53.2c-.55,0-1-.45-1-1s.45-1,1-1h53.2c.55,0,1,.45,1,1s-.45,1-1,1Z"/>
  <path class="cls-9" d="M235.05,123.24h-7.38c-.55,0-1-.45-1-1s.45-1,1-1h7.38c.55,0,1,.45,1,1s-.45,1-1,1Z"/>
  <path class="cls-9" d="M264.5,139.93h-86.6c-.55,0-1-.45-1-1s.45-1,1-1h86.6c.55,0,1,.45,1,1s-.45,1-1,1Z"/>
  <path class="cls-9" d="M244.93,183.82h-34.56c-.55,0-1-.45-1-1s.45-1,1-1h34.56c.55,0,1,.45,1,1s-.45,1-1,1Z"/>
  <path class="cls-9" d="M238.71,194.69h-23.69c-.55,0-1-.45-1-1s.45-1,1-1h23.69c.55,0,1,.45,1,1s-.45,1-1,1Z"/>
  <g>
    <path class="cls-10" d="M251.01,67.98c0,1.26-.49,2.45-1.38,3.35l-1.92,1.91c-.82.82-1.91,1.31-3.07,1.36v20.33c0,2.95-2.4,5.35-5.35,5.35h-50.78c-2.95,0-5.35-2.4-5.35-5.35v-20.33c-1.16-.06-2.24-.54-3.07-1.36l-1.92-1.91c-.89-.9-1.38-2.08-1.38-3.35s.49-2.45,1.38-3.35l30.15-30.15c3.07-3.07,8.06-3.07,11.13,0l30.15,30.15c.89.9,1.38,2.09,1.38,3.35Z"/>
    <path class="cls-7" d="M239.3,97.67h-50.79c-1.52,0-2.75-1.23-2.75-2.75v-28.77l28.14-28.15,28.14,28.15v28.77c0,1.52-1.23,2.75-2.75,2.75Z"/>
    <path class="cls-5" d="M247.79,69.49l-1.91,1.91c-.83.83-2.18.83-3.01,0l-27.57-27.57c-.77-.77-2.01-.77-2.77,0l-27.57,27.57c-.83.83-2.18.83-3.01,0l-1.91-1.91c-.83-.83-.83-2.18,0-3.01l30.16-30.15c2.06-2.06,5.4-2.06,7.46,0l30.16,30.15c.83.83.83,2.18,0,3.01Z"/>
    <path class="cls-5" d="M218.32,73.32h-8.83c-1.59,0-2.88,1.29-2.88,2.88v21.47h14.59v-21.47c0-1.59-1.29-2.88-2.88-2.88Z"/>
    <circle class="cls-7" cx="217.93" cy="86.05" r="1.61"/>
  </g>
  <g>
    <path class="cls-6" d="M199.9,189.26v5.19c0,.14-.01.28-.02.41,0,.01,0,.02-.01.03-.25,3.61-2.85,6.66-6.54,7.41l-5.96,1.21c-.55.11-1.1.17-1.64.17-2.16,0-4.24-.85-5.8-2.41l-12.14-12.14c-1.13-1.13-1.78-2.7-1.78-4.31v-2.88s-2.9,0-2.9,0c-1.62,0-3.14-.63-4.28-1.77l-2-2c-1.05-1.05-1.68-2.45-1.77-3.94l-.15-2.66-2.5-.35c-2.78-.38-4.92-2.61-5.2-5.4l-.24-2.43-4.16-.76c-1.21-.22-2.32-.8-3.19-1.67l-6.16-6.16c-1.25,1.25-2.92,1.94-4.7,1.94s-3.45-.69-4.7-1.95l-3.34-3.34c-13.87,3.52-28.5-.46-38.7-10.66-3.84-3.83-6.82-8.31-8.84-13.17-2.01-4.87-3.07-10.14-3.07-15.56,0-.73.02-1.46.06-2.18-.8-11.43,3.27-22.98,11.85-31.56,6.74-6.74,15.67-10.91,25.16-11.74,11.99-1.06,23.77,3.22,32.31,11.75,1.29,1.29,2.49,2.67,3.58,4.11.32.41.63.84.93,1.26,2.29,3.27,4.08,6.84,5.32,10.59.11.31.21.63.3.94.52,1.68.92,3.4,1.21,5.14.07.46.14.92.2,1.39.24,1.73.35,3.49.35,5.26,0,.69-.01,1.38-.05,2.07,0,.02,0,.03-.01.05,0,.04,0,.07-.01.11h0c.2,2.85.09,5.73-.33,8.6l2.51,2.51c1.16,1.17,1.8,2.65,1.92,4.17.02.18.02.36.02.53v4.98c0,.14,0,.27-.02.41-.01.36-.06.72-.15,1.08h0s8.81,8.81,8.81,8.81c.03.03.05.05.07.08l32.13,32.12c1.3,1.31,2.14,3.04,2.35,4.87l1.23,10.93c0,.1.02.19.02.29.02.21.03.42.03.63Z"/>
    <g>
      <path class="cls-3" d="M84.85,137.97c-14.31-14.31-14.31-37.51,0-51.82s37.5-14.3,51.81,0c10.02,10.02,13.02,24.4,9,37.03,0,0,0,0,0,0l5,5c1.04,1.04,1.04,2.72,0,3.76l-2.82,2.82,45.6,45.6c.67.67,1.1,1.56,1.21,2.5l1.23,10.92c.24,2.17-1.21,4.16-3.34,4.59l-5.96,1.21c-1.38.28-2.81-.15-3.81-1.15l-12.14-12.14c-.39-.39-.61-.92-.6-1.47l.02-4.83c0-1.14-.92-2.07-2.06-2.07h-4.85c-.55,0-1.07-.21-1.46-.6l-2-2c-.36-.36-.57-.83-.6-1.34l-.24-4.25c-.06-.98-.8-1.79-1.77-1.92l-4.08-.57c-.94-.13-1.67-.89-1.77-1.84l-.38-3.87c-.09-.92-.78-1.66-1.68-1.83l-5.6-1.02c-.41-.08-.79-.27-1.09-.57l-8.98-8.98-2.82,2.82c-1.04,1.04-2.72,1.04-3.76,0l-5-5c-12.63,4.02-27.02,1.02-37.03-9ZM93.08,94.38c-3.32,3.32-3.32,8.71,0,12.03s8.7,3.32,12.03,0,3.32-8.7,0-12.02-8.71-3.32-12.03,0Z"/>
      <rect class="cls-3" x="193.03" y="189.07" width="2.87" height="5.38"/>
      <rect class="cls-3" x="147.77" y="124.97" width="3.67" height="5.07"/>
      <path class="cls-7" d="M195.88,188.79l-1.23-10.92c-.11-.95-.54-1.83-1.21-2.5l-45.6-45.6,2.82-2.82c1.04-1.04,1.04-2.72,0-3.76l-5-5c.96-3.01,1.52-6.11,1.67-9.24h0c.53-10-3.04-20.16-10.67-27.79-7.98-7.98-18.71-11.52-29.13-10.6-8.27.73-16.35,4.26-22.68,10.59-12.23,12.23-14.01,30.93-5.34,45.05,1.48,2.41,3.26,4.68,5.34,6.77,10.02,10.01,24.4,13.01,37.03,8.99l5.01,5c.29.29.63.5.99.62.94.34,2.02.13,2.77-.62l2.81-2.81,8.52,8.51.47.47c.29.3.67.49,1.08.57l5.6,1.02c.91.17,1.59.91,1.68,1.83l.39,3.87c.05.53.3,1,.68,1.34.29.26.67.44,1.08.5l4.08.57c.98.13,1.72.94,1.78,1.92l.24,4.25c.03.51.24.99.6,1.34l2,2c.38.39.91.6,1.46.6h4.85c1.14,0,2.07.93,2.06,2.07v4.83c-.02.55.2,1.07.59,1.46l12.14,12.15c1,.99,2.43,1.42,3.81,1.14l5.97-1.21c2.13-.43,3.59-2.43,3.34-4.59ZM105.11,101.41c-3.32,3.32-8.71,3.32-12.03,0-.25-.25-.48-.52-.69-.79-2.61-3.34-2.38-8.17.69-11.24,1.71-1.71,3.97-2.54,6.22-2.48,2.11.04,4.2.87,5.81,2.49,3.32,3.31,3.32,8.7,0,12.02Z"/>
      <path class="cls-4" d="M147.33,108.94h0s-19.45,38.64-19.45,38.64c-.36-.12-.7-.33-.99-.62l-5.01-5c-12.63,4.02-27.01,1.02-37.03-8.99-2.08-2.09-3.86-4.36-5.34-6.77l12.88-25.58c.21.27.44.54.69.79,3.32,3.32,8.71,3.32,12.03,0,3.32-3.32,3.32-8.71,0-12.02-1.61-1.62-3.7-2.45-5.81-2.49l8.23-16.34c10.42-.92,21.15,2.62,29.13,10.6,7.63,7.63,11.2,17.79,10.67,27.78Z"/>
      <path class="cls-4" d="M161.24,143.17l-9.36,18.59c-.38-.34-.63-.81-.68-1.34l-.39-3.87c-.09-.92-.77-1.66-1.68-1.83l-5.6-1.02c-.41-.08-.79-.27-1.08-.57l-.47-.47,9.62-19.13,9.64,9.64Z"/>
      <path class="cls-3" d="M187.43,179.43c-.25,0-.51-.1-.7-.29l-44.24-43.75c-.39-.39-.4-1.02,0-1.41.39-.39,1.02-.4,1.41,0l44.24,43.75c.39.39.4,1.02,0,1.41-.2.2-.45.3-.71.3Z"/>
    </g>
  </g>
</svg>