<?xml version="1.0" encoding="UTF-8"?>
<svg id="Expanded" xmlns="http://www.w3.org/2000/svg" viewBox="0 0 400 250">
  <defs>
    <style>
      .cls-1 {
        fill: #dd2a39;
      }

      .cls-2 {
        fill: #4d4d4d;
      }

      .cls-3 {
        fill: #fff;
      }

      .cls-4 {
        fill: #dfedf2;
      }

      .cls-5 {
        fill: #f43f3f;
      }

      .cls-6 {
        fill: #666;
      }

      .cls-7 {
        fill: #333;
      }

      .cls-8 {
        fill: #999;
      }

      .cls-9 {
        fill: #ffc4b0;
      }

      .cls-10 {
        fill: #b51933;
      }

      .cls-11 {
        fill: gray;
      }

      .cls-12 {
        fill: #a8b6c1;
      }

      .cls-13 {
        fill: #7a1839;
      }

      .cls-14 {
        fill: #e6e6e6;
      }
    </style>
  </defs>
  <path class="cls-8" d="M293.06,65.48c-.94,1.26-2.04,2.35-3.27,3.26-5.67,4.24-13.98,4.83-20.9,2.55-9.56-3.16-15.53-10.37-23.17-16.33-3.23-2.51-5.9-5.66-9.41-7.88-3.69-2.33-7.86-3.9-12.18-4.52-7.94-1.13-16.31.99-22.76,5.77-2.01,1.49-3.88,3.29-4.93,5.56-1.52,3.25-1.17,7.13.14,10.47,1.65,4.24,5.36,7.19,7.06,11.18,1.6,3.76,1.23,8.25-.47,11.9-2.18,4.66-6.27,8.18-10.73,10.73-8.79,5.04-19.07,6.76-29.13,7.98-10.07,1.23-20.32,2.08-29.81,5.65-9.49,3.59-18.32,10.41-21.59,20.01-1.17,3.42-1.42,7.19-.82,10.79,1.07,6.49,4.87,12.43,10.93,14.85l-10.78,11.29c-7.03-2.57-12.91-8.12-15.87-14.99-3.03-7.03-2.96-13.08.75-19.48,3.67-6.34,6.93-13.23,7.06-20.69.11-6.82-2.54-13.64-7.22-18.58-5.2-5.5-12.63-8.63-17.38-14.52-5.59-6.93-6.5-16.97-3.41-25.32,3.11-8.36,9.79-15.06,17.56-19.42,10.24-5.76,21.01-5.68,31.83-9.05,7.6-2.37,13.16-12.22,19.74-16.76,10.54-7.29,24.08-8.17,35.89-3.69,5.34,2.02,9.21,6.33,14.57,8.56,5.44,2.26,11.45,3.18,17.32,2.51,6.3-.72,12.34-3.16,18.67-3.54,12.59-.78,25.19,7.59,29.34,19.49,2.97,8.47,2.04,18.29,6.86,25.86,5.33,8.35,17.56,11.33,26.13,6.37Z"/>
  <path class="cls-11" d="M99.9,139.46c-2.38,6.25-2.44,13.35-.17,19.64.76,2.09,1.95,4.28,4.05,5.03,1.43.52,3.01.26,4.51,0,3.97-.69,7.94-1.38,11.91-2.07-3.48-4.07-6.95-8.15-10.43-12.22"/>
  <path class="cls-11" d="M289.79,68.74c-5.67,4.24-13.98,4.83-20.9,2.55-9.56-3.16-15.53-10.37-23.17-16.33-3.23-2.51-5.9-5.66-9.41-7.88-3.69-2.33-7.86-3.9-12.18-4.52-7.94-1.13-16.31.99-22.76,5.77-2.01,1.49-3.88,3.29-4.93,5.56-1.52,3.25-1.17,7.13.14,10.47,1.65,4.24,5.36,7.19,7.06,11.18,1.6,3.76,1.23,8.25-.47,11.9-2.18,4.66-6.27,8.18-10.73,10.73-8.79,5.04-19.07,6.76-29.13,7.98-10.07,1.23-20.32,2.08-29.81,5.65-9.49,3.59-18.32,10.41-21.59,20.01-1.17,3.44-1.4,7.16-.82,10.74-1.5-1-3.85-2.18-4.9-3.77-1.35-2.04-.63-5.1-.31-7.34,1.96-13.91,10.02-26.31,22.2-33.4,6.41-3.74,13.6-4.94,20.02-8.54,6.63-3.71,12.21-9.36,15.64-16.16,3.38-6.7,4.72-14.26,7.83-21.1,4.26-9.36,11.88-17.14,21.15-21.59,7.99-3.84,17.08-5.13,25.84-3.85s15.84,2.13,22.49,8.58c.35.34.69.69,1.02,1.04,6.5,6.98,9.46,16.82,16.48,23.28,3.9,3.59,8.89,5.87,14.13,6.59,2.61.36,5.08,1.33,7.73,1.76,3.11.51,6.27.75,9.42.69Z"/>
  <g>
    <path class="cls-5" d="M127.09,164.17l-2.57,2.58c-1.05,1.05-2.75,1.05-3.8,0l-32.87-32.87c-1.04-1.04-1.04-2.75,0-3.79l2.58-2.58c1.05-1.05,2.75-1.05,3.8,0l32.86,32.87c1.05,1.04,1.05,2.75,0,3.79Z"/>
    <path class="cls-9" d="M327.11,175.09v34.59c0,5.98-4.84,10.81-10.81,10.81H83.19c-5.98,0-10.81-4.84-10.81-10.81v-22.47c0-.27,0-.55.02-.82,0-.15.02-.32.03-.47.25-4.14,1.74-7.98,4.11-11.15.23-.3.46-.6.71-.89,3.2-3.82,7.79-6.49,13.07-7.21,1.83-.25,3.67-.5,5.5-.75l10.28-1.4c1.91-.26,3.82-.51,5.73-.78.46-.06.89-.19,1.34-.32.63-.18,1.3-.03,1.94,0,1.45.05,2.96-.06,4.27-.74,1.26-.65,2.22-1.76,3.13-2.85,2.16-2.6,4.22-5.28,6.17-8.03.93-1.31,1.74-2.87,2.82-4.06,1.13-1.25,2.24-2.53,3.35-3.81,1.76-2.03,3.52-4.07,5.28-6.1,14.84-17.13,36.4-26.98,59.06-26.98h48.74c1.65,0,3.28.09,4.89.27,14.87,1.62,28.09,10.6,35.01,24.1l10.75,20.94c2.12,4.11,6.36,6.71,10.98,6.71h5.31c6.36,0,11.57,4.84,12.18,11.03.05.4.06.8.06,1.21Z"/>
    <path class="cls-5" d="M80.04,215.97c-3.47,0-6.29-2.82-6.29-6.29,0,0,2.36-27.13,4.27-29.68.17-.22,2.48-2.98,2.68-3.21,2.59-3.1,6.22-5.1,10.22-5.64l21.52-2.93c5.37-.73,10.28-3.39,13.83-7.49l17.28-19.96c14-16.16,34.28-25.42,55.64-25.42h52.58c1.47,0,2.95.08,4.39.24,13.52,1.47,25.29,9.57,31.49,21.67l10.75,18.24c2.91,5.65,8.66,9.16,15,9.16h5.31c3.99,0,7.29,2.99,7.68,6.95.03.27.04.51.04.77v37.28c0,3.47-2.82,6.29-6.29,6.29H80.04Z"/>
    <path class="cls-14" d="M211.51,125.83v27.28c0,3.28-2.67,5.95-5.95,5.95h-55.8c-4.83,0-7.43-5.69-4.26-9.34l5.17-5.98c6.34-7.31,14.04-13.13,22.58-17.18,9.16-4.36,19.26-6.69,29.64-6.69h2.66c3.28,0,5.95,2.66,5.95,5.95Z"/>
    <path class="cls-3" d="M211.51,125.83v5.69l-18.56,27.55h-41.58l21.9-32.49c9.16-4.36,19.26-6.69,29.64-6.69h2.66c3.28,0,5.95,2.66,5.95,5.95Z"/>
    <path class="cls-14" d="M279.36,159.06h-52.27c-3.29,0-5.95-2.67-5.95-5.95v-27.28c0-3.29,2.66-5.95,5.95-5.95h19.53c4.08,0,8.03.68,11.73,1.96,8.58,2.96,15.82,9.11,20.12,17.49l.7,1.37,5.21,10.14c1.93,3.75-.8,8.22-5.02,8.22Z"/>
    <path class="cls-3" d="M279.17,140.7l-12.38,18.36h-33.53l25.09-37.22c8.58,2.96,15.82,9.11,20.12,17.49l.7,1.37Z"/>
    <path class="cls-3" d="M96.03,180.45l-3.88,4.55c-.76.88-1.86,1.39-3.03,1.39h-16.73c0-.15.02-.32.03-.47.25-4.14,1.74-7.98,4.11-11.15.23-.3.46-.6.71-.89h15.78c3.39,0,5.23,3.98,3.02,6.56Z"/>
    <path class="cls-9" d="M327.11,175.09v11.29h-14.13c-1.19,0-2.32-.52-3.09-1.43l-3.73-4.38c-1.44-1.67-1.19-3.93.06-5.35.72-.81,1.77-1.35,3.03-1.35h17.8c.05.4.06.8.06,1.21Z"/>
    <path class="cls-1" d="M327.11,202.4v7.28c0,5.98-4.84,10.81-10.81,10.81H83.19c-5.98,0-10.81-4.84-10.81-10.81v-5.42c2.07,2.07,6.2,5.33,11.7,5.33h226.04c4.6,0,9.09-1.46,12.81-4.16l4.19-3.04Z"/>
    <path class="cls-13" d="M316.29,222.49H83.19c-7.06,0-12.81-5.75-12.81-12.81v-22.47c0-11.31,8.45-20.99,19.66-22.52l21.52-2.92c.39-.05.78-.12,1.16-.2l-26.27-26.27c-1.83-1.83-1.83-4.79,0-6.62l2.58-2.58c.89-.89,2.06-1.37,3.31-1.37s2.43.49,3.31,1.37l27.86,27.87,15.11-17.45c15.23-17.59,37.31-27.67,60.57-27.67h48.73c17.65,0,33.62,9.75,41.68,25.46l10.75,20.94c1.78,3.47,5.3,5.62,9.2,5.62h5.3c7.85,0,14.25,6.39,14.25,14.25v34.59c0,7.07-5.75,12.81-12.81,12.81ZM92.33,128.73c-.17,0-.35.07-.49.2l-2.58,2.58c-.17.17-.2.38-.2.48s.03.31.2.48l28.59,28.59c.47.47.67,1.14.55,1.79s-.57,1.2-1.17,1.46c-1.64.71-3.37,1.18-5.14,1.42l-21.52,2.92c-9.24,1.26-16.2,9.23-16.2,18.55v22.47c0,4.86,3.95,8.81,8.81,8.81h233.11c4.86,0,8.81-3.95,8.81-8.81v-34.59c0-5.65-4.6-10.25-10.25-10.25h-5.3c-5.4,0-10.29-2.99-12.76-7.79l-10.75-20.94c-7.37-14.36-21.98-23.28-38.12-23.28h-48.73c-22.1,0-43.08,9.58-57.55,26.29l-16.52,19.08c-.36.42-.88.67-1.44.69-.55.02-1.09-.19-1.49-.58l-29.38-29.39c-.14-.14-.31-.2-.48-.2Z"/>
    <path class="cls-10" d="M182.96,166.67h-60.27c-.55,0-1-.45-1-1s.45-1,1-1h60.27c.55,0,1,.45,1,1s-.45,1-1,1Z"/>
    <path class="cls-10" d="M299.7,166.32h-110.51c-.55,0-1-.45-1-1s.45-1,1-1h110.51c.55,0,1,.45,1,1s-.45,1-1,1Z"/>
    <path class="cls-10" d="M275.03,183.4c-.55,0-1-.45-1-1v-11.74c0-.55.45-1,1-1s1,.45,1,1v11.74c0,.55-.45,1-1,1Z"/>
    <path class="cls-10" d="M138.65,183.52c-.55,0-1-.45-1-1v-16.43c0-.55.45-1,1-1s1,.45,1,1v16.43c0,.55-.45,1-1,1Z"/>
    <path class="cls-10" d="M215.12,207.43c-.55,0-1-.45-1-1v-35.76c0-.55.45-1,1-1s1,.45,1,1v35.76c0,.55-.45,1-1,1Z"/>
    <g>
      <path class="cls-5" d="M155.54,159.06c0,7.37-.25,13.34-7.62,13.34-3.99,0-7.58-1.75-10.02-4.53-2.07-2.36-3.33-5.43-3.33-8.81,0-7.37,5.98-13.34,13.34-13.34,3.19,0,5.05,1.12,6.13,3,1.41,2.45,1.49,6.17,1.49,10.34Z"/>
      <path class="cls-9" d="M154.05,148.71c-4.45-1.06-9.43.17-12.76,3.34-3.99,3.77-5.35,10.05-3.29,15.14l-.09.68c-2.07-2.36-3.33-5.43-3.33-8.81,0-7.37,5.98-13.34,13.34-13.34,3.19,0,5.05,1.12,6.13,3Z"/>
      <path class="cls-1" d="M136.99,166.7c2.41,3.45,6.4,5.7,10.93,5.7,6.32,0,7.4-4.4,7.58-10.31-5.31,4.1-12.19,6.4-18.51,4.6Z"/>
      <path class="cls-13" d="M147.92,173.4c-7.91,0-14.34-6.43-14.34-14.34s6.43-14.34,14.34-14.34c8.62,0,8.62,7.62,8.62,14.34s0,14.34-8.62,14.34ZM147.92,146.71c-6.81,0-12.34,5.54-12.34,12.34s5.54,12.34,12.34,12.34c5.97,0,6.62-3.95,6.62-12.34s-.65-12.34-6.62-12.34Z"/>
      <path class="cls-9" d="M138.46,155.41c.16,1.08.98,2.09,2.06,2.29.79.15,1.61-.12,2.32-.51,1.09-.59,2.04-1.5,2.5-2.65.76-1.91-.54-5.24-3.09-4.42-.8.26-1.75,1.28-2.35,1.83-.95.87-1.63,2.13-1.43,3.45Z"/>
    </g>
    <path class="cls-10" d="M189.2,172.4h15.62v.97c0,2.95-2.4,5.35-5.35,5.35h-4.91c-2.95,0-5.35-2.4-5.35-5.35v-.97h0Z"/>
    <path class="cls-10" d="M247.18,172.4h15.62v.97c0,2.95-2.4,5.35-5.35,5.35h-4.91c-2.95,0-5.35-2.4-5.35-5.35v-.97h0Z"/>
  </g>
  <g>
    <circle class="cls-6" cx="130.99" cy="213.79" r="31.43"/>
    <ellipse class="cls-11" cx="128.07" cy="209.6" rx="28.51" ry="27.24"/>
    <g>
      <circle class="cls-4" cx="130.99" cy="213.79" r="14.89"/>
      <circle class="cls-3" cx="132.76" cy="215.56" r="12.3"/>
      <path class="cls-12" d="M130.99,229.66c-.55,0-1-.45-1-1v-29.15c0-.55.45-1,1-1s1,.45,1,1v29.15c0,.55-.45,1-1,1Z"/>
      <path class="cls-12" d="M145.56,215.09h-29.15c-.55,0-1-.45-1-1s.45-1,1-1h29.15c.55,0,1,.45,1,1s-.45,1-1,1Z"/>
      <path class="cls-12" d="M141.3,225.4c-.26,0-.51-.1-.71-.29l-20.61-20.61c-.39-.39-.39-1.02,0-1.41s1.02-.39,1.41,0l20.61,20.61c.39.39.39,1.02,0,1.41-.2.2-.45.29-.71.29Z"/>
      <path class="cls-12" d="M120.68,225.4c-.26,0-.51-.1-.71-.29-.39-.39-.39-1.02,0-1.41l20.61-20.61c.39-.39,1.02-.39,1.41,0s.39,1.02,0,1.41l-20.61,20.61c-.2.2-.45.29-.71.29Z"/>
      <path class="cls-2" d="M130.99,229.68c-8.76,0-15.89-7.13-15.89-15.88s7.13-15.89,15.89-15.89,15.89,7.13,15.89,15.89-7.13,15.88-15.89,15.88ZM130.99,199.91c-7.66,0-13.89,6.23-13.89,13.89s6.23,13.88,13.89,13.88,13.89-6.23,13.89-13.88-6.23-13.89-13.89-13.89Z"/>
      <circle class="cls-3" cx="130.99" cy="213.79" r="5.22"/>
      <path class="cls-12" d="M130.99,220.01c-3.43,0-6.22-2.79-6.22-6.22s2.79-6.22,6.22-6.22,6.22,2.79,6.22,6.22-2.79,6.22-6.22,6.22ZM130.99,209.57c-2.33,0-4.22,1.89-4.22,4.22s1.89,4.22,4.22,4.22,4.22-1.89,4.22-4.22-1.89-4.22-4.22-4.22Z"/>
    </g>
    <path class="cls-7" d="M130.99,247.22c-18.43,0-33.43-15-33.43-33.43s15-33.43,33.43-33.43,33.43,15,33.43,33.43-15,33.43-33.43,33.43ZM130.99,184.36c-16.23,0-29.43,13.2-29.43,29.43s13.2,29.43,29.43,29.43,29.43-13.2,29.43-29.43-13.2-29.43-29.43-29.43Z"/>
  </g>
  <g>
    <circle class="cls-6" cx="275.03" cy="213.79" r="31.43"/>
    <ellipse class="cls-11" cx="272.11" cy="209.6" rx="28.51" ry="27.24"/>
    <g>
      <circle class="cls-4" cx="275.03" cy="213.79" r="14.89"/>
      <circle class="cls-3" cx="276.8" cy="215.56" r="12.3"/>
      <path class="cls-12" d="M275.03,229.66c-.55,0-1-.45-1-1v-29.15c0-.55.45-1,1-1s1,.45,1,1v29.15c0,.55-.45,1-1,1Z"/>
      <path class="cls-12" d="M289.6,215.09h-29.15c-.55,0-1-.45-1-1s.45-1,1-1h29.15c.55,0,1,.45,1,1s-.45,1-1,1Z"/>
      <path class="cls-12" d="M285.33,225.4c-.26,0-.51-.1-.71-.29l-20.61-20.61c-.39-.39-.39-1.02,0-1.41s1.02-.39,1.41,0l20.61,20.61c.39.39.39,1.02,0,1.41-.2.2-.45.29-.71.29Z"/>
      <path class="cls-12" d="M264.72,225.4c-.26,0-.51-.1-.71-.29-.39-.39-.39-1.02,0-1.41l20.61-20.61c.39-.39,1.02-.39,1.41,0s.39,1.02,0,1.41l-20.61,20.61c-.2.2-.45.29-.71.29Z"/>
      <path class="cls-2" d="M275.03,229.68c-8.76,0-15.88-7.13-15.88-15.88s7.13-15.89,15.88-15.89,15.89,7.13,15.89,15.89-7.13,15.88-15.89,15.88ZM275.03,199.91c-7.66,0-13.88,6.23-13.88,13.89s6.23,13.88,13.88,13.88,13.89-6.23,13.89-13.88-6.23-13.89-13.89-13.89Z"/>
      <circle class="cls-3" cx="275.03" cy="213.79" r="5.22"/>
      <path class="cls-12" d="M275.03,220.01c-3.43,0-6.22-2.79-6.22-6.22s2.79-6.22,6.22-6.22,6.22,2.79,6.22,6.22-2.79,6.22-6.22,6.22ZM275.03,209.57c-2.33,0-4.22,1.89-4.22,4.22s1.89,4.22,4.22,4.22,4.22-1.89,4.22-4.22-1.89-4.22-4.22-4.22Z"/>
    </g>
    <path class="cls-7" d="M275.03,247.22c-18.43,0-33.43-15-33.43-33.43s15-33.43,33.43-33.43,33.43,15,33.43,33.43-15,33.43-33.43,33.43ZM275.03,184.36c-16.23,0-29.43,13.2-29.43,29.43s13.2,29.43,29.43,29.43,29.43-13.2,29.43-29.43-13.2-29.43-29.43-29.43Z"/>
  </g>
</svg>