<?xml version="1.0" encoding="UTF-8"?>
<svg id="Expanded" xmlns="http://www.w3.org/2000/svg" viewBox="0 0 400 250">
  <defs>
    <style>
      .cls-1 {
        fill: #dd2a39;
      }

      .cls-2 {
        fill: #fff;
      }

      .cls-3 {
        fill: #dfedf2;
      }

      .cls-4 {
        fill: #f43f3f;
      }

      .cls-5 {
        fill: #ffc4b0;
      }

      .cls-6 {
        fill: #b51933;
      }

      .cls-7 {
        fill: #ff7d63;
      }

      .cls-8 {
        fill: #7a1839;
      }
    </style>
  </defs>
  <path class="cls-3" d="M228.35,65.36c0,10.63-4.06,21.26-12.17,29.37l-103.29,103.29c-16.22,16.22-42.52,16.22-58.74,0-8.11-8.11-12.16-18.74-12.16-29.37,0-1.4.07-2.79.21-4.18.92-9.2,4.9-18.14,11.95-25.19l103.29-103.29c7.03-7.03,15.97-11.02,25.15-11.95,11.99-1.22,24.4,2.76,33.59,11.95,8.11,8.11,12.17,18.74,12.17,29.37Z"/>
  <path class="cls-2" d="M202.29,56.5c0,9.37-3.58,18.74-10.73,25.88l-91.02,91.03c-14.3,14.29-37.47,14.29-51.77,0-2.7-2.7-4.89-5.73-6.57-8.94.92-9.2,4.9-18.14,11.95-25.19l103.29-103.29c7.03-7.03,15.97-11.02,25.15-11.95,3.23,1.67,6.26,3.87,8.97,6.58,7.15,7.15,10.73,16.51,10.73,25.88Z"/>
  <path class="cls-1" d="M216.18,94.73l-48.03,48.03c-2.92-.38-5.84-.86-8.75-1.45-5.02-1.02-10.19-1.59-15.04-3.31-2.02-.71-3.88-1.66-5.62-2.79-2.65-1.71-5.02-3.84-7.24-6.16-6.3-6.59-12.94-14.18-16.66-22.57-3.32-7.49-3.98-15.68-4.11-23.78h0s46.71-46.71,46.71-46.71c.4-.4.81-.79,1.22-1.17.53-.49,1.07-.97,1.62-1.41.35-.3.7-.59,1.06-.86.19-.15.38-.3.57-.43.31-.24.62-.47.93-.68.58-.42,1.16-.81,1.75-1.18.95-.61,1.92-1.17,2.9-1.68.05-.02.09-.04.14-.07.52-.27,1.05-.53,1.58-.78.53-.25,1.07-.49,1.61-.71.54-.23,1.08-.44,1.63-.64,1.1-.41,2.21-.77,3.33-1.07.51-.14,1.02-.27,1.53-.39.09-.02.18-.04.26-.06.53-.12,1.06-.23,1.59-.33.56-.1,1.13-.2,1.69-.28h.02c.57-.08,1.15-.15,1.72-.21,11.99-1.22,24.4,2.76,33.59,11.95,16.22,16.22,16.22,42.52,0,58.74Z"/>
  <path class="cls-4" d="M202.29,56.5c0,9.37-3.58,18.74-10.73,25.88l-52.82,52.83c-2.65-1.71-5.02-3.84-7.24-6.16-6.3-6.59-12.94-14.18-16.66-22.57-3.32-7.49-3.98-15.68-4.11-23.78l46.71-46.71c.4-.4.81-.79,1.22-1.17.53-.49,1.07-.97,1.62-1.41.35-.3.7-.59,1.06-.86.19-.15.38-.3.57-.43.31-.24.62-.47.93-.68.58-.42,1.16-.81,1.75-1.18.95-.6,1.92-1.16,2.9-1.68.05-.02.09-.04.14-.07.52-.27,1.05-.53,1.58-.78.53-.25,1.07-.49,1.61-.71.54-.23,1.08-.44,1.63-.64,1.1-.4,2.21-.76,3.33-1.07.51-.14,1.02-.27,1.53-.39.09-.02.18-.04.26-.06.53-.12,1.06-.23,1.59-.33.56-.1,1.13-.2,1.69-.28h.02c.57-.08,1.15-.15,1.72-.21,3.23,1.67,6.26,3.87,8.97,6.58,7.15,7.15,10.73,16.51,10.73,25.88Z"/>
  <path class="cls-2" d="M201.4,26.46c-2.79-.24-5.59-.22-8.37.06-9.7.98-19.15,5.2-26.58,12.63l-109.15,109.15c-7.45,7.45-11.65,16.9-12.63,26.62-.14,1.47-.22,2.94-.22,4.41,0,1.3.06,2.61.17,3.91-1.75-4.69-2.63-9.65-2.63-14.59,0-1.4.07-2.79.21-4.18.92-9.2,4.9-18.14,11.95-25.19l103.29-103.29c7.03-7.03,15.97-11.02,25.15-11.95,6.33-.64,12.78.16,18.81,2.42Z"/>
  <path class="cls-6" d="M162.19,144.51c-10.21,0-23.8-6.77-35.78-18.76-8.05-8.05-14.07-17.23-16.95-25.85-3.03-9.08-2.22-16.55,2.26-21.04.78-.78,2.05-.78,2.83,0s.78,2.05,0,2.83c-3.36,3.36-3.82,9.38-1.29,16.94,2.68,8.04,8.36,16.66,15.98,24.29,15.15,15.15,34.03,21.87,41.22,14.68.78-.78,2.05-.78,2.83,0,.78.78.78,2.05,0,2.83-2.76,2.76-6.6,4.07-11.09,4.07Z"/>
  <g>
    <g>
      <path class="cls-8" d="M268.47,163.7c-23.08,0-41.86-13.48-41.86-30.05s18.78-30.05,41.86-30.05,41.86,13.48,41.86,30.05-18.78,30.05-41.86,30.05ZM268.47,111.61c-18.67,0-33.86,9.89-33.86,22.05s15.19,22.05,33.86,22.05,33.86-9.89,33.86-22.05-15.19-22.05-33.86-22.05Z"/>
      <path class="cls-8" d="M268.47,163.7c-2.43,0-4.91-.16-7.37-.47-2-.25-3.5-1.95-3.5-3.97v-26.48c0-.27-.05-.46-.14-.56-.92-.97-1.3-2.33-1.01-3.64.04-.16.04-.34,0-.54-.62-3.81-.51-7.57-.41-11.2.07-2.42.14-4.71,0-6.94-.02-.28-.04-.57-.06-.85l-.04-.48c-.16-2.08,1.3-3.93,3.36-4.26,3.02-.48,6.1-.72,9.16-.72,23.08,0,41.86,13.48,41.86,30.05s-18.78,30.05-41.86,30.05ZM265.6,155.62c.96.06,1.92.08,2.87.08,18.67,0,33.86-9.89,33.86-22.05s-15.19-22.05-33.86-22.05c-1.45,0-2.9.06-4.34.19.03,1.79-.02,3.56-.07,5.29-.1,3.41-.19,6.63.3,9.68.09.54.13,1.07.13,1.6.73,1.3,1.12,2.8,1.12,4.42v22.83Z"/>
      <path class="cls-8" d="M306.3,136.79h-75.69c-2.21,0-4-1.79-4-4v-11.04c0-2.21,1.79-4,4-4h75.69c2.21,0,4,1.79,4,4v11.04c0,2.21-1.79,4-4,4ZM234.61,128.79h67.69v-3.04h-67.69v3.04Z"/>
      <path class="cls-8" d="M268.47,151.8c-23.08,0-41.86-13.48-41.86-30.05,0-7.68,3.97-14.98,11.19-20.53,2.22-1.71,4.7-3.21,7.37-4.49,6.87-3.29,14.93-5.03,23.3-5.03,23.08,0,41.86,13.48,41.86,30.05,0,6.44-2.75,12.56-7.94,17.69-1.93,1.9-4.15,3.63-6.61,5.14-7.56,4.65-17.27,7.22-27.31,7.22ZM268.47,99.7c-7.18,0-14.04,1.47-19.85,4.25-2.17,1.04-4.17,2.25-5.94,3.61-5.2,4-8.07,9.04-8.07,14.19,0,12.16,15.19,22.05,33.86,22.05,8.59,0,16.8-2.14,23.12-6.03,1.94-1.19,3.68-2.54,5.17-4.01,3.64-3.6,5.56-7.75,5.56-12,0-12.16-15.19-22.05-33.86-22.05Z"/>
      <path class="cls-8" d="M296.86,147.35c-.79,0-1.58-.23-2.27-.7l-56.62-38.96c-1.05-.73-1.7-1.91-1.73-3.19-.03-1.28.55-2.5,1.56-3.28,2.22-1.7,4.7-3.21,7.37-4.48,1.29-.61,2.81-.5,3.99.32l56.24,38.69c1.08.75,1.73,1.98,1.73,3.3s-.65,2.55-1.73,3.3l-6.27,4.31c-.68.47-1.48.7-2.27.7Z"/>
      <path class="cls-8" d="M296.86,147.35c-.79,0-1.58-.23-2.27-.7l-18.37-12.64c-1.07-.73-1.71-1.94-1.73-3.24l-.02-1.68c-.04-2.35-.07-4.7-.09-7.05-.01-1.49.8-2.87,2.12-3.57,1.32-.7,2.92-.61,4.15.24l24.75,17.03c1.08.75,1.73,1.98,1.73,3.3s-.65,2.55-1.73,3.3l-6.27,4.31c-.68.47-1.48.7-2.27.7Z"/>
      <g>
        <path class="cls-8" d="M327.16,178.56c-7.12,0-14.65-1.63-21.84-4.78-21.14-9.27-32.92-29.16-26.26-44.33,6.66-15.17,29.27-19.97,50.41-10.69,9.99,4.39,18.25,11.24,23.24,19.3,5.29,8.53,6.36,17.42,3.02,25.04-3.34,7.61-10.61,12.84-20.47,14.73-2.61.5-5.33.75-8.1.75ZM307.46,121.93c-9.87,0-18.02,3.76-21.07,10.73-4.88,11.13,5.05,26.29,22.15,33.79,8.53,3.74,17.48,4.98,25.22,3.51,7.19-1.38,12.39-4.96,14.64-10.09h0c2.25-5.13,1.37-11.38-2.49-17.61-4.15-6.7-11.13-12.45-19.66-16.19-6.39-2.81-12.9-4.15-18.79-4.15Z"/>
        <path class="cls-8" d="M327.16,178.56c-7.12,0-14.65-1.63-21.84-4.78-2.31-1.01-4.59-2.2-6.77-3.51-1.72-1.04-2.4-3.19-1.6-5.03l.24-.53c.09-.2.18-.41.27-.61,1.13-2.63,2.17-5.38,3.18-8.04,1.33-3.51,2.71-7.14,4.34-10.67.03-.06.05-.11.07-.17.2-.58.54-1.11.98-1.55.08-.08.15-.17.22-.27,4.7-7.34,7.45-15.59,10.3-24.83.64-2.06,2.79-3.25,4.88-2.68,2.73.75,5.43,1.71,8.04,2.85h0c21.14,9.28,32.92,29.16,26.26,44.33-3.34,7.61-10.61,12.84-20.47,14.73-2.61.5-5.33.75-8.1.75ZM305.71,165.11c.93.48,1.88.93,2.83,1.35,8.53,3.74,17.48,4.98,25.22,3.51,7.19-1.38,12.39-4.96,14.64-10.09,4.88-11.13-5.05-26.29-22.15-33.79-1.07-.47-2.16-.9-3.27-1.3-2.65,8.29-5.46,15.84-10,22.94-.22.34-.46.67-.72.98,0,.01,0,.02-.02.03-1.51,3.29-2.78,6.64-4.13,10.18-.77,2.03-1.57,4.12-2.41,6.2Z"/>
        <path class="cls-8" d="M352.39,164.68c-.55,0-1.1-.11-1.61-.34l-69.32-30.41c-2.02-.89-2.94-3.25-2.06-5.27l4.44-10.11c.43-.97,1.22-1.73,2.21-2.12.99-.39,2.09-.36,3.06.06l69.32,30.41c2.02.89,2.94,3.25,2.06,5.27l-4.44,10.11c-.43.97-1.22,1.73-2.21,2.12-.47.18-.96.27-1.45.27ZM288.34,128.21l61.99,27.2,1.22-2.79-61.99-27.2-1.22,2.79Z"/>
        <path class="cls-8" d="M352.39,164.68c-.55,0-1.1-.11-1.61-.34l-50.85-22.31c-2.02-.89-2.94-3.25-2.06-5.27l4.44-10.11c.43-.97,1.22-1.73,2.21-2.12.99-.39,2.09-.36,3.06.06l50.85,22.31c2.02.89,2.94,3.25,2.06,5.27l-4.44,10.11c-.43.97-1.22,1.73-2.21,2.12-.47.18-.96.27-1.45.27ZM306.81,136.31l43.53,19.1,1.22-2.79-43.53-19.1-1.22,2.79Z"/>
        <path class="cls-8" d="M331.93,167.66c-5.51,0-11.27-.97-16.95-2.89-1.79-.62-3.38-1.24-4.88-1.9-1.25-.54-2.5-1.15-3.7-1.78-.05-.02-.11-.05-.16-.08-18.99-10.02-28.62-28.27-22.4-42.46,3.09-7.04,9.67-12.12,18.51-14.3,2.69-.67,5.56-1.05,8.53-1.15,5.94-.2,12.32.79,18.45,2.86,1.63.55,3.28,1.19,4.9,1.89,1.37.6,2.63,1.21,3.86,1.87,18.99,10.01,28.64,28.27,22.41,42.47h0c-2.58,5.89-7.54,10.39-14.37,13.01-2.58.98-5.31,1.67-8.14,2.05-1.98.28-4.01.41-6.08.41ZM309.82,153.85c.06.03.12.06.18.09,1.06.57,2.17,1.11,3.31,1.6,1.32.59,2.7,1.12,4.25,1.66,6.61,2.23,13.31,2.96,19.36,2.12,2.24-.31,4.38-.84,6.37-1.6,4.77-1.83,8.19-4.86,9.89-8.74,0,0,0,0,0,0,4.45-10.14-3.82-24.28-18.83-32.19-1.07-.57-2.15-1.1-3.31-1.61-1.4-.61-2.84-1.16-4.26-1.64-5.23-1.76-10.65-2.61-15.63-2.44-2.42.08-4.73.39-6.88.93-6.38,1.57-11.03,5.03-13.1,9.75-4.43,10.1,3.76,24.17,18.65,32.09Z"/>
        <path class="cls-8" d="M316.26,164.98c-.43,0-.87-.07-1.3-.22-1.76-.61-3.35-1.23-4.86-1.9-1.31-.57-2.62-1.2-3.86-1.87-1.81-.97-2.6-3.16-1.81-5.06l.43-1.04,19.52-46.7c.81-1.94,2.98-2.92,4.97-2.25,1.63.55,3.28,1.19,4.9,1.89,1.25.55,2.5,1.16,3.84,1.86,1.83.97,2.63,3.17,1.83,5.08l-19.96,47.74c-.64,1.53-2.12,2.46-3.69,2.46ZM313.27,155.52s.03.02.05.02c.25.11.49.22.75.32l17.01-40.68h-.03c-.26-.12-.52-.24-.78-.34l-17,40.68Z"/>
      </g>
    </g>
    <g>
      <ellipse class="cls-7" cx="268.47" cy="133.65" rx="37.86" ry="26.05"/>
      <path class="cls-4" d="M268.47,107.61c-2.94,0-5.79.24-8.53.67.04.46.08.92.11,1.38.37,5.87-.58,11.93.37,17.75.12.74.09,1.43-.05,2.06.76.79,1.24,1.9,1.24,3.32v26.48c2.23.28,4.52.44,6.87.44,20.91,0,37.86-11.66,37.86-26.05s-16.95-26.05-37.86-26.05Z"/>
      <rect class="cls-7" x="230.61" y="121.75" width="75.69" height="11.04"/>
      <path class="cls-5" d="M306.33,121.75c0,5.52-2.49,10.64-6.75,14.85-1.7,1.68-3.68,3.22-5.89,4.58-6.7,4.12-15.53,6.63-25.22,6.63-20.91,0-37.86-11.66-37.86-26.05,0-6.67,3.64-12.75,9.63-17.36,1.98-1.52,4.21-2.88,6.65-4.05,6.12-2.93,13.56-4.64,21.58-4.64,20.91,0,37.86,11.66,37.86,26.05Z"/>
      <path class="cls-7" d="M303.13,139.04l-6.27,4.31-3.17-2.18-53.45-36.78c1.98-1.52,4.21-2.88,6.65-4.05l56.24,38.69Z"/>
      <path class="cls-4" d="M278.37,122.01c.03,2.9.08,5.8.12,8.71l15.2,10.46,3.17,2.18,6.27-4.31-24.76-17.03Z"/>
      <g>
        <ellipse class="cls-7" cx="317.4" cy="146.27" rx="26.05" ry="37.86" transform="translate(55.92 378.14) rotate(-66.31)"/>
        <path class="cls-4" d="M327.86,122.41c-2.49-1.09-5-1.97-7.49-2.66-2.76,8.93-5.63,17.8-10.76,25.81-.24.37-.5.69-.78.97-.06.17-.13.35-.21.53-2.79,6.08-4.84,12.46-7.48,18.61-.17.39-.35.78-.52,1.17,1.98,1.2,4.09,2.3,6.31,3.27,19.15,8.4,39.36,4.53,45.14-8.64,5.78-13.17-5.06-30.66-24.2-39.06Z"/>
        <rect class="cls-7" x="314.43" y="102.57" width="11.04" height="75.69" transform="translate(62.81 376.98) rotate(-66.31)"/>
        <rect class="cls-4" x="323.66" y="116.7" width="11.04" height="55.53" transform="translate(64.62 387.86) rotate(-66.31)"/>
        <path class="cls-5" d="M356.85,150.58c-2.21,5.05-6.55,8.73-12.14,10.88-2.24.85-4.67,1.47-7.24,1.82-6.46.9-13.82.19-21.21-2.3-1.51-.52-3.03-1.1-4.54-1.77-1.24-.54-2.44-1.12-3.6-1.74h-.01c-16.87-8.9-26-25-20.6-37.32,2.68-6.1,8.46-10.21,15.8-12.02,2.42-.6,5.01-.95,7.71-1.04,5.38-.18,11.2.68,17.04,2.65,1.54.52,3.07,1.11,4.59,1.77,1.23.54,2.41,1.11,3.57,1.73,16.89,8.9,26.04,25.01,20.63,37.34Z"/>
        <path class="cls-7" d="M336.22,113.24l-19.96,47.74c-1.51-.52-3.03-1.1-4.54-1.77-1.24-.54-2.44-1.12-3.6-1.74l.43-1.04,19.51-46.69c1.54.52,3.07,1.11,4.59,1.77,1.23.54,2.41,1.12,3.57,1.73Z"/>
      </g>
    </g>
  </g>
  <g>
    <g>
      <path class="cls-8" d="M207.4,235.33c-23.08,0-41.86-13.48-41.86-30.05s18.78-30.05,41.86-30.05,41.86,13.48,41.86,30.05-18.78,30.05-41.86,30.05ZM207.4,183.24c-18.67,0-33.86,9.89-33.86,22.05s15.19,22.05,33.86,22.05,33.86-9.89,33.86-22.05-15.19-22.05-33.86-22.05Z"/>
      <path class="cls-8" d="M207.4,235.33c-3.37,0-6.74-.29-10-.86-1.92-.33-3.31-2-3.31-3.94v-50.5c0-1.94,1.4-3.61,3.31-3.94,3.26-.57,6.63-.86,10-.86,23.08,0,41.86,13.48,41.86,30.05s-18.78,30.05-41.86,30.05ZM202.08,227.06c1.75.18,3.53.28,5.31.28,18.67,0,33.86-9.89,33.86-22.05s-15.19-22.05-33.86-22.05c-1.78,0-3.56.09-5.31.28v43.54Z"/>
      <path class="cls-8" d="M245.23,208.42h-75.69c-2.21,0-4-1.79-4-4v-11.04c0-2.21,1.79-4,4-4h75.69c2.21,0,4,1.79,4,4v11.04c0,2.21-1.79,4-4,4ZM173.54,200.42h67.69v-3.04h-67.69v3.04Z"/>
      <path class="cls-8" d="M245.23,208.42h-50.12c-2.21,0-4-1.79-4-4v-11.04c0-2.21,1.79-4,4-4h50.12c2.21,0,4,1.79,4,4v11.04c0,2.21-1.79,4-4,4ZM199.11,200.42h42.12v-3.04h-42.12v3.04Z"/>
      <path class="cls-8" d="M207.4,223.43c-23.08,0-41.86-13.48-41.86-30.05,0-1.37.13-2.77.39-4.14.46-2.44,1.34-4.83,2.6-7.11,1.92-3.45,4.68-6.57,8.2-9.27,2.22-1.71,4.7-3.21,7.37-4.49,6.87-3.29,14.93-5.03,23.3-5.03,23.08,0,41.86,13.48,41.86,30.05,0,.67-.03,1.28-.09,1.88-.18,2.41-.81,4.88-1.85,7.23-1.33,3.07-3.35,5.97-6,8.58-1.92,1.9-4.15,3.63-6.61,5.14-7.56,4.65-17.26,7.22-27.31,7.22ZM207.4,171.33c-7.18,0-14.04,1.47-19.85,4.25-2.17,1.03-4.17,2.25-5.94,3.61-2.65,2.04-4.7,4.33-6.08,6.82-.85,1.53-1.43,3.12-1.73,4.71-.17.88-.25,1.78-.25,2.65,0,12.16,15.19,22.05,33.86,22.05,8.59,0,16.8-2.14,23.12-6.03,1.95-1.19,3.69-2.54,5.18-4.01,1.91-1.89,3.36-3.94,4.29-6.1.69-1.55,1.09-3.13,1.21-4.73.04-.42.06-.78.06-1.17,0-12.16-15.19-22.05-33.86-22.05Z"/>
      <path class="cls-8" d="M243.66,204.87c-.19,0-.39-.01-.58-.04l-2.44-.36-71.36-10.53c-1.08-.16-2.04-.75-2.67-1.64-.63-.89-.87-1.99-.67-3.06.46-2.43,1.34-4.83,2.6-7.11.81-1.46,2.43-2.27,4.08-2.02l73.16,10.79c2.08.31,3.57,2.17,3.4,4.26-.19,2.51-.82,4.98-1.86,7.33-.65,1.46-2.09,2.38-3.66,2.38Z"/>
    </g>
    <g>
      <ellipse class="cls-7" cx="207.4" cy="205.28" rx="37.86" ry="26.05"/>
      <path class="cls-4" d="M207.4,179.24c-3.21,0-6.33.28-9.31.8v50.5c2.98.52,6.1.8,9.31.8,20.91,0,37.86-11.66,37.86-26.05s-16.95-26.05-37.86-26.05Z"/>
      <rect class="cls-7" x="169.54" y="193.38" width="75.69" height="11.04"/>
      <rect class="cls-4" x="195.11" y="193.38" width="50.13" height="11.04"/>
      <path class="cls-5" d="M245.26,193.38c0,.5-.02.99-.07,1.48-.16,2.08-.68,4.09-1.53,6.01-1.15,2.66-2.9,5.13-5.15,7.35-1.7,1.68-3.68,3.22-5.89,4.58-6.7,4.12-15.53,6.63-25.22,6.63-20.91,0-37.86-11.66-37.86-26.05,0-1.15.11-2.28.32-3.4.39-2.06,1.13-4.04,2.17-5.92,1.66-2.98,4.1-5.7,7.14-8.04,1.98-1.52,4.21-2.88,6.65-4.05,6.12-2.93,13.56-4.64,21.58-4.64,20.91,0,37.86,11.66,37.86,26.05Z"/>
      <path class="cls-7" d="M245.19,194.86c-.16,2.08-.68,4.09-1.53,6.01l-2.44-.36-71.36-10.53c.39-2.06,1.13-4.04,2.17-5.92l73.16,10.79Z"/>
    </g>
  </g>
  <path class="cls-8" d="M83.52,212.16c-11.15,0-22.3-4.24-30.78-12.73s-12.75-19.15-12.75-30.78,4.53-22.56,12.75-30.78l103.29-103.29c8.22-8.22,19.16-12.75,30.78-12.75s22.56,4.53,30.78,12.75c8.22,8.22,12.75,19.15,12.75,30.78s-4.53,22.56-12.75,30.78l-103.29,103.29c-8.49,8.49-19.64,12.73-30.78,12.73ZM186.81,25.82c-10.56,0-20.49,4.11-27.96,11.58l-103.29,103.29c-7.47,7.47-11.58,17.4-11.58,27.96s4.11,20.49,11.58,27.96c15.41,15.41,40.5,15.42,55.91,0l103.29-103.29h0c7.47-7.47,11.58-17.4,11.58-27.96s-4.11-20.49-11.58-27.96c-7.47-7.47-17.39-11.58-27.96-11.58Z"/>
</svg>