<?xml version="1.0" encoding="UTF-8"?>
<svg id="Expanded" xmlns="http://www.w3.org/2000/svg" viewBox="0 0 400 250">
  <defs>
    <style>
      .cls-1 {
        fill: #dd2a39;
      }

      .cls-2 {
        fill: #4d4d4d;
      }

      .cls-3 {
        fill: #fff;
      }

      .cls-4 {
        fill: #dfedf2;
      }

      .cls-5 {
        fill: #404040;
      }

      .cls-6 {
        fill: #f43f3f;
      }

      .cls-7 {
        fill: #666;
      }

      .cls-8 {
        fill: #333;
      }

      .cls-9 {
        fill: #999;
      }

      .cls-10 {
        fill: #ff7d63;
      }

      .cls-11 {
        fill: gray;
      }

      .cls-12 {
        fill: #a8b6c1;
      }

      .cls-13 {
        fill: #e6e6e6;
      }
    </style>
  </defs>
  <path class="cls-9" d="M169.48,90.79c-6.68,4.32-14.54,5.54-22.18,6.77-7.62,1.24-15.5,2.69-21.98,7.38-6.98,5.05-11.39,14.14-9.08,23.41,1.75,7.02,6.89,14.62,5.98,22.26-.3,2.6-1.52,4.63-3.2,6.04-3.08,2.59-7.74,3.12-11.39,1.31-9.18-4.54-2.37-15.47-5.4-23.24-1.96-5.06-7.42-6.81-12.15-8.32-4.73-1.52-10.12-4.31-10.88-9.77-.81-5.73,4.09-10.4,8.8-12.74,4.72-2.35,10.19-4.04,13.01-8.89,3.81-6.54.79-15.47-3.66-21.46-4.46-6-10.34-10.86-13.27-17.95-2.99-7.24-2.35-15.96.73-23.16,3.07-7.2,8.36-12.96,14.3-17.32,17.05-12.51,40.26-13.47,58.13-2.55.5.3.99.6,1.48.93-5.82-1.05-11.06,5.65-11.08,12.27-.02,6.63,3.8,12.56,8.35,16.77,4.55,4.2,9.91,7.16,14.63,11.12,4.72,3.96,8.96,9.36,9.77,15.93,1.05,8.59-4.23,16.88-10.92,21.21Z"/>
  <path class="cls-11" d="M169.48,90.79c-6.68,4.32-14.54,5.54-22.18,6.77-7.62,1.24-15.5,2.69-21.98,7.38-6.98,5.05-11.39,14.14-9.08,23.41,1.75,7.02,6.89,14.62,5.98,22.26-.3,2.6-1.52,4.63-3.2,6.04-7.87-7.58-13.33-18.42-13.86-30.02-.38-8.43,2-17.28,7.43-23.11,4.63-4.96,10.94-7.31,16.58-10.71,5.64-3.41,11.15-8.79,11.73-15.96.51-6.35-3-12.17-6.67-17.03-3.68-4.86-7.86-9.69-9.15-15.9-1.92-9.25,3.41-18.86,10.57-23.9,6.44-4.53,14.06-6.19,21.61-7.47.5.3.99.6,1.48.93-5.82-1.05-11.06,5.65-11.08,12.27-.02,6.63,3.8,12.56,8.35,16.77,4.55,4.2,9.91,7.16,14.63,11.12,4.72,3.96,8.96,9.36,9.77,15.93,1.05,8.59-4.23,16.88-10.92,21.21Z"/>
  <g>
    <path class="cls-8" d="M328.73,172.97v34.59c0,8.17-6.65,14.81-14.81,14.81h-132.22c-.04.12-.08.25-.13.37-.72,1.99-1.53,4.25-1.53,5.65,0,.36-.05.72-.15,1.07-.68,2.44-1.94,6.99-6.21,9.04-1.37.66-2.77.92-4.11.92-3.34,0-6.4-1.61-8.28-2.71-.27-.16-.51-.31-.73-.44-.15-.09-.65-.32-1.01-.49-1.51-.69-3.37-1.56-4.68-2.97l-15.11-9.18c-.69-.42-1.38-.84-2.07-1.26h-55.09c-.36,0-.84.05-1.35.1-.56.05-1.28.12-2.07.12-2.34,0-5.33-.61-7.01-4.03-1.12-2.27-1.19-5.01-.21-8.12.55-1.72,1.32-3.42,2.35-5.19.97-1.69,2.07-3.28,3.13-4.83.6-.87,1.21-1.74,1.78-2.62,1.51-2.33,2.45-4.35,2.88-6.17.33-1.34.38-2.5.16-3.58-.05-.29-.11-.51-.18-.72-.23-.74-.57-1.5-.97-2.27-.32-.58-.65-1.16-.98-1.72l-.47-.78c-.1-.19-.21-.38-.32-.57-.14-.22-.27-.44-.4-.67-.27-.48-.54-.97-.8-1.47-.52-1.01-.94-2.06-1.27-3.13-.08-.26-.15-.52-.22-.78-.02-.07-.04-.13-.06-.2v-.02c-.95-3.81-.39-7.23,1.6-9.87,2.45-3.22,6.22-4.14,9.24-4.87.64-.16,1.26-.3,1.83-.47,3.26-.96,6.66-1.3,9.95-1.62,1.38-.14,2.69-.27,3.96-.44l1.85-.25c.36-.05.72-.1,1.09-.15l-8.49-8.49s-.07-.07-.17-.07-.15.05-.17.07l-7.8,7.83s-.01,0-.02.02l-.78.78c-.57.57-1.23,1.03-1.95,1.38-.02,0-.04,0-.06.02-.09.04-.18.09-.27.13-.09.04-.18.07-.27.1-.36.14-.73.23-1.1.3-.12.02-.23.03-.35.05-.26.03-.52.06-.78.07-.06,0-.12.01-.18.01-.13,0-.26-.01-.39-.02-.06,0-.13,0-.2-.01-.29-.02-.57-.06-.85-.12-.06-.01-.13-.03-.19-.05-.23-.05-.45-.12-.67-.2-.07-.02-.15-.05-.22-.07-.27-.11-.53-.23-.79-.36-.04-.03-.08-.05-.12-.08-.22-.12-.43-.26-.64-.41-.06-.04-.13-.09-.19-.14-.24-.18-.47-.38-.68-.59l-1.42-1.41c-1.36-1.35-2.11-3.21-2.07-5.11.03-1.89.85-3.71,2.23-5,3.73-3.47,6.96-7.41,10.39-11.58.95-1.16,1.9-2.31,2.86-3.46.93-1.11,2.48-2.97,5.02-3.61.06-.01.13-.03.19-.04.07-.02.13-.02.19-.03.06,0,.12-.02.18-.03,1.3-.22,2.64-.1,3.9.39,2.22.81,3.94,2.57,5.19,4.02,1.58,1.85,3.15,3.69,4.73,5.52l2.13,2.49c.63.73,1.25,1.51,1.88,2.31,1.3,1.66,2.65,3.37,4.02,4.41,1.1.84,2.14,1.7,3.15,2.57.57-.76,1.14-1.51,1.68-2.27.28-.4.56-.84.84-1.28.63-1,1.35-2.14,2.28-3.17,1.1-1.21,2.18-2.45,3.26-3.7l5.31-6.14c15.62-18.02,38.25-28.36,62.09-28.36h48.73c1.79,0,3.59.1,5.34.3,16.35,1.78,30.6,11.59,38.12,26.24l10.75,20.94c1.44,2.8,4.28,4.53,7.43,4.53h5.31c8.35,0,15.26,6.23,16.13,14.51,0,.02.01.05.01.07.03.25.05.51.07.77.02.29.03.59.03.89Z"/>
    <g>
      <path class="cls-11" d="M324.73,172.97v34.59c0,5.98-4.84,10.81-10.81,10.81H82.6c-2.46,0-5.51,1.13-6.83-1.57-.78-1.58-.52-3.48,0-5.16.49-1.54,1.18-2.99,1.99-4.38,1.44-2.5,3.23-4.85,4.81-7.29,1.48-2.28,2.8-4.8,3.42-7.42.42-1.74.54-3.51.19-5.28-.07-.38-.17-.75-.28-1.11-.88-2.9-2.81-5.41-4.2-8.13-.29-.56-.55-1.16-.77-1.77-.18-.48-.34-.98-.46-1.48-.57-2.3-.48-4.68.91-6.52,2.01-2.65,6.04-3.04,9.01-3.92,4.18-1.23,8.98-1.34,13.31-1.93,1.91-.26,3.82-.51,5.73-.78.04-.01.07-.01.11-.02,0,0,0,0,.01,0,.42-.07.81-.18,1.23-.31.62-.18,1.29-.03,1.94,0,1.45.05,2.96-.06,4.27-.74,1.26-.66,2.22-1.76,3.13-2.85,2.16-2.6,4.22-5.28,6.17-8.03.93-1.32,1.74-2.88,2.82-4.07,1.13-1.25,2.24-2.53,3.35-3.81,1.76-2.03,3.52-4.07,5.28-6.1,14.84-17.13,36.4-26.98,59.06-26.98h48.73c1.65,0,3.29.09,4.9.27,14.87,1.62,28.08,10.6,35.01,24.1l10.75,20.94c2.11,4.11,6.35,6.7,10.98,6.7h5.31c6.35,0,11.57,4.84,12.17,11.03.05.4.07.81.07,1.21Z"/>
      <path class="cls-7" d="M324.73,205.65v1.91c0,5.98-4.84,10.81-10.81,10.81h-148.2c.11-.66.27-1.31.48-1.93.94-2.86,2.71-5.37,4.45-7.83l38.31.67c28.77.64,57.53,1.28,86.3,1.92,7.35.16,14.85.31,21.87-1.88,2.67-.84,5.28-2.07,7.6-3.67Z"/>
      <path class="cls-7" d="M144.05,218.37h-61.45c-2.46,0-5.51,1.13-6.83-1.57-.78-1.58-.52-3.48,0-5.16.49-1.54,1.18-2.99,1.99-4.38.09-.16,3.29.07,3.66.06l4.29-.02c2.86-.01,5.73-.02,8.59-.03,5.73-.02,11.45-.05,17.18-.07,4.56-.02,9.12-.04,13.68-.05,2.19,0,4.64-.33,6.81-.02,1.54.22,3.03,2.11,4.08,3.17,2.66,2.7,5.33,5.39,7.99,8.08Z"/>
      <path class="cls-9" d="M198.48,108.72c-24.53,2.65-47.92,15.99-62.14,36.23-3.82,5.43-7.17,11.47-12.63,15.25-6.71,4.64-15.36,5.04-23.42,6.32-7.33,1.16-15.27,3.77-19.35,9.74-.18-.48-.34-.98-.46-1.48-.57-2.3-.48-4.68.91-6.52,2.01-2.65,6.04-3.04,9.01-3.92,4.18-1.23,8.98-1.34,13.31-1.93,1.91-.26,3.82-.51,5.73-.78.46-.07.89-.19,1.35-.33.62-.18,1.29-.03,1.94,0,1.45.05,2.96-.06,4.27-.74,1.26-.66,2.22-1.76,3.13-2.85,2.16-2.6,4.22-5.28,6.17-8.03.93-1.32,1.74-2.88,2.82-4.07,1.13-1.25,2.24-2.53,3.35-3.81,1.76-2.03,3.52-4.07,5.28-6.1,14.84-17.13,36.4-26.98,59.06-26.98h1.67Z"/>
      <path class="cls-11" d="M124.71,162.05l-2.57,2.58c-1.05,1.05-2.74,1.05-3.79,0l-17.9-17.9c-1.66-1.66-4.34-1.65-5.99,0l-7.82,7.85-.78.78c-.3.3-.64.52-1,.67h-.01c-1.08.44-2.37.21-3.24-.66l-1.43-1.42c-1.21-1.21-1.18-3.18.07-4.34,5.01-4.66,9.19-10.15,13.59-15.4.81-.97,1.7-1.99,2.93-2.3.03-.01.06-.02.09-.02.67-.15,1.33-.08,1.95.16,1.37.5,2.6,1.74,3.6,2.9,2.28,2.67,4.57,5.33,6.86,8,2.04,2.38,4.01,5.41,6.52,7.31,3.22,2.44,6.04,5.12,8.92,8,1.05,1.05,1.05,2.75,0,3.79Z"/>
      <path class="cls-5" d="M149.02,146.78c4.62-9.46,12.31-17.38,21.63-22.27,9.32-4.89,20.21-6.73,30.62-5.16,3.23.49,6.76,1.54,8.41,4.36,1.1,1.88,1.13,4.17,1.13,6.34,0,26.19,0,52.38,0,78.56,0,1.29-.03,2.66-.75,3.73-1.17,1.71-3.57,1.91-5.64,1.93-8.62.1-17.24.21-25.86.31,2.72-5.63,5.48-11.33,6.67-17.47s.67-12.86-2.79-18.07c-3.11-4.69-8.21-7.67-13.4-9.86s-10.65-3.75-15.58-6.47c-1.83-1.01-3.62-2.21-4.85-3.91s-1.81-3.97-1.06-5.93"/>
      <path class="cls-11" d="M197.48,148.61c-.76,5.62-1.75,11.21-2.97,16.75-3.18,14.45-8.72,28.08-12.68,42.28-.99,3.53-1.97,7.07-2.96,10.61-.84,3-2.83,7.05-2.83,10.14-.7,2.52-1.64,5.33-4.08,6.5-2.99,1.43-6.5-.33-9.32-2.04-6.93-4.21-13.86-8.42-20.8-12.64-3.27-1.98-6.53-3.97-9.8-5.96-.13-.08-.27-.16-.4-.24-2.51-1.52-6.88-3.02-7.69-6-.4-1.46.1-2.99.59-4.42,2.63-7.67,5.27-15.34,7.9-23l6.33-18.17c.8-.94.7-2.1,1.09-3.2.48-1.34,1.34-2.65,2.03-3.89,1.41-2.57,2.95-5.07,4.64-7.46,3.35-4.75,7.31-9.09,11.99-12.57,8.6-6.4,19.98-9.65,30.31-6.77.32.09.63.18.95.29,2.92.95,5.74,2.56,7.21,5.23,2.28,4.13,1.1,10.13.49,14.56Z"/>
      <path class="cls-7" d="M196.99,134.05c-1.47-2.67-4.29-4.28-7.21-5.23,2.88,3.77,4.23,8.72,4.28,13.52.06,5.55-1.56,10.83-2.84,16.16-1.42,5.95-3.18,11.83-5,17.67-3.64,11.69-7.9,23.18-12.75,34.42-1.72,3.99-3.56,8.01-6.4,11.3-1.29,1.49-2.79,2.82-4.48,3.83-1.16.7-3.92,1.08-4.74,2-2.3,2.57,3.11,4.12,4.79,5.13,2.82,1.71,6.33,3.47,9.32,2.04,2.44-1.17,3.38-3.98,4.08-6.5,0-3.09,1.99-7.14,2.83-10.14.99-3.54,1.97-7.08,2.96-10.61,3.96-14.2,9.5-27.83,12.68-42.28,1.22-5.54,2.21-11.13,2.97-16.75.61-4.43,1.79-10.43-.49-14.56Z"/>
      <path class="cls-13" d="M189.58,161.94c-.05.14-.11.27-.16.41-.08.2-.15.39-.23.59-.6,1.54-1.2,3.05-1.73,4.54-.51,1.42-1.1,2.94-2.26,3.85-.16.13-.33.24-.52.34-2,1.09-4.57.09-6.59-.45-2.5-.67-4.97-1.43-7.42-2.28-.12-.04-.23-.08-.35-.13-.42-.14-.84-.3-1.26-.46-1.17-.42-2.32-.87-3.47-1.34-1.39-.56-2.78-1.16-4.15-1.79-2.7-1.23-5.57-2.56-7.74-4.64-1.17-1.11-2.03-2.65-2.01-4.27.02-1.15.48-2.25.98-3.28,1.32-2.72,3.02-5.25,5.01-7.52,2.93-3.36,6.51-6.16,10.46-8.24,6.02-3.17,15.07-6.07,20.83-.93.68.61,1.29,1.3,1.8,2.06,1.39,2.07,2.1,4.33,2.34,6.67.59,5.75-1.42,11.42-3.53,16.87Z"/>
      <path class="cls-3" d="M185.2,171.33c-.16.13-.33.24-.52.34-2,1.09-4.57.09-6.59-.45-2.5-.67-4.97-1.43-7.42-2.28-1.71-.6-3.4-1.24-5.08-1.93-.01-8.69-.01-17.38-.01-26.08l17.69-5.29c.64,11.9,1.28,23.8,1.93,35.69Z"/>
      <path class="cls-12" d="M189.58,161.94c-.05.14-.11.27-.16.41-.08.2-.15.39-.23.59l-7.58-.12-11.29,5.99c-.42-.14-.84-.3-1.26-.46l11.96-6.35,1.9-15.27c.03-.28.28-.48.55-.44.28.04.47.29.44.56l-1.86,14.98,7.53.11Z"/>
      <path class="cls-13" d="M276.97,156.94h-52.27c-3.29,0-5.95-2.67-5.95-5.95v-27.28c0-3.29,2.66-5.95,5.95-5.95h19.53c4.08,0,8.03.68,11.73,1.96,8.58,2.96,15.82,9.11,20.12,17.49l.7,1.37,5.21,10.14c1.93,3.75-.8,8.22-5.02,8.22Z"/>
      <path class="cls-3" d="M276.78,138.58l-12.38,18.36h-33.53l25.09-37.22c8.58,2.96,15.82,9.11,20.12,17.49l.7,1.37Z"/>
      <path class="cls-13" d="M324.72,172.97v11.29h-14.13c-1.19,0-2.32-.52-3.09-1.43l-3.73-4.38c-1.44-1.67-1.19-3.93.06-5.35.72-.81,1.77-1.35,3.03-1.35h17.8c.05.4.06.8.06,1.21Z"/>
      <path class="cls-2" d="M142.68,164.55h-22.36c-.55,0-1-.45-1-1s.45-1,1-1h22.36c.55,0,1,.45,1,1s-.45,1-1,1Z"/>
      <path class="cls-2" d="M297.32,164.2h-84.58c-.55,0-1-.45-1-1s.45-1,1-1h84.58c.55,0,1,.45,1,1s-.45,1-1,1Z"/>
      <path class="cls-2" d="M272.65,181.28c-.55,0-1-.45-1-1v-11.73c0-.55.45-1,1-1s1,.45,1,1v11.73c0,.55-.45,1-1,1Z"/>
      <path class="cls-2" d="M129.82,184.27c-.1,0-.21-.02-.32-.05-.52-.17-.81-.74-.63-1.26l6.44-19.29c.18-.52.74-.81,1.27-.63.52.17.81.74.63,1.26l-6.44,19.29c-.14.42-.53.68-.95.68Z"/>
      <g>
        <path class="cls-11" d="M152.42,160.81c-2.72,6.85-5.17,12.3-12.01,9.58-3.7-1.47-6.39-4.43-7.63-7.91-1.05-2.96-1.08-6.28.17-9.42,2.72-6.85,10.49-10.19,17.33-7.46,2.97,1.18,4.28,2.91,4.59,5.05.4,2.8-.9,6.29-2.44,10.16Z"/>
        <path class="cls-9" d="M154.85,150.65c-3.74-2.63-8.82-3.33-13.09-1.62-5.1,2.03-8.69,7.36-8.66,12.85l-.33.6c-1.05-2.96-1.08-6.28.17-9.42,2.72-6.85,10.49-10.19,17.33-7.46,2.97,1.18,4.28,2.91,4.59,5.05Z"/>
        <path class="cls-7" d="M132.35,161.05c.97,4.09,3.84,7.67,8.05,9.34,5.88,2.34,8.51-1.35,10.86-6.77-6.45,1.84-13.69,1.44-18.9-2.57Z"/>
        <path class="cls-6" d="M141.46,164.53c-.23.85-.7,1.7-1.01,2.42-.37.87-.8,2.15-1.71,2.59-.02,0-.03.02-.05.02-2.1.95-4.84-2.76-5.63-4.26-1.42-2.67-1.71-5.83-1.28-8.81.13-.91.49-1.97,1.38-2.16.66-.15,1.34.32,1.67.91.33.59.39,1.29.46,1.97.06.68.15,1.38.51,1.95.61.98,1.83,1.34,2.93,1.68,1.1.34,2.3.85,2.71,1.93.22.57.18,1.16.02,1.76Z"/>
        <path class="cls-1" d="M141.46,164.53c-.23.85-.7,1.7-1.01,2.42-.37.87-.8,2.15-1.71,2.59-.02,0-.03.02-.05.02-3.27-1.87-5.5-5-6.33-8.51,2.64,2.03,5.79,3.13,9.1,3.48Z"/>
        <path class="cls-9" d="M137.89,151.1c-.25,1.07.14,2.3,1.06,2.89.68.43,1.54.48,2.35.38,1.23-.15,2.45-.64,3.3-1.54,1.41-1.5,1.44-5.07-1.24-5.25-.84-.06-2.1.54-2.86.83-1.21.46-2.3,1.37-2.61,2.68Z"/>
        <path class="cls-2" d="M143.71,172.11c-1.13,0-2.35-.26-3.67-.79-3.83-1.52-6.82-4.62-8.2-8.5-1.17-3.29-1.11-6.89.18-10.13,2.92-7.35,11.29-10.95,18.63-8.02,3.12,1.24,4.82,3.15,5.21,5.84.43,2.98-.82,6.45-2.5,10.67h0c-1.43,3.59-2.77,6.72-4.67,8.7-1.43,1.49-3.07,2.23-4.97,2.23ZM145.35,145.65c-4.91,0-9.56,2.95-11.48,7.78-1.11,2.78-1.16,5.88-.15,8.71,1.19,3.34,3.76,6.01,7.06,7.32,2.77,1.1,4.76.8,6.46-.97,1.65-1.72,2.9-4.67,4.25-8.06,1.57-3.94,2.74-7.15,2.38-9.65-.28-1.95-1.54-3.3-3.97-4.27-1.49-.59-3.03-.88-4.55-.88Z"/>
      </g>
      <path class="cls-7" d="M168.87,186.99l1.24.59c2.67,1.28,5.86.15,7.14-2.51l.42-.87-10.89-5.22-.42.87c-1.28,2.67-.15,5.86,2.51,7.14Z"/>
      <path class="cls-7" d="M250.15,176.6h4.91c2.96,0,5.35-2.4,5.35-5.35v-.97s-15.62,0-15.62,0v.97c0,2.96,2.4,5.35,5.35,5.35Z"/>
      <path class="cls-6" d="M130.52,210.94v.18"/>
      <path class="cls-5" d="M178.73,217.81c-.12,0-.23-.02-.35-.06-.52-.19-.78-.77-.59-1.29,2.15-5.77,3.96-11.72,5.37-17.69.89-3.75,2.24-7.39,3.55-10.92.75-2.01,1.52-4.08,2.19-6.14,3.88-11.91,6.65-24.24,8.24-36.64.42-3.3.72-6.77-.61-9.63-2.52-5.42-9.68-6.6-12.64-6.85-12.38-1.07-25.24,4.63-32.77,14.52-.33.44-.96.53-1.4.19-.44-.33-.52-.96-.19-1.4,7.93-10.43,21.48-16.44,34.53-15.31,3.31.29,11.32,1.64,14.28,8,1.56,3.35,1.24,7.14.78,10.73-1.6,12.53-4.41,24.98-8.32,37.01-.68,2.1-1.46,4.19-2.22,6.22-1.29,3.47-2.62,7.05-3.48,10.68-1.43,6.06-3.26,12.09-5.44,17.93-.15.4-.53.65-.94.65Z"/>
      <path class="cls-2" d="M185.05,182.38c-.15,0-.29-.03-.43-.1l-34.63-16.66c-.5-.24-.71-.84-.47-1.33.24-.5.84-.71,1.33-.47l34.63,16.66c.5.24.71.84.47,1.33-.17.36-.53.57-.9.57Z"/>
      <path class="cls-5" d="M193.08,145.07s0,.04-.01.05c-1.13-.11-2.33-.61-3.44-.9-.29-.08-.59-.16-.89-.12-.51.06-.93.43-1.31.78-1.18,1.09-2.36,2.19-3.54,3.28-.56.52-1.11.71-1.83.36-.62-.31-1.23-.68-1.85-.99-.51-.26-.94-.65-1.42-.97-.51-.34-1.02-.68-1.53-1.01-.24-.16-.51-.32-.79-.25-.24.06-.4.27-.54.47-.55.78-1.15,1.54-1.69,2.32s-.96,1.58-1.44,2.37c-.12.19-.25.4-.46.48-.2.08-.43.02-.63-.04-.92-.27-1.82-.6-2.69-1s-1.79-.66-2.66-1c-.96-.37-1.93-.75-2.89-1.12-1.93-.75-3.86-1.5-5.79-2.25,2.93-3.36,6.51-6.16,10.46-8.24,6.02-3.17,15.07-6.07,20.83-.93.68.61,1.29,1.3,1.8,2.06.69,1.03,1.24,2.16,1.64,3.34.19.56.34,1.13.46,1.71.09.45.32,1.16.22,1.61Z"/>
      <path class="cls-9" d="M96.86,131.89c.01,2.48-.25,4.93-1.11,7.25-.87,2.37-2.32,4.48-3.75,6.55-2.38,3.45-4.76,6.9-7.14,10.34h-.01c-1.08.44-2.37.21-3.24-.66l-1.43-1.42c-1.21-1.21-1.18-3.18.07-4.34,5.01-4.66,9.19-10.15,13.59-15.4.81-.97,1.7-1.99,2.93-2.3.03-.01.06-.02.09-.02Z"/>
      <path class="cls-12" d="M218.75,151.49c-.16,0-.31-.07-.41-.21-.16-.23-.1-.54.12-.7l18.85-13.27c.1-.07.23-.1.35-.09l26.9,3.59,7.7-9.36c.17-.21.49-.24.7-.07.21.17.24.49.07.7l-7.87,9.57c-.11.13-.28.2-.45.18l-26.98-3.6-18.69,13.16c-.09.06-.19.09-.29.09Z"/>
      <path class="cls-12" d="M274.42,157.44c-.17,0-.33-.08-.42-.24l-9.65-15.59c-.15-.23-.07-.54.16-.69.24-.15.54-.07.69.16l9.65,15.59c.15.23.07.54-.16.69-.08.05-.17.08-.26.08Z"/>
      <path class="cls-6" d="M135.9,180.73c.28.19.55.4.81.61.55.44,1.11,1.03,1.04,1.73-.09.82-1.05,1.29-1.87,1.22s-1.55-.52-2.32-.82c-4.1-1.61-8.73.86-13.08.17-1.65-.26-3.2-.97-4.76-1.56s-3.23-1.08-4.89-.88c-2.78.34-4.46,2.91-4.12,5.63.19,1.53,1.13,2.87,2.1,4.07.98,1.21,2.04,2.39,2.58,3.85.53,1.45.38,3.29-.8,4.29-1.31,1.1-3.25.8-4.91.39-3.46-.86-6.88-1.91-10.22-3.16-.76-.29-9.25-3.72-9.46-3.72.42-1.74.54-3.51.19-5.28-.07-.38-.17-.75-.28-1.11-.88-2.9-2.81-5.41-4.2-8.13-.29-.56-.55-1.16-.77-1.77-.18-.48-.34-.98-.46-1.48-.57-2.3-.48-4.68.91-6.52,2.01-2.65,6.04-3.04,9.01-3.92,4.18-1.23,8.98-1.34,13.31-1.93,1.91-.26,3.82-.51,5.73-.78.04-.01.08-.01.12-.02,1.56.28,3.12.58,4.68.88,1.18.22,2.37.45,3.55.68.94.18,1.87.36,2.81.54,1.43.27,3.19.89,3.3,2.34.11,1.3-1.3,2.24-2.59,2.44-1.3.2-2.67-.02-3.9.42-1.23.45-2.21,2.03-1.4,3.07,3.9,1.6,7.79,3.21,11.68,4.82,2.75,1.14,5.74,2.2,8.21,3.93Z"/>
      <path class="cls-10" d="M117.79,163.17c-5.5,1.96-11.66,2.42-17.5,3.35-7.33,1.16-15.27,3.77-19.35,9.74-.18-.48-.34-.98-.46-1.48-.57-2.3-.48-4.68.91-6.52,2.01-2.65,6.04-3.04,9.01-3.92,4.18-1.23,8.98-1.34,13.31-1.93,1.91-.26,3.82-.51,5.73-.78.04-.01.08-.01.12-.02,1.56.28,3.12.58,4.68.88,1.18.22,2.37.45,3.55.68Z"/>
      <path class="cls-3" d="M94.27,177.2l-2.29,5.52c-.45,1.07-1.34,1.9-2.45,2.26l-3.62,1.18c-.3-1-.73-1.96-1.22-2.89-.36-.67-.74-1.34-1.13-1.99-.63-1.08-1.29-2.15-1.85-3.25-.52-1.01-.95-2.12-1.23-3.25l8.89-2.89c3.22-1.05,6.2,2.17,4.9,5.31Z"/>
      <path class="cls-12" d="M93.07,175.07c-2.69,2.84-5.48,5.58-8.38,8.2-.36-.67-.74-1.34-1.13-1.99,3.04-2.28,6.16-4.44,9.51-6.21Z"/>
      <path class="cls-6" d="M144.25,159.41c1.84-1.47-.38-4.39-2.26-3.15-2.17,1.43.2,4.8,2.26,3.15Z"/>
      <path class="cls-6" d="M128.8,169.09c-.34.51-.39,1.22-.09,1.76.2.35.53.62.9.74.48.15,1.03.06,1.46-.21s.74-.72.88-1.2c.26-.85-.09-2.08-1.12-2.21-.65-.08-1.7.63-2.04,1.14Z"/>
      <path class="cls-6" d="M145.31,179.8c.55.03,1.15.16,1.51.58.55.64.35,1.65.79,2.37.54.88,1.77.96,2.81.94,2.05-.04,4.09-.08,6.14-.13.36,0,.76-.03,1.02-.27.46-.42.2-1.25-.33-1.59s-1.19-.34-1.82-.39c-1.73-.14-3.43-.71-4.89-1.65-1.01-.65-1.92-1.48-3.01-1.99-.92-.43-3.86-.95-4.73-.09-1.64,1.64,1.53,2.18,2.5,2.23Z"/>
      <path class="cls-6" d="M98.81,132.05c-.22.57-.67,1.08-1.16,1.46-.8.62-1.75,1.09-2.36,1.9-1.89,2.51.58,6.44-1,9.16-.8,1.38-2.41,2.02-3.72,2.94-2.29,1.6-3.77,4.29-3.93,7.07l-.78.78c-.3.3-.64.52-1,.67h-.01c-1.08.44-2.37.21-3.24-.66l-1.43-1.42c-1.21-1.21-1.18-3.18.07-4.34,5.01-4.66,9.19-10.15,13.59-15.4.81-.97,1.7-1.99,2.93-2.3.03-.01.06-.02.09-.02.67-.15,1.33-.08,1.95.16Z"/>
      <path class="cls-6" d="M98.44,138.24c-.2.92.51,1.94,1.44,2.06,1.62.22,2.43-1.73,1.46-2.89-.86-1.02-2.62-.46-2.9.83Z"/>
      <path class="cls-6" d="M87.7,197.15c-.26.6-.08,1.31.28,1.85s.9.94,1.42,1.33c1.4,1.04,2.79,2.08,4.19,3.12.32.24.64.48,1.02.6s.82.11,1.13-.13c.33-.25.45-.7.4-1.11s-.24-.78-.45-1.14c-.77-1.3-6.55-7.87-7.98-4.53Z"/>
    </g>
  </g>
  <g>
    <circle class="cls-7" cx="272.64" cy="211.67" r="31.43"/>
    <ellipse class="cls-11" cx="269.72" cy="207.48" rx="28.51" ry="27.24"/>
    <g>
      <circle class="cls-4" cx="272.64" cy="211.67" r="14.89"/>
      <circle class="cls-3" cx="274.42" cy="213.44" r="12.3"/>
      <path class="cls-12" d="M272.65,227.54c-.55,0-1-.45-1-1v-29.15c0-.55.45-1,1-1s1,.45,1,1v29.15c0,.55-.45,1-1,1Z"/>
      <path class="cls-12" d="M287.22,212.97h-29.15c-.55,0-1-.45-1-1s.45-1,1-1h29.15c.55,0,1,.45,1,1s-.45,1-1,1Z"/>
      <path class="cls-12" d="M282.95,223.27c-.26,0-.51-.1-.71-.29l-20.61-20.61c-.39-.39-.39-1.02,0-1.41s1.02-.39,1.41,0l20.61,20.61c.39.39.39,1.02,0,1.41-.2.2-.45.29-.71.29Z"/>
      <path class="cls-12" d="M262.34,223.27c-.26,0-.51-.1-.71-.29-.39-.39-.39-1.02,0-1.41l20.61-20.61c.39-.39,1.02-.39,1.41,0s.39,1.02,0,1.41l-20.61,20.61c-.2.2-.45.29-.71.29Z"/>
      <path class="cls-2" d="M272.65,227.56c-8.76,0-15.89-7.13-15.89-15.89s7.13-15.88,15.89-15.88,15.88,7.13,15.88,15.88-7.13,15.89-15.88,15.89ZM272.65,197.79c-7.66,0-13.89,6.23-13.89,13.88s6.23,13.89,13.89,13.89,13.88-6.23,13.88-13.89-6.23-13.88-13.88-13.88Z"/>
      <circle class="cls-3" cx="272.64" cy="211.67" r="5.22"/>
      <path class="cls-12" d="M272.65,217.89c-3.43,0-6.22-2.79-6.22-6.22s2.79-6.22,6.22-6.22,6.22,2.79,6.22,6.22-2.79,6.22-6.22,6.22ZM272.65,207.45c-2.33,0-4.22,1.89-4.22,4.22s1.89,4.22,4.22,4.22,4.22-1.89,4.22-4.22-1.89-4.22-4.22-4.22Z"/>
    </g>
    <path class="cls-8" d="M272.65,245.1c-18.43,0-33.43-15-33.43-33.43s15-33.43,33.43-33.43,33.43,15,33.43,33.43-15,33.43-33.43,33.43ZM272.65,182.24c-16.23,0-29.43,13.2-29.43,29.43s13.2,29.43,29.43,29.43,29.43-13.2,29.43-29.43-13.2-29.43-29.43-29.43Z"/>
  </g>
  <g>
    <path class="cls-7" d="M144.08,224.94c-6.53,14.89-23.59,22.54-38.11,17.08-14.52-5.45-21.01-21.94-14.48-36.83,6.53-14.89,23.59-22.54,38.11-17.08,14.52,5.45,21.01,21.94,14.48,36.83Z"/>
    <path class="cls-11" d="M141.46,217.8c-5.26,11.94-20.2,17.59-33.36,12.62-10.55-3.98-16.75-13.57-16.1-23.36.16-2.43.75-4.88,1.8-7.26,1.98-4.48,5.32-8.08,9.42-10.56.01-.01.02-.02.03-.02,6.81-4.11,15.71-5.13,23.91-2.03,13.16,4.97,19.56,18.68,14.3,30.61Z"/>
    <path class="cls-6" d="M120.51,187.3c-1.59,0-3.04,1.13-4.17,2.3-1.25,1.29-2.42,2.79-4.12,3.37-1.4.48-3.28.46-3.86,1.82-.32.76-.05,1.62.05,2.44.09.82-.14,1.84-.93,2.07-1.17.34-1.93-1.34-3.11-1.67-1.04-.3-2.11.64-2.38,1.69-.26,1.06.05,2.16.36,3.2.49,1.63.98,3.27,1.46,4.9.24.8.39,1.87-.33,2.31-.59.36-1.37,0-1.86-.49-1.68-1.65-1.96-4.54-4.01-5.67-1.05-.58-2.42-.51-3.41.17-.99.67-1.54,1.93-1.38,3.12l-.82.2c.16-2.43.75-4.88,1.8-7.26,1.98-4.48,5.32-8.08,9.42-10.56.01-.01.02-.02.03-.02.54-.29,1.1-.56,1.68-.79,4.87-1.98,10.33-1.61,15.58-1.13Z"/>
    <g>
      <path class="cls-4" d="M129.37,213.88c-3.09,7.05-11.17,10.67-18.05,8.09-6.88-2.58-9.95-10.39-6.86-17.44,3.09-7.05,11.17-10.67,18.05-8.09s9.95,10.39,6.86,17.44Z"/>
      <path class="cls-3" d="M128.02,215.14c-2.55,5.83-9.23,8.82-14.91,6.68s-8.22-8.59-5.67-14.41,9.23-8.82,14.91-6.68c5.68,2.13,8.22,8.59,5.67,14.41Z"/>
      <path class="cls-12" d="M111.32,222.96c-.13,0-.27-.03-.4-.08-.51-.22-.74-.81-.51-1.32l10.96-25c.22-.5.81-.74,1.32-.51.51.22.74.81.51,1.32l-10.96,25c-.16.38-.53.6-.92.6Z"/>
      <path class="cls-12" d="M129,215.03c-.12,0-.24-.02-.35-.06l-24.39-9.16c-.52-.19-.78-.77-.58-1.29.19-.52.77-.78,1.29-.58l24.39,9.16c.52.19.78.77.58,1.29-.15.4-.53.65-.94.65Z"/>
      <path class="cls-12" d="M121.55,222.53c-.4,0-.78-.24-.93-.63l-9.5-24.15c-.2-.51.05-1.09.56-1.3.52-.2,1.09.05,1.3.56l9.5,24.15c.2.51-.05,1.09-.56,1.3-.12.05-.24.07-.37.07Z"/>
      <path class="cls-12" d="M104.31,216.06c-.38,0-.75-.22-.91-.59-.23-.5,0-1.1.5-1.32l24.99-11.2c.5-.23,1.1,0,1.32.5.23.5,0,1.1-.5,1.32l-24.99,11.2c-.13.06-.27.09-.41.09Z"/>
      <path class="cls-2" d="M115.92,223.8c-1.67,0-3.34-.29-4.95-.89-3.48-1.31-6.18-3.9-7.62-7.31-1.53-3.62-1.46-7.7.2-11.48,3.29-7.52,11.96-11.38,19.32-8.63,3.48,1.31,6.18,3.9,7.62,7.31,1.53,3.62,1.46,7.7-.2,11.48h0c-2.57,5.87-8.42,9.52-14.36,9.52ZM117.89,196.6c-5.17,0-10.26,3.19-12.51,8.33-1.43,3.27-1.5,6.78-.19,9.9,1.22,2.89,3.52,5.1,6.48,6.21,6.38,2.39,13.91-1,16.78-7.56h0c1.43-3.27,1.5-6.78.19-9.9-1.22-2.89-3.52-5.1-6.48-6.21-1.39-.52-2.83-.77-4.27-.77ZM129.37,213.88h0,0Z"/>
      <path class="cls-3" d="M121.28,210.84c1.08-2.47,0-5.21-2.4-6.12s-5.24.36-6.33,2.84,0,5.21,2.4,6.12,5.24-.36,6.33-2.84Z"/>
      <path class="cls-12" d="M116.56,214.97c-.66,0-1.32-.11-1.96-.35-1.39-.52-2.47-1.56-3.04-2.92-.61-1.44-.58-3.05.07-4.54,1.29-2.95,4.7-4.46,7.6-3.37,1.39.52,2.47,1.56,3.04,2.92.61,1.44.58,3.05-.07,4.54-1.01,2.3-3.3,3.72-5.64,3.72ZM117.25,205.43c-1.56,0-3.1.97-3.79,2.53-.43.98-.45,2.03-.06,2.96.36.85,1.03,1.5,1.9,1.82,1.92.72,4.19-.31,5.06-2.3.43-.98.45-2.03.06-2.96-.36-.85-1.03-1.5-1.9-1.82-.41-.16-.85-.23-1.27-.23Z"/>
    </g>
    <path class="cls-8" d="M115.69,245.77c-3.51,0-7.03-.6-10.42-1.88-7.31-2.75-13-8.2-16.03-15.36-3.22-7.62-3.07-16.2.42-24.14,6.94-15.82,25.17-23.97,40.65-18.15,7.31,2.75,13,8.2,16.02,15.36,3.22,7.62,3.07,16.2-.42,24.15l-1.83-.8,1.83.8c-5.42,12.36-17.72,20.03-30.23,20.03ZM119.84,188.35c-10.95,0-21.76,6.76-26.52,17.65-3.04,6.93-3.18,14.38-.39,20.98,2.59,6.14,7.47,10.82,13.75,13.18,13.52,5.08,29.48-2.11,35.58-16.02,3.04-6.93,3.18-14.39.39-20.99-2.59-6.14-7.47-10.82-13.75-13.17-2.94-1.11-6.01-1.63-9.05-1.63Z"/>
    <path class="cls-6" d="M120.05,189.78c-.42-.14-.92.04-1.16.42s-.19.9.11,1.23c.36.38.97.43,1.46.23.38-.15.73-.47.78-.88s-.31-.86-.71-.79"/>
  </g>
</svg>