<?xml version="1.0" encoding="UTF-8"?>
<svg id="Expanded" xmlns="http://www.w3.org/2000/svg" viewBox="0 0 400 250">
  <defs>
    <style>
      .cls-1 {
        fill: #fff8d9;
      }

      .cls-2 {
        fill: #f4b545;
      }

      .cls-3 {
        fill: #aa5217;
      }

      .cls-4 {
        fill: #6d3108;
      }

      .cls-5 {
        fill: #ffeda8;
      }

      .cls-6 {
        fill: #ffe277;
      }
    </style>
  </defs>
  <path class="cls-4" d="M368.08,186.17c0,.61-.06,1.24-.2,1.89-.86,3.93-4.12,6.18-6.5,7.53-9.64,5.44-20.6,6.25-30.5,6.25-1.08,0-2.14-.01-3.19-.02-10.84-.15-26.25-2.4-38.11-12.32-5.47-4.57-10.36-9.83-14.53-15.59.72,3.79,2.54,8.38,6.93,11.14,4.46,2.79,7.49,6.91,8.32,11.31,1.08,5.65-1.13,10.9-3.18,14.83-.77,1.49-1.58,2.89-2.36,4.25-.55.97-1.1,1.91-1.59,2.82-.74,1.38-1.41,2.61-1.86,3.83-.39,1.06-.67,2.25-.97,3.51-.34,1.46-.69,2.97-1.27,4.51-2.08,5.65-6.65,8.11-11.28,9.92-3.41,1.33-7.12,2-10.92,2-1.54,0-3.09-.11-4.64-.33-2.9-.42-5.2-1.35-6.83-2.75-1.17-.99-2-2.24-2.42-3.7-.99-3.51.58-7.48,4.01-10.15,1.06-.82,2.17-1.47,3.16-2.04.92-.54,1.79-1.04,2.45-1.59,1.44-1.21,2.26-2.89,2.44-5,.29-3.41-1.14-7.62-3.56-10.46-.66-.78-1.37-1.52-2.11-2.23.31,5.36-2.97,10.93-5.68,15.5-.75,1.26-1.45,2.45-1.95,3.42l-.7,1.4c-.54,1.07-1.1,2.19-1.7,3.31-.41.75-.83,1.51-1.29,2.26-.68,1.13-1.43,2.24-2.26,3.29-.42.53-.85,1.04-1.32,1.53-2.01,2.15-4.48,3.94-7.65,4.99-2.29.76-4.78,1.14-7.44,1.14-.37,0-.73-.01-1.1-.02-.02,0-.05,0-.07-.01-1.65-.06-3.37-.26-5.14-.62-1.92-.39-4.34-1.09-6.07-3.12-3.09-3.63-1.2-8.78,1.87-12.04,1.1-1.16,2.32-2.08,3.39-2.89.76-.58,1.47-1.12,2.06-1.67,4.59-4.34,4.07-12.35,1.64-17.96-1-2.32-2.47-4.57-4.16-6.75-1.7-2.19-3.61-4.32-5.49-6.42-.67-.75-1.33-1.49-1.97-2.22-.02,0-.03-.03-.05-.05l-.6-.68c-2.34-2.7-4.67-5.57-6.61-8.69-14.79,3.58-30.02,7.05-45.59,7.71-1.71.07-3.4.11-5.08.11-.3,0-.61,0-.91-.01-.4,1.11-.8,2.21-1.21,3.3-1.21,3.19-1.28,6.84-1.35,10.7-.1,5.17-.2,10.52-2.92,15.69-1.13,2.15-2.56,3.92-3.95,5.63-.96,1.18-1.86,2.29-2.58,3.44-.69,1.1-1.29,2.36-1.93,3.69-1.16,2.45-2.49,5.22-4.71,7.53-2.98,3.07-7.39,5.03-12.44,5.52-.98.09-1.95.13-2.91.13-3.18,0-6.27-.43-9.06-.82-.12-.02-.24-.04-.36-.06-.11-.03-.21-.05-.31-.08-.85.1-1.7.15-2.56.15-1.77,0-3.58-.21-5.46-.63-1.52-.34-3.46-.94-4.96-2.59-1.52-1.67-2.19-4.1-1.84-6.66.61-4.45,3.7-7.5,6.18-9.96.66-.65,1.28-1.27,1.84-1.88,5.32-5.87,7.42-15.85,6.24-29.65-.13-1.56-.31-3.11-.53-4.66h0c-.1-.69-.2-1.37-.31-2.04-.11-.68-.22-1.36-.35-2.03-.08-.45-.16-.9-.25-1.35-.08-.4-.16-.79-.24-1.19-.24-1.18-.5-2.36-.78-3.53-.18-.75-.36-1.5-.55-2.24-11.72-8.44-20.2-21.54-24.06-37.35-1.85-7.56-2.59-15.41-2.19-23.31.32-6.27,1.34-12.45,3.05-18.36.31-1.1.71-2.24,1.13-3.45,1.21-3.53,2.73-7.92,1.61-10.27-1.33-2.83-5.24-5.19-8.9-5.39-1.92-.1-4.03.29-6.27.69-3.69.68-7.87,1.44-12.11.04-2.98-.98-5.73-2.95-8.41-6.02-4.03-4.63-6.95-10.46-8.43-16.86-.2-.87-.36-1.7-.47-2.5-.77-1.13-1.44-2.89-1.17-5.47.61-5.95,4.77-10,10.04-9.84,1.93.06,3.65.61,4.93,1.08.06.02.11.04.17.05.12.01.25.01.37.01,1.56.04,3.18.08,4.15-.16,4.06-1.02,7.9-3.6,11.11-7.48.96-1.16,1.88-2.36,2.85-3.63,2.52-3.32,5.13-6.74,8.66-9.49,5.57-4.35,13.05-6.71,22.86-7.23,6.56-.36,11.85.14,16.63,1.58,4.33,1.3,8.27,3.51,11.59,6.44,1.68,1.16,3.09,2.35,4.14,3.31,2.25,2.06,4.43,4.46,6.48,7.14,2.11,2.75,4.15,5.84,6.25,9.47,3.33,5.81,6.99,13.51,5.74,21.63-.07.42-.15.84-.24,1.26.54,1.73.93,3.41,1.31,5.03.8,3.4,1.49,6.33,3.24,9.17,2.68,4.36,6.56,8.27,11.21,11.32,8.79,5.75,19.5,8.33,28.82,10.09,12.79,2.41,25.87,3.83,38.87,4.2,10.43.3,22.7,1.54,34.55,8.48,8.26,4.83,15.69,11.62,22.71,20.74.68.89,1.36,1.78,2.04,2.67,3.85,5.09,7.49,9.91,12.22,13.48,5.18,3.91,10.05,6.61,15.32,8.51,2.43.87,4.97,1.67,7.44,2.45,3.78,1.18,7.69,2.41,11.5,3.99,6.46,2.69,12.49,6.36,17.91,10.92l.83.7c4.71,3.92,9.57,8.28,11.51,12.87.04.07.07.14.09.21.07.15.12.3.18.45.27.71.46,1.46.55,2.24.02.19.04.38.05.56.01.17.02.33.02.5Z"/>
  <g>
    <path class="cls-5" d="M96.19,150.87c3.94,12.28,7.91,24.68,9.01,37.53.92,10.7.36,24.26-7.26,32.67-2.73,3.01-6.47,5.67-7.02,9.7-.16,1.2.03,2.53.84,3.43.72.8,1.81,1.14,2.86,1.37,6.58,1.47,11.74-.13,16.92-4.16,4.49-3.48,8.2-7.97,10.71-13.06,2.83-5.75,4.14-12.12,4.91-18.48,1.88-15.41.76-31.18-3.28-46.17"/>
    <path class="cls-6" d="M106.49,184.37c7.13,3.39,14.26,6.65,21.17,10.42,1.09-13.78-.19-27.74-3.79-41.08l-27.69-2.83c3.44,10.71,6.9,21.52,8.45,32.64.62.28,1.24.56,1.86.85Z"/>
    <path class="cls-5" d="M219.64,200.71c3.18,7.37,3.26,16.93-2.56,22.45-1.67,1.58-3.72,2.73-5.29,4.4-1.41,1.5-3.36,4.79-1.73,6.7.93,1.09,2.4,1.51,3.81,1.79,3.87.77,7.96.88,11.71-.36,6.77-2.24,9.62-8.9,12.62-14.8,2.45-4.83,8.42-12.57,6.99-18.23-.77-3.07-2.7-5.73-3.78-8.71-3.85-10.54,2.26-22.55,1.52-33.45-.68-10.04-9.68-18.27-19.62-19.67-14.73-2.07-30.71,11.45-26.34,26.84,1.71,6.03,5.66,11.14,9.77,15.87,4.54,5.23,10.15,10.74,12.92,17.16Z"/>
    <path class="cls-6" d="M245.17,202.66c-.77-3.07-2.7-5.73-3.78-8.71-3.85-10.54,2.26-22.55,1.52-33.45-.68-10.04-9.68-18.27-19.62-19.67-14.73-2.07-30.71,11.45-26.34,26.84,1.71,6.03,5.66,11.14,9.77,15.87.19.22.39.45.59.67,7.33,2.65,14.47,6.01,20.79,10.55,6.35,4.56,8.68,10.94,7.21,18.62-1.98,10.41-8.27,18.72-16.88,23.21,2.42.09,4.84-.16,7.13-.91,6.77-2.24,9.62-8.9,12.62-14.8,2.45-4.83,8.42-12.57,6.99-18.23Z"/>
    <path class="cls-1" d="M363.97,187.2c-.49,2.25-2.56,3.77-4.57,4.91-9.68,5.46-20.81,5.86-31.66,5.71-12.57-.17-25.84-3.23-35.6-11.39-9.42-7.87-17.06-17.88-22.1-29.07-.56-1.26-1.3-2.71-2.66-2.96-1.11-.2-2.16.49-3.1,1.11-2.21,1.45-4.52,2.57-6.91,3.44-3.06,1.11-6.25,1.82-9.57,2.27-2.35.32-4.36,1.26-6.66,1.77-3.41.74-6.85,1.31-10.25,2.14-10.35,2.52-20.7,5.04-31.05,7.56-15.98,3.89-32.08,7.8-48.52,8.5-16.43.71-33.41-2-47.47-10.54-13.65-8.29-22.13-22.11-25.83-37.25-1.77-7.24-2.45-14.78-2.08-22.16.3-5.9,1.26-11.77,2.9-17.45,1.37-4.78,4.82-11.7,2.51-16.55-2.09-4.43-7.55-7.4-12.29-7.66-5.83-.31-11.8,2.75-17.35.92-2.64-.87-4.82-2.76-6.64-4.85-3.74-4.29-6.27-9.58-7.56-15.13-.69-3-.99-6.35.61-8.99,2.71-4.49,10.09-1.96,14.49-3.06,5.31-1.33,9.76-4.63,13.22-8.81,3.54-4.27,6.52-9.11,10.89-12.52,5.76-4.49,13.31-6,20.61-6.39,5.13-.28,10.35-.06,15.27,1.42,6.59,1.98,11.81,6.2,15.15,11.59,6.65,10.75,11.94,22.25,15.9,34.25,1.81,5.49,2.04,10.73,5.2,15.88s7.47,9.33,12.42,12.57c9.01,5.9,19.69,8.67,30.27,10.68,13.02,2.46,26.24,3.89,39.49,4.27,11.68.34,22.44,1.96,32.65,7.93,8.54,5,15.56,11.93,21.56,19.73,4.59,5.96,8.95,12.32,15.02,16.9,5.13,3.87,10.29,6.89,16.37,9.08s12.65,3.84,18.76,6.38c6.1,2.53,11.81,6.03,16.86,10.28,3.54,2.98,12.86,10.24,11.7,15.5Z"/>
    <path class="cls-5" d="M363.97,187.2c-.49,2.25-2.56,3.77-4.57,4.91-9.68,5.46-20.81,5.86-31.66,5.71-12.57-.17-25.84-3.23-35.6-11.39-9.42-7.87-17.06-17.88-22.1-29.07-.56-1.26-1.3-2.71-2.66-2.96-1.11-.2-2.16.49-3.1,1.11-2.21,1.45-4.52,2.57-6.91,3.44-.86-8.42-.42-17.08.14-25.55l13.98-.03c8.99,22.35,28.54,40.18,51.62,47.07,6.61,1.97,13.45,3.09,20.31,3.7,2.59.23,5.24.38,7.75-.29,2.51-.67,4.9-2.32,5.82-4.74.29-.76.4-1.58.33-2.4.91.86,1.81,1.73,2.7,2.6,2.21,2.15,4.61,4.88,3.95,7.89Z"/>
    <path class="cls-5" d="M268.33,153.4c-2.15,1.77-4.33,3.2-6.43,4.17-9.04,4.19-21.31,5.19-31.01,7.56-10.35,2.52-20.7,5.04-31.05,7.56-15.98,3.89-32.08,7.8-48.52,8.5-16.43.71-33.41-2-47.47-10.54-13.65-8.29-22.13-22.11-25.83-37.25,3.44,4.53,7.62,8.55,12.19,11.92,9.55,7.04,20.78,11.51,32.2,14.74,39.8,11.24,83.6,7.71,121.09-9.76,6.17-2.88,13.39-6.14,19.45-3.02,2.49,1.28,4.3,3.52,5.38,6.12Z"/>
    <path class="cls-5" d="M144,55.72c-1.08,6.94-6.49,12.67-12.89,15.54-6.4,2.88-13.66,3.25-20.65,2.65-4.52-.38-9.38-1.35-12.38-4.75-1.98-2.25-2.79-5.12-2.99-8.15-.15-2.3.04-4.68.34-6.93.94-7.15,2.55-14.22,4.79-21.08,1.13-3.48,2.43-6.9,3.88-10.26,1.19-2.73,1.96-6.56,4.81-8.09,1.09-.58,2.37-.7,3.6-.65,5.23.2,10.53,3.61,14.27,7.04,2.2,2.02,4.19,4.26,6.01,6.63,2.19,2.85,4.15,5.91,5.95,9.03,3.34,5.82,6.28,12.39,5.26,19.02Z"/>
    <path class="cls-1" d="M148.31,155.93c-.58,10.81-4.03,21.29-7.77,31.25-3.13,8.32.16,17.9-4.06,25.94-1.69,3.21-4.45,5.73-6.38,8.8-2.17,3.46-3.29,7.63-6.13,10.57-2.57,2.65-6.28,3.96-9.95,4.32-3.68.35-7.38-.16-11.03-.67-.94-.13-1.26-3.38-1.35-4.13-.21-1.87.69-3.82,1.76-5.29,1.28-1.76,2.96-3.17,4.45-4.75,9.82-10.4,8.21-25.06,4.98-37.8-2.97-11.66-6.2-25.06-11.14-35.98-9.91-21.95,22.25-34.48,36.93-20.56,2.04,1.94,3.73,4.17,5.1,6.59,3.64,6.43,5,14.25,4.59,21.71Z"/>
    <path class="cls-1" d="M283.57,209.35c-1.28,2.47-2.74,4.82-3.92,7.01-.76,1.41-1.53,2.83-2.09,4.34-.96,2.61-1.27,5.41-2.24,8.02-1.54,4.18-5.05,6.04-8.99,7.58-4.28,1.67-9,2.09-13.53,1.44-1.52-.22-3.5-.71-4.79-1.82-.56-.47-.98-1.05-1.19-1.78-.62-2.19.82-4.48,2.62-5.88,1.8-1.4,3.99-2.27,5.73-3.73,6.39-5.35,4.03-15.61-.64-21.11-5.64-6.64-13.75-10.55-20.95-15.46-11.15-7.59-20.74-18.58-23.32-31.82-2.41-12.4,3.17-25.34,12.97-33.06,10.4-8.19,23.77-9.86,35.45-3.45.52.28,1.02.58,1.52.9,4.87,3.05,8.91,7.5,10.95,12.86,2.21,5.82,1.96,12.28,1.18,18.47-.77,6.18-2.03,12.36-1.72,18.59.35,7.15,3.04,14.09,9.24,17.99,3.15,1.97,5.83,5.01,6.52,8.66.8,4.18-.77,8.35-2.8,12.25Z"/>
    <path class="cls-1" d="M138.02,55.21c-1.32,3.44-4.22,6.08-7.45,7.83-3.24,1.75-6.84,2.7-10.39,3.64-4.6,1.22-9.32,2.44-14.04,1.91-4.67-.53-9.41-3.19-11.05-7.58-.15-2.3.04-4.68.34-6.93.94-7.15,2.55-14.22,4.79-21.08,1.13-3.48,2.43-6.9,3.88-10.26,1.19-2.73,1.96-6.56,4.81-8.09,1.09-.58,2.37-.7,3.6-.65,5.23.2,10.53,3.61,14.27,7.04,2.2,2.02,4.19,4.26,6.01,6.63,2.05,4.85,3.72,9.86,4.99,14.96,1.02,4.14,1.77,8.6.24,12.58Z"/>
    <path class="cls-2" d="M117.24,75.67c-1.54,0-3.14-.07-4.82-.22-3.79-.33-6.61-.93-9.12-1.94-3.26-1.3-5.87-3.31-7.55-5.8-2.58-3.83-2.9-8.66-2.87-13.31.06-9.45,1.14-18.92,3.2-28.15.12-.54.65-.88,1.19-.76.54.12.88.65.76,1.19-2.03,9.09-3.09,18.42-3.16,27.73-.03,4.33.26,8.8,2.53,12.18,1.83,2.73,4.62,4.26,6.63,5.06,2.33.93,4.97,1.49,8.56,1.8,5.25.46,9.72.18,13.66-.87,3.29-.87,7.95-2.77,11.4-6.84.36-.42.99-.47,1.41-.12.42.36.47.99.12,1.41-3,3.54-7.29,6.12-12.41,7.48-2.89.77-6.04,1.15-9.53,1.15Z"/>
    <path class="cls-2" d="M140.24,65.58c-.27,0-.53-.11-.73-.31-.38-.4-.36-1.03.04-1.41.42-.39.72-.89.89-1.44.16-.53.71-.83,1.24-.67.53.16.83.71.67,1.24-.26.89-.76,1.69-1.43,2.32-.19.18-.44.27-.69.27Z"/>
    <path class="cls-5" d="M148.31,155.93c-.58,10.81-4.03,21.29-7.77,31.25-3.13,8.32.16,17.9-4.06,25.94-1.69,3.21-4.45,5.73-6.38,8.8-2.17,3.46-3.29,7.63-6.13,10.57-2.57,2.65-6.28,3.96-9.95,4.32-3.68.35-7.38-.16-11.03-.67-.96-1.03-1.2-2.47-.95-3.88,4.03,3.34,10.37,2.88,14.93.17,4.77-2.83,8.05-7.55,11.19-12.13,3.28-4.8,6.68-9.95,6.85-15.76.17-5.75-2.89-11.33-2.14-17.04.63-4.75,3.78-8.7,6.25-12.81,7.21-12,8.77-27.14,4.6-40.47,3.64,6.43,5,14.25,4.59,21.71Z"/>
    <path class="cls-2" d="M146.7,168.37c-.11,0-.23-.02-.34-.06-.52-.19-.79-.76-.6-1.28,4.61-12.69,2.62-31.02-8.71-39.72-.44-.34-.52-.96-.18-1.4.34-.44.96-.52,1.4-.18,12.05,9.26,14.23,28.62,9.37,41.99-.15.41-.53.66-.94.66Z"/>
    <path class="cls-2" d="M144.04,177.72c-.1,0-.21-.02-.31-.05-.52-.17-.81-.74-.64-1.26l1.66-5.06c.17-.52.74-.81,1.26-.64.52.17.81.74.64,1.26l-1.66,5.06c-.14.42-.53.69-.95.69Z"/>
    <path class="cls-2" d="M101.36,233.45c-.39,0-.76-.23-.92-.61-1.01-2.37.07-4.96,1.41-6.59.89-1.08,1.96-1.95,2.99-2.79.53-.43,1.06-.86,1.56-1.32,4.37-3.98,6.85-10.35,7.38-18.93,1.04-16.73-4.78-33.54-9.91-48.37-.18-.52.1-1.09.62-1.27.52-.18,1.09.1,1.27.62,5.2,15.01,11.08,32.02,10.02,49.15-.57,9.12-3.27,15.94-8.03,20.28-.53.48-1.09.94-1.65,1.39-1,.81-1.95,1.58-2.71,2.5-.93,1.12-1.78,2.99-1.12,4.53.22.51-.02,1.1-.53,1.31-.13.05-.26.08-.39.08Z"/>
    <path class="cls-5" d="M283.57,209.35c-1.28,2.47-2.74,4.82-3.92,7.01-.76,1.41-1.53,2.83-2.09,4.34-.96,2.61-1.27,5.41-2.24,8.02-1.54,4.18-5.05,6.04-8.99,7.58-4.28,1.67-9,2.09-13.53,1.44-1.52-.22-3.5-.71-4.79-1.82,3.54,1.24,7.27,1.93,10.93,1.35,4.8-.77,9.41-4.15,10.41-8.9.74-3.48-.48-7.21.58-10.6,1.31-4.19,5.69-6.69,7.59-10.65,2.91-6.04-.78-13.16-5.11-18.28-4.33-5.12-9.65-10.11-10.55-16.75-.95-6.98,3.28-13.47,5.31-20.21,3.23-10.71.31-22.92-6.97-31.35,4.87,3.05,8.91,7.5,10.95,12.86,2.21,5.82,1.96,12.28,1.18,18.47-.77,6.18-2.03,12.36-1.72,18.59.35,7.15,3.04,14.09,9.24,17.99,3.15,1.97,5.83,5.01,6.52,8.66.8,4.18-.77,8.35-2.8,12.25Z"/>
    <path class="cls-2" d="M272.08,151.96c-.06,0-.12,0-.18-.02-.54-.1-.91-.62-.81-1.16l.15-.82c.82-4.52,1.66-9.2.47-13.46-1.09-3.93-3.64-8.01-7.19-11.5-6.49-6.39-16.15-9.46-25.21-8.02-.56.09-1.06-.29-1.14-.83-.09-.55.29-1.06.83-1.14,9.68-1.54,20,1.74,26.93,8.57,3.79,3.73,6.52,8.13,7.71,12.39,1.31,4.7.38,9.82-.43,14.35l-.15.82c-.09.48-.51.82-.98.82Z"/>
    <path class="cls-2" d="M236.38,190.41c-.15,0-.3-.03-.44-.1-13.04-6.43-22.79-18.72-26.08-32.88-.12-.54.21-1.08.75-1.2.53-.12,1.08.21,1.2.75,3.15,13.58,12.5,25.37,25.01,31.54.5.24.7.84.46,1.34-.17.35-.53.56-.9.56Z"/>
    <path class="cls-3" d="M48.13,39.65c-.61-.79-1.67-.88-2.56-1.21-1.18-.43-2.4-.8-3.66-.83-3.63-.11-5.6,2.92-5.95,6.25-.11,1.07-.03,2.26.7,3.06.79.87,2.1,1.02,3.27.93,2.73-.21,5.37-1.49,7.23-3.51.59-.64,1.11-1.37,1.35-2.21s.15-1.8-.38-2.49Z"/>
    <path class="cls-3" d="M75.18,38.33c.95,1.4,2.92,1.86,4.46,1.3,1.82-.67,2.78-2.71,2.7-4.59-.07-1.55-.94-3.08-2.32-3.78-1.75-.88-3.57-.24-4.64,1.27-.58.82-.85,1.82-.9,2.82-.06,1.04.12,2.12.71,2.99Z"/>
  </g>
</svg>