<?xml version="1.0" encoding="UTF-8"?>
<svg id="Expanded" xmlns="http://www.w3.org/2000/svg" viewBox="0 0 400 250">
  <defs>
    <style>
      .cls-1 {
        fill: #dd2a39;
      }

      .cls-2 {
        fill: #fff;
      }

      .cls-3 {
        fill: #dfedf2;
      }

      .cls-4 {
        fill: #fff8d9;
      }

      .cls-5 {
        fill: #f4b545;
      }

      .cls-6 {
        fill: #231f20;
      }

      .cls-7 {
        fill: #6d3108;
      }

      .cls-8 {
        fill: #ffe277;
      }

      .cls-9 {
        fill: #333;
      }

      .cls-10 {
        fill: gray;
      }

      .cls-11 {
        opacity: .5;
      }
    </style>
  </defs>
  <g>
    <path class="cls-6" d="M313.25,26.59v148.83c0,8.04-6.54,14.57-14.57,14.57H46.7c-8.04,0-14.58-6.53-14.58-14.57V26.59c0-8.04,6.54-14.58,14.58-14.58h251.98c8.03,0,14.57,6.54,14.57,14.58Z"/>
    <g>
      <rect class="cls-10" x="36.12" y="16.01" width="273.13" height="169.98" rx="10.57" ry="10.57"/>
      <rect class="cls-2" x="46.75" y="26.64" width="251.88" height="148.73" rx="2.49" ry="2.49"/>
      <rect class="cls-3" x="129.37" y="102.07" width="2.12" height="73.3"/>
      <rect class="cls-3" x="215.38" y="102.07" width="2.12" height="73.3"/>
      <path class="cls-9" d="M117.93,64.84c0-1.93.22-3.63.67-5.1.45-1.47,1.08-2.71,1.9-3.71.82-1,1.81-1.76,2.97-2.27s2.46-.77,3.89-.77c.44,0,.82.02,1.15.07s.62.1.86.17c.24.07.44.15.6.24s.28.18.37.27c.14.14.24.29.31.45.07.16.1.36.1.6,0,.44-.12.77-.36,1-.24.23-.55.35-.92.35-.14,0-.27,0-.4-.02s-.27-.03-.42-.06c-.15-.02-.32-.04-.52-.06-.2-.01-.43-.02-.69-.02-.73,0-1.39.11-2,.33s-1.15.57-1.61,1.05-.85,1.08-1.17,1.83c-.31.75-.54,1.64-.69,2.69.3-.2.65-.39,1.05-.57.34-.15.76-.28,1.26-.4.5-.12,1.07-.18,1.71-.18.94,0,1.78.14,2.53.42.75.28,1.38.68,1.9,1.2.51.52.91,1.15,1.18,1.9s.41,1.58.41,2.51c0,1.05-.16,1.99-.48,2.83s-.78,1.56-1.39,2.16c-.61.6-1.34,1.06-2.2,1.38-.86.32-1.84.49-2.92.49s-2.12-.18-3-.54c-.88-.36-1.62-.9-2.22-1.63-.61-.73-1.07-1.64-1.39-2.74s-.48-2.38-.48-3.86ZM124.95,63.72c-.49,0-.93.06-1.31.19s-.71.26-.99.41c-.32.17-.61.37-.86.58,0,1.07.1,1.97.27,2.69.17.72.4,1.31.7,1.75.3.45.65.76,1.06.95.41.19.87.28,1.37.28.43,0,.81-.07,1.16-.23s.65-.38.9-.68c.25-.3.45-.67.59-1.11.14-.44.21-.95.21-1.52s-.07-1.02-.21-1.43c-.14-.41-.34-.76-.61-1.04-.27-.28-.59-.49-.97-.64-.38-.15-.82-.22-1.31-.22Z"/>
      <path class="cls-9" d="M137.86,64.84c0-1.93.22-3.63.67-5.1.45-1.47,1.08-2.71,1.9-3.71.82-1,1.81-1.76,2.97-2.27s2.46-.77,3.89-.77c.44,0,.82.02,1.15.07s.62.1.86.17c.24.07.44.15.6.24s.28.18.37.27c.14.14.24.29.31.45.07.16.1.36.1.6,0,.44-.12.77-.36,1-.24.23-.55.35-.92.35-.14,0-.27,0-.4-.02s-.27-.03-.42-.06c-.15-.02-.32-.04-.52-.06-.2-.01-.43-.02-.69-.02-.73,0-1.39.11-2,.33s-1.15.57-1.61,1.05-.85,1.08-1.17,1.83c-.31.75-.54,1.64-.69,2.69.3-.2.65-.39,1.05-.57.34-.15.76-.28,1.26-.4.5-.12,1.07-.18,1.71-.18.94,0,1.78.14,2.53.42.75.28,1.38.68,1.9,1.2.51.52.91,1.15,1.18,1.9s.41,1.58.41,2.51c0,1.05-.16,1.99-.48,2.83s-.78,1.56-1.39,2.16c-.61.6-1.34,1.06-2.2,1.38-.86.32-1.84.49-2.92.49s-2.12-.18-3-.54c-.88-.36-1.62-.9-2.22-1.63-.61-.73-1.07-1.64-1.39-2.74s-.48-2.38-.48-3.86ZM144.88,63.72c-.49,0-.93.06-1.31.19s-.71.26-.99.41c-.32.17-.61.37-.86.58,0,1.07.1,1.97.27,2.69.17.72.4,1.31.7,1.75.3.45.65.76,1.06.95.41.19.87.28,1.37.28.43,0,.81-.07,1.16-.23s.65-.38.9-.68c.25-.3.45-.67.59-1.11.14-.44.21-.95.21-1.52s-.07-1.02-.21-1.43c-.14-.41-.34-.76-.61-1.04-.27-.28-.59-.49-.97-.64-.38-.15-.82-.22-1.31-.22Z"/>
      <path class="cls-9" d="M157.54,59.84c0-1.05.16-1.99.48-2.83s.78-1.56,1.39-2.16c.6-.6,1.34-1.06,2.2-1.38.86-.32,1.83-.49,2.92-.49s2.11.18,2.99.54c.88.36,1.62.9,2.23,1.63.6.73,1.07,1.64,1.39,2.73s.48,2.38.48,3.85c0,1.93-.23,3.63-.68,5.11s-1.1,2.71-1.96,3.71-1.91,1.75-3.14,2.27c-1.24.51-2.65.77-4.23.77-.45,0-.84-.02-1.17-.06s-.62-.09-.86-.16c-.24-.07-.43-.15-.59-.23-.16-.09-.28-.18-.38-.28-.14-.14-.24-.28-.31-.44s-.11-.37-.11-.62c0-.44.12-.77.37-.99s.55-.34.92-.34c.13,0,.25,0,.38.02s.27.03.43.05c.15.02.33.04.52.05.19.01.42.02.68.02,1.03,0,1.9-.14,2.61-.42s1.3-.68,1.78-1.2c.47-.52.84-1.14,1.1-1.86s.45-1.52.58-2.4c-.3.21-.65.41-1.05.58-.34.15-.76.28-1.25.39s-1.06.17-1.7.17c-.95,0-1.8-.14-2.54-.41-.75-.28-1.38-.68-1.9-1.2-.52-.52-.92-1.16-1.19-1.9s-.41-1.58-.41-2.51ZM161.49,59.54c0,.54.07,1.02.21,1.43.14.41.34.76.61,1.04.27.28.59.49.97.64.38.15.82.22,1.31.22s.92-.06,1.3-.18c.38-.12.71-.25.99-.4.32-.17.6-.37.86-.6,0-1.1-.09-2.02-.27-2.75-.18-.73-.42-1.31-.73-1.74s-.67-.74-1.08-.92c-.42-.18-.86-.27-1.32-.27-.43,0-.81.08-1.16.23s-.65.38-.9.68c-.25.3-.45.66-.59,1.1-.14.44-.21.95-.21,1.52Z"/>
      <path class="cls-9" d="M177.72,64.84c0-1.93.22-3.63.67-5.1.45-1.47,1.08-2.71,1.9-3.71.82-1,1.81-1.76,2.97-2.27s2.46-.77,3.89-.77c.44,0,.82.02,1.15.07s.62.1.86.17c.24.07.44.15.6.24s.28.18.37.27c.14.14.24.29.31.45.07.16.1.36.1.6,0,.44-.12.77-.36,1-.24.23-.55.35-.92.35-.14,0-.27,0-.4-.02s-.27-.03-.42-.06c-.15-.02-.32-.04-.52-.06-.2-.01-.43-.02-.69-.02-.73,0-1.39.11-2,.33s-1.15.57-1.61,1.05-.85,1.08-1.17,1.83c-.31.75-.54,1.64-.69,2.69.3-.2.65-.39,1.05-.57.34-.15.76-.28,1.26-.4.5-.12,1.07-.18,1.71-.18.94,0,1.78.14,2.53.42.75.28,1.38.68,1.9,1.2.51.52.91,1.15,1.18,1.9s.41,1.58.41,2.51c0,1.05-.16,1.99-.48,2.83s-.78,1.56-1.39,2.16c-.61.6-1.34,1.06-2.2,1.38-.86.32-1.84.49-2.92.49s-2.12-.18-3-.54c-.88-.36-1.62-.9-2.22-1.63-.61-.73-1.07-1.64-1.39-2.74s-.48-2.38-.48-3.86ZM184.74,63.72c-.49,0-.93.06-1.31.19s-.71.26-.99.41c-.32.17-.61.37-.86.58,0,1.07.1,1.97.27,2.69.17.72.4,1.31.7,1.75.3.45.65.76,1.06.95.41.19.87.28,1.37.28.43,0,.81-.07,1.16-.23s.65-.38.9-.68c.25-.3.45-.67.59-1.11.14-.44.21-.95.21-1.52s-.07-1.02-.21-1.43c-.14-.41-.34-.76-.61-1.04-.27-.28-.59-.49-.97-.64-.38-.15-.82-.22-1.31-.22Z"/>
      <path class="cls-9" d="M197.39,68.38c0-.62.1-1.18.29-1.69.19-.5.46-.97.8-1.39.34-.42.74-.81,1.19-1.16.45-.35.95-.69,1.48-1.01-.46-.27-.9-.57-1.3-.91-.4-.33-.75-.7-1.04-1.1-.29-.4-.52-.82-.69-1.28-.17-.46-.25-.96-.25-1.5,0-.75.14-1.46.43-2.11.29-.65.71-1.22,1.28-1.7s1.27-.86,2.11-1.13c.84-.28,1.8-.41,2.9-.41,1.01,0,1.9.13,2.67.38.77.25,1.41.59,1.93,1.03.52.44.91.94,1.18,1.52.27.58.4,1.2.4,1.84,0,.59-.09,1.12-.26,1.59-.17.47-.41.9-.71,1.29-.3.39-.66.74-1.07,1.06-.41.32-.85.62-1.33.91.52.29,1.02.62,1.49.97.47.36.88.75,1.23,1.18.35.43.63.9.84,1.4.21.5.31,1.05.31,1.64,0,.86-.15,1.65-.44,2.36-.3.71-.74,1.32-1.34,1.83-.6.51-1.34.9-2.24,1.18s-1.96.41-3.18.41c-1.1,0-2.07-.13-2.9-.39-.83-.26-1.53-.62-2.08-1.09-.55-.46-.97-1.02-1.25-1.66-.28-.64-.42-1.33-.42-2.08ZM201.19,68.02c0,.41.07.78.2,1.11.14.34.33.62.6.86.26.24.59.42.98.55s.84.2,1.36.2.94-.06,1.32-.19c.38-.13.69-.31.95-.54.26-.23.45-.51.58-.84.13-.32.2-.68.2-1.08s-.09-.78-.25-1.11c-.17-.33-.4-.64-.7-.93-.3-.29-.66-.55-1.07-.79-.42-.24-.87-.48-1.37-.71-.43.25-.81.51-1.15.76-.34.26-.64.52-.88.8-.24.28-.43.57-.56.88s-.2.65-.2,1.03ZM201.73,58.08c0,.38.07.71.2,1.01.13.29.32.57.56.81.24.25.54.48.89.69.35.21.75.43,1.18.64.37-.22.7-.45.99-.67.3-.23.54-.46.75-.71s.36-.51.47-.79c.11-.28.17-.59.17-.91s-.06-.63-.17-.92c-.12-.28-.29-.52-.52-.73-.23-.2-.51-.36-.84-.47-.33-.11-.71-.17-1.13-.17s-.77.06-1.09.17-.59.26-.81.46c-.22.19-.38.43-.49.7-.11.27-.17.57-.17.89Z"/>
      <path class="cls-1" d="M217.23,56.57c-.43,0-.77-.14-1.02-.41-.25-.27-.38-.68-.38-1.23s.12-.96.37-1.23.59-.41,1.02-.41h9.31c.36,0,.67.04.93.13s.47.21.64.37c.16.16.29.35.36.57.08.22.12.46.12.72,0,.34-.04.66-.13.97s-.22.65-.39,1.03c-.66,1.37-1.27,2.7-1.83,4-.56,1.3-1.07,2.56-1.54,3.78s-.88,2.4-1.26,3.53c-.37,1.13-.7,2.21-.99,3.22-.09.31-.19.58-.3.81-.11.23-.24.42-.4.57-.16.15-.33.26-.53.33-.2.07-.43.11-.69.11-.28,0-.54-.04-.76-.11-.23-.07-.42-.18-.59-.31-.16-.14-.29-.31-.38-.52-.09-.21-.14-.45-.14-.73,0-.2.02-.41.06-.61.04-.2.09-.44.16-.7.23-.94.52-1.95.88-3.04.35-1.09.75-2.23,1.18-3.41s.91-2.4,1.42-3.65c.51-1.25,1.05-2.51,1.61-3.79h-6.74Z"/>
      <g>
        <path class="cls-9" d="M70.53,121.17c-.3,0-.55-.1-.73-.29s-.27-.49-.27-.88.09-.69.26-.88.42-.29.73-.29h6.65c.26,0,.48.03.66.09s.34.15.46.26.2.25.26.4.08.33.08.51c0,.24-.03.47-.09.7s-.16.47-.28.74c-.47.98-.91,1.93-1.31,2.86s-.77,1.83-1.1,2.7-.63,1.71-.9,2.52-.5,1.58-.71,2.3c-.06.22-.13.41-.21.58s-.17.3-.29.41-.24.19-.38.24-.31.08-.49.08c-.2,0-.38-.03-.54-.08s-.3-.13-.42-.22-.21-.22-.27-.37-.1-.32-.1-.52c0-.15.01-.29.04-.44s.07-.31.11-.5c.17-.67.38-1.4.63-2.17s.53-1.59.85-2.44.65-1.72,1.02-2.61.75-1.79,1.15-2.71h-4.81Z"/>
        <path class="cls-9" d="M82.09,127.08c0-1.38.16-2.59.48-3.64s.77-1.93,1.35-2.65,1.29-1.26,2.12-1.62,1.76-.55,2.78-.55c.31,0,.59.02.82.05s.44.07.62.12.32.11.43.17.2.13.26.19c.1.1.17.2.22.32s.07.26.07.43c0,.31-.09.55-.26.72s-.39.25-.65.25c-.1,0-.19,0-.29-.02s-.19-.02-.3-.04-.23-.03-.37-.04-.31-.02-.49-.02c-.52,0-1,.08-1.43.24s-.82.41-1.15.75-.61.78-.84,1.31-.39,1.17-.49,1.92c.21-.15.46-.28.75-.4.24-.1.54-.2.9-.29s.76-.13,1.22-.13c.67,0,1.27.1,1.81.3s.99.49,1.35.86.65.82.85,1.35.3,1.13.3,1.79c0,.75-.11,1.42-.34,2.02s-.56,1.12-.99,1.54-.96.75-1.57.99-1.31.35-2.09.35-1.52-.13-2.14-.38-1.16-.64-1.59-1.16-.76-1.17-.99-1.96-.34-1.7-.34-2.75ZM87.1,126.28c-.35,0-.66.04-.93.13s-.5.19-.71.29c-.23.12-.43.26-.61.41,0,.77.07,1.41.19,1.92s.29.93.5,1.25.46.54.76.68.62.2.98.2c.3,0,.58-.05.83-.16s.46-.27.64-.48.32-.48.42-.79.15-.68.15-1.08-.05-.73-.15-1.02-.25-.54-.44-.74-.42-.35-.7-.46-.59-.16-.94-.16Z"/>
        <path class="cls-9" d="M96.32,126.16c0-1.27.15-2.37.44-3.31s.71-1.73,1.23-2.36,1.16-1.1,1.88-1.41,1.52-.47,2.38-.47,1.61.14,2.31.43,1.29.73,1.79,1.32.88,1.34,1.16,2.24.41,1.96.41,3.19-.15,2.37-.44,3.32-.7,1.73-1.23,2.36-1.15,1.09-1.88,1.41-1.52.47-2.38.47-1.61-.14-2.31-.43-1.3-.73-1.79-1.32-.88-1.34-1.16-2.24-.41-1.96-.41-3.19ZM99.16,125.96c0,.95.08,1.76.24,2.42s.38,1.2.65,1.61.59.71.95.89.74.27,1.13.27.77-.09,1.13-.27.67-.47.94-.88.48-.94.64-1.6.24-1.46.24-2.41-.08-1.76-.24-2.42-.38-1.2-.65-1.61-.59-.71-.95-.89-.74-.27-1.14-.27-.77.09-1.13.27-.67.47-.93.88-.48.94-.64,1.6-.24,1.46-.24,2.41Z"/>
        <path class="cls-9" d="M70.42,152.57c0-1.38.16-2.59.48-3.64s.77-1.93,1.35-2.65,1.29-1.26,2.12-1.62,1.76-.55,2.78-.55c.31,0,.59.02.82.05s.44.07.62.12.32.11.43.17.2.13.26.19c.1.1.17.2.22.32s.07.26.07.43c0,.31-.09.55-.26.72s-.39.25-.65.25c-.1,0-.19,0-.29-.02s-.19-.02-.3-.04-.23-.03-.37-.04-.31-.02-.49-.02c-.52,0-1,.08-1.43.24s-.82.41-1.15.75-.61.78-.84,1.31-.39,1.17-.49,1.92c.21-.15.46-.28.75-.4.24-.1.54-.2.9-.29s.76-.13,1.22-.13c.67,0,1.27.1,1.81.3s.99.49,1.35.86.65.82.85,1.35.3,1.13.3,1.79c0,.75-.11,1.42-.34,2.02s-.56,1.12-.99,1.54-.96.75-1.57.99-1.31.35-2.09.35-1.52-.13-2.14-.38-1.16-.64-1.59-1.16-.76-1.17-.99-1.96-.34-1.7-.34-2.75ZM75.43,151.77c-.35,0-.66.04-.93.13s-.5.19-.71.29c-.23.12-.43.26-.61.41,0,.77.07,1.41.19,1.92s.29.93.5,1.25.46.54.76.68.62.2.98.2c.3,0,.58-.05.83-.16s.46-.27.64-.48.32-.48.42-.79.15-.68.15-1.08-.05-.73-.15-1.02-.25-.54-.44-.74-.42-.35-.7-.46-.59-.16-.94-.16Z"/>
        <path class="cls-9" d="M87.68,156.74c.39,0,.75-.05,1.05-.17s.57-.27.78-.47.38-.44.49-.71.17-.58.17-.91-.06-.66-.18-.93-.32-.51-.6-.7-.67-.34-1.15-.44-1.08-.16-1.81-.16c-.14,0-.25-.01-.34-.04s-.16-.07-.22-.12c-.1-.09-.17-.21-.21-.37s-.07-.32-.07-.49.02-.34.07-.5.12-.29.21-.38c.06-.05.13-.1.22-.12s.2-.04.34-.04c.59,0,1.1-.05,1.52-.16s.76-.26,1.02-.45.45-.42.57-.68.18-.56.18-.89c0-.55-.17-.98-.5-1.29s-.86-.46-1.58-.46c-.3,0-.57.02-.8.07s-.43.1-.61.16-.34.11-.49.16-.28.07-.41.07c-.26,0-.46-.08-.62-.23s-.24-.37-.24-.65c0-.16.03-.3.08-.43s.13-.24.23-.34c.11-.11.27-.22.48-.34s.47-.22.76-.31.63-.17,1.01-.22.78-.08,1.23-.08c.73,0,1.36.09,1.9.25s.99.41,1.35.72.63.68.8,1.1.26.91.26,1.43c0,.39-.06.75-.17,1.08s-.27.64-.47.92-.44.53-.71.74-.57.39-.9.54v.02c.42.1.8.25,1.14.45s.63.44.86.73.41.63.54,1.01.19.81.19,1.28c0,.63-.12,1.21-.35,1.75s-.58,1.01-1.04,1.41-1.02.71-1.68.93-1.42.34-2.27.34c-.44,0-.83-.03-1.18-.08s-.66-.12-.93-.2-.5-.17-.68-.27-.32-.2-.42-.3c-.12-.12-.22-.26-.29-.4s-.1-.31-.1-.5c0-.29.08-.52.25-.68s.38-.25.64-.25c.15,0,.29.03.44.09s.31.13.51.21.43.15.7.21.61.09,1.01.09Z"/>
        <path class="cls-9" d="M99.89,149.66c1.05.04,1.95.18,2.7.43s1.35.56,1.83.96.82.86,1.04,1.4c.22.54.33,1.12.33,1.75,0,.68-.12,1.31-.35,1.88s-.58,1.06-1.03,1.46-1.02.72-1.7.95-1.45.34-2.33.34c-.44,0-.83-.03-1.19-.08-.36-.05-.67-.12-.94-.2s-.5-.17-.68-.27-.32-.2-.42-.3c-.13-.12-.22-.26-.29-.4s-.1-.31-.1-.51c0-.29.08-.52.25-.68s.38-.25.64-.25c.15,0,.3.03.44.09s.31.13.51.2.43.14.71.2.62.09,1.03.09.77-.05,1.09-.17.59-.27.8-.47.38-.44.49-.72.17-.59.17-.94c0-.37-.08-.72-.24-1.04s-.42-.59-.78-.82-.81-.41-1.37-.54-1.24-.2-2.03-.2c-.35,0-.61-.09-.77-.26s-.23-.43-.22-.78l.27-5.34c.01-.37.12-.65.32-.84.2-.19.49-.28.87-.28h5.45c.3,0,.54.1.72.29s.27.48.27.86-.09.68-.27.87-.42.29-.72.29h-4.34l-.15,3.04Z"/>
      </g>
      <g>
        <path class="cls-9" d="M153.91,127.08c0-1.38.16-2.59.48-3.64s.77-1.93,1.35-2.65,1.29-1.26,2.12-1.62,1.76-.55,2.78-.55c.31,0,.59.02.82.05s.44.07.62.12.32.11.43.17.2.13.26.19c.1.1.17.2.22.32s.07.26.07.43c0,.31-.09.55-.26.72s-.39.25-.65.25c-.1,0-.19,0-.29-.02s-.19-.02-.3-.04-.23-.03-.37-.04-.31-.02-.49-.02c-.52,0-1,.08-1.43.24s-.82.41-1.15.75-.61.78-.84,1.31-.39,1.17-.49,1.92c.21-.15.46-.28.75-.4.24-.1.54-.2.9-.29s.76-.13,1.22-.13c.67,0,1.27.1,1.81.3s.99.49,1.35.86.65.82.85,1.35.3,1.13.3,1.79c0,.75-.11,1.42-.34,2.02s-.56,1.12-.99,1.54-.96.75-1.57.99-1.31.35-2.09.35-1.52-.13-2.14-.38-1.16-.64-1.59-1.16-.76-1.17-.99-1.96-.34-1.7-.34-2.75ZM158.92,126.28c-.35,0-.66.04-.93.13s-.5.19-.71.29c-.23.12-.43.26-.61.41,0,.77.07,1.41.19,1.92s.29.93.5,1.25.46.54.76.68.62.2.98.2c.3,0,.58-.05.83-.16s.46-.27.64-.48.32-.48.42-.79.15-.68.15-1.08-.05-.73-.15-1.02-.25-.54-.44-.74-.42-.35-.7-.46-.59-.16-.94-.16Z"/>
        <path class="cls-9" d="M168.14,127.08c0-1.38.16-2.59.48-3.64s.77-1.93,1.35-2.65,1.29-1.26,2.12-1.62,1.76-.55,2.78-.55c.31,0,.59.02.82.05s.44.07.62.12.32.11.43.17.2.13.26.19c.1.1.17.2.22.32s.07.26.07.43c0,.31-.09.55-.26.72s-.39.25-.65.25c-.1,0-.19,0-.29-.02s-.19-.02-.3-.04-.23-.03-.37-.04-.31-.02-.49-.02c-.52,0-1,.08-1.43.24s-.82.41-1.15.75-.61.78-.84,1.31-.39,1.17-.49,1.92c.21-.15.46-.28.75-.4.24-.1.54-.2.9-.29s.76-.13,1.22-.13c.67,0,1.27.1,1.81.3s.99.49,1.35.86.65.82.85,1.35.3,1.13.3,1.79c0,.75-.11,1.42-.34,2.02s-.56,1.12-.99,1.54-.96.75-1.57.99-1.31.35-2.09.35-1.52-.13-2.14-.38-1.16-.64-1.59-1.16-.76-1.17-.99-1.96-.34-1.7-.34-2.75ZM173.15,126.28c-.35,0-.66.04-.93.13s-.5.19-.71.29c-.23.12-.43.26-.61.41,0,.77.07,1.41.19,1.92s.29.93.5,1.25.46.54.76.68.62.2.98.2c.3,0,.58-.05.83-.16s.46-.27.64-.48.32-.48.42-.79.15-.68.15-1.08-.05-.73-.15-1.02-.25-.54-.44-.74-.42-.35-.7-.46-.59-.16-.94-.16Z"/>
        <path class="cls-9" d="M182.37,127.08c0-1.38.16-2.59.48-3.64s.77-1.93,1.35-2.65,1.29-1.26,2.12-1.62,1.76-.55,2.78-.55c.31,0,.59.02.82.05s.44.07.62.12.32.11.43.17.2.13.26.19c.1.1.17.2.22.32s.07.26.07.43c0,.31-.09.55-.26.72s-.39.25-.65.25c-.1,0-.19,0-.29-.02s-.19-.02-.3-.04-.23-.03-.37-.04-.31-.02-.49-.02c-.52,0-1,.08-1.43.24s-.82.41-1.15.75-.61.78-.84,1.31-.39,1.17-.49,1.92c.21-.15.46-.28.75-.4.24-.1.54-.2.9-.29s.76-.13,1.22-.13c.67,0,1.27.1,1.81.3s.99.49,1.35.86.65.82.85,1.35.3,1.13.3,1.79c0,.75-.11,1.42-.34,2.02s-.56,1.12-.99,1.54-.96.75-1.57.99-1.31.35-2.09.35-1.52-.13-2.14-.38-1.16-.64-1.59-1.16-.76-1.17-.99-1.96-.34-1.7-.34-2.75ZM187.39,126.28c-.35,0-.66.04-.93.13s-.5.19-.71.29c-.23.12-.43.26-.61.41,0,.77.07,1.41.19,1.92s.29.93.5,1.25.46.54.76.68.62.2.98.2c.3,0,.58-.05.83-.16s.46-.27.64-.48.32-.48.42-.79.15-.68.15-1.08-.05-.73-.15-1.02-.25-.54-.44-.74-.42-.35-.7-.46-.59-.16-.94-.16Z"/>
        <path class="cls-9" d="M154.98,148.01c-.14.06-.26.11-.36.16s-.19.08-.27.1-.15.05-.22.06-.14.02-.21.02c-.15,0-.28-.03-.4-.08s-.22-.13-.31-.22-.15-.2-.2-.32-.07-.25-.07-.39c0-.29.1-.54.31-.75.14-.14.39-.32.76-.56s.84-.51,1.42-.83c.32-.17.6-.32.84-.45s.45-.23.64-.3.36-.13.52-.17.32-.06.48-.06c.41,0,.74.12.97.35s.35.56.35.97v11.92c0,.4-.12.71-.35.92s-.59.32-1.06.32-.83-.11-1.06-.32-.34-.52-.34-.92v-10.09l-1.44.65Z"/>
        <path class="cls-9" d="M164.16,155.1c0-.44.07-.84.21-1.2s.33-.69.57-.99.53-.58.85-.83c.33-.25.68-.49,1.06-.72-.33-.19-.64-.41-.93-.65-.29-.24-.53-.5-.74-.78s-.37-.59-.49-.92c-.12-.33-.18-.69-.18-1.07,0-.54.1-1.04.31-1.51.2-.47.51-.87.91-1.21.4-.34.91-.61,1.5-.81s1.29-.3,2.07-.3c.72,0,1.35.09,1.9.27s1.01.43,1.38.74c.37.31.65.67.84,1.09.19.41.29.85.29,1.32,0,.42-.06.8-.19,1.14s-.29.64-.51.92c-.21.28-.47.53-.76.76-.29.23-.61.45-.95.65.37.21.73.44,1.06.7.34.26.63.54.88.85s.45.64.6,1,.22.75.22,1.17c0,.62-.11,1.18-.32,1.69-.21.51-.53.95-.95,1.31-.43.36-.96.64-1.6.84s-1.4.3-2.27.3c-.79,0-1.48-.09-2.07-.28s-1.09-.45-1.48-.78c-.39-.33-.69-.73-.89-1.18-.2-.46-.3-.95-.3-1.48ZM166.88,154.84c0,.29.05.56.15.79s.24.44.43.61c.19.17.42.3.7.39s.6.14.97.14.67-.04.94-.13.5-.22.68-.38c.18-.17.32-.37.41-.6s.14-.49.14-.77-.06-.56-.18-.79c-.12-.24-.29-.46-.5-.66s-.47-.39-.77-.57-.62-.34-.98-.51c-.3.18-.58.36-.82.54s-.45.37-.63.57-.31.41-.4.63c-.09.22-.14.47-.14.74ZM167.26,147.75c0,.27.05.51.14.72s.23.4.4.58.39.34.64.49c.25.15.53.3.85.46.26-.16.5-.32.71-.48.21-.16.39-.33.53-.51s.26-.36.34-.56.12-.42.12-.65-.04-.45-.12-.65-.21-.37-.37-.52c-.16-.15-.36-.26-.6-.34-.23-.08-.5-.12-.81-.12s-.55.04-.78.12c-.23.08-.42.19-.58.33-.16.14-.27.31-.35.5s-.12.41-.12.64Z"/>
        <path class="cls-9" d="M178.21,151.66c0-1.27.15-2.37.44-3.31s.71-1.73,1.23-2.36,1.16-1.1,1.88-1.41,1.52-.47,2.38-.47,1.61.14,2.31.43,1.29.73,1.79,1.32.88,1.34,1.16,2.24.41,1.96.41,3.19-.15,2.37-.44,3.32-.7,1.73-1.23,2.36-1.15,1.09-1.88,1.41-1.52.47-2.38.47-1.61-.14-2.31-.43-1.3-.73-1.79-1.32-.88-1.34-1.16-2.24-.41-1.96-.41-3.19ZM181.06,151.45c0,.95.08,1.76.24,2.42s.38,1.2.65,1.61.59.71.95.89.74.27,1.13.27.77-.09,1.13-.27.67-.47.94-.88.48-.94.64-1.6.24-1.46.24-2.41-.08-1.76-.24-2.42-.38-1.2-.65-1.61-.59-.71-.95-.89-.74-.27-1.14-.27-.77.09-1.13.27-.67.47-.93.88-.48.94-.64,1.6-.24,1.46-.24,2.41Z"/>
      </g>
      <g>
        <path class="cls-9" d="M245.41,136.3c.55,0,1.04-.08,1.47-.23.43-.15.8-.37,1.1-.65.3-.28.53-.61.68-.99.15-.38.23-.81.23-1.27s-.08-.92-.25-1.31c-.16-.39-.45-.71-.84-.98-.4-.27-.93-.47-1.6-.62-.67-.15-1.52-.22-2.53-.22-.19,0-.35-.02-.47-.06-.12-.04-.23-.1-.31-.17-.14-.13-.23-.3-.3-.52-.06-.22-.09-.45-.09-.69s.03-.47.09-.7c.06-.22.16-.4.3-.54.08-.08.18-.14.31-.17.13-.04.29-.06.48-.06.83,0,1.54-.07,2.13-.23.59-.15,1.06-.36,1.42-.62s.63-.59.79-.96c.16-.37.25-.79.25-1.24,0-.78-.23-1.37-.7-1.8s-1.2-.64-2.21-.64c-.43,0-.8.03-1.12.1s-.61.14-.86.22c-.25.08-.48.15-.68.22s-.4.1-.58.1c-.36,0-.65-.11-.87-.33-.22-.22-.33-.52-.33-.91,0-.22.04-.42.11-.6s.18-.33.33-.48c.15-.15.38-.31.68-.47.3-.16.65-.31,1.07-.44.42-.13.89-.23,1.41-.31s1.1-.12,1.73-.12c1.02,0,1.9.12,2.66.36s1.38.57,1.89,1c.5.43.88.95,1.13,1.55s.37,1.27.37,2c0,.54-.08,1.05-.23,1.51-.16.46-.37.89-.65,1.29-.28.39-.61.74-.99,1.04-.38.3-.8.55-1.26.76v.03c.59.15,1.12.35,1.6.62.47.27.88.61,1.21,1.02.33.41.58.88.76,1.42s.26,1.14.26,1.79c0,.88-.16,1.7-.49,2.45-.33.76-.81,1.41-1.45,1.97s-1.42.99-2.35,1.31c-.92.31-1.98.47-3.17.47-.61,0-1.16-.04-1.65-.11-.49-.07-.92-.16-1.3-.28s-.7-.24-.95-.38c-.26-.14-.45-.28-.59-.41-.17-.17-.31-.36-.4-.56-.09-.2-.14-.43-.14-.7,0-.41.12-.73.35-.96s.53-.35.9-.35c.2,0,.41.04.61.13s.44.18.71.29c.27.11.6.2.97.29s.85.13,1.41.13Z"/>
        <path class="cls-9" d="M258.76,130.46c0-1.93.22-3.63.67-5.1.45-1.47,1.08-2.71,1.9-3.71.82-1,1.81-1.76,2.97-2.27s2.46-.77,3.89-.77c.44,0,.82.02,1.15.07s.62.1.86.17c.24.07.44.15.6.24s.28.18.37.27c.14.14.24.29.31.45.07.16.1.36.1.6,0,.44-.12.77-.36,1-.24.23-.55.35-.92.35-.14,0-.27,0-.4-.02s-.27-.03-.42-.06c-.15-.02-.32-.04-.52-.06-.2-.01-.43-.02-.69-.02-.73,0-1.39.11-2,.33s-1.15.57-1.61,1.05-.85,1.08-1.17,1.83c-.31.75-.54,1.64-.69,2.69.3-.2.65-.39,1.05-.57.34-.15.76-.28,1.26-.4.5-.12,1.07-.18,1.71-.18.94,0,1.78.14,2.53.42.75.28,1.38.68,1.9,1.2.51.52.91,1.15,1.18,1.9s.41,1.58.41,2.51c0,1.05-.16,1.99-.48,2.83s-.78,1.56-1.39,2.16c-.61.6-1.34,1.06-2.2,1.38-.86.32-1.84.49-2.92.49s-2.12-.18-3-.54c-.88-.36-1.62-.9-2.22-1.63-.61-.73-1.07-1.64-1.39-2.74s-.48-2.38-.48-3.86ZM265.77,129.34c-.49,0-.93.06-1.31.19s-.71.26-.99.41c-.32.17-.61.37-.86.58,0,1.07.1,1.97.27,2.69.17.72.4,1.31.7,1.75.3.45.65.76,1.06.95.41.19.87.28,1.37.28.43,0,.81-.07,1.16-.23s.65-.38.9-.68c.25-.3.45-.67.59-1.11.14-.44.21-.95.21-1.52s-.07-1.02-.21-1.43c-.14-.41-.34-.76-.61-1.04-.27-.28-.59-.49-.97-.64-.38-.15-.82-.22-1.31-.22Z"/>
      </g>
      <rect class="cls-3" x="46.75" y="99.94" width="251.88" height="2.12"/>
    </g>
  </g>
  <g>
    <path class="cls-7" d="M367.88,154.22v79.77c0,2.21-1.79,4-4,4h-159.54c-.83,0-1.6-.25-2.23-.68-.22-.15-.42-.31-.6-.49-.36-.36-.65-.79-.85-1.27-.05-.11-.1-.23-.13-.35-.02-.04-.03-.09-.04-.13-.03-.09-.05-.19-.07-.3-.05-.25-.08-.51-.08-.78v-79.77c0-2.21,1.79-4,4-4h159.54c2.21,0,4,1.79,4,4Z"/>
    <g>
      <rect class="cls-8" x="204.34" y="154.22" width="159.54" height="79.77"/>
      <polygon class="cls-4" points="301.86 154.22 255.81 233.99 204.34 233.99 204.34 210.34 236.73 154.22 301.86 154.22"/>
      <polygon class="cls-5" points="363.88 154.22 363.88 190.15 338.57 233.99 286.42 233.99 332.47 154.22 363.88 154.22"/>
      <g class="cls-11">
        <path class="cls-5" d="M247.99,227.41c-.11,0-.26,0-.45-.05-1.54-.35-3.49-2.73-5.35-6.52-1.96-4.02-3.48-9-4.29-14.07-11.5-1.74-20.79-7.06-20.81-9.68,0-.17.02-.35.07-.54.91-3.15,9.85-7.85,20.58-9.55,1.74-11.51,7.06-20.8,9.68-20.81.09,0,.18,0,.27.02.1.01.17.03.25.05.4.12.79.34,1.18.65,2.96,2.33,6.87,10.39,8.38,19.94,11.5,1.74,20.79,7.05,20.82,9.68,0,.12,0,.28-.06.46-.7,3.08-9.8,7.92-20.59,9.63-1.74,11.51-7.06,20.8-9.69,20.82ZM247.42,167.45c-1.4,0-6.79,8.18-8.5,20.19-.04.28-.26.5-.54.54-11.84,1.78-19.42,6.69-20.01,8.71-.02.09-.03.16-.03.19.01,1.4,8.19,6.79,20.19,8.5.28.04.5.26.54.53.77,5.11,2.28,10.14,4.25,14.17,1.83,3.74,3.58,5.63,4.51,5.85l.14.65v-.64c1.4,0,6.78-8.15,8.49-20.13,0-.06.01-.12.04-.18.08-.22.27-.38.5-.42,11.58-1.73,19.54-6.65,20.02-8.75l.65-.15h-.64c-.01-1.4-8.17-6.78-20.16-8.49-.29-.02-.53-.24-.57-.54-1.55-10.4-5.61-17.72-7.99-19.6-.33-.26-.58-.37-.73-.42-.09-.01-.13-.02-.18-.02Z"/>
        <path class="cls-5" d="M247.7,204.86c-4.41,0-8.02-3.57-8.06-7.99-.02-2.15.8-4.19,2.31-5.72,1.51-1.54,3.53-2.39,5.68-2.41,2.18.03,4.19.8,5.72,2.31,1.54,1.51,2.39,3.53,2.41,5.68h0c.04,4.45-3.55,8.09-7.99,8.13h-.07ZM247.7,190.01h-.06c-1.81.02-3.51.74-4.78,2.03s-1.96,3.01-1.95,4.82c.03,3.72,3.07,6.73,6.79,6.73h.06c3.74-.03,6.76-3.11,6.73-6.85-.02-1.81-.74-3.51-2.03-4.78-1.28-1.26-2.97-1.95-4.76-1.95Z"/>
        <rect class="cls-5" x="252.03" y="188.79" width="5.77" height="1.27" transform="translate(-59.28 235.73) rotate(-45)"/>
        <rect class="cls-5" x="237.6" y="203.52" width="5.8" height="1.27" transform="translate(-73.91 229.86) rotate(-45)"/>
        <rect class="cls-5" x="239.7" y="186.7" width="1.27" height="5.77" transform="translate(-63.67 225.45) rotate(-45)"/>
        <rect class="cls-5" x="254.43" y="201.11" width="1.27" height="5.78" transform="translate(-69.54 240.14) rotate(-45)"/>
      </g>
      <g>
        <path class="cls-7" d="M253.4,180.57c.22,0,.4.07.53.21.13.14.2.35.2.63s-.06.49-.19.63c-.13.14-.31.21-.54.21h-4.46c-.3,0-.54-.08-.7-.25-.16-.17-.25-.4-.25-.7v-8.47c0-.29.08-.52.25-.68.17-.16.43-.24.78-.24s.62.08.79.24c.17.16.25.39.25.68v7.75h3.32Z"/>
        <path class="cls-7" d="M255.04,177.24c0-.85.12-1.61.37-2.29.24-.67.59-1.24,1.03-1.71s.98-.82,1.6-1.07c.62-.25,1.31-.37,2.07-.37s1.4.12,2,.35c.6.23,1.11.57,1.54,1.02.43.45.75.99.99,1.62.23.64.35,1.36.35,2.17,0,.85-.12,1.61-.37,2.28-.24.67-.59,1.24-1.03,1.71s-.97.82-1.59,1.07c-.62.25-1.31.37-2.06.37s-1.4-.12-2-.35c-.6-.23-1.11-.57-1.54-1.02-.43-.44-.75-.98-.99-1.62s-.35-1.36-.35-2.17ZM257.18,177.08c0,.6.07,1.12.22,1.58.15.46.35.84.61,1.15.26.31.56.54.9.7.35.16.72.24,1.11.24s.76-.08,1.1-.23.64-.38.9-.69.45-.68.6-1.13.22-.97.22-1.57-.07-1.12-.22-1.58-.35-.84-.61-1.15-.56-.54-.91-.69c-.35-.16-.72-.23-1.11-.23s-.76.08-1.1.23c-.34.15-.64.38-.89.69-.25.3-.45.68-.6,1.13-.15.45-.22.98-.22,1.57Z"/>
        <path class="cls-7" d="M266.61,173.63c-.22,0-.4-.07-.53-.21-.13-.14-.19-.35-.19-.63s.06-.49.19-.63c.13-.14.31-.21.53-.21h6.78c.22,0,.4.07.53.21.13.14.19.35.19.63s-.06.49-.19.63c-.13.14-.31.21-.53.21h-2.35v7.75c0,.29-.09.52-.25.68-.17.16-.43.24-.79.24s-.62-.08-.79-.24c-.17-.16-.25-.39-.25-.68v-7.75h-2.35Z"/>
        <path class="cls-7" d="M275.63,173.63c-.22,0-.4-.07-.53-.21-.13-.14-.19-.35-.19-.63s.06-.49.19-.63c.13-.14.31-.21.53-.21h6.78c.22,0,.4.07.53.21.13.14.19.35.19.63s-.06.49-.19.63c-.13.14-.31.21-.53.21h-2.35v7.75c0,.29-.09.52-.25.68-.17.16-.43.24-.79.24s-.62-.08-.79-.24c-.17-.16-.25-.39-.25-.68v-7.75h-2.35Z"/>
        <path class="cls-7" d="M284.05,177.24c0-.85.12-1.61.37-2.29.24-.67.59-1.24,1.03-1.71s.98-.82,1.6-1.07c.62-.25,1.31-.37,2.07-.37s1.4.12,2,.35c.6.23,1.11.57,1.54,1.02.43.45.75.99.99,1.62.23.64.35,1.36.35,2.17,0,.85-.12,1.61-.37,2.28-.24.67-.59,1.24-1.03,1.71s-.97.82-1.59,1.07c-.62.25-1.31.37-2.06.37s-1.4-.12-2-.35c-.6-.23-1.11-.57-1.54-1.02-.43-.44-.75-.98-.99-1.62s-.35-1.36-.35-2.17ZM286.18,177.08c0,.6.07,1.12.22,1.58.15.46.35.84.61,1.15.26.31.56.54.9.7.35.16.72.24,1.11.24s.76-.08,1.1-.23.64-.38.9-.69.45-.68.6-1.13.22-.97.22-1.57-.07-1.12-.22-1.58-.35-.84-.61-1.15-.56-.54-.91-.69c-.35-.16-.72-.23-1.11-.23s-.76.08-1.1.23c-.34.15-.64.38-.89.69-.25.3-.45.68-.6,1.13-.15.45-.22.98-.22,1.57Z"/>
        <path class="cls-7" d="M298.35,180.62h3.51c.21,0,.38.07.51.21s.19.34.19.61-.06.47-.19.6c-.13.13-.3.2-.51.2h-4.64c-.3,0-.54-.08-.7-.25-.16-.17-.25-.4-.25-.7v-8.39c0-.3.08-.53.25-.7.16-.17.4-.25.7-.25h4.61c.22,0,.39.07.52.2.13.13.19.34.19.6s-.06.47-.19.61c-.13.14-.3.21-.52.21h-3.47v2.62h2.96c.21,0,.38.07.5.2.13.13.19.33.19.6s-.06.46-.19.59c-.13.13-.29.2-.5.2h-2.96v2.84Z"/>
        <path class="cls-7" d="M306.8,181.37c0,.29-.08.52-.25.68-.17.16-.42.24-.77.24s-.61-.08-.78-.24c-.16-.16-.25-.39-.25-.68v-8.47c0-.3.08-.53.25-.7.16-.17.4-.25.7-.25h2.19c.7,0,1.31.07,1.82.22.51.14.93.35,1.26.61.33.26.57.57.73.93.16.36.24.75.24,1.17,0,.35-.05.68-.15.98-.1.3-.24.57-.42.81-.18.24-.4.45-.65.62s-.53.31-.84.42l1.93,2.96c.08.13.15.24.18.34s.06.19.06.3c0,.15-.03.28-.1.4-.07.12-.16.23-.27.32s-.23.16-.38.22c-.14.05-.28.08-.43.08s-.27-.02-.38-.07c-.11-.05-.2-.11-.28-.19-.03-.03-.06-.06-.09-.09s-.05-.06-.07-.1c-.02-.03-.05-.07-.07-.11-.03-.04-.05-.08-.08-.13l-2.07-3.5h-1.03v3.25ZM307.85,176.54c.33,0,.62-.04.87-.11.25-.07.46-.18.62-.31.16-.13.29-.3.37-.49.08-.19.12-.4.12-.62s-.04-.43-.11-.61c-.07-.18-.19-.34-.35-.46-.16-.13-.37-.23-.63-.3-.26-.07-.57-.1-.94-.1h-.99v3h1.05Z"/>
        <path class="cls-7" d="M313.4,173.74c-.05-.08-.09-.15-.13-.22-.04-.07-.07-.14-.1-.2-.03-.06-.05-.13-.06-.19s-.02-.12-.02-.19c0-.16.04-.3.11-.43.07-.13.16-.24.28-.33.11-.09.24-.16.38-.21.14-.05.27-.07.4-.07.14,0,.27.02.36.07.1.05.18.1.24.17.06.06.12.13.17.22.05.09.13.21.22.37l1.61,2.87c.05.1.1.2.15.29.04.09.09.18.13.25.05.09.08.17.12.25h.03c.03-.09.07-.17.11-.26.03-.08.07-.17.12-.27s.09-.2.15-.3l1.52-2.83c.09-.17.16-.29.21-.38s.1-.16.17-.22c.07-.07.16-.13.27-.18.1-.04.21-.06.32-.06.13,0,.27.03.4.07.13.05.25.12.35.21.1.09.19.19.25.31.06.12.1.25.1.38,0,.13-.03.25-.08.36-.05.11-.13.25-.22.41l-2.75,4.63v3.13c0,.29-.08.52-.25.68-.17.16-.43.24-.79.24s-.61-.08-.78-.24c-.17-.16-.25-.39-.25-.68v-3.13l-2.69-4.51Z"/>
      </g>
      <path class="cls-7" d="M220.07,209.74c0-1.93.22-3.63.67-5.1.45-1.47,1.08-2.71,1.9-3.71.82-1,1.81-1.76,2.97-2.27s2.46-.77,3.89-.77c.44,0,.82.02,1.15.07s.62.1.86.17c.24.07.44.15.6.24s.28.18.37.27c.14.14.24.29.31.45.07.16.1.36.1.6,0,.44-.12.77-.36,1-.24.23-.55.35-.92.35-.14,0-.27,0-.4-.02s-.27-.03-.42-.06c-.15-.02-.32-.04-.52-.06-.2-.01-.43-.02-.69-.02-.73,0-1.39.11-2,.33s-1.15.57-1.61,1.05-.85,1.08-1.17,1.83c-.31.75-.54,1.64-.69,2.69.3-.2.65-.39,1.05-.57.34-.15.76-.28,1.26-.4.5-.12,1.07-.18,1.71-.18.94,0,1.78.14,2.53.42.75.28,1.38.68,1.9,1.2.51.52.91,1.15,1.18,1.9s.41,1.58.41,2.51c0,1.05-.16,1.99-.48,2.83s-.78,1.56-1.39,2.16c-.61.6-1.34,1.06-2.2,1.38-.86.32-1.84.49-2.92.49s-2.12-.18-3-.54c-.88-.36-1.62-.9-2.22-1.63-.61-.73-1.07-1.64-1.39-2.74s-.48-2.38-.48-3.86ZM227.08,208.63c-.49,0-.93.06-1.31.19s-.71.26-.99.41c-.32.17-.61.37-.86.58,0,1.07.1,1.97.27,2.69.17.72.4,1.31.7,1.75.3.45.65.76,1.06.95.41.19.87.28,1.37.28.43,0,.81-.07,1.16-.23s.65-.38.9-.68c.25-.3.45-.67.59-1.11.14-.44.21-.95.21-1.52s-.07-1.02-.21-1.43c-.14-.41-.34-.76-.61-1.04-.27-.28-.59-.49-.97-.64-.38-.15-.82-.22-1.31-.22Z"/>
      <path class="cls-7" d="M242.97,209.74c0-1.93.22-3.63.67-5.1.45-1.47,1.08-2.71,1.9-3.71.82-1,1.81-1.76,2.97-2.27s2.46-.77,3.89-.77c.44,0,.82.02,1.15.07s.62.1.86.17c.24.07.44.15.6.24s.28.18.37.27c.14.14.24.29.31.45.07.16.1.36.1.6,0,.44-.12.77-.36,1-.24.23-.55.35-.92.35-.14,0-.27,0-.4-.02s-.27-.03-.42-.06c-.15-.02-.32-.04-.52-.06-.2-.01-.43-.02-.69-.02-.73,0-1.39.11-2,.33s-1.15.57-1.61,1.05-.85,1.08-1.17,1.83c-.31.75-.54,1.64-.69,2.69.3-.2.65-.39,1.05-.57.34-.15.76-.28,1.26-.4.5-.12,1.07-.18,1.71-.18.94,0,1.78.14,2.53.42.75.28,1.38.68,1.9,1.2.51.52.91,1.15,1.18,1.9s.41,1.58.41,2.51c0,1.05-.16,1.99-.48,2.83s-.78,1.56-1.39,2.16c-.61.6-1.34,1.06-2.2,1.38-.86.32-1.84.49-2.92.49s-2.12-.18-3-.54c-.88-.36-1.62-.9-2.22-1.63-.61-.73-1.07-1.64-1.39-2.74s-.48-2.38-.48-3.86ZM249.98,208.63c-.49,0-.93.06-1.31.19s-.71.26-.99.41c-.32.17-.61.37-.86.58,0,1.07.1,1.97.27,2.69.17.72.4,1.31.7,1.75.3.45.65.76,1.06.95.41.19.87.28,1.37.28.43,0,.81-.07,1.16-.23s.65-.38.9-.68c.25-.3.45-.67.59-1.11.14-.44.21-.95.21-1.52s-.07-1.02-.21-1.43c-.14-.41-.34-.76-.61-1.04-.27-.28-.59-.49-.97-.64-.38-.15-.82-.22-1.31-.22Z"/>
      <path class="cls-7" d="M265.62,204.75c0-1.05.16-1.99.48-2.83s.78-1.56,1.39-2.16c.6-.6,1.34-1.06,2.2-1.38.86-.32,1.83-.49,2.92-.49s2.11.18,2.99.54c.88.36,1.62.9,2.23,1.63.6.73,1.07,1.64,1.39,2.73s.48,2.38.48,3.85c0,1.93-.23,3.63-.68,5.11s-1.1,2.71-1.96,3.71-1.91,1.75-3.14,2.27c-1.24.51-2.65.77-4.23.77-.45,0-.84-.02-1.17-.06s-.62-.09-.86-.16c-.24-.07-.43-.15-.59-.23-.16-.09-.28-.18-.38-.28-.14-.14-.24-.28-.31-.44s-.11-.37-.11-.62c0-.44.12-.77.37-.99s.55-.34.92-.34c.13,0,.25,0,.38.02s.27.03.43.05c.15.02.33.04.52.05.19.01.42.02.68.02,1.03,0,1.9-.14,2.61-.42s1.3-.68,1.78-1.2c.47-.52.84-1.14,1.1-1.86s.45-1.52.58-2.4c-.3.21-.65.41-1.05.58-.34.15-.76.28-1.25.39s-1.06.17-1.7.17c-.95,0-1.8-.14-2.54-.41-.75-.28-1.38-.68-1.9-1.2-.52-.52-.92-1.16-1.19-1.9s-.41-1.58-.41-2.51ZM269.57,204.44c0,.54.07,1.02.21,1.43.14.41.34.76.61,1.04.27.28.59.49.97.64.38.15.82.22,1.31.22s.92-.06,1.3-.18c.38-.12.71-.25.99-.4.32-.17.6-.37.86-.6,0-1.1-.09-2.02-.27-2.75-.18-.73-.42-1.31-.73-1.74s-.67-.74-1.08-.92c-.42-.18-.86-.27-1.32-.27-.43,0-.81.08-1.16.23s-.65.38-.9.68c-.25.3-.45.66-.59,1.1-.14.44-.21.95-.21,1.52Z"/>
      <path class="cls-7" d="M288.78,209.74c0-1.93.22-3.63.67-5.1.45-1.47,1.08-2.71,1.9-3.71.82-1,1.81-1.76,2.97-2.27s2.46-.77,3.89-.77c.44,0,.82.02,1.15.07s.62.1.86.17c.24.07.44.15.6.24s.28.18.37.27c.14.14.24.29.31.45.07.16.1.36.1.6,0,.44-.12.77-.36,1-.24.23-.55.35-.92.35-.14,0-.27,0-.4-.02s-.27-.03-.42-.06c-.15-.02-.32-.04-.52-.06-.2-.01-.43-.02-.69-.02-.73,0-1.39.11-2,.33s-1.15.57-1.61,1.05-.85,1.08-1.17,1.83c-.31.75-.54,1.64-.69,2.69.3-.2.65-.39,1.05-.57.34-.15.76-.28,1.26-.4.5-.12,1.07-.18,1.71-.18.94,0,1.78.14,2.53.42.75.28,1.38.68,1.9,1.2.51.52.91,1.15,1.18,1.9s.41,1.58.41,2.51c0,1.05-.16,1.99-.48,2.83s-.78,1.56-1.39,2.16c-.61.6-1.34,1.06-2.2,1.38-.86.32-1.84.49-2.92.49s-2.12-.18-3-.54c-.88-.36-1.62-.9-2.22-1.63-.61-.73-1.07-1.64-1.39-2.74s-.48-2.38-.48-3.86ZM295.8,208.63c-.49,0-.93.06-1.31.19s-.71.26-.99.41c-.32.17-.61.37-.86.58,0,1.07.1,1.97.27,2.69.17.72.4,1.31.7,1.75.3.45.65.76,1.06.95.41.19.87.28,1.37.28.43,0,.81-.07,1.16-.23s.65-.38.9-.68c.25-.3.45-.67.59-1.11.14-.44.21-.95.21-1.52s-.07-1.02-.21-1.43c-.14-.41-.34-.76-.61-1.04-.27-.28-.59-.49-.97-.64-.38-.15-.82-.22-1.31-.22Z"/>
      <path class="cls-7" d="M311.42,213.28c0-.62.1-1.18.29-1.69.19-.5.46-.97.8-1.39.34-.42.74-.81,1.19-1.16.45-.35.95-.69,1.48-1.01-.46-.27-.9-.57-1.3-.91-.4-.33-.75-.7-1.04-1.1-.29-.4-.52-.82-.69-1.28-.17-.46-.25-.96-.25-1.5,0-.75.14-1.46.43-2.11.29-.65.71-1.22,1.28-1.7s1.27-.86,2.11-1.13c.84-.28,1.8-.41,2.9-.41,1.01,0,1.9.13,2.67.38.77.25,1.41.59,1.93,1.03.52.44.91.94,1.18,1.52.27.58.4,1.2.4,1.84,0,.59-.09,1.12-.26,1.59-.17.47-.41.9-.71,1.29-.3.39-.66.74-1.07,1.06-.41.32-.85.62-1.33.91.52.29,1.02.62,1.49.97.47.36.88.75,1.23,1.18.35.43.63.9.84,1.4.21.5.31,1.05.31,1.64,0,.86-.15,1.65-.44,2.36-.3.71-.74,1.32-1.34,1.83-.6.51-1.34.9-2.24,1.18s-1.96.41-3.18.41c-1.1,0-2.07-.13-2.9-.39-.83-.26-1.53-.62-2.08-1.09-.55-.46-.97-1.02-1.25-1.66-.28-.64-.42-1.33-.42-2.08ZM315.23,212.92c0,.41.07.78.2,1.11.14.34.33.62.6.86.26.24.59.42.98.55s.84.2,1.36.2.94-.06,1.32-.19c.38-.13.69-.31.95-.54.26-.23.45-.51.58-.84.13-.32.2-.68.2-1.08s-.09-.78-.25-1.11c-.17-.33-.4-.64-.7-.93-.3-.29-.66-.55-1.07-.79-.42-.24-.87-.48-1.37-.71-.43.25-.81.51-1.15.76-.34.26-.64.52-.88.8-.24.28-.43.57-.56.88s-.2.65-.2,1.03ZM315.76,202.99c0,.38.07.71.2,1.01.13.29.32.57.56.81.24.25.54.48.89.69.35.21.75.43,1.18.64.37-.22.7-.45.99-.67.3-.23.54-.46.75-.71s.36-.51.47-.79c.11-.28.17-.59.17-.91s-.06-.63-.17-.92c-.12-.28-.29-.52-.52-.73-.23-.2-.51-.36-.84-.47-.33-.11-.71-.17-1.13-.17s-.77.06-1.09.17-.59.26-.81.46c-.22.19-.38.43-.49.7-.11.27-.17.57-.17.89Z"/>
      <path class="cls-1" d="M334.07,209.74c0-1.93.22-3.63.67-5.1.45-1.47,1.08-2.71,1.9-3.71.82-1,1.81-1.76,2.97-2.27s2.46-.77,3.89-.77c.44,0,.82.02,1.15.07s.62.1.86.17c.24.07.44.15.6.24s.28.18.37.27c.14.14.24.29.31.45.07.16.1.36.1.6,0,.44-.12.77-.36,1-.24.23-.55.35-.92.35-.14,0-.27,0-.4-.02s-.27-.03-.42-.06c-.15-.02-.32-.04-.52-.06-.2-.01-.43-.02-.69-.02-.73,0-1.39.11-2,.33s-1.15.57-1.61,1.05-.85,1.08-1.17,1.83c-.31.75-.54,1.64-.69,2.69.3-.2.65-.39,1.05-.57.34-.15.76-.28,1.26-.4.5-.12,1.07-.18,1.71-.18.94,0,1.78.14,2.53.42.75.28,1.38.68,1.9,1.2.51.52.91,1.15,1.18,1.9s.41,1.58.41,2.51c0,1.05-.16,1.99-.48,2.83s-.78,1.56-1.39,2.16c-.61.6-1.34,1.06-2.2,1.38-.86.32-1.84.49-2.92.49s-2.12-.18-3-.54c-.88-.36-1.62-.9-2.22-1.63-.61-.73-1.07-1.64-1.39-2.74s-.48-2.38-.48-3.86ZM341.09,208.63c-.49,0-.93.06-1.31.19s-.71.26-.99.41c-.32.17-.61.37-.86.58,0,1.07.1,1.97.27,2.69.17.72.4,1.31.7,1.75.3.45.65.76,1.06.95.41.19.87.28,1.37.28.43,0,.81-.07,1.16-.23s.65-.38.9-.68c.25-.3.45-.67.59-1.11.14-.44.21-.95.21-1.52s-.07-1.02-.21-1.43c-.14-.41-.34-.76-.61-1.04-.27-.28-.59-.49-.97-.64-.38-.15-.82-.22-1.31-.22Z"/>
    </g>
  </g>
</svg>