<?xml version="1.0" encoding="UTF-8"?>
<svg id="Expanded" xmlns="http://www.w3.org/2000/svg" viewBox="0 0 400 250">
  <defs>
    <style>
      .cls-1 {
        fill: #12993f;
      }

      .cls-2 {
        fill: #4d4d4d;
      }

      .cls-3 {
        fill: #1cb829;
      }

      .cls-4 {
        fill: #fff;
      }

      .cls-5 {
        fill: #dfedf2;
      }

      .cls-6 {
        fill: #788696;
      }

      .cls-7 {
        fill: #333;
      }

      .cls-8 {
        fill: #34d434;
      }

      .cls-9 {
        fill: gray;
      }

      .cls-10 {
        fill: #a8b6c1;
      }

      .cls-11 {
        fill: #086d3b;
      }
    </style>
  </defs>
  <path class="cls-7" d="M310.26,34.9v180.2c0,12.71-10.35,23.06-23.07,23.06h-144.13c-12.72,0-23.06-10.35-23.06-23.06v-8.99c-5.43,3.18-11.26,4.87-17.29,4.87-.9,0-1.79-.04-2.67-.12-.98.08-1.97.12-2.96.12-29.36,0-53.25-32.66-53.25-72.8s23.89-72.8,53.25-72.8c.99,0,1.98.04,2.96.12.88-.08,1.77-.12,2.67-.12,6.03,0,11.86,1.68,17.29,4.87v-35.35c0-12.72,10.34-23.06,23.06-23.06h144.13c12.72,0,23.07,10.34,23.07,23.06Z"/>
  <g>
    <rect class="cls-5" x="124" y="15.84" width="182.26" height="218.32" rx="19.06" ry="19.06"/>
    <rect class="cls-4" x="124" y="15.84" width="182.26" height="210.3" rx="19.06" ry="19.06"/>
    <circle class="cls-5" cx="215.13" cy="138.18" r="68.8"/>
    <ellipse class="cls-4" cx="97.08" cy="138.18" rx="49.25" ry="68.8"/>
    <ellipse class="cls-10" cx="102.71" cy="138.18" rx="43.61" ry="68.8"/>
    <circle class="cls-9" cx="215.13" cy="138.18" r="53.52"/>
    <path class="cls-2" d="M258.13,138.18c0,.39-.01.78-.02,1.16-.39,14.95-8.41,27.98-20.31,35.38-3,1.87-6.26,3.38-9.69,4.46-4.1,1.3-8.46,2-12.98,2-1.54,0-3.06-.08-4.56-.24-4.27-.45-8.35-1.52-12.16-3.13-1.64-.69-3.22-1.48-4.74-2.37-1.68-.95-3.27-2.02-4.79-3.2-6.01-4.63-10.75-10.82-13.63-17.96-2.01-4.97-3.12-10.4-3.12-16.1,0-23.75,19.25-43,43-43s43,19.25,43,43Z"/>
    <path class="cls-1" d="M217.38,168.46l-18.56,5.46-5.15,1.52c-.19-.11-.37-.21-.56-.33-1.47-.86-2.88-1.82-4.23-2.87-.77-.59-1.52-1.21-2.24-1.86-3.44-3.03-6.38-6.61-8.7-10.6-.34-.58-.66-1.16-.97-1.76-.63-1.21-1.21-2.46-1.72-3.74l14.11-7.04c1.47-.74,3.22-.57,4.53.43l9.07,6.95,8.13,6.23,6.29,7.61Z"/>
    <path class="cls-11" d="M217.38,168.46l-18.56,5.46-5.71,1.19c-1.47-.86-2.88-1.82-4.23-2.87-.77-.59-1.52-1.21-2.24-1.86l20.9-5.17-4.58-10.59,8.13,6.23,6.29,7.61Z"/>
    <path class="cls-1" d="M209.25,172.93c-3.83-2.8-10.01.1-15.17,2.74,1.4.79,2.84,1.51,4.33,2.14,3.81,1.61,7.89,2.68,12.16,3.13,1.42.15,2.86.23,4.31.23-1.57-3.04-3.07-6.37-5.63-8.24Z"/>
    <path class="cls-3" d="M258.11,139.34c-.03,1.19-.11,2.37-.24,3.53-.08.76-.18,1.51-.31,2.26-1.94,12.01-8.86,22.33-18.57,28.82-.39.26-.79.52-1.19.77-1.46.91-2.97,1.73-4.54,2.46-1.66.77-3.38,1.44-5.15,2l-1.65-.61-5.25-1.93-2.62-.97-5.71-8.3-2.89-4.2c-1.38-2.01-.24-4.78,2.16-5.24l19.78-3.75,11.98-21.02c1.02-1.79,3.39-2.26,5.01-.99l9.19,7.17Z"/>
    <path class="cls-1" d="M257.87,142.87c-.08.76-.18,1.51-.31,2.26l-9.7-7.26-12.44,20.27-18.86,4.31,1.72,3.65-1.8.85-2.79-5.9,20.47-4.68,13.14-21.41,10.57,7.91Z"/>
    <path class="cls-1" d="M238.99,173.95c-.39.26-.79.52-1.19.77-1.46.91-2.97,1.73-4.54,2.46l-6.8,1.39-2.96.61-10.1-11.05-.52-.76,19.26-4.63,6.85,11.21Z"/>
    <rect class="cls-5" x="124" y="48.22" width="182.26" height="4"/>
    <rect class="cls-6" x="140.41" y="128.83" width="13.2" height="18.7" rx="2.53" ry="2.53"/>
    <g>
      <ellipse class="cls-5" cx="102.71" cy="138.18" rx="27.26" ry="43"/>
      <path class="cls-5" d="M102.71,181.18s26.13,1.22,38.51-24.3h-38.51v24.3Z"/>
      <path class="cls-5" d="M102.71,95.19s26.13-1.22,38.51,24.3h-38.51v-24.3Z"/>
      <path class="cls-4" d="M135.85,110.91c-12.22-11.13-27.11-11.03-28.59-10.99h-.13c-15.08,0-27.31,19.28-27.31,43.07,0,13.07,3.7,24.78,9.53,32.68-8.29-7.37-13.9-21.4-13.9-37.49,0-23.75,12.21-43,27.26-43h.13c1.66-.04,20.32-.17,33.01,15.73Z"/>
      <path class="cls-4" d="M145.7,138.18c0,15.63-8.03,28.29-17.93,28.29-.6,0-1.19-.05-1.77-.14-9.08-1.4-16.17-13.46-16.17-28.15,0-15.63,8.03-28.3,17.94-28.3,4.24,0,8.13,2.32,11.2,6.21,4.1,5.18,6.73,13.15,6.73,22.09Z"/>
      <path class="cls-5" d="M145.7,138.18c0,15.63-8.03,28.29-17.93,28.29-.6,0-1.19-.05-1.77-.14-6.77-3.66-11.64-13.78-11.64-25.7,0-15.01,7.72-27.17,17.23-27.17,2.64,0,5.14.94,7.38,2.63,4.1,5.18,6.73,13.15,6.73,22.09Z"/>
    </g>
    <path class="cls-4" d="M115.32,126.65c-.44,3.07.35,6.62,2.96,8.3,2.07,1.33,4.86,1.16,7.02-.02s3.73-3.23,4.8-5.43c1-2.04,1.64-4.31,1.51-6.58-.09-1.64-.6-3.29-1.55-4.64-.7-.99-1.56-1.69-2.75-1.99-1.28-.32-2.63-.34-3.92-.05-3.02.7-5.19,3.08-6.57,5.74-.76,1.46-1.28,3.05-1.51,4.67Z"/>
    <path class="cls-8" d="M243.18,191.16l-20.7,7.93c-2.13.82-4.52-.21-5.39-2.32l-6.52-15.83-1.59-3.86-10.57.73c-1.29-.54-2.54-1.15-3.76-1.81-.99-.53-1.95-1.1-2.89-1.72-.99-.64-1.95-1.32-2.88-2.04h0s36.99-6.19,36.99-6.19l2.17-.36,2.86-.48,6.9,9.51,7.28,10.05c1.62,2.24.68,5.4-1.9,6.39Z"/>
    <polygon class="cls-1" points="194.65 176 211.6 174.27 221.3 195.49 242.91 187.65 228.04 165.69 225.87 166.05 239.81 186.65 222.35 192.98 212.82 172.14 191.76 174.28 194.65 176"/>
    <path class="cls-1" d="M238.44,183.14c-1.56,1.08-2.41,3.11-2.09,4.98.02.11.04.22.11.31.18.24.54.18.82.1,1.23-.34,2.47-.69,3.7-1.03"/>
    <path class="cls-1" d="M219.82,189.1c2.55-.46,5.32.72,6.76,2.87-1.79.17-3.54.66-5.16,1.44"/>
    <rect class="cls-9" x="251.39" y="26.18" width="31.88" height="12.18" rx="2.89" ry="2.89"/>
    <circle class="cls-5" cx="236.82" cy="32.27" r="5.85"/>
    <circle class="cls-5" cx="219.14" cy="32.27" r="5.85"/>
    <rect class="cls-5" x="192.86" y="15.84" width="2" height="32.38"/>
    <path class="cls-11" d="M208.04,162.12c-.18.31-.51.48-.85.48-.18,0-.36-.04-.52-.14l-15.88-9.64-12.85,6.96c-.34-.58-.66-1.16-.97-1.76l13.38-7.23c.31-.17.69-.16.99.02l16.37,9.94c.47.29.62.9.33,1.37Z"/>
    <path class="cls-11" d="M186.08,154.04c2.69,1.64,6.14,1.97,9.1.87-1.31-1.15-2.73-2.17-4.23-3.06"/>
    <path class="cls-1" d="M217.48,166.77c1.19-.35,2.23-1.2,2.79-2.31s.65-2.45.23-3.62c-.03-.08-.07-.17-.14-.22-.08-.05-.19-.03-.28,0-1.7.41-3.41.81-5.11,1.22"/>
    <path class="cls-1" d="M244.71,141.86c2.62.98,5.78.28,7.73-1.71-1.66-1.03-3.32-2.05-4.99-3.08"/>
  </g>
</svg>