<?xml version="1.0" encoding="UTF-8"?>
<svg id="Expanded" xmlns="http://www.w3.org/2000/svg" viewBox="0 0 400 250">
  <defs>
    <style>
      .cls-1 {
        fill: #4d4d4d;
      }

      .cls-2 {
        fill: #ea9939;
      }

      .cls-3 {
        fill: #d87625;
      }

      .cls-4 {
        fill: #aa5217;
      }

      .cls-5 {
        fill: #6d3108;
      }

      .cls-6 {
        fill: #666;
      }

      .cls-7 {
        fill: #6d3108;
      }

      .cls-8 {
        fill: gray;
        opacity: .75;
      }

      .cls-9 {
        opacity: .5;
      }
    </style>
  </defs>
  <g>
    <path class="cls-5" d="M328.26,156.1v.05c-.01.52-.03,1.03-.05,1.53s-.05.99-.09,1.48v.09c-.03.41-.07.81-.11,1.21-.06.65-.13,1.28-.22,1.91-.12.89-.27,1.76-.44,2.61,0,.04,0,.07-.02.11,0,.04-.01.07-.02.11-.03.13-.05.25-.09.37-.08.43-.18.85-.29,1.27-.11.47-.24.94-.38,1.39-.03.14-.07.27-.12.39-.09.31-.19.61-.29.91-.24.75-.51,1.48-.82,2.18-.15.38-.31.76-.48,1.12-.04.1-.08.19-.13.27-.16.35-.33.7-.51,1.05-.07.13-.13.25-.2.37-.16.3-.32.59-.5.88-.3.54-.63,1.07-.97,1.58-4.33,6.5-10.47,10.57-17.3,11.47-.09,0-.17.03-.26.03-.1.02-.22.03-.34.04-1.06.11-2.11.16-3.16.16-2.99,0-5.92-.39-8.71-.89,3.73,6.61,3.45,15.1-.99,21.73h-.01c-4.64,6.91-13.4,11.5-22.84,11.97-.79.04-1.52.06-2.22.06-1.8,0-3.35-.13-4.74-.4-.09-.02-.19-.04-.28-.05-.07-.02-.13-.03-.2-.04-.16-.03-.32-.06-.48-.08-.19-.03-.38-.07-.58-.1-.05-.01-.11-.02-.17-.03-.24-.04-.47-.09-.71-.14-.34-.07-.69-.15-1.05-.25-.99-.23-1.99-.51-2.98-.83-.31-.1-.59-.19-.88-.3-3.94-1.36-7.84-3.38-11.52-5.98-.53-.38-1.01-.74-1.49-1.11-2.19-1.7-4.16-3.57-6.05-5.45.12,1.19.2,2.34.23,3.46,0,.1.01.19.01.29.15,7.17-1.69,13.22-5.47,17.96-2.8,3.51-6.81,6.49-11.44,8.67-4.63,2.17-9.88,3.55-15.15,3.83-.75.04-1.51.06-2.25.06-14.75,0-27.61-7.86-31.06-19.26-.02-.08-.04-.16-.06-.25-.89-3.06-1.09-6.28-.6-9.58,0-.05.02-.1.03-.15-2.81,2.03-5.98,4.21-9.4,6.08-1.53.84-3.04,1.59-4.54,2.23-.44.19-.87.37-1.3.53-.56.23-1.12.43-1.67.62-.43.15-.85.29-1.28.42-.98.31-1.95.57-2.92.78-.85.2-1.69.35-2.54.48-1.54.23-3.1.34-4.66.34-13.1,0-26.1-7.9-30.36-19.07-.17-.46-.26-.94-.26-1.43,0-1.64-.16-3.17-.32-4.78-.13-1.27-.27-2.57-.31-3.9-1.17.25-2.36.47-3.55.66-2.7.43-5.2.64-7.54.64-.49,0-.97-.01-1.45-.03-.2-.01-.4-.02-.59-.03-.41-.02-.81-.05-1.2-.09-.09,0-.18,0-.26-.03-.34-.03-.67-.07-1-.12-.23-.02-.45-.05-.67-.09-.04-.01-.09-.01-.13-.02-.31-.05-.62-.11-.93-.17-.03-.01-.05-.01-.08-.02-.18-.03-.36-.07-.53-.11-.1-.02-.2-.04-.3-.07-.13-.03-.26-.06-.39-.1-.18-.04-.35-.09-.51-.13-.1-.03-.2-.05-.29-.08-.3-.08-.59-.17-.88-.27-.18-.06-.36-.12-.54-.18-.45-.15-.89-.32-1.32-.5-.31-.12-.62-.26-.93-.4-.09-.04-.17-.08-.26-.12-1.86-.88-3.59-2-5.16-3.32-.26-.22-.52-.44-.77-.67-2-1.82-3.72-3.98-5.11-6.39-.33-.57-.64-1.15-.94-1.75-2.12-4.31-3.26-9.29-3.18-14.54,0-.83.04-1.69.12-2.59.51-5.16,2.03-10.38,4.52-15.51,2.75-5.67,8.75-9.66,17.36-11.53,1.37-.29,2.77-.54,4.18-.72.96-.13,1.84-.21,2.7-.26,3.38-.25,6.71-.12,10,.2-.94-3.01-.92-6.43.14-9.78.03-.08.06-.16.09-.24.13-.4.27-.78.42-1.17.01-.02.04-.08.05-.1,3.11-7.44,12.84-18.43,23.88-18.43h.03c5.4.01,9.89,2.84,13.16,4.91l2.55,1.61c.14-.84.37-1.7.71-2.55,1.17-2.93,3.33-5.45,6.41-7.53,2.44-1.65,5.53-3.03,8.94-4,6.15-1.74,12.72-2.05,18.99-.9,5.42.99,9.51,3.01,12.14,6.01,1.9,2.17,2.89,4.69,3.51,7.03.47-1.67,1.08-3.41,1.97-5.01,2.68-4.9,7.76-8.46,14.28-10.04,8.24-1.98,17.6-.53,23.86,3.7,1.12.75,2.18,1.62,3.17,2.58.21.2.41.4.61.6s.39.4.58.61c1.34,1.46,2.48,3.06,3.41,4.76.26.48.51.98.73,1.48.46,1,.84,2.03,1.14,3.08,4.72-2.35,9.46-4.61,14.15-6.86,7.91-3.78,16.42-6.04,25.09,2.89,3.08,3.18,5.41,6.99,6.76,11.02h.01c.58,1.73.98,3.47,1.2,5.21.23,1.82.26,3.63.09,5.44h0c-.18,1.88-.59,3.56-1.23,5.04,5.78-.6,12.29-1.25,17.58.21.91.25,1.76.55,2.54.91,7.04,3.22,10.84,10.27,10.68,19.84Z"/>
    <g>
      <path class="cls-3" d="M247.12,121.74c-1.04,1.76-2.81,3.06-4.53,4.32-7.18,5.25-15.32,10.16-21.88,15.99-3.64,3.23-7.26,10.85-13.35,10.85-4.53.02-7.44-3.97-8.44-7.61-.18-.65-.3-1.28-.36-1.88-.32-3.38.57-6.74,1.46-10.05,1.18-4.41,2.38-8.83,3.56-13.24.5-1.88.87-3.97,1.33-6.06.51-2.31,1.14-4.59,2.19-6.51,5.54-10.08,23.05-11.28,32.4-4.95.96.65,1.85,1.38,2.66,2.16,2.76,2.63,4.69,5.93,5.57,9.43.63,2.51.73,5.26-.62,7.54Z"/>
      <path class="cls-4" d="M247.12,121.74c-1.04,1.76-2.81,3.06-4.53,4.32-7.18,5.25-15.32,10.16-21.88,15.99-3.64,3.23-7.26,10.85-13.35,10.85-4.53.02-7.44-3.97-8.44-7.61.36-.26.75-.48,1.17-.66,2.18-.93,3.81-.07,5.98-.5,1.9-.37,3.65-1.4,4.68-2.86,1.71-2.4,1.57-5.68,3.78-7.74,1.38-1.28,3.43-1.84,4.88-3.06,2.31-1.94,2.72-5.2,5.14-7.03,1.83-1.38,4.39-1.63,6.65-2.37,5.17-1.7,7.04-5.67,9.52-9.59,1.29-2.03,2.07-4.53,1.44-6.73,2.76,2.63,4.69,5.93,5.57,9.43.63,2.51.73,5.26-.62,7.54Z"/>
      <path class="cls-3" d="M200.89,151.75c-7.86,4.59-17.5-3.21-22.89-7.42-7.24-5.66-13.55-12.23-18.79-19.39-2.95-4.02-5.65-8.91-3.85-13.43.94-2.33,2.74-4.21,4.93-5.68,2.34-1.59,5.13-2.72,7.79-3.47,5.52-1.56,11.5-1.86,17.18-.82,3.74.68,7.52,2.05,9.86,4.71,2.16,2.47,2.79,5.68,3.35,8.76,1.66,9.12,3.33,18.24,4.99,27.37.04.21.07.44.1.67.36,2.78.03,7.13-2.68,8.71Z"/>
      <path class="cls-4" d="M200.89,151.75c-7.86,4.59-17.5-3.21-22.89-7.42-7.24-5.66-13.55-12.23-18.79-19.39-2.95-4.02-5.65-8.91-3.85-13.43.94-2.33,2.74-4.21,4.93-5.68.53,1.9,1.68,3.67,3.31,5,.97.79,2.15,1.5,2.57,2.6.49,1.27-.18,2.77.52,3.95.74,1.26,2.47,1.47,3.83,1.94.76.27,1.35.45,1.74,1.06.38.6,0,1.23.76,1.84.56.45,1.26.73,1.88,1.11,1.8,1.12,2.74,3.03,3.36,4.89.62,1.87,1.03,3.83,2.15,5.5,1.23,1.85,2.89,2.42,5.1,2.92,1.53.35,4.13.42,5.14,1.64,1.12,1.34,0,3.33.72,4.86.47,1,1.65,1.64,2.85,1.84s2.45.06,3.66-.1c2.03-.25,4.26-.62,5.67-1.84.36,2.78.03,7.13-2.68,8.71Z"/>
      <path class="cls-3" d="M192.28,150.22c-.67,2.06-2.44,3.54-4.65,4.57-2.72,1.27-6.05,1.87-8.69,2.01-6.89.36-14.61-2.53-21.02-4.41-10.54-3.1-21.09-6.2-31.62-9.3-3.45-1.01-7.07-2.12-9.49-4.52-3.02-3-3.47-7.46-2.23-11.36,0-.02,0-.03.02-.05.12-.39.27-.76.41-1.13,2.77-6.63,11.36-15.99,20.21-15.97,4.09,0,7.71,2.19,11.03,4.29,12.55,7.91,25.1,15.82,37.65,23.72,2.34,1.47,4.72,2.98,6.44,5.01,1.73,2.02,2.73,4.69,1.95,7.13Z"/>
      <path class="cls-4" d="M187.64,154.79c-2.72,1.27-6.05,1.87-8.69,2.01-6.89.36-14.61-2.53-21.02-4.41-10.54-3.1-21.09-6.2-31.62-9.3-3.45-1.01-7.07-2.12-9.49-4.52-3.02-3-3.47-7.46-2.23-11.36,0-.02,0-.03.02-.05,2.02,1.56,4.79,2.39,7.47,2.91,3.41.66,6.98,1.02,9.98,2.57,2.47,1.28,4.34,3.27,6.54,4.89,2.19,1.62,5.01,2.93,7.82,2.44,1.46-.26,2.97-.99,4.36-.52,1.45.49,2,2.02,3.11,2.99,3.47,3,10.23-.71,13.93,2.07,1.29.98,1.88,2.57,3.3,3.42,1.89,1.13,4.44.49,6.7.79,4,.52,6.63,3.87,9.84,6.07Z"/>
      <path class="cls-3" d="M180.9,170.68c-2.51,1.59-5.45,2.37-8.34,3.12l-56.26,14.74c-3.32.87-6.77,1.74-10.23,2.28-3.91.62-7.82.85-11.57.23-2.02-.34-3.99-.91-5.89-1.81-8.52-4.01-13.01-13.69-12.88-23,0-.76.04-1.51.11-2.26.48-4.91,1.97-9.71,4.13-14.15,2.63-5.42,8.73-8.09,14.61-9.37,1.31-.28,2.61-.5,3.85-.66.81-.11,1.61-.19,2.41-.23,8.33-.61,16.4,1.19,24.65,2.38,13.65,1.96,27.32,3.8,40.97,5.71,4.58.64,9.32,1.34,13.18,3.82,2.95,1.89,4.92,5.03,5.58,8.31.82,4.07-.4,8.39-4.33,10.89Z"/>
      <path class="cls-4" d="M180.9,170.68c-2.51,1.59-5.45,2.37-8.34,3.12l-56.26,14.74c-3.32.87-6.77,1.74-10.23,2.28-6.02.96-12.05.97-17.46-1.58-8.52-4.01-13.01-13.69-12.88-23,3.6-.97,7.53-1.21,11.32-1.41,8.61-.44,17.22-.88,25.83-1.33,7.94-.41,15.82-.84,23.57,1.25,1.92.52,3.97,1.16,5.9.66,1.42-.37,2.57-1.3,3.95-1.75,1.9-.61,4.01-.24,6.02-.42,4.84-.43,8.86-3.98,13.72-4.07,2.45-.04,4.78.8,7.14,1.36,1.81.43,3.87.72,5.7.21.97-.27,1.56-.65,2.57-.78,1.23-.16,2.53-.13,3.77-.19.82,4.07-.4,8.39-4.33,10.89Z"/>
      <path class="cls-3" d="M294.7,129.73c-.27,2.77-1.23,5.73-3.79,7.35-2.81,1.77-6.96,2.2-10.06,3.54-4.17,1.79-8.75,3.03-13.16,4.35-9.87,2.97-19.85,5.67-29.9,8.1-6.75,1.64-21.93,6.78-26.07-1.21-3.03-5.84,1.63-11.12,6.37-14.8,14.66-11.39,32-19.7,49.18-27.92,8.21-3.92,14.16-4.46,20.49,2.07,2.67,2.76,4.68,6.03,5.85,9.51.98,2.91,1.39,5.97,1.1,9Z"/>
      <path class="cls-4" d="M294.7,129.73c-.27,2.77-1.23,5.73-3.79,7.35-2.81,1.77-6.96,2.2-10.06,3.54-4.17,1.79-8.75,3.03-13.16,4.35-9.87,2.97-19.85,5.67-29.9,8.1-6.75,1.64-21.93,6.78-26.07-1.21,2.15.79,4.71.36,6.88-.48,2.36-.9,4.49-2.24,6.89-3.02,1.74-.57,3.59-.83,5.31-1.42,2.41-.85,4.47-2.36,6.91-3.12,2.85-.88,5.96-.68,8.98-.86,3.01-.19,6.27-.91,8.06-3.06,1.55-1.87,2.19-4.86,4.79-5.21.86-.11,1.76.12,2.61-.06,1.89-.41,2.45-2.57,3.95-3.67,1.45-1.06,3.58-.99,5.39-.53,1.81.45,3.52,1.25,5.39,1.47,1.86.22,4.05-.34,4.83-1.85.42-.83.37-1.8.8-2.62.5-.93,1.55-1.52,2.54-2.06,2.86-1.54,5.71-3.08,8.56-4.63.98,2.91,1.39,5.97,1.1,9Z"/>
      <path class="cls-3" d="M324.26,156.04c-.05,2.78-.3,5.59-.87,8.35-.75,3.64-2.06,7.18-4.19,10.37-3.19,4.78-8.1,8.89-14.5,9.73-.16.02-.31.04-.48.06-4.88.5-9.8-.46-14.59-1.42-10.38-2.08-20.76-4.16-31.15-6.23-5.19-1.04-10.38-2.08-15.57-3.12-4.34-.87-8.56-2.27-12.91-2.91-4.78-.72-7.99-1.66-11.59-4.92-2.56-2.32-4.39-5.44-4.14-8.66.04-.44.1-.87.21-1.29.82-3.26,3.7-6.01,7.07-7.66,3.79-1.85,8.17-2.52,12.45-3.12,19.22-2.69,38.59-4.55,58.02-5.58,6.18-.32,15.58-2.2,21.95-.44.68.19,1.32.41,1.92.69,6.74,3.08,8.46,10.04,8.36,16.14Z"/>
      <path class="cls-4" d="M323.39,164.39c-.75,3.64-2.06,7.18-4.19,10.37-3.19,4.78-8.1,8.89-14.5,9.73-.16.02-.31.04-.48.06-4.88.5-9.8-.46-14.59-1.42-10.38-2.08-20.76-4.16-31.15-6.23-5.19-1.04-10.38-2.08-15.57-3.12-4.34-.87-8.56-2.27-12.91-2.91-4.78-.72-7.99-1.66-11.59-4.92-2.56-2.32-4.39-5.44-4.14-8.66.04-.44.1-.87.21-1.29,4.66.79,9.33,1.58,13.98,2.38,6.22,1.05,12.58,2.12,18.85,1.35,2.72-.33,5.42-1,8.14-.79,4.42.34,8.13,2.89,11.84,5.02,3.72,2.13,8.26,3.97,12.46,2.73,3.69-1.1,6.41-4.44,10.3-4.66,3.63-.21,6.73,2.4,10.33,2.83,5.81.7,11.17-4.32,16.92-3.29,2.27.4,4.13,1.69,6.08,2.82Z"/>
      <path class="cls-3" d="M201.11,179.87c-1.85,3.13-4.74,5.67-7.61,8.13-7.83,6.69-15.94,13.14-24.3,19.31-3.41,2.51-6.94,5.02-10.71,7.08-3.33,1.83-6.84,3.32-10.6,4.17-.76.18-1.53.32-2.31.44-12.79,1.91-26.56-5.35-30.69-16.2,0-6.28-2.01-10.82,1.03-17.14,2.22-4.62,6.4-9.63,11.71-11.79.03,0,.05-.02.07-.02,6.77-2.71,16-3.1,23.25-4.44,8.89-1.65,17.77-3.3,26.66-4.95,4.45-.83,9.01-1.66,13.52-1.13,4.52.53,9.04,2.69,10.91,6.35.04.07.07.14.1.21,1.51,3.18.79,6.93-1.03,9.99Z"/>
      <path class="cls-4" d="M202.13,169.88c1.51,3.18.79,6.93-1.03,9.99-1.85,3.13-4.74,5.67-7.61,8.13-7.83,6.69-15.94,13.14-24.3,19.31-3.41,2.51-6.94,5.02-10.71,7.08-3.33,1.83-6.84,3.32-10.6,4.17-.28-.95-.37-1.93-.23-2.95l8.34-14.31c1.58-1.24,3.15-2.48,4.73-3.73,1.36-1.07,3.46-2.22,4.47-3.55.86-1.15,1.11-2.3,2.33-3.32s2.73-1.78,4.25-2.41c2.89-1.19,6.08-2.13,8.19-4.24,1.08-1.08,1.82-2.41,3.03-3.37,2.02-1.62,4.94-1.92,7.62-2.37,5.24-.86,8.86-4.51,11.53-8.43Z"/>
      <path class="cls-2" d="M159.52,212.99c-.32.49-.66.96-1.04,1.41-4,2.2-8.27,3.91-12.92,4.61-12.79,1.91-26.56-5.35-30.69-16.2,0-6.28-2.01-10.82,1.03-17.14,2.22-4.62,6.4-9.63,11.71-11.79.03,0,.05-.02.07-.02.75-.08,1.51-.12,2.26-.13,5.69-.05,11.2,1.94,15.98,4.66,6.43,3.66,11.91,8.81,14.72,15.09,2.81,6.27,2.71,13.68-1.13,19.52Z"/>
      <path class="cls-3" d="M288.44,207.29c-4.05,6.02-11.81,9.81-19.73,10.21-.86.04-1.72.05-2.58.02-3.2-.11-6.37-.7-9.39-1.68-.25-.08-.49-.16-.73-.25-3.83-1.32-7.4-3.23-10.6-5.5-.45-.32-.89-.65-1.32-.99-3.03-2.36-5.65-5.08-8.34-7.79-6.59-6.6-12.92-13.4-18.97-20.38-1.62-1.87-3.23-3.77-4.31-5.92-1.07-2.15-1.58-4.61-.89-6.88.28-.91.73-1.75,1.34-2.5,1.8-2.24,4.83-3.74,7.95-4.1,4.58-.53,7.7,1.39,11.82,2.5,4.06,1.09,7.96,2.66,11.9,4.1,8.67,3.19,17.36,6.37,26.03,9.56,5.03,1.85,10.27,3.83,14.25,7.03,1.05.82,2,1.74,2.85,2.76,4.68,5.65,4.76,13.79.73,19.82Z"/>
      <path class="cls-4" d="M266.14,217.51c-3.2-.11-6.37-.7-9.39-1.68-.25-.08-.49-.16-.73-.25-3.83-1.32-7.4-3.23-10.6-5.5-.45-.32-.89-.65-1.32-.99-3.03-2.36-5.65-5.08-8.34-7.79-6.59-6.6-12.92-13.4-18.97-20.38-1.62-1.87-3.23-3.77-4.31-5.92-1.07-2.15-1.58-4.61-.89-6.88.28-.91.73-1.75,1.34-2.5,1.54,1.57,3.09,3.13,4.64,4.71.82.83,1.66,1.67,2.74,2.2,1.17.57,2.52.74,3.75,1.2,3.4,1.26,5.26,4.44,6.75,7.41,1.48,2.98,3.05,6.2,6.23,7.84,1.43.74,3.08,1.08,4.69,1.42,1.81.37,3.62.75,5.43,1.13,1.11.23,2.25.48,3.18,1.07,1.45.93,2.09,2.53,2.97,3.92,1.81,2.81,4.96,4.93,8.51,5.73,1.23.27,2.6.45,3.43,1.28,1.5,1.48.28,3.75-.37,5.65-.94,2.73-.5,5.8,1.19,8.23.02.03.04.06.06.09Z"/>
      <path class="cls-3" d="M227.21,226c-5.18,6.49-14.85,10.52-23.68,11-13.13.71-26.05-5.74-29.27-16.36v-.02c-.74-2.47-.96-5.17-.53-8.05.83-5.57,3.56-10.75,6.26-15.82,4.62-8.69,14.63-34.1,28.87-32.47,13.81,1.59,19.7,27.91,21.81,37.49.62,2.84,1.06,5.84,1.13,8.85.11,5.45-1.03,10.9-4.6,15.39Z"/>
      <path class="cls-2" d="M227.21,226c-5.18,6.49-14.85,10.52-23.68,11-13.13.71-26.05-5.74-29.27-16.36v-.02c-.22-6.31,3.11-12.7,8.54-16.9,6.64-5.12,15.95-7.13,24.71-6.23,7.56.79,14.89,3.67,20.21,8.47,1.55,1.4,2.93,2.97,4.08,4.65.11,5.45-1.03,10.9-4.6,15.39Z"/>
      <path class="cls-2" d="M288.44,207.29c-4.05,6.02-11.81,9.81-19.73,10.21-1.95.1-4.08.1-6-.28-1.61-.31-3.42-.46-4.85-1.27-1.92-1.08-2.99-3.28-3.84-5.05-.92-1.9-.91-4.48-.82-6.51.19-4.35,1.81-8.67,4.86-12.11,4.87-5.5,12.88-8.63,20.78-8.39,2.04.06,4.07.34,6.03.82,1.05.82,2,1.74,2.85,2.76,4.68,5.65,4.76,13.79.73,19.82Z"/>
      <path class="cls-2" d="M324.26,156.04c-.12,6.43-1.31,13.1-5.06,18.72-3.19,4.78-8.1,8.89-14.5,9.73-1.75-1.79-2.35-4.3-2.78-6.67-1.35-7.51-1.87-15.3.29-22.66,1.85-6.26,5.86-12.21,11.76-15.95.68.19,1.32.41,1.92.69,6.74,3.08,8.46,10.04,8.36,16.14Z"/>
      <path class="cls-2" d="M105.5,158.12c-.05,9.07-2.05,18.12-5.87,26.53-1.11,2.44-2.74,5.06-5.12,6.42-2.02-.34-3.99-.91-5.89-1.81-8.52-4.01-13.01-13.69-12.88-23,0-.76.04-1.51.11-2.26.48-4.91,1.97-9.71,4.13-14.15,2.63-5.42,8.73-8.09,14.61-9.37,3.14,1.74,6.23,3.67,8.19,6.43,2.33,3.29,2.74,7.35,2.72,11.22Z"/>
      <path class="cls-3" d="M269.09,214.14c-2.41,0-4.81-.51-6.88-1.81-4.5-2.8-6.03-8.72-3.57-13.76,3.17-6.51,11.79-9.25,18.21-9.62,5.27-.3,10.05,1.68,12.19,5.04.27.43.1.96-.38,1.2-.48.24-1.09.09-1.36-.34-2-3.16-6.61-4.36-10.31-4.15-5.85.34-13.69,2.78-16.5,8.55-1.81,3.71-1.22,9.07,2.89,11.63,3.92,2.44,9.38,1.51,13.17-.17,2.91-1.29,4.96-2.9,6.09-4.78,1.32-2.19,1.23-4.79-.22-6.48-1.15-1.34-3.25-2.16-5.48-2.16h-.07c-1.95.01-4.08.61-6.31,1.76-.85.44-1.79.99-2.36,1.77-.42.58-.66,1.45-.24,2.09.54.83,2.04.97,3.1.59,1.32-.48,2.37-1.57,3.29-2.54.35-.37.99-.42,1.41-.1.42.31.47.87.12,1.24-1.02,1.07-2.29,2.39-4.06,3.03-1.87.68-4.48.37-5.6-1.34-.74-1.13-.63-2.67.29-3.92.8-1.1,2.04-1.83,3.04-2.34,2.54-1.31,5-1.98,7.3-2h.08c2.89,0,5.52,1.07,7.07,2.86,1.91,2.22,2.07,5.59.39,8.37-1.33,2.21-3.67,4.07-6.96,5.53-2.39,1.06-5.37,1.84-8.34,1.84Z"/>
      <path class="cls-3" d="M309.79,179.2c-.43,0-.84-.07-1.24-.2-1.25-.42-2.15-1.41-2.76-3.05-1.28-3.45-1.05-7.19-.85-10.5.25-4.01.5-8.15,1.89-12.12,1.58-4.51,4.52-8.08,8.28-10.04.48-.25,1.09-.11,1.37.31.28.42.12.96-.35,1.21-3.33,1.74-5.95,4.95-7.39,9.04-1.32,3.76-1.57,7.79-1.81,11.69-.2,3.3-.41,6.72.75,9.85.4,1.08.93,1.74,1.57,1.95.95.32,2.15-.36,2.89-1.03,2.03-1.86,2.91-4.58,3.56-7.24.86-3.53,1.47-7.19,1.79-10.87.1-1.12.1-2.48-.76-3.06-.73-.49-1.95-.23-2.65.31-.93.71-1.42,1.87-1.73,2.81-1.05,3.11-1.28,6.45-.65,9.65.09.48-.27.94-.81,1.02-.54.08-1.06-.24-1.16-.72-.68-3.47-.44-7.08.7-10.46.4-1.17,1.02-2.64,2.34-3.64,1.3-.99,3.55-1.46,5.17-.38,1.63,1.1,1.68,3.03,1.54,4.6-.33,3.76-.95,7.49-1.83,11.1-.71,2.91-1.7,5.91-4.07,8.09-1.18,1.08-2.53,1.66-3.8,1.66Z"/>
      <path class="cls-3" d="M200.62,234.37c-.31,0-.62,0-.93-.02-5.35-.18-10.26-1.77-13.83-4.48-3.9-2.96-6.02-7.31-5.54-11.37.51-4.27,3.6-7.62,6.1-9.67,7.8-6.4,19.9-8.42,31.58-5.29.52.14.81.61.64,1.04-.17.43-.73.67-1.26.53-10.97-2.94-22.29-1.07-29.55,4.89-2.27,1.86-5.07,4.88-5.52,8.66-.43,3.55,1.45,7.37,4.9,9.99,3.22,2.44,7.69,3.88,12.56,4.04,9.26.29,18.29-4.73,20.62-11.46,1.1-3.19.56-6.28-1.45-8.27-1.88-1.86-5.05-2.92-9.72-3.24-4.22-.29-10.13-.04-14.29,2.75-3.57,2.39-5.32,7.35-2.32,10.41,1.66,1.69,4.65,2.7,8.03,2.63,1.65-.02,4.03-.29,6.01-1.42,1.75-1.01,2.85-2.59,2.86-4.12.01-1.6-1.3-3.15-3-3.53-.86-.19-1.87-.04-2.7.4-.74.39-1.21.94-1.33,1.56-.09.45-.6.75-1.15.68-.54-.07-.92-.5-.83-.95.21-1.06,1.02-2.04,2.22-2.68,1.29-.69,2.91-.92,4.3-.6,2.57.57,4.5,2.78,4.48,5.14-.02,2.06-1.44,4.15-3.72,5.46-1.89,1.09-4.35,1.68-7.12,1.72-4.04.05-7.54-1.13-9.61-3.25-3.82-3.9-1.69-9.84,2.62-12.72,3.76-2.52,9.04-3.56,15.72-3.11,5.22.35,8.85,1.61,11.09,3.83,2.43,2.41,3.12,6.07,1.84,9.78-2.53,7.33-11.75,12.67-21.69,12.67Z"/>
      <path class="cls-3" d="M140.01,215c-3.08,0-6.41-.59-9.81-1.78-4.74-1.66-7.88-3.83-9.58-6.63-1.78-2.93-1.81-6.35-1.61-9.31.3-4.34,1.07-7.78,2.43-10.81,1.7-3.81,4.34-6.88,7.64-8.88.46-.28,1.08-.18,1.39.22.31.4.2.95-.25,1.23-2.97,1.81-5.36,4.6-6.91,8.08-1.28,2.86-2,6.12-2.29,10.28-.19,2.71-.17,5.83,1.37,8.36,1.47,2.41,4.27,4.32,8.56,5.82,3.1,1.09,10.97,3.24,16.99-.23,3.17-1.82,5.4-5.1,5.98-8.76.53-3.32-.22-6.94-2.16-10.45-2.02-3.66-4.97-6.37-8.31-7.65-3.87-1.48-8.38-.9-10.98,1.41-1.78,1.58-2.81,3.94-3.17,7.23-.4,3.68.22,6.66,1.85,8.88,1.63,2.23,5.13,4.08,8.38,3.13,2.38-.7,4.29-2.93,4.75-5.56.24-1.38.04-3.16-1.24-4.03-.55-.38-1.49-.44-2.23-.14-.29.12-.78.39-.81.89-.03.49-.5.88-1.05.83-.55-.03-.97-.44-.94-.93.07-1.04.79-1.92,1.98-2.4,1.42-.57,3.14-.43,4.28.35,1.68,1.14,2.43,3.27,2,5.7-.59,3.31-2.98,6.05-6.1,6.96-3.68,1.08-8.28-.57-10.68-3.85-1.88-2.56-2.61-5.93-2.16-10.01.4-3.71,1.63-6.43,3.75-8.3,3.16-2.81,8.59-3.54,13.19-1.78,3.78,1.44,7.09,4.46,9.32,8.5,2.11,3.83,2.92,7.79,2.34,11.46-.66,4.16-3.23,7.9-6.87,9.99-2.52,1.45-5.61,2.18-9.01,2.18Z"/>
      <path class="cls-3" d="M92.19,186.57c-.96,0-1.96-.18-2.91-.55-1.98-.77-3.77-2.26-5.47-4.58-4.09-5.57-5.7-12.89-4.29-19.57,1.41-6.69,5.85-12.84,11.89-16.45.46-.27,1.08-.17,1.39.24.31.4.19.95-.27,1.22-5.6,3.34-9.73,9.07-11.04,15.31-1.32,6.25.18,13.09,4,18.29,1.48,2.01,2.98,3.3,4.59,3.92,1.53.59,3.8.61,5.17-.74.74-.73,1.16-1.81,1.5-2.75,1.95-5.49,2.67-11.44,2.07-17.21-.33-3.2-1.26-5.25-2.83-6.24-1.14-.72-2.38-.69-3.22-.53-1.72.32-3.38,1.42-4.34,2.87-1.83,2.75-1.82,6.4-1.61,9.28.08,1.08.2,2.22.69,3.15.38.72,1.14,1.45,1.99,1.46,0,0,.02,0,.03,0,.94,0,1.76-.86,2.13-1.66.49-1.08.52-2.34.54-3.57.01-.49.47-.86,1.02-.87.55,0,.99.41.98.9-.03,1.32-.06,2.82-.69,4.19-.64,1.4-2.14,2.79-4.06,2.76-1.53-.03-2.97-.98-3.76-2.48-.64-1.21-.78-2.53-.87-3.78-.23-3.13-.22-7.12,1.88-10.28,1.24-1.86,3.4-3.28,5.66-3.71,1.77-.33,3.43-.05,4.81.82,2.75,1.74,3.4,5.12,3.65,7.51.62,6-.12,12.19-2.15,17.9-.4,1.12-.91,2.4-1.92,3.4-1.14,1.13-2.8,1.73-4.55,1.73Z"/>
      <path class="cls-7" d="M178.17,200.57c-.15,0-.3-.03-.44-.09-.5-.21-.7-.74-.46-1.18l15.45-27.73c.24-.44.84-.62,1.34-.4s.7.74.46,1.18l-15.45,27.73c-.17.31-.53.49-.9.49Z"/>
      <path class="cls-7" d="M226.24,186.06c-.39,0-.77-.21-.93-.55-3.58-7.76-7.5-15.52-11.64-23.06-.24-.44-.03-.97.46-1.18.5-.21,1.1-.03,1.34.41,4.16,7.58,8.09,15.37,11.69,23.16.21.45-.04.97-.55,1.15-.12.04-.25.06-.38.06Z"/>
      <path class="cls-7" d="M262.5,175.1c-.13,0-.27-.02-.39-.07-13.76-5.2-27.87-10.12-41.95-14.6-.52-.17-.79-.67-.6-1.13.19-.46.76-.7,1.28-.53,14.12,4.5,28.27,9.42,42.06,14.64.51.19.74.71.52,1.16-.16.33-.53.53-.92.53Z"/>
      <path class="cls-7" d="M215.86,147.88c-.5,0-.93-.33-.99-.77-.07-.48.32-.92.87-.99l51.45-5.73c.55-.05,1.05.28,1.12.76s-.32.92-.87.99l-51.45,5.73s-.08,0-.13,0Z"/>
      <path class="cls-7" d="M274.03,141.63c-.51,0-.94-.34-.99-.79-.06-.48.34-.92.89-.97l5.48-.5c.55-.05,1.04.3,1.1.79.06.48-.34.92-.89.97l-5.48.5s-.07,0-.1,0Z"/>
      <path class="cls-7" d="M213.72,141.22c-.29,0-.58-.11-.78-.33-.35-.38-.28-.93.14-1.24l17.85-12.81c.43-.31,1.06-.25,1.41.13.35.38.28.93-.14,1.24l-17.85,12.81c-.18.13-.41.2-.63.2Z"/>
      <path class="cls-7" d="M186.84,141.2c-.21,0-.43-.06-.61-.19-8.58-5.91-17.6-11.49-26.82-16.6-.47-.26-.61-.8-.31-1.22.29-.41.91-.54,1.38-.28,9.27,5.14,18.35,10.76,26.98,16.7.44.3.51.85.17,1.24-.2.22-.49.34-.79.34Z"/>
      <path class="cls-7" d="M164.96,148.97s-.08,0-.13,0c-12.97-1.46-26.01-3.5-38.76-6.06-.54-.11-.88-.58-.75-1.06.12-.47.66-.77,1.2-.66,12.69,2.55,25.66,4.58,38.57,6.03.55.06.94.5.87.99-.06.45-.5.77-.99.77Z"/>
      <path class="cls-7" d="M182.02,154.4c-.26,0-.53-.09-.72-.27-2.94-2.7-7.05-4.45-11.27-4.81-.55-.05-.95-.48-.9-.96.05-.49.53-.86,1.09-.79,4.7.39,9.27,2.34,12.53,5.34.38.35.37.91-.03,1.25-.19.16-.44.25-.69.25Z"/>
      <path class="cls-7" d="M138.37,172.15c-.47,0-.89-.3-.98-.72-.1-.48.26-.94.8-1.03l6.33-1.02c.55-.09,1.07.23,1.16.71.1.48-.26.94-.8,1.03l-6.34,1.02c-.06.01-.12.01-.18.01Z"/>
      <path class="cls-7" d="M148.69,170.44c-.46,0-.87-.28-.98-.69-.12-.48.22-.95.76-1.05l35.76-6.88c.54-.11,1.07.2,1.19.67.12.48-.22.95-.76,1.05l-35.76,6.88c-.07.01-.14.02-.21.02Z"/>
      <g class="cls-9">
        <path class="cls-4" d="M264.69,185.42c-.18,0-.37-.04-.54-.14-4.03-2.26-8.66-3.76-13.39-4.33-.38-.05-.76-.09-1.15-.13-1.98-.21-4.02-.43-5.85-1.33-1.82-.9-3.09-2.3-4.31-3.66-.41-.45-.81-.9-1.24-1.33-4.72-4.76-12-6.92-18.42-8.83-.52-.16-.8-.66-.63-1.12.18-.46.74-.71,1.27-.55,6.33,1.88,14.21,4.22,19.29,9.34.44.45.87.92,1.3,1.39,1.16,1.28,2.25,2.49,3.73,3.22,1.49.73,3.25.92,5.12,1.12.39.04.79.08,1.18.13,5.02.61,9.93,2.2,14.2,4.6.46.26.6.81.3,1.22-.19.26-.51.41-.84.41Z"/>
      </g>
      <g class="cls-9">
        <path class="cls-4" d="M246.83,187.85c-.16,0-.33-.03-.48-.11-1.72-.83-3.2-2.03-4.28-3.48-.3-.41-.17-.95.29-1.22.46-.27,1.08-.15,1.38.25.9,1.2,2.13,2.21,3.56,2.9.48.23.66.77.4,1.2-.18.29-.53.46-.88.46Z"/>
      </g>
      <g class="cls-9">
        <path class="cls-4" d="M195.41,195.77c-.44,0-.85-.26-.97-.66-1.2-4-.31-8.4,2.37-11.79.74-.94,1.6-1.78,2.43-2.6.98-.96,1.9-1.86,2.63-2.89,2.04-2.87,2.33-6.72.74-9.8-.23-.44,0-.97.5-1.17.5-.2,1.09,0,1.32.44,1.89,3.66,1.56,8.06-.86,11.47-.82,1.16-1.85,2.16-2.84,3.13-.83.81-1.61,1.58-2.28,2.43-2.35,2.97-3.13,6.83-2.08,10.33.14.47-.18.95-.71,1.08-.09.02-.17.03-.26.03Z"/>
      </g>
      <g class="cls-9">
        <path class="cls-4" d="M218.66,197.23c-.33,0-.65-.14-.84-.4-2.4-3.22-2.63-7.21-2.54-10.69.01-.57.04-1.14.06-1.71.11-2.86.23-5.82-.66-8.52-.31-.94-.74-1.86-1.19-2.82-.89-1.9-1.81-3.88-1.76-6.04.01-.48.46-.86,1-.86h.02c.55.01.99.42.98.9-.05,1.8.76,3.51,1.61,5.33.45.97.92,1.97,1.26,3,.98,2.97.86,6.08.74,9.08-.02.56-.04,1.13-.06,1.69-.08,3.21.11,6.86,2.21,9.68.3.41.17.95-.29,1.22-.17.1-.36.14-.55.14Z"/>
      </g>
      <g class="cls-9">
        <path class="cls-4" d="M184.81,199.78c-.16,0-.32-.03-.47-.1-.49-.23-.67-.76-.41-1.19,1.06-1.75,1.81-3.62,2.24-5.56.11-.48.63-.79,1.17-.69.54.09.89.56.79,1.04-.47,2.11-1.29,4.15-2.44,6.05-.18.3-.53.47-.88.47Z"/>
      </g>
      <g class="cls-9">
        <path class="cls-4" d="M157.1,185.83c-.47,0-.89-.3-.98-.72-.1-.48.25-.94.8-1.03,6.13-1.02,11.13-4.91,15.97-8.66l.93-.72c5.49-4.25,11.55-8.17,18.65-8.17.06,0,.13,0,.19,0,.55,0,.99.4.99.89,0,.48-.45.87-1,.87-.05,0-.12,0-.18,0-6.44,0-12.14,3.71-17.33,7.74l-.93.72c-5.04,3.92-10.26,7.96-16.93,9.07-.06.01-.12.02-.19.02Z"/>
      </g>
      <g class="cls-9">
        <path class="cls-4" d="M146.94,177.01c-.41,0-.79-.22-.94-.58-.19-.46.08-.96.6-1.13,9.15-2.93,18.52-5.68,27.85-8.19.53-.14,1.09.12,1.25.59.16.47-.14.96-.67,1.1-9.3,2.5-18.64,5.24-27.75,8.16-.11.04-.23.05-.34.05Z"/>
      </g>
      <g class="cls-9">
        <path class="cls-4" d="M177.48,156.85c-.18,0-.36-.04-.52-.13-2.59-1.39-5.72-1.39-9.03-1.4-2.38,0-4.84-.01-7.18-.55-1.87-.43-3.58-1.18-5.24-1.91-1.7-.74-3.31-1.45-5.04-1.82-2.66-.57-5.42-.33-8.33-.07-.86.08-1.72.15-2.58.2-11.45.72-22.87-2.54-32.96-5.42-.53-.15-.81-.65-.64-1.11s.74-.72,1.26-.57c9.91,2.83,21.15,6.03,32.2,5.34.84-.05,1.68-.13,2.53-.2,2.96-.26,6.01-.53,9,.11,1.95.42,3.73,1.2,5.46,1.95,1.64.72,3.19,1.4,4.86,1.78,2.1.48,4.43.49,6.69.49,3.44,0,7,.02,10.06,1.66.47.25.62.79.34,1.21-.19.27-.52.42-.86.42Z"/>
      </g>
      <g class="cls-9">
        <path class="cls-4" d="M152.35,160.99c-.16,0-.33-.04-.48-.11-4.53-2.19-10.09-2.35-14.99-2.49l-26.58-.75c-.55-.02-.99-.42-.97-.91.02-.49.47-.88,1.03-.85l26.58.75c5.13.14,10.94.31,15.89,2.71.48.23.66.77.39,1.2-.18.29-.52.46-.88.46Z"/>
      </g>
      <g class="cls-9">
        <path class="cls-4" d="M181.77,147.33c-.15,0-.29-.03-.43-.09-.81-.35-1.63-.74-2.46-1.13-1.69-.81-3.45-1.64-5.16-2.1-.44-.12-.85-.22-1.26-.32-1.58-.39-3.08-.76-4.76-1.75-1.3-.77-2.52-1.66-3.69-2.52-2.2-1.61-4.28-3.12-6.84-3.94-1.77-.56-3.65-.73-5.64-.91-1.38-.13-2.81-.26-4.21-.53-4.94-.96-9.03-3.56-12.38-5.99-2.67-1.93-5.75-3.15-9.01-4.44-.99-.39-1.98-.78-2.97-1.2-.5-.21-.71-.74-.47-1.18.24-.44.83-.63,1.33-.42.97.41,1.95.8,2.93,1.18,3.24,1.28,6.58,2.6,9.46,4.69,3.17,2.29,7.02,4.75,11.54,5.63,1.29.25,2.6.37,3.99.5,2.02.18,4.11.37,6.11,1.01,2.9.92,5.21,2.6,7.44,4.24,1.14.83,2.32,1.69,3.54,2.41,1.41.84,2.63,1.14,4.18,1.52.42.1.85.21,1.3.33,1.91.51,3.75,1.39,5.53,2.23.8.38,1.6.76,2.38,1.09.5.21.71.74.46,1.18-.17.32-.53.5-.9.5Z"/>
      </g>
      <g class="cls-9">
        <path class="cls-4" d="M162.07,130.93c-.13,0-.27-.02-.41-.08-5.62-2.2-11.99-4.69-16.49-9.09-.34-.33-.67-.67-1-1.01-1.2-1.24-2.33-2.42-3.85-3-1-.38-2.17-.5-3.41-.63-1.9-.19-3.86-.39-5.4-1.6-.41-.32-.45-.88-.08-1.24.37-.37,1-.4,1.41-.07,1.07.84,2.64,1,4.3,1.17,1.33.14,2.7.27,3.97.76,1.94.74,3.28,2.13,4.58,3.47.32.33.63.66.96.97,4.22,4.12,10.38,6.53,15.82,8.66.5.2.73.72.51,1.16-.17.33-.53.52-.92.52Z"/>
      </g>
      <g class="cls-9">
        <path class="cls-4" d="M195.4,139.18c-.47,0-.89-.3-.98-.72-.57-2.69-3.17-4.57-5.92-6.57-2.98-2.16-6.07-4.39-6.61-7.84-.1-.61-.1-1.22-.1-1.81,0-.82,0-1.59-.27-2.27-.54-1.41-2.11-2.33-3.77-3.3-.42-.25-.84-.49-1.25-.75-3.88-2.45-6.62-6.21-7.54-10.34-.11-.48.25-.94.79-1.04.55-.1,1.07.22,1.17.7.82,3.69,3.28,7.05,6.74,9.24.38.24.79.48,1.19.71,1.78,1.04,3.79,2.22,4.56,4.2.37.95.37,1.91.37,2.83,0,.55,0,1.07.08,1.57.43,2.76,3.09,4.69,5.9,6.72,2.91,2.11,5.92,4.29,6.62,7.61.1.48-.26.94-.8,1.03-.06.01-.12.01-.18.01Z"/>
      </g>
      <g class="cls-9">
        <path class="cls-4" d="M190.23,120.77c-.44,0-.84-.26-.96-.65-1.54-4.91-3.62-9.71-6.17-14.28-.24-.44-.04-.97.46-1.18.49-.21,1.09-.03,1.34.4,2.61,4.67,4.73,9.58,6.3,14.59.15.47-.16.96-.7,1.09-.09.02-.18.03-.27.03Z"/>
      </g>
      <g class="cls-9">
        <path class="cls-4" d="M202.56,140.34c-.14,0-.29-.03-.43-.09-.5-.21-.71-.73-.48-1.17l5.82-10.84c.42-.79.74-1.44.66-2.04-.06-.43-.33-.87-.62-1.33-.25-.4-.51-.82-.69-1.3-.73-1.97.23-3.91,1.29-5.72l7.62-13.15c.25-.43.86-.6,1.35-.38.49.22.69.75.44,1.19l-7.62,13.15c-.86,1.48-1.66,3.04-1.17,4.37.12.32.32.65.54,1,.35.57.75,1.21.85,1.97.16,1.15-.42,2.22-.84,3l-5.82,10.84c-.17.32-.53.5-.9.5Z"/>
      </g>
      <g class="cls-9">
        <path class="cls-4" d="M224.11,118.87c-.11,0-.23-.02-.34-.05-.52-.17-.79-.67-.6-1.13,1.84-4.49,4.3-8.78,7.31-12.74.31-.41.93-.51,1.39-.24.46.27.58.82.27,1.22-2.93,3.85-5.31,8.01-7.09,12.36-.15.36-.53.58-.94.58Z"/>
      </g>
      <g class="cls-9">
        <path class="cls-4" d="M224.52,141.58c-.46,0-.87-.28-.98-.69-.12-.48.22-.95.76-1.05,8.39-1.61,15.99-5.75,21.39-11.64.37-.41.74-.83,1.11-1.25,1.61-1.84,3.28-3.74,5.68-4.93,2.06-1.02,4.37-1.36,6.6-1.68.85-.12,1.73-.25,2.57-.42,6.79-1.33,12.63-5.43,17.77-9.04.43-.3,1.06-.24,1.41.14.34.38.27.94-.16,1.24-5.32,3.73-11.34,7.96-18.59,9.39-.89.17-1.8.31-2.67.43-2.15.31-4.19.61-5.95,1.48-2.04,1.01-3.52,2.69-5.08,4.47-.38.43-.75.86-1.14,1.28-5.68,6.2-13.68,10.55-22.52,12.25-.07.01-.14.02-.21.02Z"/>
      </g>
      <g class="cls-9">
        <path class="cls-4" d="M263.09,130.38c-.26,0-.53-.09-.73-.28-.38-.35-.36-.91.04-1.25,1.76-1.47,3.75-3.13,6.29-3.94.95-.3,1.92-.47,2.85-.63.82-.14,1.6-.28,2.34-.49,1.72-.5,3.23-1.44,4.83-2.44.38-.24.76-.47,1.14-.7,1.9-1.14,4.47-2.43,7.25-2.39.55.01.99.42.98.9-.01.49-.45.84-1.02.86-2.26-.05-4.43,1.09-6.08,2.08-.37.22-.74.45-1.11.68-1.65,1.02-3.35,2.08-5.35,2.67-.86.25-1.74.4-2.58.55-.9.16-1.75.3-2.56.56-2.15.69-3.98,2.22-5.6,3.57-.19.16-.44.24-.69.24Z"/>
      </g>
      <g class="cls-9">
        <path class="cls-4" d="M257.04,151.94c-3.24,0-6.49-.35-9.68-.69-5.44-.58-10.58-1.14-15.62-.11-.54.11-1.08-.19-1.2-.66-.12-.47.21-.95.75-1.06,5.39-1.1,10.95-.5,16.32.08,5.03.54,10.23,1.1,15.13.21,2.29-.41,4.55-1.15,6.74-1.87,1.26-.41,2.56-.83,3.86-1.2,8.04-2.25,16.93-2.37,25.04-.34.53.13.84.62.69,1.09-.15.47-.71.74-1.23.61-7.74-1.93-16.22-1.81-23.89.33-1.26.35-2.54.77-3.77,1.17-2.26.74-4.6,1.5-7.04,1.94-2.02.37-4.06.5-6.1.5Z"/>
      </g>
      <g class="cls-9">
        <path class="cls-4" d="M271.57,159.42c-2.65,0-5.32-.33-7.85-1.28-.51-.19-.74-.71-.52-1.16s.81-.66,1.31-.46c4.48,1.69,9.68,1.16,14.2.53l1.36-.19c4.55-.66,9.26-1.33,13.87-.43.54.11.88.58.76,1.05-.12.48-.66.77-1.19.67-4.24-.83-8.75-.18-13.12.45l-1.37.19c-2.36.33-4.89.63-7.45.63Z"/>
      </g>
    </g>
  </g>
  <g>
    <path class="cls-8" d="M236.55,151.34l-30.82.03-30.32.02c-1.98-6.99.04-14.57,3.5-20.96,3.46-6.39,8.28-11.91,12.46-17.86,8.79-12.51,2.47-25.62-2.96-38.13-3.97-9.14-7.22-19.79-3.03-28.85,3.13-6.78,9.75-11.11,15.18-16.24s10.09-12.69,7.62-19.74c.21.2.41.4.59.62,4.38,4.94,2.71,13.11-.68,18.97-3.52,6.11-8.61,11.7-9.53,18.69-2.15,16.17,14.27,25.86,22.42,37.33,4.59,6.47,7.99,13.99,8.39,21.91.33,6.35-1.27,12.66-1.36,19.02-.11,9.04,2.95,18.09,8.54,25.19Z"/>
    <path class="cls-6" d="M238.38,155.18c-.81,1.03-2.66.44-3.88.99-2.09.94-1.14,4.25-1.91,6.43-.75,2.21-3.3,3.12-5.74,3.21-2.44.08-5-.41-7.39-.08-5.59.8-9.74,6.09-15.58,4.93-1.95-.39-3.69-1.42-5.35-2.66-2.24-1.64-4.38-3.65-6.81-4.93-3.16-1.66-6.64-2.04-10.01-2.93-3.37-.87-6.98-2.53-8.76-5.62-2.01-3.48-.92-7.6,1.41-10.2,3.16-3.51,8.04-5.15,11.93-7.79,2.7-1.84,5.02-4.05,7.54-6.09,1.97-1.6,5.4-3.95,8.96-5.01,2.82-.86,5.73-.92,8.07.83,1.44,1.07,2.58,2.52,3.91,3.72,2.37,2.14,5.31,3.48,8.04,5.09,2.75,1.61,5.48,3.71,6.74,6.57,1.58,3.59,1.55,5.53,5.05,8.02,1.5,1.07,5.4,3.48,3.77,5.51Z"/>
    <path class="cls-1" d="M238.38,155.18c-.81,1.03-2.66.44-3.88.99-2.09.94-1.14,4.25-1.91,6.43-.75,2.21-3.3,3.12-5.74,3.21-2.44.08-5-.41-7.39-.08-5.59.8-9.74,6.09-15.58,4.93-1.95-.39-3.69-1.42-5.35-2.66.03-.09.06-.18.1-.27,1.75-3.89,9.65-2.01,10.54-6.31.49-2.39-1.8-5.08-1.53-7.54.23-2,2.04-3.2,3.03-4.85,2.04-3.42.3-8.32-2.03-12.24-2.21-3.72-5.02-7.37-5.83-11.37,2.82-.86,5.73-.92,8.07.83,1.44,1.07,2.58,2.52,3.91,3.72,2.37,2.14,5.31,3.48,8.04,5.09,2.75,1.61,5.48,3.71,6.74,6.57,1.58,3.59,1.55,5.53,5.05,8.02,1.5,1.07,5.4,3.48,3.77,5.51Z"/>
  </g>
</svg>