<?xml version="1.0" encoding="UTF-8"?>
<svg id="Expanded" xmlns="http://www.w3.org/2000/svg" xmlns:xlink="http://www.w3.org/1999/xlink" viewBox="0 0 400 250">
  <defs>
    <style>
      .cls-1 {
        fill: #ffa9c2;
      }

      .cls-2 {
        fill: #3288d6;
      }

      .cls-3 {
        fill: #ea9939;
      }

      .cls-4 {
        fill: #d87625;
      }

      .cls-5 {
        fill: none;
      }

      .cls-6 {
        fill: #79cdf6;
      }

      .cls-7 {
        fill: #ffe277;
      }

      .cls-8 {
        fill: #47acea;
      }

      .cls-9 {
        fill: #6d3108;
      }

      .cls-10 {
        clip-path: url(#clippath);
      }

      .cls-11 {
        fill: #1f5999;
      }

      .cls-12 {
        fill: #ffd2e1;
      }
    </style>
    <clipPath id="clippath">
      <rect class="cls-5" x="63.22" y="56.28" width="273.56" height="135.75" rx="4.95" ry="4.95"/>
    </clipPath>
  </defs>
  <rect class="cls-4" x="39.82" y="35.07" width="320.35" height="179.85" rx="13.05" ry="13.05"/>
  <rect class="cls-3" x="39.82" y="35.07" width="313.37" height="171.27" rx="13.05" ry="13.05"/>
  <path class="cls-7" d="M41.05,197.11s3.28-131.26,6.49-148.42c.14-.74,3.56-7.12,7.95-7.3,20.19-.82,289.3-4.69,289.3-4.69,0,0-288.71-.78-293.66-.78s-8.54,4-10.09,8.4c-1.55,4.4,0,152.8,0,152.8Z"/>
  <path class="cls-9" d="M347.13,216.93H52.87c-8.3,0-15.05-6.75-15.05-15.05V48.12c0-8.3,6.75-15.05,15.05-15.05h294.25c8.3,0,15.05,6.75,15.05,15.05v153.75c0,8.3-6.75,15.05-15.05,15.05ZM52.87,37.07c-6.09,0-11.05,4.96-11.05,11.05v153.75c0,6.09,4.96,11.05,11.05,11.05h294.25c6.09,0,11.05-4.96,11.05-11.05V48.12c0-6.09-4.96-11.05-11.05-11.05H52.87Z"/>
  <g>
    <rect class="cls-11" x="63.22" y="56.28" width="273.56" height="135.75" rx="4.95" ry="4.95"/>
    <g class="cls-10">
      <g>
        <rect class="cls-8" x="64.57" y="136.25" width="270.86" height="60.86" rx="4.95" ry="4.95"/>
        <g>
          <path class="cls-2" d="M112.33,83.55c0-7.68-6.22-13.9-13.9-13.9s-13.9,6.22-13.9,13.9c0,4.82,2.45,9.06,6.18,11.56-3.73,9.07-6.18,24.52-6.18,42.05h27.8c0-17.53-2.45-32.98-6.18-42.05,3.73-2.49,6.18-6.74,6.18-11.56Z"/>
          <path class="cls-2" d="M146.18,83.55c0-7.68-6.22-13.9-13.9-13.9s-13.9,6.22-13.9,13.9c0,4.82,2.45,9.06,6.18,11.56-3.73,9.07-6.18,24.52-6.18,42.05h27.8c0-17.53-2.45-32.98-6.18-42.05,3.73-2.49,6.18-6.74,6.18-11.56Z"/>
          <path class="cls-2" d="M180.04,83.55c0-7.68-6.22-13.9-13.9-13.9s-13.9,6.22-13.9,13.9c0,4.82,2.45,9.06,6.18,11.56-3.73,9.07-6.18,24.52-6.18,42.05h27.8c0-17.53-2.45-32.98-6.18-42.05,3.73-2.49,6.18-6.74,6.18-11.56Z"/>
          <path class="cls-2" d="M213.9,83.55c0-7.68-6.22-13.9-13.9-13.9s-13.9,6.22-13.9,13.9c0,4.82,2.45,9.06,6.18,11.56-3.73,9.07-6.18,24.52-6.18,42.05h27.8c0-17.53-2.45-32.98-6.18-42.05,3.73-2.49,6.18-6.74,6.18-11.56Z"/>
          <path class="cls-2" d="M247.76,83.55c0-7.68-6.22-13.9-13.9-13.9s-13.9,6.22-13.9,13.9c0,4.82,2.45,9.06,6.18,11.56-3.73,9.07-6.18,24.52-6.18,42.05h27.8c0-17.53-2.45-32.98-6.18-42.05,3.73-2.49,6.18-6.74,6.18-11.56Z"/>
          <path class="cls-2" d="M281.62,83.55c0-7.68-6.22-13.9-13.9-13.9s-13.9,6.22-13.9,13.9c0,4.82,2.45,9.06,6.18,11.56-3.73,9.07-6.18,24.52-6.18,42.05h27.8c0-17.53-2.45-32.98-6.18-42.05,3.73-2.49,6.18-6.74,6.18-11.56Z"/>
          <path class="cls-2" d="M315.47,83.55c0-7.68-6.22-13.9-13.9-13.9s-13.9,6.22-13.9,13.9c0,4.82,2.45,9.06,6.18,11.56-3.73,9.07-6.18,24.52-6.18,42.05h27.8c0-17.53-2.45-32.98-6.18-42.05,3.73-2.49,6.18-6.74,6.18-11.56Z"/>
        </g>
        <g>
          <path class="cls-8" d="M95.4,112.95c0-7.68-6.22-13.9-13.9-13.9s-13.9,6.22-13.9,13.9c0,4.82,2.45,9.06,6.18,11.56-3.73,9.07-6.18,24.52-6.18,42.05h27.8c0-17.53-2.45-32.98-6.18-42.05,3.73-2.49,6.18-6.74,6.18-11.56Z"/>
          <path class="cls-8" d="M129.25,112.95c0-7.68-6.22-13.9-13.9-13.9s-13.9,6.22-13.9,13.9c0,4.82,2.45,9.06,6.18,11.56-3.73,9.07-6.18,24.52-6.18,42.05h27.8c0-17.53-2.45-32.98-6.18-42.05,3.73-2.49,6.18-6.74,6.18-11.56Z"/>
          <path class="cls-8" d="M163.11,112.95c0-7.68-6.22-13.9-13.9-13.9s-13.9,6.22-13.9,13.9c0,4.82,2.45,9.06,6.18,11.56-3.73,9.07-6.18,24.52-6.18,42.05h27.8c0-17.53-2.45-32.98-6.18-42.05,3.73-2.49,6.18-6.74,6.18-11.56Z"/>
          <path class="cls-8" d="M196.97,112.95c0-7.68-6.22-13.9-13.9-13.9s-13.9,6.22-13.9,13.9c0,4.82,2.45,9.06,6.18,11.56-3.73,9.07-6.18,24.52-6.18,42.05h27.8c0-17.53-2.45-32.98-6.18-42.05,3.73-2.49,6.18-6.74,6.18-11.56Z"/>
          <path class="cls-8" d="M230.83,112.95c0-7.68-6.22-13.9-13.9-13.9s-13.9,6.22-13.9,13.9c0,4.82,2.45,9.06,6.18,11.56-3.73,9.07-6.18,24.52-6.18,42.05h27.8c0-17.53-2.45-32.98-6.18-42.05,3.73-2.49,6.18-6.74,6.18-11.56Z"/>
          <path class="cls-8" d="M264.69,112.95c0-7.68-6.22-13.9-13.9-13.9s-13.9,6.22-13.9,13.9c0,4.82,2.45,9.06,6.18,11.56-3.73,9.07-6.18,24.52-6.18,42.05h27.8c0-17.53-2.45-32.98-6.18-42.05,3.73-2.49,6.18-6.74,6.18-11.56Z"/>
          <path class="cls-8" d="M298.54,112.95c0-7.68-6.22-13.9-13.9-13.9s-13.9,6.22-13.9,13.9c0,4.82,2.45,9.06,6.18,11.56-3.73,9.07-6.18,24.52-6.18,42.05h27.8c0-17.53-2.45-32.98-6.18-42.05,3.73-2.49,6.18-6.74,6.18-11.56Z"/>
          <path class="cls-8" d="M332.4,112.95c0-7.68-6.22-13.9-13.9-13.9s-13.9,6.22-13.9,13.9c0,4.82,2.45,9.06,6.18,11.56-3.73,9.07-6.18,24.52-6.18,42.05h27.8c0-17.53-2.45-32.98-6.18-42.05,3.73-2.49,6.18-6.74,6.18-11.56Z"/>
        </g>
        <g>
          <path class="cls-6" d="M78.47,142.31c0-7.68-6.22-13.9-13.9-13.9s-13.9,6.22-13.9,13.9c0,4.82,2.45,9.06,6.18,11.56-3.73,9.07-6.18,24.52-6.18,42.05h27.8c0-17.53-2.45-32.98-6.18-42.05,3.73-2.49,6.18-6.74,6.18-11.56Z"/>
          <path class="cls-6" d="M112.33,142.31c0-7.68-6.22-13.9-13.9-13.9s-13.9,6.22-13.9,13.9c0,4.82,2.45,9.06,6.18,11.56-3.73,9.07-6.18,24.52-6.18,42.05h27.8c0-17.53-2.45-32.98-6.18-42.05,3.73-2.49,6.18-6.74,6.18-11.56Z"/>
          <path class="cls-1" d="M146.18,142.31c0-7.68-6.22-13.9-13.9-13.9s-13.9,6.22-13.9,13.9c0,4.82,2.45,9.06,6.18,11.56-3.73,9.07-6.18,24.52-6.18,42.05h27.8c0-17.53-2.45-32.98-6.18-42.05,3.73-2.49,6.18-6.74,6.18-11.56Z"/>
          <path class="cls-12" d="M180.04,142.31c0-7.68-6.22-13.9-13.9-13.9s-13.9,6.22-13.9,13.9c0,4.82,2.45,9.06,6.18,11.56-3.73,9.07-6.18,24.52-6.18,42.05h27.8c0-17.53-2.45-32.98-6.18-42.05,3.73-2.49,6.18-6.74,6.18-11.56Z"/>
          <path class="cls-1" d="M213.9,142.31c0-7.68-6.22-13.9-13.9-13.9s-13.9,6.22-13.9,13.9c0,4.82,2.45,9.06,6.18,11.56-3.73,9.07-6.18,24.52-6.18,42.05h27.8c0-17.53-2.45-32.98-6.18-42.05,3.73-2.49,6.18-6.74,6.18-11.56Z"/>
          <path class="cls-1" d="M247.76,142.31c0-7.68-6.22-13.9-13.9-13.9s-13.9,6.22-13.9,13.9c0,4.82,2.45,9.06,6.18,11.56-3.73,9.07-6.18,24.52-6.18,42.05h27.8c0-17.53-2.45-32.98-6.18-42.05,3.73-2.49,6.18-6.74,6.18-11.56Z"/>
          <path class="cls-6" d="M281.62,142.31c0-7.68-6.22-13.9-13.9-13.9s-13.9,6.22-13.9,13.9c0,4.82,2.45,9.06,6.18,11.56-3.73,9.07-6.18,24.52-6.18,42.05h27.8c0-17.53-2.45-32.98-6.18-42.05,3.73-2.49,6.18-6.74,6.18-11.56Z"/>
          <path class="cls-6" d="M315.47,142.31c0-7.68-6.22-13.9-13.9-13.9s-13.9,6.22-13.9,13.9c0,4.82,2.45,9.06,6.18,11.56-3.73,9.07-6.18,24.52-6.18,42.05h27.8c0-17.53-2.45-32.98-6.18-42.05,3.73-2.49,6.18-6.74,6.18-11.56Z"/>
          <path class="cls-6" d="M349.33,142.31c0-7.68-6.22-13.9-13.9-13.9s-13.9,6.22-13.9,13.9c0,4.82,2.45,9.06,6.18,11.56-3.73,9.07-6.18,24.52-6.18,42.05h27.8c0-17.53-2.45-32.98-6.18-42.05,3.73-2.49,6.18-6.74,6.18-11.56Z"/>
        </g>
      </g>
    </g>
    <path class="cls-9" d="M331.83,193.04H68.17c-3.28,0-5.95-2.67-5.95-5.95V61.23c0-3.28,2.67-5.95,5.95-5.95h263.66c3.28,0,5.95,2.67,5.95,5.95v125.86c0,3.28-2.67,5.95-5.95,5.95ZM68.17,57.28c-2.18,0-3.95,1.77-3.95,3.95v125.86c0,2.18,1.77,3.95,3.95,3.95h263.66c2.18,0,3.95-1.77,3.95-3.95V61.23c0-2.18-1.77-3.95-3.95-3.95H68.17Z"/>
  </g>
</svg>