<?xml version="1.0" encoding="UTF-8"?>
<svg id="Expanded" xmlns="http://www.w3.org/2000/svg" viewBox="0 0 400 250">
  <defs>
    <style>
      .cls-1 {
        fill: #dd2a39;
      }

      .cls-2 {
        fill: #f43f3f;
      }

      .cls-3 {
        fill: #b51933;
      }

      .cls-4 {
        fill: #ff7d63;
      }

      .cls-5 {
        fill: #7a1839;
      }
    </style>
  </defs>
  <path class="cls-5" d="M309.86,153.08c-1.6,7.25-5.33,13.63-10.51,17.94-4.26,3.56-9.1,5.41-13.96,5.41-1.37,0-2.75-.15-4.11-.45-7.59-1.67-13.28-7.85-15.76-15.92-1.53-.9-3.19-1.83-4.96-2.78-4.35,8.59-10.4,16.01-17.63,21.95,2.79,3.52,5.63,6.72,8.32,9.29,2.23-.04,4.4.2,6.47.72.07.02.15.03.22.05.28.07.57.15.85.24.36.1.72.22,1.08.35.05.01.1.03.14.05,3.91,1.41,7.21,3.87,9.43,7.35,3.25,5.07,3.73,11.39,1.36,17.8-2.22,6.01-6.75,11.44-12.75,15.27-5.34,3.42-11.33,5.24-17.09,5.24-.71,0-1.42-.03-2.12-.08-3.4-.27-6.49-1.18-9.13-2.66-2.64-1.47-4.83-3.51-6.45-6.05-3.49-5.45-3.6-12.27-.96-18.68-1.47-4.52-3.46-9.83-6.07-15.37-2.79.71-5.64,1.25-8.53,1.6.83,2.81,1.01,5.71.46,8.59h-.01c-.32,1.67-.88,3.28-1.66,4.79,0,0,0,.01,0,.02-.24.47-.5.92-.78,1.37-2.1,3.34-5.26,6-9.06,7.82-3.8,1.83-8.25,2.82-12.96,2.82-2.14,0-4.32-.2-6.52-.62-7-1.34-13.21-4.7-17.51-9.46-4.57-5.07-6.47-11.12-5.34-17.04.58-3.04,1.92-5.82,3.98-8.26.57-.68,1.2-1.32,1.87-1.92-3.79-2.65-7.29-5.68-10.46-9.03-3.96,3.34-8.79,8.08-12.41,12.67.77,4.68.16,9.22-1.83,13.09-.07.15-.14.29-.22.43-.12.23-.25.46-.38.68-.26.42-.53.84-.82,1.24-.06.09-.12.17-.19.25-.35.48-.72.94-1.12,1.38-.23.26-.49.48-.74.72-.24.23-.47.48-.72.7-.05.04-.1.08-.15.12-3.49,2.99-8.03,4.58-13.13,4.58-.78,0-1.57-.04-2.37-.11-2.77-.26-5.54-.98-8.23-2.07-.06-.03-.12-.05-.18-.08-.68-.28-1.35-.58-2.02-.92-.3-.14-.59-.3-.89-.45-.29-.16-.57-.31-.86-.47-.57-.32-1.13-.68-1.69-1.04-.17-.11-.34-.22-.51-.34-.62-.42-1.24-.86-1.84-1.33-.07-.06-.15-.12-.22-.18-.66-.52-1.3-1.05-1.93-1.63-.08-.08-.16-.16-.25-.24-.49-.46-.96-.93-1.42-1.41-.22-.23-.43-.46-.64-.69-.33-.36-.65-.73-.97-1.1-.21-.25-.42-.5-.62-.76-.33-.42-.65-.85-.96-1.28-.24-.34-.47-.67-.69-1.01-.3-.46-.6-.92-.87-1.38-.19-.32-.36-.64-.54-.96-.18-.34-.36-.68-.54-1.02-.17-.35-.34-.69-.5-1.05-.15-.32-.28-.65-.42-.97-.2-.49-.39-.97-.56-1.46-.17-.47-.32-.95-.46-1.42-.08-.27-.16-.53-.23-.8-.15-.57-.28-1.14-.39-1.71-.02-.09-.05-.17-.06-.26-.1-.51-.17-1.02-.23-1.52l-.03-.21c-.05-.43-.08-.86-.11-1.29,0-.06-.01-.11-.01-.17-.25-4.52.8-8.67,3.05-12.11.02-.02.03-.05.05-.08.02-.02.04-.05.05-.07.21-.31.43-.61.66-.91.05-.07.1-.14.16-.22.27-.34.54-.67.84-.99,0,0,.01,0,.01-.02,6.07-6.64,16.35-7.76,25.89-3.7.17-.06.33-.12.5-.18.19-.07.38-.14.57-.22.39-.15.78-.31,1.18-.47.18-.07.35-.13.53-.21.4-.16.81-.33,1.22-.51.18-.08.37-.15.56-.23.4-.18.81-.37,1.23-.55.2-.09.39-.17.59-.27.41-.18.83-.38,1.25-.58.21-.1.41-.2.62-.3.41-.2.83-.41,1.24-.61.23-.12.45-.23.68-.35.4-.2.81-.42,1.21-.63.25-.14.5-.26.75-.4.4-.21.8-.44,1.2-.67.27-.14.53-.29.8-.44.38-.22.77-.46,1.16-.69.29-.17.57-.33.86-.51.38-.22.76-.46,1.14-.7.3-.19.61-.38.91-.57.16-.11.32-.22.48-.32-.17-.41-.34-.82-.5-1.23-.05-.12-.09-.24-.14-.36-.2-.54-.41-1.08-.6-1.63-.13-.36-.25-.74-.37-1.1-.12-.34-.23-.67-.34-1-.19-.59-.36-1.19-.54-1.78-.03-.14-.08-.27-.12-.4-1.71-6.06-2.57-12.35-2.56-18.66,0-1.84.09-3.67.24-5.5-1.61-.5-3.58-.8-5.83-.87-5,5.25-11.25,8.11-17.45,8.11-2.01,0-4.02-.3-5.97-.92-6.23-1.95-11.22-7-13.69-13.83h-.01v-.03s-.03-.08-.04-.12c-.25-.67-.46-1.37-.65-2.08-.09-.31-.15-.64-.23-.96-.07-.29-.15-.59-.21-.89v-.02s-.01-.01-.01-.01h0c-.02-.12-.03-.23-.05-.33-.07-.35-.12-.69-.18-1.04-.06-.44-.12-.88-.17-1.33-.03-.31-.07-.63-.09-.94-.05-.57-.07-1.14-.08-1.71,0-.2-.02-.41-.02-.61-.01-.77.02-1.54.07-2.31.02-.25.05-.5.07-.76.05-.54.11-1.09.19-1.64.04-.29.08-.59.13-.88.09-.54.19-1.07.31-1.6.06-.27.11-.54.17-.81.19-.78.4-1.56.64-2.33t.01-.02c1.95-6.22,5.52-11.6,10.17-15.4.66-.54,1.35-1.05,2.05-1.53,5.94-4.01,12.59-5.15,18.74-3.21.49.15.96.33,1.42.51.14.06.28.12.42.17.35.15.69.31,1.03.48l.36.18c.41.21.81.44,1.2.68.18.11.35.22.52.34.22.14.44.29.66.45.2.14.41.29.61.44.13.11.26.22.39.33.49.39.95.8,1.4,1.24.03.02.06.05.09.08,3.21,3.16,5.5,7.42,6.6,12.4.03.14.07.29.1.44.05.22.09.46.13.69.05.26.1.52.14.78.55.22,1.1.43,1.66.65,1,.39,2.03.79,3.06,1.18.11.04.21.08.32.12,3.2-5.93,7.23-11.28,11.9-15.93-2.44-2.9-5-5.42-7.51-7.56-8.07-.3-15.27-3.63-19.28-9.43-.69-1.01-1.28-2.07-1.75-3.17h0c-.22-.51-.42-1.05-.6-1.61-3.69-11.64,5.24-24.86,19.89-29.51,10.02-3.17,20.46-1.68,27.24,3.9,1.44,1.17,2.69,2.53,3.71,4.02h0c.69,1.03,1.28,2.12,1.76,3.28.19.47.37.94.52,1.42,1.85,5.85.66,12.18-3.34,17.84-.03.04-.06.07-.09.11.49,1.99,1.08,3.98,1.72,5.86,9.68-4.01,20.34-5.83,31.25-5-6.58-5.32-9.79-12.76-8.42-19.93.08-.42.18-.84.29-1.26v-.02c.06-.19.1-.34.15-.51.63-2.08,1.63-4.02,2.96-5.77,0-.02.03-.03.04-.05.4-.52.83-1.03,1.29-1.52.04-.04.08-.07.11-.11.45-.46.91-.91,1.41-1.34.07-.06.14-.12.22-.18.42-.35.85-.69,1.31-1.02.17-.12.34-.24.51-.36.37-.25.75-.49,1.14-.73.22-.13.45-.27.67-.39.37-.21.75-.41,1.14-.6.04-.02.08-.03.12-.05.59-.29,1.2-.56,1.82-.8.12-.05.24-.11.36-.15.63-.24,1.27-.45,1.92-.65.13-.04.25-.08.38-.12.64-.18,1.3-.34,1.97-.48.14-.03.28-.07.42-.1.67-.13,1.34-.23,2.02-.32.15-.02.3-.05.44-.07.7-.08,1.41-.13,2.12-.16.13-.01.27-.03.4-.03.03,0,.06-.01.09-.01.72-.02,1.44-.02,2.17.01.1,0,.2-.01.31,0,.8.03,1.62.09,2.44.18.05.01.1.01.16.02.87.09,1.74.23,2.62.39.55.11,1.09.23,1.63.36.13.03.26.06.4.1,11.64,2.93,20.1,11.36,21.04,20.96,0,.05,0,.11.01.16.04.51.07,1.01.08,1.52h0v.03c0,1.13-.11,2.27-.32,3.36-1.55,8.09-8.67,14.33-18.33,16.22-.26.3-.51.6-.77.89,5.66,2.93,10.86,6.62,15.47,10.97,2.98-2.74,5.46-5.3,7.27-7.28-.36-4.63.51-9.04,2.54-12.65,1.35-2.39,3.21-4.43,5.56-5.93.31-.2.62-.39.94-.56.04-.02.07-.04.11-.06,4.17-2.26,9.12-2.65,14.19-1.12.04.01.09.03.13.04.33.1.66.21.99.33.06.02.12.04.19.06.02.01.05.02.07.03.05.02.1.04.15.06.31.12.62.24.93.37.09.04.16.09.25.13,5.05,2.21,9.58,6.15,12.85,11.27,3.56,5.56,5.26,11.9,4.78,17.84-.5,6.35-3.39,11.51-8.13,14.55-2.77,1.76-5.92,2.65-9.26,2.65-2.39,0-4.87-.45-7.37-1.38-1.02-.37-2.01-.85-2.99-1.36-2.31.55-5.23,1.71-8.4,3.27,4.57,9.52,6.83,19.94,6.7,30.42.17-.01.34,0,.51-.01h.18c.78,0,1.53-.04,2.27-.08.03,0,.06-.01.09-.01.75-.04,1.48-.09,2.19-.15,0,0,.03-.01.04-.01.18,0,.33-.03.5-.05,2.31-2.28,4.91-4.08,7.67-5.3,3.62-1.78,7.73-2.29,12.1-1.34.03.01.05.01.08.02.01,0,.03,0,.04.01.31.07.57.14.82.2,0,.01,0,.01.02.01.57.15,1.12.34,1.67.54.17.06.34.13.51.2.45.19.9.38,1.34.61.24.11.47.25.7.37.25.14.49.29.74.44.41.25.82.52,1.22.81.15.11.3.22.45.33.2.16.41.29.6.45.12.1.22.2.32.31,7,6.04,10.4,17.09,7.89,28.51Z"/>
  <g>
    <path class="cls-1" d="M246.36,45.1c0,.87-.08,1.74-.25,2.61-1.35,7.06-8.04,12.07-16.51,13.29-2.35.34-4.84.39-7.39.1-.81-.09-1.61-.2-2.43-.36-4.11-.79-7.81-2.34-10.88-4.42-6.41-4.31-10.03-10.89-8.78-17.39,1.83-9.62,13.62-15.45,26.32-13.02,11.55,2.2,19.88,10.48,19.91,19.19Z"/>
    <path class="cls-1" d="M235.31,54.91c-1.96,1.97-3.87,4-5.71,6.08-4.49,5.05-8.61,10.42-12.33,16.06l-10.6-7.64c1.8-3.03,2.65-6.58,2.54-10.11-.03-1.01-.13-2.01-.31-2.99-.4-2.22-1.19-4.36-2.37-6.29,6.87-1.29,14.05-.8,20.7,1.33,2.8.89,5.51,2.09,8.06,3.56Z"/>
    <path class="cls-1" d="M204.23,202.19c-.25,1.31-.69,2.56-1.3,3.72-3.79,7.34-14.06,11.39-25.02,9.3-12.7-2.43-21.51-12.19-19.67-21.81.46-2.4,1.53-4.57,3.1-6.43,4.68-5.58,13.69-8.41,23.22-6.59,12.7,2.43,21.51,12.19,19.67,21.81Z"/>
    <path class="cls-3" d="M167.78,192.71c-.48,0-.9-.34-.98-.83-.09-.54.27-1.06.82-1.15,4.13-.71,7.75-3.7,9.22-7.62.19-.52.77-.78,1.29-.58.52.19.78.77.58,1.29-1.72,4.57-5.94,8.06-10.76,8.88-.06,0-.11.01-.17.01Z"/>
    <path class="cls-3" d="M194.94,200.37c-.45,0-.86-.31-.97-.77-1.22-5.14-1.56-10.41-1.01-15.67.06-.55.54-.94,1.1-.89.55.06.95.55.89,1.1-.52,5.03-.19,10.08.97,15,.13.54-.21,1.08-.74,1.2-.08.02-.16.03-.23.03Z"/>
    <path class="cls-1" d="M129.25,105.31c-.04.16-.09.31-.14.46-1.23,3.89-3.14,7.33-5.5,10.13-5.46,6.5-13.29,9.66-20.46,7.4-5.27-1.66-9.16-5.91-11.14-11.4-1.89-5.21-2.07-11.54-.09-17.84,4.07-12.91,15.69-20.76,25.95-17.53,7.31,2.3,11.96,9.61,12.57,18.27.24,3.37-.14,6.93-1.2,10.5Z"/>
    <path class="cls-1" d="M150.5,101.05c-2.02,4.78-4.03,9.56-6.05,14.35-.53,1.24-1.1,2.55-2.2,3.32-2.28,1.6-5.35.18-7.88-1-2.93-1.36-6.7-1.87-10.76-1.81-7.66.07-16.34,2.08-22.16,3.86l7.01-18.32,8.17-21.37c2.98,6.06,5.79,11.9,12.17,14.14.53.18,1.08.39,1.64.6,2.95,1.1,6.27,2.47,9.6,3.65,3.61,1.28,7.25,2.33,10.46,2.59Z"/>
    <path class="cls-1" d="M262.42,140.24c-7.65,34.78-42.05,56.76-76.83,49.11-24.03-5.29-41.95-23.36-48.21-45.49-2.8-9.89-3.27-20.6-.9-31.35,7.66-34.78,42.06-56.77,76.84-49.11,3.31.73,6.5,1.7,9.56,2.89,29.13,11.31,46.48,42.47,39.54,73.94Z"/>
    <path class="cls-2" d="M246.54,127.35c-7.02,31.9-38.57,52.06-70.46,45.04-17.03-3.74-30.71-14.48-38.69-28.53-2.8-9.89-3.27-20.6-.9-31.35,7.66-34.78,42.06-56.77,76.84-49.11,3.31.73,6.5,1.7,9.56,2.89,18.87,13.31,28.94,37.09,23.66,61.05Z"/>
    <path class="cls-4" d="M216.05,64.07c-.9-.24-1.81-.47-2.73-.67-34.78-7.66-69.18,14.33-76.84,49.11-2.37,10.74-1.9,21.45.9,31.35.74,2.64,1.66,5.22,2.73,7.73-2-9.58-2.04-19.74.2-29.9,7.78-35.31,40.34-58.73,75.38-56.05.06-.53.18-1.05.35-1.57Z"/>
    <ellipse class="cls-1" cx="167.63" cy="80.07" rx="8.57" ry="6.49" transform="translate(-16.36 54.39) rotate(-17.58)"/>
    <ellipse class="cls-1" cx="112.15" cy="184.37" rx="18.09" ry="23.88" transform="translate(-99.61 142.81) rotate(-47.58)"/>
    <path class="cls-1" d="M244.02,102.57c-.21.21-.45.39-.7.56-2.66,1.7-6.64.23-8.9-3.29-1.4-2.19-1.8-4.66-1.25-6.63.33-1.18,1.01-2.18,2.01-2.82,2.66-1.7,6.64-.23,8.9,3.29,0,0,0,.02.02.03,2.01,3.17,1.93,6.92-.07,8.86Z"/>
    <path class="cls-1" d="M250.53,137.65c-.19.89-.49,1.72-.88,2.47-1.45,2.92-4.08,4.67-6.61,4.11-.16-.04-.31-.08-.46-.12-2.89-.98-4.48-4.86-3.57-8.99.08-.38.18-.74.31-1.09,1.23-3.72,4.27-6.13,7.18-5.5.36.08.7.2,1.03.37,2.52,1.26,3.85,4.91,3,8.75Z"/>
    <path class="cls-1" d="M174.95,75.89c-3.49-4.58-11.5-24.77-7.32-34.35,3.4-7.8-38.58,14.91-38.58,14.91,0,0,18.67,7.37,30.41,26.22"/>
    <path class="cls-2" d="M153.97,64.96c-10.79,3.42-21.62.6-26.39-6.28-.53-.77-.98-1.6-1.36-2.47-.18-.41-.33-.84-.47-1.27-3.01-9.52,4.72-20.46,17.3-24.45,8.97-2.84,17.97-1.37,23.49,3.17,1.15.94,2.14,2.01,2.95,3.2.76,1.11,1.36,2.34,1.78,3.65,3.01,9.53-4.72,20.47-17.3,24.45Z"/>
    <path class="cls-4" d="M166.54,33.66c-5.68-1.38-11.6-1.83-17.34-.83-6.45,1.12-12.66,4.15-17.04,9.02-3.53,3.94-5.75,9.11-5.93,14.36-.18-.41-.33-.84-.47-1.27-3.01-9.52,4.72-20.46,17.3-24.45,8.97-2.84,17.97-1.37,23.49,3.17Z"/>
    <path class="cls-1" d="M153.97,64.96c-10.79,3.42-21.62.6-26.39-6.28,5,2.16,10.55,3.06,15.99,2.57,7.33-.67,14.39-3.9,19.69-9,2.59-2.49,4.81-5.49,5.85-8.93.63-2.08.79-4.33.38-6.46.76,1.11,1.36,2.34,1.78,3.65,3.01,9.53-4.72,20.47-17.3,24.45Z"/>
    <path class="cls-1" d="M275.51,89.86c-8.41-4.04-31.49,12.72-31.49,12.72l-4.32-5.94-4.52-6.23c14.46-9.29,25.03-22.53,25.03-22.53l6.4,9.19.71,1.02,8.19,11.78Z"/>
    <path class="cls-2" d="M267.36,78.05l-.04.03-5.52,3.63c-5.91,4-11.81,8-17.7,12.01-1.02.69-2.03,1.38-3.05,2.07-.43.29-.88.59-1.34.85-1.24.7-2.57,1.17-3.88.75-1.67-.53-2.56-2.38-2.65-4.16.33-1.18,1.01-2.18,2.01-2.82,14.46-9.29,25.03-22.53,25.03-22.53l6.4,9.19c.25.34.49.67.75.99Z"/>
    <path class="cls-1" d="M154.95,164.64c-.42.46-.9.82-1.45,1.09-2.59,1.32-6.36.57-9.25-2.07-.36-.33-.7-.68-1-1.04-2.64-3.11-3.11-7.15-.95-9.53,2.42-2.65,7.2-2.21,10.7.98.42.39.8.79,1.14,1.21,2.52,3.09,2.94,7.03.81,9.36Z"/>
    <path class="cls-1" d="M227.38,178.5c-.51.46-1.06.88-1.67,1.26-4.68,3-10.32,2.54-12.59-1-1.39-2.17-1.19-5.01.25-7.57.1-.18.19-.35.31-.52.14-.22.29-.44.46-.66,0,0,.02-.02.02-.03.86-1.16,1.99-2.21,3.34-3.08,4.69-2.99,10.32-2.54,12.59,1.01,0,0,.02.03.05.09,1.9,3.09.66,7.46-2.76,10.49Z"/>
    <path class="cls-1" d="M153.51,165.74c-5.09,2.69-25.31,20.25-25.54,30.71-.18,8.51-28.19-26.17-28.19-26.17,0,0,4.83-.31,12.31-2.44,7.93-2.26,18.86-6.57,30.21-14.75l5.65,6.38,5.55,6.26h0Z"/>
    <path class="cls-2" d="M150.94,154.96c0,.05,0,.1-.02.16-.22,1.86-1.41,3.38-3,4.3s-3.11,2.15-4.68,3.2c-5.79,3.85-11.58,7.7-17.37,11.57l-13.79-6.35c7.93-2.26,18.86-6.57,30.21-14.75,1.81-1.98,6.83-2.79,8.34.05.29.55.36,1.2.3,1.82Z"/>
    <path class="cls-2" d="M129.78,200.47c-6.74,7.38-20.09,6.14-29.82-2.75-3.66-3.35-6.29-7.3-7.78-11.33-2.48-6.67-1.84-13.52,2.36-18.12,6.73-7.37,20.09-6.13,29.82,2.75,1.3,1.19,2.47,2.45,3.51,3.77,6.71,8.55,7.76,19.3,1.92,25.69Z"/>
    <path class="cls-4" d="M129.65,178.15c-3.76-2.63-7.55-5.27-11.74-7.14-4.19-1.88-8.85-2.95-13.39-2.29-4.54.67-8.92,3.28-11.04,7.34-1.42,2.74-1.75,5.95-1.46,9.03.04.43.1.86.16,1.29-2.48-6.67-1.84-13.52,2.36-18.12,6.73-7.37,20.09-6.13,29.82,2.75,1.3,1.19,2.47,2.45,3.51,3.77.61,1.12,1.2,2.25,1.8,3.37Z"/>
    <path class="cls-1" d="M261.58,198.75l-32.1,20.6s-.65-3.4-2.21-8.71c-2.36-7.98-6.77-20.28-14.14-31.88l10.04-6.42,6.91-4.43s.02.03.05.09c1.13,1.81,19.4,30.92,31.44,30.74Z"/>
    <path class="cls-2" d="M237.61,197.64c-.08,1.57-1.01,2.96-1.95,4.22-2.45,3.24-5.27,6.19-8.39,8.78-2.36-7.98-6.77-20.28-14.14-31.88-1.39-2.17-1.19-5.01.25-7.57h.06c.07-.18.15-.35.25-.52.14-.22.29-.44.46-.66,0,0,.02-.02.02-.03,1.24-1.45,3.42-2.09,5.2-1.38,1.53.62,2.59,2.02,3.56,3.37.09.12.17.24.25.36,1.44,2.02,2.84,4.08,4.21,6.15,3.16,4.8,6.11,9.74,8.84,14.8.73,1.35,1.46,2.8,1.38,4.34Z"/>
    <path class="cls-1" d="M278.09,166.45c1.43-6.47-35.53-22.23-35.53-22.23l.03-.12,1.31-5.98,2.11-9.6c.51.13,1.02.25,1.52.37,18.32,4.28,31.7,1.77,38.44-.3,3.23-.98,4.93-1.88,4.93-1.88l-12.81,39.73Z"/>
    <path class="cls-2" d="M285.97,128.6c-2.56,4.29-5.12,8.58-7.68,12.87-.91,1.54-1.94,3.17-3.58,3.88-1.56.67-3.35.39-5.01.05-6.78-1.35-13.48-3.12-20.05-5.28-1.74-.56-3.45-1.16-5.17-1.78-.19-.07-.39-.14-.58-.21-.96-.38-1.91-.78-2.73-1.39-.89-.67-1.63-1.62-1.84-2.71,1.23-3.72,4.27-6.13,7.18-5.5.36.08.7.2,1.03.37,18.32,4.28,31.7,1.77,38.44-.3Z"/>
    <path class="cls-3" d="M257.52,152.03c-.13,0-.27-.03-.39-.08l-13.22-5.66c-1.52-.65-3.25-1.39-4.53-2.8-1.23-1.35-1.95-3.31-2.04-5.51-.07-1.82.25-3.56.65-5.49.11-.54.64-.89,1.18-.78.54.11.89.64.78,1.18-.37,1.8-.67,3.41-.61,5,.07,1.73.61,3.24,1.53,4.24.98,1.08,2.49,1.73,3.83,2.3l13.22,5.66c.51.22.74.8.52,1.31-.16.38-.53.61-.92.61Z"/>
    <path class="cls-3" d="M240.49,105.04c-2.58,0-5.15-1.47-6.38-3.75-.26-.49-.08-1.09.4-1.36.49-.26,1.09-.08,1.36.4,1,1.85,3.24,2.97,5.32,2.65,1.49-.23,2.86-1.1,4.18-1.93l7.51-4.74c.47-.29,1.08-.15,1.38.31.29.47.16,1.08-.31,1.38l-7.51,4.74c-1.43.9-3.05,1.92-4.95,2.22-.33.05-.67.08-1,.08Z"/>
    <path class="cls-3" d="M146.9,66.12c-.52,0-.96-.4-1-.93-.04-.55.38-1.03.93-1.07,6.61-.44,13.1-2.97,18.28-7.11.43-.35,1.06-.28,1.41.16.35.43.28,1.06-.16,1.41-5.49,4.39-12.38,7.08-19.39,7.55-.02,0-.05,0-.07,0Z"/>
    <path class="cls-3" d="M166.12,88.09c-.06,0-.13,0-.2,0-.55,0-.99-.46-.98-1.02,0-.55.45-.98,1-.98.06,0,.12,0,.18,0,2.75,0,5.46-1.07,7.46-2.96.72-.68,1.94-2.07,1.95-3.69,0-1.16-.6-2.36-1.14-3.41l-3.51-6.9c-.25-.49-.05-1.09.44-1.34.5-.25,1.1-.05,1.34.44l3.51,6.9c.61,1.2,1.37,2.69,1.36,4.33-.02,2.24-1.41,4.03-2.58,5.13-2.37,2.23-5.58,3.51-8.83,3.51Z"/>
    <path class="cls-3" d="M131.8,183.53c-.45,0-.85-.3-.97-.75-1.62-6.32-6.4-11.73-12.47-14.11-.51-.2-.77-.78-.57-1.3.2-.51.78-.77,1.3-.57,6.66,2.61,11.9,8.54,13.68,15.47.14.54-.19,1.08-.72,1.22-.08.02-.17.03-.25.03Z"/>
    <path class="cls-3" d="M127.51,94.52c-.1,0-.2-.01-.29-.04-5.25-1.61-10.03-4.56-13.84-8.51-.38-.4-.37-1.03.03-1.41.4-.38,1.03-.37,1.41.03,3.57,3.71,8.07,6.47,12.99,7.98.53.16.82.72.66,1.25-.13.43-.53.71-.96.71Z"/>
    <path class="cls-3" d="M108.02,117.61c-.42,0-.81-.27-.95-.69-.17-.52.11-1.09.64-1.26,4.22-1.38,8.89-1.45,13.14-.19.53.16.83.71.67,1.24-.16.53-.71.83-1.24.67-3.87-1.15-8.11-1.09-11.95.17-.1.03-.21.05-.31.05Z"/>
    <g>
      <circle class="cls-1" cx="195.11" cy="129.57" r="23.38"/>
      <circle class="cls-2" cx="186.92" cy="123.62" r="24.51"/>
      <path class="cls-4" d="M206.96,109.5c-3.03-2.71-6.78-4.69-11.03-5.63-13.22-2.91-26.3,5.45-29.21,18.67-1.54,7,.08,13.95,3.91,19.39-6.41-5.71-9.61-14.62-7.64-23.58,2.91-13.23,15.99-21.59,29.21-18.68,6.22,1.38,11.38,5,14.77,9.83Z"/>
      <path class="cls-1" d="M208.6,112.18c-.12,4.34-.9,8.58-2.19,12.16-5.96,16.45-25.51,20.25-39.71,13.12,3.4,4.97,8.61,8.71,14.96,10.1,13.22,2.91,26.3-5.45,29.21-18.67,1.3-5.89.35-11.76-2.26-16.71Z"/>
      <path class="cls-5" d="M186.93,150.13c-1.88,0-3.79-.2-5.7-.62-6.92-1.52-12.83-5.65-16.64-11.62-3.81-5.97-5.08-13.06-3.55-19.98,3.14-14.28,17.32-23.33,31.59-20.19,14.28,3.14,23.34,17.32,20.19,31.59-2.72,12.36-13.72,20.82-25.89,20.82ZM186.92,101.1c-10.34,0-19.67,7.18-21.98,17.67-1.29,5.87-.22,11.9,3.02,16.96,3.24,5.07,8.26,8.57,14.13,9.86,12.12,2.67,24.16-5.02,26.83-17.15,2.67-12.12-5.02-24.16-17.15-26.83-1.62-.36-3.25-.53-4.84-.53Z"/>
      <path class="cls-3" d="M172.23,121.65c-1.68,5.47-.88,11.62,3.47,15.84,3.38,3.27,8.47,4.55,13.07,3.57,4.6-.98,8.64-4.09,11.06-8.12,2.22-3.7,3.13-8.22,2.28-12.46-1.41-7-9.8-11.75-16.58-10.93-6.51.79-11.44,6.02-13.31,12.09Z"/>
    </g>
    <path class="cls-3" d="M136.77,36.69c-2.99,1.98-5.43,5-6.09,8.53-.73,3.9.99,6.43,4.4,8.14,2.94,1.47,6.41,1.85,9.62,1.26,3.58-.66,6.86-2.37,9.8-4.47,2.58-1.85,5.3-4.63,6.46-7.65.87-2.25.82-4.96-.59-6.91-.99-1.37-2.55-2.26-4.18-2.71-4.14-1.15-8.3-.45-12.32.79-2.49.77-4.92,1.58-7.11,3.03Z"/>
    <path class="cls-2" d="M137.69,97.59c-1.83,2.71-3.38,5.62-4.56,8.62-1.01,0-2.06-.32-3.03-.63-.28-.1-.57-.19-.85-.28-4.47-1.47-8.98-2.93-13.64-3.59-2.36-.33-4.77-.46-7.14-.27-2.63.19-5.21.76-7.61,1.82-3.87,1.7-7.22,4.79-8.84,8.63-.41-1.12-.74-2.3-.97-3.51-.89-4.43-.67-9.39.89-14.33,4.07-12.91,15.69-20.76,25.95-17.53,5.11,1.61,8.92,5.67,10.96,10.93.88,2.26,1.43,4.74,1.6,7.34,2.25.83,4.72,1.83,7.24,2.79Z"/>
    <path class="cls-4" d="M128.85,87.46c-2.66-3.46-7.08-5.42-11.47-5.57-4.7-.15-9.33,1.6-13.22,4.24-7.35,5.01-12.24,13.42-13.11,22.25-.89-4.43-.67-9.39.89-14.33,4.07-12.91,15.69-20.76,25.95-17.53,5.11,1.61,8.92,5.67,10.96,10.93Z"/>
    <path class="cls-3" d="M98.54,192.17c2.74,5.17,7.93,9.03,13.9,9.6,2.12.2,4.36-.02,6.2-1.1,1.87-1.1,3.17-3.04,3.79-5.12s.61-4.31.29-6.46c-.77-5.23-3.47-10.26-7.75-13.37-3.53-2.57-9.35-4.36-13.6-2.5-3.3,1.44-4.72,6.86-4.87,10.1-.15,3.12.61,6.16,2.04,8.86Z"/>
    <path class="cls-3" d="M155.34,165.71c-.15,0-.3-.03-.44-.1-.49-.25-.7-.85-.45-1.34,1.48-2.98,1.01-6.83-1.13-9.37-2.15-2.54-5.87-3.64-9.05-2.67-.53.16-1.09-.14-1.25-.67s.14-1.09.67-1.25c3.92-1.19,8.51.17,11.16,3.3,2.65,3.13,3.22,7.88,1.4,11.55-.17.35-.53.55-.9.55Z"/>
    <path class="cls-2" d="M246.36,45.1c-1.48-.56-2.87-.49-4.39-.61-1.46-.12-2.73-.5-4.23-.32-2.88.34-5.62,1.77-7.74,3.72-4.54,4.17-6.89,10.38-9.6,15.78-.47.95-.96,1.89-1.52,2.79-.4.63-.91,1.28-1.65,1.44-.58.12-1.17-.09-1.72-.29-2.61-.96-6.26,1.3-8.88.34.71-2.31,2.9-8.04,3.18-10.44.25-2.05.42-4.13.38-6.2-.07-3.9-1.01-8.02-4.18-10.58-1.69-1.37-3.63-2.28-5.66-2.76.06-.22.12-.44.19-.66,2.77-8.65,13.93-13.7,25.91-11.41,8.87,1.68,15.85,6.98,18.62,13.28.12.28.24.56.34.84.61,1.65.95,3.36.96,5.07Z"/>
    <path class="cls-3" d="M221.98,67.13c-.1,0-.19-.01-.29-.04l-11.67-3.5c-.53-.16-.83-.72-.67-1.25.16-.53.72-.83,1.25-.67l11.67,3.5c.53.16.83.72.67,1.25-.13.43-.53.71-.96.71Z"/>
    <path class="cls-4" d="M245.06,39.18c-5.64-6.16-13.79-9.99-22.13-10.26-8.18-.27-16.4,2.86-22.39,8.4,2.77-8.65,13.93-13.7,25.91-11.41,8.87,1.68,15.85,6.98,18.62,13.28Z"/>
    <ellipse class="cls-1" cx="275.5" cy="72.15" rx="16.27" ry="21.48" transform="translate(4.51 159.73) rotate(-32.58)"/>
    <path class="cls-2" d="M265.87,62.13c2.64-5,7.05-7.88,12.04-8.62-4.85-2.06-9.95-2.04-13.98.54-7.57,4.84-8.53,16.87-2.14,26.86,1.74,2.72,3.84,5.01,6.14,6.8-4.42-7.64-6.25-17.63-2.06-25.58Z"/>
    <path class="cls-3" d="M267.82,65.36c-.42,3.75.9,7.51,2.82,10.76,1.99,3.37,4.78,6.45,8.45,7.8,3.67,1.35,8.3.54,10.62-2.61,1.45-1.98,1.83-4.56,1.68-7.01-.27-4.4-2.16-8.69-5.23-11.86-2.63-2.72-7.49-5.87-11.48-5.58s-6.48,5.13-6.86,8.5Z"/>
    <path class="cls-3" d="M268.37,88.5c-.19,0-.37-.05-.54-.16-5.61-3.62-9.52-9.72-10.48-16.33-.08-.55.3-1.05.85-1.13.55-.09,1.05.3,1.13.85.87,6.04,4.45,11.62,9.58,14.93.46.3.6.92.3,1.38-.19.3-.51.46-.84.46Z"/>
    <path class="cls-2" d="M202.93,205.91c-3.79,7.34-14.06,11.39-25.02,9.3-12.7-2.43-21.51-12.19-19.67-21.81.46-2.4,1.53-4.57,3.1-6.43-1.89,3.63-1.7,8.26.1,11.98,2.05,4.28,5.94,7.46,10.21,9.52,9.89,4.77,22.29,3.68,31.28-2.55Z"/>
    <ellipse class="cls-1" cx="246.35" cy="212.04" rx="23.41" ry="17.73" transform="translate(-75.42 166.05) rotate(-32.58)"/>
    <path class="cls-2" d="M228.84,218.23c4.47-13.78,17.23-22.18,31.01-24.05-6.38-2.91-15.26-2.05-23.04,2.93-10.89,6.96-15.45,19.3-10.17,27.55.27.42.57.82.88,1.2.19-2.92.68-5.63,1.33-7.62Z"/>
    <path class="cls-3" d="M237.67,210.34c-1.97,2.04-3.72,4.52-3.97,7.35-.31,3.53,1.91,7,5.02,8.68s6.94,1.72,10.31.64c3.37-1.08,6.32-3.2,8.88-5.64,2.21-2.11,4.22-4.54,5.28-7.4,1.06-2.87,1.07-6.24-.52-8.85-5.41-8.89-20.13.2-25.01,5.23Z"/>
    <path class="cls-3" d="M227.91,207.05c-.23,0-.46-.08-.64-.24-.42-.36-.48-.99-.12-1.41,2.87-3.41,5.74-6.08,8.76-8.17,3.57-2.47,7.31-4.07,11.1-4.76.55-.1,1.06.26,1.16.81.1.54-.26,1.06-.81,1.16-3.51.64-6.99,2.13-10.32,4.44-2.87,1.98-5.61,4.54-8.36,7.82-.2.23-.48.36-.77.36Z"/>
    <path class="cls-3" d="M217.16,187.26c-.4,0-.77-.24-.93-.63l-4.03-10.13c-.35-.88-.78-1.97-.75-3.14.05-1.61.96-3.19,2.72-4.69,1.93-1.65,4.23-2.89,6.67-3.59.53-.15,1.08.16,1.24.69.15.53-.16,1.08-.69,1.24-2.16.62-4.21,1.72-5.92,3.18-1.31,1.12-1.99,2.21-2.02,3.24-.02.76.3,1.56.6,2.34l4.03,10.13c.2.51-.05,1.09-.56,1.3-.12.05-.25.07-.37.07Z"/>
    <ellipse class="cls-1" cx="287.41" cy="148.13" rx="24.51" ry="18.99" transform="translate(80.95 396.97) rotate(-77.58)"/>
    <path class="cls-2" d="M299.11,127.35c-4.01.4-7.87,1.81-11.05,4.29-3.06,2.38-5.39,5.6-7.16,9.04-4.72,9.19-5.4,20.31-2.15,30.1-5.77-3.31-8.27-11.31-7.94-20.13.09-2.63.44-5.33,1.03-8,2.91-13.22,10.6-20.7,20.84-18.45.22.05.44.11.66.17,2.14.56,4.08,1.6,5.78,2.99Z"/>
    <path class="cls-3" d="M279.66,156.68c.33,1.96.93,3.94,2.2,5.46,2.55,3.05,7.35,3.46,10.94,1.76,3.59-1.7,6.13-5.08,7.9-8.64,1.57-3.15,2.68-6.58,2.77-10.1.09-3.52-.92-7.13-3.17-9.84-1.66-2-4.05-3.45-6.63-3.88s-4.39,1.38-6.22,3.05c-3.82,3.52-6.48,8.27-7.57,13.35-.62,2.9-.73,5.91-.24,8.84Z"/>
    <path class="cls-3" d="M270.45,155.76c-.52,0-.95-.4-1-.92-.58-7.26.46-14.7,2.99-21.52.19-.52.77-.78,1.29-.59.52.19.78.77.59,1.29-2.43,6.55-3.42,13.7-2.87,20.67.04.55-.37,1.03-.92,1.08-.03,0-.05,0-.08,0Z"/>
    <path class="cls-3" d="M200.16,192.15s-.03,0-.04,0c-10.99-.45-22.02-3.25-31.9-8.07-.5-.24-.7-.84-.46-1.34.24-.5.84-.7,1.34-.46,9.64,4.71,20.39,7.43,31.1,7.87.55.02.98.49.96,1.04-.02.54-.46.96-1,.96Z"/>
  </g>
</svg>