<?xml version="1.0" encoding="UTF-8"?>
<svg id="Expanded" xmlns="http://www.w3.org/2000/svg" xmlns:xlink="http://www.w3.org/1999/xlink" viewBox="0 0 400 250">
  <defs>
    <style>
      .cls-1 {
        font-size: 16.12px;
      }

      .cls-1, .cls-2, .cls-3, .cls-4, .cls-5 {
        fill: #6d3108;
      }

      .cls-1, .cls-2, .cls-5 {
        font-weight: 700;
      }

      .cls-1, .cls-5 {
        font-family: RooneySans-Bold, RooneySans;
      }

      .cls-6 {
        fill: #d87625;
      }

      .cls-7 {
        fill: #fff8d9;
      }

      .cls-8 {
        fill: #f4b545;
      }

      .cls-9, .cls-10 {
        fill: none;
      }

      .cls-2 {
        font-family: Inter-Bold, Inter;
        font-variation-settings: 'wght' 700, 'slnt' 0;
      }

      .cls-2, .cls-4 {
        font-size: 10.75px;
      }

      .cls-11 {
        fill: #ffe277;
      }

      .cls-4 {
        font-family: Inter-Regular, Inter;
        font-variation-settings: 'wght' 400, 'slnt' 0;
      }

      .cls-5 {
        font-size: 25.56px;
      }

      .cls-10 {
        stroke: #6d3108;
        stroke-linecap: round;
        stroke-linejoin: round;
        stroke-width: 4px;
      }

      .cls-12 {
        clip-path: url(#clippath);
      }

      .cls-13 {
        opacity: .5;
      }
    </style>
    <clipPath id="clippath">
      <rect class="cls-9" x="40.03" y="58.81" width="325.45" height="146.99" rx="9.21" ry="9.21"/>
    </clipPath>
  </defs>
  <rect class="cls-11" x="40.03" y="58.81" width="325.45" height="146.99" rx="9.21" ry="9.21"/>
  <g class="cls-12">
    <rect class="cls-7" x="57.1" y="-24.16" width="93.98" height="306.62" transform="translate(78.52 -34.74) rotate(30)"/>
    <rect class="cls-8" x="373.42" y="-41.96" width="9.4" height="306.62" transform="translate(106.33 -174.14) rotate(30)"/>
    <rect class="cls-8" x="269.89" y="-29.52" width="70.24" height="306.62" transform="translate(102.76 -135.92) rotate(30)"/>
    <g class="cls-13">
      <path class="cls-8" d="M92.02,229.84c-.27,0-.47-.03-.7-.08-2.85-.65-6.7-5.41-10.27-12.73-4-8.19-7.07-18.36-8.67-28.7-24.12-3.51-41.79-14.43-41.83-18.82,0-.27.04-.56.12-.87,1.53-5.32,18.39-15.23,41.38-18.77,3.51-24.14,14.43-41.8,18.83-41.83.15,0,.3.01.44.03.15.02.28.05.41.08.69.21,1.38.59,2.08,1.16,5.91,4.65,13.74,20.95,16.69,40.24,24.12,3.51,41.8,14.42,41.85,18.81,0,.27-.03.49-.08.71-1.22,5.34-17.94,15.33-41.42,18.92-3.51,24.15-14.43,41.82-18.83,41.85ZM90.88,109.04c-3.47.02-14.37,16.52-17.89,41.34-.03.22-.2.39-.42.42-22.45,3.38-39.5,13.13-40.94,18.1-.06.21-.09.43-.09.6.03,3.47,16.55,14.37,41.34,17.89.22.03.39.2.42.42,1.57,10.36,4.63,20.58,8.63,28.77,3.34,6.84,7.12,11.63,9.62,12.2.15.04.28.05.45.05,3.47-.02,14.35-16.49,17.88-41.27,0-.05,0-.11.02-.16.06-.18.21-.32.4-.35,22.92-3.42,39.84-13.24,40.98-18.23.04-.15.05-.28.05-.47-.03-3.46-16.53-14.35-41.31-17.88-.23-.01-.43-.19-.47-.43-3.16-21.17-11.48-36.12-16.38-39.97-.6-.48-1.19-.81-1.73-.98-.06-.02-.15-.04-.24-.05-.11-.01-.23-.02-.34-.02Z"/>
      <path class="cls-8" d="M91.45,184.4c-8.46,0-15.38-6.85-15.46-15.32-.07-8.52,6.8-15.52,15.32-15.59.04,0,.09,0,.14,0,8.46,0,15.38,6.85,15.46,15.32.07,8.52-6.8,15.52-15.33,15.59-.04,0-.09,0-.14,0ZM91.45,154.48s-.08,0-.13,0c-7.97.07-14.4,6.61-14.33,14.59.07,7.93,6.54,14.33,14.46,14.33.04,0,.08,0,.13,0,7.97-.07,14.4-6.61,14.33-14.59-.07-7.93-6.54-14.33-14.46-14.33Z"/>
      <rect class="cls-8" x="106.41" y="167.86" width="45.44" height="1"/>
      <rect class="cls-8" x="90.38" y="108.54" width="1" height="45.44"/>
      <rect class="cls-8" x="91.08" y="183.9" width="1" height="45.44"/>
      <rect class="cls-8" x="31.45" y="168.57" width="45.04" height="1"/>
      <rect class="cls-8" x="100.16" y="153.59" width="11.62" height="1" transform="translate(-77.92 120.07) rotate(-45)"/>
      <rect class="cls-8" x="71.11" y="183.26" width="11.69" height="1" transform="translate(-107.4 108.24) rotate(-45)"/>
      <rect class="cls-8" x="105.78" y="177.63" width="1" height="11.64" transform="translate(-98.59 128.89) rotate(-45)"/>
      <rect class="cls-8" x="76.11" y="148.61" width="1" height="11.63" transform="translate(-86.75 99.4) rotate(-45)"/>
    </g>
    <g class="cls-13">
      <path class="cls-8" d="M150.38,154.11c-.09,0-.21,0-.35-.04-1.21-.28-2.75-2.15-4.21-5.13-1.54-3.16-2.74-7.08-3.38-11.07-9.04-1.37-16.35-5.55-16.37-7.62,0-.13.02-.27.06-.42.71-2.48,7.75-6.17,16.18-7.52,1.37-9.05,5.55-16.36,7.62-16.37.07,0,.14,0,.21.01.08,0,.14.02.2.04.32.1.62.26.93.51,2.33,1.83,5.4,8.17,6.59,15.68,9.05,1.37,16.36,5.55,16.38,7.61,0,.1,0,.22-.04.36-.55,2.42-7.71,6.23-16.2,7.57-1.37,9.05-5.55,16.37-7.62,16.38ZM149.94,106.94c-1.1,0-5.34,6.43-6.68,15.88-.03.22-.2.39-.42.42-9.31,1.4-15.28,5.26-15.74,6.85-.02.07-.02.13-.02.15.01,1.1,6.44,5.34,15.88,6.68.22.03.39.2.42.42.61,4.02,1.79,7.98,3.34,11.15,1.44,2.95,2.82,4.43,3.55,4.6l.11.51v-.5c1.1,0,5.33-6.41,6.68-15.84,0-.05.01-.1.03-.15.06-.17.21-.3.39-.33,9.11-1.36,15.37-5.23,15.75-6.88l.51-.11h-.5c-.01-1.1-6.43-5.33-15.86-6.68-.23-.02-.42-.19-.45-.42-1.22-8.18-4.41-13.94-6.28-15.41-.26-.21-.45-.29-.57-.33-.07-.01-.1-.02-.14-.02Z"/>
      <path class="cls-8" d="M150.16,136.37c-3.47,0-6.31-2.81-6.34-6.29-.01-1.69.63-3.29,1.82-4.5,1.19-1.21,2.77-1.88,4.47-1.9h.06c1.67,0,3.25.64,4.44,1.82,1.21,1.19,1.88,2.77,1.9,4.47h0c.03,3.5-2.79,6.37-6.29,6.4h-.06ZM150.16,124.68h-.05c-1.43.01-2.76.58-3.76,1.6s-1.54,2.36-1.53,3.79c.03,2.93,2.42,5.29,5.34,5.29h.05c2.94-.03,5.32-2.44,5.29-5.39-.01-1.43-.58-2.76-1.6-3.76-1.01-.99-2.33-1.53-3.74-1.53Z"/>
      <rect class="cls-8" x="153.56" y="123.73" width="4.54" height="1" transform="translate(-42.2 146.57) rotate(-45)"/>
      <rect class="cls-8" x="142.21" y="135.31" width="4.57" height="1" transform="translate(-53.71 141.95) rotate(-45)"/>
      <rect class="cls-8" x="143.86" y="122.09" width="1" height="4.54" transform="translate(-45.65 138.49) rotate(-45)"/>
      <rect class="cls-8" x="155.45" y="133.42" width="1" height="4.54" transform="translate(-50.27 150.03) rotate(-45)"/>
    </g>
    <g class="cls-13">
      <path class="cls-6" d="M328.22,124.27c-.14,0-.26-.01-.38-.05-1.34-.31-3.14-2.49-4.77-5.84-1.77-3.63-3.14-8.14-3.87-12.72-10.35-1.55-18.73-6.32-18.75-8.66,0-.15.02-.3.07-.46.81-2.82,8.87-7.04,18.54-8.57,1.55-10.36,6.32-18.73,8.67-18.75.08,0,.15,0,.23.01.09.01.16.03.22.04.35.11.69.29,1.04.57,2.66,2.1,6.18,9.36,7.54,17.98,10.35,1.55,18.73,6.31,18.76,8.66,0,.1,0,.24-.05.39-.63,2.76-8.83,7.1-18.55,8.63-1.55,10.37-6.32,18.74-8.67,18.76ZM327.72,70.22c-1.32,0-6.16,7.19-7.73,18.26-.03.22-.2.39-.42.42-10.7,1.61-17.56,6.06-18.09,7.9-.03.1-.03.16-.03.19.01,1.32,7.2,6.16,18.26,7.73.22.03.39.2.42.42.7,4.61,2.06,9.15,3.84,12.79,1.66,3.4,3.26,5.11,4.12,5.31.05.01.09.02.14.02,1.32,0,6.15-7.17,7.72-18.21,0-.05,0-.09.02-.14.06-.18.21-.31.4-.34,10.47-1.56,17.67-6.03,18.11-7.94.01-.05.02-.09.02-.15-.01-1.28-7.39-6.18-18.23-7.72-.23-.02-.42-.19-.45-.42-1.4-9.4-5.07-16.01-7.22-17.71-.24-.19-.48-.33-.68-.39-.09-.02-.14-.02-.18-.02Z"/>
      <path class="cls-6" d="M327.97,103.94c-1.9,0-3.68-.73-5.04-2.06-1.37-1.35-2.13-3.15-2.15-5.07-.03-3.97,3.16-7.22,7.13-7.26.02,0,.04,0,.06,0,3.94,0,7.16,3.19,7.19,7.13.02,1.92-.72,3.73-2.06,5.1-1.35,1.37-3.15,2.13-5.07,2.15-.02,0-.04,0-.07,0ZM327.97,90.55s-.04,0-.06,0c-3.41.03-6.17,2.83-6.14,6.25.01,1.65.67,3.2,1.85,4.36,1.18,1.16,2.73,1.76,4.39,1.78,3.42-.03,6.17-2.83,6.14-6.25-.03-3.4-2.8-6.14-6.19-6.14Z"/>
      <rect class="cls-6" x="331.87" y="89.6" width="5.2" height="1" transform="translate(34.25 262.89) rotate(-45)"/>
      <rect class="cls-6" x="318.87" y="102.87" width="5.23" height="1" transform="translate(21.07 257.6) rotate(-45)"/>
      <rect class="cls-6" x="320.83" y="87.65" width="1" height="5.2" transform="translate(30.3 253.65) rotate(-45)"/>
      <rect class="cls-6" x="334.11" y="100.63" width="1" height="5.21" transform="translate(25.01 266.84) rotate(-45)"/>
    </g>
    <g class="cls-13">
      <path class="cls-8" d="M51.5,143.93c-.07,0-.16,0-.28-.03-1.16-.26-2.33-2.43-2.78-3.35-.97-1.99-1.72-4.44-2.14-6.94-5.53-.87-10.39-3.47-10.41-4.99,0-.1.01-.21.04-.32.46-1.62,4.92-4,10.28-4.88.87-5.54,3.47-10.4,4.99-10.41.05,0,.1,0,.15,0,.03,0,.13.02.15.03.23.07.44.19.66.36,1.47,1.16,3.43,5.01,4.23,9.93,5.53.87,10.39,3.47,10.41,4.99,0,.1-.01.19-.03.27-.37,1.61-4.82,4.03-10.29,4.92-.87,5.54-3.47,10.4-4.99,10.41ZM51.25,114.02c-.68.15-3.26,4.02-4.09,9.91-.03.22-.2.39-.42.42-5.59.84-9.54,3.21-9.83,4.21.14.69,4.01,3.27,9.91,4.1.22.03.39.2.42.42.38,2.53,1.13,5.02,2.1,7.02.94,1.93,1.79,2.74,2.13,2.82.67-.14,3.24-3.99,4.08-9.87,0-.04,0-.08.02-.11.05-.19.21-.33.4-.36,5.97-.89,9.65-3.4,9.84-4.23-.15-.67-4.01-3.25-9.89-4.08-.22-.02-.41-.19-.45-.42-.76-5.08-2.79-8.77-3.92-9.66-.15-.12-.25-.16-.3-.18Z"/>
      <path class="cls-8" d="M51.35,132.68c-2.3,0-4.19-1.86-4.21-4.17,0-1.12.42-2.18,1.21-2.98s1.84-1.25,2.96-1.26h.04c2.3,0,4.18,1.86,4.21,4.17h0c0,1.12-.42,2.18-1.21,2.98s-1.84,1.25-2.96,1.26h-.04ZM51.35,125.27h-.03c-.86,0-1.66.35-2.26.96-.6.61-.93,1.42-.92,2.27.01,1.77,1.48,3.22,3.23,3.18.86,0,1.66-.35,2.26-.96.6-.61.93-1.42.92-2.27h0c-.01-1.76-1.45-3.18-3.21-3.18Z"/>
    </g>
    <rect class="cls-7" x="203.59" y="-39.61" width="18.79" height="306.62" transform="translate(85.39 -91.26) rotate(30)"/>
  </g>
  <rect class="cls-10" x="40.03" y="58.81" width="325.45" height="146.99" rx="9.21" ry="9.21"/>
  <text class="cls-5" transform="translate(68.46 100.18)"><tspan x="0" y="0">LOTTERY</tspan></text>
  <text class="cls-1" transform="translate(220.4 96.32)"><tspan x="0" y="0">1 4 1 5 1 1 2</tspan></text>
  <text class="cls-4" transform="translate(240.98 128.34)"><tspan x="0" y="0">24 JUNE 1932</tspan></text>
  <text class="cls-2" transform="translate(229.13 154.37)"><tspan x="0" y="0" xml:space="preserve">Period  01   Set  99</tspan></text>
  <g>
    <rect class="cls-3" x="220.69" y="161.36" width="1.51" height="26.86"/>
    <rect class="cls-3" x="223.54" y="161.36" width="1.51" height="26.86"/>
    <rect class="cls-3" x="227.91" y="161.36" width="1.34" height="26.86"/>
    <rect class="cls-3" x="229.25" y="161.36" width="1.51" height="26.86"/>
    <rect class="cls-3" x="232.1" y="161.36" width="1.51" height="26.86"/>
    <rect class="cls-3" x="234.96" y="161.36" width="1.51" height="26.86"/>
    <rect class="cls-3" x="237.81" y="161.36" width="1.51" height="26.86"/>
    <rect class="cls-3" x="241.42" y="161.36" width=".76" height="26.86"/>
    <rect class="cls-3" x="243.52" y="161.36" width="1.51" height="26.86"/>
    <rect class="cls-3" x="247.89" y="161.36" width="1.51" height="26.86"/>
    <rect class="cls-3" x="249.23" y="161.36" width="1.51" height="26.86"/>
    <rect class="cls-3" x="252.08" y="161.36" width="1.51" height="26.86"/>
    <rect class="cls-3" x="254.94" y="161.36" width=".76" height="26.86"/>
    <rect class="cls-3" x="257.79" y="161.36" width="1.51" height="26.86"/>
    <rect class="cls-3" x="260.65" y="161.36" width="1.51" height="26.86"/>
    <rect class="cls-3" x="265.01" y="161.36" width="1.34" height="26.86"/>
    <rect class="cls-3" x="266.35" y="161.36" width="1.51" height="26.86"/>
    <rect class="cls-3" x="269.21" y="161.36" width="1.51" height="26.86"/>
    <rect class="cls-3" x="270.72" y="161.36" width="1.34" height="26.86"/>
    <rect class="cls-3" x="274.92" y="161.36" width="1.51" height="26.86"/>
    <rect class="cls-3" x="278.53" y="161.36" width=".76" height="26.86"/>
    <rect class="cls-3" x="281.38" y="161.36" width=".76" height="26.86"/>
    <rect class="cls-3" x="283.48" y="161.36" width="1.51" height="26.86"/>
    <rect class="cls-3" x="286.33" y="161.36" width="1.51" height="26.86"/>
    <rect class="cls-3" x="289.19" y="161.36" width=".74" height="26.86"/>
    <rect class="cls-3" x="293.55" y="161.36" width="1.34" height="26.86"/>
    <rect class="cls-3" x="294.9" y="161.36" width="1.51" height="26.86"/>
    <rect class="cls-3" x="297.75" y="161.36" width="1.51" height="26.86"/>
    <rect class="cls-3" x="300.6" y="161.36" width=".76" height="26.86"/>
    <rect class="cls-3" x="304.21" y="161.36" width=".76" height="26.86"/>
    <rect class="cls-3" x="306.31" y="161.36" width="1.51" height="26.86"/>
    <rect class="cls-3" x="309.17" y="161.36" width="1.51" height="26.86"/>
    <rect class="cls-3" x="313.53" y="161.36" width="1.34" height="26.86"/>
    <rect class="cls-3" x="314.87" y="161.36" width="1.51" height="26.86"/>
    <rect class="cls-3" x="317.73" y="161.36" width="1.51" height="26.86"/>
    <rect class="cls-3" x="320.58" y="161.36" width="1.51" height="26.86"/>
    <rect class="cls-3" x="324.05" y="161.36" width=".9" height="26.86"/>
    <rect class="cls-3" x="326.29" y="161.36" width="1.51" height="26.86"/>
    <rect class="cls-3" x="327.8" y="161.36" width="1.34" height="26.86"/>
    <rect class="cls-3" x="332.75" y="161.36" width=".76" height="26.86"/>
  </g>
</svg>