<?xml version="1.0" encoding="UTF-8"?>
<svg id="Expanded" xmlns="http://www.w3.org/2000/svg" viewBox="0 0 400 250">
  <defs>
    <style>
      .cls-1 {
        fill: #fff;
      }

      .cls-2 {
        fill: #dfedf2;
      }

      .cls-3 {
        fill: #f43f3f;
      }

      .cls-4 {
        fill: #333;
      }

      .cls-5 {
        fill: #a8b6c1;
      }
    </style>
  </defs>
  <path class="cls-1" d="M290.05,16.23v174.09c-16.98,16.97-26.49,26.48-43.46,43.46H109.95V16.23h180.1Z"/>
  <path class="cls-2" d="M290.05,81.13l-1.13,106.18-12.9-3.7-16.02-2.36s29.12-6.47,30.06-100.11Z"/>
  <path class="cls-2" d="M254.55,195.94s-1.2,11.12-3.76,17.79c-2.89,7.52-10.92,18.69-10.92,18.69l-129.92,1.36v-2.16c28.72-.91,123.8-14.08,144.6-35.67Z"/>
  <path class="cls-4" d="M229.33,235.77h-119.38c-1.1,0-2-.9-2-2V16.23c0-1.1.9-2,2-2h180.1c1.1,0,2,.9,2,2v163.59c0,7.3-2.85,14.17-8.01,19.34-8.71,8.7-15.68,15.67-23.83,23.83-8.13,8.13-19.38,12.8-30.88,12.8ZM111.95,231.77h117.38c10.44,0,20.66-4.24,28.05-11.62,8.15-8.15,15.13-15.13,23.83-23.83,4.41-4.41,6.84-10.27,6.84-16.51V18.23H111.95v213.55Z"/>
  <path class="cls-5" d="M243.55,226.92c-.24,0-.48-.09-.68-.26-.41-.37-.43-1.01-.06-1.41,14.73-16.01,11.62-43.02,11.59-43.29-.06-.46.21-.9.65-1.06.21-.08,5.15-1.82,16.9.73,7.45,1.62,13.42,3.59,13.48,3.61.52.17.81.74.63,1.26-.17.52-.74.81-1.26.63-.06-.02-5.93-1.96-13.27-3.55-8.59-1.86-13.33-1.33-15.04-.99.45,4.94,1.82,28.78-12.19,44.01-.2.21-.47.32-.74.32Z"/>
  <rect class="cls-3" x="123.48" y="32.44" width="151.78" height="50.54" rx="9.02" ry="9.02"/>
  <g>
    <path class="cls-1" d="M153.3,65.9c.53,0,.95.16,1.26.48.31.32.47.82.47,1.49s-.15,1.16-.46,1.49c-.31.32-.73.48-1.27.48h-10.51c-.72,0-1.27-.2-1.65-.59-.39-.39-.58-.94-.58-1.65v-19.98c0-.69.2-1.23.6-1.6.4-.38,1.01-.56,1.85-.56s1.47.19,1.87.56c.4.38.6.91.6,1.6v18.27h7.83Z"/>
    <path class="cls-1" d="M161.26,67.77c-.13.41-.25.75-.37,1.03-.12.28-.26.5-.44.68-.17.17-.38.3-.63.4-.26.1-.56.15-.9.15-.31,0-.61-.05-.91-.14s-.57-.23-.82-.4-.45-.39-.6-.65c-.15-.26-.23-.55-.23-.88,0-.19.03-.38.08-.56.05-.19.14-.48.27-.86l6.17-17.76c.11-.28.2-.54.3-.77.09-.23.19-.44.3-.62.11-.19.21-.36.33-.51.11-.15.24-.3.38-.44.3-.3.68-.54,1.14-.7s1.01-.24,1.68-.24,1.23.08,1.68.24c.45.16.83.39,1.14.7.14.14.27.29.38.44.11.15.22.32.33.51.11.19.21.4.3.62.09.23.19.48.3.77l6.21,17.67c.14.4.23.69.27.88.04.19.06.36.06.53,0,.36-.08.68-.25.95-.17.27-.38.5-.63.68-.26.18-.55.32-.86.41s-.63.14-.93.14c-.34,0-.65-.05-.92-.16-.27-.11-.5-.25-.69-.44-.18-.18-.32-.39-.43-.65-.11-.26-.23-.59-.36-.99l-1.25-3.64h-8.91l-1.18,3.63ZM170.18,60.39l-2.31-6.93c-.17-.48-.31-.93-.44-1.35-.13-.42-.24-.79-.34-1.12-.12-.38-.22-.73-.3-1.06h-.07c-.08.33-.18.68-.28,1.06-.09.33-.2.7-.32,1.12-.12.42-.25.87-.4,1.35l-2.2,6.93h6.65Z"/>
    <path class="cls-1" d="M177.71,49.8c-.12-.19-.22-.36-.32-.53-.09-.16-.17-.32-.24-.48-.06-.15-.11-.3-.15-.44s-.05-.29-.05-.46c0-.38.08-.72.26-1.02.17-.3.39-.57.66-.78.27-.22.57-.38.89-.5.32-.12.64-.18.94-.18.34,0,.62.06.85.17.23.11.42.24.57.4.14.14.28.31.4.52.13.21.3.5.51.87l3.8,6.76c.13.24.25.46.35.69.11.22.2.42.3.6.11.21.2.41.28.6h.07c.08-.2.17-.4.26-.62.08-.19.18-.4.28-.63.11-.23.22-.47.35-.7l3.59-6.67c.21-.4.37-.7.48-.89.11-.19.24-.37.4-.52.18-.18.38-.31.62-.41.24-.1.5-.15.77-.15.32,0,.63.06.94.18.31.12.59.28.83.48.24.21.44.45.59.72.15.28.23.58.23.91,0,.31-.06.59-.19.85-.13.26-.31.58-.53.96l-6.49,10.91v7.37c0,.69-.2,1.23-.6,1.6-.4.38-1.02.56-1.87.56s-1.45-.19-1.85-.56c-.4-.38-.6-.91-.6-1.6v-7.37l-6.35-10.63Z"/>
    <path class="cls-1" d="M197.6,58.05c0-2.01.29-3.8.86-5.39.57-1.59,1.38-2.94,2.43-4.04,1.04-1.1,2.3-1.94,3.77-2.53,1.47-.58,3.09-.87,4.88-.87s3.29.28,4.71.83c1.41.55,2.62,1.35,3.63,2.4,1,1.05,1.78,2.33,2.32,3.83.55,1.5.82,3.2.82,5.1,0,2.01-.29,3.8-.86,5.39-.58,1.58-1.38,2.93-2.43,4.03-1.05,1.1-2.3,1.94-3.76,2.53s-3.08.87-4.87.87-3.29-.28-4.71-.83c-1.41-.55-2.62-1.35-3.63-2.39-1-1.04-1.78-2.32-2.33-3.82-.55-1.5-.83-3.2-.83-5.1ZM202.64,57.68c0,1.41.18,2.65.53,3.72s.83,1.97,1.43,2.7c.6.73,1.31,1.28,2.13,1.65.82.37,1.69.55,2.61.55s1.8-.18,2.6-.55c.81-.36,1.51-.91,2.11-1.63s1.07-1.61,1.41-2.68c.34-1.06.51-2.3.51-3.7s-.17-2.65-.52-3.73c-.35-1.08-.83-1.98-1.43-2.7-.61-.72-1.32-1.27-2.14-1.64-.82-.37-1.69-.55-2.61-.55s-1.79.18-2.6.55c-.8.36-1.5.9-2.1,1.62-.6.72-1.07,1.61-1.42,2.68-.35,1.07-.52,2.31-.52,3.71Z"/>
    <path class="cls-1" d="M230.43,67.8c0,.69-.21,1.23-.62,1.6-.41.38-1.03.56-1.85.56s-1.45-.19-1.85-.56c-.4-.38-.6-.91-.6-1.6v-19.98c0-.7.19-1.25.58-1.65.39-.39.94-.59,1.65-.59h10.68c.52,0,.92.16,1.21.48.29.32.44.79.44,1.43s-.15,1.11-.44,1.43c-.29.32-.7.48-1.21.48h-8.01v6.62h6.62c.49,0,.89.16,1.19.48.3.32.45.8.45,1.42s-.15,1.09-.45,1.41-.7.48-1.19.48h-6.62v7.99Z"/>
    <path class="cls-1" d="M248.52,67.8c0,.69-.21,1.23-.62,1.6-.41.38-1.03.56-1.85.56s-1.45-.19-1.85-.56c-.4-.38-.6-.91-.6-1.6v-19.98c0-.7.19-1.25.58-1.65.39-.39.94-.59,1.65-.59h10.68c.52,0,.92.16,1.21.48.29.32.44.79.44,1.43s-.15,1.11-.44,1.43c-.29.32-.7.48-1.21.48h-8.01v6.62h6.62c.49,0,.89.16,1.19.48.3.32.45.8.45,1.42s-.15,1.09-.45,1.41-.7.48-1.19.48h-6.62v7.99Z"/>
  </g>
  <path class="cls-5" d="M185.04,106.54h-53.2c-.55,0-1-.45-1-1s.45-1,1-1h53.2c.55,0,1,.45,1,1s-.45,1-1,1Z"/>
  <path class="cls-5" d="M200.18,106.54h-7.38c-.55,0-1-.45-1-1s.45-1,1-1h7.38c.55,0,1,.45,1,1s-.45,1-1,1Z"/>
  <path class="cls-5" d="M233.19,123.24h-86.6c-.55,0-1-.45-1-1s.45-1,1-1h86.6c.55,0,1,.45,1,1s-.45,1-1,1Z"/>
  <path class="cls-5" d="M175.72,183.82h-34.56c-.55,0-1-.45-1-1s.45-1,1-1h34.56c.55,0,1,.45,1,1s-.45,1-1,1Z"/>
  <path class="cls-5" d="M169.51,194.69h-23.69c-.55,0-1-.45-1-1s.45-1,1-1h23.69c.55,0,1,.45,1,1s-.45,1-1,1Z"/>
</svg>