<?xml version="1.0" encoding="UTF-8"?>
<svg id="Expanded" xmlns="http://www.w3.org/2000/svg" viewBox="0 0 400 250">
  <defs>
    <style>
      .cls-1 {
        fill: #fff;
      }

      .cls-2 {
        fill: #dfedf2;
      }

      .cls-3 {
        fill: #f4b545;
      }

      .cls-4 {
        fill: #6d3108;
      }

      .cls-5 {
        fill: #ffe277;
      }

      .cls-6 {
        fill: #333;
      }

      .cls-7 {
        fill: gray;
      }

      .cls-8 {
        fill: #a8b6c1;
      }
    </style>
  </defs>
  <g>
    <path class="cls-6" d="M372.1,119.17c-.06,7.91-.9,16.02-2.55,24.8-.77,4.07-1.73,8.29-2.88,12.71-.41,1.55-.83,3.12-1.29,4.72-.61,2.18-1.26,4.4-1.97,6.68-.39,1.26-.79,2.52-1.21,3.81l-.81,2.48c-1.5,4.57-2.93,8.95-3.88,13.37-.31,1.48-.58,2.96-.77,4.45-.64,5.08-.62,12.41,3.11,18.42,1.45,2.33,4.47,7.19,1.2,11.37-.2.26-.42.49-.64.71-.08.07-.16.14-.24.21-.17.14-.33.28-.5.4l-.04.04s-.03.01-.04.02c-.01.01-.02.02-.04.03-.03.02-.06.04-.09.06-.22.15-.44.29-.66.41-.02.01-.03.02-.05.03-.01,0-.03,0-.04.02-.13.07-.25.13-.38.19-.01.01-.03.02-.05.03-.37.17-.73.32-1.05.43-.03.01-.06.03-.09.04-.05.02-.1.03-.14.05l-.15.04c-.13.04-.24.08-.34.11l-.1.03h0s-.03.01-.04.01c-3.95,1.18-7.94,1.76-11.87,1.76-9.31,0-18.24-3.24-25.41-9.3-.08-.07-.16-.14-.24-.21-1.02-.88-2-1.8-2.94-2.78-.51-.54-1-1.09-1.48-1.65-.56-.66-1.09-1.33-1.6-2.01-.19-.25-.37-.49-.55-.74-.43-.6-.84-1.21-1.24-1.83-.22-.35-.43-.71-.65-1.07-.2-.34-.39-.68-.58-1.03-.36-.65-.7-1.31-1.03-1.99-.14-.3-.29-.6-.43-.91-.2-.45-.4-.91-.58-1.38-.11-.26-.21-.53-.31-.8-.21-.57-.43-1.15-.62-1.73-.67-1.97-1.4-4.29-1.54-6.64-.01-.1-.03-.19-.04-.29-.12-.04-.23-.07-.34-.11-2.5-.9-4.58-2.38-6.43-3.77-.04-.02-.08-.05-.12-.08l-.19-.14c-.18-.14-.36-.27-.54-.41-.15-.12-.3-.25-.46-.37-.27-.21-.54-.43-.81-.65-.04-.03-.09-.07-.13-.11-.24-.18-.53-.43-.82-.69-.13-.11-.26-.23-.39-.35-.06-.05-.11-.1-.17-.16-.12-.11-.25-.21-.37-.33-.07-.07-.16-.15-.26-.24-.01-.02-.02-.03-.04-.04-.06-.07-.13-.13-.19-.2-.03-.03-.05-.05-.08-.07-.16-.15-.3-.31-.45-.46-.06-.07-.12-.13-.18-.19-.08-.08-.17-.17-.25-.25-.42-.44-.85-.92-1.27-1.43-.03-.03-.06-.06-.08-.09l-.03-.03s-.01-.02-.02-.02c-.05-.06-.1-.12-.14-.18l-.58-.75c-.2-.25-.45-.58-.68-.94-.18-.25-.34-.51-.51-.77-.1-.16-.21-.31-.31-.47-.33-.53-.64-1.06-.93-1.61-.18-.34-.34-.68-.5-1.02-.12-.25-.25-.5-.36-.74-.05-.12-.1-.24-.15-.35-.09-.22-.18-.44-.27-.66-.03-.09-.07-.17-.11-.26-.06-.17-.14-.34-.21-.51-.05-.15-.1-.3-.15-.46-.06-.15-.11-.31-.16-.47-.06-.18-.13-.36-.19-.54-.25-.77-.47-1.55-.65-2.33-.02-.06-.03-.11-.04-.17-.19-.83-.35-1.66-.48-2.49,0,0-.01-.03-.01-.04-.01-.09-.03-.17-.04-.25-.14-.93-.23-1.86-.3-2.78-.03-.28-.06-.55-.1-.73-.05-.02-.12-.05-.22-.08-.28-.1-.57-.21-.85-.33-1.98-.83-3.91-2.09-5.88-3.86l-.04-.04c-1.3-1.15-2.67-2.5-3.84-4.4-.15-.25-.29-.5-.43-.76-.01-.01-.01-.02-.02-.03-.29-.54-.54-1.06-.77-1.58-.04-.09-.08-.18-.12-.28-.47-1.08-.82-2.14-1.08-3.19-.04-.15-.07-.3-.1-.45-.08-.38-.16-.76-.22-1.14-.02-.12-.05-.24-.07-.35-.01-.13-.02-.24-.03-.35-.09-.69-.15-1.39-.19-2.11-.18-.04-.37-.08-.57-.14l-.16-.04c-.19-.05-.37-.1-.56-.16-.04-.01-.08-.03-.12-.04-.4-.12-.8-.24-1.19-.37-.05,0-.12-.04-.2-.07-.02,0-.12-.03-.14-.04-.03-.01-.06-.02-.08-.03-.95-.33-1.88-.7-2.8-1.1-.12-.06-.24-.11-.37-.17-.81-.37-1.6-.77-2.38-1.2-.12-.06-.23-.12-.33-.18-.31-.18-.62-.35-.92-.54-.07-.04-.14-.08-.21-.12-.2-.13-.41-.26-.62-.4-.16-.1-.32-.2-.48-.31-.38-.24-.77-.51-1.16-.79-1.65-1.19-3.21-2.52-4.65-3.98-.48-.49-.95-.99-1.4-1.5l-.18-.21c-.2-.22-.44-.49-.53-.58,0,0-.1-.04-.28-.1-1.22-.42-2.46-.8-3.82-1.17-5.22-1.39-10.52-2.05-15.78-1.92-.29,0-.58-.02-.86-.08-.84-.17-1.62-.6-2.21-1.25-.19-.21-.36-.45-.5-.7-.29-.5-.46-1.05-.51-1.62-.02-.29-.02-.58.02-.87l3.75-28.82s.01-.04.01-.07l1.99-15.24c.22-1.64,1.42-2.98,3.04-3.37,14.23-3.41,26.51-14.55,31.26-28.39.54-1.56,1.01-3.19,1.51-4.92,1.83-6.32,3.9-13.47,9.84-18.01,14.56-11.09,38.07,2.31,47.51,8.59,1.17.77,2.36,1.61,3.63,2.54,25.9,18.97,41.86,50.38,41.65,81.96Z"/>
    <path class="cls-2" d="M352.78,191.68c-.91,7.2-.15,14.87,3.68,21.04,1.31,2.11,2.97,4.84,1.44,6.8-.18.23-.39.43-.63.59-.15.11-.31.2-.47.29-.15.08-.3.15-.46.22-.02,0-.03.01-.05.02-.16.07-.32.13-.49.19-.19.06-.39.12-.58.18-13.8,4.12-28.38.02-37.76-10.95-7.47-8.72-9.64-19.37-8.33-30.51,1.46-12.43,6.95-24.08,13.68-34.65-.77.75-1.49,1.51-2.19,2.29-.3.33-.59.66-.87,1-.03.04-.06.07-.09.11-.31.36-.62.73-.9,1.11-.31.37-.6.74-.87,1.12-.71.93-1.38,1.89-2.02,2.87-.29.44-.57.88-.84,1.32-.31.5-.61,1.01-.91,1.52-.03.04-.06.09-.08.13-.56.98-1.1,1.97-1.61,2.98-.27.53-.53,1.06-.79,1.59-.47.98-.93,1.97-1.37,2.98-.76,1.74-1.47,3.51-2.15,5.31-2.02,5.33-2.61,10.91-3.66,16.49-.07.37-.17.79-.5.97-.4.21-.88-.03-1.25-.28-.68-.44-1.35-.9-2-1.37-.2-.15-.4-.29-.59-.45-.45-.34-.89-.69-1.32-1.05-.25-.2-.5-.41-.74-.63-.27-.23-.54-.47-.8-.72-.18-.17-.36-.34-.53-.52-.27-.25-.52-.51-.76-.77-.43-.45-.84-.91-1.24-1.39-.02-.03-.03-.05-.05-.06-.19-.25-.39-.5-.58-.75-.2-.25-.39-.51-.57-.78-.55-.78-1.06-1.61-1.51-2.46-4.47-8.45-3.69-18-1.44-27.03.46-1.86,1.01-3.72,1.65-5.55.13-.39.27-.77.41-1.15.2-.55.41-1.1.63-1.65.22-.54.44-1.09.68-1.63.41-.96.85-1.92,1.32-2.86.68-1.37,1.41-2.72,2.2-4.03.18-.31.37-.62.56-.93,1.55-2.5,3.29-4.87,5.21-7.06-.22.25-.44.5-.66.75-.54.63-1.09,1.25-1.63,1.88-.54.63-1.07,1.27-1.6,1.9-1.05,1.27-2.07,2.55-3.06,3.87-.02.01-.03.03-.03.04-.82,1.1-1.71,1.98-2.37,3.19-.57,1.04-1.11,2.1-1.61,3.17-.18.34-.35.69-.51,1.04-2.61,5.66-4.48,11.65-5.55,17.78-.06.34-.13.66-.22.94-.07.22-.16.42-.26.58-.24.38-.6.55-1.14.38-.14-.05-.3-.11-.47-.21-.01,0-.03-.01-.04-.02-1.29-.74-2.53-1.61-3.64-2.61-1.4-1.24-2.53-2.42-3.43-4.09-1.89-3.51-2.2-6.24-2.15-10.22.01-.75.03-1.5.06-2.26.02-.56.05-1.12.08-1.68.01-.22.02-.43.04-.64.03-.54.07-1.08.12-1.62.04-.47.08-.93.13-1.4.04-.46.09-.93.14-1.39.13-1.07.27-2.13.43-3.19.6-4.03,1.48-8.01,2.63-11.92,1.01-3.48,2.02-8.16,4.09-11.17-.83,1.21-1.6,2.45-2.33,3.74-.28.49-.55.99-.8,1.49-.18.34-.35.67-.51,1.01-.87,1.76-1.64,3.57-2.3,5.41-.12.34-.24.69-.36,1.03-.11.34-.23.68-.34,1.03-.44,1.38-.83,2.78-1.17,4.18-.34,1.41-.63,2.82-.88,4.25,0,.01-.01.03,0,.04-.11.62-.21,1.25-.3,1.88-.03.16-.05.32-.07.48-.09.63-.17,1.27-.24,1.91-.01.04-.01.09-.01.13-.06.52-.11,1.05-.15,1.58-.04.35-.07.7-.09,1.04-.04.54-.08,1.09-.1,1.63-.04.73-.07,1.46-.09,2.19-.01.26-.03.55-.19.75-.28.34-.82.27-1.25.15-.21-.06-.42-.11-.63-.18-.39-.11-.78-.23-1.17-.36-.13-.04-.26-.09-.39-.13-.33-.11-.65-.23-.96-.35-.1-.03-.2-.07-.29-.12-.31-.11-.62-.24-.92-.37-.39-.16-.78-.34-1.16-.53-.28-.13-.56-.26-.84-.41-.56-.29-1.11-.59-1.66-.92-.42-.24-.83-.5-1.24-.77-.41-.26-.81-.54-1.2-.82-1.97-1.41-3.78-3.05-5.38-4.87-.17-.19-.32-.37-.46-.52-.65-.73-1.1-1.12-2.23-1.51-1.35-.47-2.71-.88-4.09-1.25-5.5-1.47-11.21-2.19-16.91-2.06l3.75-28.82,2-15.31c15.59-3.73,28.91-15.82,34.12-30.98,2.56-7.47,3.7-16.25,9.99-21.05,11.73-8.94,32.53,1.86,42.87,8.74,1.18.78,2.33,1.59,3.47,2.43,24.7,18.09,40.23,48.15,40.02,78.71-.06,8.1-.98,16.14-2.48,24.09-1.76,9.28-4.31,18.44-7.22,27.43-2.24,6.91-4.7,13.82-5.62,21.02Z"/>
    <path class="cls-2" d="M352.78,191.68c-.91,7.2-.15,14.87,3.68,21.04,1.31,2.11,2.97,4.84,1.44,6.8-.64.82-1.68,1.19-2.68,1.49-13.8,4.12-28.38.02-37.76-10.95-7.47-8.72-9.64-19.37-8.33-30.51,1.46-12.43,6.95-24.08,13.68-34.65-7.05,6.9-11.24,15.22-14.69,24.33-2.02,5.33-2.61,10.91-3.66,16.49-.07.37-.17.79-.5.97-.4.21-.88-.03-1.25-.28-4.33-2.81-8.28-6.39-10.69-10.95-4.47-8.45-3.69-18-1.44-27.03,2.24-9.01,6.51-17.85,12.66-24.86-.22.25-.44.5-.66.75-2.18,2.5-4.33,5.03-6.32,7.69-.82,1.1-1.71,1.98-2.37,3.19-.75,1.38-1.46,2.79-2.12,4.21-2.61,5.66-4.48,11.65-5.55,17.78-.25,1.43-.67,2.52-2.13,1.67-1.29-.74-2.53-1.61-3.64-2.61-1.4-1.24-2.53-2.42-3.43-4.09-1.89-3.51-2.2-6.24-2.15-10.22.05-4.08.39-8.15,1-12.18.6-4.03,1.48-8.01,2.63-11.92,1.01-3.48,2.02-8.16,4.09-11.17-6.69,9.74-9.43,21.37-9.74,33.02-.01.26-.03.55-.19.75-.28.34-.82.27-1.25.15-3.75-.99-7.31-2.69-10.46-4.96-1.97-1.41-3.78-3.05-5.38-4.87-.95-1.07-1.31-1.56-2.69-2.03-1.35-.47-2.71-.88-4.09-1.25-5.5-1.47-11.21-2.19-16.91-2.06l2.36-18.14,1.39-10.68c17.36-4.19,33.29-14.29,44.33-28.35,5.15-6.55,9.67-14.26,17.28-17.65,5.95-2.66,12.98-2.14,19.04.28,6.06,2.41,11.27,6.57,15.97,11.09,18.96,18.23,30.67,43.61,32.96,69.77.35,3.82.48,7.66.41,11.49-1.76,9.28-4.31,18.44-7.22,27.43-2.24,6.91-4.7,13.82-5.62,21.02Z"/>
    <path class="cls-1" d="M357.27,220.11c-.15.11-.31.2-.47.29-.15.08-.3.15-.46.22-.02,0-.03.01-.05.02-.16.07-.32.13-.49.19-.19.06-.39.12-.58.18-13.8,4.12-28.38.02-37.76-10.95-2.9-3.4-5.17-7.31-6.62-11.54-.67-1.95-1.45-4.22-1.56-6.3-.04-.85.31-1.51-.15-2.27-.31-.51-.83-.83-1.4-1.07-.5-.22-1.04-.37-1.5-.53-2.23-.8-4.24-2.35-6.11-3.76-.45-.34-.89-.69-1.32-1.05-.25-.2-.5-.41-.74-.63-.27-.23-.54-.47-.8-.72-.14-.13-.28-.26-.41-.4l-.12-.12c-.27-.25-.52-.51-.76-.77-.43-.45-.84-.92-1.24-1.39-.02-.03-.03-.05-.05-.06-.19-.25-.39-.5-.58-.75-.2-.25-.39-.51-.57-.78-.55-.78-1.06-1.61-1.51-2.46-1.46-2.75-2.41-5.76-2.87-8.84-.04-.2-.06-.39-.09-.59-.37-2.87.05-5.23-3.2-6.36-2.02-.71-3.82-1.99-5.41-3.42-.01-.01-.03-.02-.04-.04-1.38-1.22-2.5-2.4-3.39-4.05-.96-1.78-1.65-3.68-1.93-5.68-.22-1.63.1-3.28-1.1-4.6-.57-.64-1.38-1.01-2.25-1.28-.85-.26-1.75-.44-2.52-.68-.33-.11-.65-.23-.96-.35-.1-.03-.2-.07-.29-.12-.31-.11-.62-.24-.92-.37-.39-.16-.78-.34-1.16-.53-.28-.13-.56-.26-.84-.41-.56-.29-1.11-.59-1.66-.92-.21-.12-.42-.25-.63-.38s-.41-.26-.61-.39c-.41-.26-.81-.54-1.2-.82-1.97-1.41-3.78-3.05-5.38-4.87-.17-.19-.32-.37-.46-.52-.65-.73-1.1-1.12-2.23-1.51-1.35-.47-2.71-.88-4.09-1.25-5.5-1.47-11.21-2.19-16.91-2.06l3.75-28.82,2-15.31c15.59-3.73,28.91-15.82,34.12-30.98,2.56-7.47,3.7-16.25,9.99-21.05,11.73-8.94,32.53,1.86,42.87,8.74,1.18.78,2.33,1.59,3.47,2.43,9.61,9.17,17.3,20.37,22.22,32.72,6.99,17.55,8.33,37.25,4.05,55.64-4.34,18.67-14.01,35.75-15.71,55.2-1.07,12.31,2.13,23.9,12.04,31.75,2.08,1.64,4.28,3.09,6.59,4.37Z"/>
    <path class="cls-2" d="M308.89,76.37c-5.76,9.76-15.16,16.77-22.3,25.56-8.85,10.9-14.08,24.66-14.85,38.67-.85-.26-1.75-.44-2.52-.68-.33-.11-.65-.23-.96-.35-.1-.03-.2-.07-.29-.12-.31-.11-.62-.24-.92-.37-.39-.16-.78-.34-1.16-.53-.28-.13-.56-.26-.84-.41-.56-.29-1.11-.59-1.66-.92-.21-.12-.42-.25-.63-.38,2.08-12.33,7.33-24.13,15.2-33.84,5.01-6.18,10.98-11.49,16.61-17.11,5.63-5.61,11-11.68,14.41-18.86,3.42-7.18,4.72-15.66,2.03-23.15,1.5-.59,2.65,1.4,2.96,2.98,1.95,10.01.11,20.72-5.08,29.51Z"/>
    <path class="cls-2" d="M325.38,69.62c-.09,5.23-1.04,10.45-2.87,15.35-5.15,13.78-16.42,24.31-23.8,37.04-7.71,13.31-11.03,29.12-9.32,44.41l-.24.2c-.04-.2-.06-.39-.09-.59-.37-2.87.05-5.23-3.2-6.36-2.02-.71-3.82-1.99-5.41-3.42-.01-.01-.03-.02-.04-.04.07-2.07.31-4.14.65-6.15.85-5.11,2.2-10.13,3.93-15.01,1.53-4.32,3.05-8.77,4.88-12.97,3.67-8.41,9.55-15.6,15.25-22.69,6.06-7.53,12.22-15.38,15.42-24.62,1.57-4.52,2.25-9.44,1.93-14.22-.09-1.35-2.36-14.5-3.59-14.29.69-.12.95.41,1.33.95,1.38,1.99,2.19,4.67,2.92,6.95,1.59,4.99,2.35,10.23,2.25,15.46Z"/>
    <path class="cls-2" d="M340.47,94.15c-1.76,17.84-11.3,33.79-19.56,49.7-7.28,14.03-13.85,29.47-13.18,45.03-.5-.22-1.04-.37-1.5-.53-2.23-.8-4.24-2.35-6.11-3.76-.45-.34-.89-.69-1.32-1.05-.25-.2-.5-.41-.74-.63-.27-.23-.54-.47-.8-.72-.14-.13-.28-.26-.41-.4-.5-4.81-.31-9.72.49-14.44,2.36-13.95,9.35-26.66,16.77-38.71,4.19-6.81,8.05-13.79,12.38-20.44,4.2-6.46,6.95-13.86,7.94-21.5,1.74-13.45-2.36-27.47-9.38-38.89,11.32,12.38,17.06,29.66,15.42,46.35Z"/>
    <path class="cls-8" d="M357.27,106.62c-.54,0-.99-.43-1-.98-.47-20.56-11.01-40.87-27.51-53.01-6.56-4.82-13.08-7.69-19.4-8.51-7.44-.97-14.78,1.08-19.63,5.49-3.6,3.28-5.94,7.82-8.21,12.21-.45.88-.9,1.75-1.36,2.62-3.77,7.08-7.57,12.27-11.98,16.33-5.43,5.01-11.91,8.13-18.23,8.8-.54.06-1.04-.34-1.1-.89-.06-.55.34-1.04.89-1.1,5.9-.62,11.97-3.56,17.09-8.28,4.23-3.9,7.91-8.92,11.57-15.8.46-.86.9-1.72,1.35-2.59,2.35-4.55,4.77-9.26,8.64-12.78,5.28-4.8,13.21-7.05,21.23-6,6.65.87,13.49,3.86,20.32,8.88,16.98,12.49,27.83,33.41,28.32,54.57.01.55-.42,1.01-.98,1.02h-.02Z"/>
    <path class="cls-8" d="M353.06,134.61c-.12,0-.24-.02-.36-.07-.51-.2-.77-.78-.57-1.29,1.99-5.1,3.21-10.46,3.64-15.92.04-.55.54-.96,1.08-.92.55.04.96.52.92,1.08-.44,5.66-1.71,11.21-3.77,16.49-.15.4-.53.64-.93.64Z"/>
  </g>
  <g>
    <path class="cls-6" d="M171.1,128.09c-.78.87-1.9,1.35-3.07,1.33-5.24-.13-10.56.53-15.78,1.92-1.37.37-2.61.75-3.81,1.17-.2.07-.29.11-.31.12,0,0-.01.01-.02.02-.01.01-.07.08-.23.25l-.48.54c-1.77,2.01-3.8,3.86-6.02,5.44-.41.29-.82.58-1.24.85-.04.03-.09.06-.14.09-.04.03-.08.05-.12.08-.16.11-.33.22-.51.33-.01,0-.01.01-.02.01-.14.09-.27.17-.41.25-.11.07-.23.14-.34.2-.49.3-1.09.63-1.81,1-.19.1-.4.21-.62.31-.2.11-.4.21-.61.3-.33.15-.71.32-1.09.48-.25.11-.55.24-.87.35-.17.08-.34.15-.52.21-.17.06-.34.13-.51.19-.06.03-.13.05-.19.07-.11.04-.22.08-.34.12-.04.01-.09.03-.13.04,0,0-.02.01-.03.01-.11.04-.21.08-.32.11-.12.05-.25.09-.37.12-.16.06-.32.11-.49.15-.36.11-.72.21-1.08.31-.18.04-.35.08-.52.12-.03.66-.08,1.3-.16,1.92-.02.15-.03.31-.06.47v.04c-.05.37-.12.73-.2,1.1,0,.04-.01.09-.02.13-.05.25-.11.51-.18.77-.05.22-.11.45-.17.67-.24.87-.55,1.74-.96,2.64-.13.29-.26.58-.4.87-.13.28-.28.58-.44.87-.11.2-.22.39-.34.58-.21.36-.43.7-.65,1.02-.34.48-.68.91-1.04,1.32-.72.83-1.45,1.52-2.14,2.14-.04.04-.08.08-.13.12l-.03.03c-.14.13-.28.25-.42.36-.18.15-.35.3-.52.44-.25.21-.5.41-.74.59-1.68,1.27-3.34,2.19-5.03,2.78-.1.04-.17.07-.23.09-.03.15-.06.36-.09.59h0c-.03.56-.08,1.11-.14,1.67-.03.29-.07.58-.11.87-.01.03-.01.07-.02.11-.03.2-.06.41-.1.62-.06.42-.13.83-.21,1.24-.09.44-.18.88-.29,1.31-.1.44-.21.87-.33,1.3-.33,1.18-.73,2.33-1.2,3.45-.11.29-.24.58-.37.87-.13.29-.26.57-.4.86-.14.31-.3.62-.46.92-.42.78-.88,1.55-1.37,2.29-.13.19-.25.37-.38.55-.01.02-.02.03-.04.05-.11.17-.23.34-.35.5-.11.16-.23.31-.35.47l-.28.36-.24.31s-.05.06-.07.09-.04.06-.07.09c-.01,0-.02.01-.02.02l-.03.03c-.06.07-.13.15-.19.22-.04.05-.08.1-.12.15-.21.24-.41.47-.62.69-.15.17-.3.34-.46.5-.13.14-.26.28-.41.43-.15.15-.3.31-.47.46-.18.18-.35.35-.53.52-.02.02-.04.04-.06.06-.03.03-.07.06-.11.1-.14.13-.3.28-.47.43-.02.01-.04.03-.06.05-.08.06-.15.13-.23.2-.29.26-.59.51-.89.75-.11.1-.21.19-.32.27-.07.05-.13.1-.2.16-.14.12-.29.24-.45.36-.1.08-.2.16-.3.24-.12.08-.23.17-.34.25-.22.16-.44.33-.66.49-.03.03-.07.05-.1.08-1.8,1.34-3.82,2.75-6.21,3.6-.1.03-.19.07-.28.1-.03.01-.05.01-.07.02-.02.17-.05.34-.08.5-.16,2.22-.83,4.4-1.46,6.27-.01.03-.02.05-.02.07-.09.26-.18.51-.26.75-.1.29-.2.58-.31.87s-.22.58-.33.87c-.22.57-.46,1.14-.72,1.7-.38.84-.79,1.67-1.24,2.48-.43.81-.89,1.6-1.39,2.37-.03.03-.05.07-.07.11-.25.39-.51.77-.77,1.15-.16.24-.33.48-.51.71-.1.14-.2.29-.32.43-.23.33-.48.64-.73.96h-.01c-.31.41-.63.8-.96,1.19-.48.56-.98,1.11-1.49,1.65-7.61,7.98-17.86,12.29-28.59,12.29-3.93,0-7.92-.58-11.87-1.76l-.26-.08-.38-.11s-.09-.03-.14-.05c-.06-.02-.12-.04-.18-.07-.17-.06-.33-.12-.49-.19-.04-.02-.09-.04-.13-.06-.13-.06-.26-.11-.38-.17-.12-.05-.24-.11-.36-.18-.09-.05-.18-.1-.27-.15-.07-.04-.13-.08-.2-.12,0,0-.03-.01-.04-.02-.02-.01-.04-.02-.06-.04-.04-.03-.07-.05-.11-.08-.06-.04-.13-.08-.19-.13-.03-.01-.05-.03-.08-.05-.11-.07-.21-.16-.32-.24-.14-.11-.27-.23-.41-.36-.1-.09-.2-.19-.29-.29-.13-.15-.27-.3-.4-.47-3.27-4.18-.25-9.04,1.2-11.37,3.73-6.01,3.75-13.34,3.11-18.42-.38-2.99-1.05-5.91-1.86-8.86-.82-2.95-1.79-5.91-2.79-8.96l-.81-2.48c-3.33-10.29-5.74-19.42-7.35-27.91-1.65-8.79-2.49-16.9-2.55-24.81-.21-31.58,15.75-62.98,41.65-81.96,0,0,.01,0,.01-.01.63-.46,1.24-.9,1.84-1.32.61-.42,1.2-.83,1.79-1.22,9.43-6.27,32.95-19.67,47.5-8.58,5.94,4.54,8.01,11.69,9.84,18.01.5,1.73.97,3.36,1.51,4.92,4.75,13.84,17.03,24.98,31.26,28.39,1.62.39,2.82,1.73,3.04,3.37l1.98,15.17,3.77,28.96c.15,1.16-.21,2.33-.99,3.19Z"/>
    <path class="cls-2" d="M47.22,191.68c.91,7.2.15,14.87-3.68,21.04-1.31,2.11-2.97,4.84-1.44,6.8.18.23.39.43.63.59.15.11.31.2.47.29.15.08.3.15.46.22.02,0,.03.01.05.02.16.07.32.13.49.19.19.06.39.12.58.18,13.8,4.12,28.38.02,37.76-10.95,7.47-8.72,9.64-19.37,8.33-30.51-1.46-12.43-6.95-24.08-13.68-34.65.77.75,1.49,1.51,2.19,2.29.3.33.59.66.87,1,.03.04.06.07.09.11.31.36.62.73.9,1.11.31.37.6.74.87,1.12.71.93,1.38,1.89,2.02,2.87.29.44.57.88.84,1.32.31.5.61,1.01.91,1.52.03.04.06.09.08.13.56.98,1.1,1.97,1.61,2.98.27.53.53,1.06.79,1.59.47.98.93,1.97,1.37,2.98.76,1.74,1.47,3.51,2.15,5.31,2.02,5.33,2.61,10.91,3.66,16.49.07.37.17.79.5.97.4.21.88-.03,1.25-.28.68-.44,1.35-.9,2-1.37.2-.15.4-.29.59-.45.45-.34.89-.69,1.32-1.05.25-.2.5-.41.74-.63.27-.23.54-.47.8-.72.18-.17.36-.34.53-.52.27-.25.52-.51.76-.77.43-.45.84-.91,1.24-1.39.02-.03.03-.05.05-.06.19-.25.39-.5.58-.75.2-.25.39-.51.57-.78.55-.78,1.06-1.61,1.51-2.46,4.47-8.45,3.69-18,1.44-27.03-.46-1.86-1.01-3.72-1.65-5.55-.13-.39-.27-.77-.41-1.15-.2-.55-.41-1.1-.63-1.65-.22-.54-.44-1.09-.68-1.63-.41-.96-.85-1.92-1.32-2.86-.68-1.37-1.41-2.72-2.2-4.03-.18-.31-.37-.62-.56-.93-1.55-2.5-3.29-4.87-5.21-7.06.22.25.44.5.66.75.54.63,1.09,1.25,1.63,1.88.54.63,1.07,1.27,1.6,1.9,1.05,1.27,2.07,2.55,3.06,3.87.02.01.03.03.03.04.82,1.1,1.71,1.98,2.37,3.19.57,1.04,1.11,2.1,1.61,3.17.18.34.35.69.51,1.04,2.61,5.66,4.48,11.65,5.55,17.78.06.34.13.66.22.94.07.22.16.42.26.58.24.38.6.55,1.14.38.14-.05.3-.11.47-.21.01,0,.03-.01.04-.02,1.29-.74,2.53-1.61,3.64-2.61,1.4-1.24,2.53-2.42,3.43-4.09,1.89-3.51,2.2-6.24,2.15-10.22-.01-.75-.03-1.5-.06-2.26-.02-.56-.05-1.12-.08-1.68-.01-.22-.02-.43-.04-.64-.03-.54-.07-1.08-.12-1.62-.04-.47-.08-.93-.13-1.4-.04-.46-.09-.93-.14-1.39-.13-1.07-.27-2.13-.43-3.19-.6-4.03-1.48-8.01-2.63-11.92-1.01-3.48-2.02-8.16-4.09-11.17.83,1.21,1.6,2.45,2.33,3.74.28.49.55.99.8,1.49.18.34.35.67.51,1.01.87,1.76,1.64,3.57,2.3,5.41.12.34.24.69.36,1.03.11.34.23.68.34,1.03.44,1.38.83,2.78,1.17,4.18.34,1.41.63,2.82.88,4.25,0,.01.01.03,0,.04.11.62.21,1.25.3,1.88.03.16.05.32.07.48.09.63.17,1.27.24,1.91.01.04.01.09.01.13.06.52.11,1.05.15,1.58.04.35.07.7.09,1.04.04.54.08,1.09.1,1.63.04.73.07,1.46.09,2.19.01.26.03.55.19.75.28.34.82.27,1.25.15.21-.06.42-.11.63-.18.39-.11.78-.23,1.17-.36.13-.04.26-.09.39-.13.33-.11.65-.23.96-.35.1-.03.2-.07.29-.12.31-.11.62-.24.92-.37.39-.16.78-.34,1.16-.53.28-.13.56-.26.84-.41.56-.29,1.11-.59,1.66-.92.42-.24.83-.5,1.24-.77.41-.26.81-.54,1.2-.82,1.97-1.41,3.78-3.05,5.38-4.87.17-.19.32-.37.46-.52.65-.73,1.1-1.12,2.23-1.51,1.35-.47,2.71-.88,4.09-1.25,5.5-1.47,11.21-2.19,16.91-2.06l-3.75-28.82-2-15.31c-15.59-3.73-28.91-15.82-34.12-30.98-2.56-7.47-3.7-16.25-9.99-21.05-11.73-8.94-32.53,1.86-42.87,8.74-1.18.78-2.33,1.59-3.47,2.43-24.7,18.09-40.23,48.15-40.02,78.71.06,8.1.98,16.14,2.48,24.09,1.76,9.28,4.31,18.44,7.22,27.43,2.24,6.91,4.7,13.82,5.62,21.02Z"/>
    <path class="cls-2" d="M47.22,191.68c.91,7.2.15,14.87-3.68,21.04-1.31,2.11-2.97,4.84-1.44,6.8.64.82,1.68,1.19,2.68,1.49,13.8,4.12,28.38.02,37.76-10.95,7.47-8.72,9.64-19.37,8.33-30.51-1.46-12.43-6.95-24.08-13.68-34.65,7.05,6.9,11.24,15.22,14.69,24.33,2.02,5.33,2.61,10.91,3.66,16.49.07.37.17.79.5.97.4.21.88-.03,1.25-.28,4.33-2.81,8.28-6.39,10.69-10.95,4.47-8.45,3.69-18,1.44-27.03-2.24-9.01-6.51-17.85-12.66-24.86.22.25.44.5.66.75,2.18,2.5,4.33,5.03,6.32,7.69.82,1.1,1.71,1.98,2.37,3.19.75,1.38,1.46,2.79,2.12,4.21,2.61,5.66,4.48,11.65,5.55,17.78.25,1.43.67,2.52,2.13,1.67,1.29-.74,2.53-1.61,3.64-2.61,1.4-1.24,2.53-2.42,3.43-4.09,1.89-3.51,2.2-6.24,2.15-10.22-.05-4.08-.39-8.15-1-12.18-.6-4.03-1.48-8.01-2.63-11.92-1.01-3.48-2.02-8.16-4.09-11.17,6.69,9.74,9.43,21.37,9.74,33.02.01.26.03.55.19.75.28.34.82.27,1.25.15,3.75-.99,7.31-2.69,10.46-4.96,1.97-1.41,3.78-3.05,5.38-4.87.95-1.07,1.31-1.56,2.69-2.03,1.35-.47,2.71-.88,4.09-1.25,5.5-1.47,11.21-2.19,16.91-2.06l-2.36-18.14-1.39-10.68c-17.36-4.19-33.29-14.29-44.33-28.35-5.15-6.55-9.67-14.26-17.28-17.65-5.95-2.66-12.98-2.14-19.04.28-6.06,2.41-11.27,6.57-15.97,11.09-18.96,18.23-30.67,43.61-32.96,69.77-.35,3.82-.48,7.66-.41,11.49,1.76,9.28,4.31,18.44,7.22,27.43,2.24,6.91,4.7,13.82,5.62,21.02Z"/>
    <path class="cls-1" d="M42.73,220.11c.15.11.31.2.47.29.15.08.3.15.46.22.02,0,.03.01.05.02.16.07.32.13.49.19.19.06.39.12.58.18,13.8,4.12,28.38.02,37.76-10.95,2.9-3.4,5.17-7.31,6.62-11.54.67-1.95,1.45-4.22,1.56-6.3.04-.85-.31-1.51.15-2.27.31-.51.83-.83,1.4-1.07.5-.22,1.04-.37,1.5-.53,2.23-.8,4.24-2.35,6.11-3.76.45-.34.89-.69,1.32-1.05.25-.2.5-.41.74-.63.27-.23.54-.47.8-.72.14-.13.28-.26.41-.4l.12-.12c.27-.25.52-.51.76-.77.43-.45.84-.92,1.24-1.39.02-.03.03-.05.05-.06.19-.25.39-.5.58-.75.2-.25.39-.51.57-.78.55-.78,1.06-1.61,1.51-2.46,1.46-2.75,2.41-5.76,2.87-8.84.04-.2.06-.39.09-.59.37-2.87-.05-5.23,3.2-6.36,2.02-.71,3.82-1.99,5.41-3.42.01-.01.03-.02.04-.04,1.38-1.22,2.5-2.4,3.39-4.05.96-1.78,1.65-3.68,1.93-5.68.22-1.63-.1-3.28,1.1-4.6.57-.64,1.38-1.01,2.25-1.28.85-.26,1.75-.44,2.52-.68.33-.11.65-.23.96-.35.1-.03.2-.07.29-.12.31-.11.62-.24.92-.37.39-.16.78-.34,1.16-.53.28-.13.56-.26.84-.41.56-.29,1.11-.59,1.66-.92.21-.12.42-.25.63-.38s.41-.26.61-.39c.41-.26.81-.54,1.2-.82,1.97-1.41,3.78-3.05,5.38-4.87.17-.19.32-.37.46-.52.65-.73,1.1-1.12,2.23-1.51,1.35-.47,2.71-.88,4.09-1.25,5.5-1.47,11.21-2.19,16.91-2.06l-3.75-28.82-2-15.31c-15.59-3.73-28.91-15.82-34.12-30.98-2.56-7.47-3.7-16.25-9.99-21.05-11.73-8.94-32.53,1.86-42.87,8.74-1.18.78-2.33,1.59-3.47,2.43-9.61,9.17-17.3,20.37-22.22,32.72-6.99,17.55-8.33,37.25-4.05,55.64,4.34,18.67,14.01,35.75,15.71,55.2,1.07,12.31-2.13,23.9-12.04,31.75-2.08,1.64-4.28,3.09-6.59,4.37Z"/>
    <path class="cls-2" d="M91.11,76.37c5.76,9.76,15.16,16.77,22.3,25.56,8.85,10.9,14.08,24.66,14.85,38.67.85-.26,1.75-.44,2.52-.68.33-.11.65-.23.96-.35.1-.03.2-.07.29-.12.31-.11.62-.24.92-.37.39-.16.78-.34,1.16-.53.28-.13.56-.26.84-.41.56-.29,1.11-.59,1.66-.92.21-.12.42-.25.63-.38-2.08-12.33-7.33-24.13-15.2-33.84-5.01-6.18-10.98-11.49-16.61-17.11-5.63-5.61-11-11.68-14.41-18.86-3.42-7.18-4.72-15.66-2.03-23.15-1.5-.59-2.65,1.4-2.96,2.98-1.95,10.01-.11,20.72,5.08,29.51Z"/>
    <path class="cls-2" d="M74.62,69.62c.09,5.23,1.04,10.45,2.87,15.35,5.15,13.78,16.42,24.31,23.8,37.04,7.71,13.31,11.03,29.12,9.32,44.41l.24.2c.04-.2.06-.39.09-.59.37-2.87-.05-5.23,3.2-6.36,2.02-.71,3.82-1.99,5.41-3.42.01-.01.03-.02.04-.04-.07-2.07-.31-4.14-.65-6.15-.85-5.11-2.2-10.13-3.93-15.01-1.53-4.32-3.05-8.77-4.88-12.97-3.67-8.41-9.55-15.6-15.25-22.69-6.06-7.53-12.22-15.38-15.42-24.62-1.57-4.52-2.25-9.44-1.93-14.22.09-1.35,2.36-14.5,3.59-14.29-.69-.12-.95.41-1.33.95-1.38,1.99-2.19,4.67-2.92,6.95-1.59,4.99-2.35,10.23-2.25,15.46Z"/>
    <path class="cls-2" d="M59.53,94.15c1.76,17.84,11.3,33.79,19.56,49.7,7.28,14.03,13.85,29.47,13.18,45.03.5-.22,1.04-.37,1.5-.53,2.23-.8,4.24-2.35,6.11-3.76.45-.34.89-.69,1.32-1.05.25-.2.5-.41.74-.63.27-.23.54-.47.8-.72.14-.13.28-.26.41-.4.5-4.81.31-9.72-.49-14.44-2.36-13.95-9.35-26.66-16.77-38.71-4.19-6.81-8.05-13.79-12.38-20.44-4.2-6.46-6.95-13.86-7.94-21.5-1.74-13.45,2.36-27.47,9.38-38.89-11.32,12.38-17.06,29.66-15.42,46.35Z"/>
    <path class="cls-8" d="M45.37,89.55c-.09,0-.18-.01-.27-.04-.53-.15-.84-.7-.69-1.23,6.75-23.95,27.05-48.33,55.7-45.27,12.87.99,18.11,12.04,22.74,21.79l.74,1.55c.24.5.03,1.1-.47,1.33-.5.24-1.1.03-1.33-.47l-.74-1.55c-4.39-9.26-9.37-19.76-21.11-20.66-27.51-2.94-47.07,20.65-53.59,43.82-.12.44-.53.73-.96.73Z"/>
    <path class="cls-8" d="M149.26,88.91s-.08,0-.12,0c-5.3-.62-10.45-2.63-14.89-5.82-4.62-3.32-7.31-7.58-10.16-12.09l-.2-.31c-.29-.47-.16-1.08.31-1.38.47-.29,1.08-.15,1.38.31l.2.31c2.86,4.53,5.33,8.44,9.64,11.53,4.17,2.99,9,4.88,13.96,5.46.55.06.94.56.88,1.11-.06.51-.49.88-.99.88Z"/>
    <path class="cls-8" d="M43.37,103.03c-.55,0-1-.45-1-1v-4.3c0-.55.45-1,1-1s1,.45,1,1v4.3c0,.55-.45,1-1,1Z"/>
  </g>
  <g>
    <path class="cls-6" d="M265.43,88.24v44.41c0,29.24-15.58,55.67-39.7,67.32l-23.99,11.59c-.55.26-1.14.4-1.74.4s-1.19-.14-1.74-.4l-23.99-11.59c-24.12-11.65-39.7-38.08-39.7-67.32v-44.41c0-1.63.99-3.1,2.5-3.71l61.43-24.79s.09-.03.13-.04c.16-.06.32-.11.48-.14.08-.02.16-.04.25-.05.19-.03.39-.06.58-.06.07,0,.15.01.22.01.15.01.3.02.44.04.09.02.16.03.24.04.2.05.39.1.57.17l.09.03,61.43,24.79c1.51.61,2.5,2.08,2.5,3.71Z"/>
    <path class="cls-7" d="M200,66.97l-61.43,24.8v40.89c0,27.69,14.72,52.74,37.44,63.72l23.99,11.59,23.99-11.59c22.73-10.98,37.44-36.02,37.44-63.72v-40.89l-61.43-24.8Z"/>
    <path class="cls-8" d="M200,63.45l-61.43,24.8v40.89c0,27.69,14.72,52.74,37.44,63.72l23.99,11.59,23.99-11.59c22.73-10.98,37.44-36.02,37.44-63.72v-40.89l-61.43-24.8Z"/>
    <path class="cls-2" d="M200,63.45v140.98l-23.99-11.58c-22.73-10.99-37.44-36.02-37.44-63.72v-40.88l61.43-24.8Z"/>
    <path class="cls-8" d="M249.66,97.5v31.64c0,22.45-11.91,42.72-30.33,51.62l-19.33,9.34-19.33-9.34c-18.42-8.91-30.33-29.17-30.33-51.62v-31.64l49.66-20.04,49.66,20.04Z"/>
    <path class="cls-7" d="M249.66,97.5v31.64c0,22.45-11.91,42.72-30.33,51.62l-19.33,9.34v-112.64l49.66,20.04Z"/>
    <path class="cls-5" d="M249.66,100.27v28.87c0,22.45-11.91,42.72-30.33,51.62l-19.33,9.34-19.33-9.34c-18.42-8.91-30.33-29.17-30.33-51.62v-28.87l49.66-20.04,49.66,20.04Z"/>
    <path class="cls-3" d="M249.66,100.27v28.87c0,22.45-11.91,42.72-30.33,51.62l-19.33,9.34v-109.87l49.66,20.04Z"/>
    <g>
      <path class="cls-4" d="M193.22,162.3c-.95,0-1.85-.13-2.77-.4-3.89-1.09-6.15-4.22-7.12-5.55l-11.08-15.21c-1.42-1.95-2.07-4.39-1.83-6.89.24-2.49,1.33-4.72,3.07-6.29,1.46-1.34,3.34-2.08,5.26-2.08,2.54,0,4.91,1.26,6.51,3.47l8.55,11.73,30.24-33.15c1.56-1.72,3.65-2.68,5.88-2.68s4.39.99,5.97,2.79c1.57,1.77,2.43,4.13,2.42,6.64-.02,2.5-.9,4.84-2.5,6.59l-32.61,35.73c-1.18,1.31-4.81,5.31-9.98,5.31Z"/>
      <path class="cls-1" d="M233.69,118.84l-32.61,35.73c-1.05,1.15-3.95,4.34-7.86,4.34-.65,0-1.32-.08-2.01-.29-2.91-.81-4.62-3.15-5.53-4.41l-11.09-15.22c-1.86-2.56-1.51-6.32.79-8.39.98-.9,2.18-1.34,3.36-1.34,1.56,0,3.1.76,4.17,2.22l10.65,14.61s.02-.02.02-.02l32.59-35.73c1.05-1.15,2.41-1.71,3.76-1.71s2.77.59,3.82,1.78c2.07,2.34,2.06,6.12-.05,8.42Z"/>
    </g>
  </g>
</svg>