<?xml version="1.0" encoding="UTF-8"?>
<svg id="Expanded" xmlns="http://www.w3.org/2000/svg" viewBox="0 0 400 250">
  <defs>
    <style>
      .cls-1 {
        fill: #ea9939;
      }

      .cls-2 {
        fill: #d87625;
      }

      .cls-3 {
        fill: #fff8d9;
      }

      .cls-4 {
        fill: #f4b545;
      }

      .cls-5 {
        fill: #6d3108;
      }

      .cls-6 {
        fill: #ffe277;
      }

      .cls-7 {
        fill: #ff7d63;
      }
    </style>
  </defs>
  <polygon class="cls-7" points="308.69 179.74 240.43 159.42 252.99 191.26 228.61 175.75 218.26 219.24 181.14 219.19 169.28 215.11 171.2 168.96 127.73 188.39 154.18 150.36 83.18 156.04 147.75 125.97 82.24 98.01 153.39 101.39 108.39 46.19 169.81 82.25 155.61 12.45 193.24 72.93 213.11 4.53 218.32 75.57 267.7 24.23 239.3 89.56 306.88 67.05 251.38 111.69 321.67 123.17 251.78 136.91 308.69 179.74"/>
  <g>
    <path class="cls-5" d="M200.9,157.38v6.65s0,.08,0,.11v16.3c0,.07,0,.15-.01.22-.01.34-.06.68-.16,1l-10.26,33.83-1.47,4.83v.02c-.52,1.71-2.09,2.85-3.83,2.85h-.11c-2.19.23-4.39.34-6.59.34-2.06,0-4.11-.1-6.15-.3-7.59-.72-14.94-2.78-21.85-6.11-2.05-.99-4.08-2.11-6.04-3.32-4.31-2.68-8.28-5.83-11.8-9.38-.42-.42-.83-.85-1.25-1.29-1.09-1.16-2.12-2.32-3.05-3.48-.59-.72-1.18-1.48-1.73-2.21-.68-.92-1.38-1.92-2.06-2.94-4.63-6.99-7.81-14.71-9.46-22.96l-.04-.19c-.06-.32-.13-.64-.18-.96-.71-3.9-1.07-7.83-1.06-11.74v-15.01c0-.09,0-.18.01-.27-.04-2.88.11-5.75.45-8.61.03-.27.06-.6.11-.93,2.99-22.38,17.74-41.87,38.49-50.81,1.16-.51,2.5-.43,3.6.22l4.6,2.69,16.65,9.74,6.64,3.88.07.04c.9.37,1.59,1.06,2.01,1.91.02.05.05.09.07.14h0c.06.13.11.25.16.38.04.12.08.26.11.39.03.15.06.3.08.45.01.14.02.27.02.41-.01.02,0,.04,0,.06v16.3c0,.3-.03.59-.1.88-.04.19-.1.37-.17.56-.07.18-.15.36-.25.53-.05.08-.1.17-.15.25l-7.05,10.59,6.35,6.83.1.1c.06.06.11.12.16.19.08.1.15.2.23.31.07.1.14.21.2.33.06.11.11.23.17.35.05.12.09.24.13.36.03.11.06.21.08.32.07.28.1.57.1.87v4.11l1.36-.25c.17-.03.24-.06.24-.06.25-.09.6-.18.86-.22,1.3-.19,2.61.28,3.5,1.24l7.1,7.63.1.1c.06.06.11.12.16.19.08.1.15.2.23.31.07.1.14.21.2.33.12.22.22.46.3.71.04.13.07.26.1.39.03.13.05.26.06.39.01.14.02.27.02.41Z"/>
    <g>
      <g>
        <path class="cls-4" d="M196.9,180.49l-11.74,38.67c-4.22.47-8.39.49-12.47.09-7.21-.69-14.13-2.67-20.49-5.74-1.94-.94-3.84-1.98-5.67-3.12-4.01-2.49-7.73-5.43-11.06-8.79-.41-.41-.8-.81-1.19-1.23-.99-1.04-1.94-2.12-2.84-3.24-.56-.68-1.1-1.37-1.62-2.08-.67-.9-1.32-1.83-1.94-2.77-4.21-6.36-7.29-13.62-8.88-21.53-.07-.36-.14-.72-.21-1.08-1.17-6.44-1.29-12.81-.46-18.97,2.79-20.97,16.47-39.24,36.1-47.71l28.43,16.62-17.8,26.68,31.83,34.18Z"/>
        <path class="cls-1" d="M172.7,185.42v33.83c-7.21-.69-14.13-2.67-20.49-5.74v-28.09h20.49Z"/>
        <rect class="cls-4" x="117.8" y="143.64" width="9.14" height="14.98"/>
        <polygon class="cls-1" points="165.07 129.99 182.87 103.27 182.87 119.63 165.07 146.35 165.07 129.99"/>
        <path class="cls-6" d="M196.9,164.18l-11.73,38.67c-13.93,1.54-27.42-1.81-38.63-8.77-4.01-2.48-7.73-5.43-11.07-8.79-.4-.4-.79-.81-1.19-1.23-.4-.43-.8-.86-1.18-1.3-.57-.63-1.12-1.28-1.65-1.93-.57-.69-1.11-1.38-1.63-2.08-.67-.91-1.32-1.83-1.94-2.77-4.21-6.36-7.29-13.62-8.88-21.54-.07-.36-.14-.72-.21-1.08-1.12-6.14-1.27-12.23-.56-18.12.03-.28.06-.56.1-.84,2.8-20.97,16.47-39.24,36.11-47.71l4.6,2.69,23.83,13.93-17.8,26.68,4.53,4.87,27.3,29.32Z"/>
        <polygon class="cls-1" points="196.9 180.37 185.17 219.19 185.17 202.85 196.9 164.03 196.9 180.37"/>
        <path class="cls-3" d="M165.07,129.99l4.53,4.87-36.5,47.9c-.57-.63-1.12-1.28-1.65-1.93-.57-.69-1.11-1.38-1.63-2.08-.67-.91-1.32-1.83-1.94-2.77-4.21-6.36-7.29-13.62-8.88-21.54-.07-.36-.14-.72-.21-1.08-1.12-6.14-1.27-12.23-.56-18.12l40.81-45.86,23.83,13.93-17.8,26.68Z"/>
      </g>
      <path class="cls-1" d="M175.89,99.24v7.51c-1.69.1-3.39.31-5.1.62-19.63,3.58-33.73,19.87-35.38,38.83-1.93-22.02,13.2-42.3,35.38-46.34,1.71-.31,3.42-.52,5.1-.62Z"/>
      <path class="cls-4" d="M196.9,164.18l-1.72,5.67-4.29,14.12c-1.49.44-3.01.81-4.57,1.09-22.28,4.07-43.69-9.71-49.54-31.17-.33-1.19-.61-2.42-.84-3.66-.24-1.35-.43-2.69-.54-4.03,1.64-18.96,15.75-35.25,35.38-38.83,1.71-.31,3.42-.52,5.1-.62v-7.51l6.98,4.08-3.6,5.4-14.19,21.27,2.92,3.13,28.92,31.05Z"/>
      <g>
        <path class="cls-1" d="M196.9,163.92c-1.46.62-3.1,1.11-4.93,1.49l.5,2.74c.22,1.2.07,2.08-.41,2.65-.49.58-1.48,1-2.97,1.27l-4.6.84c-1.23.22-2.16.13-2.76-.29-.6-.42-1.01-1.18-1.21-2.29l-.5-2.74-7.28,1.33c-1.2.22-2.09.11-2.7-.3-.6-.42-1-1.18-1.2-2.29l-6.74-36.97c-.2-1.11-.1-1.98.31-2.6.42-.62,1.22-1.05,2.41-1.27l7.28-1.33-.51-2.81c-.2-1.11-.09-1.97.32-2.59.41-.63,1.24-1.06,2.47-1.29l5.11-.93c.63-.12,1.18-.14,1.65-.08l-11.86,17.78,13.39,14.38-3.61.66,1.57,8.62,8.11-1.48c.34-.06.66-.14.95-.25h0s7.2,7.74,7.2,7.74Z"/>
        <rect class="cls-1" x="162.01" y="121.16" width="3.29" height="6.86"/>
        <rect class="cls-1" x="189.97" y="157.38" width="6.93" height="6.54"/>
        <rect class="cls-1" x="178.18" y="142.1" width="4.49" height="6.53"/>
        <polygon class="cls-1" points="169.28 127.65 181.14 109.9 181.14 116.47 169.28 134.22 169.28 127.65"/>
        <path class="cls-6" d="M196.9,157.38c-1.46.62-3.1,1.11-4.93,1.49l.5,2.74c.22,1.2.07,2.08-.41,2.65-.49.58-1.48,1-2.97,1.27l-4.6.84c-1.23.22-2.16.13-2.76-.29-.6-.42-1.01-1.18-1.21-2.29l-.5-2.74-7.28,1.33c-1.2.22-2.09.11-2.7-.3-.6-.42-1-1.18-1.2-2.29l-6.74-36.97c-.2-1.11-.1-1.98.31-2.6.42-.62,1.22-1.05,2.41-1.27l7.28-1.33-.51-2.81c-.2-1.11-.09-1.97.32-2.59.41-.63,1.24-1.06,2.47-1.29l5.11-.93c.63-.12,1.18-.14,1.65-.08l-11.86,17.78,13.39,14.38-3.61.66,1.57,8.62,8.11-1.48c.34-.06.66-.14.95-.25h0s7.2,7.74,7.2,7.74Z"/>
      </g>
      <path class="cls-2" d="M163.3,201.78c-.07,0-.13,0-.2-.02-15.89-3.24-30.21-13.55-38.31-27.59-.28-.48-.11-1.09.37-1.37.48-.28,1.09-.11,1.37.37,7.82,13.55,21.65,23.51,36.98,26.63.54.11.89.64.78,1.18-.1.47-.51.8-.98.8Z"/>
    </g>
  </g>
  <g>
    <path class="cls-5" d="M283.03,159.1c.01.55.02,1.11.01,1.65v.02h-.4s-.04.05-.05.08h.45c0,.58-.01,1.15-.03,1.72-.06,1.83-.21,3.75-.45,5.68-.38,3.09-.98,6.19-1.81,9.2-3.61,13.3-11.25,24.9-22.1,33.56-2.48,1.97-5.1,3.76-7.8,5.34t-.02.01c-4.89,2.84-10.09,5.02-15.5,6.5-1.81.49-3.64.91-5.49,1.24-3.78.69-7.61,1.03-11.47,1.03-2.64,0-5.3-.16-7.95-.48-1.62-.2-3.12-.44-4.58-.73-.21-.04-.42-.11-.63-.19-.04-.01-.08-.03-.12-.05-.42-.17-.81-.42-1.14-.72-.02-.02-.04-.03-.06-.05-.02-.01-.03-.03-.05-.05-.17-.16-.33-.34-.47-.54-.02-.03-.04-.06-.06-.09-.12-.18-.23-.38-.32-.58-.02-.03-.03-.06-.05-.09,0-.02-.01-.03-.02-.05-.08-.2-.14-.41-.19-.63-.01-.05-.02-.1-.03-.15-.05-.23-.07-.47-.07-.7,0-.01-.01-.02-.01-.04v-16.31s.01-.02.01-.03c0-.24.02-.49.07-.72,0-.03.01-.06.01-.08.05-.23.12-.45.21-.67.02-.04.03-.08.05-.12.1-.22.21-.43.34-.63l16.84-24.76-14.63-30.48c-.11-.25-.2-.51-.26-.77-.02-.07-.03-.14-.05-.22-.03-.2-.06-.4-.06-.6-.01-.05-.02-.1-.02-.14v-22.97s.01-.05.01-.07c0-.03,0-.07.01-.1.06-1.45.9-2.72,2.15-3.37l8.92-7.21-7.32-8.1s-.02-.03-.03-.04c-.14-.16-.26-.32-.37-.49-.03-.06-.06-.11-.09-.17-.09-.15-.16-.29-.22-.44-.03-.06-.05-.12-.07-.17-.08-.21-.14-.42-.18-.64h0c-.04-.23-.06-.45-.06-.66,0-.03-.01-.05-.01-.07v-16.32c0-.06.01-.11.01-.17.01-.1.01-.19.02-.29,0-.09.03-.18.05-.28.01-.09.03-.18.06-.27.02-.1.05-.19.08-.28,0-.04.02-.09.04-.13.02-.05.04-.09.06-.13.04-.09.08-.17.12-.25.04-.09.09-.18.14-.26.05-.08.09-.15.14-.22.06-.08.12-.16.19-.24.05-.07.1-.13.16-.19.07-.08.14-.15.22-.22.06-.06.12-.11.19-.17.08-.06.17-.13.25-.19.07-.04.14-.09.21-.13.09-.06.2-.11.3-.16.05-.03.1-.06.15-.08.02-.01.03-.01.05-.02.11-.05.22-.08.34-.12.07-.02.13-.05.2-.07.11-.02.22-.04.34-.06.07,0,.15-.03.22-.04.01,0,.02-.01.04-.01,4.83-.51,9.78-.47,14.71.13,11.69,1.43,22.74,6,31.96,13.22h.01c.45.36.9.71,1.33,1.07,5.57,4.61,10.29,10.03,14.02,16.12,2.92,4.76,5.21,9.84,6.79,15.1.81,2.65,1.45,5.4,1.91,8.16.19,1.11.35,2.32.49,3.58.11.96.19,1.92.24,2.82.11,1.49.15,3.04.13,4.57,0,.11-.01.21-.01.32v14.35Z"/>
    <g>
      <g>
        <path class="cls-1" d="M279.04,160.71c0,.57-.01,1.14-.04,1.71-.06,1.77-.2,3.55-.42,5.35-.36,2.96-.93,5.84-1.69,8.63-3.46,12.74-10.89,23.64-20.73,31.49-2.32,1.84-4.77,3.52-7.34,5.02-6.03,3.51-12.67,6-19.69,7.27-5.87,1.06-11.99,1.27-18.23.51-1.45-.18-2.87-.4-4.28-.68l22.71-33.42-20.21-42.12,24.93-20.17-22.19-24.34c4.5-.48,9.13-.45,13.81.12,11.92,1.47,22.61,6.28,31.23,13.4,5.19,4.29,9.65,9.41,13.16,15.12.05.09.1.16.15.25,3.97,6.53,6.73,13.84,8.01,21.58.19,1.1.34,2.22.46,3.34.1.88.17,1.75.23,2.64.09,1.42.14,2.85.12,4.3Z"/>
        <path class="cls-2" d="M248.82,188.96v23.94c-6.03,3.51-12.67,6-19.69,7.27v-31.2h19.69Z"/>
        <path class="cls-4" d="M279.04,160.71c0,.57-.01,1.14-.04,1.71-.06,1.77-.2,3.55-.42,5.35-.36,2.96-.93,5.84-1.69,8.63-3.46,12.74-10.89,23.64-20.73,31.49v-79.03h14.06c3.97,6.53,6.73,13.84,8.01,21.58.19,1.1.34,2.22.46,3.34.1.88.17,1.75.23,2.64.09,1.42.14,2.85.12,4.3Z"/>
        <rect class="cls-4" x="273.79" y="144.32" width="5.25" height="14.73"/>
        <polygon class="cls-1" points="211.87 99.95 211.87 83.64 238.97 108.53 225.42 114.96 211.87 99.95"/>
        <polygon class="cls-1" points="209.13 128.14 209.13 144.46 224.75 177.01 229.34 170.26 209.13 128.14"/>
        <polygon class="cls-1" points="218.26 219.24 206.62 219.99 206.62 203.68 218.26 203.68 218.26 219.24"/>
        <path class="cls-6" d="M279.04,144.4c0,.57-.01,1.13-.03,1.7-.06,1.77-.2,3.56-.42,5.35-.36,2.96-.93,5.84-1.7,8.63-7.79,28.66-35.65,48-65.99,44.28-1.44-.17-2.87-.4-4.28-.68l22.72-33.42-.45-.94-16.74-34.88-3.02-6.3,24.93-20.16-22.19-24.34c4.5-.48,9.13-.45,13.81.12,11.35,1.39,21.58,5.83,29.98,12.4.42.33.84.66,1.25,1,5.19,4.29,9.65,9.4,13.16,15.13,2.7,4.4,4.86,9.15,6.37,14.16.76,2.5,1.36,5.06,1.79,7.66.19,1.1.34,2.22.46,3.35.1.87.18,1.75.23,2.63.1,1.43.14,2.86.12,4.31Z"/>
        <path class="cls-3" d="M276.44,126.45l-47.55,42.87-16.74-34.88,43.51-38.28c.42.33.84.66,1.25,1,5.19,4.29,9.65,9.4,13.16,15.13,2.7,4.4,4.86,9.15,6.37,14.16Z"/>
      </g>
      <path class="cls-1" d="M261.43,147.77c-1.51-17.38-13.46-32.3-30.18-37.52l2.81-2.27-5.45-5.96c20.53,5,34.68,24.36,32.82,45.76Z"/>
      <path class="cls-4" d="M261.43,147.77c-.04.51-.09,1.04-.16,1.56-.16,1.26-.36,2.49-.62,3.71-3.9,18.5-19.33,32.11-37.68,34.08-1.73.19-3.49.27-5.26.24l9.51-13.99,2.11-3.11-17.61-36.71-2.59-5.4,20.98-16.98,1.14-.91c16.72,5.22,28.67,20.14,30.18,37.52Z"/>
      <g>
        <path class="cls-2" d="M238.77,149.21c-.44-2.28-1.64-4.05-3.6-5.32-.41-.27-.86-.52-1.35-.75,1.62-.46,2.98-1.4,4.07-2.84,1.09-1.44,1.76-3.14,2-5.12.89-7.26-2.46-11.86-10.04-13.76-.93-.24-1.92-.44-2.97-.59l.35-2.83c.14-1.12-.04-1.98-.51-2.58-.23-.29-.55-.54-.97-.73l-16.62,13.45,8.5,17.72,4.28.52c.42.05.8.13,1.17.24.85.26,1.54.68,2.05,1.26.73.84,1,1.98.82,3.44-.03.28-.09.56-.17.82-.24.9-.69,1.62-1.34,2.16-.64.53-1.42.8-2.35.84l4.57,9.53c2.71-.27,5.02-1.02,6.92-2.26,2.48-1.63,4.11-4,4.88-7.13.17-.66.3-1.35.39-2.07.18-1.48.15-2.83-.09-4.04ZM225.35,137.04c-.81.58-1.89.78-3.22.62l-7.09-.87.96-7.8,7.09.87c1.41.17,2.43.61,3.05,1.29.62.68.83,1.71.67,3.08-.16,1.29-.64,2.23-1.45,2.8Z"/>
        <rect class="cls-2" x="235.59" y="145.02" width="3.38" height="6.74"/>
        <rect class="cls-2" x="237.21" y="126.43" width="2.83" height="6.56"/>
        <path class="cls-6" d="M238.77,142.67c-.44-2.28-1.64-4.05-3.6-5.32-.41-.27-.86-.52-1.35-.75,1.62-.46,2.98-1.4,4.07-2.84,1.09-1.44,1.76-3.14,2-5.12.89-7.26-2.46-11.86-10.04-13.76-.93-.24-1.92-.44-2.97-.59l.35-2.83c.14-1.12-.04-1.98-.51-2.58-.23-.29-.55-.54-.97-.73l-16.62,13.45,8.5,17.72,4.28.52c.42.05.8.13,1.17.24.85.26,1.54.68,2.05,1.26.73.84,1,1.98.82,3.44-.03.28-.09.56-.17.82-.24.9-.69,1.62-1.34,2.16-.64.53-1.42.8-2.35.84l4.57,9.53c2.71-.27,5.02-1.02,6.92-2.26,2.48-1.63,4.11-4,4.88-7.13.17-.66.3-1.35.39-2.07.18-1.48.15-2.83-.09-4.04ZM225.35,130.5c-.81.58-1.89.78-3.22.62l-7.09-.87.96-7.8,7.09.87c1.41.17,2.43.61,3.05,1.29.62.68.83,1.71.67,3.08-.16,1.29-.64,2.23-1.45,2.8Z"/>
        <polygon class="cls-1" points="217.63 145.87 209.13 128.14 209.13 121.49 217.63 139.22 217.63 145.87"/>
        <polygon class="cls-1" points="226.66 164.7 222.09 155.28 222.09 148.63 226.66 158.16 226.66 164.7"/>
      </g>
      <path class="cls-2" d="M215.57,206.64c-.38,0-.76,0-1.13,0-.55,0-.99-.46-.98-1.02,0-.55.46-.98,1-.98h.02c19.44.36,38.44-8.33,50.92-23.19.35-.42.99-.48,1.41-.12.42.36.48.99.12,1.41-12.62,15.02-31.75,23.91-51.35,23.91Z"/>
      <path class="cls-2" d="M269.56,178.27c-.26,0-.52-.1-.72-.3-.38-.4-.37-1.03.02-1.41,1.91-1.84,3.31-4.16,4.07-6.7.16-.53.71-.83,1.24-.67.53.16.83.71.67,1.24-.85,2.87-2.44,5.49-4.6,7.57-.19.19-.45.28-.7.28Z"/>
    </g>
  </g>
</svg>