<?xml version="1.0" encoding="UTF-8"?>
<svg id="Expanded" xmlns="http://www.w3.org/2000/svg" viewBox="0 0 400 250">
  <defs>
    <style>
      .cls-1 {
        fill: #ea9939;
      }

      .cls-2 {
        fill: #d87625;
      }

      .cls-3 {
        fill: #f4b545;
      }

      .cls-4 {
        fill: #aa5217;
      }

      .cls-5 {
        fill: #6d3108;
      }

      .cls-6 {
        fill: #ffe277;
      }
    </style>
  </defs>
  <path class="cls-6" d="M252.08,31.41c-4.76,6.42-11.92,10.5-18.33,15.27-3.59,2.67-7.01,5.71-9.6,9.39-1.29,1.83-2.36,3.82-3.08,5.95-.2.6-.6,1.54-.74,2.34-.05.32-.07.61-.02.86.15.82,1,1.09.61,2.13-.26.7-.86,1.2-1.47,1.62-5.78,4.09-13.75,4.28-20.66,2-4.7-1.55-9.02-4.12-13.01-7.06-1.76-1.29-4.13-2.72-5.4-4.49-1.45-2.01-2.59-4.44-3.89-6.57-5.81-9.57-11.63-19.13-17.44-28.7-.85-1.4-1.72-2.88-1.74-4.48-.04-3.12,3.32-5.28,6.44-5.16,3.11.12,5.97,1.84,8.67,3.49.36.22.72.44,1.09.66,2.38,1.41,4.91,2.68,7.61,2.71,3.43.03,6.44-1.92,9.44-3.47,1.63-.84,3.46-1.58,5.29-1.82,1.54-.21,3.08-.07,4.5.63,3.22,1.59,4.98,5.74,8.47,6.49h.02c4.13.88,7.47-3.58,11.66-3.73,1.28-.05,2.46.3,3.6.85,3.51,1.71,6.57,5.46,10.52,5.91.13.01.25.02.38.02,3.39.21,6.37-2.01,9.49-3.33,3.23-1.37,8.04-1.12,9.29,2.25.79,2.16-.37,4.46-1.7,6.26Z"/>
  <path class="cls-3" d="M252.08,31.41c-4.76,6.42-11.92,10.5-18.33,15.27-3.59,2.67-7.01,5.71-9.6,9.39-1.29,1.83-2.36,3.82-3.08,5.95-.2.6-.6,1.54-.74,2.34-.24.03-.49,0-.72-.11-.79-.4-.81-1.49-.69-2.34,1.81-13.21,7.47-25.73,16.08-35.68,3.39.21,6.37-2.01,9.49-3.33,3.23-1.37,8.04-1.12,9.29,2.25.79,2.16-.37,4.46-1.7,6.26Z"/>
  <path class="cls-1" d="M222.38,48.05c-.1,0-.19-.01-.29-.04-.53-.16-.83-.72-.67-1.25,2.29-7.55,6.44-14.46,11.99-19.98.39-.39,1.02-.39,1.41,0,.39.39.39,1.02,0,1.41-5.32,5.29-9.29,11.91-11.49,19.14-.13.43-.53.71-.96.71Z"/>
  <path class="cls-3" d="M224.1,20.29c-.59,1.89-1.7,3.57-2.79,5.21-4.48,6.73-8.95,13.45-13.42,20.17-.35.53-.77,1.1-1.41,1.19-.75.1-1.45-.56-1.67-1.3-.21-.73-.07-1.5.07-2.25,1.32-6.7,2.64-13.43,3.96-20.14,4.13.88,7.47-3.58,11.66-3.74,1.28-.05,2.46.3,3.6.85Z"/>
  <path class="cls-3" d="M195.85,16.06c-.06.74-.15,1.47-.24,2.21-1.12,9.39-1.94,18.81-2.76,28.25-.05.58-.1,1.18-.36,1.69s-.77.94-1.35.92c-.84-.03-1.4-.87-1.81-1.62-2.71-4.93-5.42-9.85-8.13-14.78-1.18-2.14-2.61-3.96-3.86-6.06-1.42-2.39-2.84-4.78-4.26-7.16l.43-.86c2.38,1.41,4.91,2.68,7.61,2.71,3.43.03,6.44-1.92,9.44-3.47,1.63-.84,3.46-1.58,5.29-1.82Z"/>
  <path class="cls-1" d="M193.25,43.84s-.08,0-.12,0c-.55-.07-.94-.57-.87-1.12l3.23-25.95c.07-.55.57-.94,1.12-.87.55.07.94.57.87,1.12l-3.23,25.95c-.06.51-.49.88-.99.88Z"/>
  <path class="cls-6" d="M290.8,222.27c-1.92,2.33-5.15,3.2-8.21,3.21-3.07.01-6.11-.72-9.18-1.02-7.82-.75-13.77,2.53-21.05,4.01-6.45,1.32-12.79,3.15-19.3,4.23-15.86,2.66-32.09,3.42-48.26,2.32-12.93-.88-25.92-.94-38.5-4.51-1.98-.56-3.94-1.21-5.9-1.96-9.45-3.64-19.74-7.67-25.08-16.75-.76-1.29-1.43-2.62-2-3.99-3.78-9.09-3.23-19.35-.68-28.63,2.56-9.29,7-17.86,10.97-26.59,2.3-5.04,4.46-10.18,6-15.54,1.33-4.63,1.91-8.91,4.12-13.16,5.12-9.89,7.41-20.82,13.68-30.23,5.58-8.37,13.53-15.53,23.31-18.19l20.25,1.37,36.58,2.47c7.63.98,14.44,5.96,19.23,12.11,4.79,6.14,7.84,13.42,10.64,20.64,2.91,7.49,5.34,15.13,8.14,22.64,1.94,5.18,2.98,10.57,5.31,15.66,4.52,9.9,12.16,19.63,11.59,30.91-.32,6.34-.56,10.53,2.34,16.46,2.52,5.18,10.29,19.34,6,24.53Z"/>
  <path class="cls-3" d="M121.49,160.06c.92,11.6-4.36,22.7-4.19,34.32.11,7.32,2.58,14.62,6.74,20.77,2.12,3.13,4.67,5.96,7.59,8.37,1.46,1.21,3.3,2.05,4.72,3.23,1.06.89,1.67,2.68-.6,3.04-1.37.22-2.71-.57-3.99-1.18-3.1-1.47-6.62-1.95-9.93-1.37-2.22.39-4.33,1.24-6.57,1.52s-4.78-.14-6.32-1.86c-1.72-1.91-1.68-4.81-.91-7.18,1.06-3.3,2.84-6.16,3.43-9.64s-.47-7.8-.87-11.45c-.5-4.44-.99-8.91-.55-13.32.91-9.02,5.64-17.03,10.61-24.48"/>
  <path class="cls-3" d="M290.8,222.27c-1.92,2.33-5.15,3.2-8.21,3.21-3.07.01-6.11-.72-9.18-1.02-7.82-.75-13.77,2.53-21.05,4.01-6.45,1.32-12.79,3.15-19.3,4.23-15.86,2.66-32.09,3.42-48.26,2.32-12.93-.88-25.92-.94-38.5-4.51,13.36,1.69,26.9,2.99,39.94.44,14.5-2.82,28.54-11.28,34.08-24.91,2.38-5.85,3.28-12.17,6-17.89,2.15-4.51,5.7-7.67,7.53-12.43.7-1.82,1.41-3.65,2.11-5.47,1.24-3.21,2.48-6.45,3.11-9.86,1.25-6.77-.02-13.9-2.47-20.46-2.62-7.01-6.69-16.94-11.81-22.45-2.41-2.6-5.5-4.45-8.21-6.74-3.97-3.35-6.26-8.44-9.52-12.48-4.08-5.07-8.81-9.55-13.57-13.96l-2.53-7.46,36.58,2.47c7.63.98,14.44,5.96,19.23,12.11,4.79,6.14,7.84,13.42,10.64,20.64,2.91,7.49,5.34,15.13,8.14,22.64,1.94,5.18,2.98,10.57,5.31,15.66,4.52,9.9,12.16,19.63,11.59,30.91-.32,6.34-.56,10.53,2.34,16.46,2.52,5.18,10.29,19.34,6,24.53Z"/>
  <path class="cls-1" d="M280.63,171.94c-1.67,10.14-3.92,20.18-6.72,30.07-1.27,4.49-2.67,8.97-4.79,13.12s-5,8-8.81,10.69c2.99-2.25,7.04-2.46,10.76-2.02,3.72.44,7.4,1.43,11.14,1.24s7.72-1.9,9.24-5.32c1.11-2.49.71-5.43-.31-7.95s-2.62-4.77-3.97-7.14c-4.67-8.18-6.36-18.02-4.68-27.29"/>
  <path class="cls-5" d="M199.08,237.51c-4.8,0-9.61-.16-14.42-.49-2.07-.14-4.14-.27-6.2-.39-9.5-.58-19.33-1.19-28.99-3.13-2.36-.47-4.65-1.01-6.86-1.53-7.83-1.84-15.22-3.58-23.64-1.76l-.89.2c-1.85.42-3.76.85-5.84.66-3.15-.28-5.77-2.1-6.69-4.63-1.08-2.98.37-5.73,1.54-7.94.2-.38.4-.76.59-1.13,1.81-3.68,1.52-7.88,1.22-12.34-.1-1.42-.2-2.89-.23-4.34-.15-8.22.13-15.11,2.04-22.04,2.1-7.64,5.47-14.84,8.73-21.81.79-1.69,1.58-3.38,2.35-5.07,2.02-4.43,4.3-9.71,5.9-15.26.38-1.31.7-2.62,1.01-3.88.78-3.16,1.58-6.42,3.25-9.65,2.07-4,3.71-8.29,5.3-12.44,2.31-6.04,4.7-12.28,8.5-17.98,6.49-9.73,15.17-16.49,24.44-19.01,1.07-.29,2.17.34,2.46,1.4.29,1.07-.34,2.17-1.4,2.46-8.34,2.27-16.22,8.44-22.17,17.37-3.55,5.33-5.75,11.09-8.09,17.19-1.63,4.25-3.31,8.65-5.48,12.85-1.45,2.81-2.17,5.7-2.92,8.77-.32,1.3-.65,2.65-1.05,4.03-1.67,5.8-4.02,11.25-6.1,15.81-.78,1.71-1.57,3.41-2.37,5.11-3.19,6.82-6.48,13.86-8.49,21.18-1.78,6.47-2.05,13.04-1.9,20.91.03,1.35.12,2.71.22,4.14.33,4.79.67,9.73-1.62,14.38-.2.41-.42.82-.64,1.24-.92,1.74-1.79,3.39-1.32,4.7.44,1.22,2.01,1.9,3.28,2.01,1.46.13,2.98-.22,4.6-.58l.93-.21c9.31-2.01,17.13-.17,25.4,1.78,2.18.51,4.43,1.04,6.73,1.5,9.4,1.89,19.08,2.48,28.45,3.06,2.07.13,4.15.26,6.23.4,16.09,1.09,32.17.32,47.79-2.29,3.79-.63,7.62-1.55,11.32-2.43,2.58-.61,5.25-1.25,7.91-1.79,2.26-.46,4.45-1.12,6.57-1.76,4.62-1.39,9.4-2.83,15.08-2.28,1.19.11,2.36.29,3.5.46,1.9.28,3.68.56,5.48.54,2.95,0,5.38-.91,6.67-2.48,3.08-3.73-3.12-16.11-5.45-20.78-.3-.6-.57-1.14-.8-1.61-3.09-6.34-2.86-10.93-2.54-17.27v-.17c.4-7.77-3.55-15.06-7.36-22.1-1.39-2.57-2.83-5.23-4.04-7.88-1.43-3.13-2.4-6.36-3.33-9.48-.62-2.09-1.27-4.25-2.04-6.3-1.25-3.35-2.44-6.76-3.59-10.06-1.44-4.13-2.93-8.41-4.54-12.55-2.68-6.91-5.69-14.16-10.35-20.14-4.98-6.4-11.51-10.53-17.91-11.35-1.1-.14-1.87-1.14-1.73-2.24.14-1.1,1.14-1.86,2.24-1.73,7.43.95,14.93,5.64,20.55,12.86,5,6.41,8.14,13.96,10.93,21.15,1.63,4.21,3.14,8.52,4.59,12.68,1.14,3.28,2.33,6.68,3.56,9.98.82,2.19,1.48,4.41,2.12,6.56.93,3.13,1.81,6.08,3.13,8.96,1.16,2.53,2.5,5.01,3.92,7.64,4.08,7.53,8.3,15.32,7.85,24.21v.17c-.32,6.17-.51,9.9,2.13,15.32.22.46.49.99.78,1.57,3.39,6.77,9.7,19.38,4.96,25.11-2.08,2.52-5.54,3.92-9.75,3.93-2.1.04-4.11-.3-6.08-.59-1.14-.17-2.21-.33-3.29-.43-4.9-.47-9.1.79-13.54,2.13-2.2.66-4.48,1.35-6.92,1.85-2.59.53-5.23,1.16-7.78,1.77-3.77.9-7.66,1.82-11.59,2.48-11.26,1.88-22.75,2.83-34.3,2.83Z"/>
  <path class="cls-2" d="M228.05,78.06c-.8,1.1-2,1.82-3.21,2.44-10.74,5.42-23.71,4.12-35.84,2.38-5.37-.77-11.03-1.74-15.24-5.26-1.81-1.5-3.32-3.59-3.48-5.89-.26-3.75,1.99-4.97,4.55-4.54-.55-.98-.83-2.12-.59-3.19.83-3.72,5.27-3.57,8.1-2.52,1.82.67,3.49,1.68,5.21,2.57,9.28,4.8,20.23,6.07,30.1,3.5,1.4-.36,2.85-.81,4.3-.58,1.46.23,2.94,1.38,2.95,2.85.02.95-.57,1.8-1.33,2.33-.2.15-.41.27-.63.39.61-.16,1.25-.26,1.89-.25,1.42,0,2.95.63,3.64,1.89.67,1.23.36,2.78-.44,3.88Z"/>
  <path class="cls-2" d="M226.38,106.14c.26,3.76.91,8.19.34,11.9-.43,2.8-2.47,5.47.47,8.03,1.91,1.67,4.68,1.65,7.17,1.53,1.97-.09,4.31-.42,5.08-2.21.48-1.12.15-2.43-.19-3.63-1.93-6.83-4.08-13.56-5.24-20.53-.62-3.74-1.35-7.48-2.33-11.16-.5-1.87-1.06-3.73-1.7-5.57-.37-1.07-.86-3.93-2.1-4.31-.42-.13-.86-.09-1.3-.04-.97.1-1.96.24-2.8.71-2,1.14-1.12,2.79-.67,4.61.57,2.29,1.07,4.59,1.51,6.9.85,4.55,1.44,9.15,1.76,13.75Z"/>
  <path class="cls-2" d="M223.82,86.48c.33-.95.18-2.06-.39-2.92s-1.54-1.44-2.55-1.53c-.97-.08-1.91.27-2.81.61-1.25.48-2.85.64-3.24,1.94s-.45,2.89-.66,4.27c-.44,2.92-.89,5.85-1.59,8.71-1.04,4.24-3.07,8.37-4.62,12.44-.25.65-.5,1.34-.4,2.04.14.94.92,1.71,1.79,2.11s1.84.49,2.79.57c1.3.12,2.61.23,3.88,0s2.51-.83,3.21-1.9c1.31-2,1.05-5.35,1.3-7.67.7-6.47,1.77-12.81,2.51-19.28"/>
  <path class="cls-5" d="M232.73,129.65c-2.14,0-4.82-.3-6.85-2.07-3.18-2.77-2.23-5.94-1.59-8.04.19-.64.37-1.24.46-1.8.41-2.65.13-5.79-.14-8.83-.08-.9-.16-1.78-.22-2.63-.52-7.52-1.79-15.08-3.77-22.47-.29-1.07.35-2.16,1.41-2.45,1.07-.29,2.16.35,2.45,1.41,2.05,7.63,3.36,15.45,3.9,23.23.06.83.13,1.68.21,2.56.28,3.12.59,6.67.11,9.79-.13.84-.36,1.6-.58,2.35-.63,2.08-.78,2.85.39,3.87,1.32,1.15,3.48,1.15,5.76,1.05,2.45-.11,3.16-.61,3.33-1,.22-.52-.08-1.58-.28-2.29-.36-1.28-.73-2.55-1.1-3.83-1.59-5.48-3.23-11.14-4.19-16.92-.92-5.51-2.33-12.71-5.14-19.55-.42-1.02.07-2.19,1.09-2.61,1.02-.42,2.19.07,2.61,1.09,2.97,7.21,4.44,14.7,5.39,20.42.92,5.54,2.53,11.09,4.08,16.46.37,1.28.74,2.56,1.11,3.85.35,1.25.89,3.14.1,4.97-1.37,3.17-5.33,3.35-6.83,3.41-.5.02-1.09.05-1.72.05Z"/>
  <path class="cls-5" d="M214.41,116.87c-.86,0-1.69-.08-2.46-.15-1-.09-2.24-.2-3.43-.74-1.61-.73-2.71-2.09-2.94-3.63-.19-1.24.23-2.33.51-3.05.48-1.25,1-2.52,1.53-3.79,1.15-2.76,2.33-5.62,3.02-8.41.71-2.87,1.17-5.94,1.61-8.91.23-1.55.46-3.09.73-4.61.19-1.09,1.23-1.81,2.31-1.63,1.09.19,1.82,1.22,1.63,2.31-.26,1.49-.49,3-.71,4.52-.46,3.06-.93,6.22-1.68,9.27-.76,3.09-2.01,6.09-3.21,8.99-.51,1.23-1.02,2.46-1.49,3.68-.12.31-.32.83-.29,1.03.02.11.23.4.64.58.58.26,1.37.33,2.14.4,1.15.1,2.34.21,3.35.03.87-.15,1.56-.53,1.89-1.03.67-1.03.77-3,.85-4.73.03-.73.07-1.43.14-2.06.37-3.45.86-6.9,1.32-10.24.41-2.96.84-6.02,1.19-9.05.13-1.1,1.13-1.89,2.21-1.76,1.1.13,1.88,1.12,1.76,2.21-.35,3.08-.78,6.17-1.2,9.15-.46,3.31-.94,6.73-1.31,10.11-.06.56-.09,1.17-.12,1.82-.11,2.25-.23,4.79-1.5,6.74-.94,1.44-2.56,2.43-4.54,2.78-.66.12-1.31.16-1.95.16Z"/>
  <path class="cls-5" d="M220.23,67.71c-.08,0-.17,0-.25-.02-1.1-.14-1.87-1.14-1.74-2.23.91-7.22,5.59-13.89,14.31-20.39,1.52-1.13,3.1-2.24,4.62-3.31,5.06-3.54,9.85-6.89,13.3-11.55.92-1.25,1.92-3.02,1.42-4.38-.22-.6-.66-1.03-1.34-1.33-1.38-.6-3.56-.5-5.29.23-.78.33-1.57.73-2.4,1.15-2.47,1.25-5.25,2.67-8.48,2.31-3.01-.34-5.48-2.18-7.67-3.79-2.11-1.56-4.11-3.05-6.16-2.96-1.42.05-2.88.86-4.42,1.72-2.23,1.23-4.75,2.63-7.75,1.98-2.56-.55-4.3-2.38-5.83-3.99-1.04-1.09-2.01-2.12-3.11-2.66-1.93-.96-4.61-.56-7.98,1.18-.45.23-.9.47-1.35.72-2.63,1.41-5.61,3.01-9.03,2.98-3.8-.04-7.22-2.13-9.73-3.66-2.49-1.52-5.07-3.1-7.71-3.2-1.27-.04-2.65.46-3.52,1.3-.57.55-.85,1.17-.84,1.84.01,1.1.77,2.36,1.45,3.47l21.75,35.78c.57.94.27,2.17-.67,2.75-.94.57-2.17.27-2.75-.67l-21.75-35.78c-.85-1.39-2-3.3-2.03-5.5-.02-1.75.71-3.44,2.05-4.75,1.66-1.61,4.08-2.53,6.46-2.43,3.68.14,6.84,2.08,9.64,3.78,2.73,1.67,5.19,3.05,7.68,3.07,2.42.06,4.67-1.2,7.09-2.5.47-.25.94-.5,1.41-.75,4.56-2.36,8.46-2.76,11.59-1.21,1.73.86,3.06,2.26,4.23,3.49,1.3,1.37,2.42,2.55,3.78,2.84,1.53.33,3.12-.55,4.97-1.57,1.8-1,3.84-2.13,6.21-2.22,3.47-.14,6.24,1.93,8.69,3.75,1.95,1.45,3.8,2.81,5.74,3.03,2.02.23,4.05-.8,6.21-1.9.85-.43,1.74-.88,2.65-1.27,2.75-1.16,6.06-1.24,8.44-.21,1.69.73,2.91,1.98,3.51,3.62.9,2.44.24,5.17-1.96,8.14-3.84,5.18-9.11,8.87-14.22,12.44-1.5,1.05-3.05,2.14-4.53,3.24-7.81,5.81-11.97,11.6-12.73,17.68-.13,1.01-.99,1.75-1.98,1.75Z"/>
  <path class="cls-4" d="M195.79,155.46c-.61-1.73-1.46-3.25-2.56-4.57-1.1-1.32-2.38-2.48-3.87-3.47-1.48-.98-3-1.89-4.55-2.72-.64-.34-1.26-.64-1.89-.97.61-4.92,1.36-9.83,2.23-14.71.53.16,1.04.33,1.48.52,1.05.46,1.95.92,2.71,1.37.76.45,1.44.86,2.05,1.21.6.36,1.24.59,1.92.71,1.15.2,2.15,0,3.01-.57.85-.57,1.39-1.47,1.62-2.69.14-.74.16-1.4.05-2-.1-.59-.39-1.25-.85-1.97-.33-.51-.81-1.05-1.44-1.61-.63-.56-1.37-1.11-2.24-1.64-.87-.53-1.84-1.03-2.92-1.49-1.08-.46-2.26-.86-3.53-1.2.65-3.02,1.35-6.04,2.11-9.04.33-1.32.25-2.4-.25-3.22-.51-.83-1.38-1.41-2.62-1.74-1.24-.33-2.27-.25-3.1.24-.82.49-1.41,1.42-1.75,2.79-.82,3.26-1.58,6.53-2.28,9.81-2.5-.06-4.76.25-6.77.93-2.02.68-3.77,1.66-5.26,2.96-1.48,1.3-2.7,2.88-3.65,4.74-.95,1.86-1.59,3.92-1.93,6.15-.39,2.56-.31,4.81.21,6.72.52,1.91,1.32,3.56,2.4,4.95,1.08,1.39,2.37,2.59,3.85,3.61,1.49,1.02,3.02,1.92,4.59,2.73.49.25.97.48,1.46.73-.52,5.71-.87,11.43-1.04,17.16-1.09-.1-2.08-.24-2.9-.46-1.27-.34-2.35-.71-3.24-1.11-.89-.4-1.65-.76-2.29-1.09-.65-.33-1.31-.51-1.99-.54-1.14-.05-2.11.31-2.89,1.09-.78.77-1.2,1.9-1.24,3.37-.02.92.09,1.71.34,2.37.25.66.66,1.34,1.26,2.03.39.46.98.94,1.74,1.43.77.49,1.7.93,2.8,1.31,1.1.39,2.34.71,3.72.98,1.38.27,2.9.41,4.56.43.01,2.46.05,4.92.13,7.38.02.76.05,1.51.08,2.27.05,1.4.45,2.44,1.17,3.11.72.67,1.72.96,3,.89,1.28-.07,2.25-.47,2.9-1.19.65-.72.94-1.76.89-3.12-.13-3.32-.2-6.64-.2-9.96,2.51-.49,4.71-1.26,6.62-2.3,1.9-1.04,3.5-2.28,4.8-3.72,1.3-1.44,2.29-3.06,2.99-4.88.7-1.81,1.11-3.77,1.24-5.88.15-2.37-.07-4.41-.68-6.13ZM173.69,137.13c-.62-1.04-.82-2.25-.6-3.62.15-.96.46-1.83.92-2.6.46-.77,1.08-1.38,1.85-1.83.39-.23.83-.41,1.31-.56-.63,3.56-1.19,7.14-1.68,10.72-.72-.65-1.35-1.34-1.8-2.1ZM184.23,165.24c-.41.88-1.03,1.63-1.85,2.25-.42.31-.89.59-1.41.83.14-4.04.36-8.08.68-12.1.96.73,1.78,1.52,2.38,2.42.68,1.03.98,2.25.9,3.68-.06,1.07-.3,2.05-.71,2.93Z"/>
  <path class="cls-5" d="M206.04,86.39c-5.74,0-11.6-.72-17.33-1.54-5.98-.86-11.73-1.94-16.24-5.7-2.53-2.1-4.02-4.69-4.19-7.3-.2-2.93.87-4.54,1.8-5.39.59-.54,1.31-.92,2.1-1.14-.05-.6-.02-1.2.11-1.76.38-1.72,1.37-3.06,2.85-3.87,2.42-1.32,5.66-.91,7.9-.09,1.46.54,2.79,1.26,4.08,1.95.45.24.9.48,1.35.72,8.83,4.57,19.29,5.79,28.69,3.35l.39-.1c1.41-.37,3-.79,4.73-.52,2.23.34,4.61,2.14,4.65,4.8,0,.26-.02.53-.06.79,1.47.45,2.7,1.38,3.38,2.64.99,1.82.76,4.18-.58,6.02-1.06,1.46-2.58,2.36-3.92,3.04-6.12,3.09-12.83,4.11-19.7,4.11ZM173.88,69.1c-.48,0-.87.11-1.11.33-.39.35-.56,1.11-.49,2.15.1,1.48,1.11,3.12,2.76,4.49,3.7,3.09,8.85,4.04,14.24,4.82,11.94,1.72,24.46,2.96,34.65-2.18.96-.49,1.93-1.05,2.49-1.83,0,0,0,0,0,0,.36-.49.57-1.25.3-1.75-.27-.49-1.05-.84-1.89-.84-.4,0-.88.06-1.37.19-.97.26-1.99-.25-2.37-1.19-.38-.94,0-2.01.9-2.49.14-.08.28-.15.41-.25.35-.25.52-.53.52-.68,0-.29-.57-.8-1.26-.91-.9-.14-1.97.14-3.09.44l-.4.1c-10.34,2.69-21.83,1.35-31.52-3.66-.47-.24-.94-.5-1.41-.75-1.22-.66-2.37-1.28-3.57-1.72-1.71-.63-3.6-.69-4.59-.15-.46.25-.73.63-.86,1.23-.11.5.03,1.15.38,1.78.38.67.33,1.5-.11,2.13-.44.63-1.21.95-1.97.82-.22-.04-.43-.05-.62-.05Z"/>
  <path class="cls-4" d="M204.69,77.37c-9.41,0-18.78-2.24-27.35-6.56-.49-.25-.69-.85-.44-1.34.25-.49.85-.69,1.34-.44,9.61,4.85,20.27,6.99,30.82,6.18.54-.04,1.03.37,1.07.92.04.55-.37,1.03-.92,1.07-1.51.12-3.02.17-4.53.17Z"/>
  <path class="cls-4" d="M213.53,76.58c-.51,0-.94-.39-.99-.9-.05-.55.35-1.04.9-1.09l2.56-.25c.56-.06,1.04.35,1.09.9.05.55-.35,1.04-.9,1.09l-2.56.25s-.07,0-.1,0Z"/>
  <path class="cls-1" d="M221.79,203.66c-.07,0-.14,0-.21-.02-.54-.12-.88-.65-.76-1.19,1.67-7.61,5.38-14.65,8.66-20.87l.09-.16c3.38-6.41,6.87-13.04,8.54-20.15,1.87-7.97,1.04-15.55-2.32-21.35-.28-.48-.11-1.09.36-1.37.48-.27,1.09-.11,1.37.36,3.62,6.24,4.52,14.34,2.54,22.81-1.72,7.37-5.28,14.11-8.72,20.63l-.09.16c-3.22,6.1-6.86,13.02-8.47,20.36-.1.47-.52.79-.98.79Z"/>
  <path class="cls-1" d="M216.63,213.25c-.19,0-.38-.05-.54-.16-.46-.3-.59-.92-.29-1.38l3.08-4.72c.3-.46.92-.59,1.38-.29.46.3.59.92.29,1.38l-3.08,4.72c-.19.29-.51.45-.84.45Z"/>
</svg>