<?xml version="1.0" encoding="UTF-8"?>
<svg xmlns="http://www.w3.org/2000/svg" xmlns:xlink="http://www.w3.org/1999/xlink" viewBox="0 0 1080 1920">
  <defs>
    <style>
      .cls-1 {
        fill: #ffa9c2;
      }

      .cls-2 {
        fill: #13437c;
      }

      .cls-3 {
        fill: #3288d6;
      }

      .cls-4 {
        fill: #a152db;
      }

      .cls-5 {
        fill: #fff;
      }

      .cls-6 {
        fill: #dfedf2;
      }

      .cls-7 {
        fill: #ea9939;
      }

      .cls-8 {
        fill: #d87625;
      }

      .cls-9 {
        fill: #fff8d9;
      }

      .cls-10 {
        fill: #f4b545;
      }

      .cls-11 {
        fill: none;
      }

      .cls-12 {
        fill: #f8d7ff;
      }

      .cls-13 {
        fill: #f47aa0;
      }

      .cls-14 {
        clip-path: url(#clippath-1);
      }

      .cls-15 {
        fill: #3d1170;
      }

      .cls-16 {
        fill: #e9f1f4;
      }

      .cls-17 {
        fill: #6d3108;
      }

      .cls-18 {
        fill: #788696;
      }

      .cls-19 {
        fill: #79cdf6;
      }

      .cls-20 {
        clip-path: url(#clippath-3);
      }

      .cls-21 {
        fill: #7a1859;
      }

      .cls-22 {
        fill: #ffe277;
      }

      .cls-23 {
        fill: #333;
      }

      .cls-24 {
        fill: #47acea;
      }

      .cls-25 {
        fill: #8942c5;
      }

      .cls-26 {
        fill: #dd4a8c;
      }

      .cls-27 {
        clip-path: url(#clippath-2);
      }

      .cls-28 {
        fill: #efa7fc;
      }

      .cls-29 {
        fill: #a8b6c1;
      }

      .cls-30 {
        fill: #d27cf2;
      }

      .cls-31 {
        clip-path: url(#clippath);
      }

      .cls-32 {
        fill: #1f5999;
      }

      .cls-33 {
        opacity: .5;
      }

      .cls-34 {
        fill: #ffd2e1;
      }
    </style>
    <clipPath id="clippath">
      <rect class="cls-11" x="294.05" y="940.45" width="267.2" height="187.2" rx="12.8" ry="12.8" transform="translate(1461.7 606.39) rotate(90)"/>
    </clipPath>
    <clipPath id="clippath-1">
      <rect class="cls-11" x="711.35" y="789.4" width="267.2" height="187.2" rx="12.8" ry="12.8" transform="translate(1727.95 38.05) rotate(90)"/>
    </clipPath>
    <clipPath id="clippath-2">
      <rect class="cls-11" x="90.45" y="522.01" width="267.2" height="187.2" rx="12.8" ry="12.8" transform="translate(839.66 391.56) rotate(90)"/>
    </clipPath>
    <clipPath id="clippath-3">
      <rect class="cls-11" x="518.75" y="407.47" width="267.2" height="187.2" rx="12.8" ry="12.8" transform="translate(1153.41 -151.28) rotate(90)"/>
    </clipPath>
  </defs>
  <g id="Deco1">
    <g>
      <rect class="cls-16" x="192" y="456.47" width="362.94" height="29.92" rx="14.96" ry="14.96"/>
      <path class="cls-29" d="M554.94,471.43c0,4.13-1.68,7.87-4.38,10.58-2.71,2.71-6.45,4.38-10.58,4.38H206.96c-8.26,0-14.96-6.7-14.96-14.96h362.94Z"/>
      <path class="cls-23" d="M539.98,456.47c8.26,0,14.96,6.7,14.96,14.96s-6.7,14.96-14.96,14.96H206.96c-8.26,0-14.96-6.7-14.96-14.96s6.7-14.96,14.96-14.96h333.02M539.98,452.47H206.96c-10.45,0-18.96,8.5-18.96,18.96s8.51,18.96,18.96,18.96h333.02c10.45,0,18.96-8.51,18.96-18.96s-8.5-18.96-18.96-18.96h0Z"/>
    </g>
    <g>
      <rect class="cls-29" x="533.71" y="722.65" width="322.94" height="29.92" rx="14.96" ry="14.96"/>
      <path class="cls-23" d="M841.68,722.65c8.26,0,14.96,6.7,14.96,14.96s-6.7,14.96-14.96,14.96h-293.02c-8.26,0-14.96-6.7-14.96-14.96s6.7-14.96,14.96-14.96h293.02M841.68,718.65h-293.02c-10.45,0-18.96,8.51-18.96,18.96s8.51,18.96,18.96,18.96h293.02c10.45,0,18.96-8.51,18.96-18.96s-8.51-18.96-18.96-18.96h0Z"/>
    </g>
    <g>
      <rect class="cls-16" x="545.22" y="1010.04" width="311.42" height="29.92" rx="13.86" ry="13.86"/>
      <path class="cls-29" d="M856.64,1025v1.1c0,7.66-6.2,13.86-13.86,13.86h-283.7c-7.65,0-13.86-6.2-13.86-13.86v-1.1h311.42Z"/>
      <rect class="cls-29" x="564" y="1010.04" width="23.1" height="29.92"/>
      <path class="cls-23" d="M842.78,1010.04c7.65,0,13.86,6.2,13.86,13.86v2.2c0,7.65-6.2,13.86-13.86,13.86h-283.7c-7.65,0-13.86-6.2-13.86-13.86v-2.2c0-7.65,6.2-13.86,13.86-13.86h283.7M842.78,1006.04h-283.7c-9.85,0-17.86,8.01-17.86,17.86v2.2c0,9.85,8.01,17.86,17.86,17.86h283.7c9.85,0,17.86-8.01,17.86-17.86v-2.2c0-9.85-8.01-17.86-17.86-17.86h0Z"/>
    </g>
    <g>
      <g>
        <path class="cls-16" d="M346.85,1173.55c-10.31,0-18.7-8.39-18.7-18.7v-241.6c0-10.31,8.39-18.7,18.7-18.7h161.6c3.28,0,6.51.86,9.33,2.49,5.78,3.33,9.37,9.54,9.37,16.21v241.6c0,10.31-8.39,18.7-18.7,18.7h-161.6Z"/>
        <path class="cls-23" d="M508.45,895.05c3.19,0,6.33.84,9.08,2.43,5.62,3.24,9.12,9.29,9.12,15.77v241.6c0,10.04-8.16,18.2-18.2,18.2h-161.6c-10.04,0-18.2-8.16-18.2-18.2v-241.6c0-10.04,8.16-18.2,18.2-18.2h161.6M508.45,894.05h-161.6c-10.6,0-19.2,8.6-19.2,19.2v241.6c0,10.6,8.6,19.2,19.2,19.2h161.6c10.6,0,19.2-8.6,19.2-19.2v-241.6c0-7.12-3.87-13.32-9.62-16.64-2.82-1.63-6.09-2.56-9.58-2.56h0Z"/>
      </g>
      <path class="cls-23" d="M508.45,894.05c10.6,0,19.2,8.6,19.2,19.2v241.6c0,10.6-8.6,19.2-19.2,19.2h-161.6c-10.6,0-19.2-8.6-19.2-19.2v-241.6c0-10.6,8.6-19.2,19.2-19.2h161.6M508.45,890.05h-161.6c-12.79,0-23.2,10.41-23.2,23.2v241.6c0,12.79,10.41,23.2,23.2,23.2h161.6c12.79,0,23.2-10.41,23.2-23.2v-241.6c0-12.79-10.41-23.2-23.2-23.2h0Z"/>
      <g class="cls-31">
        <rect class="cls-24" x="327.65" y="894.05" width="200" height="280"/>
        <path class="cls-19" d="M527.65,913.25v149.81l-200,46.64v-168.69l190.38-44.4c5.75,3.32,9.62,9.52,9.62,16.64Z"/>
        <path class="cls-19" d="M527.65,1077.81v56.23l-171.56,40h-9.24c-10.6,0-19.2-8.6-19.2-19.2v-30.4l200-46.64Z"/>
        <g>
          <path class="cls-6" d="M445,981.14h-34.69c-2.5,0-4.52,2.02-4.52,4.52v19.12c0,.98.32,1.89.85,2.63.82,1.14,2.16,1.89,3.67,1.89h34.69c1.51,0,2.85-.75,3.67-1.89.12-.16.23-.34.32-.53.33-.63.53-1.35.53-2.11v-19.12c0-2.5-2.02-4.52-4.52-4.52ZM440.48,1000.27h-25.65v-10.08h25.65v10.08Z"/>
          <path class="cls-24" d="M445,983.94h-34.69c-2.5,0-4.52,2.02-4.52,4.52v16.33c0,.98.32,1.89.85,2.63.82,1.14,2.16,1.89,3.67,1.89h34.69c1.51,0,2.85-.75,3.67-1.89.12-.16.23-.34.32-.53.33-.63.53-1.35.53-2.11v-16.33c0-2.5-2.02-4.52-4.52-4.52ZM414.83,990.19h25.65v10.08h-25.65v-10.08Z"/>
          <polygon class="cls-3" points="449 993.17 449 1007.42 405.78 1007.42 405.78 993.17 414.83 993.17 414.83 1000.27 440.48 1000.27 440.48 993.17 449 993.17"/>
          <path class="cls-2" d="M445,1011.31h-34.69c-3.6,0-6.52-2.93-6.52-6.52v-19.12c0-3.6,2.93-6.52,6.52-6.52h34.69c3.6,0,6.52,2.93,6.52,6.52v19.12c0,3.6-2.93,6.52-6.52,6.52ZM410.31,983.14c-1.39,0-2.52,1.13-2.52,2.52v19.12c0,1.39,1.13,2.52,2.52,2.52h34.69c1.39,0,2.52-1.13,2.52-2.52v-19.12c0-1.39-1.13-2.52-2.52-2.52h-34.69ZM442.48,1002.27h-29.65v-14.08h29.65v14.08ZM416.83,998.27h21.65v-6.08h-21.65v6.08Z"/>
          <rect class="cls-3" x="368.4" y="997.71" width="118.51" height="89.24" rx="14" ry="14"/>
          <rect class="cls-6" x="368.4" y="997.71" width="118.51" height="76.31" rx="14" ry="14"/>
          <rect class="cls-24" x="368.4" y="1002.33" width="118.51" height="71.69" rx="14" ry="14"/>
          <path class="cls-3" d="M368.99,1032.15c0,.36,51.29,14.45,51.29,14.45v-4.97l-51.29-11.02v1.54Z"/>
          <path class="cls-3" d="M486.13,1032.15c0,.36-53.3,14.45-53.3,14.45v-4.97l53.3-11.02v1.54Z"/>
          <path class="cls-2" d="M472.91,1088.95h-90.52c-8.82,0-16-7.18-16-16v-61.24c0-8.82,7.18-16,16-16h90.52c8.82,0,16,7.18,16,16v61.24c0,8.82-7.18,16-16,16ZM382.4,999.71c-6.61,0-12,5.38-12,12v61.24c0,6.61,5.38,12,12,12h90.52c6.61,0,12-5.38,12-12v-61.24c0-6.61-5.38-12-12-12h-90.52Z"/>
          <path class="cls-32" d="M427.65,1042.98h-3.64c-.07,0-.14,0-.2-.02l-52.22-10.73c-.54-.11-.89-.64-.78-1.18.11-.54.64-.89,1.18-.78l52.12,10.71h3.54c.55,0,1,.45,1,1s-.45,1-1,1Z"/>
          <path class="cls-32" d="M431.33,1042.98h-3.67c-.55,0-1-.45-1-1s.45-1,1-1h3.57l52.09-10.71c.54-.11,1.07.24,1.18.78s-.24,1.07-.78,1.18l-52.19,10.73c-.07.01-.13.02-.2.02Z"/>
          <rect class="cls-5" x="421.07" y="1033.86" width="13.17" height="17.36" rx="3.55" ry="3.55"/>
          <rect class="cls-29" x="421.07" y="1037.24" width="13.17" height="13.97" rx="3.55" ry="3.55"/>
          <rect class="cls-6" x="421.07" y="1037.24" width="13.17" height="10.73" rx="3.55" ry="3.55"/>
          <path class="cls-2" d="M430.7,1053.21h-6.08c-3.06,0-5.55-2.49-5.55-5.55v-10.26c0-3.06,2.49-5.55,5.55-5.55h6.08c3.06,0,5.55,2.49,5.55,5.55v10.26c0,3.06-2.49,5.55-5.55,5.55ZM424.61,1035.86c-.85,0-1.55.69-1.55,1.55v10.26c0,.85.69,1.55,1.55,1.55h6.08c.85,0,1.55-.69,1.55-1.55v-10.26c0-.85-.69-1.55-1.55-1.55h-6.08Z"/>
          <path class="cls-32" d="M431.53,1042.63h-7.76c-.55,0-1-.45-1-1s.45-1,1-1h7.76c.55,0,1,.45,1,1s-.45,1-1,1Z"/>
          <g>
            <path class="cls-3" d="M374.11,1028.38c-.06,0-.13,0-.19-.02-1.76-.34-2.84-.55-2.95-.57-.54-.11-.89-.64-.78-1.18.11-.54.64-.89,1.18-.78.11.02,1.18.23,2.93.57.54.11.9.63.79,1.17-.09.48-.51.81-.98.81Z"/>
            <path class="cls-3" d="M409.19,1035.17c-.06,0-.13,0-.19-.02l-5.85-1.13c-.54-.1-.9-.63-.79-1.17s.63-.9,1.17-.79l5.85,1.13c.54.1.9.63.79,1.17-.09.48-.51.81-.98.81ZM397.5,1032.91c-.06,0-.13,0-.19-.02l-5.85-1.13c-.54-.1-.9-.63-.79-1.17.1-.54.63-.9,1.17-.79l5.85,1.13c.54.1.9.63.79,1.17-.09.48-.51.81-.98.81ZM385.81,1030.65c-.06,0-.13,0-.19-.02l-5.84-1.13c-.54-.1-.9-.63-.79-1.17.1-.54.63-.9,1.17-.79l5.84,1.13c.54.1.9.63.79,1.17-.09.48-.51.81-.98.81Z"/>
            <path class="cls-3" d="M417.95,1036.87c-.06,0-.13,0-.19-.02l-2.94-.57c-.54-.1-.9-.63-.79-1.17.11-.54.63-.9,1.17-.79l2.94.57c.54.1.9.63.79,1.17-.09.48-.51.81-.98.81Z"/>
          </g>
          <path class="cls-3" d="M437.18,1036.87c-.47,0-.89-.33-.98-.81-.11-.54.24-1.07.79-1.18l5.89-1.17c.54-.11,1.07.24,1.18.79.11.54-.24,1.07-.79,1.18l-5.89,1.17c-.07.01-.13.02-.2.02ZM448.95,1034.53c-.47,0-.89-.33-.98-.81-.11-.54.24-1.07.79-1.18l5.89-1.17c.54-.11,1.07.24,1.18.79.11.54-.24,1.07-.79,1.18l-5.89,1.17c-.07.01-.13.02-.2.02ZM460.72,1032.2c-.47,0-.89-.33-.98-.81-.11-.54.24-1.07.79-1.18l5.89-1.17c.55-.11,1.07.24,1.18.79.11.54-.24,1.07-.79,1.18l-5.89,1.17c-.07.01-.13.02-.2.02ZM472.49,1029.86c-.47,0-.89-.33-.98-.81-.11-.54.24-1.07.79-1.18l5.89-1.17c.54-.11,1.07.24,1.18.79.11.54-.24,1.07-.79,1.18l-5.89,1.17c-.07.01-.13.02-.2.02Z"/>
          <path class="cls-3" d="M470.91,1069.37h-6c-.55,0-1-.45-1-1s.45-1,1-1h6c.55,0,1,.45,1,1s-.45,1-1,1ZM458.91,1069.37h-6c-.55,0-1-.45-1-1s.45-1,1-1h6c.55,0,1,.45,1,1s-.45,1-1,1ZM446.91,1069.37h-6c-.55,0-1-.45-1-1s.45-1,1-1h6c.55,0,1,.45,1,1s-.45,1-1,1ZM434.91,1069.37h-6c-.55,0-1-.45-1-1s.45-1,1-1h6c.55,0,1,.45,1,1s-.45,1-1,1ZM422.91,1069.37h-6c-.55,0-1-.45-1-1s.45-1,1-1h6c.55,0,1,.45,1,1s-.45,1-1,1ZM410.91,1069.37h-6c-.55,0-1-.45-1-1s.45-1,1-1h6c.55,0,1,.45,1,1s-.45,1-1,1ZM398.91,1069.37h-6c-.55,0-1-.45-1-1s.45-1,1-1h6c.55,0,1,.45,1,1s-.45,1-1,1ZM386.91,1069.37h-6c-.55,0-1-.45-1-1s.45-1,1-1h6c.55,0,1,.45,1,1s-.45,1-1,1ZM476.89,1069.19c-.44,0-.85-.3-.97-.74-.14-.53.18-1.08.71-1.22,1.6-.43,2.84-1.75,3.15-3.38.1-.54.63-.89,1.17-.79.54.1.9.63.79,1.17-.46,2.38-2.26,4.32-4.61,4.94-.09.02-.17.03-.26.03ZM375.53,1067.35c-.29,0-.58-.13-.78-.38-.89-1.12-1.38-2.52-1.38-3.96v-2.4c0-.55.45-1,1-1s1,.45,1,1v2.4c0,1,.33,1.93.95,2.71.34.43.27,1.06-.16,1.41-.18.15-.4.22-.62.22ZM480.87,1059.03c-.55,0-1-.45-1-1v-6c0-.55.45-1,1-1s1,.45,1,1v6c0,.55-.45,1-1,1ZM374.36,1055.61c-.55,0-1-.45-1-1v-6c0-.55.45-1,1-1s1,.45,1,1v6c0,.55-.45,1-1,1ZM480.87,1047.03c-.55,0-1-.45-1-1v-6c0-.55.45-1,1-1s1,.45,1,1v6c0,.55-.45,1-1,1ZM374.36,1043.61c-.55,0-1-.45-1-1v-6c0-.55.45-1,1-1s1,.45,1,1v6c0,.55-.45,1-1,1Z"/>
        </g>
      </g>
    </g>
    <g>
      <g>
        <path class="cls-16" d="M764.15,1022.5c-10.31,0-18.7-8.39-18.7-18.7v-241.6c0-10.31,8.39-18.7,18.7-18.7h161.6c3.28,0,6.51.86,9.33,2.49,5.78,3.33,9.37,9.54,9.37,16.21v241.6c0,10.31-8.39,18.7-18.7,18.7h-161.6Z"/>
        <path class="cls-23" d="M925.75,744c3.19,0,6.33.84,9.08,2.43,5.62,3.24,9.12,9.29,9.12,15.77v241.6c0,10.04-8.16,18.2-18.2,18.2h-161.6c-10.04,0-18.2-8.16-18.2-18.2v-241.6c0-10.04,8.16-18.2,18.2-18.2h161.6M925.75,743h-161.6c-10.6,0-19.2,8.6-19.2,19.2v241.6c0,10.6,8.6,19.2,19.2,19.2h161.6c10.6,0,19.2-8.6,19.2-19.2v-241.6c0-7.12-3.87-13.32-9.62-16.64-2.82-1.63-6.09-2.56-9.58-2.56h0Z"/>
      </g>
      <g class="cls-14">
        <rect class="cls-30" x="744.95" y="743" width="200" height="280"/>
        <g class="cls-33">
          <path class="cls-12" d="M944.95,762.2v149.81l-200,46.64v-168.69l190.38-44.4c5.75,3.32,9.62,9.52,9.62,16.64Z"/>
        </g>
        <g class="cls-33">
          <path class="cls-12" d="M944.95,926.77v56.23l-171.56,40h-9.24c-10.6,0-19.2-8.6-19.2-19.2v-30.4l200-46.64Z"/>
        </g>
      </g>
      <path class="cls-23" d="M925.75,743c10.6,0,19.2,8.6,19.2,19.2v241.6c0,10.6-8.6,19.2-19.2,19.2h-161.6c-10.6,0-19.2-8.6-19.2-19.2v-241.6c0-10.6,8.6-19.2,19.2-19.2h161.6M925.75,739h-161.6c-12.79,0-23.2,10.41-23.2,23.2v241.6c0,12.79,10.41,23.2,23.2,23.2h161.6c12.79,0,23.2-10.41,23.2-23.2v-241.6c0-12.79-10.41-23.2-23.2-23.2h0Z"/>
      <g>
        <g>
          <path class="cls-15" d="M855.59,953.61h-21.28c-8.07,0-14.64-6.57-14.64-14.64v-22.6h-22.6c-8.07,0-14.64-6.57-14.64-14.64v-21.28c0-8.07,6.57-14.64,14.64-14.64h22.6v-22.6c0-8.07,6.57-14.64,14.64-14.64h21.28c8.07,0,14.64,6.57,14.64,14.64v22.6h22.6c8.07,0,14.64,6.57,14.64,14.64v21.28c0,8.07-6.57,14.64-14.64,14.64h-22.6v22.6c0,8.07-6.57,14.64-14.64,14.64ZM797.07,873.81c-3.66,0-6.64,2.98-6.64,6.64v21.28c0,3.66,2.98,6.64,6.64,6.64h30.6v30.6c0,3.66,2.98,6.64,6.64,6.64h21.28c3.66,0,6.64-2.98,6.64-6.64v-30.6h30.6c3.66,0,6.64-2.98,6.64-6.64v-21.28c0-3.66-2.98-6.64-6.64-6.64h-30.6v-30.6c0-3.66-2.98-6.64-6.64-6.64h-21.28c-3.66,0-6.64,2.98-6.64,6.64v30.6h-30.6Z"/>
          <path class="cls-15" d="M855.59,953.61h-14.64v-125.04h14.64c8.07,0,14.64,6.57,14.64,14.64v22.6h22.6c8.07,0,14.64,6.57,14.64,14.64v21.28c0,8.07-6.57,14.64-14.64,14.64h-22.6v22.6c0,8.07-6.57,14.64-14.64,14.64ZM848.95,945.61h6.64c3.66,0,6.64-2.98,6.64-6.64v-30.6h30.6c3.66,0,6.64-2.98,6.64-6.64v-21.28c0-3.66-2.98-6.64-6.64-6.64h-30.6v-30.6c0-3.66-2.98-6.64-6.64-6.64h-6.64v109.04Z"/>
          <path class="cls-15" d="M855.59,937.42h-21.28c-8.07,0-14.64-6.57-14.64-14.64v-22.6h-22.6c-8.07,0-14.64-6.57-14.64-14.64v-21.28c0-8.07,6.57-14.64,14.64-14.64h22.6v-22.6c0-8.07,6.57-14.64,14.64-14.64h21.28c8.07,0,14.64,6.57,14.64,14.64v22.6h22.6c8.07,0,14.64,6.57,14.64,14.64v21.28c0,8.07-6.57,14.64-14.64,14.64h-22.6v22.6c0,8.07-6.57,14.64-14.64,14.64ZM797.07,857.62c-3.66,0-6.64,2.98-6.64,6.64v21.28c0,3.66,2.98,6.64,6.64,6.64h30.6v30.6c0,3.66,2.98,6.64,6.64,6.64h21.28c3.66,0,6.64-2.98,6.64-6.64v-30.6h30.6c3.66,0,6.64-2.98,6.64-6.64v-21.28c0-3.66-2.98-6.64-6.64-6.64h-30.6v-30.6c0-3.66-2.98-6.64-6.64-6.64h-21.28c-3.66,0-6.64,2.98-6.64,6.64v30.6h-30.6Z"/>
          <path class="cls-15" d="M848.95,878.9h-66.52v-14.64c0-8.07,6.57-14.64,14.64-14.64h22.6v-22.6c0-8.07,6.57-14.64,14.64-14.64h14.64v66.52ZM790.43,870.9h50.52v-50.52h-6.64c-3.66,0-6.64,2.98-6.64,6.64v30.6h-30.6c-3.66,0-6.64,2.98-6.64,6.64v6.64Z"/>
          <path class="cls-15" d="M855.59,937.42h-14.64v-66.52h66.52v14.64c0,8.07-6.57,14.64-14.64,14.64h-22.6v22.6c0,8.07-6.57,14.64-14.64,14.64ZM848.95,929.42h6.64c3.66,0,6.64-2.98,6.64-6.64v-30.6h30.6c3.66,0,6.64-2.98,6.64-6.64v-6.64h-50.52v50.52Z"/>
        </g>
        <g>
          <path class="cls-4" d="M903.47,880.45v21.28c0,5.88-4.76,10.64-10.64,10.64h-26.6v26.6c0,5.88-4.76,10.64-10.64,10.64h-21.28c-5.88,0-10.64-4.76-10.64-10.64v-26.6h-26.6c-5.88,0-10.64-4.76-10.64-10.64v-21.28c0-5.88,4.76-10.64,10.64-10.64h26.6v-26.6c0-5.88,4.76-10.64,10.64-10.64h21.28c5.88,0,10.64,4.76,10.64,10.64v26.6h26.6c5.88,0,10.64,4.76,10.64,10.64Z"/>
          <path class="cls-25" d="M903.47,880.45v21.28c0,5.88-4.76,10.64-10.64,10.64h-26.6v26.6c0,5.88-4.76,10.64-10.64,10.64h-10.64v-117.04h10.64c5.88,0,10.64,4.76,10.64,10.64v26.6h26.6c5.88,0,10.64,4.76,10.64,10.64Z"/>
          <path class="cls-28" d="M903.47,864.26v21.28c0,5.88-4.76,10.64-10.64,10.64h-26.6v26.6c0,5.88-4.76,10.64-10.64,10.64h-21.28c-5.88,0-10.64-4.76-10.64-10.64v-26.6h-26.6c-5.88,0-10.64-4.76-10.64-10.64v-21.28c0-5.88,4.76-10.64,10.64-10.64h26.6v-26.6c0-5.88,4.76-10.64,10.64-10.64h21.28c5.88,0,10.64,4.76,10.64,10.64v26.6h26.6c5.88,0,10.64,4.76,10.64,10.64Z"/>
          <path class="cls-12" d="M844.95,816.38v58.52h-58.52v-10.64c0-5.88,4.76-10.64,10.64-10.64h26.6v-26.6c0-5.88,4.76-10.64,10.64-10.64h10.64Z"/>
          <path class="cls-30" d="M903.47,874.9v10.64c0,5.88-4.76,10.64-10.64,10.64h-26.6v26.6c0,5.88-4.76,10.64-10.64,10.64h-10.64v-58.52h58.52Z"/>
        </g>
      </g>
    </g>
    <g>
      <g>
        <path class="cls-16" d="M143.25,755.11c-10.31,0-18.7-8.39-18.7-18.7v-241.6c0-10.31,8.39-18.7,18.7-18.7h161.6c3.28,0,6.51.86,9.33,2.49,5.78,3.33,9.37,9.54,9.37,16.21v241.6c0,10.31-8.39,18.7-18.7,18.7h-161.6Z"/>
        <path class="cls-23" d="M304.85,476.61c3.19,0,6.33.84,9.08,2.43,5.62,3.24,9.12,9.29,9.12,15.77v241.6c0,10.04-8.16,18.2-18.2,18.2h-161.6c-10.04,0-18.2-8.16-18.2-18.2v-241.6c0-10.04,8.16-18.2,18.2-18.2h161.6M304.85,475.61h-161.6c-10.6,0-19.2,8.6-19.2,19.2v241.6c0,10.6,8.6,19.2,19.2,19.2h161.6c10.6,0,19.2-8.6,19.2-19.2v-241.6c0-7.12-3.87-13.32-9.62-16.64-2.82-1.63-6.09-2.56-9.58-2.56h0Z"/>
      </g>
      <path class="cls-23" d="M304.85,475.61c10.6,0,19.2,8.6,19.2,19.2v241.6c0,10.6-8.6,19.2-19.2,19.2h-161.6c-10.6,0-19.2-8.6-19.2-19.2v-241.6c0-10.6,8.6-19.2,19.2-19.2h161.6M304.85,471.61h-161.6c-12.79,0-23.2,10.41-23.2,23.2v241.6c0,12.79,10.41,23.2,23.2,23.2h161.6c12.79,0,23.2-10.41,23.2-23.2v-241.6c0-12.79-10.41-23.2-23.2-23.2h0Z"/>
      <g class="cls-27">
        <rect class="cls-13" x="124.05" y="475.61" width="200" height="280"/>
        <g class="cls-33">
          <path class="cls-1" d="M324.05,494.81v149.81l-200,46.64v-168.69l190.38-44.4c5.75,3.32,9.62,9.52,9.62,16.64Z"/>
        </g>
        <g class="cls-33">
          <path class="cls-1" d="M324.05,659.38v56.23l-171.56,40h-9.24c-10.6,0-19.2-8.6-19.2-19.2v-30.4l200-46.64Z"/>
        </g>
        <g>
          <path class="cls-13" d="M224.29,671.91s-65.49-31.94-64.33-75.76c.05-1.89.22-3.8.53-5.73.47-3.75,2.12-8.36,3.24-11,10.58-24.94,45.78-27.02,60.56-4.34,8.81-13.51,24.85-18.23,38.61-14.57,9.36,2.47,17.66,8.83,21.94,18.92,1.12,2.64,2.77,7.25,3.24,11,7.47,46.74-63.79,81.49-63.79,81.49Z"/>
          <path class="cls-26" d="M224.29,671.91s-65.49-31.94-64.33-75.76c1.9,9.99,8.02,19.01,15.65,25.85,8.66,7.77,19.21,13.1,29.71,18.1,7.08,3.37,14.61,6.72,22.43,6.15,7.42-.55,14.1-4.55,20.24-8.77,9.47-6.51,18.56-13.94,24.96-23.49,6.39-9.56,9.85-21.53,7.3-32.73-2.09-9.14-8.75-17.41-17.35-20.75,9.36,2.47,17.66,8.83,21.94,18.92,1.12,2.64,2.77,7.25,3.24,11,7.47,46.74-63.79,81.49-63.79,81.49Z"/>
          <path class="cls-34" d="M198.21,562.21c-14.36,7.87-24.56,22.91-26.55,39.17-1.99,16.26,4.26,33.31,16.3,44.43-16.18-9.85-27.11-27.85-28.36-46.75-.45-6.76.3-13.71,3.05-19.9,3.19-7.17,9.07-13.11,16.21-16.37,7.14-3.26,15.48-3.8,22.98-1.5"/>
          <path class="cls-21" d="M224.29,673.91c-.3,0-.6-.07-.88-.2-.18-.09-18.24-8.97-35.13-23.5-22.64-19.49-32.93-40.27-29.76-60.1.45-3.65,2.04-8.33,3.37-11.46,5.12-12.08,16.19-19.99,29.6-21.18,12.84-1.14,25.15,4.25,32.8,14.17,7.65-9.92,19.95-15.31,32.8-14.17,13.42,1.19,24.48,9.11,29.6,21.18,1.33,3.14,2.92,7.81,3.38,11.53,3.16,19.76-7.13,40.55-29.77,60.03-16.88,14.53-34.95,23.41-35.13,23.5-.28.13-.58.2-.88.2ZM194.88,561.31c-1.01,0-2.02.04-3.03.13-11.92,1.05-21.74,8.07-26.27,18.76-1.22,2.89-2.68,7.15-3.09,10.46-6.72,42.04,53.74,74.83,61.81,79,8.06-4.17,68.53-36.96,61.82-78.93-.42-3.38-1.88-7.64-3.1-10.53-4.53-10.69-14.35-17.7-26.27-18.76-12.34-1.09-24.14,4.55-30.77,14.73-.37.57-1,.91-1.68.91h0c-.68,0-1.31-.34-1.68-.91-6.09-9.34-16.52-14.86-27.74-14.86Z"/>
          <path class="cls-34" d="M179.13,574.12c-4.28,3.59-7.07,8.9-7.59,14.46-.31,3.25.17,6.66,1.85,9.46,2.99,4.98,9.42,7.21,15.16,6.31,5.74-.91,10.77-4.47,14.65-8.79,2.7-3.01,4.98-6.52,5.95-10.45.96-3.93.48-8.34-1.9-11.61-6.22-8.54-21.32-5.06-28.12.63Z"/>
        </g>
      </g>
    </g>
    <g>
      <rect class="cls-16" x="516" y="250" width="48" height="1436.33"/>
      <rect class="cls-29" x="542.5" y="250" width="21.5" height="1436.33" transform="translate(1106.5 1936.33) rotate(180)"/>
      <rect class="cls-5" x="521.25" y="250" width="6.32" height="1436.33" transform="translate(1048.83 1936.33) rotate(180)"/>
      <path class="cls-23" d="M564,250v1436.33h-48V250h48M568,246h-56v1444.33h56V246h0Z"/>
      <path class="cls-29" d="M496.55,1364.39h86.9c16.05,0,29.09,13.03,29.09,29.09v292.85h-145.08v-292.85c0-16.05,13.03-29.09,29.09-29.09Z"/>
      <path class="cls-5" d="M488.03,1364.39h31.4c11.35,0,20.57,9.22,20.57,20.57v301.37h-72.54v-301.37c0-11.35,9.22-20.57,20.57-20.57Z"/>
      <path class="cls-16" d="M557.68,1686.33h-77.31v-300.71c0-11.73,9.51-21.23,21.23-21.23h34.84c11.73,0,21.23,9.51,21.23,21.23v300.71Z"/>
      <path class="cls-23" d="M583.45,1364.39c16.06,0,29.09,13.02,29.09,29.09v292.85h-145.08v-292.85c0-16.06,13.02-29.09,29.09-29.09h86.9M583.45,1360.39h-86.9c-18.24,0-33.09,14.84-33.09,33.09v296.85h153.08v-296.85c0-18.24-14.84-33.09-33.09-33.09h0Z"/>
      <path class="cls-29" d="M500.28,1409.72h0c5.76,0,10.43,4.67,10.43,10.43v263.97h-20.86v-263.97c0-5.76,4.67-10.43,10.43-10.43Z"/>
      <path class="cls-29" d="M540,1409.72h0c5.76,0,10.43,4.67,10.43,10.43v263.97h-20.86v-263.97c0-5.76,4.67-10.43,10.43-10.43Z"/>
      <path class="cls-18" d="M579.72,1409.72h0c5.76,0,10.43,4.67,10.43,10.43v263.97h-20.86v-263.97c0-5.76,4.67-10.43,10.43-10.43Z"/>
      <path class="cls-29" d="M437.96,1686.33h204.09c10.68,0,19.34,8.67,19.34,19.34v14.49h-242.77v-14.49c0-10.68,8.67-19.34,19.34-19.34Z"/>
      <path class="cls-5" d="M433.92,1686.33h121.41c8.45,0,15.31,6.86,15.31,15.31v18.53h-152.02v-18.53c0-8.45,6.86-15.31,15.31-15.31Z"/>
      <path class="cls-16" d="M570.63,1720.16h-142.56v-19.01c0-8.19,6.64-14.82,14.82-14.82h112.91c8.19,0,14.82,6.64,14.82,14.82v19.01Z"/>
      <path class="cls-23" d="M642.04,1686.33c10.68,0,19.34,8.66,19.34,19.34v14.49h-242.77v-14.49c0-10.68,8.66-19.34,19.34-19.34h204.09M642.04,1682.33h-204.09c-12.87,0-23.34,10.47-23.34,23.34v18.49h250.77v-18.49c0-12.87-10.47-23.34-23.34-23.34h0Z"/>
      <path class="cls-29" d="M403.37,1714.65h273.26c7.44,0,13.48,6.04,13.48,13.48v28.36h-300.21v-28.36c0-7.44,6.04-13.48,13.48-13.48Z"/>
      <path class="cls-5" d="M399.5,1714.65h133.39c5.3,0,9.61,4.31,9.61,9.61v32.23h-152.6v-32.23c0-5.3,4.31-9.61,9.61-9.61Z"/>
      <path class="cls-16" d="M570.5,1756.49h-166.45v-31.8c0-5.54,4.49-10.03,10.03-10.03h146.38c5.54,0,10.03,4.49,10.03,10.03v31.8Z"/>
      <path class="cls-23" d="M676.63,1714.65c7.44,0,13.48,6.03,13.48,13.48v28.36h-300.21v-28.36c0-7.44,6.03-13.48,13.48-13.48h273.26M676.63,1710.65h-273.26c-9.64,0-17.48,7.84-17.48,17.48v28.36c0,2.21,1.79,4,4,4h300.21c2.21,0,4-1.79,4-4v-28.36c0-9.64-7.84-17.48-17.48-17.48h0Z"/>
    </g>
    <g>
      <g>
        <path class="cls-16" d="M571.55,640.57c-10.31,0-18.7-8.39-18.7-18.7v-241.6c0-10.31,8.39-18.7,18.7-18.7h161.6c3.28,0,6.51.86,9.33,2.49,5.78,3.33,9.37,9.54,9.37,16.21v241.6c0,10.31-8.39,18.7-18.7,18.7h-161.6Z"/>
        <path class="cls-23" d="M733.15,362.07c3.19,0,6.33.84,9.08,2.43,5.62,3.24,9.12,9.29,9.12,15.77v241.6c0,10.04-8.16,18.2-18.2,18.2h-161.6c-10.04,0-18.2-8.16-18.2-18.2v-241.6c0-10.04,8.16-18.2,18.2-18.2h161.6M733.15,361.07h-161.6c-10.6,0-19.2,8.6-19.2,19.2v241.6c0,10.6,8.6,19.2,19.2,19.2h161.6c10.6,0,19.2-8.6,19.2-19.2v-241.6c0-7.12-3.87-13.32-9.62-16.64-2.82-1.63-6.09-2.56-9.58-2.56h0Z"/>
      </g>
      <path class="cls-23" d="M733.15,361.07c10.6,0,19.2,8.6,19.2,19.2v241.6c0,10.6-8.6,19.2-19.2,19.2h-161.6c-10.6,0-19.2-8.6-19.2-19.2v-241.6c0-10.6,8.6-19.2,19.2-19.2h161.6M733.15,357.07h-161.6c-12.79,0-23.2,10.41-23.2,23.2v241.6c0,12.79,10.41,23.2,23.2,23.2h161.6c12.79,0,23.2-10.41,23.2-23.2v-241.6c0-12.79-10.41-23.2-23.2-23.2h0Z"/>
      <g class="cls-20">
        <rect class="cls-10" x="552.35" y="361.07" width="200" height="280"/>
        <path class="cls-22" d="M752.35,380.27v149.81l-200,46.64v-168.69l190.38-44.4c5.75,3.32,9.62,9.52,9.62,16.64Z"/>
        <path class="cls-22" d="M752.35,544.83v56.23l-171.56,40h-9.24c-10.6,0-19.2-8.6-19.2-19.2v-30.4l200-46.64Z"/>
        <g>
          <path class="cls-10" d="M708.24,508.57c0,11.7-3.6,22.57-9.75,31.55-10.07,14.7-26.98,24.35-46.14,24.35-.8,0-1.58-.02-2.37-.05-29.77-1.24-53.52-25.77-53.52-55.84s25.02-55.89,55.89-55.89,55.89,25.02,55.89,55.89Z"/>
          <polygon class="cls-7" points="643.81 563.81 643.81 526.83 636.48 526.83 636.48 562.18 643.81 563.81"/>
          <path class="cls-7" d="M698.49,504.44v35.67c-2.1,3.07-4.5,5.92-7.16,8.51-5.75,5.6-12.71,9.98-20.46,12.69-5.79,2.04-12.03,3.14-18.52,3.14-.8,0-1.58-.02-2.37-.05v-59.97h48.51Z"/>
          <path class="cls-8" d="M691.32,520.9v27.72c-5.75,5.6-12.71,9.98-20.46,12.69v-40.41h20.46Z"/>
          <rect class="cls-10" x="596.47" y="493.56" width="111.77" height="13.82"/>
          <path class="cls-22" d="M708.24,493.56c0,2.74-.2,5.44-.58,8.07-3.91,27.04-27.18,47.82-55.31,47.82-14.43,0-27.59-5.47-37.5-14.45-3.22-2.91-6.1-6.2-8.57-9.78-.3-.43-.58-.87-.87-1.31-.72-1.11-1.4-2.24-2.04-3.4-.39-.71-.77-1.43-1.12-2.15-.46-.93-.9-1.87-1.3-2.83-2.76-6.45-4.35-13.52-4.48-20.95,0-.34-.01-.68-.01-1.01,0-6.02.95-11.81,2.72-17.24,7.26-22.43,28.32-38.65,53.18-38.65,11.04,0,21.34,3.2,30.01,8.74,5.22,3.33,9.87,7.51,13.71,12.34,4.44,5.57,7.83,12,9.9,19.01.29.99.56,2,.8,3.01.19.79.35,1.58.5,2.38.24,1.29.44,2.59.59,3.92.06.52.12,1.04.16,1.56.15,1.62.22,3.26.22,4.93Z"/>
          <path class="cls-9" d="M706.44,479.48c-2.11-5.17-4.94-9.97-8.37-14.27-4.03-5.05-8.88-9.42-14.34-12.9-9.06-5.79-19.83-9.14-31.38-9.14-24.45,0-45.39,15.01-54.1,36.32.28-1.07.58-2.12.92-3.16,7.26-22.43,28.32-38.65,53.18-38.65,11.04,0,21.34,3.2,30.01,8.74,5.22,3.33,9.87,7.51,13.71,12.34,4.44,5.57,7.83,12,9.9,19.01.17.57.33,1.14.47,1.71Z"/>
          <path class="cls-9" d="M705.97,477.77l-105.03,37.76c-2.76-6.45-4.35-13.52-4.48-20.95l99.61-35.82c4.44,5.57,7.83,12,9.9,19.01Z"/>
          <path class="cls-9" d="M708.02,488.63l-101.74,36.58c-.3-.43-.58-.87-.87-1.31-.72-1.11-1.4-2.24-2.04-3.4l103.9-37.35c.24,1.29.44,2.59.59,3.92.06.52.12,1.04.16,1.56Z"/>
          <path class="cls-7" d="M692.18,493.56c0,1.16-.05,2.32-.15,3.45-1.75,20.39-18.85,36.39-39.69,36.39s-37.94-16-39.69-36.39c-.1-1.13-.15-2.29-.15-3.45,0-22,17.84-39.84,39.84-39.84s39.84,17.84,39.84,39.84Z"/>
          <path class="cls-17" d="M652.35,566.46c-31.92,0-57.89-25.97-57.89-57.89,0-.41,0-.82.02-1.23v-12.63c0-.36-.02-.75-.02-1.15,0-31.92,25.97-57.89,57.89-57.89s57.89,25.97,57.89,57.89v13.82c0,.07,0,.14-.01.21,0,.33.01.66.01.98,0,31.92-25.97,57.89-57.89,57.89ZM652.35,439.67c-29.72,0-53.89,24.18-53.89,53.89,0,.37,0,.74.01,1.11v12.71c0,.42-.01.81-.01,1.19,0,29.72,24.18,53.89,53.89,53.89s53.89-24.18,53.89-53.89c0-.38,0-.77-.01-1.15,0-.1,0-.19.01-.29v-13.57c0-29.72-24.18-53.89-53.89-53.89Z"/>
          <path class="cls-8" d="M650.76,550.36c-7.81,0-15.67-1.71-22.71-4.99-9.19-4.29-17.24-11.37-22.64-19.96-.29-.47-.15-1.08.31-1.38.47-.29,1.09-.15,1.38.31,5.2,8.26,12.94,15.08,21.79,19.21,8.85,4.12,19.05,5.66,28.73,4.34.54-.08,1.05.31,1.13.85.08.55-.31,1.05-.85,1.13-2.35.32-4.74.48-7.13.48Z"/>
          <path class="cls-8" d="M663.39,549.26c-.43,0-.83-.28-.96-.72-.16-.53.15-1.09.68-1.24l5.93-1.75c.53-.16,1.09.15,1.24.68s-.15,1.09-.68,1.24l-5.93,1.75c-.09.03-.19.04-.28.04Z"/>
          <path class="cls-10" d="M692.03,497.01c-1.75,20.39-18.85,36.39-39.69,36.39s-37.94-16-39.69-36.39c1.75-20.39,18.85-36.38,39.69-36.38s37.94,16,39.69,36.38Z"/>
          <g>
            <path class="cls-7" d="M647.14,522.85c-.48-.48-.72-1.23-.72-2.27v-2.57h-6.81c-1.11,0-1.91-.24-2.39-.72-.48-.48-.72-1.23-.72-2.27v-34.57c0-1.03.24-1.8.72-2.3.48-.5,1.27-.75,2.39-.75h6.81v-2.63c0-1.03.24-1.8.72-2.3.48-.5,1.29-.75,2.45-.75h4.78c1.15,0,1.98.25,2.48.75.5.5.75,1.26.75,2.3v2.63c9,.2,13.5,4.08,13.5,11.64,0,1.83-.42,3.46-1.25,4.9-.84,1.43-1.97,2.45-3.4,3.05,3.82,1.23,5.73,4.12,5.73,8.66,0,3.86-1.26,6.86-3.79,8.99-2.53,2.13-6.12,3.25-10.78,3.37v2.57c0,1.11-.27,1.89-.81,2.33-.54.44-1.5.66-2.9.66h-4.3c-1.15,0-1.97-.24-2.45-.72ZM655.14,493.29c1.23,0,2.19-.31,2.87-.93.68-.62,1.02-1.52,1.02-2.72,0-1.27-.32-2.19-.96-2.75-.64-.56-1.61-.84-2.93-.84h-6.57v7.23h6.57ZM656.16,509.35c1.27,0,2.26-.37,2.96-1.1.7-.74,1.05-1.7,1.05-2.9,0-1.35-.38-2.37-1.13-3.05-.76-.68-1.79-1.02-3.11-1.02h-7.34v8.06h7.58Z"/>
            <rect class="cls-7" x="666.44" y="498.63" width="5.72" height="7.03"/>
            <rect class="cls-7" x="665.36" y="482.03" width="5.72" height="7.03"/>
            <g>
              <path class="cls-22" d="M671.63,495.96c-.66-2.03-1.95-3.51-3.88-4.45-.41-.2-.85-.38-1.32-.53,1.43-.6,2.56-1.61,3.4-3.05.84-1.43,1.25-3.06,1.25-4.9,0-6.74-3.57-10.55-10.71-11.44-.88-.12-1.8-.18-2.79-.2v-2.63c0-1.04-.25-1.8-.75-2.3-.49-.5-1.32-.75-2.47-.75h-4.78c-1.15,0-1.97.25-2.44.75-.48.49-.72,1.26-.72,2.3v2.63h-6.81c-1.11,0-1.91.25-2.39.75-.48.5-.72,1.26-.72,2.3v34.57c0,1.03.24,1.79.72,2.27s1.27.72,2.39.72h6.81v2.57c0,1.03.24,1.79.72,2.27.47.48,1.29.72,2.44.72h4.3c1.39,0,2.36-.22,2.9-.65.53-.44.81-1.21.81-2.33v-2.57c4.66-.12,8.25-1.24,10.78-3.37,2.09-1.76,3.31-4.11,3.67-7.05.08-.62.12-1.26.12-1.93,0-1.38-.18-2.6-.53-3.67ZM658.01,486.35c-.68.62-1.64.93-2.87.93h-6.57v-7.23h6.57c1.31,0,2.29.28,2.92.84.64.55.96,1.47.96,2.75,0,1.19-.34,2.1-1.01,2.72ZM660.1,500.11c-.12.85-.45,1.55-.99,2.13-.7.74-1.68,1.1-2.96,1.1h-7.58v-8.06h7.35c.39,0,.75.03,1.09.09.81.14,1.48.45,2.02.92.76.68,1.13,1.69,1.13,3.05,0,.27-.02.53-.06.77Z"/>
              <path class="cls-9" d="M660.38,471.59l-23.87,8.58v22.57l12.06-4.34v-3.12h7.35c.39,0,.75.03,1.09.09l10.74-3.86c-.41-.2-.85-.38-1.32-.53,1.43-.6,2.56-1.61,3.4-3.05.84-1.43,1.25-3.06,1.25-4.9,0-6.74-3.57-10.55-10.71-11.44ZM658.01,486.35c-.68.62-1.64.93-2.87.93h-6.57v-7.23h6.57c1.31,0,2.29.28,2.92.84.64.55.96,1.47.96,2.75,0,1.19-.34,2.1-1.01,2.72Z"/>
              <path class="cls-9" d="M672.16,499.64c0,.67-.04,1.32-.12,1.93l-28.99,10.42h-3.43c-1.11,0-1.91-.24-2.39-.72s-.72-1.23-.72-2.27v-.42l14.61-5.25,8.98-3.23,11.53-4.15c.35,1.07.53,2.3.53,3.67Z"/>
            </g>
          </g>
        </g>
      </g>
    </g>
    <g>
      <g>
        <path class="cls-16" d="M540,318.01c-49.35,0-89.5-40.15-89.5-89.5s40.15-89.5,89.5-89.5,89.5,40.15,89.5,89.5-40.15,89.5-89.5,89.5Z"/>
        <path class="cls-23" d="M540,141c48.33,0,87.5,39.18,87.5,87.5s-39.18,87.5-87.5,87.5-87.5-39.18-87.5-87.5,39.18-87.5,87.5-87.5M540,137c-50.46,0-91.5,41.05-91.5,91.5s41.05,91.5,91.5,91.5,91.5-41.05,91.5-91.5-41.05-91.5-91.5-91.5h0Z"/>
      </g>
      <g>
        <path class="cls-16" d="M540,296.12c-37.28,0-67.61-30.33-67.61-67.61s30.33-67.61,67.61-67.61,67.61,30.33,67.61,67.61-30.33,67.61-67.61,67.61Z"/>
        <path class="cls-29" d="M540,161.9c36.79,0,66.61,29.82,66.61,66.61s-29.82,66.61-66.61,66.61-66.61-29.82-66.61-66.61,29.82-66.61,66.61-66.61M540,159.9c-37.83,0-68.61,30.78-68.61,68.61s30.78,68.61,68.61,68.61,68.61-30.78,68.61-68.61-30.78-68.61-68.61-68.61h0Z"/>
      </g>
      <g>
        <g>
          <path class="cls-29" d="M540.51,283.41c-.36,0-.68-.04-1-.12-5.9-1.34-14.79-17.84-17.8-37.89-.09-.62.11-1.25.55-1.7l16.31-16.59c.37-.38.88-.6,1.42-.6h0c.53,0,1.04.21,1.41.59l16.59,16.3c.45.44.67,1.08.58,1.71-2.86,20.22-12.49,38.27-18.06,38.31h0ZM540.36,279.42h0ZM525.82,245.78c3.27,20.41,11.77,32.95,14.62,33.61,2.48-.92,10.99-13.92,14.03-33.86l-14.45-14.2-14.2,14.45Z"/>
          <path class="cls-29" d="M540.51,283.41c-.36,0-.68-.04-1-.12-.89-.22-1.51-1.02-1.51-1.94v-52.84c0-.81.48-1.53,1.23-1.84.74-.31,1.6-.15,2.18.42l16.6,16.31c.45.44.67,1.08.58,1.71-2.86,20.22-12.49,38.27-18.06,38.31h0ZM540.36,279.42h0ZM542,233.28v44.82c3.45-3.86,9.91-15.74,12.47-32.56l-12.47-12.26Z"/>
          <path class="cls-29" d="M540,230.51c-.51,0-1.02-.2-1.41-.59l-.15-.15-16.44-16.15c-.45-.45-.67-1.08-.58-1.71,2.87-20.21,12.49-38.26,18.06-38.31h0c.23,0,.45.02.67.05.18.02.35.06.53.11.77.22,1.56.65,2.35,1.27,5.37,4.24,12.54,18.49,15.25,36.57.09.62-.11,1.25-.55,1.7l-16.32,16.6c-.39.39-.9.59-1.41.59ZM525.53,211.48l14.45,14.2,14.2-14.45c-2.79-17.41-9.73-29.97-13.62-33.04-.52-.41-.85-.54-.97-.57,0-.01.04-.02.05-.03-2.38.69-11.03,13.74-14.11,33.89ZM539.64,177.59h0Z"/>
          <path class="cls-29" d="M540,230.51c-.51,0-1.02-.2-1.41-.59l-.15-.15c-.38-.38-.59-.88-.59-1.41v-52.72c0-.57.24-1.11.67-1.49.42-.38.99-.56,1.55-.5.21.02.4.06.61.12,5.9,1.7,14.58,17.66,17.6,37.85.09.62-.11,1.25-.55,1.7l-16.32,16.6c-.39.39-.9.59-1.41.59ZM541.86,179.41v44.36l12.32-12.54c-2.62-16.37-8.57-27.61-12.32-31.82Z"/>
          <path class="cls-29" d="M523.68,247.11c-.09,0-.19,0-.28-.02-20.21-2.87-38.26-12.49-38.31-18.07,0-.39.05-.79.16-1.18,1.71-5.92,17.67-14.59,37.85-17.62.62-.09,1.25.11,1.7.55l16.6,16.32c.78.78.78,2.03.01,2.82l-16.32,16.61c-.38.39-.89.6-1.43.6ZM489.1,228.93c.9,2.47,13.89,11,33.86,14.05l14.2-14.46-14.45-14.2c-20.34,3.26-32.76,11.65-33.61,14.59,0,0,0,.01,0,.02ZM489.08,228.87h0Z"/>
          <path class="cls-29" d="M523.68,247.11c-.09,0-.19,0-.28-.02-20.21-2.87-38.26-12.49-38.31-18.07,0-.39.05-.79.16-1.18.23-.87,1.03-1.48,1.93-1.48h52.67c.53,0,1.04.21,1.41.59l.14.14c.78.78.78,2.03.01,2.82l-16.32,16.61c-.38.39-.89.6-1.43.6ZM490.25,230.36c3.68,3.41,15.66,10.02,32.72,12.62l12.4-12.62h-45.12ZM489.08,228.87h0Z"/>
          <path class="cls-29" d="M556.59,246.82c-.52,0-1.02-.2-1.4-.57l-16.59-16.31c-.38-.37-.6-.88-.6-1.42,0-.53.21-1.05.59-1.42l16.3-16.59c.44-.45,1.08-.67,1.71-.58,20.21,2.87,38.26,12.49,38.31,18.06v.02c0,.34-.04.66-.12.98-1.34,5.91-17.84,14.8-37.9,17.81-.1.01-.2.02-.3.02ZM542.83,228.49l14.45,14.2c20.41-3.26,32.95-11.77,33.61-14.62-.92-2.48-13.92-10.99-33.86-14.04l-14.2,14.45ZM590.92,228.14h0ZM592.9,228.01l-2,.02s0,.03,0,.04l2-.05Z"/>
          <path class="cls-29" d="M556.59,246.82c-.52,0-1.02-.2-1.4-.57l-16.59-16.31c-.38-.37-.6-.88-.6-1.42,0-.53.21-1.05.59-1.42.38-.38.89-.59,1.42-.59h52.84c.61,0,1.18.28,1.56.75.38.48.52,1.1.39,1.69-1.35,5.95-17.85,14.84-37.91,17.85-.1.01-.2.02-.3.02ZM544.88,230.51l12.39,12.18c16.13-2.58,27.34-8.43,31.67-12.18h-44.06Z"/>
          <path class="cls-29" d="M540,243.61c-8.27,0-15.03-6.69-15.1-14.97-.07-8.33,6.64-15.16,14.97-15.23,8.33-.08,15.16,6.64,15.23,14.97h0c.07,8.33-6.64,15.16-14.97,15.23-.04,0-.09,0-.13,0ZM540,217.41s-.07,0-.1,0c-6.12.05-11.06,5.08-11,11.2.05,6.12,5.09,11.03,11.2,11,6.12-.05,11.06-5.08,11-11.2h0c-.03-2.97-1.21-5.74-3.32-7.82-2.09-2.05-4.85-3.18-7.78-3.18Z"/>
          <path class="cls-29" d="M538.77,238.9c-6.36,0-11.56-5.14-11.61-11.51-.03-3.1,1.16-6.03,3.33-8.24,2.17-2.21,5.08-3.45,8.18-3.47.03,0,.07,0,.1,0,6.36,0,11.56,5.14,11.61,11.51h0c.03,3.1-1.16,6.03-3.33,8.24-2.17,2.21-5.08,3.45-8.18,3.47-.03,0-.07,0-.1,0ZM538.78,219.67s-.04,0-.07,0c-2.03.02-3.94.83-5.37,2.28s-2.2,3.37-2.18,5.4c.04,4.18,3.45,7.55,7.61,7.55.02,0,.04,0,.07,0,2.03-.02,3.94-.83,5.37-2.28,1.43-1.45,2.2-3.37,2.18-5.4h0c-.04-4.18-3.45-7.55-7.61-7.55Z"/>
          <path class="cls-29" d="M540,243.61c-8.27,0-15.03-6.69-15.1-14.97-.07-8.33,6.64-15.16,14.97-15.23,8.33-.08,15.16,6.64,15.23,14.97h0c.07,8.33-6.64,15.16-14.97,15.23-.04,0-.09,0-.13,0ZM540,217.41s-.07,0-.1,0c-6.12.05-11.06,5.08-11,11.2.05,6.12,5.09,11.03,11.2,11,6.12-.05,11.06-5.08,11-11.2h0c-.03-2.97-1.21-5.74-3.32-7.82-2.09-2.05-4.85-3.18-7.78-3.18Z"/>
          <path class="cls-29" d="M539.86,226.38h-2.85c-1.1,0-2-.9-2-2s.9-2,2-2h2.85c1.1,0,2,.9,2,2s-.9,2-2,2Z"/>
        </g>
        <g>
          <path class="cls-6" d="M556.6,244.82c-2.98,21.06-12.52,36.56-16.1,36.59-.16,0-.32-.02-.5-.06-4.54-1.03-13.27-16.01-16.31-36.25l16.3-16.59h0s16.6,16.32,16.6,16.32Z"/>
          <path class="cls-29" d="M556.6,244.82c-2.98,21.06-12.52,36.56-16.1,36.59-.16,0-.32-.02-.5-.06v-52.84l16.6,16.31Z"/>
          <path class="cls-6" d="M556.31,211.91l-16.16,16.45-.14.14-.15-.15-16.45-16.16h0c2.99-21.06,12.52-36.56,16.1-36.59.12,0,.24.01.36.03.1.01.19.03.29.06.5.15,1.06.45,1.65.92,4.76,3.75,11.85,17.49,14.51,35.3Z"/>
          <path class="cls-29" d="M556.31,211.91l-16.16,16.45-.14.14-.15-.15v-52.72c.1.01.19.03.29.06,4.58,1.32,13.17,16.2,16.16,36.22Z"/>
          <path class="cls-6" d="M540,228.5l-16.32,16.61c-21.05-2.99-36.56-12.52-36.59-16.1,0-.21.03-.42.09-.64,1.32-4.58,16.2-13.16,36.22-16.16l16.45,16.16.14.14Z"/>
          <path class="cls-29" d="M540,228.5l-16.32,16.61c-21.05-2.99-36.56-12.52-36.59-16.1,0-.21.03-.42.09-.64h52.67l.14.14Z"/>
          <path class="cls-6" d="M592.9,228.01c0,.16-.02.32-.06.5-1.03,4.55-16.02,13.28-36.25,16.31l-16.59-16.3h0s16.31-16.6,16.31-16.6c21.05,2.99,36.55,12.52,36.59,16.1Z"/>
          <path class="cls-29" d="M592.84,228.51c-1.03,4.55-16.02,13.28-36.25,16.31l-16.59-16.3h0s52.84,0,52.84,0Z"/>
          <circle class="cls-29" cx="540" cy="228.51" r="13.1"/>
          <circle class="cls-6" cx="538.78" cy="227.28" r="9.62"/>
          <path class="cls-29" d="M540,242.61c-7.72,0-14.03-6.24-14.1-13.98-.03-3.77,1.4-7.32,4.04-10.01,2.64-2.69,6.17-4.18,9.94-4.22,3.77-.03,7.32,1.4,10.01,4.04s4.18,6.17,4.22,9.94h0c.07,7.78-6.2,14.16-13.98,14.23-.04,0-.08,0-.13,0ZM540,216.41s-.07,0-.11,0c-6.67.06-12.05,5.53-12,12.21.06,6.67,5.54,12.02,12.21,12,6.67-.06,12.05-5.54,12-12.21h0c-.06-6.64-5.48-12-12.1-12Z"/>
        </g>
      </g>
    </g>
  </g>
  <g id="Logo">
    <g>
      <path class="cls-23" d="M811.1,820.13c0,.08.01.16.01.24v8.24c0,11.08-3.22,20.11-9.58,26.85-6.58,6.96-15.44,10.65-25.65,10.65h-78.14c.08.74.14,1.5.14,2.27v33.85h7.96c11.05,0,20,8.95,20,20v9.64c0,11.04-8.95,20-20,20h-39.46c-1.43,0-2.81-.16-4.15-.44-1.35.29-2.73.44-4.13.44h-12.84c-4.44,0-8.67-1.48-12.09-4.07-3.35,2.55-7.54,4.07-12.09,4.07h-11.5c-5.81,0-11.02-2.49-14.68-6.45-3.65,3.96-8.87,6.45-14.68,6.45h-11.4c-8.96,0-16.53-5.88-19.08-13.99-1.14,1.24-2.35,2.42-3.63,3.54-4.17,3.63-9.02,6.46-14.42,8.42-5.29,1.92-11.06,2.9-17.16,2.9-9.17,0-17.62-2.24-25.1-6.65-6.84-4.03-12.38-9.64-16.53-16.67v2.45c0,11.04-8.95,20-20,20h-10.23c-5.89,0-11.44-2.6-15.22-7.03-3.67,4.3-9.13,7.03-15.22,7.03h-11.5c-2.19,0-4.28-.36-6.25-1.01-1.97.65-4.06,1.01-6.25,1.01h-11.5c-11.04,0-20-8.96-20-20v-63.49c0-.77.06-1.53.14-2.27h-63.8c-15.07,0-24.34-6.19-29.46-11.38-4.69-4.76-7.93-10.57-9.66-17.29-.96-3.7-1.45-7.71-1.45-11.91v-197.48c0-15.02,6.41-24.22,11.78-29.29,7.51-7.06,17.85-10.63,30.74-10.63s23.38,3.57,30.87,10.61c5.4,5.09,11.8,14.29,11.8,29.31v148.17h52.1c1.88,0,3.65.13,5.33.35-1.73-8.93-3-17.92-3.8-26.94-.04-.44-.08-.87-.11-1.31-.39-4.67-.66-9.35-.79-14.02-.07-2.42-.1-4.84-.1-7.26,0-5.24.16-10.36.46-15.31,2.07-34.69,10.73-61.79,16.16-75.79,4.58-11.81,9.84-22.12,15.2-29.83,3.09-4.44,12.51-17.98,27.32-17.98,7.54,0,14.46,3.31,21.04,10.16.16.17.32.33.47.49.21.23.42.45.62.68.2.22.39.43.57.64,5,5.72,9.82,13.53,14.57,23.57.1.22.22.47.33.7.6,1.31,1.28,2.8,2,4.48.14.32.28.64.41.96.06.13.12.26.17.4.08.18.16.36.23.54.88-12.71,6.3-20.88,10.93-25.6,5.17-5.23,14.44-11.42,29.51-11.42h98.34c9.99,0,17.11,3.41,21.96,7.2,5.48-3.85,13.42-7.2,24.51-7.2h99.96c13.02,0,21.21,5.79,25.8,10.65,6.36,6.74,9.59,15.78,9.59,26.85,0,.22,0,.43,0,.65,0,.08,0,.15,0,.23v8.25c0,10.99-3.18,20-9.46,26.78-4.59,4.96-12.81,10.88-25.93,10.88h-55.34v7.73h44.33c8.73,0,16.64,2.82,22.88,8.17.04.03.08.07.12.11.46.4.9.79,1.31,1.19.41.4.81.8,1.19,1.21,5.89,6.26,9.08,14.45,9.5,24.36.03.76.05,1.52.05,2.29,0,.2-.01.4-.01.6,0,.1.01.19.01.29v8.24c0,13.54-5.21,21.9-9.58,26.54-6.57,6.96-15.38,10.64-25.47,10.64h-44.33v12.43h56.14c10.29,0,19.2,3.76,25.78,10.87h.01c6.27,6.78,9.44,15.79,9.44,26.79,0,.22-.01.43-.01.65Z"/>
      <g>
        <rect class="cls-26" x="399.14" y="814.72" width="6.53" height="13.24"/>
        <path class="cls-26" d="M404.73,820.42c-.7-2.51-1.82-4.56-3.36-6.15-2.86-2.97-6.72-4.46-11.58-4.46h-72.09v-168.17c0-6.37-1.83-11.28-5.51-14.74-3.67-3.45-9.4-5.18-17.17-5.18s-13.34,1.73-17.02,5.18c-3.67,3.46-5.51,8.37-5.51,14.74v183.88c0,2.52.27,4.81.82,6.89.84,3.29,2.34,6.04,4.53,8.26,3.57,3.62,8.64,5.42,15.23,5.42h96.72c4.97,0,8.85-1.48,11.66-4.46,2.81-2.97,4.21-7.53,4.21-13.69,0-2.86-.31-5.37-.93-7.53Z"/>
        <rect class="cls-3" x="624.4" y="727.06" width="6.53" height="8.24"/>
        <rect class="cls-3" x="637.36" y="632.7" width="6.53" height="6.53"/>
        <path class="cls-3" d="M628.65,656.88c4.76,0,8.48-1.48,11.19-4.46,2.69-2.96,4.05-7.37,4.05-13.2s-1.35-10.21-4.05-13.12c-2.71-2.92-6.43-4.37-11.19-4.37h-98.34c-6.59,0-11.66,1.81-15.23,5.42-3.56,3.63-5.34,8.67-5.34,15.15v183.88c0,2.48.28,4.76.84,6.8.87,3.2,2.43,5.84,4.67,7.94,3.67,3.45,9.34,5.18,17.02,5.18s13.23-1.73,17.01-5.18c3.78-3.45,5.67-8.37,5.67-14.74v-73.55h60.92c4.54,0,8.18-1.46,10.93-4.37,2.76-2.92,4.14-7.23,4.14-12.96,0-3.21-.43-5.98-1.31-8.33-.68-1.84-1.62-3.41-2.83-4.71-2.75-2.97-6.39-4.46-10.93-4.46h-60.92v-60.92h73.71Z"/>
        <path class="cls-25" d="M786.99,815.41c-2.75-2.97-6.46-4.46-11.1-4.46h-76.14v-61.56h64.33c4.53,0,8.18-1.46,10.93-4.37,2.75-2.92,4.13-7.18,4.13-12.81s-1.38-10.04-4.13-12.96c-.34-.36-.7-.7-1.06-1.01-2.61-2.24-5.9-3.36-9.87-3.36h-64.33v-56.86h75.34c4.75,0,8.5-1.48,11.26-4.46,2.75-2.97,4.14-7.37,4.14-13.2s-1.39-10.21-4.14-13.12-6.51-4.37-11.26-4.37h-99.96c-6.59,0-11.66,1.81-15.23,5.42-3.56,3.63-5.34,8.67-5.34,15.15v182.09c0,6.47,1.78,11.52,5.34,15.15,3.57,3.62,8.64,5.42,15.23,5.42h100.76c4.64,0,8.35-1.46,11.1-4.37s4.13-7.29,4.13-13.12-1.38-10.23-4.13-13.2Z"/>
        <rect class="cls-25" x="783.95" y="632.11" width="6.53" height="8.24"/>
        <rect class="cls-25" x="772.6" y="723.97" width="6.53" height="8.24"/>
        <rect class="cls-25" x="784.59" y="820.37" width="6.53" height="8.24"/>
        <path class="cls-13" d="M404.73,806.82c-.7-2.51-1.82-4.56-3.36-6.15-2.86-2.97-6.72-4.46-11.58-4.46h-72.09v-168.17c0-6.37-1.83-11.28-5.51-14.74-3.67-3.45-9.4-5.18-17.17-5.18s-13.34,1.73-17.02,5.18c-3.67,3.46-5.51,8.37-5.51,14.74v183.88c0,2.52.27,4.81.82,6.89.84,3.29,2.34,6.04,4.53,8.26,3.57,3.62,8.64,5.42,15.23,5.42h96.72c4.97,0,8.85-1.48,11.66-4.46,2.81-2.97,4.21-7.53,4.21-13.69,0-2.86-.31-5.37-.93-7.53Z"/>
        <path class="cls-19" d="M628.65,648.88c4.76,0,8.48-1.48,11.19-4.46,2.69-2.96,4.05-7.37,4.05-13.2s-1.35-10.21-4.05-13.12c-2.71-2.92-6.43-4.37-11.19-4.37h-98.34c-6.59,0-11.66,1.81-15.23,5.42-3.56,3.63-5.34,8.67-5.34,15.15v183.88c0,2.48.28,4.76.84,6.8.87,3.2,2.43,5.84,4.67,7.94,3.67,3.45,9.34,5.18,17.02,5.18s13.23-1.73,17.01-5.18c3.78-3.45,5.67-8.37,5.67-14.74v-73.55h60.92c4.54,0,8.18-1.46,10.93-4.37,2.76-2.92,4.14-7.23,4.14-12.96,0-3.21-.43-5.98-1.31-8.33-.68-1.84-1.62-3.41-2.83-4.71-2.75-2.97-6.39-4.46-10.93-4.46h-60.92v-60.92h73.71Z"/>
        <path class="cls-30" d="M786.99,806.28c-2.75-2.97-6.46-4.46-11.1-4.46h-76.14v-61.56h64.33c4.53,0,8.18-1.46,10.93-4.37,2.75-2.92,4.13-7.18,4.13-12.81s-1.38-10.04-4.13-12.96c-.34-.36-.7-.7-1.06-1.01-2.61-2.24-5.9-3.36-9.87-3.36h-64.33v-56.86h75.34c4.75,0,8.5-1.48,11.26-4.46,2.75-2.97,4.14-7.37,4.14-13.2s-1.39-10.21-4.14-13.12-6.51-4.37-11.26-4.37h-99.96c-6.59,0-11.66,1.81-15.23,5.42-3.56,3.63-5.34,8.67-5.34,15.15v182.09c0,6.47,1.78,11.52,5.34,15.15,3.57,3.62,8.64,5.42,15.23,5.42h100.76c4.64,0,8.35-1.46,11.1-4.37s4.13-7.29,4.13-13.12-1.38-10.23-4.13-13.2Z"/>
        <path class="cls-22" d="M488.59,727.04c0,12.11-.94,23.78-2.57,34.78-1.27,8.63-2.95,16.85-4.91,24.53-9.07,35.63-24.11,59.61-31.66,59.61-6.37,0-18.09-17.1-27.05-43.88-2.23-6.64-4.28-13.88-6.04-21.6-3.66-16.06-6.05-34.22-6.05-53.44,0-32.73,6.93-62.38,15.27-83.87,8.4-21.64,18.23-35.04,23.88-35.04,4.62,0,12.04,8.97,19.19,24.09,10.25,21.72,19.94,56.1,19.94,94.83Z"/>
        <path class="cls-9" d="M481.12,786.35c-9.07,35.63-24.11,59.61-31.66,59.61-6.37,0-18.09-17.1-27.05-43.88l58.7-15.73Z"/>
        <path class="cls-9" d="M488.59,727.04c0,12.11-.94,23.78-2.57,34.78l-69.66,18.66c-3.66-16.06-6.05-34.22-6.05-53.44,0-32.73,6.93-62.38,15.27-83.87,14.8-3.76,29.47-7.49,43.06-10.95,10.25,21.72,19.94,56.1,19.94,94.83Z"/>
        <path class="cls-10" d="M488.59,727.05c0,65.69-27.89,118.92-39.13,118.92v-237.84c11.24,0,39.13,53.22,39.13,118.91Z"/>
        <circle class="cls-22" cx="449.46" cy="723.51" r="25.07"/>
        <path class="cls-10" d="M449.46,751.05c-15.19,0-27.54-12.36-27.54-27.55s12.36-27.54,27.54-27.54,27.55,12.36,27.55,27.54-12.36,27.55-27.55,27.55ZM449.46,700.91c-12.46,0-22.6,10.14-22.6,22.6s10.14,22.6,22.6,22.6,22.6-10.14,22.6-22.6-10.14-22.6-22.6-22.6Z"/>
        <g>
          <path class="cls-6" d="M388.23,868.38v63.49h-11.5v-63.49h11.5Z"/>
          <path class="cls-6" d="M452.9,868.38v63.49h-10.23l-29.92-43.25h-.53v43.25h-11.5v-63.49h10.29l29.88,43.28h.56v-43.28h11.44Z"/>
          <path class="cls-6" d="M541.41,889.8h-11.59c-.33-1.9-.94-3.59-1.83-5.07-.89-1.48-1.99-2.73-3.32-3.77-1.32-1.03-2.83-1.81-4.51-2.34-1.69-.53-3.5-.79-5.44-.79-3.45,0-6.51.86-9.18,2.59-2.67,1.73-4.75,4.25-6.26,7.56-1.51,3.32-2.26,7.36-2.26,12.14s.76,8.94,2.28,12.26c1.52,3.32,3.61,5.82,6.26,7.5,2.66,1.68,5.7,2.53,9.13,2.53,1.9,0,3.68-.25,5.35-.76,1.66-.51,3.16-1.26,4.5-2.25s2.46-2.21,3.38-3.66c.92-1.45,1.55-3.1,1.91-4.96l11.59.06c-.43,3.02-1.37,5.85-2.81,8.49-1.44,2.65-3.31,4.98-5.63,6.99-2.31,2.02-5.02,3.59-8.12,4.71-3.1,1.13-6.54,1.69-10.32,1.69-5.58,0-10.56-1.29-14.94-3.88-4.38-2.58-7.83-6.31-10.35-11.19s-3.78-10.73-3.78-17.55,1.27-12.69,3.81-17.56,6-8.59,10.39-11.18c4.38-2.58,9.34-3.88,14.88-3.88,3.53,0,6.82.5,9.86,1.49,3.04.99,5.75,2.44,8.12,4.36,2.38,1.91,4.33,4.25,5.88,7.01,1.54,2.76,2.55,5.91,3.02,9.44Z"/>
          <path class="cls-6" d="M549.19,878.02v-9.64h50.66v9.64h-19.62v53.85h-11.41v-53.85h-19.62Z"/>
          <path class="cls-6" d="M609.58,931.87v-63.49h23.81c4.88,0,8.98.85,12.29,2.54,3.32,1.69,5.83,4.07,7.53,7.11,1.71,3.05,2.56,6.6,2.56,10.65s-.86,7.6-2.59,10.59c-1.73,2.99-4.26,5.29-7.61,6.91s-7.46,2.43-12.34,2.43h-16.96v-9.55h15.41c2.85,0,5.19-.4,7.01-1.19,1.82-.8,3.17-1.96,4.05-3.5.88-1.54,1.32-3.44,1.32-5.69s-.44-4.18-1.33-5.78c-.89-1.6-2.24-2.82-4.06-3.66-1.82-.84-4.17-1.26-7.04-1.26h-10.54v53.88h-11.5ZM642.38,903.1l15.72,28.77h-12.83l-15.44-28.77h12.56Z"/>
          <path class="cls-6" d="M666.38,931.87v-63.49h11.5v53.85h27.96v9.64h-39.46Z"/>
        </g>
        <path class="cls-1" d="M357.67,796.22l-84.35,22.6c-.55-2.09-.82-4.37-.82-6.89v-128.69l45.2-12.12v125.09h39.97Z"/>
        <g class="cls-33">
          <path class="cls-6" d="M639.84,618.1c2.69,2.92,4.05,7.29,4.05,13.12s-1.35,10.24-4.05,13.2c-2.71,2.97-6.43,4.46-11.19,4.46h-73.71v60.92h60.92c4.54,0,8.18,1.48,10.93,4.46,1.21,1.31,2.16,2.87,2.83,4.71l-119.88,32.12v-116.79c0-6.49,1.78-11.52,5.34-15.15,3.57-3.62,8.64-5.42,15.23-5.42h98.34c4.76,0,8.48,1.46,11.19,4.37Z"/>
        </g>
        <g class="cls-33">
          <path class="cls-12" d="M790.47,631.23c0,5.83-1.39,10.23-4.14,13.2-2.75,2.97-6.51,4.46-11.26,4.46h-75.34v56.86h.13l-45.33,12.14v-83.58c0-6.49,1.78-11.52,5.34-15.15,3.57-3.62,8.64-5.42,15.23-5.42h99.96c4.75,0,8.5,1.46,11.26,4.37s4.14,7.29,4.14,13.12Z"/>
        </g>
        <path class="cls-1" d="M404.73,806.82c.62,2.17.93,4.68.93,7.53,0,6.16-1.4,10.72-4.21,13.69-2.81,2.97-6.69,4.46-11.66,4.46h-80.92l95.86-25.68Z"/>
        <g class="cls-33">
          <path class="cls-6" d="M509.74,774.3l45.2-12.12v50.91l-44.36,11.89c-.56-2.04-.84-4.32-.84-6.8v-43.88Z"/>
        </g>
        <g class="cls-33">
          <path class="cls-12" d="M779.12,723.08c0,5.62-1.38,9.89-4.13,12.81-2.75,2.92-6.4,4.37-10.93,4.37h-64.33v39.63l-45.2,12.11v-50.9l119.39-31.99c.36.31.72.65,1.06,1.01,2.75,2.92,4.13,7.24,4.13,12.96Z"/>
        </g>
        <path class="cls-5" d="M535.33,614.96c.04-.06.09-.09.14-.09.08,0,.02.03-.14.09Z"/>
      </g>
    </g>
  </g>
</svg>