<?xml version="1.0" encoding="UTF-8"?>
<svg xmlns="http://www.w3.org/2000/svg" viewBox="0 0 1080 1920">
  <defs>
    <style>
      .cls-1 {
        fill: #fff;
      }

      .cls-2 {
        fill: #fff8d9;
      }

      .cls-3 {
        fill: #cec8b7;
      }

      .cls-4, .cls-5 {
        fill: #e4ddc6;
      }

      .cls-6 {
        fill: #fffcee;
      }

      .cls-7 {
        fill: none;
        stroke: #cec8b7;
        stroke-miterlimit: 10;
        stroke-width: 2px;
      }

      .cls-8 {
        fill: #efe8cb;
      }

      .cls-9 {
        fill: #d9d2bf;
      }

      .cls-5 {
        opacity: .5;
      }
    </style>
  </defs>
  <g id="BG">
    <rect class="cls-8" x="-430" y="-10" width="1940" height="1940"/>
  </g>
  <g id="Deco2">
    <path class="cls-4" d="M678.18,359.58h276.37c-6.07-11.62-21.3-14.44-33.59-9.88.69-9.57.15-21.44-8.46-25.68-8.57-4.22-18.27,2.48-25.45,8.78-1.03-9.54-2.13-19.31-6.42-27.89-4.29-8.58-12.53-15.85-22.11-16.21-6.77-.25-13.3,2.95-18.41,7.41-5.12,4.47-8.67,10.13-12.75,15.46-8.62-17.69-22.05-35.67-41.49-42.17-9.19-3.08-19.21-3.56-28.69-1.61h0c-8.26,1.71-16.11,5.26-22.66,10.57-8.88,7.2-15.11,17.53-17.64,28.66-1.4,6.15-.44,11.89-.97,18.01-.56,6.54-1.73,12.19-.62,18.94-13.55-3.78-28.58,4.43-37.11,15.62Z"/>
    <path class="cls-4" d="M231.09,832.04H21.15c7.9-21.04,32.55-33.39,53.24-24.62-8.15-19.32-6.9-42.63,4.33-60.33,11.23-17.7,32.51-28.88,53.38-26.87s40.05,17.74,44.97,38.12c12.01-8.55,29.46-8.54,41.46.03,12,8.57,17.68,25.06,13.49,39.2,20.13.23,39.33,14.5,45.34,33.72"/>
    <path class="cls-4" d="M231.45,200.86H-27.67c9.75-25.96,40.18-41.21,65.72-30.39-10.06-23.84-8.52-52.61,5.34-74.46s40.13-35.64,65.89-33.16c25.76,2.48,49.43,21.9,55.5,47.06,14.83-10.55,36.36-10.54,51.17.03,14.81,10.57,21.82,30.93,16.66,48.38,24.85.28,48.55,17.9,55.97,41.62"/>
    <g>
      <rect class="cls-5" x="34.44" y="1152.43" width="148.97" height="413.94"/>
      <rect class="cls-5" x="234.38" y="1346.65" width="148.97" height="413.94"/>
      <rect class="cls-5" x="413.5" y="1256.94" width="108.37" height="415.13"/>
      <polygon class="cls-5" points="850.59 1363.99 753.26 1363.99 753.26 1469.75 680.26 1469.75 680.26 1777.92 850.59 1777.92 850.59 1363.99"/>
      <rect class="cls-5" x="887.08" y="1291.3" width="148.97" height="413.94"/>
      <rect class="cls-4" x="141.52" y="1205.63" width="148.97" height="546.13"/>
      <rect class="cls-4" x="561.19" y="1226.44" width="148.97" height="525.32"/>
      <rect class="cls-4" x="438.43" y="1341.52" width="148.97" height="375.49"/>
      <rect class="cls-4" x="949.36" y="1254.95" width="148.97" height="464.77"/>
      <rect class="cls-4" x="813.52" y="1400.62" width="148.97" height="355.61"/>
      <rect class="cls-4" x="-63.65" y="1315.15" width="148.97" height="436.61"/>
      <rect class="cls-9" x="353.59" y="1414.52" width="148.97" height="341.71"/>
      <rect class="cls-9" x="34.44" y="1376.49" width="148.97" height="379.74"/>
      <rect class="cls-9" x="1009.56" y="1378.45" width="148.97" height="377.79"/>
      <rect class="cls-9" x="591.28" y="1572.63" width="245.56" height="183.6"/>
      <rect class="cls-3" x="-26.48" y="1414.52" width="148.97" height="341.71"/>
      <rect class="cls-3" x="234.38" y="1593.03" width="148.97" height="163.21"/>
      <rect class="cls-3" x="475.03" y="1519.82" width="148.97" height="236.42"/>
      <rect class="cls-3" x="935.07" y="1473.03" width="148.97" height="283.2"/>
      <rect class="cls-4" x="961.57" y="1501.26" width="19.68" height="28.01"/>
      <rect class="cls-4" x="993.73" y="1501.26" width="19.68" height="28.01"/>
      <rect class="cls-4" x="961.57" y="1539.61" width="19.68" height="28.01"/>
      <rect class="cls-4" x="1033.68" y="1700.64" width="19.68" height="28.01"/>
      <rect class="cls-4" x="1003.57" y="1700.64" width="19.68" height="28.01"/>
      <rect class="cls-8" x="793.84" y="1609.34" width="19.68" height="28.01"/>
      <rect class="cls-8" x="756.42" y="1609.34" width="19.68" height="28.01"/>
      <rect class="cls-8" x="756.42" y="1650.43" width="19.68" height="28.01"/>
      <rect class="cls-8" x="719.01" y="1650.43" width="19.68" height="28.01"/>
      <rect class="cls-4" x="258.66" y="1616.59" width="19.68" height="28.01"/>
      <rect class="cls-4" x="258.66" y="1664.43" width="19.68" height="28.01"/>
      <rect class="cls-4" x="75.48" y="1445.02" width="19.68" height="28.01"/>
      <rect class="cls-4" x="38.16" y="1445.02" width="19.68" height="28.01"/>
      <rect class="cls-4" x="75.48" y="1487.25" width="19.68" height="28.01"/>
      <rect class="cls-4" x="24.6" y="1655.99" width="19.68" height="28.01"/>
      <rect class="cls-4" x="24.6" y="1700.64" width="19.68" height="28.01"/>
      <rect class="cls-8" x="163.73" y="1230.12" width="19.68" height="28.01"/>
      <rect class="cls-8" x="163.73" y="1272.06" width="19.68" height="28.01"/>
      <rect class="cls-4" x="993.73" y="1539.61" width="19.68" height="28.01"/>
      <rect class="cls-4" x="1023.84" y="1501.26" width="19.68" height="28.01"/>
      <rect class="cls-8" x="1028.04" y="1400.51" width="19.68" height="28.01"/>
      <rect class="cls-8" x="968.51" y="1274.85" width="19.68" height="28.01"/>
      <rect class="cls-8" x="999.72" y="1274.85" width="19.68" height="28.01"/>
      <rect class="cls-8" x="1032" y="1274.85" width="19.68" height="28.01"/>
      <rect class="cls-8" x="831.07" y="1417.62" width="19.68" height="28.01"/>
      <rect class="cls-8" x="864" y="1417.62" width="19.68" height="28.01"/>
      <rect class="cls-8" x="831.07" y="1455.75" width="19.68" height="28.01"/>
      <rect class="cls-8" x="670.42" y="1247.94" width="19.68" height="28.01" transform="translate(1360.53 2523.89) rotate(180)"/>
      <rect class="cls-8" x="637.5" y="1247.94" width="19.68" height="28.01" transform="translate(1294.67 2523.89) rotate(180)"/>
      <rect class="cls-8" x="670.42" y="1286.07" width="19.68" height="28.01" transform="translate(1360.53 2600.14) rotate(180)"/>
      <rect class="cls-4" x="577.56" y="1545.36" width="19.68" height="28.01" transform="translate(1174.8 3118.72) rotate(180)"/>
      <rect class="cls-4" x="544.63" y="1545.36" width="19.68" height="28.01" transform="translate(1108.94 3118.72) rotate(180)"/>
      <rect class="cls-4" x="577.56" y="1583.48" width="19.68" height="28.01" transform="translate(1174.8 3194.98) rotate(180)"/>
      <rect class="cls-8" x="252.07" y="1456.03" width="19.68" height="28.01" transform="translate(523.82 2940.07) rotate(180)"/>
      <rect class="cls-8" x="252.07" y="1494.16" width="19.68" height="28.01" transform="translate(523.82 3016.33) rotate(180)"/>
      <rect class="cls-8" x="374.16" y="1432.13" width="19.68" height="28.01" transform="translate(768 2892.28) rotate(180)"/>
      <rect class="cls-8" x="374.16" y="1470.26" width="19.68" height="28.01" transform="translate(768 2968.53) rotate(180)"/>
      <rect class="cls-8" x="864" y="1455.75" width="19.68" height="28.01"/>
      <rect class="cls-8" x="896.08" y="1417.62" width="19.68" height="28.01"/>
    </g>
    <path class="cls-2" d="M611.27,375.39h233.19c-12.6-32.19-54.64-49.43-86.73-36.59.9-16.27-9.86-32.5-25.19-38.02s-33.97.16-43.63,13.27c-10.44-21.18-21.09-42.67-37.09-60.04-15.99-17.37-38.35-30.35-61.95-29.6-17.79.56-35.17,9.24-46.31,23.13s-15.84,32.73-12.54,50.22c-14.01-10.78-35.18-11-49.42-.53-14.24,10.47-20.33,30.75-14.23,47.33-17.98-.96-36.01,14.39-43.35,30.83"/>
    <path class="cls-2" d="M265.81,456.41h215.56c-2.44-36.38-44.69-54.95-85.95-39.08,6.04-17.16.93-33.97-12.44-40.88s-34.2-3.52-50.67,8.25c-6.14-22.93-19.52-42.77-40.98-52.81-21.47-10.05-51.56-9.29-79,5.26-27.44,14.55-50.49,43.74-51.91,69.54-.25,4.53-.19,9.65-3.99,13.68-3.83,4.06-9.5,4.82-14.49,6-20.31,4.8-40.53,24.67-44.6,43.81"/>
    <path class="cls-2" d="M1272.91,1086.97h-675.67c4.41-21.74,15.7-44.41,35.31-54.76,19.61-10.36,43.89-11.42,64.33-2.8-10.87-20.51-3.45-47.62,13.82-63.12,17.27-15.51,42.2-20.43,65.2-17.32s44.41,13.44,64.32,25.36c-9.52-41.94,9.38-88.85,45.31-112.49,35.94-23.63,86.5-22.41,121.24,2.94,20.69,15.09,34.73,36.52,45.72,59.94,7.29,15.51,13.24,31.89,18.91,47.88,19.36-15.99,49.5-17.18,70.07-2.78,20.56,14.4,29.75,43.13,21.35,66.8,42.52-17.06,93.37,7.7,110.09,50.35Z"/>
    <path class="cls-4" d="M568.37,56.05H199.63c2.41-11.86,8.57-24.24,19.27-29.88,10.7-5.65,23.95-6.23,35.11-1.53-5.93-11.19-1.88-25.99,7.54-34.45,9.42-8.46,23.03-11.15,35.58-9.45s24.24,7.33,35.1,13.84c-5.2-22.89,5.12-48.49,24.73-61.39,19.61-12.9,47.21-12.23,66.17,1.6,11.29,8.24,18.95,19.93,24.95,32.71,3.98,8.46,7.23,17.4,10.32,26.13,10.57-8.73,27.01-9.38,38.24-1.52,11.22,7.86,16.24,23.54,11.65,36.46,23.2-9.31,50.96,4.2,60.08,27.48Z"/>
    <path class="cls-6" d="M1052.49,924.72c-6.1,13.08-14.9,25.02-25.62,34.52-29.54,26.19-70.45,36.26-109.93,36.81,2.6,34.37-13.12,69.59-40.44,90.62-.13.1-.27.2-.4.3h-278.86c4.41-21.74,15.7-44.41,35.31-54.76,19.61-10.36,43.89-11.42,64.33-2.8-10.87-20.51-3.45-47.62,13.82-63.12,17.27-15.51,42.2-20.43,65.2-17.32s44.41,13.44,64.32,25.36c-9.52-41.94,9.38-88.85,45.31-112.49,35.94-23.63,86.5-22.41,121.24,2.94,20.69,15.09,34.73,36.52,45.72,59.94Z"/>
    <path class="cls-6" d="M402.67,531.18c-3.27.71-145.16,0-145.16,0H-162.66c6.02-17.57,18.73-32.64,36.16-39.04,17.44-6.4,37.71-4.53,53.68,4.97,3.29-14.88,15.44-27.45,30.2-31.23,14.77-3.78,31.46,1.4,41.5,12.86,13.46-52.22,62.58-93.16,116.37-97,10.71-.76,21.44-.05,31.93,1.99,42.2,8.17,80.42,37.63,97.04,77.49,12.3-7.57,28.5-8.38,41.5-2.07,12.99,6.31,22.37,19.54,24.03,33.89,37.23-21.8,92.92,5.66,92.92,38.14Z"/>
    <path class="cls-4" d="M1022.65,132.66c-2.21.48-98.04,0-98.04,0h-283.79c4.07-11.87,12.65-22.05,24.42-26.37,11.78-4.32,25.47-3.06,36.26,3.36,2.22-10.05,10.43-18.54,20.4-21.09,9.98-2.55,21.25.95,28.03,8.69,9.09-35.27,42.27-62.92,78.6-65.51,7.23-.51,14.48-.03,21.57,1.34,28.5,5.52,54.32,25.42,65.54,52.34,8.31-5.11,19.25-5.66,28.03-1.4,8.77,4.26,15.11,13.2,16.23,22.89,25.15-14.72,62.76,3.82,62.76,25.76Z"/>
    <path class="cls-2" d="M452.99,1028.11H-204.89c14.45-27.65,50.7-34.38,79.95-23.53-1.64-22.79-.36-51.03,20.14-61.14,20.39-10.05,43.49,5.91,60.58,20.9,2.45-22.7,5.06-45.96,15.28-66.39,10.22-20.42,29.82-37.74,52.64-38.59,16.12-.6,31.67,7.03,43.82,17.64,12.19,10.65,20.63,24.12,30.35,36.81,20.51-42.1,52.48-84.9,98.77-100.39,21.88-7.32,45.72-8.48,68.29-3.83h.01c19.66,4.06,38.35,12.52,53.95,25.16,21.14,17.14,35.98,41.74,41.98,68.23,3.33,14.64,1.05,28.31,2.3,42.87,1.34,15.57,4.12,29.02,1.48,45.08,32.26-9,68.04,10.54,88.34,37.18Z"/>
    <path class="cls-4" d="M989.27,202c-.67-.85-1.64-1.5-2.88-1.78l-4.65-1.02c-.12-.03-.25-.05-.37-.08-2.71-.57-5.45-.89-8.19-.94-7.65-.17-15.27,1.62-22.1,5.29l-68.14,36.53-18.58-6c-.59-.31-1.3-.31-1.88,0l-5.17,2.77c-1.28.69-1.42,2.47-.27,3.35l18.92,14.43c-.11.17-.19.34-.21.51l-8.4,16.21-.06.51h0c-.11.87,1,1.2,2.08.62l7.17-3.85c.32-.17.59-.4.78-.66.08-.11.15-.22.2-.33l6.29-8.42c4.54,1.41,9.54,1.01,13.88-1.32l26.8-14.37-9.83,22.71-.12.77h0c-.2,1.33,1.52,1.8,3.23.88l11.36-6.09c.49-.26.9-.61,1.21-.99.14-.18.27-.36.35-.54l19.73-30.65,12.91-6.92h0l24.37-13.06c3.01-1.61,3.37-5.31,1.57-7.59Z"/>
    <path class="cls-2" d="M1129.69,574.91h-259.13c9.75-25.96,40.18-41.21,65.72-30.39-10.06-23.84-8.52-52.61,5.34-74.46s40.13-35.64,65.89-33.16c25.76,2.48,49.43,21.9,55.5,47.06,14.83-10.55,36.36-10.54,51.17.03,14.81,10.57,21.82,30.93,16.66,48.38,24.85.28,48.55,17.9,55.97,41.62"/>
    <path class="cls-6" d="M507.55,272.6H174.13l-64.3-1.75c6.06-17.94,20.38-32.9,38.03-39.75,17.65-6.84,38.32-5.46,54.89,3.69-7.96-20.88,2.59-47.02,22.79-56.52,20.22-9.5,47.07-.94,58.06,18.5,2.18-27.35,22.15-52.14,48.05-61.18,6.19-2.16,12.65-3.44,19.18-3.86,20.72-1.38,42.09,5.72,57.8,19.46,20.65,18.06,31.18,46.67,28.38,73.94,15.38-8.19,35.32-7.04,49.64,2.89,14.34,9.94,23.16,27.29,20.9,44.59Z"/>
    <path class="cls-1" d="M1076.68,650.67h-329.06l-26.56,1.11c15.51-20.73,46.12-28.47,69.61-17.61-5.71-13.53.57-30.96,13.62-37.74,13.05-6.79,30.93-1.92,38.72,10.55,1.74-26.13,17.19-51.19,40.32-63.44,3.52-1.85,7.2-3.4,10.97-4.62,21.09-6.84,45.44-3.74,63.34,9.37,21.1,15.46,31.64,44.45,24.32,69.58,33.66-13.86,77.16.91,94.73,32.8Z"/>
    <path class="cls-4" d="M631.26,640.11h-285.47l-23.04.97c13.45-17.99,40.01-24.7,60.39-15.28-4.96-11.74.5-26.86,11.81-32.74,11.32-5.89,26.83-1.67,33.59,9.15,1.51-22.66,14.91-44.41,34.98-55.04,3.06-1.61,6.24-2.95,9.52-4.01,18.29-5.94,39.42-3.25,54.95,8.13,18.31,13.41,27.45,38.56,21.1,60.36,29.2-12.02,66.94.79,82.18,28.45Z"/>
    <path class="cls-6" d="M902.73,644.99c3.84-10.64.2-24.24-9.81-29.5,9.41.96,19.16-2.66,25.67-9.49,6.52-6.84,9.64-16.77,8.24-26.11-2.65-17.55-19.03-29.16-34-38.68l1.45-2.29c21.09-6.84,45.44-3.74,63.34,9.37,21.1,15.46,31.64,44.45,24.32,69.58,33.66-13.86,77.16.91,94.73,32.8h-176.71c1.11-1.79,2.04-3.67,2.76-5.68Z"/>
    <path class="cls-1" d="M353.41,226.02c-14.27,10.94-33.11,14.69-51.03,13.24-17.94-1.45-35.13-7.73-51.45-15.24,5.14,16.78-4.94,35.32-19.53,45.09-1.91,1.28-3.88,2.45-5.9,3.49h-51.36l-64.3-1.75c6.06-17.94,20.38-32.9,38.03-39.75,17.65-6.84,38.32-5.46,54.89,3.69-7.96-20.88,2.59-47.02,22.79-56.52,20.22-9.5,47.07-.94,58.06,18.5,2.18-27.35,22.15-52.14,48.05-61.18,6.19-2.16,12.65-3.44,19.18-3.86,13.75,9.55,23.31,25.15,25.1,41.85,2.13,19.78-6.72,40.37-22.53,52.46Z"/>
    <g>
      <line class="cls-7" x1="-430" y1="1906.36" x2="1510" y2="1906.36"/>
      <line class="cls-7" x1="-430" y1="1856.36" x2="1510" y2="1856.36"/>
      <line class="cls-7" x1="-430" y1="1806.36" x2="1510" y2="1806.36"/>
      <line class="cls-7" x1="-430" y1="1756.36" x2="1510" y2="1756.36"/>
    </g>
    <g>
      <line class="cls-7" x1="1042.85" y1="1806.23" x2="1042.85" y2="1756.23"/>
      <line class="cls-7" x1="922.85" y1="1806.23" x2="922.85" y2="1756.23"/>
      <line class="cls-7" x1="802.85" y1="1806.23" x2="802.85" y2="1756.23"/>
      <line class="cls-7" x1="682.85" y1="1806.23" x2="682.85" y2="1756.23"/>
      <line class="cls-7" x1="562.85" y1="1806.23" x2="562.85" y2="1756.23"/>
      <line class="cls-7" x1="442.85" y1="1806.23" x2="442.85" y2="1756.23"/>
      <line class="cls-7" x1="322.85" y1="1806.23" x2="322.85" y2="1756.23"/>
      <line class="cls-7" x1="202.85" y1="1806.23" x2="202.85" y2="1756.23"/>
      <line class="cls-7" x1="82.85" y1="1806.23" x2="82.85" y2="1756.23"/>
    </g>
    <g>
      <line class="cls-7" x1="1042.85" y1="1956.23" x2="1042.85" y2="1906.23"/>
      <line class="cls-7" x1="922.85" y1="1956.23" x2="922.85" y2="1906.23"/>
      <line class="cls-7" x1="802.85" y1="1956.23" x2="802.85" y2="1906.23"/>
      <line class="cls-7" x1="682.85" y1="1956.23" x2="682.85" y2="1906.23"/>
      <line class="cls-7" x1="562.85" y1="1956.23" x2="562.85" y2="1906.23"/>
      <line class="cls-7" x1="442.85" y1="1956.23" x2="442.85" y2="1906.23"/>
      <line class="cls-7" x1="322.85" y1="1956.23" x2="322.85" y2="1906.23"/>
      <line class="cls-7" x1="202.85" y1="1956.23" x2="202.85" y2="1906.23"/>
      <line class="cls-7" x1="82.85" y1="1956.23" x2="82.85" y2="1906.23"/>
    </g>
    <g>
      <line class="cls-7" x1="966.76" y1="1856.23" x2="966.76" y2="1806.23"/>
      <line class="cls-7" x1="846.76" y1="1856.23" x2="846.76" y2="1806.23"/>
      <line class="cls-7" x1="726.76" y1="1856.23" x2="726.76" y2="1806.23"/>
      <line class="cls-7" x1="606.76" y1="1856.23" x2="606.76" y2="1806.23"/>
      <line class="cls-7" x1="486.76" y1="1856.23" x2="486.76" y2="1806.23"/>
      <line class="cls-7" x1="366.76" y1="1856.23" x2="366.76" y2="1806.23"/>
      <line class="cls-7" x1="246.76" y1="1856.23" x2="246.76" y2="1806.23"/>
      <line class="cls-7" x1="126.76" y1="1856.23" x2="126.76" y2="1806.23"/>
      <line class="cls-7" x1="6.76" y1="1856.23" x2="6.76" y2="1806.23"/>
    </g>
    <g>
      <line class="cls-7" x1="1016.63" y1="1906.23" x2="1016.63" y2="1856.23"/>
      <line class="cls-7" x1="896.63" y1="1906.23" x2="896.63" y2="1856.23"/>
      <line class="cls-7" x1="776.63" y1="1906.23" x2="776.63" y2="1856.23"/>
      <line class="cls-7" x1="656.63" y1="1906.23" x2="656.63" y2="1856.23"/>
      <line class="cls-7" x1="536.63" y1="1906.23" x2="536.63" y2="1856.23"/>
      <line class="cls-7" x1="416.63" y1="1906.23" x2="416.63" y2="1856.23"/>
      <line class="cls-7" x1="296.63" y1="1906.23" x2="296.63" y2="1856.23"/>
      <line class="cls-7" x1="176.63" y1="1906.23" x2="176.63" y2="1856.23"/>
      <line class="cls-7" x1="56.63" y1="1906.23" x2="56.63" y2="1856.23"/>
    </g>
    <path class="cls-6" d="M265.64,894.23c-20.34,47.28-77.66,75.18-127.42,62.01,1.69,25.62-6.93,50.59-21.58,71.87H-204.89c14.45-27.65,50.7-34.38,79.95-23.53-1.64-22.79-.36-51.03,20.14-61.14,20.39-10.05,43.49,5.91,60.58,20.9,2.45-22.7,5.06-45.96,15.28-66.39,10.22-20.42,29.82-37.74,52.64-38.59,16.12-.6,31.67,7.03,43.82,17.64,12.19,10.65,20.63,24.12,30.35,36.81,20.51-42.1,52.48-84.9,98.77-100.39,21.88-7.32,45.72-8.48,68.29-3.83h.01c11.07,26.84,12.2,57.9.7,84.64Z"/>
    <path class="cls-1" d="M98.7,449.12c5.49,29.01-4.22,59.78-23.41,82.06h-237.95c6.02-17.57,18.73-32.64,36.16-39.04,17.44-6.4,37.71-4.53,53.68,4.97,3.29-14.88,15.44-27.45,30.2-31.23,14.77-3.78,31.46,1.4,41.5,12.86,13.46-52.22,62.58-93.16,116.37-97,10.71-.76,21.44-.05,31.93,1.99,1.26,4.17,1.98,8.5,2.07,12.91.55,27.04-23.51,52.43-50.55,52.48Z"/>
    <path class="cls-2" d="M1139.23,169.24h-307.5c16.11-24.45,53.16-32.29,78.36-17.39-.8-17.75,12.79-35.04,30.22-38.46s36.55,7.46,42.51,24.2c-.28-22.78,12.68-45.25,32.55-56.4,19.87-11.15,45.8-10.52,65.1,1.59,19.3,12.11,31.15,35.18,29.76,57.92,25.81-8.31,56.67,4.77,69.69,28.55"/>
    <path class="cls-2" d="M798.8,795.65h-474.45c11.53-37.94,53.22-57.43,82.99-38.2-6.52-46.37,11.34-96.35,43.9-122.92,32.57-26.56,78.14-28.31,112.08-4.31,29.73,21.03,48.97,58.63,59.56,97.84-.73-2.71,6.63-11.1,8.14-12.82,3.64-4.14,7.88-7.52,12.44-10.03,8.06-4.43,19.9-7.69,28.49-3.53,18.39,8.9,32.31,31.53,33.48,55.08,29.11-16.33,62.5-21.6,94.17-14.85,31.67,6.74,61.47,25.47,84.02,52.79"/>
  </g>
</svg>