<?xml version="1.0" encoding="UTF-8"?>
<svg xmlns="http://www.w3.org/2000/svg" xmlns:xlink="http://www.w3.org/1999/xlink" viewBox="0 0 1080 1920">
  <defs>
    <style>
      .cls-1, .cls-2 {
        fill: #ffa9c2;
      }

      .cls-3, .cls-4 {
        stroke: #a8b6c1;
      }

      .cls-3, .cls-4, .cls-5, .cls-6, .cls-7, .cls-8, .cls-9, .cls-10, .cls-11, .cls-12, .cls-13, .cls-14, .cls-15, .cls-16, .cls-17 {
        fill: none;
      }

      .cls-3, .cls-7, .cls-10, .cls-11, .cls-14, .cls-15, .cls-16 {
        stroke-width: 2px;
      }

      .cls-3, .cls-10, .cls-12 {
        stroke-miterlimit: 10;
      }

      .cls-4, .cls-6, .cls-7, .cls-8, .cls-9, .cls-11, .cls-13, .cls-14, .cls-15, .cls-16 {
        stroke-linecap: round;
        stroke-linejoin: round;
      }

      .cls-4, .cls-6, .cls-12, .cls-13 {
        stroke-width: 4px;
      }

      .cls-18 {
        fill: #3288d6;
      }

      .cls-19 {
        fill: #a152db;
      }

      .cls-20, .cls-21, .cls-22 {
        fill: #dfedf2;
      }

      .cls-20, .cls-9 {
        font-family: Inter-SemiBold, Inter;
        font-size: 87.3px;
        font-variation-settings: 'wght' 600, 'slnt' 0;
        font-weight: 600;
      }

      .cls-23 {
        fill: #fff;
      }

      .cls-24 {
        fill: #ea9939;
      }

      .cls-25 {
        fill: #d87625;
      }

      .cls-26 {
        fill: #fff8d9;
      }

      .cls-27 {
        fill: #cec8b7;
      }

      .cls-28, .cls-29 {
        fill: #e4ddc6;
      }

      .cls-30 {
        fill: #f4b545;
      }

      .cls-31 {
        fill: #fffcee;
      }

      .cls-32, .cls-33 {
        fill: #f8d7ff;
      }

      .cls-6 {
        stroke: #7a1859;
      }

      .cls-34 {
        fill: #f47aa0;
      }

      .cls-7, .cls-14, .cls-15 {
        stroke: #3288d6;
      }

      .cls-8, .cls-9 {
        stroke: #333;
        stroke-width: 40px;
      }

      .cls-35 {
        clip-path: url(#clippath-1);
      }

      .cls-22, .cls-33, .cls-2, .cls-29 {
        opacity: .5;
      }

      .cls-10 {
        stroke: #cec8b7;
      }

      .cls-36 {
        fill: #e9f1f4;
      }

      .cls-37 {
        fill: #788696;
      }

      .cls-38 {
        fill: #79cdf6;
      }

      .cls-39 {
        clip-path: url(#clippath-3);
      }

      .cls-40 {
        fill: #ffe277;
      }

      .cls-11 {
        stroke: #1f5999;
      }

      .cls-41 {
        fill: #333;
      }

      .cls-42 {
        fill: #47acea;
      }

      .cls-12 {
        stroke: #13437c;
      }

      .cls-13 {
        stroke: #6d3108;
      }

      .cls-43 {
        fill: #8942c5;
      }

      .cls-14 {
        stroke-dasharray: 6;
      }

      .cls-44 {
        fill: #efe8cb;
      }

      .cls-15 {
        stroke-dasharray: 5.95 5.95;
      }

      .cls-45 {
        fill: #dd4a8c;
      }

      .cls-46 {
        clip-path: url(#clippath-2);
      }

      .cls-47 {
        fill: #efa7fc;
      }

      .cls-16 {
        stroke: #d87625;
      }

      .cls-48 {
        fill: #a8b6c1;
      }

      .cls-17 {
        stroke: #3d1170;
        stroke-width: 8px;
      }

      .cls-49 {
        fill: #d27cf2;
      }

      .cls-50 {
        fill: #d9d2bf;
      }

      .cls-51 {
        clip-path: url(#clippath);
      }

      .cls-52 {
        fill: #ffd2e1;
      }
    </style>
    <clipPath id="clippath">
      <rect class="cls-5" x="294.05" y="940.45" width="267.2" height="187.2" rx="12.8" ry="12.8" transform="translate(1461.7 606.39) rotate(90)"/>
    </clipPath>
    <clipPath id="clippath-1">
      <rect class="cls-5" x="711.35" y="789.4" width="267.2" height="187.2" rx="12.8" ry="12.8" transform="translate(1727.95 38.05) rotate(90)"/>
    </clipPath>
    <clipPath id="clippath-2">
      <rect class="cls-5" x="90.45" y="522.01" width="267.2" height="187.2" rx="12.8" ry="12.8" transform="translate(839.66 391.56) rotate(90)"/>
    </clipPath>
    <clipPath id="clippath-3">
      <rect class="cls-5" x="518.75" y="407.47" width="267.2" height="187.2" rx="12.8" ry="12.8" transform="translate(1153.41 -151.28) rotate(90)"/>
    </clipPath>
  </defs>
  <g id="BG">
    <rect class="cls-44" x="-430" y="-10" width="1940" height="1940"/>
  </g>
  <g id="Deco2">
    <path class="cls-28" d="M678.18,359.58h276.37c-6.07-11.62-21.3-14.44-33.59-9.88.69-9.57.15-21.44-8.46-25.68-8.57-4.22-18.27,2.48-25.45,8.78-1.03-9.54-2.13-19.31-6.42-27.89-4.29-8.58-12.53-15.85-22.11-16.21-6.77-.25-13.3,2.95-18.41,7.41-5.12,4.47-8.67,10.13-12.75,15.46-8.62-17.69-22.05-35.67-41.49-42.17-9.19-3.08-19.21-3.56-28.69-1.61h0c-8.26,1.71-16.11,5.26-22.66,10.57-8.88,7.2-15.11,17.53-17.64,28.66-1.4,6.15-.44,11.89-.97,18.01-.56,6.54-1.73,12.19-.62,18.94-13.55-3.78-28.58,4.43-37.11,15.62Z"/>
    <path class="cls-28" d="M231.09,832.04H21.15c7.9-21.04,32.55-33.39,53.24-24.62-8.15-19.32-6.9-42.63,4.33-60.33,11.23-17.7,32.51-28.88,53.38-26.87s40.05,17.74,44.97,38.12c12.01-8.55,29.46-8.54,41.46.03,12,8.57,17.68,25.06,13.49,39.2,20.13.23,39.33,14.5,45.34,33.72"/>
    <path class="cls-28" d="M231.45,200.86H-27.67c9.75-25.96,40.18-41.21,65.72-30.39-10.06-23.84-8.52-52.61,5.34-74.46s40.13-35.64,65.89-33.16c25.76,2.48,49.43,21.9,55.5,47.06,14.83-10.55,36.36-10.54,51.17.03,14.81,10.57,21.82,30.93,16.66,48.38,24.85.28,48.55,17.9,55.97,41.62"/>
    <g>
      <rect class="cls-29" x="34.44" y="1152.43" width="148.97" height="413.94"/>
      <rect class="cls-29" x="234.38" y="1346.65" width="148.97" height="413.94"/>
      <rect class="cls-29" x="413.5" y="1256.94" width="108.37" height="415.13"/>
      <polygon class="cls-29" points="850.59 1363.99 753.26 1363.99 753.26 1469.75 680.26 1469.75 680.26 1777.92 850.59 1777.92 850.59 1363.99"/>
      <rect class="cls-29" x="887.08" y="1291.3" width="148.97" height="413.94"/>
      <rect class="cls-28" x="141.52" y="1205.63" width="148.97" height="546.13"/>
      <rect class="cls-28" x="561.19" y="1226.44" width="148.97" height="525.32"/>
      <rect class="cls-28" x="438.43" y="1341.52" width="148.97" height="375.49"/>
      <rect class="cls-28" x="949.36" y="1254.95" width="148.97" height="464.77"/>
      <rect class="cls-28" x="813.52" y="1400.62" width="148.97" height="355.61"/>
      <rect class="cls-28" x="-63.65" y="1315.15" width="148.97" height="436.61"/>
      <rect class="cls-50" x="353.59" y="1414.52" width="148.97" height="341.71"/>
      <rect class="cls-50" x="34.44" y="1376.49" width="148.97" height="379.74"/>
      <rect class="cls-50" x="1009.56" y="1378.45" width="148.97" height="377.79"/>
      <rect class="cls-50" x="591.28" y="1572.63" width="245.56" height="183.6"/>
      <rect class="cls-27" x="-26.48" y="1414.52" width="148.97" height="341.71"/>
      <rect class="cls-27" x="234.38" y="1593.03" width="148.97" height="163.21"/>
      <rect class="cls-27" x="475.03" y="1519.82" width="148.97" height="236.42"/>
      <rect class="cls-27" x="935.07" y="1473.03" width="148.97" height="283.2"/>
      <rect class="cls-28" x="961.57" y="1501.26" width="19.68" height="28.01"/>
      <rect class="cls-28" x="993.73" y="1501.26" width="19.68" height="28.01"/>
      <rect class="cls-28" x="961.57" y="1539.61" width="19.68" height="28.01"/>
      <rect class="cls-28" x="1033.68" y="1700.64" width="19.68" height="28.01"/>
      <rect class="cls-28" x="1003.57" y="1700.64" width="19.68" height="28.01"/>
      <rect class="cls-44" x="793.84" y="1609.34" width="19.68" height="28.01"/>
      <rect class="cls-44" x="756.42" y="1609.34" width="19.68" height="28.01"/>
      <rect class="cls-44" x="756.42" y="1650.43" width="19.68" height="28.01"/>
      <rect class="cls-44" x="719.01" y="1650.43" width="19.68" height="28.01"/>
      <rect class="cls-28" x="258.66" y="1616.59" width="19.68" height="28.01"/>
      <rect class="cls-28" x="258.66" y="1664.43" width="19.68" height="28.01"/>
      <rect class="cls-28" x="75.48" y="1445.02" width="19.68" height="28.01"/>
      <rect class="cls-28" x="38.16" y="1445.02" width="19.68" height="28.01"/>
      <rect class="cls-28" x="75.48" y="1487.25" width="19.68" height="28.01"/>
      <rect class="cls-28" x="24.6" y="1655.99" width="19.68" height="28.01"/>
      <rect class="cls-28" x="24.6" y="1700.64" width="19.68" height="28.01"/>
      <rect class="cls-44" x="163.73" y="1230.12" width="19.68" height="28.01"/>
      <rect class="cls-44" x="163.73" y="1272.06" width="19.68" height="28.01"/>
      <rect class="cls-28" x="993.73" y="1539.61" width="19.68" height="28.01"/>
      <rect class="cls-28" x="1023.84" y="1501.26" width="19.68" height="28.01"/>
      <rect class="cls-44" x="1028.04" y="1400.51" width="19.68" height="28.01"/>
      <rect class="cls-44" x="968.51" y="1274.85" width="19.68" height="28.01"/>
      <rect class="cls-44" x="999.72" y="1274.85" width="19.68" height="28.01"/>
      <rect class="cls-44" x="1032" y="1274.85" width="19.68" height="28.01"/>
      <rect class="cls-44" x="831.07" y="1417.62" width="19.68" height="28.01"/>
      <rect class="cls-44" x="864" y="1417.62" width="19.68" height="28.01"/>
      <rect class="cls-44" x="831.07" y="1455.75" width="19.68" height="28.01"/>
      <rect class="cls-44" x="670.42" y="1247.94" width="19.68" height="28.01" transform="translate(1360.53 2523.89) rotate(180)"/>
      <rect class="cls-44" x="637.5" y="1247.94" width="19.68" height="28.01" transform="translate(1294.67 2523.89) rotate(180)"/>
      <rect class="cls-44" x="670.42" y="1286.07" width="19.68" height="28.01" transform="translate(1360.53 2600.14) rotate(180)"/>
      <rect class="cls-28" x="577.56" y="1545.36" width="19.68" height="28.01" transform="translate(1174.8 3118.72) rotate(180)"/>
      <rect class="cls-28" x="544.63" y="1545.36" width="19.68" height="28.01" transform="translate(1108.94 3118.72) rotate(180)"/>
      <rect class="cls-28" x="577.56" y="1583.48" width="19.68" height="28.01" transform="translate(1174.8 3194.98) rotate(180)"/>
      <rect class="cls-44" x="252.07" y="1456.03" width="19.68" height="28.01" transform="translate(523.82 2940.07) rotate(180)"/>
      <rect class="cls-44" x="252.07" y="1494.16" width="19.68" height="28.01" transform="translate(523.82 3016.33) rotate(180)"/>
      <rect class="cls-44" x="374.16" y="1432.13" width="19.68" height="28.01" transform="translate(768 2892.28) rotate(180)"/>
      <rect class="cls-44" x="374.16" y="1470.26" width="19.68" height="28.01" transform="translate(768 2968.53) rotate(180)"/>
      <rect class="cls-44" x="864" y="1455.75" width="19.68" height="28.01"/>
      <rect class="cls-44" x="896.08" y="1417.62" width="19.68" height="28.01"/>
    </g>
    <path class="cls-26" d="M611.27,375.39h233.19c-12.6-32.19-54.64-49.43-86.73-36.59.9-16.27-9.86-32.5-25.19-38.02s-33.97.16-43.63,13.27c-10.44-21.18-21.09-42.67-37.09-60.04-15.99-17.37-38.35-30.35-61.95-29.6-17.79.56-35.17,9.24-46.31,23.13s-15.84,32.73-12.54,50.22c-14.01-10.78-35.18-11-49.42-.53-14.24,10.47-20.33,30.75-14.23,47.33-17.98-.96-36.01,14.39-43.35,30.83"/>
    <path class="cls-26" d="M265.81,456.41h215.56c-2.44-36.38-44.69-54.95-85.95-39.08,6.04-17.16.93-33.97-12.44-40.88s-34.2-3.52-50.67,8.25c-6.14-22.93-19.52-42.77-40.98-52.81-21.47-10.05-51.56-9.29-79,5.26-27.44,14.55-50.49,43.74-51.91,69.54-.25,4.53-.19,9.65-3.99,13.68-3.83,4.06-9.5,4.82-14.49,6-20.31,4.8-40.53,24.67-44.6,43.81"/>
    <path class="cls-26" d="M1272.91,1086.97h-675.67c4.41-21.74,15.7-44.41,35.31-54.76,19.61-10.36,43.89-11.42,64.33-2.8-10.87-20.51-3.45-47.62,13.82-63.12,17.27-15.51,42.2-20.43,65.2-17.32s44.41,13.44,64.32,25.36c-9.52-41.94,9.38-88.85,45.31-112.49,35.94-23.63,86.5-22.41,121.24,2.94,20.69,15.09,34.73,36.52,45.72,59.94,7.29,15.51,13.24,31.89,18.91,47.88,19.36-15.99,49.5-17.18,70.07-2.78,20.56,14.4,29.75,43.13,21.35,66.8,42.52-17.06,93.37,7.7,110.09,50.35Z"/>
    <path class="cls-28" d="M568.37,56.05H199.63c2.41-11.86,8.57-24.24,19.27-29.88,10.7-5.65,23.95-6.23,35.11-1.53-5.93-11.19-1.88-25.99,7.54-34.45,9.42-8.46,23.03-11.15,35.58-9.45s24.24,7.33,35.1,13.84c-5.2-22.89,5.12-48.49,24.73-61.39,19.61-12.9,47.21-12.23,66.17,1.6,11.29,8.24,18.95,19.93,24.95,32.71,3.98,8.46,7.23,17.4,10.32,26.13,10.57-8.73,27.01-9.38,38.24-1.52,11.22,7.86,16.24,23.54,11.65,36.46,23.2-9.31,50.96,4.2,60.08,27.48Z"/>
    <path class="cls-31" d="M1052.49,924.72c-6.1,13.08-14.9,25.02-25.62,34.52-29.54,26.19-70.45,36.26-109.93,36.81,2.6,34.37-13.12,69.59-40.44,90.62-.13.1-.27.2-.4.3h-278.86c4.41-21.74,15.7-44.41,35.31-54.76,19.61-10.36,43.89-11.42,64.33-2.8-10.87-20.51-3.45-47.62,13.82-63.12,17.27-15.51,42.2-20.43,65.2-17.32s44.41,13.44,64.32,25.36c-9.52-41.94,9.38-88.85,45.31-112.49,35.94-23.63,86.5-22.41,121.24,2.94,20.69,15.09,34.73,36.52,45.72,59.94Z"/>
    <path class="cls-31" d="M402.67,531.18c-3.27.71-145.16,0-145.16,0H-162.66c6.02-17.57,18.73-32.64,36.16-39.04,17.44-6.4,37.71-4.53,53.68,4.97,3.29-14.88,15.44-27.45,30.2-31.23,14.77-3.78,31.46,1.4,41.5,12.86,13.46-52.22,62.58-93.16,116.37-97,10.71-.76,21.44-.05,31.93,1.99,42.2,8.17,80.42,37.63,97.04,77.49,12.3-7.57,28.5-8.38,41.5-2.07,12.99,6.31,22.37,19.54,24.03,33.89,37.23-21.8,92.92,5.66,92.92,38.14Z"/>
    <path class="cls-28" d="M1022.65,132.66c-2.21.48-98.04,0-98.04,0h-283.79c4.07-11.87,12.65-22.05,24.42-26.37,11.78-4.32,25.47-3.06,36.26,3.36,2.22-10.05,10.43-18.54,20.4-21.09,9.98-2.55,21.25.95,28.03,8.69,9.09-35.27,42.27-62.92,78.6-65.51,7.23-.51,14.48-.03,21.57,1.34,28.5,5.52,54.32,25.42,65.54,52.34,8.31-5.11,19.25-5.66,28.03-1.4,8.77,4.26,15.11,13.2,16.23,22.89,25.15-14.72,62.76,3.82,62.76,25.76Z"/>
    <path class="cls-26" d="M452.99,1028.11H-204.89c14.45-27.65,50.7-34.38,79.95-23.53-1.64-22.79-.36-51.03,20.14-61.14,20.39-10.05,43.49,5.91,60.58,20.9,2.45-22.7,5.06-45.96,15.28-66.39,10.22-20.42,29.82-37.74,52.64-38.59,16.12-.6,31.67,7.03,43.82,17.64,12.19,10.65,20.63,24.12,30.35,36.81,20.51-42.1,52.48-84.9,98.77-100.39,21.88-7.32,45.72-8.48,68.29-3.83h.01c19.66,4.06,38.35,12.52,53.95,25.16,21.14,17.14,35.98,41.74,41.98,68.23,3.33,14.64,1.05,28.31,2.3,42.87,1.34,15.57,4.12,29.02,1.48,45.08,32.26-9,68.04,10.54,88.34,37.18Z"/>
    <path class="cls-28" d="M989.27,202c-.67-.85-1.64-1.5-2.88-1.78l-4.65-1.02c-.12-.03-.25-.05-.37-.08-2.71-.57-5.45-.89-8.19-.94-7.65-.17-15.27,1.62-22.1,5.29l-68.14,36.53-18.58-6c-.59-.31-1.3-.31-1.88,0l-5.17,2.77c-1.28.69-1.42,2.47-.27,3.35l18.92,14.43c-.11.17-.19.34-.21.51l-8.4,16.21-.06.51h0c-.11.87,1,1.2,2.08.62l7.17-3.85c.32-.17.59-.4.78-.66.08-.11.15-.22.2-.33l6.29-8.42c4.54,1.41,9.54,1.01,13.88-1.32l26.8-14.37-9.83,22.71-.12.77h0c-.2,1.33,1.52,1.8,3.23.88l11.36-6.09c.49-.26.9-.61,1.21-.99.14-.18.27-.36.35-.54l19.73-30.65,12.91-6.92h0l24.37-13.06c3.01-1.61,3.37-5.31,1.57-7.59Z"/>
    <path class="cls-26" d="M1129.69,574.91h-259.13c9.75-25.96,40.18-41.21,65.72-30.39-10.06-23.84-8.52-52.61,5.34-74.46s40.13-35.64,65.89-33.16c25.76,2.48,49.43,21.9,55.5,47.06,14.83-10.55,36.36-10.54,51.17.03,14.81,10.57,21.82,30.93,16.66,48.38,24.85.28,48.55,17.9,55.97,41.62"/>
    <path class="cls-31" d="M507.55,272.6H174.13l-64.3-1.75c6.06-17.94,20.38-32.9,38.03-39.75,17.65-6.84,38.32-5.46,54.89,3.69-7.96-20.88,2.59-47.02,22.79-56.52,20.22-9.5,47.07-.94,58.06,18.5,2.18-27.35,22.15-52.14,48.05-61.18,6.19-2.16,12.65-3.44,19.18-3.86,20.72-1.38,42.09,5.72,57.8,19.46,20.65,18.06,31.18,46.67,28.38,73.94,15.38-8.19,35.32-7.04,49.64,2.89,14.34,9.94,23.16,27.29,20.9,44.59Z"/>
    <path class="cls-23" d="M1076.68,650.67h-329.06l-26.56,1.11c15.51-20.73,46.12-28.47,69.61-17.61-5.71-13.53.57-30.96,13.62-37.74,13.05-6.79,30.93-1.92,38.72,10.55,1.74-26.13,17.19-51.19,40.32-63.44,3.52-1.85,7.2-3.4,10.97-4.62,21.09-6.84,45.44-3.74,63.34,9.37,21.1,15.46,31.64,44.45,24.32,69.58,33.66-13.86,77.16.91,94.73,32.8Z"/>
    <path class="cls-28" d="M631.26,640.11h-285.47l-23.04.97c13.45-17.99,40.01-24.7,60.39-15.28-4.96-11.74.5-26.86,11.81-32.74,11.32-5.89,26.83-1.67,33.59,9.15,1.51-22.66,14.91-44.41,34.98-55.04,3.06-1.61,6.24-2.95,9.52-4.01,18.29-5.94,39.42-3.25,54.95,8.13,18.31,13.41,27.45,38.56,21.1,60.36,29.2-12.02,66.94.79,82.18,28.45Z"/>
    <path class="cls-31" d="M902.73,644.99c3.84-10.64.2-24.24-9.81-29.5,9.41.96,19.16-2.66,25.67-9.49,6.52-6.84,9.64-16.77,8.24-26.11-2.65-17.55-19.03-29.16-34-38.68l1.45-2.29c21.09-6.84,45.44-3.74,63.34,9.37,21.1,15.46,31.64,44.45,24.32,69.58,33.66-13.86,77.16.91,94.73,32.8h-176.71c1.11-1.79,2.04-3.67,2.76-5.68Z"/>
    <path class="cls-23" d="M353.41,226.02c-14.27,10.94-33.11,14.69-51.03,13.24-17.94-1.45-35.13-7.73-51.45-15.24,5.14,16.78-4.94,35.32-19.53,45.09-1.91,1.28-3.88,2.45-5.9,3.49h-51.36l-64.3-1.75c6.06-17.94,20.38-32.9,38.03-39.75,17.65-6.84,38.32-5.46,54.89,3.69-7.96-20.88,2.59-47.02,22.79-56.52,20.22-9.5,47.07-.94,58.06,18.5,2.18-27.35,22.15-52.14,48.05-61.18,6.19-2.16,12.65-3.44,19.18-3.86,13.75,9.55,23.31,25.15,25.1,41.85,2.13,19.78-6.72,40.37-22.53,52.46Z"/>
    <g>
      <line class="cls-10" x1="-430" y1="1906.36" x2="1510" y2="1906.36"/>
      <line class="cls-10" x1="-430" y1="1856.36" x2="1510" y2="1856.36"/>
      <line class="cls-10" x1="-430" y1="1806.36" x2="1510" y2="1806.36"/>
      <line class="cls-10" x1="-430" y1="1756.36" x2="1510" y2="1756.36"/>
    </g>
    <g>
      <line class="cls-10" x1="1042.85" y1="1806.23" x2="1042.85" y2="1756.23"/>
      <line class="cls-10" x1="922.85" y1="1806.23" x2="922.85" y2="1756.23"/>
      <line class="cls-10" x1="802.85" y1="1806.23" x2="802.85" y2="1756.23"/>
      <line class="cls-10" x1="682.85" y1="1806.23" x2="682.85" y2="1756.23"/>
      <line class="cls-10" x1="562.85" y1="1806.23" x2="562.85" y2="1756.23"/>
      <line class="cls-10" x1="442.85" y1="1806.23" x2="442.85" y2="1756.23"/>
      <line class="cls-10" x1="322.85" y1="1806.23" x2="322.85" y2="1756.23"/>
      <line class="cls-10" x1="202.85" y1="1806.23" x2="202.85" y2="1756.23"/>
      <line class="cls-10" x1="82.85" y1="1806.23" x2="82.85" y2="1756.23"/>
    </g>
    <g>
      <line class="cls-10" x1="1042.85" y1="1956.23" x2="1042.85" y2="1906.23"/>
      <line class="cls-10" x1="922.85" y1="1956.23" x2="922.85" y2="1906.23"/>
      <line class="cls-10" x1="802.85" y1="1956.23" x2="802.85" y2="1906.23"/>
      <line class="cls-10" x1="682.85" y1="1956.23" x2="682.85" y2="1906.23"/>
      <line class="cls-10" x1="562.85" y1="1956.23" x2="562.85" y2="1906.23"/>
      <line class="cls-10" x1="442.85" y1="1956.23" x2="442.85" y2="1906.23"/>
      <line class="cls-10" x1="322.85" y1="1956.23" x2="322.85" y2="1906.23"/>
      <line class="cls-10" x1="202.85" y1="1956.23" x2="202.85" y2="1906.23"/>
      <line class="cls-10" x1="82.85" y1="1956.23" x2="82.85" y2="1906.23"/>
    </g>
    <g>
      <line class="cls-10" x1="966.76" y1="1856.23" x2="966.76" y2="1806.23"/>
      <line class="cls-10" x1="846.76" y1="1856.23" x2="846.76" y2="1806.23"/>
      <line class="cls-10" x1="726.76" y1="1856.23" x2="726.76" y2="1806.23"/>
      <line class="cls-10" x1="606.76" y1="1856.23" x2="606.76" y2="1806.23"/>
      <line class="cls-10" x1="486.76" y1="1856.23" x2="486.76" y2="1806.23"/>
      <line class="cls-10" x1="366.76" y1="1856.23" x2="366.76" y2="1806.23"/>
      <line class="cls-10" x1="246.76" y1="1856.23" x2="246.76" y2="1806.23"/>
      <line class="cls-10" x1="126.76" y1="1856.23" x2="126.76" y2="1806.23"/>
      <line class="cls-10" x1="6.76" y1="1856.23" x2="6.76" y2="1806.23"/>
    </g>
    <g>
      <line class="cls-10" x1="1016.63" y1="1906.23" x2="1016.63" y2="1856.23"/>
      <line class="cls-10" x1="896.63" y1="1906.23" x2="896.63" y2="1856.23"/>
      <line class="cls-10" x1="776.63" y1="1906.23" x2="776.63" y2="1856.23"/>
      <line class="cls-10" x1="656.63" y1="1906.23" x2="656.63" y2="1856.23"/>
      <line class="cls-10" x1="536.63" y1="1906.23" x2="536.63" y2="1856.23"/>
      <line class="cls-10" x1="416.63" y1="1906.23" x2="416.63" y2="1856.23"/>
      <line class="cls-10" x1="296.63" y1="1906.23" x2="296.63" y2="1856.23"/>
      <line class="cls-10" x1="176.63" y1="1906.23" x2="176.63" y2="1856.23"/>
      <line class="cls-10" x1="56.63" y1="1906.23" x2="56.63" y2="1856.23"/>
    </g>
    <path class="cls-31" d="M265.64,894.23c-20.34,47.28-77.66,75.18-127.42,62.01,1.69,25.62-6.93,50.59-21.58,71.87H-204.89c14.45-27.65,50.7-34.38,79.95-23.53-1.64-22.79-.36-51.03,20.14-61.14,20.39-10.05,43.49,5.91,60.58,20.9,2.45-22.7,5.06-45.96,15.28-66.39,10.22-20.42,29.82-37.74,52.64-38.59,16.12-.6,31.67,7.03,43.82,17.64,12.19,10.65,20.63,24.12,30.35,36.81,20.51-42.1,52.48-84.9,98.77-100.39,21.88-7.32,45.72-8.48,68.29-3.83h.01c11.07,26.84,12.2,57.9.7,84.64Z"/>
    <path class="cls-23" d="M98.7,449.12c5.49,29.01-4.22,59.78-23.41,82.06h-237.95c6.02-17.57,18.73-32.64,36.16-39.04,17.44-6.4,37.71-4.53,53.68,4.97,3.29-14.88,15.44-27.45,30.2-31.23,14.77-3.78,31.46,1.4,41.5,12.86,13.46-52.22,62.58-93.16,116.37-97,10.71-.76,21.44-.05,31.93,1.99,1.26,4.17,1.98,8.5,2.07,12.91.55,27.04-23.51,52.43-50.55,52.48Z"/>
    <path class="cls-26" d="M1139.23,169.24h-307.5c16.11-24.45,53.16-32.29,78.36-17.39-.8-17.75,12.79-35.04,30.22-38.46s36.55,7.46,42.51,24.2c-.28-22.78,12.68-45.25,32.55-56.4,19.87-11.15,45.8-10.52,65.1,1.59,19.3,12.11,31.15,35.18,29.76,57.92,25.81-8.31,56.67,4.77,69.69,28.55"/>
    <path class="cls-26" d="M798.8,795.65h-474.45c11.53-37.94,53.22-57.43,82.99-38.2-6.52-46.37,11.34-96.35,43.9-122.92,32.57-26.56,78.14-28.31,112.08-4.31,29.73,21.03,48.97,58.63,59.56,97.84-.73-2.71,6.63-11.1,8.14-12.82,3.64-4.14,7.88-7.52,12.44-10.03,8.06-4.43,19.9-7.69,28.49-3.53,18.39,8.9,32.31,31.53,33.48,55.08,29.11-16.33,62.5-21.6,94.17-14.85,31.67,6.74,61.47,25.47,84.02,52.79"/>
  </g>
  <g id="Deco1">
    <g>
      <rect class="cls-36" x="192" y="456.47" width="362.94" height="29.92" rx="14.96" ry="14.96"/>
      <path class="cls-48" d="M554.94,471.43c0,4.13-1.68,7.87-4.38,10.58-2.71,2.71-6.45,4.38-10.58,4.38H206.96c-8.26,0-14.96-6.7-14.96-14.96h362.94Z"/>
      <path class="cls-41" d="M539.98,456.47c8.26,0,14.96,6.7,14.96,14.96s-6.7,14.96-14.96,14.96H206.96c-8.26,0-14.96-6.7-14.96-14.96s6.7-14.96,14.96-14.96h333.02M539.98,452.47H206.96c-10.45,0-18.96,8.5-18.96,18.96s8.51,18.96,18.96,18.96h333.02c10.45,0,18.96-8.51,18.96-18.96s-8.5-18.96-18.96-18.96h0Z"/>
    </g>
    <g>
      <rect class="cls-48" x="533.71" y="722.65" width="322.94" height="29.92" rx="14.96" ry="14.96"/>
      <path class="cls-41" d="M841.68,722.65c8.26,0,14.96,6.7,14.96,14.96s-6.7,14.96-14.96,14.96h-293.02c-8.26,0-14.96-6.7-14.96-14.96s6.7-14.96,14.96-14.96h293.02M841.68,718.65h-293.02c-10.45,0-18.96,8.51-18.96,18.96s8.51,18.96,18.96,18.96h293.02c10.45,0,18.96-8.51,18.96-18.96s-8.51-18.96-18.96-18.96h0Z"/>
    </g>
    <g>
      <rect class="cls-36" x="545.22" y="1010.04" width="311.42" height="29.92" rx="13.86" ry="13.86"/>
      <path class="cls-48" d="M856.64,1025v1.1c0,7.66-6.2,13.86-13.86,13.86h-283.7c-7.65,0-13.86-6.2-13.86-13.86v-1.1h311.42Z"/>
      <rect class="cls-48" x="564" y="1010.04" width="23.1" height="29.92"/>
      <path class="cls-41" d="M842.78,1010.04c7.65,0,13.86,6.2,13.86,13.86v2.2c0,7.65-6.2,13.86-13.86,13.86h-283.7c-7.65,0-13.86-6.2-13.86-13.86v-2.2c0-7.65,6.2-13.86,13.86-13.86h283.7M842.78,1006.04h-283.7c-9.85,0-17.86,8.01-17.86,17.86v2.2c0,9.85,8.01,17.86,17.86,17.86h283.7c9.85,0,17.86-8.01,17.86-17.86v-2.2c0-9.85-8.01-17.86-17.86-17.86h0Z"/>
    </g>
    <g>
      <g>
        <path class="cls-36" d="M346.85,1173.55c-10.31,0-18.7-8.39-18.7-18.7v-241.6c0-10.31,8.39-18.7,18.7-18.7h161.6c3.28,0,6.51.86,9.33,2.49,5.78,3.33,9.37,9.54,9.37,16.21v241.6c0,10.31-8.39,18.7-18.7,18.7h-161.6Z"/>
        <path class="cls-41" d="M508.45,895.05c3.19,0,6.33.84,9.08,2.43,5.62,3.24,9.12,9.29,9.12,15.77v241.6c0,10.04-8.16,18.2-18.2,18.2h-161.6c-10.04,0-18.2-8.16-18.2-18.2v-241.6c0-10.04,8.16-18.2,18.2-18.2h161.6M508.45,894.05h-161.6c-10.6,0-19.2,8.6-19.2,19.2v241.6c0,10.6,8.6,19.2,19.2,19.2h161.6c10.6,0,19.2-8.6,19.2-19.2v-241.6c0-7.12-3.87-13.32-9.62-16.64-2.82-1.63-6.09-2.56-9.58-2.56h0Z"/>
      </g>
      <path class="cls-41" d="M508.45,894.05c10.6,0,19.2,8.6,19.2,19.2v241.6c0,10.6-8.6,19.2-19.2,19.2h-161.6c-10.6,0-19.2-8.6-19.2-19.2v-241.6c0-10.6,8.6-19.2,19.2-19.2h161.6M508.45,890.05h-161.6c-12.79,0-23.2,10.41-23.2,23.2v241.6c0,12.79,10.41,23.2,23.2,23.2h161.6c12.79,0,23.2-10.41,23.2-23.2v-241.6c0-12.79-10.41-23.2-23.2-23.2h0Z"/>
      <g class="cls-51">
        <rect class="cls-42" x="327.65" y="894.05" width="200" height="280"/>
        <path class="cls-38" d="M527.65,913.25v149.81l-200,46.64v-168.69l190.38-44.4c5.75,3.32,9.62,9.52,9.62,16.64Z"/>
        <path class="cls-38" d="M527.65,1077.81v56.23l-171.56,40h-9.24c-10.6,0-19.2-8.6-19.2-19.2v-30.4l200-46.64Z"/>
        <g>
          <path class="cls-21" d="M445,981.14h-34.69c-2.5,0-4.52,2.02-4.52,4.52v19.12c0,.98.32,1.89.85,2.63.82,1.14,2.16,1.89,3.67,1.89h34.69c1.51,0,2.85-.75,3.67-1.89.12-.16.23-.34.32-.53.33-.63.53-1.35.53-2.11v-19.12c0-2.5-2.02-4.52-4.52-4.52ZM440.48,1000.27h-25.65v-10.08h25.65v10.08Z"/>
          <path class="cls-42" d="M445,983.94h-34.69c-2.5,0-4.52,2.02-4.52,4.52v16.33c0,.98.32,1.89.85,2.63.82,1.14,2.16,1.89,3.67,1.89h34.69c1.51,0,2.85-.75,3.67-1.89.12-.16.23-.34.32-.53.33-.63.53-1.35.53-2.11v-16.33c0-2.5-2.02-4.52-4.52-4.52ZM414.83,990.19h25.65v10.08h-25.65v-10.08Z"/>
          <polygon class="cls-18" points="449 993.17 449 1007.42 405.78 1007.42 405.78 993.17 414.83 993.17 414.83 1000.27 440.48 1000.27 440.48 993.17 449 993.17"/>
          <path class="cls-12" d="M445,981.14h-34.69c-2.5,0-4.52,2.02-4.52,4.52v19.12c0,2.5,2.02,4.52,4.52,4.52h34.69c2.5,0,4.52-2.02,4.52-4.52v-19.12c0-2.5-2.02-4.52-4.52-4.52ZM440.48,1000.27h-25.65v-10.08h25.65v10.08Z"/>
          <rect class="cls-18" x="368.4" y="997.71" width="118.51" height="89.24" rx="14" ry="14"/>
          <rect class="cls-21" x="368.4" y="997.71" width="118.51" height="76.31" rx="14" ry="14"/>
          <rect class="cls-42" x="368.4" y="1002.33" width="118.51" height="71.69" rx="14" ry="14"/>
          <path class="cls-18" d="M368.99,1032.15c0,.36,51.29,14.45,51.29,14.45v-4.97l-51.29-11.02v1.54Z"/>
          <path class="cls-18" d="M486.13,1032.15c0,.36-53.3,14.45-53.3,14.45v-4.97l53.3-11.02v1.54Z"/>
          <rect class="cls-12" x="368.4" y="997.71" width="118.51" height="89.24" rx="14" ry="14"/>
          <polyline class="cls-11" points="371.79 1031.25 424.01 1041.98 427.65 1041.98"/>
          <polyline class="cls-11" points="483.52 1031.25 431.33 1041.98 427.65 1041.98"/>
          <rect class="cls-23" x="421.07" y="1033.86" width="13.17" height="17.36" rx="3.55" ry="3.55"/>
          <rect class="cls-48" x="421.07" y="1037.24" width="13.17" height="13.97" rx="3.55" ry="3.55"/>
          <rect class="cls-21" x="421.07" y="1037.24" width="13.17" height="10.73" rx="3.55" ry="3.55"/>
          <rect class="cls-12" x="421.07" y="1033.86" width="13.17" height="17.36" rx="3.55" ry="3.55"/>
          <line class="cls-11" x1="423.78" y1="1041.63" x2="431.53" y2="1041.63"/>
          <g>
            <path class="cls-7" d="M371.17,1026.81c.11.02,1.18.23,2.94.57"/>
            <path class="cls-15" d="M379.97,1028.52c9.41,1.82,24.05,4.66,32.13,6.22"/>
            <path class="cls-7" d="M415,1035.3c1.85.36,2.94.57,2.94.57"/>
          </g>
          <line class="cls-14" x1="437.18" y1="1035.87" x2="482.82" y2="1026.81"/>
          <path class="cls-14" d="M374.36,1036.61v26.4c0,2.96,2.4,5.35,5.35,5.35h95.8c2.96,0,5.35-2.4,5.35-5.35v-27.15"/>
        </g>
      </g>
    </g>
    <g>
      <g>
        <path class="cls-36" d="M764.15,1022.5c-10.31,0-18.7-8.39-18.7-18.7v-241.6c0-10.31,8.39-18.7,18.7-18.7h161.6c3.28,0,6.51.86,9.33,2.49,5.78,3.33,9.37,9.54,9.37,16.21v241.6c0,10.31-8.39,18.7-18.7,18.7h-161.6Z"/>
        <path class="cls-41" d="M925.75,744c3.19,0,6.33.84,9.08,2.43,5.62,3.24,9.12,9.29,9.12,15.77v241.6c0,10.04-8.16,18.2-18.2,18.2h-161.6c-10.04,0-18.2-8.16-18.2-18.2v-241.6c0-10.04,8.16-18.2,18.2-18.2h161.6M925.75,743h-161.6c-10.6,0-19.2,8.6-19.2,19.2v241.6c0,10.6,8.6,19.2,19.2,19.2h161.6c10.6,0,19.2-8.6,19.2-19.2v-241.6c0-7.12-3.87-13.32-9.62-16.64-2.82-1.63-6.09-2.56-9.58-2.56h0Z"/>
      </g>
      <g class="cls-35">
        <rect class="cls-49" x="744.95" y="743" width="200" height="280"/>
        <path class="cls-33" d="M944.95,762.2v149.81l-200,46.64v-168.69l190.38-44.4c5.75,3.32,9.62,9.52,9.62,16.64Z"/>
        <path class="cls-33" d="M944.95,926.77v56.23l-171.56,40h-9.24c-10.6,0-19.2-8.6-19.2-19.2v-30.4l200-46.64Z"/>
      </g>
      <path class="cls-41" d="M925.75,743c10.6,0,19.2,8.6,19.2,19.2v241.6c0,10.6-8.6,19.2-19.2,19.2h-161.6c-10.6,0-19.2-8.6-19.2-19.2v-241.6c0-10.6,8.6-19.2,19.2-19.2h161.6M925.75,739h-161.6c-12.79,0-23.2,10.41-23.2,23.2v241.6c0,12.79,10.41,23.2,23.2,23.2h161.6c12.79,0,23.2-10.41,23.2-23.2v-241.6c0-12.79-10.41-23.2-23.2-23.2h0Z"/>
      <g>
        <g>
          <path class="cls-17" d="M903.47,880.45v21.28c0,5.88-4.76,10.64-10.64,10.64h-26.6v26.6c0,5.88-4.76,10.64-10.64,10.64h-21.28c-5.88,0-10.64-4.76-10.64-10.64v-26.6h-26.6c-5.88,0-10.64-4.76-10.64-10.64v-21.28c0-5.88,4.76-10.64,10.64-10.64h26.6v-26.6c0-5.88,4.76-10.64,10.64-10.64h21.28c5.88,0,10.64,4.76,10.64,10.64v26.6h26.6c5.88,0,10.64,4.76,10.64,10.64Z"/>
          <path class="cls-17" d="M903.47,880.45v21.28c0,5.88-4.76,10.64-10.64,10.64h-26.6v26.6c0,5.88-4.76,10.64-10.64,10.64h-10.64v-117.04h10.64c5.88,0,10.64,4.76,10.64,10.64v26.6h26.6c5.88,0,10.64,4.76,10.64,10.64Z"/>
          <path class="cls-17" d="M903.47,864.26v21.28c0,5.88-4.76,10.64-10.64,10.64h-26.6v26.6c0,5.88-4.76,10.64-10.64,10.64h-21.28c-5.88,0-10.64-4.76-10.64-10.64v-26.6h-26.6c-5.88,0-10.64-4.76-10.64-10.64v-21.28c0-5.88,4.76-10.64,10.64-10.64h26.6v-26.6c0-5.88,4.76-10.64,10.64-10.64h21.28c5.88,0,10.64,4.76,10.64,10.64v26.6h26.6c5.88,0,10.64,4.76,10.64,10.64Z"/>
          <path class="cls-17" d="M844.95,816.38v58.52h-58.52v-10.64c0-5.88,4.76-10.64,10.64-10.64h26.6v-26.6c0-5.88,4.76-10.64,10.64-10.64h10.64Z"/>
          <path class="cls-17" d="M903.47,874.9v10.64c0,5.88-4.76,10.64-10.64,10.64h-26.6v26.6c0,5.88-4.76,10.64-10.64,10.64h-10.64v-58.52h58.52Z"/>
        </g>
        <g>
          <path class="cls-19" d="M903.47,880.45v21.28c0,5.88-4.76,10.64-10.64,10.64h-26.6v26.6c0,5.88-4.76,10.64-10.64,10.64h-21.28c-5.88,0-10.64-4.76-10.64-10.64v-26.6h-26.6c-5.88,0-10.64-4.76-10.64-10.64v-21.28c0-5.88,4.76-10.64,10.64-10.64h26.6v-26.6c0-5.88,4.76-10.64,10.64-10.64h21.28c5.88,0,10.64,4.76,10.64,10.64v26.6h26.6c5.88,0,10.64,4.76,10.64,10.64Z"/>
          <path class="cls-43" d="M903.47,880.45v21.28c0,5.88-4.76,10.64-10.64,10.64h-26.6v26.6c0,5.88-4.76,10.64-10.64,10.64h-10.64v-117.04h10.64c5.88,0,10.64,4.76,10.64,10.64v26.6h26.6c5.88,0,10.64,4.76,10.64,10.64Z"/>
          <path class="cls-47" d="M903.47,864.26v21.28c0,5.88-4.76,10.64-10.64,10.64h-26.6v26.6c0,5.88-4.76,10.64-10.64,10.64h-21.28c-5.88,0-10.64-4.76-10.64-10.64v-26.6h-26.6c-5.88,0-10.64-4.76-10.64-10.64v-21.28c0-5.88,4.76-10.64,10.64-10.64h26.6v-26.6c0-5.88,4.76-10.64,10.64-10.64h21.28c5.88,0,10.64,4.76,10.64,10.64v26.6h26.6c5.88,0,10.64,4.76,10.64,10.64Z"/>
          <path class="cls-32" d="M844.95,816.38v58.52h-58.52v-10.64c0-5.88,4.76-10.64,10.64-10.64h26.6v-26.6c0-5.88,4.76-10.64,10.64-10.64h10.64Z"/>
          <path class="cls-49" d="M903.47,874.9v10.64c0,5.88-4.76,10.64-10.64,10.64h-26.6v26.6c0,5.88-4.76,10.64-10.64,10.64h-10.64v-58.52h58.52Z"/>
        </g>
      </g>
    </g>
    <g>
      <g>
        <path class="cls-36" d="M143.25,755.11c-10.31,0-18.7-8.39-18.7-18.7v-241.6c0-10.31,8.39-18.7,18.7-18.7h161.6c3.28,0,6.51.86,9.33,2.49,5.78,3.33,9.37,9.54,9.37,16.21v241.6c0,10.31-8.39,18.7-18.7,18.7h-161.6Z"/>
        <path class="cls-41" d="M304.85,476.61c3.19,0,6.33.84,9.08,2.43,5.62,3.24,9.12,9.29,9.12,15.77v241.6c0,10.04-8.16,18.2-18.2,18.2h-161.6c-10.04,0-18.2-8.16-18.2-18.2v-241.6c0-10.04,8.16-18.2,18.2-18.2h161.6M304.85,475.61h-161.6c-10.6,0-19.2,8.6-19.2,19.2v241.6c0,10.6,8.6,19.2,19.2,19.2h161.6c10.6,0,19.2-8.6,19.2-19.2v-241.6c0-7.12-3.87-13.32-9.62-16.64-2.82-1.63-6.09-2.56-9.58-2.56h0Z"/>
      </g>
      <path class="cls-41" d="M304.85,475.61c10.6,0,19.2,8.6,19.2,19.2v241.6c0,10.6-8.6,19.2-19.2,19.2h-161.6c-10.6,0-19.2-8.6-19.2-19.2v-241.6c0-10.6,8.6-19.2,19.2-19.2h161.6M304.85,471.61h-161.6c-12.79,0-23.2,10.41-23.2,23.2v241.6c0,12.79,10.41,23.2,23.2,23.2h161.6c12.79,0,23.2-10.41,23.2-23.2v-241.6c0-12.79-10.41-23.2-23.2-23.2h0Z"/>
      <g class="cls-46">
        <rect class="cls-34" x="124.05" y="475.61" width="200" height="280"/>
        <path class="cls-2" d="M324.05,494.81v149.81l-200,46.64v-168.69l190.38-44.4c5.75,3.32,9.62,9.52,9.62,16.64Z"/>
        <path class="cls-2" d="M324.05,659.38v56.23l-171.56,40h-9.24c-10.6,0-19.2-8.6-19.2-19.2v-30.4l200-46.64Z"/>
        <g>
          <path class="cls-34" d="M224.29,671.91s-65.49-31.94-64.33-75.76c.05-1.89.22-3.8.53-5.73.47-3.75,2.12-8.36,3.24-11,10.58-24.94,45.78-27.02,60.56-4.34,8.81-13.51,24.85-18.23,38.61-14.57,9.36,2.47,17.66,8.83,21.94,18.92,1.12,2.64,2.77,7.25,3.24,11,7.47,46.74-63.79,81.49-63.79,81.49Z"/>
          <path class="cls-45" d="M224.29,671.91s-65.49-31.94-64.33-75.76c1.9,9.99,8.02,19.01,15.65,25.85,8.66,7.77,19.21,13.1,29.71,18.1,7.08,3.37,14.61,6.72,22.43,6.15,7.42-.55,14.1-4.55,20.24-8.77,9.47-6.51,18.56-13.94,24.96-23.49,6.39-9.56,9.85-21.53,7.3-32.73-2.09-9.14-8.75-17.41-17.35-20.75,9.36,2.47,17.66,8.83,21.94,18.92,1.12,2.64,2.77,7.25,3.24,11,7.47,46.74-63.79,81.49-63.79,81.49Z"/>
          <path class="cls-52" d="M198.21,562.21c-14.36,7.87-24.56,22.91-26.55,39.17-1.99,16.26,4.26,33.31,16.3,44.43-16.18-9.85-27.11-27.85-28.36-46.75-.45-6.76.3-13.71,3.05-19.9,3.19-7.17,9.07-13.11,16.21-16.37,7.14-3.26,15.48-3.8,22.98-1.5"/>
          <path class="cls-6" d="M224.29,671.91s-71.26-34.75-63.79-81.49c.47-3.75,2.12-8.36,3.23-11,10.58-24.95,45.78-27.02,60.56-4.34,14.79-22.69,49.98-20.59,60.56,4.34,1.12,2.64,2.77,7.25,3.23,11,7.47,46.74-63.79,81.49-63.79,81.49Z"/>
          <path class="cls-52" d="M179.13,574.12c-4.28,3.59-7.07,8.9-7.59,14.46-.31,3.25.17,6.66,1.85,9.46,2.99,4.98,9.42,7.21,15.16,6.31,5.74-.91,10.77-4.47,14.65-8.79,2.7-3.01,4.98-6.52,5.95-10.45.96-3.93.48-8.34-1.9-11.61-6.22-8.54-21.32-5.06-28.12.63Z"/>
        </g>
      </g>
    </g>
    <g>
      <rect class="cls-36" x="516" y="250" width="48" height="1436.33"/>
      <rect class="cls-48" x="542.5" y="250" width="21.5" height="1436.33" transform="translate(1106.5 1936.33) rotate(180)"/>
      <rect class="cls-23" x="521.25" y="250" width="6.32" height="1436.33" transform="translate(1048.83 1936.33) rotate(180)"/>
      <path class="cls-41" d="M564,250v1436.33h-48V250h48M568,246h-56v1444.33h56V246h0Z"/>
      <path class="cls-48" d="M496.55,1364.39h86.9c16.05,0,29.09,13.03,29.09,29.09v292.85h-145.08v-292.85c0-16.05,13.03-29.09,29.09-29.09Z"/>
      <path class="cls-23" d="M488.03,1364.39h31.4c11.35,0,20.57,9.22,20.57,20.57v301.37h-72.54v-301.37c0-11.35,9.22-20.57,20.57-20.57Z"/>
      <path class="cls-36" d="M557.68,1686.33h-77.31v-300.71c0-11.73,9.51-21.23,21.23-21.23h34.84c11.73,0,21.23,9.51,21.23,21.23v300.71Z"/>
      <path class="cls-41" d="M583.45,1364.39c16.06,0,29.09,13.02,29.09,29.09v292.85h-145.08v-292.85c0-16.06,13.02-29.09,29.09-29.09h86.9M583.45,1360.39h-86.9c-18.24,0-33.09,14.84-33.09,33.09v296.85h153.08v-296.85c0-18.24-14.84-33.09-33.09-33.09h0Z"/>
      <path class="cls-48" d="M500.28,1409.72h0c5.76,0,10.43,4.67,10.43,10.43v263.97h-20.86v-263.97c0-5.76,4.67-10.43,10.43-10.43Z"/>
      <path class="cls-48" d="M540,1409.72h0c5.76,0,10.43,4.67,10.43,10.43v263.97h-20.86v-263.97c0-5.76,4.67-10.43,10.43-10.43Z"/>
      <path class="cls-37" d="M579.72,1409.72h0c5.76,0,10.43,4.67,10.43,10.43v263.97h-20.86v-263.97c0-5.76,4.67-10.43,10.43-10.43Z"/>
      <path class="cls-48" d="M437.96,1686.33h204.09c10.68,0,19.34,8.67,19.34,19.34v14.49h-242.77v-14.49c0-10.68,8.67-19.34,19.34-19.34Z"/>
      <path class="cls-23" d="M433.92,1686.33h121.41c8.45,0,15.31,6.86,15.31,15.31v18.53h-152.02v-18.53c0-8.45,6.86-15.31,15.31-15.31Z"/>
      <path class="cls-36" d="M570.63,1720.16h-142.56v-19.01c0-8.19,6.64-14.82,14.82-14.82h112.91c8.19,0,14.82,6.64,14.82,14.82v19.01Z"/>
      <path class="cls-41" d="M642.04,1686.33c10.68,0,19.34,8.66,19.34,19.34v14.49h-242.77v-14.49c0-10.68,8.66-19.34,19.34-19.34h204.09M642.04,1682.33h-204.09c-12.87,0-23.34,10.47-23.34,23.34v18.49h250.77v-18.49c0-12.87-10.47-23.34-23.34-23.34h0Z"/>
      <path class="cls-48" d="M403.37,1714.65h273.26c7.44,0,13.48,6.04,13.48,13.48v28.36h-300.21v-28.36c0-7.44,6.04-13.48,13.48-13.48Z"/>
      <path class="cls-23" d="M399.5,1714.65h133.39c5.3,0,9.61,4.31,9.61,9.61v32.23h-152.6v-32.23c0-5.3,4.31-9.61,9.61-9.61Z"/>
      <path class="cls-36" d="M570.5,1756.49h-166.45v-31.8c0-5.54,4.49-10.03,10.03-10.03h146.38c5.54,0,10.03,4.49,10.03,10.03v31.8Z"/>
      <path class="cls-41" d="M676.63,1714.65c7.44,0,13.48,6.03,13.48,13.48v28.36h-300.21v-28.36c0-7.44,6.03-13.48,13.48-13.48h273.26M676.63,1710.65h-273.26c-9.64,0-17.48,7.84-17.48,17.48v28.36c0,2.21,1.79,4,4,4h300.21c2.21,0,4-1.79,4-4v-28.36c0-9.64-7.84-17.48-17.48-17.48h0Z"/>
    </g>
    <g>
      <g>
        <path class="cls-36" d="M571.55,640.57c-10.31,0-18.7-8.39-18.7-18.7v-241.6c0-10.31,8.39-18.7,18.7-18.7h161.6c3.28,0,6.51.86,9.33,2.49,5.78,3.33,9.37,9.54,9.37,16.21v241.6c0,10.31-8.39,18.7-18.7,18.7h-161.6Z"/>
        <path class="cls-41" d="M733.15,362.07c3.19,0,6.33.84,9.08,2.43,5.62,3.24,9.12,9.29,9.12,15.77v241.6c0,10.04-8.16,18.2-18.2,18.2h-161.6c-10.04,0-18.2-8.16-18.2-18.2v-241.6c0-10.04,8.16-18.2,18.2-18.2h161.6M733.15,361.07h-161.6c-10.6,0-19.2,8.6-19.2,19.2v241.6c0,10.6,8.6,19.2,19.2,19.2h161.6c10.6,0,19.2-8.6,19.2-19.2v-241.6c0-7.12-3.87-13.32-9.62-16.64-2.82-1.63-6.09-2.56-9.58-2.56h0Z"/>
      </g>
      <path class="cls-41" d="M733.15,361.07c10.6,0,19.2,8.6,19.2,19.2v241.6c0,10.6-8.6,19.2-19.2,19.2h-161.6c-10.6,0-19.2-8.6-19.2-19.2v-241.6c0-10.6,8.6-19.2,19.2-19.2h161.6M733.15,357.07h-161.6c-12.79,0-23.2,10.41-23.2,23.2v241.6c0,12.79,10.41,23.2,23.2,23.2h161.6c12.79,0,23.2-10.41,23.2-23.2v-241.6c0-12.79-10.41-23.2-23.2-23.2h0Z"/>
      <g class="cls-39">
        <rect class="cls-30" x="552.35" y="361.07" width="200" height="280"/>
        <path class="cls-40" d="M752.35,380.27v149.81l-200,46.64v-168.69l190.38-44.4c5.75,3.32,9.62,9.52,9.62,16.64Z"/>
        <path class="cls-40" d="M752.35,544.83v56.23l-171.56,40h-9.24c-10.6,0-19.2-8.6-19.2-19.2v-30.4l200-46.64Z"/>
        <g>
          <path class="cls-30" d="M708.24,508.57c0,11.7-3.6,22.57-9.75,31.55-10.07,14.7-26.98,24.35-46.14,24.35-.8,0-1.58-.02-2.37-.05-29.77-1.24-53.52-25.77-53.52-55.84s25.02-55.89,55.89-55.89,55.89,25.02,55.89,55.89Z"/>
          <polygon class="cls-24" points="643.81 563.81 643.81 526.83 636.48 526.83 636.48 562.18 643.81 563.81"/>
          <path class="cls-24" d="M698.49,504.44v35.67c-2.1,3.07-4.5,5.92-7.16,8.51-5.75,5.6-12.71,9.98-20.46,12.69-5.79,2.04-12.03,3.14-18.52,3.14-.8,0-1.58-.02-2.37-.05v-59.97h48.51Z"/>
          <path class="cls-25" d="M691.32,520.9v27.72c-5.75,5.6-12.71,9.98-20.46,12.69v-40.41h20.46Z"/>
          <rect class="cls-30" x="596.47" y="493.56" width="111.77" height="13.82"/>
          <path class="cls-40" d="M708.24,493.56c0,2.74-.2,5.44-.58,8.07-3.91,27.04-27.18,47.82-55.31,47.82-14.43,0-27.59-5.47-37.5-14.45-3.22-2.91-6.1-6.2-8.57-9.78-.3-.43-.58-.87-.87-1.31-.72-1.11-1.4-2.24-2.04-3.4-.39-.71-.77-1.43-1.12-2.15-.46-.93-.9-1.87-1.3-2.83-2.76-6.45-4.35-13.52-4.48-20.95,0-.34-.01-.68-.01-1.01,0-6.02.95-11.81,2.72-17.24,7.26-22.43,28.32-38.65,53.18-38.65,11.04,0,21.34,3.2,30.01,8.74,5.22,3.33,9.87,7.51,13.71,12.34,4.44,5.57,7.83,12,9.9,19.01.29.99.56,2,.8,3.01.19.79.35,1.58.5,2.38.24,1.29.44,2.59.59,3.92.06.52.12,1.04.16,1.56.15,1.62.22,3.26.22,4.93Z"/>
          <path class="cls-26" d="M706.44,479.48c-2.11-5.17-4.94-9.97-8.37-14.27-4.03-5.05-8.88-9.42-14.34-12.9-9.06-5.79-19.83-9.14-31.38-9.14-24.45,0-45.39,15.01-54.1,36.32.28-1.07.58-2.12.92-3.16,7.26-22.43,28.32-38.65,53.18-38.65,11.04,0,21.34,3.2,30.01,8.74,5.22,3.33,9.87,7.51,13.71,12.34,4.44,5.57,7.83,12,9.9,19.01.17.57.33,1.14.47,1.71Z"/>
          <path class="cls-26" d="M705.97,477.77l-105.03,37.76c-2.76-6.45-4.35-13.52-4.48-20.95l99.61-35.82c4.44,5.57,7.83,12,9.9,19.01Z"/>
          <path class="cls-26" d="M708.02,488.63l-101.74,36.58c-.3-.43-.58-.87-.87-1.31-.72-1.11-1.4-2.24-2.04-3.4l103.9-37.35c.24,1.29.44,2.59.59,3.92.06.52.12,1.04.16,1.56Z"/>
          <path class="cls-24" d="M692.18,493.56c0,1.16-.05,2.32-.15,3.45-1.75,20.39-18.85,36.39-39.69,36.39s-37.94-16-39.69-36.39c-.1-1.13-.15-2.29-.15-3.45,0-22,17.84-39.84,39.84-39.84s39.84,17.84,39.84,39.84Z"/>
          <path class="cls-13" d="M708.24,493.56c0-30.87-25.02-55.89-55.89-55.89s-55.89,25.02-55.89,55.89c0,.38,0,.76.01,1.15v12.67h0c0,.4-.02.79-.02,1.19,0,30.87,25.02,55.89,55.89,55.89s55.89-25.02,55.89-55.89c0-.4,0-.8-.02-1.19h.02v-13.82Z"/>
          <path class="cls-16" d="M606.25,524.89c5.33,8.47,13.15,15.35,22.22,19.58,9.07,4.23,19.37,5.78,29.28,4.42"/>
          <path class="cls-16" d="M663.39,548.26c1.98-.58,3.95-1.17,5.93-1.75"/>
          <path class="cls-30" d="M692.03,497.01c-1.75,20.39-18.85,36.39-39.69,36.39s-37.94-16-39.69-36.39c1.75-20.39,18.85-36.38,39.69-36.38s37.94,16,39.69,36.38Z"/>
          <g>
            <path class="cls-24" d="M647.14,522.85c-.48-.48-.72-1.23-.72-2.27v-2.57h-6.81c-1.11,0-1.91-.24-2.39-.72-.48-.48-.72-1.23-.72-2.27v-34.57c0-1.03.24-1.8.72-2.3.48-.5,1.27-.75,2.39-.75h6.81v-2.63c0-1.03.24-1.8.72-2.3.48-.5,1.29-.75,2.45-.75h4.78c1.15,0,1.98.25,2.48.75.5.5.75,1.26.75,2.3v2.63c9,.2,13.5,4.08,13.5,11.64,0,1.83-.42,3.46-1.25,4.9-.84,1.43-1.97,2.45-3.4,3.05,3.82,1.23,5.73,4.12,5.73,8.66,0,3.86-1.26,6.86-3.79,8.99-2.53,2.13-6.12,3.25-10.78,3.37v2.57c0,1.11-.27,1.89-.81,2.33-.54.44-1.5.66-2.9.66h-4.3c-1.15,0-1.97-.24-2.45-.72ZM655.14,493.29c1.23,0,2.19-.31,2.87-.93.68-.62,1.02-1.52,1.02-2.72,0-1.27-.32-2.19-.96-2.75-.64-.56-1.61-.84-2.93-.84h-6.57v7.23h6.57ZM656.16,509.35c1.27,0,2.26-.37,2.96-1.1.7-.74,1.05-1.7,1.05-2.9,0-1.35-.38-2.37-1.13-3.05-.76-.68-1.79-1.02-3.11-1.02h-7.34v8.06h7.58Z"/>
            <rect class="cls-24" x="666.44" y="498.63" width="5.72" height="7.03"/>
            <rect class="cls-24" x="665.36" y="482.03" width="5.72" height="7.03"/>
            <g>
              <path class="cls-40" d="M671.63,495.96c-.66-2.03-1.95-3.51-3.88-4.45-.41-.2-.85-.38-1.32-.53,1.43-.6,2.56-1.61,3.4-3.05.84-1.43,1.25-3.06,1.25-4.9,0-6.74-3.57-10.55-10.71-11.44-.88-.12-1.8-.18-2.79-.2v-2.63c0-1.04-.25-1.8-.75-2.3-.49-.5-1.32-.75-2.47-.75h-4.78c-1.15,0-1.97.25-2.44.75-.48.49-.72,1.26-.72,2.3v2.63h-6.81c-1.11,0-1.91.25-2.39.75-.48.5-.72,1.26-.72,2.3v34.57c0,1.03.24,1.79.72,2.27s1.27.72,2.39.72h6.81v2.57c0,1.03.24,1.79.72,2.27.47.48,1.29.72,2.44.72h4.3c1.39,0,2.36-.22,2.9-.65.53-.44.81-1.21.81-2.33v-2.57c4.66-.12,8.25-1.24,10.78-3.37,2.09-1.76,3.31-4.11,3.67-7.05.08-.62.12-1.26.12-1.93,0-1.38-.18-2.6-.53-3.67ZM658.01,486.35c-.68.62-1.64.93-2.87.93h-6.57v-7.23h6.57c1.31,0,2.29.28,2.92.84.64.55.96,1.47.96,2.75,0,1.19-.34,2.1-1.01,2.72ZM660.1,500.11c-.12.85-.45,1.55-.99,2.13-.7.74-1.68,1.1-2.96,1.1h-7.58v-8.06h7.35c.39,0,.75.03,1.09.09.81.14,1.48.45,2.02.92.76.68,1.13,1.69,1.13,3.05,0,.27-.02.53-.06.77Z"/>
              <path class="cls-26" d="M660.38,471.59l-23.87,8.58v22.57l12.06-4.34v-3.12h7.35c.39,0,.75.03,1.09.09l10.74-3.86c-.41-.2-.85-.38-1.32-.53,1.43-.6,2.56-1.61,3.4-3.05.84-1.43,1.25-3.06,1.25-4.9,0-6.74-3.57-10.55-10.71-11.44ZM658.01,486.35c-.68.62-1.64.93-2.87.93h-6.57v-7.23h6.57c1.31,0,2.29.28,2.92.84.64.55.96,1.47.96,2.75,0,1.19-.34,2.1-1.01,2.72Z"/>
              <path class="cls-26" d="M672.16,499.64c0,.67-.04,1.32-.12,1.93l-28.99,10.42h-3.43c-1.11,0-1.91-.24-2.39-.72s-.72-1.23-.72-2.27v-.42l14.61-5.25,8.98-3.23,11.53-4.15c.35,1.07.53,2.3.53,3.67Z"/>
            </g>
          </g>
        </g>
      </g>
    </g>
    <g>
      <g>
        <path class="cls-36" d="M540,318.01c-49.35,0-89.5-40.15-89.5-89.5s40.15-89.5,89.5-89.5,89.5,40.15,89.5,89.5-40.15,89.5-89.5,89.5Z"/>
        <path class="cls-41" d="M540,141c48.33,0,87.5,39.18,87.5,87.5s-39.18,87.5-87.5,87.5-87.5-39.18-87.5-87.5,39.18-87.5,87.5-87.5M540,137c-50.46,0-91.5,41.05-91.5,91.5s41.05,91.5,91.5,91.5,91.5-41.05,91.5-91.5-41.05-91.5-91.5-91.5h0Z"/>
      </g>
      <g>
        <path class="cls-36" d="M540,296.12c-37.28,0-67.61-30.33-67.61-67.61s30.33-67.61,67.61-67.61,67.61,30.33,67.61,67.61-30.33,67.61-67.61,67.61Z"/>
        <path class="cls-48" d="M540,161.9c36.79,0,66.61,29.82,66.61,66.61s-29.82,66.61-66.61,66.61-66.61-29.82-66.61-66.61,29.82-66.61,66.61-66.61M540,159.9c-37.83,0-68.61,30.78-68.61,68.61s30.78,68.61,68.61,68.61,68.61-30.78,68.61-68.61-30.78-68.61-68.61-68.61h0Z"/>
      </g>
      <g>
        <g>
          <path class="cls-4" d="M556.6,244.82c-2.98,21.06-12.52,36.56-16.1,36.59-.16,0-.32-.02-.5-.06-4.54-1.03-13.27-16.01-16.31-36.25l16.3-16.59h0s16.6,16.32,16.6,16.32Z"/>
          <path class="cls-4" d="M556.6,244.82c-2.98,21.06-12.52,36.56-16.1,36.59-.16,0-.32-.02-.5-.06v-52.84l16.6,16.31Z"/>
          <path class="cls-4" d="M556.31,211.91l-16.16,16.45-.14.14-.15-.15-16.45-16.16h0c2.99-21.06,12.52-36.56,16.1-36.59.12,0,.24.01.36.03.1.01.19.03.29.06.5.15,1.06.45,1.65.92,4.76,3.75,11.85,17.49,14.51,35.3Z"/>
          <path class="cls-4" d="M556.31,211.91l-16.16,16.45-.14.14-.15-.15v-52.72c.1.01.19.03.29.06,4.58,1.32,13.17,16.2,16.16,36.22Z"/>
          <path class="cls-4" d="M540,228.5l-16.32,16.61c-21.05-2.99-36.56-12.52-36.59-16.1,0-.21.03-.42.09-.64,1.32-4.58,16.2-13.16,36.22-16.16l16.45,16.16.14.14Z"/>
          <path class="cls-4" d="M540,228.5l-16.32,16.61c-21.05-2.99-36.56-12.52-36.59-16.1,0-.21.03-.42.09-.64h52.67l.14.14Z"/>
          <path class="cls-4" d="M592.9,228.01c0,.16-.02.32-.06.5-1.03,4.55-16.02,13.28-36.25,16.31l-16.59-16.3h0s16.31-16.6,16.31-16.6c21.05,2.99,36.55,12.52,36.59,16.1Z"/>
          <path class="cls-4" d="M592.84,228.51c-1.03,4.55-16.02,13.28-36.25,16.31l-16.59-16.3h0s52.84,0,52.84,0Z"/>
          <circle class="cls-4" cx="540" cy="228.51" r="13.1"/>
          <circle class="cls-4" cx="538.78" cy="227.28" r="9.62"/>
          <circle class="cls-4" cx="540" cy="228.51" r="13.1"/>
          <line class="cls-4" x1="537.01" y1="224.38" x2="539.86" y2="224.38"/>
        </g>
        <g>
          <path class="cls-21" d="M556.6,244.82c-2.98,21.06-12.52,36.56-16.1,36.59-.16,0-.32-.02-.5-.06-4.54-1.03-13.27-16.01-16.31-36.25l16.3-16.59h0s16.6,16.32,16.6,16.32Z"/>
          <path class="cls-48" d="M556.6,244.82c-2.98,21.06-12.52,36.56-16.1,36.59-.16,0-.32-.02-.5-.06v-52.84l16.6,16.31Z"/>
          <path class="cls-21" d="M556.31,211.91l-16.16,16.45-.14.14-.15-.15-16.45-16.16h0c2.99-21.06,12.52-36.56,16.1-36.59.12,0,.24.01.36.03.1.01.19.03.29.06.5.15,1.06.45,1.65.92,4.76,3.75,11.85,17.49,14.51,35.3Z"/>
          <path class="cls-48" d="M556.31,211.91l-16.16,16.45-.14.14-.15-.15v-52.72c.1.01.19.03.29.06,4.58,1.32,13.17,16.2,16.16,36.22Z"/>
          <path class="cls-21" d="M540,228.5l-16.32,16.61c-21.05-2.99-36.56-12.52-36.59-16.1,0-.21.03-.42.09-.64,1.32-4.58,16.2-13.16,36.22-16.16l16.45,16.16.14.14Z"/>
          <path class="cls-48" d="M540,228.5l-16.32,16.61c-21.05-2.99-36.56-12.52-36.59-16.1,0-.21.03-.42.09-.64h52.67l.14.14Z"/>
          <path class="cls-21" d="M592.9,228.01c0,.16-.02.32-.06.5-1.03,4.55-16.02,13.28-36.25,16.31l-16.59-16.3h0s16.31-16.6,16.31-16.6c21.05,2.99,36.55,12.52,36.59,16.1Z"/>
          <path class="cls-48" d="M592.84,228.51c-1.03,4.55-16.02,13.28-36.25,16.31l-16.59-16.3h0s52.84,0,52.84,0Z"/>
          <circle class="cls-48" cx="540" cy="228.51" r="13.1"/>
          <circle class="cls-21" cx="538.78" cy="227.28" r="9.62"/>
          <circle class="cls-3" cx="540" cy="228.51" r="13.1"/>
        </g>
      </g>
    </g>
  </g>
  <g id="Logo">
    <rect class="cls-41" x="468.58" y="816.16" width="66.84" height="66.84"/>
    <rect class="cls-41" x="540" y="631.4" width="237.16" height="218.18"/>
    <g>
      <g>
        <rect class="cls-8" x="399.14" y="814.72" width="6.53" height="13.24"/>
        <path class="cls-8" d="M413.91,845.91c-4.58,7.16-3.02,18.51,4.76,21.92,5.74,2.52,12.51.04,17.54-3.7s9.11-8.69,14.37-12.09c6.3-4.07,14.16-5.67,21.55-4.37,8.15,1.43,20.65,7.8,26.74-1.35,3.97-5.96.89-16.53-4.92-20.33-12.15-7.96-36.75,4.56-49.5,6.27-11,1.48-24.01,3.44-30.54,13.65Z"/>
        <path class="cls-8" d="M404.73,820.42c-.7-2.51-1.82-4.56-3.36-6.15-2.86-2.97-6.72-4.46-11.58-4.46h-72.09v-168.17c0-6.37-1.83-11.28-5.51-14.74-3.67-3.45-9.4-5.18-17.17-5.18s-13.34,1.73-17.02,5.18c-3.67,3.46-5.51,8.37-5.51,14.74v183.88c0,2.52.27,4.81.82,6.89.84,3.29,2.34,6.04,4.53,8.26,3.57,3.62,8.64,5.42,15.23,5.42h96.72c4.97,0,8.85-1.48,11.66-4.46,2.81-2.97,4.21-7.53,4.21-13.69,0-2.86-.31-5.37-.93-7.53Z"/>
        <rect class="cls-8" x="624.4" y="727.06" width="6.53" height="8.24"/>
        <rect class="cls-8" x="637.36" y="632.7" width="6.53" height="6.53"/>
        <path class="cls-8" d="M628.65,656.88c4.76,0,8.48-1.48,11.19-4.46,2.69-2.96,4.05-7.37,4.05-13.2s-1.35-10.21-4.05-13.12c-2.71-2.92-6.43-4.37-11.19-4.37h-98.34c-6.59,0-11.66,1.81-15.23,5.42-3.56,3.63-5.34,8.67-5.34,15.15v183.88c0,2.48.28,4.76.84,6.8.87,3.2,2.43,5.84,4.67,7.94,3.67,3.45,9.34,5.18,17.02,5.18s13.23-1.73,17.01-5.18c3.78-3.45,5.67-8.37,5.67-14.74v-73.55h60.92c4.54,0,8.18-1.46,10.93-4.37,2.76-2.92,4.14-7.23,4.14-12.96,0-3.21-.43-5.98-1.31-8.33-.68-1.84-1.62-3.41-2.83-4.71-2.75-2.97-6.39-4.46-10.93-4.46h-60.92v-60.92h73.71Z"/>
        <path class="cls-8" d="M786.99,815.41c-2.75-2.97-6.46-4.46-11.1-4.46h-76.14v-61.56h64.33c4.53,0,8.18-1.46,10.93-4.37,2.75-2.92,4.13-7.18,4.13-12.81s-1.38-10.04-4.13-12.96c-.34-.36-.7-.7-1.06-1.01-2.61-2.24-5.9-3.36-9.87-3.36h-64.33v-56.86h75.34c4.75,0,8.5-1.48,11.26-4.46,2.75-2.97,4.14-7.37,4.14-13.2s-1.39-10.21-4.14-13.12-6.51-4.37-11.26-4.37h-99.96c-6.59,0-11.66,1.81-15.23,5.42-3.56,3.63-5.34,8.67-5.34,15.15v182.09c0,6.47,1.78,11.52,5.34,15.15,3.57,3.62,8.64,5.42,15.23,5.42h100.76c4.64,0,8.35-1.46,11.1-4.37s4.13-7.29,4.13-13.12-1.38-10.23-4.13-13.2Z"/>
        <rect class="cls-8" x="783.95" y="632.11" width="6.53" height="8.24"/>
        <rect class="cls-8" x="772.6" y="723.97" width="6.53" height="8.24"/>
        <rect class="cls-8" x="784.59" y="820.37" width="6.53" height="8.24"/>
        <path class="cls-8" d="M404.73,806.82c-.7-2.51-1.82-4.56-3.36-6.15-2.86-2.97-6.72-4.46-11.58-4.46h-72.09v-168.17c0-6.37-1.83-11.28-5.51-14.74-3.67-3.45-9.4-5.18-17.17-5.18s-13.34,1.73-17.02,5.18c-3.67,3.46-5.51,8.37-5.51,14.74v183.88c0,2.52.27,4.81.82,6.89.84,3.29,2.34,6.04,4.53,8.26,3.57,3.62,8.64,5.42,15.23,5.42h96.72c4.97,0,8.85-1.48,11.66-4.46,2.81-2.97,4.21-7.53,4.21-13.69,0-2.86-.31-5.37-.93-7.53Z"/>
        <path class="cls-8" d="M628.65,648.88c4.76,0,8.48-1.48,11.19-4.46,2.69-2.96,4.05-7.37,4.05-13.2s-1.35-10.21-4.05-13.12c-2.71-2.92-6.43-4.37-11.19-4.37h-98.34c-6.59,0-11.66,1.81-15.23,5.42-3.56,3.63-5.34,8.67-5.34,15.15v183.88c0,2.48.28,4.76.84,6.8.87,3.2,2.43,5.84,4.67,7.94,3.67,3.45,9.34,5.18,17.02,5.18s13.23-1.73,17.01-5.18c3.78-3.45,5.67-8.37,5.67-14.74v-73.55h60.92c4.54,0,8.18-1.46,10.93-4.37,2.76-2.92,4.14-7.23,4.14-12.96,0-3.21-.43-5.98-1.31-8.33-.68-1.84-1.62-3.41-2.83-4.71-2.75-2.97-6.39-4.46-10.93-4.46h-60.92v-60.92h73.71Z"/>
        <path class="cls-8" d="M786.99,806.28c-2.75-2.97-6.46-4.46-11.1-4.46h-76.14v-61.56h64.33c4.53,0,8.18-1.46,10.93-4.37,2.75-2.92,4.13-7.18,4.13-12.81s-1.38-10.04-4.13-12.96c-.34-.36-.7-.7-1.06-1.01-2.61-2.24-5.9-3.36-9.87-3.36h-64.33v-56.86h75.34c4.75,0,8.5-1.48,11.26-4.46,2.75-2.97,4.14-7.37,4.14-13.2s-1.39-10.21-4.14-13.12-6.51-4.37-11.26-4.37h-99.96c-6.59,0-11.66,1.81-15.23,5.42-3.56,3.63-5.34,8.67-5.34,15.15v182.09c0,6.47,1.78,11.52,5.34,15.15,3.57,3.62,8.64,5.42,15.23,5.42h100.76c4.64,0,8.35-1.46,11.1-4.37s4.13-7.29,4.13-13.12-1.38-10.23-4.13-13.2Z"/>
        <path class="cls-8" d="M488.59,727.04c0,12.11-.94,23.78-2.57,34.78-1.27,8.63-2.95,16.85-4.91,24.53-9.07,35.63-24.11,59.61-31.66,59.61-6.37,0-18.09-17.1-27.05-43.88-2.23-6.64-4.28-13.88-6.04-21.6-3.66-16.06-6.05-34.22-6.05-53.44,0-32.73,6.93-62.38,15.27-83.87,8.4-21.64,18.23-35.04,23.88-35.04,4.62,0,12.04,8.97,19.19,24.09,10.25,21.72,19.94,56.1,19.94,94.83Z"/>
        <path class="cls-8" d="M481.12,786.35c-9.07,35.63-24.11,59.61-31.66,59.61-6.37,0-18.09-17.1-27.05-43.88l58.7-15.73Z"/>
        <path class="cls-8" d="M488.59,727.04c0,12.11-.94,23.78-2.57,34.78l-69.66,18.66c-3.66-16.06-6.05-34.22-6.05-53.44,0-32.73,6.93-62.38,15.27-83.87,14.8-3.76,29.47-7.49,43.06-10.95,10.25,21.72,19.94,56.1,19.94,94.83Z"/>
        <path class="cls-8" d="M488.59,727.05c0,65.69-27.89,118.92-39.13,118.92v-237.84c11.24,0,39.13,53.22,39.13,118.91Z"/>
        <circle class="cls-8" cx="449.46" cy="723.51" r="25.07"/>
        <path class="cls-8" d="M449.46,751.05c-15.19,0-27.54-12.36-27.54-27.55s12.36-27.54,27.54-27.54,27.55,12.36,27.55,27.54-12.36,27.55-27.55,27.55ZM449.46,700.91c-12.46,0-22.6,10.14-22.6,22.6s10.14,22.6,22.6,22.6,22.6-10.14,22.6-22.6-10.14-22.6-22.6-22.6Z"/>
        <text class="cls-9" transform="translate(370.47 931.87)"><tspan x="0" y="0">IN CTRL</tspan></text>
        <path class="cls-8" d="M357.67,796.22l-84.35,22.6c-.55-2.09-.82-4.37-.82-6.89v-128.69l45.2-12.12v125.09h39.97Z"/>
        <path class="cls-8" d="M639.84,618.1c2.69,2.92,4.05,7.29,4.05,13.12s-1.35,10.24-4.05,13.2c-2.71,2.97-6.43,4.46-11.19,4.46h-73.71v60.92h60.92c4.54,0,8.18,1.48,10.93,4.46,1.21,1.31,2.16,2.87,2.83,4.71l-119.88,32.12v-116.79c0-6.49,1.78-11.52,5.34-15.15,3.57-3.62,8.64-5.42,15.23-5.42h98.34c4.76,0,8.48,1.46,11.19,4.37Z"/>
        <path class="cls-8" d="M790.47,631.23c0,5.83-1.39,10.23-4.14,13.2-2.75,2.97-6.51,4.46-11.26,4.46h-75.34v56.86h.13l-45.33,12.14v-83.58c0-6.49,1.78-11.52,5.34-15.15,3.57-3.62,8.64-5.42,15.23-5.42h99.96c4.75,0,8.5,1.46,11.26,4.37s4.14,7.29,4.14,13.12Z"/>
        <path class="cls-8" d="M404.73,806.82c.62,2.17.93,4.68.93,7.53,0,6.16-1.4,10.72-4.21,13.69-2.81,2.97-6.69,4.46-11.66,4.46h-80.92l95.86-25.68Z"/>
        <path class="cls-8" d="M509.74,774.3l45.2-12.12v50.91l-44.36,11.89c-.56-2.04-.84-4.32-.84-6.8v-43.88Z"/>
        <path class="cls-8" d="M779.12,723.08c0,5.62-1.38,9.89-4.13,12.81-2.75,2.92-6.4,4.37-10.93,4.37h-64.33v39.63l-45.2,12.11v-50.9l119.39-31.99c.36.31.72.65,1.06,1.01,2.75,2.92,4.13,7.24,4.13,12.96Z"/>
        <path class="cls-8" d="M535.33,614.96c.04-.06.09-.09.14-.09.08,0,.02.03-.14.09Z"/>
      </g>
      <g>
        <rect class="cls-45" x="399.14" y="814.72" width="6.53" height="13.24"/>
        <path class="cls-41" d="M413.91,845.91c-4.58,7.16-3.02,18.51,4.76,21.92,5.74,2.52,12.51.04,17.54-3.7s9.11-8.69,14.37-12.09c6.3-4.07,14.16-5.67,21.55-4.37,8.15,1.43,20.65,7.8,26.74-1.35,3.97-5.96.89-16.53-4.92-20.33-12.15-7.96-36.75,4.56-49.5,6.27-11,1.48-24.01,3.44-30.54,13.65Z"/>
        <path class="cls-45" d="M404.73,820.42c-.7-2.51-1.82-4.56-3.36-6.15-2.86-2.97-6.72-4.46-11.58-4.46h-72.09v-168.17c0-6.37-1.83-11.28-5.51-14.74-3.67-3.45-9.4-5.18-17.17-5.18s-13.34,1.73-17.02,5.18c-3.67,3.46-5.51,8.37-5.51,14.74v183.88c0,2.52.27,4.81.82,6.89.84,3.29,2.34,6.04,4.53,8.26,3.57,3.62,8.64,5.42,15.23,5.42h96.72c4.97,0,8.85-1.48,11.66-4.46,2.81-2.97,4.21-7.53,4.21-13.69,0-2.86-.31-5.37-.93-7.53Z"/>
        <rect class="cls-18" x="624.4" y="727.06" width="6.53" height="8.24"/>
        <rect class="cls-18" x="637.36" y="632.7" width="6.53" height="6.53"/>
        <path class="cls-18" d="M628.65,656.88c4.76,0,8.48-1.48,11.19-4.46,2.69-2.96,4.05-7.37,4.05-13.2s-1.35-10.21-4.05-13.12c-2.71-2.92-6.43-4.37-11.19-4.37h-98.34c-6.59,0-11.66,1.81-15.23,5.42-3.56,3.63-5.34,8.67-5.34,15.15v183.88c0,2.48.28,4.76.84,6.8.87,3.2,2.43,5.84,4.67,7.94,3.67,3.45,9.34,5.18,17.02,5.18s13.23-1.73,17.01-5.18c3.78-3.45,5.67-8.37,5.67-14.74v-73.55h60.92c4.54,0,8.18-1.46,10.93-4.37,2.76-2.92,4.14-7.23,4.14-12.96,0-3.21-.43-5.98-1.31-8.33-.68-1.84-1.62-3.41-2.83-4.71-2.75-2.97-6.39-4.46-10.93-4.46h-60.92v-60.92h73.71Z"/>
        <path class="cls-43" d="M786.99,815.41c-2.75-2.97-6.46-4.46-11.1-4.46h-76.14v-61.56h64.33c4.53,0,8.18-1.46,10.93-4.37,2.75-2.92,4.13-7.18,4.13-12.81s-1.38-10.04-4.13-12.96c-.34-.36-.7-.7-1.06-1.01-2.61-2.24-5.9-3.36-9.87-3.36h-64.33v-56.86h75.34c4.75,0,8.5-1.48,11.26-4.46,2.75-2.97,4.14-7.37,4.14-13.2s-1.39-10.21-4.14-13.12-6.51-4.37-11.26-4.37h-99.96c-6.59,0-11.66,1.81-15.23,5.42-3.56,3.63-5.34,8.67-5.34,15.15v182.09c0,6.47,1.78,11.52,5.34,15.15,3.57,3.62,8.64,5.42,15.23,5.42h100.76c4.64,0,8.35-1.46,11.1-4.37s4.13-7.29,4.13-13.12-1.38-10.23-4.13-13.2Z"/>
        <rect class="cls-43" x="783.95" y="632.11" width="6.53" height="8.24"/>
        <rect class="cls-43" x="772.6" y="723.97" width="6.53" height="8.24"/>
        <rect class="cls-43" x="784.59" y="820.37" width="6.53" height="8.24"/>
        <path class="cls-34" d="M404.73,806.82c-.7-2.51-1.82-4.56-3.36-6.15-2.86-2.97-6.72-4.46-11.58-4.46h-72.09v-168.17c0-6.37-1.83-11.28-5.51-14.74-3.67-3.45-9.4-5.18-17.17-5.18s-13.34,1.73-17.02,5.18c-3.67,3.46-5.51,8.37-5.51,14.74v183.88c0,2.52.27,4.81.82,6.89.84,3.29,2.34,6.04,4.53,8.26,3.57,3.62,8.64,5.42,15.23,5.42h96.72c4.97,0,8.85-1.48,11.66-4.46,2.81-2.97,4.21-7.53,4.21-13.69,0-2.86-.31-5.37-.93-7.53Z"/>
        <path class="cls-38" d="M628.65,648.88c4.76,0,8.48-1.48,11.19-4.46,2.69-2.96,4.05-7.37,4.05-13.2s-1.35-10.21-4.05-13.12c-2.71-2.92-6.43-4.37-11.19-4.37h-98.34c-6.59,0-11.66,1.81-15.23,5.42-3.56,3.63-5.34,8.67-5.34,15.15v183.88c0,2.48.28,4.76.84,6.8.87,3.2,2.43,5.84,4.67,7.94,3.67,3.45,9.34,5.18,17.02,5.18s13.23-1.73,17.01-5.18c3.78-3.45,5.67-8.37,5.67-14.74v-73.55h60.92c4.54,0,8.18-1.46,10.93-4.37,2.76-2.92,4.14-7.23,4.14-12.96,0-3.21-.43-5.98-1.31-8.33-.68-1.84-1.62-3.41-2.83-4.71-2.75-2.97-6.39-4.46-10.93-4.46h-60.92v-60.92h73.71Z"/>
        <path class="cls-49" d="M786.99,806.28c-2.75-2.97-6.46-4.46-11.1-4.46h-76.14v-61.56h64.33c4.53,0,8.18-1.46,10.93-4.37,2.75-2.92,4.13-7.18,4.13-12.81s-1.38-10.04-4.13-12.96c-.34-.36-.7-.7-1.06-1.01-2.61-2.24-5.9-3.36-9.87-3.36h-64.33v-56.86h75.34c4.75,0,8.5-1.48,11.26-4.46,2.75-2.97,4.14-7.37,4.14-13.2s-1.39-10.21-4.14-13.12-6.51-4.37-11.26-4.37h-99.96c-6.59,0-11.66,1.81-15.23,5.42-3.56,3.63-5.34,8.67-5.34,15.15v182.09c0,6.47,1.78,11.52,5.34,15.15,3.57,3.62,8.64,5.42,15.23,5.42h100.76c4.64,0,8.35-1.46,11.1-4.37s4.13-7.29,4.13-13.12-1.38-10.23-4.13-13.2Z"/>
        <path class="cls-40" d="M488.59,727.04c0,12.11-.94,23.78-2.57,34.78-1.27,8.63-2.95,16.85-4.91,24.53-9.07,35.63-24.11,59.61-31.66,59.61-6.37,0-18.09-17.1-27.05-43.88-2.23-6.64-4.28-13.88-6.04-21.6-3.66-16.06-6.05-34.22-6.05-53.44,0-32.73,6.93-62.38,15.27-83.87,8.4-21.64,18.23-35.04,23.88-35.04,4.62,0,12.04,8.97,19.19,24.09,10.25,21.72,19.94,56.1,19.94,94.83Z"/>
        <path class="cls-26" d="M481.12,786.35c-9.07,35.63-24.11,59.61-31.66,59.61-6.37,0-18.09-17.1-27.05-43.88l58.7-15.73Z"/>
        <path class="cls-26" d="M488.59,727.04c0,12.11-.94,23.78-2.57,34.78l-69.66,18.66c-3.66-16.06-6.05-34.22-6.05-53.44,0-32.73,6.93-62.38,15.27-83.87,14.8-3.76,29.47-7.49,43.06-10.95,10.25,21.72,19.94,56.1,19.94,94.83Z"/>
        <path class="cls-30" d="M488.59,727.05c0,65.69-27.89,118.92-39.13,118.92v-237.84c11.24,0,39.13,53.22,39.13,118.91Z"/>
        <circle class="cls-40" cx="449.46" cy="723.51" r="25.07"/>
        <path class="cls-30" d="M449.46,751.05c-15.19,0-27.54-12.36-27.54-27.55s12.36-27.54,27.54-27.54,27.55,12.36,27.55,27.54-12.36,27.55-27.55,27.55ZM449.46,700.91c-12.46,0-22.6,10.14-22.6,22.6s10.14,22.6,22.6,22.6,22.6-10.14,22.6-22.6-10.14-22.6-22.6-22.6Z"/>
        <text class="cls-20" transform="translate(370.47 931.87)"><tspan x="0" y="0">IN CTRL</tspan></text>
        <path class="cls-1" d="M357.67,796.22l-84.35,22.6c-.55-2.09-.82-4.37-.82-6.89v-128.69l45.2-12.12v125.09h39.97Z"/>
        <path class="cls-22" d="M639.84,618.1c2.69,2.92,4.05,7.29,4.05,13.12s-1.35,10.24-4.05,13.2c-2.71,2.97-6.43,4.46-11.19,4.46h-73.71v60.92h60.92c4.54,0,8.18,1.48,10.93,4.46,1.21,1.31,2.16,2.87,2.83,4.71l-119.88,32.12v-116.79c0-6.49,1.78-11.52,5.34-15.15,3.57-3.62,8.64-5.42,15.23-5.42h98.34c4.76,0,8.48,1.46,11.19,4.37Z"/>
        <path class="cls-33" d="M790.47,631.23c0,5.83-1.39,10.23-4.14,13.2-2.75,2.97-6.51,4.46-11.26,4.46h-75.34v56.86h.13l-45.33,12.14v-83.58c0-6.49,1.78-11.52,5.34-15.15,3.57-3.62,8.64-5.42,15.23-5.42h99.96c4.75,0,8.5,1.46,11.26,4.37s4.14,7.29,4.14,13.12Z"/>
        <path class="cls-1" d="M404.73,806.82c.62,2.17.93,4.68.93,7.53,0,6.16-1.4,10.72-4.21,13.69-2.81,2.97-6.69,4.46-11.66,4.46h-80.92l95.86-25.68Z"/>
        <path class="cls-22" d="M509.74,774.3l45.2-12.12v50.91l-44.36,11.89c-.56-2.04-.84-4.32-.84-6.8v-43.88Z"/>
        <path class="cls-33" d="M779.12,723.08c0,5.62-1.38,9.89-4.13,12.81-2.75,2.92-6.4,4.37-10.93,4.37h-64.33v39.63l-45.2,12.11v-50.9l119.39-31.99c.36.31.72.65,1.06,1.01,2.75,2.92,4.13,7.24,4.13,12.96Z"/>
        <path class="cls-23" d="M535.33,614.96c.04-.06.09-.09.14-.09.08,0,.02.03-.14.09Z"/>
      </g>
    </g>
  </g>
</svg>