<?xml version="1.0" encoding="UTF-8"?>
<svg id="BG" xmlns="http://www.w3.org/2000/svg" viewBox="0 0 500 700">
  <defs>
    <style>
      .cls-1 {
        fill: #f4f8f9;
      }

      .cls-2 {
        fill: #fff;
      }

      .cls-3 {
        fill: #333;
      }
    </style>
  </defs>
  <path class="cls-1" d="M500,48v604c0,26.51-21.49,48-48,48H48c-26.51,0-48-21.49-48-48V48C0,21.49,21.49,0,48,0h404c8.73,0,16.91,2.33,23.96,6.4,14.37,8.29,24.04,23.81,24.04,41.6Z"/>
  <path class="cls-2" d="M500,48v374.52L0,539.11V117.39L475.96,6.4c14.37,8.29,24.04,23.81,24.04,41.6Z"/>
  <path class="cls-2" d="M500,459.42v140.57l-428.9,100.01h-23.1c-26.51,0-48-21.49-48-48v-75.99l500-116.59Z"/>
  <path class="cls-3" d="M452,1c25.92,0,47,21.08,47,47v604c0,25.92-21.08,47-47,47H48c-25.92,0-47-21.08-47-47V48C1,22.08,22.08,1,48,1h404M452,0H48C21.49,0,0,21.49,0,48v604c0,26.51,21.49,48,48,48h404c26.51,0,48-21.49,48-48V48c0-26.51-21.49-48-48-48h0Z"/>
</svg>