<?xml version="1.0" encoding="UTF-8"?>
<svg xmlns="http://www.w3.org/2000/svg" version="1.1" xmlns:xlink="http://www.w3.org/1999/xlink" viewBox="0 0 988 265">
  <defs>
    <style>
      .cls-1 {
        fill: #fff;
      }

      .cls-2 {
        fill: none;
      }

      .cls-3, .cls-4 {
        fill: #666;
      }

      .cls-5 {
        fill: #333;
      }

      .cls-6 {
        clip-path: url(#clippath);
      }

      .cls-7 {
        opacity: .5;
      }

      .cls-4 {
        isolation: isolate;
        opacity: .2;
      }
    </style>
    <clipPath id="clippath">
      <rect class="cls-2" x="2" y="2" width="984" height="261"/>
    </clipPath>
  </defs>
  <!-- Generator: Adobe Illustrator 28.7.5, SVG Export Plug-In . SVG Version: 1.2.0 Build 176)  -->
  <g>
    <g id="Layer_1">
      <g id="Image">
        <g>
          <g class="cls-6">
            <g>
              <rect class="cls-5" x="2" y="2" width="984" height="261"/>
              <ellipse class="cls-4" cx="496.1" cy="132.5" rx="374.8" ry="98.1"/>
              <g class="cls-7">
                <g id="_x3C_Radial_Repeat_x3E_">
                  <rect class="cls-3" x="339" y="310.5" width="309.9" height="1" transform="translate(177.2 801.3) rotate(-89.3)"/>
                </g>
                <g id="_x3C_Radial_Repeat_x3E_-2">
                  <polygon class="cls-3" points="342.6 454.3 341.7 453.9 505 116.8 505.9 117.2 342.6 454.3"/>
                </g>
                <g id="_x3C_Radial_Repeat_x3E_-3">
                  <polygon class="cls-3" points="203 421 202.3 420.3 478 153 478.7 153.7 203 421"/>
                </g>
                <g id="_x3C_Radial_Repeat_x3E_-4">
                  <polygon class="cls-3" points="83.4 368.2 82.9 367.3 520.8 121.8 521.3 122.7 83.4 368.2"/>
                </g>
                <g id="_x3C_Radial_Repeat_x3E_-5">
                  <rect class="cls-3" x="-20.2" y="222" width="497.9" height="1" transform="translate(-57.2 80.9) rotate(-17.9)"/>
                </g>
                <g id="_x3C_Radial_Repeat_x3E_-6">
                  <rect class="cls-3" x="-68.4" y="174.7" width="602" height="1" transform="translate(-23.1 35.9) rotate(-8.4)"/>
                </g>
                <g id="_x3C_Radial_Repeat_x3E_-7">
                  <rect class="cls-3" x="223.1" y="-172.3" width="1" height="614.9" transform="translate(87.6 358.3) rotate(-89.8)"/>
                </g>
                <g id="_x3C_Radial_Repeat_x3E_-8">
                  <rect class="cls-3" x="232.9" y="-205" width="1" height="600.1" transform="translate(103.4 311) rotate(-81.1)"/>
                </g>
                <g id="_x3C_Radial_Repeat_x3E_-9">
                  <rect class="cls-3" x="230.4" y="-200" width="1" height="495.5" transform="translate(112.6 251.7) rotate(-71.6)"/>
                </g>
                <g id="_x3C_Radial_Repeat_x3E_-10">
                  <rect class="cls-3" x="304.3" y="-223.3" width="1" height="498.4" transform="translate(130.1 277) rotate(-60)"/>
                </g>
                <g id="_x3C_Radial_Repeat_x3E_-11">
                  <rect class="cls-3" x="343.7" y="-206.2" width="1" height="380.9" transform="translate(111.9 238.7) rotate(-45)"/>
                </g>
                <g id="_x3C_Radial_Repeat_x3E_-12">
                  <rect class="cls-3" x="426.9" y="-199.8" width="1" height="372.2" transform="translate(44.5 176.7) rotate(-24.6)"/>
                </g>
                <g id="_x3C_Radial_Repeat_x3E_-13">
                  <rect class="cls-3" x="323.2" y="-19.2" width="349.7" height="1" transform="translate(510.3 479.5) rotate(-89.3)"/>
                </g>
                <g id="_x3C_Radial_Repeat_x3E_-14">
                  <polygon class="cls-3" points="505.9 117.2 505 116.8 649.6 -181.9 650.5 -181.5 505.9 117.2"/>
                </g>
                <g id="_x3C_Radial_Repeat_x3E_-15">
                  <polygon class="cls-3" points="478.7 153.7 478 153 789.2 -148.6 789.9 -147.9 478.7 153.7"/>
                </g>
                <g id="_x3C_Radial_Repeat_x3E_-16">
                  <polygon class="cls-3" points="521.3 122.7 520.8 121.8 908.8 -95.8 909.3 -94.9 521.3 122.7"/>
                </g>
                <g id="_x3C_Radial_Repeat_x3E_-17">
                  <polygon class="cls-3" points="465.8 146.5 465.5 145.6 1000.2 -27.2 1000.5 -26.2 465.8 146.5"/>
                </g>
                <g id="_x3C_Radial_Repeat_x3E_-18">
                  <rect class="cls-3" x="527.1" y="91.7" width="533.1" height="1" transform="translate(-4.9 117.1) rotate(-8.4)"/>
                </g>
                <g id="_x3C_Radial_Repeat_x3E_-19">
                  <rect class="cls-3" x="803" y="-135.1" width="1" height="545" transform="translate(663 940.4) rotate(-89.8)"/>
                </g>
                <g id="_x3C_Radial_Repeat_x3E_-20">
                  <rect class="cls-3" x="792.1" y="-83.2" width="1" height="531.8" transform="translate(489.5 937.4) rotate(-81.1)"/>
                </g>
                <g id="_x3C_Radial_Repeat_x3E_-21">
                  <rect class="cls-3" x="730.7" y="-65" width="1" height="559.1" transform="translate(296.2 840.3) rotate(-71.6)"/>
                </g>
                <g id="_x3C_Radial_Repeat_x3E_-22">
                  <rect class="cls-3" x="711.5" y="39.8" width="1" height="441.7" transform="translate(130.6 747.3) rotate(-60)"/>
                </g>
                <g id="_x3C_Radial_Repeat_x3E_-23">
                  <polygon class="cls-3" points="782.2 423.3 478.5 119.2 479.2 118.6 782.9 422.6 782.2 423.3"/>
                </g>
                <g id="_x3C_Radial_Repeat_x3E_-24">
                  <rect class="cls-3" x="573.1" y="140.5" width="1" height="329.8" transform="translate(-75.1 266.7) rotate(-24.6)"/>
                </g>
              </g>
            </g>
          </g>
          <path class="cls-5" d="M986,265H2c-1.1,0-2-.9-2-2V2C0,.9.9,0,2,0h984c1.1,0,2,.9,2,2v261c0,1.1-.9,2-2,2ZM4,261h980V4H4v257h0Z"/>
        </g>
      </g>
      <g id="Text">
        <g>
          <g>
            <path class="cls-1" d="M353,127.2h8.4l5.3,16.3c2,0,3.6-.7,4.7-2,1.1-1.3,1.7-3.2,1.7-5.6,0-4-1.5-6.1-4.7-6.1s-2,.2-2.9.5v-6.3c.6-.2,1.4-.4,2.2-.5s1.7-.2,2.6-.2c3.9,0,6.7,1.1,8.6,3.3s2.8,5.3,2.8,9.4-.6,5.4-1.9,7.4-3,3.7-5.1,4.7c-2.1,1.1-4.5,1.6-7.1,1.6h-7.3l-7.2-22.5h0Z"/>
            <path class="cls-1" d="M365.8,116.4v-4.3h7.5v2.6c0,.4,0,.7.3.9.2.2.5.2.9.2h10.5v5.3h-14.3c-3.3,0-4.9-1.6-4.9-4.7h0Z"/>
            <path class="cls-1" d="M370.4,107c0-.3,0-.5-.2-.7-.1-.1-.3-.2-.7-.2h-2.1v-5.3h4.7c1.2,0,2.1.2,2.5.7s.7,1.1.7,2v1.2h8.1v4.8h-13.1v-2.6h0Z"/>
            <path class="cls-1" d="M391.5,149.1c-1.5-.9-2.6-2.1-3.4-3.6s-1.1-3.2-1.1-5.2v-16.3h8.5v15.8c0,1.4.4,2.4,1.1,3,.7.7,1.8,1,3.2,1s2.2-.2,3-.7c.8-.5,1.5-1.3,2.2-2.3v-16.8h8.5v25.7h-8v-2.6c-1.1,1.1-2.3,1.9-3.8,2.5s-3,.9-4.6.9-3.9-.4-5.4-1.3h0Z"/>
            <path class="cls-1" d="M420.8,134.7l-2.4-4.2c3.9-4.8,8.9-7.3,14.9-7.3s7.5.9,9.8,2.8,3.5,4.5,3.5,7.8v15.9h-8.5v-15.2c0-3.1-1.6-4.7-4.9-4.7s-4.3.7-5.9,2l1.8,3v14.9h-8.5v-15h0Z"/>
            <path class="cls-1" d="M426.4,119.7c-1.2-1-1.8-2.4-1.8-4.2s.6-3.9,1.9-5.1c1.3-1.1,3.1-1.7,5.3-1.7h12.5v4.3h-11.9c-1.6,0-2.4.6-2.4,1.9s.2,1.1.5,1.4c.3.3.8.5,1.4.5s1.2-.2,1.5-.6.5-.9.5-1.5h4.3c0,1.3.8,1.9,2.3,1.9h3v4.5h-2.9c-1.1,0-2.1-.2-3-.6s-1.4-.9-1.7-1.5c-.3.6-.9,1.1-1.9,1.6s-1.9.7-3.1.7c-2,0-3.6-.5-4.7-1.6h0Z"/>
            <path class="cls-1" d="M454.4,148.1c-1-1.1-1.5-2.6-1.5-4.4v-19.7h8.5v17.6c0,.7.1,1.2.4,1.5s.8.4,1.5.4h1.7v6.1h-6.2c-1.9,0-3.3-.5-4.3-1.6h0Z"/>
            <path class="cls-1" d="M471.5,148.2c-1.7-1.4-2.5-3.5-2.5-6.2s1-5,2.9-6.5c1.9-1.6,4.5-2.3,7.8-2.3s2.8.1,4.2.4c1.4.3,2.6.6,3.6,1.1v-.8c0-1.5-.5-2.6-1.6-3.3-1.1-.7-2.8-1.1-5.2-1.1s-3.1.2-4.7.5c-1.6.3-2.9.8-4.1,1.3v-6.2c1.1-.5,2.6-1,4.5-1.3,1.9-.3,3.9-.5,5.9-.5,4.7,0,8.2.9,10.4,2.8s3.3,4.5,3.3,7.8v15.8h-8.5v-9.2c-1.7-.9-3.5-1.3-5.7-1.3s-2.5.2-3.1.7c-.7.5-1,1.2-1,2.2,0,1.8,1.2,2.7,3.7,2.7s1.8-.2,2.5-.5v5.4c-1.3.4-3.2.7-5.6.7s-5.2-.7-6.8-2.1h0Z"/>
            <path class="cls-1" d="M472.9,115.8h8.5v-5.1h5.8v5.1h2.8v-5.1h5.8v10.3h-22.9v-5.3h0Z"/>
            <path class="cls-1" d="M506.6,149.7c-2.2-.4-4-1-5.4-1.7v-13.6h12.8v5.7h-4.6v3c.4.2,1,.4,1.7.5.7.1,1.4.2,2.2.2,2.2,0,3.9-.6,5.1-1.8,1.1-1.2,1.7-3,1.7-5.3s-.7-4.2-2-5.3c-1.3-1.1-3.6-1.6-6.8-1.6s-3.4.2-5.2.5c-1.8.3-3.2.8-4.4,1.4v-6.5c1.3-.6,3-1,5-1.4,2-.3,4.1-.5,6.2-.5,5.1,0,9,1.2,11.7,3.5,2.7,2.3,4.1,5.7,4.1,10s-.6,5.2-1.8,7.3-3,3.6-5.3,4.7c-2.3,1.1-5.1,1.7-8.4,1.7s-4.4-.2-6.6-.6h0Z"/>
            <path class="cls-1" d="M535.1,134.7l-2.4-4.2c3.9-4.8,8.9-7.3,14.9-7.3s7.5.9,9.8,2.8,3.5,4.5,3.5,7.8v15.9h-8.5v-15.2c0-3.1-1.6-4.7-4.8-4.7s-4.3.7-5.9,2l1.8,3v14.9h-8.5v-15h0Z"/>
            <path class="cls-1" d="M568.7,148.1c-1-1.1-1.5-2.6-1.5-4.4v-19.7h8.5v17.6c0,.7.1,1.2.4,1.5s.8.4,1.5.4h1.7v6.1h-6.2c-1.9,0-3.3-.5-4.3-1.6h0Z"/>
            <path class="cls-1" d="M585.8,148.2c-1.7-1.4-2.5-3.5-2.5-6.2s1-5,2.9-6.5c1.9-1.6,4.5-2.3,7.8-2.3s2.8.1,4.2.4c1.4.3,2.6.6,3.6,1.1v-.8c0-1.5-.5-2.6-1.6-3.3-1.1-.7-2.8-1.1-5.2-1.1s-3.1.2-4.7.5c-1.6.3-2.9.8-4.1,1.3v-6.2c1.1-.5,2.6-1,4.5-1.3,1.9-.3,3.9-.5,5.9-.5,4.7,0,8.2.9,10.4,2.8,2.2,1.9,3.3,4.5,3.3,7.8v15.8h-8.5v-9.2c-1.7-.9-3.5-1.3-5.7-1.3s-2.5.2-3.1.7c-.7.5-1,1.2-1,2.2,0,1.8,1.2,2.7,3.7,2.7s1.8-.2,2.5-.5v5.4c-1.3.4-3.2.7-5.6.7s-5.2-.7-6.8-2.1h0Z"/>
            <path class="cls-1" d="M619.2,148.2c-2.5-1.4-3.7-3.5-3.7-6.3s.3-2.3.9-3.2,1.4-1.7,2.5-2.2c-1-.5-1.7-1.3-2.3-2.3s-.9-2.1-.9-3.3c0-2.3.8-4.2,2.5-5.6s4.1-2.1,7.3-2.1,1.9,0,2.9.2c1,.1,1.7.3,2.3.5v6.2c-.5-.2-1-.4-1.6-.5-.6-.1-1.2-.2-1.7-.2-2,0-3,.7-3,2.2s1,2.3,3,2.3h3.3v5.3h-3.3c-2.1,0-3.2.8-3.2,2.4s1.7,2.8,5,2.8,3.4-.4,4.4-1.2c.9-.8,1.4-2,1.4-3.7v-15.6h8.5v15.5c0,1.8-.5,3.6-1.4,5.2s-2.5,3-4.6,4.1-4.8,1.6-8.2,1.6-7.5-.7-10-2.1h0Z"/>
            <path class="cls-1" d="M651.2,148.2c-1.7-1.4-2.5-3.5-2.5-6.2s1-5,2.9-6.5c1.9-1.6,4.5-2.3,7.8-2.3s2.8.1,4.2.4c1.4.3,2.6.6,3.6,1.1v-.8c0-1.5-.5-2.6-1.6-3.3-1.1-.7-2.8-1.1-5.2-1.1s-3.1.2-4.7.5c-1.6.3-2.9.8-4.1,1.3v-6.2c1.1-.5,2.6-1,4.5-1.3,1.9-.3,3.9-.5,5.9-.5s3.9.2,5.3.7l1.6-1.9h9.1l-4.7,5.3c.8.8,1.4,1.8,1.8,3,.4,1.2.6,2.5.6,3.9v15.4h-8.5v-9.2c-1.7-.9-3.5-1.3-5.7-1.3s-2.5.2-3.1.7c-.7.5-1,1.2-1,2.2,0,1.8,1.2,2.7,3.7,2.7s1.8-.2,2.5-.5v5.4c-1.3.4-3.2.7-5.6.7s-5.2-.7-6.8-2.1h0Z"/>
            <path class="cls-1" d="M653.3,115.8h22.9v5.3h-22.9v-5.3Z"/>
          </g>
          <g>
            <path class="cls-1" d="M353,127.2h8.4l5.3,16.3c2,0,3.6-.7,4.7-2,1.1-1.3,1.7-3.2,1.7-5.6,0-4-1.5-6.1-4.7-6.1s-2,.2-2.9.5v-6.3c.6-.2,1.4-.4,2.2-.5s1.7-.2,2.6-.2c3.9,0,6.7,1.1,8.6,3.3s2.8,5.3,2.8,9.4-.6,5.4-1.9,7.4-3,3.7-5.1,4.7c-2.1,1.1-4.5,1.6-7.1,1.6h-7.3l-7.2-22.5h0Z"/>
            <path class="cls-1" d="M365.8,116.4v-4.3h7.5v2.6c0,.4,0,.7.3.9.2.2.5.2.9.2h10.5v5.3h-14.3c-3.3,0-4.9-1.6-4.9-4.7h0Z"/>
            <path class="cls-1" d="M370.4,107c0-.3,0-.5-.2-.7-.1-.1-.3-.2-.7-.2h-2.1v-5.3h4.7c1.2,0,2.1.2,2.5.7s.7,1.1.7,2v1.2h8.1v4.8h-13.1v-2.6h0Z"/>
            <path class="cls-1" d="M391.5,149.1c-1.5-.9-2.6-2.1-3.4-3.6s-1.1-3.2-1.1-5.2v-16.3h8.5v15.8c0,1.4.4,2.4,1.1,3,.7.7,1.8,1,3.2,1s2.2-.2,3-.7c.8-.5,1.5-1.3,2.2-2.3v-16.8h8.5v25.7h-8v-2.6c-1.1,1.1-2.3,1.9-3.8,2.5s-3,.9-4.6.9-3.9-.4-5.4-1.3h0Z"/>
            <path class="cls-1" d="M420.8,134.7l-2.4-4.2c3.9-4.8,8.9-7.3,14.9-7.3s7.5.9,9.8,2.8,3.5,4.5,3.5,7.8v15.9h-8.5v-15.2c0-3.1-1.6-4.7-4.9-4.7s-4.3.7-5.9,2l1.8,3v14.9h-8.5v-15h0Z"/>
            <path class="cls-1" d="M426.4,119.7c-1.2-1-1.8-2.4-1.8-4.2s.6-3.9,1.9-5.1c1.3-1.1,3.1-1.7,5.3-1.7h12.5v4.3h-11.9c-1.6,0-2.4.6-2.4,1.9s.2,1.1.5,1.4c.3.3.8.5,1.4.5s1.2-.2,1.5-.6.5-.9.5-1.5h4.3c0,1.3.8,1.9,2.3,1.9h3v4.5h-2.9c-1.1,0-2.1-.2-3-.6s-1.4-.9-1.7-1.5c-.3.6-.9,1.1-1.9,1.6s-1.9.7-3.1.7c-2,0-3.6-.5-4.7-1.6h0Z"/>
            <path class="cls-1" d="M454.4,148.1c-1-1.1-1.5-2.6-1.5-4.4v-19.7h8.5v17.6c0,.7.1,1.2.4,1.5s.8.4,1.5.4h1.7v6.1h-6.2c-1.9,0-3.3-.5-4.3-1.6h0Z"/>
            <path class="cls-1" d="M471.5,148.2c-1.7-1.4-2.5-3.5-2.5-6.2s1-5,2.9-6.5c1.9-1.6,4.5-2.3,7.8-2.3s2.8.1,4.2.4c1.4.3,2.6.6,3.6,1.1v-.8c0-1.5-.5-2.6-1.6-3.3-1.1-.7-2.8-1.1-5.2-1.1s-3.1.2-4.7.5c-1.6.3-2.9.8-4.1,1.3v-6.2c1.1-.5,2.6-1,4.5-1.3,1.9-.3,3.9-.5,5.9-.5,4.7,0,8.2.9,10.4,2.8s3.3,4.5,3.3,7.8v15.8h-8.5v-9.2c-1.7-.9-3.5-1.3-5.7-1.3s-2.5.2-3.1.7c-.7.5-1,1.2-1,2.2,0,1.8,1.2,2.7,3.7,2.7s1.8-.2,2.5-.5v5.4c-1.3.4-3.2.7-5.6.7s-5.2-.7-6.8-2.1h0Z"/>
            <path class="cls-1" d="M472.9,115.8h8.5v-5.1h5.8v5.1h2.8v-5.1h5.8v10.3h-22.9v-5.3h0Z"/>
            <path class="cls-1" d="M506.6,149.7c-2.2-.4-4-1-5.4-1.7v-13.6h12.8v5.7h-4.6v3c.4.2,1,.4,1.7.5.7.1,1.4.2,2.2.2,2.2,0,3.9-.6,5.1-1.8,1.1-1.2,1.7-3,1.7-5.3s-.7-4.2-2-5.3c-1.3-1.1-3.6-1.6-6.8-1.6s-3.4.2-5.2.5c-1.8.3-3.2.8-4.4,1.4v-6.5c1.3-.6,3-1,5-1.4,2-.3,4.1-.5,6.2-.5,5.1,0,9,1.2,11.7,3.5,2.7,2.3,4.1,5.7,4.1,10s-.6,5.2-1.8,7.3-3,3.6-5.3,4.7c-2.3,1.1-5.1,1.7-8.4,1.7s-4.4-.2-6.6-.6h0Z"/>
            <path class="cls-1" d="M535.1,134.7l-2.4-4.2c3.9-4.8,8.9-7.3,14.9-7.3s7.5.9,9.8,2.8,3.5,4.5,3.5,7.8v15.9h-8.5v-15.2c0-3.1-1.6-4.7-4.8-4.7s-4.3.7-5.9,2l1.8,3v14.9h-8.5v-15h0Z"/>
            <path class="cls-1" d="M568.7,148.1c-1-1.1-1.5-2.6-1.5-4.4v-19.7h8.5v17.6c0,.7.1,1.2.4,1.5s.8.4,1.5.4h1.7v6.1h-6.2c-1.9,0-3.3-.5-4.3-1.6h0Z"/>
            <path class="cls-1" d="M585.8,148.2c-1.7-1.4-2.5-3.5-2.5-6.2s1-5,2.9-6.5c1.9-1.6,4.5-2.3,7.8-2.3s2.8.1,4.2.4c1.4.3,2.6.6,3.6,1.1v-.8c0-1.5-.5-2.6-1.6-3.3-1.1-.7-2.8-1.1-5.2-1.1s-3.1.2-4.7.5c-1.6.3-2.9.8-4.1,1.3v-6.2c1.1-.5,2.6-1,4.5-1.3,1.9-.3,3.9-.5,5.9-.5,4.7,0,8.2.9,10.4,2.8,2.2,1.9,3.3,4.5,3.3,7.8v15.8h-8.5v-9.2c-1.7-.9-3.5-1.3-5.7-1.3s-2.5.2-3.1.7c-.7.5-1,1.2-1,2.2,0,1.8,1.2,2.7,3.7,2.7s1.8-.2,2.5-.5v5.4c-1.3.4-3.2.7-5.6.7s-5.2-.7-6.8-2.1h0Z"/>
            <path class="cls-1" d="M619.2,148.2c-2.5-1.4-3.7-3.5-3.7-6.3s.3-2.3.9-3.2,1.4-1.7,2.5-2.2c-1-.5-1.7-1.3-2.3-2.3s-.9-2.1-.9-3.3c0-2.3.8-4.2,2.5-5.6s4.1-2.1,7.3-2.1,1.9,0,2.9.2c1,.1,1.7.3,2.3.5v6.2c-.5-.2-1-.4-1.6-.5-.6-.1-1.2-.2-1.7-.2-2,0-3,.7-3,2.2s1,2.3,3,2.3h3.3v5.3h-3.3c-2.1,0-3.2.8-3.2,2.4s1.7,2.8,5,2.8,3.4-.4,4.4-1.2c.9-.8,1.4-2,1.4-3.7v-15.6h8.5v15.5c0,1.8-.5,3.6-1.4,5.2s-2.5,3-4.6,4.1-4.8,1.6-8.2,1.6-7.5-.7-10-2.1h0Z"/>
            <path class="cls-1" d="M651.2,148.2c-1.7-1.4-2.5-3.5-2.5-6.2s1-5,2.9-6.5c1.9-1.6,4.5-2.3,7.8-2.3s2.8.1,4.2.4c1.4.3,2.6.6,3.6,1.1v-.8c0-1.5-.5-2.6-1.6-3.3-1.1-.7-2.8-1.1-5.2-1.1s-3.1.2-4.7.5c-1.6.3-2.9.8-4.1,1.3v-6.2c1.1-.5,2.6-1,4.5-1.3,1.9-.3,3.9-.5,5.9-.5s3.9.2,5.3.7l1.6-1.9h9.1l-4.7,5.3c.8.8,1.4,1.8,1.8,3,.4,1.2.6,2.5.6,3.9v15.4h-8.5v-9.2c-1.7-.9-3.5-1.3-5.7-1.3s-2.5.2-3.1.7c-.7.5-1,1.2-1,2.2,0,1.8,1.2,2.7,3.7,2.7s1.8-.2,2.5-.5v5.4c-1.3.4-3.2.7-5.6.7s-5.2-.7-6.8-2.1h0Z"/>
            <path class="cls-1" d="M653.3,115.8h22.9v5.3h-22.9v-5.3Z"/>
          </g>
        </g>
      </g>
    </g>
  </g>
</svg>