<?xml version="1.0" encoding="UTF-8"?>
<svg xmlns="http://www.w3.org/2000/svg" version="1.1" xmlns:xlink="http://www.w3.org/1999/xlink" viewBox="0 0 530 524">
  <defs>
    <style>
      .cls-1 {
        fill: #fff;
      }

      .cls-2 {
        fill: #fff8d9;
      }

      .cls-3 {
        opacity: .2;
      }

      .cls-4 {
        font-family: Prompt-Light, Prompt;
        font-size: 17px;
        font-weight: 300;
      }

      .cls-4, .cls-5, .cls-6, .cls-7 {
        isolation: isolate;
      }

      .cls-8 {
        fill: #f4b545;
      }

      .cls-9 {
        fill: none;
      }

      .cls-10 {
        opacity: .3;
      }

      .cls-5 {
        font-family: Prompt-Regular, Prompt;
        font-size: 36.7px;
      }

      .cls-7 {
        opacity: .2;
      }

      .cls-7, .cls-11 {
        fill: #ffe277;
      }

      .cls-12 {
        fill: #333;
      }

      .cls-13 {
        clip-path: url(#clippath);
      }

      .cls-14 {
        opacity: .5;
      }
    </style>
    <clipPath id="clippath">
      <polygon class="cls-9" points="528 2 528 522 2 522 2 94.8 528 2"/>
    </clipPath>
  </defs>
  <!-- Generator: Adobe Illustrator 28.7.5, SVG Export Plug-In . SVG Version: 1.2.0 Build 176)  -->
  <g>
    <g id="Layer_1">
      <g id="Image">
        <g>
          <polygon class="cls-2" points="528 2 528 522 2 522 2 94.8 208.6 58.3 528 2"/>
          <g class="cls-13">
            <g>
              <polygon class="cls-7" points="449.4 522 2 522 2 74.5 449.4 522"/>
              <polygon class="cls-7" points="528 2 528 244.5 321.9 38.3 528 2"/>
              <g class="cls-14">
                <g class="cls-6">
                  <text class="cls-5" transform="translate(87.1 292.2)"><tspan x="0" y="0">Payment Complete</tspan></text>
                </g>
              </g>
              <g class="cls-10">
                <g class="cls-6">
                  <text class="cls-4" transform="translate(146.1 356.4)"><tspan x="0" y="0">We wish to inform you that</tspan></text>
                  <text class="cls-4" transform="translate(117.5 376.8)"><tspan x="0" y="0">the payment has been successful.</tspan></text>
                  <text class="cls-4" transform="translate(94.5 417.5)"><tspan x="0" y="0">Transaction Date: </tspan></text>
                  <text class="cls-4" transform="translate(251.3 417.5)"><tspan x="0" y="0">22:30:07</tspan></text>
                  <text class="cls-4" transform="translate(324.8 417.5)"><tspan x="0" y="0" xml:space="preserve">  </tspan></text>
                  <text class="cls-4" transform="translate(338.4 417.5)"><tspan x="0" y="0">2025</tspan></text>
                  <text class="cls-4" transform="translate(382.2 417.5)"><tspan x="0" y="0">/</tspan></text>
                  <text class="cls-4" transform="translate(390.1 417.5)"><tspan x="0" y="0">04</tspan></text>
                  <text class="cls-4" transform="translate(413.5 417.5)"><tspan x="0" y="0">/</tspan></text>
                  <text class="cls-4" transform="translate(421.4 417.5)"><tspan x="0" y="0">13</tspan></text>
                  <text class="cls-4" transform="translate(78.3 437.9)"><tspan x="0" y="0">Transaction Number: </tspan></text>
                  <text class="cls-4" transform="translate(263.7 437.9)"><tspan x="0" y="0">091216141523</tspan></text>
                  <text class="cls-4" transform="translate(376.3 437.9)"><tspan x="0" y="0">JOI</tspan></text>
                  <text class="cls-4" transform="translate(402.4 437.9)"><tspan x="0" y="0">32543</tspan></text>
                  <text class="cls-4" transform="translate(116.5 458.2)"><tspan x="0" y="0">Paid From Account: xxx-x-xX</tspan></text>
                  <text class="cls-4" transform="translate(374 458.2)"><tspan x="0" y="0">112</tspan></text>
                  <text class="cls-4" transform="translate(397.8 458.2)"><tspan x="0" y="0">-x</tspan></text>
                </g>
              </g>
              <g>
                <ellipse class="cls-8" cx="266" cy="150.4" rx="75.1" ry="75.2"/>
                <ellipse class="cls-11" cx="266" cy="144.4" rx="75.1" ry="69.2"/>
                <path class="cls-2" d="M261.6,169.7c-1.4,1.4-5.4,5.3-10.7,5.3s-1.8-.1-2.8-.4c-3.9-1-6.3-3.8-7.5-5.4l-15.1-18.5c-2.5-3.1-2.1-7.7,1.1-10.2,1.4-1.1,3-1.6,4.6-1.6s4.2.9,5.7,2.7l14.5,17.8h0s44.3-43.5,44.3-43.5c1.4-1.4,3.3-2.1,5.1-2.1s3.8.7,5.2,2.2c2.8,2.8,2.8,7.4,0,10.2l-44.3,43.4h0Z"/>
              </g>
              <g>
                <path class="cls-1" d="M56.8,381.8v57.8c0,1.3,1.5,1.9,2.4,1.1l12.2-10.9c.8-.7,1.9-.4,2.3.5l12.3,29c.5,1.1,1.7,1.6,2.8,1.1l3.9-1.7c1-.5,1.5-1.7,1.1-2.7l-11.9-28.7c-.4-1,.3-2.1,1.4-2l16.6.5c1.3,0,2-1.5,1.1-2.5l-41.7-42.5c-.9-.9-2.5-.3-2.5,1h0Z"/>
                <path class="cls-12" d="M87.9,461.5c-.4,0-.8,0-1.1-.2-.8-.3-1.4-.9-1.7-1.7l-12.3-29c0-.2-.2-.2-.3-.3,0,0-.3,0-.4.1l-12.2,10.9c-.7.7-1.8.8-2.7.4s-1.5-1.3-1.5-2.2v-57.8c0-1,.6-1.9,1.5-2.3s2-.2,2.7.5l41.7,42.5c.7.7.9,1.8.5,2.7s-1.3,1.5-2.3,1.5l-16.6-.5c-.2,0-.3.1-.4.2,0,0-.1.2,0,.4l11.9,28.7c.7,1.6,0,3.3-1.6,4l-3.9,1.7c-.4.2-.8.3-1.3.3h0ZM72.4,428.4c.2,0,.4,0,.5,0,.8.2,1.4.7,1.7,1.4l12.3,29c.1.3.3.5.6.6.3.1.6.1.8,0l3.9-1.7c.6-.2.8-.9.6-1.4l-11.9-28.7c-.3-.8-.2-1.6.2-2.4.5-.7,1.3-1.1,2.1-1.1l16.6.5c.3,0,.4-.2.4-.3s0-.3,0-.5l-41.7-42.5c-.2-.2-.4-.1-.5-.1s-.3.1-.3.4v57.8c0,.3.2.4.3.4,0,0,.3.1.5,0l12.2-10.9c.5-.4,1-.6,1.6-.6h0Z"/>
              </g>
              <g class="cls-3">
                <path class="cls-8" d="M421.8,567.1c-.6,0-1.2,0-1.7-.2-7-1.6-16.4-13.2-25.1-31.2-9.8-20-17.3-45-21.2-70.2-59-8.6-102.3-35.3-102.4-46.1,0-.7.1-1.4.3-2.1,3.8-13,45-37.3,101.3-45.9,8.6-59.1,35.3-102.3,46.1-102.4.4,0,.7,0,1.1,0,.4,0,.7.1,1,.2,1.7.5,3.4,1.5,5.1,2.8,14.5,11.4,33.6,51.3,40.8,98.5,59,8.6,102.3,35.3,102.4,46,0,.7,0,1.2-.2,1.7-3,13.1-43.9,37.5-101.4,46.3-8.6,59.1-35.3,102.4-46.1,102.4h0ZM419,271.4c-8.5,0-35.2,40.5-43.8,101.2,0,.5-.5,1-1,1-54.9,8.3-96.7,32.1-100.2,44.3-.1.5-.2,1-.2,1.5,0,8.5,40.5,35.2,101.2,43.8.5,0,1,.5,1,1,3.8,25.4,11.3,50.4,21.1,70.4,8.2,16.7,17.4,28.5,23.5,29.8.4,0,.7.1,1.1.1,8.5,0,35.1-40.4,43.8-101,0-.1,0-.3,0-.4.1-.4.5-.8,1-.9,56.1-8.4,97.5-32.4,100.3-44.6,0-.4.1-.7.1-1.1,0-8.5-40.5-35.1-101.1-43.8-.6,0-1.1-.5-1.1-1-7.7-51.8-28.1-88.4-40.1-97.9-1.5-1.2-2.9-2-4.2-2.4-.2,0-.4,0-.6-.1-.3,0-.5,0-.8,0h0Z"/>
                <path class="cls-8" d="M420.4,455.9c-20.7,0-37.6-16.8-37.8-37.5-.2-20.9,16.6-38,37.5-38.2h.3c20.7,0,37.6,16.8,37.8,37.5.2,20.9-16.6,38-37.5,38.2h-.3ZM420.4,382.7h-.3c-19.5.2-35.2,16.2-35.1,35.7.2,19.4,16,35.1,35.4,35.1h.3c19.5-.2,35.2-16.2,35.1-35.7-.2-19.4-16-35.1-35.4-35.1h0Z"/>
                <rect class="cls-8" x="457" y="415.4" width="111.2" height="2.5"/>
                <rect class="cls-8" x="417.8" y="270.2" width="2.5" height="111.2"/>
                <rect class="cls-8" x="419.5" y="454.7" width="2.5" height="111.2"/>
                <rect class="cls-8" x="273.6" y="417.2" width="110.2" height="2.5"/>
                <rect class="cls-8" x="441.7" y="380.5" width="28.4" height="2.5" transform="translate(-136.4 434.1) rotate(-45)"/>
                <rect class="cls-8" x="370.6" y="453.1" width="28.6" height="2.5" transform="translate(-208.5 405.1) rotate(-45)"/>
                <rect class="cls-8" x="455.4" y="439.3" width="2.5" height="28.5" transform="translate(-187 455.7) rotate(-45)"/>
                <rect class="cls-8" x="382.8" y="368.3" width="2.5" height="28.5" transform="translate(-158 383.5) rotate(-45)"/>
              </g>
              <g class="cls-3">
                <path class="cls-8" d="M271.9,374c-.2,0-.5,0-.9-.1-3-.7-6.7-5.3-10.3-12.6-3.8-7.8-6.7-17.3-8.3-27.1-22.1-3.4-40-13.6-40.1-18.6,0-.3,0-.7.1-1,1.7-6.1,19-15.1,39.6-18.4,3.4-22.2,13.6-40,18.6-40.1.2,0,.3,0,.5,0,.2,0,.3,0,.5.1.8.2,1.5.6,2.3,1.2,5.7,4.5,13.2,20,16.1,38.4,22.1,3.4,40,13.6,40.1,18.6,0,.2,0,.5-.1.9-1.4,5.9-18.9,15.2-39.6,18.5-3.4,22.2-13.6,40.1-18.6,40.1h0ZM270.8,258.5c-2.7,0-13.1,15.7-16.4,38.9,0,.5-.5,1-1,1-22.8,3.4-37.4,12.9-38.5,16.8,0,.2,0,.3,0,.4,0,2.7,15.8,13.1,38.9,16.4.5,0,1,.5,1,1,1.5,9.8,4.4,19.5,8.2,27.3,3.5,7.2,6.9,10.9,8.7,11.3l.3,1.3v-1.2c2.7,0,13-15.7,16.3-38.8,0-.1,0-.2,0-.4.1-.4.5-.7,1-.8,22.3-3.3,37.6-12.8,38.5-16.9l1.3-.3h-1.2c0-2.7-15.7-13-38.8-16.3-.5,0-1-.5-1.1-1-3-20-10.8-34.1-15.4-37.7-.6-.5-1.1-.7-1.4-.8-.2,0-.2,0-.3,0h0Z"/>
                <path class="cls-8" d="M271.4,330.5c-8.5,0-15.4-6.9-15.5-15.4,0-4.1,1.5-8.1,4.4-11s6.8-4.6,10.9-4.6h.1c4.1,0,8,1.6,10.9,4.5,3,2.9,4.6,6.8,4.6,10.9h0c0,8.6-6.8,15.6-15.4,15.7h-.1,0ZM271.4,302h-.1c-3.5,0-6.8,1.4-9.2,3.9-2.5,2.5-3.8,5.8-3.8,9.3,0,7.2,5.9,13,13.1,13h.1c7.2,0,13-6,13-13.2,0-3.5-1.4-6.8-3.9-9.2-2.5-2.4-5.7-3.8-9.2-3.8h0Z"/>
                <rect class="cls-8" x="279.7" y="299.6" width="11.1" height="2.5" transform="translate(-129.2 289.7) rotate(-45)"/>
                <rect class="cls-8" x="251.9" y="328" width="11.2" height="2.5" transform="translate(-157.3 278.4) rotate(-45)"/>
                <rect class="cls-8" x="256" y="295.6" width="2.4" height="11.1" transform="translate(-137.6 270) rotate(-45)"/>
                <rect class="cls-8" x="284.3" y="323.4" width="2.5" height="11.1" transform="translate(-149 298.2) rotate(-45)"/>
              </g>
              <g class="cls-3">
                <path class="cls-8" d="M61.8,232c-.3,0-.8,0-1.4-.2-4.8-1.1-10.8-8.4-16.6-20.2-6.1-12.5-10.8-27.9-13.3-43.6-35.6-5.4-64.3-21.9-64.4-30,0-.5,0-1.1.2-1.7,2.8-9.8,30.5-24.3,63.7-29.6,5.4-35.6,21.8-64.4,30-64.5.3,0,.5,0,.8,0,.3,0,.5,0,.8.2,1.2.4,2.5,1,3.6,2,9.2,7.2,21.3,32.2,25.9,61.7,35.6,5.4,64.4,21.8,64.4,30,0,.4,0,.9-.2,1.4-2.2,9.5-30.3,24.5-63.8,29.8-5.4,35.6-21.8,64.4-30,64.5h0ZM60.1,46.3c-4.3,0-21,25.3-26.3,62.5-.1.9-.8,1.5-1.7,1.7-36.6,5.5-60.1,20.7-61.9,27,0,.3,0,.5,0,.6,0,4.3,25.3,21,62.5,26.3.9.1,1.5.8,1.7,1.7,2.4,15.8,7.1,31.4,13.2,43.9,5.7,11.6,11.1,17.4,14,18.1l.4,2v-2c4.3,0,21-25.2,26.3-62.3,0-.2,0-.4.1-.6.2-.7.8-1.2,1.6-1.3,35.8-5.4,60.5-20.6,62-27.1l2-.4h-2c0-4.3-25.3-21-62.4-26.3-.9,0-1.6-.8-1.8-1.7-4.8-32.2-17.3-54.9-24.7-60.7-1-.8-1.8-1.2-2.3-1.3-.3,0-.4,0-.5,0h0Z"/>
                <path class="cls-8" d="M61,162.2c-13.7,0-24.8-11.1-25-24.8,0-6.7,2.5-13,7.2-17.7,4.7-4.8,10.9-7.4,17.6-7.5h.2c6.6,0,12.8,2.5,17.5,7.2,4.8,4.7,7.4,10.9,7.5,17.6h0c.1,13.8-11,25.1-24.7,25.2h-.2ZM61,116.2h-.2c-5.6,0-10.9,2.3-14.8,6.3s-6.1,9.3-6,14.9c0,11.5,9.5,20.8,21,20.8h.2c11.6-.1,20.9-9.6,20.8-21.2,0-5.6-2.3-10.9-6.3-14.8-4-3.9-9.2-6-14.7-6h0Z"/>
                <rect class="cls-8" x="74.4" y="112.4" width="17.8" height="3.9" transform="translate(-56.5 92.4) rotate(-45)"/>
                <rect class="cls-8" x="29.7" y="158" width="18" height="3.9" transform="translate(-101.8 74.2) rotate(-45)"/>
                <rect class="cls-8" x="36.2" y="105.9" width="3.9" height="17.9" transform="translate(-70 60.6) rotate(-45)"/>
                <rect class="cls-8" x="81.8" y="150.6" width="3.9" height="17.9" transform="translate(-88.3 105.9) rotate(-45)"/>
              </g>
              <g class="cls-3">
                <path class="cls-8" d="M471.1,257c-.2,0-.4,0-.7,0-2.8-.6-5.7-5.9-6.8-8.2-2.4-4.9-4.2-10.9-5.2-17-13.5-2.1-25.4-8.5-25.5-12.2,0-.2,0-.5.1-.8,1.1-3.9,12-9.8,25.2-11.9,2.1-13.6,8.5-25.4,12.2-25.5.1,0,.3,0,.4,0,0,0,.3,0,.4,0,.6.2,1.1.5,1.6.9,3.6,2.8,8.4,12.3,10.3,24.3,13.5,2.1,25.4,8.5,25.5,12.2,0,.2,0,.5,0,.7-.9,3.9-11.8,9.9-25.2,12.1-2.1,13.6-8.5,25.5-12.2,25.5h0ZM470.5,183.8c-1.7.4-8,9.8-10,24.3,0,.5-.5,1-1,1-13.7,2.1-23.4,7.9-24.1,10.3.3,1.7,9.8,8,24.2,10,.5,0,1,.5,1,1,.9,6.2,2.8,12.3,5.1,17.2,2.3,4.7,4.4,6.7,5.2,6.9,1.6-.4,7.9-9.8,10-24.2,0,0,0-.2,0-.3.1-.5.5-.8,1-.9,14.6-2.2,23.6-8.3,24.1-10.4-.4-1.6-9.8-7.9-24.2-10-.5,0-1-.5-1.1-1-1.9-12.4-6.8-21.5-9.6-23.6-.4-.3-.6-.4-.7-.4h0Z"/>
                <path class="cls-8" d="M470.7,229.5c-5.6,0-10.2-4.6-10.3-10.2,0-2.8,1-5.3,3-7.3s4.5-3.1,7.2-3.1h0c5.6,0,10.2,4.6,10.3,10.2h0c0,2.8-1,5.3-3,7.3s-4.5,3.1-7.2,3.1h0ZM470.7,211.3h0c-2.1,0-4.1.9-5.5,2.4-1.5,1.5-2.3,3.5-2.2,5.6,0,4.3,3.6,7.9,7.9,7.8,2.1,0,4.1-.9,5.5-2.4,1.5-1.5,2.3-3.5,2.2-5.6h0c0-4.3-3.5-7.8-7.8-7.8Z"/>
              </g>
            </g>
          </g>
          <path class="cls-12" d="M528,524H2c-1.1,0-2-.9-2-2V94.8c0-1,.7-1.8,1.6-2L527.7,0c.6,0,1.2,0,1.6.4.5.4.7.9.7,1.5v520c0,1.1-.9,2-2,2h0ZM4,520h522V4.4L4,96.5v423.5Z"/>
        </g>
      </g>
      <g id="Text">
        <g>
          <path class="cls-12" d="M132.1,162c-1-1.1-1.5-2.6-1.5-4.4v-19.6h8.4v17.6c0,.7.1,1.2.4,1.5s.8.4,1.5.4h1.7v6.1h-6.2c-1.9,0-3.3-.5-4.3-1.6h0Z"/>
          <path class="cls-12" d="M149.2,162.2c-1.7-1.4-2.5-3.5-2.5-6.2s.9-4.9,2.9-6.5c1.9-1.6,4.5-2.3,7.8-2.3s2.8.1,4.2.4c1.4.3,2.6.6,3.6,1.1v-.8c0-1.5-.5-2.6-1.6-3.3-1.1-.7-2.8-1.1-5.2-1.1s-3.1.2-4.7.5c-1.6.3-2.9.8-4.1,1.3v-6.1c1.1-.5,2.6-1,4.5-1.3,1.9-.4,3.9-.5,5.9-.5,4.7,0,8.2.9,10.4,2.8s3.3,4.5,3.3,7.8v15.8h-8.4v-9.2c-1.7-.9-3.6-1.3-5.7-1.3s-2.5.2-3.1.7c-.7.5-1,1.2-1,2.2,0,1.8,1.2,2.7,3.7,2.7s1.8-.2,2.5-.5v5.4c-1.3.4-3.2.7-5.6.7s-5.2-.7-6.8-2.1h0Z"/>
          <path class="cls-12" d="M150.6,129.8h8.5v-5h5.8v5h2.8v-5h5.8v10.3h-22.9v-5.3h0Z"/>
          <path class="cls-12" d="M184.3,163.7c-2.2-.4-4-1-5.4-1.7v-13.5h12.8v5.7h-4.6v3c.4.2,1,.4,1.7.5.7.1,1.4.2,2.2.2,2.2,0,3.9-.6,5.1-1.8,1.1-1.2,1.7-3,1.7-5.3s-.7-4.2-2-5.3c-1.3-1.1-3.6-1.6-6.8-1.6s-3.4.2-5.2.5c-1.8.3-3.2.8-4.4,1.3v-6.5c1.3-.6,3-1,5-1.4,2.1-.3,4.1-.5,6.2-.5,5.1,0,9,1.2,11.7,3.5,2.7,2.3,4.1,5.6,4.1,9.9s-.6,5.2-1.8,7.3-3,3.6-5.3,4.7c-2.3,1.1-5.1,1.7-8.4,1.7s-4.4-.2-6.6-.6h0Z"/>
          <path class="cls-12" d="M212.8,148.6l-2.4-4.2c3.9-4.8,8.9-7.2,14.9-7.2s7.5.9,9.8,2.8,3.5,4.5,3.5,7.8v15.8h-8.4v-15.2c0-3.1-1.6-4.7-4.9-4.7s-4.3.7-5.9,2l1.8,3v14.8h-8.4v-15h0Z"/>
          <path class="cls-12" d="M249.3,163.7c-2.2-.4-4-1-5.4-1.7v-13.5h12.8v5.7h-4.6v3c.4.2,1,.4,1.7.5.7.1,1.4.2,2.2.2,2.2,0,3.9-.6,5.1-1.8,1.1-1.2,1.7-3,1.7-5.3s-.7-4.2-2-5.3c-1.3-1.1-3.6-1.6-6.8-1.6s-3.4.2-5.2.5c-1.8.3-3.2.8-4.4,1.3v-6.5c1.3-.6,3-1,5-1.4,2.1-.3,4.1-.5,6.2-.5,5.1,0,9,1.2,11.7,3.5,2.7,2.3,4.1,5.6,4.1,9.9s-.6,5.2-1.8,7.3-3,3.6-5.3,4.7c-2.3,1.1-5.1,1.7-8.4,1.7s-4.4-.2-6.6-.6h0Z"/>
          <path class="cls-12" d="M247.4,129.8h15.3v-5h7.6v10.3h-22.9v-5.3Z"/>
          <path class="cls-12" d="M277.8,148.6l-2.4-4.2c3.9-4.8,8.9-7.2,14.9-7.2s7.5.9,9.8,2.8,3.5,4.5,3.5,7.8v15.8h-8.5v-15.2c0-3.1-1.6-4.7-4.9-4.7s-4.3.7-5.9,2l1.8,3v14.8h-8.5v-15h0Z"/>
          <path class="cls-12" d="M311.4,162c-1-1.1-1.5-2.6-1.5-4.4v-19.6h8.5v17.6c0,.7.1,1.2.4,1.5s.8.4,1.5.4h1.7v6.1h-6.2c-1.9,0-3.3-.5-4.3-1.6h0ZM325.4,162c-1-1.1-1.5-2.6-1.5-4.4v-19.6h8.5v17.6c0,.7.1,1.2.4,1.5s.8.4,1.5.4h1.7v6.1h-6.2c-1.9,0-3.3-.5-4.3-1.6h0Z"/>
          <path class="cls-12" d="M347.4,162.9c-2-.9-3.6-2.3-4.8-4-1.1-1.7-1.7-3.6-1.7-5.8v-15.3h8.5v14.6c0,1.7.4,3,1.2,3.9.8.9,2.1,1.3,3.9,1.3,3.4,0,5.1-1.8,5.1-5.3v-14.6h8.5v15.3c0,2.1-.6,4.1-1.7,5.8-1.1,1.7-2.7,3-4.8,4s-4.4,1.4-7.1,1.4-5.1-.5-7.1-1.4h0Z"/>
          <path class="cls-12" d="M380.8,162.9c-2-.9-3.6-2.3-4.8-4-1.1-1.7-1.7-3.6-1.7-5.8v-15.3h8.5v14.6c0,1.7.4,3,1.2,3.9.8.9,2.1,1.3,3.9,1.3,3.4,0,5.1-1.8,5.1-5.3v-14.6h8.5v15.3c0,2.1-.6,4.1-1.7,5.8-1.1,1.7-2.7,3-4.8,4s-4.4,1.4-7.1,1.4-5.1-.5-7.1-1.4h0Z"/>
        </g>
      </g>
    </g>
  </g>
</svg>