<?xml version="1.0" encoding="UTF-8"?>
<svg xmlns="http://www.w3.org/2000/svg" xmlns:xlink="http://www.w3.org/1999/xlink" viewBox="0 0 442 605">
  <defs>
    <style>
      .cls-1 {
        fill: #ffa9c2;
      }

      .cls-2 {
        fill: #4d4d4d;
      }

      .cls-3 {
        fill: #fff;
      }

      .cls-4 {
        fill: #dfedf2;
      }

      .cls-5 {
        fill: #d87625;
      }

      .cls-6 {
        fill: none;
      }

      .cls-7 {
        fill: #f47aa0;
      }

      .cls-8 {
        fill: #aa5217;
      }

      .cls-9 {
        fill: #efabcd;
      }

      .cls-10 {
        fill: #666;
      }

      .cls-11 {
        fill: #fccadd;
      }

      .cls-12 {
        fill: #333;
      }

      .cls-13 {
        fill: #6d3108;
      }

      .cls-14 {
        clip-path: url(#clippath);
      }

      .cls-15 {
        fill: #ffd2e1;
      }
    </style>
    <clipPath id="clippath">
      <polygon class="cls-6" points="440 2 440 603 2 603 2 79.27 440 2"/>
    </clipPath>
  </defs>
  <g id="Image">
    <g>
      <polygon class="cls-11" points="440 2 440 603 2 603 2 79.27 440 2"/>
      <g>
        <polygon class="cls-9" points="438.61 399.48 364.07 399.48 364.07 116.15 438.61 183.67 438.61 399.48"/>
        <rect class="cls-9" x="2" y="432.68" width="438.87" height="52.82"/>
        <polygon class="cls-9" points="353.74 192.67 289.15 136.19 289.15 388.7 353.74 388.7 353.74 192.67"/>
      </g>
      <g class="cls-14">
        <rect class="cls-8" x="-19.92" y="379.22" width="489.48" height="67.19"/>
        <rect class="cls-5" x="-19.92" y="379.22" width="489.48" height="35.66"/>
        <path class="cls-13" d="M471.56,448.41H-21.92v-71.19h493.48v71.19ZM-17.92,444.41h485.48v-63.19H-17.92v63.19Z"/>
        <g>
          <path class="cls-12" d="M293.16,138.08v253.2c0,2.21-1.8,4-4,4H-104.6c-2.2,0-4-1.79-4-4v-253.2c0-2.21,1.8-4,4-4h393.76c2.2,0,4,1.79,4,4Z"/>
          <g>
            <rect class="cls-10" x="-104.6" y="138.08" width="393.75" height="253.2"/>
            <rect class="cls-2" x="-104.6" y="382.09" width="393.75" height="9.18"/>
            <rect class="cls-4" x="-83.45" y="159.25" width="351.46" height="210.84"/>
            <rect class="cls-3" x="-76.12" y="165.09" width="344.13" height="205.01"/>
            <rect class="cls-7" x="-56.71" y="184.73" width="297.97" height="159.9"/>
            <g>
              <path class="cls-1" d="M130.64,229.12c0-16.54-13.4-29.95-29.94-29.95s-29.94,13.41-29.94,29.95c0,10.38,5.29,19.53,13.31,24.9-8.02,19.55-13.31,52.83-13.31,90.61h59.88c0-37.78-5.29-71.06-13.31-90.61,8.02-5.37,13.31-14.52,13.31-24.9Z"/>
              <path class="cls-1" d="M48.02,231.64c0-16.18-13.11-29.3-29.29-29.3s-29.29,13.12-29.29,29.3c0,10.16,5.17,19.1,13.02,24.36-7.85,19.12-13.02,51.67-13.02,88.63h58.57c0-36.95-5.17-69.51-13.02-88.63,7.85-5.26,13.02-14.2,13.02-24.36Z"/>
              <path class="cls-15" d="M78.67,242.69c0-14.6-11.83-26.43-26.42-26.43s-26.42,11.83-26.42,26.43c0,9.16,4.67,17.24,11.75,21.98-7.08,17.25-11.75,46.62-11.75,79.96h52.85c0-33.34-4.66-62.71-11.75-79.96,7.08-4.74,11.75-12.81,11.75-21.98Z"/>
              <path class="cls-1" d="M195.11,242.69c0-14.6-11.83-26.43-26.42-26.43s-26.42,11.83-26.42,26.43c0,9.16,4.67,17.24,11.75,21.98-7.08,17.25-11.75,46.62-11.75,79.96h52.85c0-33.34-4.66-62.71-11.75-79.96,7.08-4.74,11.75-12.81,11.75-21.98Z"/>
              <path class="cls-15" d="M161.34,256.71c0-14.6-11.83-26.43-26.42-26.43s-26.42,11.83-26.42,26.43c0,9.16,4.67,17.24,11.75,21.98-7.08,17.25-11.75,32.59-11.75,65.94h52.85c0-33.34-4.66-48.69-11.75-65.94,7.08-4.74,11.75-12.81,11.75-21.98Z"/>
              <path class="cls-3" d="M95.38,280.15c0-9.23-7.48-16.72-16.71-16.72s-16.71,7.49-16.71,16.72c0,5.8,2.95,10.9,7.43,13.9-4.48,10.91-7.43,29.49-7.43,50.58h33.43c0-21.09-2.95-39.67-7.43-50.58,4.48-3,7.43-8.1,7.43-13.9Z"/>
              <path class="cls-3" d="M134.12,288.61c0-9.23-7.48-16.72-16.71-16.72s-16.71,7.49-16.71,16.72c0,5.8,2.95,10.9,7.43,13.9-4.48,10.91-7.43,21.02-7.43,42.11h33.43c0-21.09-2.95-31.2-7.43-42.11,4.48-3,7.43-8.1,7.43-13.9Z"/>
            </g>
            <path class="cls-12" d="M268.01,371.1H-83.45c-.55,0-1-.45-1-1v-210.84c0-.55.45-1,1-1h351.46c.55,0,1,.45,1,1v210.84c0,.55-.45,1-1,1ZM-82.45,369.1h349.46v-208.84H-82.45v208.84Z"/>
          </g>
        </g>
        <g>
          <path class="cls-12" d="M413.65,251.79v.46c0,3.24-2.33,5.94-5.4,6.52l-10.74,86.93-.04.33c1.76,1.38,3.18,3.41,4.07,5.97.21.58.4,1.26.55,1.95.16.72.27,1.51.34,2.33l2.36,29.56c.22,2.76-.64,5.48-2.29,7.27-1.29,1.39-2.97,2.16-4.75,2.16h-72.75c-1.76,0-3.43-.75-4.71-2.12-1.64-1.76-2.52-4.43-2.34-7.15l1.97-29.48c.05-.83.16-1.67.35-2.55.16-.73.34-1.38.56-1.99.94-2.72,2.5-4.86,4.42-6.23l-.19-1.58-10.55-85.4c-3.07-.58-5.4-3.28-5.4-6.52v-.46c0-2.67,1.33-5.03,3.36-6.46v-.94c0-1.08.05-2.15.16-3.16.03-.4.08-.82.14-1.25.34-2.54.98-5.03,1.89-7.41.16-.41.34-.86.53-1.29,3.9-8.98,11.5-15.59,20.56-18.36.79-4.67,3.41-8.6,7.07-11.12.02-.52.07-1.03.16-1.52.76-4.49,4-8.02,8.19-9.31,1.11-7.86,3.79-29.18,4.26-54.94-1.52-2.31-2.43-5.59-2.43-9.41,0-5.67,4.06-12.99,8.37-12.99,3.98,0,8.36,6.8,8.36,12.99,0,3.8-.9,7.08-2.42,9.4.47,25.66,3.14,47.06,4.25,54.96,4.17,1.27,7.4,4.78,8.19,9.27,0,.01,0,.02.01.03v.02h0c.08.48.13.98.15,1.5,3.66,2.51,6.29,6.44,7.07,11.12,9.06,2.77,16.67,9.39,20.57,18.38.18.41.36.86.53,1.3.91,2.35,1.54,4.84,1.88,7.37.06.44.11.86.15,1.28.1.99.15,2.06.15,3.14v.94c2.03,1.43,3.37,3.79,3.37,6.46Z"/>
          <g>
            <path class="cls-3" d="M368.06,194.58h-13.37s.1-.61.27-1.77c1.01-6.93,4.56-33.43,4.56-64.62h3.73c0,31.19,3.54,57.68,4.55,64.62.17,1.16.27,1.77.27,1.77Z"/>
            <path class="cls-4" d="M368.06,194.58h-13.37s.1-.61.27-1.77h12.84c.17,1.16.27,1.77.27,1.77Z"/>
            <path class="cls-3" d="M375.95,202.31v8.96h-29.14v-8.97c0-.45.04-.89.11-1.32.63-3.71,3.85-6.53,7.74-6.53h13.42c3.89,0,7.12,2.83,7.75,6.53.08.43.11.88.11,1.33Z"/>
            <path class="cls-4" d="M375.95,202.31v8.96h-29.14v-8.97c0-.45.04-.89.11-1.32h28.91c.08.43.11.88.11,1.33Z"/>
            <path class="cls-3" d="M383.24,215.72v12.38h-43.72v-12.38c0-.67.05-1.33.15-1.97.95-6.17,6.28-10.9,12.72-10.9h17.98c6.44,0,11.77,4.72,12.72,10.9.1.64.15,1.3.15,1.97Z"/>
            <path class="cls-4" d="M383.24,215.72v5.21h-43.72v-5.21c0-.67.05-1.33.15-1.97h43.42c.1.64.15,1.3.15,1.97Z"/>
            <path class="cls-3" d="M397.75,391.28h-72.75c-1.82,0-3.23-2.33-3.06-5.01l.14-2.08,1.42-21.26.1-1.49.31-4.64c.04-.69.14-1.35.27-1.99.11-.52.25-1.01.42-1.49,1.08-3.12,3.28-5.23,5.79-5.23h61.58c2.49,0,4.7,2.1,5.78,5.23.17.47.31.97.42,1.49.13.58.21,1.18.26,1.8l.39,4.82.11,1.49,1.7,21.26.16,1.99c.22,2.72-1.21,5.1-3.05,5.1Z"/>
            <polygon class="cls-3" points="404.7 254.89 403.96 260.81 395.14 332.22 394.88 334.35 393.73 343.68 393.21 347.92 393.19 348.08 329.58 348.08 329.56 347.92 329.03 343.68 327.88 334.35 327.62 332.22 318.8 260.81 318.07 254.89 404.7 254.89"/>
            <path class="cls-3" d="M405.75,247.89h-88.75c-2.15,0-3.9,1.75-3.9,3.9v.46c0,1.46,1.18,2.64,2.64,2.64h91.27c1.46,0,2.64-1.18,2.64-2.64v-.46c0-2.15-1.74-3.9-3.9-3.9Z"/>
            <path class="cls-3" d="M406.28,244.39v3.5h-89.81v-3.5c0-.93.04-1.85.13-2.77.04-.37.08-.75.13-1.12.3-2.26.87-4.43,1.66-6.5.14-.37.3-.75.46-1.12,4.45-10.24,14.65-17.41,26.52-17.41h32c11.88,0,22.08,7.17,26.52,17.41.16.37.32.75.46,1.12.8,2.06,1.36,4.24,1.66,6.5.05.37.09.75.13,1.12.09.92.13,1.84.13,2.77Z"/>
            <rect class="cls-4" x="316.47" y="244.77" width="89.81" height="3.11"/>
            <path class="cls-3" d="M365.74,126.61c0,4.96-1.95,8.98-4.36,8.98s-4.36-4.02-4.36-8.98,3.47-8.98,4.36-8.98c.79,0,4.36,4.02,4.36,8.98Z"/>
            <polygon class="cls-4" points="404.7 254.89 403.96 260.81 318.8 260.81 318.07 254.89 404.7 254.89"/>
            <polygon class="cls-4" points="393.73 343.68 393.21 347.92 329.56 347.92 329.03 343.68 393.73 343.68"/>
            <path class="cls-4" d="M397.75,391.28h-72.75c-1.82,0-3.23-2.33-3.06-5.01l.14-2.08h78.55l.16,1.99c.22,2.72-1.21,5.1-3.05,5.1Z"/>
          </g>
        </g>
      </g>
      <path class="cls-12" d="M440,605H2c-1.1,0-2-.9-2-2V79.27c0-.97.7-1.8,1.65-1.97L439.65.03c.58-.1,1.18.06,1.63.44.45.38.71.94.71,1.53v601c0,1.11-.9,2-2,2ZM4,601h434V4.39L4,80.95v520.05Z"/>
    </g>
  </g>
  <g id="Text">
    <g>
      <path class="cls-12" d="M59.32,542.11h8.4l1.97,7.97c1.79,0,3.3-.58,4.54-1.75,1.23-1.17,1.85-2.78,1.85-4.83,0-2.31-.63-4.07-1.9-5.28-1.26-1.22-3.55-1.83-6.84-1.83-1.47,0-3,.16-4.59.48-1.58.32-2.89.74-3.91,1.25v-6.53c1.28-.54,2.82-.98,4.63-1.3,1.81-.32,3.64-.48,5.5-.48,5.09,0,8.99,1.18,11.71,3.53,2.72,2.35,4.08,5.69,4.08,10.01,0,2.63-.65,4.92-1.94,6.87-1.3,1.95-3.04,3.44-5.23,4.47-2.19,1.03-4.6,1.54-7.23,1.54h-7.54l-3.5-14.12Z"/>
      <path class="cls-12" d="M90.27,540.39c-.78-.74-1.18-1.86-1.18-3.36v-4.42h7.54v2.16c0,.74.4,1.11,1.2,1.11h5.67v5.62h-9.55c-1.66,0-2.89-.37-3.67-1.1ZM90.27,553.23c-.78-.75-1.18-1.88-1.18-3.39v-4.42h7.54v2.21c0,.74.4,1.1,1.2,1.1h5.67v5.62h-9.55c-1.66,0-2.89-.38-3.67-1.13Z"/>
      <path class="cls-12" d="M110.29,554.63c-1.01-1.07-1.51-2.55-1.51-4.44v-19.64h8.45v17.63c0,.74.14,1.25.43,1.54s.78.43,1.49.43h1.68v6.1h-6.24c-1.86,0-3.29-.54-4.3-1.61Z"/>
      <path class="cls-12" d="M132.3,555.54c-2.05-.94-3.63-2.26-4.75-3.96-1.12-1.7-1.68-3.62-1.68-5.76v-15.27h8.45v14.55c0,1.73.41,3.04,1.22,3.94.82.9,2.12,1.34,3.91,1.34,3.42,0,5.14-1.76,5.14-5.28v-23.15h8.45v23.87c0,2.15-.56,4.07-1.68,5.76-1.12,1.7-2.71,3.02-4.75,3.96-2.05.94-4.43,1.42-7.15,1.42s-5.11-.47-7.15-1.42Z"/>
      <path class="cls-12" d="M126.56,526.29c-1.17-1.04-1.75-2.44-1.75-4.2,0-2.24.65-3.93,1.94-5.07,1.3-1.14,3.07-1.71,5.31-1.71h10.99v4.27h-10.42c-1.57,0-2.35.62-2.35,1.87,0,.61.17,1.07.5,1.39.34.32.79.48,1.37.48.67,0,1.18-.19,1.51-.58s.5-.9.5-1.54h4.27c0,1.28.75,1.92,2.26,1.92h1.68v4.52h-1.54c-1.12,0-2.1-.18-2.95-.55-.85-.37-1.4-.86-1.66-1.46-.32.61-.94,1.13-1.85,1.56-.91.43-1.94.65-3.1.65-1.98,0-3.56-.52-4.73-1.56Z"/>
      <path class="cls-12" d="M163.84,555.63c-1.51-.88-2.64-2.08-3.41-3.6-.77-1.52-1.15-3.24-1.15-5.16v-16.33h8.45v15.8c0,1.34.37,2.35,1.1,3.03.74.67,1.79,1.01,3.17,1.01,1.18,0,2.19-.25,3.02-.74.83-.5,1.55-1.26,2.16-2.28v-16.81h8.45v25.69h-8.02v-2.64c-1.06,1.06-2.32,1.88-3.79,2.47-1.47.59-2.99.89-4.56.89-2.11,0-3.92-.44-5.43-1.32Z"/>
      <path class="cls-12" d="M194.64,554.82c-2.48-1.42-3.72-3.53-3.72-6.32,0-1.22.3-2.3.91-3.24.61-.94,1.44-1.67,2.5-2.19-.96-.54-1.74-1.32-2.33-2.33-.59-1.01-.89-2.1-.89-3.29,0-2.31.84-4.15,2.52-5.55,1.68-1.39,4.12-2.09,7.32-2.09.93,0,1.89.07,2.88.22.99.14,1.74.3,2.26.46v6.15c-.45-.22-.98-.4-1.61-.53-.62-.13-1.19-.19-1.7-.19-1.99,0-2.98.74-2.98,2.21s1.01,2.31,3.02,2.31h3.26v5.28h-3.26c-2.14,0-3.22.82-3.22,2.45,0,1.86,1.68,2.79,5.04,2.79,1.98,0,3.44-.41,4.37-1.22.93-.82,1.39-2.04,1.39-3.67v-15.56h8.45v15.51c0,1.82-.48,3.57-1.44,5.23-.96,1.67-2.5,3.03-4.61,4.11-2.11,1.07-4.83,1.61-8.16,1.61-4.19,0-7.53-.71-10.01-2.14Z"/>
      <path class="cls-12" d="M203.88,523v-4.27h7.54v2.55c0,.42.09.7.26.86.18.16.47.24.89.24h10.47v5.28h-14.26c-3.26,0-4.9-1.55-4.9-4.66Z"/>
      <path class="cls-12" d="M224.15,533.76h8.4l5.28,16.33c2.02,0,3.58-.66,4.71-1.99,1.12-1.33,1.68-3.21,1.68-5.64,0-4.03-1.55-6.05-4.66-6.05-1.06,0-2.02.16-2.88.48v-6.34c.61-.22,1.35-.4,2.23-.53.88-.13,1.74-.19,2.57-.19,3.87,0,6.75,1.09,8.62,3.27s2.81,5.3,2.81,9.36c0,2.88-.64,5.36-1.92,7.44-1.28,2.08-2.99,3.66-5.14,4.73-2.14,1.07-4.51,1.61-7.11,1.61h-7.35l-7.25-22.48Z"/>
      <path class="cls-12" d="M261.09,554.63c-1.01-1.07-1.51-2.55-1.51-4.44v-15.85c0-3.71,1.04-6.42,3.12-8.12h-7.63v-6.1h18.1v5.47c-1.82.74-3.14,1.8-3.94,3.19-.8,1.39-1.2,3.21-1.2,5.45v13.93c0,.74.14,1.25.43,1.54s.78.43,1.49.43h1.68v6.1h-6.24c-1.86,0-3.29-.54-4.3-1.61Z"/>
      <path class="cls-12" d="M276.04,533.76h8.4l5.28,16.33c2.02,0,3.58-.66,4.71-1.99,1.12-1.33,1.68-3.21,1.68-5.64,0-4.03-1.55-6.05-4.66-6.05-1.06,0-2.02.16-2.88.48v-6.34c.61-.22,1.35-.4,2.23-.53.88-.13,1.74-.19,2.57-.19,3.87,0,6.75,1.09,8.62,3.27s2.81,5.3,2.81,9.36c0,2.88-.64,5.36-1.92,7.44-1.28,2.08-2.99,3.66-5.14,4.73-2.14,1.07-4.51,1.61-7.11,1.61h-7.35l-7.25-22.48Z"/>
      <path class="cls-12" d="M314.65,555.63c-1.51-.88-2.64-2.08-3.41-3.6-.77-1.52-1.15-3.24-1.15-5.16v-16.33h8.45v15.8c0,1.34.37,2.35,1.1,3.03.74.67,1.79,1.01,3.17,1.01,1.18,0,2.19-.25,3.02-.74.83-.5,1.55-1.26,2.16-2.28v-16.81h8.45v25.69h-8.02v-2.64c-1.06,1.06-2.32,1.88-3.79,2.47-1.47.59-2.99.89-4.56.89-2.11,0-3.92-.44-5.43-1.32Z"/>
      <path class="cls-12" d="M342.9,540.39c-.78-.74-1.18-1.86-1.18-3.36v-4.42h7.54v2.16c0,.74.4,1.11,1.2,1.11h5.67v5.62h-9.55c-1.66,0-2.89-.37-3.67-1.1ZM342.9,553.23c-.78-.75-1.18-1.88-1.18-3.39v-4.42h7.54v2.21c0,.74.4,1.1,1.2,1.1h5.67v5.62h-9.55c-1.66,0-2.89-.38-3.67-1.13Z"/>
      <path class="cls-12" d="M365.63,544.18c0-3.27,1.3-5.81,3.89-7.64l1.25-.86c1.18-.77,2.01-1.4,2.47-1.9.46-.5.7-1.11.7-1.85,0-1.86-1.55-2.79-4.66-2.79-1.44,0-2.93.19-4.47.58-1.54.38-2.99.93-4.37,1.63v-7.4c2.94-1.34,6.24-2.02,9.89-2.02,3.94,0,7.06.83,9.36,2.47,2.3,1.65,3.46,3.93,3.46,6.84,0,1.63-.37,2.95-1.1,3.96-.74,1.01-1.98,2.14-3.74,3.39-1.18.86-2.05,1.53-2.59,1.99-.54.46-.95.98-1.22,1.56-.27.58-.41,1.28-.41,2.11v.91h-8.45v-1.01ZM366.62,555.68c-.85-.85-1.27-1.9-1.27-3.15s.42-2.34,1.27-3.17c.85-.83,1.91-1.25,3.19-1.25s2.31.43,3.19,1.27c.88.85,1.32,1.9,1.32,3.15s-.44,2.3-1.32,3.15c-.88.85-1.94,1.27-3.19,1.27s-2.35-.42-3.19-1.27Z"/>
    </g>
  </g>
</svg>