<?xml version="1.0" encoding="UTF-8"?>
<svg xmlns="http://www.w3.org/2000/svg" version="1.1" xmlns:xlink="http://www.w3.org/1999/xlink" viewBox="0 0 528 535">
  <defs>
    <style>
      .cls-1 {
        fill: #3288d6;
      }

      .cls-2 {
        fill: #4d4d4d;
      }

      .cls-3 {
        fill: #fff;
      }

      .cls-4 {
        fill: #505e6d;
      }

      .cls-5 {
        fill: none;
      }

      .cls-6 {
        isolation: isolate;
        opacity: .5;
      }

      .cls-6, .cls-7 {
        fill: #1f5999;
      }

      .cls-8 {
        fill: #13437c;
      }

      .cls-9 {
        fill: #788696;
      }

      .cls-10 {
        fill: #79cdf6;
      }

      .cls-11 {
        fill: #333;
      }

      .cls-12 {
        fill: #47acea;
      }

      .cls-13 {
        fill: #a8b6c1;
      }

      .cls-14 {
        clip-path: url(#clippath);
      }
    </style>
    <clipPath id="clippath">
      <polygon class="cls-5" points="526 2 526 440.6 2 533 2 2 526 2"/>
    </clipPath>
  </defs>
  <!-- Generator: Adobe Illustrator 28.7.5, SVG Export Plug-In . SVG Version: 1.2.0 Build 176)  -->
  <g>
    <g id="Layer_1">
      <g id="Image">
        <g>
          <polygon class="cls-8" points="526 2 526 440.6 2 533 2 2 526 2"/>
          <g class="cls-14">
            <g>
              <g>
                <rect class="cls-6" x="283.2" y="3.1" width="115.6" height="115.6"/>
                <rect class="cls-6" x="410.4" y="3.1" width="115.6" height="115.6"/>
                <rect class="cls-6" x="283.2" y="128.3" width="115.6" height="115.6"/>
                <rect class="cls-6" x="410.4" y="128.3" width="115.6" height="115.6"/>
              </g>
              <g>
                <rect class="cls-6" x="-61.1" y="3.1" width="115.6" height="115.6"/>
                <rect class="cls-6" x="66.1" y="3.1" width="115.6" height="115.6"/>
                <rect class="cls-6" x="-61.1" y="128.3" width="115.6" height="115.6"/>
                <rect class="cls-6" x="66.1" y="128.3" width="115.6" height="115.6"/>
              </g>
              <path class="cls-11" d="M126.4,294.9c-10.6,0-21.2-1.5-31.2-4.5l1.2-3.8c17.4,5.3,37.7,5.7,55.5,1.3,17.8-4.4,33.7-13.9,43.7-26l3.1,2.6c-10.7,12.9-27,22.6-45.8,27.3-8.6,2.1-17.5,3.2-26.4,3.2h0Z"/>
              <path class="cls-11" d="M126.1,310.1c-7.9,0-16.1-.8-24.5-2.4l.7-3.9c15.8,3,30.7,3.1,44.3.3,15.1-3.1,28.5-10,37.8-19.3,4.8-4.9,8.7-10.6,12.5-16.2,5.5-8.1,11.2-16.4,19.7-22.5l2.3,3.3c-7.9,5.6-13.2,13.3-18.7,21.4-3.9,5.7-7.9,11.6-13,16.7-9.8,9.9-23.9,17.2-39.8,20.4-6.8,1.4-13.9,2.1-21.3,2.1h0Z"/>
              <path class="cls-11" d="M439.1,306.7c-8.9,0-18.4-3.8-26.8-10.7-7.2-6-13-13.6-18.5-20.9-1.6-2.1-3.2-4.3-4.9-6.4-6.3-8-14.9-17.6-26.2-21.7-13.7-5-31.2-1.4-46.8,9.6l-2.3-3.3c16.7-11.7,35.5-15.5,50.4-10.1,12.3,4.4,21.4,14.6,28,23,1.7,2.1,3.3,4.3,4.9,6.5,5.4,7.1,11,14.5,17.9,20.3,9.9,8.3,21.5,11.6,31.1,8.9l1.1,3.9c-2.6.7-5.2,1.1-8,1.1h0Z"/>
              <g>
                <path class="cls-11" d="M85.9,280.6v2.6c0,2.2-1.8,4-4,4h-37.3c-2.2,0-4-1.8-4-4v-2.6c0-2.8,1.9-5.1,4.4-5.8,1.4-2.6,3.1-5.1,4.9-7.4.3-2.1.8-4.3,1.6-6.5.1-.3.2-.6.4-.9-2-1.7-3.4-4.1-3.5-7l-.3-4.9c-2.5-1.4-4.7-3.7-5.9-6.5-1.9-4.4-1.4-9.8,1.2-14.1,1.3-2.2,3-3.8,4.9-4.8,2.6-1.3,5.7-1.4,8.1-.2,2.4,1.2,3.8,3.5,3.7,6,0,2-1.1,3.3-1.7,4.1l-.2.3c0,.1-.2.2-.2.4.8-.1,1.6-.2,2.4-.2h5.9c.8,0,1.6,0,2.4.2,0-.1-.1-.3-.2-.4l-.2-.3c-.6-.8-1.7-2.2-1.8-4.1-.1-2.4,1.4-4.8,3.7-6s5.5-1.2,8.1.2c1.9,1,3.6,2.6,4.9,4.8,2.6,4.3,3,9.7,1.2,14.1-1.2,2.8-3.3,5.1-5.9,6.5l-.3,4.9c-.2,2.8-1.5,5.2-3.5,6.9.1.3.3.5.4.8,1.8,4.2,2.4,9,1.7,13.8h3.2c3.3,0,6,2.7,6,6h0Z"/>
                <g>
                  <path class="cls-13" d="M55.9,266.4c-3.1,3.2-5.7,6.9-7.8,10.8-.2.3-.3.6-.2.9.1.3.5.5.8.4s.6-.2.9-.4c3.4-1.9,6.7-4.1,9.7-6.6"/>
                  <g>
                    <path class="cls-2" d="M57.8,269.6c-.1,2.7,0,5.3.7,7.9,0,.5.3,1,.8,1.1.6.1,1-.6,1.1-1.2.9-3.4,1.6-6.8,2-10.3"/>
                    <path class="cls-2" d="M68.6,269.6c.1,2.7,0,5.3-.7,7.9,0,.5-.3,1-.8,1.1-.6.1-1-.6-1.1-1.2-.9-3.4-1.6-6.8-2-10.3"/>
                  </g>
                  <path class="cls-4" d="M61.1,253.9c-2.5,2.1-4.6,5-6,8.5-1.5,3.8-1.7,7.7-1.8,11.9,0,.4,0,.8.1,1.1.3.7,1.1.6,1.8.4,2.5-.8,5.2-2.6,7.9-2.7,1.8,0,3.4.8,5.1,1.4,1.2.5,4.1,1.7,4.4-.3.7-4.1.2-8.2-1.4-11.8-1.5-3.5-3.5-6.6-5.8-9.2"/>
                  <path class="cls-13" d="M68.3,258.3h-10.3c-3.1,0-5.6-2.4-5.8-5.4l-.4-6.9c-.3-4.8,3.5-8.8,8.3-8.8h5.9c4.8,0,8.6,4,8.3,8.8l-.4,6.9c-.2,3.1-2.7,5.4-5.8,5.4Z"/>
                  <g>
                    <path class="cls-13" d="M70.2,240.1c1.5-.9,2.5-2.6,2.7-4.4s-.4-3.6-1.4-5c-.5-.7-1.1-1.4-1.2-2.2,0-.9.7-1.8,1.5-2.2,1.4-.7,3.1-.6,4.5.2s2.5,1.9,3.3,3.2c1.9,3.1,2.3,7.1.9,10.4-1.4,3.3-4.7,5.8-8.3,5.7"/>
                    <path class="cls-13" d="M56.1,240.1c-1.5-.9-2.5-2.6-2.7-4.4s.4-3.6,1.5-5c.5-.7,1.1-1.4,1.2-2.2,0-.9-.7-1.8-1.5-2.2-1.4-.7-3.1-.6-4.5.2s-2.5,1.9-3.3,3.2c-1.9,3.1-2.3,7.1-.9,10.4,1.4,3.3,4.7,5.8,8.3,5.7"/>
                  </g>
                  <path class="cls-4" d="M81.9,283.2h-37.3v-2.6c0-1.1.9-2,2-2h33.4c1.1,0,2,.9,2,2v2.6Z"/>
                </g>
              </g>
              <rect class="cls-7" x="54.4" y="365.2" width="27.4" height="165.2"/>
              <rect class="cls-8" x="54.4" y="365.2" width="27.4" height="21.5"/>
              <path class="cls-11" d="M83.8,532.5h-31.4v-169.2h31.4v169.2ZM56.4,528.5h23.4v-161.2h-23.4v161.2Z"/>
              <rect class="cls-7" x="-29.7" y="316" width="593.7" height="50.2"/>
              <rect class="cls-8" x="-29.7" y="352.3" width="593.7" height="14"/>
              <path class="cls-11" d="M566,368.2H-31.7v-54.2h597.7v54.2ZM-27.7,364.2h589.7v-46.2H-27.7v46.2Z"/>
              <g>
                <path class="cls-11" d="M452,50.5v209.8c0,8.8-7.2,16-16,16h-106c4.3,13.9,15.8,25.1,23.8,31.5h14.3c6.5,0,11.8,5.3,11.8,11.8v6.5c0,2.2-1.8,4-4,4h-179.8c-2.2,0-4-1.8-4-4v-6.5c0-6.5,5.3-11.8,11.8-11.8h14.3c8-6.4,19.4-17.5,23.8-31.5h-106c-8.8,0-16-7.2-16-16V50.5c0-8.8,7.2-16,16-16h299.8c8.8,0,16,7.2,16,16h0Z"/>
                <g>
                  <path class="cls-4" d="M360.2,317.1h-148.1s35.9-21.2,35.9-52.1h76.4c0,30.9,35.9,52.1,35.9,52.1Z"/>
                  <path class="cls-9" d="M136.2,38.5h299.8c6.6,0,12,5.4,12,12v209.8c0,6.6-5.4,12-12,12H136.2c-6.6,0-12-5.4-12-12V50.5c0-6.6,5.4-12,12-12Z"/>
                  <path class="cls-2" d="M448,241.7H124.2V50.5c0-6.6,5.4-12,12-12h299.8c6.6,0,12,5.4,12,12v191.3h0Z"/>
                  <path class="cls-1" d="M143.2,53.5h285.8c2.2,0,4,1.8,4,4v165.3c0,2.2-1.8,4-4,4H143.2c-2.2,0-4-1.8-4-4V57.5c0-2.2,1.8-4,4-4Z"/>
                  <path class="cls-12" d="M153.6,58.1h265.1c5.5,0,9.9,4.5,9.9,9.9v144.2c0,5.5-4.5,9.9-9.9,9.9H153.6c-5.5,0-9.9-4.4-9.9-9.9V68c0-5.5,4.4-9.9,9.9-9.9h0Z"/>
                  <rect class="cls-10" x="151.1" y="64.4" width="270.1" height="151.3" rx="22.1" ry="22.1"/>
                  <path class="cls-9" d="M376,326h-179.8v-6.5c0-4.3,3.5-7.8,7.8-7.8h164.1c4.3,0,7.8,3.5,7.8,7.8v6.5Z"/>
                  <circle class="cls-11" cx="286.1" cy="256.9" r="6.5"/>
                </g>
              </g>
              <g>
                <g>
                  <path class="cls-11" d="M436.6,298c-1.8.9-3.5,2-5.1,3.2,1.6-1.2,3.3-2.3,5.1-3.2ZM431.5,301.2c-1,.7-1.9,1.5-2.8,2.4.9-.9,1.8-1.6,2.8-2.4ZM428.7,303.6c-.7.7-1.4,1.4-2,2.1.6-.7,1.3-1.4,2-2.1ZM426.7,305.7c-3.6,4.2-5.8,9.3-6.1,14.8.3-5.5,2.5-10.5,6.1-14.8Z"/>
                  <path class="cls-11" d="M487.3,321.8h0c0,.2,0,.4,0,.6-.4,4.7-4.6,8.2-9.9,8.2h-46.9c-2.5,0-4.9-.8-6.7-2.3-2-1.6-3.1-3.9-3.2-6.3h0c0-.6,0-1,0-1.5.3-5.5,2.5-10.5,6.1-14.8,0,0,0,0,0,0,.6-.7,1.3-1.4,2-2.1.9-.9,1.8-1.6,2.8-2.4,1.6-1.2,3.3-2.3,5.1-3.2,5-2.6,11-4,17.3-4s17,2.8,23.3,7.9c6.5,5.3,10.1,12.4,10.1,20h0Z"/>
                </g>
                <g>
                  <path class="cls-4" d="M483.3,321.8h0c0,2.7-2.7,4.8-5.9,4.8h-46.9c-1.6,0-3.1-.5-4.2-1.4-1-.9-1.7-2-1.7-3.3h0c0-13.3,13.1-24,29.4-24s15.4,2.7,20.8,7c5.3,4.3,8.6,10.3,8.6,16.9h0Z"/>
                  <path class="cls-9" d="M483.3,321.8h0c-1.1.7-2.4,1.1-3.9,1.1h-51c-1.5,0-2.8-.4-3.9-1.1h0c0-13.3,13.1-24,29.4-24s15.4,2.7,20.8,7c5.3,4.3,8.6,10.3,8.6,16.9h0Z"/>
                </g>
              </g>
              <g>
                <path class="cls-11" d="M104.4,283.1H-41.6c-6,0-10.9,4.9-10.9,10.9v30c0,6,4.9,10.9,10.9,10.9H104.4c6,0,10.9-4.9,10.9-10.9v-30c0-6-4.9-10.9-10.9-10.9ZM99.9,315.5c0,0,0-.2.2-.2s.2,0,.2.2c0,.2-.3.2-.3,0Z"/>
                <g>
                  <path class="cls-4" d="M-41.6,287.5H104.4c3.8,0,6.9,3.1,6.9,6.9v29.6c0,3.8-3.1,6.9-6.9,6.9H-41.6c-3.8,0-6.9-3.1-6.9-6.9v-29.6c0-3.8,3.1-6.9,6.9-6.9Z"/>
                  <path class="cls-9" d="M-41.6,287.1H104.4c3.8,0,6.9,3.1,6.9,6.9v25c0,3.8-3.1,6.9-6.9,6.9H-41.6c-3.8,0-6.9-3.1-6.9-6.9v-25c0-3.8,3.1-6.9,6.9-6.9Z"/>
                  <path class="cls-4" d="M-8.6,314.6H11.7c.7,0,1.3.6,1.3,1.3v3.7c0,.7-.6,1.3-1.3,1.3H-8.6c-.7,0-1.3-.6-1.3-1.3v-3.7c0-.7.6-1.3,1.3-1.3Z"/>
                  <rect class="cls-9" x="-7.6" y="316.2" width="18.3" height="1.6"/>
                  <circle class="cls-4" cx="100.1" cy="315.5" r="5.5"/>
                  <circle class="cls-9" cx="100.1" cy="315.5" r="4.2"/>
                </g>
              </g>
              <g>
                <path class="cls-3" d="M241.6,147.5l8.2-8.4,1.6-1.6c1.9-1.9,3.3-3.4,4.4-4.6,1.1-1.2,1.9-2.5,2.6-3.8s1-2.7,1-4.1c0-2.1-.6-3.8-1.9-4.9-1.3-1.2-3.2-1.8-5.8-1.8s-2.9.2-4.3.7-2.7,1.2-4.1,2.3v-2.5c1.3-.9,2.6-1.6,4-2,1.4-.4,2.9-.7,4.7-.7,3.1,0,5.5.8,7.2,2.4,1.7,1.6,2.6,3.7,2.6,6.5s-.4,3.1-1.1,4.5c-.7,1.5-1.7,2.9-2.9,4.4-1.2,1.5-2.9,3.3-5.1,5.6l-7.6,7.8h18v2.1h-21.6v-1.8h0Z"/>
                <path class="cls-3" d="M270.7,130.2c-.3-.3-.5-.7-.5-1.1s.1-.9.5-1.2.7-.5,1.2-.5.8.2,1.1.5c.3.3.5.7.5,1.2s-.2.8-.5,1.1-.7.5-1.1.5-.9-.2-1.2-.5ZM270.7,147.5c-.3-.3-.5-.7-.5-1.1s.1-.9.5-1.2.7-.5,1.2-.5.8.2,1.1.5c.3.3.5.7.5,1.2s-.2.8-.5,1.1-.7.5-1.1.5-.9-.2-1.2-.5Z"/>
                <path class="cls-3" d="M295.9,140.7h-16.4v-1.8l16-22.1h2.8v21.8h5.1v2h-5.1v8.6h-2.5v-8.6h0ZM296,138.6v-18.9l-13.7,18.9h13.7Z"/>
                <path class="cls-3" d="M313.8,149.6c-1.6-.3-3.1-.7-4.3-1.2v-2.3c1.3.6,2.8,1.1,4.4,1.4,1.6.3,3.2.4,4.8.4,6.3,0,9.5-2.4,9.5-7.2s-3.4-6.9-10.1-6.9h-3.4v-2.1h3.3c2.7,0,4.8-.6,6.5-1.8,1.7-1.2,2.5-2.9,2.5-5.1s-.6-3.8-2-4.9c-1.3-1.1-3.2-1.7-5.8-1.7s-3.2.2-4.6.6c-1.3.4-2.8,1.1-4.3,2v-2.2c2.7-1.6,5.7-2.5,9.1-2.5s5.7.8,7.4,2.3,2.6,3.7,2.6,6.4-.6,3.6-1.7,4.9-2.8,2.3-5,2.9c2.4.3,4.3,1.2,5.7,2.6s2,3.2,2,5.4-1,5.1-2.8,6.8c-1.9,1.7-4.9,2.5-8.9,2.5s-3.4-.1-5-.4h0Z"/>
                <path class="cls-3" d="M237.7,174.7c-.6-.1-1.1-.2-1.5-.4v-.9c1,.4,2.1.6,3.3.6s1.9-.2,2.4-.6.8-.9.8-1.7-.1-.9-.3-1.2-.5-.6-1-.8c-.4-.2-1.1-.5-1.9-.9-1.1-.4-1.9-.9-2.4-1.4-.5-.5-.7-1.2-.7-2s.1-1.1.5-1.6c.3-.4.8-.8,1.3-1s1.2-.4,1.9-.4,1.1,0,1.6.1c.5,0,1,.2,1.4.4v.8c-1-.4-1.9-.6-3-.6s-1.7.2-2.2.6c-.5.4-.8.9-.8,1.6s.1.8.3,1.1c.2.3.5.6.9.9s1,.5,1.8.8c.8.3,1.5.6,1.9.9s.8.6,1.1,1c.3.4.4,1,.4,1.6,0,1-.3,1.7-1,2.3s-1.7.8-3,.8-1.2,0-1.9-.1h0Z"/>
                <path class="cls-3" d="M246.7,174.2c-.6-.5-.9-1.1-.9-1.9s.3-1.5.8-2,1.4-.7,2.4-.7,2.3.3,3.2.8v-1c0-.8-.2-1.4-.7-1.8s-1.1-.6-2.1-.6-1.8.2-2.6.5v-.8c.3-.1.8-.3,1.2-.4.5,0,1-.1,1.4-.1,1.2,0,2.1.3,2.7.8s.9,1.3.9,2.3v5.2h-.8v-1.2c-.7.9-1.8,1.4-3.3,1.4s-1.7-.2-2.3-.7h0ZM251.1,173.8c.6-.3.9-.7,1.2-1.1v-1.5c-.5-.3-1-.5-1.4-.6s-1-.2-1.6-.2c-.9,0-1.5.2-1.9.5-.4.3-.6.8-.6,1.5s.2,1.1.6,1.4,1.1.5,1.9.5,1.3-.1,1.8-.4h0Z"/>
                <path class="cls-3" d="M257.1,174.3c-.4-.4-.6-1-.6-1.8v-5.2h-1.3v-.7h1.3v-2.4h.9v2.4h2.1v.7h-2.1v5.3c0,.6.1,1,.4,1.3s.7.4,1.3.4.6,0,.9-.2v.7c-.3,0-.7.1-1.2.1-.7,0-1.3-.2-1.7-.6h0Z"/>
                <path class="cls-3" d="M263.6,173.8h1l-1.5,3.3h-.8l1.3-3.3h0Z"/>
                <path class="cls-3" d="M279,162.8h.8l4.7,11.8h-.9l-1.4-3.4h-5.7l-1.4,3.4h-.9l4.7-11.8h0ZM282,170.5l-2.6-6.5-2.6,6.5h5.2Z"/>
                <path class="cls-3" d="M287.4,166.5h.9v1.6c.8-1.2,2-1.9,3.7-1.9s1.5.2,2.2.5,1.2.9,1.5,1.5.6,1.4.6,2.3-.2,1.6-.6,2.3c-.4.6-.9,1.2-1.5,1.5s-1.4.5-2.2.5-1.5-.2-2.2-.5c-.7-.3-1.2-.8-1.5-1.4v5.3h-.9v-11.8h0ZM293.6,173.7c.5-.3,1-.7,1.3-1.3s.5-1.2.5-1.9-.2-1.3-.5-1.9c-.3-.5-.7-1-1.3-1.3-.5-.3-1.1-.4-1.8-.4s-1.6.2-2.2.6c-.6.4-1.1,1-1.3,1.8v2.2c.2.8.7,1.4,1.3,1.8s1.4.7,2.2.7,1.2-.1,1.8-.4h0Z"/>
                <path class="cls-3" d="M299.1,166.5h.9v1.7c.7-1.1,1.9-1.7,3.8-1.7v.7c-2,0-3.2.7-3.8,2.2v5.2h-.9v-8.1Z"/>
                <path class="cls-3" d="M306.5,164.4c-.1-.1-.2-.3-.2-.4s0-.3.2-.4.3-.2.5-.2.3,0,.4.2.2.3.2.4,0,.3-.2.4c-.1.1-.3.2-.4.2s-.3,0-.5-.2ZM306.5,166.5h.9v8.1h-.9v-8.1Z"/>
                <path class="cls-3" d="M310.8,162.1h.9v12.5h-.9v-12.5Z"/>
                <path class="cls-3" d="M324.4,163.8l-2.6,1.9v-.9l2.7-2h.8v11.8h-.9v-10.8h0Z"/>
                <path class="cls-3" d="M328.2,174l3-3.1.6-.6c.7-.7,1.2-1.2,1.6-1.7s.7-.9.9-1.4c.2-.5.4-1,.4-1.5,0-.8-.2-1.4-.7-1.8s-1.2-.6-2.1-.6-1.1,0-1.6.2-1,.4-1.5.8v-.9c.5-.3.9-.6,1.5-.7s1.1-.2,1.7-.2c1.1,0,2,.3,2.6.9s1,1.4,1,2.4-.1,1.1-.4,1.6-.6,1.1-1.1,1.6-1.1,1.2-1.9,2l-2.8,2.8h6.6v.8h-7.8v-.6h0Z"/>
              </g>
            </g>
          </g>
          <path class="cls-11" d="M2,535c-.5,0-.9-.2-1.3-.5C.3,534.2,0,533.6,0,533V2c0-1.1.9-2,2-2h524c1.1,0,2,.9,2,2v438.6c0,1-.7,1.8-1.7,2L2.3,535c-.1,0-.2,0-.3,0ZM4,4v526.6l520-91.7V4H4Z"/>
        </g>
      </g>
      <g id="Text">
        <g>
          <path class="cls-3" d="M121.7,435.3c-1-1.1-1.5-2.5-1.5-4.4v-10.9c0-1.5.3-2.8.9-3.8.6-1.1,1.4-2.2,2.4-3.3.6-.7,1.1-1.4,1.4-1.9s.5-1,.5-1.5c0-.9-.2-1.5-.7-1.9s-1.2-.6-2.3-.6c-1.9,0-3.6.6-5.1,1.9v-6.5c1-.6,2.2-1.1,3.7-1.4,1.4-.3,2.9-.5,4.4-.5,2.9,0,5.1.6,6.5,1.9s2.2,3,2.2,5.1-.2,2.3-.7,3.2c-.5.9-1.2,2.1-2.1,3.3-.9,1.2-1.6,2.3-2,3.2s-.6,1.8-.6,2.9v8.8c0,.7.1,1.2.4,1.5s.8.4,1.5.4h1.7v6.1h-6.2c-1.9,0-3.3-.5-4.3-1.6h0Z"/>
          <path class="cls-3" d="M142.4,436.3c-1.5-.9-2.6-2.1-3.4-3.6-.8-1.5-1.1-3.2-1.1-5.2v-16.3h8.4v15.8c0,1.3.4,2.4,1.1,3,.7.7,1.8,1,3.2,1s2.2-.2,3-.7c.8-.5,1.6-1.3,2.2-2.3v-16.8h8.4v25.7h-8v-2.6c-1.1,1.1-2.3,1.9-3.8,2.5-1.5.6-3,.9-4.6.9s-3.9-.4-5.4-1.3h0Z"/>
          <path class="cls-3" d="M173.8,437.1c-1.7-.4-3.1-.9-4.3-1.6v-6.5c2,1.4,4.7,2.1,8,2.1s4.3-.6,5.7-1.7c1.4-1.1,2-2.9,2-5.3s-.7-4.1-2-5.3-3.3-1.7-5.7-1.7-5.9.7-7.8,2.1v-6.5c1.1-.7,2.5-1.2,4.2-1.6s3.5-.5,5.4-.5c4.6,0,8.1,1.2,10.7,3.5,2.6,2.4,3.8,5.7,3.8,10s-1.3,7.6-3.8,10c-2.6,2.4-6.1,3.5-10.7,3.5s-3.9-.2-5.6-.5h0Z"/>
          <path class="cls-3" d="M178,403.7v-4.3h7.5v2.5c0,.4,0,.7.3.9.2.2.5.2.9.2h10.5v5.3h-14.3c-3.3,0-4.9-1.5-4.9-4.7h0Z"/>
          <path class="cls-3" d="M203.8,436.3c-1.5-.9-2.6-2.1-3.4-3.6-.8-1.5-1.1-3.2-1.1-5.2v-16.3h8.4v15.8c0,1.3.4,2.4,1.1,3,.7.7,1.8,1,3.2,1s2.2-.2,3-.7c.8-.5,1.6-1.3,2.2-2.3v-16.8h8.4v25.7h-8v-2.6c-1.1,1.1-2.3,1.9-3.8,2.5-1.5.6-3,.9-4.6.9s-3.9-.4-5.4-1.3h0Z"/>
          <path class="cls-3" d="M236.4,436.3c-1.5-.9-2.6-2.1-3.4-3.6-.8-1.5-1.1-3.2-1.1-5.2v-16.3h8.4v15.8c0,1.3.4,2.4,1.1,3,.7.7,1.8,1,3.2,1s2.2-.2,3-.7c.8-.5,1.6-1.3,2.2-2.3v-16.8h8.4v25.7h-8v-2.6c-1.1,1.1-2.3,1.9-3.8,2.5-1.5.6-3,.9-4.6.9s-3.9-.4-5.4-1.3h0Z"/>
          <path class="cls-3" d="M243.2,403.7v-4.3h7.5v2.5c0,.4,0,.7.3.9.2.2.5.2.9.2h10.5v5.3h-14.3c-3.3,0-4.9-1.5-4.9-4.7h0Z"/>
          <path class="cls-3" d="M247.8,394.3c0-.3,0-.5-.2-.7s-.3-.2-.7-.2h-2.1v-5.3h4.7c1.2,0,2.1.2,2.5.7s.7,1.1.7,2v1.1h8.1v4.9h-13.1v-2.5h0Z"/>
          <path class="cls-3" d="M269,436.3c-1.5-.9-2.6-2.1-3.4-3.6-.8-1.5-1.1-3.2-1.1-5.2v-16.3h8.5v15.8c0,1.3.4,2.4,1.1,3,.7.7,1.8,1,3.2,1s2.2-.2,3-.7c.8-.5,1.5-1.3,2.2-2.3v-16.8h8.5v25.7h-8v-2.6c-1.1,1.1-2.3,1.9-3.8,2.5s-3,.9-4.6.9-3.9-.4-5.4-1.3h0Z"/>
        </g>
      </g>
    </g>
  </g>
</svg>