<?xml version="1.0" encoding="UTF-8"?>
<svg xmlns="http://www.w3.org/2000/svg" version="1.1" xmlns:xlink="http://www.w3.org/1999/xlink" viewBox="0 0 444 616">
  <defs>
    <style>
      .cls-1 {
        fill: #3d1170;
      }

      .cls-2 {
        fill: #a152db;
      }

      .cls-3 {
        fill: #fff;
      }

      .cls-4 {
        fill: none;
      }

      .cls-5 {
        fill: #7131af;
      }

      .cls-6 {
        fill: #333;
      }

      .cls-7 {
        fill: #8942c5;
      }

      .cls-8 {
        fill: #4f4257;
      }

      .cls-9 {
        fill: #efa7fc;
      }

      .cls-10 {
        fill: #d27cf2;
      }

      .cls-11 {
        fill: #6d5a77;
      }

      .cls-12 {
        clip-path: url(#clippath);
      }
    </style>
    <clipPath id="clippath">
      <polygon class="cls-4" points="442.1 2 442.1 536.4 2.1 614 2.1 2 442.1 2"/>
    </clipPath>
  </defs>
  <!-- Generator: Adobe Illustrator 28.7.5, SVG Export Plug-In . SVG Version: 1.2.0 Build 176)  -->
  <g>
    <g id="Layer_1">
      <g id="Image">
        <g>
          <polygon class="cls-5" points="442.1 2 442.1 536.4 2.1 614 2.1 2 442.1 2"/>
          <polygon class="cls-7" points="443 161.9 145.6 590.5 2.1 614 2.1 335.1 275.5 2 442.1 2 443 161.9"/>
          <g class="cls-12">
            <g>
              <path class="cls-5" d="M313.3,328.5c-3.7,3.5-7.6,6.6-11.8,9.1-16.5,10.2-37,11-51,2.1-10-6.4-17.6-17.9-23.2-35-11.3-34.4-11.8-40.2-8.8-84.4l-7.5-2.7c-2.6,40.7-3.1,53.5,8.7,89.6,6.2,19,14.9,31.8,26.5,39.2,7.7,5,17.1,7.4,26.8,7.4s22.5-3.2,32.7-9.4c2.7-1.7,5.3-3.5,7.8-5.6-.1-3.5-.2-6.9-.3-10.4h0Z"/>
              <path class="cls-1" d="M439,134.7c-5.6-19.4-7.3-42.1-5-69.3.4-4.9,1-11.7-3.1-16.8-5-6.4-14.6-6.5-21-2.9-5.9,3.3-9.6,9-12.8,14.6-21.4,37.8-27.7,81.7-33.8,124-5.4,37.5-11,76.3-27.1,110.5-4,8.6-8.4,16-13.2,22.4,0,4.1,0,8.3.1,12.5,7.6-8.4,14.3-18.8,20.3-31.5,16.6-35.2,22.3-74.7,27.8-112.8,6-41.6,12.2-84.7,32.9-121.2,3-5.3,5.8-9.3,9.8-11.5,3.4-1.9,8.5-2,10.8.9,1.9,2.5,1.8,6.5,1.4,11.2-2.4,28.2-.7,51.8,5.2,72.2,7.4,25.6,22,46.9,41.1,59.9l4.5-6.6c-17.5-11.9-31-31.6-37.9-55.5h0Z"/>
              <g>
                <path class="cls-1" d="M459.2,34.6c0,18.1-14.7,32.8-32.9,32.8s-27-9.4-31.3-22.9h-66.5v449c0,5.5-4.5,10-10,10s-10-4.5-10-10V44.6h-64c-1.1,3.3-2.7,6.4-4.7,9.2v.3c0,.4,0,.9,0,1.3,0,6.3-2.2,12.1-5.9,16.7h4c10.3,0,18.8,8.4,18.8,18.8v89.6c0,8.3-4.2,15.9-11.1,20.4l-17.5,11.3c-.8.5-1.2,1.4-1.2,2.3v12.3c0,5.1-4.1,9.2-9.2,9.2h-9.2c-5.1,0-9.2-4.1-9.2-9.2v-12.3c0-.9-.5-1.8-1.2-2.3l-17.5-11.3c-7-4.5-11.1-12.1-11.1-20.4v-89.6c0-10.3,8.4-18.8,18.8-18.8h4c-3.7-4.6-5.9-10.4-5.9-16.7s0-1.2,0-1.8c-3.8-5.4-6.1-11.9-6.1-19s4.5-10,10-10,8.5,3.2,9.7,7.4c3.9-2.2,8.4-3.4,13.1-3.4s1.3,0,2,0c.4,0,.9,0,1.3.1.4,0,.8.1,1.2.2,0,0,.2,0,.2,0,.4,0,.8.1,1.1.2.8.2,1.6.4,2.4.7.4.1.8.3,1.2.4,1.3.5,2.6,1.1,3.8,1.8,1.1-4.3,5-7.5,9.7-7.5h167.4c5.5,0,10,4.5,10,10s5.8,12.9,12.9,12.9,12.9-5.8,12.9-12.9,4.5-10,10-10,10,4.5,10,10h0Z"/>
                <g>
                  <path class="cls-10" d="M213.2,32.6c-12.6,0-22.8,10.2-22.8,22.8s10.2,22.8,22.8,22.8,22.8-10.2,22.8-22.8-10.2-22.8-22.8-22.8ZM213.2,66.7c-6.3,0-11.4-5.1-11.4-11.3s5.1-11.3,11.4-11.3,11.4,5.1,11.4,11.3-5.1,11.3-11.4,11.3Z"/>
                  <path class="cls-5" d="M449.2,28.6c-3.3,0-6,2.7-6,6,0,9.3-7.6,16.9-16.9,16.9s-16.9-7.6-16.9-16.9-2.7-6-6-6h-167.4c-3.3,0-6,2.7-6,6,0,9.3-7.6,16.9-16.9,16.9s-16.9-7.6-16.9-16.9-2.7-6-6-6-6,2.7-6,6c0,15.9,12.9,28.8,28.9,28.8s25.5-9.8,28.2-22.9h156.7c2.8,13,14.4,22.9,28.2,22.9s28.9-12.9,28.9-28.8-2.7-6-6-6h0Z"/>
                  <path class="cls-5" d="M318.6,499.6c-3.3,0-6-2.7-6-6V35c0-3.3,2.7-6,6-6s6,2.7,6,6v458.7c0,3.3-2.7,6-6,6Z"/>
                  <path class="cls-10" d="M252.8,90.8v89.6c0,6.9-3.5,13.3-9.3,17.1l-17.5,11.3c-1.9,1.2-3.1,3.4-3.1,5.6v12.3c0,2.9-2.3,5.2-5.2,5.2h-9.2c-2.9,0-5.2-2.3-5.2-5.2v-12.3c0-2.3-1.1-4.4-3.1-5.6l-17.5-11.3c-5.8-3.7-9.3-10.2-9.3-17.1v-89.6c0-8.1,6.6-14.8,14.8-14.8h49.8c8.1,0,14.8,6.6,14.8,14.8h0Z"/>
                  <path class="cls-9" d="M185.1,150.4c-1.6,0-3.2.1-4.4,1.1-1.7,1.4-1.9,3.9-2,6.1-.2,5.1-.1,10.2-.1,15.4,0,5.4.1,11.2,2.8,15.9,2.1,3.6,5.6,6.2,9.3,8.1,3.7,1.9,7.6,3.2,11.3,5,4.2,2,8.1,4.3,12.5,5.6,3.8,1.1,7.8-2.2,10.9-4.4,4.9-3.5,9.8-7,14.7-10.6,1.4-1,2.8-2,3.9-3.4,2.1-2.7,3.1-7.8,3.7-11.2.8-4.7,1-9.4,1.1-14.2,0-3,.3-8.6-3-10-1.8-.8-4.4-.6-6.3-.8-2.5-.3-5-.5-7.4-.8-10-.9-20-1.5-30-1.7-5.6-.1-11.3-.1-17,0h0Z"/>
                  <path class="cls-2" d="M248.8,90.8v89.6c0,5.6-2.8,10.7-7.5,13.7l-17.5,11.3c-3.1,2-4.9,5.3-4.9,9v12.3c0,.6-.5,1.2-1.2,1.2h-9.2c-.2,0-.3,0-.5-.1.5-.2.8-.7.8-1.2v-13.3c0-3.9,2-7.6,5.3-9.7l18.9-12.2c5.1-3.3,8.1-8.8,8.1-14.8v-96c4.4,1.3,7.7,5.4,7.7,10.3h0Z"/>
                  <path class="cls-10" d="M214.9,32.7c.4,3.9.8,7.8,1,11.7,5,1.2,8.7,5.7,8.7,11s-4.6,10.8-10.4,11.3c-.5,4-1.6,7.7-3,11.4.7,0,1.4,0,2.1,0,12.6,0,22.8-10.2,22.8-22.8s-9.3-21.8-21.1-22.7h0Z"/>
                  <path class="cls-9" d="M228.3,106.3v4.7c0,1.8-1.4,3.2-3.2,3.2h-8.6v8.6c0,1.8-1.4,3.2-3.2,3.2h-4.7c-1.8,0-3.2-1.4-3.2-3.2v-8.6h-8.6c-1.8,0-3.2-1.4-3.2-3.2v-4.7c0-1.8,1.4-3.2,3.2-3.2h8.6v-8.6c0-1.8,1.4-3.2,3.2-3.2h4.7c1.8,0,3.2,1.4,3.2,3.2v8.6h8.6c1.8,0,3.2,1.4,3.2,3.2Z"/>
                </g>
              </g>
              <g>
                <path class="cls-1" d="M356.2,478.3v81.1h-15.9v21.8h-11.5c-3.4,3.9-7.9,7.3-12.5,9.8-19.6,10.8-43.7,17.5-73.5,20.4-15.5,1.5-31.2,2-46.4,2.4-7.7.2-15.6.5-23.4.8-1.8,0-3.6.2-5.4.3-27.1,1.5-54.4,5.2-81,10.8-1.8,1.6-3.7,3.2-5.5,4.7-21,17.1-44.4,26.4-66.3,26.4s-1.8,0-2.7,0l-7.4-.3,4.3-6c2.1-2.9,4.1-5.9,6-8.9-.5,0-1,0-1.5,0-9.2,0-20.5-1.8-30.1-8.8-11.2-8.2-16.8-22.2-13.5-34.2l2.4-50.5,1.9-1.1c.4-.2.8-.5,1.2-.7v-66.4h356.8v-1.6c0-5.7-4.3-10.5-9.9-11.1-50.1-5.5-181.7-18.5-321.9-18.5H-3.6v-24H.4c141.3,0,274,13,324.5,18.6,17.8,2,31.3,17,31.3,35h0Z"/>
                <g>
                  <path class="cls-11" d="M352.2,555.5h-16v-77.1c0-7.8-5.8-14.2-13.5-15.1-50.2-5.5-182-18.5-322.3-18.5v-16c141.1,0,273.6,13,324,18.6,15.8,1.8,27.7,15.1,27.7,31v77.1h0Z"/>
                  <rect class="cls-11" x="-20.6" y="483.9" width="356.9" height="93.3"/>
                  <rect class="cls-8" x="324" y="483.9" width="12.3" height="93.3"/>
                  <path class="cls-9" d="M314.5,587.5c-22,12.1-47,17.5-72,19.9-23.1,2.3-46.4,2.1-69.7,3.2-1.8,0-3.6.2-5.5.3-27.8,1.5-55.4,5.2-82.6,11-10.8,2.3-21.5,4.9-32.1,7.9-9.9,2.8-19.9,5.8-30.1,7.1-1.2.2-2.5.3-3.8.4-11.5.9-23.7-1-33.1-7.8-9.4-6.8-15.1-19.2-11.9-30.3l2.3-48.8c23.3-13.7,49.5-28,75.9-22.3,1.4.3,2.8.7,4.2,1.1,11.7,3.4,22.2,10.2,33.1,15.9,12.2,6.3,26,11.5,39.4,8.6,13.1-2.8,23.2-12.7,34.8-19.8,2-1.2,4-2.4,6.1-3.4,17.2-8.3,37.2-6.8,56-2,3.4.9,6.7,1.8,9.9,2.9,21.5,6.9,42.3,16.7,64.7,18.7,5.8.5,11.8.5,17.4,2.2,5.6,1.7,11,5.5,12.6,11.2,2.9,10-6.7,19.1-15.9,24.1h0Z"/>
                  <path class="cls-10" d="M314.5,587.5c-22,12.1-47,17.5-72,19.9-23.1,2.3-46.4,2.1-69.7,3.2,24.5-21.1,43.1-49.3,52.3-80.3.2-.6.4-1.3.6-1.9,3.4.9,6.7,1.8,9.9,2.9,21.5,6.9,42.3,16.7,64.7,18.7,5.8.5,11.8.5,17.4,2.2,5.6,1.7,11,5.5,12.6,11.2,2.9,10-6.7,19.1-15.9,24.1h0Z"/>
                  <path class="cls-10" d="M163.7,533.8c-13.4,11.9-25,25.8-36.2,39.9-13.5,16.8-26.7,34-42.7,48.3-2,1.8-4.1,3.6-6.2,5.3-18.8,15.3-42.2,26.3-66.4,25.5,3.6-5.1,7.1-10.4,10.4-15.7,14.8-24,26.1-50.2,33.4-77.5,1.8-6.6,3.3-13.4,2.9-20.3-.2-3.4-1-6.9-2.5-10,11.7,3.4,22.2,10.2,33.1,15.9,12.2,6.3,26,11.5,39.4,8.6,13.1-2.8,23.2-12.7,34.8-19.8h0Z"/>
                  <path class="cls-1" d="M295.2,549.9h0c-15.4-.7-29.9-6.4-43.9-12-6.4-2.5-13-5.2-19.6-7.2-13.9-4.4-26.9-6.2-38.7-5.2-13.9,1.1-26.4,6.1-35.5,14-.4.4-1.1.3-1.4,0s-.3-1,.1-1.4c9.4-8.2,22.4-13.3,36.7-14.4,12.1-1,25.3.8,39.4,5.3,6.7,2.1,13.3,4.8,19.7,7.3,13.9,5.5,28.2,11.2,43.2,11.8.5,0,1,.5,1,1,0,.5-.5,1-1,1h0Z"/>
                  <path class="cls-1" d="M310.5,552.3c0,0-.2,0-.3,0-2.3-.7-4.6-1-7-.9-.6,0-1-.4-1-1,0-.5.4-1,1-1,2.6,0,5.1.3,7.6,1,.5.2.8.7.7,1.2-.1.4-.5.7-1,.7h0Z"/>
                  <path class="cls-1" d="M106.7,553c0,0-.1,0-.2,0-9.8-2.1-18.8-7.1-27.4-12-8.4-4.7-17.1-9.6-26.5-11.7-8.8-1.9-18.7-1.5-29.5,1.3-9.7,2.5-19.1,6.5-28.2,10.3-.5.2-1.1,0-1.3-.5s0-1.1.5-1.3c9.2-3.9,18.6-7.9,28.5-10.4,11.2-2.8,21.4-3.2,30.5-1.3,9.7,2.1,18.6,7.1,27.1,11.9,8.5,4.8,17.2,9.7,26.8,11.7.5.1.9.6.8,1.2,0,.5-.5.8-1,.8h0Z"/>
                </g>
              </g>
              <path class="cls-1" d="M281.1,586.3c-6-18.3.6-40.5,16.9-56.6,14.2-14.1,33.2-22.2,51.6-28.8,2.6-1,5.3-1.9,8-2.8,15.1-5.4,30.8-10.9,44.1-19.7,17.2-11.4,31.6-28.8,41.5-50.4,8.3-18.1,13.7-39.3,16.6-64.7l8,.9c-2.9,26.3-8.6,48.3-17.2,67.2-10.6,23-25.9,41.6-44.4,53.8-14.1,9.3-30.3,15-45.8,20.5-2.6.9-5.3,1.9-7.9,2.8-17.5,6.3-35.6,14-48.6,27-14.1,14-20,33-14.9,48.5l-7.6,2.5h0Z"/>
              <path class="cls-1" d="M439,134.7c-5.6-19.4-7.3-42.1-5-69.3.4-4.9,1-11.7-3.1-16.8-1.9-2.4-4.4-3.9-7.1-4.7-.5,2.7-.8,4.4-1.2,7.1,3.9,1.8,3.8,9.1,3.4,13.7-2.4,28.2-.7,51.8,5.2,72.2,7.4,25.6,22,46.9,41.1,59.9l4.5-6.6c-17.5-11.9-31-31.6-37.9-55.5h0Z"/>
            </g>
          </g>
          <path class="cls-6" d="M2.1,616c-.5,0-.9-.2-1.3-.5-.4-.4-.7-.9-.7-1.5V2c0-1.1.9-2,2-2h440c1.1,0,2,.9,2,2v534.4c0,1-.7,1.8-1.6,2L2.5,616c-.1,0-.2,0-.4,0ZM4.1,4v607.6l436-76.9V4H4.1Z"/>
        </g>
      </g>
      <g id="Text">
        <g>
          <path class="cls-3" d="M80.1,320c-1-1.1-1.5-2.5-1.5-4.4v-8.9l-2.4-4.2c3.9-4.8,8.9-7.2,14.9-7.2s7.5.9,9.8,2.8,3.5,4.5,3.5,7.8v15.8h-8.4v-15.2c0-3.1-1.6-4.7-4.8-4.7s-4.3.7-5.8,2l1.8,3v6.8c0,.7.2,1.2.5,1.5.3.3.9.5,1.6.5h2.3v6.1h-7c-1.9,0-3.3-.5-4.3-1.6h0Z"/>
          <path class="cls-3" d="M91.9,289.9c0-.3,0-.5-.2-.7-.1-.1-.4-.2-.7-.2h-2.3v-5.7h5c2.3,0,3.5,1,3.5,3v1.3h9.5v5.3h-14.8v-3.1h0Z"/>
          <path class="cls-3" d="M117.9,306c0-1.4-.3-2.5-1-3.2-.7-.7-1.8-1.1-3.4-1.1s-3.2.4-4.8,1.2v-6.3c.7-.4,1.8-.7,3.1-1s2.6-.4,3.8-.4c3.5,0,6.1.9,7.9,2.7,1.8,1.8,2.7,4.4,2.7,7.9v15.8h-8.4v-15.5h0Z"/>
          <path class="cls-3" d="M134.1,320c-1-1.1-1.5-2.5-1.5-4.4v-19.6h8.4v17.6c0,.7.1,1.2.4,1.5s.8.4,1.5.4h1.7v6.1h-6.2c-1.9,0-3.3-.5-4.3-1.6h0Z"/>
          <path class="cls-3" d="M150.8,306.6l-2.4-4.2c3.9-4.8,8.9-7.2,14.9-7.2s7.5.9,9.8,2.8,3.5,4.5,3.5,7.8v15.8h-8.4v-15.2c0-3.1-1.6-4.7-4.9-4.7s-4.3.7-5.9,2l1.8,3v14.8h-8.4v-15h0Z"/>
          <path class="cls-3" d="M153.7,287.7h22.9v5.3h-22.9v-5.3Z"/>
          <path class="cls-3" d="M185.5,319.1c-2.4-2.1-3.6-5.3-3.6-9.5s.6-5.5,1.9-7.7c1.2-2.1,3-3.8,5.3-4.9,2.3-1.1,5-1.7,8.2-1.7,5,0,8.7,1.1,11.1,3.4,2.4,2.3,3.6,5.4,3.6,9.2v13.8h-8.4v-13.8c0-2-.5-3.4-1.4-4.5s-2.5-1.5-4.8-1.5-3.6.7-4.9,2c-1.2,1.3-1.9,3.3-1.9,5.8s.5,3.8,1.5,4.7,2.5,1.5,4.5,1.5,2.2-.2,3.2-.6v6.5c-1.4.5-3.1.7-4.9.7-4,0-7.2-1.1-9.6-3.2h0Z"/>
          <path class="cls-3" d="M221.5,321.8c-1.7-.4-3.1-.9-4.3-1.6v-6.5c2,1.4,4.7,2.1,8,2.1s4.3-.6,5.7-1.7c1.4-1.1,2-2.9,2-5.3s-.7-4.1-2-5.3-3.3-1.7-5.7-1.7-5.9.7-7.8,2.1v-6.5c1.1-.7,2.5-1.2,4.2-1.6s3.5-.5,5.4-.5c4.6,0,8.1,1.2,10.7,3.5s3.8,5.7,3.8,10-1.3,7.6-3.8,10c-2.6,2.4-6.1,3.5-10.7,3.5s-3.9-.2-5.6-.5h0Z"/>
          <path class="cls-3" d="M232.3,284.2h8.4v8.8h-8.4v-8.8Z"/>
          <path class="cls-3" d="M254.1,306c0-1.4-.3-2.5-1-3.2-.7-.7-1.8-1.1-3.4-1.1s-3.1.4-4.8,1.2v-6.3c.7-.4,1.8-.7,3.1-1s2.6-.4,3.8-.4c3.5,0,6.1.9,7.9,2.7,1.8,1.8,2.7,4.4,2.7,7.9v15.8h-8.4v-15.5h0Z"/>
        </g>
      </g>
    </g>
  </g>
</svg>