<?xml version="1.0" encoding="UTF-8"?>
<svg xmlns="http://www.w3.org/2000/svg" version="1.1" viewBox="0 0 1038 400">
  <defs>
    <style>
      .cls-1 {
        fill: #a152db;
      }

      .cls-2 {
        fill: #fff;
      }

      .cls-3 {
        fill: #dfedf2;
      }

      .cls-4 {
        fill: #f4b545;
      }

      .cls-5 {
        fill: none;
      }

      .cls-6 {
        fill: #f47aa0;
      }

      .cls-7 {
        fill: #231f20;
      }

      .cls-8 {
        fill: #79cdf6;
      }

      .cls-9 {
        fill: #ffe277;
      }

      .cls-10 {
        fill: #333;
      }

      .cls-11 {
        fill: #47acea;
      }

      .cls-12 {
        fill: #dd4a8c;
      }

      .cls-13 {
        fill: #d27cf2;
      }
    </style>
  </defs>
  <!-- Generator: Adobe Illustrator 28.7.5, SVG Export Plug-In . SVG Version: 1.2.0 Build 176)  -->
  <g>
    <g id="Image">
      <g>
        <g>
          <g>
            <path class="cls-10" d="M550.5,250.6c-6.6,0-12.9-.9-19-2.8-2.1-.6-3.3-2.9-2.7-5s2.9-3.3,5-2.7c12.2,3.7,25.7,3.2,40.2-1.6,1.5-.5,3-1.1,4.7-1.8,3-1.2,6-2.5,9.4-3.1,3-.5,5.9-.4,8.7-.2,1,0,1.9.1,2.8.1-.4-.7-.5-1.5-.5-2.3.2-1.8,1.5-3.3,3.3-3.6,3.9-.7,7.9-1.1,11.7-1.4,2-.2,4.2-.4,6.2-.7-.4-.9-.6-2-.2-3.2.9-2.7,3.8-3.1,5-3.3,5.8-.8,11.5-2,17.2-3.7-.5-.7-.9-1.6-.8-2.5,0-2.1,1.8-3.9,3.9-3.9.4,0,1.4-.5,2-.8.7-.3,1.3-.6,2-.8,2.2-.7,4.4-1.3,6.5-1.8,1.4-.4,2.8-.7,4.1-1.1-1.7-.5-2.9-2.1-2.9-3.9,0-2.1,1.8-3.9,3.9-3.9.4,0,1.2-.4,1.7-.7.5-.2,1.1-.5,1.7-.7.5-.2,1.1-.4,1.7-.6,1.1-.4,2.1-.7,3.1-1.1,2.5-1,5.1-1.8,7.5-2.6h.3c-2-.6-3.3-2.4-3-4.5.3-2.2,2.2-3.7,4.4-3.5,1.2,0,5.2-1.7,7.1-2.6,1.4-.6,2.7-1.2,3.8-1.6l.6-.2c1-.3,3-1,3.4-1.6,0,0,0-.1,0-.2,0-.2-.5-.5-.7-.5-2,.2-3.8-1-4.3-2.9-.5-1.9.4-3.9,2.2-4.7,3.2-1.4,6.5-1.8,9.4-2.1h.7c2.5-.3,5.1-.7,7-1.8,1.3-.8,2.2-2.3,2-3.3,0-.1-.1-.2-.3-.4-.7.1-1.3.3-2,.4-1.8.4-3.6-.6-4.4-2.2s-.3-3.6,1.1-4.8c1.5-1.2,3.5-1.8,5.5-1.6,5.8-1.3,11.4-2.9,17-4.9.6-.2,1.9-.6,2.3-1.1,0-.2-.2-.5-.4-.7h-.7c-2.1,0-3.8-1.6-4-3.6-.2-2.1,1.2-3.9,3.2-4.3.8-.2,1.6-.2,2.4,0,7.7,0,15.4-.8,22.9-2.2,1-.2,2.8-.5,3.4-1.2.3-.3.3-.9.1-1.2-.2-.3-.8-.6-1.1-.5-1.9.5-3.9-.6-4.6-2.4-.7-1.9,0-4,1.8-4.9,2.5-1.4,5.6-1.8,9.5-1.1.6.1,1.3.2,1.9.4,1.5.3,2.9.6,4.2.5.9,0,1.6-.3,2-.6-.1-.1-.3-.2-.4-.3-1-.8-2.3-1.8-3-3.4-.6-1.2-.5-2.6.1-3.8s1.9-1.9,3.2-2c5.3-.3,10.7-.3,15.8-.4,2.4,0,4.8,0,7.2,0,2.7,0,3.7-.4,4.1-.7-.3-.4-.8-1.1-1.2-1.5-1.1-1.4-2.6-3.1-3.1-5.4-.3-1.4.2-2.9,1.3-3.9,1.1-1,2.7-1.2,4-.7l21.1,8.3c1.3.5,2,.7,2.4.7,0,0,0-.2,0-.3-.2-.8-1-1.9-1.7-2.9l-5.7-7.8c-1.1-1.5-1-3.7.3-5.1,1.3-1.4,3.4-1.7,5-.8,7.5,4.4,15.5,7.7,23.9,9.6,2.7.6,3.6.4,4,.2.4-.3.6-1.5.2-2.5-.6-1.6-2-3.1-3.6-4.7l-.2-.2c-1.9-1.9-4.1-4.1-5.4-7.1h0c-.9-2,0-4.4,2.1-5.3,1.8-.8,3.8-.1,4.9,1.4.7.5,2.4,1.3,3.2,1.7.7.3,1.3.6,1.7.8,2.2,1.2,4.5,2.3,6.8,3.4,4.7,2.2,9.7,3.9,14.7,5.3,4.7,1.3,10.1,2.8,14.9,3,0-.6-.4-1.6-1.1-2.4-.4-.5-.8-1-1.3-1.5-1.8-2-4-4.5-4.5-8-.2-1.6.5-3.2,2-4.1s3.2-.7,4.5.3c8.9,7.1,19.4,12.4,30.4,15.3,1.9.5,3.1.4,3.5.3,0-.2,0-.8-.5-2-1.7-4.6-4-8.9-7-12.8h0c-1.4-1.8-1-4.3.7-5.6,1.7-1.4,4.3-1,5.6.7,4.1,5.2,11.3,8.7,16.6,11.2,1.3.6,2.6,1.3,3.9,1.9,5.7,2.8,11,5.4,17.2,6.6.7.1,1.1.2,1.3.2,0-.3,0-.8-.2-1.4-1.2-3.6-4.8-6.1-8.9-8.9-4-2.7-8.5-5.8-11.1-10.6h0c-1.1-1.9-.3-4.4,1.6-5.4,1.9-1.1,4.4-.3,5.4,1.6h0c.8,1.4,5.5,3.9,7.5,5,1,.5,1.9,1,2.7,1.5,4,2.4,8.3,4.6,12.6,6.5,4.3,1.9,8.8,3.5,13.4,4.8,1.3.4,2.6.8,3.8,1.3,2.3.8,4.6,1.7,6.6,1.7-2.8-3.9-6.2-7.5-9.8-10.2-1.8-1.3-2.1-3.9-.8-5.6s3.8-2.1,5.6-.8h0c1.6,1.2,5.3,2.2,8,2.8,1,.2,2,.5,2.8.7,4.2,1.2,8.5,2.1,12.7,2.8,4.2.6,8.6,1,12.9,1,1.1,0,2.3.2,3.6.4,1,.2,3,.5,4,.4-.3-.7-1.2-1.4-2-2.1-4.6-3.7-9.7-6.6-15.5-9.7-23.7-12.6-48.2-24.3-73-34.6-36.8-15.3-73.1-25.6-108-30.4-67.3-9.3-114.1.3-143,29.6-6.7,6.8-12.3,14.4-16.7,22.7-2.9,5.5-4.6,11.4-6.5,17.6-.9,3-1.8,6.2-2.9,9.3-1.9,5.4-3.6,11-5.2,16.4-4.4,14.1-8.9,28.6-16.3,41.8-19.2,34-55.8,54.9-85.2,71.7-1.9,1.1-4.4.4-5.5-1.5-1.1-1.9-.4-4.4,1.5-5.5,28.5-16.3,64-36.6,82.2-68.7,7-12.4,11.4-26.6,15.6-40.2,1.7-5.5,3.4-11.1,5.3-16.6,1-2.9,1.9-6,2.8-8.9,1.9-6.3,3.8-12.9,7.1-19.1,4.7-9,10.8-17.2,18.1-24.6,17.5-17.7,41.4-29,71-33.3,22.3-3.3,48.1-2.8,78.7,1.4,35.5,4.9,72.5,15.3,109.9,30.9,25,10.4,49.8,22.2,73.7,35,5.9,3.2,11.7,6.3,16.8,10.5,1.7,1.3,3.3,2.9,4.3,5.2,1.4,3.3.8,6.9-1.6,9.1-3.1,2.8-7.7,2.1-11,1.6-.9-.1-1.9-.3-2.5-.3-4.7,0-9.4-.4-14-1.1-3.6-.5-7.3-1.3-10.9-2.2.3.4.5.7.8,1.1.6.9,2.5,3.7,1.3,6.9-.8,2.2-2.8,3.7-5.6,4.3-4.6.9-8.7-.6-12.4-1.9-1.2-.4-2.2-.8-3.3-1.1-4.6-1.3-9.1-2.9-13.4-4.8h0c1.5,4.4.2,8.9-3.1,10.9-2.7,1.7-5.8,1.1-7.2.8-7.2-1.4-13.3-4.4-19.2-7.3-1.2-.6-2.5-1.2-3.8-1.8-1.5-.7-3-1.4-4.5-2.2.5,1.8,1.1,4.7-.4,7.4-2.1,3.8-6.7,5.1-12.6,3.5-6.9-1.8-13.7-4.5-20-7.9.1,1.6,0,3.2-.8,4.6-1.3,2.6-4,4.1-7.4,4-5.8-.2-11.7-1.9-16.8-3.3-4.8-1.4-9.6-3.1-14.2-5.1,1.2,4.2,0,8.7-3.2,11-3.8,2.8-8.5,1.7-10.6,1.2-4.3-1-8.4-2.3-12.5-3.9,0,.3.2.5.2.8.9,3.2,0,6.6-2.4,8.5-3.8,3.2-8.8,1.3-10.6.6l-11.1-4.4c0,1.4-.3,2.9-1.4,4.5-2.9,4.2-8.2,4.3-10.7,4.3-2.4,0-4.8,0-7.3,0-2.5,0-5.1,0-7.7,0,.3,1.3.3,2.9-.5,4.7-1.5,3.3-5,5.5-9.2,5.7-1.3,0-2.6,0-3.8-.3.2,2.5-.6,5.2-2.4,7-2.2,2.4-5.2,3.1-7.8,3.6-5.6,1-11.2,1.7-16.9,2,.2,2-.2,4-1.4,5.6-1.8,2.5-4.6,3.4-6.2,4-3.9,1.4-7.9,2.6-11.9,3.6,0,.1,0,.3.1.5,1,4.4-1.3,9.2-5.6,11.9-3.3,2.1-7.1,2.6-10.4,2.9h-.4c0,.2.1.4.2.7,1.5,7.4-5.6,9.9-8.6,11l-.5.2c-.8.3-1.9.8-3.1,1.3-.6.3-1.1.5-1.7.8.5,1.4.6,2.8.2,4.2-1.1,3.6-4.8,4.8-6.2,5.3l-2,.6c-2.2.7-4.4,1.4-6.5,2.2.9,1.1,1.1,2.3,1.1,3.1,0,1.4-.4,3.9-3.9,5.5-4,1.8-8,2.9-11.9,3.9-.8.2-1.5.4-2.2.6.5,1.2.5,2.6,0,3.8-.9,2.1-2.8,2.7-3.5,3-7.4,2.6-14.9,4.5-22.5,5.7,0,.3,0,.6,0,1-.3,2.1-1.7,4-3.7,5-1.4.7-2.7.8-3.7,1-2.5.3-4.9.6-7.3.8-1.4.1-2.8.3-4.2.4,0,1-.1,2-.6,2.9-1,2.1-3.1,3.4-6.1,3.8-2.7.3-5.3.2-7.7,0-2.4-.1-4.7-.3-6.8.1-2.5.4-5.1,1.5-7.7,2.6-1.7.7-3.4,1.4-5.2,2-9,3-17.7,4.5-26.1,4.5h0ZM645.6,208.8h0,0ZM661.1,196.5h0,0ZM693.2,177.1h0ZM957.5,100.8h0ZM886.4,100.7h0ZM992.5,96.7h0ZM1030.4,88.2h0Z"/>
            <path class="cls-2" d="M553.7,217.2c32-18.3,65.5-38.1,83.7-70.2,10.1-17.8,14.6-38.2,21.3-57.5,3.2-9.3,5-18.8,9.6-27.5,4.6-8.7,10.5-16.7,17.4-23.7C723.1.3,782.7.7,832,7.6c37.5,5.2,74.1,16.1,109,30.7,25,10.4,49.5,22,73.3,34.8,5.6,3,11.2,6.1,16.1,10.1,1.3,1,2.5,2.2,3.2,3.7s.6,3.4-.7,4.5c-2.4,2.2-7.8.3-10.7.3-4.5,0-9-.4-13.5-1s-8.9-1.6-13.2-2.9c-3.6-1-9.2-2-12.2-4.2,4.3,3.3,8.3,7.7,11.3,12.2.7,1,1.3,2.2.9,3.3-.4,1-1.6,1.5-2.6,1.8-4.8.9-9.3-1.7-13.8-2.9-4.7-1.3-9.4-3-13.9-5s-8.9-4.2-13.1-6.8c-3-1.8-9.9-4.9-11.6-8,4.6,8.5,17.2,11,20.2,20.1.7,2.2.6,5-1.4,6.2-1.3.8-2.9.6-4.4.3-8.1-1.6-14.7-5.3-22-8.8-6.4-3.1-13.6-6.6-18-12.3,3.2,4.2,5.8,8.9,7.7,13.9.6,1.8,1.2,3.8.3,5.4-1.4,2.6-5.2,2.3-8.1,1.6-11.6-3.1-22.5-8.6-31.9-16,.5,3,3,5.2,4.9,7.5,2.7,3.3,3.3,9.1-2.1,8.9s-10.9-1.8-15.9-3.2-10.3-3.3-15.2-5.6c-2.4-1.1-4.7-2.2-7-3.5-1.3-.7-5.7-2.4-6.3-3.7,1,2.4,2.9,4.2,4.7,6.1s3.7,3.8,4.5,6.2.4,5.5-1.7,7.1c-2,1.5-4.8,1.1-7.3.5-8.8-2-17.3-5.5-25.1-10.1,1.9,2.6,3.8,5.2,5.7,7.8,1,1.3,1.9,2.6,2.3,4.2s.1,3.4-1.1,4.5c-1.8,1.5-4.4.7-6.6-.1-7-2.8-14-5.5-21.1-8.3.8,3.5,6.4,6.1,3.8,9.9-1.6,2.3-4.8,2.5-7.5,2.6-7.6.1-15.3,0-22.9.4,1.1,2.3,5.4,3.1,3.8,6.8-.9,2.2-3.4,3.2-5.8,3.3s-4.6-.6-6.9-1-4.8-.5-6.8.7c2.1-.5,4.4.5,5.5,2.4s.8,4.4-.7,6c-1.4,1.5-3.6,2-5.6,2.4-8.3,1.5-16.8,2.2-25.2,2.2,3.5-.7,6.5,4.1,4.4,6.9-1,1.4-2.7,2-4.3,2.6-7,2.4-14.1,4.4-21.3,5.8,2.3-1.9,6.3,0,7,3s-1.2,6-3.8,7.6-5.7,2-8.7,2.3-6.1.5-8.8,1.8c2.3-.3,4.6,1.4,5,3.7.9,4.3-3.5,5.5-6.6,6.6s-9.4,4.8-12.6,4.4c1.3.2,2.8.4,3.9,1.1s2,2.2,1.6,3.5c-.4,1.5-2.1,2.1-3.6,2.6-3.1,1-6.2,1.9-9.3,3.1-1.6.6-3.2,1.1-4.9,1.7-1.3.4-3.2,1.6-4.6,1.6,2.5.1,5.1.8,7.3,1.9.6.3,1.3.8,1.3,1.5,0,.8-.8,1.4-1.6,1.7-5.7,2.6-11.7,3.6-17.5,5.4-1.4.4-3.6,1.7-5,1.7,1.8,0,3.6.5,5.2,1.4.7.4,1.5,1.1,1.2,1.9-.2.4-.7.6-1.1.8-8.1,2.8-16.6,4.9-25.1,6.1-4.2.6.2,1.5,0,3.9-.1.8-.8,1.5-1.5,1.9s-1.6.5-2.5.6c-6.2.8-12.4,1.1-18.6,2.2,1,.3,2,.7,2.7,1.4s1.2,1.9.7,2.8c-.5,1.1-1.8,1.4-3,1.5-5,.6-9.9-.7-14.8.2-4.7.8-9,3.3-13.5,4.8-13.9,4.6-28.6,6-42.7,1.7"/>
          </g>
          <g>
            <path class="cls-3" d="M939.4,80.2c-.3,0-.5,0-.8,0-6.4-.5-12-4-17.3-7.6-7.4-5-15.7-11-21.3-19.2-.2-.2,0-.5.1-.7s.5,0,.7.1c5.5,8.1,13.7,14,21,18.9,5.2,3.5,10.7,6.9,16.8,7.4.9,0,2,0,2.7-.5,1-.9.9-2.6.7-3.9-1.4-8.4-4.6-16.7-9.2-23.9-.2-.2,0-.5.2-.7.2-.2.5,0,.7.2,4.7,7.3,7.9,15.7,9.3,24.3.2,1.5.4,3.6-1,4.8-.8.6-1.7.8-2.6.8h0Z"/>
            <path class="cls-3" d="M981.2,81.9c-.4,0-.8,0-1.2,0-6.7-.9-13.5-3.2-20.8-7.3-6.5-3.5-12.6-7.9-18.4-12.1-.2-.2-.3-.5-.1-.7.2-.2.5-.3.7-.1,5.8,4.2,11.9,8.5,18.3,12,7.2,3.9,13.9,6.3,20.5,7.1,1.7.2,2.8,0,3.2-.8.4-.7.2-1.6-.2-2.6-3.3-9.4-9-17.8-16.6-24.3-.2-.2-.2-.5,0-.7s.5-.2.7,0c7.7,6.6,13.5,15.2,16.9,24.7.4,1.1.7,2.3,0,3.4-.5.9-1.5,1.3-3,1.3h0Z"/>
            <path class="cls-3" d="M741.1,129.5c-5.9,0-11.8-.3-17.7-.8-.3,0-.5-.3-.5-.6s.3-.5.5-.4c9.4.9,19,1.1,28.4.5,2.1-.1,3.3-.6,3.7-1.6.4-1-.2-2.3-1.7-3.7-4.7-4.5-10-8.2-15.8-10.9-.2-.1-.4-.4-.2-.7.1-.2.4-.4.7-.2,6,2.8,11.4,6.5,16.1,11.1,1.8,1.8,2.5,3.4,1.9,4.8-.7,1.8-3,2.1-4.6,2.2-3.6.2-7.2.3-10.8.3h0Z"/>
            <path class="cls-3" d="M759.7,120.9c-2.1,0-4.3-.2-6.4-.6-.3,0-.5-.3-.4-.6,0-.3.3-.4.6-.4,5.2,1,10.7.7,15.8-.8,1.3-.4,3.4-1.2,3.5-2.9,0-1-.7-1.9-1.5-2.8-5.2-5.4-11.3-9.7-18-12.8-.2-.1-.4-.4-.2-.7s.4-.4.7-.2c6.9,3.2,13.1,7.6,18.3,13.1,1,1,1.9,2.2,1.8,3.5,0,1.7-1.6,3-4.2,3.8-3.2.9-6.5,1.4-9.8,1.4h0Z"/>
            <path class="cls-3" d="M810.5,101.4c-.4,0-.8,0-1.2,0-5.7-.4-11.3-1.7-16.7-3.8-.3,0-.4-.4-.3-.7,0-.3.4-.4.7-.3,5.2,2.1,10.7,3.4,16.3,3.8,1.7.1,3.5,0,4.7-1,1.7-1.5,1.3-4.4.6-6.6-2.7-8.7-8-16.8-14.9-22.8-.2-.2-.2-.5,0-.7s.5-.2.7,0c7.1,6.1,12.5,14.3,15.2,23.2,1.1,3.6.8,6.2-.9,7.7-1.1,1-2.7,1.3-4.2,1.3h0Z"/>
            <path class="cls-3" d="M781.8,109.5c-4.8,0-9.6-.6-14.3-1.8-.3,0-.4-.3-.4-.6,0-.3.3-.4.6-.4,6.7,1.7,13.6,2.2,20.5,1.4,3.3-.4,5.2-1.4,5.9-3.1.6-1.6,0-3.3-.8-4.9-3.2-7-8.3-12.9-14.8-17.2-.2-.2-.3-.5-.1-.7.2-.2.5-.3.7-.1,6.6,4.4,11.8,10.5,15.1,17.6.8,1.6,1.5,3.8.8,5.7-.8,2.1-3,3.3-6.7,3.7-2.2.2-4.3.4-6.5.4h0Z"/>
            <path class="cls-3" d="M838.1,88.7c-.8,0-1.7-.2-2.5-.4-.5,0-.9-.2-1.3-.2-3.9-.5-7.8-1.6-11.5-3.3-7.4-3.3-13.7-8.9-17.8-15.6-.1-.2,0-.5.2-.7s.5,0,.7.2c4,6.5,10.1,11.9,17.4,15.2,3.6,1.6,7.4,2.7,11.2,3.2.4,0,.9.2,1.4.2,1.1.2,2.4.5,3.2.2,1.2-.4,1.9-1.8,2.2-4.4.8-8.3-1.1-16.7-5.3-23.9-.1-.2,0-.5.2-.7s.5,0,.7.2c4.3,7.3,6.3,16,5.5,24.5,0,1.1-.4,4.4-2.8,5.2-.4.1-.8.2-1.2.2h0Z"/>
            <path class="cls-3" d="M877.5,88.9h-.2c-1.6,0-3-.6-4.5-1.1-14.4-5.6-25.2-13.3-32.1-22.8-.2-.2-.1-.5.1-.7s.5-.1.7.1c6.8,9.4,17.5,16.9,31.7,22.5,1.4.6,2.8,1,4.2,1.1,1.5,0,2.9-.5,3.6-1.5,1.1-1.5.7-3.8,0-5.8-3-9.7-7.2-19-12.6-27.7-.2-.2,0-.5.2-.7.2-.2.5,0,.7.2,5.4,8.7,9.7,18.1,12.7,27.9.7,2.2,1.2,4.8-.2,6.7-.9,1.2-2.5,1.9-4.2,1.9h0Z"/>
            <path class="cls-3" d="M911.3,84.9c-1.2,0-2.5-.4-3.4-.8-11.2-4.2-21.7-10.7-30.5-18.8-.2-.2-.2-.5,0-.7.2-.2.5-.2.7,0,8.7,8,19.2,14.4,30.2,18.6,1.5.6,3.7,1.2,5,0,1-.8,1.2-2.5,1.2-3.6.1-4.7-1-9.3-3.3-13.4-.1-.2,0-.6.2-.7s.5,0,.7.2c2.4,4.2,3.5,9,3.4,13.9,0,1.3-.2,3.3-1.6,4.4-.7.6-1.6.8-2.5.8h0Z"/>
            <path class="cls-3" d="M714.6,144.3c-2,0-4,0-6-.1-.3,0-.5-.2-.5-.5s.2-.5.5-.5c5.4.2,11,.3,16.4-.7,2.7-.5,4.3-1.4,5-2.8.9-1.8,0-4-1.2-5.5-.5-.7-1.2-1.3-1.8-2-.9-.9-1.8-1.8-2.5-2.9-.2-.2,0-.5.2-.7.2-.1.5,0,.7.1.7,1,1.5,1.9,2.4,2.8.6.6,1.3,1.3,1.9,2.1,1.8,2.2,2.3,4.7,1.4,6.6-1.1,2.3-3.8,3-5.7,3.4-3.5.7-7.1.8-10.6.8h0Z"/>
            <path class="cls-3" d="M799.9,69.3c-1.3,0-2.7-.3-4.4-.9-10.3-3.9-19.4-11.1-25.6-20.2-.2-.2,0-.5.1-.7.2-.2.5,0,.7.1,6.1,9,15,16,25.1,19.8,3.2,1.2,5.5,1.2,6.9-.1,1.5-1.4,1.4-4,1.2-6-1.2-9.2-3.8-18-7.8-26.3-.1-.2,0-.5.2-.7s.5,0,.7.2c4,8.4,6.7,17.4,7.8,26.7.3,2.3.4,5.1-1.5,6.8-.9.8-2.1,1.3-3.6,1.3h0Z"/>
            <path class="cls-3" d="M775.3,83.2c-1.4,0-2.8-.4-4-.7-10.4-3.2-20.4-7.8-29.6-13.7-.2-.2-.3-.5-.2-.7.2-.2.5-.3.7-.2,9.1,5.8,19,10.4,29.3,13.6,2.2.7,4.8,1.2,6.5-.3,1.2-1.1,1.5-3,1.1-5.9-1.5-9.2-5.8-18-12-24.9-.2-.2-.2-.5,0-.7s.5-.2.7,0c6.4,7,10.8,16.1,12.3,25.5.3,2.1.6,5-1.4,6.8-1,.9-2.2,1.2-3.5,1.2h0Z"/>
            <path class="cls-3" d="M752.9,99.5h-.5c-11.3-.3-22.4-4.2-31.4-11-.2-.2-.3-.5,0-.7.2-.2.5-.3.7,0,8.8,6.7,19.7,10.6,30.8,10.8,1.5,0,3.3,0,4.2-1.2,1.1-1.2.9-3.3-.5-6.1-4.1-7.8-9.2-15.1-15.2-21.5-.2-.2-.2-.5,0-.7s.5-.2.7,0c6.1,6.5,11.3,13.8,15.4,21.8,1.7,3.2,1.8,5.6.4,7.2-1.1,1.3-2.9,1.5-4.5,1.5h0Z"/>
            <path class="cls-3" d="M720.3,115.1c-7.2,0-14.5-1.3-21.1-4-.3,0-.4-.4-.3-.7s.4-.4.7-.3c10,4,21.4,5,32,2.8,1.8-.4,4-1,4.8-2.7,1.2-2.5-1.3-5.3-2.9-6.8-5.5-5.1-11.8-9.2-18.8-12.2-.2-.1-.4-.4-.3-.7.1-.2.4-.4.7-.3,7,3,13.4,7.2,19,12.3,1.8,1.7,4.6,4.9,3.1,8-1,2.1-3.4,2.8-5.5,3.2-3.7.8-7.6,1.2-11.4,1.2h0Z"/>
            <path class="cls-3" d="M836.8,60.1c-1.7,0-3.3-.8-4-1.1-9.7-4.7-18.8-10.4-27.2-17-2.7-2.1-5.4-4.4-6.9-7.6-.1-.2,0-.5.2-.7.2-.1.5,0,.7.2,1.4,3,4,5.2,6.6,7.2,8.4,6.6,17.5,12.2,27,16.9,2.5,1.2,4.3,1.4,5.4.4,1-.9,1.2-2.6.5-5.2-2.7-9.6-7.7-18.6-14.3-26-.2-.2-.2-.5,0-.7.2-.2.5-.2.7,0,6.8,7.5,11.8,16.6,14.6,26.4.8,3,.6,5-.8,6.2-.7.6-1.6.8-2.5.8h0Z"/>
            <path class="cls-3" d="M866.1,53.5c-1.5,0-3-.5-4.4-1.1-9.2-3.7-18.2-8.2-26.7-13.3-.2-.1-.3-.5-.2-.7.1-.2.5-.3.7-.2,8.4,5.2,17.4,9.6,26.5,13.3,1.9.8,4.1,1.5,5.9.6,1.4-.7,2.3-2.3,2.3-4.2,0-1.8-.6-3.6-1.2-5.2-3.3-8.3-8-16-14-22.8-.2-.2-.2-.5,0-.7.2-.2.5-.2.7,0,6,6.8,10.8,14.6,14.2,23,.7,1.7,1.4,3.6,1.3,5.6,0,2.3-1.2,4.3-2.9,5.1-.7.4-1.5.5-2.3.5h0Z"/>
            <path class="cls-3" d="M897.1,50.6c-.8,0-1.8-.2-2.9-.5-9.2-2.6-17.9-6.8-25.7-12.4-.2-.2-.3-.5-.1-.7.2-.2.5-.3.7-.1,7.7,5.5,16.3,9.6,25.4,12.2,1.8.5,4.1.8,5.1-.6.7-1,.4-2.5-.8-4.6-6-10-14.2-18.8-23.8-25.4-.2-.2-.3-.5-.1-.7.2-.2.5-.3.7-.1,9.7,6.7,18,15.6,24.1,25.7,1.5,2.5,1.7,4.3.8,5.7-.7,1-1.8,1.5-3.3,1.5h0Z"/>
            <path class="cls-3" d="M932.3,50.7c-.9,0-1.9-.2-2.8-.4-11.5-3-22.8-7-33.7-12-.2-.1-.4-.4-.2-.7s.4-.4.7-.2c10.8,4.9,22.1,8.9,33.5,11.9,1.6.4,3.4.7,4.5-.2.3-.2.4-.5.4-.9,0-1.1-.8-3.8-6.8-10.1-3.5-3.6-7.6-6.5-12.1-8.6-.2-.1-.4-.4-.2-.7.1-.2.4-.4.7-.2,4.6,2.1,8.8,5.1,12.4,8.8,4.8,5,7.2,8.6,7.1,10.8,0,.7-.3,1.2-.8,1.6-.8.6-1.7.9-2.7.9Z"/>
            <path class="cls-3" d="M714.2,130c-8.5,0-16.9-1.3-25-3.8-.3,0-.4-.4-.3-.6,0-.3.4-.4.6-.3,9.2,2.9,18.7,4.1,28.3,3.7,1.5,0,3.5-.3,4.2-1.7.5-1,.2-2.4-.2-3.3-1.3-3.6-3.5-6.8-6.4-9.3-.2-.2-.2-.5,0-.7s.5-.2.7,0c3,2.6,5.3,6,6.7,9.8.4,1.1.8,2.8.1,4.1-1,1.8-3.3,2.2-5.1,2.2-1.2,0-2.5,0-3.7,0h0Z"/>
            <path class="cls-3" d="M702.3,145.5c-.3,0-.5,0-.7,0-8-.3-16.1-1.2-24-2.8-.3,0-.5-.3-.4-.6s.3-.4.6-.4c7.8,1.6,15.8,2.5,23.8,2.8,1.8,0,4.3,0,5.3-1.7.6-1.1.3-2.6,0-3.8-1.1-3.8-3.1-7.3-5.8-10.2-.2-.2-.2-.5,0-.7s.5-.2.7,0c2.8,3,4.9,6.6,6,10.6.4,1.4.7,3.1,0,4.5-1.1,1.9-3.5,2.2-5.5,2.2h0Z"/>
            <path class="cls-3" d="M686.5,157.5c-6.1,0-12.1-1.4-17.6-4.1-.2-.1-.3-.4-.2-.7s.4-.4.7-.2c6.2,3,13,4.4,19.9,3.9,2.1-.1,3.3-.7,3.7-1.8.4-1.1-.3-2.4-2.2-3.9l-7.3-6.2c-.2-.2-.2-.5,0-.7.2-.2.5-.2.7,0l7.3,6.2c.8.7,3.3,2.8,2.5,5.1-.5,1.4-2,2.3-4.5,2.4-.9,0-1.9.1-2.8.1h0Z"/>
            <path class="cls-3" d="M613.8,220.4c-1,0-2-.4-2.8-.9-2.7-1.6-4.8-3.7-6.3-6.2-.1-.2,0-.6.2-.7.2-.1.5,0,.7.2,1.4,2.4,3.4,4.4,6,5.9.8.4,2.2,1.1,3.2.6.7-.4.9-1.3,1-2.2.3-3.6.2-7.3-.1-11,0-.3.2-.5.5-.6.3,0,.5.2.5.4.4,3.7.4,7.5.1,11.2,0,1.1-.3,2.4-1.5,3-.4.2-.9.3-1.4.3h0Z"/>
            <path class="cls-3" d="M624.5,213c-.3,0-.7,0-1-.1-1-.2-1.9-.8-2.5-1.2-1.8-1.3-3.3-2.9-4.5-4.7-.2-.2,0-.5.2-.7.2-.1.5,0,.7.2,1,1.7,2.5,3.2,4.2,4.4.6.4,1.3.9,2.2,1.1.8.2,1.7,0,2.2-.3.6-.4.8-1.2.9-2,.4-3.4,0-6.9-1.3-10.1,0-.3,0-.6.3-.6.2-.1.5,0,.7.3,1.4,3.4,1.9,7.1,1.4,10.6-.1,1-.4,2-1.3,2.7-.5.4-1.2.6-2,.6h0Z"/>
            <path class="cls-3" d="M638,205c-.5,0-1.1,0-1.7-.2-3.3-.8-6.3-2.5-8.7-4.9-.2-.2-.2-.5,0-.7.2-.2.5-.2.7,0,2.3,2.2,5.2,3.8,8.3,4.6,1,.2,2.3.4,3-.3.5-.5.5-1.4.5-2.3-.2-3.9-1-7.7-2.3-11.3,0-.3,0-.6.3-.6.3-.1.5,0,.7.3,1.4,3.7,2.2,7.6,2.4,11.6,0,1.1,0,2.2-.8,3-.5.6-1.3.9-2.2.9h0Z"/>
            <path class="cls-3" d="M649.6,196.7c-.3,0-.6,0-.9,0-3.6-.5-7-2.1-9.7-4.4-.2-.2-.2-.5,0-.7s.5-.2.7,0c2.6,2.2,5.8,3.7,9.2,4.2,1,.1,1.6,0,2-.3.4-.4.4-1.2.3-1.9-.4-4.4-1-8.8-1.9-13.1,0-.3.1-.5.4-.6s.5.1.6.4c.9,4.4,1.5,8.8,1.9,13.2,0,.7.2,1.9-.6,2.7-.5.6-1.3.7-2,.7h0Z"/>
            <path class="cls-3" d="M661.9,186.8c-3.9,0-7.8-1.6-10.6-4.3-.2-.2-.2-.5,0-.7.2-.2.5-.2.7,0,2.7,2.6,6.5,4.1,10.2,4-1-4.5-2.3-8.9-3.8-13.2,0-.3,0-.6.3-.6.3-.1.5,0,.6.3,1.7,4.5,3,9.2,4,13.9,0,.1,0,.3,0,.4,0,.1-.2.2-.4.2-.3,0-.6,0-1,0h0Z"/>
            <path class="cls-3" d="M670.8,177c-.3,0-.7,0-1,0-3.1-.3-6.2-1.1-9-2.3-.2-.1-.4-.4-.3-.6.1-.3.4-.4.7-.3,2.8,1.2,5.7,1.9,8.8,2.2.8,0,1.6.1,2.3-.2,1-.5,1.3-1.9,1.2-2.9-.2-1.2-.9-2.4-1.5-3.4l-5.4-8.9c-.1-.2,0-.5.2-.7.2-.1.5,0,.7.2l5.4,8.9c.7,1.1,1.5,2.4,1.7,3.8.2,1.4-.3,3.2-1.7,3.9-.6.3-1.2.4-1.8.4h0Z"/>
            <path class="cls-3" d="M679.9,166.2c-.5,0-1,0-1.5-.1l-7.6-1.2c-.3,0-.5-.3-.4-.6,0-.3.3-.5.6-.4l7.6,1.2c1,.2,2.1.3,2.7-.3.5-.4.7-1,.8-2.1.1-2-.2-4-.9-5.8,0-.3,0-.6.3-.6.2-.1.5,0,.7.3.8,2,1.2,4.1,1,6.2,0,.8-.2,2.1-1.1,2.8-.6.5-1.3.6-2,.6h0Z"/>
            <path class="cls-3" d="M602.7,224.6c-.6,0-1.3-.2-2.1-.7-2.8-1.6-5.1-4.1-6.4-7.1-.1-.3,0-.6.3-.7.2-.1.5,0,.7.3,1.2,2.8,3.3,5.2,5.9,6.6,1,.5,1.7.7,2.2.4.5-.3.9-.9,1.1-1.7.7-2,1.2-4,1.6-6.1,0-.3.3-.5.6-.4s.5.3.4.6c-.3,2.1-.9,4.2-1.6,6.2-.3.9-.8,1.8-1.6,2.2-.3.1-.7.2-1,.2h0Z"/>
            <path class="cls-3" d="M589.5,229.1c-.7,0-1.5-.4-2.3-1.1-1.7-1.4-2.9-3.4-3.5-5.5,0-.3,0-.5.3-.6.3,0,.5,0,.6.4.5,1.9,1.6,3.7,3.2,5,.7.6,1.4.9,1.9.8s1-.6,1.5-1.5c1.2-2.3,1.6-5.2,1-7.7,0-.3.1-.5.4-.6.3,0,.5.1.6.4.6,2.8.2,5.9-1.1,8.4-.6,1.2-1.3,1.9-2.2,2-.1,0-.3,0-.4,0h0Z"/>
            <path class="cls-3" d="M579,231.5c0,0-.2,0-.3,0-1-.1-1.6-.9-2.1-1.5-.8-1-1.5-2.2-2-3.4-.1-.2,0-.6.2-.7s.5,0,.7.3c.5,1.1,1.1,2.2,1.9,3.1.4.5.9,1,1.5,1.1.5,0,1-.2,1.3-.6.4-.4.6-1.1.8-1.6.5-1.6.8-3.4.7-5.2,0-.3.2-.5.5-.5.3,0,.5.2.5.5.1,1.9-.1,3.8-.7,5.6-.2.6-.5,1.4-1,1.9s-1.2.9-1.9.9h0Z"/>
            <path class="cls-3" d="M583.2,223.4c-.9,0-1.9-.4-2.7-1.2-.7-.7-1.2-1.6-1.8-2.4-.1-.2,0-.5.2-.7.2-.1.5,0,.7.2.5.8.9,1.6,1.6,2.2.7.6,1.5,1,2.2.9.6,0,1.3-.4,1.8-.9.4-.5.8-1.1,1.1-1.9.6-1.5.9-3.1,1.1-4.6,0-.3.3-.4.6-.4.3,0,.5.3.4.6-.3,1.6-.6,3.2-1.2,4.8-.4,1-.8,1.7-1.3,2.2-.7.7-1.6,1.2-2.5,1.2h-.2,0Z"/>
            <path class="cls-3" d="M592.9,219.2c-.8,0-1.6-.6-2.2-1.1l-2.1-1.9c-.2-.2-.2-.5,0-.7s.5-.2.7,0l2.1,1.9c.6.5,1.3,1.1,1.9.8.4-.2.7-.7.9-1.2.6-1.6,1-3.4,1.3-5.1,0-.3.3-.5.6-.4s.5.3.4.6c-.2,1.8-.7,3.6-1.3,5.3-.3.7-.7,1.5-1.5,1.8-.2,0-.4.1-.7.1h0Z"/>
            <path class="cls-3" d="M602.8,213.4c-.4,0-.8,0-1.2-.1-1.5-.3-3-.9-4.3-1.7-.2-.1-.3-.4-.2-.7s.5-.3.7-.2c1.2.8,2.5,1.3,4,1.6.6.1,1.3.2,1.8,0,.5-.3.8-1,1-1.6.5-1.4.8-2.8,1-4.2,0-.3.3-.5.6-.4.3,0,.5.3.4.6-.2,1.5-.6,3-1.1,4.4-.3.8-.6,1.6-1.4,2.1-.4.3-.9.4-1.4.4h0Z"/>
            <path class="cls-3" d="M616,206.2c-.4,0-.8,0-1.2-.2-2-.5-3.9-1.4-5.5-2.6-.2-.2-.3-.5-.1-.7.2-.2.5-.3.7-.1,1.5,1.1,3.3,2,5.2,2.4.8.2,1.4.2,1.7,0,.3-.2.4-.7.5-1.1.6-2.3.7-4.7.5-7.1,0-.3.2-.5.5-.6.3,0,.5.2.5.4.2,2.5,0,5-.5,7.4-.2.6-.3,1.2-.8,1.6-.4.4-.9.5-1.4.5h0Z"/>
            <path class="cls-3" d="M626.9,199.8c-.9,0-1.8-.4-2.5-.8-1.7-1-3.2-2.4-4.2-4-.2-.2,0-.5.1-.7.2-.1.5,0,.7.1,1,1.5,2.3,2.8,3.9,3.7.7.4,1.9.9,2.8.4.8-.5,1-1.7,1.1-2.7.2-2.8.2-5.5,0-8.3,0-.3.2-.5.5-.6.3,0,.5.2.5.4.3,2.8.3,5.7,0,8.5-.1,1.2-.4,2.7-1.6,3.4-.4.3-.9.4-1.3.4h0Z"/>
            <path class="cls-3" d="M636.2,189.9c-.7,0-1.5-.1-2.4-.4-1.3-.4-2.7-.8-4-1.3-.3-.1-.4-.4-.3-.6,0-.3.4-.4.7-.3,1.3.5,2.6.9,3.9,1.3,2,.5,3.4.4,4.2-.4.6-.6.9-1.7.7-3.3-.3-2.9-1.4-5.8-3.1-8.1-.2-.2-.1-.5.1-.7s.5-.1.7.1c1.8,2.5,3,5.5,3.3,8.6.2,1.9-.1,3.2-1,4.1-.7.7-1.6,1-2.7,1h0Z"/>
            <path class="cls-3" d="M646,181.4c-.2,0-.5,0-.8,0-2.5-.2-5-.9-7.2-2.1-.2-.1-.3-.4-.2-.7.1-.2.4-.3.7-.2,2.1,1.1,4.5,1.8,6.8,2,1.2.1,2.9,0,3.6-1.1.7-1,.3-2.4,0-3.5-1.1-3.5-2.9-6.7-5.1-9.6-.2-.2-.1-.5,0-.7s.5-.1.7,0c2.3,3,4.1,6.3,5.3,9.9.4,1.3.8,3,0,4.4-.7,1.1-2,1.6-3.8,1.6h0Z"/>
            <path class="cls-3" d="M656.4,172.7c-.2,0-.5,0-.8,0-2.4-.2-4.8-.6-7.2-1.1-.3,0-.4-.3-.4-.6,0-.3.3-.4.6-.4,2.3.5,4.7.8,7.1,1.1.6,0,1.2,0,1.7-.2.4-.3.7-.8.7-1.5,0-.7-.3-1.3-.5-1.9-1.8-4.1-4.5-8-7.9-11-.2-.2-.2-.5,0-.7.2-.2.5-.2.7,0,3.4,3.2,6.2,7.1,8.1,11.4.3.7.6,1.5.6,2.3,0,1-.4,1.9-1.2,2.4-.5.3-1,.4-1.5.4h0Z"/>
            <path class="cls-3" d="M659.5,161.9c-1.7,0-3.3-.2-5-.5-.3,0-.4-.3-.4-.6s.3-.4.6-.4c2.6.6,5.3.7,8,.3,1.2-.2,1.9-.5,2.2-1.1.3-.5.2-1.2-.3-2.2-1.9-4.1-6.2-6.9-9.6-9.2-.2-.1-.3-.5-.1-.7.2-.2.5-.3.7-.1,3.5,2.3,7.9,5.2,9.9,9.6.6,1.3.7,2.3.2,3.1-.6,1.1-2,1.5-3,1.6-1.1.2-2.2.2-3.3.2h0Z"/>
            <path class="cls-3" d="M664.2,145.9c-2.4,0-4.8-.3-7.2-.8-.3,0-.4-.3-.4-.6s.3-.4.6-.4c5.5,1.2,11.2,1,16.5-.7,1.6-.5,2.5-1.1,2.6-2,.2-.9-.5-1.8-1.1-2.6-3.4-4-7.7-7.5-12.3-10-.2-.1-.3-.4-.2-.7.1-.2.4-.3.7-.2,4.8,2.5,9.1,6.1,12.6,10.2.8,1,1.6,2.1,1.4,3.5-.2,1.2-1.3,2.1-3.3,2.8-3.2,1-6.5,1.5-9.8,1.5h0Z"/>
            <path class="cls-3" d="M678.3,126.6c-4.3,0-8.7-.5-12.9-1.5-.3,0-.4-.3-.4-.6,0-.3.3-.4.6-.4,6.7,1.6,13.6,1.9,20.4.9.5,0,.9-.2,1.2-.4.3-.3.2-.9-.2-1.7-3.2-6.6-8.5-12-15-15.3-.2-.1-.3-.4-.2-.7.1-.2.4-.3.7-.2,6.7,3.4,12.2,9,15.5,15.7.2.4.9,1.8,0,2.8-.5.6-1.2.7-1.8.8-2.6.4-5.2.5-7.9.5h0Z"/>
            <path class="cls-3" d="M693,110.7c-1,0-2,0-2.9-.2-5.4-.6-10.8-1.7-16-3.4-.3,0-.4-.4-.3-.6,0-.3.4-.4.6-.3,5.1,1.6,10.4,2.8,15.8,3.3,1.7.2,3.6.3,5.4,0,.5-.1,2.3-.7,2.7-2.1.3-1.2-.6-2.5-1.4-3.5-4.2-5.2-9.5-9.5-15.4-12.5-.2-.1-.3-.4-.2-.7.1-.2.4-.3.7-.2,6,3.1,11.5,7.5,15.7,12.8.9,1.2,2,2.7,1.5,4.4-.3,1.3-1.6,2.4-3.4,2.8-.9.2-1.9.3-2.8.3h0Z"/>
            <path class="cls-3" d="M709,90.4c-8.9,0-17.9-1.6-26.2-4.7-.3,0-.4-.4-.3-.6,0-.3.4-.4.6-.3,9.8,3.6,20.4,5.2,30.8,4.5,2.3-.2,3.7-.8,4.1-1.9.5-1.3-.4-2.8-1.2-3.9-6-8.4-13.3-15.7-21.7-21.7-.2-.2-.3-.5-.1-.7.2-.2.5-.3.7-.1,8.5,6.1,15.9,13.5,22,22,1,1.4,2,3.1,1.3,4.9-.6,1.5-2.2,2.3-5,2.5-1.6.1-3.3.2-4.9.2h0Z"/>
            <path class="cls-3" d="M736.3,68.3c-1.3,0-2.7-.3-4-.6-10.9-2.8-21.3-7.1-30.9-12.7-.2-.1-.3-.5-.2-.7.1-.2.5-.3.7-.2,9.6,5.6,19.9,9.9,30.7,12.6,2.5.6,5.1,1,6.9-.3,1.2-.9,2-2.5,2-4.3,0-1.6-.3-3.2-1-5.1-3.5-10.2-9.6-19.4-17.7-26.5-.2-.2-.2-.5,0-.7s.5-.2.7,0c8.3,7.2,14.5,16.5,18,26.9.6,1.7,1.1,3.6,1,5.5,0,2.2-1,4.1-2.5,5.1-1.1.8-2.4,1.1-3.7,1.1h0Z"/>
            <path class="cls-3" d="M768.2,47.9c-1.2,0-2.5-.4-3.6-.8-12.6-4.5-24.3-11-34.8-19.2-.2-.2-.3-.5,0-.7.2-.2.5-.3.7,0,10.5,8.1,22.1,14.6,34.5,19,1.7.6,4,1.2,5.4,0,1-1,1.1-2.6,1-4-.5-10.1-5.9-19.9-14.2-25.6-.2-.2-.3-.5-.1-.7.2-.2.5-.3.7-.1,8.5,5.9,14.1,16,14.6,26.4,0,1.6,0,3.5-1.4,4.8-.8.7-1.8,1-2.8,1h0Z"/>
            <path class="cls-3" d="M796.1,32.9c-1.4,0-2.9-.5-4-1-9.8-4-18.9-10-26.5-17.4-.2-.2-.2-.5,0-.7.2-.2.5-.2.7,0,7.4,7.3,16.5,13.3,26.1,17.2,2.8,1.1,4.6,1.2,5.8.2,1.5-1.2,1.4-3.8,1-5.7-1.3-5.9-4.1-11.4-8.3-15.8-.2-.2-.2-.5,0-.7s.5-.2.7,0c4.3,4.6,7.2,10.2,8.5,16.3.7,3.1.2,5.4-1.3,6.7-.8.7-1.8.9-2.8.9h0Z"/>
            <path class="cls-3" d="M823.2,26.1c-.4,0-.8,0-1.2,0-9-.8-17.6-4.1-24.9-9.5-.2-.2-.3-.5,0-.7.2-.2.5-.3.7-.1,7.1,5.3,15.5,8.5,24.4,9.3,1.4.1,3.2.1,4.1-.9.8-.9.9-2.3.3-4.5-.8-3.2-2.1-6.2-3.7-9-.1-.2,0-.6.2-.7.2-.1.5,0,.7.2,1.7,2.9,2.9,6,3.8,9.3.4,1.6.8,3.9-.6,5.4-1,1-2.3,1.3-3.7,1.3h0Z"/>
            <path class="cls-3" d="M851.4,21.6c-.5,0-1.1,0-1.6-.2-8.8-1.7-17.1-4.8-24.7-9.4-.2-.1-.3-.4-.2-.7.1-.2.5-.3.7-.2,7.6,4.5,15.8,7.6,24.4,9.2,1,.2,2,.3,2.8-.2.9-.6.9-2,.4-2.9-.5-1.1-1.6-1.9-2.6-2.6-.2-.2-.3-.5-.1-.7s.5-.3.7-.1c1,.8,2.2,1.6,2.9,2.9.7,1.3.6,3.3-.7,4.2-.6.4-1.2.5-1.9.5h0Z"/>
          </g>
          <path class="cls-3" d="M574.8,217.7c32.7-7.5,57-34,72.5-62.6,20.1-36.1,29.4-78.5,56.7-110.3,16.4-19.3,40-31.3,64.6-35.9,32.9-6.3,66.5-.8,98.6,7.2.2,0,.2.2.2.3,0,.1-.2.2-.3.2-43.5-9.6-91.8-14.9-132.5,7.1-49.5,26.8-59.3,87.3-85.3,132.6-14.1,25.2-34.7,48.5-62.4,58.6-3.9,1.4-7.9,2.5-12,3.4-.2,0-.3,0-.3-.2,0-.1,0-.3.2-.3h0Z"/>
        </g>
        <g>
          <g>
            <path class="cls-10" d="M922.2,370.4c-2.4,0-5.1-1.4-7.3-4.1-6.9-8.4-13.5-17.1-19.7-26l.5,4.8c.7,6.5-2.3,8.8-4.2,9.6-2,.8-5.2,1.1-9.1-2.5-3.3-3.1-6.5-6.5-9.3-10-.7-.9-1.4-1.9-2-3-1.4,2.5-3.6,2.9-4.4,3-2.8.2-4.6-1.7-5.2-2.4-3.9-4.2-7.3-9-10.1-14-.5-.9-1-1.9-1.4-2.8-.3-.6-.6-1.2-.8-1.8-.4.6-1,1.2-1.6,1.7-1.2.9-2.8,1.3-4.2,1.1-2.7-.4-4.1-2.4-4.7-3.3-2.4-3.5-4.6-7.1-6.7-10.6-1.2-1.9-2.3-3.8-3.5-5.7-1.3-2.1-2.8-4.1-4.4-6.2-1.6,1.9-3.9,2.9-6.3,2.5-2.5-.4-4.1-2.1-4.8-2.9-3.9-4.1-7.3-8.7-10.1-13.6-.3.4-.7.8-1.1,1.2-1,.8-3.2,1.8-6.5,0-4.3-2.4-8.5-5.1-12.4-8.2l-.2-.2c-1.4-1.1-2.9-2.3-4.2-3.9-.3.3-.6.6-.9.8-.9.7-2.5,1.4-4.9,1-3.1-.5-5.1-2.3-6.8-3.8l-4.3-3.7c-.2.7-.6,1.4-1.3,2.1-1,1-2.8,2-5.8,1.3-2.6-.6-5.1-1.5-7.5-2.7-.5-.2-1-.5-1.4-.8-.4-.2-.8-.5-1.1-.6-.2,0-.5-.2-.7-.2-.6-.2-1.4-.5-2.2-.9-1.9-1-3.8-2-5.7-3-.6,2.4-2.3,4.2-4.5,5-2.7.9-5.2-.2-6.3-.7-1.7-.7-3.2-1.6-4.6-2.4-.8-.4-1.5-.9-2.3-1.3-.7-.4-1.3-.7-2-1.1-.7,1.4-1.9,2.5-3.3,3.2-2.8,1.3-5.6,0-6.8-.4l-1-.4c-1.5-.6-3-1.2-4.5-2.1-.6-.3-1.1-.6-1.6-1-.6-.4-1.1-.7-1.7-1-.4-.2-.9-.4-1.3-.6-.2,1.4-.9,2.6-2.2,3.7-2.9,2.3-6.6,1.7-8.2,1.5-1.5-.2-2.9-.5-4.3-.8,0,.4,0,.8.1,1.2.2,2.1-1.3,3.9-3.4,4.2-4.3.7-8.8.2-13-1.3-.7,2.8-2.5,4.4-4.2,5.4-2.2,1.1-4.8,1.4-7.3.6l-4-1.2c-1.1,2.3-3.5,4-6.3,4.5-2.1.4-4,0-5.8-.3-1.7-.4-3.3-.8-4.9-1.3-.3,1.6-1.2,3-2.4,4-3.2,2.8-6.9,1.2-8.1.7-3.3-1.4-6.5-3.1-9.3-5.1-.5.9-1.2,1.7-2,2.3-.9.6-4,2.3-7.8-1.1-.5-.4-.8-.8-1.2-1.3-1.3,1-3,1.5-4.6,1.3-2.2-.2-3.8-1.4-4.9-2.5-.3-.3-.6-.5-.8-.8-.4.7-1,1.5-2,2-2,1.2-4.7,1-6.9-.7-.4-.3-.8-.6-1.1-.9-1,1-2.3,1.6-4.3,1.7-2.3,0-4.7-1-6.5-3.1-1,.6-2.2.9-3.4.9-3.5,0-5.7-3-6.4-4.1l-1.7-2.4c-1.4,1-3.1,1.4-4.7,1.2-3.1-.5-4.7-3.1-5.4-4.3-1-1.7-2.1-3.5-3.1-5.2l-1.5-2.6c-.2-.3-.4-.7-.6-1.1-.2-.3-.4-.7-.5-1-.2,0-.5-.2-.7-.3-.4-.1-.8-.3-1.1-.4-3.9-1.7-7.7-2.2-12.3-1.6-1,.1-2.1-.1-3-.8-.8-.6-1.4-1.6-1.5-2.7-.2-1.3-.2-1.4,3.4-8.7,3.4-7,4.2-7.8,4.6-8.3,4.7-5.1,10.7-8.8,16-10,6.5-1.5,12.8.1,19,1.6,3.7.9,7.2,1.8,10.4,1.9,24.5,1.1,49.8-8.4,67.6-25.4,5.2-5,10.1-10.9,14.8-16.5,9.6-11.5,19.6-23.5,33.7-30,14.2-6.5,31.3-7.1,53.9-1.9,44.6,10.4,85.3,35.2,114.6,69.8,8.1,9.6,15.9,20.5,23.3,32.4,13.5,21.8,30.1,50.7,38,80.8h0c2.5,9.4,4.1,18.8,4.7,27.8,0,1.3.4,4.9-2.4,7.2-1.2.9-2.5,1.4-3.9,1.4h0ZM889.5,320.6c1.3,0,2.6.7,3.4,1.8,8.4,13.1,17.6,25.8,27.5,37.9-.7-7.9-2.2-16-4.3-24.2h0c-7.6-29-23.8-57.2-37-78.6-7.2-11.6-14.8-22.1-22.6-31.4-28.2-33.4-67.3-57.2-110.3-67.2-20.7-4.8-36.2-4.4-48.7,1.4-12.5,5.7-21.4,16.4-30.9,27.8-4.9,5.8-9.9,11.9-15.5,17.2-19.4,18.5-46.9,28.9-73.5,27.6-4-.2-8.1-1.2-12-2.2-5.5-1.4-10.7-2.7-15.3-1.6-3.8.9-8.3,3.7-11.8,7.5-.6.9-2.2,4-3.6,7,3.3.2,6.5,1.1,9.6,2.4.2,0,.4.2.6.2.9.3,1.9.7,2.9,1.5.3.2.5.4.7.6,1,1,1.5,2.1,2,3,.1.2.2.5.4.7l1.5,2.6c.7,1.2,1.4,2.4,2.2,3.6.5-1.2,1.5-2.2,2.8-2.5,1.6-.4,3.2.2,4.2,1.5,1.1,1.5,2.2,3.1,3.3,4.6l1.9,2.6h0c.5-1.4,1.7-2.4,3.2-2.6s2.9.4,3.7,1.5c.2.3.4.6.6.9.3.4.5.8.8,1.3.2.4.4.7.6,1,0-.5.2-1,.3-1.5.4-1.5,1.7-2.6,3.2-2.9,1.5-.2,3.1.5,3.9,1.8.6.9,1.2,1.9,1.9,2.7l.8-2.6c.5-1.5,1.8-2.6,3.4-2.8,1.6-.2,3.1.6,3.9,1.9,1,1.8,2.3,3.4,3.8,4.8,0-.4,0-.8.1-1.2.1-1.7,1.3-3.1,3-3.5,1.6-.4,3.4.2,4.3,1.6.4.6.7,1.1,1,1.7.4-1,1.2-1.7,2.1-2.2,1.4-.7,3.6-.8,5.5,1.2,2.7,2.8,6.6,5.4,10.9,7.3-.3-.5-.6-.9-.9-1.4-1-1.5-.9-3.5.3-4.9s3.2-1.8,4.8-1c3.4,1.7,7,2.9,10.8,3.7.8.2,1.6.3,2.3.3-.7-1-.9-2.3-.4-3.5.7-2,2.8-3.1,4.9-2.5l9.9,2.9c.5.1,1,.1,1.4,0,0,0,.1,0,.1,0,0,0,.5-.8-.6-4.1-.6-1.7,0-3.5,1.5-4.6,1.5-1,3.4-1,4.8.2,2.6,2.1,5.7,3.4,9,3.8-.2-.3-.4-.5-.6-.8-1.2-1.3-1.3-3.3-.4-4.8.9-1.5,2.7-2.2,4.4-1.8,3.8,1,7.6,2,11.4,2.6.4,0,.8.1,1,.1-.3-.9-.7-1.9-.9-2.4-.3-.6-.5-1.2-.7-1.8h0c-.7-2.1.5-4.4,2.6-5,1.5-.5,3.1,0,4.2,1.1.2,0,.3.2.5.2.3.2.6.3.7.4.7.4,1.4.8,2.1,1.2,1.4.8,2.9,1.6,4.4,2.3,1,.5,1.8,1,2.5,1.4.4.2.8.5,1.2.7,1.1.6,2.4,1.1,3.7,1.7l1,.4c0-.5,0-1.2,0-1.8,0-1.5.8-2.9,2.1-3.7s3-.6,4.2.3c1.9,1.3,4,2.6,6.4,3.9.9.5,1.7.9,2.6,1.4,1.2.7,2.3,1.3,3.5,1.9,0-.4-.2-.9-.3-1.5,0-.5,0-.9,0-1.3v-.2c-.6-1.3-.5-2.8.4-4,1.3-1.8,3.8-2.2,5.6-.9h0c3.6,2.6,7.5,4.9,11.5,6.9.3.1.7.3,1.1.4.3.1.6.2,1,.3.9.4,1.7.8,2.4,1.2.3.2.6.4.9.5,1.1.5,2.3,1,3.5,1.4,0-1.1-.2-2.2-.3-3.3-.2-1.6.7-3.2,2.1-4,1.5-.8,3.2-.6,4.5.5l11,9.5c.3.3.7.6,1,.9-.5-1.4-.1-3,1-4.1,1.5-1.6,4.1-1.6,5.7,0h0c.4.4,1,.9,1.5,1.4,1.3,1.2,2.9,2.5,4,4.2.8,1.1,2,2.1,3.4,3.2l.2.2c2.6,2.1,5.4,4,8.2,5.7h0c0-.2,0-.4,0-.7s0-.7,0-1c-.5-1.5-.1-3.3,1.2-4.4,1.7-1.4,4.2-1.2,5.6.5.5.5.9,1,1.3,1.6,2,2.2,4,4.5,5.5,7.4,2.2,3.9,4.8,7.5,7.7,10.9-.3-.9-.5-2-.5-3.2,0-1.7,1.2-3.2,2.8-3.8,1.7-.5,3.4,0,4.4,1.5,1.3,1.8,2.7,3.5,4.1,5.4,2.4,3,4.8,6.1,6.9,9.4,1.2,1.9,2.4,3.9,3.5,5.8,1.3,2.1,2.6,4.4,4,6.5,0-.3.2-.6.3-.8,0,0,0-.1,0-.2,0-1.4.7-2.8,2-3.6,1.9-1.1,4.3-.5,5.5,1.4,1.1,1.8,2.2,3.4,3.6,5.2,1.3,1.6,2.2,3.5,3,5.1.4.8.7,1.6,1.1,2.2,1.8,3.3,3.9,6.4,6.3,9.3.3-1.3.9-2.7,2.1-3.8,1.4-1.3,3.5-1.4,5-.3,2.3,1.7,4,4.4,5.5,7,.7,1.2,1.4,2.3,2,3.1,2.5,3.2,5.4,6.3,8.4,9.1,0-.1,0-.2,0-.3l-2.2-20.9c-.2-1.9.9-3.6,2.7-4.2.4-.1.9-.2,1.3-.2h0ZM864,335.4h0ZM843.8,313.4h0ZM796.8,276.3h0ZM796.8,276.3h0ZM643.1,271.4h0ZM608.4,271.1h0ZM598.2,269.1h0ZM728.8,258.2h0ZM693.8,250.6s0,0,0,0h0s0,0,0,0h0Z"/>
            <path class="cls-2" d="M919.9,335.1c2.3,8.9,3.9,17.9,4.6,27.1,0,1.4,0,2.9-1,3.8-1.7,1.4-4.1-.4-5.5-2.1-10.2-12.5-19.8-25.5-28.5-39.1.7,7,1.5,13.9,2.2,20.9.2,2.1.1,4.7-1.8,5.5-1.7.7-3.5-.6-4.8-1.8-3.2-3-6.2-6.2-8.9-9.6-2.1-2.7-4.1-7.4-6.8-9.4-1.3,1.2-1.1,3.6-1.4,5.3-.2,1.1-.6,2.5-1.7,2.6-.8,0-1.4-.5-1.9-1.1-3.7-4-6.9-8.5-9.6-13.2-1.2-2.2-2-4.9-3.6-6.8s-2.8-3.6-4-5.7c.3.5-.5,1.9-.6,2.4-.3,1.2,0,2.5-.3,3.8s-1.2,2.6-2.5,2.5c-.9-.1-1.5-.9-2-1.6-3.6-5.2-6.7-10.7-10-16.1-3.2-5.1-7.4-9.7-10.9-14.6,0,2.3,1.5,4,.8,6.5-.4,1.5-1.9,2.8-3.4,2.6-1-.2-1.8-.9-2.5-1.7-3.7-3.9-6.9-8.3-9.6-13-1.7-3.1-4.2-5.6-6.5-8.3.3.3.2,2.2.3,2.7,0,1.5,0,2.9-.1,4.4,0,.5-.2,1.1-.6,1.4-.6.5-1.5.1-2.2-.2-4.2-2.2-8.1-4.9-11.8-7.8-1.7-1.3-3.3-2.6-4.5-4.3-1.3-1.9-3.4-3.4-5-5,.5.5.3,2.7.3,3.4,0,.9-.2,2-1,2.5-.5.4-1.3.4-2,.3-2.2-.3-3.7-1.9-5.3-3.3l-4.8-4.2c-1.9-1.6-3.7-3.2-5.6-4.8.2,2.2.5,4.4.3,6.6,0,.5,0,1.1-.5,1.5-.5.5-1.4.4-2.1.2-2.3-.5-4.6-1.3-6.7-2.4-1-.5-1.9-1.2-2.9-1.5-.8-.3-1.7-.5-2.5-.9-4.2-2.1-8.2-4.5-12-7.3.6.4.3,2.1.3,2.7.1,1.1.6,2.1.5,3.3,0,1.3-.8,2.6-2,3-1.1.4-2.3,0-3.4-.5-2.3-1-4.5-2.4-6.7-3.6s-4.6-2.6-6.8-4.1c0,1.2,0,2.7-.2,3.8-.2,1-.8,1.9-1.7,2.3-1.2.5-2.5,0-3.6-.4-1.7-.7-3.5-1.4-5.2-2.3-1.2-.7-2.2-1.4-3.5-2-1.6-.8-3.2-1.6-4.7-2.5-.7-.4-1.5-.9-2.2-1.3-.4-.2-1.8-.9-2-1.3.7,2,3.3,6.9,1.2,8.6-1.4,1.1-3.4,1-5.1.7-4-.6-7.9-1.7-11.9-2.7,1.8,2,2.9,4.6,3.1,7.3-6,1-12.3-.7-17-4.5,1.1,3.1,1.9,7.2-1.5,9-1.3.7-2.9.8-4.3.3l-9.9-2.9c1.3.6,1.8,2.4,1.3,3.7s-2,2.2-3.4,2.4-2.9,0-4.3-.3c-4-.9-8-2.2-11.7-4.1,1.1,1.6,2.2,3.2,2.1,5.2,0,.9-.4,1.8-1.1,2.4-1.3,1.1-2.7.6-4,0-4.7-2-9.6-5-13.1-8.6-.2-.2-.6-.5-.9-.4-.4.2-.3.7-.1,1.1,1,2.8-.4,7.8-3.8,4.6-2-1.8-2.9-4.5-4.3-6.6-.1,1.3-.2,2.6-.8,3.7s-1.8,2.1-3,2c-1,0-1.8-.8-2.5-1.4-1.9-1.8-3.6-3.9-5-6.2-.6,1.8-1.1,3.5-1.7,5.2-.2.6-.4,1.3-1,1.6-.8.5-1.8,0-2.5-.5-2-1.4-3.3-3.5-4.7-5.5-.6,2-.3,5.4-3.2,5.5-1.5,0-2.8-1-3.8-2.1-.8-1-1.3-2.1-2-3.1-.1-.2-.3-.4-.5-.6l-.2.4c-.3.7-.6,1.4-1.1,2-.6.7-1.4,1.2-2.3,1.2-1.4,0-2.4-1.3-3.2-2.4-1.8-2.5-3.7-5-5.5-7.5-.2,1.1-.3,2.2-.9,3.2-.6.9-1.6,1.7-2.7,1.5-1.2-.2-2-1.3-2.6-2.4-1.6-2.6-3.1-5.2-4.7-7.8-.5-.9-1-2.2-1.8-3,0,0-.2-.2-.3-.2-.7-.5-1.9-.8-2.7-1.2-4.8-2.1-9.3-2.6-14.4-1.9,0,0,5.8-12.4,7-13.8,3.6-3.9,8.8-7.6,14-8.8,9.1-2.1,19.1,3.2,28.3,3.7,25.6,1.2,52-8.8,70.6-26.5,16-15.3,27.3-36.5,47.5-45.7,15.8-7.2,34.3-5.6,51.3-1.6,43.5,10.1,83.6,34.4,112.4,68.5,8.5,10,16.1,20.8,23,31.9,15.2,24.5,30.2,51.8,37.5,79.7h0Z"/>
          </g>
          <path class="cls-3" d="M561.1,233.1c32.8,6.9,68.3-.8,95.3-20.8,11-7.8,19.5-18.3,29.3-27.6,16-15.8,34.5-20,56.4-18,40.2,4.1,79.5,21.4,109.5,48.4-31-25.5-69.5-42.7-109.6-46.6-21.2-1.9-39.5,2.2-55,17.5-9.7,9.2-18.5,19.9-29.5,27.6-19.2,13.9-42.6,21.8-66.3,22.6-10.1.4-20.3-.7-30.1-3-.2,0,0-.3,0-.2h0Z"/>
          <g>
            <path class="cls-3" d="M565.2,253.1c1.4,3.5,3.2,6.9,5.6,9.8,1,1.2,2.3,3.3,3.8,1.9,1.1-1.4,1.2-3.4,1.7-5.1.5-2.5.6-5,.5-7.6.5,2.5.5,5.1.2,7.7-.3,1.9-.4,4.1-1.7,5.7-1.9,2.1-4.1-.4-5.2-2-2.3-3.1-4-6.6-4.8-10.4h0Z"/>
            <path class="cls-3" d="M577.5,257.4c.8,1.8,4.9,9.4,7.1,8.5,1.3-.9,2-3.4,2.5-5,.5-1.9.5-4,.6-6,.6,3,.7,6.3-.8,9.2-3.1,8-8.6-2.9-9.5-6.7h0Z"/>
            <path class="cls-3" d="M571,242.7c1.1,3.8,2.7,7.6,5.3,10.5,1.3,1.1,2.1-2.9,2.5-3.7.7-1.9,1.2-3.8,1.7-5.8-.2,3.1-.9,6.1-1.9,8.9-.4,1.2-1.7,2.4-3,1.4-.9-.8-1.3-1.6-1.9-2.6-1.6-2.6-2.6-5.6-2.8-8.7h0Z"/>
            <path class="cls-3" d="M596,253.8c1.3,4.8,4.2,9.2,7,13.2,2.1,1.8,3.3-2.5,3.9-4,.8-2.4,1.1-4.9,1-7.4.9,2.8-.2,13.9-4.6,12.7-1.5-.6-2.2-2.7-3.2-3.9-2-3.3-3.8-6.8-4.1-10.7h0Z"/>
            <path class="cls-3" d="M608.7,262c.9,1.6,2,3.1,3.3,4.4.6.6,1.4,1.1,2.1,1.1.7,0,1.2-.7,1.5-1.5,1.4-3.4,2.2-7,2.6-10.6.3,3.7-.3,7.5-1.7,11-.2.5-.4.9-.8,1.3-3.1,2.7-6.2-3.2-6.9-5.7h0Z"/>
            <path class="cls-3" d="M588.4,260c1.4,1.6,2.2,3.7,3.9,5,2.1,1.4,3-1.3,3.7-2.9.5-1.3,1-2.7,1.3-4.1,0,2.2-.5,4.4-1.4,6.4-.7,1.8-2.6,2.5-4.2,1.3-1.8-1.5-2.4-3.7-3.3-5.8h0Z"/>
            <path class="cls-3" d="M571.3,246.1c-1.2,2.5-5,7.6-7.2,3.2-1.4-3-1.1-6.2-1.2-9.4.9,2.9.9,6.2,2.1,8.9.3.6.8,1.2,1.3,1.3.5,0,1.1-.4,1.7-.8,1.2-.9,2.3-2,3.3-3.2h0Z"/>
            <path class="cls-3" d="M562.8,243.9c-1.3,1.6-3.1,2.8-5.1,3.5-.4.1-.8.2-1.2.1-2.1-.5-1.5-3.5-1.6-5.1,0-1.4.2-2.7.6-4.1l.2,4.1c.2,1.2,0,2.8.5,3.8.4.8,1.9,0,3.1-.4,1.2-.5,2.4-1.2,3.5-1.9h0Z"/>
            <path class="cls-3" d="M559,249.2c-.2,3.2.3,6.6,1.9,9.3,1.2,1.4,2.2-.7,2.9-1.6.9-1.4,1.7-2.8,2.4-4.4-.5,2.5-1.4,5-3.2,6.9-2.1,1.7-3.5-1-4-2.7-.8-2.4-.8-5.1,0-7.6h0Z"/>
            <path class="cls-3" d="M552.9,246.1c-.3,1.9-.5,3.8-.3,5.8,0,1.1,0,2.5,1.1,3,1.8.8,3.3-.7,4.7-1.9-.7,1.1-1.4,2.3-2.8,2.8-5.5,1.4-4.1-6.8-2.6-9.6h0Z"/>
            <path class="cls-3" d="M618.3,261.3c3,2.3,6.2,4.2,9.7,5.6.9.4,2.2,1.1,2.9.2.6-.7.4-2.1.3-3.3-.2-3.8-.8-7.5-1.7-11.1,1.5,3.5,2.3,7.3,2.7,11,0,1.4.4,2.7-.5,4-1,1.3-2.9.6-4,0-3.5-1.6-6.7-3.8-9.3-6.5h0Z"/>
            <path class="cls-3" d="M632.6,260.7c2.5,1.7,5,3.2,7.6,4.5,2.2,1.2,5.9,2.5,7-.6.7-5.6-1.1-11.8-3.2-17,2.3,3.8,3.7,8.2,4.2,12.7.1,1.5.4,3.1,0,4.6-1.2,3.8-5.8,2.6-8.3.9-2.6-1.5-5-3.2-7.3-5.2h0Z"/>
            <path class="cls-3" d="M648.3,254.8c3.2,3.1,7.2,5.4,11.6,6.2,1.2.3,2.9.5,3.3-.8.3-1.2-.3-2.7-.7-4.1-.4-1.5-.8-2.9-1.2-4.4-.7-2.6-1.6-6.2-2.1-8.8,1.5,4.1,2.9,8.8,4.2,12.9,3,8-2.8,7.1-8.1,4.6-2.7-1.3-5.2-3.2-7.1-5.6h0Z"/>
            <path class="cls-3" d="M662.8,253.1l7.6,2.8,3.8,1.3c.6.2,1.2.3,1.7.2,1.8-.8,0-3.5-.3-4.8-.8-2.2-2-5.4-2.9-7.6l-1.5-3.8c1.4,2.3,2.6,4.8,3.8,7.2.6,1.2,1.1,2.5,1.6,3.7.4,1.3,1.3,2.7,1.2,4.1-.2,2-2.2,2.4-3.8,1.8-3.8-1.4-7.5-3.1-11.1-5h0Z"/>
            <path class="cls-3" d="M676.9,239.9c4,3.5,8.3,6.6,12.8,9.2,7.1,4.6,7.9-.8,6.8-6.8-.6-3.4-2-6.8-3.8-9.7,2.2,2.8,3.8,6.1,4.6,9.6,1.2,4.5,1,11.8-5.6,9.1-5.5-2.9-10.5-6.8-14.7-11.3h0Z"/>
            <path class="cls-3" d="M698.5,233.6c3.1,7.2,7.9,13.7,14.2,18.3,5.1,4,5-1.4,4.7-5.1-.2-3.9-1.1-7.8-2.5-11.4,1.8,3.5,2.9,7.4,3.3,11.4.2,2.6.9,8.2-3.3,7.5-1.1-.2-2-.9-2.8-1.5-3.2-2.4-6-5.3-8.3-8.5s-4.1-6.8-5.3-10.6h0Z"/>
            <path class="cls-3" d="M791,243.3c2.4,9.1,7.1,17.2,12.2,25,1.1,1.8,3.2,3.3,5.1,1.7,1.7-1.4,1.9-4,2.3-6.1.7-4.6.5-9.3.4-14,.5,4.7.8,9.4.3,14.1-.3,2.4-.5,5-2.5,6.7-1,.9-2.5,1.2-3.7.7-1.2-.5-2.1-1.5-2.8-2.5-5-7.9-9.7-16.3-11.4-25.6h0Z"/>
            <path class="cls-3" d="M764.3,235.8c3,6.4,6.2,12.6,9.9,18.7,2,2.6,5,10.7,9,6.3,1.3-1.8,1.5-4.3,2-6.5.8-4.6,1.1-9.3,1-14,.5,4.7.4,9.4-.2,14.1-.4,2.4-.6,4.9-2,6.9-.8,1-2,1.8-3.5,1.6-2.7-.4-3.9-3.1-5.2-5-4.4-7-8.1-14.4-10.9-22.2h0Z"/>
            <path class="cls-3" d="M743.5,233.5c2.3,5.8,5.4,11.3,9.1,16.3,1.2,1.6,2.6,3.3,4,4.7.7.6,1.6,1.1,2.5,1,2.1-.2,2-3,2.2-4.7l.3-3.1c.3-4.2.4-8.4.4-12.5.2,2.1.4,4.2.5,6.3,0,3.1,0,6.3-.2,9.4-.2,1.6-.1,3.5-1.3,4.8-3.8,2.9-6.9-2.8-9-5.3-3.7-5.1-6.6-10.8-8.4-16.9h0Z"/>
            <path class="cls-3" d="M720,233.6c2.6,5.4,5.9,10.4,10,14.8,1.9,1.8,4.1,4.8,6.9,3.8,3.8-1.9,3-15.8,2.5-19.7,1,4.3,2.5,18.2-2.1,20.5-3.3,1.5-6-1.9-8-4-4-4.5-7.3-9.7-9.3-15.4h0Z"/>
            <path class="cls-3" d="M814.6,253.6c3.8,9.2,8,18.2,13,26.8,1.1,1.8,2.1,4.9,4.7,4,2.3-.9,2.6-3.8,3.2-5.9,1.2-4.8,2-9.7,2.4-14.7,0,5-.6,10-1.7,14.9-.5,2.4-1,5.5-3.7,6.6-3,1.2-4.7-2.3-5.9-4.4-4.8-8.7-9-17.8-12.1-27.3h0Z"/>
            <path class="cls-3" d="M837.2,273.9c1.4,8.6,3.9,17,7.6,25,1.3,2.2,2.9,8.1,6.3,6.3,1.4-1.4,1.7-3.9,2.4-5.7,2.6-8.4,4.5-16.9,5.8-25.6-.8,10.2-3,20.3-6.2,30-.9,2.9-3.9,3.5-5.9,1.2-1.5-1.8-2.2-3.9-3.2-5.9-3.6-8-5.9-16.6-6.8-25.4h0Z"/>
            <path class="cls-3" d="M857.9,282.7c2,10.6,5.6,21,11,30.3,1.8,3,3.9,2.1,4.7-1,2.4-7.8,3.9-15.8,4.6-23.8-.1,8.1-1.4,16.3-3.7,24.1-1,3.9-4.2,4.9-6.4,1.2-5.4-9.5-8.9-20-10.1-30.8h0Z"/>
            <path class="cls-3" d="M877.3,295.4c3,8.4,7.1,16.4,12.5,23.5,1.1,1.5,3.1,3.5,4.8,1.9,1.5-1.5,1.3-4,1.6-6.1.4-4.5.5-8.9.6-13.4.4,4.5.4,9,.2,13.5-.2,2.3,0,4.8-1.7,6.7-2.1,2.1-5,0-6.2-2-5.3-7.2-9.5-15.4-11.7-24.1h0Z"/>
            <path class="cls-3" d="M898.5,311.2c3.6,8,8.3,15.3,13.7,22.2,1.1,1.4,2.5,3.8,4.5,3,.7-.4.9-1.5,1.1-2.6,1.1-5.3.7-10.9-.9-16,2.1,5.1,2.7,10.8,1.8,16.2-.2,1.1-.3,2.5-1.5,3.2-2.6,1.3-4.5-1.5-5.8-3.1-5.3-7-10-14.5-12.9-22.8h0Z"/>
            <path class="cls-3" d="M874,330.3c-.7-5.1-1.2-10-1.3-15.1,1.5,4.9,2,10.1,1.3,15.1h0Z"/>
            <path class="cls-3" d="M849.9,306.4c1,2.5,1.7,4.9,2.4,7.5-1.9-2-2.8-4.8-2.4-7.5h0Z"/>
            <path class="cls-3" d="M825.5,287.3c-2.7-6.8-4.7-13.8-6.1-21,2.7,6.8,4.7,13.8,6.1,21h0Z"/>
            <path class="cls-3" d="M732.8,252.1c1.5,1.1,2.3,2.5,2.6,4.3-1.5-1.1-2.3-2.5-2.6-4.3h0Z"/>
            <path class="cls-3" d="M893,325.1c-1-1.1-1.3-2.4-.9-3.8,1,1.1,1.3,2.4.9,3.8h0Z"/>
            <path class="cls-3" d="M581.2,245.7c1.6,3.1,3,6.8,6.1,8.5,1.7.8,2.6-1.3,3.4-2.5.9-1.6,1.7-3.2,2.5-4.9-.5,1.8-1,3.5-1.8,5.2-2.3,5.9-6.2,2.9-8.4-1.1-.9-1.7-1.4-3.4-1.8-5.2h0Z"/>
            <path class="cls-3" d="M602.1,247.1c1.1,1.9,2.1,3.9,3.1,5.9.9,1.5,1.6,4.6,3.8,3.8.8-.4,1.4-1.3,2-2.2,1.7-2.8,2.6-6,2.7-9.4.5,3.4-.2,6.9-1.8,9.8-.6,1-1.2,2-2.4,2.7-2.8,1.2-4.1-2.3-4.9-4.3-.9-2.1-1.7-4.1-2.4-6.2h0Z"/>
            <path class="cls-3" d="M592.7,249.3c1.3,2.1,2.4,4.2,3.5,6.4.3.7.8,1.3,1.3,1.4,1.3.2,2.5-1.5,3.3-2.5,1-1.2,1.8-2.6,2.6-4.1-.3,1.6-1,3.1-1.9,4.5-1.1,1.7-3.5,4.5-5.4,2.1-1.6-2.4-2.4-5.3-3.4-8h0Z"/>
            <path class="cls-3" d="M613.5,250.4c1.3,1.5,2.5,3.1,3.7,4.7.6.7,1.3,1.3,2.1,1.1.8-.1,1.4-.8,1.8-1.7,1.7-3.5,2.5-7.4,2.6-11.3.7,4,0,8.1-1.7,11.8-.5.9-1.3,1.9-2.5,2.1-1.2.2-2.3-.6-2.9-1.5-1.1-1.7-2.1-3.4-3.1-5.1h0Z"/>
            <path class="cls-3" d="M624,247.8c1,2.6,7.1,9.2,9.2,5,1.8-3.9,1.7-8.8,1.9-13,.3,2.2.5,4.5.4,6.8-.2,2.8-.6,9-4.6,8.6-3.5-.9-5.9-4-6.9-7.3h0Z"/>
            <path class="cls-3" d="M636.4,244.1c1.5,1.8,3.3,3.3,5.3,4.3,1.7.7,4.4,2.4,5.5,0,1.4-4.3,1.3-9.2.9-13.7,1.2,4.6,1.5,9.5,0,14.1-2.3,4.9-10.3-1.8-11.7-4.8h0Z"/>
            <path class="cls-3" d="M650,240.5c1.6,1.2,9.5,5.7,10.5,2.6,1-4,.7-8.3-.3-12.3,1.8,3.9,2.3,8.5,1.2,12.6-1.7,4.4-9.5-.9-11.4-3h0Z"/>
            <path class="cls-3" d="M661.8,234.2c3.7,2.8,7.6,5.3,11.9,7.1,1.2.6,2.8.7,3.2-.9,1-6,.9-12.3.2-18.4,1.3,5.3,1.7,10.9,1.1,16.3-.2,1.2,0,2.6-1,3.6-1,1-2.7.8-3.8.2-4.2-2-8.2-4.7-11.5-8h0Z"/>
            <path class="cls-3" d="M679.9,220c3.2,4.7,6.9,9,11.2,12.7,1.2.8,2.8,3,4.2,2,1.2-1.1,1.5-3.3,2-4.9,1.3-5.5,1.3-11.2,0-16.7,1.8,5.4,2.1,11.4.8,16.9-.6,1.9-.7,3.9-2.2,5.5-2,1.6-4-.9-5.4-2.1-4.2-3.8-7.9-8.3-10.5-13.4h0Z"/>
            <path class="cls-3" d="M706.7,209.1c.5,5.2,1.8,10.3,4,15,1.3,2.9,2.9,5.8,4.9,8.4.9,1.3,2.4,3.3,3.8,1.5,1.3-2,1.8-4.8,2.5-7.1,1.7-7.6,1.6-15.5,1.8-23.3.5,9.1.8,18.5-1.8,27.4-.4,1.2-.8,2.8-1.6,3.8-2,2.4-4.1.4-5.3-1.6-1.9-2.7-3.6-5.6-4.8-8.6-2-4.9-3.2-10.1-3.3-15.3h0Z"/>
            <path class="cls-3" d="M727.1,203.3c1.4,8.8,5.6,16.8,10,24.4l2.2,3.8c.7,1.1,1.5,2.4,2.9,2.3,2.7-.5,4-4,5-6.2,3.5-8.2,3.1-17.4,2.8-26.1.9,8.8,1.5,18.1-2,26.4-1.3,2.6-2.5,6.3-5.8,6.9-1.8.2-3-1.4-3.8-2.8l-2.2-3.9c-4.4-7.7-8.4-15.9-9.2-24.9h0Z"/>
            <path class="cls-3" d="M751.3,211.7c1.9,8.2,5.3,16,10.2,22.9,2,3.3,3.6,2.6,5.8,0,3.5-4.4,3.8-10.4,4.3-15.8.4-5.6.3-11.2.3-16.9.5,9.5,2.2,25.4-3.8,33.3-2.5,3.1-5.1,3.7-7.3-.1-4.9-6.9-8.1-15-9.4-23.4h0Z"/>
            <path class="cls-3" d="M773.2,213c1,6,2.9,11.8,5.7,17.1,1.8,3.3,3.8,6.5,6.2,9.4,2.6,3.5,5.8,4.4,7.5-.5,3.7-10,3.5-20.8,3.7-31.3.5,11.2,1.2,23.4-3.8,33.8-2.4,3.7-6.1,1.4-8.1-1.4-2.4-3-4.5-6.2-6.2-9.6-2.7-5.5-4.5-11.4-5-17.5h0Z"/>
            <path class="cls-3" d="M797.2,219.3c2.9,9.1,5.9,18.3,10.4,26.8,1.7,2.5,3.7,8.7,7.5,6.2,1.8-1.4,2.5-3.9,3.4-5.9,3.5-8.9,4.8-18.6,4-28.2,1.6,11.1-.2,22.9-5.2,33-1.2,2.4-4.5,3.9-6.7,1.6-1.7-1.8-2.7-4.1-3.9-6.2-4.5-8.5-7.2-17.9-9.6-27.2h0Z"/>
            <path class="cls-3" d="M823.3,232.1c2.1,9.8,5.5,19.2,10.3,28,1.1,1.7,2.6,6,5.2,5.1,1-1.5,1.2-3.9,1.8-5.6,2.9-11.3,3.2-23.1,1.4-34.6,2.9,13.1,2.1,26.9-1.8,39.7-.6,2.5-3.5,1.8-4.8.3-2.9-4.1-4.9-8.8-6.9-13.5-2.5-6.2-4.2-12.7-5.2-19.3h0Z"/>
            <path class="cls-3" d="M844.4,244.6c1.4,6.8,3.7,13.4,5.9,20,1.1,3.3,2.3,6.5,4,9.5,1.1,1.8,2,3.9,4,4.4,1-.1,1.4-1.6,1.8-2.5,4.5-13.1,5.4-27.4,1.8-40.8,4.4,13.3,3.6,28-.9,41.2-2.2,6.1-5.7,1.9-7.5-1.8-1.7-3.1-2.8-6.4-3.9-9.7-2-6.6-4.2-13.3-5.1-20.2h0Z"/>
            <path class="cls-3" d="M865,259.7c2.2,6,4.8,14.6,7.1,20.5,1.2,2.8,5.1,13,8.6,12.1,1.6-.5,2.1-2.5,2.3-4,2.1-14.4-1-28.9-4.4-42.8,4.2,13.8,7.4,28.4,5.4,42.9-.2.9-.4,1.9-.8,2.7-.9,2.1-3.4,2.8-5.2,1.3-3.3-3.2-5-7.8-6.7-12-2.1-6-4.5-14.7-6.3-20.8h0Z"/>
            <path class="cls-3" d="M884.2,274.6c3.1,9.9,7.5,19.3,13.4,27.9,1,1.7,2.9,4.1,4.1,1.3.9-3.2.7-6.8.9-10.2,0-2.3,0-4.6-.1-6.9.6,4.6.8,9.2.6,13.9,0,2.2-.7,6.5-3.8,5.2-2-1.3-3-3.7-4.4-5.6-4.9-7.9-8.6-16.5-10.6-25.5h0Z"/>
            <path class="cls-3" d="M712.4,172.6c1.2,8.7,3.8,17.1,7.9,24.8.7,1.3,1.3,2.7,2,3.9,1.5,2.8,4.2,3.5,5.9.4,4.5-9.1,6.7-19.3,7.2-29.4.3,8.8-1.3,17.6-4.5,25.8-.9,2.1-1.5,4.4-3.3,5.9-4.3,2.8-6.5-3.3-8-6.2-4-7.8-6.5-16.5-7.1-25.2h0Z"/>
            <path class="cls-3" d="M689.5,191.1c1.5,5.1,3.7,10,6.6,14.5,1.5,2.2,3,4.4,4.8,6.3.4.4.9.8,1.5.8,1.9.1,2.7-2,3-3.7,2.2-10.3,1.8-21.4,1.8-31.9.8,10.7,1.3,21.5-.9,32.1-.3,3-3.2,6.2-6.1,3.3-5.4-6.1-9-13.6-10.7-21.4h0Z"/>
            <path class="cls-3" d="M650.6,223.4c1.8,2,3.7,3.9,5.6,5.7,1.6,1.3,3.9,4.6,5.9,2.2.7-.9.9-2.2,1.1-3.5.6-3.9.5-7.9,0-11.9,1.2,3.9,1.5,8,1,12-.2,1.3-.3,2.8-1.3,4-1.9,2.3-4.2.9-5.8-.9-2.4-2.4-4.6-4.9-6.5-7.7h0Z"/>
            <path class="cls-3" d="M639.7,229.4c2.2,2.3,4.4,4.6,6.8,6.6.8.6,1.7,1.1,2.5.7.8-.2,1.1-1.2,1.2-2.2.3-2.1.5-4.2.6-6.3,0-1.1,0-2.1.2-3.2.3,2.1.4,4.2.4,6.4,0,2.5,0,7.5-3.9,6.2-1.6-.6-2.7-2-3.8-3.1-1.5-1.6-2.8-3.2-3.9-5.1h0Z"/>
            <path class="cls-3" d="M627.8,233.1c1.4,2.8,3.1,5.4,5.3,7.7.7.8,1.5,1.5,2.2,1.4.8-.1,1.4-1,1.9-1.9,1.6-2.7,2.7-5.6,3.5-8.7-.2,3-1.9,10.7-5.2,11.6-1.3.2-2.3-.9-3-1.7-2.1-2.4-3.8-5.2-4.6-8.3h0Z"/>
            <path class="cls-3" d="M617.2,236c.7,3.1,2,6,4,8.4.5.6,1.3,1.5,2.1,1.3.7-.1,1-1.3,1.4-2.2,1.2-2.9,2-6,2.6-9.1,0,3.2-.7,6.4-1.8,9.5-.5,1.1-.7,2.4-2,2.9-3.7.6-6.5-7.8-6.4-10.7h0Z"/>
            <path class="cls-3" d="M607.6,237.6c1.3,3.6,2.8,7.3,5,10.4,1.3.8,2.4-2.6,2.9-3.5.8-1.8,1.4-3.6,1.8-5.6,0,2-.4,4-1.1,5.9-.6,1.4-1,3-2.3,4.1-1.3.9-2.4-.3-2.9-1.3-1.8-3-3-6.4-3.4-9.8h0Z"/>
            <path class="cls-3" d="M598.1,238c1,3.6,2.3,7.1,4.3,10.3.2.4.5.7.8.8,1.1.5,2.1-1.1,2.8-1.9,1.1-1.4,1.9-3.2,2.2-5.1,0,1.9-.5,3.9-1.6,5.5-1.3,2-3.3,3.8-5,1.1-2-3.3-3.3-7-3.5-10.9h0Z"/>
            <path class="cls-3" d="M589,238.3c0,3.5,1,7.1,3.1,9.8.6.6,1.1.2,1.6-.4,1.8-1.9,3.3-4.1,4.5-6.6-.4,1.8-1.2,3.4-2.2,5-1,1.4-2.7,4.5-4.6,2.6-2.3-2.9-3.1-6.9-2.4-10.5h0Z"/>
            <path class="cls-3" d="M579.4,237c0,3,.3,6.6,2.3,8.9,1.3.9,2.5-.8,3.3-1.7,1-1.2,1.9-2.6,2.8-4-.5,1.6-1.2,3.1-2.1,4.5-4.9,7.4-8-3.4-6.3-7.6h0Z"/>
            <path class="cls-3" d="M569.7,235.3c-.3,2.5,0,4.9.8,7.2.5,1.5,1.2,2.7,2.7,1.3,1.9-1.6,3.7-3.3,5.4-5-.9,1.4-1.9,2.8-3,4-1.2,1.1-2.7,3.4-4.6,2.4-.9-.6-1.2-1.6-1.4-2.4-.8-2.4-.8-5.1,0-7.5h0Z"/>
            <path class="cls-3" d="M562,235.4c.4,1.9.6,4.3,1.8,5.8.4.5,1.6-.1,2.5-.5.9-.5,1.8-1.1,2.6-1.8-.5,1-1.3,1.8-2.2,2.5-4.5,3.4-5.3-2.7-4.7-5.9h0Z"/>
            <path class="cls-3" d="M735.3,178.9c1.9,4.7,4.3,9.1,6.9,13.4l4,6.4c.9,1.4,1.8,3.4,3.6,3.1,2.8-1,4.8-3.7,6.3-6.2,3.7-6.7,3.3-14.6,3.1-22,1.2,9.8,1.4,21.8-7.3,28.3-3,2.3-5.1-.1-6.5-2.7-3.9-6.4-7.8-13.1-10-20.3h0Z"/>
            <path class="cls-3" d="M666.9,212.6c2.2,3,4.9,5.6,8.1,7.5,1.5.9,2.9,2.3,4.7,2.3,1.9.1,2.9-1.4,2.9-3.1.4-7.4.9-14.9,0-22.3,1.7,7.3,1.4,14.9,1,22.4,0,.9-.3,2-1.1,2.9-2.5,2.6-5.8.3-8-1.5-3.2-2.1-5.8-4.9-7.6-8.2h0Z"/>
            <path class="cls-3" d="M759.9,187.1c1.9,5.1,5.3,9.5,8.7,13.7,1.1,1.2,2.6,4,4.4,3.6,4.2-3.2,4.8-9.4,5.7-14.4.7-4.3,1-8.6,1.2-13,.2,4.4,0,8.8-.5,13.1-.6,4.4-1.2,8.9-3.6,12.7-3,5-5.4,1.9-7.9-1.5-3.3-4.3-6.5-8.9-8-14.3h0Z"/>
            <path class="cls-3" d="M779.5,188.5c2.6,7.5,6.4,14.4,11,20.8,1.8,2.4,5.2,8.1,7.6,3,3.2-8.6,4.5-17.8,4.3-27,.8,7.9,0,16-2.2,23.6-.6,1.9-1,4.1-2.4,5.6-3.4,2.9-6.2-2.3-8-4.6-4.6-6.4-8.3-13.7-10.3-21.3h0Z"/>
            <path class="cls-3" d="M802.9,197.1c2.3,4.7,4.8,9.2,7.5,13.7,2.7,4.4,5.6,8.8,9.7,11.9,1,.8,2.1,1.5,3.1,1.1,1-.4,1.6-1.6,2-2.7.8-2.4,1.4-4.9,1.9-7.5.9-5.1.8-10.4,0-15.5,1.2,5.1,1.4,10.4.7,15.6-.3,2.6-1,5.2-1.8,7.7-1,3.5-3.6,4.6-6.5,2.1-4.2-3.3-7.2-7.8-9.8-12.3-2.5-4.6-4.8-9.2-6.8-14.1h0Z"/>
            <path class="cls-3" d="M828.9,213c2.4,5.7,5.6,10.9,9.7,15.5,1.7,1.8,4.4,5.2,6.8,2.7,1.8-2.3,1.6-5.7,2.1-8.6.3-4.1.2-8.2.2-12.3.4,4.1.7,8.2.5,12.4-.3,3.1-.1,6.6-2.1,9.2-2.9,3.2-6.3-.5-8.2-2.8-4.1-4.7-7.2-10.2-9-16.1h0Z"/>
            <path class="cls-3" d="M848.6,222.9c2.4,5.8,6.7,10.5,11,14.9,1.9,2,4.9,5.4,5.9.8.3-1.5.5-3.1.7-4.6.1-1.6.1-3.1,0-4.7.6,3.1.6,6.3,0,9.4-.2,1.9-1.6,3.7-3.7,2.8-1.4-.6-2.7-2.1-3.7-3.1-4.3-4.5-8.6-9.5-10.3-15.6h0Z"/>
          </g>
        </g>
        <g>
          <g>
            <path class="cls-10" d="M457.8,227.8h-.2l-13-.8c-.8,0-2.4-.1-3.8-1.3-1-.8-1.6-1.9-1.8-3.1-.2,0-.5,0-.7.1-2,.3-4,.3-5.7.2-.8,0-1.5,0-2.2,0-2.2,0-3.9-.7-4.9-2.2-.5-.7-1-1.9-.9-3.4h-.4c-1.7.3-3.6.6-5.9.1-2-.4-3.5-1.2-4.5-2.6-.7-.9-1.1-2-1.2-3.2h-1c-1.1,0-2.2,0-3.4-.1-2.9-.3-4.1-1.8-4.7-3-.2-.4-.3-.8-.4-1.3-3.4.2-7,0-10.6-.9-3.9-1.1-4.6-3.8-4.7-4.9,0-.8,0-1.4.2-2.1-3.7-.1-7.3-.4-11-.9-1.8-.2-7.9-1.4-9.5-6.1-.4-1-.6-2.8.2-4.8-4-.6-7.9-1.5-11.7-2.8-1.2-.4-2.1-1.4-2.5-2.6-.4-1.2-.2-2.5.6-3.6.3-.4.6-.7.9-1.1l-5.9-.9c-3.1-.5-5.1-1.9-5.9-4.1-.5-1.3-.4-2.7.1-4-4.2-1-8.3-2.4-12.3-4.2-1.1-.5-2-1.5-2.2-2.8-.3-1.2,0-2.5.8-3.4.1-.2.3-.4.5-.5l-13.7-4.4c-1.2-.4-4.1-1.5-5.3-4.2-.7-1.4-.7-3,0-4.5.1-.3.2-.5.4-.8-6-1.1-11.9-2.5-17.9-4.6-1.1-.4-3.3-1.2-4.5-3.4-1.1-1.9-1-4.1,0-6.1-10.4-.5-19.7-1.5-28.5-3.2-1.5-.3-4.5-.8-6.3-3.5-1.2-1.7-1.6-3.7-1.1-5.7.4-1.8,1.6-3.2,2.8-4.3-9.9,0-19.9-.2-29.9-1.2-1-.1-4.2-.5-5.7-3.3-.3-.6-.8-1.8-.6-3.3l-1.6.3c-2,.4-3.9.8-5.8,1.2-2.8.7-5.8.5-8.4.4-.6,0-1.2,0-1.8,0-6.3-.2-12.6-.9-18.7-2.2-1.6-.3-4.8-1-6.6-3.8-1-1.6-1.4-3.6-1.1-5.5-.6,0-1.1.2-1.4.2-3.5.3-7.1.5-10.6.6-7.1.3-14.2.3-21.3.2-.5,0-1.1,0-1.7,0-4.2,0-9.4,0-11.6-3.8-.8-1.5-1.4-4.1.9-7.7.5-.8,2.6-2.7,5.2-4.8l-43-1.3c-2.8,0-6.8-1.2-8.7-4.1-1.1-1.7-1.3-3.7-.6-5.6,1.1-2.9,4-4,5.3-4.5l3.1-1.1c-15.2-.8-30.4-2.7-45.4-5.7-4.5-.9-7.2-3-8.1-6.1-.5-1.8-.2-3.7.8-5.3,2-3.3,6.2-4.6,8-5l8.4-2c-14.6-2-29.2-4.3-43.5-7.1-2.1-.4-5-1-7.4-2.7C.8,27.1-.7,23,.3,19.5c1.7-5.4,7.9-6.4,10-6.7,6.4-1,12.9-2.2,19.3-3.3,16.2-2.8,32.9-5.8,49.5-7.1,14.2-1.1,28.6-1.1,42.6-1.1,3.4,0,6.8,0,10.2,0,40-.2,81.4-.4,121.9,5.2,23.3,3.2,57.2,9.8,83.2,29.9,20.7,16.1,34.5,38.8,47.8,60.9,2.4,3.9,4.8,7.9,7.2,11.8,31.7,51.1,81.1,79.1,116.9,93.6,2,.8,3,3.2,2.2,5.2-.8,2.1-3.2,3-5.2,2.2-36.9-14.9-87.8-43.8-120.7-96.8-2.5-3.9-4.9-8-7.3-11.9-13-21.4-26.3-43.5-45.9-58.7-18.9-14.7-43.4-23.4-79.4-28.3-39.9-5.5-81-5.3-120.8-5.1-3.4,0-6.8,0-10.2,0-13.8,0-28,0-41.9,1.1-16.2,1.2-32.8,4.1-48.8,7-6.4,1.1-12.9,2.3-19.4,3.3-2.7.4-3.4,1-3.6,1.1,0,.2.3.6.7,1,1.1.7,2.8,1.1,4.3,1.4,21.4,4.1,43.3,7.3,65,9.6,1.9.2,3.4,1.8,3.6,3.7s-1.2,3.7-3.1,4.2l-30,7.2c-.7.2-1.3.4-1.8.6.2,0,.5.1.8.2,21.4,4.3,43.3,6.3,65.2,6,2,0,3.6,1.4,4,3.3s-.7,3.8-2.6,4.5l-19.5,7.2,54.3,1.6h0c2.2,0,3.9,1.9,3.9,4.1,0,2-1.6,3.6-3.5,3.9-2,.8-8.7,5.4-11.5,7.8,1,0,2.2,0,2.9,0h2c6.9.2,13.9.1,20.8-.2,3.4-.1,6.9-.3,10.4-.6.3,0,.8-.1,1.5-.2,5.4-.8,10.2-1.5,12.1,2,.8,1.5.6,3.2-.5,4.5-.7.9-1.6,1.4-2.2,1.9-.2.2-.6.4-.7.6,0,0-.1.1-.1.2.2,0,.7.2,1.4.4,5.7,1.2,11.5,1.9,17.3,2.1.6,0,1.2,0,1.9,0,2.2,0,4.5.2,6.2-.2,2-.5,4.1-.9,6.1-1.3l2-.4c.8-.2,1.5-.4,2.3-.7.6-.2,1.3-.5,1.9-.7,2-.6,4-.7,5.8-.9.5,0,1,0,1.5-.1,1.8-.2,3.5.9,4.1,2.7s0,3.7-1.6,4.7c-.9.6-1.9,1.3-2.7,2,13.2,1.2,26.8.9,40,.6,1.7,0,3.3,1.1,3.9,2.7s0,3.5-1.5,4.5c-3,2.2-6.3,4.2-9.6,5.9-.5.2-.9.5-1.2.7,0,0,.1,0,.2,0,10.9,2.1,22.4,3.1,36.2,3.4,1.6,0,3.1,1,3.7,2.6.6,1.5.2,3.2-1,4.4-.4.3-.7.7-1,1-.8.7-1.5,1.5-2.4,2.2,8.8,3,17.7,4.3,27.1,5.7l1.2.2c1.7.2,3.1,1.6,3.4,3.3s-.6,3.4-2.1,4.2c-1.2.6-2.5,1.1-3.7,1.5l17.8,5.6c1.8.6,2.9,2.2,2.8,4.1,0,1.3-.8,2.5-1.9,3.2,3.7,1.1,7.4,1.8,11.2,2.1,1.3.1,2.4.8,3.1,1.9.7,1.1.8,2.4.3,3.6-.3.8-.8,1.4-1.3,1.9l9.8,1.4c1.7.2,3.1,1.6,3.4,3.3.3,1.7-.5,3.4-2.1,4.2-.4.2-.7.4-1.1.6,4.5.9,9.1,1.3,13.6,1.1,2-.1,3.8,1.4,4.1,3.4s-1,4-3,4.5c-1.5.4-3.4.9-4.2,1.8,0,0,0,0-.1.1.6.2,1.4.5,2.4.6,6,.8,12.1,1,18.2.7,1.9-.1,3.5,1.1,4,2.9.5,1.8-.3,3.7-1.9,4.6-.2.1-.4.3-.6.5,3.9.4,8.1-.3,11.8-1h0c2.2-.4,4.3,1,4.7,3.2.1.8,0,1.6-.2,2.3.4,0,.8,0,1.3.1,1.5.2,3.1.4,4.8.4q1.2,0,0,0c2.2,0,4,1.8,4,4.1,0,.3,0,.7-.1,1,1.6-.2,3.2-.2,4.8-.2s1.6,0,2.5,0c1.8,0,3.4,1,4,2.7.4,1.1.3,2.4-.3,3.4.7,0,1.3,0,1.9-.1,1.5-.3,3-.6,4.6-1,.9-.2,1.9-.4,2.8-.6,1.3-.3,2.6.1,3.6,1,1,.9,1.4,2.2,1.2,3.5,0,.6-.2,1.1-.4,1.5l9.4.6c2.2.1,3.9,2,3.8,4.2-.1,2.1-1.9,3.8-4,3.8h.1ZM420.2,212.1h0,0ZM375.2,190.5h0ZM183.6,96.2h0ZM148.8,80.3h0,0ZM149.5,80.2h0Z"/>
            <path class="cls-2" d="M507.4,206.5c-47.7-19.3-91.4-51.1-118.8-95.2-15.9-25.6-30.3-53.2-54.1-71.7-23-17.9-52.4-25.2-81.3-29.1-40.1-5.5-80.8-5.3-121.3-5.2-17.5,0-35-.2-52.4,1.1-22.9,1.8-45.8,6.7-68.5,10.3-2.7.4-6,1.3-6.8,3.9-.6,2,.6,4.2,2.3,5.4s3.8,1.6,5.9,2c21.6,4.1,43.4,7.4,65.3,9.7-10,2.4-20,4.8-30,7.2-2.9.7-6.5,2.6-5.8,5.4.5,2,2.9,2.8,5,3.2,21.7,4.3,43.9,6.4,66,6-7.7,2.8-15.4,5.7-23.1,8.5-1.2.4-2.5,1-2.9,2.1-1,2.6,2.9,4.2,5.7,4.3,18.8.6,37.6,1.1,56.4,1.7-2.1,0-14.1,8.7-15.4,10.5-3.9,6.2,4.8,5.2,9.1,5.3,7,.2,14,.1,21-.2,3.5-.1,7-.3,10.5-.6,1.6-.1,9-1.6,9.8-.3-.8,1-2.2,1.5-3,2.5-1.1,1.4-1.5,3.4-.6,4.9.9,1.3,2.6,1.8,4.1,2.1,5.9,1.3,12,2,18,2.1,2.9,0,6.3.4,9.2-.2,2.6-.6,5.2-1.1,7.9-1.6,1.7-.3,3.1-1,4.6-1.5,2-.6,4.4-.6,6.5-.8-2,1.3-3.9,2.9-5.6,4.6-.9.9-1.7,2.2-1.2,3.2.5.9,1.6,1.1,2.6,1.2,14.5,1.6,29.1,1.3,43.7,1-2.9,2.1-5.9,3.9-9.1,5.5-2.1,1.1-5.6,3.6-3.7,6.4.8,1.2,2.3,1.5,3.7,1.8,12.2,2.3,24.5,3.2,36.9,3.4-1.4,1.3-2.6,2.6-4.2,3.9-1.2,1-2.1,2.7-1.4,4,.5.9,1.5,1.2,2.4,1.6,9.9,3.6,19.9,5,30.3,6.5-2.5,1.3-5.7,1.9-8.4,2.8-.8.3-1.7.6-2,1.4-.6,1.5,1.3,2.8,2.9,3.3,7.4,2.4,14.9,4.7,22.3,7.1-2.8.5-5.4,2-7.2,4.2,6.3,2.9,13.2,4.7,20.1,5.3-.5,1.3-2.2,1.7-3.5,2.2s-2.8,1.7-2.3,3c.4,1,1.7,1.4,2.8,1.5,4.9.7,9.8,1.4,14.8,2.2-2.8,1.5-5.2,3.6-7.1,6.1,6.9,2.4,14.3,3.4,21.7,3.1-2.2.6-4.5,1.2-6.1,2.8-4.5,4.6.8,7,4.7,7.5,6.3.8,12.6,1.1,18.9.8-1.8,1-2.8,2.7-4.1,4.3-.3.4-.7.9-.6,1.4,0,.8,1,1.2,1.8,1.5,5.5,1.6,11.3.8,16.8-.3-1.2.2-2.4,2.3-3,3.2-.3.4-.5,1-.3,1.5.2.5.9.6,1.4.7,2.1.2,4.2,0,6.3.2,1.8.2,3.5.4,5.3.4-.9,0-3.1,1.3-3.5,2.2-.3.6-.2,1.4.2,2,.5.6,1.3.9,2.1,1.1,1.9.4,3.5,0,5.4-.2,2.3-.3,4.8-.1,7.1-.2-1.4,1-2.4,2.5-2.9,4.1-.1.4-.2.9,0,1.3.3.5,1,.5,1.5.5,2.4,0,4.9.3,7.3,0,2.5-.4,5-1.1,7.5-1.6-.1,1-1,1.8-1.6,2.6s-1,2.2-.1,2.8c.4.3,1,.4,1.5.4,4.3.3,8.6.5,13,.8"/>
          </g>
          <path class="cls-3" d="M200.9,6.5c44.7,2.4,92.3,13.4,124.9,46.2,10.7,10.8,19.1,23.6,27.1,36.4,10.8,17.7,21.8,35.3,36,50.4,16.4,18.1,35.9,33.4,57.1,45.5,13.1,7.4,26.9,13.5,41.2,18.2.2,0,0,.3,0,.3-36.1-11.2-69.3-31.6-95.6-58.7-5.2-5.3-10.4-11.3-15-17.1-14.3-17.7-24.5-38.1-37.8-56.4-20.6-30.1-53-48-87.7-56.6-16.4-4.1-33.2-6.6-50.1-7.9-.2,0-.2-.3,0-.3h0Z"/>
          <g>
            <path class="cls-3" d="M316.3,111.4c-5.3,2.1-10.1,5.5-13.9,9.8-3.5,3.6,1.7,4.7,4.6,4.9,9,1.2,18.5.8,27.6.8-9.2.8-18.5,1.2-27.7.2-3.8-.2-9.1-2.1-5.1-6.5,3.9-4.3,9-7.5,14.6-9.2h0Z"/>
            <path class="cls-3" d="M337.5,128.5c-3.8,2.8-7.9,5.2-11.1,8.6-2.3,2.5-.5,4.8,2.5,5.3,7.3,1.4,15.1,1.3,22.5,1.6-7.6.5-15.2.7-22.7-.6-2-.3-4.3-1.7-4.2-4,.1-2.2,1.9-3.5,3.5-4.7,3-2.3,6.3-4.3,9.6-6.1h0Z"/>
            <path class="cls-3" d="M351.9,145.7c-3.9,2-7.6,4.4-10.6,7.5-1.4,1.7.4,2.3,1.9,2.6,7.6,2,15.6,2.1,23.4.8-6.8,2-14.1,2.2-21,.8-.9-.2-1.7-.4-2.6-.6-.8-.3-1.8-.3-2.6-1.2-1.6-1.9,1-3.7,2.3-4.8,2.8-2.2,5.9-3.9,9.2-5.1h0Z"/>
            <path class="cls-3" d="M289.9,95.9c-6.6,1.2-13.5,4.5-16.5,10.8-.2.5-.5,1.2-.5,1.6,0,.3,0,.3.2.4.2.1.5.2.8.3,11.5,3,23.3,4.9,35.2,5.4-12,.4-24-1.3-35.5-4.5-.5-.2-1.1-.3-1.5-.9-.1-.3-.1-.4-.2-.7.1-1.5.8-2.5,1.5-3.7,3.6-5.3,10.1-8.1,16.3-8.7h0Z"/>
            <path class="cls-3" d="M257.9,75.8c-6.7,2.7-13,6.5-18.5,11.3-1.4,1.2-2.7,2.4-3.9,3.8-1.1,1.2-2.6,2.5-2.6,4.3,0,1.9,1.7,2.4,3.4,2.4,16.3.9,32.8.7,48.5-4.1-15.5,5.6-32.3,6-48.6,5-2.1,0-4.4-.8-4.3-3.3,0-2.1,1.6-3.6,2.9-4.9,1.3-1.3,2.6-2.6,4-3.7,5.6-4.7,12.1-8.4,19-10.7h0Z"/>
            <path class="cls-3" d="M359.9,158.8c-2,1.5-4.4,3.3-5.2,5.6-.3,1.1,1.3,1.3,2.5,1.5,6.6.6,13.3,1.1,19.9.3-5.2,1.4-10.7,1.4-16,1-2-.2-4.1-.2-6.1-.9-.3-.1-.7-.4-1-.8-1.1-2.6,3.9-5.8,5.8-6.8h0Z"/>
            <path class="cls-3" d="M370.1,167.6c-1,1.1-1.9,2.3-2.6,3.6-.3.7-1,1.6,0,1.9,3.3.3,7,.6,10.3.7,2,0,4-.1,6-.2-2,.4-3.9.8-6,.9-2.9.2-6.1-.1-9-.4-5.5,0-.9-5,1.2-6.6h0Z"/>
            <path class="cls-3" d="M381.5,174.8c-1.7,2.6-2.7,5.6-2.9,8.5l-.4-.5c5,1.2,10.3,1,15.3-.3-4.8,2.3-10.4,2.6-15.6,1.2-.2,0-.4-.3-.4-.5.4-3.2,1.7-6.2,3.9-8.4h0Z"/>
            <path class="cls-3" d="M393.5,183.6c-.5,2.2-.9,4.3-1.3,6.5-.2,1.1-.5,2.2,0,2.9.4.6,1.6.7,2.7.8,2.2.2,4.4.2,6.5,0,2.2-.2,4.4-.6,6.5-1.2-4.1,1.9-8.7,2.6-13.1,2.1-2-.1-4.1-.7-3.7-3.2.6-2.8,1.4-5.4,2.5-8h0Z"/>
            <path class="cls-3" d="M407.9,194.3c.1,1.6.2,3.3.2,4.9,0,.8-.1,1.8.3,2,.3.3,1.3.3,2.1.3,3.2.2,6.4-.2,9.6-.9-3.4,1.6-7.2,2.2-10.9,1.8-.4,0-1-.1-1.4-.5-.5-.4-.5-1.1-.5-1.5.1-2.1.4-4.1.7-6.1h0Z"/>
            <path class="cls-3" d="M421.2,201.6c-.1,2.5-.4,5.3.4,7.6.3.6,1,.9,1.8.9,1.7,0,3.4-.1,5.1-.6,1.7-.4,3.3-1.1,4.8-1.9-1.3,1.2-2.9,2.1-4.6,2.7-2.1.6-6.6,1.9-8-.6-.9-2.7-.3-5.4.4-8.1h0Z"/>
            <path class="cls-3" d="M217.1,58.2c-9.8,5.3-18.4,12.6-25.2,21.4-1.8,2.4-4.5,5.5-2.5,8.4.6.8,1.6,1,2.6,1.1,2.2,0,4.4,0,6.6,0,17.8-.4,35.3-5.3,51.1-13.6-15.4,9.1-33.2,14-51,14.6-2.3,0-4.5,0-6.7,0-1.1,0-2.5-.4-3.3-1.5-2.4-3.3.5-6.9,2.6-9.5,6.9-8.8,15.8-16.1,25.9-20.9h0Z"/>
            <path class="cls-3" d="M187.2,44.3c-10.6,5.5-20.7,11.9-30,19.4-1.9,1.8-8,5.3-6.6,8.3.4.7,1.3,1,2.2,1.1,14.8,1.3,29.8.7,44.5-1.3-13.7,2.6-27.7,3.4-41.6,2.5-1.5-.2-3.1,0-4.6-.7-1.8-.7-2.1-3-1.1-4.5,1.7-2.6,4.4-4.2,6.7-6.2,9.4-7.4,19.7-13.7,30.6-18.7h0Z"/>
            <path class="cls-3" d="M155.2,28.8c-11.3,6-22.2,12.6-32.7,19.9-1.7,1.2-3.5,2.5-5.2,3.7-.8.6-1.5,1.4-1.8,2.2-.7,2.3,2.3,2.2,3.9,2.4,15.8,1.7,31.9,1,47.6-1.7-14.6,3.2-29.6,4.2-44.5,3-1.1,0-2.1-.2-3.2-.3-1.5-.2-3.8,0-4.7-1.8-1.4-3.6,5.1-6.4,7.3-8.3,10.5-7.2,21.6-13.7,33.2-19.2h0Z"/>
            <path class="cls-3" d="M121.2,19c-11.3,3.7-22.4,8.2-33.1,13.4l-2.7,1.3c-1.5.7-3.6,1.9-3.1,3.8.2.7,1,1.2,1.9,1.4,7.7,1.7,15.6,2.8,23.5,3.6,7.9.8,15.9,1,23.8.9-15.9,1-31.9-.2-47.6-3.5-1.1-.3-2.3-.9-2.6-2.1-.7-3.7,3.9-4.8,6.3-6.2,10.8-5.2,22-9.4,33.5-12.6h0Z"/>
            <path class="cls-3" d="M97.1,27.3c-11.2-.4-22.4-2.5-33.1-6.1-1.8-.7-3.5-1.2-5.3-2-.4-.2-.9-.6-1.2-1.1-2.9-7.4,19.2-8,23.7-8.7,5.6-.6,16.8-1.7,22.3-2.2-5.6.8-16.7,2.3-22.3,3-5.5.8-11.2,1.1-16.6,2.5-2.3.8-5.6,1.5-6.5,3.9-.3,1.8,2.2,2.2,3.5,2.8,11.4,4.3,23.3,6.9,35.4,8h0Z"/>
            <path class="cls-3" d="M326.6,90.3c-4.4,4.8-8,10.2-10.6,16.1-.8,1.7-1.6,4.1.3,5.2,1.8.9,4.1.4,6,.2,6.4-.9,12.6-3,18.3-6-5.5,3.6-11.7,5.9-18.1,6.9-2.2.3-4.5.9-6.7-.2-2.4-1.3-1.7-4.5-.6-6.4,2.7-5.9,6.6-11.3,11.4-15.7h0Z"/>
            <path class="cls-3" d="M305.6,74.1c-6.3,4.3-12.8,8.6-17.7,14.6-1,1.2-2.4,3.7-.6,4.8,1.1.5,2.6.7,3.9,1,11,2.1,22.5,1.1,33-2.6-11,4.8-23.5,5.8-35.2,3.2-7.9-1.5-.4-8.8,2.6-11.4,4.3-3.7,9.1-6.7,13.9-9.5h0Z"/>
            <path class="cls-3" d="M230.8,30.9c-6.7,5.8-11.5,14-13.2,22.7-.8,3.9,3.1,3.4,5.7,3.2,12-.8,22.8-6.9,33.2-12.4-10.8,6.7-22.4,13.3-35.4,13.5-2.9.2-5.1-1.3-4.4-4.5.6-3,1.6-5.9,2.9-8.6,2.6-5.5,6.5-10.3,11.2-13.9h0Z"/>
            <path class="cls-3" d="M206.9,18.1c-6.1,2.1-11.1,6.3-14.9,11.4-2.3,3.1-10.1,14.6-1.3,13.6,12.6-1.7,24.5-7.2,35.1-14.1-10.2,7.7-22.3,13.4-35,15.1-10.1.8-2.5-11.4.6-15.1,3.9-5.1,9.3-9.2,15.5-11h0Z"/>
            <path class="cls-3" d="M184.8,7.2c-6.2,2-12.2,4.9-17.4,8.7-3.2,2.4-6.2,5.2-8.5,8.6-1.9,2.5-.9,3.8,2.1,4,12.9,1.6,26.3-1.6,37.2-8.7-10.6,7.8-24.2,11.2-37.3,9.7-10.3-.9,2.8-11.9,6.1-14.1,5.4-3.8,11.5-6.5,17.8-8.1h0Z"/>
            <path class="cls-3" d="M147.6,6.9c-5.5,1.6-10.9,3.5-16.1,5.7-2.2,1-4.4,2.1-5.8,4.1-1.4,1.9.5,2.3,2.1,2.5,12.5,2.8,25.6,1.9,37.7-2.5-11.8,5.3-25.3,6.3-37.9,3.5-.7-.2-1.4-.2-2.2-.6-1.4-.7-1.4-2.3-.4-3.4,1.5-2.1,3.9-3.4,6.3-4.3,5.3-2.1,10.8-3.8,16.4-5h0Z"/>
            <path class="cls-3" d="M270.7,23.3c-6.3,6.7-10.9,15.2-12.6,24.2-.7,3.7,2.8,4.2,5.7,4.1,6.1-.2,11.7-3.4,16.9-6.5,5.3-3.1,10.5-6.6,15.5-10.2-4.8,4-9.8,7.6-15,10.9-5.2,3.3-10.9,6.5-17.3,6.8-3.5.2-7.5-.8-6.6-5.2,1.9-9.2,6.7-17.7,13.5-24.1h0Z"/>
            <path class="cls-3" d="M234.3,12.5c-2,3.8-3.7,7.8-4.8,11.9-1.1,3.4-.5,6.2,3.7,5.8,9.6-.9,18.1-6,26.4-10.6-8,5.4-16.6,10.8-26.4,11.6-4.7.3-6-3-4.5-7,1.3-4.1,3.1-8.1,5.5-11.6h0Z"/>
            <path class="cls-3" d="M263.6,52.7c-3.7,4.5-7,9.3-9.7,14.4-4.1,6.9-1.9,10.5,6.2,9.4,5.7-.8,11-3.5,16.3-5.8,5.3-2.3,10.6-4.9,15.8-7.4-5,2.9-10.2,5.6-15.5,8.1-6.6,2.9-13.5,6.9-20.9,6.1-6.5-1-5.2-6.7-2.5-10.8,2.9-5.1,6.3-9.9,10.4-14.1h0Z"/>
            <path class="cls-3" d="M302.3,38.2c-4.5,8.1-8.1,16.7-10.5,25.7-1.8,5.4-.2,8.7,5.8,8.7,4.6,0,9-1.6,13.4-3,5.8-2,11.6-4.4,17.2-6.9-5.5,2.9-11.2,5.4-17,7.6-4.3,1.6-8.9,3.3-13.6,3.3-6.5,0-8.7-4-6.6-9.9,2.5-9,6.4-17.6,11.4-25.4h0Z"/>
            <path class="cls-3" d="M331.4,65.6c-1.6,4.2-3.3,8.3-5,12.4-1.2,3.9-7,11.8-.9,13.9,3.1.8,6.5,0,9.7-.3,4.4-.7,8.6-2.1,12.6-3.9-3.9,2.2-8.1,3.8-12.5,4.7-3.3.6-6.8,1.3-10.1.5-7.1-2.5-1.2-10.7.5-15.2,1.9-4.1,3.7-8.1,5.7-12.1h0Z"/>
            <path class="cls-3" d="M342.9,110.1c-3,4.2-5.7,8.6-7.9,13.2-.8,1.4-1,3,.7,3.7,1.4.6,3.2.6,4.9.6,5.1,0,10.2-.7,15.1-2.1-4.8,2-10,3-15.1,3-1.8,0-3.6.1-5.3-.6-2.2-1-2.2-3.2-1.1-5,2.4-4.6,5.3-8.9,8.8-12.8h0Z"/>
            <path class="cls-3" d="M357.2,128.6c-2.4,2-4.7,4.2-6.7,6.7-1.7,2-4.4,5.6-.7,6.9,6,1.4,12.5,1.2,18.7.8-6.2,1.1-12.9,1.6-19.1.1-7.6-3.2,4.4-12.4,7.7-14.6h0Z"/>
            <path class="cls-3" d="M372,144.5c-3.1,2.7-5.8,5.9-7.7,9.6-.6,1.2-.3,2.2,1.2,2.3,5.4.3,11-.8,16-3-2.4,1.5-5,2.5-7.7,3.2-2.7.7-5.5.9-8.4.8-.4,0-.8-.1-1.2-.3-2.9-1.7.4-5.2,1.6-6.9,1.7-2.2,3.8-4.1,6.2-5.6h0Z"/>
            <path class="cls-3" d="M378.5,156.4c-1.3,2.6-2.4,5.3-3,8.1-.4,1.9,1.6,1.9,3.2,2.1,4.6.5,9.3-.1,13.7-1.5-4.8,2.4-10.3,3.1-15.6,2.3-2.8-.5-2.5-2.7-1.6-4.7.9-2.2,1.9-4.3,3.3-6.2h0Z"/>
            <path class="cls-3" d="M386.7,168.4c0,.9-.6,1.6-.9,2.3-1.8,4,7.6,1.8,9.4,1.4l4.7-1.3c-3.6,1.9-7.7,3.4-11.9,3.2-1.2,0-3.2-.6-3.1-2.2,0-1.4,1.5-2.1,1.8-3.3h0Z"/>
            <path class="cls-3" d="M394.8,175.2c-.3,1.2-.6,2.6-1,3.8-.4,1-.7,2.3.8,2.4,4.2.3,8.4-1,12.1-3.2-2.5,2.5-6,3.9-9.6,4.2-6.9.6-4.2-3.2-2.4-7.2h0Z"/>
            <path class="cls-3" d="M405.4,180.6c-.2,3.1-.2,6.3.6,9.3,1,3.3,5.2,1.5,7.6.9,1.9-.7,3.8-1.7,5.5-2.9-1.5,1.6-3.2,2.8-5.2,3.6-2.3.9-5.9,2.4-8,.3-1.1-1.4-1.1-3.2-1.2-4.8,0-2.1.1-4.3.7-6.3h0Z"/>
            <path class="cls-3" d="M418.4,190.7c0,2.6,0,5.4.8,7.8,1.3,2.1,4.8-.8,6.4-1.6,1.5-1,2.9-2.1,4.2-3.2-1.1,1.4-2.4,2.8-3.8,3.9-8,6.4-9.1.6-7.6-6.8h0Z"/>
            <path class="cls-3" d="M428.5,196.6c-.1,2.8-.1,5.9.8,8.5,1.3,3,4.9.4,6.9-.6,1.6-1,3.1-2.2,4.5-3.6-1.1,1.6-2.5,3.1-4.1,4.3-8.7,6.4-9.8-1.4-8.1-8.5h0Z"/>
            <path class="cls-3" d="M438.9,203.9c.4,2.1,1,4.3,2,6.1.4.5.8.6,1.4.4,1.2-.4,2.5-1.4,3.7-2.1l3.7-2.4c-1,1.1-2.1,2.1-3.3,3-1.3.9-2.4,1.8-3.9,2.4-.4.1-.9.2-1.4,0-1.3-.4-1.7-2-1.9-3.1-.4-1.4-.6-3-.5-4.4h0Z"/>
            <path class="cls-3" d="M448.9,208.4c.4,1.5,1.1,3.2,2.2,4.2.3.2.7,0,1.1-.1.9-.5,1.9-1.1,2.9-1.7,1-.6,2-1.2,3-1.7-.8.9-1.6,1.6-2.5,2.4-.9.7-1.8,1.4-2.9,1.9-.6.3-1.5.5-2.1,0-1.4-1.2-1.9-3.2-1.7-5h0Z"/>
            <path class="cls-3" d="M349.1,90.3c-2.5,4-4.5,8.2-5.8,12.7-.6,1.8-1.2,4.7,1.1,5.5,2.2.5,4.5-.2,6.7-.6,3-.7,6-1.7,8.8-3-2.7,1.7-5.6,2.9-8.6,3.7-2.3.5-4.8,1.4-7.2.8-6.4-2,2.3-16.2,5-19.2h0Z"/>
            <path class="cls-3" d="M361.7,107.9c-1.8,4.3-3.3,8.7-4.3,13.3-.3,2-1.5,4.6.4,6,2,.9,4.5.1,6.6,0,3-.5,6-1.5,8.9-2.7-4,2.4-8.7,3.9-13.4,4.2-.8,0-1.7,0-2.5-.5-2.5-1.5-1.4-4.8-.9-7,1.2-4.6,2.9-9,5.2-13.1h0Z"/>
            <path class="cls-3" d="M374,130.8c-4,2.3-6.7,6.7-6.7,11.3l-.4-.5c5.3.9,10.8,0,15.7-2.2-4.6,3.1-10.4,4.2-15.9,3.2-.2,0-.4-.2-.4-.5,0-4.9,3.1-9.6,7.7-11.3h0Z"/>
            <path class="cls-3" d="M385.7,142.6c-2.4,2.8-4,6.2-4.3,9.9-.2,1.2.3,1.9,1.5,2.2,4.8.9,9.9-.2,14.1-2.4-4.1,3-9.3,4.3-14.4,3.4-1.6-.3-2.5-1.7-2.2-3.3.5-3.8,2.4-7.4,5.3-9.8h0Z"/>
            <path class="cls-3" d="M396.2,155.6c-.9,1.9-1.6,3.8-2.1,5.7-.5,1.8-.8,4,1.6,4.1,4,.1,7.9-1.3,11.4-3.3-3.1,2.8-7.2,4.4-11.5,4.3-.5,0-1.1-.2-1.7-.6-2.9-1.9.8-8.2,2.2-10.2h0Z"/>
            <path class="cls-3" d="M406.7,164.4c-.3,2.3-.6,4.5-1,6.8-.1,1.1-.6,2.4-.1,3,.3.6,1.7.5,2.8.6,4.5,0,8.9-1.3,12.8-3.6-3.9,3.4-9.4,5-14.5,4.5-2.7-.2-2.1-2.8-1.6-4.7.5-2.2,1.1-4.4,1.8-6.6h0Z"/>
            <path class="cls-3" d="M417.9,175.6c1.3,2.9-1.5,9.1,3,9.7,3.8-.3,7.3-2.6,10.2-5-2.5,3.1-6.1,5.7-10.2,6-2.4,0-3.6-2.7-3.5-4.8.1-2.1.9-3.9.5-5.9h0Z"/>
            <path class="cls-3" d="M429,183.3c.3,2.4.2,4.8.5,7.1.4,1.3,2,1,3.1.6,3.6-1.2,6.8-3.4,9.4-6.3-2.2,3.7-6.2,6.8-10.6,7.5-2.1.2-3.1-1.3-2.8-3.2,0-1.9.2-3.9.4-5.8h0Z"/>
            <path class="cls-3" d="M439.4,189.6c0,2.6.5,5,1.2,7.4.3,1.5,1.6,1.7,3,1.1,3.8-1.4,5.5-5.6,8.3-8.4-2.5,3.7-4.5,9.1-9.6,9.6-.6,0-1.2-.1-1.7-.6-.5-.5-.7-1.1-.8-1.6-.7-2.5-.8-5.1-.4-7.7h0Z"/>
            <path class="cls-3" d="M449.5,195.1c-.3,2.4-.4,5,.4,7.2.5.8,1.3.6,2,.2,3.8-2.2,7-5.3,9.9-8.8-1.9,3.6-4.8,6.6-8.1,8.9-.8.5-1.8,1.2-3,1.2-3.1-.3-1.9-6.7-1.2-8.7h0Z"/>
            <path class="cls-3" d="M458.3,199.5c.5,2.6-1.2,6.1,1.4,7.7.7.4,1.5.2,2.2-.3,3.1-2.1,5.9-4.8,8.4-7.7-1.9,3.4-4.6,6.3-7.9,8.6-.4.3-.9.5-1.5.6-1.8.3-3.3-1.4-3.4-3-.3-2.1.7-3.9.7-5.8h0Z"/>
            <path class="cls-3" d="M466.8,205.1c.4,1.8.4,3.2.1,5-1.1-1.5-1.1-3.5-.1-5h0Z"/>
            <path class="cls-3" d="M473.3,207.1c1.5-2.1,2.9-3.7,4.7-5.6-.5,2.5-2.3,4.6-4.7,5.6h0Z"/>
          </g>
        </g>
        <g>
          <g>
            <path class="cls-10" d="M101.2,400c-1.8,0-3.3-.5-4.2-1.1-3.6-2-5.8-6.4-5.8-11.7.2-11.2,4.8-23.5,8.8-34.4.9-2.4,1.8-4.7,2.6-7,4.7-13.2,10.2-26.3,16.3-39.1,27.4-57,65.1-102.4,108.8-131.3,14.7-9.7,29.9-17.4,45.4-22.8,16.4-5.8,29.9-6.6,41.4-2.6,9.6,3.4,17.2,10,24.5,16.4,1.3,1.2,2.7,2.3,4,3.5,30,25.5,68.9,40.8,109.6,43.2,3.8.2,10.4-.6,17.3-1.5,16.2-2.1,33-4.3,40.4,2.2,7.3,6.4,7.1,12.8,5.6,17l-.4,1.3c-2.3,6.6-4.6,13.4-8.8,19.3-.7,1-2.5,3.5-5.4,4.1-1.1.3-2.3.2-3.3-.1-1,1.1-2,2.3-3.1,3.4s-2.8,2.8-5.8,2.3c-.5,0-.9-.2-1.3-.4-.6.8-1.2,1.5-1.9,2.3-3.5,4.1-6.7,4.2-8.8,3.5-.7-.2-1.4-.6-1.9-1.1l-2,2.5c-.7.9-3,3.7-6.5,3.2-2.2-.3-3.9-1.9-4.7-3.9-.7.6-1.4,1.2-2,1.7-.9.8-1.9,1.7-2.8,2.4-3.1,2.4-6,3-8.5,1.7-1.3-.6-2.3-1.7-2.9-3-2.9,1-5.8,1.8-8.7,2.5-1.1.3-3.3.8-5.5-.2-1.4-.6-2.4-1.6-3.1-2.9-2.2.9-4.5,1.6-6.9,2-5,.7-10.4,1-12.9-2.5-.1-.2-.3-.4-.4-.6l-6.6,2.8c-1.9.8-4.3,1.8-7,1.9-3.4.1-6.5-1.4-8.2-3.9-1.4.7-2.8,1.3-4.3,1.8-.7.2-1.5.6-2.3.9-1.9.8-4.1,1.8-6.4,1.9-2.3.2-4.8-.7-6.5-2.2-1.5-1.4-2.4-3.2-2.5-5.1v-.6c-3.6,2.3-7.5,4.2-11.5,5.6-1.4.5-5.1,1.9-8.4-.2-1.1-.7-1.9-1.7-2.5-2.8-6.5,5-13.3,9.6-20.4,13.7-1.2.7-3.7,2.1-6.6,1.4-1.8-.4-3.3-1.6-4.2-3.2-.9-1.5-1.1-3.2-1.1-4.8l-9.2,6.2c-2.2,1.5-8,5.4-13.5,2.3-1-.6-1.9-1.4-2.6-2.4-2.7,3.4-6.4,6.1-10.4,7.7-1.2.5-2.6.3-3.7-.4-.1,0-.2-.1-.3-.2-5.6,6.7-12.5,12.4-20.2,16.6-2.1,1.2-4.1,1.3-5.8.3-.5-.3-1-.7-1.5-1.3-4.7,6.4-9.7,12.6-15.8,17.9-3.9,3.4-8.3,3.8-11.1,1-.8-.9-1.3-1.9-1.6-2.8-1.5,2.2-3.1,4.5-4.7,6.8-5.1,7.1-9.8,12.6-14.6,17.2-1.3,1.2-2.8,2.6-5,3.2-3.2,1-6.7-.3-8.2-3-1.2-2-.9-4.2-.7-5.5l-25.6,28.2c-1.9,2.1-4.8,5.4-8.7,5-1.5-.1-3.7-.9-5.4-3.7-2.3-3.8-1.3-8.2-.6-10.8-4.7,6.8-9.7,13.4-14.9,19.8-1.2,1.5-2.4,3.1-3.7,4.9-4.1,5.5-8.8,11.6-14.2,15.4-2.5,1.7-4.8,2.3-6.6,2.3h0ZM299.2,155.6c-6.9,0-14.6,1.5-23.4,4.6-14.9,5.2-29.6,12.6-43.7,21.9-42.6,28.1-79.2,72.4-106,128.1-6,12.5-11.4,25.4-16,38.3-.8,2.3-1.7,4.6-2.6,7.1-3.8,10.2-8.2,21.8-8.3,31.7,0,2.4.8,4.1,1.6,4.5.5.3,1.4,0,2.5-.8,4.3-3,8.6-8.6,12.3-13.6,1.4-1.8,2.6-3.5,3.9-5.1,5.3-6.6,10.5-13.5,15.3-20.5,1.1-1.6,2.4-3.3,3.8-5.1,3.6-4.8,7.7-10.2,8.9-14.7.6-2.1,2.8-3.4,4.9-2.8,2.1.6,3.4,2.8,2.8,4.9h0l-6.8,25c-.3,1.1-.8,2.9-.7,4.2.6-.6,1.2-1.3,1.6-1.7l35.2-38.9c1.2-1.3,3.1-1.7,4.8-.9,1.6.8,2.5,2.6,2.1,4.4l-2.4,12.2c0,0,.1-.1.1-.1,4.4-4.2,8.8-9.4,13.6-16.1,2.2-3,4.3-6.1,6.2-8.9.4-.6.8-1.4,1.2-2.1.3-.5.6-1.1.9-1.7.4-.8,1-1.4,1.7-2.2.3-.4.8-.9,1.1-1.3.4-1.7,2.1-3,3.9-3,2.2,0,4,1.8,4,4h0v8.6c8.3-7.5,14.8-17,21.2-26.3,1-1.5,3-2.1,4.7-1.5s2.8,2.4,2.6,4.2l-.4,3.6c7.9-5.1,14.6-11.9,19.5-19.9.9-1.5,2.8-2.3,4.5-1.8,1.7.5,2.9,2.1,2.9,3.9h0c.7-.5,1.4-1.3,2-2.1,1.8-2.5,4-5.7,5.6-8.7,1-1.9,3.2-2.7,5.1-1.9,1.9.8,2.9,3,2.2,5-.6,1.6-1.2,3.3-1.1,4.7,0,.9.4,1.7.7,1.9.3.1,1.4.5,5-2l17-11.5c1-.7,2.4-.9,3.6-.5,1.2.4,2.1,1.4,2.5,2.6.9,3,0,5.7-.8,7.7-.2.5-.3.9-.5,1.4,0,0,0,.1,0,.2,9.9-5.7,19.2-12.5,27.8-20,1.5-1.3,3.7-1.3,5.2,0,1.5,1.3,1.9,3.5.8,5.2-.2.4-.5.7-.7,1.1-.6,1-1.4,2.1-1.7,2.9.2,0,.6-.2,1-.3,3.6-1.3,7-3,10.2-5.1h.2c1.2-.8,2.6-1.8,4.5-2.1,3.1-.5,6.2,1,7.3,3.7.9,2,.4,3.9.1,5,0,0,0,.1,0,.2,0,0,.2,0,.3,0,1,0,2.5-.7,3.9-1.3,1-.4,2-.8,3-1.2,2.6-.8,5.2-2.3,7.8-3.9.8-.7,1.7-1.2,2.8-1.5,1.9-.5,3.9.5,4.6,2.3.7,1.7.2,3.6-1.2,4.7.2,0,.4,0,.7,0,1.2,0,2.7-.7,4.2-1.3l13.3-5.6c1.6-.7,3.5-.2,4.6,1.1,1.1,1.3,1.3,3.2.4,4.7.9,0,2-.1,3.5-.4,2-.3,3.9-.9,5.7-1.7,1.7-.8,3.2-1.3,4.8-1.9.7-.2,1.4-.5,2.1-.7h0c2.1-.8,4.4.3,5.1,2.4.3.8.3,1.7,0,2.5,3.8-1,7.3-2.2,10.6-4.2,1.6-1,3.7-.7,5,.7.6.7,1,1.5,1.1,2.4,2-1.8,4.3-3.8,6.8-4.9,1.1-.5,4-1.8,6.4,0,.7.6,1.2,1.2,1.5,1.9l4.9-6.1c1.2-1.5,3.4-1.9,5.1-1,1.1.7,1.9,1.8,2,3.1,1.5-1.9,3-3.9,4.5-5.8,1.2-1.7,3.6-2.2,5.3-1.1.4.2.7.6,1,.9.8-.9,1.5-1.8,2.3-2.8,1.1-1.4,3.1-2,4.8-1.2.4.2.8.4,1.1.7,3.5-4.9,5.6-11.1,7.6-17.1l.4-1.3c.6-1.8.9-4.6-3.4-8.4-4.7-4.1-22.4-1.8-34-.3-7.6,1-14.2,1.9-18.8,1.6-42.4-2.5-83.1-18.5-114.4-45.1-1.4-1.2-2.7-2.4-4.1-3.6-7.1-6.2-13.8-12-21.9-14.9-3.9-1.4-8.1-2-12.7-2h0ZM188.8,341h0ZM316.7,275.7h0ZM435.8,266.6h0ZM365.1,262.9h0ZM492.3,255.2h0Z"/>
            <path class="cls-2" d="M340.5,173c-8.5-7.2-16.7-15.4-27.3-19.2-12.5-4.4-26.3-1.8-38.7,2.6-15.7,5.6-30.6,13.2-44.5,22.4-47.4,31.3-83,78.9-107.4,129.7-6.1,12.6-11.5,25.5-16.1,38.7-4.3,12.1-11,27.1-11.2,40.1,0,6.5,4.2,11.3,10.3,7.1,6.5-4.5,12.1-13.3,17.1-19.4,5.4-6.7,10.6-13.6,15.5-20.8,4.1-6,11.4-14,13.2-21.1-2.3,8.4-4.5,16.7-6.8,25.1-.7,2.7-1.4,5.8,0,8.2,2.6,4.1,5.9,0,8.1-2.3,11.6-12.8,23.2-25.7,34.9-38.5-.9,4.5-1.8,9.1-2.7,13.6-.2,1.1-.4,2.3.1,3.2.7,1.2,2.3,1.5,3.6,1.1s2.4-1.3,3.4-2.3c5.2-5,9.8-10.8,14.1-16.6,2.1-3,4.2-6,6.2-9,.9-1.3,1.5-2.7,2.2-4,.6-1.1,3.2-3.3,3.2-4.5,0,3.4,0,6.7,0,10.1,0,1.1,0,2.3.8,3.1,1.4,1.5,4,.2,5.5-1.2,8.8-7.8,15.6-17.6,22.3-27.3-.3,2.7-.6,5.3-.9,8-.1.8-.1,1.8.6,2.2.6.3,1.4,0,2-.3,10.1-5.5,18.8-13.8,24.8-23.6v7.5c3.6-1.4,6.9-4,9.2-7.2,2.1-2.9,4.3-6.1,5.9-9.2-.7,2-1.4,4-1.4,6s.9,4.3,2.7,5.3c2.9,1.7,6.5-.2,9.2-2.1,5.7-3.8,11.3-7.6,17-11.5.7,2.2-.6,4.5-1.2,6.8s-.2,5.4,2,5.9c1.2.3,2.5-.4,3.6-1,10.2-5.9,19.8-12.8,28.6-20.6-1,1.6-2.5,3.5-2.9,5.4-.4,1.6,0,3.5,1.4,4.4,1.4.9,3.3.4,4.9-.2,3.8-1.4,7.5-3.2,11-5.4,1-.6,2-1.3,3.2-1.5s2.5.2,3,1.4c.6,1.3-.4,2.8-.3,4.2,0,2.2,2.5,3.6,4.7,3.5,2.5-.2,5.3-1.9,7.8-2.7,3.6-1.2,7.1-3.3,10.3-5.3-1.9.5-2.7,3.1-1.7,4.8s3,2.5,5,2.5,3.8-.8,5.6-1.6c4.4-1.9,8.8-3.7,13.3-5.6-.6,1.1-1.2,2-1.5,3.2-.1.5-.2,1.1,0,1.6,1.4,2,7,1.1,9,.9,2.4-.4,4.7-1,6.8-2.1s4.3-1.6,6.5-2.4c-1.1.4-2.6,2.7-2.6,3.8,0,.8.6,1.6,1.4,2,.9.4,2,.2,3,0,5.2-1.2,10.1-2.6,14.7-5.4-.7,1-1.4,2-1.6,3.2s.2,2.6,1.3,3.1c1.4.7,3-.3,4.3-1.3,2.6-2,5.6-5.3,8.5-6.6,3.7-1.7,2.3.7,2.3,3.2,0,1.1.7,2.3,1.8,2.4,1.2.2,2.1-.9,2.9-1.8,2.4-3,4.9-6.1,7.3-9.1-.4,1.1-.9,2.3-.9,3.5s.7,2.5,1.9,2.9c1.7.6,3.3-.9,4.4-2.3,2.2-2.6,4.3-5.3,6.2-8-.4.8-.9,1.7-.9,2.6s.6,1.9,1.5,2.1c.9.1,1.7-.5,2.4-1.2,2-2,3.9-4.1,5.6-6.4-.2,1.4,1.5,2.4,2.8,2.1s2.3-1.5,3.1-2.6c4.1-5.8,6.4-12.9,8.7-19.5,1.7-5-.7-9.3-4.5-12.7-9.1-8-42.8,1-55.3.3-40.7-2.4-80.8-17.7-112-44.2h0Z"/>
          </g>
          <g>
            <path class="cls-3" d="M451.3,252.8c-.6,2.1-1.2,4.3-1.5,6.5-.2,1.4-.8,3.4,1.1,3.1,4.3-2.3,7.9-6,11.2-9.5-2.4,3.8-5.6,7.1-9.3,9.6-.5.3-1,.7-1.6.8-1.7.4-2.7-1-2.4-2.5.5-2.8,1.3-5.5,2.6-8h0Z"/>
            <path class="cls-3" d="M464.3,252.5c.2,1.7-.4,3.4,0,4.9.4,1.6,1.9,2,3.4,1.3,3-1.4,5.6-3.4,8-5.7-1.7,2.6-7,7.9-10.5,6.8-3-1.4-1.3-4.9-.9-7.3h0Z"/>
            <path class="cls-3" d="M478.5,249.4c-.5,1.5-.9,3.1-1.2,4.6-.2.8-.3,1.6,0,1.8.4.4,1.1.3,1.7,0,2.9-1.1,5.5-2.9,7.9-5-1.8,2.7-4.5,4.7-7.5,5.9-.4.1-.8.3-1.3.3-3.9-.2-.7-5.9.3-7.6h0Z"/>
            <path class="cls-3" d="M434.7,254.2c-1,2-1.5,4.4-1.4,6.5,0,.5.3.9.7,1.1,1.5.5,3.1-.4,4.5-1,2.1-.9,4-2.1,5.8-3.5,1.6-1.2,3.8-3,5.4-4.2-1.5,1.7-3.2,3.4-4.9,4.8-2,1.8-11.5,8.1-12.3,2.8,0-2.5.8-4.7,2.1-6.6h0Z"/>
            <path class="cls-3" d="M415.3,254.7c-1.8,2.9-2.1,7.1,2.5,6.6,5.5-.9,10.6-3.6,15.1-6.8-1.6,1.7-3.4,3.1-5.3,4.3-2,1.2-4.1,2.1-6.3,2.8-1.6.5-3.5,1-5.2.6-3.8-1-2.7-5.2-.7-7.4h0Z"/>
            <path class="cls-3" d="M450.3,238c-1,3.9-1.7,8.2-.8,12.2,1,2.4,4,1.6,5.7.2,5.3-3.9,9.5-9.4,12.2-15.4-2,6.5-6.2,12.2-11.6,16.2-.7.5-1.5,1-2.3,1.2-3.4,1-5.4-1.3-5.1-4.6,0-3.4.6-6.8,1.9-9.9h0Z"/>
            <path class="cls-3" d="M434.4,240.4c-1.6,2.8-3.8,13.5,1.9,12.3,5-1.4,9.3-5.1,12.2-9.3-2.4,4.8-6.8,8.9-12,10.3-7.1,1.1-4.7-10-2.1-13.3h0Z"/>
            <path class="cls-3" d="M392.1,251.9c-1.8,2.7-3.9,7-.8,9.5,1.8,1.1,4.1.5,6.1.2,5.8-1,11.2-3.5,15.9-7-4.3,4.2-9.8,6.9-15.7,8-2.2.3-4.8,1-6.8-.5-3.4-2.9-1.1-7.6,1.3-10.2h0Z"/>
            <path class="cls-3" d="M371.6,248.9c-1.5,2.6-2.5,5.6-2.6,8.6,0,2.7,2.8,2.6,4.7,2,6.7-1.5,13.1-4.1,19.1-7.5-5.5,4.2-12.1,7.1-18.9,8.5-8.9,2.2-5.4-7.7-2.3-11.6h0Z"/>
            <path class="cls-3" d="M350.8,244.4c-1.5,2.7-2.6,5.6-3.4,8.6-.7,2.4.1,4.2,2.9,3.6,6.7-1.8,13-4.9,19-8.4-4.9,3.9-10.6,6.8-16.5,8.7-1.5.5-3.2,1.2-4.9.5-4.1-1.8,1.1-10.6,2.9-13h0Z"/>
            <path class="cls-3" d="M324.3,240.3c-3.8,4.3-6.8,9.3-8.8,14.6-1.9,4.6-3.6,14.1,4.5,9.2,10.1-5.3,20.3-10.7,29.1-18.1-8.3,8-18.5,13.6-28.6,19-1.2.6-2.6,1.4-4.2,1.5-5.4-.4-2.7-8.8-1.4-11.8,2.2-5.4,5.4-10.3,9.5-14.3h0Z"/>
            <path class="cls-3" d="M290.5,239c-3,7.2-4.5,15-4.5,22.8-.4,6.7,2.8,7.2,8.3,4.9,11-5.8,19.7-15.5,25.6-26.4-5.2,11.4-14.1,21.4-25.2,27.3-6.1,2.6-10.1,1.5-9.6-5.8.1-7.9,2-15.8,5.4-22.8h0Z"/>
            <path class="cls-3" d="M245.5,247.1c-.7,7.9-.9,15.9-.8,23.8v11.9c0,2.8,1.5,6.1,4.6,4.1,12.9-11,19-27.8,23.9-43.5-3.9,15.4-9.6,30.9-21,42.4-2.3,2.6-6.1,4.4-7.9.2-.4-1-.4-2.1-.4-3.1,0-4,0-8,0-11.9.1-8,.5-15.9,1.6-23.8h0Z"/>
            <path class="cls-3" d="M271.7,252.7c-.8,5.3-1.5,10.5-1.9,15.8-.5,3.5.2,7.6,4.5,4.6,2.7-2.2,5.3-4.6,7.6-7.3,1.2-1.3,2.3-2.7,3.4-4.1-1.8,3.1-4,5.9-6.5,8.5-2,1.8-3.7,4.2-6.5,4.9-2.4.4-3.6-1.9-3.6-4,.3-6.2,1.4-12.4,3-18.4h0Z"/>
            <path class="cls-3" d="M221.6,255.7c-2.2,8.3-3.9,16.7-4.9,25.2-.6,6.3-1.5,12.8-1,19.1.2,1.8,2.1,3.7,3.9,2.8,1.6-1,2.8-3.1,4.1-4.6,9.1-11.9,15.7-25.6,19.6-40.1-3.5,15.8-10.8,30.7-20.9,43.2-.7.8-1.3,1.8-2.5,2.4-2.4,1.2-4.9-1.2-5.2-3.5-.5-6.4.4-13.1,1.2-19.4,1.2-8.5,3-17,5.6-25.1h0Z"/>
            <path class="cls-3" d="M189,278.8c-2.1,7.6-3.6,15.3-4.5,23.2-.4,3.9-.8,7.8-.9,11.8,0,1.9-.1,3.9.7,5.6,2,4.2,6.6,2.2,8.7-.7,9.3-10.2,16.9-21.8,22.7-34.3-5.2,12.8-12.7,24.7-22,35-1.9,2.4-5.1,4.6-8.2,2.9-2.9-1.7-3-5.6-2.8-8.5.5-11.8,2.7-23.6,6.4-34.9h0Z"/>
            <path class="cls-3" d="M159.3,289.2c-4.7,9.6-6.8,20.4-7.9,30.9-.3,2.7-.5,5.3-.6,8,0,1.3,0,2.6.6,3.7,1.6,2.7,4.3,1.2,6-.5,3-2.6,5.6-5.7,7.8-9,6.1-8.8,10.5-18.6,14.7-28.4,4.1-9.9,7.2-20.2,9.4-30.7-2.6,15.9-8.1,31.2-15.3,45.6-4.1,8.4-8.9,16.8-16,23.1-2.1,2.1-5.5,3.6-7.4.3-.8-1.3-.8-2.8-.8-4.1.1-2.7.4-5.4.7-8,1.4-10.6,3.6-21.4,8.7-30.8h0Z"/>
            <path class="cls-3" d="M124,328.7c-2.5,7.2-4.6,14.5-6.3,21.9l-1.2,5.6c-.2,1.5-1.3,3.8.2,4.9.6.4,1.6.5,2.3.2,2.5-1.1,4.4-3.4,6.5-5.2,11-10.5,19-23.7,25-37.6-5.3,14.3-13.2,27.7-24.3,38.3-2.2,1.9-4.1,4.2-6.8,5.4-2.3.8-4.7-.8-4.2-3.3,2-10.3,5.1-20.4,9-30.1h0Z"/>
            <path class="cls-3" d="M416.9,242.5c-1.4,3.6-2.2,7.4-2.2,11.3l-.5-.5c7-.2,11.4-6.6,15.1-11.9-2.9,6-7.6,12.9-15.1,12.9-.3,0-.5-.2-.5-.5.2-3.9,1.2-7.8,3.2-11.2h0Z"/>
            <path class="cls-3" d="M394.8,239.1c-1.2,3.2-2.2,6.6-2.3,10.1.3,2.1,3,1.7,4.6,1,5.1-2.2,9.8-5.4,13.8-9.2-2.8,3.7-13.2,12.5-17.9,10.3-1.6-.7-1.4-2.9-1.1-4.2.5-2.8,1.5-5.5,2.9-7.9h0Z"/>
            <path class="cls-3" d="M375.7,234.9c-2,2.3-4.3,4.6-5.2,7.6-1.5,4.4,1.4,4.2,4.8,3.4,6-1.3,11.6-4.5,17-7.4-5.2,3.6-10.6,6.9-16.8,8.3-4,1.1-7.7.5-5.7-4.6,1.2-3,3.5-5.3,5.9-7.3h0Z"/>
            <path class="cls-3" d="M353.7,227.3c-1.6,4-2.8,8.2-3.5,12.4-.9,3.2,1.1,4,3.9,3.4,6.5-1.9,12.3-6.1,17.3-10.7-3.8,4.6-13.6,12.6-19.9,11.7-2.5-.5-2.7-2.6-2.2-4.6.9-4.3,2.3-8.4,4.3-12.2h0Z"/>
            <path class="cls-3" d="M326.8,212.9c-2.4,6.9-3.5,14.2-4.4,21.5-.4,2.4,0,4.8,2.9,4.5,9.6-1.6,17.8-7.9,25.1-14-6.9,6.8-15.2,13.3-25,15-3.6.2-4.4-2.7-3.8-5.6,1-7.3,2.3-14.6,5.3-21.4h0Z"/>
            <path class="cls-3" d="M295.7,199.4c-4.9,9.6-8,20.1-9,30.8-1.1,7.6,1.8,9.4,8.3,5.4,10.9-6.2,19.9-15.5,26-26.4-4.7,9.7-12,18.2-20.9,24.3-3.1,1.9-6,4.2-9.7,5.1-5.2.6-5.2-5-4.6-8.5.4-3.6,1-7.2,1.9-10.7,1.8-7,4.5-13.8,8-20h0Z"/>
            <path class="cls-3" d="M273.2,196.4c-2.2,10.2-3.8,20.5-4.3,30.9,0,2.5-.5,5.2,0,7.7,1.8,7,8.4,1.3,11.6-1.3,2-1.6,3.9-3.4,5.7-5.3-2.5,3.1-5.3,5.8-8.4,8.2-3.5,3.1-8.3,4.3-9.8-1.4-.5-2.7,0-5.3,0-7.9.7-10.4,2.4-20.9,5.3-30.9h0Z"/>
            <path class="cls-3" d="M246.9,200.1c-2.9,11-4.3,22.4-4.1,33.7.2,2.7-.2,5.7.8,8.2,1.5,2.9,4.7.7,5.9-1.3,7.8-10.6,15.9-21.5,19.8-34.2-3.2,13-11.2,24.1-19,34.8-1.6,2.7-5.6,4.9-7.5,1.2-1.1-2.8-.7-5.8-.8-8.6-.1-11.4,1.6-22.9,5-33.7h0Z"/>
            <path class="cls-3" d="M217.1,211c-1.7,10.3-3.6,20.8-2.2,31.3.6,3.1,1.6,13.8,6.6,10.7,3.9-3.2,7-7.8,10.1-11.9,4.1-5.7,7.7-11.7,10.8-18-4.1,9.7-9.8,18.8-16.6,26.8-1.1,1.2-2.4,3-3.8,3.8-6.3,3.6-7.3-7.5-8-11.4-1.3-10.6.9-21.2,3.1-31.4h0Z"/>
            <path class="cls-3" d="M194.9,225.3c-2.7,12.7-3.1,25.6-2,38.5,0,2.7,1.7,3.9,4,2.2,7.5-7.2,13.1-16.3,17.5-25.8-3.8,9.8-9.4,19.2-17,26.5-2.9,2.2-5.5.7-5.6-2.8-1-12.9-.6-26.1,3-38.6h0Z"/>
            <path class="cls-3" d="M167.6,249.8c-3,8.5-3.8,17.5-5.2,26.4-.6,3-.7,8.1,3.6,7.2,1.6-.4,2.8-1.7,4-3,4.7-5.4,8.8-11.3,12.3-17.5,3.5-6.3,6.3-12.9,8.4-19.8-1.7,7-4.4,13.7-7.7,20.1-3.4,6.4-7.5,12.4-12.2,17.8-1.2,1.3-2.5,2.8-4.5,3.3-5.2,1-5.5-4.6-4.7-8.2,1.5-8.8,2.6-18,6-26.2h0Z"/>
            <path class="cls-3" d="M149.5,262.1c-4,10.9-6.5,22.4-7,34,0,1.9-1.1,7.2,2.4,5.4,7-5.1,12.5-12.2,16.3-19.9-3.4,8.1-8.8,15.5-15.9,20.7-1,.7-2.8.8-3.5-.6-.8-1.8-.3-3.8-.3-5.7.6-11.7,3.3-23.3,8-34h0Z"/>
            <path class="cls-3" d="M128,298.2c-2.5,7.7-4.4,15.6-5.3,23.7-.7,4.6,1.2,4.7,4,1.5,2.6-2.6,5-5.5,7.2-8.5,2.9-4.1,5.3-8.4,7.3-13-2.4,7.1-6.3,13.8-11.2,19.5-.8,1-1.7,1.9-2.6,2.8-.9.8-1.8,2.1-3.1,2.5-1.8.5-2.8-1.3-2.7-2.8.8-8.8,3.1-17.4,6.4-25.5h0Z"/>
            <path class="cls-3" d="M117.9,341.8c-3.3,8.4-8.9,16-16,21.5.8-.9,1.5-1.7,2.3-2.5,5.3-5.8,9.8-12.2,13.8-19h0Z"/>
            <path class="cls-3" d="M430.6,225.9c-.6,3.3-.9,6.5-1,9.8,0,1.2-.3,3.6.5,4.6,1,1.2,2.7.5,3.8-.3,5.4-3.8,8.9-9.6,12.4-15-3,5.9-6.3,11.9-11.9,15.9-1.4,1.1-3.8,1.8-5.1,0-1-1.7-.5-3.4-.5-5.1.2-3.3.8-6.6,1.8-9.8h0Z"/>
            <path class="cls-3" d="M413.9,224.9c-.4,3.1-.8,6.3-1,9.4l-.2,2.4c-.1,1.4-.4,3.1.9,3.9,4.8,2.3,13.4-7.5,16.5-10.7-3.2,4.4-6.9,9-12,11.4-2.2,1.3-6,1-6.4-2.1.1-4.8,1.2-9.5,2.3-14.1h0Z"/>
            <path class="cls-3" d="M395.4,221.6c-1.4,4-2.4,8.2-2.9,12.4-.5,2.9.7,4.5,3.7,3.7,6.5-1.9,12.4-5.5,17.4-10.1-4.5,5.2-10.5,9.1-17.2,11.1-.9.2-1.8.3-2.8,0-2.1-.6-2.4-3.1-2-4.8.7-4.2,1.9-8.4,3.8-12.3h0Z"/>
            <path class="cls-3" d="M373.6,216c-.8,3.4-4.9,19.1,1.9,17.8,1.6-.3,3-1.4,4.4-2.5,4.2-3.2,8-6.9,11.5-10.9-3,4.4-6.7,8.4-10.9,11.7-1.4,1.1-2.8,2.3-4.8,2.7-8.5,1.2-3.6-14.6-2.1-18.7h0Z"/>
            <path class="cls-3" d="M354.1,204.9c-1.2,5.3-2,10.6-2.4,16,0,1.5-.5,3.6,1.2,4.1,1.5.4,3.2-.5,4.9-1.1,5-1.9,9.6-4.9,13.5-8.5-4.1,4.8-9.7,8.4-15.7,10.4-4.1,1.3-5.4-1.2-4.8-5,.5-5.4,1.6-10.8,3.3-15.9h0Z"/>
            <path class="cls-3" d="M326.2,185.4c-2.5,6.5-4.1,13.4-4.5,20.3-.3,3.5,1.2,6.7,5,7,3.4.2,6.5-1.7,9.5-3.2,4.1-2.2,7.8-5.1,11.1-8.3-4.6,5.3-10.5,9.7-17.1,12-5.6,1.8-10.1-1.4-9.5-7.5.5-7,2.4-13.9,5.4-20.3h0Z"/>
            <path class="cls-3" d="M297.4,168.4c-1.4,7.2-2.3,14.5-2.4,21.8-.2,3.7,1,7.5,5.4,5.7,7.8-3.3,14.7-8.7,20.1-15.2-4.9,7.1-11.9,12.8-19.8,16.1-5.1,2.1-7.1-2.1-6.7-6.6.2-7.4,1.3-14.7,3.3-21.8h0Z"/>
            <path class="cls-3" d="M275.5,167.6c-2.3,6.9-3.5,14.1-3.4,21.4,0,2.1-.2,5.2,2.7,4.5,2.1-.7,4-2.6,5.9-3.9,5.7-4.6,10.6-10,14.6-16-3.6,6.4-8.4,12.1-14,16.7-2,1.5-3.7,3.3-6.2,4.1-3.8.7-3.9-2.7-3.9-5.5,0-7.3,1.4-14.7,4.3-21.4h0Z"/>
            <path class="cls-3" d="M247.7,174.5c0,5-.3,10-.5,15,.1,2.2-.8,5.1.4,7.1,1.8,1.9,4.3-.3,6-1.4,8.1-5.7,14.5-13.8,18.6-22.9-3.4,9.5-9.8,17.8-18,23.7-1.9,1.4-5.3,3.7-7.3,1.1-1.4-2.3-.4-5.1-.4-7.7.4-5,.8-10,1.2-15h0Z"/>
            <path class="cls-3" d="M215.7,194.4c-.1,3.7.3,7.4,1.1,11,1.4,8.8,9.9.5,13.2-2.5,7.2-6.7,12.2-15.5,16.2-24.4-3.3,9.4-8.2,18.3-15.5,25.2-3.9,3.5-13.1,11.6-14.5,1.9-.7-3.7-.9-7.4-.5-11.1h0Z"/>
            <path class="cls-3" d="M194.2,211.9c-.5,3.7-1.4,7.9-.7,11.5.3.8,1.1,1.3,1.9,1.4,1.9.2,3.4-1.4,4.6-2.6,3.5-3.4,6.4-7.4,9-11.4,1.9-2.9,4.4-7.1,6.2-10-3.4,7.1-7.2,14.1-12.5,20-2.1,2-4.2,5.1-7.4,4.9-1.1,0-2.2-.9-2.6-1.9-.3-1.1-.2-2.1-.1-3.1.2-2.9.7-5.9,1.5-8.7h0Z"/>
            <path class="cls-3" d="M167.8,237c-1.2,3.1-4.5,14.1,2.4,11.3,2.6-1.7,4.6-4.4,6.7-6.6,2.8-3.2,5.4-6.6,7.9-10.1,2.5-3.5,4.9-7,7.4-10.5-4.3,7.4-9,14.7-14.6,21.3-2.3,2.4-4.3,5-7.1,6.8-1.5.9-3.9.7-4.8-1-.8-1.6-.4-3.4-.1-5,.4-2.1,1.1-4.2,2.1-6.1h0Z"/>
          </g>
          <path class="cls-3" d="M448.4,224.3c-39,3.3-79-8.5-110-32.5-10.2-7.9-19.7-17.1-31.4-22.5-23.9-11.1-51.8-2.9-73.1,10.5-22.2,13.6-40.8,32.4-58.6,51.1,16.7-19.7,35.8-38.3,57.7-52.4,16.4-10.6,36-17.7,55.7-16,13.3.9,25.5,7.4,35.6,15.7,5.1,4,10,8.3,15.1,12.3,31.1,24.4,70.4,35.5,108.9,33.9h0Z"/>
        </g>
        <g>
          <path class="cls-7" d="M588.9,202.2c0,.2,0,.5,0,.7-.2,3.8-3.3,8.7-8.4,13.8-2.7,2.8-6,5.6-9.8,8.4-.6.4-1.2.9-1.8,1.3-.9.6-1.8,1.3-2.7,1.9-.6.4-1.2.8-1.9,1.3-1,.6-1.9,1.2-2.9,1.9-4.5,2.8-9.3,5.4-14.3,7.7,2.5,26.2-3,53.1-11.6,55.5-.6.1-1.1.2-1.7.2h-.2s0,0-.2,0c-9.5-.2-26-19.3-36.5-41.9-4.3.4-8.6.6-12.9.6-21.5,0-40.6-5-42.5-12.2-.2-.6-.2-1.3-.2-2s0-.2,0-.4c.7-9.6,19.7-26,41.9-36.2-2.5-26.2,3-53.1,11.6-55.5.3,0,.6-.1.9-.2,0,0,0,0,0,0h0s0,0,.1,0c0,0,.1,0,.2,0,.3,0,.5,0,.7,0s.3,0,.5,0c1.1,0,2.3.4,3.6.9,2.6,1.1,5.7,3.4,9,6.5.2.2.4.4.5.5.2.2.4.4.6.6.4.4.9.9,1.3,1.3,7,7.3,14.8,18.4,21,32,26.1-2.5,53,3,55.4,11.6h0c.1.5.2,1,.2,1.5,0,0,0,0,0,0h0Z"/>
          <g>
            <path class="cls-13" d="M542.7,236.8c3.5,28.9-3.7,52.8-8.4,54.1-.2,0-.4,0-.7.1-6.4.2-23.2-16.5-34.3-42.2l15.7-27.7h0l27.7,15.7h0Z"/>
            <path class="cls-1" d="M542.7,236.8c3.5,28.9-3.7,52.8-8.4,54.1-.2,0-.4,0-.7.1l-18.6-70,27.7,15.7h0Z"/>
            <path class="cls-9" d="M530.7,193.3l-15.6,27.5v.2c-.1,0-.4-.1-.4-.1l-27.4-15.6h0c-3.5-28.9,3.7-52.8,8.4-54.1.2,0,.3,0,.5,0,.1,0,.3,0,.4,0,.7,0,1.6.2,2.5.6,7.6,3.3,21.8,19,31.6,41.6h0Z"/>
            <path class="cls-4" d="M530.7,193.3l-15.6,27.5v.2c-.1,0-.4-.1-.4-.1l-18.6-69.8c.1,0,.3,0,.4,0,6.5.1,23.1,16.8,34.1,42.2h0Z"/>
            <path class="cls-6" d="M515,221l-15.7,27.8c-28.9,3.5-52.7-3.7-54-8.4,0-.3-.1-.6-.1-.9.1-6.5,16.8-23.1,42.2-34.2l27.4,15.6h.2Z"/>
            <path class="cls-12" d="M515,221l-15.7,27.8c-28.9,3.5-52.7-3.7-54-8.4,0-.3-.1-.6-.1-.9l69.6-18.6h.2Z"/>
            <path class="cls-8" d="M584.8,201.7c0,.2,0,.4,0,.7.2,6.4-16.5,23.2-42.2,34.4l-27.7-15.7h0l15.7-27.7c28.9-3.5,52.7,3.7,54,8.4h0Z"/>
            <path class="cls-11" d="M584.9,202.4c.2,6.4-16.5,23.2-42.2,34.4l-27.7-15.7h0l69.8-18.7h0Z"/>
            <ellipse class="cls-3" cx="515" cy="221.1" rx="17.9" ry="17.9"/>
            <ellipse class="cls-3" cx="513" cy="219.9" rx="13.2" ry="13.2"/>
            <ellipse class="cls-2" cx="508.6" cy="218.1" rx="6.9" ry="6.9"/>
            <line class="cls-5" x1="509.6" y1="216.6" x2="513.4" y2="215.6"/>
            <path class="cls-10" d="M515,241c-8.7,0-16.8-5.8-19.2-14.6-1.4-5.1-.8-10.5,1.9-15.2s6.9-8,12-9.4,10.5-.8,15.1,1.9,8,6.9,9.4,12.1c2.9,10.6-3.3,21.6-13.9,24.6-1.8.5-3.5.7-5.3.7h0ZM515,205.1c-1.4,0-2.8.2-4.3.6-4.1,1.1-7.5,3.8-9.6,7.5-2.1,3.7-2.6,8-1.5,12.1s3.8,7.5,7.5,9.6c3.7,2.1,8,2.6,12.1,1.5,8.5-2.3,13.5-11.1,11.1-19.6h0c-1.1-4.1-3.8-7.5-7.5-9.6-2.4-1.4-5.1-2.1-7.8-2.1h0Z"/>
          </g>
        </g>
      </g>
    </g>
  </g>
</svg>