<?xml version="1.0" encoding="UTF-8"?>
<svg id="Layer_1" xmlns="http://www.w3.org/2000/svg" viewBox="0 0 656 152">
  <defs>
    <style>
      .cls-1 {
        fill: #13437c;
      }

      .cls-2 {
        fill: #3288d6;
      }

      .cls-3 {
        fill: #47acea;
      }

      .cls-4 {
        fill: #1f5999;
      }
    </style>
  </defs>
  <path class="cls-1" d="M656,28.04v95.92c0,15.46-12.58,28.04-28.03,28.04H28.04c-15.46,0-28.04-12.58-28.04-28.04V28.04C0,12.58,12.58,0,28.04,0h599.93c15.45,0,28.03,12.58,28.03,28.04Z"/>
  <path class="cls-4" d="M652,28.04v95.92c0,13.28-10.76,24.04-24.03,24.04H28.04c-13.28,0-24.04-10.76-24.04-24.04V28.04C4,14.76,14.76,4,28.04,4h599.93c13.27,0,24.03,10.76,24.03,24.04Z"/>
  <rect class="cls-3" x="4" y="4" width="648" height="120.37" rx="24.05" ry="24.05"/>
  <path class="cls-2" d="M4,64.18h648v43.18c0,9.38-7.62,17-17,17H21c-9.38,0-17-7.62-17-17v-43.18h0Z"/>
</svg>