<?xml version="1.0" encoding="UTF-8"?>
<svg id="Image_Expanded" xmlns="http://www.w3.org/2000/svg" viewBox="0 0 400 256">
  <defs>
    <style>
      .cls-1 {
        fill: #13437c;
      }

      .cls-2 {
        fill: #3288d6;
      }

      .cls-3 {
        fill: #4d4d4d;
      }

      .cls-4 {
        fill: #ea9939;
      }

      .cls-5 {
        fill: #f4b545;
      }

      .cls-6 {
        fill: #404040;
      }

      .cls-7 {
        fill: #f43f3f;
      }

      .cls-8 {
        fill: #6d3108;
      }

      .cls-9 {
        fill: #666;
      }

      .cls-10 {
        fill: #79cdf6;
      }

      .cls-11 {
        opacity: 0;
      }

      .cls-12 {
        fill: #ffe277;
      }

      .cls-13 {
        fill: #333;
      }

      .cls-14 {
        fill: #47acea;
      }

      .cls-15 {
        fill: #1f5999;
      }
    </style>
  </defs>
  <polygon class="cls-10" points="305.39 198.15 274.44 196.56 278.52 227.28 249.58 216.2 243.97 246.68 219.87 227.2 205.11 254.45 188.21 228.47 165.76 249.84 157.71 219.91 129.75 233.29 131.35 202.34 100.62 206.42 111.7 177.48 81.22 171.87 100.71 147.77 73.45 133.01 99.43 116.11 78.06 93.66 107.99 85.61 94.61 57.65 125.56 59.25 121.48 28.52 150.42 39.61 156.03 9.12 180.13 28.61 194.89 1.35 211.79 27.33 234.24 5.96 242.29 35.89 270.25 22.51 268.65 53.47 299.38 49.38 288.3 78.32 318.78 83.93 299.29 108.04 326.55 122.79 300.57 139.69 321.94 162.15 292.01 170.19 305.39 198.15"/>
  <g>
    <path class="cls-15" d="M141.76,44.11c18.38,4.26-19.59,53.96-24.68,60.7-4.17,5.52-8.38,11.05-13.23,15.99-4.19,4.26-9.56,9.62-15.71,10.63-6.21,1.02-12.22-3.96-14.28-9.91s-1.03-12.51.62-18.59c7.65-28.1,28.93-52.14,55.9-63.15"/>
    <path class="cls-12" d="M145.68,64.58c7.41,1.89,14.93,3.39,22.45,4.78,8.04,1.48,12.66,3.05,19.49,7.67,12.58,8.53,25.14,17.09,37.69,25.68,10.17,6.96,21.05,13.33,31.36,20.33,4.12,2.79,8.68,5.22,11.54,9.44,2.11,3.09,3.19,6.99,2.39,10.65-1.75,7.96-10.3,10.44-13.83,17-1.45,2.69-1.48,6.14-3.59,8.34-3.26,3.4-8.57,2.43-10.91,7.07-2.28,4.52-2.75,8.86-7.6,11.59-3.21,1.79-6.9,2.77-9.78,5.06-3,2.39-4.79,5.93-7.26,8.86-5.21,6.21-15.37,5.8-22.29,3.17-3.78-1.45-7.23-3.74-11.02-5.32-4.65-1.95-9.16-4.22-13.53-6.73-17.72-10.2-32.87-24.21-47.54-38.29-1.32-1.27-2.65-2.54-3.97-3.82-7.29-7.04-14.66-14.17-19.98-22.8-5.22-8.47-8.43-18.33-15.32-25.52-2.79-2.91-6.21-5.43-7.81-9.12-2.37-5.47-.04-11.83,3.1-16.91,6.29-10.2,15.82-18.04,26.86-22.61,6.16-2.55,12.2,2.19,18.05,4.49,7.01,2.75,14.18,5.12,21.48,6.99Z"/>
    <path class="cls-5" d="M92.27,113.18c12.99-20.54,31.63-37.47,53.34-48.42-5.19-1.38-10.38-2.77-15.58-4.15-1.41-.38-2.84-.76-4.3-.82-5.94-.25-10.75,4.62-14.4,9.31-9.46,12.15-16.96,25.82-22.12,40.33"/>
    <path class="cls-2" d="M143.58,43.31s-7.86,4.32-16.99,11.58c-8.17,6.49-17.34,15.32-22.82,25.47-1.16,2.14-2.29,4.36-3.39,6.6-10.02,20.3-17.78,43.34-17.78,43.34l-39.98-20.99s4.07-23.03,17.51-46.99c6.28-11.21,14.64-22.63,25.58-31.98,5.15-4.41,10.89-8.36,17.25-11.61l40.63,24.59Z"/>
    <path class="cls-14" d="M126.6,54.89c-8.17,6.49-17.34,15.32-22.82,25.47-1.16,2.14-2.29,4.36-3.39,6.6-2.77-.65-5.31-2.59-7.64-4.39-10.13-7.87-21.08-14.67-32.62-20.25,6.28-11.21,14.64-22.63,25.58-31.98,13.63,8.18,27.26,16.36,40.89,24.55Z"/>
    <path class="cls-12" d="M131.1,169.52c.35,6.49,3.96,12.73,9.41,16.28.86.56,1.85,1.33,2.82,1.66,1.1.37,2.38.49,3.52.72,0,0,.19,1.9.22,2.08.15.72.37,1.42.65,2.09s.73,1.24.98,1.89c.22.57.39,1.11.67,1.66,1.12,2.21,2.51,4.48,4.9,5.47,2.14.88,4.5.53,6.74.73s3.63.51,5.75-.17c-.29.09,3.33,6.4,3.93,6.92,5.35,4.67,13.74,4.72,18.22-1.11,2-2.61,3.08-5.79,4.03-8.94.51-1.68.99-3.47.56-5.17-.73-2.88-3.61-3.51-5.89-4.66-2.82-1.42-6.28-1.66-9.19-.37,1.66-4.23.23-9.47-3.35-12.27s-9.01-2.92-12.72-.28c2.19-5.16.56-11.68-3.81-15.2-4.36-3.52-11.08-3.73-15.66-.5,3.18-3.28,3.46-8.78,1.09-12.69-4.56-7.53-15.34-7.73-22.24-3.51-6.05,3.7-5.86,12.47-2.62,18.09,2.44,4.22,7.1,7.06,11.97,7.3Z"/>
    <path class="cls-6" d="M262.25,37.6c-1.38,3.41-1.29,7.28-.42,10.86s2.47,6.93,4.05,10.25c9.69,20.29,19.42,40.65,31.79,59.42,1.44,2.18,2.95,4.38,5.08,5.9,2.12,1.51,5.01,2.23,7.39,1.15,2.92-1.32,4.17-4.75,4.83-7.88,2.24-10.59,1.15-21.73-2.11-32.05s-8.61-19.89-14.85-28.73c-3.87-5.48-8.13-10.76-13.32-15.02-5.19-4.26-11.38-7.47-18.03-8.38"/>
    <path class="cls-12" d="M225.31,103.13c8.94,6.2,17.88,12.4,26.82,18.6,3.94,2.73,8.24,5.58,13.04,5.46,5.74-.14,10.38-4.42,14.92-7.94,7.66-5.95,16.54-10.33,25.92-12.79,3.27-.86,7.05-1.83,8.47-4.9,1.44-3.11-.34-6.7-2.12-9.64-9.54-15.76-20.17-30.87-31.79-45.17-16.17,18.44-36.72,33-59.46,42.15l4.19,14.21Z"/>
    <path class="cls-5" d="M241.5,96.57c6.54-.5,13.24,1.63,18.3,5.8,5.06,4.17,8.42,10.34,9.17,16.86.28,2.38.1,5.08-1.63,6.74-1.53,1.46-3.91,1.69-5.94,1.12s-3.79-1.82-5.51-3.05c-9.95-7.15-19.77-14.47-29.45-21.98"/>
    <path class="cls-3" d="M308.55,125.92s2.54-31.68-14.43-54.1c-.27-.35-.54-.71-.81-1.05-9.36-11.78-17.86-20.04-23.83-25.23-5.42-4.71-8.74-6.89-8.74-6.89l5.17-7.12,32.56-20.14s3.54,1.51,8.91,5.09c7.06,4.74,17.27,13.06,26.66,26.26,9.79,13.76,18.7,32.82,22.24,58.63,0,0-43.03,24.08-47.72,24.57Z"/>
    <path class="cls-9" d="M334.03,42.72c-13.31,9.69-26.61,19.4-39.92,29.09-.27-.35-.54-.71-.81-1.05-9.36-11.78-17.86-20.04-23.83-25.23.41-.46.92-.88,1.41-1.26,12.16-9.27,24.32-18.53,36.48-27.8,7.06,4.74,17.27,13.06,26.66,26.26Z"/>
    <path class="cls-1" d="M88.76,132.51c-5.15,0-10.23-2.83-14.51-5.21l-.9-.5c-10.56-5.82-21.13-11.66-31.69-17.49-.97-.53-1.32-1.75-.78-2.72.53-.97,1.75-1.32,2.72-.78,10.56,5.83,21.13,11.67,31.69,17.49l.92.51c4.8,2.67,10.78,5.99,15.66,4.15,2.2-.83,4.15-2.09,6.14-3.97.8-.76,2.07-.73,2.83.08.76.8.73,2.07-.08,2.83-2.39,2.26-4.76,3.79-7.47,4.81-1.5.56-3,.81-4.51.81Z"/>
    <path class="cls-1" d="M141.93,65.57c-.32,0-.65-.08-.95-.24-.97-.53-1.33-1.74-.8-2.71.3-.56.62-1.13.95-1.71,2.35-4.19,5.02-8.95,3.44-13.09-1.09-2.89-4-4.78-7.4-6.78l-36.84-21.7c-.95-.56-1.27-1.79-.71-2.74.56-.95,1.79-1.27,2.74-.71l36.84,21.7c3.14,1.85,7.43,4.38,9.11,8.81,2.25,5.89-1.04,11.75-3.69,16.47-.32.56-.63,1.12-.92,1.66-.36.67-1.05,1.04-1.76,1.04Z"/>
    <path class="cls-13" d="M263.27,56.22c-.69,0-1.37-.36-1.74-1.01-4.48-7.86-4.94-14.29-1.4-19.68,2.09-3.18,5.28-5.24,8.1-7.05l29.15-18.79c.93-.6,2.17-.33,2.76.6.6.93.33,2.17-.6,2.76l-29.15,18.79c-2.6,1.68-5.29,3.41-6.92,5.89-2.67,4.06-2.18,8.98,1.53,15.5.55.96.21,2.18-.75,2.73-.31.18-.65.26-.99.26Z"/>
    <path class="cls-13" d="M308.94,127.92c-.52,0-1.04-.03-1.56-.1-3.25-.43-6.45-2.32-9.02-5.32-2.17-2.54-3.63-5.47-5.04-8.29-.49-.99-.09-2.19.9-2.68.99-.5,2.19-.09,2.68.9,1.31,2.61,2.65,5.32,4.51,7.48,1.92,2.25,4.23,3.65,6.5,3.96,3.29.43,6.59-1.25,10.25-3.32l38.24-21.67c.96-.55,2.18-.21,2.73.75.54.96.21,2.18-.75,2.73l-38.24,21.67c-2.96,1.68-6.9,3.91-11.19,3.91Z"/>
    <path class="cls-8" d="M146.07,189.57c-3.25,0-6.39-.96-9.1-2.83-4.49-3.11-7.27-8.41-7.42-14.17-.22-8.31,7.15-13.98,20.23-15.57,4.88-.6,8.72.2,11.39,2.35,4.33,3.48,4.71,9.58,3.62,14.12-1.71,7.14-6.73,12.95-13.11,15.15h0c-1.86.64-3.75.96-5.61.96ZM152.8,160.8c-.79,0-1.64.05-2.54.16-5.1.62-16.94,2.98-16.71,11.5.12,4.49,2.25,8.59,5.7,10.98,3.24,2.25,7.2,2.74,11.13,1.38h0c5.02-1.73,9.15-6.56,10.53-12.3.77-3.2.64-7.75-2.24-10.07-1.37-1.1-3.34-1.66-5.86-1.66Z"/>
    <path class="cls-8" d="M131.25,171.99c-.23,0-.46-.04-.68-.12-3.67-1.33-7.84-2.83-11.19-5.8-3.9-3.45-5.86-8.55-4.99-12.99,1.03-5.3,5.39-8.59,9.52-11.11,2.63-1.6,5.47-3.2,8.74-3.58,5.11-.59,10.47,2.33,13.03,7.1,2.56,4.76,2.27,10.96-.72,15.42-.61.92-1.86,1.16-2.77.55-.92-.61-1.16-1.86-.55-2.77,2.15-3.21,2.36-7.86.52-11.3-1.8-3.36-5.53-5.43-9.05-5.02-2.46.28-4.86,1.65-7.11,3.02-3.39,2.06-6.94,4.69-7.68,8.46-.6,3.08.86,6.7,3.72,9.23,2.78,2.46,6.4,3.77,9.9,5.03,1.04.38,1.58,1.52,1.2,2.56-.29.81-1.06,1.32-1.88,1.32Z"/>
    <path class="cls-8" d="M160.25,204.91c-3.5,0-7-1.18-9.73-3.41-4.15-3.39-6.27-9-5.4-14.28.18-1.09,1.21-1.83,2.3-1.65,1.09.18,1.83,1.21,1.65,2.3-.63,3.84.97,8.07,3.98,10.54,3.01,2.46,7.48,3.19,11.12,1.8,4.11-1.56,7.09-5.45,9.47-9.05,1.21-1.83,2.55-3.97,3.14-6.25.57-2.2.33-4.32-.66-5.79-1.11-1.65-3.32-2.72-5.91-2.86-1.48-.07-3.19.56-4.99,1.24-1.01.38-2.04.77-3.09,1.04-1.07.28-2.16-.36-2.44-1.43s.36-2.16,1.43-2.44c.84-.22,1.74-.56,2.69-.92,2.01-.76,4.29-1.61,6.61-1.49,3.85.21,7.22,1.94,9.02,4.63,1.62,2.42,2.06,5.71,1.21,9.02-.74,2.88-2.29,5.36-3.67,7.46-2.73,4.13-6.22,8.61-11.38,10.58-1.71.65-3.53.97-5.34.97Z"/>
    <path class="cls-4" d="M223.52,192.92c-.19,0-.37-.05-.54-.16l-21.05-13.57c-.46-.3-.6-.92-.3-1.38.3-.46.92-.6,1.38-.3l21.05,13.57c.46.3.6.92.3,1.38-.19.3-.51.46-.84.46Z"/>
    <path class="cls-4" d="M241.26,174.97c-.17,0-.35-.05-.51-.14-11.32-6.75-23.13-12.94-35.12-18.4-.5-.23-.72-.82-.5-1.32.23-.5.82-.72,1.32-.5,12.06,5.5,23.94,11.72,35.32,18.5.47.28.63.9.35,1.37-.19.31-.52.49-.86.49Z"/>
    <path class="cls-4" d="M258.77,155.77c-.15,0-.31-.04-.46-.11l-39.81-20.56c-.49-.25-.68-.86-.43-1.35.25-.49.86-.68,1.35-.43l39.81,20.56c.49.25.68.86.43,1.35-.18.34-.53.54-.89.54Z"/>
    <path class="cls-8" d="M206.57,209c-2.3,0-5.46-.28-8.24-1.53-.87-.39-1.76-.72-2.7-1.07-1.73-.64-3.51-1.31-5.22-2.35-.94-.58-1.24-1.81-.66-2.75.58-.94,1.81-1.24,2.75-.66,1.37.84,2.9,1.41,4.52,2.01.96.36,1.96.73,2.94,1.17,2.19.98,5.44,1.39,8.7,1.09,3.19-.29,6.05-1.5,8.06-3.41,1.68-1.6,2.89-3.79,4.06-5.91.23-.41.44-.83.64-1.24.95-1.89,2.02-4.03,4.44-5.22,1.03-.51,2.08-.99,3.14-1.46,1.65-.75,3.21-1.45,4.7-2.29,1.71-.96,3.04-2.43,4.07-4.5.21-.43.45-1.13.69-1.86.69-2.06,1.47-4.39,3.21-5.5.78-.5,1.69-.72,2.5-.91.42-.1.85-.21,1.11-.32,1.16-.5,2.29-1.13,3.34-1.87,2.11-1.48,3.9-3.4,5.19-5.55.84-1.4,1.5-2.91,2.2-4.52.55-1.26,1.12-2.57,1.79-3.83,1.21-2.27,2.31-2.9,3.97-3.85l.26-.15c1.27-.73,2.43-1.67,3.45-2.79,4.12-4.57,4.57-11.05,1.1-16.13-2.11-3.11-5.3-5.18-8.68-7.37-.78-.51-1.57-1.02-2.33-1.54-4.99-3.39-10.21-6.69-15.26-9.88-5.34-3.37-10.86-6.86-16.11-10.46-13.67-9.36-26-17.76-37.68-25.68-6.8-4.6-11.27-5.99-18.73-7.36-6.26-1.16-14.49-2.75-22.58-4.81-7.08-1.81-14.47-4.22-21.97-7.16-1.03-.4-1.53-1.56-1.13-2.59.4-1.03,1.56-1.54,2.59-1.13,7.34,2.89,14.58,5.24,21.5,7.01,7.98,2.03,16.12,3.61,22.32,4.75,7.86,1.44,12.9,3.01,20.25,7.98,11.69,7.92,24.02,16.33,37.7,25.69,5.19,3.55,10.68,7.02,15.99,10.37,5.08,3.21,10.32,6.52,15.37,9.95.75.51,1.51,1,2.27,1.49,3.56,2.31,7.24,4.7,9.81,8.48,4.53,6.63,3.95,15.1-1.44,21.06-1.3,1.44-2.79,2.64-4.43,3.58l-.26.15c-1.46.83-1.76,1-2.42,2.25-.6,1.13-1.11,2.31-1.66,3.56-.72,1.65-1.46,3.35-2.43,4.98-1.57,2.62-3.76,4.96-6.32,6.76-1.27.9-2.64,1.66-4.05,2.27-.57.25-1.17.39-1.75.53-.45.11-1.07.26-1.29.4-.55.35-1.21,2.33-1.57,3.39-.29.87-.56,1.69-.9,2.37-1.38,2.78-3.3,4.87-5.7,6.22-1.64.92-3.35,1.69-5.01,2.44-1.01.46-2.03.92-3.02,1.4-1.16.57-1.76,1.68-2.64,3.43-.23.46-.46.92-.71,1.38-1.25,2.27-2.67,4.85-4.8,6.87-2.65,2.52-6.36,4.12-10.45,4.5-.58.05-1.43.11-2.45.11Z"/>
    <path class="cls-8" d="M119.47,149.39c-.29,0-.58-.06-.85-.19-11.29-5.34-17.96-16.57-22.52-25.76-.38-.77-.76-1.54-1.13-2.32-1.93-3.97-3.76-7.72-6.29-11.04-.11-.15-.19-.25-.28-.35-.73-.83-.65-2.09.18-2.82.83-.73,2.09-.65,2.82.18.18.2.34.4.49.61,2.74,3.6,4.74,7.7,6.67,11.67.37.76.74,1.53,1.12,2.29,4.27,8.61,10.47,19.11,20.65,23.92,1,.47,1.43,1.66.95,2.66-.34.72-1.06,1.15-1.81,1.15Z"/>
    <path class="cls-12" d="M242,97.52c7.75-1.82,15.44-4.35,22.14-8.65s12.4-10.51,14.94-18.06c1.57-4.66,1.82-9.81.56-14.58-.57-2.15-1.45-4.96-2.99-6.64-1.87-2.05-3.57.34-5.73,1.68-9.15,5.69-19.24,9.86-29.72,12.35-15.34,3.65-30.38,1.7-45.79,2.41-7.6.35-13.57,3.92-17.74,10.28-3.96,6.03-7.91,12.06-11.87,18.08-1.8,2.73-3.66,5.72-3.48,8.99.36,6.38,7.78,9.52,13.2,8.26,7.14-1.66,13.51-3.99,18.56-9.61,1.85-2.06,3.69-4.56,6.43-4.94,2.91-.41,5.47,1.74,7.76,3.59,8.84,7.14,24.76,1.78,32.69-4.46"/>
    <path class="cls-5" d="M306.78,104.88c-.87.68-1.76,1.33-2.68,1.94-8.57-20.96-25.01-38.6-45.31-48.63l15.71-10.8c16.25,15.29,27.65,35.67,32.27,57.49Z"/>
    <path class="cls-8" d="M173.09,113.92c-3.02,0-6.14-.98-8.5-2.75-2.56-1.92-4.07-4.65-4.24-7.67-.22-4.05,2.11-7.6,3.81-10.2l11.87-18.08c4.55-6.94,11.24-10.8,19.33-11.18,5.03-.23,10.07-.18,14.95-.14,10.45.1,20.32.2,30.47-2.22,12.01-2.85,23.61-8.05,33.54-15.02.91-.63,2.15-.42,2.79.49.63.9.42,2.15-.49,2.79-10.35,7.26-22.42,12.67-34.91,15.64-10.63,2.53-21.2,2.43-31.44,2.33-4.82-.05-9.8-.1-14.72.13-6.85.32-12.29,3.47-16.17,9.38l-11.87,18.08c-1.81,2.76-3.29,5.25-3.16,7.78.13,2.34,1.51,3.84,2.65,4.69,2.2,1.65,5.45,2.35,8.11,1.73,6.2-1.44,12.62-3.53,17.52-8.99.22-.25.45-.5.67-.76,1.8-2.06,3.83-4.39,6.96-4.83,3.71-.52,6.72,1.92,9.13,3.88l.17.14c7.8,6.29,22.8,1.35,30.19-4.48.87-.68,2.12-.54,2.81.33.68.87.53,2.12-.33,2.81-8.3,6.54-25.23,12.48-35.18,4.45l-.17-.14c-2-1.62-4.07-3.3-6.06-3.02-1.65.23-3.04,1.82-4.51,3.5-.24.27-.47.54-.71.8-5.65,6.29-12.75,8.63-19.59,10.22-.94.22-1.92.32-2.91.32Z"/>
    <path class="cls-8" d="M265.91,129.75c-.62,0-1.24-.29-1.63-.84-.64-.9-.43-2.15.47-2.79,12.76-9.12,26.67-16.8,41.33-22.85,1.02-.42,2.19.06,2.61,1.09.42,1.02-.07,2.19-1.09,2.61-14.38,5.93-28.01,13.46-40.53,22.4-.35.25-.76.37-1.16.37Z"/>
    <path class="cls-13" d="M308.54,118.03c-1.01,0-1.88-.77-1.99-1.79-.39-3.72-.97-7.4-1.73-10.93-4.55-21.46-15.8-41.51-31.69-56.46-1.09-1.03-2.23-2.06-3.5-3.15-.84-.72-.93-1.98-.21-2.82s1.98-.93,2.82-.21c1.31,1.13,2.5,2.2,3.63,3.27,16.47,15.5,28.15,36.29,32.86,58.53.79,3.66,1.4,7.48,1.8,11.35.11,1.1-.68,2.08-1.78,2.2-.07,0-.14.01-.21.01Z"/>
    <path class="cls-1" d="M88.16,116.11c-.18,0-.35-.02-.53-.07-1.06-.29-1.69-1.39-1.4-2.46,6.8-24.69,21.77-46.81,42.17-62.3.88-.67,2.13-.5,2.8.38.67.88.5,2.13-.38,2.8-19.7,14.96-34.17,36.32-40.73,60.17-.24.89-1.05,1.47-1.93,1.47Z"/>
    <path class="cls-8" d="M178.88,213.93c-2.03,0-4.06-.42-5.89-1.29-4.15-1.96-7.05-6.07-7.39-10.48-.09-1.1.74-2.06,1.84-2.15,1.11-.08,2.06.74,2.15,1.84.23,3,2.24,5.81,5.11,7.17,2.88,1.36,6.62,1.16,9.32-.48,2.98-1.81,5.04-5.29,6.3-10.62.44-1.87.75-3.81,0-5.27-.72-1.41-2.62-2.48-4.84-2.72-2.32-.25-3.94.1-6.39.62-1.08.23-2.14-.46-2.37-1.54-.23-1.08.46-2.14,1.54-2.37,2.62-.56,4.7-1,7.65-.69,3.63.39,6.61,2.21,7.97,4.88,1.34,2.62.91,5.52.33,8.01-1.52,6.43-4.18,10.72-8.12,13.12-2.14,1.3-4.68,1.97-7.22,1.97Z"/>
  </g>
  <path class="cls-4" d="M246.72,93.52c-.33,0-.66-.17-.85-.47-.29-.47-.15-1.09.32-1.38,4.54-2.82,8.28-7.05,10.51-11.91.23-.5.83-.72,1.33-.49.5.23.72.82.49,1.33-2.4,5.21-6.4,9.75-11.27,12.77-.16.1-.35.15-.53.15Z"/>
  <g class="cls-11">
    <rect class="cls-7" width="400" height="256"/>
  </g>
</svg>