<?xml version="1.0" encoding="UTF-8"?>
<svg id="Image_Expanded" xmlns="http://www.w3.org/2000/svg" viewBox="0 0 400 256">
  <defs>
    <style>
      .cls-1 {
        fill: #fff;
      }

      .cls-2 {
        fill: #dfedf2;
      }

      .cls-3 {
        fill: #ea9939;
      }

      .cls-4 {
        fill: #d87625;
      }

      .cls-5 {
        fill: #f47aa0;
      }

      .cls-6 {
        fill: #f43f3f;
      }

      .cls-7 {
        fill: #6d3108;
      }

      .cls-8 {
        opacity: 0;
      }

      .cls-9 {
        fill: #7a1859;
      }

      .cls-10 {
        fill: #999;
      }

      .cls-11 {
        fill: #ccc;
      }

      .cls-12 {
        fill: #dd4a8c;
      }

      .cls-13 {
        fill: #a8b6c1;
      }

      .cls-14 {
        fill: #ffd2e1;
      }
    </style>
  </defs>
  <g>
    <g>
      <path class="cls-7" d="M225.06,116.83c-2.37,0-4.68-.96-6.36-2.63-.23-.23-.45-.48-.66-.74-2.88-3.55-2.61-8.72.66-11.99l70.11-70.12c3.52-3.5,9.23-3.5,12.73,0,.6.6,1.12,1.29,1.53,2.03,1.92,3.48,1.3,7.88-1.53,10.7l-70.11,70.12c-1.72,1.7-3.98,2.63-6.37,2.63ZM295.18,36.72c-.26,0-.52.1-.72.3l-70.1,70.11c-.36.36-.39.94-.07,1.33l-2.76,2.91,2.83-2.83c.26.26.58.29.7.29.16,0,.46-.04.73-.3l70.1-70.11h0c.36-.37.35-.86.17-1.18-.05-.08-.11-.17-.18-.24-.19-.19-.45-.29-.7-.29Z"/>
      <path class="cls-7" d="M225.06,116.83c-2.37,0-4.68-.96-6.36-2.63-.23-.23-.45-.48-.66-.74-1.27-1.61-1.12-3.93.36-5.36l78.38-75.67c.9-.86,2.14-1.26,3.37-1.08,1.23.19,2.3.93,2.91,2.02,1.93,3.49,1.3,7.9-1.53,10.71l-70.1,70.11c-1.72,1.7-3.98,2.63-6.37,2.63Z"/>
      <path class="cls-7" d="M302.26,70.62c-3.8,0-7.29-1.85-9.46-5.04l-9.94-14.68c-.25-.37-.56-.68-.91-.92l-14.7-9.96c-3.77-2.54-5.64-6.91-4.89-11.41.75-4.5,3.96-8.02,8.36-9.2l39.1-10.48c3.48-.93,7.1-.21,9.96,1.98,3.7,2.82,5.32,7.56,4.11,12.08,0,0,0,0,0,0l-10.48,39.11c-.23.85-.52,1.6-.87,2.26-1.74,3.53-5.39,5.95-9.47,6.22-.27.02-.54.03-.8.03ZM312.81,16.53c-.29,0-.59.04-.92.12l-39.1,10.48c-2.01.54-2.45,2.28-2.54,2.8-.09.52-.24,2.3,1.48,3.46l14.69,9.95c1.21.81,2.25,1.85,3.08,3.08l9.93,14.67c.98,1.44,2.36,1.58,3.1,1.52,1.27-.09,2.35-.79,2.89-1.87.1-.19.19-.39.28-.73l10.47-39.08c.44-1.66-.36-2.98-1.25-3.66-.4-.31-1.12-.73-2.09-.73ZM320.02,21.96h0,0Z"/>
      <path class="cls-7" d="M285.56,51.88s-.06,0-.1,0c-1.14-.03-2.21-.54-2.95-1.4-.15-.18-.35-.35-.58-.51l-14.69-9.96c-3.43-2.31-5.31-6.16-5.03-10.29.19-2.57,1.21-5.01,2.88-6.88,1.5-1.68,3.44-2.86,5.63-3.44l39.08-10.47c3.48-.93,7.1-.21,9.96,1.98.89.69,1.46,1.72,1.55,2.85.09,1.13-.3,2.24-1.07,3.06l-31.77,33.8c-.76.81-1.81,1.26-2.91,1.26ZM308.59,17.54l-35.81,9.6c-.7.19-1.26.52-1.71,1.03-.5.57-.82,1.32-.87,2.13-.04.58.03,2.08,1.52,3.09l13.42,9.1,23.45-24.94Z"/>
      <path class="cls-7" d="M285.56,51.88c-.85,0-1.71-.27-2.43-.82l-3.33-2.54c-.93-.71-1.5-1.8-1.57-2.97-.06-1.17.4-2.31,1.25-3.12.08-.08,8.52-8.03,17.02-15.82,18.8-17.22,19.32-17.07,21.86-16.39,1.36.37,2.42,1.42,2.8,2.77.38,1.35.03,2.81-.93,3.83l-31.77,33.8c-.78.83-1.85,1.26-2.92,1.26Z"/>
    </g>
    <g>
      <path class="cls-3" d="M298.71,41.25l-70.11,70.12c-.98.97-2.26,1.46-3.54,1.46s-2.56-.49-3.53-1.46c-.12-.12-.24-.25-.35-.39-1.59-1.96-1.48-4.85.35-6.68l70.11-70.12c1.96-1.95,5.12-1.95,7.07,0,.34.34.63.73.85,1.13,1.05,1.9.77,4.33-.85,5.94Z"/>
      <path class="cls-4" d="M298.71,41.25l-70.11,70.12c-.98.97-2.26,1.46-3.54,1.46s-2.56-.49-3.53-1.46c-.12-.12-.24-.25-.35-.39l78.38-75.67c1.05,1.9.77,4.33-.85,5.94Z"/>
      <path class="cls-10" d="M320.02,21.96l-10.48,39.11c-.14.51-.32,1-.55,1.44-2.44,4.93-9.58,5.69-12.88.82l-9.94-14.68c-.53-.79-1.21-1.47-2-2l-14.68-9.95c-5.32-3.59-3.94-11.77,2.26-13.43l39.1-10.48c2.42-.65,4.74-.05,6.48,1.29,2.27,1.73,3.53,4.73,2.69,7.88Z"/>
      <path class="cls-11" d="M317.33,14.08l-9.51,10.12-22.26,23.68c-.4-.47-.87-.88-1.39-1.23l-14.68-9.95c-2.42-1.63-3.45-4.22-3.28-6.7.12-1.64.76-3.24,1.88-4.5.92-1.03,2.14-1.83,3.66-2.23l39.1-10.48c2.42-.65,4.74-.05,6.48,1.29Z"/>
      <path class="cls-1" d="M317.33,14.08c-1.51-.41-35.1,31.26-35.1,31.26l3.33,2.54,31.77-33.8Z"/>
    </g>
  </g>
  <g>
    <path class="cls-5" d="M206.05,202.36s-81.89-39.94-80.43-94.72c.06-2.36.28-4.75.67-7.17.59-4.68,2.65-10.45,4.05-13.75,13.23-31.19,57.24-33.78,75.72-5.43,11.01-16.89,31.07-22.79,48.28-18.22,11.7,3.09,22.09,11.03,27.44,23.65,1.4,3.3,3.47,9.07,4.05,13.75,9.34,58.44-79.76,101.89-79.76,101.89Z"/>
    <path class="cls-12" d="M206.05,202.36s-81.89-39.94-80.43-94.72c2.37,12.49,10.03,23.77,19.57,32.32,10.83,9.72,24.02,16.38,37.15,22.64,8.86,4.22,18.26,8.4,28.04,7.68,9.28-.68,17.63-5.69,25.3-10.97,11.84-8.14,23.21-17.43,31.2-29.37,8-11.95,12.32-26.92,9.13-40.93-2.61-11.43-10.94-21.77-21.69-25.94,11.7,3.09,22.09,11.03,27.44,23.65,1.4,3.3,3.47,9.07,4.05,13.75,9.34,58.44-79.76,101.89-79.76,101.89Z"/>
    <path class="cls-14" d="M173.44,65.2c-17.96,9.85-30.7,28.65-33.2,48.98-2.49,20.33,5.33,41.66,20.38,55.55-20.24-12.31-33.89-34.83-35.46-58.46-.56-8.46.38-17.14,3.82-24.89,3.98-8.97,11.34-16.39,20.27-20.46,8.93-4.07,19.36-4.75,28.74-1.88"/>
    <path class="cls-9" d="M206.05,204.36c-.3,0-.6-.07-.88-.2-.22-.11-22.75-11.19-43.81-29.31-28.17-24.25-40.98-50.08-37.05-74.69.56-4.53,2.53-10.33,4.18-14.21,6.33-14.93,20.01-24.71,36.59-26.18,16.1-1.42,31.54,5.44,40.97,18.04,9.43-12.6,24.87-19.47,40.97-18.04,16.58,1.47,30.27,11.26,36.59,26.18,1.65,3.89,3.62,9.68,4.19,14.28,3.93,24.55-8.88,50.38-37.06,74.62-21.06,18.13-43.59,29.2-43.81,29.31-.28.13-.58.2-.88.2ZM169.27,63.58c-1.27,0-2.55.06-3.83.17-15.09,1.33-27.52,10.22-33.26,23.76-1.54,3.64-3.38,9.02-3.9,13.21-8.52,53.3,68.62,94.7,77.78,99.4,9.16-4.71,86.3-46.1,77.79-99.33-.53-4.26-2.37-9.64-3.91-13.28-5.74-13.54-18.18-22.42-33.27-23.76-15.62-1.39-30.54,5.76-38.94,18.64-.37.57-1,.91-1.68.91h0c-.68,0-1.31-.34-1.68-.91-7.71-11.82-20.91-18.81-35.1-18.81Z"/>
    <path class="cls-14" d="M149.58,80.1c-5.35,4.48-8.84,11.13-9.49,18.08-.38,4.07.22,8.32,2.32,11.83,3.73,6.23,11.78,9.02,18.96,7.89,7.18-1.13,13.47-5.59,18.32-11,3.38-3.77,6.23-8.15,7.44-13.07,1.21-4.92.6-10.43-2.38-14.52-7.78-10.68-26.66-6.33-35.16.79Z"/>
  </g>
  <g>
    <g>
      <path class="cls-7" d="M128.61,244.85c-5.81,0-11.32-10.42-12.18-19.39-.11-1.01-.16-2.02-.16-3.03,0-11.14,4.24-22.42,12.34-22.42,2.26,0,4.42.97,6.25,2.79,1.56,1.53,2.9,3.74,3.95,6.53,1.41,3.78,2.15,8.3,2.15,13.1,0,1.38-.1,2.77-.3,4.13-1.19,8.44-6.7,18.29-12.04,18.29ZM128.59,208.01c-1,.23-4.32,5.01-4.32,14.42,0,.74.04,1.47.12,2.24.5,5.21,2.62,9.3,4.11,11.25,1.48-1.94,3.57-5.79,4.23-10.49.15-1.01.22-2,.22-2.99,0-3.8-.58-7.45-1.64-10.29-.83-2.21-1.66-3.24-2.08-3.65-.42-.42-.64-.48-.64-.48Z"/>
      <path class="cls-7" d="M109.46,216.82c-10.48,0-22.42-6.57-22.42-12.34s11.52-12.34,22.42-12.34,22.42,4.24,22.42,12.34-11.28,12.34-22.42,12.34ZM95.97,204.37c2.32,1.79,7.42,4.45,13.49,4.45,9.43,0,14.2-3.31,14.42-4.36-.22-1.01-4.99-4.32-14.42-4.32-6.28,0-11.28,2.53-13.49,4.23Z"/>
      <path class="cls-7" d="M124.1,205.11c-10.5,0-24.42-7.67-24.42-13.45s11.52-12.34,22.42-12.34,22.42,4.24,22.42,12.34c0,6.52-7.16,13.45-20.42,13.45ZM108.67,191.5c2.82,2.2,9.16,5.6,15.43,5.6,8.16,0,12.42-3.55,12.42-5.45-.22-1.03-4.99-4.34-14.42-4.34-6.23,0-11.19,2.49-13.43,4.19Z"/>
      <path class="cls-7" d="M134.05,192.36c-10.48,0-22.42-6.57-22.42-12.34s11.52-12.34,22.42-12.34,22.42,4.24,22.42,12.34-11.28,12.34-22.42,12.34ZM120.56,179.91c2.32,1.79,7.42,4.45,13.49,4.45,9.43,0,14.2-3.31,14.42-4.36-.22-1.01-4.99-4.32-14.42-4.32-6.28,0-11.28,2.53-13.49,4.23Z"/>
      <path class="cls-7" d="M140.11,232.68c-2.24,0-4.46-1.44-6.61-4.29-2.8-3.73-4.79-8.88-5.46-14.15-.18-1.32-.26-2.63-.26-3.98,0-1.72.1-3.43.29-5.09,1.25-10.54,5.98-17.33,12.05-17.33,1.95,0,4.82.72,7.44,4.16,1.22,1.61,2.24,3.61,3.04,5.96,1.22,3.61,1.86,7.87,1.86,12.31,0,1.19-.08,2.4-.23,3.6-1.04,8.51-6.67,18.82-12.11,18.82ZM140.09,195.84c-.84.19-3.28,3.42-4.09,10.26-.15,1.34-.23,2.74-.23,4.16,0,.99.06,1.95.2,2.94.58,4.59,2.41,8.36,3.92,10.37.04.06.08.11.12.16,1.52-1.99,3.68-6,4.27-10.87.11-.89.17-1.76.17-2.61,0-3.58-.5-6.95-1.44-9.74-.51-1.51-1.15-2.78-1.83-3.68-.57-.74-.99-.97-1.09-1Z"/>
      <path class="cls-7" d="M152.47,221.21c-3.25,0-5.92-3.1-7.59-5.7-1.42-2.23-3.88-6.91-4.57-13.38-.12-1.16-.18-2.25-.18-3.33,0-1.66.09-3.28.27-4.82,1.18-10.69,5.92-17.61,12.07-17.61,4.34,0,8.09,3.5,10.29,9.59,1.34,3.72,2.05,8.16,2.05,12.84,0,10.48-6.57,22.42-12.34,22.42ZM151.18,213.51h0ZM152.45,184.36c-.82.19-3.34,3.6-4.1,10.5-.14,1.26-.22,2.58-.22,3.93,0,.8.04,1.61.14,2.49.53,5.03,2.53,8.62,3.36,9.92.27.42.52.77.75,1.06,1.79-2.33,4.44-7.42,4.44-13.48,0-3.71-.56-7.31-1.57-10.13-1.19-3.3-2.52-4.25-2.79-4.31Z"/>
      <path class="cls-7" d="M120.41,229.08c-.45,0-.91-.08-1.36-.24-1.44-.52-2.46-1.82-2.62-3.35-.11-1.05-.16-2.05-.16-3.07,0-11.14,4.24-22.42,12.34-22.42.14,0,.27,0,.4.01,1.98-7.54,6.08-12.18,11.1-12.18.43,0,.91.04,1.42.13,2.02-7.21,6.03-11.61,10.94-11.61,4.34,0,8.09,3.5,10.29,9.59.53,1.47.15,3.12-.97,4.22l-38.59,37.77c-.76.75-1.77,1.14-2.8,1.14ZM128.59,208.01c-.69.16-2.46,2.45-3.5,6.9l5.62-5.5c-.55-.2-1.07-.51-1.5-.95-.39-.39-.61-.45-.62-.45ZM140.09,195.84c-.74.17-2.74,2.72-3.75,8.05l6.09-5.97c-.47-.26-.9-.62-1.24-1.08-.57-.75-1-.98-1.1-1.01ZM152.45,184.36c-.68.16-2.53,2.53-3.57,7.26l5.34-5.23c-.84-1.5-1.58-1.99-1.77-2.03Z"/>
      <path class="cls-7" d="M148.38,213.96s-.07,0-.11,0c-2.21-.06-3.95-1.9-3.89-4.11.13-4.83-1.18-9.78-3.69-13.91-1.15-1.89-.54-4.35,1.34-5.49,1.89-1.15,4.35-.54,5.49,1.34,3.3,5.43,5.02,11.92,4.85,18.28-.06,2.17-1.84,3.89-4,3.89Z"/>
      <path class="cls-7" d="M135.87,224.53c-2.05,0-3.8-1.57-3.98-3.66-.41-4.82-1.79-9.65-3.99-13.96-1-1.97-.22-4.38,1.75-5.38,1.97-1,4.38-.22,5.38,1.75,2.66,5.22,4.33,11.07,4.83,16.91.19,2.2-1.44,4.14-3.64,4.33-.12,0-.23.01-.35.01Z"/>
      <path class="cls-7" d="M130.87,203.71c-.55,0-1.1-.11-1.63-.35-5.26-2.36-11.09-3.39-16.84-2.98-2.2.15-4.12-1.5-4.27-3.71-.16-2.2,1.5-4.12,3.71-4.27,7.07-.49,14.21.77,20.68,3.66,2.02.9,2.92,3.27,2.01,5.29-.67,1.48-2.12,2.37-3.65,2.37Z"/>
      <path class="cls-7" d="M139.76,192.04c-.68,0-1.36-.17-1.99-.54-3.87-2.23-8.26-3.64-12.71-4.06-2.2-.21-3.81-2.16-3.6-4.36.21-2.2,2.18-3.81,4.36-3.6,5.58.53,11.09,2.29,15.95,5.09,1.91,1.1,2.57,3.55,1.47,5.46-.74,1.28-2.09,2-3.47,2Z"/>
      <path class="cls-7" d="M118.81,222.47c-2.3,0-4.47-.86-6.14-2.43-.08-.07-.15-.14-.23-.21-.08-.08-.23-.23-.4-.44-3.13-3.56-2.97-8.92.4-12.29.02-.02.1-.1.26-.25l69.86-69.86c2.91-2.93,7.31-3.2,10.94-.67.07.05.14.1.2.15.43.31.86.67,1.26,1.08.1.1.2.21.3.32,3.31,3.57,3.33,8.54.04,11.85,0,0,0,0,0,0l-70.12,70.11c-1.68,1.7-3.94,2.64-6.36,2.64ZM118.11,214.17s0,0,0,0c.19.19.42.29.69.29.19,0,.46-.05.69-.28l70.13-70.12c.1-.1.14-.17.15-.19-.01-.02-.09-.26-.41-.6-.03-.03-.06-.06-.08-.09-.15-.14-.24-.21-.27-.23-.08-.05-.15-.1-.22-.16-.29-.18-.49-.21-.54-.19l-69.94,69.96s-.07.07-.1.1l-.13.13c-.35.35-.36.95,0,1.34.02.02.03.03.04.05ZM192.46,146.89h0,0ZM189.2,143.08s0,0,0,0c0,0,0,0,0,0ZM189.19,143.07s0,0,0,0c0,0,0,0,0,0Z"/>
      <path class="cls-7" d="M118.81,222.47c-2.3,0-4.47-.86-6.14-2.43-.08-.07-.15-.14-.23-.21-.12-.12-.4-.4-.67-.8-1.04-1.59-.82-3.7.53-5.04l77.16-76.3c.77-.76,1.8-1.22,2.88-1.16,1.08.02,2.1.47,2.84,1.25,3.38,3.58,3.42,8.59.11,11.93,0,0,0,0,0,0l-70.12,70.11c-1.68,1.7-3.94,2.64-6.36,2.64ZM192.46,146.89h0,0Z"/>
    </g>
    <g>
      <path class="cls-1" d="M136.95,222.43c0,1.22-.09,2.4-.26,3.55-1.19,8.47-6.3,14.87-8.08,14.87-2.29,0-7.34-6.86-8.2-15.77-.09-.87-.14-1.75-.14-2.65,0-10.17,3.74-18.42,8.34-18.42,1.22,0,2.38.58,3.42,1.62,1.18,1.16,2.21,2.93,3.03,5.11,1.18,3.17,1.89,7.25,1.89,11.69Z"/>
      <path class="cls-1" d="M109.46,212.82c-10.17,0-18.42-6.32-18.42-8.34,0-2.51,8.25-8.34,18.42-8.34s18.42,3.73,18.42,8.34-8.25,8.34-18.42,8.34Z"/>
      <path class="cls-1" d="M124.1,201.11c-10.17,0-20.42-7.43-20.42-9.45,0-2.51,8.25-8.34,18.42-8.34s18.42,3.73,18.42,8.34-6.25,9.45-16.42,9.45Z"/>
      <path class="cls-1" d="M134.05,188.36c-10.17,0-18.42-6.32-18.42-8.34,0-2.51,8.25-8.34,18.42-8.34s18.42,3.73,18.42,8.34-8.25,8.34-18.42,8.34Z"/>
      <path class="cls-1" d="M148.45,210.26c0,1.05-.07,2.08-.2,3.09-1.06,8.71-6.33,15.33-8.14,15.33-.87,0-2.13-.99-3.42-2.7-2-2.66-4.03-7.07-4.69-12.25-.15-1.13-.23-2.28-.23-3.47,0-1.6.09-3.15.26-4.63.94-7.93,4.2-13.79,8.08-13.79,1.56,0,3.01.94,4.26,2.58.94,1.24,1.77,2.88,2.43,4.82,1.04,3.08,1.65,6.89,1.65,11.02Z"/>
      <path class="cls-1" d="M160.81,198.79c0,10.17-6.32,18.42-8.34,18.42-1.04,0-2.67-1.44-4.22-3.86-1.78-2.8-3.46-6.93-3.96-11.65-.1-.95-.16-1.92-.16-2.91,0-1.51.08-2.97.24-4.37.89-8.07,4.18-14.06,8.1-14.06,2.64,0,5,2.71,6.53,6.95,1.13,3.14,1.81,7.14,1.81,11.48Z"/>
      <path class="cls-2" d="M159,187.31l-12.2,11.93-2.51,2.46-9.23,9.04-3.06,2.99-11.59,11.35c-.09-.87-.14-1.75-.14-2.65,0-10.17,3.74-18.42,8.34-18.42,1.22,0,2.38.58,3.42,1.62.94-7.93,4.2-13.79,8.08-13.79,1.56,0,3.01.94,4.26,2.58.89-8.07,4.18-14.06,8.1-14.06,2.64,0,5,2.71,6.53,6.95Z"/>
      <path class="cls-13" d="M148.38,210.96h-.03c-.55-.01-.99-.47-.97-1.03.14-5.4-1.32-10.93-4.13-15.55-.29-.47-.14-1.09.34-1.37.47-.29,1.09-.14,1.37.34,3,4.95,4.57,10.86,4.42,16.64-.01.54-.46.97-1,.97Z"/>
      <path class="cls-13" d="M135.87,221.53c-.51,0-.95-.39-1-.92-.45-5.2-1.93-10.42-4.3-15.07-.25-.49-.05-1.09.44-1.34.49-.25,1.09-.05,1.34.44,2.48,4.88,4.04,10.35,4.51,15.81.05.55-.36,1.03-.91,1.08-.03,0-.06,0-.09,0Z"/>
      <path class="cls-13" d="M130.87,200.71c-.14,0-.28-.03-.41-.09-5.71-2.56-12.03-3.68-18.28-3.24-.54.04-1.03-.38-1.07-.93s.38-1.03.93-1.07c6.57-.47,13.23.71,19.24,3.41.5.23.73.82.5,1.32-.17.37-.53.59-.91.59Z"/>
      <path class="cls-13" d="M139.76,189.04c-.17,0-.34-.04-.5-.13-4.24-2.44-9.05-3.98-13.93-4.45-.55-.05-.95-.54-.9-1.09.05-.55.52-.97,1.09-.9,5.15.49,10.25,2.12,14.73,4.71.48.28.64.89.37,1.37-.18.32-.52.5-.87.5Z"/>
      <path class="cls-3" d="M192.46,146.89l-70.12,70.11c-.97.98-2.25,1.47-3.53,1.47s-2.54-.48-3.52-1.46c0-.01-.02-.01-.02-.01-.05-.05-.11-.11-.15-.17-1.8-1.96-1.75-5,.15-6.9,0,0,.07-.07.21-.2l69.91-69.91c1.66-1.67,3.97-1.51,5.82-.22h0c.32.22.63.48.92.77.05.05.1.1.15.16,1.82,1.93,2.08,4.45.18,6.36Z"/>
      <path class="cls-4" d="M192.46,146.89l-70.12,70.11c-.97.98-2.25,1.47-3.53,1.47s-2.54-.48-3.52-1.46c0-.01-.02-.01-.02-.01-.05-.05-.11-.11-.15-.17l77.16-76.3c1.82,1.93,2.08,4.45.18,6.36Z"/>
    </g>
  </g>
  <g class="cls-8">
    <rect class="cls-6" x="1" y=".5" width="400" height="256"/>
  </g>
</svg>