<?xml version="1.0" encoding="UTF-8"?>
<svg id="Image_Expanded" xmlns="http://www.w3.org/2000/svg" viewBox="0 0 400 256">
  <defs>
    <style>
      .cls-1 {
        fill: #3288d6;
      }

      .cls-2 {
        fill: #fff;
      }

      .cls-3 {
        fill: #dfedf2;
      }

      .cls-4 {
        fill: #f43f3f;
      }

      .cls-5 {
        fill: #79cdf6;
      }

      .cls-6 {
        opacity: 0;
      }

      .cls-7 {
        fill: #333;
      }

      .cls-8 {
        fill: #47acea;
      }

      .cls-9 {
        fill: #a8b6c1;
      }
    </style>
  </defs>
  <g>
    <path class="cls-1" d="M345.97,184.61h-153.74c5.78-15.4,23.84-24.45,38.99-18.03-5.97-14.15-5.06-31.22,3.17-44.18,8.23-12.96,23.81-21.15,39.09-19.67,15.28,1.47,29.33,12.99,32.93,27.92,8.8-6.26,21.57-6.25,30.36.02,8.79,6.27,12.95,18.35,9.88,28.71,14.74.17,28.8,10.62,33.21,24.69"/>
    <path class="cls-8" d="M245.75,107.68H57.63l-36.28-.99c3.42-10.12,11.5-18.56,21.46-22.43,9.96-3.86,21.62-3.08,30.97,2.08-4.49-11.78,1.46-26.53,12.86-31.89,11.41-5.36,26.56-.53,32.76,10.44,1.23-15.43,12.5-29.42,27.11-34.52,3.49-1.22,7.14-1.94,10.82-2.18,11.69-.78,23.75,3.23,32.61,10.98,11.65,10.19,17.59,26.33,16.01,41.72,8.68-4.62,19.93-3.97,28.01,1.63,8.09,5.61,13.07,15.4,11.79,25.16Z"/>
    <path class="cls-5" d="M314.52,229.56H119.29l-15.76.66c9.2-12.3,27.36-16.89,41.3-10.45-3.39-8.03.34-18.37,8.08-22.39,7.74-4.03,18.35-1.14,22.97,6.26,1.03-15.5,10.2-30.37,23.92-37.64,2.09-1.1,4.27-2.02,6.51-2.74,12.51-4.06,26.96-2.22,37.58,5.56,12.52,9.17,18.77,26.37,14.43,41.28,19.97-8.22,45.78.54,56.2,19.46Z"/>
    <path class="cls-8" d="M211.32,226.19c2.28-6.31.12-14.38-5.82-17.5,5.58.57,11.37-1.58,15.23-5.63,3.87-4.06,5.72-9.95,4.89-15.49-1.57-10.41-11.29-17.3-20.17-22.95l.86-1.36c12.51-4.06,26.96-2.22,37.58,5.56,12.52,9.17,18.77,26.37,14.43,41.28,19.97-8.22,45.78.54,56.2,19.46h-104.84c.66-1.06,1.21-2.18,1.64-3.37Z"/>
    <g>
      <g>
        <path class="cls-7" d="M122.66,190.03c-9.91,0-19.77-3.18-27.95-9.41l-49.5-37.75c-2.35-1.8-3.62-4.63-3.38-7.58.24-2.95,1.93-5.54,4.54-6.93l12.06-6.46c2.43-1.3,5.31-1.36,7.8-.19l41.48,13.39,157.57-84.47c16.42-8.8,34.95-13.25,53.57-12.81,6.64.14,13.32.91,19.85,2.29.23.04.58.11.91.19l10.83,2.36c3.66.8,6.78,2.73,9.01,5.58,2.87,3.63,4.02,8.55,3.06,13.14-.95,4.57-3.79,8.32-7.99,10.57h0l-210.13,112.64c-6.81,3.65-14.29,5.45-21.74,5.45ZM62.52,128.86c-.11,0-.21.03-.3.08l-12.06,6.46c-.21.11-.32.29-.34.53-.02.24.07.44.26.58l49.49,37.75c11.83,9.02,27.95,10.3,41.06,3.28l210.13-112.64c2.66-1.43,3.61-3.59,3.94-5.15.48-2.3-.09-4.75-1.52-6.56-1.08-1.38-2.61-2.32-4.43-2.72l-10.85-2.37c-.26-.06-.5-.11-.73-.15-6.14-1.29-12.32-2-18.47-2.13-17.25-.39-34.41,3.72-49.61,11.87l-159.07,85.27c-.96.51-2.09.61-3.12.28l-43.38-14.01c-.22-.07-.44-.16-.65-.27-.1-.05-.22-.08-.33-.08ZM352.63,68.42h.01-.01Z"/>
        <path class="cls-7" d="M122.66,190.03c-9.91,0-19.77-3.18-27.95-9.41l-3.37-2.57c-1.53-1.16-2.01-3.24-1.16-4.96.85-1.72,2.8-2.59,4.65-2.08l11.93,3.31c8.11,2.25,16.67,1.3,24.09-2.67l209.92-112.53c4.83-2.59,9.08-6.31,12.28-10.76.73-1.02,1.9-1.63,3.16-1.66,1.28-.03,2.45.54,3.23,1.52,2.88,3.64,4.02,8.56,3.07,13.15-.95,4.57-3.79,8.32-7.99,10.57h0l-210.13,112.64c-6.81,3.65-14.29,5.45-21.74,5.45ZM354.83,58.56c-3.04,3.01-6.51,5.6-10.28,7.62l-209.92,112.53c-2.34,1.26-4.78,2.27-7.27,3.04,4.57-.57,9.06-1.96,13.26-4.21l210.13-112.64c2.66-1.43,3.61-3.59,3.94-5.15.08-.39.13-.78.15-1.18ZM352.63,68.42h0,0Z"/>
        <path class="cls-7" d="M232.16,137c-.39,0-.78-.06-1.16-.17-1.02-.31-1.87-1-2.37-1.94l-7.36-13.73c-.52-.96-.62-2.1-.27-3.14.34-1.04,1.09-1.89,2.08-2.36l50.6-24.05c.76-.36,1.6-.47,2.43-.32l20.35,3.69c1.67.3,2.97,1.63,3.24,3.31.27,1.68-.56,3.34-2.06,4.15l-63.59,34.09c-.59.31-1.24.47-1.89.47ZM230.31,121.08l3.49,6.5,49.96-26.78-7.8-1.41-45.65,21.69Z"/>
        <path class="cls-7" d="M185.33,209.51c-1.8,0-3.47-.46-4.79-1.39-2.04-1.44-3.03-3.82-2.65-6.36.05-.33.14-.66.27-.97l31.64-74.29c.64-2.74,2.81-5.32,5.91-6.98l51.36-27.53c4.19-2.25,8.8-2.09,11.46.4,2.11,1.97,2.61,5,1.3,7.89-.08.18-.18.35-.28.52l-56.51,87.77c-1.02,2.04-2.91,3.9-5.24,5.15l-26.51,14.21c-1.96,1.05-4.03,1.58-5.96,1.58ZM271.31,98.81c-.15.07-.3.14-.46.22l-51.36,27.53c-1.23.66-1.82,1.48-1.9,1.76-.05.33-.13.62-.27.93l-30.67,72c.26-.09.54-.22.84-.38l26.51-14.21c1-.54,1.68-1.26,1.87-1.7.08-.18.18-.35.28-.52l55.14-85.64ZM276.19,98.63h0,0Z"/>
        <path class="cls-7" d="M185.33,209.51c-1.8,0-3.46-.46-4.78-1.39-2.04-1.44-3.03-3.82-2.65-6.36l.27-1.81c.05-.34.15-.67.28-.99l31.35-72.46c.64-2.74,2.81-5.31,5.9-6.97l51.36-27.53c1.64-.88,3.39-1.42,5.08-1.56,3.06-.25,5.77.85,7.25,2.95,1.37,1.95,1.53,4.46.43,6.9-.08.18-.18.35-.28.52l-56.51,87.78c-1.03,2.06-2.88,3.88-5.25,5.15l-26.51,14.21c-1.96,1.05-4.04,1.58-5.96,1.58ZM271.32,98.81c-.15.07-.3.14-.46.23l-51.36,27.53c-1.23.66-1.82,1.48-1.9,1.75-.05.34-.14.64-.28.96l-31.22,72.14c.39-.09.86-.26,1.4-.54l26.51-14.21c1.01-.54,1.68-1.25,1.89-1.71.08-.18.17-.35.28-.51l55.14-85.64ZM276.19,98.63h0,0Z"/>
        <path class="cls-7" d="M185.33,209.51c-1.8,0-3.46-.46-4.78-1.39-2.04-1.44-3.03-3.82-2.65-6.36l.27-1.81c.21-1.37,1.11-2.53,2.38-3.08,1.27-.54,2.73-.4,3.87.4.83.58,2.28-.04,3.07-.47l23.58-12.64,58.04-91.88c.67-1.06,1.8-1.75,3.06-1.85,3.06-.25,5.76.85,7.24,2.95,1.37,1.95,1.53,4.46.43,6.9-.08.18-.18.35-.28.52l-56.51,87.78c-1.03,2.06-2.88,3.88-5.25,5.15l-26.51,14.21c-1.96,1.05-4.04,1.58-5.96,1.58ZM276.19,98.63h0,0Z"/>
        <path class="cls-7" d="M73.92,219.74c-1.43,0-2.78-.38-3.89-1.15-1.8-1.24-2.71-3.29-2.43-5.49.06-.45.19-.9.4-1.3l19.52-38.56c.55-2.09,2.14-3.98,4.38-5.19l32.44-17.39c3.2-1.72,6.7-1.52,8.92.5,1.85,1.69,2.36,4.27,1.32,6.74-.13.3-.29.58-.48.84l-35.21,47.13c-.79,1.52-2.12,2.84-3.82,3.75l-16.75,8.98c-1.44.77-2.96,1.16-4.39,1.16ZM95.23,175.42c-.07.33-.19.65-.34.96l-16.83,33.26,13.22-7.08c.31-.17.48-.35.51-.4.13-.3.25-.51.45-.77l30.46-40.77-27.02,14.48c-.22.12-.36.24-.44.33ZM130.88,156.33h0,0Z"/>
        <path class="cls-7" d="M73.91,219.74c-1.43,0-2.78-.38-3.89-1.15-1.8-1.24-2.71-3.29-2.43-5.49l.15-1.19c.06-.47.2-.92.42-1.34l19.35-37.37c.55-2.08,2.14-3.97,4.37-5.17l32.44-17.39c1.23-.66,2.57-1.05,3.87-1.14,2.43-.15,4.62.8,5.86,2.55,1.18,1.66,1.37,3.78.51,5.82-.13.3-.29.58-.48.84l-35.22,47.13c-.79,1.52-2.13,2.83-3.82,3.74l-16.74,8.98c-1.44.77-2.96,1.16-4.39,1.16ZM95.23,175.42c-.07.34-.19.68-.36.99l-17.36,33.52,13.76-7.38c.32-.17.48-.36.52-.41.12-.29.25-.51.44-.76l30.46-40.77-27.02,14.48c-.22.12-.36.24-.44.32ZM130.88,156.33h0,0Z"/>
        <path class="cls-7" d="M73.91,219.74c-1.43,0-2.78-.38-3.89-1.15-1.8-1.23-2.71-3.29-2.43-5.49l.15-1.19c.18-1.4,1.08-2.61,2.38-3.17,1.24-.54,2.66-.41,3.78.33.1-.02.28-.08.55-.23,2.88-1.54,10.29-6.31,12.49-7.73l24.26-33.49s0,0,0,0c1.24-1.71,3.32-2.68,5.42-2.52.34.03.67.05,1.01.08,2.2.2,4.12,1.57,5.02,3.59.91,2.03.64,4.39-.69,6.17l-23.09,30.91c-.79,1.52-2.13,2.83-3.82,3.74l-16.74,8.98c-1.44.77-2.96,1.16-4.39,1.16Z"/>
        <path class="cls-7" d="M290.38,73.36c-1.9,0-3.79-1.09-4.81-2.98l-3.79-7.07c-.59-1.1-.82-2.37-.64-3.56.24-1.6,1.17-2.94,2.55-3.68l8.67-4.65c2.48-1.33,5.65-.25,7.08,2.41l3.79,7.07c.59,1.1.82,2.37.64,3.56-.24,1.6-1.17,2.94-2.55,3.68l-8.67,4.65c-.72.39-1.5.57-2.27.57ZM290.02,61.75l1.4,2.62,3.56-1.91-1.4-2.62-3.56,1.91ZM285.58,59.6l1.89,3.53-1.89-3.53Z"/>
        <path class="cls-7" d="M243.8,98.33c-.73,0-1.47-.16-2.17-.49-1.09-.51-2.02-1.4-2.61-2.5l-3.79-7.07c-.59-1.1-.82-2.37-.64-3.56.24-1.6,1.17-2.94,2.55-3.68l8.67-4.65c2.48-1.33,5.66-.25,7.08,2.41l3.79,7.07c.59,1.1.82,2.37.64,3.56-.24,1.6-1.17,2.94-2.55,3.68l-8.67,4.65c-.72.38-1.5.58-2.3.58ZM243.47,86.71l1.4,2.62,3.56-1.91-1.4-2.62-3.56,1.91ZM240.91,88.08h0ZM240.91,88.08h0s0,0,0,0ZM239.02,84.55h0,0Z"/>
        <path class="cls-7" d="M229.04,106.23c-.73,0-1.47-.16-2.17-.49-1.09-.51-2.02-1.4-2.61-2.5l-3.79-7.07c-.59-1.1-.82-2.37-.64-3.56.24-1.6,1.17-2.94,2.55-3.68l8.67-4.65c2.48-1.33,5.66-.25,7.08,2.41l3.79,7.07c.59,1.1.82,2.36.64,3.56-.24,1.6-1.17,2.94-2.55,3.68l-8.67,4.65c-.72.38-1.5.58-2.3.58ZM228.72,94.62l1.4,2.62,3.56-1.91-1.4-2.62-3.56,1.91ZM226.16,95.99s0,0,0,0c0,0,0,0,0,0ZM224.27,92.46h0,0Z"/>
        <path class="cls-7" d="M214.29,114.14c-.73,0-1.47-.16-2.17-.49-1.09-.51-2.02-1.4-2.61-2.5l-3.79-7.07c-.59-1.1-.82-2.37-.64-3.56.24-1.6,1.17-2.94,2.55-3.68l8.67-4.65c2.48-1.33,5.66-.25,7.08,2.41l3.79,7.07c.59,1.1.82,2.37.64,3.56-.24,1.6-1.17,2.94-2.55,3.68l-8.67,4.65c-.72.38-1.5.58-2.3.58ZM213.96,102.52l1.4,2.62,3.56-1.91-1.4-2.62-3.56,1.91ZM211.42,103.89h0s0,0,0,0c0,0,0,0,0,0ZM209.52,100.37h0,0Z"/>
        <path class="cls-7" d="M199.57,122.04c-1.9,0-3.8-1.09-4.81-2.98l-3.79-7.07c-.59-1.1-.82-2.37-.64-3.56.24-1.6,1.17-2.94,2.55-3.68l8.67-4.65c2.48-1.33,5.66-.25,7.08,2.41l3.79,7.07c.59,1.1.82,2.36.64,3.56-.24,1.6-1.17,2.94-2.55,3.68l-8.67,4.65c-.72.39-1.5.57-2.27.57ZM199.21,110.43l1.4,2.62,3.56-1.91-1.4-2.62-3.56,1.91ZM196.66,111.8s0,0,0,0c0,0,0,0,0,0ZM194.77,108.28h0,0Z"/>
        <path class="cls-7" d="M184.82,129.95c-1.9,0-3.8-1.09-4.81-2.98l-3.79-7.07c-.59-1.1-.82-2.37-.64-3.56.24-1.6,1.17-2.94,2.55-3.68l8.67-4.65c2.48-1.33,5.66-.25,7.08,2.41l3.79,7.07c.59,1.1.82,2.37.64,3.56-.24,1.6-1.17,2.94-2.55,3.68l-8.67,4.65c-.72.38-1.5.57-2.27.57ZM184.46,118.34l1.4,2.62,3.56-1.91-1.4-2.62-3.56,1.91ZM181.91,119.71h0ZM181.91,119.71h0s0,0,0,0ZM180.02,116.18h0,0Z"/>
        <path class="cls-7" d="M170.07,137.85c-1.9,0-3.8-1.09-4.81-2.98l-3.79-7.07c-.59-1.1-.82-2.37-.64-3.56.24-1.6,1.17-2.94,2.55-3.68l8.67-4.65c2.48-1.33,5.66-.24,7.08,2.41l3.79,7.07c.59,1.1.82,2.36.64,3.56-.24,1.6-1.17,2.94-2.55,3.68l-8.67,4.65c-.72.39-1.5.57-2.27.57ZM169.71,126.25l1.4,2.62,3.56-1.91-1.4-2.62-3.56,1.91ZM167.16,127.62s0,0,0,0c0,0,0,0,0,0ZM165.27,124.09h0,0Z"/>
        <path class="cls-7" d="M303.61,66.27c-1.9,0-3.79-1.09-4.81-2.98l-3.79-7.07c-.59-1.1-.82-2.37-.64-3.56.24-1.6,1.17-2.94,2.55-3.68l8.67-4.65c2.48-1.33,5.65-.25,7.08,2.41h0l3.79,7.07c.59,1.1.82,2.37.64,3.56-.24,1.6-1.17,2.94-2.55,3.68l-8.67,4.65c-.72.39-1.5.57-2.27.57ZM303.25,54.66l1.4,2.62,3.56-1.91-1.4-2.62-3.56,1.91ZM305.62,50.52h0s0,0,0,0h0Z"/>
        <path class="cls-7" d="M317.21,58.89c-1.95,0-3.85-1.05-4.83-2.89l-3.79-7.07c-1.42-2.66-.42-5.98,2.24-7.41l6.04-3.24c.61-.33,1.29-.5,1.97-.47,6.65.14,13.33.91,19.86,2.29,1.64.35,2.9,1.68,3.13,3.35.24,1.66-.59,3.3-2.07,4.09l-19.98,10.71c-.82.44-1.7.65-2.58.65ZM316.83,47.38l1.4,2.62,7.13-3.82c-1.88-.17-3.77-.28-5.65-.34l-2.88,1.54Z"/>
      </g>
      <g>
        <path class="cls-2" d="M352.63,68.42l-210.13,112.64c-14.52,7.79-32.26,6.37-45.37-3.62l-3.37-2.57-46.12-35.18c-2.69-2.06-2.36-6.21.62-7.81l12.06-6.46c1.37-.73,3.02-.73,4.39,0l43.38,14.01,159.07-85.27c15.95-8.55,33.73-12.74,51.59-12.34,6.39.13,12.79.87,19.12,2.2.28.05.57.11.85.18l10.85,2.37c2.9.64,5.16,2.16,6.72,4.14,4.19,5.31,3.35,13.95-3.67,17.72Z"/>
        <path class="cls-3" d="M352.63,68.42l-210.13,112.64c-14.52,7.79-32.26,6.37-45.37-3.62l-3.37-2.57,11.93,3.31c9.06,2.52,18.75,1.44,27.05-3l209.92-112.53c5.41-2.9,10.08-7,13.64-11.95,4.19,5.31,3.35,13.95-3.67,17.72Z"/>
        <polygon class="cls-3" points="295.75 98.91 232.16 133 224.8 119.27 275.4 95.22 295.75 98.91"/>
        <path class="cls-2" d="M276.19,98.63l-56.65,87.99c-.61,1.36-1.95,2.68-3.63,3.58l-26.51,14.21c-4,2.15-8.02,1.05-7.55-2.05l31.8-74.66c.25-1.67,1.8-3.49,3.96-4.65l51.36-27.53c4.6-2.47,8.91-.61,7.22,3.12Z"/>
        <path class="cls-2" d="M276.19,98.63l-56.65,87.99c-.62,1.36-1.95,2.67-3.64,3.58l-26.51,14.21c-4.01,2.15-8.01,1.06-7.54-2.05l.27-1.81,31.52-72.86c.25-1.68,1.8-3.49,3.95-4.65l51.36-27.53c1.23-.66,2.44-1.01,3.52-1.1,2.95-.24,4.93,1.49,3.7,4.22Z"/>
        <path class="cls-3" d="M276.19,98.63l-56.65,87.99c-.62,1.36-1.95,2.67-3.64,3.58l-26.51,14.21c-4.01,2.15-8.01,1.06-7.54-2.05l.27-1.81c1.24.86,3.62,1.73,7.25-.22,5.65-3.03,24.5-13.14,24.5-13.14l58.6-92.77c2.95-.24,4.93,1.49,3.7,4.22Z"/>
        <path class="cls-2" d="M130.88,156.33l-35.45,47.45c-.37.89-1.21,1.73-2.27,2.3l-16.74,8.98c-2.53,1.36-5.11.58-4.85-1.45l19.75-39.03c.14-1.1,1.1-2.27,2.46-3l32.44-17.39c2.91-1.56,5.68-.28,4.66,2.15Z"/>
        <path class="cls-2" d="M130.88,156.33l-35.45,47.45c-.38.89-1.21,1.73-2.28,2.3l-16.74,8.98c-2.53,1.36-5.11.58-4.85-1.45l.15-1.19,19.6-37.85c.14-1.1,1.1-2.27,2.46-3l32.44-17.39c.78-.42,1.54-.63,2.24-.67,1.88-.12,3.17,1.05,2.42,2.82Z"/>
        <path class="cls-3" d="M114.45,169.97l-24.7,34.09s-9.83,6.39-13.4,8.31c-2.29,1.23-3.83.63-4.63.04l-.15,1.19c-.26,2.03,2.32,2.81,4.85,1.45l16.74-8.98c1.06-.57,1.9-1.42,2.28-2.3l23.32-31.22c.99-1.32.16-3.24-1.48-3.38-.32-.03-.63-.05-.95-.08-.73-.06-1.44.28-1.87.88Z"/>
        <path class="cls-9" d="M285.58,59.6l8.67-4.65c.54-.29,1.28.06,1.67.78l3.79,7.07c.38.72.26,1.53-.27,1.82l-8.67,4.65c-.54.29-1.28-.06-1.67-.78l-3.79-7.07c-.38-.72-.26-1.53.27-1.82Z"/>
        <path class="cls-9" d="M239.02,84.55l8.67-4.65c.54-.29,1.28.06,1.67.78l3.79,7.07c.38.72.26,1.53-.27,1.82l-8.67,4.65c-.54.29-1.28-.06-1.67-.78l-3.79-7.07c-.38-.72-.26-1.53.27-1.82Z"/>
        <path class="cls-9" d="M224.27,92.46l8.67-4.65c.54-.29,1.28.06,1.67.78l3.79,7.07c.38.72.26,1.53-.27,1.82l-8.67,4.65c-.54.29-1.28-.06-1.67-.78l-3.79-7.07c-.38-.72-.26-1.53.27-1.82Z"/>
        <path class="cls-9" d="M209.52,100.37l8.67-4.65c.54-.29,1.28.06,1.67.78l3.79,7.07c.38.72.26,1.53-.27,1.82l-8.67,4.65c-.54.29-1.28-.06-1.67-.78l-3.79-7.07c-.38-.72-.26-1.53.27-1.82Z"/>
        <path class="cls-9" d="M194.77,108.28l8.67-4.65c.54-.29,1.28.06,1.67.78l3.79,7.07c.38.72.26,1.53-.27,1.82l-8.67,4.65c-.54.29-1.28-.06-1.67-.78l-3.79-7.07c-.38-.72-.26-1.53.27-1.82Z"/>
        <path class="cls-9" d="M180.02,116.18l8.67-4.65c.54-.29,1.28.06,1.67.78l3.79,7.07c.38.72.26,1.53-.27,1.82l-8.67,4.65c-.54.29-1.28-.06-1.67-.78l-3.79-7.07c-.38-.72-.26-1.53.27-1.82Z"/>
        <path class="cls-9" d="M165.27,124.09l8.67-4.65c.54-.29,1.28.06,1.67.78l3.79,7.07c.38.72.26,1.53-.27,1.82l-8.67,4.65c-.54.29-1.28-.06-1.67-.78l-3.79-7.07c-.38-.72-.26-1.53.27-1.82Z"/>
        <path class="cls-9" d="M309.14,48.63l3.79,7.07c.38.72.26,1.53-.27,1.82l-8.67,4.65c-.54.29-1.28-.06-1.67-.78l-3.79-7.07c-.38-.72-.26-1.53.27-1.82l8.67-4.65c.54-.29,1.28.06,1.67.78Z"/>
        <path class="cls-9" d="M337.88,44.01l-19.98,10.71c-.72.38-1.61.11-1.99-.6l-3.79-7.07c-.38-.72-.11-1.61.6-1.99l6.04-3.24c6.39.13,12.79.87,19.12,2.2Z"/>
      </g>
    </g>
    <path class="cls-5" d="M158.78,81.4c-8.05,6.17-18.68,8.29-28.79,7.47-10.12-.82-19.82-4.36-29.03-8.6,2.9,9.47-2.79,19.93-11.02,25.44-1.08.72-2.19,1.38-3.33,1.97h-28.98l-36.28-.99c3.42-10.12,11.5-18.56,21.46-22.43,9.96-3.86,21.62-3.08,30.97,2.08-4.49-11.78,1.46-26.53,12.86-31.89,11.41-5.36,26.56-.53,32.76,10.44,1.23-15.43,12.5-29.42,27.11-34.52,3.49-1.22,7.14-1.94,10.82-2.18,7.76,5.39,13.15,14.19,14.16,23.61,1.2,11.16-3.79,22.78-12.71,29.6Z"/>
  </g>
  <g class="cls-6">
    <rect class="cls-4" y=".5" width="400" height="256"/>
  </g>
</svg>