<?xml version="1.0" encoding="UTF-8"?>
<svg id="Image_Expanded" xmlns="http://www.w3.org/2000/svg" viewBox="0 0 400 256">
  <defs>
    <style>
      .cls-1 {
        fill: #fff;
      }

      .cls-2 {
        fill: #f43f3f;
      }

      .cls-3 {
        opacity: 0;
      }

      .cls-4 {
        fill: #333;
      }

      .cls-5 {
        fill: #ff7d63;
      }
    </style>
  </defs>
  <path class="cls-1" d="M57.38,167c1.93,0,1.93-3,0-3s-1.93,3,0,3h0Z"/>
  <g>
    <rect class="cls-2" x="147.75" y="25.26" width="104.51" height="204.45" rx="12.98" ry="12.98"/>
    <polygon class="cls-5" points="252.25 109.18 147.75 177.86 147.75 106.37 252.25 37.68 252.25 109.18"/>
    <polygon class="cls-5" points="252.25 140.35 147.75 209.04 147.75 191.93 252.25 123.25 252.25 140.35"/>
    <path class="cls-4" d="M239.28,232.71h-78.55c-8.81,0-15.98-7.17-15.98-15.98V38.24c0-8.81,7.17-15.98,15.98-15.98h78.55c8.81,0,15.98,7.17,15.98,15.98v178.49c0,8.81-7.17,15.98-15.98,15.98ZM160.72,28.26c-5.5,0-9.98,4.48-9.98,9.98v178.49c0,5.5,4.48,9.98,9.98,9.98h78.55c5.5,0,9.98-4.48,9.98-9.98V38.24c0-5.5-4.48-9.98-9.98-9.98h-78.55Z"/>
    <path class="cls-4" d="M210.39,37.68h-20.78c-1.93,0-3.64-1.23-4.26-3.05l-3.5-10.34h36.29l-3.5,10.34c-.62,1.82-2.33,3.05-4.26,3.05Z"/>
    <g>
      <path class="cls-1" d="M165.73,152.86c0-.76.14-1.46.42-2.11.28-.65.7-1.21,1.25-1.69.55-.47,1.24-.84,2.06-1.11.82-.27,1.77-.4,2.85-.4.54,0,1.03.03,1.48.1s.84.15,1.19.26c.35.11.65.23.9.37s.44.28.58.41c.19.19.32.38.39.56.07.18.1.39.1.62,0,.4-.12.71-.35.93s-.54.33-.9.33c-.22,0-.42-.04-.62-.12s-.42-.17-.68-.26c-.26-.1-.56-.18-.92-.26-.36-.08-.8-.12-1.32-.12-.48,0-.89.05-1.24.15-.35.1-.64.24-.87.43-.23.18-.4.4-.51.66-.11.25-.16.53-.16.83,0,.44.12.8.35,1.09.24.29.55.54.94.75.39.21.84.4,1.33.56.5.17,1,.34,1.52.54s1.02.42,1.52.67c.5.26.94.58,1.33.97.39.39.71.86.94,1.42s.35,1.23.35,2.02-.15,1.56-.44,2.24c-.29.68-.73,1.27-1.3,1.77-.58.5-1.29.88-2.16,1.16-.86.28-1.87.42-3.01.42-.61,0-1.16-.04-1.65-.11-.49-.07-.93-.17-1.3-.28-.38-.11-.69-.24-.95-.38-.26-.14-.45-.27-.58-.4-.18-.18-.31-.37-.39-.55s-.12-.4-.12-.65c0-.41.12-.72.35-.95.24-.22.54-.33.9-.33.22,0,.42.04.62.13.2.09.43.18.71.28.28.1.62.19,1.03.28.4.09.92.13,1.55.13.53,0,.99-.06,1.38-.18.39-.12.71-.28.96-.48.25-.2.44-.45.57-.74s.19-.6.19-.94c0-.47-.12-.86-.35-1.17-.24-.31-.55-.58-.93-.8s-.83-.43-1.33-.6c-.5-.17-1-.36-1.52-.56-.52-.2-1.03-.42-1.52-.66-.5-.24-.94-.55-1.33-.93-.39-.37-.7-.83-.93-1.36-.23-.53-.35-1.18-.35-1.93Z"/>
      <path class="cls-1" d="M180.06,157.41c0-1.52.21-2.89.63-4.11s1.02-2.25,1.79-3.1c.77-.85,1.69-1.5,2.76-1.95,1.07-.45,2.25-.68,3.55-.68.55,0,1.05.04,1.5.12.45.08.85.19,1.2.31.35.12.64.26.88.4s.42.29.56.42c.19.19.33.39.4.58.08.2.12.42.12.69,0,.19-.03.37-.09.52-.06.16-.15.29-.26.41-.11.11-.25.2-.4.27-.15.07-.32.1-.5.1-.2,0-.39-.05-.58-.14-.19-.1-.41-.2-.66-.31s-.56-.21-.91-.31c-.36-.1-.8-.14-1.33-.14-.67,0-1.3.14-1.89.4-.59.27-1.11.68-1.56,1.22-.45.54-.8,1.22-1.07,2.04s-.39,1.77-.39,2.85c0,.98.13,1.85.38,2.61.25.76.61,1.39,1.06,1.91.45.51.99.9,1.61,1.17.62.27,1.3.4,2.04.4.52,0,.96-.05,1.33-.14.36-.09.67-.19.93-.3s.49-.21.68-.3c.19-.09.38-.14.57-.14.16,0,.3.03.44.09.13.06.25.15.35.25.1.11.17.24.23.39.06.15.08.31.08.48,0,.24-.04.45-.12.63s-.21.37-.39.54c-.16.16-.37.32-.65.48-.27.17-.61.32-1,.46-.39.14-.84.25-1.36.35s-1.09.14-1.72.14c-1.22,0-2.33-.2-3.34-.6-1.01-.4-1.87-.97-2.59-1.72s-1.28-1.65-1.67-2.71c-.4-1.06-.59-2.26-.59-3.59Z"/>
      <path class="cls-1" d="M198.53,164.27c-.1.3-.19.56-.27.76-.09.2-.2.37-.33.5-.12.12-.28.22-.47.29s-.41.11-.67.11c-.23,0-.45-.03-.67-.1s-.42-.17-.61-.3c-.18-.13-.33-.29-.44-.48-.11-.19-.17-.41-.17-.65,0-.14.02-.28.06-.42.04-.14.11-.35.2-.64l4.58-13.18c.08-.21.15-.4.22-.57.07-.17.14-.32.22-.46.08-.14.16-.27.24-.38s.18-.22.28-.33c.23-.23.51-.4.84-.52s.75-.18,1.25-.18.91.06,1.25.18.62.29.84.52c.1.1.2.21.28.33s.16.24.24.38c.08.14.15.29.22.46.07.17.14.36.22.57l4.6,13.12c.1.3.17.51.2.65.03.14.05.27.05.39,0,.27-.06.51-.18.71-.12.2-.28.37-.47.5-.19.13-.4.24-.64.31-.23.07-.47.1-.69.1-.25,0-.48-.04-.68-.12-.2-.08-.37-.19-.51-.33-.13-.13-.24-.29-.32-.48s-.17-.44-.27-.73l-.93-2.7h-6.61l-.87,2.69ZM205.15,158.79l-1.71-5.15c-.12-.36-.23-.69-.33-1-.1-.31-.18-.59-.25-.83-.09-.28-.16-.54-.22-.78h-.05c-.06.24-.13.51-.21.78-.07.24-.15.52-.23.83-.09.31-.19.64-.3,1l-1.63,5.15h4.94Z"/>
      <path class="cls-1" d="M214.2,150.2c.04-.42.12-.77.24-1.06s.28-.54.48-.74c.21-.21.49-.37.84-.5s.79-.18,1.3-.18c.44,0,.81.05,1.12.14s.58.24.81.43.41.42.57.7c.15.27.28.59.38.93l2.93,9.69c.1.32.18.63.26.93s.14.56.2.79c.06.27.12.52.17.76h.05c.05-.24.11-.49.17-.76.05-.23.12-.49.19-.78s.16-.61.25-.93l2.94-9.69c.1-.36.23-.67.38-.95.15-.27.34-.51.57-.7.23-.19.49-.33.8-.43s.68-.14,1.12-.14c.5,0,.91.06,1.25.18.34.12.61.28.82.49.21.21.37.46.48.75s.19.65.24,1.06l1.44,13.55c.02.17.03.32.04.42s.01.21.01.31c0,.22-.05.42-.15.59-.1.18-.24.33-.41.46s-.37.23-.6.3c-.23.07-.48.1-.75.1s-.51-.04-.75-.12c-.24-.08-.43-.2-.58-.35-.17-.17-.29-.38-.33-.62s-.08-.51-.11-.82l-.87-9.84c-.04-.36-.06-.7-.07-1.03,0-.33-.01-.62-.01-.87,0-.3,0-.57.01-.84h-.05l-3.66,12.18c-.12.39-.25.73-.38,1.02-.13.29-.28.52-.46.69-.2.2-.44.34-.71.42-.27.08-.6.12-.97.12s-.71-.04-.99-.12c-.28-.08-.52-.22-.72-.42-.17-.17-.33-.41-.45-.7-.13-.29-.25-.63-.37-1.01l-3.67-12.19h-.05c0,.26,0,.54-.01.82,0,.25-.02.54-.04.87-.02.33-.04.67-.06,1.04l-.8,9.85c-.03.31-.06.58-.11.82-.05.24-.16.45-.35.63-.15.15-.33.26-.56.34-.22.08-.46.12-.71.12s-.48-.03-.7-.1c-.22-.07-.42-.16-.58-.27-.17-.12-.3-.26-.39-.44-.1-.17-.14-.37-.14-.59,0-.1,0-.21.02-.33.01-.11.03-.26.05-.44l1.43-13.57Z"/>
    </g>
    <path class="cls-1" d="M225.18,131.7h-50.36c-2.11,0-4-1.09-5.06-2.92-1.06-1.83-1.06-4.01,0-5.84l25.18-43.61c1.06-1.83,2.95-2.92,5.06-2.92s4,1.09,5.06,2.92l25.18,43.61c1.06,1.83,1.06,4.01,0,5.84-1.06,1.83-2.95,2.92-5.06,2.92ZM200,80.4c-.32,0-1.11.09-1.59.92l-25.18,43.61c-.48.83-.16,1.56,0,1.84.16.28.64.92,1.59.92h50.36c.96,0,1.44-.64,1.59-.92.16-.28.48-1.01,0-1.84l-25.18-43.61c-.48-.83-1.27-.92-1.59-.92Z"/>
    <path class="cls-1" d="M197.26,118.73c0-.38.07-.74.21-1.06s.33-.61.58-.85.54-.43.88-.56.7-.2,1.09-.2.77.06,1.1.19.62.31.85.54.43.5.56.82.2.67.2,1.05-.07.73-.21,1.05-.33.6-.58.84-.54.43-.88.56-.71.2-1.12.2-.77-.06-1.1-.19-.61-.31-.85-.54-.42-.5-.55-.81-.2-.66-.2-1.05ZM197.68,101.3c-.01-.3-.02-.56-.02-.79s-.01-.43-.02-.61-.01-.34-.02-.48,0-.28,0-.41c0-.24.04-.47.13-.69s.22-.4.42-.55.44-.28.74-.37.67-.14,1.09-.14.81.05,1.11.14.55.21.73.37.32.34.41.55.13.44.13.69v.41c0,.14,0,.3,0,.48s-.01.38-.02.61-.01.49-.02.79l-.37,11.42c-.02.45-.19.81-.51,1.09s-.8.42-1.45.42-1.12-.14-1.45-.42-.49-.64-.5-1.09l-.37-11.42Z"/>
    <g>
      <path class="cls-1" d="M168.69,187.53c-.09.28-.17.52-.26.71s-.18.35-.31.47c-.11.11-.26.21-.44.27s-.39.1-.62.1c-.21,0-.42-.03-.63-.1s-.4-.16-.57-.28-.31-.27-.42-.45-.16-.38-.16-.61c0-.13.02-.26.05-.39s.1-.33.19-.6l4.28-12.32c.07-.2.14-.37.21-.53s.13-.3.21-.43.15-.25.23-.35.16-.21.26-.31c.21-.21.47-.37.79-.48s.7-.16,1.17-.16.85.05,1.17.16.58.27.79.48c.1.1.19.2.26.31s.15.22.23.35.14.27.21.43.13.34.21.53l4.31,12.26c.1.28.16.48.19.61s.04.25.04.37c0,.25-.06.47-.17.66s-.26.34-.44.47-.38.22-.6.29-.44.1-.65.1c-.24,0-.45-.04-.63-.11s-.35-.17-.48-.31c-.12-.12-.22-.27-.3-.45s-.16-.41-.25-.68l-.87-2.53h-6.18l-.82,2.51ZM174.88,182.41l-1.6-4.81c-.11-.33-.22-.64-.31-.93s-.17-.55-.23-.78c-.08-.26-.15-.5-.21-.73h-.05c-.06.23-.12.47-.2.73-.07.23-.14.49-.22.78s-.17.6-.28.93l-1.52,4.81h4.61Z"/>
      <path class="cls-1" d="M191.42,186.23c.37,0,.66.11.87.34s.32.57.32,1.03-.11.81-.32,1.03-.5.34-.88.34h-7.29c-.5,0-.88-.14-1.15-.41s-.4-.65-.4-1.14v-13.86c0-.48.14-.85.42-1.11s.7-.39,1.28-.39,1.02.13,1.29.39.42.63.42,1.11v12.67h5.43Z"/>
      <path class="cls-1" d="M198.28,186.32h5.74c.35,0,.63.11.84.34s.31.56.31.99-.1.77-.31.99-.49.33-.84.33h-7.59c-.5,0-.88-.14-1.15-.41s-.4-.65-.4-1.14v-13.72c0-.49.13-.87.4-1.14s.65-.41,1.15-.41h7.53c.36,0,.64.11.85.33s.31.55.31.99-.1.77-.31.99-.49.34-.85.34h-5.68v4.28h4.85c.34,0,.62.11.82.33s.31.55.31.98-.1.74-.31.96-.48.33-.82.33h-4.85v4.64Z"/>
      <path class="cls-1" d="M211.48,187.55c0,.48-.14.85-.41,1.11s-.69.39-1.26.39-1-.13-1.27-.39-.4-.63-.4-1.11v-13.86c0-.49.13-.87.4-1.14s.65-.41,1.15-.41h3.59c1.15,0,2.14.12,2.97.35s1.52.57,2.06.99.94.93,1.2,1.52.38,1.22.38,1.92c0,.58-.08,1.11-.24,1.6s-.39.93-.68,1.32-.65.73-1.06,1.01-.87.51-1.38.68l3.15,4.85c.14.21.24.39.3.55s.09.32.09.49c0,.24-.05.45-.16.65s-.25.37-.43.52-.38.27-.62.35-.47.13-.7.13-.44-.04-.62-.12-.33-.18-.46-.31c-.05-.05-.1-.1-.14-.15s-.09-.1-.12-.16-.08-.12-.12-.18-.09-.14-.13-.22l-3.39-5.73h-1.68v5.32ZM213.2,179.64c.55,0,1.02-.06,1.43-.18s.74-.29,1.01-.51.47-.48.6-.79.2-.65.2-1.01-.06-.7-.18-.99-.32-.55-.58-.76-.61-.37-1.03-.48-.94-.17-1.54-.17h-1.62v4.91h1.72Z"/>
      <path class="cls-1" d="M221.99,174.88c-.37,0-.66-.11-.87-.34s-.32-.57-.32-1.03.11-.81.32-1.03.5-.34.87-.34h11.09c.37,0,.66.11.87.34s.32.57.32,1.03-.11.81-.32,1.03-.5.34-.87.34h-3.85v12.67c0,.48-.14.85-.42,1.11-.28.26-.71.39-1.29.39s-1.01-.13-1.29-.39c-.28-.26-.42-.63-.42-1.11v-12.67h-3.85Z"/>
    </g>
  </g>
  <g class="cls-3">
    <rect class="cls-2" width="400" height="256"/>
  </g>
</svg>