<?xml version="1.0" encoding="UTF-8"?>
<svg id="Image_Expanded" xmlns="http://www.w3.org/2000/svg" viewBox="0 0 400 256">
  <defs>
    <style>
      .cls-1 {
        fill: #4d4d4d;
      }

      .cls-2 {
        fill: #fff;
      }

      .cls-3 {
        fill: #f43f3f;
      }

      .cls-4 {
        fill: #666;
      }

      .cls-5 {
        opacity: 0;
      }

      .cls-6 {
        fill: #333;
      }

      .cls-7 {
        fill: #999;
      }

      .cls-8 {
        fill: gray;
      }
    </style>
  </defs>
  <g>
    <path class="cls-8" d="M272.58,213.64c-3.29,4.8-8.54,7.85-13.7,10.46-25.42,12.86-53.82,19.05-81.51,18.09-9.35-.32-18.62-1.46-27.66-3.43-12.16-2.65-26.52-9.11-30.44-21.98-.62-2.02-.95-4.24-.29-6.32,1.31-4.11,5.81-6.24,9.69-8.16,8.46-4.17,9.15-8.08,4.11-14.4-2.39-3-4.29-6.25-5.82-9.68-1.76-3.9-3.03-8.03-4-12.27-3.55-15.44-3.28-31.05-.38-46.55,2.51-13.42,2.98-25.4,8.91-38.3,4.16-9.03,9.82-17.49,16.76-24.71,20.03-20.82,44.29-36.43,71.88-44.36,2.32-.67,5.02-1.11,7.37-.84h.02c.81.1,1.59.29,2.28.58,1.27.52,2.28,1.4,2.85,2.75,1.24,2.95-.55,6.41-.78,9.69-.31,4.41,2.2,8.29,4.6,11.82,10.23,15,23.27,29.94,31.48,46.19,7.35,14.52,9.2,29.56,12.4,45.31,3.02,14.85-.67,31.48-10.49,43.96-2.92,3.7-6.43,7.26-7.56,11.76-3.32,13.13,21.39,14.2,10.28,30.39Z"/>
    <path class="cls-4" d="M127,215.31c-.33,0-.65-.16-.84-.46-.3-.47-.16-1.08.31-1.38,5.62-3.58,9.15-10.19,9-16.85-.01-.55.42-1.01.98-1.02,0,0,.02,0,.02,0,.54,0,.99.43,1,.98.17,7.35-3.73,14.64-9.93,18.59-.17.11-.35.16-.54.16Z"/>
    <path class="cls-4" d="M193.31,237.38c-.11,0-.21-.02-.32-.05-.52-.18-.8-.75-.63-1.27,5.92-17.41,6.73-36.83,2.29-54.67-.13-.54.19-1.08.73-1.21.54-.13,1.08.19,1.21.73,4.53,18.21,3.71,38.03-2.33,55.8-.14.42-.53.68-.95.68Z"/>
    <path class="cls-4" d="M135.29,235.45c-.24,0-.47-.08-.66-.25-.41-.37-.45-1-.09-1.41,7.02-7.94,11.91-17.61,14.13-27.97.12-.54.64-.89,1.19-.77.54.12.88.65.77,1.19-2.29,10.7-7.34,20.68-14.59,28.88-.2.22-.47.34-.75.34Z"/>
    <path class="cls-4" d="M149.35,198.42c-.41,0-.79-.25-.94-.65-8.47-22.98-8.44-49.32.1-72.27.19-.52.77-.78,1.29-.59.52.19.78.77.59,1.29-8.38,22.51-8.42,48.35-.1,70.88.19.52-.07,1.09-.59,1.28-.11.04-.23.06-.35.06Z"/>
    <path class="cls-4" d="M154.31,107.31c-.08,0-.16,0-.24-.03-.54-.13-.87-.67-.74-1.21,5.92-24.29,16.93-47.75,31.82-67.84.33-.44.96-.54,1.4-.21.44.33.54.96.21,1.4-14.74,19.87-25.63,43.08-31.49,67.12-.11.46-.52.76-.97.76Z"/>
    <path class="cls-4" d="M188.91,101.48c-.51,0-.95-.39-1-.92-1.03-12.27.17-24.5,3.57-36.33.15-.53.71-.84,1.24-.69.53.15.84.71.68,1.24-3.33,11.6-4.51,23.58-3.5,35.61.05.55-.36,1.03-.91,1.08-.03,0-.06,0-.08,0Z"/>
    <path class="cls-4" d="M194.14,144.86c-.43,0-.83-.29-.96-.73-2.17-7.61-3.7-15.46-4.53-23.33-.06-.55.34-1.04.89-1.1.55-.05,1.04.34,1.1.89.82,7.76,2.32,15.49,4.47,23,.15.53-.16,1.08-.69,1.24-.09.03-.18.04-.28.04Z"/>
    <path class="cls-4" d="M160.23,240.45c-.19,0-.39-.06-.56-.17-.46-.31-.58-.93-.27-1.39,5.79-8.58,9.8-18.49,11.6-28.68.1-.54.6-.91,1.16-.81.54.1.91.61.81,1.16-1.84,10.46-5.96,20.65-11.91,29.46-.19.29-.51.44-.83.44Z"/>
    <path class="cls-4" d="M174.22,200.08c-.15,0-.3-.03-.44-.1-.5-.24-.7-.84-.46-1.34,1.42-2.92,1.54-6.65.36-11.39-.34-1.37-.76-2.75-1.16-4.09-.78-2.57-1.58-5.22-1.91-7.97-.07-.55.33-1.05.87-1.11.57-.07,1.05.33,1.11.87.31,2.57,1.08,5.14,1.84,7.62.41,1.36.84,2.77,1.19,4.19,1.3,5.22,1.14,9.39-.5,12.75-.17.36-.53.56-.9.56Z"/>
    <path class="cls-4" d="M169.42,150.59c-.51,0-.95-.39-1-.92-.73-8.7-.37-17.48,1.09-26.08.09-.54.61-.91,1.15-.82.54.09.91.61.82,1.15-1.43,8.44-1.79,17.05-1.07,25.58.05.55-.36,1.03-.91,1.08-.03,0-.06,0-.08,0Z"/>
    <path class="cls-1" d="M159.04,202.69s-.02,0-.03,0c-8.46-.26-16.74-2.74-23.95-7.17-.47-.29-.62-.9-.33-1.38.29-.47.91-.62,1.38-.33,6.91,4.24,14.86,6.62,22.97,6.87.55.02.99.48.97,1.03-.02.54-.46.97-1,.97Z"/>
    <path class="cls-7" d="M227.5,11.19l-4.85.62c-26.25,14.53-53.37,29.82-70.95,54.13-11.83,16.35-18.61,35.98-21.61,55.93s-2.35,40.3-.32,60.37c-.94-1.34-1.88-2.68-2.81-4.02-1.76-3.9-3.03-8.03-4-12.27-3.55-15.44-3.28-31.05-.38-46.55,2.51-13.42,2.98-25.4,8.91-38.3,4.16-9.03,9.82-17.49,16.76-24.71,20.03-20.82,44.29-36.43,71.88-44.36,2.32-.67,5.02-1.11,7.37-.84Z"/>
    <path class="cls-4" d="M132.26,187.71c-.42,0-.81-.26-.95-.68-4.5-13.43-5.72-27.92-3.53-41.92.08-.55.6-.92,1.14-.83.55.08.92.6.83,1.14-2.14,13.68-.94,27.84,3.45,40.97.18.52-.11,1.09-.63,1.27-.11.04-.21.05-.32.05Z"/>
    <path class="cls-4" d="M272.58,213.64c-3.29,4.8-8.54,7.85-13.7,10.46-7.88,3.99-16.08,7.35-24.49,10.05-4.18,1.35-8.41,2.53-12.68,3.55-2.06.49-4.12.93-6.19,1.35-.62.13-4.4.69-4.72,1.21,4.33-7.05,6.59-15.33,6.58-23.59,0-7.54-3.85-16.68-.22-23.83,1.83-3.6,5.48-5.87,8.02-9.01,5.6-6.9,5.06-17.13,1.58-25.3-3.49-8.18-9.42-15.01-14.27-22.46-12.68-19.43-17.92-43.58-14.45-66.51,3.37-22.19,14.86-43.05,31.77-57.79,1.27.52,2.28,1.4,2.85,2.75,1.24,2.95-.55,6.41-.78,9.69-.31,4.41,2.2,8.29,4.6,11.82,10.23,15,23.27,29.94,31.48,46.19,7.35,14.52,9.2,29.56,12.4,45.31,3.02,14.85-.67,31.48-10.49,43.96-2.92,3.7-6.43,7.26-7.56,11.76-3.32,13.13,21.39,14.2,10.28,30.39Z"/>
    <path class="cls-1" d="M256.75,227.1c-.17,0-.34-.04-.49-.13-.48-.27-.65-.88-.37-1.36,4.55-7.98,5.77-17.64,3.36-26.5-.15-.53.17-1.08.7-1.23.53-.14,1.08.17,1.23.7,2.55,9.37,1.25,19.58-3.55,28.02-.18.32-.52.5-.87.5Z"/>
    <path class="cls-1" d="M280.55,133.8c-.51,0-.95-.39-1-.91-.69-7.71-4.87-14.61-8.44-19.76-1.21-1.75-2.5-3.51-3.75-5.2-3.1-4.22-6.3-8.59-8.71-13.37-4.95-9.79-6.45-21.1-4.24-31.84.11-.54.64-.89,1.18-.78.54.11.89.64.78,1.18-2.12,10.3-.68,21.15,4.06,30.54,2.34,4.63,5.49,8.93,8.54,13.09,1.25,1.71,2.55,3.48,3.78,5.25,3.71,5.35,8.06,12.54,8.79,20.72.05.55-.36,1.04-.91,1.08-.03,0-.06,0-.09,0Z"/>
    <path class="cls-1" d="M239.03,75.07c-.53,0-.97-.42-1-.95-.41-8.76,1.16-17.66,4.53-25.75.21-.51.8-.75,1.31-.54.51.21.75.8.54,1.31-3.26,7.82-4.78,16.42-4.38,24.88.03.55-.4,1.02-.95,1.05-.02,0-.03,0-.05,0Z"/>
    <path class="cls-1" d="M266.24,175.79c-.2,0-.41-.06-.59-.19-.45-.33-.54-.95-.22-1.4,7.46-10.24,5.66-23.92,1.47-33.31-4.87-10.93-13.34-19.68-21.53-28.15-.38-.4-.37-1.03.02-1.41.4-.38,1.03-.37,1.41.02,7.93,8.19,16.91,17.47,21.92,28.72,4.41,9.9,6.29,24.37-1.68,35.3-.2.27-.5.41-.81.41Z"/>
    <path class="cls-1" d="M219.08,79.31c-.5,0-.93-.37-.99-.88-2.57-20.49,2.03-41.43,12.95-58.97.29-.47.91-.61,1.38-.32.47.29.61.91.32,1.38-10.68,17.14-15.18,37.62-12.66,57.66.07.55-.32,1.05-.87,1.12-.04,0-.08,0-.12,0Z"/>
    <path class="cls-6" d="M182.7,244.24c-11.33,0-22.56-1.16-33.41-3.53-7.99-1.74-27.09-7.5-31.93-23.35-.88-2.88-.97-5.34-.28-7.52,1.54-4.83,6.48-7.26,10.44-9.21l.27-.13c3.72-1.84,5.71-3.54,6.09-5.21.33-1.48-.54-3.49-2.66-6.15-4.71-5.91-8.05-13.35-10.21-22.75-3.38-14.74-3.52-30.68-.4-47.37.63-3.38,1.14-6.72,1.63-9.94,1.49-9.75,2.89-18.95,7.43-28.82h0c4.36-9.47,10.12-17.97,17.13-25.26,21.15-22,45.63-37.1,72.76-44.9,7.48-2.15,13.06-.79,14.92,3.63,1.07,2.54.46,5.18-.07,7.52-.25,1.09-.49,2.13-.55,3.09-.25,3.6,1.78,6.91,4.26,10.55,3.36,4.92,7.11,9.96,10.74,14.83,7.52,10.1,15.3,20.55,20.88,31.58,6.16,12.18,8.49,24.46,10.95,37.46.52,2.76,1.05,5.54,1.62,8.35,3.21,15.82-.85,32.87-10.88,45.6-.55.69-1.11,1.38-1.68,2.07-2.41,2.93-4.69,5.7-5.51,8.94-1.08,4.28,1.49,6.88,5.84,10.66,5.07,4.39,11.37,9.85,4.15,20.38-3.52,5.13-9.02,8.37-14.44,11.11-23.89,12.08-50.76,18.36-77.09,18.36ZM133.31,81.94h0c-4.31,9.36-5.67,18.3-7.11,27.76-.5,3.26-1.01,6.62-1.66,10.07-3.02,16.15-2.9,31.54.36,45.74,2.05,8.93,5.05,15.65,9.44,21.15,1.87,2.34,4.25,5.87,3.44,9.51-.67,3.01-3.21,5.45-8.22,7.92l-.27.13c-3.63,1.79-7.38,3.64-8.4,6.84-.44,1.38-.34,3.06.29,5.13,4.22,13.83,21.66,19.02,28.96,20.61,35.17,7.66,74.48,2.38,107.84-14.49,4.95-2.5,9.94-5.42,12.95-9.81,5.21-7.59,1.57-10.73-3.46-15.09-4.16-3.6-8.87-7.68-7.1-14.66,1.04-4.11,3.71-7.36,6.3-10.5.55-.67,1.1-1.33,1.63-2,9.31-11.82,13.09-27.64,10.1-42.33-.57-2.82-1.1-5.62-1.63-8.4-2.41-12.72-4.68-24.73-10.59-36.4-5.42-10.72-13.09-21.03-20.51-30.99-3.65-4.91-7.43-9.98-10.83-14.97-2.24-3.29-5.32-7.8-4.95-13.08.09-1.27.37-2.51.64-3.7.44-1.92.85-3.73.28-5.08-1.52-3.61-8.7-1.75-10.12-1.34-26.45,7.6-50.33,22.35-70.99,43.83-6.7,6.97-12.21,15.1-16.38,24.16Z"/>
    <g>
      <path class="cls-2" d="M189.44,99.37c-7.73,9.78-11.33,21.11,5.5,22.05,9.89.56,19.89-.98,29.16-4.46,5.69-2.14,11.25-5.14,15.09-9.85,5.91-7.25,5.17-20.34-3.39-25.53s-24.07.1-32.05,4.7c-4.07,2.35-9.88,7.46-14.32,13.08Z"/>
      <path class="cls-6" d="M198.87,123.54c-1.35,0-2.7-.04-4.04-.11-6.95-.39-11.35-2.54-13.09-6.39-2.64-5.87,1.87-13.52,6.13-18.9h0c4.33-5.48,10.31-10.94,14.89-13.58,7.41-4.27,24.06-10.74,34.08-4.68,4.17,2.52,6.97,6.83,7.89,12.13,1.01,5.84-.52,12.12-3.98,16.37-3.53,4.32-8.74,7.74-15.94,10.45-8.23,3.1-17.12,4.7-25.93,4.7ZM226.82,81.43c-7.59,0-16.7,3.5-22.07,6.59-4.11,2.37-9.76,7.55-13.75,12.59h0c-4.97,6.29-7.01,11.67-5.62,14.78,1.33,2.96,5.99,3.83,9.67,4.04,9.57.54,19.37-.96,28.34-4.34,6.52-2.46,11.18-5.48,14.25-9.24,2.76-3.38,3.96-8.42,3.14-13.16-.72-4.14-2.85-7.48-6.02-9.39-2.2-1.33-4.95-1.87-7.95-1.87ZM189.44,99.37h0,0Z"/>
    </g>
    <path class="cls-1" d="M157,178.17c-1.55,0-3.04-.37-4.39-1.33-4.08-2.9-3.91-9.22-1.64-13.96h0c2.67-5.55,7.75-9.72,14.71-12.05,9.07-3.04,19.96-2.4,27.75,1.62,5.65,2.91,9.42,7.28,10.34,11.98.59,2.99-.26,6.39-2.23,8.88-1.62,2.05-3.79,3.23-6.11,3.32-2.43.1-4.95-.64-7.37-1.35-1.68-.5-3.41-1.01-5.06-1.21-4.06-.5-8.18-.42-12.25.24-1.69.27-3.55.99-5.52,1.74-2.66,1.02-5.54,2.12-8.23,2.12ZM151.87,163.32c-2.09,4.36-2.31,10.13,1.32,12.71,3.26,2.32,7.54.67,11.69-.91,2.02-.77,3.93-1.5,5.72-1.8,4.16-.68,8.38-.76,12.53-.25,1.73.21,3.5.74,5.22,1.24,2.34.69,4.77,1.41,7.04,1.31,2.03-.08,3.93-1.12,5.37-2.94,1.79-2.26,2.56-5.35,2.03-8.07-.87-4.4-4.45-8.51-9.82-11.28-7.56-3.9-18.15-4.51-26.98-1.56-4.67,1.56-10.91,4.84-14.12,11.54h0Z"/>
    <g>
      <path class="cls-2" d="M128.48,121.21c1.86,3.1,4.95,4.82,8.06,5.32,3.11.49,6.26-.12,9.32-.96,3.99-1.09,8.43-3.14,9.84-7.85,1.22-4.07-.36-8.63-2.53-12.05-3.81-6.03-12.83-14.06-19.38-10.12s-9.5,18.72-5.32,25.67Z"/>
      <path class="cls-6" d="M138.85,128.7c-.87,0-1.74-.06-2.62-.2-4-.63-7.45-2.92-9.46-6.26h0c-4.71-7.82-1.29-24.02,6-28.41,7.64-4.6,17.52,3.52,22.1,10.76,2.96,4.67,3.96,9.67,2.75,13.7-1.35,4.49-5.02,7.5-11.23,9.21-2.27.62-4.85,1.21-7.54,1.21ZM130.2,120.17c1.4,2.33,3.83,3.92,6.66,4.37,2.87.45,5.9-.21,8.48-.92,4.84-1.33,7.53-3.39,8.46-6.5,1.24-4.15-1.2-8.66-2.3-10.41-3.65-5.77-11.69-12.47-16.66-9.47-5.44,3.28-8.21,16.99-4.64,22.92h0Z"/>
    </g>
    <path class="cls-1" d="M189.44,99.37c-7.73,9.78-11.33,21.11,5.5,22.05,9.89.56,19.89-.98,29.16-4.46,5.69-2.14,11.25-5.14,15.09-9.85,5.91-7.25,5.17-20.34-3.39-25.53s-24.07.1-32.05,4.7c-4.07,2.35-9.88,7.46-14.32,13.08Z"/>
    <path class="cls-6" d="M198.87,123.54c-1.35,0-2.7-.04-4.04-.11-6.95-.39-11.35-2.54-13.09-6.39-2.64-5.87,1.87-13.52,6.13-18.9h0c4.33-5.48,10.31-10.94,14.89-13.58,7.41-4.27,24.06-10.74,34.08-4.68,4.17,2.52,6.97,6.83,7.89,12.13,1.01,5.84-.52,12.12-3.98,16.37-3.53,4.32-8.74,7.74-15.94,10.45-8.23,3.1-17.12,4.7-25.93,4.7ZM226.82,81.43c-7.59,0-16.7,3.5-22.07,6.59-4.11,2.37-9.76,7.55-13.75,12.59h0c-4.97,6.29-7.01,11.67-5.62,14.78,1.33,2.96,5.99,3.83,9.67,4.04,9.57.54,19.37-.96,28.34-4.34,6.52-2.46,11.18-5.48,14.25-9.24,2.76-3.38,3.96-8.42,3.14-13.16-.72-4.14-2.85-7.48-6.02-9.39-2.2-1.33-4.95-1.87-7.95-1.87ZM189.44,99.37h0,0Z"/>
    <path class="cls-1" d="M151.41,163.11c-2.11,4.39-2.49,10.51,1.48,13.33,5.09,3.62,12.3-1.73,17.78-2.62,4.09-.66,8.28-.75,12.39-.25s8.29,2.72,12.34,2.56c5.31-.21,8.89-6.39,7.87-11.6-1.03-5.21-5.36-9.19-10.08-11.63-12.91-6.66-34.98-3.95-41.78,10.21Z"/>
    <path class="cls-6" d="M156.98,179.69c-1.81,0-3.59-.44-5.25-1.62-4.98-3.54-4.59-10.69-2.12-15.83h0c2.85-5.93,8.23-10.36,15.58-12.82,9.43-3.16,20.78-2.49,28.92,1.7,6.06,3.12,10.11,7.87,11.13,13.02.67,3.41-.29,7.28-2.52,10.1-1.89,2.4-4.46,3.78-7.23,3.89-2.69.11-5.31-.67-7.85-1.42-1.69-.5-3.29-.97-4.82-1.16-3.92-.48-7.9-.4-11.83.24-1.54.25-3.33.94-5.23,1.66-2.81,1.08-5.85,2.24-8.79,2.24ZM153.22,163.97h0c-1.78,3.7-2.09,8.76.83,10.84,2.6,1.85,6.33.42,10.28-1.09,2-.77,4.07-1.56,6.02-1.88,4.3-.7,8.66-.79,12.96-.26,1.85.23,3.69.77,5.46,1.29,2.33.69,4.51,1.34,6.56,1.25,1.58-.06,3.09-.9,4.25-2.37,1.52-1.93,2.19-4.55,1.74-6.85-.78-3.95-4.07-7.68-9.04-10.24-7.22-3.73-17.36-4.3-25.81-1.47-4.39,1.47-10.26,4.54-13.25,10.76Z"/>
    <path class="cls-1" d="M155.71,117.71c-1.41,4.71-5.85,6.76-9.84,7.85-3.06.84-6.22,1.46-9.33.96-3.11-.49-6.19-2.22-8.06-5.31-.36-.61-.67-1.27-.93-1.98-2.69-7.47.39-20.16,6.25-23.69,6.55-3.95,15.57,4.09,19.38,10.12.77,1.21,1.46,2.55,1.98,3.97.96,2.6,1.34,5.44.55,8.08Z"/>
    <path class="cls-6" d="M138.85,128.7c-.87,0-1.74-.06-2.62-.2-4-.63-7.45-2.92-9.46-6.26h0c-4.71-7.82-1.29-24.02,6-28.41,7.64-4.6,17.52,3.52,22.1,10.76,2.96,4.67,3.96,9.67,2.75,13.7-1.35,4.49-5.02,7.5-11.23,9.21-2.27.62-4.85,1.21-7.54,1.21ZM130.2,120.17c1.4,2.33,3.83,3.92,6.66,4.37,2.87.45,5.9-.21,8.48-.92,4.84-1.33,7.53-3.39,8.46-6.5,1.24-4.15-1.2-8.66-2.3-10.41-3.65-5.77-11.69-12.47-16.66-9.47-5.44,3.28-8.21,16.99-4.64,22.92h0Z"/>
    <path class="cls-1" d="M182.64,204.68c-4.2,0-8.39-.14-12.58-.42-.55-.04-.97-.51-.93-1.06.04-.55.53-.97,1.07-.93,29.01,1.96,58.51-2.98,85.29-14.29.51-.21,1.09.02,1.31.53.21.51-.02,1.1-.53,1.31-23.21,9.8-48.43,14.87-73.63,14.87Z"/>
    <path class="cls-1" d="M224.96,185.63c-.25,0-.49-.09-.68-.27-.4-.38-.42-1.01-.05-1.41,5.26-5.62,5.23-14.03,3.44-20.02-1.99-6.67-5.97-12.25-10.97-18.87l-.18-.24c-4.45-5.88-9.04-11.95-11.41-19.07-.17-.52.11-1.09.63-1.26.52-.18,1.09.11,1.26.63,2.26,6.8,6.76,12.75,11.11,18.5l.18.24c4.03,5.33,9.04,11.96,11.29,19.5,1.95,6.52,1.94,15.71-3.89,21.96-.2.21-.46.32-.73.32Z"/>
    <path class="cls-1" d="M241.03,195.38c-.22,0-.45-.07-.63-.23-.43-.35-.49-.98-.14-1.41,6.46-7.93,9.93-18.34,9.52-28.56-.42-10.22-4.72-20.32-11.81-27.69-.38-.4-.37-1.03.03-1.41.4-.38,1.03-.37,1.41.03,7.42,7.72,11.93,18.29,12.36,29,.44,10.7-3.2,21.6-9.96,29.91-.2.24-.49.37-.78.37Z"/>
    <path class="cls-1" d="M236.06,132.8c-.29,0-.59-.13-.78-.38l-4.63-5.81c-.34-.43-.27-1.06.16-1.41.43-.35,1.06-.27,1.4.16l4.63,5.81c.34.43.27,1.06-.16,1.41-.18.15-.4.22-.62.22Z"/>
    <path class="cls-4" d="M172.02,114.45s-.05,0-.08,0c-.55-.04-.96-.52-.92-1.07,2.64-35.54,18.85-70.14,44.46-94.91.4-.38,1.03-.37,1.41.02.38.4.37,1.03-.02,1.41-25.27,24.44-41.25,58.57-43.86,93.62-.04.53-.48.93-1,.93Z"/>
    <path class="cls-1" d="M211.76,239.67c-.16,0-.32-.04-.47-.12-.49-.26-.67-.86-.42-1.35,3.39-6.41,5.2-13.63,5.23-20.89,0-.55.45-1,1-1h0c.55,0,1,.45,1,1-.03,7.57-1.92,15.12-5.46,21.81-.18.34-.53.53-.88.53Z"/>
    <path class="cls-1" d="M241.39,225.11c-.11,0-.23-.02-.34-.06-.52-.19-.79-.76-.6-1.28,2.69-7.34,3.2-15.57,1.44-23.18-.12-.54.21-1.08.75-1.2.54-.12,1.08.21,1.2.75,1.84,7.99,1.3,16.62-1.51,24.32-.15.41-.53.66-.94.66Z"/>
    <path class="cls-4" d="M140.91,88.51c-.11,0-.22-.02-.33-.06-.52-.18-.8-.75-.62-1.27,5.95-17.24,17.25-32.77,31.84-43.73.44-.33,1.07-.24,1.4.2.33.44.24,1.07-.2,1.4-14.27,10.72-25.33,25.91-31.15,42.78-.14.41-.53.67-.95.67Z"/>
  </g>
  <g class="cls-5">
    <rect class="cls-3" width="400" height="256"/>
  </g>
</svg>