<?xml version="1.0" encoding="UTF-8"?>
<svg id="Image_Expanded" xmlns="http://www.w3.org/2000/svg" viewBox="0 0 400 256">
  <defs>
    <style>
      .cls-1 {
        fill: #fff;
      }

      .cls-2 {
        fill: #dfedf2;
      }

      .cls-3 {
        fill: #ea9939;
      }

      .cls-4 {
        fill: #d87625;
      }

      .cls-5 {
        fill: #aa5217;
      }

      .cls-6 {
        fill: #f43f3f;
      }

      .cls-7 {
        fill: #6d3108;
      }

      .cls-8 {
        opacity: 0;
      }

      .cls-9 {
        fill: #ffe277;
      }

      .cls-10 {
        fill: #333;
      }

      .cls-11 {
        fill: #a8b6c1;
      }
    </style>
  </defs>
  <path class="cls-9" d="M69.86,70.51l4.72,17.78c.29,1.08,1.13,1.92,2.21,2.21l17.78,4.72-17.78,4.72c-1.08.29-1.92,1.13-2.21,2.21l-4.72,17.78-4.72-17.78c-.29-1.08-1.13-1.92-2.21-2.21l-17.78-4.72,17.78-4.72c1.08-.29,1.92-1.13,2.21-2.21l4.72-17.78Z"/>
  <g>
    <path class="cls-3" d="M231.54,31.35h-64.13c-4.62,0-8.36,3.74-8.36,8.36v35.34c0,1.82.59,3.5,1.57,4.87,1.51,2.11,3.99,3.49,6.79,3.49h64.13c2.8,0,5.28-1.38,6.79-3.49.22-.3.43-.63.6-.97.62-1.16.97-2.49.97-3.9v-35.34c0-4.62-3.74-8.36-8.36-8.36ZM223.18,66.69h-47.41v-18.63h47.41v18.63Z"/>
    <path class="cls-4" d="M231.54,36.52h-64.13c-4.62,0-8.36,3.74-8.36,8.36v30.17c0,1.82.59,3.5,1.57,4.87,1.51,2.11,3.99,3.49,6.79,3.49h64.13c2.8,0,5.28-1.38,6.79-3.49.22-.3.43-.63.6-.97.62-1.16.97-2.49.97-3.9v-30.17c0-4.62-3.74-8.36-8.36-8.36ZM175.77,48.06h47.41v18.63h-47.41v-18.63Z"/>
    <polygon class="cls-5" points="238.93 53.58 238.93 79.92 159.05 79.92 159.05 53.58 175.77 53.58 175.77 66.69 223.18 66.69 223.18 53.58 238.93 53.58"/>
    <path class="cls-7" d="M231.54,85.41h-64.13c-5.71,0-10.36-4.65-10.36-10.36v-35.34c0-5.71,4.65-10.36,10.36-10.36h64.13c5.71,0,10.36,4.65,10.36,10.36v35.34c0,5.71-4.65,10.36-10.36,10.36ZM167.41,33.35c-3.51,0-6.36,2.85-6.36,6.36v35.34c0,3.51,2.85,6.36,6.36,6.36h64.13c3.51,0,6.36-2.85,6.36-6.36v-35.34c0-3.51-2.85-6.36-6.36-6.36h-64.13ZM225.18,68.69h-51.41v-22.63h51.41v22.63ZM177.77,64.69h43.41v-14.63h-43.41v14.63Z"/>
    <path class="cls-5" d="M106.12,61.97h181.99c11.53,0,20.88,9.36,20.88,20.88v123.17c0,11.53-9.36,20.88-20.88,20.88H110.84c-11.53,0-20.88-9.36-20.88-20.88v-127.89c0-8.92,7.24-16.17,16.17-16.17Z"/>
    <path class="cls-3" d="M106.12,61.97h181.99c11.53,0,20.88,9.36,20.88,20.88v99.28c0,11.53-9.36,20.88-20.88,20.88H110.84c-11.53,0-20.88-9.36-20.88-20.88v-103.99c0-8.92,7.24-16.17,16.17-16.17Z"/>
    <path class="cls-4" d="M289.16,203.02H111.88c-15.88,0-20.88-7.76-20.88-20.88v-111.63h198.16c11.53,0,20.88,9.35,20.88,20.88v90.74c0,11.53-9.35,20.88-20.88,20.88Z"/>
    <path class="cls-5" d="M306.96,130.14c-.34,5.3-2.42,9.4-4.66,12.35-2.73,3.62-7.06,5.67-11.59,5.67H105.06c-11.91,0-13.94-17.95-14.13-28.34.04-2.53.16-4.14.16-4.14.87,15.54,10.46,24.33,17.35,24.44,47.25.75,180.67,1.19,187.89,1.19s10.55-12.29,10.55-12.29c.04.38.07.75.08,1.12Z"/>
    <path class="cls-7" d="M191.21,141.47h-72.58c-15.6,0-17.29-1.54-19.85-3.86l-.19-.18c-2.63-2.38-4.41-6.02-5.01-10.23-.08-.55.3-1.05.85-1.13.54-.08,1.05.3,1.13.85.54,3.75,2.09,6.96,4.38,9.03l.2.18c2.21,2.01,3.67,3.34,18.5,3.34h72.58c.55,0,1,.45,1,1s-.45,1-1,1Z"/>
    <path class="cls-7" d="M204.66,141.86h-6.39c-.55,0-1-.45-1-1s.45-1,1-1h6.39c.55,0,1,.45,1,1s-.45,1-1,1Z"/>
    <path class="cls-7" d="M294.31,142.11h-50.2c-.55,0-1-.45-1-1s.45-1,1-1h50.2c5.25,0,9.39-4.84,12.67-14.8.17-.52.74-.81,1.26-.64.52.17.81.74.64,1.26-3.58,10.89-8.35,16.18-14.57,16.18Z"/>
    <g>
      <rect class="cls-4" x="122.8" y="63.28" width="19.42" height="86.75"/>
      <rect class="cls-5" x="122.8" y="141.11" width="19.42" height="8.91"/>
      <rect class="cls-5" x="138.47" y="63.28" width="3.76" height="86.75"/>
      <path class="cls-7" d="M142.35,149.07c-.55,0-1-.45-1-1V63.28c0-.55.45-1,1-1s1,.45,1,1v84.8c0,.55-.45,1-1,1Z"/>
      <path class="cls-7" d="M122.8,149.07c-.55,0-1-.45-1-1V63.28c0-.55.45-1,1-1s1,.45,1,1v84.8c0,.55-.45,1-1,1Z"/>
      <rect class="cls-4" x="122.8" y="180.88" width="19.42" height="46.94"/>
      <rect class="cls-5" x="122.8" y="203.02" width="19.42" height="24.79"/>
      <rect class="cls-5" x="138.47" y="180.88" width="3.76" height="46.94"/>
      <path class="cls-7" d="M142.35,227.76c-.55,0-1-.45-1-1v-45.88c0-.55.45-1,1-1s1,.45,1,1v45.88c0,.55-.45,1-1,1Z"/>
      <path class="cls-7" d="M122.8,227.76c-.55,0-1-.45-1-1v-45.88c0-.55.45-1,1-1s1,.45,1,1v45.88c0,.55-.45,1-1,1Z"/>
      <rect class="cls-1" x="118.83" y="148.8" width="27.36" height="32.08" rx="5.29" ry="5.29"/>
      <rect class="cls-11" x="118.83" y="155.06" width="27.36" height="25.82" rx="5.29" ry="5.29"/>
      <rect class="cls-2" x="118.83" y="155.06" width="27.36" height="19.82" rx="5.29" ry="5.29"/>
      <path class="cls-10" d="M140.9,182.88h-16.78c-4.02,0-7.29-3.27-7.29-7.29v-21.5c0-4.02,3.27-7.29,7.29-7.29h16.78c4.02,0,7.29,3.27,7.29,7.29v21.5c0,4.02-3.27,7.29-7.29,7.29ZM124.12,150.8c-1.81,0-3.29,1.48-3.29,3.29v21.5c0,1.81,1.48,3.29,3.29,3.29h16.78c1.81,0,3.29-1.48,3.29-3.29v-21.5c0-1.81-1.48-3.29-3.29-3.29h-16.78Z"/>
      <rect class="cls-5" x="124.39" y="154.65" width="16.25" height="20.37" rx="3.25" ry="3.25"/>
      <rect class="cls-4" x="124.39" y="154.65" width="16.25" height="15.4" rx="3.25" ry="3.25"/>
      <path class="cls-7" d="M137.38,176.02h-9.74c-2.34,0-4.25-1.91-4.25-4.25v-13.87c0-2.34,1.91-4.25,4.25-4.25h9.74c2.34,0,4.25,1.91,4.25,4.25v13.87c0,2.34-1.91,4.25-4.25,4.25ZM127.64,155.65c-1.24,0-2.25,1.01-2.25,2.25v13.87c0,1.24,1.01,2.25,2.25,2.25h9.74c1.24,0,2.25-1.01,2.25-2.25v-13.87c0-1.24-1.01-2.25-2.25-2.25h-9.74Z"/>
      <g>
        <rect class="cls-2" x="129.67" y="154.01" width="5.69" height="9.8" rx="2.84" ry="2.84"/>
        <path class="cls-10" d="M132.51,164.81c-2.12,0-3.84-1.72-3.84-3.84v-4.11c0-2.12,1.72-3.84,3.84-3.84s3.84,1.72,3.84,3.84v4.11c0,2.12-1.72,3.84-3.84,3.84ZM132.51,155.01c-1.02,0-1.84.83-1.84,1.84v4.11c0,1.02.83,1.84,1.84,1.84s1.84-.83,1.84-1.84v-4.11c0-1.02-.83-1.84-1.84-1.84Z"/>
      </g>
    </g>
    <g>
      <rect class="cls-4" x="258.82" y="63.28" width="19.42" height="86.75"/>
      <rect class="cls-5" x="258.82" y="141.11" width="19.42" height="8.91"/>
      <rect class="cls-5" x="274.48" y="63.28" width="3.76" height="86.75"/>
      <path class="cls-7" d="M278.37,149.07c-.55,0-1-.45-1-1V63.28c0-.55.45-1,1-1s1,.45,1,1v84.8c0,.55-.45,1-1,1Z"/>
      <path class="cls-7" d="M258.82,149.07c-.55,0-1-.45-1-1V63.28c0-.55.45-1,1-1s1,.45,1,1v84.8c0,.55-.45,1-1,1Z"/>
      <rect class="cls-4" x="258.82" y="180.88" width="19.42" height="46.94"/>
      <rect class="cls-5" x="258.82" y="203.02" width="19.42" height="24.79"/>
      <rect class="cls-5" x="274.48" y="180.88" width="3.76" height="46.94"/>
      <path class="cls-7" d="M278.37,227.76c-.55,0-1-.45-1-1v-45.88c0-.55.45-1,1-1s1,.45,1,1v45.88c0,.55-.45,1-1,1Z"/>
      <path class="cls-7" d="M258.82,227.76c-.55,0-1-.45-1-1v-45.88c0-.55.45-1,1-1s1,.45,1,1v45.88c0,.55-.45,1-1,1Z"/>
      <rect class="cls-1" x="254.85" y="148.8" width="27.36" height="32.08" rx="5.29" ry="5.29"/>
      <rect class="cls-11" x="254.85" y="155.06" width="27.36" height="25.82" rx="5.29" ry="5.29"/>
      <rect class="cls-2" x="254.85" y="155.06" width="27.36" height="19.82" rx="5.29" ry="5.29"/>
      <path class="cls-10" d="M276.92,182.88h-16.78c-4.02,0-7.29-3.27-7.29-7.29v-21.5c0-4.02,3.27-7.29,7.29-7.29h16.78c4.02,0,7.29,3.27,7.29,7.29v21.5c0,4.02-3.27,7.29-7.29,7.29ZM260.14,150.8c-1.81,0-3.29,1.48-3.29,3.29v21.5c0,1.81,1.48,3.29,3.29,3.29h16.78c1.81,0,3.29-1.48,3.29-3.29v-21.5c0-1.81-1.48-3.29-3.29-3.29h-16.78Z"/>
      <rect class="cls-5" x="260.41" y="154.65" width="16.25" height="20.37" rx="3.25" ry="3.25"/>
      <rect class="cls-4" x="260.41" y="154.65" width="16.25" height="15.4" rx="3.25" ry="3.25"/>
      <path class="cls-7" d="M273.4,176.02h-9.74c-2.34,0-4.25-1.91-4.25-4.25v-13.87c0-2.34,1.91-4.25,4.25-4.25h9.74c2.34,0,4.25,1.91,4.25,4.25v13.87c0,2.34-1.91,4.25-4.25,4.25ZM263.66,155.65c-1.24,0-2.25,1.01-2.25,2.25v13.87c0,1.24,1.01,2.25,2.25,2.25h9.74c1.24,0,2.25-1.01,2.25-2.25v-13.87c0-1.24-1.01-2.25-2.25-2.25h-9.74Z"/>
      <g>
        <rect class="cls-2" x="265.69" y="154.01" width="5.69" height="9.8" rx="2.84" ry="2.84"/>
        <path class="cls-10" d="M268.53,164.81c-2.12,0-3.84-1.72-3.84-3.84v-4.11c0-2.12,1.72-3.84,3.84-3.84s3.84,1.72,3.84,3.84v4.11c0,2.12-1.72,3.84-3.84,3.84ZM268.53,155.01c-1.02,0-1.84.83-1.84,1.84v4.11c0,1.02.83,1.84,1.84,1.84s1.84-.83,1.84-1.84v-4.11c0-1.02-.83-1.84-1.84-1.84Z"/>
      </g>
    </g>
    <path class="cls-7" d="M288.12,228.91H110.84c-12.62,0-22.88-10.27-22.88-22.88v-127.89c0-10.02,8.15-18.17,18.17-18.17h181.99c12.62,0,22.88,10.27,22.88,22.88v123.17c0,12.62-10.27,22.88-22.88,22.88ZM106.12,63.97c-7.81,0-14.17,6.36-14.17,14.17v127.89c0,10.41,8.47,18.88,18.88,18.88h177.28c10.41,0,18.88-8.47,18.88-18.88v-123.17c0-10.41-8.47-18.88-18.88-18.88H106.12Z"/>
  </g>
  <path class="cls-9" d="M325.98,144.94l3.71,20.32c.93,5.08,4.9,9.06,9.98,9.98l20.32,3.71-20.32,3.71c-5.08.93-9.06,4.9-9.98,9.98l-3.71,20.32-3.71-20.32c-.93-5.08-4.9-9.06-9.98-9.98l-20.32-3.71,20.32-3.71c5.08-.93,9.06-4.9,9.98-9.98l3.71-20.32Z"/>
  <path class="cls-9" d="M106.47,10.09l5.49,29.56c.94,5.05,4.89,9.01,9.94,9.94l29.56,5.49-29.56,5.49c-5.05.94-9.01,4.89-9.94,9.94l-5.49,29.56-5.49-29.56c-.94-5.05-4.89-9.01-9.94-9.94l-29.56-5.49,29.56-5.49c5.05-.94,9.01-4.89,9.94-9.94l5.49-29.56Z"/>
  <g class="cls-8">
    <rect class="cls-6" width="400" height="256"/>
  </g>
</svg>