<?xml version="1.0" encoding="UTF-8"?>
<svg id="Image_Expanded" xmlns="http://www.w3.org/2000/svg" viewBox="0 0 400 256">
  <defs>
    <style>
      .cls-1 {
        fill: #dd2a39;
      }

      .cls-2 {
        fill: #4d4d4d;
      }

      .cls-3 {
        fill: #fff;
      }

      .cls-4 {
        fill: #dfedf2;
      }

      .cls-5 {
        fill: #f43f3f;
      }

      .cls-6 {
        fill: #666;
      }

      .cls-7 {
        opacity: 0;
      }

      .cls-8 {
        fill: #333;
      }

      .cls-9 {
        fill: #47acea;
      }

      .cls-10 {
        fill: #999;
      }

      .cls-11 {
        fill: #ffc4b0;
      }

      .cls-12 {
        fill: #b51933;
      }

      .cls-13 {
        fill: gray;
      }

      .cls-14 {
        fill: #a8b6c1;
      }

      .cls-15 {
        fill: #7a1839;
      }

      .cls-16 {
        fill: #e6e6e6;
      }
    </style>
  </defs>
  <path class="cls-10" d="M299.47,67.91c-.99,1.33-2.15,2.48-3.44,3.44-5.98,4.47-14.74,5.09-22.02,2.68-10.07-3.33-16.36-10.93-24.42-17.21-3.4-2.65-6.22-5.97-9.92-8.31-3.89-2.46-8.28-4.11-12.84-4.76-8.37-1.19-17.19,1.04-23.98,6.08-2.12,1.57-4.09,3.46-5.2,5.86-1.6,3.43-1.23,7.51.14,11.03,1.74,4.47,5.65,7.58,7.44,11.78,1.69,3.96,1.29,8.7-.5,12.54-2.3,4.91-6.61,8.62-11.31,11.31-9.27,5.32-20.1,7.12-30.7,8.41-10.61,1.29-21.42,2.19-31.41,5.96-10,3.78-19.3,10.97-22.75,21.09-1.23,3.61-1.49,7.58-.86,11.37,1.13,6.83,5.13,13.1,11.52,15.65l-11.35,11.9c-7.4-2.7-13.61-8.55-16.72-15.79-3.19-7.4-3.12-13.79.79-20.53,3.87-6.68,7.3-13.94,7.44-21.8.12-7.19-2.68-14.37-7.61-19.58-5.48-5.79-13.31-9.09-18.32-15.3-5.89-7.3-6.85-17.88-3.59-26.68,3.27-8.81,10.31-15.87,18.51-20.47,10.79-6.07,22.14-5.98,33.54-9.54,8.01-2.5,13.87-12.87,20.8-17.66,11.11-7.68,25.38-8.61,37.81-3.89,5.63,2.13,9.7,6.67,15.35,9.02,5.73,2.39,12.07,3.35,18.25,2.65,6.64-.76,13-3.33,19.67-3.73,13.26-.82,26.54,8,30.92,20.54,3.13,8.92,2.15,19.27,7.23,27.25,5.61,8.8,18.51,11.94,27.54,6.72Z"/>
  <path class="cls-13" d="M100.4,147.44c-2.38,6.25-2.44,13.35-.17,19.64.76,2.09,1.95,4.28,4.05,5.03,1.43.52,3.01.26,4.51,0,3.97-.69,7.94-1.38,11.91-2.07-3.48-4.07-6.95-8.15-10.43-12.22"/>
  <path class="cls-13" d="M296.02,71.35c-5.98,4.47-14.74,5.09-22.02,2.68-10.07-3.33-16.36-10.93-24.42-17.21-3.4-2.65-6.22-5.97-9.92-8.31-3.89-2.46-8.28-4.11-12.84-4.76-8.37-1.19-17.19,1.04-23.98,6.08-2.12,1.57-4.09,3.46-5.2,5.86-1.6,3.43-1.23,7.51.14,11.03,1.74,4.47,5.65,7.58,7.44,11.78,1.69,3.96,1.29,8.7-.5,12.54-2.3,4.91-6.61,8.62-11.31,11.31-9.27,5.32-20.1,7.12-30.7,8.41-10.61,1.29-21.42,2.19-31.41,5.96-10,3.78-19.3,10.97-22.75,21.09-1.24,3.63-1.47,7.54-.87,11.31-1.59-1.05-4.06-2.3-5.17-3.97-1.43-2.15-.66-5.37-.33-7.73,2.07-14.66,10.56-27.72,23.39-35.2,6.76-3.94,14.33-5.21,21.1-8.99,6.99-3.91,12.86-9.86,16.48-17.03,3.56-7.06,4.98-15.03,8.25-22.23,4.48-9.86,12.52-18.07,22.29-22.75,8.42-4.04,18-5.4,27.23-4.06s16.69,2.24,23.7,9.04c.37.36.73.72,1.08,1.1,6.85,7.35,9.97,17.73,17.36,24.54,4.11,3.78,9.37,6.19,14.89,6.94,2.75.37,5.36,1.4,8.14,1.86,3.28.54,6.61.79,9.93.73Z"/>
  <g>
    <path class="cls-5" d="M127.59,172.15l-2.57,2.58c-1.05,1.05-2.75,1.05-3.8,0l-32.87-32.87c-1.04-1.04-1.04-2.75,0-3.79l2.58-2.58c1.05-1.05,2.75-1.05,3.8,0l32.86,32.87c1.05,1.04,1.05,2.75,0,3.79Z"/>
    <path class="cls-11" d="M327.61,183.07v34.59c0,5.98-4.84,10.81-10.81,10.81H83.69c-5.98,0-10.81-4.84-10.81-10.81v-22.47c0-.27,0-.55.02-.82,0-.15.02-.32.03-.47.25-4.14,1.74-7.98,4.11-11.15.23-.3.46-.6.71-.89,3.2-3.82,7.79-6.49,13.07-7.21,1.83-.25,3.67-.5,5.5-.75l10.28-1.4c1.91-.26,3.82-.51,5.73-.78.46-.06.89-.19,1.34-.32.63-.18,1.3-.03,1.94,0,1.45.05,2.96-.06,4.27-.74,1.26-.65,2.22-1.76,3.13-2.85,2.16-2.6,4.22-5.28,6.17-8.03.93-1.31,1.74-2.87,2.82-4.06,1.13-1.25,2.24-2.53,3.35-3.81,1.76-2.03,3.52-4.07,5.28-6.1,14.84-17.13,36.4-26.98,59.06-26.98h48.74c1.65,0,3.28.09,4.89.27,14.87,1.62,28.09,10.6,35.01,24.1l10.75,20.94c2.12,4.11,6.36,6.71,10.98,6.71h5.31c6.36,0,11.57,4.84,12.18,11.03.05.4.06.8.06,1.21Z"/>
    <path class="cls-5" d="M80.54,223.95c-3.47,0-6.29-2.82-6.29-6.29,0,0,2.36-27.13,4.27-29.68.17-.22,2.48-2.98,2.68-3.21,2.59-3.1,6.22-5.1,10.22-5.64l21.52-2.93c5.37-.73,10.28-3.39,13.83-7.49l17.28-19.96c14-16.16,34.28-25.42,55.64-25.42h52.58c1.47,0,2.95.08,4.39.24,13.52,1.47,25.29,9.57,31.49,21.67l10.75,18.24c2.91,5.65,8.66,9.16,15,9.16h5.31c3.99,0,7.29,2.99,7.68,6.95.03.27.04.51.04.77v37.28c0,3.47-2.82,6.29-6.29,6.29H80.54Z"/>
    <path class="cls-16" d="M212.01,133.81v27.28c0,3.28-2.67,5.95-5.95,5.95h-55.8c-4.83,0-7.43-5.69-4.26-9.34l5.17-5.98c6.34-7.31,14.04-13.13,22.58-17.18,9.16-4.36,19.26-6.69,29.64-6.69h2.66c3.28,0,5.95,2.66,5.95,5.95Z"/>
    <path class="cls-3" d="M212.01,133.81v5.69l-18.56,27.55h-41.58l21.9-32.49c9.16-4.36,19.26-6.69,29.64-6.69h2.66c3.28,0,5.95,2.66,5.95,5.95Z"/>
    <path class="cls-16" d="M279.86,167.04h-52.27c-3.29,0-5.95-2.67-5.95-5.95v-27.28c0-3.29,2.66-5.95,5.95-5.95h19.53c4.08,0,8.03.68,11.73,1.96,8.58,2.96,15.82,9.11,20.12,17.49l.7,1.37,5.21,10.14c1.93,3.75-.8,8.22-5.02,8.22Z"/>
    <path class="cls-3" d="M279.67,148.68l-12.38,18.36h-33.53l25.09-37.22c8.58,2.96,15.82,9.11,20.12,17.49l.7,1.37Z"/>
    <path class="cls-3" d="M96.53,188.43l-3.88,4.55c-.76.88-1.86,1.39-3.03,1.39h-16.73c0-.15.02-.32.03-.47.25-4.14,1.74-7.98,4.11-11.15.23-.3.46-.6.71-.89h15.78c3.39,0,5.23,3.98,3.02,6.56Z"/>
    <path class="cls-11" d="M327.61,183.07v11.29h-14.13c-1.19,0-2.32-.52-3.09-1.43l-3.73-4.38c-1.44-1.67-1.19-3.93.06-5.35.72-.81,1.77-1.35,3.03-1.35h17.8c.05.4.06.8.06,1.21Z"/>
    <path class="cls-1" d="M327.61,210.38v7.28c0,5.98-4.84,10.81-10.81,10.81H83.69c-5.98,0-10.81-4.84-10.81-10.81v-5.42c2.07,2.07,6.2,5.33,11.7,5.33h226.04c4.6,0,9.09-1.46,12.81-4.16l4.19-3.04Z"/>
    <path class="cls-15" d="M316.79,230.47H83.69c-7.06,0-12.81-5.75-12.81-12.81v-22.47c0-11.31,8.45-20.99,19.66-22.52l21.52-2.92c.39-.05.77-.12,1.16-.2l-26.27-26.27c-1.83-1.83-1.83-4.79,0-6.62l2.58-2.58c1.83-1.83,4.8-1.83,6.63,0l27.86,27.87,15.11-17.45c15.23-17.59,37.31-27.67,60.57-27.67h48.73c17.65,0,33.62,9.75,41.68,25.46l10.75,20.94c1.78,3.47,5.31,5.62,9.2,5.62h5.3c7.85,0,14.24,6.39,14.24,14.24v34.59c0,7.07-5.75,12.81-12.81,12.81ZM92.83,136.71c-.17,0-.35.07-.49.2l-2.58,2.58c-.17.17-.2.38-.2.48s.03.31.2.48l28.59,28.59c.47.47.68,1.14.55,1.79-.12.65-.56,1.2-1.17,1.46-1.64.71-3.37,1.18-5.14,1.42l-21.52,2.92c-9.24,1.26-16.2,9.23-16.2,18.55v22.47c0,4.86,3.95,8.81,8.81,8.81h233.11c4.86,0,8.81-3.95,8.81-8.81v-34.59c0-5.65-4.6-10.24-10.24-10.24h-5.3c-5.4,0-10.29-2.99-12.76-7.79l-10.75-20.94c-7.37-14.36-21.98-23.28-38.12-23.28h-48.73c-22.1,0-43.08,9.58-57.55,26.29l-16.52,19.08c-.36.42-.89.67-1.44.69-.56.02-1.09-.19-1.49-.58l-29.38-29.39c-.14-.14-.31-.2-.48-.2Z"/>
    <path class="cls-12" d="M183.46,174.64h-60.27c-.55,0-1-.45-1-1s.45-1,1-1h60.27c.55,0,1,.45,1,1s-.45,1-1,1Z"/>
    <path class="cls-12" d="M300.2,174.3h-110.51c-.55,0-1-.45-1-1s.45-1,1-1h110.51c.55,0,1,.45,1,1s-.45,1-1,1Z"/>
    <path class="cls-12" d="M275.53,191.38c-.55,0-1-.45-1-1v-11.74c0-.55.45-1,1-1s1,.45,1,1v11.74c0,.55-.45,1-1,1Z"/>
    <path class="cls-12" d="M139.15,191.5c-.55,0-1-.45-1-1v-16.43c0-.55.45-1,1-1s1,.45,1,1v16.43c0,.55-.45,1-1,1Z"/>
    <g>
      <circle class="cls-6" cx="131.49" cy="221.77" r="31.43"/>
      <ellipse class="cls-13" cx="128.57" cy="217.58" rx="28.51" ry="27.24"/>
      <g>
        <circle class="cls-4" cx="131.49" cy="221.77" r="14.89"/>
        <circle class="cls-3" cx="133.26" cy="223.54" r="12.3"/>
        <path class="cls-14" d="M131.49,237.64c-.55,0-1-.45-1-1v-29.15c0-.55.45-1,1-1s1,.45,1,1v29.15c0,.55-.45,1-1,1Z"/>
        <path class="cls-14" d="M146.06,223.07h-29.15c-.55,0-1-.45-1-1s.45-1,1-1h29.15c.55,0,1,.45,1,1s-.45,1-1,1Z"/>
        <path class="cls-14" d="M141.8,233.38c-.26,0-.51-.1-.71-.29l-20.61-20.61c-.39-.39-.39-1.02,0-1.41s1.02-.39,1.41,0l20.61,20.61c.39.39.39,1.02,0,1.41-.2.2-.45.29-.71.29Z"/>
        <path class="cls-14" d="M121.18,233.38c-.26,0-.51-.1-.71-.29-.39-.39-.39-1.02,0-1.41l20.61-20.61c.39-.39,1.02-.39,1.41,0s.39,1.02,0,1.41l-20.61,20.61c-.2.2-.45.29-.71.29Z"/>
        <path class="cls-2" d="M131.49,237.66c-8.76,0-15.89-7.13-15.89-15.88s7.13-15.89,15.89-15.89,15.89,7.13,15.89,15.89-7.13,15.88-15.89,15.88ZM131.49,207.89c-7.66,0-13.89,6.23-13.89,13.89s6.23,13.88,13.89,13.88,13.89-6.23,13.89-13.88-6.23-13.89-13.89-13.89Z"/>
        <circle class="cls-3" cx="131.49" cy="221.77" r="5.22"/>
        <path class="cls-14" d="M131.49,227.99c-3.43,0-6.22-2.79-6.22-6.22s2.79-6.22,6.22-6.22,6.22,2.79,6.22,6.22-2.79,6.22-6.22,6.22ZM131.49,217.55c-2.33,0-4.22,1.89-4.22,4.22s1.89,4.22,4.22,4.22,4.22-1.89,4.22-4.22-1.89-4.22-4.22-4.22Z"/>
      </g>
      <path class="cls-8" d="M131.49,255.2c-18.43,0-33.43-15-33.43-33.43s15-33.43,33.43-33.43,33.43,15,33.43,33.43-15,33.43-33.43,33.43ZM131.49,192.34c-16.23,0-29.43,13.2-29.43,29.43s13.2,29.43,29.43,29.43,29.43-13.2,29.43-29.43-13.2-29.43-29.43-29.43Z"/>
    </g>
    <g>
      <circle class="cls-6" cx="275.53" cy="221.77" r="31.43"/>
      <ellipse class="cls-13" cx="272.61" cy="217.58" rx="28.51" ry="27.24"/>
      <g>
        <circle class="cls-4" cx="275.53" cy="221.77" r="14.89"/>
        <circle class="cls-3" cx="277.3" cy="223.54" r="12.3"/>
        <path class="cls-14" d="M275.53,237.64c-.55,0-1-.45-1-1v-29.15c0-.55.45-1,1-1s1,.45,1,1v29.15c0,.55-.45,1-1,1Z"/>
        <path class="cls-14" d="M290.1,223.07h-29.15c-.55,0-1-.45-1-1s.45-1,1-1h29.15c.55,0,1,.45,1,1s-.45,1-1,1Z"/>
        <path class="cls-14" d="M285.83,233.38c-.26,0-.51-.1-.71-.29l-20.61-20.61c-.39-.39-.39-1.02,0-1.41s1.02-.39,1.41,0l20.61,20.61c.39.39.39,1.02,0,1.41-.2.2-.45.29-.71.29Z"/>
        <path class="cls-14" d="M265.22,233.38c-.26,0-.51-.1-.71-.29-.39-.39-.39-1.02,0-1.41l20.61-20.61c.39-.39,1.02-.39,1.41,0s.39,1.02,0,1.41l-20.61,20.61c-.2.2-.45.29-.71.29Z"/>
        <path class="cls-2" d="M275.53,237.66c-8.76,0-15.89-7.13-15.89-15.88s7.13-15.89,15.89-15.89,15.89,7.13,15.89,15.89-7.13,15.88-15.89,15.88ZM275.53,207.89c-7.66,0-13.89,6.23-13.89,13.89s6.23,13.88,13.89,13.88,13.89-6.23,13.89-13.88-6.23-13.89-13.89-13.89Z"/>
        <circle class="cls-3" cx="275.53" cy="221.77" r="5.22"/>
        <path class="cls-14" d="M275.53,227.99c-3.43,0-6.22-2.79-6.22-6.22s2.79-6.22,6.22-6.22,6.22,2.79,6.22,6.22-2.79,6.22-6.22,6.22ZM275.53,217.55c-2.33,0-4.22,1.89-4.22,4.22s1.89,4.22,4.22,4.22,4.22-1.89,4.22-4.22-1.89-4.22-4.22-4.22Z"/>
      </g>
      <path class="cls-8" d="M275.53,255.2c-18.43,0-33.43-15-33.43-33.43s15-33.43,33.43-33.43,33.43,15,33.43,33.43-15,33.43-33.43,33.43ZM275.53,192.34c-16.23,0-29.43,13.2-29.43,29.43s13.2,29.43,29.43,29.43,29.43-13.2,29.43-29.43-13.2-29.43-29.43-29.43Z"/>
    </g>
    <path class="cls-12" d="M215.62,215.41c-.55,0-1-.45-1-1v-35.76c0-.55.45-1,1-1s1,.45,1,1v35.76c0,.55-.45,1-1,1Z"/>
    <g>
      <path class="cls-5" d="M156.04,167.04c0,7.37-.25,13.34-7.62,13.34-3.99,0-7.58-1.75-10.02-4.53-2.07-2.36-3.33-5.43-3.33-8.81,0-7.37,5.98-13.34,13.34-13.34,3.19,0,5.05,1.12,6.13,3,1.41,2.45,1.49,6.17,1.49,10.34Z"/>
      <path class="cls-11" d="M154.55,156.69c-4.45-1.06-9.43.17-12.76,3.34-3.99,3.77-5.35,10.05-3.29,15.14l-.09.68c-2.07-2.36-3.33-5.43-3.33-8.81,0-7.37,5.98-13.34,13.34-13.34,3.19,0,5.05,1.12,6.13,3Z"/>
      <path class="cls-1" d="M137.49,174.67c2.41,3.45,6.4,5.7,10.93,5.7,6.32,0,7.4-4.4,7.58-10.31-5.31,4.1-12.19,6.4-18.51,4.6Z"/>
      <path class="cls-15" d="M148.42,181.38c-7.91,0-14.34-6.43-14.34-14.34s6.43-14.34,14.34-14.34c8.62,0,8.62,7.62,8.62,14.34s0,14.34-8.62,14.34ZM148.42,154.69c-6.81,0-12.34,5.54-12.34,12.34s5.54,12.34,12.34,12.34c5.97,0,6.62-3.95,6.62-12.34s-.65-12.34-6.62-12.34Z"/>
      <path class="cls-11" d="M138.96,163.39c.16,1.08.98,2.09,2.06,2.29.79.15,1.61-.12,2.32-.51,1.09-.59,2.04-1.5,2.5-2.65.76-1.91-.54-5.24-3.09-4.42-.8.26-1.75,1.28-2.35,1.83-.95.87-1.63,2.13-1.43,3.45Z"/>
    </g>
    <path class="cls-12" d="M189.7,180.38h15.62v.97c0,2.95-2.4,5.35-5.35,5.35h-4.91c-2.95,0-5.35-2.4-5.35-5.35v-.97h0Z"/>
    <path class="cls-12" d="M247.68,180.38h15.62v.97c0,2.95-2.4,5.35-5.35,5.35h-4.91c-2.95,0-5.35-2.4-5.35-5.35v-.97h0Z"/>
  </g>
  <path class="cls-14" d="M184.92,167.54c-.05,0-.11,0-.16-.03-.26-.09-.4-.37-.31-.64l3.53-10.25c.03-.09.08-.16.15-.22l11.14-9.19v-6.46c0-.09.02-.17.07-.25l7.5-12.9c.14-.24.44-.32.68-.18.24.14.32.45.18.68l-7.43,12.78v6.56c0,.15-.07.29-.18.39l-11.22,9.25-3.48,10.12c-.07.21-.27.34-.47.34Z"/>
  <path class="cls-14" d="M188.45,157.29c-.17,0-.33-.08-.43-.24l-8.78-14.36-10.13-5.41c-.24-.13-.34-.43-.21-.68.13-.24.43-.34.68-.21l10.25,5.48c.08.04.14.1.19.18l8.85,14.47c.14.24.07.54-.17.69-.08.05-.17.07-.26.07Z"/>
  <path class="cls-14" d="M221.64,161.59c-.16,0-.31-.07-.41-.21-.16-.23-.1-.54.12-.7l18.85-13.27c.1-.07.23-.1.35-.09l26.9,3.59,7.7-9.36c.18-.21.49-.25.7-.07.21.17.24.49.07.7l-7.87,9.57c-.11.13-.28.2-.45.18l-26.98-3.6-18.69,13.16c-.09.06-.19.09-.29.09Z"/>
  <path class="cls-14" d="M277.3,167.54c-.17,0-.33-.08-.43-.24l-9.65-15.59c-.15-.23-.07-.54.16-.69.23-.15.54-.07.69.16l9.65,15.59c.15.23.07.54-.16.69-.08.05-.17.08-.26.08Z"/>
  <path class="cls-14" d="M199.77,147.95c-.24,0-.46-.18-.49-.42-.04-.27.14-.53.42-.57l12.24-1.9c.28-.04.53.15.57.42.04.27-.14.53-.42.57l-12.24,1.9s-.05,0-.08,0Z"/>
  <g class="cls-7">
    <path class="cls-9" d="M401,257H0V0h401v257ZM1,256h399V1H1v255Z"/>
  </g>
  <g class="cls-7">
    <rect class="cls-5" x=".5" y=".5" width="400" height="256"/>
  </g>
</svg>