<?xml version="1.0" encoding="UTF-8"?>
<svg id="Image_Expanded" xmlns="http://www.w3.org/2000/svg" xmlns:xlink="http://www.w3.org/1999/xlink" viewBox="0 0 400 256">
  <defs>
    <style>
      .cls-1 {
        fill: #ffa9c2;
      }

      .cls-2 {
        fill: #3288d6;
      }

      .cls-3 {
        fill: #ea9939;
      }

      .cls-4 {
        fill: #d87625;
      }

      .cls-5 {
        fill: none;
      }

      .cls-6 {
        fill: #f43f3f;
      }

      .cls-7 {
        fill: #79cdf6;
      }

      .cls-8 {
        opacity: 0;
      }

      .cls-9 {
        fill: #ffe277;
      }

      .cls-10 {
        fill: #47acea;
      }

      .cls-11 {
        fill: #6d3108;
      }

      .cls-12 {
        clip-path: url(#clippath);
      }

      .cls-13 {
        fill: #1f5999;
      }

      .cls-14 {
        fill: #ffd2e1;
      }
    </style>
    <clipPath id="clippath">
      <rect class="cls-5" x="64.22" y="59.78" width="273.56" height="135.75" rx="4.95" ry="4.95"/>
    </clipPath>
  </defs>
  <g>
    <rect class="cls-4" x="40.82" y="38.57" width="320.35" height="179.85" rx="13.05" ry="13.05"/>
    <rect class="cls-3" x="40.82" y="38.57" width="313.37" height="171.27" rx="13.05" ry="13.05"/>
    <path class="cls-9" d="M42.05,200.61s3.28-131.26,6.49-148.42c.14-.74,3.56-7.12,7.95-7.3,20.19-.82,289.3-4.69,289.3-4.69,0,0-288.71-.78-293.66-.78s-8.54,4-10.09,8.4,0,152.8,0,152.8Z"/>
    <path class="cls-11" d="M348.13,220.43H53.87c-8.3,0-15.05-6.75-15.05-15.05V51.62c0-8.3,6.75-15.05,15.05-15.05h294.25c8.3,0,15.05,6.75,15.05,15.05v153.75c0,8.3-6.75,15.05-15.05,15.05ZM53.87,40.57c-6.09,0-11.05,4.96-11.05,11.05v153.75c0,6.09,4.96,11.05,11.05,11.05h294.25c6.09,0,11.05-4.96,11.05-11.05V51.62c0-6.09-4.96-11.05-11.05-11.05H53.87Z"/>
    <g>
      <rect class="cls-13" x="64.22" y="59.78" width="273.56" height="135.75" rx="4.95" ry="4.95"/>
      <g class="cls-12">
        <g>
          <rect class="cls-10" x="65.57" y="139.75" width="270.86" height="60.86" rx="4.95" ry="4.95"/>
          <g>
            <path class="cls-2" d="M113.33,87.05c0-7.68-6.22-13.9-13.9-13.9s-13.9,6.22-13.9,13.9c0,4.82,2.45,9.06,6.18,11.56-3.73,9.07-6.18,24.52-6.18,42.05h27.8c0-17.53-2.45-32.98-6.18-42.05,3.73-2.49,6.18-6.74,6.18-11.56Z"/>
            <path class="cls-2" d="M147.18,87.05c0-7.68-6.22-13.9-13.9-13.9s-13.9,6.22-13.9,13.9c0,4.82,2.45,9.06,6.18,11.56-3.73,9.07-6.18,24.52-6.18,42.05h27.8c0-17.53-2.45-32.98-6.18-42.05,3.73-2.49,6.18-6.74,6.18-11.56Z"/>
            <path class="cls-2" d="M181.04,87.05c0-7.68-6.22-13.9-13.9-13.9s-13.9,6.22-13.9,13.9c0,4.82,2.45,9.06,6.18,11.56-3.73,9.07-6.18,24.52-6.18,42.05h27.8c0-17.53-2.45-32.98-6.18-42.05,3.73-2.49,6.18-6.74,6.18-11.56Z"/>
            <path class="cls-2" d="M214.9,87.05c0-7.68-6.22-13.9-13.9-13.9s-13.9,6.22-13.9,13.9c0,4.82,2.45,9.06,6.18,11.56-3.73,9.07-6.18,24.52-6.18,42.05h27.8c0-17.53-2.45-32.98-6.18-42.05,3.73-2.49,6.18-6.74,6.18-11.56Z"/>
            <path class="cls-2" d="M248.76,87.05c0-7.68-6.22-13.9-13.9-13.9s-13.9,6.22-13.9,13.9c0,4.82,2.45,9.06,6.18,11.56-3.73,9.07-6.18,24.52-6.18,42.05h27.8c0-17.53-2.45-32.98-6.18-42.05,3.73-2.49,6.18-6.74,6.18-11.56Z"/>
            <path class="cls-2" d="M282.62,87.05c0-7.68-6.22-13.9-13.9-13.9s-13.9,6.22-13.9,13.9c0,4.82,2.45,9.06,6.18,11.56-3.73,9.07-6.18,24.52-6.18,42.05h27.8c0-17.53-2.45-32.98-6.18-42.05,3.73-2.49,6.18-6.74,6.18-11.56Z"/>
            <path class="cls-2" d="M316.47,87.05c0-7.68-6.22-13.9-13.9-13.9s-13.9,6.22-13.9,13.9c0,4.82,2.45,9.06,6.18,11.56-3.73,9.07-6.18,24.52-6.18,42.05h27.8c0-17.53-2.45-32.98-6.18-42.05,3.73-2.49,6.18-6.74,6.18-11.56Z"/>
          </g>
          <g>
            <path class="cls-10" d="M96.4,116.45c0-7.68-6.22-13.9-13.9-13.9s-13.9,6.22-13.9,13.9c0,4.82,2.45,9.06,6.18,11.56-3.73,9.07-6.18,24.52-6.18,42.05h27.8c0-17.53-2.45-32.98-6.18-42.05,3.73-2.49,6.18-6.74,6.18-11.56Z"/>
            <path class="cls-10" d="M130.25,116.45c0-7.68-6.22-13.9-13.9-13.9s-13.9,6.22-13.9,13.9c0,4.82,2.45,9.06,6.18,11.56-3.73,9.07-6.18,24.52-6.18,42.05h27.8c0-17.53-2.45-32.98-6.18-42.05,3.73-2.49,6.18-6.74,6.18-11.56Z"/>
            <path class="cls-10" d="M164.11,116.45c0-7.68-6.22-13.9-13.9-13.9s-13.9,6.22-13.9,13.9c0,4.82,2.45,9.06,6.18,11.56-3.73,9.07-6.18,24.52-6.18,42.05h27.8c0-17.53-2.45-32.98-6.18-42.05,3.73-2.49,6.18-6.74,6.18-11.56Z"/>
            <path class="cls-10" d="M197.97,116.45c0-7.68-6.22-13.9-13.9-13.9s-13.9,6.22-13.9,13.9c0,4.82,2.45,9.06,6.18,11.56-3.73,9.07-6.18,24.52-6.18,42.05h27.8c0-17.53-2.45-32.98-6.18-42.05,3.73-2.49,6.18-6.74,6.18-11.56Z"/>
            <path class="cls-10" d="M231.83,116.45c0-7.68-6.22-13.9-13.9-13.9s-13.9,6.22-13.9,13.9c0,4.82,2.45,9.06,6.18,11.56-3.73,9.07-6.18,24.52-6.18,42.05h27.8c0-17.53-2.45-32.98-6.18-42.05,3.73-2.49,6.18-6.74,6.18-11.56Z"/>
            <path class="cls-10" d="M265.69,116.45c0-7.68-6.22-13.9-13.9-13.9s-13.9,6.22-13.9,13.9c0,4.82,2.45,9.06,6.18,11.56-3.73,9.07-6.18,24.52-6.18,42.05h27.8c0-17.53-2.45-32.98-6.18-42.05,3.73-2.49,6.18-6.74,6.18-11.56Z"/>
            <path class="cls-10" d="M299.54,116.45c0-7.68-6.22-13.9-13.9-13.9s-13.9,6.22-13.9,13.9c0,4.82,2.45,9.06,6.18,11.56-3.73,9.07-6.18,24.52-6.18,42.05h27.8c0-17.53-2.45-32.98-6.18-42.05,3.73-2.49,6.18-6.74,6.18-11.56Z"/>
            <path class="cls-10" d="M333.4,116.45c0-7.68-6.22-13.9-13.9-13.9s-13.9,6.22-13.9,13.9c0,4.82,2.45,9.06,6.18,11.56-3.73,9.07-6.18,24.52-6.18,42.05h27.8c0-17.53-2.45-32.98-6.18-42.05,3.73-2.49,6.18-6.74,6.18-11.56Z"/>
          </g>
          <g>
            <path class="cls-7" d="M79.47,145.81c0-7.68-6.22-13.9-13.9-13.9s-13.9,6.22-13.9,13.9c0,4.82,2.45,9.06,6.18,11.56-3.73,9.07-6.18,24.52-6.18,42.05h27.8c0-17.53-2.45-32.98-6.18-42.05,3.73-2.49,6.18-6.74,6.18-11.56Z"/>
            <path class="cls-7" d="M113.33,145.81c0-7.68-6.22-13.9-13.9-13.9s-13.9,6.22-13.9,13.9c0,4.82,2.45,9.06,6.18,11.56-3.73,9.07-6.18,24.52-6.18,42.05h27.8c0-17.53-2.45-32.98-6.18-42.05,3.73-2.49,6.18-6.74,6.18-11.56Z"/>
            <path class="cls-1" d="M147.18,145.81c0-7.68-6.22-13.9-13.9-13.9s-13.9,6.22-13.9,13.9c0,4.82,2.45,9.06,6.18,11.56-3.73,9.07-6.18,24.52-6.18,42.05h27.8c0-17.53-2.45-32.98-6.18-42.05,3.73-2.49,6.18-6.74,6.18-11.56Z"/>
            <path class="cls-14" d="M181.04,145.81c0-7.68-6.22-13.9-13.9-13.9s-13.9,6.22-13.9,13.9c0,4.82,2.45,9.06,6.18,11.56-3.73,9.07-6.18,24.52-6.18,42.05h27.8c0-17.53-2.45-32.98-6.18-42.05,3.73-2.49,6.18-6.74,6.18-11.56Z"/>
            <path class="cls-1" d="M214.9,145.81c0-7.68-6.22-13.9-13.9-13.9s-13.9,6.22-13.9,13.9c0,4.82,2.45,9.06,6.18,11.56-3.73,9.07-6.18,24.52-6.18,42.05h27.8c0-17.53-2.45-32.98-6.18-42.05,3.73-2.49,6.18-6.74,6.18-11.56Z"/>
            <path class="cls-1" d="M248.76,145.81c0-7.68-6.22-13.9-13.9-13.9s-13.9,6.22-13.9,13.9c0,4.82,2.45,9.06,6.18,11.56-3.73,9.07-6.18,24.52-6.18,42.05h27.8c0-17.53-2.45-32.98-6.18-42.05,3.73-2.49,6.18-6.74,6.18-11.56Z"/>
            <path class="cls-7" d="M282.62,145.81c0-7.68-6.22-13.9-13.9-13.9s-13.9,6.22-13.9,13.9c0,4.82,2.45,9.06,6.18,11.56-3.73,9.07-6.18,24.52-6.18,42.05h27.8c0-17.53-2.45-32.98-6.18-42.05,3.73-2.49,6.18-6.74,6.18-11.56Z"/>
            <path class="cls-7" d="M316.47,145.81c0-7.68-6.22-13.9-13.9-13.9s-13.9,6.22-13.9,13.9c0,4.82,2.45,9.06,6.18,11.56-3.73,9.07-6.18,24.52-6.18,42.05h27.8c0-17.53-2.45-32.98-6.18-42.05,3.73-2.49,6.18-6.74,6.18-11.56Z"/>
            <path class="cls-7" d="M350.33,145.81c0-7.68-6.22-13.9-13.9-13.9s-13.9,6.22-13.9,13.9c0,4.82,2.45,9.06,6.18,11.56-3.73,9.07-6.18,24.52-6.18,42.05h27.8c0-17.53-2.45-32.98-6.18-42.05,3.73-2.49,6.18-6.74,6.18-11.56Z"/>
          </g>
        </g>
      </g>
      <path class="cls-11" d="M332.83,196.54H69.17c-3.28,0-5.95-2.67-5.95-5.95v-125.86c0-3.28,2.67-5.95,5.95-5.95h263.66c3.28,0,5.95,2.67,5.95,5.95v125.86c0,3.28-2.67,5.95-5.95,5.95ZM69.17,60.78c-2.18,0-3.95,1.77-3.95,3.95v125.86c0,2.18,1.77,3.95,3.95,3.95h263.66c2.18,0,3.95-1.77,3.95-3.95v-125.86c0-2.18-1.77-3.95-3.95-3.95H69.17Z"/>
    </g>
  </g>
  <g class="cls-8">
    <rect class="cls-6" x="1" y=".5" width="400" height="256"/>
  </g>
</svg>