<?xml version="1.0" encoding="UTF-8"?>
<svg id="Image_Expanded" xmlns="http://www.w3.org/2000/svg" viewBox="0 0 400 256">
  <defs>
    <style>
      .cls-1 {
        fill: #ffa9c2;
      }

      .cls-2 {
        fill: #fff;
      }

      .cls-3 {
        fill: #dfedf2;
      }

      .cls-4 {
        fill: #7a1859;
      }

      .cls-5 {
        fill: #fff8d9;
      }

      .cls-6 {
        fill: #f47aa0;
      }

      .cls-7 {
        fill: #f43f3f;
      }

      .cls-8 {
        fill: #6d3108;
      }

      .cls-9 {
        opacity: 0;
      }

      .cls-10 {
        fill: #ffe277;
      }

      .cls-11 {
        fill: #333;
      }

      .cls-12 {
        fill: #a8b6c1;
      }

      .cls-13 {
        opacity: .5;
      }

      .cls-14 {
        fill: #ffd2e1;
      }
    </style>
  </defs>
  <g>
    <path class="cls-3" d="M205.76,187.75c-15.16,15.16-15.29,25.06-28.96,38.73-10.32,10.32-35.86,1.51-57.04-19.67-21.18-21.18-29.99-46.72-19.67-57.04,13.67-13.67,23.57-13.79,38.73-28.96,16.23-16.23,28.57-38.35,40.98-50.75,12.76-12.76,32.76-18.74,48.41-15.56,10.77,2.18,19.95,9.2,27.3,16.55,10.09,10.09,19.05,23.94,17.96,39.93-.46,6.78-2.97,12.58-5.86,18.95-2.34,5.17-5.26,10.23-9.06,14.63-.66.76-1.34,1.5-2.05,2.21-12.4,12.4-34.52,24.75-50.75,40.98Z"/>
    <g>
      <path class="cls-5" d="M254.69,136.63c0,.25-.03.51-.08.76h0c-.61.84-1.24,1.62-1.89,2.37-.52.6-1.04,1.16-1.55,1.68-.18.18-.37.37-.56.55-5.21,5.07-12.57,10.46-20.36,16.15-9.66,7.06-20.61,15.06-29.83,24.27-8.67,8.68-13.01,15.95-16.85,22.36-3.4,5.7-6.33,10.61-12.1,16.38-4.4,4.4-25.01-.06-45.49-20.54-20.48-20.48-24.93-41.09-20.53-45.49,5.77-5.77,10.68-8.7,16.37-12.11,4.09-2.44,8.54-5.09,13.46-8.94,1.26-.98,2.55-2.05,3.86-3.2,9.17-5.28,30.51-8.97,55.39-8.97,33.24,0,60.17,6.6,60.17,14.73Z"/>
      <path class="cls-2" d="M254.69,136.63c0,.25-.03.51-.08.76h0c-.33,1.62-1.73,3.16-4,4.6-8.74,5.49-30.55,9.39-56.08,9.39-33.23,0-60.17-6.6-60.17-14.74,0-.88.31-1.73.91-2.56.79-1.12,2.11-2.19,3.86-3.2,9.17-5.28,30.51-8.97,55.39-8.97,33.24,0,60.17,6.6,60.17,14.73Z"/>
      <g class="cls-13">
        <path class="cls-5" d="M254.69,136.63c0,.25-.03.51-.08.76h0c-.33,1.62-1.73,3.16-4,4.6-8.74,5.49-30.55,9.39-56.08,9.39-33.23,0-60.17-6.6-60.17-14.74,0-.88.31-1.73.91-2.56.79-1.12,2.11-2.19,3.86-3.2,9.17-5.28,30.51-8.97,55.39-8.97,33.24,0,60.17,6.6,60.17,14.73Z"/>
      </g>
    </g>
    <path class="cls-12" d="M176.8,226.48c-8.76,8.76-28.49,3.73-47.21-10.95,4.3.06,8.66-.45,13.01-1.49,13.98,8.83,25.67,10.28,28.85,7.1,5.77-5.77,8.71-10.68,12.11-16.37,3.79-6.34,8.07-13.51,16.53-22.05,5.54-2.38,11.27-4.15,17.14-5.2-4,3.25-7.89,6.64-11.47,10.23-15.17,15.17-15.29,25.07-28.96,38.73Z"/>
    <path class="cls-2" d="M144.17,126.15c-8.67,8.67-15.94,13.01-22.36,16.85-2.03,1.21-3.96,2.37-5.87,3.61-4.64.92-9.43,1.4-14.21,1.57,12.84-12.12,22.55-12.82,37.11-27.38,16.22-16.22,28.57-38.34,40.97-50.75,4.12-4.12,9-7.53,14.24-10.15-.2,3.12-.55,6.25-1.03,9.35-2.89,1.78-5.56,3.84-7.86,6.15-5.23,5.23-10.8,12.85-16.7,20.92-7.06,9.66-15.06,20.61-24.27,29.82Z"/>
    <path class="cls-11" d="M164.71,232.83c-13.02,0-30.68-8.93-46.36-24.61-10.46-10.45-18.31-22.3-22.12-33.35-3.98-11.54-3.11-20.95,2.45-26.51,6.83-6.83,12.88-10.44,18.72-13.94,6.1-3.65,12.41-7.42,20.01-15.02,8.55-8.55,15.92-18.64,23.06-28.4,6.18-8.46,12.02-16.45,17.92-22.35,12.87-12.87,33.53-19.49,50.22-16.11,9.47,1.92,18.73,7.51,28.32,17.1,9.13,9.13,19.76,23.74,18.54,41.48-.47,6.89-2.9,12.73-6.03,19.64-2.73,6.04-5.8,10.98-9.37,15.11-.7.81-1.42,1.59-2.15,2.32-5.9,5.9-13.89,11.74-22.35,17.92-9.76,7.13-19.85,14.51-28.4,23.06h0c-7.6,7.6-11.37,13.91-15.02,20.01-3.49,5.84-7.1,11.89-13.94,18.72-3.34,3.35-8.01,4.94-13.51,4.94ZM219.46,55.65c-13.56,0-28.35,5.93-38.25,15.82-5.68,5.68-11.43,13.55-17.52,21.88-7.22,9.88-14.69,20.1-23.46,28.87-7.95,7.95-14.48,11.85-20.79,15.62-5.89,3.52-11.46,6.85-17.94,13.33-4.42,4.42-4.95,12.37-1.5,22.38,3.62,10.49,11.14,21.8,21.17,31.83,20.03,20.03,44.85,29.03,54.21,19.67,6.48-6.48,9.81-12.05,13.33-17.94,3.77-6.31,7.67-12.83,15.62-20.79h0s0,0,0,0c8.77-8.77,18.99-16.24,28.87-23.46,8.33-6.09,16.2-11.84,21.88-17.52.66-.66,1.32-1.37,1.96-2.11,3.31-3.83,6.17-8.46,8.75-14.14,3.06-6.76,5.26-12.02,5.68-18.26,1.11-16.25-8.84-29.84-17.38-38.38-9.01-9.01-17.61-14.25-26.29-16.01-2.69-.55-5.5-.81-8.36-.81Z"/>
    <path class="cls-1" d="M280.01,118.4c-4.39,4.39-11.69,5.09-20.23,2.7-10.29-2.87-22.37-10.25-33.22-21.1-.58-.58-1.13-1.15-1.69-1.74-18.61-19.49-26.11-42.32-16.71-51.72,16.94-16.94,42.22-10.05,62.06,9.79,19.84,19.84,26.97,44.87,9.78,62.06Z"/>
    <path class="cls-14" d="M205.32,56.3c5.81-5.15,13-8.53,20.13-9.84,7.13-1.31,14.19-.59,20.39,1.7,2.21.82,4.35,1.84,6.76,2.21s5.21-.03,7.39-1.73c-7.61-4.75-16.07-8.32-25.08-10.6-4.16-1.05-8.59-1.82-13.15-.78-6.96,1.6-13.48,7.75-15.55,14.68"/>
    <path class="cls-6" d="M271.78,116.74c-3.62,2.87-7.78,4.15-11.99,4.37-10.29-2.87-22.37-10.25-33.22-21.1-.58-.58-1.13-1.15-1.69-1.74,5.53.38,11.42-.65,16.99-2.93,6.58-2.69,11.91-6.97,16.92-12.25,3.54-3.72,7.6-7.41,12.61-7.84,11.5-1.01,11.09,16.22,9.55,24.6-1.14,6.16-3.91,12.72-9.16,16.88Z"/>
    <path class="cls-4" d="M268.73,124.47c-3.68,0-7.81-.76-12.28-2.3-10.38-3.57-21.49-10.94-31.3-20.74-20.94-20.94-29.01-45.66-18.39-56.28,8.52-8.52,19.49-11.79,31.73-9.45,11.1,2.12,22.87,8.95,33.16,19.23,10.48,10.48,17.16,21.91,19.33,33.06,2.37,12.21-.93,23.22-9.54,31.83h0s0,0,0,0c-3.09,3.09-7.44,4.65-12.7,4.65ZM231.02,38.97c-8.17,0-15.49,3.05-21.44,9-8.74,8.74-.31,31.92,18.39,50.62,9.38,9.38,19.96,16.41,29.77,19.79,9.33,3.21,16.74,2.71,20.85-1.4h0c7.63-7.63,10.55-17.39,8.44-28.24-1.98-10.21-8.46-21.22-18.23-30.99s-20.76-16.17-31.08-18.13c-2.29-.44-4.53-.65-6.71-.65Z"/>
    <path class="cls-14" d="M227.33,45.23c-2.57.43-5.25,1.56-7.17,3.6-1.92,2.03-2.89,5.06-1.89,7.19.67,1.44,2.13,2.31,3.75,2.61s3.38.07,5.11-.34c2.17-.51,4.38-1.34,6.26-2.76s3.4-3.53,3.73-5.7c.83-5.63-5.69-5.27-9.77-4.6Z"/>
    <path class="cls-12" d="M180.21,81.45c-.2,0-.41-.06-.59-.19-.45-.32-.55-.95-.22-1.4,2.54-3.5,5.82-6.56,9.48-8.85.47-.29,1.09-.15,1.38.32.29.47.15,1.09-.32,1.38-3.45,2.16-6.53,5.04-8.92,8.33-.2.27-.5.41-.81.41Z"/>
    <path class="cls-12" d="M188.41,197.31c-.17,0-.33-.04-.49-.13-.48-.27-.65-.88-.38-1.36,4.13-7.38,10.36-14.3,19.05-21.15,4.86-3.84,10.04-7.5,15.05-11.04,10.21-7.22,20.76-14.68,29.23-24.03,1.78-1.96,3.48-4.03,5.05-6.14.33-.44.95-.53,1.4-.21.44.33.53.96.2,1.4-1.61,2.16-3.35,4.28-5.17,6.29-8.61,9.51-19.26,17.04-29.55,24.32-4.99,3.53-10.14,7.17-14.96,10.98-8.47,6.69-14.54,13.41-18.54,20.55-.18.33-.52.51-.87.51Z"/>
    <path class="cls-12" d="M110.7,181.97c-.3,0-.59-.13-.79-.38-3.86-4.88-6.17-9.84-6.88-14.75-.85-5.95.83-11.8,4.49-15.64,3.43-3.6,8.37-5.93,12.73-7.98l1.04-.49c7.3-3.46,13.92-8.28,20.83-15.15,12.97-12.89,24.39-27.34,33.96-42.93.29-.47.91-.62,1.38-.33.47.29.62.9.33,1.38-9.65,15.73-21.17,30.3-34.25,43.3-7.08,7.04-13.87,11.98-21.39,15.54l-1.05.5c-4.41,2.08-8.96,4.23-12.13,7.55-3.24,3.4-4.72,8.63-3.96,13.98.65,4.55,2.83,9.19,6.46,13.79.34.43.27,1.06-.16,1.4-.18.15-.4.22-.62.22Z"/>
    <path class="cls-2" d="M173.2,103.52c-1.28,3.12-1.98,6.82-.36,9.78,1.86,3.41,6.32,4.73,10.14,3.99s7.11-3.08,10.14-5.51c3.46-2.78,6.83-5.86,8.85-9.8s2.5-8.95.18-12.73c-7.82-12.79-25.73,6.41-28.95,14.27Z"/>
    <path class="cls-10" d="M278.12,87.1c-3.64,3.03-8.93,1.53-13.03-.71-3.69-2.01-7.12-4.54-10.23-7.47-4.22-4-7.83-8.75-10.58-14.03-1.12-2.15-2.11-4.43-2.35-6.89-.24-2.45.37-5.1,2.07-6.77,2.42-2.4,6.13-2.13,9.43-2.22,6.85-.18,16.03-2.59,20.65-8.47,4.55-5.81,6.05-13.18,14.08-14.83,4.82-.99,10.13.88,13.24,4.95.86,1.12,1.53,2.4,2,3.75,1.25,3.57,1.11,7.71-.64,11.05-2.45,4.66-7.31,7.1-11.15,10.54-4.81,4.32-8.12,10.53-9.15,17.17-.77,4.97-.63,10.85-4.35,13.93Z"/>
    <path class="cls-5" d="M265.45,77.37c-3.22,1.71-6.96,2.12-10.58,1.55-4.22-4-7.83-8.75-10.58-14.03-1.12-2.15-2.11-4.43-2.35-6.89-.24-2.45.37-5.1,2.07-6.77,2.42-2.4,6.13-2.13,9.43-2.22,6.85-.18,16.03-2.59,20.65-8.47,4.55-5.81,6.05-13.18,14.08-14.83,4.82-.99,10.13.88,13.24,4.95.86,1.12,1.53,2.4,2,3.75l-2.41-2.1c1.49,4.59-1.65,9.48-5.48,12.43-3.82,2.94-8.46,4.79-11.99,8.09-7.51,7.03-9,19.68-18.08,24.54Z"/>
    <path class="cls-8" d="M273.11,90.81c-2.69,0-5.73-.89-8.97-2.67-9.01-4.94-16.69-12.87-21.62-22.33-1.11-2.13-2.29-4.71-2.57-7.61-.33-3.3.67-6.44,2.65-8.4,2.71-2.68,6.38-2.73,9.62-2.77.39,0,.78-.01,1.16-.02h0c6.16-.16,14.87-2.28,19.13-7.71,1.22-1.56,2.25-3.3,3.24-4.99,2.66-4.53,5.42-9.21,12.02-10.56,5.71-1.17,11.69,1.07,15.23,5.69,3.65,4.76,4.28,11.73,1.54,16.94-1.91,3.63-5.01,5.98-8.01,8.24-1.27.96-2.46,1.86-3.57,2.85-4.46,4-7.56,9.83-8.51,15.99-.15.94-.26,1.92-.37,2.9-.5,4.34-1.07,9.27-4.67,12.27-1.74,1.45-3.87,2.17-6.29,2.17ZM253.48,51.01c-.4.01-.8.02-1.21.02-2.72.04-5.3.07-6.87,1.62-1.12,1.1-1.69,3.08-1.48,5.15.22,2.23,1.21,4.36,2.14,6.16,4.57,8.77,11.67,16.11,19.99,20.67,2.68,1.47,7.65,3.54,10.78.93,2.37-1.98,2.8-5.71,3.26-9.65.12-1.04.24-2.06.39-3.06,1.09-7.06,4.66-13.75,9.79-18.36,1.23-1.11,2.55-2.1,3.83-3.07,2.77-2.09,5.38-4.07,6.88-6.91,2.01-3.82,1.52-9.14-1.17-12.65-2.58-3.37-7.1-5.06-11.26-4.21-4.85.99-6.85,4.38-9.37,8.67-1.06,1.8-2.15,3.66-3.54,5.43-5.11,6.51-14.81,9.04-22.17,9.24h0Z"/>
    <path class="cls-2" d="M283.94,32.86c-.51,1.57.12,3.5,1.58,4.27,1.15.61,2.58.45,3.76-.1,2.22-1.04,4.78-4.43,2.25-6.49-2.38-1.93-6.66-.5-7.59,2.32Z"/>
  </g>
  <g class="cls-9">
    <rect class="cls-7" width="400" height="256"/>
  </g>
</svg>