<?xml version="1.0" encoding="UTF-8"?>
<svg id="Image_Expanded" xmlns="http://www.w3.org/2000/svg" viewBox="0 0 400 256">
  <defs>
    <style>
      .cls-1 {
        fill: #4d4d4d;
      }

      .cls-2 {
        fill: #f43f3f;
      }

      .cls-3 {
        fill: #666;
      }

      .cls-4 {
        opacity: 0;
      }

      .cls-5 {
        fill: #333;
      }

      .cls-6 {
        fill: #999;
      }

      .cls-7 {
        fill: gray;
      }
    </style>
  </defs>
  <path class="cls-6" d="M109.99,188.95h180.02c5.97,0,10.83,4.85,10.83,10.83v30.06H99.16v-30.06c0-5.97,4.85-10.83,10.83-10.83Z"/>
  <path class="cls-7" d="M109.99,196.31h180.02c5.97,0,10.83,4.85,10.83,10.83v22.7H99.16v-22.7c0-5.97,4.85-10.83,10.83-10.83Z"/>
  <rect class="cls-3" x="99.16" y="222.36" width="201.68" height="7.47"/>
  <path class="cls-5" d="M300.84,231.83H99.16c-1.1,0-2-.9-2-2v-30.06c0-7.07,5.75-12.83,12.83-12.83h180.02c7.07,0,12.83,5.75,12.83,12.83v30.06c0,1.1-.9,2-2,2ZM101.16,227.83h197.68v-28.06c0-4.87-3.96-8.83-8.83-8.83H109.99c-4.87,0-8.83,3.96-8.83,8.83v28.06Z"/>
  <path class="cls-6" d="M200,20.15h0c47.49,0,86.05,38.56,86.05,86.05v82.75H113.95v-82.75c0-47.49,38.56-86.05,86.05-86.05Z"/>
  <path class="cls-7" d="M286.05,110.55v79.01H121.73v-79.01c0-45.38,36.78-82.16,82.16-82.16s82.16,36.78,82.16,82.16Z"/>
  <path class="cls-3" d="M258.1,110.47v78.48h-116.19v-78.48c0-32.09,26.01-58.1,58.1-58.1s58.1,26.01,58.1,58.1Z"/>
  <path class="cls-7" d="M258.1,115.81v73.14h-109.4v-73.14c0-30.21,24.49-54.7,54.7-54.7s54.7,24.49,54.7,54.7Z"/>
  <path class="cls-5" d="M286.05,190.95H113.95c-1.1,0-2-.9-2-2v-82.75c0-48.55,39.5-88.05,88.05-88.05s88.05,39.5,88.05,88.05v82.75c0,1.1-.9,2-2,2ZM115.95,186.95h168.1v-80.75c0-46.34-37.7-84.05-84.05-84.05s-84.05,37.7-84.05,84.05v80.75Z"/>
  <path class="cls-1" d="M258.21,186.5c-.55,0-1-.45-1-1v-58.5c0-.55.45-1,1-1s1,.45,1,1v58.5c0,.55-.45,1-1,1Z"/>
  <g>
    <path class="cls-1" d="M178.22,128.78c0,.93-.26,1.65-.79,2.16-.53.51-1.35.76-2.46.76s-1.95-.25-2.47-.76c-.52-.51-.78-1.23-.78-2.16v-26.93c0-.95.26-1.69.78-2.22.52-.53,1.27-.79,2.23-.79h6.98c2.23,0,4.16.23,5.78.69,1.62.46,2.96,1.1,4.01,1.93,1.05.83,1.83,1.82,2.33,2.95.5,1.14.75,2.38.75,3.73,0,1.12-.16,2.16-.47,3.11-.32.95-.76,1.8-1.33,2.56-.57.76-1.26,1.42-2.06,1.97-.81.55-1.7,1-2.68,1.33l6.12,9.42c.27.41.46.77.58,1.07.12.3.18.62.18.95,0,.46-.11.88-.32,1.27s-.49.73-.84,1.02-.75.52-1.2.69c-.45.17-.91.25-1.36.25s-.86-.08-1.2-.23c-.34-.15-.64-.35-.89-.61-.1-.1-.19-.19-.27-.28-.09-.1-.17-.2-.24-.31s-.15-.23-.23-.36-.17-.27-.26-.43l-6.6-11.13h-3.27v10.34ZM181.56,113.41c1.06,0,1.98-.12,2.78-.36.79-.24,1.45-.57,1.97-1s.91-.94,1.16-1.54c.25-.6.38-1.26.38-1.97s-.12-1.36-.36-1.93c-.24-.58-.61-1.07-1.13-1.47-.51-.4-1.18-.72-2-.94-.82-.22-1.82-.33-2.99-.33h-3.16v9.54h3.35Z"/>
    <path class="cls-1" d="M200.69,101.59c0-.93.27-1.65.81-2.16.54-.51,1.37-.76,2.49-.76s1.98.25,2.51.76c.54.51.81,1.23.81,2.16v27.19c0,.93-.27,1.65-.81,2.16-.54.51-1.38.76-2.51.76s-1.95-.25-2.49-.76c-.54-.51-.81-1.23-.81-2.16v-27.19Z"/>
    <path class="cls-1" d="M221.68,128.78c0,.93-.27,1.65-.79,2.16-.53.51-1.36.76-2.5.76s-1.97-.25-2.49-.76c-.52-.51-.78-1.23-.78-2.16v-26.93c0-.95.26-1.69.78-2.22.52-.53,1.27-.79,2.23-.79h6.86c2.1,0,3.93.24,5.49.72,1.56.48,2.85,1.16,3.88,2.04,1.03.88,1.8,1.93,2.3,3.16s.76,2.59.76,4.09c0,1.66-.27,3.16-.82,4.51-.55,1.34-1.36,2.49-2.43,3.44-1.08.95-2.42,1.68-4.05,2.21-1.62.52-3.51.78-5.66.78h-2.78v8.99ZM224.82,114.81c1.88,0,3.34-.49,4.37-1.48,1.03-.99,1.54-2.34,1.54-4.07s-.49-3.05-1.47-3.97c-.98-.92-2.51-1.39-4.6-1.39h-2.97v10.91h3.13Z"/>
  </g>
  <path class="cls-1" d="M222.91,159.43h-57.38c-.55,0-1-.45-1-1s.45-1,1-1h57.38c.55,0,1,.45,1,1s-.45,1-1,1Z"/>
  <path class="cls-1" d="M243.07,159.43h-9.41c-.55,0-1-.45-1-1s.45-1,1-1h9.41c.55,0,1,.45,1,1s-.45,1-1,1Z"/>
  <path class="cls-1" d="M215.48,168.22h-30.95c-.55,0-1-.45-1-1s.45-1,1-1h30.95c.55,0,1,.45,1,1s-.45,1-1,1Z"/>
  <g class="cls-4">
    <rect class="cls-2" width="400" height="256"/>
  </g>
</svg>