<?xml version="1.0" encoding="UTF-8"?>
<svg id="Image_Expanded" xmlns="http://www.w3.org/2000/svg" xmlns:xlink="http://www.w3.org/1999/xlink" viewBox="0 0 400 256">
  <defs>
    <style>
      .cls-1 {
        fill: #d87625;
      }

      .cls-2 {
        fill: #fff8d9;
      }

      .cls-3 {
        fill: #f4b545;
      }

      .cls-4 {
        fill: none;
      }

      .cls-5 {
        fill: #f43f3f;
      }

      .cls-6 {
        fill: #6d3108;
      }

      .cls-7 {
        opacity: 0;
      }

      .cls-8 {
        fill: #ffe277;
      }

      .cls-9 {
        clip-path: url(#clippath);
      }

      .cls-10 {
        opacity: .5;
      }
    </style>
    <clipPath id="clippath">
      <rect class="cls-4" x="40.03" y="61.81" width="325.45" height="146.99" rx="9.21" ry="9.21"/>
    </clipPath>
  </defs>
  <rect class="cls-8" x="40.03" y="61.81" width="325.45" height="146.99" rx="9.21" ry="9.21"/>
  <g class="cls-9">
    <rect class="cls-2" x="57.1" y="-21.16" width="93.98" height="306.62" transform="translate(80.02 -34.34) rotate(30)"/>
    <rect class="cls-3" x="373.42" y="-38.96" width="9.4" height="306.62" transform="translate(107.83 -173.74) rotate(30)"/>
    <rect class="cls-3" x="269.89" y="-26.52" width="70.24" height="306.62" transform="translate(104.26 -135.52) rotate(30)"/>
    <g class="cls-10">
      <path class="cls-3" d="M92.02,232.84c-.27,0-.47-.03-.7-.08-2.85-.65-6.7-5.41-10.27-12.73-4-8.19-7.07-18.36-8.67-28.7-24.12-3.51-41.79-14.43-41.83-18.82,0-.27.04-.56.12-.87,1.53-5.32,18.39-15.23,41.38-18.77,3.51-24.14,14.43-41.8,18.83-41.83.15,0,.3.01.44.03.15.02.28.05.41.08.69.21,1.38.59,2.08,1.16,5.91,4.65,13.74,20.95,16.69,40.24,24.12,3.51,41.8,14.42,41.85,18.81,0,.27-.03.49-.08.71-1.22,5.34-17.94,15.33-41.42,18.92-3.51,24.15-14.43,41.82-18.83,41.85ZM90.88,112.04c-3.47.02-14.37,16.52-17.89,41.34-.03.22-.2.39-.42.42-22.45,3.38-39.5,13.13-40.94,18.1-.06.21-.09.43-.09.6.03,3.47,16.55,14.37,41.34,17.89.22.03.39.2.42.42,1.57,10.36,4.63,20.58,8.63,28.77,3.34,6.84,7.12,11.63,9.62,12.2.15.04.28.05.45.05,3.47-.02,14.35-16.49,17.88-41.27,0-.05,0-.11.02-.16.06-.18.21-.32.4-.35,22.92-3.42,39.84-13.24,40.98-18.23.04-.15.05-.28.05-.47-.03-3.46-16.53-14.35-41.31-17.88-.23-.01-.43-.19-.47-.43-3.16-21.17-11.48-36.12-16.38-39.97-.6-.48-1.19-.81-1.73-.98-.06-.02-.15-.04-.24-.05-.11-.01-.23-.02-.34-.02Z"/>
      <path class="cls-3" d="M91.45,187.4c-8.46,0-15.38-6.85-15.46-15.32-.07-8.52,6.8-15.52,15.32-15.59.04,0,.09,0,.14,0,8.46,0,15.38,6.85,15.46,15.32.07,8.52-6.8,15.52-15.33,15.59-.04,0-.09,0-.14,0ZM91.45,157.48s-.08,0-.13,0c-7.97.07-14.4,6.61-14.33,14.59.07,7.93,6.54,14.33,14.46,14.33.04,0,.08,0,.13,0,7.97-.07,14.4-6.61,14.33-14.59-.07-7.93-6.54-14.33-14.46-14.33Z"/>
      <rect class="cls-3" x="106.41" y="170.86" width="45.44" height="1"/>
      <rect class="cls-3" x="90.38" y="111.54" width="1" height="45.44"/>
      <rect class="cls-3" x="91.08" y="186.9" width="1" height="45.44"/>
      <rect class="cls-3" x="31.45" y="171.57" width="45.04" height="1"/>
      <rect class="cls-3" x="100.16" y="156.59" width="11.62" height="1" transform="translate(-80.04 120.94) rotate(-45)"/>
      <rect class="cls-3" x="71.11" y="186.26" width="11.69" height="1" transform="translate(-109.52 109.11) rotate(-45)"/>
      <rect class="cls-3" x="105.78" y="180.63" width="1" height="11.64" transform="translate(-100.71 129.76) rotate(-45)"/>
      <rect class="cls-3" x="76.11" y="151.61" width="1" height="11.63" transform="translate(-88.88 100.28) rotate(-45)"/>
    </g>
    <g class="cls-10">
      <path class="cls-3" d="M150.38,157.11c-.09,0-.21,0-.35-.04-1.21-.28-2.75-2.15-4.21-5.13-1.54-3.16-2.74-7.08-3.38-11.07-9.04-1.37-16.35-5.55-16.37-7.62,0-.13.02-.27.06-.42.71-2.48,7.75-6.17,16.18-7.52,1.37-9.05,5.55-16.36,7.62-16.37.07,0,.14,0,.21.01.08,0,.14.02.2.04.32.1.62.26.93.51,2.33,1.83,5.4,8.17,6.59,15.68,9.05,1.37,16.36,5.55,16.38,7.61,0,.1,0,.22-.04.36-.55,2.42-7.71,6.23-16.2,7.57-1.37,9.05-5.55,16.37-7.62,16.38ZM149.94,109.94c-1.1,0-5.34,6.43-6.68,15.88-.03.22-.2.39-.42.42-9.31,1.4-15.28,5.26-15.74,6.85-.02.07-.02.13-.02.15.01,1.1,6.44,5.34,15.88,6.68.22.03.39.2.42.42.61,4.02,1.79,7.98,3.34,11.15,1.44,2.95,2.82,4.43,3.55,4.6l.11.51v-.5c1.1,0,5.33-6.41,6.68-15.84,0-.05.01-.1.03-.15.06-.17.21-.3.39-.33,9.11-1.36,15.37-5.23,15.75-6.88l.51-.11h-.5c-.01-1.1-6.43-5.33-15.86-6.68-.23-.02-.42-.19-.45-.42-1.22-8.18-4.41-13.94-6.28-15.41-.26-.21-.45-.29-.57-.33-.07-.01-.1-.02-.14-.02Z"/>
      <path class="cls-3" d="M150.16,139.37c-3.47,0-6.31-2.81-6.34-6.29-.01-1.69.63-3.29,1.82-4.5,1.19-1.21,2.77-1.88,4.47-1.9,1.72.02,3.29.63,4.5,1.82,1.21,1.19,1.88,2.77,1.9,4.47h0c.03,3.5-2.79,6.37-6.29,6.4h-.06ZM150.16,127.68h-.05c-1.43.01-2.76.58-3.76,1.6s-1.54,2.36-1.53,3.79c.03,2.93,2.42,5.29,5.34,5.29h.05c2.94-.03,5.32-2.44,5.29-5.39-.01-1.43-.58-2.76-1.6-3.76-1.01-.99-2.33-1.53-3.74-1.53Z"/>
      <rect class="cls-3" x="153.56" y="126.73" width="4.54" height="1" transform="translate(-44.32 147.45) rotate(-45)"/>
      <rect class="cls-3" x="142.21" y="138.31" width="4.57" height="1" transform="translate(-55.83 142.83) rotate(-45)"/>
      <rect class="cls-3" x="143.86" y="125.09" width="1" height="4.54" transform="translate(-47.77 139.37) rotate(-45)"/>
      <rect class="cls-3" x="155.45" y="136.42" width="1" height="4.54" transform="translate(-52.39 150.91) rotate(-45)"/>
    </g>
    <g class="cls-10">
      <path class="cls-1" d="M328.22,127.27c-.14,0-.26-.01-.38-.05-1.34-.31-3.14-2.49-4.77-5.84-1.77-3.63-3.14-8.14-3.87-12.72-10.35-1.55-18.73-6.32-18.75-8.66,0-.15.02-.3.07-.46.81-2.82,8.87-7.04,18.54-8.57,1.55-10.36,6.32-18.73,8.67-18.75.08,0,.15,0,.23.01.09.01.16.03.22.04.35.11.69.29,1.04.57,2.66,2.1,6.18,9.36,7.54,17.98,10.35,1.55,18.73,6.31,18.76,8.66,0,.1,0,.24-.05.39-.63,2.76-8.83,7.1-18.55,8.63-1.55,10.37-6.32,18.74-8.67,18.76ZM327.72,73.22c-1.32,0-6.16,7.19-7.73,18.26-.03.22-.2.39-.42.42-10.7,1.61-17.56,6.06-18.09,7.9-.03.1-.03.16-.03.19.01,1.32,7.2,6.16,18.26,7.73.22.03.39.2.42.42.7,4.61,2.06,9.15,3.84,12.79,1.66,3.4,3.26,5.11,4.12,5.31.05.01.09.02.14.02,1.32,0,6.15-7.17,7.72-18.21,0-.05,0-.09.02-.14.06-.18.21-.31.4-.34,10.47-1.56,17.67-6.03,18.11-7.94.01-.05.02-.09.02-.15-.01-1.28-7.39-6.18-18.23-7.72-.23-.02-.42-.19-.45-.42-1.4-9.4-5.07-16.01-7.22-17.71-.24-.19-.48-.33-.68-.39-.09-.02-.14-.02-.18-.02Z"/>
      <path class="cls-1" d="M327.97,106.94c-1.9,0-3.68-.73-5.04-2.06-1.37-1.35-2.13-3.15-2.15-5.07-.03-3.97,3.16-7.22,7.13-7.26.02,0,.04,0,.06,0,3.94,0,7.16,3.19,7.19,7.13.02,1.92-.72,3.73-2.06,5.1-1.35,1.37-3.15,2.13-5.07,2.15-.02,0-.04,0-.07,0ZM327.97,93.55s-.04,0-.06,0c-3.41.03-6.17,2.83-6.14,6.25.01,1.65.67,3.2,1.85,4.36,1.18,1.16,2.75,1.76,4.39,1.78,3.42-.03,6.17-2.83,6.14-6.25-.03-3.4-2.8-6.14-6.19-6.14Z"/>
      <rect class="cls-1" x="331.87" y="92.6" width="5.2" height="1" transform="translate(32.13 263.77) rotate(-45)"/>
      <rect class="cls-1" x="318.87" y="105.87" width="5.23" height="1" transform="translate(18.94 258.48) rotate(-45)"/>
      <rect class="cls-1" x="320.83" y="90.65" width="1" height="5.2" transform="translate(28.18 254.53) rotate(-45)"/>
      <rect class="cls-1" x="334.11" y="103.63" width="1" height="5.21" transform="translate(22.88 267.72) rotate(-45)"/>
    </g>
    <g class="cls-10">
      <path class="cls-3" d="M51.5,146.93c-.07,0-.16,0-.28-.03-1.16-.26-2.33-2.43-2.78-3.35-.97-1.99-1.72-4.44-2.14-6.94-5.53-.87-10.39-3.47-10.41-4.99,0-.1.01-.21.04-.32.46-1.62,4.92-4,10.28-4.88.87-5.54,3.47-10.4,4.99-10.41.05,0,.1,0,.15,0,.03,0,.13.02.15.03.23.07.44.19.66.36,1.47,1.16,3.43,5.01,4.23,9.93,5.53.87,10.39,3.47,10.41,4.99,0,.1-.01.19-.03.27-.37,1.61-4.82,4.03-10.29,4.92-.87,5.54-3.47,10.4-4.99,10.41ZM51.25,117.02c-.68.15-3.26,4.02-4.09,9.91-.03.22-.2.39-.42.42-5.59.84-9.54,3.21-9.83,4.21.14.69,4.01,3.27,9.91,4.1.22.03.39.2.42.42.38,2.53,1.13,5.02,2.1,7.02.94,1.93,1.79,2.74,2.13,2.82.67-.14,3.24-3.99,4.08-9.87,0-.04,0-.08.02-.11.05-.19.21-.33.4-.36,5.97-.89,9.65-3.4,9.84-4.23-.15-.67-4.01-3.25-9.89-4.08-.22-.02-.41-.19-.45-.42-.76-5.08-2.79-8.77-3.92-9.66-.15-.12-.25-.16-.3-.18Z"/>
      <path class="cls-3" d="M51.35,135.68c-2.3,0-4.19-1.86-4.21-4.17,0-1.12.42-2.18,1.21-2.98s1.84-1.25,2.96-1.26h.04c2.3,0,4.18,1.86,4.21,4.17h0c0,1.12-.42,2.18-1.21,2.98s-1.84,1.25-2.96,1.26h-.04ZM51.35,128.27h-.03c-.86,0-1.66.35-2.26.96-.6.61-.93,1.42-.92,2.27.01,1.76,1.45,3.18,3.21,3.18h.03c.86,0,1.66-.35,2.26-.96.6-.61.93-1.42.92-2.27h0c-.01-1.76-1.45-3.18-3.21-3.18Z"/>
    </g>
    <rect class="cls-2" x="203.59" y="-36.61" width="18.79" height="306.62" transform="translate(86.89 -90.86) rotate(30)"/>
  </g>
  <path class="cls-6" d="M356.26,210.79H49.24c-6.18,0-11.21-5.03-11.21-11.22V71.02c0-6.18,5.03-11.22,11.21-11.22h307.02c6.18,0,11.21,5.03,11.21,11.22v128.56c0,6.18-5.03,11.22-11.21,11.22ZM49.24,63.81c-3.98,0-7.21,3.24-7.21,7.22v128.56c0,3.98,3.24,7.22,7.21,7.22h307.02c3.98,0,7.21-3.24,7.21-7.22V71.02c0-3.98-3.24-7.22-7.21-7.22H49.24Z"/>
  <g>
    <path class="cls-6" d="M79.56,100.38c.38,0,.67.11.89.34s.33.58.33,1.05-.11.83-.32,1.05c-.22.23-.52.34-.9.34h-7.45c-.51,0-.9-.14-1.17-.42s-.41-.67-.41-1.17v-14.17c0-.49.14-.87.42-1.14.28-.27.72-.4,1.31-.4s1.04.13,1.32.4c.28.27.42.65.42,1.14v12.96h5.55Z"/>
    <path class="cls-6" d="M82.68,94.82c0-1.42.2-2.7.61-3.83.41-1.13.98-2.08,1.72-2.86.74-.78,1.63-1.38,2.67-1.79,1.04-.41,2.19-.62,3.46-.62s2.34.2,3.34.59,1.86.96,2.57,1.7c.71.75,1.26,1.65,1.65,2.72.39,1.06.58,2.27.58,3.62,0,1.42-.2,2.7-.61,3.82-.41,1.12-.98,2.08-1.72,2.86-.74.78-1.63,1.38-2.67,1.79-1.04.41-2.19.62-3.45.62s-2.34-.2-3.34-.59-1.86-.96-2.57-1.7c-.71-.74-1.26-1.64-1.65-2.71-.39-1.06-.59-2.27-.59-3.62ZM86.25,94.56c0,1,.12,1.88.37,2.64.25.76.59,1.4,1.02,1.92s.93.9,1.51,1.17c.58.26,1.2.39,1.85.39s1.27-.13,1.85-.39c.57-.26,1.07-.64,1.5-1.15.42-.51.76-1.14,1-1.9.24-.75.36-1.63.36-2.63s-.12-1.88-.37-2.65c-.25-.77-.58-1.4-1.02-1.92-.43-.51-.94-.9-1.52-1.16s-1.2-.39-1.85-.39-1.27.13-1.84.39c-.57.26-1.07.64-1.49,1.15-.42.51-.76,1.14-1,1.9s-.37,1.64-.37,2.63Z"/>
    <path class="cls-6" d="M102.4,88.78c-.37,0-.67-.11-.89-.34-.22-.23-.33-.58-.33-1.06s.11-.83.33-1.05c.22-.23.51-.34.89-.34h11.34c.38,0,.67.11.89.34.22.23.32.58.32,1.05s-.11.83-.32,1.06c-.22.23-.51.34-.89.34h-3.93v12.96c0,.49-.14.87-.43,1.14-.28.27-.72.4-1.32.4s-1.03-.13-1.32-.4c-.28-.27-.43-.65-.43-1.14v-12.96h-3.93Z"/>
    <path class="cls-6" d="M117.88,88.78c-.37,0-.67-.11-.89-.34-.22-.23-.33-.58-.33-1.06s.11-.83.33-1.05c.22-.23.51-.34.89-.34h11.34c.38,0,.67.11.89.34.22.23.32.58.32,1.05s-.11.83-.32,1.06c-.22.23-.51.34-.89.34h-3.93v12.96c0,.49-.14.87-.43,1.14-.28.27-.72.4-1.32.4s-1.03-.13-1.32-.4c-.28-.27-.43-.65-.43-1.14v-12.96h-3.93Z"/>
    <path class="cls-6" d="M137.25,100.47h5.87c.36,0,.64.11.86.34.21.23.32.57.32,1.02s-.11.79-.32,1.01c-.21.22-.5.34-.86.34h-7.76c-.51,0-.9-.14-1.17-.42s-.41-.67-.41-1.17v-14.03c0-.5.14-.89.41-1.17s.67-.42,1.17-.42h7.7c.37,0,.66.11.87.34.21.23.32.56.32,1.01s-.11.79-.32,1.02c-.21.23-.5.34-.87.34h-5.8v4.38h4.96c.35,0,.63.11.84.34.21.22.32.56.32,1s-.11.76-.32.99c-.21.22-.49.34-.84.34h-4.96v4.74Z"/>
    <path class="cls-6" d="M151.77,101.73c0,.49-.14.87-.42,1.14-.28.27-.71.4-1.29.4s-1.02-.13-1.3-.4c-.27-.27-.41-.65-.41-1.14v-14.17c0-.5.14-.89.41-1.17s.67-.42,1.17-.42h3.67c1.17,0,2.19.12,3.04.36.85.24,1.56.58,2.11,1.02s.96.96,1.22,1.55c.26.6.39,1.25.39,1.96,0,.59-.08,1.14-.25,1.64-.17.5-.4.95-.7,1.35s-.66.75-1.09,1.04c-.42.29-.89.52-1.41.7l3.22,4.96c.14.22.24.4.31.56.06.16.09.32.09.5,0,.24-.06.46-.17.67-.11.2-.26.38-.44.54-.18.15-.39.27-.63.36-.24.09-.48.13-.72.13s-.45-.04-.63-.12-.33-.19-.47-.32c-.05-.05-.1-.1-.14-.15-.05-.05-.09-.1-.12-.16s-.08-.12-.12-.19c-.04-.07-.09-.14-.14-.22l-3.47-5.85h-1.72v5.44ZM153.53,93.64c.56,0,1.04-.06,1.46-.19.42-.12.76-.3,1.04-.52.27-.23.48-.5.61-.81.13-.32.2-.66.2-1.04s-.06-.71-.19-1.02-.32-.56-.59-.77c-.27-.21-.62-.38-1.05-.49s-.96-.17-1.57-.17h-1.66v5.02h1.76Z"/>
    <path class="cls-6" d="M163.19,88.96c-.08-.13-.16-.26-.23-.37-.07-.12-.12-.23-.17-.34-.05-.11-.08-.21-.11-.31-.02-.1-.04-.21-.04-.32,0-.27.06-.51.18-.72.12-.22.28-.4.47-.56.19-.15.4-.27.63-.36.23-.08.45-.12.67-.12.24,0,.44.04.61.12.16.08.3.17.41.28.1.1.2.22.29.37s.21.35.36.62l2.7,4.79c.09.17.17.33.25.49.07.16.15.3.21.42.08.15.14.29.2.42h.05c.06-.14.12-.29.19-.44.06-.13.12-.28.2-.45.07-.17.16-.33.25-.5l2.55-4.73c.15-.28.26-.49.34-.63.08-.14.17-.26.28-.37.12-.12.27-.22.44-.29.17-.07.35-.11.54-.11.22,0,.45.04.67.12.22.08.42.2.59.34.17.15.31.32.42.51.11.2.16.41.16.64,0,.22-.05.42-.14.61-.09.19-.22.41-.37.68l-4.61,7.74v5.23c0,.49-.14.87-.42,1.14-.28.27-.72.4-1.32.4s-1.03-.13-1.31-.4c-.28-.27-.42-.65-.42-1.14v-5.23l-4.51-7.54Z"/>
  </g>
  <g>
    <path class="cls-6" d="M222.06,91.26c-.1.05-.2.09-.27.12-.08.03-.14.06-.2.08-.06.02-.12.04-.17.04-.05,0-.11.01-.16.01-.11,0-.21-.02-.3-.06-.09-.04-.17-.1-.24-.17s-.12-.15-.15-.24-.05-.19-.05-.29c0-.22.08-.41.24-.57.1-.1.3-.25.57-.42s.64-.39,1.08-.63c.24-.13.45-.24.63-.34.18-.09.34-.17.49-.23.14-.06.28-.1.4-.13.12-.03.24-.04.36-.04.31,0,.56.09.74.26.17.18.26.42.26.74v9.04c0,.3-.09.54-.26.7-.18.16-.45.24-.81.24s-.63-.08-.8-.24c-.17-.16-.26-.4-.26-.7v-7.66l-1.09.5Z"/>
    <path class="cls-6" d="M238.84,96.45c-.42,0-.74-.1-.95-.31-.21-.2-.31-.49-.31-.85,0-.09,0-.18.02-.27.01-.08.04-.17.07-.25s.07-.17.12-.27c.05-.09.11-.2.19-.31l3.19-4.74c.14-.21.27-.38.41-.52s.28-.26.43-.34c.15-.09.31-.15.48-.19s.36-.06.57-.06c.45,0,.78.1,1,.29.22.19.33.48.33.86v5.29h.97c.22,0,.4.07.53.21.13.14.2.35.2.61s-.07.48-.2.62-.31.21-.53.21h-.97v1.99c0,.31-.08.54-.24.7-.16.15-.42.23-.79.23s-.6-.08-.77-.23c-.17-.15-.25-.39-.25-.7v-1.99h-3.51ZM242.35,90.55l-2.83,4.24h2.83v-4.24Z"/>
    <path class="cls-6" d="M258.66,91.26c-.1.05-.2.09-.27.12-.08.03-.14.06-.2.08-.06.02-.12.04-.17.04-.05,0-.11.01-.16.01-.11,0-.21-.02-.3-.06-.09-.04-.17-.1-.24-.17s-.12-.15-.15-.24-.05-.19-.05-.29c0-.22.08-.41.24-.57.1-.1.3-.25.57-.42s.64-.39,1.08-.63c.24-.13.45-.24.63-.34.18-.09.34-.17.49-.23.14-.06.28-.1.4-.13.12-.03.24-.04.36-.04.31,0,.56.09.74.26.17.18.26.42.26.74v9.04c0,.3-.09.54-.26.7-.18.16-.45.24-.81.24s-.63-.08-.8-.24c-.17-.16-.26-.4-.26-.7v-7.66l-1.09.5Z"/>
    <path class="cls-6" d="M276.77,92.52c.8.03,1.48.14,2.05.32.57.18,1.03.43,1.39.73.36.3.62.66.79,1.06.17.41.25.85.25,1.33,0,.52-.09.99-.26,1.42-.18.43-.44.8-.78,1.11s-.78.55-1.29.72c-.51.17-1.1.26-1.77.26-.33,0-.63-.02-.9-.06-.27-.04-.51-.09-.71-.15-.2-.06-.38-.13-.52-.2s-.25-.15-.32-.22c-.09-.09-.17-.2-.22-.3-.05-.11-.07-.24-.07-.39,0-.22.06-.39.19-.52.13-.13.29-.19.49-.19.12,0,.23.02.33.07s.24.1.39.15.33.11.54.15c.21.05.47.07.78.07s.58-.04.83-.13.45-.2.61-.35c.17-.15.29-.33.37-.55.08-.21.12-.45.12-.71,0-.28-.06-.55-.18-.79s-.32-.45-.59-.63c-.27-.18-.62-.31-1.04-.41s-.94-.15-1.54-.15c-.27,0-.46-.07-.58-.2-.12-.13-.18-.33-.17-.59l.21-4.05c0-.28.09-.5.24-.64.15-.14.37-.21.66-.21h4.14c.23,0,.41.07.54.22.14.14.21.36.21.65s-.07.51-.21.66c-.14.14-.32.22-.54.22h-3.29l-.11,2.31Z"/>
    <path class="cls-6" d="M294.18,91.26c-.1.05-.2.09-.27.12-.08.03-.14.06-.2.08-.06.02-.12.04-.17.04-.05,0-.11.01-.16.01-.11,0-.21-.02-.3-.06-.09-.04-.17-.1-.24-.17s-.12-.15-.15-.24-.05-.19-.05-.29c0-.22.08-.41.24-.57.1-.1.3-.25.57-.42s.64-.39,1.08-.63c.24-.13.45-.24.63-.34.18-.09.34-.17.49-.23.14-.06.28-.1.4-.13.12-.03.24-.04.36-.04.31,0,.56.09.74.26.17.18.26.42.26.74v9.04c0,.3-.09.54-.26.7-.18.16-.45.24-.81.24s-.63-.08-.8-.24c-.17-.16-.26-.4-.26-.7v-7.66l-1.09.5Z"/>
    <path class="cls-6" d="M311.07,91.26c-.1.05-.2.09-.27.12-.08.03-.14.06-.2.08-.06.02-.12.04-.17.04-.05,0-.11.01-.16.01-.11,0-.21-.02-.3-.06-.09-.04-.17-.1-.24-.17s-.12-.15-.15-.24-.05-.19-.05-.29c0-.22.08-.41.24-.57.1-.1.3-.25.57-.42s.64-.39,1.08-.63c.24-.13.45-.24.63-.34.18-.09.34-.17.49-.23.14-.06.28-.1.4-.13.12-.03.24-.04.36-.04.31,0,.56.09.74.26.17.18.26.42.26.74v9.04c0,.3-.09.54-.26.7-.18.16-.45.24-.81.24s-.63-.08-.8-.24c-.17-.16-.26-.4-.26-.7v-7.66l-1.09.5Z"/>
    <path class="cls-6" d="M332.95,97.58c.23,0,.41.07.54.22.13.15.2.36.2.65s-.07.51-.2.65-.31.22-.54.22h-5.38c-.36,0-.64-.1-.84-.29-.2-.19-.3-.45-.3-.77,0-.21.04-.41.13-.59.08-.18.21-.37.39-.57l1.89-2.1c.4-.44.74-.82,1.03-1.15.29-.33.52-.63.7-.9s.31-.53.4-.78.13-.5.13-.77c0-.47-.14-.83-.41-1.08-.27-.25-.7-.37-1.29-.37-.23,0-.44.02-.61.06-.18.04-.34.08-.48.13-.14.05-.27.09-.39.13-.12.04-.23.06-.33.06-.19,0-.34-.06-.46-.18s-.18-.29-.18-.5c0-.23.08-.42.24-.58.09-.09.22-.18.38-.26.17-.09.37-.17.6-.24s.5-.13.79-.17c.3-.04.62-.07.97-.07.58,0,1.08.07,1.51.2.43.13.79.32,1.07.56s.5.53.64.87c.14.34.21.71.21,1.12s-.06.82-.18,1.19c-.12.37-.3.74-.55,1.12-.25.38-.56.78-.94,1.21s-.82.91-1.34,1.46l-1.46,1.54h4.06Z"/>
  </g>
  <g>
    <path class="cls-6" d="M241.79,131.34v-.69l2.58-2.82c.3-.33.55-.62.75-.86.2-.25.34-.48.44-.69.1-.22.14-.45.14-.68,0-.27-.07-.51-.2-.71-.13-.2-.31-.36-.54-.47s-.48-.16-.76-.16c-.3,0-.56.06-.78.19s-.39.3-.52.52c-.12.22-.18.48-.18.78h-.9c0-.46.11-.86.32-1.21.21-.35.5-.62.86-.81s.78-.29,1.23-.29.86.1,1.22.29c.35.19.63.45.83.78s.3.69.3,1.1c0,.29-.05.57-.15.84-.1.27-.28.58-.53.91-.25.33-.6.74-1.05,1.22l-1.75,1.88v.06h3.63v.84h-4.93Z"/>
    <path class="cls-6" d="M247.94,129.73v-.78l3.43-5.43h.57v1.21h-.38l-2.59,4.11v.06h4.62v.84h-5.65ZM251.62,131.34v-7.81h.9v7.81h-.9Z"/>
    <path class="cls-6" d="M261.17,123.52h.95v5.59c0,.5-.09.92-.27,1.27-.18.35-.44.61-.77.79s-.73.27-1.18.27c-.43,0-.81-.08-1.14-.23-.33-.16-.59-.38-.79-.67-.19-.29-.29-.63-.29-1.03h.93c0,.22.05.41.17.58.11.16.26.29.46.38.19.09.41.14.66.14.27,0,.5-.06.7-.17.19-.11.34-.28.44-.51.1-.22.15-.5.15-.82v-5.59Z"/>
    <path class="cls-6" d="M269.14,123.52h.95v5.17c0,.53-.12,1.01-.38,1.43-.25.42-.6.75-1.06.99-.46.24-.99.36-1.6.36s-1.15-.12-1.6-.36-.81-.57-1.06-.99c-.25-.42-.38-.9-.38-1.43v-5.17h.95v5.1c0,.38.08.72.25,1.02s.41.53.72.7c.31.17.69.25,1.12.25s.81-.08,1.12-.25c.31-.17.55-.4.72-.7.17-.3.25-.64.25-1.02v-5.1Z"/>
    <path class="cls-6" d="M278.18,123.52v7.81h-.92l-4.26-6.14h-.08v6.14h-.95v-7.81h.92l4.27,6.15h.08v-6.15h.93Z"/>
    <path class="cls-6" d="M280.07,131.34v-7.81h4.72v.84h-3.77v2.64h3.53v.84h-3.53v2.66h3.83v.84h-4.78Z"/>
    <path class="cls-6" d="M292.13,123.52v7.81h-.95v-6.82h-.05l-1.91,1.27v-.96l1.95-1.3h.95Z"/>
    <path class="cls-6" d="M296.86,123.42c.32,0,.64.06.96.18.32.12.61.32.88.59s.48.65.64,1.13c.16.48.24,1.07.24,1.79s-.07,1.31-.2,1.85c-.13.54-.32.99-.57,1.36-.25.37-.54.65-.89.84-.35.19-.74.29-1.18.29s-.83-.09-1.17-.26c-.34-.17-.62-.42-.84-.73-.22-.31-.36-.67-.42-1.09h.93c.08.36.25.65.5.89.25.23.58.35.99.35.6,0,1.08-.26,1.43-.79s.52-1.27.52-2.23h-.06c-.14.21-.31.4-.51.55-.2.15-.41.27-.65.36s-.49.13-.76.13c-.45,0-.86-.11-1.23-.33-.37-.22-.67-.53-.89-.92s-.33-.84-.33-1.34c0-.48.11-.92.32-1.31.22-.4.52-.72.91-.95.39-.24.85-.35,1.38-.34ZM296.86,124.25c-.32,0-.61.08-.86.24-.26.16-.46.37-.61.64-.15.27-.22.57-.22.89s.07.62.22.89.34.48.59.63c.25.16.54.23.86.23.24,0,.47-.05.67-.14.21-.1.39-.23.55-.39s.28-.36.37-.57.13-.43.13-.67c0-.31-.07-.59-.22-.86-.15-.27-.35-.48-.6-.65s-.55-.25-.87-.25Z"/>
    <path class="cls-6" d="M303.71,131.44c-.5,0-.95-.09-1.34-.26-.39-.17-.71-.41-.93-.72-.23-.31-.36-.67-.38-1.08h.96c.02.25.11.47.26.65.15.18.35.32.6.42.25.1.52.15.82.15.33,0,.63-.06.89-.18.26-.12.46-.28.61-.49s.22-.45.22-.73-.07-.54-.21-.76-.35-.39-.63-.52-.61-.19-1.01-.19h-.63v-.84h.63c.31,0,.58-.06.82-.17s.42-.27.55-.47.2-.44.2-.72-.06-.49-.17-.69c-.12-.2-.28-.35-.49-.46-.21-.11-.46-.16-.75-.16-.27,0-.52.05-.76.15-.24.1-.43.24-.58.42-.15.18-.23.41-.24.67h-.92c.01-.41.14-.77.37-1.08s.53-.55.91-.72c.38-.17.79-.26,1.24-.26.48,0,.9.1,1.24.29.35.19.61.45.8.77.19.32.28.66.28,1.03,0,.44-.12.82-.34,1.13-.23.31-.54.52-.94.64v.06c.49.08.88.29,1.16.63.28.34.42.75.42,1.25,0,.42-.12.81-.35,1.14-.23.34-.54.6-.94.8-.4.19-.85.29-1.35.29Z"/>
    <path class="cls-6" d="M307.91,131.34v-.69l2.58-2.82c.3-.33.55-.62.75-.86.2-.25.34-.48.44-.69.1-.22.14-.45.14-.68,0-.27-.07-.51-.2-.71-.13-.2-.31-.36-.54-.47s-.48-.16-.76-.16c-.3,0-.56.06-.78.19s-.39.3-.52.52c-.12.22-.18.48-.18.78h-.9c0-.46.11-.86.32-1.21.21-.35.5-.62.86-.81s.78-.29,1.23-.29.86.1,1.22.29c.35.19.63.45.83.78s.3.69.3,1.1c0,.29-.05.57-.15.84-.1.27-.28.58-.53.91-.25.33-.6.74-1.05,1.22l-1.75,1.88v.06h3.63v.84h-4.93Z"/>
  </g>
  <g>
    <path class="cls-6" d="M229.81,157.37v-7.81h3.08c.59,0,1.1.11,1.51.34s.74.54.96.94c.22.4.33.86.33,1.38s-.11.98-.34,1.37c-.22.4-.55.71-.97.93-.42.22-.94.33-1.54.33h-1.97v-1.32h1.7c.32,0,.58-.06.79-.17.21-.11.36-.26.47-.46.1-.2.15-.42.15-.68s-.05-.49-.15-.68c-.1-.19-.26-.35-.47-.45-.21-.11-.47-.16-.79-.16h-1.11v6.46h-1.65Z"/>
    <path class="cls-6" d="M239.31,157.49c-.6,0-1.12-.12-1.55-.37-.43-.25-.77-.59-1-1.05-.23-.45-.35-.99-.35-1.6s.12-1.13.35-1.59c.23-.46.56-.81.99-1.06.43-.25.93-.38,1.5-.38.39,0,.75.06,1.08.19.33.12.63.31.88.56.25.25.45.56.59.93.14.37.21.81.21,1.31v.45h-4.95v-1.01h3.42c0-.23-.05-.44-.15-.62s-.24-.32-.42-.43-.39-.15-.62-.15-.46.06-.65.17-.34.26-.44.45-.16.4-.16.63v.96c0,.29.05.54.16.75.11.21.26.37.46.49.2.11.43.17.71.17.18,0,.35-.03.5-.08.15-.05.28-.13.38-.23.11-.1.19-.23.24-.37l1.5.1c-.08.36-.23.68-.47.94-.24.27-.54.48-.91.63-.37.15-.8.22-1.28.22Z"/>
    <path class="cls-6" d="M243.06,157.37v-5.86h1.58v1.02h.06c.11-.36.29-.64.54-.83.25-.19.54-.28.87-.28.08,0,.17,0,.26.02.09.01.18.02.25.04v1.44c-.08-.02-.18-.04-.32-.06-.14-.02-.26-.03-.37-.03-.24,0-.45.05-.64.15-.19.1-.33.25-.44.43s-.16.39-.16.63v3.32h-1.63Z"/>
    <path class="cls-6" d="M248.27,150.76c-.24,0-.45-.08-.62-.24-.17-.16-.26-.35-.26-.58s.09-.42.26-.58c.17-.16.38-.24.62-.24s.45.08.62.24c.17.16.26.35.26.58s-.09.42-.26.58c-.17.16-.38.24-.62.24ZM247.46,157.37v-5.86h1.63v5.86h-1.63Z"/>
    <path class="cls-6" d="M253.03,157.49c-.59,0-1.1-.13-1.54-.38-.43-.25-.76-.61-1-1.06-.23-.45-.35-.98-.35-1.58s.12-1.14.35-1.59c.23-.45.57-.81,1-1.06.43-.25.94-.38,1.54-.38s1.1.13,1.54.38c.43.25.76.61,1,1.06.23.45.35.98.35,1.59s-.12,1.13-.35,1.58c-.23.45-.57.81-1,1.06-.43.25-.94.38-1.54.38ZM253.03,156.23c.27,0,.49-.08.67-.23s.32-.36.41-.63c.09-.27.14-.57.14-.91s-.05-.65-.14-.91-.23-.48-.41-.63-.41-.23-.67-.23-.5.08-.69.23-.32.37-.42.63c-.09.27-.14.57-.14.91s.05.64.14.91c.09.27.23.48.42.63s.41.23.69.23Z"/>
    <path class="cls-6" d="M259.13,157.47c-.45,0-.85-.11-1.21-.35-.36-.23-.64-.57-.85-1.02-.21-.45-.31-1-.31-1.65s.11-1.23.32-1.68c.22-.45.5-.78.86-1,.36-.22.75-.33,1.18-.33.33,0,.6.06.82.17.22.11.4.25.53.41s.24.33.31.48h.05v-2.94h1.62v7.81h-1.6v-.94h-.07c-.08.16-.18.32-.32.48-.14.16-.32.29-.54.4-.22.1-.49.16-.8.16ZM259.65,156.17c.26,0,.48-.07.67-.22.18-.14.32-.35.42-.6s.15-.56.15-.91-.05-.65-.14-.91c-.1-.26-.24-.46-.42-.6-.18-.14-.41-.21-.67-.21s-.49.07-.67.22c-.18.15-.32.35-.42.6-.09.26-.14.55-.14.89s.05.64.14.9c.09.26.23.46.42.61.18.15.41.22.67.22Z"/>
    <path class="cls-6" d="M271.83,157.54c-.66,0-1.22-.16-1.69-.48-.47-.32-.83-.78-1.09-1.39-.25-.61-.38-1.34-.38-2.19,0-.85.13-1.58.38-2.18.25-.6.62-1.06,1.09-1.37s1.04-.47,1.69-.47,1.22.16,1.69.47.83.77,1.09,1.37c.25.6.38,1.32.38,2.18,0,.86-.13,1.59-.38,2.2s-.62,1.07-1.09,1.39-1.03.48-1.69.48ZM271.83,156.17c.45,0,.81-.23,1.07-.68.27-.45.4-1.13.4-2.03,0-.59-.06-1.09-.18-1.48-.12-.39-.29-.69-.51-.89-.22-.2-.48-.3-.78-.3-.45,0-.8.22-1.07.67-.27.44-.4,1.11-.4,2,0,.6.06,1.1.18,1.5.12.4.29.7.51.9s.48.3.78.3Z"/>
    <path class="cls-6" d="M279.56,149.56v7.81h-1.65v-6.25h-.05l-1.79,1.12v-1.47l1.93-1.22h1.55Z"/>
    <path class="cls-6" d="M293.18,151.8c-.03-.31-.16-.55-.39-.72s-.55-.26-.94-.26c-.27,0-.5.04-.68.11-.19.08-.33.18-.43.31s-.15.28-.15.45c0,.14.03.26.09.37.07.1.16.19.27.27.11.08.25.14.4.19s.31.1.48.14l.7.17c.34.08.65.18.94.31.28.13.53.28.74.47.21.19.37.4.49.66.12.25.17.54.18.87,0,.48-.12.89-.36,1.24s-.59.62-1.04.81c-.45.19-1,.29-1.63.29s-1.18-.1-1.65-.29-.83-.48-1.09-.86c-.26-.38-.4-.85-.41-1.41h1.6c.02.26.09.48.23.65.13.17.31.31.54.39.23.09.48.13.77.13s.52-.04.73-.12.37-.19.48-.34.17-.31.17-.5c0-.18-.05-.32-.15-.44-.1-.12-.25-.22-.45-.31s-.44-.16-.72-.23l-.85-.21c-.66-.16-1.18-.41-1.56-.75s-.57-.8-.57-1.38c0-.47.12-.89.38-1.24.26-.35.61-.63,1.06-.83.45-.2.96-.3,1.53-.3s1.09.1,1.52.3c.43.2.77.47,1.01.83.24.35.37.76.37,1.23h-1.58Z"/>
    <path class="cls-6" d="M298.62,157.49c-.6,0-1.12-.12-1.55-.37-.43-.25-.77-.59-1-1.05-.23-.45-.35-.99-.35-1.6s.12-1.13.35-1.59c.23-.46.56-.81.99-1.06.43-.25.93-.38,1.5-.38.39,0,.75.06,1.08.19.33.12.63.31.88.56.25.25.45.56.59.93.14.37.21.81.21,1.31v.45h-4.95v-1.01h3.42c0-.23-.05-.44-.15-.62s-.24-.32-.42-.43-.39-.15-.62-.15-.46.06-.65.17-.34.26-.44.45-.16.4-.16.63v.96c0,.29.05.54.16.75.11.21.26.37.46.49.2.11.43.17.71.17.18,0,.35-.03.5-.08.15-.05.28-.13.38-.23.11-.1.19-.23.24-.37l1.5.1c-.08.36-.23.68-.47.94-.24.27-.54.48-.91.63-.37.15-.8.22-1.28.22Z"/>
    <path class="cls-6" d="M305.49,151.51v1.22h-3.53v-1.22h3.53ZM302.76,150.11h1.62v5.46c0,.15.02.27.07.35.05.08.11.14.19.17s.18.05.29.05c.08,0,.15,0,.23-.02.08-.01.13-.02.18-.03l.26,1.21c-.08.03-.2.06-.34.09s-.33.06-.54.06c-.39.02-.73-.04-1.03-.16s-.52-.31-.68-.56-.24-.57-.24-.95v-5.68Z"/>
    <path class="cls-6" d="M314.34,149.45c.4,0,.79.07,1.16.2.37.13.71.35,1,.65.29.29.53.69.7,1.17.17.49.26,1.08.26,1.79,0,.66-.07,1.26-.22,1.78-.15.52-.36.96-.64,1.33s-.61.64-1,.83c-.39.19-.83.28-1.31.28-.52,0-.98-.1-1.38-.3-.4-.2-.72-.48-.96-.83s-.39-.74-.44-1.18h1.63c.06.29.2.51.4.66.2.16.46.23.75.23.51,0,.9-.22,1.16-.67s.4-1.05.4-1.83h-.05c-.12.23-.28.43-.47.59s-.42.29-.68.38c-.26.09-.53.13-.81.13-.46,0-.87-.11-1.23-.32-.36-.22-.65-.51-.85-.89-.21-.38-.31-.81-.31-1.3,0-.52.12-.99.36-1.4.24-.41.59-.73,1.02-.96s.95-.35,1.53-.35ZM314.35,150.75c-.26,0-.49.06-.69.18-.2.12-.36.29-.47.49-.12.21-.17.44-.17.69,0,.26.06.49.17.69.11.2.27.37.46.49.2.12.42.18.68.18.19,0,.37-.04.53-.11.16-.07.3-.17.43-.3s.22-.27.28-.44.1-.34.1-.53c0-.25-.06-.47-.17-.68-.12-.21-.27-.37-.47-.5s-.43-.19-.68-.19Z"/>
    <path class="cls-6" d="M321.43,149.45c.4,0,.79.07,1.16.2.37.13.71.35,1,.65.29.29.53.69.7,1.17.17.49.26,1.08.26,1.79,0,.66-.07,1.26-.22,1.78-.15.52-.36.96-.64,1.33s-.61.64-1,.83c-.39.19-.83.28-1.31.28-.52,0-.98-.1-1.38-.3-.4-.2-.72-.48-.96-.83s-.39-.74-.44-1.18h1.63c.06.29.2.51.4.66.2.16.46.23.75.23.51,0,.9-.22,1.16-.67s.4-1.05.4-1.83h-.05c-.12.23-.28.43-.47.59s-.42.29-.68.38c-.26.09-.53.13-.81.13-.46,0-.87-.11-1.23-.32-.36-.22-.65-.51-.85-.89-.21-.38-.31-.81-.31-1.3,0-.52.12-.99.36-1.4.24-.41.59-.73,1.02-.96s.95-.35,1.53-.35ZM321.44,150.75c-.26,0-.49.06-.69.18-.2.12-.36.29-.47.49-.12.21-.17.44-.17.69,0,.26.06.49.17.69.11.2.27.37.46.49.2.12.42.18.68.18.19,0,.37-.04.53-.11.16-.07.3-.17.43-.3s.22-.27.28-.44.1-.34.1-.53c0-.25-.06-.47-.17-.68-.12-.21-.27-.37-.47-.5s-.43-.19-.68-.19Z"/>
  </g>
  <g>
    <rect class="cls-6" x="220.69" y="164.36" width="1.51" height="26.86"/>
    <rect class="cls-6" x="223.54" y="164.36" width="1.51" height="26.86"/>
    <rect class="cls-6" x="227.91" y="164.36" width="1.34" height="26.86"/>
    <rect class="cls-6" x="229.25" y="164.36" width="1.51" height="26.86"/>
    <rect class="cls-6" x="232.1" y="164.36" width="1.51" height="26.86"/>
    <rect class="cls-6" x="234.96" y="164.36" width="1.51" height="26.86"/>
    <rect class="cls-6" x="237.81" y="164.36" width="1.51" height="26.86"/>
    <rect class="cls-6" x="241.42" y="164.36" width=".76" height="26.86"/>
    <rect class="cls-6" x="243.52" y="164.36" width="1.51" height="26.86"/>
    <rect class="cls-6" x="247.89" y="164.36" width="1.51" height="26.86"/>
    <rect class="cls-6" x="249.23" y="164.36" width="1.51" height="26.86"/>
    <rect class="cls-6" x="252.08" y="164.36" width="1.51" height="26.86"/>
    <rect class="cls-6" x="254.94" y="164.36" width=".76" height="26.86"/>
    <rect class="cls-6" x="257.79" y="164.36" width="1.51" height="26.86"/>
    <rect class="cls-6" x="260.65" y="164.36" width="1.51" height="26.86"/>
    <rect class="cls-6" x="265.01" y="164.36" width="1.34" height="26.86"/>
    <rect class="cls-6" x="266.35" y="164.36" width="1.51" height="26.86"/>
    <rect class="cls-6" x="269.21" y="164.36" width="1.51" height="26.86"/>
    <rect class="cls-6" x="270.72" y="164.36" width="1.34" height="26.86"/>
    <rect class="cls-6" x="274.92" y="164.36" width="1.51" height="26.86"/>
    <rect class="cls-6" x="278.53" y="164.36" width=".76" height="26.86"/>
    <rect class="cls-6" x="281.38" y="164.36" width=".76" height="26.86"/>
    <rect class="cls-6" x="283.48" y="164.36" width="1.51" height="26.86"/>
    <rect class="cls-6" x="286.33" y="164.36" width="1.51" height="26.86"/>
    <rect class="cls-6" x="289.19" y="164.36" width=".74" height="26.86"/>
    <rect class="cls-6" x="293.55" y="164.36" width="1.34" height="26.86"/>
    <rect class="cls-6" x="294.9" y="164.36" width="1.51" height="26.86"/>
    <rect class="cls-6" x="297.75" y="164.36" width="1.51" height="26.86"/>
    <rect class="cls-6" x="300.6" y="164.36" width=".76" height="26.86"/>
    <rect class="cls-6" x="304.21" y="164.36" width=".76" height="26.86"/>
    <rect class="cls-6" x="306.31" y="164.36" width="1.51" height="26.86"/>
    <rect class="cls-6" x="309.17" y="164.36" width="1.51" height="26.86"/>
    <rect class="cls-6" x="313.53" y="164.36" width="1.34" height="26.86"/>
    <rect class="cls-6" x="314.87" y="164.36" width="1.51" height="26.86"/>
    <rect class="cls-6" x="317.73" y="164.36" width="1.51" height="26.86"/>
    <rect class="cls-6" x="320.58" y="164.36" width="1.51" height="26.86"/>
    <rect class="cls-6" x="324.05" y="164.36" width=".9" height="26.86"/>
    <rect class="cls-6" x="326.29" y="164.36" width="1.51" height="26.86"/>
    <rect class="cls-6" x="327.8" y="164.36" width="1.34" height="26.86"/>
    <rect class="cls-6" x="332.75" y="164.36" width=".76" height="26.86"/>
  </g>
  <g class="cls-7">
    <rect class="cls-5" width="400" height="256"/>
  </g>
</svg>