<?xml version="1.0" encoding="UTF-8"?>
<svg id="Image_Expanded" xmlns="http://www.w3.org/2000/svg" viewBox="0 0 400 256">
  <defs>
    <style>
      .cls-1 {
        fill: #dd2a39;
      }

      .cls-2 {
        fill: #f43f3f;
      }

      .cls-3 {
        opacity: 0;
      }

      .cls-4 {
        fill: #b51933;
      }

      .cls-5 {
        fill: #ff7d63;
      }

      .cls-6 {
        fill: #7a1839;
      }
    </style>
  </defs>
  <g>
    <g>
      <path class="cls-6" d="M226.58,68.78c-1.26,0-2.54-.07-3.82-.22-.96-.1-1.87-.24-2.74-.41-4.49-.86-8.77-2.6-12.36-5.03-7.96-5.36-11.97-13.58-10.47-21.45,1.12-5.91,5.12-10.83,11.24-13.86,5.75-2.84,12.77-3.67,19.76-2.34,13.38,2.55,23.12,12.26,23.16,23.11v.02c0,1.14-.11,2.27-.32,3.37-1.63,8.51-9.43,14.99-19.87,16.49-1.5.22-3.04.33-4.59.33ZM221.66,32.85c-3.5,0-6.83.72-9.68,2.13-3.82,1.89-6.28,4.8-6.93,8.19-.9,4.67,1.82,9.78,7.08,13.32,2.71,1.83,5.95,3.15,9.4,3.81.66.13,1.34.23,2.1.31,2.19.25,4.33.22,6.38-.08,7.02-1.01,12.18-4.97,13.16-10.08.12-.6.17-1.22.17-1.85-.03-6.91-7.19-13.47-16.66-15.27-1.7-.32-3.38-.48-5.03-.48Z"/>
      <path class="cls-6" d="M218.27,84.55c-.83,0-1.65-.26-2.34-.76l-10.6-7.64c-1.68-1.21-2.16-3.5-1.1-5.28,1.36-2.3,2.07-5.13,1.98-7.95-.02-.81-.1-1.61-.25-2.4-.32-1.78-.95-3.44-1.84-4.92-.68-1.12-.77-2.51-.24-3.71.53-1.2,1.62-2.06,2.92-2.3,7.47-1.4,15.31-.9,22.66,1.46,3.08.98,6.06,2.29,8.84,3.9,1.08.62,1.8,1.71,1.96,2.94.16,1.23-.25,2.47-1.13,3.35-2.02,2.03-3.83,3.96-5.53,5.9-4.34,4.88-8.37,10.13-12,15.62-.6.91-1.55,1.53-2.62,1.73-.24.04-.48.07-.72.07ZM212.72,71.62l4.55,3.29c3.21-4.56,6.67-8.95,10.33-13.07.65-.75,1.32-1.49,2.01-2.24-.85-.34-1.72-.65-2.6-.93-4.45-1.43-9.12-2.04-13.71-1.81.21.73.38,1.48.52,2.24.21,1.2.34,2.41.37,3.6.09,3.09-.42,6.12-1.49,8.92Z"/>
      <path class="cls-6" d="M184.68,223.26c-2.13,0-4.32-.2-6.52-.62-6.99-1.34-13.21-4.7-17.5-9.46-4.57-5.07-6.47-11.12-5.34-17.04.58-3.04,1.92-5.82,3.97-8.26,5.75-6.86,16.36-9.98,27.03-7.94,6.99,1.34,13.21,4.7,17.5,9.46,4.57,5.07,6.47,11.12,5.34,17.04,0,0,0,0,0,.01-.32,1.67-.89,3.29-1.67,4.8-3.87,7.51-12.76,12.01-22.8,12.01ZM179.88,187.33c-5.96,0-11.43,2.07-14.47,5.7-1.17,1.39-1.92,2.93-2.24,4.61-.65,3.4.57,7.01,3.42,10.18,3.13,3.48,7.77,5.95,13.07,6.96,8.97,1.71,17.68-1.32,20.72-7.21.44-.84.75-1.73.92-2.65.65-3.39-.57-7-3.42-10.17-3.13-3.48-7.77-5.95-13.07-6.96-1.65-.32-3.31-.47-4.93-.47ZM205.23,205.69h0,0Z"/>
      <path class="cls-6" d="M168.78,199.21c-1.91,0-3.6-1.38-3.94-3.33-.37-2.18,1.09-4.25,3.27-4.62,3.05-.52,5.83-2.82,6.92-5.72.78-2.07,3.08-3.11,5.15-2.34,2.07.78,3.11,3.08,2.34,5.15-2.09,5.55-7.21,9.78-13.06,10.79-.23.04-.46.06-.68.06Z"/>
      <path class="cls-6" d="M195.94,206.88c-1.81,0-3.45-1.24-3.89-3.08-1.29-5.47-1.66-11.08-1.08-16.67.23-2.2,2.2-3.8,4.39-3.57,2.2.23,3.79,2.19,3.57,4.39-.49,4.7-.18,9.4.91,14,.51,2.15-.82,4.3-2.97,4.81-.31.07-.62.11-.92.11Z"/>
      <path class="cls-6" d="M108.93,131.53c-2.01,0-4.02-.3-5.98-.92-6.24-1.96-11.23-7.01-13.7-13.86-2.26-6.24-2.32-13.48-.14-20.39,2.24-7.1,6.58-13.12,12.23-16.93,5.93-4.01,12.59-5.15,18.74-3.21,8.73,2.75,14.61,11.11,15.36,21.81.28,3.94-.18,7.94-1.35,11.89-.06.21-.12.41-.19.63-1.32,4.19-3.48,8.17-6.22,11.43-5.18,6.17-12,9.56-18.75,9.56ZM114.13,83.31c-2.76,0-5.62.93-8.31,2.75-4.16,2.81-7.38,7.32-9.08,12.71-1.65,5.24-1.64,10.67.03,15.27,1.64,4.55,4.69,7.73,8.58,8.95,5.38,1.7,11.58-.66,16.19-6.15,2.08-2.47,3.71-5.5,4.74-8.76.05-.16.08-.25.1-.34,0-.02.01-.04.02-.06.9-3.04,1.25-6.09,1.04-9.08-.51-7.35-4.26-13-9.78-14.74-1.15-.36-2.34-.54-3.55-.54Z"/>
      <path class="cls-6" d="M102.46,127.26c-1.09,0-2.16-.45-2.92-1.27-1.04-1.12-1.36-2.73-.81-4.16l15.18-39.68c.57-1.49,1.96-2.49,3.55-2.57,1.59-.08,3.07.8,3.77,2.23l.09.19c2.71,5.51,5.04,10.27,9.81,11.94.55.19,1.12.4,1.72.62,1.23.46,2.53.96,3.87,1.49,1.85.72,3.76,1.47,5.66,2.14,4.02,1.42,7.01,2.17,9.43,2.37,1.28.1,2.44.81,3.1,1.91s.77,2.45.27,3.63l-6.05,14.34c-.61,1.43-1.52,3.6-3.59,5.05-4.16,2.93-8.98.69-11.86-.65-2.14-.99-5.25-1.5-9.02-1.44-8.37.08-17.5,2.6-21.04,3.68-.38.12-.78.17-1.17.17ZM125.19,115.4c4.74,0,8.74.74,11.88,2.19.98.45,3.26,1.52,3.94,1.33.18-.18.58-1.13.77-1.58l4.1-9.72c-1.84-.46-3.88-1.08-6.15-1.89-2.02-.72-3.99-1.49-5.89-2.23-1.3-.51-2.56-1-3.76-1.44-.54-.2-1.05-.39-1.55-.56-4.7-1.65-7.83-4.81-10.23-8.41l-9.3,24.32c4.54-1.01,10.17-1.96,15.6-2.01.2,0,.41,0,.61,0Z"/>
      <path class="cls-6" d="M200.46,198.36c-4.86,0-9.79-.52-14.73-1.61-24.7-5.44-44.31-23.95-51.2-48.3-3.05-10.77-3.39-22.29-.96-33.3,3.93-17.86,14.59-33.13,30-42.98,15.41-9.85,33.74-13.11,51.6-9.17,3.44.75,6.86,1.79,10.15,3.07,15.07,5.85,27.63,16.94,35.36,31.23,7.82,14.44,10.17,31.24,6.64,47.3h0c-7.03,31.93-35.43,53.76-66.87,53.76ZM200.33,69.38c-11.41,0-22.6,3.25-32.45,9.54-13.61,8.7-23.02,22.18-26.5,37.96-2.14,9.73-1.85,19.89.84,29.4,6.08,21.52,23.41,37.87,45.22,42.67,32.57,7.17,64.9-13.5,72.06-46.06h0c6.36-28.87-9.58-58.68-37.08-69.35-2.91-1.13-5.93-2.05-8.97-2.71-4.37-.96-8.76-1.44-13.13-1.44Z"/>
      <path class="cls-6" d="M189.92,181.29c-4.56,0-9.14-.5-13.7-1.5-17.43-3.83-32.49-14.93-41.31-30.46-.16-.28-.28-.58-.37-.89-3.05-10.77-3.39-22.29-.96-33.3,3.93-17.86,14.59-33.13,30-42.98,15.41-9.85,33.74-13.11,51.6-9.17,3.44.75,6.86,1.79,10.15,3.07.3.12.59.27.85.46,20.83,14.7,30.75,40.28,25.26,65.18-3.62,16.47-13.45,30.54-27.66,39.62-10.28,6.57-21.96,9.96-33.88,9.96ZM142.1,145.8c7.74,13.34,20.77,22.87,35.83,26.18,14.38,3.17,29.14.54,41.55-7.39,12.41-7.93,20.99-20.22,24.15-34.6h0c4.75-21.59-3.75-43.76-21.67-56.64-2.77-1.05-5.63-1.9-8.51-2.54-15.78-3.48-31.96-.6-45.58,8.1-13.61,8.7-23.02,22.18-26.5,37.96-2.11,9.57-1.86,19.56.71,28.93Z"/>
      <path class="cls-6" d="M141.12,159.09c-1.56,0-3.03-.92-3.67-2.42-1.13-2.63-2.11-5.4-2.91-8.22-3.05-10.77-3.38-22.28-.96-33.3,3.93-17.86,14.59-33.13,30-42.98,15.41-9.85,33.74-13.11,51.6-9.17.97.21,1.94.45,2.9.71,1.06.28,1.97.99,2.49,1.96.52.97.63,2.11.28,3.16-.09.27-.15.52-.17.73-.23,2.15-2.11,3.73-4.28,3.57-33.36-2.55-63.96,20.2-71.17,52.92-2.07,9.4-2.14,18.9-.19,28.23.42,2.01-.75,4.01-2.71,4.63-.4.13-.81.19-1.21.19ZM165.25,80.69c-5.62,4.01-10.43,8.87-14.31,14.39,4.12-5.43,8.94-10.27,14.31-14.39Z"/>
      <path class="cls-6" d="M167.29,94.28c-1.52,0-3.01-.24-4.38-.73-3.08-1.09-5.35-3.34-6.25-6.18-.9-2.83-.33-5.98,1.55-8.65,1.67-2.36,4.25-4.19,7.26-5.14,3.01-.95,6.17-.95,8.9.03,3.08,1.09,5.35,3.34,6.25,6.18h0c.9,2.83.33,5.99-1.55,8.65-1.67,2.37-4.25,4.19-7.26,5.15-1.49.47-3.02.71-4.51.71ZM169.98,80.87c-.68,0-1.39.11-2.1.33-1.33.42-2.48,1.2-3.14,2.14-.2.29-.65,1.01-.46,1.61.19.6.98.94,1.3,1.06,1.08.38,2.47.36,3.8-.06,1.34-.42,2.48-1.2,3.14-2.14.2-.28.65-1.01.46-1.61,0,0,0,0,0,0-.19-.6-.97-.94-1.3-1.05-.51-.18-1.09-.27-1.7-.27Z"/>
      <path class="cls-6" d="M118.95,212.74c-6.93,0-14.5-2.9-20.7-8.57-11.35-10.37-13.9-26.12-5.68-35.11,8.21-8.99,24.13-7.87,35.48,2.5,11.35,10.37,13.9,26.12,5.68,35.11h0c-3.72,4.08-9.03,6.07-14.78,6.07ZM107.36,170.91c-3.53,0-6.7,1.16-8.89,3.55-5.24,5.73-2.92,16.41,5.17,23.8,8.09,7.39,18.94,8.74,24.17,3.01,5.24-5.73,2.92-16.41-5.17-23.8-4.71-4.3-10.36-6.56-15.29-6.56ZM130.78,203.97h0,0Z"/>
      <path class="cls-6" d="M241.78,111.35c-3.6,0-7.33-2.1-9.73-5.84-1.98-3.1-2.62-6.69-1.74-9.85.62-2.2,1.9-3.97,3.7-5.12,4.59-2.93,10.9-.96,14.4,4.47.02.03.03.05.05.08,3,4.74,2.73,10.56-.64,13.85-.38.38-.83.74-1.32,1.06-1.45.93-3.07,1.37-4.72,1.37ZM238.69,97.19c-.15,0-.27.03-.36.08-.17.11-.27.38-.31.53-.19.69-.11,2.01.77,3.39,1.17,1.83,2.88,2.39,3.37,2.07.01-.01.05-.05.07-.06.41-.4.59-2.05-.5-3.82,0-.01-.02-.03-.03-.04-.97-1.51-2.3-2.16-3.01-2.16Z"/>
      <path class="cls-6" d="M245,151.83c-.61,0-1.21-.06-1.82-.2-.25-.05-.48-.12-.71-.19-.05-.02-.12-.04-.17-.05-4.88-1.66-7.54-7.52-6.19-13.64.1-.47.25-1,.44-1.55,1.89-5.74,6.88-9.16,11.81-8.08.69.15,1.36.39,1.99.71,4.22,2.11,6.33,7.53,5.08,13.16-.26,1.21-.67,2.37-1.22,3.44-1.97,3.98-5.53,6.39-9.21,6.39ZM244.84,143.8s.05.01.08.02c.43.1,1.45-.56,2.15-1.98.26-.5.43-1.01.55-1.54,0,0,0-.01,0-.02.51-2.32-.29-4.01-.88-4.3l.76-3.95-.86,3.91c-.52-.13-1.85.79-2.52,2.84-.1.29-.15.47-.19.65-.54,2.42.3,4.12.9,4.38Z"/>
      <path class="cls-6" d="M160.47,90.16c-1.34,0-2.64-.67-3.4-1.89-10.85-17.42-28.32-24.54-28.49-24.62-1.44-.58-2.42-1.93-2.51-3.48-.09-1.55.72-3.01,2.09-3.75,37.9-20.5,41.19-17.47,43.16-15.66.59.55,2.42,2.59.99,5.88-3.4,7.8,3.84,26.41,6.83,30.33,1.34,1.76,1,4.27-.75,5.61-1.76,1.34-4.27,1-5.61-.75-3.39-4.44-10.62-21.49-9.1-33.45-5.51,1.94-15.35,6.57-24.94,11.52,6.91,4.07,17.39,11.75,25.13,24.17,1.17,1.88.59,4.34-1.28,5.51-.66.41-1.39.61-2.11.61Z"/>
      <path class="cls-6" d="M145.76,73.92c-8.55,0-16.25-3.38-20.46-9.46-.69-1.01-1.27-2.07-1.74-3.17-.22-.52-.42-1.06-.6-1.61-3.69-11.63,5.24-24.86,19.9-29.5,10.02-3.17,20.46-1.68,27.24,3.9,1.44,1.17,2.69,2.53,3.72,4.03.98,1.43,1.75,3.01,2.29,4.69,1.85,5.84.66,12.17-3.35,17.84-3.77,5.33-9.65,9.46-16.55,11.65-3.5,1.11-7.03,1.64-10.42,1.64ZM153.24,36.54c-2.6,0-5.32.41-7.98,1.26-10.45,3.31-17.04,12.03-14.7,19.43.09.29.21.61.34.91.26.61.6,1.22.98,1.78,3.83,5.53,13.03,7.53,21.88,4.72h0c5.25-1.66,9.67-4.73,12.44-8.64,2.53-3.57,3.33-7.4,2.26-10.79-.3-.93-.73-1.81-1.27-2.6-.59-.87-1.33-1.66-2.18-2.36-2.97-2.44-7.19-3.71-11.77-3.71Z"/>
      <path class="cls-6" d="M127.22,63.71c-1.58,0-3.04-.94-3.68-2.43-.21-.5-.42-1.04-.6-1.6-3.69-11.63,5.24-24.86,19.9-29.5,10.02-3.17,20.46-1.68,27.24,3.9,1.44,1.18,1.87,3.21,1.04,4.88-.83,1.67-2.71,2.54-4.52,2.1-5.6-1.36-10.89-1.62-15.72-.78-5.95,1.04-11.19,3.79-14.75,7.75-2.97,3.31-4.76,7.63-4.91,11.83-.07,1.87-1.42,3.45-3.27,3.79-.25.05-.49.07-.73.07Z"/>
      <path class="cls-6" d="M145.76,73.92c-8.55,0-16.25-3.38-20.46-9.46-1.02-1.47-.94-3.43.19-4.81,1.13-1.38,3.04-1.84,4.68-1.14,4.42,1.91,9.28,2.69,14.04,2.26,6.46-.6,12.6-3.4,17.28-7.9,2.45-2.35,4.06-4.77,4.8-7.21.46-1.5.55-3.11.28-4.54-.36-1.86.64-3.72,2.39-4.45,1.75-.73,3.77-.13,4.84,1.43.98,1.43,1.75,3.01,2.29,4.69,1.85,5.84.66,12.17-3.35,17.84-3.77,5.33-9.65,9.46-16.55,11.65h0c-3.5,1.11-7.03,1.64-10.42,1.64Z"/>
      <path class="cls-6" d="M245.02,110.07c-1.24,0-2.46-.57-3.24-1.65l-8.84-12.18c-.65-.89-.9-2.01-.69-3.09.2-1.08.84-2.03,1.77-2.63,13.75-8.83,23.96-21.54,24.07-21.66.79-.99,2-1.53,3.26-1.5,1.26.04,2.43.68,3.15,1.71l15.3,21.99c1.04,1.49.94,3.49-.24,4.88-1.18,1.38-3.14,1.8-4.78,1.01-3.74-1.79-17.19,4.94-27.41,12.35-.71.51-1.53.76-2.35.76ZM241.84,94.89l4.1,5.65c5.57-3.77,14.89-9.44,22.89-11.22l-7.97-11.45c-3.84,4.22-10.61,11.05-19.02,17.02Z"/>
      <path class="cls-6" d="M237.85,105.04c-.71,0-1.46-.1-2.23-.34-3.14-1.01-5.26-4.06-5.45-7.79-.02-.43.03-.86.14-1.28.62-2.19,1.89-3.95,3.7-5.11,13.74-8.83,23.96-21.53,24.06-21.66.79-.99,2.01-1.53,3.26-1.5,1.26.04,2.43.68,3.15,1.71l6.4,9.19c.16.23.36.49.58.76.73.9,1.03,2.07.83,3.21-.2,1.13-.88,2.12-1.85,2.72l-5.46,3.58c-5.86,3.97-11.76,7.97-17.65,11.97l-3.05,2.07c-.5.34-1.03.69-1.62,1.02-.71.4-2.52,1.43-4.82,1.43ZM260.86,77.87c-3.16,3.47-8.29,8.7-14.69,13.77,4.79-3.25,9.58-6.5,14.38-9.75l2.13-1.4-1.82-2.62Z"/>
      <path class="cls-6" d="M151.71,173.88c-3.12,0-6.46-1.3-9.16-3.77-.54-.5-.99-.98-1.38-1.45-3.98-4.69-4.34-10.92-.82-14.77,3.97-4.34,11.15-4.03,16.35.72.56.51,1.08,1.06,1.55,1.64,3.81,4.69,4.09,10.82.65,14.58,0,0,0,0-.01.01-.77.84-1.66,1.5-2.65,1.98-1.38.71-2.93,1.05-4.53,1.05ZM155.95,168.14h0,0ZM147.57,158.85c-.59,0-1.06.16-1.31.43-.64.7-.37,2.57,1.04,4.24.2.24.41.46.67.7,1.69,1.54,3.73,1.94,4.71,1.44.15-.08.24-.14.32-.23.61-.68.37-2.5-.96-4.13-.23-.28-.47-.54-.74-.79-1.3-1.18-2.7-1.66-3.73-1.66Z"/>
      <path class="cls-6" d="M220.33,189.21c-3.95,0-7.55-1.65-9.57-4.8-2.15-3.36-2.1-7.73.14-11.7.13-.24.28-.5.45-.75.17-.27.35-.53.55-.8.02-.02.03-.05.05-.07,1.16-1.57,2.64-2.94,4.39-4.06,6.65-4.24,14.59-3.27,18.11,2.2,0,0,0,0,0,0,0,0,.05.08.13.22,2.88,4.74,1.43,11.11-3.54,15.52-.68.61-1.41,1.16-2.18,1.65-2.71,1.74-5.71,2.58-8.53,2.58ZM218.33,175.94h0c-.1.13-.18.26-.27.39-.02.03-.04.07-.07.1-.03.05-.07.12-.1.18-.77,1.36-.91,2.68-.39,3.49.92,1.44,4.14,1.66,7.06-.21.42-.27.79-.55,1.15-.87,0,0,.01-.01.02-.02,1.94-1.72,2.82-4.09,2.01-5.4,0-.01-.02-.03-.02-.04-1.02-1.44-4.18-1.62-7.06.22-.89.57-1.66,1.27-2.24,2.03-.03.04-.06.08-.09.12ZM227.72,173.57s.04.06.04.06c-.01-.02-.03-.04-.04-.06ZM227.67,173.49s0,0,0,0c0,0,0,0,0,0Z"/>
      <path class="cls-6" d="M128.02,205.34c-3.06,0-9.76-3.55-30.36-29.05-.94-1.16-1.15-2.75-.55-4.12.6-1.37,1.92-2.29,3.41-2.38.04,0,4.56-.33,11.47-2.29,7.04-2.01,17.78-6.09,28.97-14.15,1.67-1.2,3.97-.95,5.33.59l11.19,12.63c.79.89,1.15,2.08.97,3.26-.19,1.26-.96,2.35-2.08,2.95-5.33,2.81-23.24,19.32-23.41,27.26-.08,3.6-2.58,4.73-3.35,4.99-.43.15-.93.32-1.59.32ZM108.33,176.64c6.51,7.73,13.42,15.26,17.48,18.77,3.33-9.96,15.72-21.49,22.73-26.89l-5.87-6.63c-11.04,7.38-21.45,11.28-28.48,13.29-2.18.62-4.15,1.09-5.86,1.46Z"/>
      <path class="cls-6" d="M126.88,181.68c-.57,0-1.14-.12-1.67-.37l-13.79-6.35c-1.52-.7-2.44-2.27-2.32-3.94.13-1.67,1.28-3.08,2.89-3.54,6.99-1.99,17.62-6.03,28.7-13.96,2.06-1.96,5.49-3.05,8.55-2.66,2.67.34,4.78,1.72,5.93,3.89.63,1.19.88,2.55.75,4.04,0,0,0,.01,0,.02l-.03.24c-.36,3.03-2.17,5.68-4.96,7.3-.83.48-1.67,1.09-2.57,1.73-.63.46-1.26.91-1.91,1.34-5.79,3.85-11.57,7.7-17.37,11.56-.67.45-1.44.67-2.22.67ZM123.81,171.87l2.7,1.24c5.17-3.45,10.34-6.9,15.52-10.33.56-.37,1.11-.77,1.66-1.17,1.01-.73,2.06-1.48,3.23-2.16.31-.18.57-.4.75-.64-.54.06-1.18.26-1.44.5-.19.2-.37.37-.6.53-7.77,5.6-15.36,9.43-21.82,12.04ZM147.97,158.14l3.97.32-3.98-.35s0,.02,0,.03Z"/>
      <path class="cls-6" d="M118.99,212.79c-.78,0-1.57-.04-2.37-.11-6.49-.6-13.02-3.62-18.37-8.51-4.02-3.67-7.08-8.13-8.84-12.9-3.1-8.34-1.92-16.64,3.16-22.21,8.21-8.99,24.12-7.87,35.48,2.49,1.46,1.34,2.79,2.77,3.95,4.25,8.15,10.37,8.86,23.06,1.73,30.86h0c-3.65,3.99-8.82,6.12-14.74,6.12ZM107.36,170.91c-3.53,0-6.7,1.16-8.88,3.55-3.02,3.31-3.6,8.55-1.56,14.03,1.32,3.58,3.65,6.96,6.73,9.77,4.07,3.72,8.94,6.01,13.71,6.45,4.36.41,8.07-.82,10.47-3.44,0,0,0,0,0,0,4.36-4.78,3.48-13.41-2.11-20.52-.9-1.14-1.93-2.25-3.07-3.29-4.71-4.3-10.36-6.55-15.28-6.55Z"/>
      <path class="cls-6" d="M93.17,193.88c-1.64,0-3.15-1.01-3.75-2.61-3.1-8.35-1.92-16.65,3.15-22.21,8.21-8.99,24.12-7.87,35.48,2.49,1.46,1.34,2.79,2.77,3.95,4.25.14.17.26.36.37.56.44.81.87,1.62,1.29,2.42l.53.99c.87,1.63.5,3.65-.88,4.87-1.38,1.22-3.43,1.34-4.94.28-3.53-2.47-7.18-5.02-11.09-6.77-3.98-1.78-7.85-2.47-11.18-1.98-3.57.53-6.67,2.54-8.08,5.24-1.17,2.25-1.2,4.94-1.03,6.8.04.35.08.72.14,1.1.29,2.02-1,3.93-2.98,4.44-.33.08-.66.12-.98.12Z"/>
      <path class="cls-6" d="M230.48,226.85c-.54,0-1.07-.11-1.58-.33-1.22-.52-2.1-1.62-2.35-2.93,0-.03-.64-3.31-2.12-8.33-2.35-7.96-6.64-19.79-13.67-30.86-1.18-1.86-.64-4.33,1.22-5.52l16.96-10.84c1.79-1.15,4.25-.59,5.48,1.15,0,0,.05.07.15.25,8.73,14,21.44,28.81,27.89,28.81.04,0,.08,0,.12,0,1.76,0,3.32,1.15,3.83,2.85.52,1.71-.17,3.56-1.67,4.52l-32.1,20.6c-.65.42-1.41.63-2.16.63ZM219.58,183.52c6.31,10.8,10.26,21.82,12.52,29.48.37,1.25.69,2.4.96,3.43l20.56-13.19c-9.41-5.85-18.83-18.85-23.74-26.3l-10.29,6.58ZM227.67,173.49s0,0,0,0c0,0,0,0,0,0Z"/>
      <path class="cls-6" d="M228.27,218.13c-.39,0-.78-.06-1.16-.17-1.29-.39-2.29-1.4-2.67-2.69-2.36-7.97-6.64-19.8-13.68-30.86-2.15-3.35-2.09-7.72.15-11.69.06-.1.12-.21.19-.3.05-.09.09-.17.14-.26.03-.05.06-.1.09-.14.18-.28.37-.56.58-.84.07-.1.15-.2.23-.3,2.41-2.8,6.41-3.82,9.73-2.48,2.7,1.09,4.34,3.39,5.31,4.76l.25.36c1.46,2.05,2.9,4.16,4.29,6.28,3.24,4.93,6.27,10.01,9.02,15.1.8,1.48,2,3.71,1.86,6.44h0c-.13,2.62-1.47,4.72-2.76,6.43-2.6,3.46-5.64,6.63-9.02,9.45-.73.61-1.64.92-2.56.92ZM217.62,177.15c-.52,1.15-.57,2.25-.12,2.95,5.88,9.26,9.96,18.95,12.65,26.78,1.18-1.26,2.28-2.57,3.31-3.93.75-.99,1.14-1.67,1.15-2.01h0c.03-.5-.58-1.63-.91-2.24-2.64-4.89-5.55-9.77-8.67-14.5-1.34-2.04-2.73-4.07-4.12-6.03l-.25-.35c-.44-.62-1.27-1.77-1.81-1.99-.1-.02-.41.04-.6.22-.04.06-.08.11-.12.17-.13.34-.31.66-.52.94Z"/>
      <path class="cls-6" d="M279.09,173.96c-.35,0-.7-.05-1.05-.14-1.79-.48-2.97-2.12-2.95-3.9-2.26-3.6-18.69-12.36-33.1-18.5-1.76-.75-2.74-2.65-2.34-4.52l1.35-6.12,2.11-9.6c.23-1.06.89-1.98,1.81-2.55.93-.57,2.05-.74,3.09-.46.47.12.94.23,1.4.34,17.62,4.12,30.36,1.63,36.38-.22,2.77-.84,4.26-1.6,4.27-1.6,1.44-.73,3.19-.54,4.42.51,1.23,1.05,1.72,2.73,1.22,4.27l-12.81,39.73c-.54,1.69-2.11,2.77-3.8,2.77ZM275.19,169.09h0s0,0,0,0ZM248.17,145.38c3.5,1.56,9.52,4.33,15.55,7.49,6.47,3.39,10.93,6.17,13.93,8.53l7.99-24.78c-7.13,1.82-19.47,3.54-35.58.2l-1.88,8.55Z"/>
      <path class="cls-6" d="M273.55,153.26c-1.28,0-2.5-.21-3.63-.43-6.87-1.37-13.77-3.19-20.52-5.41-1.65-.54-3.39-1.13-5.28-1.82l-.58-.21c-1.21-.47-2.51-1.01-3.76-1.95-1.79-1.34-2.99-3.17-3.38-5.16-.13-.67-.08-1.36.13-2.01,1.91-5.81,6.89-9.24,11.83-8.15.5.11,1,.27,1.47.47,17.4,3.98,29.98,1.52,35.96-.32,1.58-.48,3.3.05,4.32,1.36,1.02,1.3,1.14,3.1.29,4.52l-7.68,12.87c-.93,1.58-2.51,4.24-5.42,5.5-1.27.55-2.53.74-3.75.74ZM244.88,137.24c.43.25.98.47,1.48.67l.49.18c1.8.65,3.45,1.22,5.04,1.73,6.46,2.13,13.05,3.86,19.6,5.17.64.13,2.13.43,2.65.2.53-.23,1.33-1.59,1.72-2.25l2.96-4.96c-7.68,1.1-18.3,1.33-31.19-1.68-.32-.07-.62-.19-.91-.33-.38-.09-1.17.32-1.83,1.28Z"/>
      <path class="cls-6" d="M258.52,158.53c-.53,0-1.06-.1-1.57-.32l-13.22-5.66c-1.63-.7-3.85-1.65-5.57-3.54-1.72-1.9-2.7-4.46-2.82-7.4-.09-2.33.37-4.58.71-6.22.45-2.16,2.56-3.56,4.73-3.11,2.16.45,3.55,2.56,3.11,4.73-.34,1.66-.6,3.02-.55,4.27.04,1.02.31,1.87.75,2.35.54.6,1.74,1.11,2.79,1.56l13.22,5.66c2.03.87,2.97,3.22,2.1,5.25-.65,1.52-2.13,2.43-3.68,2.43Z"/>
      <path class="cls-6" d="M241.46,111.54c-3.67,0-7.23-2.05-9-5.32-1.05-1.94-.33-4.37,1.62-5.42,1.95-1.05,4.37-.32,5.42,1.62.39.73,1.42,1.23,2.23,1.11.87-.13,1.97-.83,3.04-1.5l7.51-4.74c1.87-1.18,4.34-.62,5.52,1.25,1.18,1.87.62,4.34-1.25,5.52l-7.51,4.74c-1.59,1.01-3.58,2.26-6.09,2.65-.49.08-.99.11-1.48.11Z"/>
      <path class="cls-6" d="M147.89,72.62c-2.09,0-3.84-1.62-3.99-3.73-.15-2.2,1.52-4.11,3.72-4.26,6.01-.4,11.91-2.7,16.6-6.46,1.72-1.38,4.24-1.1,5.62.62s1.1,4.24-.62,5.62c-5.96,4.77-13.44,7.69-21.07,8.2-.09,0-.18,0-.27,0Z"/>
      <path class="cls-6" d="M167.12,94.59c-.08,0-.16,0-.24,0-2.21-.03-3.97-1.85-3.94-4.06.03-2.19,1.82-3.94,4-3.94.06,0,.12,0,.18,0,1.97,0,3.98-.8,5.41-2.14.74-.7,1.01-1.3,1.01-1.53,0-.43-.49-1.39-.81-2.03l-3.51-6.9c-1-1.97-.22-4.38,1.75-5.38,1.97-1,4.38-.22,5.38,1.75l3.51,6.9c.72,1.41,1.7,3.34,1.68,5.72-.02,2.58-1.27,5.17-3.52,7.29-2.92,2.75-6.88,4.32-10.89,4.32Z"/>
      <path class="cls-6" d="M132.8,190.03c-1.78,0-3.41-1.2-3.87-3.01-1.38-5.4-5.47-10.02-10.66-12.06-2.06-.81-3.07-3.13-2.26-5.18.81-2.06,3.13-3.07,5.18-2.26,7.54,2.96,13.48,9.67,15.49,17.52.55,2.14-.74,4.32-2.88,4.87-.33.08-.67.13-1,.13Z"/>
      <path class="cls-6" d="M128.51,101.02c-.39,0-.79-.06-1.18-.18-5.73-1.76-10.96-4.98-15.12-9.29-1.53-1.59-1.49-4.12.1-5.66,1.59-1.53,4.12-1.49,5.66.1,3.22,3.34,7.27,5.83,11.71,7.2,2.11.65,3.3,2.89,2.65,5-.53,1.72-2.11,2.83-3.82,2.83Z"/>
      <path class="cls-6" d="M109.02,124.11c-1.68,0-3.25-1.07-3.8-2.75-.69-2.1.45-4.36,2.55-5.05,4.79-1.58,10.09-1.65,14.93-.22,2.12.63,3.33,2.86,2.7,4.97-.63,2.12-2.86,3.33-4.97,2.7-3.29-.98-6.89-.92-10.16.15-.41.14-.84.2-1.25.2Z"/>
      <g>
        <path class="cls-6" d="M196.11,160.45c-1.94,0-3.91-.21-5.89-.64-14.74-3.25-24.09-17.88-20.85-32.62,3.25-14.74,17.88-24.09,32.62-20.85,14.74,3.25,24.09,17.88,20.85,32.62h0c-2.81,12.77-14.17,21.49-26.73,21.49ZM196.1,113.69c-8.9,0-16.93,6.18-18.92,15.21-1.11,5.05-.19,10.24,2.6,14.6,2.79,4.36,7.11,7.38,12.16,8.49,10.43,2.3,20.79-4.32,23.09-14.76,1.11-5.05.19-10.24-2.6-14.6-2.79-4.36-7.11-7.38-12.16-8.49-1.4-.31-2.79-.46-4.17-.46ZM218.94,138.09h0,0Z"/>
        <path class="cls-6" d="M187.92,155.63c-2.02,0-4.08-.22-6.13-.67-15.35-3.38-25.1-18.62-21.72-33.98s18.62-25.1,33.98-21.72c15.36,3.38,25.1,18.62,21.72,33.98-2.93,13.3-14.75,22.39-27.84,22.39ZM187.92,106.6c-9.42,0-17.92,6.54-20.03,16.11-2.43,11.05,4.58,22.01,15.62,24.44,11.05,2.43,22.01-4.58,24.44-15.62h0c2.43-11.05-4.58-22.01-15.62-24.45-1.48-.33-2.96-.48-4.41-.48Z"/>
        <path class="cls-6" d="M171.62,149.43c-.95,0-1.9-.34-2.66-1.01-7.7-6.85-11.1-17.37-8.89-27.43,3.38-15.36,18.61-25.1,33.98-21.72,6.99,1.55,13.09,5.61,17.18,11.44,1.17,1.66.9,3.94-.62,5.29-1.52,1.35-3.81,1.35-5.32,0-2.59-2.32-5.79-3.94-9.23-4.7-5.35-1.18-10.84-.2-15.46,2.75-4.62,2.95-7.81,7.52-8.99,12.87-1.24,5.61-.04,11.52,3.27,16.22,1.17,1.66.91,3.94-.61,5.29-.76.68-1.71,1.02-2.66,1.02Z"/>
        <path class="cls-6" d="M187.92,155.63c-2.02,0-4.08-.22-6.13-.67-7.11-1.57-13.29-5.74-17.4-11.75-1.03-1.5-.91-3.52.29-4.89,1.2-1.37,3.18-1.76,4.81-.94,6.94,3.48,15.49,3.96,22.32,1.24,3.96-1.58,9.23-4.96,11.83-12.14,1.16-3.2,1.85-7.07,1.96-10.9.05-1.82,1.32-3.37,3.09-3.79,1.77-.41,3.6.42,4.45,2.03,3.15,5.96,4.08,12.86,2.63,19.43-2.93,13.3-14.75,22.39-27.84,22.39ZM202.63,141.4c-2.31,1.92-4.95,3.49-7.86,4.65-1.53.61-3.12,1.1-4.73,1.47,4.82-.5,9.27-2.71,12.59-6.12Z"/>
        <path class="cls-6" d="M187.92,155.63c-2.02,0-4.08-.22-6.13-.67-15.35-3.38-25.1-18.62-21.72-33.98s18.62-25.1,33.98-21.72c15.36,3.38,25.1,18.62,21.72,33.98-2.93,13.3-14.75,22.39-27.84,22.39ZM187.92,106.6c-9.42,0-17.92,6.54-20.03,16.11-2.43,11.05,4.58,22.01,15.62,24.44,11.05,2.43,22.01-4.58,24.44-15.62h0c2.43-11.05-4.58-22.01-15.62-24.45-1.48-.33-2.96-.48-4.41-.48Z"/>
        <path class="cls-6" d="M186.67,148.89c-4.76,0-9.42-1.79-12.76-5.02-5.13-4.97-6.81-12.41-4.51-19.89h0c2.49-8.11,9.03-13.96,16.65-14.88,8.36-1.02,19.04,4.52,20.98,14.1,1.03,5.08.02,10.66-2.77,15.31-3.09,5.15-8.07,8.79-13.65,9.97-1.3.28-2.62.41-3.94.41ZM177.05,126.33h0c-1.4,4.55-.49,8.96,2.43,11.8,2.33,2.26,6.05,3.26,9.46,2.53,3.37-.72,6.54-3.06,8.46-6.27,1.77-2.95,2.42-6.45,1.79-9.6-1.01-4.99-7.5-8.32-12.17-7.75-4.49.54-8.4,4.19-9.96,9.29Z"/>
      </g>
      <path class="cls-6" d="M142.76,62.39c-2.98,0-5.9-.66-8.46-1.95-5.23-2.63-7.55-7.05-6.54-12.45.81-4.33,3.66-8.38,7.82-11.13h0c2.62-1.73,5.46-2.68,8.13-3.51,3.56-1.1,8.95-2.38,14.57-.82,2.71.75,4.91,2.21,6.36,4.23,2.09,2.9,2.5,6.99,1.08,10.69-1.84,4.77-6.11,8.21-7.87,9.46-3.86,2.76-7.59,4.45-11.4,5.15-1.22.23-2.46.34-3.68.34ZM139.98,43.53h0c-2.36,1.56-3.95,3.72-4.36,5.93-.26,1.39-.26,2.56,2.27,3.82,2.04,1.03,4.63,1.35,7.1.9,2.64-.49,5.32-1.73,8.2-3.79,2.39-1.71,4.33-3.95,5.06-5.83.45-1.17.41-2.43-.1-3.14-.37-.51-1.1-.94-2.01-1.2-2.77-.77-5.88-.54-10.07.76-2.3.71-4.34,1.39-6.08,2.54Z"/>
      <path class="cls-6" d="M93.02,119.4s-.06,0-.09,0c-1.64-.04-3.09-1.08-3.66-2.62-.48-1.31-.87-2.69-1.14-4.12-1.05-5.21-.71-10.86.99-16.29,2.24-7.11,6.58-13.12,12.23-16.93,5.93-4.01,12.59-5.15,18.74-3.21,6.12,1.93,10.91,6.66,13.49,13.3.73,1.89,1.26,3.87,1.58,5.92.54.21,1.09.43,1.65.64,1.08.42,2.18.85,3.3,1.27,1.14.43,2.03,1.37,2.4,2.53.37,1.17.19,2.44-.5,3.45-1.7,2.51-3.09,5.15-4.15,7.84-.6,1.53-2.08,2.54-3.73,2.54s-3.03-.43-4.27-.83c-.31-.11-.57-.19-.81-.27-4.86-1.6-8.86-2.86-13.01-3.45-2.21-.31-4.32-.39-6.27-.24-2.33.17-4.44.67-6.3,1.49-3.09,1.36-5.62,3.8-6.77,6.53-.63,1.49-2.08,2.45-3.69,2.45ZM114.13,83.31c-2.76,0-5.62.93-8.31,2.75-4.16,2.81-7.38,7.32-9.08,12.71-.75,2.37-1.15,4.79-1.22,7.15,1.43-1.11,3.02-2.06,4.72-2.81,2.7-1.19,5.7-1.92,8.93-2.15,2.51-.19,5.21-.09,7.99.3,5.18.74,10.25,2.41,14.33,3.76.09.03.18.06.28.09.32-.67.66-1.34,1.02-2-.94-.37-1.85-.72-2.74-1.04-1.48-.55-2.5-1.91-2.6-3.48-.15-2.17-.6-4.24-1.34-6.17-1.68-4.33-4.68-7.37-8.44-8.56-1.15-.36-2.34-.54-3.55-.54Z"/>
      <path class="cls-6" d="M92.04,115.89c-1.89,0-3.54-1.33-3.92-3.21-1.06-5.24-.72-10.88.99-16.32,2.24-7.11,6.58-13.12,12.23-16.93,5.93-4.01,12.59-5.15,18.74-3.21,6.12,1.93,10.91,6.66,13.49,13.3.72,1.86-.03,3.96-1.77,4.93-1.73.98-3.92.53-5.13-1.05-1.81-2.35-5.04-3.89-8.43-4-3.47-.13-7.3,1.15-10.83,3.55-6.36,4.34-10.62,11.57-11.38,19.34-.19,1.97-1.8,3.5-3.78,3.6-.07,0-.14,0-.21,0Z"/>
      <path class="cls-6" d="M114.84,209.34c-.58,0-1.17-.03-1.78-.09-7.05-.67-13.59-5.15-17.06-11.71-1.81-3.41-2.67-7.19-2.5-10.91.18-3.94,1.92-11.24,7.26-13.58,5.8-2.53,13.17-.26,17.55,2.93,4.98,3.62,8.38,9.46,9.35,16.02.44,3.01.3,5.77-.42,8.19-.96,3.23-2.95,5.86-5.59,7.42-1.94,1.15-4.23,1.72-6.83,1.72ZM106.33,179.94c-.86,0-1.67.14-2.36.44-1,.44-2.33,3.58-2.48,6.62-.11,2.3.44,4.65,1.58,6.8h0c2.22,4.2,6.34,7.07,10.74,7.49,1.11.11,2.67.09,3.79-.56.87-.52,1.62-1.57,1.99-2.82.39-1.29.44-2.89.17-4.74-.65-4.38-2.95-8.39-6.15-10.72-1.96-1.43-4.84-2.51-7.28-2.51Z"/>
      <path class="cls-6" d="M156.33,172.21c-.6,0-1.21-.13-1.78-.42-1.98-.98-2.79-3.38-1.8-5.36.95-1.91.64-4.47-.74-6.1-1.37-1.63-3.85-2.36-5.89-1.74-2.12.64-4.35-.55-4.99-2.67-.64-2.11.55-4.35,2.67-4.99,5.12-1.55,10.87.15,14.32,4.23,3.45,4.08,4.17,10.04,1.79,14.82-.7,1.41-2.11,2.22-3.58,2.22Z"/>
      <path class="cls-6" d="M209.14,75.68c-.94,0-1.91-.13-2.88-.48-2-.73-3.08-2.9-2.45-4.93.21-.69.55-1.68.93-2.79.73-2.12,1.95-5.66,2.1-6.94.28-2.31.38-4.05.35-5.64-.06-3.62-.97-6.16-2.69-7.55-1.18-.95-2.55-1.62-4.07-1.98-1.06-.25-1.97-.92-2.52-1.86-.55-.94-.7-2.06-.4-3.11.07-.26.15-.53.23-.79,3.43-10.71,16.53-16.78,30.47-14.12,9.87,1.87,18.12,7.85,21.53,15.6.15.35.29.7.42,1.05.79,2.13,1.2,4.3,1.21,6.46,0,1.32-.64,2.55-1.72,3.31-1.08.75-2.47.92-3.7.45-.53-.2-1.14-.24-2.16-.3-.37-.02-.75-.04-1.13-.07-.58-.05-1.11-.12-1.64-.2-.74-.11-1.31-.19-1.81-.14-1.87.22-3.88,1.21-5.49,2.69-3.11,2.86-5.18,7.21-7.18,11.42-.52,1.09-1.03,2.17-1.56,3.22-.53,1.06-1.07,2.11-1.73,3.15-.42.66-1.71,2.67-4.18,3.2-1.72.36-3.16-.16-3.93-.45-.34-.07-1.49.17-2.25.33-1.12.23-2.39.5-3.74.5ZM214.99,66.86c.64,0,1.29.06,1.95.21.29-.52.58-1.08.88-1.69.5-1,.99-2.03,1.48-3.07,2.22-4.67,4.73-9.96,8.99-13.87,2.86-2.64,6.41-4.33,9.97-4.75,1.55-.18,2.85.01,3.91.17.01,0,.02,0,.03,0-2.46-5.09-8.48-9.19-15.5-10.52-8.38-1.6-16.44.95-19.96,5.94.98.53,1.91,1.14,2.78,1.85,3.65,2.95,5.56,7.53,5.67,13.62.04,1.97-.08,4.06-.4,6.74-.16,1.38-.69,3.24-1.43,5.49.53-.07,1.08-.12,1.64-.12Z"/>
      <path class="cls-6" d="M222.98,73.63c-.38,0-.77-.05-1.15-.17l-11.67-3.5c-2.12-.63-3.32-2.86-2.68-4.98.63-2.12,2.87-3.31,4.98-2.68l11.67,3.5c2.12.63,3.32,2.86,2.68,4.98-.52,1.73-2.11,2.85-3.83,2.85Z"/>
      <path class="cls-6" d="M246.06,46.68c-1.09,0-2.17-.45-2.95-1.3-4.92-5.38-12.14-8.73-19.31-8.96-7.14-.24-14.25,2.44-19.55,7.33-1.33,1.23-3.33,1.41-4.86.44-1.53-.98-2.21-2.86-1.66-4.59,3.43-10.71,16.53-16.78,30.47-14.12,9.87,1.87,18.12,7.85,21.53,15.6.79,1.79.16,3.89-1.48,4.96-.67.44-1.43.65-2.18.65Z"/>
      <path class="cls-6" d="M281.03,99.73c-7.82,0-16.27-4.81-21.61-13.17-7.57-11.84-6.06-26.37,3.36-32.39,4.74-3.03,10.65-3.48,16.62-1.28,5.59,2.06,10.62,6.27,14.18,11.83,7.57,11.84,6.06,26.37-3.36,32.39-2.77,1.77-5.93,2.61-9.2,2.61ZM272.06,59.53c-1.84,0-3.53.46-4.97,1.39h0c-5.6,3.58-6.03,13.35-.93,21.34,5.1,7.98,14.15,11.7,19.75,8.12,5.6-3.58,6.03-13.35.93-21.34-2.62-4.1-6.25-7.17-10.21-8.63-1.58-.58-3.12-.87-4.57-.87ZM264.93,57.55h0,0Z"/>
      <path class="cls-6" d="M268.93,95.21c-.87,0-1.74-.28-2.46-.85-2.73-2.14-5.1-4.76-7.04-7.79-7.57-11.84-6.06-26.37,3.36-32.39,5-3.2,11.45-3.5,17.7-.85,1.65.7,2.63,2.41,2.4,4.19-.23,1.78-1.61,3.19-3.38,3.45-2.8.42-6.65,1.89-9.1,6.53h0c-3.72,7.04-1.41,15.83,1.98,21.71.96,1.66.61,3.76-.84,5.02-.75.65-1.69.98-2.62.98ZM266.87,65.63h0,0Z"/>
      <path class="cls-6" d="M283.62,92.04c-1.64,0-3.31-.28-4.91-.87-4.1-1.5-7.74-4.79-10.52-9.52-2.69-4.57-3.82-9.02-3.35-13.23h0c.53-4.72,4.15-11.58,10.54-12.04,5.95-.44,12.01,4.06,14.65,6.78,3.71,3.83,6.02,9.08,6.35,14.4.23,3.79-.62,7.12-2.45,9.62-2.29,3.12-6.21,4.87-10.3,4.87ZM272.79,69.31c-.34,3.06,1.06,6.19,2.29,8.29,1.28,2.17,3.43,4.99,6.38,6.07,2.26.83,4.9.29,6.02-1.23.7-.96,1.03-2.52.91-4.39-.21-3.44-1.71-6.84-4.11-9.32-2.17-2.24-5.95-4.53-8.32-4.37-1.21.09-2.93,2.77-3.17,4.95Z"/>
      <path class="cls-6" d="M269.37,95c-.74,0-1.49-.21-2.16-.64-6.33-4.08-10.75-10.97-11.82-18.42-.32-2.19,1.2-4.21,3.39-4.53,2.19-.32,4.21,1.2,4.53,3.39.75,5.19,3.83,9.99,8.24,12.84,1.86,1.2,2.39,3.67,1.19,5.53-.76,1.19-2.05,1.83-3.37,1.83Z"/>
      <path class="cls-6" d="M184.68,223.26c-2.13,0-4.32-.2-6.52-.62-6.99-1.34-13.21-4.7-17.5-9.46-4.57-5.07-6.47-11.12-5.34-17.04.58-3.04,1.92-5.82,3.97-8.26,1.32-1.56,3.59-1.88,5.29-.74,1.69,1.14,2.26,3.36,1.32,5.17-1.23,2.36-1.17,5.65.15,8.39,1.46,3.04,4.42,5.76,8.35,7.65,8.48,4.09,19.43,3.19,27.26-2.24,1.51-1.05,3.54-.93,4.92.28,1.38,1.21,1.76,3.21.92,4.84-3.88,7.51-12.76,12.02-22.81,12.02Z"/>
      <path class="cls-6" d="M241.96,239.09c-.71,0-1.42-.03-2.12-.08-6.81-.54-12.34-3.63-15.58-8.71h0c-6.45-10.1-1.34-24.93,11.39-33.07,12.73-8.14,28.34-6.55,34.8,3.55,6.45,10.1,1.34,24.93-11.39,33.07-5.34,3.41-11.34,5.24-17.1,5.24ZM231,225.99c1.86,2.91,5.23,4.7,9.48,5.04,4.67.38,9.73-1.02,14.27-3.92,9.02-5.76,13.04-15.64,8.96-22.02-4.08-6.38-14.73-6.88-23.75-1.12-9.02,5.76-13.04,15.64-8.96,22.02h0Z"/>
      <path class="cls-6" d="M228.51,233.35c-1.18,0-2.33-.53-3.11-1.48-.46-.57-.83-1.07-1.15-1.57-6.45-10.1-1.34-24.93,11.39-33.07,8.7-5.56,18.99-6.78,26.86-3.19,1.62.74,2.56,2.46,2.3,4.22-.26,1.76-1.65,3.14-3.42,3.38-13.44,1.83-24.07,10-27.74,21.32-.57,1.75-.98,4.17-1.14,6.64-.11,1.64-1.21,3.05-2.78,3.55-.4.13-.81.19-1.21.19Z"/>
      <path class="cls-6" d="M245.46,235.23c-2.73,0-5.36-.62-7.63-1.85-4.69-2.53-7.55-7.57-7.11-12.55.29-3.36,1.95-6.55,5.08-9.78,0,0,0,0,0,0,3.6-3.71,13.83-11.07,22.52-10.1,3.78.42,6.81,2.35,8.78,5.57,2.11,3.46,2.43,8.06.86,12.32-1.13,3.06-3.18,5.98-6.27,8.91-3.42,3.25-6.83,5.4-10.42,6.55-1.93.62-3.89.93-5.81.93ZM241.55,216.62c-1.77,1.83-2.73,3.48-2.85,4.92-.16,1.78,1.08,3.81,2.94,4.81,1.94,1.04,4.62,1.17,7.19.35,2.42-.78,4.82-2.33,7.35-4.73,2.18-2.08,3.59-4.01,4.28-5.89.72-1.95.65-4.01-.19-5.38-.67-1.1-1.52-1.64-2.83-1.78-4.69-.52-12.42,4.14-15.88,7.72Z"/>
      <path class="cls-6" d="M228.91,213.55c-.91,0-1.82-.31-2.58-.94-1.69-1.42-1.91-3.95-.48-5.64,3.05-3.62,6.11-6.47,9.35-8.71,3.93-2.71,8.06-4.48,12.27-5.24,2.17-.4,4.25,1.05,4.65,3.22.39,2.17-1.05,4.25-3.22,4.65-3.09.56-6.17,1.89-9.15,3.95-2.65,1.83-5.19,4.21-7.78,7.28-.79.94-1.92,1.42-3.06,1.42Z"/>
      <path class="cls-6" d="M218.16,193.76c-1.59,0-3.09-.96-3.72-2.52l-4.03-10.13c-.43-1.08-1.01-2.55-.96-4.35.08-2.49,1.34-4.8,3.76-6.87,2.25-1.93,4.95-3.39,7.8-4.2,2.13-.61,4.34.63,4.94,2.75.61,2.12-.63,4.34-2.75,4.94-1.75.5-3.4,1.39-4.78,2.57-.69.6-.91.97-.97,1.09.05.25.26.78.39,1.1l4.03,10.13c.82,2.05-.19,4.38-2.24,5.19-.48.19-.98.28-1.48.28Z"/>
      <path class="cls-6" d="M286.39,179.93c-1.38,0-2.75-.15-4.12-.45-6.19-1.36-11.28-5.66-14.32-12.09-2.88-6.09-3.59-13.44-2-20.7,3.38-15.35,16.2-25.63,28.58-22.9,6.19,1.36,11.28,5.66,14.33,12.09,2.88,6.09,3.59,13.44,2,20.7h0c-1.6,7.26-5.33,13.63-10.5,17.95-4.26,3.55-9.1,5.41-13.96,5.41ZM290.43,131.34c-7.3,0-14.47,7.11-16.66,17.07-1.22,5.53-.72,11.06,1.41,15.55,1.97,4.15,5.1,6.89,8.81,7.71,3.72.82,7.71-.35,11.23-3.29,3.82-3.19,6.6-7.99,7.81-13.52h0c1.22-5.53.72-11.06-1.41-15.55-1.97-4.15-5.1-6.89-8.81-7.71-.79-.17-1.59-.26-2.39-.26Z"/>
      <path class="cls-6" d="M279.75,178.28c-.68,0-1.37-.18-1.99-.53-6.74-3.88-10.37-12.53-9.94-23.75.09-2.83.47-5.77,1.12-8.71,3.52-15.96,13.33-24.2,25.61-21.5.34.08.6.14.86.22,2.61.68,5.07,1.95,7.26,3.76,1.25,1.03,1.75,2.7,1.28,4.25-.47,1.55-1.82,2.66-3.43,2.82-3.41.34-6.52,1.54-9,3.46-2.31,1.8-4.35,4.4-6.06,7.71-4.13,8.06-4.85,18.16-1.91,27.01.52,1.58.02,3.31-1.27,4.36-.73.6-1.63.9-2.53.9ZM286.8,131.82c-5.18,1.81-7.92,7.75-9.29,12.25.26-.58.54-1.15.83-1.72,2.24-4.36,5.02-7.85,8.26-10.38.07-.05.13-.1.2-.15Z"/>
      <path class="cls-6" d="M289.35,172.4c-3.72,0-7.26-1.46-9.55-4.2-1.55-1.85-2.56-4.27-3.08-7.37h0c-.57-3.38-.47-6.86.27-10.34,1.27-5.92,4.38-11.41,8.77-15.45l.25-.23c1.96-1.82,4.95-4.56,9.34-3.83,3.43.57,6.73,2.49,9.04,5.27,2.75,3.31,4.21,7.74,4.09,12.49-.09,3.78-1.16,7.75-3.19,11.79-2.54,5.07-5.82,8.59-9.77,10.46-1.98.94-4.1,1.39-6.17,1.39ZM293.95,138.88c-.55,0-1.6.96-2.52,1.82l-.26.24c-3.18,2.93-5.44,6.92-6.37,11.24-.53,2.49-.6,4.96-.2,7.34h0c.28,1.66.71,2.82,1.32,3.55,1.2,1.43,3.97,1.75,6.16.71,2.29-1.09,4.33-3.38,6.04-6.81,1.49-2.99,2.28-5.82,2.34-8.41.07-2.77-.75-5.39-2.24-7.18-1.1-1.32-2.64-2.23-4.21-2.5-.02,0-.05,0-.07,0Z"/>
      <path class="cls-6" d="M271.44,162.26c-2.07,0-3.82-1.59-3.98-3.68-.61-7.69.48-15.57,3.16-22.8.77-2.07,3.07-3.13,5.14-2.36,2.07.77,3.13,3.07,2.36,5.14-2.28,6.15-3.21,12.85-2.69,19.39.17,2.2-1.47,4.13-3.67,4.3-.11,0-.21.01-.32.01Z"/>
      <path class="cls-6" d="M201.16,198.65c-.06,0-.11,0-.17,0-11.4-.47-22.84-3.37-33.09-8.38-1.99-.97-2.81-3.37-1.84-5.35.97-1.99,3.37-2.81,5.35-1.84,9.27,4.53,19.61,7.15,29.91,7.57,2.21.09,3.92,1.96,3.83,4.16-.09,2.15-1.86,3.83-3.99,3.83Z"/>
    </g>
    <g>
      <path class="cls-1" d="M247.36,48.6c0,.87-.08,1.74-.25,2.61-1.35,7.06-8.04,12.07-16.51,13.29-2.35.34-4.84.39-7.39.1-.81-.09-1.61-.2-2.43-.36-4.11-.79-7.81-2.34-10.88-4.42-6.41-4.31-10.03-10.89-8.78-17.39,1.83-9.62,13.62-15.45,26.32-13.02,11.55,2.2,19.88,10.48,19.91,19.19Z"/>
      <path class="cls-1" d="M236.31,58.41c-1.96,1.97-3.87,4-5.71,6.08-4.49,5.05-8.61,10.42-12.33,16.06l-10.6-7.64c1.8-3.03,2.65-6.58,2.54-10.11-.03-1.01-.13-2.01-.31-2.99-.4-2.22-1.19-4.36-2.37-6.29,6.87-1.29,14.05-.8,20.7,1.33,2.8.89,5.51,2.09,8.06,3.56Z"/>
      <path class="cls-1" d="M205.23,205.69c-.25,1.31-.69,2.56-1.3,3.72-3.79,7.34-14.06,11.39-25.02,9.3-12.7-2.43-21.51-12.19-19.67-21.81.46-2.4,1.53-4.57,3.1-6.43,4.68-5.58,13.69-8.41,23.22-6.59,12.7,2.43,21.51,12.19,19.67,21.81Z"/>
      <path class="cls-4" d="M168.78,196.21c-.48,0-.9-.34-.98-.83-.09-.54.27-1.06.82-1.15,4.13-.71,7.75-3.7,9.22-7.62.2-.52.77-.78,1.29-.58.52.19.78.77.58,1.29-1.72,4.57-5.94,8.06-10.75,8.88-.06,0-.11.01-.17.01Z"/>
      <path class="cls-4" d="M195.94,203.87c-.45,0-.86-.31-.97-.77-1.22-5.14-1.56-10.41-1.01-15.67.06-.55.54-.94,1.1-.89.55.06.95.55.89,1.1-.52,5.03-.2,10.08.97,15,.13.54-.21,1.08-.74,1.2-.08.02-.16.03-.23.03Z"/>
      <path class="cls-1" d="M130.25,108.81c-.04.16-.09.31-.14.46-1.23,3.89-3.14,7.33-5.5,10.13-5.46,6.5-13.29,9.66-20.46,7.4-5.27-1.66-9.16-5.91-11.14-11.4-1.89-5.21-2.07-11.54-.09-17.84,4.07-12.91,15.69-20.76,25.95-17.53,7.31,2.3,11.96,9.61,12.57,18.27.24,3.37-.14,6.93-1.2,10.5Z"/>
      <path class="cls-1" d="M151.5,104.55c-2.02,4.78-4.03,9.56-6.05,14.35-.53,1.24-1.1,2.55-2.2,3.32-2.28,1.6-5.35.18-7.88-1-2.93-1.36-6.7-1.87-10.76-1.81-7.66.07-16.34,2.08-22.16,3.86l7.01-18.32,8.17-21.37c2.98,6.06,5.79,11.9,12.17,14.14.53.18,1.08.39,1.64.6,2.95,1.1,6.27,2.47,9.6,3.65,3.61,1.28,7.25,2.33,10.46,2.59Z"/>
      <path class="cls-1" d="M263.42,143.74c-7.65,34.78-42.05,56.76-76.83,49.11-24.03-5.29-41.95-23.36-48.21-45.49-2.8-9.89-3.27-20.6-.9-31.35,7.66-34.78,42.06-56.77,76.84-49.11,3.31.73,6.5,1.7,9.56,2.89,29.13,11.31,46.48,42.47,39.54,73.94Z"/>
      <path class="cls-2" d="M247.54,130.85c-7.02,31.9-38.57,52.06-70.46,45.04-17.03-3.74-30.71-14.48-38.69-28.53-2.8-9.89-3.27-20.6-.9-31.35,7.66-34.78,42.06-56.77,76.84-49.11,3.31.73,6.5,1.7,9.56,2.89,18.87,13.31,28.94,37.09,23.66,61.05Z"/>
      <path class="cls-5" d="M217.05,67.57c-.9-.24-1.81-.47-2.73-.67-34.78-7.66-69.18,14.33-76.84,49.11-2.37,10.74-1.9,21.45.9,31.35.74,2.64,1.66,5.22,2.73,7.73-2-9.58-2.04-19.74.2-29.9,7.78-35.31,40.34-58.73,75.38-56.05.06-.53.18-1.05.35-1.57Z"/>
      <ellipse class="cls-1" cx="168.63" cy="83.57" rx="8.57" ry="6.49" transform="translate(-17.37 54.85) rotate(-17.58)"/>
      <ellipse class="cls-1" cx="113.15" cy="187.87" rx="18.09" ry="23.88" transform="translate(-101.87 144.69) rotate(-47.58)"/>
      <path class="cls-1" d="M245.02,106.07c-.21.21-.45.39-.7.56-2.66,1.7-6.64.23-8.9-3.29-1.4-2.19-1.8-4.66-1.25-6.63.33-1.18,1.01-2.18,2.01-2.82,2.66-1.7,6.64-.23,8.9,3.29,0,0,0,.02.02.03,2.01,3.17,1.93,6.92-.07,8.86Z"/>
      <path class="cls-1" d="M251.53,141.15c-.19.89-.49,1.72-.88,2.47-1.45,2.92-4.08,4.67-6.61,4.11-.16-.04-.31-.08-.46-.12-2.89-.98-4.48-4.86-3.57-8.99.08-.38.18-.74.31-1.09,1.23-3.72,4.27-6.13,7.18-5.5.36.08.7.2,1.03.37,2.52,1.26,3.85,4.91,3,8.75Z"/>
      <path class="cls-1" d="M175.95,79.39c-3.49-4.58-11.5-24.77-7.32-34.35,3.4-7.8-38.58,14.91-38.58,14.91,0,0,18.67,7.37,30.41,26.22"/>
      <path class="cls-2" d="M154.97,68.46c-10.79,3.42-21.62.6-26.39-6.28-.53-.77-.98-1.6-1.36-2.47-.18-.41-.33-.84-.47-1.27-3.01-9.52,4.72-20.46,17.3-24.45,8.97-2.84,17.97-1.37,23.49,3.17,1.15.94,2.14,2.01,2.95,3.2.76,1.11,1.36,2.34,1.78,3.65,3.01,9.53-4.72,20.47-17.3,24.45Z"/>
      <path class="cls-5" d="M167.54,37.16c-5.68-1.38-11.6-1.83-17.34-.83-6.45,1.12-12.66,4.15-17.04,9.02-3.53,3.94-5.75,9.11-5.93,14.36-.18-.41-.33-.84-.47-1.27-3.01-9.52,4.72-20.46,17.3-24.45,8.97-2.84,17.97-1.37,23.49,3.17Z"/>
      <path class="cls-1" d="M154.97,68.46c-10.79,3.42-21.62.6-26.39-6.28,5,2.16,10.55,3.06,15.99,2.57,7.33-.67,14.39-3.9,19.69-9,2.59-2.49,4.81-5.49,5.85-8.93.63-2.08.79-4.33.38-6.46.76,1.11,1.36,2.34,1.78,3.65,3.01,9.53-4.72,20.47-17.3,24.45Z"/>
      <path class="cls-1" d="M276.51,93.36c-8.41-4.04-31.49,12.72-31.49,12.72l-4.32-5.94-4.52-6.23c14.46-9.29,25.03-22.53,25.03-22.53l6.4,9.19.71,1.02,8.19,11.78Z"/>
      <path class="cls-2" d="M268.36,81.55l-.04.03-5.52,3.63c-5.91,4-11.81,8-17.7,12.01-1.02.69-2.03,1.38-3.05,2.07-.43.29-.88.59-1.34.85-1.24.7-2.57,1.17-3.88.75-1.67-.53-2.56-2.38-2.65-4.16.33-1.18,1.01-2.18,2.01-2.82,14.46-9.29,25.03-22.53,25.03-22.53l6.4,9.19c.25.34.49.67.75.99Z"/>
      <path class="cls-1" d="M155.95,168.14c-.42.46-.9.82-1.45,1.09-2.59,1.32-6.36.57-9.25-2.07-.36-.33-.7-.68-1-1.04-2.64-3.11-3.11-7.15-.95-9.53,2.42-2.65,7.2-2.21,10.7.98.42.39.8.79,1.14,1.21,2.52,3.09,2.94,7.03.81,9.36Z"/>
      <path class="cls-1" d="M228.38,182c-.51.46-1.06.88-1.67,1.26-4.68,3-10.32,2.54-12.59-1-1.39-2.17-1.19-5.01.25-7.57.1-.18.19-.35.31-.52.14-.22.29-.44.46-.66,0,0,.02-.02.02-.03.86-1.16,1.99-2.21,3.34-3.08,4.69-2.99,10.32-2.54,12.59,1.01,0,0,.02.03.05.09,1.9,3.09.66,7.46-2.76,10.49Z"/>
      <path class="cls-1" d="M154.51,169.24c-5.09,2.69-25.31,20.25-25.54,30.71-.18,8.51-28.19-26.17-28.19-26.17,0,0,4.83-.31,12.31-2.44,7.93-2.26,18.86-6.57,30.21-14.75l5.65,6.38,5.55,6.26h0Z"/>
      <path class="cls-2" d="M151.94,158.46c0,.05,0,.1-.02.16-.22,1.86-1.41,3.38-3,4.3s-3.11,2.15-4.68,3.2c-5.79,3.85-11.58,7.7-17.37,11.57l-13.79-6.35c7.93-2.26,18.86-6.57,30.21-14.75,1.81-1.98,6.83-2.79,8.34.05.29.55.36,1.2.3,1.82Z"/>
      <path class="cls-2" d="M130.78,203.97c-6.74,7.38-20.09,6.14-29.82-2.75-3.66-3.35-6.29-7.3-7.78-11.33-2.48-6.67-1.84-13.52,2.36-18.12,6.73-7.37,20.09-6.13,29.82,2.75,1.3,1.19,2.47,2.45,3.51,3.77,6.71,8.55,7.76,19.3,1.92,25.69Z"/>
      <path class="cls-5" d="M130.65,181.65c-3.76-2.63-7.55-5.27-11.74-7.14-4.19-1.88-8.85-2.95-13.39-2.29-4.54.67-8.92,3.28-11.04,7.34-1.42,2.74-1.75,5.95-1.46,9.03.04.43.1.86.16,1.29-2.48-6.67-1.84-13.52,2.36-18.12,6.73-7.37,20.09-6.13,29.82,2.75,1.3,1.19,2.47,2.45,3.51,3.77.61,1.12,1.2,2.25,1.8,3.37Z"/>
      <path class="cls-1" d="M262.58,202.25l-32.1,20.6s-.65-3.4-2.21-8.71c-2.36-7.98-6.77-20.28-14.14-31.88l10.04-6.42,6.91-4.43s.02.03.05.09c1.13,1.81,19.4,30.92,31.44,30.74Z"/>
      <path class="cls-2" d="M238.61,201.14c-.08,1.57-1.01,2.96-1.95,4.22-2.45,3.24-5.27,6.19-8.39,8.78-2.36-7.98-6.77-20.28-14.14-31.88-1.39-2.17-1.19-5.01.25-7.57h.06c.07-.18.15-.35.25-.52.14-.22.29-.44.46-.66,0,0,.02-.02.02-.03,1.24-1.45,3.42-2.09,5.2-1.38,1.53.62,2.59,2.02,3.56,3.37.09.12.17.24.25.36,1.44,2.02,2.84,4.08,4.21,6.15,3.16,4.8,6.11,9.74,8.84,14.8.73,1.35,1.46,2.8,1.38,4.34Z"/>
      <path class="cls-1" d="M279.09,169.95c1.43-6.47-35.53-22.23-35.53-22.23l.03-.12,1.31-5.98,2.11-9.6c.51.13,1.02.25,1.52.37,18.32,4.28,31.7,1.77,38.44-.3,3.23-.98,4.93-1.88,4.93-1.88l-12.81,39.73Z"/>
      <path class="cls-2" d="M286.97,132.1c-2.56,4.29-5.12,8.58-7.68,12.87-.91,1.54-1.94,3.17-3.58,3.88-1.56.67-3.35.39-5.01.05-6.78-1.35-13.48-3.12-20.05-5.28-1.74-.56-3.45-1.16-5.17-1.78-.19-.07-.39-.14-.58-.21-.96-.38-1.91-.78-2.73-1.39-.89-.67-1.63-1.62-1.84-2.71,1.23-3.72,4.27-6.13,7.18-5.5.36.08.7.2,1.03.37,18.32,4.28,31.7,1.77,38.44-.3Z"/>
      <path class="cls-4" d="M258.52,155.53c-.13,0-.27-.03-.39-.08l-13.22-5.66c-1.53-.65-3.25-1.39-4.53-2.8-1.57-1.73-1.98-3.95-2.04-5.51-.07-1.82.25-3.56.65-5.49.11-.54.64-.89,1.18-.78.54.11.89.64.78,1.18-.37,1.8-.67,3.41-.61,5,.07,1.73.61,3.24,1.52,4.24.98,1.08,2.5,1.73,3.83,2.3l13.22,5.66c.51.22.74.8.53,1.31-.16.38-.53.61-.92.61Z"/>
      <path class="cls-4" d="M241.49,108.54c-2.58,0-5.15-1.47-6.38-3.75-.26-.49-.08-1.09.4-1.36.49-.26,1.09-.08,1.36.4,1,1.85,3.24,2.97,5.32,2.65,1.49-.23,2.86-1.1,4.18-1.93l7.51-4.74c.47-.29,1.08-.15,1.38.31.29.47.16,1.08-.31,1.38l-7.51,4.74c-1.43.9-3.05,1.92-4.95,2.22-.33.05-.67.08-1,.08Z"/>
      <path class="cls-4" d="M147.9,69.62c-.52,0-.96-.4-1-.93-.04-.55.38-1.03.93-1.07,6.61-.44,13.11-2.97,18.28-7.11.43-.35,1.06-.28,1.41.16.35.43.28,1.06-.16,1.41-5.49,4.39-12.38,7.08-19.39,7.55-.02,0-.05,0-.07,0Z"/>
      <path class="cls-4" d="M167.12,91.59c-.07,0-.13,0-.2,0-.55,0-.99-.46-.98-1.02s.49-.97,1.02-.98c2.78.05,5.58-1.04,7.62-2.96.72-.68,1.94-2.07,1.95-3.69,0-1.16-.6-2.36-1.14-3.41l-3.51-6.9c-.25-.49-.05-1.09.44-1.34.49-.25,1.09-.05,1.34.44l3.51,6.9c.61,1.2,1.37,2.69,1.36,4.33-.02,2.25-1.41,4.03-2.58,5.13-2.37,2.23-5.58,3.51-8.83,3.51Z"/>
      <path class="cls-4" d="M132.8,187.03c-.45,0-.85-.3-.97-.75-1.62-6.32-6.4-11.73-12.47-14.11-.51-.2-.77-.78-.57-1.3.2-.52.78-.77,1.3-.57,6.66,2.61,11.9,8.54,13.68,15.47.14.54-.19,1.08-.72,1.22-.08.02-.17.03-.25.03Z"/>
      <path class="cls-4" d="M128.51,98.02c-.1,0-.2-.01-.29-.04-5.25-1.61-10.03-4.56-13.84-8.51-.38-.4-.37-1.03.03-1.41.4-.38,1.03-.37,1.41.03,3.58,3.71,8.07,6.47,12.99,7.98.53.16.82.72.66,1.25-.13.43-.53.71-.96.71Z"/>
      <path class="cls-4" d="M109.02,121.11c-.42,0-.81-.27-.95-.69-.17-.52.11-1.09.64-1.26,4.22-1.39,8.88-1.45,13.14-.19.53.16.83.71.67,1.24-.16.53-.71.83-1.24.67-3.87-1.15-8.11-1.09-11.95.17-.1.03-.21.05-.31.05Z"/>
      <g>
        <circle class="cls-1" cx="196.11" cy="133.07" r="23.38"/>
        <circle class="cls-2" cx="187.92" cy="127.12" r="24.51"/>
        <path class="cls-5" d="M207.96,113c-3.03-2.71-6.78-4.69-11.03-5.63-13.22-2.91-26.3,5.45-29.21,18.67-1.54,7,.08,13.95,3.91,19.39-6.41-5.71-9.61-14.62-7.64-23.58,2.91-13.23,15.99-21.59,29.21-18.68,6.22,1.38,11.38,5,14.77,9.83Z"/>
        <path class="cls-1" d="M209.6,115.68c-.12,4.34-.9,8.58-2.19,12.16-5.96,16.45-25.51,20.25-39.71,13.12,3.4,4.97,8.61,8.71,14.96,10.1,13.22,2.91,26.3-5.45,29.21-18.67,1.3-5.89.35-11.76-2.26-16.71Z"/>
        <path class="cls-6" d="M187.92,153.63c-1.88,0-3.79-.2-5.7-.62-14.28-3.14-23.34-17.32-20.19-31.59,3.14-14.28,17.32-23.33,31.59-20.19,14.28,3.14,23.34,17.32,20.19,31.59-2.72,12.36-13.72,20.82-25.89,20.82ZM187.92,104.6c-10.33,0-19.67,7.18-21.98,17.67-2.67,12.12,5.02,24.16,17.15,26.83,12.13,2.67,24.16-5.02,26.83-17.15h0c2.67-12.12-5.02-24.16-17.15-26.83-1.62-.36-3.25-.53-4.84-.53Z"/>
        <path class="cls-4" d="M173.23,125.15c-1.68,5.47-.88,11.62,3.47,15.84,3.38,3.27,8.47,4.55,13.07,3.57s8.64-4.09,11.06-8.12c2.22-3.7,3.13-8.22,2.28-12.46-1.41-7-9.8-11.75-16.58-10.93-6.51.79-11.44,6.02-13.31,12.09Z"/>
      </g>
      <path class="cls-4" d="M137.77,40.19c-2.99,1.98-5.43,5-6.09,8.53-.73,3.9.99,6.43,4.4,8.14,2.94,1.47,6.41,1.85,9.62,1.26,3.58-.66,6.86-2.37,9.8-4.47,2.58-1.85,5.3-4.63,6.46-7.65.87-2.25.82-4.96-.59-6.91-.99-1.37-2.55-2.26-4.18-2.71-4.14-1.15-8.3-.45-12.32.79-2.49.77-4.92,1.58-7.11,3.03Z"/>
      <path class="cls-2" d="M138.69,101.09c-1.83,2.71-3.38,5.62-4.56,8.62-1.01,0-2.06-.32-3.03-.63-.28-.1-.57-.19-.85-.28-4.47-1.47-8.98-2.93-13.64-3.59-2.36-.33-4.77-.46-7.14-.27-2.63.19-5.21.76-7.61,1.82-3.87,1.7-7.22,4.79-8.84,8.63-.41-1.12-.74-2.3-.97-3.51-.89-4.43-.67-9.39.89-14.33,4.07-12.91,15.69-20.76,25.95-17.53,5.11,1.61,8.92,5.67,10.96,10.93.88,2.26,1.43,4.74,1.6,7.34,2.25.83,4.72,1.83,7.24,2.79Z"/>
      <path class="cls-5" d="M129.85,90.96c-2.66-3.46-7.08-5.42-11.47-5.57-4.7-.15-9.33,1.6-13.22,4.24-7.35,5.01-12.24,13.42-13.11,22.25-.89-4.43-.67-9.39.89-14.33,4.07-12.91,15.69-20.76,25.95-17.53,5.11,1.61,8.92,5.67,10.96,10.93Z"/>
      <path class="cls-4" d="M99.54,195.67c2.74,5.17,7.93,9.03,13.9,9.6,2.12.2,4.36-.02,6.2-1.1,1.87-1.1,3.17-3.04,3.79-5.12s.61-4.31.29-6.46c-.77-5.23-3.47-10.26-7.75-13.37-3.53-2.57-9.35-4.36-13.6-2.5-3.3,1.44-4.72,6.86-4.87,10.1-.15,3.12.61,6.16,2.04,8.86Z"/>
      <path class="cls-4" d="M156.34,169.21c-.15,0-.3-.03-.44-.1-.49-.25-.7-.85-.45-1.34,1.48-2.98,1.01-6.83-1.13-9.37-2.14-2.54-5.87-3.64-9.05-2.67-.53.16-1.09-.14-1.25-.67-.16-.53.14-1.09.67-1.25,3.92-1.19,8.51.17,11.16,3.3,2.65,3.13,3.22,7.88,1.4,11.55-.17.35-.53.55-.9.55Z"/>
      <path class="cls-2" d="M247.36,48.6c-1.48-.56-2.87-.49-4.39-.61-1.46-.12-2.73-.5-4.23-.32-2.88.34-5.62,1.77-7.74,3.72-4.54,4.17-6.89,10.38-9.6,15.78-.47.95-.96,1.89-1.52,2.79-.4.63-.91,1.28-1.65,1.44-.58.12-1.17-.09-1.72-.29-2.61-.96-6.26,1.3-8.88.34.71-2.31,2.9-8.04,3.18-10.44.25-2.05.42-4.13.38-6.2-.07-3.9-1.01-8.02-4.18-10.58-1.69-1.37-3.63-2.28-5.66-2.76.06-.22.12-.44.19-.66,2.77-8.65,13.93-13.7,25.91-11.41,8.87,1.68,15.85,6.98,18.62,13.28.12.28.24.56.34.84.61,1.65.95,3.36.96,5.07Z"/>
      <path class="cls-4" d="M222.98,70.63c-.09,0-.19-.01-.29-.04l-11.67-3.5c-.53-.16-.83-.72-.67-1.25s.71-.83,1.25-.67l11.67,3.5c.53.16.83.72.67,1.25-.13.43-.53.71-.96.71Z"/>
      <path class="cls-5" d="M246.06,42.68c-5.64-6.16-13.79-9.99-22.13-10.26-8.18-.27-16.4,2.86-22.39,8.4,2.77-8.65,13.93-13.7,25.91-11.41,8.87,1.68,15.85,6.98,18.62,13.28Z"/>
      <ellipse class="cls-1" cx="276.5" cy="75.65" rx="16.27" ry="21.48" transform="translate(2.78 160.82) rotate(-32.58)"/>
      <path class="cls-2" d="M266.87,65.63c2.64-5,7.05-7.88,12.04-8.62-4.85-2.06-9.95-2.04-13.98.54-7.57,4.84-8.53,16.87-2.14,26.86,1.74,2.72,3.84,5.01,6.14,6.8-4.42-7.64-6.25-17.63-2.06-25.58Z"/>
      <path class="cls-4" d="M268.82,68.86c-.42,3.75.9,7.51,2.82,10.76,1.99,3.37,4.78,6.45,8.45,7.8s8.3.54,10.62-2.61c1.45-1.98,1.83-4.56,1.68-7.01-.27-4.4-2.16-8.69-5.23-11.86-2.63-2.72-7.49-5.87-11.48-5.58s-6.48,5.13-6.86,8.5Z"/>
      <path class="cls-4" d="M269.37,92c-.19,0-.37-.05-.54-.16-5.61-3.62-9.52-9.72-10.48-16.33-.08-.55.3-1.05.85-1.13.54-.09,1.05.3,1.13.85.87,6.04,4.46,11.62,9.58,14.93.46.3.6.92.3,1.38-.19.3-.51.46-.84.46Z"/>
      <path class="cls-2" d="M203.93,209.41c-3.79,7.34-14.06,11.39-25.02,9.3-12.7-2.43-21.51-12.19-19.67-21.81.46-2.4,1.53-4.57,3.1-6.43-1.89,3.63-1.7,8.26.1,11.98,2.05,4.28,5.94,7.46,10.21,9.52,9.89,4.77,22.29,3.68,31.28-2.55Z"/>
      <ellipse class="cls-1" cx="247.35" cy="215.54" rx="23.41" ry="17.73" transform="translate(-77.15 167.14) rotate(-32.58)"/>
      <path class="cls-2" d="M229.84,221.73c4.47-13.78,17.23-22.18,31.01-24.05-6.38-2.91-15.26-2.05-23.04,2.93-10.89,6.96-15.45,19.3-10.17,27.55.27.42.57.82.88,1.2.19-2.92.68-5.63,1.33-7.62Z"/>
      <path class="cls-4" d="M238.67,213.84c-1.97,2.04-3.72,4.52-3.97,7.35-.31,3.53,1.91,7,5.02,8.68,3.11,1.68,6.94,1.72,10.31.64s6.32-3.2,8.88-5.64c2.21-2.11,4.22-4.54,5.28-7.4,1.06-2.87,1.07-6.24-.52-8.85-5.41-8.89-20.13.2-25.01,5.23Z"/>
      <path class="cls-4" d="M228.91,210.55c-.23,0-.46-.08-.64-.24-.42-.36-.48-.99-.12-1.41,2.87-3.41,5.74-6.09,8.76-8.17,3.57-2.47,7.31-4.07,11.1-4.76.55-.1,1.06.26,1.16.81.1.54-.26,1.06-.81,1.16-3.51.64-6.99,2.13-10.32,4.44-2.87,1.98-5.61,4.54-8.37,7.82-.2.23-.48.36-.77.36Z"/>
      <path class="cls-4" d="M218.16,190.76c-.4,0-.77-.24-.93-.63l-4.03-10.13c-.37-.92-.78-1.97-.75-3.14.05-1.61.96-3.19,2.72-4.69,1.92-1.65,4.23-2.89,6.67-3.59.53-.15,1.08.16,1.24.69.15.53-.16,1.08-.69,1.24-2.16.62-4.21,1.72-5.92,3.18-1.31,1.12-1.99,2.21-2.02,3.24-.02.75.3,1.56.61,2.34l4.03,10.13c.2.51-.05,1.09-.56,1.3-.12.05-.25.07-.37.07Z"/>
      <ellipse class="cls-1" cx="288.41" cy="151.63" rx="24.51" ry="18.99" transform="translate(78.31 400.7) rotate(-77.58)"/>
      <path class="cls-2" d="M300.11,130.85c-4.01.4-7.87,1.81-11.05,4.29-3.06,2.38-5.39,5.6-7.16,9.04-4.72,9.19-5.4,20.31-2.15,30.1-5.77-3.31-8.27-11.31-7.94-20.13.09-2.63.44-5.33,1.03-8,2.91-13.22,10.6-20.7,20.84-18.45.22.05.44.11.66.17,2.14.56,4.08,1.6,5.78,2.99Z"/>
      <path class="cls-4" d="M280.66,160.18c.33,1.96.93,3.94,2.2,5.46,2.55,3.05,7.35,3.46,10.94,1.76,3.59-1.7,6.13-5.08,7.9-8.64,1.57-3.15,2.68-6.58,2.77-10.1s-.92-7.13-3.17-9.84c-1.66-2-4.05-3.45-6.63-3.88s-4.39,1.38-6.22,3.05c-3.82,3.52-6.48,8.27-7.57,13.35-.62,2.9-.73,5.91-.24,8.84Z"/>
      <path class="cls-4" d="M271.45,159.26c-.52,0-.95-.4-1-.92-.58-7.26.46-14.7,2.99-21.52.19-.52.77-.78,1.29-.59.52.19.78.77.59,1.29-2.43,6.55-3.42,13.7-2.87,20.67.04.55-.37,1.03-.92,1.08-.03,0-.05,0-.08,0Z"/>
      <path class="cls-4" d="M201.16,195.65s-.03,0-.04,0c-10.99-.45-22.02-3.25-31.9-8.07-.5-.24-.7-.84-.46-1.34.24-.5.84-.7,1.34-.46,9.64,4.71,20.39,7.43,31.1,7.87.55.02.98.49.96,1.04-.02.54-.46.96-1,.96Z"/>
    </g>
  </g>
  <g class="cls-3">
    <rect class="cls-2" x="1" y=".5" width="400" height="256"/>
  </g>
</svg>