<?xml version="1.0" encoding="UTF-8"?>
<svg id="Image_Expanded" xmlns="http://www.w3.org/2000/svg" viewBox="0 0 400 256">
  <defs>
    <style>
      .cls-1 {
        fill: #dd2a39;
      }

      .cls-2 {
        fill: #f43f3f;
      }

      .cls-3 {
        opacity: 0;
      }

      .cls-4 {
        fill: #ffc4b0;
      }

      .cls-5 {
        fill: #7a1839;
      }
    </style>
  </defs>
  <path class="cls-2" d="M199.85,220.84c-.22.24-.35.36-.35.36,0,0-5.99-1.15-15.32-3.82-.59-.17-1.21-.36-1.84-.54-1.26-.37-2.57-.76-3.93-1.19-.68-.21-1.36-.43-2.06-.65-.36-.12-.71-.23-1.07-.34-.71-.24-1.43-.47-2.16-.71-1.84-.61-3.73-1.26-5.68-1.97-.77-.28-1.56-.57-2.35-.86-.8-.3-1.61-.61-2.41-.91-.4-.15-.8-.31-1.22-.47-3.67-1.42-7.46-2.99-11.31-4.73-6.87-3.07-13.94-6.66-20.84-10.79-.28-.17-.56-.34-.83-.51-.03-.01-.05-.03-.07-.03-4.86-2.96-9.65-6.19-14.21-9.72-.8-.63-1.59-1.26-2.39-1.89-.59-.49-1.18-.97-1.77-1.47-.02-.01-.03-.02-.03-.03-.58-.48-1.15-.97-1.72-1.47-.76-.66-1.51-1.35-2.27-2.03-.75-.7-1.49-1.4-2.22-2.11-.73-.71-1.45-1.43-2.17-2.15-.7-.73-1.4-1.47-2.09-2.23-1.73-1.87-3.37-3.8-4.93-5.79-.31-.4-.62-.8-.94-1.22-1.53-2.02-2.98-4.12-4.33-6.26-4.36-6.95-7.72-14.57-9.71-22.93l-.02-.06c-.29-1.25-.55-2.5-.78-3.8-.06-.32-.12-.64-.17-.95-.02-.1-.04-.2-.05-.3-.08-.46-.15-.94-.22-1.42-.11-.79-.21-1.58-.3-2.38-.85-5.89-.4-13.6.11-18.07,1.88-16.66,10.44-29.62,21.97-37.51,9.46-6.5,20.92-9.59,32.27-8.5,10.01.95,19.93,5.15,28.35,13.08.16-.54.31-1.08.47-1.6l3.4,16.27,12.72,6.46-13.31,56.65,28.27,7.03-5.84,23.6-1.88,7.55,15.23,30.41Z"/>
  <path class="cls-1" d="M166.4,91.29s-4.63,60.43-4.22,59.98,15.21-55.68,15.21-55.68l-10.99-4.31Z"/>
  <path class="cls-1" d="M184.62,190.42l15.23,30.41c-.23.24-.35.36-.35.36,0,0-5.99-1.15-15.32-3.82-.6-.17-1.21-.36-1.84-.54-1.27-.37-2.57-.76-3.93-1.19-.68-.21-1.37-.43-2.06-.65-.35-.11-.71-.22-1.07-.34-.71-.24-1.44-.47-2.17-.71-1.84-.61-3.73-1.26-5.68-1.96-.77-.28-1.56-.57-2.35-.87-.8-.3-1.61-.6-2.41-.9-.4-.15-.81-.31-1.22-.47-3.67-1.43-7.46-3-11.31-4.73-6.86-3.08-13.93-6.67-20.83-10.79-.29-.17-.56-.34-.83-.51-.03,0-.05-.02-.07-.03-4.87-2.95-9.65-6.18-14.21-9.72-.8-.63-1.6-1.26-2.39-1.89-1.18-.97-2.36-1.96-3.52-2.97-.77-.67-1.51-1.35-2.27-2.03-.75-.7-1.49-1.4-2.22-2.11-.73-.7-1.45-1.42-2.17-2.14-.7-.74-1.4-1.48-2.1-2.23-1.72-1.88-3.37-3.8-4.93-5.79-.31-.4-.62-.8-.94-1.22-1.54-2.03-2.98-4.12-4.33-6.27-4.36-6.94-7.72-14.56-9.71-22.93,5.75,12.4,15.62,22.31,26.84,29.32,1.74,1.08,3.51,2.09,5.3,3.04,15.17,8.01,31.98,11.5,48.61,14.51,8.62,1.56,17.59,2.98,26.12,1.63l-1.88,7.55Z"/>
  <path class="cls-4" d="M87.68,134.77c2.99,16.92,11.35,32.58,22.33,45.8-.58-.48-1.15-.97-1.72-1.47-.76-.66-1.51-1.35-2.27-2.03-.75-.7-1.49-1.4-2.22-2.11-.73-.71-1.45-1.43-2.17-2.15-.7-.73-1.4-1.47-2.09-2.23-1.73-1.87-3.37-3.8-4.93-5.79-.31-.4-.62-.8-.94-1.22-1.53-2.02-2.98-4.12-4.33-6.26-4.36-6.95-7.72-14.57-9.71-22.93l-.02-.06c-.29-1.25-.55-2.5-.78-3.8-.06-.32-.12-.64-.17-.95-.02-.1-.04-.2-.05-.3-.08-.46-.15-.94-.22-1.42-.11-.79-.21-1.58-.3-2.38-.85-5.89-.4-13.6.11-18.07,1.88-16.66,10.44-29.62,21.97-37.51,9.46-6.5,20.92-9.59,32.27-8.5-14.15,2.39-27.17,11.23-35.23,23.24-9.71,14.48-12.56,32.97-9.53,50.14Z"/>
  <path class="cls-5" d="M199.49,223.19c-.12,0-.25-.01-.37-.03-.25-.05-6.19-1.19-15.49-3.86-.4-.11-.83-.24-1.26-.37l-.59-.17c-1.27-.37-2.6-.76-3.97-1.2-.67-.2-1.37-.43-2.08-.66l-1.91-.61c-.44-.15-.89-.29-1.34-.44-1.91-.63-3.83-1.3-5.72-1.98l-4.78-1.77c-.24-.09-.49-.19-.74-.28l-.5-.19c-3.74-1.44-7.58-3.05-11.42-4.77-7.46-3.34-14.54-7.01-21.04-10.9-.31-.17-.64-.37-.95-.57-5.14-3.12-9.98-6.43-14.36-9.82-.77-.6-1.52-1.2-2.27-1.79l-.14-.11c-1.18-.96-2.38-1.97-3.58-3.02-.56-.49-1.11-.99-1.67-1.48l-.63-.57c-.79-.73-1.54-1.44-2.28-2.17-.71-.69-1.43-1.4-2.14-2.11-.01-.01-.07-.07-.08-.08-.71-.75-1.42-1.49-2.12-2.26-1.76-1.91-3.46-3.9-5.03-5.92-.32-.41-.63-.82-.95-1.24-1.59-2.08-3.09-4.25-4.44-6.43-4.66-7.41-8.01-15.32-9.96-23.52-.32-1.36-.58-2.63-.82-3.96-.06-.3-.12-.62-.16-.93-.03-.13-.05-.26-.07-.39l-.03-.16c-.07-.42-.13-.84-.19-1.27-.11-.8-.22-1.61-.31-2.43-.81-5.69-.48-13.31.11-18.52,1.83-16.28,9.94-30.11,22.82-38.93,19.58-13.46,45.24-11.66,62.65,4.33,1.08.44,1.66,2.73,4.7,15.2l11.9,6.04c.82.42,1.25,1.34,1.04,2.24l-12.86,54.73,26.35,6.55c1.07.27,1.72,1.35,1.46,2.42l-7.54,30.44,14.9,29.75c.38.75.24,1.65-.33,2.26-.28.3-.44.45-.44.45-.38.35-.87.54-1.38.54ZM127.83,63.09c-9.11,0-18.3,2.79-26.53,8.45-11.91,8.15-19.41,20.97-21.11,36.08-.56,4.97-.89,12.19-.12,17.57.1.84.19,1.61.3,2.39.06.41.12.81.18,1.2l.05.31c.02.07.03.12.04.19.04.29.1.59.16.88.23,1.28.48,2.49.77,3.71,1.86,7.82,5.04,15.33,9.48,22.38,1.29,2.08,2.71,4.13,4.22,6.12.31.41.62.81.93,1.2,1.5,1.92,3.12,3.83,4.82,5.66.69.75,1.38,1.48,2.08,2.21.71.7,1.4,1.4,2.11,2.08.73.71,1.46,1.4,2.19,2.09l.62.55c.53.48,1.07.96,1.61,1.43,1.14.99,2.3,1.97,3.47,2.93l.12.09c.74.59,1.48,1.18,2.24,1.77,4.25,3.29,8.97,6.52,14.01,9.58.3.19.57.36.86.52,6.4,3.83,13.34,7.43,20.66,10.71,3.77,1.7,7.55,3.27,11.21,4.69l5.95,2.23c1.84.67,3.74,1.32,5.62,1.94.45.15.88.29,1.32.44l1.89.61c.7.23,1.37.44,2.04.65,1.36.43,2.65.82,3.9,1.18l.61.18c.41.12.82.24,1.21.35,5.01,1.44,9.07,2.43,11.72,3.04l-13.61-27.17c-.21-.43-.27-.92-.15-1.38l7.24-29.21-26.33-6.55c-1.06-.26-1.71-1.33-1.46-2.4l12.95-55.12-11.32-5.75c-.52-.26-.9-.74-1.04-1.31-1.42-5.84-3.06-12.29-3.58-13.95-8.98-8.33-20.07-12.57-31.3-12.57Z"/>
  <path class="cls-2" d="M208.27,214.65l-3.55-34.42,4.36-6.23,13.59-19.44-21.92-23.78-1.81-1.95,34.78-32.38-9.96-14.69c-1.53-2.26-2.14-5.08-1.73-7.84l1.38-9.08c.32-2.09,1.22-4.05,2.58-5.56,1.66-1.83,3.39-3.51,5.2-5.01.44-.37.87-.72,1.31-1.06.87-.67,1.75-1.31,2.65-1.93,2.25-1.54,4.59-2.85,6.99-3.93.96-.43,1.92-.84,2.91-1.22.97-.37,1.96-.71,2.95-1.01,1.48-.45,2.98-.83,4.5-1.15,1.01-.2,2.02-.38,3.04-.52,5.74-.79,11.55-.53,17.16.74.34.08.68.15,1.01.24.29.06.58.14.87.21,1.01.26,2.02.57,3.01.92.43.14.86.29,1.27.45.56.2,1.11.4,1.66.64.09.04.17.08.27.11.22.08.45.18.68.29.35.15.7.3,1.03.47,1.24.57,2.46,1.2,3.66,1.89.43.24.86.49,1.27.76.42.25.83.52,1.24.78.64.42,1.26.84,1.87,1.3.44.32.87.63,1.29.97.49.37.94.76,1.4,1.13.49.42.97.82,1.44,1.26.37.33.73.68,1.09,1.02.93.9,1.82,1.84,2.69,2.82.44.5.87,1.02,1.3,1.54.31.4.63.79.93,1.2.42.55.82,1.11,1.23,1.69.34.48.67.97.98,1.48.06.09.12.18.17.26.22.37.45.73.67,1.1.45.76.88,1.51,1.3,2.29.24.45.48.91.71,1.37.6,1.21,1.16,2.47,1.68,3.77.14.33.27.67.39,1.02.08.2.15.38.21.58.1.26.21.52.29.78.15.39.28.79.41,1.19.25.78.5,1.59.72,2.38.75,2.7,1.68,6.66,2.29,10.68.13.81.23,1.61.34,2.41.17,1.63.3,3.22.32,4.7,3.35,71.68-96.51,113.64-104.12,116.73Z"/>
  <path class="cls-4" d="M280.52,46.67l-3.12.33c-6.59-.1-13.23-.2-19.7,1.19-6.45,1.4-12.8,4.43-17.26,9.71-4.78,5.67-6.43,13.32-5.77,20.82.71,8,5.68,13.53,9.87,19.97-8.71,6.53-17.42,13.06-26.14,19.59-4.36,3.26-8.71,6.53-13.07,9.79-1.02.76-3.22,3.06-4.65,2.68-.22-.06-1.64-2.02-1.75-1.92,0,0,34.78-32.38,34.78-32.38l-9.96-14.69c-1.53-2.26-2.14-5.08-1.73-7.84l1.38-9.08c.32-2.09,1.22-4.05,2.58-5.56,1.66-1.83,3.39-3.51,5.2-5.01.44-.37.87-.72,1.31-1.06.87-.67,1.75-1.31,2.65-1.93,2.25-1.54,4.59-2.85,6.99-3.93.96-.43,1.92-.84,2.91-1.22.97-.37,1.96-.71,2.95-1.01,1.48-.45,2.98-.83,4.5-1.15,1.01-.2,2.02-.38,3.04-.52,5.74-.79,11.55-.53,17.16.74.34.08.68.15,1.01.24.29.06.58.14.87.21,1.01.26,2.02.57,3.01.92.43.14.86.29,1.27.45.56.2,1.11.4,1.66.64Z"/>
  <path class="cls-1" d="M208.27,214.64l-3.55-34.42,4.36-6.22c2.52.68,5.1,1.09,7.72,1.2,10.78.39,21.02-4.76,30.51-10.32,14.65-8.6,28.91-18.7,39.61-32.59,10.69-13.9,17.54-32.08,15.6-50.07-1.58-14.67-9.88-28.76-21.73-35.44.23.08.45.18.68.28.35.15.69.31,1.04.48,1.24.56,2.46,1.19,3.66,1.89.43.24.86.49,1.28.76.42.25.83.52,1.24.78.63.42,1.26.85,1.86,1.3.43.32.87.63,1.29.98.48.36.94.74,1.4,1.13.48.41.97.82,1.44,1.26.36.33.72.68,1.09,1.03.93.9,1.82,1.84,2.68,2.81.41.47.8.94,1.2,1.42.35.43.69.87,1.03,1.31.41.56.82,1.11,1.22,1.69.34.48.67.98,1,1.47.05.09.11.18.17.27.22.36.45.73.67,1.09.45.75.88,1.51,1.3,2.3.24.45.47.9.7,1.38.6,1.21,1.16,2.47,1.68,3.76.14.33.27.68.4,1.02.07.2.15.39.21.58.1.27.2.52.28.78.15.4.28.79.41,1.19.26.78.5,1.58.72,2.38.76,2.7,1.68,6.65,2.3,10.68.13.8.24,1.61.33,2.41.18,1.62.3,3.21.33,4.69,3.35,71.68-96.5,113.64-104.12,116.73Z"/>
  <path class="cls-5" d="M208.27,216.64c-.36,0-.71-.1-1.03-.29-.54-.32-.89-.88-.96-1.51l-3.55-34.42c-.05-.48.08-.96.35-1.35l17.03-24.35-22.64-24.54c-.75-.81-.7-2.07.11-2.82l33.53-31.21-9-13.28c-1.8-2.65-2.54-6.03-2.05-9.26l1.38-9.08c.38-2.51,1.45-4.79,3.07-6.6,1.7-1.88,3.52-3.64,5.41-5.21.46-.38.91-.74,1.36-1.1.93-.73,1.83-1.39,2.75-2.01,2.29-1.56,4.74-2.94,7.28-4.1,1.05-.48,2.05-.9,3.03-1.27,1.15-.43,2.12-.76,3.08-1.05,1.54-.48,3.12-.88,4.68-1.19,1.06-.22,2.13-.4,3.17-.54,5.95-.82,11.96-.56,17.87.77.35.08.7.16,1.04.25.32.07.65.15.97.24.95.24,2.02.56,3.1.94.42.14.88.3,1.34.48.62.22,1.28.48,1.93.76.22.08.44.17.67.28l.09.04c.37.17.74.33,1.1.51,1.28.58,2.57,1.25,3.79,1.96.43.24.9.51,1.34.8.4.24.83.51,1.26.79.74.48,1.38.93,1.97,1.37.45.33.91.67,1.36,1.03.45.33.93.74,1.42,1.14.54.46,1.04.88,1.52,1.33.33.31.67.63,1.02.96l.09.09c.96.93,1.9,1.91,2.8,2.94.43.49.84.99,1.25,1.48l1.06,1.34c.46.62.88,1.19,1.29,1.79.34.49.68,1,1.02,1.51.04.06.07.12.1.18l.19.29c.2.32.4.64.59.97.46.77.9,1.56,1.34,2.37.25.48.49.95.74,1.44.63,1.27,1.22,2.58,1.74,3.91.14.32.28.69.41,1.06l.05.13c.06.16.12.32.17.48l.03.09c.09.24.18.48.26.72.15.41.29.82.42,1.23.26.77.5,1.61.74,2.44.45,1.61,1.58,5.89,2.35,10.92.12.83.24,1.66.34,2.47.2,1.86.31,3.45.34,4.89,1.43,30.58-14.96,59.44-48.72,85.7-25.96,20.2-53.58,31.67-56.65,32.92-.24.1-.5.15-.75.15ZM206.79,180.76l3.2,30.99c7.82-3.38,31.13-14.14,53.23-31.33,32.67-25.42,48.54-53.15,47.18-82.41-.03-1.38-.13-2.85-.32-4.57-.09-.76-.21-1.55-.32-2.33-.73-4.81-1.81-8.9-2.24-10.44-.21-.77-.44-1.54-.69-2.28-.13-.4-.25-.77-.39-1.13-.01-.04-.03-.08-.04-.12-.05-.17-.12-.33-.18-.5l-.06-.15s-.03-.07-.04-.11c-.04-.12-.08-.23-.12-.34l-.06-.15c-.12-.32-.24-.63-.37-.94-.5-1.26-1.04-2.48-1.63-3.65-.23-.46-.45-.9-.68-1.33-.4-.74-.81-1.48-1.25-2.2-.18-.31-.37-.61-.56-.91l-.1-.16c-.07-.11-.13-.2-.18-.29-.3-.46-.61-.92-.92-1.37-.39-.57-.79-1.11-1.19-1.64l-.95-1.21c-.39-.47-.78-.94-1.18-1.4-.83-.94-1.69-1.85-2.56-2.69l-.09-.08c-.32-.31-.64-.61-.96-.91-.45-.42-.91-.81-1.36-1.19-.44-.36-.88-.73-1.33-1.07-.45-.36-.86-.66-1.26-.96-.59-.44-1.18-.85-1.79-1.24-.38-.24-.77-.5-1.17-.74-.43-.27-.82-.5-1.22-.73-1.14-.66-2.31-1.27-3.51-1.81-.37-.18-.7-.33-1.02-.47l-.09-.04c-.14-.06-.28-.13-.42-.18-.05-.02-.1-.04-.15-.06-.59-.26-1.19-.49-1.79-.71-.44-.17-.84-.31-1.23-.44-1.01-.35-1.97-.64-2.89-.88-.3-.09-.54-.15-.77-.19-.04,0-.08-.02-.12-.03-.3-.08-.62-.15-.93-.23-5.43-1.23-10.96-1.47-16.44-.71-.97.13-1.91.29-2.9.5-1.44.29-2.89.66-4.31,1.1-.88.27-1.78.57-2.84.97-.89.33-1.8.71-2.77,1.16-2.34,1.06-4.59,2.33-6.7,3.77-.85.57-1.68,1.18-2.54,1.85-.44.34-.85.68-1.27,1.02-1.74,1.45-3.42,3.07-4.99,4.81-1.09,1.21-1.83,2.81-2.09,4.52l-1.38,9.08c-.34,2.25.17,4.59,1.41,6.42l9.96,14.7c.55.82.43,1.91-.29,2.59l-33.33,31.02,22.38,24.26c.64.69.71,1.73.17,2.5l-17.53,25.06Z"/>
  <path class="cls-1" d="M163.51,234.19c-1.3.51-2.67,1.05-3.6,2.17-1.33,1.61-1.46,4.08-.82,6.13.63,2.05,1.91,3.78,3.16,5.47.82,1.11,1.66,2.24,2.76,3.01s2.52,1.14,3.73.6c1.32-.59,2.08-2.06,2.73-3.44,1.97-4.19,3.8-8.45,5.48-12.78.45-1.15.9-2.37.75-3.61-.59-5.01-11.65,1.47-14.19,2.46Z"/>
  <path class="cls-5" d="M167.49,253.82c-1.22,0-2.49-.41-3.63-1.22-1.38-.96-2.36-2.29-3.22-3.45-1.27-1.72-2.72-3.66-3.46-6.07-.91-2.95-.45-6.01,1.2-8,1.28-1.54,3.09-2.24,4.41-2.76h0c.37-.15,1.08-.48,1.89-.88,5.2-2.52,10.11-4.64,13.03-3.04,1.12.61,1.82,1.71,1.98,3.09.19,1.65-.3,3.1-.87,4.57-1.7,4.35-3.56,8.7-5.54,12.91-.61,1.3-1.64,3.49-3.72,4.42-.65.29-1.35.43-2.06.43ZM164.23,236.05h0c-1.27.49-2.21.89-2.78,1.59-.77.93-.95,2.64-.45,4.26.54,1.75,1.72,3.34,2.85,4.87.72.97,1.46,1.97,2.3,2.56.63.44,1.33.6,1.77.41.73-.32,1.35-1.66,1.73-2.46,1.94-4.13,3.77-8.39,5.43-12.66.39-1.01.71-1.91.63-2.65,0-.03,0-.06-.01-.08-.72-.27-2.95.1-9.29,3.17-.93.45-1.66.8-2.18,1.01ZM175.68,231.81h0Z"/>
  <path class="cls-2" d="M229.13,26.77c-4.12,8.64-8.8,16.97-13.99,24.9-2.05,3.13-5.46,7.89-8.53,8.61-1.69.4-3.27-.41-4.47-3.38-2.72-6.75-1.6-18.22-2.17-25.58-.31-3.88-.61-7.81.03-11.64.64-3.83,2.35-7.61,5.31-9.79,4.89-3.62,11.44-1.97,17.13-.14l.18.06c3.19,1.03,6.72,2.37,8.19,5.61,1.62,3.57.01,7.81-1.68,11.35Z"/>
  <path class="cls-4" d="M201.63,42.98c-1.23-5.8-2.47-11.7-1.97-17.61.31-3.7,1.38-7.42,3.39-10.57,1.36-2.14,3.26-4.36,5.44-5.69,1.53-.93,2.73-.88,4.48-.65.98.13,1.96.31,2.93.53.63.14,1.99.82,2.58.7-9.19,1.84-11.5,11.04-13.14,18.99-.99,4.82-1.79,9.73-3.72,14.3Z"/>
  <path class="cls-1" d="M229.13,26.77c-4.12,8.64-8.8,16.97-13.99,24.9-2.05,3.13-5.46,7.89-8.53,8.61,5.8-15.52,16.06-43.39,16.06-45.67,0-.96-.1-2.78-.23-4.86l.18.06c3.19,1.03,6.72,2.37,8.19,5.61,1.62,3.57.01,7.81-1.68,11.35Z"/>
  <path class="cls-5" d="M205.86,62.38c-.17,0-.34,0-.51-.02-2.19-.21-3.89-1.8-5.07-4.71-2.03-5.03-2.07-12.24-2.11-18.61-.02-2.76-.03-5.37-.21-7.56h0c-.31-3.95-.63-8.03.06-12.12.81-4.84,2.97-8.77,6.09-11.07,5.7-4.21,12.86-2.4,19.12-.37,3.6,1.17,7.6,2.74,9.39,6.69,1.94,4.29.23,9-1.69,13.04-4.15,8.7-8.9,17.15-14.12,25.13-4.33,6.61-7.74,9.61-10.95,9.61ZM212.44,9.75c-2.18,0-4.22.48-5.95,1.75-2.24,1.66-3.89,4.76-4.52,8.51-.6,3.61-.3,7.45-.01,11.15h0c.18,2.34.2,5.02.22,7.85.04,6.01.08,12.81,1.82,17.13.55,1.36,1.18,2.17,1.75,2.22.58.06,2.84-.34,7.72-7.8,5.12-7.83,9.79-16.13,13.86-24.66,1.53-3.21,2.92-6.87,1.66-9.67-1.11-2.46-4.06-3.59-6.98-4.53-3.12-1.01-6.48-1.97-9.57-1.97Z"/>
  <path class="cls-1" d="M179.46,57c-.49-2.08-1.12-4.37-2.83-5.44-2.15-1.33-4.82-.07-7,1.19-1.26.73-2.55,1.47-3.51,2.62s-1.56,2.78-1.16,4.27c.44,1.63,1.89,2.64,3.22,3.51,4.61,2.99,9.23,5.98,13.84,8.98.43.18.85.35,1.28.54-.9-4.97-2.51-10.6-3.84-15.67Z"/>
  <path class="cls-5" d="M183.3,74.66c-.27,0-.54-.05-.79-.16-.41-.18-.83-.35-1.25-.52-.11-.05-.22-.1-.33-.17l-13.84-8.98c-1.27-.83-3.41-2.21-4.07-4.67-.53-1.98.06-4.31,1.56-6.08,1.2-1.43,2.71-2.3,4.04-3.06,1.7-.98,5.67-3.26,9.06-1.15,2.51,1.56,3.27,4.74,3.72,6.65.26.98.52,1.97.79,2.98,1.15,4.29,2.33,8.73,3.07,12.81.13.73-.15,1.46-.72,1.92-.36.29-.8.43-1.24.43ZM174.54,52.99c-1.14,0-2.59.72-3.92,1.49-1.1.63-2.23,1.29-2.98,2.17-.64.76-.95,1.75-.75,2.46.24.9,1.27,1.63,2.38,2.35l11.16,7.23c-.63-2.68-1.37-5.46-2.1-8.18-.27-1.02-.54-2.03-.8-3.02,0-.02,0-.03-.01-.05-.4-1.69-.91-3.55-1.94-4.2-.3-.19-.65-.27-1.03-.27Z"/>
  <path class="cls-4" d="M93.1,88.96c-3.81,5.63-5.51,12.65-4.7,19.4.35,2.93,1.21,5.92,3.16,8.14,3.47,3.95,9.71,4.51,14.56,2.49s8.54-6.12,11.58-10.41c2.69-3.79,5.03-7.91,6.1-12.44s.73-9.51-1.66-13.49c-7.55-12.55-23.1-2.46-29.03,6.31Z"/>
  <g class="cls-3">
    <rect class="cls-2" width="400" height="256"/>
  </g>
</svg>